<?xml version="1.0" encoding="UTF-8"?>
<svg height="781.509" width="569.8298977446809" xmlns="http://www.w3.org/2000/svg">
 <g style="fill:none;">
  <text x="51.024,55.444" y="771.509" svg_rhmargin="59.864" style="fill:#171615;font-family:QGTWFH+FrutigerLTPro-BoldCn;font-size:8.5px;font-style:NORMAL;font-weight:bold;">98</text>
  <path d=" M 18.708599090576172 542.8345947265625 C 18.708599090576172 542.8345947265625 30.708599090576172 542.8345947265625 30.708599090576172 554.8345947265625 L 30.708599090576172 629.7636108398438 C 30.708599090576172 629.7636108398438 30.708599090576172 641.7636108398438 18.708599090576172 641.7636108398438 L -8.291400909423828 641.7636108398438 L -8.291400909423828 542.8345947265625 Z " style="fill:none;stroke:#000000;stroke-width:1.0;"/>
  <text x="51.024,55.903,60.629,65.193,70.072,73.379,77.943,81.25,83.46,87.88,90.08999999999999,223.191,230.433,232.796,236.103,238.466,243.345,247.909,251.216,253.579,258.458,263.184,265.394,269.967,274.531,277.838,282.564,289.33,293.894,298.306,301.927,304.137,309.016,313.895,320.984,325.863,330.427,333.734,336.097,340.976,343.339,347.903,350.113,356.879,359.242,362.549,367.275,369.485,373.905,376.115,380.535,383.935,388.814,391.024,393.387,398.113,400.323,403.629,408.355,412.92,415.13,420.009,424.888,429.614,432.92,437.4,441.811,445.118,447.328,452.207,455.352,457.562,462.126,466.852,470.473,473.78,478.344,480.707,485.433,489.998,494.877,497.24,501.804,504.014,509.684,514.248,518.66,523.224,525.587,530.466,535.345,542.434,546.999,551.725" y="38.083999999999946" svg_rhmargin="555.031" style="fill:#4c8ecf;font-family:JQRBJV+FrutigerLTPro-BlackCn;font-size:8.5px;font-style:NORMAL;font-weight:bold;">Chapter 2 Mitigation Pathways Compatible with 1.5°C in the Context of Sustainable Development</text>
  <text svg_rhmargin="24.709" x="18.469,24.709000000000003" y="68.024" style="fill:#ffffff;font-family:JQRBJV+FrutigerLTPro-BlackCn;font-size:12.0px;font-style:NORMAL;font-weight:bold;">2 </text>
  <text x="51.024,57.144,60.144,66.264,69.384,87.024,90.24,96.348,100.452,104.436,110.76,117.084,123.192,128.184,132.288,135.288,141.612,147.72,150.72,154.824,161.148,164.148,173.808,176.808,180.912,183.912,190.236,196.116,200.22,203.22,209.544,215.652,218.652,224.1,229.98,234.084,240.192,248.964,254.844,260.28,265.044,268.044,273.924,280.032,286.474" y="68.024" svg_rhmargin="289.594" style="fill:#192a53;font-family:QGTWFH+FrutigerLTPro-BoldCn;font-size:12.0px;font-style:NORMAL;font-weight:bold;">2.1 Introduction to Mitigation Pathways and </text>
  <text x="87.024,91.128,97.236,103.116,106.116,111.996,118.104,122.868,126.972,132.852,135.852,141.96,147.84,154.164,157.164,163.044,166.044,173.484,179.364,185.016,190.896,193.896,200.22,206.544,215.76,221.64,227.748,231.852,234.852,241.404,247.728,253.836,257.94,263.82,269.256" y="80.024" svg_rhmargin="273.48" style="fill:#192a53;font-family:QGTWFH+FrutigerLTPro-BoldCn;font-size:12.0px;font-style:NORMAL;font-weight:bold;">the Sustainable Development Context</text>
  <text x="51.024,54.795,59.279,61.293,64.713,67.117,70.717,75.201,79.505,83.979,86.696,90.819,93.536,95.94,100.243,103.663,107.083,111.206,114.626,118.046,122.169,125.589,127.993,130.71,135.194,139.317,141.72,143.734,145.748,148.465,152.588,155.305,159.609,162.326,166.81,169.527,173.65,176.053,180.537,185.021,187.425,194.189,196.203,198.92,200.934,205.408,209.712,212.429,214.443,218.927,223.411,225.814,230.289,234.592,237.309,241.793,248.035,252.338,256.11,259.53,261.933,264.65,269.134,271.538,273.552,275.566,282.33,284.344,287.061,289.464,293.948,296.76" y="116.0" svg_rhmargin="299.04" style="fill:#171615;font-family:QGTWFH+FrutigerLTPro-Condensed;font-size:9.5px;font-style:NORMAL;font-weight:normal;">This chapter assesses the literature on mitigation pathways to limit or </text>
  <text x="51.024,53.741,57.864,60.581,65.065,67.782,72.266,74.546,75.743,80.217,82.231,86.715,91.19,95.493,97.507,99.787,100.984,107.748,111.871,116.175,120.659,122.93900000000001,124.136,130.377,134.681,137.398,144.162,146.176,150.66,155.134,157.414,158.611,161.328,165.812,168.092,169.289,173.754,175.939,180.404,184.109,189.116,191.39600000000002,192.588,195.134,197.851,201.974,203.988,208.291,211.008,213.022,216.974,221.097,223.377,224.574,227.291,231.775,234.055,235.252,237.969,242.453,246.576,248.856,250.053,254.528,257.245,261.368,264.085,266.099,270.583,275.057,279.541,282.961,285.678,288.395,290.409,294.713,296.822" y="127.99800000000005" svg_rhmargin="299.102" style="fill:#171615;font-family:QGTWFH+FrutigerLTPro-Condensed;font-size:9.5px;font-style:NORMAL;font-weight:normal;">return global mean warming to 1.5°C (relative to the pre-industrial </text>
  <text x="51.024,55.498,59.802,63.222,67.345,69.995,74.47,78.593,81.31,83.324,87.808,92.282,94.933,99.398,103.863,108.328,112.793,117.448,121.913,126.378,130.843,135.308,137.854,139.687,142.338,146.822,150.945,154.716,157.367,161.841,166.325,170.448,173.868,176.585,178.599,183.083,187.567,190.987,193.638,197.941,202.416,206.89,209.607,213.73,217.15,220.57,224.693,229.168,231.818,236.122,238.839,242.962,244.795,246.919,254.386,258.87,263.174,265.891,268.536,271.253,275.025,279.499,283.622,287.042,289.693,294.177,296.817" y="139.99699999999996" svg_rhmargin="299.097" style="fill:#171615;font-family:QGTWFH+FrutigerLTPro-Condensed;font-size:9.5px;font-style:NORMAL;font-weight:normal;">base period 1850–1900). Key questions addressed are: What types of </text>
  <text x="51.024,57.788,59.802,62.519,64.533,69.007,73.311,76.028,78.042,82.526,87.01,89.29,90.553,95.028,99.331,102.048,106.532,112.775,117.078,120.85,124.27,126.55,127.813,132.297,136.601,140.553,144.676,146.956,148.219,152.694,156.817,160.94,165.424,167.704,168.967,173.442,177.565,181.517,185.64,187.654,192.138,196.612,200.735,205.21,207.49,208.753,211.47,215.954,220.258,222.975,225.255,226.518,230.119,234.603,239.087,241.101,245.575,247.855,249.119,253.593,257.716,259.996,261.26,264.86,269.344,273.828,277.248,279.262,282.682,285.399,289.522,294.006,296.818" y="151.995" svg_rhmargin="299.098" style="fill:#171615;font-family:QGTWFH+FrutigerLTPro-Condensed;font-size:9.5px;font-style:NORMAL;font-weight:normal;">mitigation pathways have been developed that could be consistent </text>
  <text x="51.024,57.436,59.45,62.167,66.651,69.226,73.691,75.876,80.341,84.046,89.052,93.175,95.227,102.694,107.178,111.482,114.199,116.773,120.374,124.858,129.161,133.645,138.12,142.243,145.663,148.237,150.251,154.735,157.31,161.433,168.197,170.211,173.631,177.051,179.065,183.549,188.033,191.101,192.935,195.509,199.632,204.116,208.239,210.956,215.431,219.202,221.777,226.08,230.564,235.039,237.613,239.627,243.931,248.415,252.889,255.464,259.948,263.368,267.491,270.065,274.54,279.024,281.598,284.315,288.799,292.922,296.789" y="163.99400000000003" svg_rhmargin="299.069" style="fill:#171615;font-family:QGTWFH+FrutigerLTPro-Condensed;font-size:9.5px;font-style:NORMAL;font-weight:normal;">with 1.5°C? What changes in emissions, energy and land use do they </text>
  <text x="51.024,55.147,59.631,62.348,66.651,68.665,70.679,74.802,76.367,83.834,88.318,92.621,95.338,97.428,101.903,106.387,108.477,111.194,115.678,119.801,123.572,125.662,127.676,134.44,138.915,140.929,144.7,146.79,149.336,153.82,156.537,158.627,162.228,164.242,166.256,173.02,177.323,180.04,184.163,186.253,190.728,195.212,197.226,199.24,202.84,206.612,208.702,213.005,217.489,221.964,224.054,226.068,232.832,237.306,239.32,243.443,250.207,254.33,258.814,261.531,265.835,268.552,270.566,275.05,279.534,281.367,283.457,287.761,292.245,296.813" y="175.99199999999996" svg_rhmargin="299.093" style="fill:#171615;font-family:QGTWFH+FrutigerLTPro-Condensed;font-size:9.5px;font-style:NORMAL;font-weight:normal;">entail? What do they imply for climate policy and implementation, and </text>
  <text x="51.024,57.436,61.92,66.224,68.941,71.221,71.691,73.705,80.469,84.943,89.247,92.847,95.564,98.984,101.264,101.735,106.209,110.693,112.973,113.443,116.16,120.644,124.767,128.539,130.819,131.289,135.773,140.077,144.029,148.152,150.432,150.907,155.391,159.875,162.155,162.625,166.045,170.529,173.949,176.666,180.969,182.983,187.467,191.771,196.245,198.259,202.382,204.662,205.137,209.612,213.735,217.687,221.81,223.824,228.308,232.782,239.546,243.669,248.153,250.87,254.993,257.27299999999997,257.744,259.948,264.432,266.712,267.182,269.899,274.022,276.739,283.503,286.923,289.203,289.678,294.162,296.803" y="187.99099999999999" svg_rhmargin="299.083" style="fill:#171615;font-family:QGTWFH+FrutigerLTPro-Condensed;font-size:9.5px;font-style:NORMAL;font-weight:normal;">what impacts do they have on sustainable development? In terms of </text>
  <text x="51.024,53.57,57.693,61.996,65.416,67.43,71.905,73.919,75.933,77.947,80.664,84.435,86.677,89.223,92.643,96.766,100.889,103.131,108.138,110.855,115.339,118.759,122.179,124.896,129.902,134.386,138.69,143.164,145.881,150.004,152.721,154.963,159.799,164.283,168.235,170.477,174.942,177.184,179.198,183.682,185.924,190.93,195.414,199.718,204.192,206.909,211.032,213.749,215.991,220.456,223.002,224.836,227.078,229.795,234.279,236.293,239.713,241.955,245.555,250.039,254.343,258.817,261.534,265.657,268.374,270.616,273.162,277.646,281.247,285.731,289.151,293.274,296.789" y="199.98900000000003" svg_rhmargin="299.069" style="fill:#171615;font-family:QGTWFH+FrutigerLTPro-Condensed;font-size:9.5px;font-style:NORMAL;font-weight:normal;">feasibility (see Cross-Chapter Box 3 in Chapter 1), this chapter focuses </text>
  <text x="51.024,55.508,59.992,62.652,67.126,71.249,75.733,80.208,84.692,88.463,91.883,93.897,97.498,101.801,103.815,106.475,110.95,112.964,119.728,123.851,128.335,131.755,133.769,138.253,142.737,146.157,148.817,153.12,157.604,162.079,164.739,167.456,171.579,175.179,179.663,184.147,188.631,190.645,195.129,199.604,201.618,205.218,209.522,211.536,214.196,218.499,222.983,227.458,230.118,234.241,237.841,242.325,246.809,251.293,258.057,260.071,263.672,266.332,270.455,274.939,279.242,283.717,285.731,287.745,292.229,296.798" y="211.98800000000006" svg_rhmargin="299.078" style="fill:#171615;font-family:QGTWFH+FrutigerLTPro-Condensed;font-size:9.5px;font-style:NORMAL;font-weight:normal;">on geophysical dimensions and technological and economic enabling </text>
  <text x="51.024,53.57,57.873,61.474,64.191,68.675,71.392,74.46,76.294,78.574,81.262,85.385,89.869,93.47,95.484,99.787,101.801,104.081,106.77,111.073,115.557,120.032,122.312,125.0,127.014,131.498,134.918,137.635,139.649,142.366,146.85,149.567,151.581,156.065,160.549,164.853,166.867,169.147,171.835,176.31,178.324,185.088,189.211,193.695,197.115,199.129,203.613,208.097,211.517,213.797,216.485,220.789,224.209,226.489,229.177,235.59,239.713,241.727,243.741,246.02100000000002,248.709,253.013,256.433,258.71299999999997,261.401,265.705,270.179,274.654,276.668,279.385,281.399,285.883,290.367,294.67,296.779" y="223.986" svg_rhmargin="299.059" style="fill:#171615;font-family:QGTWFH+FrutigerLTPro-Condensed;font-size:9.5px;font-style:NORMAL;font-weight:normal;">factors. Social and institutional dimensions as well as additional </text>
  <text x="51.024,55.327,58.747,63.222,67.345,70.945,73.662,77.082,79.267,83.751,86.297,88.482,91.199,95.322,98.923,103.407,107.891,109.905,113.505,117.809,119.823,122.008,124.554,128.677,132.98,136.4,138.414,142.889,144.903,146.917,148.931,151.648,155.419,157.604,161.908,164.625,168.748,170.933,174.533,179.017,182.969,187.092,189.809,193.932,198.407,200.592,202.606,207.09,209.275,214.281,218.765,223.069,227.543,230.26,234.383,237.1,239.285,243.75" y="235.985" svg_rhmargin="246.03" style="fill:#171615;font-family:QGTWFH+FrutigerLTPro-Condensed;font-size:9.5px;font-style:NORMAL;font-weight:normal;">aspects of technical feasibility are covered in Chapter 4.</text>
  <text x="51.024,58.32,60.334,63.051,65.065,69.539,73.843,76.56,78.574,83.058,87.542,89.822,91.997,96.472,100.775,103.492,107.976,114.218,118.521,122.293,125.713,127.993,130.168,134.472,137.189,141.312,143.592,145.767,148.484,152.256,156.73,158.744,162.345,166.648,168.662,170.676,174.448,176.728,178.903,183.378,187.501,190.921,192.935,197.409,201.893,206.016,210.491,212.77100000000002,214.946,217.663,222.147,224.427,226.603,229.32,233.443,237.746,241.347,245.831,248.111,250.286,254.59,256.87,259.045,263.52,266.237,270.36,274.834,278.957,283.612,288.096,292.219,296.788" y="259.98199999999997" svg_rhmargin="299.068" style="fill:#171615;font-family:QGTWFH+FrutigerLTPro-Condensed;font-size:9.5px;font-style:NORMAL;font-weight:normal;">Mitigation pathways are typically designed to reach a predefined </text>
  <text x="51.024,54.624,56.638,58.652,65.416,69.72,72.437,76.56,78.84,80.949,83.666,87.969,90.686,95.161,99.284,102.001,104.281,106.39,110.693,112.707,117.191,121.675,125.446,127.279,129.559,131.668,138.964,140.978,145.462,147.476,154.24,156.254,159.855,164.158,166.875,168.889,173.373,177.857,180.137,182.246,186.73,189.276,191.556,193.665,200.429,202.443,205.16,207.174,211.649,215.952,218.669,220.683,225.167,229.651,231.931,234.04,238.163,242.115,246.59,250.713,255.197,259.671,261.685,264.402,268.886,271.603,275.726,278.795,280.628,282.90799999999996,285.017,289.492,293.976,296.787" y="271.98" svg_rhmargin="299.067" style="fill:#171615;font-family:QGTWFH+FrutigerLTPro-Condensed;font-size:9.5px;font-style:NORMAL;font-weight:normal;">climate target alone. Minimization of mitigation expenditures, but </text>
  <text x="51.024,55.508,59.992,62.709,64.989,67.364,70.964,72.978,74.992,81.756,86.06,88.777,92.9,95.617,98.334,102.457,104.471,108.774,111.491,115.614,120.089,122.369,124.744,129.218,133.522,140.286,144.589,149.064,153.187,156.607,158.887,161.262,165.746,168.463,170.743,173.118,176.538,181.022,184.442,187.159,191.462,193.476,197.96,202.264,206.738,208.752,212.875,215.155,217.53,222.005,226.128,230.08,234.203,236.217,240.701,245.175,251.939,256.062,260.546,263.263,265.54299999999995,267.918,269.932,276.696,281.171,285.474,289.075,291.792,294.86,296.789" y="283.97900000000004" svg_rhmargin="299.069" style="fill:#171615;font-family:QGTWFH+FrutigerLTPro-Condensed;font-size:9.5px;font-style:NORMAL;font-weight:normal;">not climate-related damages or sustainable development impacts, </text>
  <text x="51.024,53.038,56.458,58.738,60.106,64.59,67.136,69.853,73.976,78.46,80.74,82.108,84.825,89.309,93.432,95.712,97.08,101.554,105.858,109.278,111.292,114.712,116.992,118.36,120.906,125.39,128.107,130.387,131.755,134.472,138.956,143.079,146.499,150.622,152.90200000000002,154.27,158.744,163.048,165.765,170.249,176.49,180.794,184.565,187.985,190.26500000000001,191.633,194.35,198.834,201.114,202.482,205.199,209.683,213.806,216.086,217.454,221.929,226.052,229.472,231.486,234.203,238.326,242.8,245.08,246.448,250.049,252.063,254.077,260.841,265.144,267.861,271.984,274.26399999999995,275.632,278.349,282.653,285.37,289.844,293.967,296.779" y="295.977" svg_rhmargin="299.059" style="fill:#171615;font-family:QGTWFH+FrutigerLTPro-Condensed;font-size:9.5px;font-style:NORMAL;font-weight:normal;">is often the basis for these pathways to the desired climate target </text>
  <text x="51.024,53.57,56.99,61.113,65.236,67.516,68.941,73.947,76.664,81.148,84.568,87.988,90.705,95.712,100.196,104.499,108.974,111.691,115.814,118.531,120.811,122.236,127.071,131.555,135.507,137.787,139.212,143.677,145.957,147.382,149.396,153.88,156.16,157.585,160.302,164.786,166.8,170.22,172.5,173.925,177.526,182.01,186.313,190.788,193.505,197.628,200.345,202.625,204.05,206.596,211.08,213.797,216.077,217.502,221.805,226.28,230.754,232.768,235.485,237.499,241.983,246.467,250.771,252.785,255.065,256.49,260.964,262.978,266.398,269.999,274.483,277.903,281.323,283.337,287.821,292.305,294.851,296.779" y="307.976" svg_rhmargin="299.059" style="fill:#171615;font-family:QGTWFH+FrutigerLTPro-Condensed;font-size:9.5px;font-style:NORMAL;font-weight:normal;">(see Cross-Chapter Box 5 in this chapter for additional discussion). </text>
  <text x="51.024,56.382,60.866,67.278,71.401,75.353,79.476,81.329,83.162,85.205,87.922,92.406,96.529,99.246,103.369,105.411,109.715,112.432,116.555,118.597,120.611,125.095,127.812,131.935,134.652,138.956,142.556,145.273,147.287,151.771,156.255,159.675,161.718,166.192,170.315,173.032,179.445,183.568,187.691,192.175,194.217,200.981,202.995,205.712,207.726,212.201,216.504,219.221,221.235,225.719,230.203,232.246,236.549,241.033,245.508,247.55,254.314,258.798,260.812,263.529,265.543,270.018,272.032,276.155,278.197,282.681,285.398,289.882,294.005,296.817" y="319.974" svg_rhmargin="299.097" style="fill:#171615;font-family:QGTWFH+FrutigerLTPro-Condensed;font-size:9.5px;font-style:NORMAL;font-weight:normal;">However, there are interactions between mitigation and multiple other </text>
  <text x="51.024,54.444,58.928,62.348,65.065,69.368,71.382,75.866,80.17,84.644,86.658,90.781,92.985,97.46,101.583,105.535,109.658,111.672,116.156,120.63,127.394,131.517,136.001,138.718,140.922,145.397,149.881,154.184,156.198,159.618,161.822,164.368,167.788,171.911,176.034,178.238,182.361,186.484,190.085,192.802,194.816,199.3,203.784,207.204,209.408,213.873,216.058,220.523,222.727,227.03,231.514,235.989,238.193,242.658,244.843,249.308,251.854,254.058,256.775,261.259,265.562,268.279,270.483,274.958,277.675,282.159,286.111,288.125,292.599,296.817" y="331.973" svg_rhmargin="299.097" style="fill:#171615;font-family:QGTWFH+FrutigerLTPro-Condensed;font-size:9.5px;font-style:NORMAL;font-weight:normal;">sustainable development goals (see Sections 1.1 and 5.4) that provide </text>
  <text x="51.024,55.498,59.982,62.699,67.183,69.729,73.33,77.814,82.117,84.131,86.145,90.268,94.752,99.227,103.35,106.77,109.316,113.619,118.103,122.578,125.124,129.608,134.082,138.557,143.041,145.758,148.475,152.959,157.443,159.457,162.174,164.188,168.311,171.731,174.277,176.823,181.307,184.024,186.57,190.17,192.184,194.198,200.962,205.266,207.983,212.106,214.652,218.955,222.556,225.273,227.287,231.771,236.255,238.088,240.634,245.992,250.115,254.599,258.2,262.323,264.869,267.586,272.07,276.193,278.91,283.033,285.579,289.882,292.599,296.816" y="343.971" svg_rhmargin="299.096" style="fill:#171615;font-family:QGTWFH+FrutigerLTPro-Condensed;font-size:9.5px;font-style:NORMAL;font-weight:normal;">both challenges and opportunities for climate action. Hence there are </text>
  <text x="51.024,54.444,58.928,63.402,66.822,69.539,73.843,78.327,81.044,83.058,87.361,89.375,91.655,93.128,97.251,99.797,102.343,106.827,109.544,112.261,115.681,117.961,119.433,122.15,126.634,128.914,130.387,134.51,138.291,142.594,144.608,149.092,153.396,156.113,160.236,162.516,163.988,166.705,171.189,175.312,177.592,179.065,183.188,185.734,188.28,192.403,196.003,198.72,202.14,204.42,205.893,210.377,212.923,215.203,216.675,219.392,223.876,227.999,230.279,231.752,235.533,239.836,242.553,244.567,249.051,253.535,256.955,259.23499999999996,260.708,267.472,269.486,272.203,274.217,278.691,282.995,285.712,287.726,292.21,296.788" y="355.97" svg_rhmargin="299.068" style="fill:#171615;font-family:QGTWFH+FrutigerLTPro-Condensed;font-size:9.5px;font-style:NORMAL;font-weight:normal;">substantial efforts to evaluate the effects of the various mitigation </text>
  <text x="51.024,55.498,59.802,62.519,67.003,73.244,77.548,81.319,84.739,87.019,90.078,94.562,99.046,101.32600000000001,104.385,107.805,112.289,115.709,118.426,122.73,124.744,129.228,133.531,138.006,140.02,144.143,146.423,149.482,153.956,158.079,162.031,166.154,168.168,172.652,177.127,183.891,188.014,192.498,195.215,197.048,199.328,202.387,204.933,209.417,213.018,217.502,220.922,222.936,227.42,231.894,234.174,237.233,239.247,243.731,246.011,249.07,253.545,257.848,260.565,263.282,265.296,268.897,273.381,275.395,279.698,282.415,284.695,287.754,292.238,296.817" y="367.968" svg_rhmargin="299.097" style="fill:#171615;font-family:QGTWFH+FrutigerLTPro-Condensed;font-size:9.5px;font-style:NORMAL;font-weight:normal;">pathways on sustainable development, focusing in particular on </text>
  <text x="51.024,55.327,58.747,63.222,67.345,70.945,73.662,77.082,79.362,82.459,85.005,89.489,92.206,94.486,97.583,103.996,108.48,110.494,114.094,118.578,120.858,123.955,125.969,130.453,133.17,137.293,141.768,144.485,148.788,151.505,155.628,160.103,162.383,165.48,169.783,173.203,176.623,180.746,184.166,187.586,194.35,198.473,202.957,205.674,207.954,211.051,217.815,222.299,226.774,230.897,232.911,236.331,238.611,241.708,244.254,246.458,251.816,259.112,262.532,265.078,267.35799999999995,270.455,274.929,277.646,282.13,286.082,288.096,292.571,296.788" y="379.967" svg_rhmargin="299.068" style="fill:#171615;font-family:QGTWFH+FrutigerLTPro-Condensed;font-size:9.5px;font-style:NORMAL;font-weight:normal;">aspects for which integrated assessment models (IAMs) provide </text>
  <text x="51.024,53.741,57.864,59.878,64.001,67.782,72.085,76.569,79.286,81.566,83.466,85.48,89.964,92.51,96.994,99.711,106.475,110.779,113.496,115.51,119.994,124.478,126.758,128.658,131.204,134.975,137.16,141.635,143.82,145.653,147.933,149.833,151.847,156.151,160.635,165.109,167.826,172.31,175.73,179.853,182.133,184.033,187.634,192.118,196.421,200.905,205.38,209.503,212.923,215.203,217.103,221.406,225.89,230.365,232.645,234.545,239.019,241.033,245.517,249.992,252.006,255.958,260.081,262.798,266.218,268.232,270.949,274.72,276.554,278.83399999999995,280.734,283.28,287.764,292.248,296.816" y="391.965" svg_rhmargin="299.096" style="fill:#171615;font-family:QGTWFH+FrutigerLTPro-Condensed;font-size:9.5px;font-style:NORMAL;font-weight:normal;">relevant information (e.g., land-use changes and biodiversity, food </text>
  <text x="51.024,54.444,58.567,62.167,66.651,69.368,71.382,74.099,77.871,79.704,81.77,86.074,90.558,95.032,97.099,101.402,103.416,106.133,108.199,112.674,117.158,121.461,123.475,125.489,128.206,131.978,134.524,136.357,138.424,145.72,150.204,152.921,157.044,159.115,163.589,166.306,170.79,175.094,179.568,181.582,185.354,187.187,189.253,191.97,196.454,200.577,203.294,207.417,209.484,213.787,216.504,220.627,222.693,226.816,229.362,231.908,236.392,239.109,241.826,245.246,247.317,250.034,254.518,256.589,258.603,263.087,266.688,271.172,273.889,278.363,282.847,285.564,289.868,292.585,296.803" y="403.964" svg_rhmargin="299.083" style="fill:#171615;font-family:QGTWFH+FrutigerLTPro-Condensed;font-size:9.5px;font-style:NORMAL;font-weight:normal;">security, and air quality). More broadly, there are efforts to incorporate </text>
  <text x="51.024,54.624,56.638,58.652,65.416,69.72,72.437,76.56,78.279,81.88,86.364,90.667,95.151,99.626,103.749,105.468,112.232,114.246,116.963,118.977,123.452,127.755,130.472,132.486,136.97,141.454,143.174,147.477,150.897,152.617,157.101,161.585,165.708,167.427,171.911,174.457,176.177,182.941,187.425,189.439,192.156,194.17,198.644,200.658,204.781,206.501,210.985,215.459,217.473,221.596,225.197,227.914,229.928,233.88,238.003,241.423,243.142,245.859,250.343,254.647,257.364,259.197,260.917,262.931,267.415,269.134,273.609,277.732,282.216,286.339,289.056,293.359,294.851,296.779" y="415.962" svg_rhmargin="299.059" style="fill:#171615;font-family:QGTWFH+FrutigerLTPro-Condensed;font-size:9.5px;font-style:NORMAL;font-weight:normal;">climate change mitigation as one of multiple objectives that, in general, </text>
  <text x="51.024,53.741,57.864,62.519,66.642,70.242,72.959,74.745,78.165,82.649,86.25,88.264,92.387,95.104,99.407,101.421,103.207,106.808,111.292,115.776,119.376,123.499,126.216,130.7,134.12,135.906,142.67,147.154,149.871,153.994,155.78,159.381,163.865,170.629,175.103,177.117,181.24,183.957,188.08,190.094,193.866,195.652,199.955,204.439,208.914,210.7,214.3,218.784,223.268,225.282,229.757,231.543,236.017,240.501,243.218,247.341,251.825,254.542,256.556,260.859,262.874,264.888,268.659,270.445,274.92,277.637,282.121,286.073,288.087,292.561,296.778" y="427.961" svg_rhmargin="299.058" style="fill:#171615;font-family:QGTWFH+FrutigerLTPro-Condensed;font-size:9.5px;font-style:NORMAL;font-weight:normal;">reflect societal concerns more completely and could potentially provide </text>
  <text x="51.024,55.498,59.621,64.105,68.228,72.883,75.6,79.02,81.3,83.257,87.561,90.278,92.558,94.515,96.529,101.013,107.425,111.548,114.265,116.545,118.502,122.103,126.587,130.007,132.724,136.144,138.424,140.381,143.098,147.582,151.885,156.369,158.649,160.606,164.026,166.04,172.804,177.288,179.302,182.019,186.323,190.807,194.93,199.414,203.898,207.318,209.598,211.555,214.975,216.989,221.473,225.947,227.961,232.084,234.801,239.285,243.76,245.774,249.897,253.497,256.214,258.228,262.18,266.303,268.58299999999997,270.54,275.014,279.499,281.513,283.527,287.127,289.141,293.264,296.779" y="439.959" svg_rhmargin="299.059" style="fill:#171615;font-family:QGTWFH+FrutigerLTPro-Condensed;font-size:9.5px;font-style:NORMAL;font-weight:normal;">benefits at lower costs than simultaneous single-objective policies </text>
  <text x="51.024,53.57,57.341,59.526,64.001,66.186,68.019,70.461,75.467,77.481,81.785,84.502,88.273,92.396,94.838,98.961,101.678,104.119,108.423,109.914,112.099,113.933,116.374,120.839,125.304,129.769,134.234,136.78,138.614,141.055,144.656,149.14,151.857,154.298,158.421,162.373,166.677,173.441,177.915,179.929,183.701,185.534,187.976,194.388,196.402,199.119,203.603,206.045,209.645,213.949,216.666,220.789,223.335,227.819,229.833,231.847,235.618,238.06,241.48,245.603,247.617,251.74,255.34,258.057,262.18,266.654,269.096,273.57,278.054,280.068,282.082,285.683,287.697,291.82,294.888,296.817" y="451.958" svg_rhmargin="299.097" style="fill:#171615;font-family:QGTWFH+FrutigerLTPro-Condensed;font-size:9.5px;font-style:NORMAL;font-weight:normal;">(e.g., Clarke et al., 2014). For example, with carefully selected policies, </text>
  <text x="51.024,55.508,59.992,62.006,65.958,70.081,72.798,76.218,80.521,82.535,84.288,88.411,92.895,97.018,99.735,104.209,107.981,109.738,114.042,117.642,121.243,125.366,128.786,132.206,133.959,137.559,141.863,146.347,148.104,152.579,156.702,158.459,162.763,166.363,170.847,172.861,176.984,180.936,185.059,189.534,191.291,197.704,202.188,204.202,206.216,210.339,212.091,215.511,217.525,224.289,228.773,230.787,233.504,237.808,242.292,246.415,250.899,255.383,258.803,260.817,264.588,266.341,269.058,273.181,277.656,282.14,285.74,287.754,292.238,296.808" y="463.956" svg_rhmargin="299.088" style="fill:#171615;font-family:QGTWFH+FrutigerLTPro-Condensed;font-size:9.5px;font-style:NORMAL;font-weight:normal;">universal energy access can be achieved while simultaneously reducing </text>
  <text x="51.024,55.327,57.341,60.058,62.338,63.469,67.943,72.427,74.441,76.455,80.939,83.656,85.67,90.154,94.638,96.918,98.049,102.352,106.836,111.311,113.59100000000001,114.721,121.485,123.499,126.216,128.23,132.705,137.008,139.725,141.739,146.223,150.698,152.978,154.108,157.709,159.723,161.737,168.501,172.804,175.521,179.644,181.924,183.055,186.655,191.139,195.443,199.927,204.401,208.524,210.804,211.935,214.481,221.777,225.377,230.384,234.868,236.882,238.896,243.38,250.144,252.424,253.554,257.677,260.394,262.674,263.805,268.108,269.6,271.785,273.618,275.89799999999997,277.029,281.494,285.959,290.424,294.889,296.817" y="475.955" svg_rhmargin="299.097" style="fill:#171615;font-family:QGTWFH+FrutigerLTPro-Condensed;font-size:9.5px;font-style:NORMAL;font-weight:normal;">air pollution and mitigating climate change (McCollum et al., 2011; </text>
  <text x="51.024,55.859,57.873,62.177,66.661,68.675,70.955,72.275,76.398,79.115,81.395,82.716,87.019,88.511,90.696,92.529,94.809,96.13,100.595,105.06,109.525,113.99,115.823,118.103,119.424,121.628,125.931,131.289,133.123,135.403,136.723,141.188,145.653,150.118,154.583,159.058,161.604,163.437,165.717,166.515,170.287,174.771,176.785,180.205,182.485,183.805,187.406,191.89,196.193,200.668,203.385,207.508,210.225,212.505,213.825,216.542,221.026,225.51,228.93,231.21,232.53,237.005,239.722,243.845,247.265,251.388,255.872,258.589,262.009,264.289,265.609,270.084,274.568,277.285,281.769,284.049,285.37,288.087,292.571,296.789" y="487.953" svg_rhmargin="299.069" style="fill:#171615;font-family:QGTWFH+FrutigerLTPro-Condensed;font-size:9.5px;font-style:NORMAL;font-weight:normal;">Riahi et al., 2012; IEA, 2017d). This chapter thus presents both the </text>
  <text x="51.024,55.498,59.802,62.519,67.003,73.244,77.548,81.319,84.739,87.352,91.655,96.139,100.614,103.226,107.53,112.014,114.626,116.64,121.124,123.138,125.855,127.869,132.173,134.187,136.799,141.274,143.288,146.708,150.308,154.792,158.212,161.632,163.646,168.13,172.614,175.227,179.711,182.257,184.869,187.586,192.07,196.193,198.207,200.924,203.537,207.137,211.621,216.105,218.822,222.945,226.897,229.614,232.227,238.639,240.653,243.37,247.854,249.868,254.352,256.965,260.385,264.869,268.289,271.006,275.309,277.323,281.807,286.111,290.585,292.599,296.817" y="499.952" svg_rhmargin="299.097" style="fill:#171615;font-family:QGTWFH+FrutigerLTPro-Condensed;font-size:9.5px;font-style:NORMAL;font-weight:normal;">pathways and an initial discussion of their context within sustainable </text>
  <text x="51.024,55.498,59.621,63.573,67.696,69.71,74.194,78.669,85.433,89.556,94.04,96.757,98.752,103.236,107.71,109.724,113.847,117.448,120.165,122.179,126.131,130.254,133.674,135.669,138.215,142.338,146.461,150.061,152.778,154.792,159.276,163.76,165.755,170.22,172.405,176.87,179.416,181.25,183.245,189.657,191.671,194.388,198.872,200.867,203.584,208.068,212.191,214.186,216.2,220.504,223.221,225.938,230.061,231.913,233.747,235.742,240.045,242.059,246.543,251.027,255.502,257.497,263.909,265.923,268.64,273.124,275.119,279.242,283.717,288.201,290.215,292.932,296.798" y="511.95" svg_rhmargin="299.078" style="fill:#171615;font-family:QGTWFH+FrutigerLTPro-Condensed;font-size:9.5px;font-style:NORMAL;font-weight:normal;">development objectives (Section 2.5), with the latter, along with equity </text>
  <text x="51.024,55.327,59.811,64.286,66.471,70.594,73.311,77.795,79.809,83.409,87.713,89.727,91.912,93.926,97.346,100.766,105.25,109.373,112.441,114.275,116.46,120.934,122.948,126.368,129.969,134.453,137.873,141.293,145.416,149.89,152.075,154.089,158.573,160.758,167.522,172.006,174.723,178.846,181.031,185.506,189.629,192.346,196.649,198.663,200.677,202.862,204.876,209.36,211.545,216.552,221.036,225.339,229.814,232.531,236.654,239.371,241.556,246.021" y="523.9490000000001" svg_rhmargin="248.301" style="fill:#171615;font-family:QGTWFH+FrutigerLTPro-Condensed;font-size:9.5px;font-style:NORMAL;font-weight:normal;">and ethical issues, discussed in more detail in Chapter 5.</text>
  <text x="51.024,56.382,59.802,62.082,64.333,68.808,72.931,76.351,79.951,82.668,84.682,89.157,93.28,97.754,100.034,102.286,104.3,108.784,111.06400000000001,113.315,118.322,121.039,125.523,128.943,132.363,135.08,140.086,144.57,148.874,153.348,156.065,160.188,162.905,165.185,167.437,172.272,176.756,180.708,182.988,185.24,189.705,191.985,194.236,196.25,200.734,203.014,205.266,210.272,214.756,219.06,223.534,226.251,230.374,233.091,235.371,237.623,242.088,243.921,246.201,248.453,251.873,255.473,259.596,264.08,268.384,271.101,273.115,277.599,281.019,283.299,285.55,289.854,292.571,296.789" y="547.946" svg_rhmargin="299.069" style="fill:#171615;font-family:QGTWFH+FrutigerLTPro-Condensed;font-size:9.5px;font-style:NORMAL;font-weight:normal;">As described in Cross-Chapter Box 1 in Chapter 1, scenarios are </text>
  <text x="51.024,54.624,59.108,65.872,70.347,73.064,77.187,81.671,85.794,90.278,93.698,95.712,99.664,103.435,105.269,107.549,108.698,113.173,115.187,119.49,123.974,127.394,129.408,133.883,135.897,139.668,141.502,143.782,144.931,146.945,151.429,154.146,158.269,162.744,165.461,169.764,172.481,176.604,181.079,183.359,184.508,188.983,193.106,196.526,200.126,202.843,204.857,209.332,212.049,214.063,218.547,223.031,226.451,228.731,229.88,234.364,236.91,239.19,240.34,244.814,249.298,252.718,256.138,258.152,262.627,264.641,268.764,271.044,272.193,274.739,279.223,281.94,286.424,289.141,293.264,296.779" y="559.944" svg_rhmargin="299.059" style="fill:#171615;font-family:QGTWFH+FrutigerLTPro-Condensed;font-size:9.5px;font-style:NORMAL;font-weight:normal;">comprehensive, plausible, integrated descriptions of possible futures </text>
  <text x="51.024,55.498,59.802,63.222,67.345,71.819,74.099,77.253,81.737,86.221,88.501,91.65,95.07,99.545,103.668,107.268,109.282,113.937,118.06,122.535,124.368,126.648,129.798,131.812,136.296,139.013,143.136,145.853,150.337,154.64,156.654,158.668,162.44,164.72,167.874,171.474,175.958,180.442,183.862,185.876,189.296,192.013,196.136,200.62,203.337,205.617,208.771,213.255,217.739,222.214,226.337,229.054,231.068,234.839,236.853,241.337,245.812,248.092,251.246,255.549,258.969,262.389,266.873,273.637,278.112,280.829,282.843,287.327,291.811,294.879,296.808" y="571.943" svg_rhmargin="299.088" style="fill:#171615;font-family:QGTWFH+FrutigerLTPro-Condensed;font-size:9.5px;font-style:NORMAL;font-weight:normal;">based on specified, internally consistent underlying assumptions, </text>
  <text x="51.024,57.436,59.45,62.167,66.651,69.235,73.71,78.013,80.73,85.214,91.456,95.759,99.531,102.951,105.535,110.019,112.565,115.282,119.405,123.889,126.473,130.957,134.377,138.5,142.974,145.558,148.275,152.759,155.343,159.818,163.941,167.361,170.961,173.678,175.692,180.167,184.29,186.874,189.591,194.075,198.198,200.782,204.382,206.396,210.519,214.823,217.54,220.124,222.841,226.964,233.728,238.202,242.686,245.403,249.707,251.721,254.305,258.428,262.38,266.864,268.878,273.362,276.079,278.093,282.577,287.061,289.645,294.129,296.77" y="583.941" svg_rhmargin="299.05" style="fill:#171615;font-family:QGTWFH+FrutigerLTPro-Condensed;font-size:9.5px;font-style:NORMAL;font-weight:normal;">with pathways often used to describe the clear temporal evolution of </text>
  <text x="51.024,54.444,58.918,63.041,66.642,68.656,73.311,76.911,79.191,79.904,83.324,86.924,91.047,95.531,99.835,102.552,104.566,109.05,111.33,112.042,116.346,119.766,124.24,128.363,131.964,134.681,138.101,140.381,141.093,145.577,148.294,150.574,151.287,155.761,160.245,164.549,166.563,169.28,173.764,176.481,178.495,182.618,187.102,189.819,193.942,198.416,200.696,201.409,204.829,208.429,212.552,217.036,221.34,224.057,226.07,230.554,233.623,235.457,237.928,245.224,249.347,251.627,252.34,254.354,258.838,262.438,264.452,268.936,273.411,277.534,279.81399999999996,280.526,285.001,289.485,292.202,296.78" y="595.94" svg_rhmargin="299.06" style="fill:#171615;font-family:QGTWFH+FrutigerLTPro-Condensed;font-size:9.5px;font-style:NORMAL;font-weight:normal;">specific scenario aspects or goal-oriented scenarios. We include both </text>
  <text x="51.024,53.741,58.225,62.348,65.768,69.891,72.076,76.56,79.98,84.283,88.758,92.881,96.301,98.486,102.97,105.516,107.349,109.534,114.009,118.312,121.029,125.513,131.755,136.058,139.83,143.25,145.435,147.62,152.104,156.227,158.944,162.715" y="607.938" svg_rhmargin="164.995" style="fill:#171615;font-family:QGTWFH+FrutigerLTPro-Condensed;font-size:9.5px;font-style:NORMAL;font-weight:normal;">these usages of ‘pathways’ here.</text>
  <text x="51.024,56.124,58.624,63.724,66.224,71.324,73.92399999999999,87.024,95.074,97.574,100.994,103.494,108.764,113.664,117.084,119.584,124.854,129.944,132.444,136.983,141.883,145.303,150.393,157.703,162.603,167.133,171.103,173.603,179.063,184.333,189.423,193.393,195.893,199.863,203.283,208.183,213.273,216.693,219.193,226.503,229.003,232.423,237.513,240.013,245.113,247.613,252.713,256.613" y="632.0" svg_rhmargin="262.173" style="fill:#192a53;font-family:QGTWFH+FrutigerLTPro-BoldCn;font-size:10.0px;font-style:NORMAL;font-weight:bold;">2.1.1 Mitigation Pathways Consistent with 1.5°C</text>
  <text x="51.024,55.327,62.091,64.105,67.525,70.945,72.959,77.443,81.927,85.347,87.627,89.062,92.482,96.082,100.205,104.689,108.993,111.71,113.724,118.208,121.628,123.908,125.342,129.826,133.949,138.072,142.547,144.827,146.261,148.978,153.462,155.742,157.177,160.777,165.261,169.213,173.336,176.053,178.333,179.768,184.071,186.085,188.099,190.379,191.814,195.234,199.357,202.957,205.674,210.158,212.875,216.295,218.575,220.01,224.313,228.797,233.272,235.552,236.986,239.703,243.826,248.301,250.315,254.799,259.283,262.703,264.98299999999995,266.417,270.901,274.853,278.976,281.693,283.97299999999996,285.408,288.125,292.609,296.826" y="656.0" svg_rhmargin="299.106" style="fill:#171615;font-family:QGTWFH+FrutigerLTPro-Condensed;font-size:9.5px;font-style:NORMAL;font-weight:normal;">Emissions scenarios need to cover all sectors and regions over the </text>
  <text x="51.024,55.489,59.954,63.374,66.091,68.555,72.155,76.278,80.762,83.479,87.963,90.68,94.452,96.916,99.633,104.117,106.582,111.057,115.18,117.645,121.949,125.369,128.789,133.273,136.873,138.887,143.191,145.908,150.031,154.505,156.97,163.383,165.397,168.114,172.598,175.063,179.367,181.832,185.432,187.446,189.46,196.224,200.528,203.245,207.368,209.832,213.433,217.917,222.22,226.704,231.179,235.302,237.767,242.242,244.959,249.443,251.457,255.58,259.18,261.897,263.911,268.395,272.879,275.344,279.828,284.312,287.029,289.495,292.212,296.791" y="667.999" svg_rhmargin="299.071" style="fill:#171615;font-family:QGTWFH+FrutigerLTPro-Condensed;font-size:9.5px;font-style:NORMAL;font-weight:normal;">21st century to be associated with a climate change projection out to </text>
  <text x="51.024,55.489,59.954,64.419,68.884,70.716,72.051,77.409,80.829,84.249,88.733,95.497,99.971,102.688,104.702,109.186,113.67,117.09,118.948,121.665,125.788,130.262,134.566,137.283,141.757,143.771,148.255,152.73,154.587,157.133,161.617,164.334,168.818,171.535,175.658,177.515,180.232,182.949,187.072,191.556,196.031,199.451,201.308,203.322,207.806,209.663,214.138,218.622,223.096,227.58,229.594,233.898,236.615,238.629,243.113,247.597,249.429,251.286,254.887,259.371,263.855,267.275,271.759,278.523,282.997,285.714,287.728,292.212,296.791" y="679.997" svg_rhmargin="299.071" style="fill:#171615;font-family:QGTWFH+FrutigerLTPro-Condensed;font-size:9.5px;font-style:NORMAL;font-weight:normal;">2100. Assumptions regarding future trends in population, consumption </text>
  <text x="51.024,55.508,58.054,60.334,61.179,65.654,70.138,74.622,79.096,82.516,84.796,85.642,89.945,94.429,98.904,101.184,102.029,105.449,109.572,112.289,116.241,118.255,121.856,125.979,129.399,131.679,132.524,135.07,137.084,141.568,145.169,147.183,151.667,156.141,158.155,162.639,167.114,169.394,170.239,172.785,177.269,181.753,186.228,188.774,190.607,192.887,193.733,197.856,201.456,205.94,210.424,214.908,221.672,223.686,227.287,229.567,230.412,234.887,237.604,242.088,248.5,251.217,255.701,257.535,259.815,260.66,265.135,269.258,273.742,278.045,281.997,284.011,288.495,292.979,294.832,296.76" y="691.995" svg_rhmargin="299.04" style="fill:#171615;font-family:QGTWFH+FrutigerLTPro-Condensed;font-size:9.5px;font-style:NORMAL;font-weight:normal;">of goods and services (including food), economic growth, behaviour, </text>
  <text svg_rhmargin="299.087" x="51.024,53.741,57.864,61.464,65.948,70.432,74.916,76.93,81.414,85.889,89.66,91.494,93.774,96.491,100.965,105.449,107.463,109.477,113.078,115.092,119.215,122.635,124.915,127.632,131.935,136.419,140.894,143.174,145.891,147.905,152.389,155.809,158.526,160.54,163.257,167.741,170.458,172.472,176.956,181.44,184.86,187.14000000000001,189.857,194.16,196.877,201.0,203.28,205.997,210.301,212.315,214.329,216.609,219.326,222.043,226.166,230.64,235.124,237.138,239.855,243.978,248.452,250.732,253.449,256.167,260.651,262.931,265.648,270.122,274.245,278.729,282.852,285.569,289.872,292.59,296.807,299.087" y="67.99800000000005" style="fill:#171615;font-family:QGTWFH+FrutigerLTPro-Condensed;font-size:9.5px;font-style:NORMAL;font-weight:normal;">technology, policies and institutions are all required to generate </text>
  <text x="309.547,312.967,316.568,320.691,325.175,329.478,332.195,334.209,338.693,342.113,344.393,345.267,347.813,351.936,356.059,359.66,362.377,364.391,368.875,373.359,375.63899999999995,376.513,380.978,383.163,387.628,389.813,394.278,396.824,398.657,401.29,405.061,409.545,413.668,417.088,421.211,423.491,424.365,427.785,432.269,435.87,437.884,442.007,444.724,449.027,451.041,453.32099999999997,454.195,457.796,462.28,466.764,468.778,472.378,476.501,479.921,482.20099999999996,483.075,489.839,494.323,497.743,500.46,502.73999999999995,503.614,506.331,510.815,514.938,519.422,521.702,522.576,527.051,531.174,533.454,534.328,536.341,538.355,542.839,546.611,550.734,555.302" y="67.99800000000005" svg_rhmargin="557.582" style="fill:#171615;font-family:QGTWFH+FrutigerLTPro-Condensed;font-size:9.5px;font-style:NORMAL;font-weight:normal;">scenarios (Section 2.3.1). These societal choices must then be linked </text>
  <text x="309.547,312.264,316.748,319.02799999999996,320.349,323.066,327.55,331.673,333.953,335.273,339.748,342.465,344.479,348.431,352.554,355.271,358.691,360.97099999999995,362.291,366.775,369.321,371.601,372.922,376.522,378.536,380.55,387.314,391.618,394.335,398.458,400.738,402.058,405.659,410.143,414.446,418.93,423.405,427.176,429.01,431.28999999999996,432.61,434.624,439.108,442.709,444.723,449.207,453.681,455.695,460.179,464.654,466.93399999999997,468.254,472.377,479.141,481.155,484.575,487.995,490.009,494.493,498.977,502.397,504.67699999999996,505.998,510.482,513.028,515.308,516.628,523.041,527.164,529.178,531.192,533.909,540.673,542.687,546.639,550.762,555.331" y="79.99599999999998" svg_rhmargin="557.611" style="fill:#171615;font-family:QGTWFH+FrutigerLTPro-Condensed;font-size:9.5px;font-style:NORMAL;font-weight:normal;">to the drivers of climate change, including emissions of well-mixed </text>
  <text x="309.547,314.022,316.739,320.862,324.985,329.469,333.953,338.437,342.921,346.341,350.464,352.74399999999997,353.228,357.703,362.006,365.426,369.549,372.969,375.24899999999997,375.734,380.037,384.521,388.996,391.27599999999995,391.76,396.064,400.187,402.904,407.388,410.808,415.292,417.306,419.58599999999996,420.07,424.374,428.858,433.332,435.61199999999997,436.097,440.581,444.181,448.665,453.149,457.272,459.55199999999996,460.037,464.511,467.228,471.351,474.952,479.436,482.153,485.573,490.057,492.774,496.194,498.474,498.958,503.262,506.682,508.962,509.446,515.859,519.982,521.996,524.01,526.29,526.774,531.078,534.498,536.778,537.262,539.276,543.58,548.064,552.538" y="91.995" svg_rhmargin="555.35" style="fill:#171615;font-family:QGTWFH+FrutigerLTPro-Condensed;font-size:9.5px;font-style:NORMAL;font-weight:normal;">greenhouse gases and aerosol and ozone precursors as well as land-</text>
  <text x="309.547,313.984,317.356,321.432,323.712,324.196,328.452,332.889,337.316,339.59599999999995,340.08,342.047,346.303,350.739,355.166,357.836,361.389,365.825,369.73,373.805,376.475,378.755,379.239,382.792,387.229,391.485,395.921,400.348,404.424,407.445,409.231,411.51099999999997,411.995,417.306,421.381,423.348,425.314,429.741,433.817,436.486,440.742,443.412,447.487,449.767,450.252,453.624,458.061,460.027,464.283,466.953,469.23299999999995,469.717,472.387,476.643,481.07,483.036,487.292,489.962,491.928,496.365,500.801,503.08099999999996,503.566,510.282,514.719,519.146,521.112,525.719,529.272,533.528,536.198,538.164,542.601,547.037,549.317,549.802,551.768,555.284" y="103.99300000000005" svg_rhmargin="557.564" style="fill:#171615;font-family:QGTWFH+FrutigerLTPro-Condensed;font-size:9.5px;font-style:NORMAL;font-weight:normal;">use and land-cover changes. Deliberate solar radiation modification is </text>
  <text x="309.547,313.984,318.42,321.09,322.914,324.88,329.317,332.87,334.836,339.273,343.7,347.775,352.202,354.026,355.993,360.429,362.253,364.923,369.359,373.435,376.807,380.883,382.707,386.079,389.632,393.708,398.144,402.4,405.07,407.036,411.473,414.845,416.669,419.168,422.54,426.616,430.691,432.515,437.474,440.144,444.58,447.953,451.325,453.995,458.954,463.39,467.646,472.073,474.743,478.818,481.488,483.312,488.1,492.536,496.441,498.265,502.682,507.1,508.924,510.89,515.327,517.151,522.11,526.546,530.802,535.229,537.899,541.974,544.644,546.468,550.885,553.383" y="115.99099999999999" svg_rhmargin="555.663" style="fill:#171615;font-family:QGTWFH+FrutigerLTPro-Condensed;font-size:9.5px;font-style:NORMAL;font-weight:normal;">not included in these scenarios (see Cross-Chapter Box 10 in Chapter 4).</text>
  <text x="309.547,314.022,316.036,320.339,324.823,328.243,330.257,334.732,336.746,340.869,343.149,343.681,348.155,352.278,356.23,360.353,362.367,366.851,371.326,378.09,382.213,386.697,389.414,392.834,395.114,395.646,400.13,404.253,408.376,412.85,415.13,415.662,418.379,422.863,425.143,425.675,430.15,434.273,436.553,437.085,441.388,445.872,448.589,450.603,454.204,456.218,460.692,464.996,467.713,471.836,476.31,478.59,479.122,481.136,485.62,487.9,488.432,495.196,499.5,503.984,507.755,510.03499999999997,510.567,513.113,517.417,521.017,525.14,527.857,531.277,533.557,534.089,538.573,541.119,543.399,543.931,546.648,551.132,555.35" y="139.98800000000006" svg_rhmargin="557.63" style="fill:#171615;font-family:QGTWFH+FrutigerLTPro-Condensed;font-size:9.5px;font-style:NORMAL;font-weight:normal;">Plausible developments need to be anticipated in many facets of the </text>
  <text x="309.547,313.319,317.442,321.213,323.493,324.928,328.348,332.471,336.071,338.788,343.272,345.989,349.409,351.68899999999996,353.124,357.608,360.154,362.43399999999997,363.868,367.991,372.475,376.598,379.315,383.79,387.561,389.84099999999995,391.276,395.579,400.063,404.538,406.818,408.252,410.266,414.57,419.054,423.528,425.808,427.243,431.727,435.147,438.918,440.752,443.032,443.943,451.41,453.424,456.141,460.625,462.639,467.123,469.40299999999996,470.837,474.96,479.444,483.567,486.284,490.759,494.53,496.364,498.64399999999995,500.078,502.795,507.279,511.402,514.822,518.945,521.225,522.66,526.08,529.68,533.803,538.287,542.591,545.308,547.322,551.806,555.32" y="151.98699999999997" svg_rhmargin="557.6" style="fill:#171615;font-family:QGTWFH+FrutigerLTPro-Condensed;font-size:9.5px;font-style:NORMAL;font-weight:normal;">key sectors of energy and land use. Within energy, these scenarios </text>
  <text x="309.547,313.148,317.632,322.116,325.536,327.55,332.024,336.147,338.864,341.524,345.647,350.131,354.254,356.971,361.446,365.217,367.877,370.594,374.717,378.137,382.621,387.105,389.822,393.423,397.546,400.966,403.626,405.64,407.654,411.425,415.548,418.208,422.683,424.697,429.181,431.727,436.211,440.334,442.348,445.415,447.25,449.91,454.033,458.517,462.64,465.357,469.831,473.603,476.263,479.683,484.167,488.641,493.116,495.13,498.901,501.561,505.865,510.349,514.823,517.483,521.084,525.568,530.052,534.004,538.127,540.844,544.264,546.278,550.762,555.341" y="163.985" svg_rhmargin="557.621" style="fill:#171615;font-family:QGTWFH+FrutigerLTPro-Condensed;font-size:9.5px;font-style:NORMAL;font-weight:normal;">consider energy resources like biofuels, energy supply and conversion </text>
  <text x="309.547,312.264,316.387,319.988,324.472,328.956,333.44,335.454,339.938,344.412,346.426,350.549,353.618,355.451,357.893,362.016,366.5,370.623,373.34,377.814,381.586,384.027,387.628,392.112,396.596,400.016,404.5,411.264,415.738,418.455,420.469,424.953,429.437,431.271,433.712,438.016,442.5,446.974,449.416,452.836,457.32,461.794,466.269,468.283,472.054,474.496,478.799,483.283,487.758,490.199,494.322,498.806,503.281,505.998,510.482,513.902,518.025,520.466,524.589,527.135,531.79,535.391,537.405,541.528,546.012,549.612,553.384,555.311" y="175.98400000000004" svg_rhmargin="557.591" style="fill:#171615;font-family:QGTWFH+FrutigerLTPro-Condensed;font-size:9.5px;font-style:NORMAL;font-weight:normal;">technologies, energy consumption, and supply and end-use efficiency. </text>
  <text x="309.547,317.014,319.028,321.745,326.229,328.243,332.727,335.00699999999995,337.097,339.111,343.415,347.899,352.373,354.65299999999996,356.743,361.227,364.647,368.419,370.251,372.53099999999995,374.621,378.925,383.399,386.116,388.13,391.731,396.215,398.229,400.946,405.43,408.147,412.45,414.464,416.74399999999997,418.834,423.309,426.026,430.51,434.984,439.468,443.069,445.786,447.8,451.752,453.766,456.483,460.254,462.088,464.368,466.458,469.004,473.488,477.972,482.446,484.726,486.816,491.291,495.414,502.178,506.481,510.965,515.44,517.273,519.553,521.643,524.36,528.483,531.2,533.917,538.04,541.46,544.177,546.894,548.908,553.212,555.32" y="187.98199999999997" svg_rhmargin="557.6" style="fill:#171615;font-family:QGTWFH+FrutigerLTPro-Condensed;font-size:9.5px;font-style:NORMAL;font-weight:normal;">Within land use, agricultural productivity, food demand, terrestrial </text>
  <text x="309.547,313.148,317.451,320.168,324.643,329.127,333.611,335.89099999999996,339.14,345.904,350.207,354.691,358.995,363.469,367.592,374.356,378.479,382.963,385.68,387.514,389.794,393.043,397.346,401.83,406.305,408.585,411.834,416.308,418.322,422.806,425.352,429.836,433.959,435.973,438.253,441.502,445.977,448.694,453.178,457.652,462.136,465.737,468.454,470.468,474.952,479.436,481.71599999999995,484.965,489.268,491.985,496.108,498.388,501.637,505.941,507.955,509.969,512.249,515.498,519.098,523.582,528.066,531.486,533.5,537.975,542.098,544.815,548.938,553.412,555.341" y="199.981" svg_rhmargin="557.621" style="fill:#171615;font-family:QGTWFH+FrutigerLTPro-Condensed;font-size:9.5px;font-style:NORMAL;font-weight:normal;">carbon management, and biofuel production are all considered. </text>
  <text x="309.547,314.554,316.568,318.582,325.346,329.649,332.366,336.489,338.76899999999995,340.783,345.258,349.742,351.756,353.77,357.37,359.384,363.507,366.927,369.207,371.221,375.525,378.242,382.365,384.645,386.659,390.962,392.976,396.396,400.88,403.15999999999997,405.174,408.775,413.259,417.743,421.163,423.177,427.651,431.774,434.491,438.614,443.089,444.922,447.202,449.216,451.23,455.714,459.315,461.329,465.813,470.287,472.301,476.785,481.26,483.53999999999996,485.554,489.154,493.458,496.175,500.649,505.133,509.617,511.897,513.911,518.386,521.103,523.117,526.717,528.731,533.215,537.69,539.97,541.984,546.287,550.771,555.341" y="211.97900000000004" svg_rhmargin="557.621" style="fill:#171615;font-family:QGTWFH+FrutigerLTPro-Condensed;font-size:9.5px;font-style:NORMAL;font-weight:normal;">Climate policies are also considered, including carbon pricing and </text>
  <text x="309.547,312.264,316.387,319.988,324.472,328.956,333.44,335.454,339.938,344.412,348.184,350.464,351.746,356.221,360.705,362.719,364.733,368.333,370.347,374.47,377.89,380.16999999999996,381.453,384.873,389.357,392.957,397.441,399.72099999999995,401.004,405.307,408.727,411.00699999999995,412.29,415.007,419.13,422.55,426.673,430.976,433.693,437.294,441.778,444.058,445.34,449.644,454.128,458.602,460.88199999999995,462.165,466.639,470.762,474.714,478.837,480.851,485.335,489.81,496.574,500.697,505.181,507.898,510.178,511.46,514.006,518.49,522.974,527.449,529.463,533.947,538.421,540.701,541.984,546.287,550.771,555.341" y="223.97799999999995" svg_rhmargin="557.621" style="fill:#171615;font-family:QGTWFH+FrutigerLTPro-Condensed;font-size:9.5px;font-style:NORMAL;font-weight:normal;">technology policies such as research and development funding and </text>
  <text x="309.547,312.967,317.451,321.926,325.346,327.36,331.834,333.848,337.971,341.04,342.873,344.573,348.344,352.828,356.951,359.174,362.594,366.195,370.318,374.802,379.105,381.822,383.836,388.32,391.74,393.963,395.977,400.461,404.062,408.546,411.263,415.737,420.221,422.938,427.242,429.959,434.082,436.305,439.022,443.145,447.619,449.633,454.117,458.601,462.905,464.919,467.142,471.616,473.63,476.176,478.722,482.845,485.562,489.685,494.169,496.886,498.9,503.204,505.921,507.935,512.419,516.903,519.126,521.14,525.624,527.847,531.267,535.39,538.99,541.707,546.191,548.908,553.212,555.321" y="235.976" svg_rhmargin="557.601" style="fill:#171615;font-family:QGTWFH+FrutigerLTPro-Condensed;font-size:9.5px;font-style:NORMAL;font-weight:normal;">subsidies. The scenarios incorporate regional differentiation in sectoral </text>
  <text x="309.547,313.851,318.335,322.809,325.089,327.217,331.692,336.176,338.19,340.204,343.804,347.576,349.856,351.984,356.458,360.581,364.533,368.656,370.67,375.154,379.629,386.393,390.516,395.0,397.717,399.55,401.83,403.436,407.206,411.69,415.813,418.09299999999996,420.221,423.822,425.836,427.85,434.614,438.917,441.634,445.757,448.037,450.165,453.766,458.25,462.553,467.037,471.512,475.635,479.055,481.335,483.463,486.18,490.303,493.723,498.207,500.221,502.938,504.952,509.436,513.91,516.1899999999999,518.318,520.864,523.581,528.065,534.829,537.1089999999999,539.237,542.657,547.141,550.742,555.321" y="247.97500000000002" svg_rhmargin="557.601" style="fill:#171615;font-family:QGTWFH+FrutigerLTPro-Condensed;font-size:9.5px;font-style:NORMAL;font-weight:normal;">and policy development. The climate changes resulting from such </text>
  <text x="309.547,312.967,316.568,320.691,325.175,329.478,332.195,334.209,338.693,342.113,344.716,349.02,351.737,355.86,358.463,362.937,367.06,369.777,371.791,375.743,379.866,384.341,386.944,391.428,394.848,396.862,401.346,405.82,408.423,415.187,419.671,424.146,428.269,430.283,433.703,436.306,439.023,443.507,447.81,450.527,453.13,455.847,459.619,464.093,466.107,469.708,474.011,476.025,478.039,481.811,484.414,486.428,490.912,494.512,498.996,501.713,506.188,510.672,513.389,517.692,520.409,524.532,527.135,531.61,536.094,539.865,543.285,545.299,548.9,553.203,555.311" y="259.97299999999996" svg_rhmargin="557.591" style="fill:#171615;font-family:QGTWFH+FrutigerLTPro-Condensed;font-size:9.5px;font-style:NORMAL;font-weight:normal;">scenarios are derived using models that typically incorporate physical </text>
  <text x="309.547,314.031,318.515,322.99,327.113,329.83,333.25,335.967,340.27,344.754,349.229,351.243,355.727,360.201,362.766,367.25,369.796,372.361,375.078,379.562,383.685,386.25,389.851,394.154,396.871,401.346,405.83,410.314,412.879,416.479,420.251,423.851,425.865,429.988,432.553,436.857,441.341,445.815,448.38,451.981,453.995,456.009,462.773,467.076,469.793,473.916,476.481,479.198,483.321,486.741,491.216,495.7,500.184,503.604,507.727,510.292,514.766,518.889,521.606,523.62,527.572,531.695,536.17,538.735,541.281,543.998,548.482,555.341" y="271.972" svg_rhmargin="557.621" style="fill:#171615;font-family:QGTWFH+FrutigerLTPro-Condensed;font-size:9.5px;font-style:NORMAL;font-weight:normal;">understanding of the carbon cycle and climate response derived from </text>
  <text x="309.547,313.148,317.632,324.396,328.87,330.884,335.007,338.959,341.268,345.742,349.865,354.349,358.824,363.308,367.079,370.499,372.513,376.114,380.417,382.431,384.74,391.504,395.988,400.462,404.585,406.599,410.019,412.328,416.451,420.232,424.535,426.549,431.033,435.337,438.054,442.177,446.651,448.96,453.263,457.738,462.041,464.055,468.539,471.959,474.676,476.985,481.469,485.943,489.363,493.486,496.203,499.984,504.288,507.005,509.019,513.503,517.987,521.407,523.715,526.261,530.384,534.507,538.108,540.825,542.839,547.323,551.807,555.322" y="283.97" svg_rhmargin="557.602" style="fill:#171615;font-family:QGTWFH+FrutigerLTPro-Condensed;font-size:9.5px;font-style:NORMAL;font-weight:normal;">complex geophysical models evaluated against observations (Sections </text>
  <text x="309.547,314.012,316.197,320.662,322.847,327.151,331.635,336.109,338.294,342.759,344.944,349.409,351.955,353.883" y="295.969" svg_rhmargin="356.163" style="fill:#171615;font-family:QGTWFH+FrutigerLTPro-Condensed;font-size:9.5px;font-style:NORMAL;font-weight:normal;">2.2 and 2.6). </text>
  <text x="309.547,313.319,317.803,321.926,323.569,326.286,330.409,337.173,341.648,345.771,348.488,352.791,355.508,359.992,362.709,366.832,368.476,371.193,375.316,378.736,383.21,387.694,392.178,395.598,399.721,401.365,404.082,408.566,410.209,414.513,416.156,420.631,422.645,426.597,430.72,435.204,436.847,440.97,447.734,449.748,453.168,456.588,458.602,463.086,467.57,469.214,473.688,477.992,480.709,485.193,491.434,495.738,499.509,501.153,503.699,507.119,511.242,515.365,517.008,521.483,523.497,527.981,531.401,534.821,539.124,541.841,545.613,548.159,549.802,551.816,555.33" y="319.966" svg_rhmargin="557.61" style="fill:#171615;font-family:QGTWFH+FrutigerLTPro-Condensed;font-size:9.5px;font-style:NORMAL;font-weight:normal;">The temperature response to a given emission pathway (see glossary) is </text>
  <text x="309.547,314.031,318.515,322.116,326.239,328.956,331.673,335.976,337.99,342.474,344.621,348.925,353.409,357.883,360.03,362.747,367.231,371.354,374.071,378.194,380.74,385.224,387.941,392.064,394.211,398.686,403.17,407.473,411.957,414.674,416.688,421.343,425.466,429.941,432.083,434.097,438.581,440.728,443.445,447.568,450.285,457.049,460.469,462.616,467.1,469.646,471.793,476.096,478.243,482.718,485.435,489.919,494.393,498.697,503.171,505.185,507.199,509.213,512.633,515.35,517.364,520.965,523.112,527.596,532.08,534.797,538.397,542.881,549.645,553.417,555.345" y="331.964" svg_rhmargin="557.625" style="fill:#171615;font-family:QGTWFH+FrutigerLTPro-Condensed;font-size:9.5px;font-style:NORMAL;font-weight:normal;">uncertain and therefore quantified in terms of a probabilistic outcome. </text>
  <text x="309.547,314.554,319.038,323.341,327.816,330.533,334.656,337.373,339.65299999999996,340.603,345.068,347.34799999999996,348.298,352.601,356.021,359.441,363.564,366.984,370.404,374.527,377.947,380.227,381.177,383.894,388.378,392.501,394.78099999999995,395.731,399.332,401.346,403.36,410.124,414.427,417.144,421.267,423.54699999999997,424.497,428.981,433.456,435.47,439.593,443.193,445.91,447.924,451.876,455.999,459.419,461.69899999999996,462.649,467.133,469.679,471.95899999999995,472.909,475.626,480.11,484.233,486.513,487.463,491.415,495.719,498.436,500.45,503.87,506.581,511.939,516.414,519.131,523.254,527.377,534.141,538.263,542.747,545.464,547.744,548.694,550.708,555.287" y="343.963" svg_rhmargin="557.567" style="fill:#171615;font-family:QGTWFH+FrutigerLTPro-Condensed;font-size:9.5px;font-style:NORMAL;font-weight:normal;">Chapter 1 assesses the climate objectives of the Paris Agreement in </text>
  <text x="309.547,312.264,316.387,319.104,325.868,329.288,331.568,332.689,337.173,339.719,341.99899999999997,343.12,347.604,352.088,358.852,363.156,367.64,370.357,372.371,376.855,381.329,385.813,389.414,393.537,398.011,400.291,401.412,407.654,411.957,414.674,421.438,423.452,427.936,432.411,434.244,436.524,437.645,440.362,444.846,449.33,452.75,455.03,456.151,460.274,464.226,467.827,469.841,474.325,478.799,480.813,485.297,489.772,492.05199999999996,493.173,497.647,502.131,504.848,508.971,513.455,516.172,518.186,522.49,524.504,526.784,527.905,529.919,536.683,541.157,545.461,549.061,551.778,555.293" y="355.961" svg_rhmargin="557.573" style="fill:#171615;font-family:QGTWFH+FrutigerLTPro-Condensed;font-size:9.5px;font-style:NORMAL;font-weight:normal;">terms of human-induced warming, thus excluding potential impacts </text>
  <text x="309.547,314.031,316.577,318.85699999999997,319.361,323.845,328.148,330.865,335.349,338.066,342.37,344.384,346.664,347.167,349.713,354.197,356.914,360.515,362.529,367.013,371.487,373.767,374.271,377.691,382.175,385.775,390.259,392.539,393.043,397.346,400.766,403.046,403.55,407.502,411.986,414.0,417.6,421.904,426.388,428.402,432.002,434.282,434.786,438.909,441.626,446.11,450.584,453.301,455.315,459.799,464.283,467.703,469.98299999999995,470.487,474.971,477.688,479.96799999999996,480.471,483.891,488.375,490.389,494.693,497.41,499.69,500.193,504.677,509.161,511.878,516.353,520.837,523.554,525.834,526.337,529.938,534.422,538.725,543.209,547.684,551.807,555.322" y="367.96" svg_rhmargin="557.602" style="fill:#171615;font-family:QGTWFH+FrutigerLTPro-Condensed;font-size:9.5px;font-style:NORMAL;font-weight:normal;">of natural forcing such as volcanic eruptions or solar output changes </text>
  <text x="309.547,314.031,316.748,319.38,323.864,328.348,330.894,335.378,338.095,341.695,345.818,350.293,352.924,354.938,359.422,362.139,366.262,368.979,373.463,377.767,379.781,382.412,386.193,390.497,393.214,395.228,399.531,404.006,406.02,408.034,410.048,412.765,416.536,418.37,420.482,423.902,428.025,434.789,439.264,443.387,446.104,450.407,453.124,457.608,460.325,464.448,467.08,469.797,473.92,477.34,481.814,486.298,490.782,494.202,498.325,501.745,504.377,506.391,510.875,513.506,516.223,520.707,522.721,526.141,528.773,532.373,536.857,541.161,545.635,548.352,552.475,555.287" y="379.958" svg_rhmargin="557.567" style="fill:#171615;font-family:QGTWFH+FrutigerLTPro-Condensed;font-size:9.5px;font-style:NORMAL;font-weight:normal;">or unforced internal variability. Temperature responses in this chapter </text>
  <text x="309.547,313.851,316.568,320.691,322.97099999999995,323.821,328.124,331.544,334.964,339.087,342.507,345.927,350.05,354.525,356.80499999999995,357.655,362.139,365.559,367.573,372.057,376.532,378.81199999999995,379.662,383.082,385.096,391.86,396.334,398.348,402.471,404.751,405.602,410.076,414.199,418.683,423.158,427.642,431.413,434.833,436.847,440.448,444.751,446.765,448.779,452.551,454.83099999999996,455.686,460.16,464.464,467.884,472.007,476.481,478.76099999999997,479.611,486.375,490.859,495.334,499.457,501.471,504.891,507.171,508.026,510.743,515.227,519.53,522.247,524.5269999999999,525.382,529.505,533.286,537.589,539.603,544.087,548.391,551.108,555.326" y="391.957" svg_rhmargin="557.606" style="fill:#171615;font-family:QGTWFH+FrutigerLTPro-Condensed;font-size:9.5px;font-style:NORMAL;font-weight:normal;">are assessed using simple geophysically based models that evaluate </text>
  <text x="309.547,312.264,316.748,320.871,323.15099999999995,323.978,328.281,332.765,335.482,339.966,342.683,347.167,351.642,356.126,360.6,364.723,369.207,371.221,374.822,377.102,377.928,381.529,386.013,392.777,397.251,401.735,406.219,410.342,414.826,417.543,419.823,420.65,425.134,427.68,429.96,430.786,433.332,437.816,440.533,445.017,447.734,451.857,454.137,454.964,457.681,461.804,468.568,473.042,477.165,479.882,484.186,486.903,491.387,494.104,498.227,500.50699999999995,501.333,504.934,509.418,513.721,518.205,522.68,526.803,529.083,529.909,534.213,538.697,543.171,545.451,546.278,550.752,555.331" y="403.955" svg_rhmargin="557.611" style="fill:#171615;font-family:QGTWFH+FrutigerLTPro-Condensed;font-size:9.5px;font-style:NORMAL;font-weight:normal;">the anthropogenic component of future temperature change and do </text>
  <text x="309.547,314.031,318.515,321.232,323.526,325.54,330.024,333.625,338.109,340.826,345.3,349.784,352.501,356.805,359.522,363.645,365.944,367.958,372.442,375.159,379.282,381.999,386.483,390.786,392.8,395.095,399.579,403.882,406.599,411.083,413.8,418.104,420.118,422.412,426.193,430.496,433.214,435.228,439.531,442.248,444.262,448.746,453.23,456.65,458.949,463.253,467.737,472.211,474.505,478.809,481.526,485.649,487.943,490.66,495.144,499.628,503.048,505.342,509.997,512.714,515.009,517.555,522.039,524.756,527.05,531.524,536.008,538.725,543.2,547.684,551.104,555.321" y="415.954" svg_rhmargin="557.601" style="fill:#171615;font-family:QGTWFH+FrutigerLTPro-Condensed;font-size:9.5px;font-style:NORMAL;font-weight:normal;">not incorporate internal natural variations and are thus fit for purpose </text>
  <text x="309.547,311.561,316.045,318.325,319.703,322.42,326.904,331.027,333.30699999999996,334.684,338.285,342.769,347.253,349.97,354.093,358.045,360.762,363.042,364.419,368.903,371.449,373.729,375.107,377.824,382.308,384.322,387.742,390.022,391.399,395.703,399.123,402.543,406.666,410.086,413.506,420.27,424.393,428.877,431.594,433.87399999999997,435.251,437.797,441.92,446.043,449.644,452.361,454.375,458.859,463.343,465.623,467.0,471.465,473.65,478.115,480.3,484.765,487.311,489.145,491.42499999999995,492.802,498.16,502.283,506.767,510.368,514.491,516.771,518.148,522.452,524.732,526.109,529.529,533.13,537.253,541.737,546.04,548.757,550.771,555.35" y="427.952" svg_rhmargin="557.63" style="fill:#171615;font-family:QGTWFH+FrutigerLTPro-Condensed;font-size:9.5px;font-style:NORMAL;font-weight:normal;">in the context of this assessment (Section 2.2.1). Hence a scenario </text>
  <text x="309.547,312.264,316.748,321.052,323.769,326.049,327.189,329.203,332.623,334.90299999999996,336.043,339.643,344.127,348.611,352.031,354.045,357.465,360.182,364.305,368.789,371.506,373.78599999999994,374.926,381.339,383.353,386.07,390.554,392.83399999999995,393.974,398.439,400.624,405.089,408.794,413.8,416.08,417.22,423.984,428.288,432.059,434.339,435.479,437.493,441.977,444.25699999999995,445.397,447.943,452.247,455.847,458.564,460.844,461.984,463.998,468.121,472.425,476.899,479.179,480.319,483.036,487.52,489.79999999999995,490.94,495.063,497.077,499.794,504.278,508.401,511.118,513.398,514.538,518.842,521.122,522.262,526.746,528.76,533.234,537.718,541.841,544.558,546.838,547.978,552.462,555.274" y="439.951" svg_rhmargin="557.554" style="fill:#171615;font-family:QGTWFH+FrutigerLTPro-Condensed;font-size:9.5px;font-style:NORMAL;font-weight:normal;">that is consistent with 1.5°C may in fact lead to either a higher or </text>
  <text x="309.547,311.561,316.045,322.458,326.581,329.298,331.578,332.252,334.969,339.092,345.856,350.331,354.454,357.171,361.474,364.191,368.675,371.392,375.515,377.79499999999996,378.47,382.07,386.554,390.858,395.342,399.816,403.588,405.421,407.70099999999996,408.376,412.85,417.334,420.051,422.33099999999996,423.006,429.418,431.432,434.149,438.633,440.647,445.131,447.41099999999994,448.086,452.56,457.044,461.348,465.832,468.549,470.563,475.218,479.341,483.815,486.09499999999997,486.77,491.073,495.557,500.032,502.31199999999995,502.986,507.461,511.584,516.068,520.191,522.908,527.211,529.225,531.239,535.01,537.29,537.965,544.378,548.5,550.514,552.528" y="451.949" svg_rhmargin="555.34" style="fill:#171615;font-family:QGTWFH+FrutigerLTPro-Condensed;font-size:9.5px;font-style:NORMAL;font-weight:normal;">lower temperature change, but within quantified and generally well-</text>
  <text x="309.547,314.031,318.515,322.99,327.113,329.83,333.25,335.967,340.451,344.935,349.409,351.68899999999996,352.934,357.408,361.892,366.376,370.86,375.335,378.755,381.03499999999997,382.279,384.825,388.245,392.368,396.491,398.77099999999996,400.016,404.319,406.333,409.753,414.237,416.517,417.762,422.768,427.252,431.556,436.03,438.747,442.87,445.587,447.86699999999996,449.112,453.577,455.41,457.69,458.935,463.058,467.181,470.781,473.498,475.512,479.996,484.48,486.76,488.005,492.47,494.655,499.12,501.305,505.77,508.316,510.149,512.429,513.674,518.68,523.164,527.648,531.068,533.082,536.502,539.219,543.342,547.826,551.427,555.293" y="463.948" svg_rhmargin="557.573" style="fill:#171615;font-family:QGTWFH+FrutigerLTPro-Condensed;font-size:9.5px;font-style:NORMAL;font-weight:normal;">understood bounds (see also Chapter 1, Section 1.2.3). Consistency </text>
  <text x="309.547,315.96,317.974,320.691,325.175,327.455,330.751,335.055,339.007,343.491,345.505,349.979,351.993,356.477,360.952,363.23199999999997,366.528,370.832,373.11199999999997,376.408,380.892,385.376,392.14,396.444,400.928,403.645,405.659,410.143,414.617,419.101,422.702,426.825,431.299,433.57899999999995,436.876,439.593,443.716,450.48,454.954,459.077,461.794,466.098,468.815,473.299,476.016,480.139,482.419,485.715,489.316,493.8,498.103,502.587,507.062,511.185,513.465,516.761,518.775,520.789,527.553,529.567,532.284,534.564,537.861,544.625,549.109,552.529,555.34" y="475.946" svg_rhmargin="557.62" style="fill:#171615;font-family:QGTWFH+FrutigerLTPro-Condensed;font-size:9.5px;font-style:NORMAL;font-weight:normal;">with avoiding a human-induced temperature change limit must </text>
  <text x="309.547,312.264,316.748,320.871,323.588,327.711,330.257,334.741,337.458,341.581,343.861,346.749,351.053,353.067,356.487,360.971,363.251,366.139,370.613,374.736,377.01599999999996,379.904,384.379,388.502,393.157,397.641,401.764,406.238,408.518,411.406,415.881,418.598,423.082,427.556,431.86,436.334,438.348,440.362,442.376,445.796,448.513,450.527,454.128,458.431,460.445,462.459,466.231,468.064,470.344,473.232,479.645,481.659,484.376,488.86,491.14,494.028,496.042,498.056,501.827,505.95,507.964,509.978,514.462,518.946,523.43,527.905,530.185,533.073,536.854,541.157,543.171,547.655,551.778,555.292" y="487.945" svg_rhmargin="557.572" style="fill:#171615;font-family:QGTWFH+FrutigerLTPro-Condensed;font-size:9.5px;font-style:NORMAL;font-weight:normal;">therefore also be defined probabilistically, with likelihood values </text>
  <text x="309.547,312.967,317.09,319.104,323.227,326.828,329.545,333.668,338.142,340.42199999999997,343.481,347.956,352.259,355.679,359.802,364.277,366.55699999999996,369.616,374.1,378.584,380.864,383.923,386.64,388.654,392.074,396.197,398.914,403.217,407.169,411.653,413.667,418.142,422.445,426.929,430.53,434.653,436.933,439.992,444.466,447.183,451.306,453.852,457.975,460.692,464.815,469.299,472.899,477.022,480.092,481.924,484.20399999999995,487.263,492.099,496.222,499.642,504.116,508.6,513.084,516.504,520.627,524.047,526.327,529.386,533.861,537.984,541.755,546.239,550.723,555.293" y="499.943" svg_rhmargin="557.573" style="fill:#171615;font-family:QGTWFH+FrutigerLTPro-Condensed;font-size:9.5px;font-style:NORMAL;font-weight:normal;">selected based on risk-avoidance preferences. Responses beyond </text>
  <text x="309.547,314.022,316.036,320.52,324.994,329.298,331.312,333.592,334.352,341.116,345.239,349.542,354.026,356.306,357.066,359.783,363.906,370.67,375.145,379.268,381.985,386.288,389.005,393.489,396.206,400.329,402.609,403.369,407.673,410.39,414.513,416.79299999999995,417.553,422.037,426.521,429.238,431.518,432.278,434.995,438.766,443.241,445.255,448.855,453.159,455.173,457.187,460.958,463.238,463.998,468.121,471.902,476.206,478.22,482.704,487.007,489.724,493.847,498.322,500.602,501.362,503.376,507.86,510.14,510.9,514.32,518.804,522.404,526.888,529.168,529.928,536.692,541.176,545.651,549.774,551.788,555.302" y="511.942" svg_rhmargin="557.582" style="fill:#171615;font-family:QGTWFH+FrutigerLTPro-Condensed;font-size:9.5px;font-style:NORMAL;font-weight:normal;">global mean temperature are not typically evaluated in such models </text>
  <text x="309.547,313.851,318.335,322.809,324.994,329.298,332.015,336.138,338.323,342.626,346.046,349.466,353.589,357.009,360.429,364.552,369.027,371.212,373.226,377.71,379.895,384.901,389.385,393.689,398.163,400.88,405.003,407.72,409.905,414.37" y="523.94" svg_rhmargin="416.65" style="fill:#171615;font-family:QGTWFH+FrutigerLTPro-Condensed;font-size:9.5px;font-style:NORMAL;font-weight:normal;">and are assessed in Chapter 3.</text>
  <text x="309.543,314.643,317.143,322.243,324.743,329.843,332.44300000000004,345.543,350.253,355.343,360.243,362.743,368.753,372.723,377.623,380.123,385.393,388.623,391.123,396.023,400.183,405.083,410.173,415.073,418.493,420.993,426.263" y="548.0" svg_rhmargin="430.333" style="fill:#192a53;font-family:QGTWFH+FrutigerLTPro-BoldCn;font-size:10.0px;font-style:NORMAL;font-weight:bold;">2.1.2 The Use of Scenarios</text>
  <text x="309.543,314.198,318.502,321.219,323.233,327.536,330.253,332.267,336.751,341.235,344.655,346.93499999999995,349.51,351.524,356.008,358.28799999999995,360.862,364.282,367.883,372.006,376.49,380.793,383.51,385.524,390.008,392.28799999999995,394.863,399.166,402.586,406.006,410.49,417.254,421.729,424.446,426.46,430.944,435.428,438.848,441.128,443.702,448.006,452.49,456.964,459.24399999999997,461.819,466.293,470.416,473.836,475.85,480.325,484.809,487.089,489.663,494.138,498.261,502.916,507.4,511.523,513.803,516.377,519.094,523.578,525.858,528.433,532.736,535.016,537.591,539.605,543.908,546.625,551.1,555.318" y="572.0" svg_rhmargin="557.598" style="fill:#171615;font-family:QGTWFH+FrutigerLTPro-Condensed;font-size:9.5px;font-style:NORMAL;font-weight:normal;">Variations in scenario assumptions and design define to a large </text>
  <text x="309.543,314.018,318.141,322.615,325.332,329.455,333.578,335.85799999999995,337.53,343.943,348.427,350.441,354.041,358.525,360.80499999999995,362.477,366.952,371.436,375.559,378.979,381.696,383.71,388.194,392.678,396.098,398.378,400.05,403.65,407.954,412.438,414.71799999999996,416.39,420.864,424.987,427.267,428.939,433.243,437.717,442.192,444.909,449.032,452.452,455.872,459.995,464.469,466.74899999999997,468.421,474.834,476.848,479.565,484.049,486.32899999999995,488.001,492.304,494.58399999999995,496.256,499.676,504.151,508.274,511.874,513.888,518.543,522.144,524.424,526.096,529.516,533.116,537.239,541.723,546.027,548.744,550.758,555.337" y="583.999" svg_rhmargin="557.617" style="fill:#171615;font-family:QGTWFH+FrutigerLTPro-Condensed;font-size:9.5px;font-style:NORMAL;font-weight:normal;">degree which questions can be addressed with a specific scenario </text>
  <text x="309.543,312.963,317.086,319.803,321.636,323.916,325.227,327.773,332.257,334.974,337.25399999999996,338.565,342.688,346.64,350.943,357.707,362.182,364.196,367.967,369.801,372.08099999999996,373.392,376.109,380.593,384.716,386.996,388.307,392.43,396.382,400.856,402.87,407.354,410.071,414.375,417.092,419.106,423.59,428.074,430.354,431.665,436.149,438.695,440.97499999999997,442.286,444.3,451.064,455.538,457.552,459.566,463.167,467.47,470.187,472.201,476.685,481.169,484.589,486.86899999999997,488.18,492.664,495.21,497.48999999999995,498.801,503.276,507.399,509.413,513.716,517.488,521.611,526.085,528.365,529.676,533.277,535.291,537.305,544.069,548.372,551.089,555.306" y="595.9970000000001" svg_rhmargin="557.586" style="fill:#171615;font-family:QGTWFH+FrutigerLTPro-Condensed;font-size:9.5px;font-style:NORMAL;font-weight:normal;">set, for example, the exploration of implications of delayed climate </text>
  <text x="309.543,316.307,318.321,321.038,323.052,327.527,331.83,334.547,336.561,341.045,345.529,347.80899999999997,348.503,352.806,356.407,359.124,361.138,365.622,370.106,371.939,374.219,374.913,377.117,381.601,383.881,384.574,387.291,391.775,393.789,397.209,399.489,400.183,404.486,407.906,411.327,415.449,418.87,422.29,429.054,433.177,437.661,440.378,442.21,444.48999999999995,445.184,447.901,452.385,456.508,458.78799999999995,459.481,462.027,466.511,468.525,470.539,475.023,481.436,483.45,487.934,492.408,494.688,495.382,498.982,500.996,505.3,508.72,512.14,516.263,519.683,521.963,522.656,527.14,529.686,531.966,532.66,537.125,539.31,543.775,547.48,552.486,555.297" y="607.996" svg_rhmargin="557.577" style="fill:#171615;font-family:QGTWFH+FrutigerLTPro-Condensed;font-size:9.5px;font-style:NORMAL;font-weight:normal;">mitigation action. In this assessment, the following classes of 1.5°C- </text>
  <text x="309.543,313.847,318.331,322.805,325.085,326.297,330.762,334.467,339.473,342.19,345.791,350.275,354.759,358.179,360.193,363.613,366.33,370.453,374.937,377.654,379.93399999999997,381.145,384.565,388.165,392.288,396.772,401.076,403.793,405.807,410.291,413.711,415.991,417.202,421.506,424.223,428.346,430.626,431.837,436.321,438.867,441.147,442.358,446.833,451.136,453.853,456.57,458.584,462.185,466.669,468.683,472.986,475.703,477.98299999999995,479.194,481.208,485.692,488.409,492.532,495.249,499.372,502.792,505.509,507.789,509.001,511.718,516.202,518.482,519.692,522.409,526.893,531.016,533.2959999999999,534.507,537.224,541.708,546.183,548.197,551.797,555.312" y="619.994" svg_rhmargin="557.592" style="fill:#171615;font-family:QGTWFH+FrutigerLTPro-Condensed;font-size:9.5px;font-style:NORMAL;font-weight:normal;">and 2°C-consistent scenarios are of particular interest to the topics </text>
  <text x="309.543,313.847,318.321,322.796,325.513,329.636,333.056,336.476,340.599,345.073,347.35299999999995,348.17,350.184,354.668,356.948,357.765,360.482,364.966,366.98,370.4,372.67999999999995,373.497,377.098,381.582,385.885,390.36,393.077,397.2,399.917,401.75,404.03,404.847,407.393,409.407,411.953,414.23299999999995,415.05,418.47,422.071,426.194,430.678,434.981,437.698,439.712,444.196,447.616,449.89599999999996,450.713,457.126,459.14,461.857,466.341,468.621,469.438,472.155,476.639,480.762,483.042,483.859,487.279,491.582,498.346,502.469,504.74899999999997,505.566,509.167,511.181,513.195,519.959,524.262,526.979,531.102,533.382,534.199,536.916,541.22,543.937,548.411,552.534,555.346" y="631.9929999999999" svg_rhmargin="557.626" style="fill:#171615;font-family:QGTWFH+FrutigerLTPro-Condensed;font-size:9.5px;font-style:NORMAL;font-weight:normal;">addressed in this chapter: (i) scenarios with the same climate target </text>
  <text x="309.543,314.027,317.979,322.102,324.819,327.099,330.909,333.626,338.11,342.233,344.513,348.322,352.787,357.252,360.672,363.389,365.669,369.479,373.079,377.202,381.686,384.403,388.887,391.604,395.376,397.65599999999995,401.465,405.94,410.424,413.141,415.421,419.23,423.011,427.315,430.032,433.803,435.817,440.301,444.776,447.056,450.865,454.285,458.769,462.37,464.384,468.868,471.585,475.708,479.308,483.792,488.276,492.76,499.525,501.539,505.139,507.419,511.229,515.532,518.952,522.372,526.856,533.62,538.094,540.811,542.825,547.309,551.793,555.308" y="643.991" svg_rhmargin="557.588" style="fill:#171615;font-family:QGTWFH+FrutigerLTPro-Condensed;font-size:9.5px;font-style:NORMAL;font-weight:normal;">over the 21st century but varying socio-economic assumptions </text>
  <text x="309.543,312.089,316.212,320.335,323.936,326.653,328.667,333.151,337.635,341.055,343.335,345.957,350.422,352.607,357.072,359.352,361.974,366.277,370.761,375.236,377.51599999999996,380.138,384.603,386.788,391.253,393.799,395.633,397.91299999999995,400.535,403.081,405.095,407.109,409.655,411.93499999999995,414.557,419.032,423.335,425.349,428.066,431.486,433.76599999999996,436.388,440.872,443.418,445.698,448.32,451.74,455.341,459.464,463.948,468.251,470.968,472.982,477.466,480.886,483.166,485.788,492.201,494.215,496.932,501.416,503.69599999999997,506.318,509.738,511.752,518.516,520.53,522.544,526.847,529.564,531.8439999999999,534.466,537.886,542.37,545.971,547.985,552.469" y="655.99" svg_rhmargin="555.281" style="fill:#171615;font-family:QGTWFH+FrutigerLTPro-Condensed;font-size:9.5px;font-style:NORMAL;font-weight:normal;">(Sections 2.3 and 2.4), (ii) pairs of scenarios with similar socio-</text>
  <text x="309.543,313.666,317.267,321.751,326.235,330.719,337.483,339.497,343.097,344.807,349.111,352.531,355.951,360.435,367.199,371.673,374.39,376.404,380.888,385.372,388.792,390.502,394.977,399.461,402.178,403.888,410.3,412.314,415.031,419.515,421.225,423.771,428.255,430.972,434.573,436.587,441.071,445.545,447.255,449.972,454.276,456.993,461.467,465.59,468.307,471.727,473.437,477.741,479.755,486.519,490.642,495.116,496.826,501.13,503.847,505.557,510.022,512.207,516.672,520.377,525.383,527.093,531.397,535.881,540.355,542.065,546.531,550.236,555.337" y="667.988" svg_rhmargin="557.617" style="fill:#171615;font-family:QGTWFH+FrutigerLTPro-Condensed;font-size:9.5px;font-style:NORMAL;font-weight:normal;">economic assumptions but with forcing targets aimed at 1.5°C and 2°C </text>
  <text x="309.543,312.089,316.212,320.335,323.936,326.653,328.667,333.151,337.635,339.958,344.423,346.608,351.073,353.619,355.452,357.775,362.078,366.562,371.037,373.36,375.906,377.92,379.934,381.948,384.494,386.816,390.236,393.837,397.96,402.444,406.747,409.464,411.478,415.962,419.382,421.704,424.421,428.905,433.209,435.926,438.248,440.794,445.278,447.292,449.306,453.79,460.203,462.526,465.243,469.727,473.85,476.172,481.891,486.195,488.912,490.926,495.41,499.894,504.197,506.211,508.225,511.997,514.32,519.678,523.801,526.518,530.641,533.358,540.122,542.136,546.62,550.743,555.312" y="679.987" svg_rhmargin="557.592" style="fill:#171615;font-family:QGTWFH+FrutigerLTPro-Condensed;font-size:9.5px;font-style:NORMAL;font-weight:normal;">(Section 2.3), and (iii) scenarios that follow the Nationally Determined </text>
  <text x="309.543,314.55,319.034,323.518,326.235,328.952,330.966,335.44,339.924,342.641,344.655,349.139,353.623,357.043,358.725,363.209,365.926,367.607,373.326,378.684,383.691" y="691.985" svg_rhmargin="387.206" style="fill:#171615;font-family:QGTWFH+FrutigerLTPro-Condensed;font-size:9.5px;font-style:NORMAL;font-weight:normal;">Contributions or NDCs</text>
  <text x="387.104" y="688.837" svg_rhmargin="389.762" style="fill:#171615;font-family:QGTWFH+FrutigerLTPro-LightCnIta;font-size:5.54px;font-style:NORMAL;font-weight:normal;">2</text>
  <text y="692.0" svg_rhmargin="557.61" x="391.388,395.872,400.356,403.073,405.087,407.101,408.783,413.248,417.713,422.178,426.643,428.324,434.737,436.751,439.468,443.952,445.633,452.397,456.881,460.482,464.966,466.647,473.411,477.895,480.612,484.735,486.417,489.837,492.554,495.271,497.285,501.769,506.243,510.366,514.85,517.567,519.249,526.013,528.027,530.744,532.758,537.232,541.536,544.253,546.267,550.751,555.33" style="fill:#171615;font-family:QGTWFH+FrutigerLTPro-Condensed;font-size:9.5px;font-style:NORMAL;font-weight:normal;">until 2030 with much more stringent mitigation </text>
  <text x="309.546,313.849,317.45,320.167,322.181,326.665,331.149,333.334,336.051,340.535,344.658,347.375,351.498,355.801,358.347,361.064,365.187,367.904,370.089,372.635,376.758,380.881,384.482,387.199,389.213,393.697,398.181,400.366,404.831,407.016,411.481,413.666,418.131,420.677,422.605" y="703.998" svg_rhmargin="424.885" style="fill:#171615;font-family:QGTWFH+FrutigerLTPro-Condensed;font-size:9.5px;font-style:NORMAL;font-weight:normal;">action thereafter (Section 2.3.5). </text>
  <text x="51.024" y="740.549" svg_rhmargin="53.263" style="fill:#171615;font-family:QGTWFH+FrutigerLTPro-LightCn;font-size:4.66px;font-style:NORMAL;font-weight:normal;">2</text>
  <text y="743.213" svg_rhmargin="413.986" x="63.022,67.318,71.022,73.246,75.47,78.878,82.582,84.806,86.726,90.43,92.062,95.47,99.174,102.878,106.286,109.102,111.022,112.654,116.358,119.318,120.95,124.654,128.358,131.766,133.686,135.91,139.614,143.326,146.142,149.55,151.47,153.542,155.766,159.478,164.966,166.886,169.11,172.814,176.222,178.142,182.734,186.438,188.07,190.294,193.702,197.406,199.326,202.734,204.958,208.51,210.734,214.142,216.958,218.878,222.43,224.062,226.286,229.99,233.702,237.406,241.11,244.814,246.734,248.958,252.662,256.07,259.03,260.95,264.654,268.206,271.326,274.734,276.654,279.47,281.694,285.246,287.47,290.878,294.582,296.502,298.726,302.43,305.838,307.47,309.69,311.61,313.242,316.946,319.17,322.578,326.282,328.506,330.138,333.85,337.554,339.474,341.698,345.41,347.33,352.514,354.146,356.37,360.074,363.778,365.858,369.41,374.594,376.514,378.146,381.85,383.77,385.994,389.698,393.106,395.026,397.098,400.802,403.026,406.73,408.954,412.066" style="fill:#171615;font-family:QGTWFH+FrutigerLTPro-LightCn;font-size:8.0px;font-style:NORMAL;font-weight:normal;">Current pledges include those from the United States although they have stated their intention to withdraw in the future.</text>
 </g>
</svg>
