<?xml version="1.0" encoding="UTF-8"?>
<svg height="800.865966796875" width="613.780029296875" xmlns="http://www.w3.org/2000/svg">
 <g style="fill:none;">
  <path d=" M 0.0 753.448974609375 L 603.780029296875 753.448974609375 L 603.780029296875 790.865966796875 L 0.0 790.865966796875 Z " style="fill:none;stroke:#000000;stroke-width:1.0;"/>
  <text svg_rhmargin="198.52" x="40.638,48.208,55.778,63.055,66.145,71.865,77.215,81.135,86.765,90.565,95.995,99.085,103.915,109.695,118.435,121.635,126.125,130.955,133.725,139.15,144.87,148.79,151.56,155.19,157.96,162.79,166.59,172.02,177.78,183.56,187.36,191.28,195.77,198.52" y="781.868" style="fill:#ffffff;font-family:IOBAOI+Corbel2;font-size:10.0px;font-style:NORMAL;font-weight:normal;">www.nature.com/scientificreports/ </text>
  <text x="549.838" y="781.868" svg_rhmargin="554.638" style="fill:#839097;font-family:IOBAOI+Corbel2;font-size:10.0px;font-style:NORMAL;font-weight:normal;">5</text>
  <text x="40.794,45.642,50.786,52.754000000000005,53.186,58.026,64.026,68.898,70.866,71.298,75.762,77.73,78.162,83.162" y="781.882" svg_rhmargin="84.762" style="fill:#839097;font-family:IOBAOI+Corbel2;font-size:8.0px;font-style:NORMAL;font-weight:normal;">Sci enti fi c </text>
  <text x="84.762,90.218,95.194,100.434,106.738,112.194,117.186" y="781.882" svg_rhmargin="121.802" style="fill:#839097;font-family:WKSTDA+Corbel-Bold2;font-size:8.0px;font-style:NORMAL;font-weight:bold;">RepoRTS</text>
  <text y="781.882" svg_rhmargin="126.938" x="123.522,125.338" style="fill:#000000;font-family:IOBAOI+Corbel2;font-size:8.0px;font-style:NORMAL;font-weight:normal;">| </text>
  <text y="781.882" svg_rhmargin="186.93" x="138.426,140.698,144.634,148.57,152.506,156.442,158.714,160.17,164.106,165.794,169.73,173.666,177.602,181.538,185.474" style="fill:#000000;font-family:MyriadPro-It;font-size:8.0px;font-style:ITALIC;font-weight:normal;">(2018) 8:16570 </text>
  <text y="781.882" svg_rhmargin="304.534" x="188.372,190.188,191.63,196.997,202.837,204.805,206.917,211.021,215.126,217.238,221.342,225.446,229.55,233.654,235.854,239.086,243.19,247.294,251.398,255.502,259.606,262.27,266.374,270.478,274.582,277.246,281.35,285.454,289.558,293.662,297.766,300.43" style="fill:#000000;font-family:HITRTE+Corbel;font-size:8.0px;font-style:NORMAL;font-weight:normal;">| DOI:10.1038/s41598-018-34943-1</text>
  <text x="167.638,177.267,181.119,183.086,187.865,191.717,194.542,198.438,200.921,203.225,207.121,211.9,213.871,217.237,221.215,225.994,228.459,232.265,235.081,237.456,241.577,245.429,247.396,250.212,253.578,257.474,262.351,265.681,268.29,272.142,275.508,277.475,281.309,285.817,293.043,297.686,302.383,305.208,309.015,311.83,314.269,318.777,323.654,326.984,328.95,332.091,336.879,339.318,343.584,345.663,347.611,351.958,355.936,359.077,361.043,364.94,369.853,374.632,376.598,381.169,385.768,389.169,393.021,396.647,400.841,404.648,407.463,409.902,414.41,419.287,422.617,424.584,427.725,432.513,434.952,439.217,441.296,443.254,447.601,452.2,455.341,457.307,461.142,465.65,470.6,475.442,478.861,486.259,488.23,491.054,495.85,499.702,501.673,503.977,506.416,511.329,515.234,519.13,522.496,524.463,529.242,533.094,537.917,541.769,546.682,551.461" y="431.138" svg_rhmargin="554.665" style="fill:#000000;font-family:MinionPro-Regular;font-size:9.0px;font-style:NORMAL;font-weight:normal;">The detailed radiative transfer computations (Fig. 3a) and observations (Fig. 3b) confirm the linear depend-</text>
  <text x="155.641,159.448,164.318,168.107,171.914,173.633,178.098,180.744" y="441.938" svg_rhmargin="182.787" style="fill:#000000;font-family:MinionPro-Regular;font-size:9.0px;font-style:NORMAL;font-weight:normal;">ence of </text>
  <path d="M40.638 770.187 L554.638 770.187 " style="fill:none;stroke:#000000;stroke-width:1.0;"/>
  <text x="182.173,187.066,195.708,201.752,207.225" y="442.33" svg_rhmargin="212.296" style="fill:#000000;font-family:MinionPro-Regular;font-size:8.93px;font-style:NORMAL;font-weight:normal;">LWCRE</text>
  <text x="212.701,217.307,220.767,223.65,226.818,230.277" y="444.634" svg_rhmargin="232.97" style="fill:#000000;font-family:MinionPro-Regular;font-size:6.34px;font-style:NORMAL;font-weight:normal;">Opaque</text>
  <text y="441.938" svg_rhmargin="246.264" x="234.851,239.315,244.221" style="fill:#000000;font-family:MinionPro-Regular;font-size:9.0px;font-style:NORMAL;font-weight:normal;">on </text>
  <text x="245.94" y="442.556" svg_rhmargin="251.19" style="fill:#000000;font-family:MinionPro-It;font-size:8.93px;font-style:ITALIC;font-weight:normal;">Z</text>
  <text x="251.412" y="444.86" svg_rhmargin="255.233" style="fill:#000000;font-family:MinionPro-It;font-size:6.34px;font-style:ITALIC;font-weight:normal;">T</text>
  <text x="254.58,258.325,260.915,262.932,265.522,268.112" y="446.588" svg_rhmargin="270.193" style="fill:#000000;font-family:MinionPro-Regular;font-size:4.9px;font-style:NORMAL;font-weight:normal;">Opaque</text>
  <text x="270.402,272.436,274.155,283.74,287.547,289.266,293.757,295.909,300.67,304.477,306.196,308.455,310.849,315.719,319.526,321.245,324.45,328.257,332.848,336.052,339.859,343.216,347.023,351.757,354.484,357.769,359.488,362.269,367.022,370.829,372.548,376.401,381.279,385.258,387.455,391.568,394.34,396.734,400.551,404.529,406.788,408.507,411.711,415.483,417.769,421.532,424.304,426.698,431.162,435.996,439.246,444.034,446.321,451.019,452.738,457.203,459.849,461.568,466.708,471.217,473.251,474.97,478.066,482.379,485.475,487.509,489.228,495.429,497.148,501.738,504.943,508.822,512.999,515.393,519.867,524.602,527.887,529.606,532.847,535.484,540.245,544.917" y="441.938" svg_rhmargin="549.048" style="fill:#000000;font-family:MinionPro-Regular;font-size:9.0px;font-style:NORMAL;font-weight:normal;">. The blue line represents the analytical relationship of Eq. (1). A previous study</text>
  <text x="549.033,551.829" y="438.878" svg_rhmargin="554.637" style="fill:#0000ff;font-family:MinionPro-Regular;font-size:5.85px;font-style:NORMAL;font-weight:normal;">49</text>
  <text y="441.938" style="fill:#000000;font-family:MinionPro-Regular;font-size:9.0px;font-style:NORMAL;font-weight:normal;" svg_rhmargin="556.681" x=""/>
  <text x="155.641,160.179,164.646,167.439,171.302,173.705,178.586,182.45,187.193,188.921,192.863,194.591,197.885,200.288,207.65,210.1,212.398,216.262,219.592,221.32,224.536,228.318,230.616,234.39,237.173,239.576,244.052,248.897,252.157,256.954,259.252,263.959,265.687,269.551,274.432,279.175,280.903,284.163,288.927,293.367,299.453,303.317,308.06,309.788,312.581,317.354,321.128,323.864,325.592,327.89,330.626,332.354,337.097,341.762,345.578,348.872,350.6,355.48,359.965,362.701,364.429,369.172,372.988,377.779,381.595,386.475,391.218,392.946,397.422,402.336,404.064,406.857,411.62,415.436,417.164,420.38,424.196,428.447,430.85,435.326,440.24,441.968,445.766,450.241,455.086,458.38,460.783,465.526,469.342,472.558,476.421,481.113,483.156,484.884,494.481,498.297,501.513,505.329,507.905,512.381,515.597,519.361,521.404,523.132,527.005,531.651,536.092,540.18,543.996,545.724,549.588,554.511" y="453.602" svg_rhmargin="556.554" style="fill:#000000;font-family:MinionPro-Regular;font-size:9.0px;font-style:NORMAL;font-weight:normal;">obtained a similar relationship and showed that it does not depend on the region considered. Therefore, above an </text>
  <text x="155.641,160.18,164.989,168.985,173.542,178.366,182.236,184.243,188.043,190.365,194.904,199.728,204.474,206.571,208.578,211.425,216.243,220.113,222.12,226.3,234.754,240.784,246.418,251.575,253.582,256.039,260.975,264.827,268.097,272.024,275.997,279.419,283.289,286.637,288.644,293.12,297.296,299.303,303.668,308.033,309.262,318.046,319.225" y="463.601" svg_rhmargin="326.596" style="fill:#000000;font-family:MinionPro-Regular;font-size:9.0px;font-style:NORMAL;font-weight:normal;">opaque cloud, the LWCRE increases by 11 W m</text>
  <text x="326.643" y="460.544" svg_rhmargin="331.194" style="fill:#000000;font-family:EuclidSymbol;font-size:5.85px;font-style:NORMAL;font-weight:normal;">−</text>
  <text x="331.229" y="460.544" svg_rhmargin="334.037" style="fill:#000000;font-family:MinionPro-Regular;font-size:5.85px;font-style:NORMAL;font-weight:normal;">2</text>
  <text y="463.604" svg_rhmargin="554.64" x="336.075,342.351,347.169,351.039,356.007,358.014,360.862,365.68,369.55,371.557,375.6,377.818,380.656,383.008,385.712,390.536,395.333,399.203,401.21,405.74,408.449,410.456,413.303,418.121,421.991,423.998,428.538,433.346,437.342,441.899,446.723,450.593,452.6,456.401,458.723,463.261,468.085,472.882,474.889,478.331,480.764,484.187,488.057,491.405,493.412,497.889,502.065,504.072,508.437,509.676,514.224,521.64,523.737,525.744,533.658,537.528,539.535,544.38,548.25,551.436" style="fill:#000000;font-family:MinionPro-Regular;font-size:9.0px;font-style:NORMAL;font-weight:normal;">when the altitude of the opaque cloud rises by 1 km. We per-</text>
  <text x="155.643,158.19,162.636,165.993,173.291,177.125,181.841,183.542,187.457,189.158,192.425,194.801,202.136,204.557,206.825,210.659,213.962,215.663,219.497,224.357,228.316,230.494,234.589,237.856,240.205,243.472,245.173,247.72,252.166,255.469,257.17,259.932,264.666,268.455,270.156,272.919,277.689,280.065,284.952,286.653,290.37,292.611,297.065,301.808,306.497,309.764,311.78,313.481,318.197,321.464,323.84,328.655,332.831,334.532,338.42,341.687,343.388,349.445,353.198,355.484,357.725,359.426,364.142,366.518,369.704,373.538,377.372,380.081,381.782,385.085,389.0,393.716,396.119,399.863,402.617,404.93,408.989,412.778,414.479,417.233,420.536,424.37,429.184,432.451,434.998,438.787,442.09,443.791,447.562,452.008,459.171,463.752,468.387,471.15,474.894,477.647,480.023,484.469,489.284,492.551,494.252,498.086,502.937,507.653,509.354,513.863,518.399,521.738,525.527,529.091,533.222,536.966,539.719,542.095,546.541,551.356,554.659" y="473.603" svg_rhmargin="556.702" style="fill:#000000;font-family:MinionPro-Regular;font-size:9.0px;font-style:NORMAL;font-weight:normal;">formed a similar analysis for the thin clouds, using as well direct radiative transfer computations and observations </text>
  <text x="155.643,158.757,164.742,170.961,175.803,178.872,183.939,188.205,194.928,196.674,200.544,205.431,210.183,211.929,217.914,223.026,228.615,233.727,237.993,241.107,243.159,244.905,247.624,250.369,252.115,255.382,260.152,264.598,270.763,274.066,275.812,278.611,283.39,287.17,289.915,291.661,294.46,299.23,303.055" y="484.403" svg_rhmargin="305.098" style="fill:#000000;font-family:MinionPro-Regular;font-size:9.0px;font-style:NORMAL;font-weight:normal;">(CALIPSO and CERES). It shows that the </text>
  <text x="304.521,309.414,318.056,324.1,329.573" y="484.57" svg_rhmargin="334.644" style="fill:#000000;font-family:MinionPro-Regular;font-size:8.93px;font-style:NORMAL;font-weight:normal;">LWCRE</text>
  <text x="335.049,339.079,342.538,344.268" y="486.874" svg_rhmargin="347.734" style="fill:#000000;font-family:MinionPro-Regular;font-size:6.34px;font-style:NORMAL;font-weight:normal;">Thin</text>
  <text y="484.404" svg_rhmargin="464.917" x="349.467,354.219,358.044,362.84,366.665,371.552,376.277,379.58,381.326,383.603,386.015,390.901,394.78,398.65,401.953,404.167,408.298,410.044,414.526,419.449,421.195,423.994,428.764,432.589,434.335,438.943,442.165,446.836,451.48,456.259,460.129,462.874" style="fill:#000000;font-family:MinionPro-Regular;font-size:9.0px;font-style:NORMAL;font-weight:normal;">depends linearly on the product </text>
  <text svg_rhmargin="468.506" x="464.346,468.50600000000003" y="484.842" style="fill:#000000;font-family:EuclidSymbol-Italic;font-size:8.93px;font-style:ITALIC;font-weight:normal;">ε </text>
  <text x="481.05" y="484.842" svg_rhmargin="486.3" style="fill:#000000;font-family:MinionPro-It;font-size:8.93px;font-style:ITALIC;font-weight:normal;">Z</text>
  <text x="486.522" y="487.146" svg_rhmargin="490.343" style="fill:#000000;font-family:MinionPro-It;font-size:6.34px;font-style:ITALIC;font-weight:normal;">T</text>
  <text svg_rhmargin="481.061" x="468.376,472.405,475.865,477.595,481.06100000000004" y="488.874" style="fill:#000000;font-family:MinionPro-Regular;font-size:6.34px;font-style:NORMAL;font-weight:normal;">Thin </text>
  <text x="489.978,492.857,495.452,496.891" y="488.874" svg_rhmargin="499.569" style="fill:#000000;font-family:MinionPro-Regular;font-size:4.9px;font-style:NORMAL;font-weight:normal;">Thin</text>
  <text x="499.77,501.822,503.568,513.17,516.995,518.741,522.566,529.937,532.322,535.58,538.883,541.232,545.425,547.729,550.501,554.632" y="484.404" svg_rhmargin="556.675" style="fill:#000000;font-family:MinionPro-Regular;font-size:9.0px;font-style:NORMAL;font-weight:normal;">. The emissivity </text>
  <text x="155.637,159.804,163.674,167.067,169.479,173.304,176.607,178.443,183.096,186.921,189.693,195.786,199.656,203.481,208.404,210.24,214.56,216.396,220.266,225.153,229.905,231.741,236.061,238.113,242.433,244.485,246.321,250.191,255.078,259.83,261.666,264.051,267.354,269.19,271.602,276.525,279.108,282.933,286.325,289.547,293.417,298.169,300.005,302.759,305.981,310.463,317.834,319.67,325.655,331.874,336.716,339.785,344.852,349.118,355.481,357.533,359.369,366.038,369.863,373.085,376.91,378.746,382.616,387.8,391.625,394.964,396.8,402.893,406.718,408.554,413.306,416.681,420.506,422.342,425.141,429.911,433.736,435.572,438.794,442.583,444.887,448.667,451.456,453.868,458.35,463.201,466.468,471.274,473.578,478.294" y="494.736" svg_rhmargin="480.346" style="fill:#000000;font-family:MinionPro-Regular;font-size:9.0px;font-style:NORMAL;font-weight:normal;">varies between 0 and 0.8, and is inferred from CALIPSO. Here after we use the relationship:</text>
  <text x="300.274,307.22,376.019,382.96500000000003,404.526" y="515.863" svg_rhmargin="408.249" style="fill:#000000;font-family:EuclidSymbol;font-size:8.93px;font-style:NORMAL;font-weight:normal;">= + ε</text>
  <text x="318.706,323.17,439.666" y="519.031" svg_rhmargin="444.13" style="fill:#000000;font-family:MinionPro-Regular;font-size:18.43px;font-style:NORMAL;font-weight:normal;">( )</text>
  <text x="323.026,328.695,348.944,354.194,385.807,391.476,421.234" y="515.863" svg_rhmargin="426.484" style="fill:#000000;font-family:MinionPro-It;font-size:8.93px;font-style:ITALIC;font-weight:normal;">C Z C Z</text>
  <text svg_rhmargin="318.668" x="253.039,257.932,266.574,272.618,278.091,283.16200000000003,310.062,314.383,318.668" y="520.471" style="fill:#000000;font-family:MinionPro-Regular;font-size:8.93px;font-style:NORMAL;font-weight:normal;">LWCRE 11 </text>
  <text x="544.21,547.379,551.7" y="520.471" svg_rhmargin="554.789" style="fill:#000000;font-family:MinionPro-Regular;font-size:8.93px;font-style:NORMAL;font-weight:normal;">(4)</text>
  <text x="354.418,358.23900000000003,426.705" y="518.1669999999999" svg_rhmargin="430.526" style="fill:#000000;font-family:MinionPro-It;font-size:6.34px;font-style:ITALIC;font-weight:normal;">T T</text>
  <text x="283.569,287.598,290.766,292.781,295.664,297.267,328.782,333.395,336.854,339.731,342.899,346.352,349.04499999999996,391.857,395.887,399.346,401.07,404.536,408.559,412.589,416.042,417.772" y="518.1669999999999" svg_rhmargin="421.238" style="fill:#000000;font-family:MinionPro-Regular;font-size:6.34px;font-style:NORMAL;font-weight:normal;">Total Opaque Thin Thin</text>
  <text x="357.586,361.331,363.921,365.938,368.528,371.118,373.199,430.159,433.038,435.633,437.072" y="519.895" svg_rhmargin="439.75" style="fill:#000000;font-family:MinionPro-Regular;font-size:4.9px;font-style:NORMAL;font-weight:normal;">Opaque Thin</text>
  <text x="155.638,162.493,167.584,171.959,177.461,185.946,191.409,196.911,201.114,203.565,207.325,209.775,215.277,220.789,222.505,228.007,231.257,232.973,236.733,242.294,247.385,249.102,253.808,262.878,268.688,274.932,280.576,282.292,286.052,291.144,299.634,305.097,310.599,314.06,319.171,321.661,323.377,328.257,333.369,336.83,339.28,344.391,348.151,350.602,356.104,361.616,365.819,367.535,369.985,375.497,379.257,384.759,386.476,390.85,396.352,401.864,405.624,409.085,411.535,417.075,422.489,426.249,428.7,434.202,439.713,443.917,445.633,451.174,456.588,461.68,463.397,467.157,472.66,474.376,478.75,481.24,486.742,492.156,497.697,499.413,504.876,508.337,513.84,519.303,524.394,527.856,531.616,536.718,538.434,543.314,548.426" y="546.696" svg_rhmargin="551.926" style="fill:#000000;font-family:RVNUDK+Corbel-Bold;font-size:10.0px;font-style:NORMAL;font-weight:bold;">Decomposition of the LWCRE temporal variations into contributions due to cloud property var</text>
  <text x="551.308" y="546.696" svg_rhmargin="554.638" style="fill:#000000;font-family:WKSTDA+Corbel-Bold2;font-size:10.0px;font-style:NORMAL;font-weight:bold;">-</text>
  <text svg_rhmargin="189.868" x="155.638,158.128,163.278,167.068,169.558,175.098,180.648,184.888,187.808,189.868" y="557.496" style="fill:#000000;font-family:RVNUDK+Corbel-Bold;font-size:10.0px;font-style:NORMAL;font-weight:bold;">iations. </text>
  <text x="197.796,203.871,207.174,209.037,213.789,217.614,220.989,224.796,228.189,230.565,235.217,239.042,240.905,243.317,248.24,250.103,254.054,255.917,260.525,263.747,267.644,271.837,274.249,278.74,283.492,286.795,288.658,291.916,294.571,299.35,304.039" y="557.496" svg_rhmargin="308.17" style="fill:#000000;font-family:MinionPro-Regular;font-size:9.0px;font-style:NORMAL;font-weight:normal;">As describe in a previous study</text>
  <text x="308.181,310.989" y="554.436" svg_rhmargin="313.797" style="fill:#0000ff;font-family:MinionPro-Regular;font-size:5.85px;font-style:NORMAL;font-weight:normal;">27</text>
  <text x="313.797,315.849,317.712,320.51,325.28,329.105,330.969,334.722,339.501,343.371,348.222,352.362,356.187,358.05,360.462,365.385" y="557.496" svg_rhmargin="367.428" style="fill:#000000;font-family:MinionPro-Regular;font-size:9.0px;font-style:NORMAL;font-weight:normal;">, the change in </text>
  <text x="366.967,371.859,380.502,386.546,392.019" y="557.6610000000001" svg_rhmargin="397.09" style="fill:#000000;font-family:MinionPro-Regular;font-size:8.93px;font-style:NORMAL;font-weight:normal;">LWCRE</text>
  <text x="397.495,401.525,404.693,406.707,409.59" y="559.965" svg_rhmargin="411.193" style="fill:#000000;font-family:MinionPro-Regular;font-size:6.34px;font-style:NORMAL;font-weight:normal;">Total</text>
  <text y="557.496" svg_rhmargin="550.194" x="413.182,417.835,421.66,424.432,430.525,434.395,438.22,443.143,445.006,447.777,453.87,458.46,460.323,463.581,466.38,470.159,472.85,476.675,479.978,481.841,486.323,488.987,490.85,493.649,498.418,502.243,504.106,507.886,510.675,518.01,522.6,525.858,530.511,535.281,539.107,542.328,546.099,548.151" style="fill:#000000;font-family:MinionPro-Regular;font-size:9.0px;font-style:NORMAL;font-weight:normal;">between two states of the atmosphere, </text>
  <text x="549.454" y="557.6610000000001" svg_rhmargin="552.195" style="fill:#000000;font-family:MinionPro-It;font-size:8.93px;font-style:ITALIC;font-weight:normal;">t</text>
  <text x="552.046" y="559.965" svg_rhmargin="555.087" style="fill:#000000;font-family:MinionPro-Regular;font-size:6.34px;font-style:NORMAL;font-weight:normal;">1</text>
  <text y="557.496" style="fill:#000000;font-family:MinionPro-Regular;font-size:9.0px;font-style:NORMAL;font-weight:normal;" svg_rhmargin="556.681" x=""/>
  <text x="155.641,159.511,164.398,169.15" y="568.296" svg_rhmargin="171.193" style="fill:#000000;font-family:MinionPro-Regular;font-size:9.0px;font-style:NORMAL;font-weight:normal;">and </text>
  <text x="170.41" y="568.462" svg_rhmargin="173.151" style="fill:#000000;font-family:MinionPro-It;font-size:8.93px;font-style:ITALIC;font-weight:normal;">t</text>
  <text x="173.29" y="570.766" svg_rhmargin="176.331" style="fill:#000000;font-family:MinionPro-Regular;font-size:6.34px;font-style:NORMAL;font-weight:normal;">2</text>
  <text svg_rhmargin="233.158" x="176.458,178.51,180.346,184.18,188.05,192.973,194.809,199.462,203.287,205.123,211.315,214.708,217.012,219.667,222.358,226.183,231.106,233.158" y="585.677" style="fill:#000000;font-family:MinionPro-Regular;font-size:9.0px;font-style:NORMAL;font-weight:normal;">, can be written: </text>
  <text x="254.05,261.487,308.77,315.716,318.564,326.00100000000003,379.908,386.85400000000004,389.702" y="585.677" svg_rhmargin="397.139" style="fill:#000000;font-family:EuclidSymbol;font-size:8.93px;font-style:NORMAL;font-weight:normal;">∆ = ∆ + ∆</text>
  <text svg_rhmargin="442.708" x="261.54,266.433,275.075,281.12,286.592,291.663,326.045,330.947,339.589,345.633,351.106,356.177,397.184,402.076,410.718,416.763,422.236,427.307,440.672,442.708" y="587.981" style="fill:#000000;font-family:MinionPro-Regular;font-size:8.93px;font-style:NORMAL;font-weight:normal;">LWCRE LWCRE LWCRE , </text>
  <text x="544.058,547.228,551.549" y="587.981" svg_rhmargin="554.638" style="fill:#000000;font-family:MinionPro-Regular;font-size:8.93px;font-style:NORMAL;font-weight:normal;">(5)</text>
  <text x="292.066,296.096,299.264,301.278,304.161,305.764,356.579,361.185,364.645,367.521,370.689,374.142,376.835,427.713,431.743,435.202,436.926" y="587.981" svg_rhmargin="440.392" style="fill:#000000;font-family:MinionPro-Regular;font-size:6.34px;font-style:NORMAL;font-weight:normal;">Total Opaque Thin</text>
  <text x="155.638,161.866,166.636,170.461,173.683,177.508" y="605.068" svg_rhmargin="179.551" style="fill:#000000;font-family:MinionPro-Regular;font-size:9.0px;font-style:NORMAL;font-weight:normal;">where </text>
  <text x="179.058" y="604.871" svg_rhmargin="186.495" style="fill:#000000;font-family:EuclidSymbol;font-size:8.93px;font-style:NORMAL;font-weight:normal;">∆</text>
  <text y="605.068" svg_rhmargin="294.114" x="188.094,190.506,195.393,200.145,202.557,206.391,210.171,212.862,216.687,219.99,221.826,224.624,229.395,233.219,235.055,238.808,243.588,247.458,252.309,256.449,260.274,262.11,266.763,270.588,273.36,279.453,283.323,287.148,292.071" style="fill:#000000;font-family:MinionPro-Regular;font-size:9.0px;font-style:NORMAL;font-weight:normal;">indicates the change between </text>
  <text x="293.343" y="605.234" svg_rhmargin="296.084" style="fill:#000000;font-family:MinionPro-It;font-size:8.93px;font-style:ITALIC;font-weight:normal;">t</text>
  <text x="295.935" y="607.538" svg_rhmargin="298.976" style="fill:#000000;font-family:MinionPro-Regular;font-size:6.34px;font-style:NORMAL;font-weight:normal;">1</text>
  <text y="605.068" svg_rhmargin="315.915" x="300.363,304.233,309.12,313.872" style="fill:#000000;font-family:MinionPro-Regular;font-size:9.0px;font-style:NORMAL;font-weight:normal;">and </text>
  <text x="315.137" y="605.234" svg_rhmargin="317.878" style="fill:#000000;font-family:MinionPro-It;font-size:8.93px;font-style:ITALIC;font-weight:normal;">t</text>
  <text x="318.017" y="607.538" svg_rhmargin="321.058" style="fill:#000000;font-family:MinionPro-Regular;font-size:6.34px;font-style:NORMAL;font-weight:normal;">2</text>
  <text x="321.185" y="605.068" svg_rhmargin="323.237" style="fill:#000000;font-family:MinionPro-Regular;font-size:9.0px;font-style:NORMAL;font-weight:normal;">.</text>
  <text x="167.636,177.239,181.064,182.9,187.391,192.152,196.103,200.611,205.39,209.215,211.051,213.742,217.567,220.96,228.331" y="615.8679999999999" svg_rhmargin="230.374" style="fill:#000000;font-family:MinionPro-Regular;font-size:9.0px;font-style:NORMAL;font-weight:normal;">The opaque term </text>
  <text x="229.889" y="616.26" svg_rhmargin="237.326" style="fill:#000000;font-family:EuclidSymbol;font-size:8.93px;font-style:NORMAL;font-weight:normal;">∆</text>
  <text x="237.38,242.272,250.914,256.959,262.432" y="616.26" svg_rhmargin="267.503" style="fill:#000000;font-family:MinionPro-Regular;font-size:8.93px;font-style:NORMAL;font-weight:normal;">LWCRE</text>
  <text x="267.905,272.511,275.971,278.854,282.022,285.481" y="618.564" svg_rhmargin="288.174" style="fill:#000000;font-family:MinionPro-Regular;font-size:6.34px;font-style:NORMAL;font-weight:normal;">Opaque</text>
  <text y="615.8679999999999" svg_rhmargin="447.624" x="290.189,294.023,297.893,302.816,304.652,309.304,313.129,314.965,318.79,323.038,327.646,330.868,334.693,337.951,341.326,345.195,349.947,351.783,355.707,359.01,360.846,364.797,366.633,369.891,374.67,382.041,383.877,388.359,391.023,392.859,396.612,401.391,405.261,410.112,414.252,418.077,421.38,423.216,427.86,432.639,436.464,438.3,440.991,445.581" style="fill:#000000;font-family:MinionPro-Regular;font-size:9.0px;font-style:NORMAL;font-weight:normal;">can be expressed as a sum of changes due to </text>
  <text x="446.582" y="616.26" svg_rhmargin="452.251" style="fill:#000000;font-family:MinionPro-It;font-size:8.93px;font-style:ITALIC;font-weight:normal;">C</text>
  <text x="452.342,456.948,460.408,463.29,466.458,469.918" y="618.564" svg_rhmargin="472.611" style="fill:#000000;font-family:MinionPro-Regular;font-size:6.34px;font-style:NORMAL;font-weight:normal;">Opaque</text>
  <text y="615.8679999999999" svg_rhmargin="490.178" x="474.626,478.496,483.383,488.135" style="fill:#000000;font-family:MinionPro-Regular;font-size:9.0px;font-style:NORMAL;font-weight:normal;">and </text>
  <text x="489.976" y="616.487" svg_rhmargin="495.226" style="fill:#000000;font-family:MinionPro-It;font-size:8.93px;font-style:ITALIC;font-weight:normal;">Z</text>
  <text x="495.448" y="618.7909999999999" svg_rhmargin="499.269" style="fill:#000000;font-family:MinionPro-It;font-size:6.34px;font-style:ITALIC;font-weight:normal;">T</text>
  <text x="498.616,502.362,504.952,506.969,509.559,512.149" y="620.519" svg_rhmargin="514.23" style="fill:#000000;font-family:MinionPro-Regular;font-size:4.9px;font-style:NORMAL;font-weight:normal;">Opaque</text>
  <text x="514.456" y="615.8679999999999" svg_rhmargin="516.508" style="fill:#000000;font-family:MinionPro-Regular;font-size:9.0px;font-style:NORMAL;font-weight:normal;">:</text>
  <path d=" M 286.01800537109375 159.61199951171875 L 343.33001708984375 159.61199951171875 L 343.33001708984375 160.18800354003906 L 286.01800537109375 160.18800354003906 Z " style="fill:none;stroke:#000000;stroke-width:1.0;"/>
  <path d=" M 390.56201171875 159.61199951171875 L 447.8740234375 159.61199951171875 L 447.8740234375 160.18800354003906 L 390.56201171875 160.18800354003906 Z " style="fill:none;stroke:#000000;stroke-width:1.0;"/>
  <text svg_rhmargin="282.596" x="214.306,221.74300000000002,275.65,282.596" y="634.9159999999999" style="fill:#000000;font-family:EuclidSymbol;font-size:8.93px;font-style:NORMAL;font-weight:normal;">∆ = </text>
  <text svg_rhmargin="291.609" x="286.306,291.609" y="649.316" style="fill:#000000;font-family:EuclidSymbol;font-size:8.93px;font-style:NORMAL;font-weight:normal;">∂ </text>
  <text svg_rhmargin="303.993" x="298.69,303.993" y="642.12" style="fill:#000000;font-family:EuclidSymbol;font-size:8.93px;font-style:NORMAL;font-weight:normal;">∂ </text>
  <text svg_rhmargin="387.149" x="343.91,351.34700000000004,380.203,387.149" y="634.9159999999999" style="fill:#000000;font-family:EuclidSymbol;font-size:8.93px;font-style:NORMAL;font-weight:normal;">∆ + </text>
  <text svg_rhmargin="396.153" x="390.85,396.153" y="649.316" style="fill:#000000;font-family:EuclidSymbol;font-size:8.93px;font-style:NORMAL;font-weight:normal;">∂ </text>
  <text svg_rhmargin="409.401" x="404.098,409.401" y="642.12" style="fill:#000000;font-family:EuclidSymbol;font-size:8.93px;font-style:NORMAL;font-weight:normal;">∂ </text>
  <text x="448.452" y="642.12" svg_rhmargin="455.889" style="fill:#000000;font-family:EuclidSymbol;font-size:8.93px;font-style:NORMAL;font-weight:normal;">∆</text>
  <text svg_rhmargin="309.541" x="303.872,309.541" y="642.12" style="fill:#000000;font-family:MinionPro-It;font-size:8.93px;font-style:ITALIC;font-weight:normal;">C </text>
  <text svg_rhmargin="357.065" x="351.396,357.065" y="649.316" style="fill:#000000;font-family:MinionPro-It;font-size:8.93px;font-style:ITALIC;font-weight:normal;">C </text>
  <text svg_rhmargin="414.535" x="409.285,414.535" y="642.12" style="fill:#000000;font-family:MinionPro-It;font-size:8.93px;font-style:ITALIC;font-weight:normal;">Z </text>
  <text x="455.943" y="642.12" svg_rhmargin="461.193" style="fill:#000000;font-family:MinionPro-It;font-size:8.93px;font-style:ITALIC;font-weight:normal;">Z</text>
  <text svg_rhmargin="251.92" x="221.797,226.69,235.332,241.376,246.849,251.92" y="634.9159999999999" style="fill:#000000;font-family:MinionPro-Regular;font-size:8.93px;font-style:NORMAL;font-weight:normal;">LWCRE </text>
  <text svg_rhmargin="426.16" x="291.49,296.382,305.025,311.069,316.542,321.613,396.028,400.929,409.572,415.616,421.089,426.16" y="642.116" style="fill:#000000;font-family:MinionPro-Regular;font-size:8.93px;font-style:NORMAL;font-weight:normal;">LWCRE LWCRE </text>
  <text svg_rhmargin="482.454" x="480.418,482.454" y="653.06" style="fill:#000000;font-family:MinionPro-Regular;font-size:8.93px;font-style:NORMAL;font-weight:normal;">, </text>
  <text x="544.066,547.235,551.557" y="653.06" svg_rhmargin="554.646" style="fill:#000000;font-family:MinionPro-Regular;font-size:8.93px;font-style:NORMAL;font-weight:normal;">(6)</text>
  <text svg_rhmargin="418.575" x="414.754,418.57500000000005" y="644.422" style="fill:#000000;font-family:MinionPro-It;font-size:6.34px;font-style:ITALIC;font-weight:normal;">T </text>
  <text x="461.412" y="644.422" svg_rhmargin="465.233" style="fill:#000000;font-family:MinionPro-It;font-size:6.34px;font-style:ITALIC;font-weight:normal;">T</text>
  <text svg_rhmargin="272.593" x="252.324,256.93,260.39,263.273,266.441,269.9,272.59299999999996" y="637.2239999999999" style="fill:#000000;font-family:MinionPro-Regular;font-size:6.34px;font-style:NORMAL;font-weight:normal;">Opaque </text>
  <text x="322.027,326.633,330.092,332.975,336.143,339.603" y="637.2239999999999" svg_rhmargin="342.296" style="fill:#000000;font-family:MinionPro-Regular;font-size:6.34px;font-style:NORMAL;font-weight:normal;">Opaque</text>
  <text svg_rhmargin="329.915" x="309.646,314.252,317.712,320.595,323.763,327.222,329.91499999999996" y="644.428" style="fill:#000000;font-family:MinionPro-Regular;font-size:6.34px;font-style:NORMAL;font-weight:normal;">Opaque </text>
  <text svg_rhmargin="377.441" x="357.172,361.779,365.238,368.121,371.289,374.748,377.441" y="637.231" style="fill:#000000;font-family:MinionPro-Regular;font-size:6.34px;font-style:NORMAL;font-weight:normal;">Opaque </text>
  <text x="426.583,431.189,434.649,437.532,440.7,444.159" y="637.231" svg_rhmargin="446.852" style="fill:#000000;font-family:MinionPro-Regular;font-size:6.34px;font-style:NORMAL;font-weight:normal;">Opaque</text>
  <text svg_rhmargin="433.535" x="417.922,421.667,424.257,426.274,428.864,431.454,433.535" y="646.148" style="fill:#000000;font-family:MinionPro-Regular;font-size:4.9px;font-style:NORMAL;font-weight:normal;">Opaque </text>
  <text x="464.578,468.323,470.913,472.93,475.52,478.11" y="646.148" svg_rhmargin="480.191" style="fill:#000000;font-family:MinionPro-Regular;font-size:4.9px;font-style:NORMAL;font-weight:normal;">Opaque</text>
  <text svg_rhmargin="497.317" x="155.638,161.874,166.653,170.487,173.718,177.552,179.505,182.312,187.091,190.925,192.878,195.659,201.76,206.359,208.312,213.073,216.907,220.309,222.667,226.843,230.632,233.43,235.788,239.892,243.726,247.038,248.991,252.869,256.1,259.934,261.887,266.441,270.923,273.73,277.609,280.03,284.926,288.804,293.565,295.518,298.28,301.511,306.001,313.381,315.334,320.499,325.035,327.096,329.049,332.172,336.466,339.589,341.542,345.42,350.316,355.077,357.03,360.864,364.13,366.929,369.35,376.703,380.491,383.191,387.069,391.83,393.783,397.572,400.326,402.279,405.087,409.865,413.699,415.652,422.995,426.882,430.761,435.693,437.646,442.136,444.809,446.762,449.569,454.348,458.182,460.131,462.912,469.014,473.613,475.566,478.833,481.64,485.429,488.128,491.962,495.274,497.317" y="666.112" style="fill:#000000;font-family:MinionPro-Regular;font-size:9.0px;font-style:NORMAL;font-weight:normal;">where the two derivatives are obtained from Eq. (4) and estimated at the mean of the two states </text>
  <path d=" M 497.19500732421875 130.72000122070312 L 514.18701171875 130.72000122070312 L 514.18701171875 131.00799560546875 L 497.19500732421875 131.00799560546875 Z " style="fill:none;stroke:#000000;stroke-width:1.0;"/>
  <text x="502.667" y="666.112" svg_rhmargin="507.596" style="fill:#000000;font-family:EuclidSymbol;font-size:6.34px;font-style:NORMAL;font-weight:normal;">+</text>
  <text x="497.485,499.43,509.003" y="666.112" svg_rhmargin="510.948" style="fill:#000000;font-family:MinionPro-It;font-size:6.34px;font-style:ITALIC;font-weight:normal;">t t</text>
  <text x="503.821" y="675.616" svg_rhmargin="506.862" style="fill:#000000;font-family:MinionPro-Regular;font-size:6.34px;font-style:NORMAL;font-weight:normal;">2</text>
  <text svg_rhmargin="513.371" x="499.211,501.56100000000004,511.021,513.371" y="670.1469999999999" style="fill:#000000;font-family:MinionPro-Regular;font-size:4.9px;font-style:NORMAL;font-weight:normal;">1 2 </text>
  <text y="670.1469999999999" svg_rhmargin="556.692" x="516.437,518.858,523.79,525.743,530.234,533.464,538.225,542.059,545.407,547.36,550.059,554.649" style="fill:#000000;font-family:MinionPro-Regular;font-size:9.0px;font-style:NORMAL;font-weight:normal;">in order to </text>
  <text x="155.636,159.47,163.34,168.227,172.034,175.823,178.1,179.936,184.428,189.099,191.844,193.68,196.902,200.727,204.03,206.442,211.086,215.892,219.888,222.165,224.001,228.888,233.37,238.338,240.615,243.027,247.914,251.793,255.663,259.002,260.838,263.529,267.354,270.747" y="681.478" svg_rhmargin="278.118" style="fill:#000000;font-family:MinionPro-Regular;font-size:9.0px;font-style:NORMAL;font-weight:normal;">cancel out residual nonlinear term</text>
  <text x="278.128,280.936,283.744,285.078,287.886" y="678.42" svg_rhmargin="290.694" style="fill:#0000ff;font-family:MinionPro-Regular;font-size:5.85px;font-style:NORMAL;font-weight:normal;">27,50</text>
  <text x="290.693" y="681.48" svg_rhmargin="292.745" style="fill:#000000;font-family:MinionPro-Regular;font-size:9.0px;font-style:NORMAL;font-weight:normal;">.</text>
  <text x="167.636,171.848,174.26,181.631,184.088,186.391,190.261,193.564,195.778,199.252,201.304,203.14,205.939,210.709,214.534,216.37,219.169,223.975,226.387,231.31,233.146,235.837,239.662,243.055,250.426,252.262,256.096,259.966,264.889,266.725,271.378,275.203,277.039,280.864,285.112,289.72,292.942,296.767,300.025,303.4,307.27,312.022,313.858,317.782,321.085,322.921,326.872,328.708,331.966,336.745,344.116,345.952,350.434,353.098,354.934,358.687,363.466,367.336,372.187,376.327,380.152,383.455,385.291,389.935,394.714,398.539,400.375,403.066,407.656" y="692.28" svg_rhmargin="409.699" style="fill:#000000;font-family:MinionPro-Regular;font-size:9.0px;font-style:NORMAL;font-weight:normal;">Similarly, the thin term can be expressed as a sum of changes due to </text>
  <text x="408.664" y="692.4449999999999" svg_rhmargin="414.333" style="fill:#000000;font-family:MinionPro-It;font-size:8.93px;font-style:ITALIC;font-weight:normal;">C</text>
  <text x="414.712,418.742,422.201,423.931" y="694.749" svg_rhmargin="427.397" style="fill:#000000;font-family:MinionPro-Regular;font-size:6.34px;font-style:NORMAL;font-weight:normal;">Thin</text>
  <text x="427.384,429.436" y="692.28" svg_rhmargin="431.479" style="fill:#000000;font-family:MinionPro-Regular;font-size:9.0px;font-style:NORMAL;font-weight:normal;">, </text>
  <text x="431.275" y="692.717" svg_rhmargin="436.525" style="fill:#000000;font-family:MinionPro-It;font-size:8.93px;font-style:ITALIC;font-weight:normal;">Z</text>
  <text x="436.747" y="695.021" svg_rhmargin="440.568" style="fill:#000000;font-family:MinionPro-It;font-size:6.34px;font-style:ITALIC;font-weight:normal;">T</text>
  <text x="440.203,443.082,445.677,447.116" y="696.749" svg_rhmargin="449.794" style="fill:#000000;font-family:MinionPro-Regular;font-size:4.9px;font-style:NORMAL;font-weight:normal;">Thin</text>
  <text x="449.995,452.047,453.883,457.753,462.64,467.392" y="692.28" svg_rhmargin="469.435" style="fill:#000000;font-family:MinionPro-Regular;font-size:9.0px;font-style:NORMAL;font-weight:normal;">, and </text>
  <text x="468.945" y="692.4449999999999" svg_rhmargin="473.105" style="fill:#000000;font-family:EuclidSymbol-Italic;font-size:8.93px;font-style:ITALIC;font-weight:normal;">ε</text>
  <text x="472.977,477.007,480.466,482.196" y="694.749" svg_rhmargin="485.662" style="fill:#000000;font-family:MinionPro-Regular;font-size:6.34px;font-style:NORMAL;font-weight:normal;">Thin</text>
  <text x="485.649" y="692.28" svg_rhmargin="487.701" style="fill:#000000;font-family:MinionPro-Regular;font-size:9.0px;font-style:NORMAL;font-weight:normal;">:</text>
  <path d=" M 240.6580047607422 85.9729995727539 L 290.1940002441406 85.9729995727539 L 290.1940002441406 86.54899597167969 L 240.6580047607422 86.54899597167969 Z " style="fill:none;stroke:#000000;stroke-width:1.0;"/>
  <path d=" M 329.93798828125 85.9729995727539 L 379.4739990234375 85.9729995727539 L 379.4739990234375 86.54899597167969 L 329.93798828125 86.54899597167969 Z " style="fill:none;stroke:#000000;stroke-width:1.0;"/>
  <path d=" M 419.2179870605469 85.9729995727539 L 468.7539978027344 85.9729995727539 L 468.7539978027344 86.54899597167969 L 419.2179870605469 86.54899597167969 Z " style="fill:none;stroke:#000000;stroke-width:1.0;"/>
  <text x="476.818" y="715.754" svg_rhmargin="480.978" style="fill:#000000;font-family:EuclidSymbol-Italic;font-size:8.93px;font-style:ITALIC;font-weight:normal;">ε</text>
  <text svg_rhmargin="237.235" x="176.721,184.15800000000002,230.289,237.23499999999999" y="709.994" style="fill:#000000;font-family:EuclidSymbol;font-size:8.93px;font-style:NORMAL;font-weight:normal;">∆ = </text>
  <text svg_rhmargin="246.537" x="241.234,246.537" y="722.954" style="fill:#000000;font-family:EuclidSymbol;font-size:8.93px;font-style:NORMAL;font-weight:normal;">∂ </text>
  <text svg_rhmargin="258.633" x="253.33,258.63300000000004" y="715.758" style="fill:#000000;font-family:EuclidSymbol;font-size:8.93px;font-style:NORMAL;font-weight:normal;">∂ </text>
  <text svg_rhmargin="326.522" x="290.774,298.211,319.576,326.52200000000005" y="709.994" style="fill:#000000;font-family:EuclidSymbol;font-size:8.93px;font-style:NORMAL;font-weight:normal;">∆ + </text>
  <text svg_rhmargin="335.817" x="330.514,335.817" y="722.954" style="fill:#000000;font-family:EuclidSymbol;font-size:8.93px;font-style:NORMAL;font-weight:normal;">∂ </text>
  <text svg_rhmargin="347.913" x="342.61,347.913" y="715.758" style="fill:#000000;font-family:EuclidSymbol;font-size:8.93px;font-style:NORMAL;font-weight:normal;">∂ </text>
  <text svg_rhmargin="415.802" x="380.054,387.491,408.856,415.802" y="709.994" style="fill:#000000;font-family:EuclidSymbol;font-size:8.93px;font-style:NORMAL;font-weight:normal;">∆ + </text>
  <text svg_rhmargin="425.097" x="419.794,425.097" y="722.954" style="fill:#000000;font-family:EuclidSymbol;font-size:8.93px;font-style:NORMAL;font-weight:normal;">∂ </text>
  <text svg_rhmargin="441.952" x="433.042,438.229,441.952" y="715.758" style="fill:#000000;font-family:EuclidSymbol;font-size:8.93px;font-style:NORMAL;font-weight:normal;">∂ε </text>
  <text x="469.334,476.771,496.404" y="715.758" svg_rhmargin="503.35" style="fill:#000000;font-family:EuclidSymbol;font-size:8.93px;font-style:NORMAL;font-weight:normal;">∆ +</text>
  <text svg_rhmargin="264.186" x="258.517,264.186" y="715.758" style="fill:#000000;font-family:MinionPro-It;font-size:8.93px;font-style:ITALIC;font-weight:normal;">C </text>
  <text svg_rhmargin="303.934" x="298.265,303.93399999999997" y="722.954" style="fill:#000000;font-family:MinionPro-It;font-size:8.93px;font-style:ITALIC;font-weight:normal;">C </text>
  <text svg_rhmargin="353.047" x="347.797,353.047" y="715.758" style="fill:#000000;font-family:MinionPro-It;font-size:8.93px;font-style:ITALIC;font-weight:normal;">Z </text>
  <text x="387.545" y="715.758" svg_rhmargin="392.795" style="fill:#000000;font-family:MinionPro-It;font-size:8.93px;font-style:ITALIC;font-weight:normal;">Z</text>
  <text svg_rhmargin="214.342" x="184.219,189.111,197.753,203.798,209.271,214.34199999999998" y="709.994" style="fill:#000000;font-family:MinionPro-Regular;font-size:8.93px;font-style:NORMAL;font-weight:normal;">LWCRE </text>
  <text svg_rhmargin="455.092" x="246.418,251.31,259.953,265.997,271.47,276.54100000000005,335.698,340.59,349.233,355.277,360.75,365.821,424.969,429.861,438.504,444.548,450.021,455.09200000000004" y="715.754" style="fill:#000000;font-family:MinionPro-Regular;font-size:8.93px;font-style:NORMAL;font-weight:normal;">LWCRE LWCRE LWCRE </text>
  <text svg_rhmargin="520.042" x="506.194,512.818,518.006,520.0419999999999" y="725.546" style="fill:#000000;font-family:MinionPro-Regular;font-size:8.93px;font-style:NORMAL;font-weight:normal;">NL, </text>
  <text x="544.21,547.379,551.701" y="725.546" svg_rhmargin="554.79" style="fill:#000000;font-family:MinionPro-Regular;font-size:8.93px;font-style:NORMAL;font-weight:normal;">(7)</text>
  <text svg_rhmargin="357.087" x="353.266,357.08700000000005" y="718.061" style="fill:#000000;font-family:MinionPro-It;font-size:6.34px;font-style:ITALIC;font-weight:normal;">T </text>
  <text x="393.012" y="718.061" svg_rhmargin="396.833" style="fill:#000000;font-family:MinionPro-It;font-size:6.34px;font-style:ITALIC;font-weight:normal;">T</text>
  <text svg_rhmargin="227.427" x="214.742,218.772,222.231,223.961,227.42700000000002" y="712.301" style="fill:#000000;font-family:MinionPro-Regular;font-size:6.34px;font-style:NORMAL;font-weight:normal;">Thin </text>
  <text x="276.949,280.978,284.438,286.168" y="712.301" svg_rhmargin="289.634" style="fill:#000000;font-family:MinionPro-Regular;font-size:6.34px;font-style:NORMAL;font-weight:normal;">Thin</text>
  <text svg_rhmargin="277.253" x="264.568,268.598,272.057,273.787,277.253" y="718.061" style="fill:#000000;font-family:MinionPro-Regular;font-size:6.34px;font-style:NORMAL;font-weight:normal;">Thin </text>
  <text svg_rhmargin="316.999" x="304.314,308.344,311.803,313.533,316.999" y="712.301" style="fill:#000000;font-family:MinionPro-Regular;font-size:6.34px;font-style:NORMAL;font-weight:normal;">Thin </text>
  <text x="366.236,370.265,373.725,375.455,378.921,455.516,459.546,463.005,464.735" y="712.301" svg_rhmargin="468.201" style="fill:#000000;font-family:MinionPro-Regular;font-size:6.34px;font-style:NORMAL;font-weight:normal;">Thin Thin</text>
  <text svg_rhmargin="454.953" x="442.268,446.297,449.757,451.487,454.95300000000003" y="718.061" style="fill:#000000;font-family:MinionPro-Regular;font-size:6.34px;font-style:NORMAL;font-weight:normal;">Thin </text>
  <text x="480.86,484.89,488.349,490.079" y="718.061" svg_rhmargin="493.545" style="fill:#000000;font-family:MinionPro-Regular;font-size:6.34px;font-style:NORMAL;font-weight:normal;">Thin</text>
  <text svg_rhmargin="366.313" x="356.722,359.601,362.196,363.635,366.313" y="719.7860000000001" style="fill:#000000;font-family:MinionPro-Regular;font-size:4.9px;font-style:NORMAL;font-weight:normal;">Thin </text>
  <text x="396.466,399.345,401.94,403.379" y="719.7860000000001" svg_rhmargin="406.057" style="fill:#000000;font-family:MinionPro-Regular;font-size:4.9px;font-style:NORMAL;font-weight:normal;">Thin</text>
  <text svg_rhmargin="497.176" x="155.638,161.857,166.618,170.434,173.647,177.463,179.191,181.981,186.742,190.558,192.286,195.076,199.873,203.086,206.946,210.762,212.49,217.233,221.049,224.433,226.773,230.931,234.702,237.482,239.822,243.908,247.724,251.018,252.746,256.607,259.82,263.636,265.364,269.9,274.364,277.154,281.015,283.418,288.296,292.157,296.9,298.628,301.373,304.586,309.059,316.421,318.149,323.296,327.814,329.857,331.585,334.69,338.986,342.091,343.819,347.68,352.558,357.301,359.029,362.845,366.094,368.875,371.278,378.613,382.384,385.066,388.927,393.67,395.398,399.169,401.905,403.633,406.423,411.183,414.999,416.727,424.052,427.922,431.783,436.697,438.425,442.898,445.553,447.281,450.071,454.832,458.648,460.376,463.139,469.222,473.803,475.531,478.78,481.57,485.341,488.023,491.839,495.133,497.176" y="738.599" style="fill:#000000;font-family:MinionPro-Regular;font-size:9.0px;font-style:NORMAL;font-weight:normal;">where the three derivatives are obtained from Eq. (4) and estimated at the mean of the two states </text>
  <path d=" M 496.8529968261719 58.23400115966797 L 513.844970703125 58.23400115966797 L 513.844970703125 58.52199935913086 L 496.8529968261719 58.52199935913086 Z " style="fill:none;stroke:#000000;stroke-width:1.0;"/>
  <text x="502.325" y="738.599" svg_rhmargin="507.254" style="fill:#000000;font-family:EuclidSymbol;font-size:6.34px;font-style:NORMAL;font-weight:normal;">+</text>
  <text x="497.142,499.087,508.661" y="738.599" svg_rhmargin="510.606" style="fill:#000000;font-family:MinionPro-It;font-size:6.34px;font-style:ITALIC;font-weight:normal;">t t</text>
  <text x="503.478" y="748.103" svg_rhmargin="506.519" style="fill:#000000;font-family:MinionPro-Regular;font-size:6.34px;font-style:NORMAL;font-weight:normal;">2</text>
  <text svg_rhmargin="513.028" x="498.869,501.21900000000005,510.678,513.028" y="742.633" style="fill:#000000;font-family:MinionPro-Regular;font-size:4.9px;font-style:NORMAL;font-weight:normal;">1 2 </text>
  <text x="514.124,516.167,517.895,520.811,525.725,527.453,530.243,535.04,537.416,540.71,542.438,544.733,548.647,551.896,554.641" y="742.633" svg_rhmargin="556.684" style="fill:#000000;font-family:MinionPro-Regular;font-size:9.0px;font-style:NORMAL;font-weight:normal;">. In this last </text>
  <text x="155.636,159.506,164.015,168.821,172.6,175.39,177.802,182.284,187.207,189.259,191.095,195.046,196.882,201.769,206.251,211.174,214.378,216.655,219.067,223.953,227.832,231.702,235.041,236.877,240.099,243.924,247.227,249.639,254.283,259.089,263.084,265.361,267.197,269.888,273.713,277.106,284.477,286.313,289.535,293.36,300.704,304.574,306.986,311.836,315.139,316.975,321.448,326.119,328.864,330.7,333.085,336.388,338.224,343.111,346.936,351.21,353.487,355.899,360.156,362.532,367.041,369.318" y="753.9639999999999" svg_rhmargin="373.143" style="fill:#000000;font-family:MinionPro-Regular;font-size:9.0px;font-style:NORMAL;font-weight:normal;">equation, a non-linear residual term remains but is negligible</text>
  <text x="373.168,375.976" y="750.907" svg_rhmargin="378.784" style="fill:#0000ff;font-family:MinionPro-Regular;font-size:5.85px;font-style:NORMAL;font-weight:normal;">27</text>
  <text x="378.784" y="753.967" svg_rhmargin="380.836" style="fill:#000000;font-family:MinionPro-Regular;font-size:9.0px;font-style:NORMAL;font-weight:normal;">.</text>
  <rect style="stroke:blue;stroke-width:0.3;" x="155.638" y="64.138" height="229.32" width="396.0" title="5"/>
  <text x="155.638" y="64.138" class="image" id="image.5.1" width="396" height="229">image.5.1.156_552.64_293</text>
  <text x="155.638,160.552,163.207,167.662,172.657,176.221,180.154,181.909,186.409" y="312.001" svg_rhmargin="188.695" style="fill:#000000;font-family:MinionPro-Bold;font-size:9.0px;font-style:NORMAL;font-weight:bold;">Figure 3.</text>
  <text y="312.001" svg_rhmargin="196.309" x="193.195" style="fill:#000000;font-family:MinionPro-Regular;font-size:9.0px;font-style:NORMAL;font-weight:normal;">(</text>
  <text x="196.309" y="312.001" svg_rhmargin="200.503" style="fill:#000000;font-family:MinionPro-Bold;font-size:9.0px;font-style:NORMAL;font-weight:bold;">a</text>
  <text x="200.503,203.617,205.453,211.204,215.155,219.907,222.346,226.126,228.916,231.264,235.359,239.184,241.02,243.81,247.149,251.019,255.87,259.173,261.756,265.581,268.92,270.756,274.059,276.471,283.67,288.494,290.798,294.578,297.368,299.78,304.262,309.113,312.416,314.252,318.734,321.398,323.234,326.033,330.803,334.628,336.464,341.387,345.869,350.72,354.932,362.779,366.568,370.663,374.488,376.324,382.354,384.631,389.122,393.901,398.653,400.489,406.24,410.191,414.943,417.381,421.161,423.951,426.3,430.395,434.22,436.056,441.168,446.136,450.006,453.876,456.621,458.457,461.571,465.702,474.108,480.093,485.682,490.794,493.908,495.744,498.327,502.809,506.148,507.984,511.854,516.777" y="312.001" svg_rhmargin="518.82" style="fill:#000000;font-family:MinionPro-Regular;font-size:9.0px;font-style:NORMAL;font-weight:normal;">) Radiative transfer simulations of the LongWave Cloud Radiative Effect (LWCRE) for an </text>
  <text x="155.638,159.418,162.208,169.543,174.133,177.391,182.044,186.814,190.639,194.031,196.443,200.25,202.086,205.389,207.801,212.652,216.926,219.203,223.028,224.864,228.671,233.198,235.367,240.146,247.517,252.44,254.276,258.083,262.564,267.316,270.115,273.985,276.397,281.32,283.732,288.583,292.795,294.631,298.501,303.424,305.26,309.751,314.512,318.463,322.972,327.751,331.576,333.412,337.165,339.442,343.933,348.712,353.464,355.3,362.635,367.081,371.275,373.687,378.538,382.75,384.586,386.998,391.921,393.757,397.753,399.922,402.712,405.016,407.671,412.45,417.202,421.027,422.863,425.977,429.856,433.807,437.56,442.366,444.202,448.954,453.445,456.19,458.026,461.248,465.073,469.681,472.903,476.728,480.102,483.927,488.679,491.424,494.727,496.563,499.362,504.132,507.957,509.793,513.015,516.84,520.098,524.922,527.091,529.836,531.672,534.255,538.737,542.076" y="322.0" svg_rhmargin="544.119" style="fill:#000000;font-family:MinionPro-Regular;font-size:9.0px;font-style:NORMAL;font-weight:normal;">atmospheric single column containing an opaque cloud moving in altitude (each dot represents the result for </text>
  <text x="155.638,160.12,165.007,168.832,170.668,174.475,178.957,186.156,190.773,195.445,198.243,202.023,204.813,207.225,211.707,216.63,219.744,221.796,223.632,233.235,237.06,238.896,242.703,247.23,249.507,253.988,257.327,259.163,263.645,266.309,268.145,272.897,277.388,280.133,283.436,285.272,288.494,292.319,296.926,300.149,303.974,307.348,311.173,315.925,318.67,321.973,323.809,326.608,331.378,335.203,337.039,341.035,343.204,345.994,348.298,350.953,355.732,360.484,364.309,366.145,372.372,377.143,380.968,384.189,388.014,389.85,392.649,397.419,401.244,403.08,405.357,407.769,412.548,416.418,419.757,421.593,425.418,430.305,435.03,438.333,440.169,442.887,447.711,450.032,452.247,456.378,458.214,461.994,464.649,467.34,471.165,475.917,480.723,484.503,487.194,491.064,495.816,497.652,500.064,504.816,507.507,512.097,513.933,516.732,521.502,525.327,527.163,531.654,536.415,540.366,544.875,549.654,553.479" y="331.999" svg_rhmargin="555.522" style="fill:#000000;font-family:MinionPro-Regular;font-size:9.0px;font-style:NORMAL;font-weight:normal;">one computation). The color of dots represents the altitude where the lidar ends fully attenuated into the opaque </text>
  <text x="155.638,159.391,161.668,166.159,170.938,175.69" y="341.998" svg_rhmargin="177.733" style="fill:#000000;font-family:MinionPro-Regular;font-size:9.0px;font-style:NORMAL;font-weight:normal;">cloud </text>
  <path d="M159.13 405.334 L552.641 405.334 M156.138 405.334 L156.138 405.334 M554.138 405.334 L554.138 405.334 " style="fill:none;stroke:#839097;stroke-width:1.0;"/>
  <text x="177.529" y="342.393" svg_rhmargin="182.779" style="fill:#000000;font-family:MinionPro-It;font-size:8.93px;font-style:ITALIC;font-weight:normal;">Z</text>
  <text x="183.288,187.895,191.354,194.237,197.4,200.854" y="344.697" svg_rhmargin="203.547" style="fill:#000000;font-family:MinionPro-Regular;font-size:6.34px;font-style:NORMAL;font-weight:normal;">Opaque</text>
  <text y="342.001" svg_rhmargin="510.632" x="205.572,208.686,213.007,215.059,219.379,220.503,225.003,232.374,234.21,237.315,242.094,245.964,249.267,253.731,256.836,258.672,263.352,265.188,269.508,273.828,275.88,280.2,281.335,285.835,293.206,295.042,298.147,302.61,306.003,308.415,312.69,317.325,320.07,323.175,326.289,328.125,331.995,336.882,341.634,343.47,346.269,351.039,354.864,356.7,360.003,362.415,366.195,370.02,371.856,376.337,379.001,380.837,385.589,390.08,392.825,396.128,397.964,400.763,405.533,409.358,411.194,415.334,419.203,423.685,431.02,434.845,437.635,441.028,443.44,447.274,451.269,453.546,455.382,458.181,462.987,465.399,469.152,473.652,478.539,482.364,485.621,488.924,490.76,493.514,496.736,501.218,508.589" style="fill:#000000;font-family:MinionPro-Regular;font-size:9.0px;font-style:NORMAL;font-weight:normal;">(0.5 km [dark] – 14.5 km [bright]) and the size of dots the geometrical thickness from </text>
  <text x="510.454" y="342.393" svg_rhmargin="515.704" style="fill:#000000;font-family:MinionPro-It;font-size:8.93px;font-style:ITALIC;font-weight:normal;">Z</text>
  <text x="516.214,520.821,524.28,527.163,530.326,533.78" y="344.697" svg_rhmargin="536.473" style="fill:#000000;font-family:MinionPro-Regular;font-size:6.34px;font-style:NORMAL;font-weight:normal;">Opaque</text>
  <text y="342.001" svg_rhmargin="547.822" x="538.498,541.189,545.779" style="fill:#000000;font-family:MinionPro-Regular;font-size:9.0px;font-style:NORMAL;font-weight:normal;">to </text>
  <text x="155.638,159.391,161.668,166.159,170.938,175.69,177.526,180.217,184.708,189.424" y="352.0" svg_rhmargin="191.467" style="fill:#000000;font-family:MinionPro-Regular;font-size:9.0px;font-style:NORMAL;font-weight:normal;">cloud top </text>
  <text x="191.265" y="352.393" svg_rhmargin="196.515" style="fill:#000000;font-family:MinionPro-It;font-size:8.93px;font-style:ITALIC;font-weight:normal;">Z</text>
  <text x="197.025,201.055,204.225" y="354.697" svg_rhmargin="207.545" style="fill:#000000;font-family:MinionPro-Regular;font-size:6.34px;font-style:NORMAL;font-weight:normal;">Top</text>
  <text y="352.001" svg_rhmargin="550.524" x="209.517,212.631,216.951,218.076,222.576,229.947,231.783,234.888,238.191,245.534,249.53,251.852,254.129,257.234,259.07,263.75,265.586,269.906,271.041,275.541,282.912,284.748,287.853,290.156,294.026,297.293,301.433,305.258,308.363,311.477,313.529,315.365,324.968,328.793,332.015,335.84,337.676,340.061,343.364,345.2,349.151,350.987,354.74,357.017,360.895,364.765,368.104,369.94,372.217,374.629,379.516,383.395,387.265,390.604,392.44,395.662,399.451,401.754,405.534,408.324,410.736,415.218,420.069,423.336,428.142,430.446,435.162,436.998,441.651,445.476,448.247,454.34,458.21,462.035,466.958,468.794,472.925,481.331,487.316,492.905,498.017,499.853,503.724,508.611,513.363,515.199,517.998,522.768,526.593,528.429,532.182,534.459,538.95,543.729,548.481" style="fill:#000000;font-family:MinionPro-Regular;font-size:9.0px;font-style:NORMAL;font-weight:normal;">(1 km [small] – 5 km [large]). There is a clear linear relationship between LWCRE and the cloud </text>
  <text svg_rhmargin="184.947" x="155.634,159.63,161.799,164.589,166.893,169.548,174.327,179.079,182.904,184.947" y="362.619" style="fill:#000000;font-family:MinionPro-Regular;font-size:9.0px;font-style:NORMAL;font-weight:normal;">altitude </text>
  <text x="211.818,218.764,253.869" y="362.619" svg_rhmargin="260.815" style="fill:#000000;font-family:EuclidSymbol;font-size:8.93px;font-style:NORMAL;font-weight:normal;">= +</text>
  <text x="221.61,225.23700000000002,279.792" y="364.635" svg_rhmargin="283.419" style="fill:#000000;font-family:MinionPro-Regular;font-size:14.98px;font-style:NORMAL;font-weight:normal;">( )</text>
  <text svg_rhmargin="268.911" x="184.746,189.996,225.065,230.315,263.661,268.911" y="362.619" style="fill:#000000;font-family:MinionPro-It;font-size:8.93px;font-style:ITALIC;font-weight:normal;">Z Z Z </text>
  <text x="283.534,286.704" y="362.619" svg_rhmargin="290.989" style="fill:#000000;font-family:MinionPro-Regular;font-size:8.93px;font-style:NORMAL;font-weight:normal;">/2</text>
  <text svg_rhmargin="194.039" x="190.218,194.039" y="364.923" style="fill:#000000;font-family:MinionPro-It;font-size:6.34px;font-style:ITALIC;font-weight:normal;">T </text>
  <text x="230.825,235.432,238.891,241.774,244.942,248.401,251.09400000000002,269.424,273.454,276.622" y="364.923" svg_rhmargin="279.942" style="fill:#000000;font-family:MinionPro-Regular;font-size:6.34px;font-style:NORMAL;font-weight:normal;">Opaque Top</text>
  <text svg_rhmargin="209.0" x="193.386,197.131,199.721,201.739,204.329,206.919,209.0" y="362.001" style="fill:#000000;font-family:MinionPro-Regular;font-size:4.9px;font-style:NORMAL;font-weight:normal;">Opaque </text>
  <text x="290.73,292.782,294.618,300.234,304.059,307.316,312.14,314.309,317.054,320.357,322.193,325.46,330.23,334.676,340.868,345.791,347.627,352.396,356.221,359.443,363.268,365.104,369.856,373.231,377.056,378.892,381.691,386.461,390.286,392.122,396.181,400.06,403.93,407.269,409.105,413.425,417.745,422.065,426.385,428.221,435.556,439.434,443.305,448.228,450.064,452.863,457.633,461.458,464.851,472.186,476.857,481.546,485.704,490.6,494.47,501.841,504.253,508.06,509.896,513.676,516.466,523.801,528.391,531.649,536.302,541.072,544.897,548.29,550.702,554.509" y="362.001" svg_rhmargin="556.552" style="fill:#000000;font-family:MinionPro-Regular;font-size:9.0px;font-style:NORMAL;font-weight:normal;">. Results shown here use the year 2008 mean thermodynamic atmospheric </text>
  <text x="155.64,159.807,163.677,167.07,169.509,173.388,177.897,180.174,183.999,187.302,189.138,193.584,197.679,201.504,204.843,206.679,209.478,214.248,218.073,219.909,224.579,228.386,232.265,236.135,240.986,244.289,246.125,248.879,252.101,256.583,263.954,265.79,270.902,276.527,282.35,285.554,288.623,290.459,293.681,297.56,301.43,306.326,310.322,312.536,316.667,319.97,322.355,325.658,327.71,329.546" y="373.665" svg_rhmargin="332.66" style="fill:#000000;font-family:MinionPro-Regular;font-size:9.0px;font-style:NORMAL;font-weight:normal;">variables over the oceans from ERA-I reanalysis. (</text>
  <text x="332.66" y="373.665" svg_rhmargin="337.466" style="fill:#000000;font-family:MinionPro-Bold;font-size:9.0px;font-style:NORMAL;font-weight:bold;">b</text>
  <text x="337.466,340.58,342.416,346.547,354.953,360.938,366.527,371.639,373.475,378.227,382.052,385.444,387.794,391.889,395.758,400.51,402.346,405.1,408.322,412.804,420.175,422.011,427.996,433.108,438.697,443.809,448.075,449.911,453.25,457.201,461.953,464.365,468.847,476.182,480.007,482.698,486.523,489.862,491.698,496.243,500.815,504.19,508.015,511.615,515.782,519.562,522.352,524.764,529.246,534.097,537.4,539.236,543.16,546.463,548.299,552.25" y="373.665" svg_rhmargin="554.293" style="fill:#000000;font-family:MinionPro-Regular;font-size:9.0px;font-style:NORMAL;font-weight:normal;">) LWCRE derived from CERES radiometer observations as a </text>
  <text x="155.64,158.358,163.137,168.024,171.894,174.683,177.095,181.577,186.5,188.336,192.818,195.482" y="383.664" svg_rhmargin="197.525" style="fill:#000000;font-family:MinionPro-Regular;font-size:9.0px;font-style:NORMAL;font-weight:normal;">function of </text>
  <text x="197.321" y="384.286" svg_rhmargin="202.571" style="fill:#000000;font-family:MinionPro-It;font-size:8.93px;font-style:ITALIC;font-weight:normal;">Z</text>
  <text x="202.793" y="386.59" svg_rhmargin="206.614" style="fill:#000000;font-family:MinionPro-It;font-size:6.34px;font-style:ITALIC;font-weight:normal;">T</text>
  <text x="205.961,209.707,212.297,214.314,216.904,219.494" y="388.318" svg_rhmargin="221.575" style="fill:#000000;font-family:MinionPro-Regular;font-size:4.9px;font-style:NORMAL;font-weight:normal;">Opaque</text>
  <text y="383.667" svg_rhmargin="493.211" x="223.637,230.973,234.852,238.776,242.034,246.813,250.034,253.904,258.656,260.492,264.92,269.051,270.887,274.694,279.221,281.543,283.82,288.491,292.324,296.104,298.795,302.665,307.417,309.253,315.238,321.457,326.299,329.368,334.435,338.701,345.424,347.26,350.518,355.279,359.23,363.037,366.862,370.066,372.343,374.755,379.533,383.403,386.742,388.578,393.024,397.119,400.944,404.283,406.119,410.79,414.597,418.475,422.345,427.196,430.499,432.335,436.781,440.876,444.701,448.04,449.876,454.196,458.516,462.836,467.156,471.836,476.156,480.476,484.796,489.116,491.168" style="fill:#000000;font-family:MinionPro-Regular;font-size:9.0px;font-style:NORMAL;font-weight:normal;">measured by collocated CALIPSO space-lidar over oceans over 2008–2010. </text>
  <path d=" M 511.4620056152344 417.82000732421875 L 524.4219970703125 417.82000732421875 L 524.4219970703125 418.1080017089844 L 511.4620056152344 418.1080017089844 Z " style="fill:none;stroke:#839097;stroke-width:1.0;"/>
  <text svg_rhmargin="508.044" x="492.742,498.25100000000003,501.098,508.04400000000004" y="379.587" style="fill:#000000;font-family:EuclidSymbol;font-size:8.93px;font-style:NORMAL;font-weight:normal;">Γ = </text>
  <text x="511.462" y="379.587" svg_rhmargin="516.391" style="fill:#000000;font-family:EuclidSymbol;font-size:6.34px;font-style:NORMAL;font-weight:normal;">−</text>
  <text x="516.359,519.527" y="379.587" svg_rhmargin="523.348" style="fill:#000000;font-family:MinionPro-It;font-size:6.34px;font-style:ITALIC;font-weight:normal;">dT</text>
  <text svg_rhmargin="520.446" x="514.63,517.798,520.446" y="383.667" style="fill:#000000;font-family:MinionPro-It;font-size:6.34px;font-style:ITALIC;font-weight:normal;">dz </text>
  <text y="383.667" svg_rhmargin="547.506" x="526.546,528.931,532.234,534.07,536.869,541.638,545.463" style="fill:#000000;font-family:MinionPro-Regular;font-size:9.0px;font-style:NORMAL;font-weight:normal;">is the </text>
  <text x="155.638,159.508,164.431,169.183,173.989,177.985,180.262,182.098,186.373,188.65,193.195,197.812,201.808,204.085,205.921,213.255,217.134,221.005,225.928,227.764,230.455,234.28,241.48,246.277,250.102,253.441,257.22,259.875,264.654,267.876,271.701,273.537,275.841,279.621,284.337,287.712,291.537,293.373,296.712,300.492,303.183,307.008,308.844,311.256,316.179,318.015,320.814,325.584,329.409,331.245,334.035,337.257,341.748,346.545,351.135,354.393,359.046,363.816,367.641,370.863,374.688,376.524,380.97,385.065,388.89,392.229,394.065,398.736,402.543,406.422,410.292,415.215,417.051,419.804,423.026,427.508,434.879,436.715,441.827,447.452,453.275,456.479,459.548,461.384,464.606,468.484,472.355,477.25,481.246,483.46,487.591,490.894,493.279,496.582" y="395.331" svg_rhmargin="498.634" style="fill:#000000;font-family:MinionPro-Regular;font-size:9.0px;font-style:NORMAL;font-weight:normal;">annual global mean temperature lapse rate in the troposphere over ocean from ERA-I reanalysis.</text>
 </g>
</svg>
