<?xml version="1.0" encoding="UTF-8"?>
<svg height="767.134" width="4159.472" xmlns="http://www.w3.org/2000/svg">
 <g id="page" xmlns:svgx="http://www.xml-cml.org/schema/svgx">
  <g begin="text">
   <text y="587.508" x="43.597,47.042,50.979,56.1,59.545,62.005,64.864,67.325,71.659,74.12,76.978,81.313,84.56,86.6412,89.405,95.216,100.241,102.702,106.1076,108.963,111.424,116.544,121.466,123.927,127.864,132.0,134.858,138.796,142.20159999999998,145.076,147.935,152.96,157.096,159.934,162.708,166.645,171.567,175.012,178.457,182.394,187.515,190.35299999999998,193.208,196.654,201.386,205.323,207.784,212.516,216.453,220.391,225.123,230.243,234.976,242.661,245.122,249.0952,251.828,255.766,260.498,265.618,270.54,273.001,275.859,278.32,283.052,288.172" svgx:width="0.36,0.42,0.54,0.36,0.26,0.3,0.26,0.46,0.26,0.3,0.46,0.34,0.22,0.55,0.61,0.53,0.26,0.36,0.55,0.26,0.54,0.52,0.26,0.42,0.44,0.3,0.42,0.36,0.55,0.3,0.53,0.44,0.3,0.55,0.42,0.52,0.36,0.36,0.42,0.54,0.3,0.55,0.36,0.5,0.42,0.26,0.5,0.42,0.42,0.5,0.54,0.5,0.81,0.26,0.42,0.55,0.42,0.5,0.54,0.52,0.26,0.3,0.26,0.5,0.54,0.36" style="fill:rgb(0,0,0);font-family:AdvOT1ef757c0;font-size:9.46px;stroke:none;">sensitivity). This indicates that current socioeconomic conditions</text>
   <text y="597.996" x="43.597,47.733,52.853,57.772200000000005,61.625,64.086,69.206,71.96,75.405,79.541,82.987,85.845,89.29,94.212,98.149,101.007,105.929,109.374,113.3472,117.24,121.177,125.909,131.03,134.475,137.333,140.778,144.914,147.375,152.4834,156.414,159.272,164.298,168.2712,172.118,176.254,180.986,183.447,185.813,188.274,191.132,195.4836,199.33,202.188,206.91799999999998,210.782,214.72,219.452,224.373,228.34619999999998,232.155,238.563,241.024,243.882,248.8958,252.791,255.545,260.467,263.325,268.247,271.692,275.6652,279.55,283.488,285.854,288.314" svgx:width="0.44,0.54,0.52,0.55,0.26,0.54,0.29,0.36,0.44,0.36,0.3,0.36,0.52,0.42,0.3,0.52,0.36,0.42,0.55,0.42,0.5,0.54,0.36,0.3,0.36,0.44,0.26,0.54,0.55,0.3,0.53,0.42,0.55,0.44,0.5,0.26,0.25,0.26,0.3,0.46,0.55,0.3,0.5,0.55,0.42,0.5,0.52,0.42,0.55,0.68,0.26,0.3,0.53,0.55,0.29,0.52,0.3,0.52,0.36,0.42,0.55,0.42,0.25,0.26,0.35" style="fill:rgb(0,0,0);font-family:AdvOT1ef757c0;font-size:9.46px;stroke:none;">and infrastructure constrain the ability to cope with future cli-</text>
   <text y="608.428" x="43.597,51.282,55.418,58.276,60.737,64.7102,67.804,71.742,76.171,81.093,85.825,89.27,94.192,97.637,101.574,105.019" svgx:width="0.81,0.44,0.3,0.26,0.42,0.55,0.42,0.47,0.52,0.5,0.36,0.52,0.36,0.42,0.36,0.22" style="fill:rgb(0,0,0);font-family:AdvOT1ef757c0;font-size:9.46px;stroke:none;">matic exposures.</text>
   <text y="641.31" x="43.597,50.194,52.654,56.989,61.22,66.246,70.58,74.915,77.376,82.298" svgx:width="0.7,0.26,0.46,0.45,0.53,0.46,0.46,0.26,0.52,0.53" style="fill:rgb(0,0,0);font-family:AdvOTcb88df00;font-size:9.46px;stroke:none;">Discussion</text>
   <text y="651.798" x="43.597,50.099,52.56,55.9656,59.924,64.06,69.181,74.1002,78.009,85.694,89.83,93.276,95.736,100.857,104.8302,108.736,111.594,115.039,119.175,124.296,127.741,132.662,137.395,140.84,143.698,147.834,150.693,153.153,157.886,162.99439999999998,166.959,170.404,174.739,178.184,181.043,184.98,192.665,196.07059999999998,200.067,204.989,207.355,211.491,215.8426,219.74,222.2,227.321,231.656,235.792,238.158,243.079,247.215,251.948,254.314,258.2872,262.203,265.648,270.38,272.746,276.683,280.0886,284.086,286.546" svgx:width="0.69,0.26,0.36,0.55,0.44,0.54,0.52,0.55,0.81,0.44,0.36,0.26,0.54,0.42,0.55,0.3,0.36,0.44,0.54,0.36,0.52,0.5,0.36,0.3,0.44,0.3,0.26,0.5,0.54,0.55,0.36,0.46,0.36,0.3,0.42,0.81,0.36,0.55,0.52,0.25,0.44,0.46,0.55,0.26,0.54,0.46,0.44,0.25,0.52,0.44,0.5,0.25,0.42,0.55,0.36,0.5,0.25,0.42,0.36,0.55,0.26,0.54" style="fill:rgb(0,0,0);font-family:AdvOT1ef757c0;font-size:9.46px;stroke:none;">Air and marine transportation systems play invaluable roles in</text>
   <text y="662.23" x="43.597,46.455,51.481,55.4542,60.548,65.574,69.511,73.647,76.013,78.871,83.897,85.9782,91.049,97.456,101.393,103.759,106.126,110.858,114.795,117.256,122.376,126.711,128.7922,133.908,138.044,143.164,148.08319999999998,153.24,157.178,161.115,165.847,170.968,175.7,183.385,185.846,189.8192,194.909,199.244,201.705,204.563,208.699,211.065,213.526,216.384,220.73559999999998,225.863,230.596,233.3394,238.449,241.308,246.333,250.3062,255.4,261.609,265.745,270.865,275.001,279.923,282.384,286.52" svgx:width="0.3,0.53,0.42,0.55,0.53,0.42,0.44,0.25,0.3,0.53,0.22,0.55,0.68,0.42,0.25,0.25,0.5,0.42,0.26,0.54,0.46,0.22,0.55,0.44,0.54,0.52,0.55,0.42,0.42,0.5,0.54,0.5,0.81,0.26,0.42,0.55,0.46,0.26,0.3,0.44,0.25,0.26,0.3,0.46,0.55,0.5,0.29,0.55,0.3,0.53,0.42,0.55,0.66,0.44,0.54,0.44,0.52,0.26,0.44,0.54" style="fill:rgb(0,0,0);font-family:AdvOT1ef757c0;font-size:9.46px;stroke:none;">the health, wellbeing, and economic vitality of the Canadian</text>
   <text y="672.717" x="43.597,50.099,53.544,57.481,60.34,62.8" svgx:width="0.69,0.36,0.42,0.3,0.26,0.42" style="fill:rgb(0,0,0);font-family:AdvOT1ef757c0;font-size:9.46px;stroke:none;">Arctic</text>
   <text y="669.827" x="66.728,70.354" svgx:width="0.48,0.48" style="fill:rgb(0,0,255);font-family:AdvOT1ef757c0;font-size:7.57px;stroke:none;">25</text>
   <text y="669.827" x="74.041" svgx:width="0.51" style="fill:rgb(0,0,0);font-family:AdvOT1ef757c0;font-size:7.57px;stroke:none;">–</text>
   <text y="669.827" x="77.896,81.523" svgx:width="0.48,0.48" style="fill:rgb(0,0,255);font-family:AdvOT1ef757c0;font-size:7.57px;stroke:none;">28</text>
   <text y="672.718" x="85.153,87.2342,91.275,97.087,102.112,106.05,109.495,113.46820000000001,117.468,120.326,123.771,127.907,133.027,136.473,141.394,146.126,149.572,152.43,156.566,159.424,161.885,166.617,171.72539999999998,175.804,179.249,183.584,187.029,189.887,193.824,201.51,204.91559999999998,209.025,213.161,216.607,220.5802,224.559,228.893,233.815,236.181,241.302,245.239,248.684,252.82,257.552,259.918,263.8912,267.928,270.787,275.517,279.55,283.487,285.853,288.314" svgx:width="0.22,0.55,0.61,0.53,0.42,0.36,0.42,0.55,0.3,0.36,0.44,0.54,0.36,0.52,0.5,0.36,0.3,0.44,0.3,0.26,0.5,0.54,0.55,0.36,0.46,0.36,0.3,0.42,0.81,0.36,0.55,0.44,0.36,0.42,0.55,0.46,0.52,0.25,0.54,0.42,0.36,0.44,0.5,0.25,0.42,0.55,0.3,0.5,0.55,0.42,0.25,0.26,0.35" style="fill:rgb(0,0,0);font-family:AdvOT1ef757c0;font-size:9.46px;stroke:none;">. These transportation systems are vulnerable to cli-</text>
   <text y="683.15" x="43.596,51.282,55.418,58.276,62.2492,65.933,69.87,74.896,79.032,84.152,88.487,92.4602,96.15,101.071,105.993,109.9662,113.611,116.469,121.199,124.949,129.871,133.808,137.253,140.699,143.159,146.604,149.463,153.4,158.52,161.358,165.088,167.549,172.669,175.423,178.868,183.004,186.449,189.308,192.753,197.674,201.612,204.47,209.392,212.837,216.81019999999998,220.533,222.994,228.115,232.052,236.879,241.8,244.261,247.119,249.58,253.517,256.9226,260.729,265.461,269.398,272.256,278.664,282.601,286.539" svgx:width="0.81,0.44,0.3,0.42,0.55,0.42,0.53,0.44,0.54,0.46,0.42,0.55,0.52,0.52,0.42,0.55,0.3,0.5,0.55,0.52,0.42,0.36,0.36,0.26,0.36,0.3,0.42,0.54,0.3,0.55,0.26,0.54,0.29,0.36,0.44,0.36,0.3,0.36,0.52,0.42,0.3,0.52,0.36,0.42,0.55,0.26,0.54,0.42,0.51,0.52,0.26,0.3,0.26,0.42,0.36,0.55,0.5,0.42,0.3,0.68,0.42,0.42,0.54" style="fill:rgb(0,0,0);font-family:AdvOT1ef757c0;font-size:9.46px;stroke:none;">mate change due to persistent infrastructure inequities between</text>
   <text y="693.638" x="43.596,46.455,51.48,55.453199999999995,59.471,65.679,69.815,74.936,79.072,83.993,86.454,90.59,95.6984,99.778,106.773,111.505,114.95,117.808,122.82180000000001,126.877,131.013,136.134,141.05319999999998,145.133,148.578,153.31,158.232,161.09,166.116,170.053,173.498,178.60639999999998,182.663,188.871,193.007,198.128,202.264,207.185" svgx:width="0.3,0.53,0.42,0.55,0.66,0.44,0.54,0.44,0.52,0.26,0.44,0.54,0.55,0.74,0.5,0.36,0.3,0.53,0.55,0.44,0.54,0.52,0.55,0.36,0.5,0.52,0.3,0.53,0.42,0.36,0.54,0.55,0.66,0.44,0.54,0.44,0.52,0.44" style="fill:rgb(0,0,0);font-family:AdvOT1ef757c0;font-size:9.46px;stroke:none;">the Canadian North and southern Canada</text>
   <text y="690.746" x="211.351" svgx:width="0.48" style="fill:rgb(0,0,255);font-family:AdvOT1ef757c0;font-size:7.57px;stroke:none;">9</text>
   <text y="693.638" x="214.98,217.06119999999999,221.102,225.039,229.772,234.892,238.337,241.195,244.641,248.777,251.237,256.358,260.295,265.2142,269.29,273.228,280.913,284.85,288.295" svgx:width="0.22,0.55,0.42,0.5,0.54,0.36,0.3,0.36,0.44,0.26,0.54,0.42,0.52,0.55,0.42,0.81,0.42,0.36,0.35" style="fill:rgb(0,0,0);font-family:AdvOT1ef757c0;font-size:9.46px;stroke:none;">, constrained emer-</text>
   <text y="704.069" x="43.596,47.931,51.868,56.989,60.926,65.2776,69.051,72.497,76.434,79.879,84.801,89.533,94.653,98.098,102.0712,105.845,109.782,113.918,118.84,122.976,126.913,129.374,132.232,134.693,138.63" svgx:width="0.46,0.42,0.54,0.42,0.46,0.55,0.36,0.42,0.36,0.52,0.5,0.54,0.36,0.42,0.55,0.42,0.44,0.52,0.44,0.42,0.26,0.3,0.26,0.42,0.36" style="fill:rgb(0,0,0);font-family:AdvOT1ef757c0;font-size:9.46px;stroke:none;">gency response capacities</text>
   <text y="701.178" x="142.072,145.699" svgx:width="0.48,0.48" style="fill:rgb(0,0,255);font-family:AdvOT1ef757c0;font-size:7.57px;stroke:none;">29</text>
   <text y="704.069" x="149.329,151.4102,155.226,159.362,164.482,169.4012,173.14,175.601,180.721,184.659,188.104,192.041,196.177,199.622,202.083,207.203,211.5546,215.376,220.108,222.569,227.301,232.223,237.249,241.583,245.028,247.489,251.427,255.563,257.928,261.694,265.631,270.657,274.793,279.913,284.248,288.185" svgx:width="0.22,0.55,0.44,0.54,0.52,0.55,0.26,0.54,0.42,0.36,0.42,0.44,0.36,0.26,0.54,0.46,0.55,0.5,0.26,0.5,0.52,0.53,0.46,0.36,0.26,0.42,0.44,0.25,0.55,0.42,0.53,0.44,0.54,0.46,0.42,0.36" style="fill:rgb(0,0,0);font-family:AdvOT1ef757c0;font-size:9.46px;stroke:none;">, and increasing biophysical changes</text>
   <text y="714.558" x="43.597,48.519,51.964,54.425,58.76,62.697,67.8054,71.263,75.995,80.34660000000001,83.792,87.73,90.096,92.557,100.242,104.378,107.236,111.20920000000001,114.633,118.57,123.596,127.732,132.852,137.187,141.124,143.2052,146.664,151.983,156.715,159.574,163.511,168.631,171.49,173.95,178.086,180.45100000000002,183.911,186.372,194.057,198.978,203.115,207.052,209.91,213.3156,216.849,220.985,224.43,228.4032,231.815,235.752,240.485,245.605,249.542,253.479,256.925,262.045,264.506,269.626,273.9776,277.452,281.588,286.709" svgx:width="0.52,0.36,0.26,0.46,0.42,0.54,0.55,0.5,0.46,0.55,0.42,0.25,0.26,0.81,0.44,0.3,0.42,0.55,0.42,0.53,0.44,0.54,0.46,0.42,0.22,0.55,0.56,0.5,0.3,0.42,0.54,0.3,0.26,0.44,0.25,0.55,0.26,0.81,0.52,0.44,0.42,0.3,0.36,0.55,0.44,0.36,0.42,0.55,0.42,0.5,0.54,0.42,0.42,0.36,0.54,0.26,0.54,0.46,0.55,0.44,0.54,0.52" style="fill:rgb(0,0,0);font-family:AdvOT1ef757c0;font-size:9.46px;stroke:none;">driven by climate change. Potential impacts are concerning and</text>
   <text y="724.99" x="43.597,48.519,53.639,58.561,62.498,65.943,70.865,73.326,78.4344,82.828,85.686,90.712,94.68520000000001,98.985,104.105,108.043,111.98,116.89920000000001,121.266,124.02,128.752,132.1576,136.516,140.453,145.185,150.306,153.164,155.625,160.745,165.667,169.604,174.5232,178.922,183.058,188.178,193.0972,197.46,201.398,206.518,211.544,215.68,220.8,224.737,228.675,233.5942,237.939,240.399,245.52,249.854,253.792,257.237,260.095,267.78,271.718,276.838,279.67600000000004,284.086,286.547" svgx:width="0.52,0.54,0.52,0.42,0.36,0.52,0.26,0.54,0.55,0.3,0.53,0.42,0.55,0.54,0.42,0.42,0.52,0.55,0.29,0.5,0.36,0.55,0.42,0.5,0.54,0.3,0.26,0.54,0.52,0.42,0.52,0.55,0.44,0.54,0.52,0.55,0.42,0.54,0.53,0.44,0.54,0.42,0.42,0.52,0.55,0.26,0.54,0.46,0.42,0.36,0.3,0.81,0.42,0.54,0.3,0.55,0.26,0.54" style="fill:rgb(0,0,0);font-family:AdvOT1ef757c0;font-size:9.46px;stroke:none;">underpin the need for continued and enhanced investment in</text>
   <text y="735.477" x="43.597,47.733,52.655,56.791,61.712,64.571,68.707,71.565,74.026,78.758,83.879" svgx:width="0.44,0.52,0.44,0.52,0.3,0.44,0.3,0.26,0.5,0.54,0.22" style="fill:rgb(0,0,0);font-family:AdvOT1ef757c0;font-size:9.46px;stroke:none;">adaptation.</text>
   <text y="587.509" x="313.059,318.87,323.896,328.628,333.55,337.885,342.8988,347.982,352.903,356.84,361.175,365.113,367.479,372.211,377.133,381.07,385.9892,391.068,393.529,398.6374,403.711,407.8734,412.952,419.161,423.297,428.417,432.553,437.475,439.936,444.072,449.1804,454.281,460.784,464.229,468.166,471.024,473.485,477.45820000000003,482.457,486.395,491.127,496.247,499.106,503.043,507.472,510.331,512.4122,517.494,523.996,530.205,536.413,543.01,546.181,548.221" svgx:width="0.61,0.53,0.5,0.52,0.46,0.53,0.55,0.52,0.42,0.46,0.42,0.25,0.5,0.52,0.42,0.52,0.55,0.26,0.54,0.55,0.44,0.55,0.66,0.44,0.54,0.44,0.52,0.26,0.44,0.54,0.55,0.69,0.36,0.42,0.3,0.26,0.42,0.55,0.42,0.5,0.54,0.3,0.42,0.47,0.3,0.22,0.55,0.69,0.66,0.66,0.7,0.33,0.22,0.36" style="fill:rgb(0,0,0);font-family:AdvOT1ef757c0;font-size:9.46px;stroke:none;">Though developed in a Canadian Arctic context, ACCVI’s</text>
   <text y="597.996" x="303.592,307.728,312.649,317.571,321.016,325.748,329.884,333.822,338.8358,343.9,346.36,349.7656,354.842,359.867,362.328,366.663,371.689,374.055,378.4066,383.357,387.493,392.415,396.551,401.473,404.331,408.467,413.199,415.565,419.5382,424.516,428.652,433.772,438.6912,443.735,448.761,452.897,456.3026,461.366,466.099,469.544,474.276,478.412,483.33119999999997,488.352,491.797,495.734,498.1,502.038,506.373,510.509,515.629,519.566,523.5392,528.547,532.683,536.62,540.066,544.798,548.243" svgx:width="0.44,0.52,0.52,0.36,0.5,0.44,0.42,0.53,0.55,0.26,0.36,0.55,0.53,0.26,0.46,0.53,0.25,0.46,0.55,0.44,0.52,0.44,0.52,0.3,0.44,0.5,0.25,0.42,0.55,0.44,0.54,0.52,0.55,0.53,0.44,0.36,0.55,0.5,0.36,0.5,0.44,0.52,0.55,0.36,0.42,0.25,0.42,0.46,0.44,0.54,0.42,0.42,0.55,0.44,0.42,0.36,0.5,0.36,0.36" style="fill:rgb(0,0,0);font-family:AdvOT1ef757c0;font-size:9.46px;stroke:none;">approach is highly adaptable and has broad relevance across</text>
   <text y="608.428" x="303.592,307.529,309.99,313.435,317.372,322.294,329.979,334.901,339.633,341.999,346.135,349.5406,354.502,357.947,361.884,366.219,368.68,373.412,378.532,381.9376,386.874,391.01,396.13,401.0492,405.922,410.654,413.513,418.538,422.476,425.8816,430.81,434.255,438.193,442.527,444.988,449.72,454.841,458.2466,463.182,467.517,469.883,474.615,479.347,483.483,485.85,488.216,492.551,494.6322,499.521,504.254,508.191,510.652,515.772,520.1236,524.976,527.342,529.803,537.488,539.949,542.808,546.745" svgx:width="0.42,0.26,0.36,0.42,0.52,0.81,0.52,0.5,0.25,0.44,0.36,0.55,0.36,0.42,0.46,0.26,0.5,0.54,0.36,0.55,0.44,0.54,0.52,0.55,0.5,0.3,0.53,0.42,0.36,0.55,0.36,0.42,0.46,0.26,0.5,0.54,0.36,0.55,0.46,0.25,0.5,0.5,0.44,0.25,0.25,0.46,0.22,0.55,0.5,0.42,0.26,0.54,0.46,0.55,0.25,0.26,0.81,0.26,0.3,0.42,0.52" style="fill:rgb(0,0,0);font-family:AdvOT1ef757c0;font-size:9.46px;stroke:none;">circumpolar regions and other regions globally, being limited</text>
   <text y="618.916" x="303.592,305.958,310.094,313.539,317.874,321.811,324.177,328.52860000000004,331.087,335.82,340.1716,342.653,346.59,351.711,356.045,358.506,361.951,366.684,371.804,379.489,383.427,388.547,391.405,395.541,397.906,400.479,404.615,409.735,414.6542,417.203,420.648,425.38,429.318,431.778,436.511,440.448,444.385,449.118,454.238,458.97,466.655,469.116,473.0892,475.596,480.517,484.653,487.512,491.6744,494.191,498.327,502.662,506.798,509.258,511.625,515.761,520.493,522.954,525.32,527.781,530.639,534.9906,537.504,541.64,546.76" svgx:width="0.25,0.44,0.36,0.46,0.42,0.25,0.46,0.55,0.5,0.46,0.55,0.42,0.54,0.46,0.26,0.36,0.5,0.54,0.81,0.42,0.54,0.3,0.44,0.25,0.55,0.44,0.54,0.52,0.55,0.36,0.5,0.42,0.26,0.5,0.42,0.42,0.5,0.54,0.5,0.81,0.26,0.42,0.55,0.52,0.44,0.3,0.44,0.55,0.44,0.46,0.44,0.26,0.25,0.44,0.5,0.26,0.25,0.26,0.3,0.46,0.55,0.44,0.54,0.52" style="fill:rgb(0,0,0);font-family:AdvOT1ef757c0;font-size:9.46px;stroke:none;">largely by environmental and socioeconomic data availability and</text>
   <text y="629.348" x="303.592,308.513,311.958,316.691,319.057,322.994,326.931,329.79,332.251,336.983,342.103,345.548,347.6292,353.027,359.927,363.372,365.833,370.953,375.3046,380.636,384.7984,390.104,395.224,399.162,405.59479999999996,410.91,418.595,422.532,425.391,430.416,435.149,440.07,444.803,447.169,451.901,456.236,458.697,462.634,466.77,469.135,474.462,478.598,483.52,488.441,491.886,496.619,500.755,504.692,509.7058,515.11,517.969,522.6990000000001,528.036,535.722,540.454,545.375,549.313" svgx:width="0.52,0.36,0.5,0.25,0.42,0.42,0.3,0.26,0.5,0.54,0.36,0.22,0.55,0.73,0.36,0.26,0.54,0.46,0.55,0.44,0.55,0.54,0.42,0.68,0.55,0.81,0.42,0.3,0.53,0.5,0.52,0.5,0.25,0.5,0.46,0.26,0.42,0.44,0.25,0.55,0.44,0.52,0.52,0.36,0.5,0.44,0.42,0.53,0.55,0.3,0.5,0.55,0.81,0.5,0.52,0.42,0.25" style="fill:rgb(0,0,0);font-family:AdvOT1ef757c0;font-size:9.46px;stroke:none;">projections. Using a new methodological approach to model</text>
   <text y="639.836" x="303.592,307.926,312.848,315.214,320.335,324.272,327.717,331.853,336.585,339.046,341.412,343.873,346.731,351.066,353.1472,357.903,364.311,368.2842,372.927,377.848,381.293,386.026,388.392,392.329,396.266,399.10400000000004,403.824,406.682,411.708,415.68120000000005,420.378,424.316,427.07,429.824,433.761,437.699,440.557,443.9626,448.725,453.457,456.2004,460.913,465.248,469.384,472.829,475.29,480.022,484.944,488.3496,493.058,496.995,499.361,501.822,509.507,513.643,516.502,520.4752,525.146,529.083,534.109,538.245,543.365,547.7" svgx:width="0.46,0.52,0.25,0.54,0.42,0.36,0.44,0.5,0.26,0.25,0.26,0.3,0.46,0.22,0.55,0.68,0.42,0.55,0.52,0.36,0.5,0.25,0.42,0.42,0.3,0.55,0.3,0.53,0.42,0.55,0.42,0.29,0.29,0.42,0.42,0.3,0.36,0.55,0.5,0.29,0.55,0.46,0.44,0.36,0.26,0.5,0.52,0.36,0.55,0.42,0.25,0.26,0.81,0.44,0.3,0.42,0.55,0.42,0.53,0.44,0.54,0.46,0.42" style="fill:rgb(0,0,0);font-family:AdvOT1ef757c0;font-size:9.46px;stroke:none;">vulnerability, we project the effects of various climate change</text>
   <text y="650.268" x="303.592,307.037,310.974,314.911,320.032,324.168,327.613,330.074,334.806,338.2116,342.539,347.272,352.3804,356.656,360.792,363.253,366.6586,370.943,375.079,380.199,385.1182,389.424,397.109,401.245,404.691,407.151,412.272,416.2452,420.492,423.35,426.795,430.931,436.052,439.497,444.418,449.151,452.596,455.454,459.59,462.448,464.909,469.641,474.74940000000004,478.998,482.443,486.778,490.223,493.081,497.019,504.704,508.1096,512.447,516.583,520.52,523.965,528.698,532.143,535.5486000000001,539.83,542.688,547.714" svgx:width="0.36,0.42,0.42,0.54,0.44,0.36,0.26,0.5,0.36,0.55,0.5,0.54,0.55,0.44,0.26,0.36,0.55,0.44,0.54,0.52,0.55,0.81,0.44,0.36,0.26,0.54,0.42,0.55,0.3,0.36,0.44,0.54,0.36,0.52,0.5,0.36,0.3,0.44,0.3,0.26,0.5,0.54,0.55,0.36,0.46,0.36,0.3,0.42,0.81,0.36,0.55,0.44,0.42,0.36,0.5,0.36,0.36,0.55,0.3,0.53,0.42" style="fill:rgb(0,0,0);font-family:AdvOT1ef757c0;font-size:9.46px;stroke:none;">scenarios on air and marine transportation systems across the</text>
   <text y="660.756" x="303.592,309.8,313.936,319.057,323.193,328.114,330.575,334.711,339.81940000000003,342.596,349.098,352.544,356.481,359.339,361.8,365.737,367.81820000000005,370.489,376.007,380.143,383.588,387.526,392.4452,395.15,399.883,404.9914,407.736,410.595,415.62,419.5932,422.249,425.004,429.736,434.658,438.0636,440.788,445.813,449.949,453.887,458.023,461.468,466.389,469.7946,472.536,476.672,480.117,483.562,487.499,490.944,494.39,498.327,503.2462,505.985,512.392,516.3652000000001,519.025,524.07,529.191,534.1102000000001,536.826,539.684,544.71,548.846" svgx:width="0.66,0.44,0.54,0.44,0.52,0.26,0.44,0.54,0.55,0.69,0.36,0.42,0.3,0.26,0.42,0.22,0.55,0.58,0.44,0.36,0.42,0.52,0.55,0.5,0.54,0.55,0.3,0.53,0.42,0.55,0.29,0.5,0.52,0.36,0.55,0.53,0.44,0.42,0.44,0.36,0.52,0.36,0.55,0.44,0.36,0.36,0.42,0.36,0.36,0.42,0.52,0.55,0.68,0.42,0.55,0.53,0.54,0.52,0.55,0.3,0.53,0.44,0.3" style="fill:rgb(0,0,0);font-family:AdvOT1ef757c0;font-size:9.46px;stroke:none;">Canadian Arctic. Based on the four hazards assessed we ﬁnd that</text>
   <text y="671.188" x="303.592,307.037,311.372,314.817,317.675,321.612,329.2746,333.015,337.35,342.272,344.638,349.758,353.695,357.141,361.277,366.009,368.47,370.836,373.297,376.155,380.5066,384.151,388.486,392.622,396.067,398.528,402.465,405.87059999999997,409.607,416.014,418.475,423.396,427.334,429.7,434.0516,437.726,441.862,445.799,449.244,453.977,457.422,460.8276,464.541,467.399,472.425,476.39820000000003,480.075,483.52,487.458,491.792,494.253,498.985,504.09340000000003,507.798,511.934,517.054,521.9732,525.656,528.117,531.5226,535.237,540.158,543.603,548.336" svgx:width="0.36,0.46,0.36,0.3,0.42,0.81,0.55,0.46,0.52,0.25,0.54,0.42,0.36,0.44,0.5,0.26,0.25,0.26,0.3,0.46,0.55,0.46,0.44,0.36,0.26,0.42,0.36,0.55,0.68,0.26,0.52,0.42,0.25,0.46,0.55,0.44,0.42,0.36,0.5,0.36,0.36,0.55,0.3,0.53,0.42,0.55,0.36,0.42,0.46,0.26,0.5,0.54,0.55,0.44,0.54,0.52,0.55,0.26,0.36,0.55,0.52,0.36,0.5,0.35" style="fill:rgb(0,0,0);font-family:AdvOT1ef757c0;font-size:9.46px;stroke:none;">system vulnerability varies widely across the region and is pro-</text>
   <text y="681.677" x="303.592,305.958,309.895,313.832,316.691,320.628,325.5472,329.443,332.302,337.03200000000004,340.896,343.356,348.477,352.414,355.859,359.796,363.932,367.378,371.3512,375.251,378.005,382.738,386.1436,390.048,394.184,397.02200000000005,400.877,403.243,407.18,411.316,414.761,417.59900000000005,421.512,424.371,429.396,433.36920000000003,437.216,442.336,446.274,450.703,453.541,457.455,461.989,466.52979999999997,470.381,473.239,477.969,481.833,486.366,490.9068,494.759,499.094,503.031,507.167,510.612,514.057,516.1382,520.043,529.205,533.1782000000001,536.995,541.131,543.497,546.942" svgx:width="0.25,0.42,0.42,0.3,0.42,0.52,0.55,0.3,0.5,0.55,0.26,0.54,0.42,0.36,0.42,0.44,0.36,0.42,0.55,0.29,0.5,0.36,0.55,0.44,0.3,0.55,0.25,0.42,0.44,0.36,0.3,0.55,0.3,0.53,0.42,0.55,0.54,0.42,0.47,0.3,0.55,0.48,0.48,0.55,0.3,0.5,0.55,0.48,0.48,0.55,0.46,0.42,0.44,0.36,0.36,0.22,0.55,0.97,0.42,0.55,0.44,0.25,0.36,0.5" style="fill:rgb(0,0,0);font-family:AdvOT1ef757c0;font-size:9.46px;stroke:none;">jected to increase for at least the next 20 to 70 years. We also</text>
   <text y="692.109" x="303.592,308.324,313.246,316.104,318.47,320.931,326.051,330.0242,334.263,338.399,343.5074,347.812,350.273,353.131,357.069,360.514,364.65,367.508,369.969,374.304,378.2772,382.508,386.644,391.764,396.6832,400.932,403.791,407.236,411.372,416.492,419.937,422.691,426.629,430.074,434.21,438.942,441.308,445.2812,449.518,453.654,458.575,463.497,466.942,471.674,475.811,479.748,484.7618,489.089,491.948,496.678,500.938,508.623,513.356,518.277,522.214,524.5790000000001,528.831,531.585,536.507,539.365,544.287,547.732" svgx:width="0.5,0.52,0.3,0.25,0.26,0.54,0.42,0.55,0.44,0.54,0.55,0.26,0.3,0.42,0.36,0.44,0.3,0.26,0.46,0.42,0.55,0.44,0.54,0.52,0.55,0.3,0.36,0.44,0.54,0.36,0.29,0.42,0.36,0.44,0.5,0.25,0.42,0.55,0.44,0.52,0.52,0.36,0.5,0.44,0.42,0.53,0.55,0.3,0.5,0.55,0.81,0.5,0.52,0.42,0.25,0.55,0.29,0.52,0.3,0.52,0.36,0.42" style="fill:rgb(0,0,0);font-family:AdvOT1ef757c0;font-size:9.46px;stroke:none;">outline an iterative and transferable approach to model future</text>
   <text y="702.596" x="303.592,307.529,309.895,312.356,320.041,324.177,327.035,331.00820000000004,334.149,338.086,343.112,347.248,352.368,356.703,360.6762,363.799,367.244,369.705,373.15,377.778,381.1836,384.434,388.57,393.691,398.61019999999996,401.782,406.704,410.641,413.007,415.468,420.588,424.526,428.662,431.52,435.4932,438.633,442.769,447.69,451.826,456.748,459.606,463.742,466.6,469.061,473.794,478.9024,482.059,487.179,491.117,495.054,499.976,503.421" svgx:width="0.42,0.25,0.26,0.81,0.44,0.3,0.42,0.55,0.42,0.53,0.44,0.54,0.46,0.42,0.55,0.36,0.26,0.36,0.49,0.36,0.55,0.44,0.54,0.52,0.55,0.52,0.42,0.25,0.26,0.54,0.42,0.44,0.3,0.42,0.55,0.44,0.52,0.44,0.52,0.3,0.44,0.3,0.26,0.5,0.54,0.55,0.54,0.42,0.42,0.52,0.36,0.22" style="fill:rgb(0,0,0);font-family:AdvOT1ef757c0;font-size:9.46px;stroke:none;">climate change risks and delineate adaptation needs.</text>
   <text y="713.028" x="313.059,319.959,323.896,328.231,332.168,334.534,339.267,344.188,346.649,351.769,356.1206,359.887,363.824,368.557,376.242,381.164,383.53,387.467,391.91319999999996,395.716,399.852,404.973,409.8922,413.688,416.149,421.269,424.127,428.065,432.399,435.844,439.98,442.839,446.776,451.6952,455.47,459.805,464.727,467.093,472.213,476.15,479.596,483.732,488.464,490.925,493.291,495.752,498.61,502.96160000000003,506.72,510.856,514.301,517.746,521.684,525.129,528.574,536.259,540.196,545.317,548.175" svgx:width="0.73,0.42,0.46,0.42,0.25,0.5,0.52,0.26,0.54,0.46,0.55,0.42,0.5,0.81,0.52,0.25,0.42,0.47,0.55,0.44,0.54,0.52,0.55,0.26,0.54,0.3,0.42,0.46,0.36,0.44,0.3,0.42,0.52,0.55,0.46,0.52,0.25,0.54,0.42,0.36,0.44,0.5,0.26,0.25,0.26,0.3,0.46,0.55,0.44,0.36,0.36,0.42,0.36,0.36,0.81,0.42,0.54,0.3,0.36" style="fill:rgb(0,0,0);font-family:AdvOT1ef757c0;font-size:9.46px;stroke:none;">Developing complex and integrated vulnerability assessments</text>
   <text y="723.516" x="303.592,307.529,312.261,319.947,323.884,327.2896,330.237,336.645,339.106,341.964,346.9778,349.91,353.847,358.873,363.009,365.375,367.741,371.678,376.798,381.133,385.071,388.4766,391.408,395.544,400.664,405.5832,408.473,410.839,413.3,420.985,423.446,426.304,430.44,433.298,435.759,440.491,445.612,449.057,451.13820000000004,454.053,459.865,464.89,468.8632,471.742,475.878,480.799,483.658,488.683,493.416,496.861,500.2666,503.206,507.342,511.279,515.907,521.028,525.76,532.167,534.534,538.471,543.392,547.727" svgx:width="0.42,0.5,0.81,0.42,0.36,0.55,0.68,0.26,0.3,0.53,0.55,0.42,0.53,0.44,0.25,0.25,0.42,0.54,0.46,0.42,0.36,0.55,0.44,0.54,0.52,0.55,0.25,0.26,0.81,0.26,0.3,0.44,0.3,0.26,0.5,0.54,0.36,0.22,0.55,0.61,0.53,0.42,0.55,0.44,0.52,0.3,0.53,0.5,0.36,0.36,0.55,0.44,0.42,0.49,0.54,0.5,0.68,0.25,0.42,0.52,0.46,0.42" style="fill:rgb(0,0,0);font-family:AdvOT1ef757c0;font-size:9.46px;stroke:none;">comes with challenges and limitations. The authors acknowledge</text>
   <text y="733.948" x="303.592,306.45,311.476,315.612,318.45000000000005,322.13,325.575,329.512,333.847,337.784,341.23,345.366,347.731,351.383,359.068,363.006,365.864,369.309,371.77,375.707,379.1126,382.791,386.927,391.261,395.397,397.858,400.224,404.36,409.093,411.459,415.4322,419.017,421.478,426.5864,430.242,433.1,438.126,442.0992,445.72,448.086,450.547,453.405,457.342,460.787,464.923,467.782,472.703,476.148,480.12120000000004,483.76,487.896,491.341,495.3142,498.896,503.033,507.765,511.21,515.147,520.268,523.106,526.79,531.522,534.2654,537.901,540.759,545.785,548.246" svgx:width="0.3,0.53,0.44,0.3,0.55,0.36,0.42,0.46,0.42,0.36,0.44,0.25,0.55,0.81,0.42,0.3,0.36,0.26,0.42,0.36,0.55,0.44,0.46,0.44,0.26,0.25,0.44,0.5,0.25,0.42,0.55,0.26,0.54,0.55,0.3,0.53,0.42,0.55,0.25,0.26,0.3,0.42,0.36,0.44,0.3,0.52,0.36,0.42,0.55,0.44,0.36,0.42,0.55,0.44,0.5,0.36,0.42,0.54,0.3,0.55,0.5,0.29,0.55,0.3,0.53,0.26,0.36" style="fill:rgb(0,0,0);font-family:AdvOT1ef757c0;font-size:9.46px;stroke:none;">that several metrics available in the literature are absent of this</text>
  </g>
  <rect style="stroke:blue;stroke-width:0.3;" x="147.252" y="88.547" height="149.676" width="304.116" title="4"/>
  <text y="88.547" class="image" id="image.4.1" width="304" height="149" x="147.252">image.4.1.147_451.89_238</text>
  <rect style="stroke:blue;stroke-width:0.3;" x="147.252" y="88.547" height="149.676" width="304.116" title="4"/>
  <text y="88.547" class="image" id="image.4.2" width="304" height="149" x="147.252">image.4.2.147_451.89_238</text>
  <rect style="stroke:blue;stroke-width:0.3;" x="149.472" y="250.337" height="280.476" width="301.956" title="4"/>
  <text y="250.337" class="image" id="image.4.3" width="301" height="280" x="149.472">image.4.3.149_451.250_531</text>
  <rect style="stroke:blue;stroke-width:0.3;" x="149.472" y="250.337" height="280.476" width="301.956" title="4"/>
  <text y="250.337" class="image" id="image.4.4" width="301" height="280" x="149.472">image.4.4.149_451.250_531</text>
  <g begin="text">
   <text y="55.963" x="279.828,281.496,284.76,288.096,289.428,291.096,292.764,297.096,300.432,303.768,307.104,310.44,313.776,317.112" svgx:width="0.28,0.56,0.56,0.22,0.28,0.28,0.72,0.56,0.56,0.56,0.56,0.56,0.56,0.28" style="fill:rgb(0,0,0);font-family:Helvetica;font-size:6.0px;stroke:none;">Inuit Nunangat</text>
   <text y="67.663" x="422.317,425.653" svgx:width="0.56,0.56" style="fill:rgb(0,0,0);font-family:Helvetica;font-size:6.0px;stroke:none;">10</text>
   <text y="67.663" x="428.988" svgx:width="0.4" style="fill:rgb(0,0,0);font-family:Symbol;font-size:6.0px;stroke:none;">°</text>
   <text y="67.663" x="431.388,434.724,435.87,439.206,441.336" svgx:width="0.56,0.19,0.56,0.35,0.94" style="fill:rgb(0,0,0);font-family:Helvetica;font-size:6.0px;stroke:none;">0'0"W</text>
   <text y="85.403" x="400.893,402.283,405.002,407.782,408.892,410.282,411.672,415.282,418.062,420.842,423.622,426.402,429.182,431.962" svgx:width="0.28,0.56,0.56,0.22,0.28,0.28,0.72,0.56,0.56,0.56,0.56,0.56,0.56,0.28" style="fill:rgb(0,0,0);font-family:Helvetica;font-size:5.0px;stroke:none;">Inuit Nunangat</text>
   <text y="94.089" x="411.078,412.468,415.187,417.967,420.467,421.577,424.357,425.467,428.247,429.357" svgx:width="0.28,0.56,0.56,0.5,0.22,0.56,0.22,0.56,0.22,0.28" style="fill:rgb(0,0,0);font-family:Helvetica;font-size:5.0px;stroke:none;">Inuvialuit</text>
   <text y="101.103" x="411.078,414.688,417.468,420.248,423.028,424.418,426.918,428.028,430.698,433.198,435.978,437.368" svgx:width="0.72,0.56,0.56,0.56,0.28,0.5,0.22,0.56,0.5,0.56,0.28,0.28" style="fill:rgb(0,0,0);font-family:Helvetica;font-size:5.0px;stroke:none;">Nunatsiavut </text>
   <text y="108.113" x="411.077,414.687,417.467,420.247,422.917,425.417,426.527,429.027" svgx:width="0.72,0.56,0.56,0.56,0.5,0.22,0.5,0.28" style="fill:rgb(0,0,0);font-family:Helvetica;font-size:5.0px;stroke:none;">Nunavik </text>
   <text y="114.612" x="411.077,414.687,417.467,420.247,422.917,425.417,428.197,429.587" svgx:width="0.72,0.56,0.56,0.56,0.5,0.56,0.28,0.28" style="fill:rgb(0,0,0);font-family:Helvetica;font-size:5.0px;stroke:none;">Nunavut </text>
   <text y="121.603" x="411.078,414.688,417.468,421.633,425.758,428.538,431.318,432.428,433.818,434.928,437.708,440.208" svgx:width="0.72,0.56,0.83,0.83,0.56,0.56,0.22,0.28,0.22,0.56,0.5,0.28" style="fill:rgb(0,0,0);font-family:Helvetica;font-size:5.0px;stroke:none;">Communities </text>
   <text y="128.353" x="411.077,414.412,417.192,418.582,419.832,422.612,424.277,425.667,428.447,431.227,434.007,435.397,437.897" svgx:width="0.67,0.56,0.28,0.28,0.56,0.33,0.28,0.56,0.56,0.56,0.28,0.5,0.83" style="fill:rgb(0,0,0);font-family:Helvetica;font-size:5.0px;stroke:none;">Buffer 100 km</text>
   <text y="135.258" x="411.077,414.412,415.522,417.342,420.122,422.902,424.777,426.167,428.667" svgx:width="0.67,0.22,0.33,0.56,0.56,0.33,0.28,0.5,0.28" style="fill:rgb(0,0,0);font-family:Helvetica;font-size:5.0px;stroke:none;">Airports </text>
   <text y="143.539" x="411.077,414.687,417.467,419.132,421.912,424.692,427.472,429.137,431.637" svgx:width="0.72,0.56,0.33,0.56,0.56,0.56,0.33,0.5,0.28" style="fill:rgb(0,0,0);font-family:Helvetica;font-size:5.0px;stroke:none;">Harbours </text>
   <text y="150.544" x="411.078,414.413,416.078,418.578,419.968,421.078,423.578,424.968,427.468,428.578,430.243,432.743,433.853,436.633" svgx:width="0.67,0.33,0.5,0.28,0.22,0.5,0.28,0.5,0.22,0.33,0.5,0.22,0.56,0.28" style="fill:rgb(0,0,0);font-family:Helvetica;font-size:5.0px;stroke:none;">Arctic circle </text>
   <text y="67.663" x="359.603,362.939" svgx:width="0.56,0.56" style="fill:rgb(0,0,0);font-family:Helvetica;font-size:6.0px;stroke:none;">20</text>
   <text y="67.663" x="366.275" svgx:width="0.4" style="fill:rgb(0,0,0);font-family:Symbol;font-size:6.0px;stroke:none;">°</text>
   <text y="67.663" x="368.674,372.01,373.156,376.492,378.622" svgx:width="0.56,0.19,0.56,0.35,0.94" style="fill:rgb(0,0,0);font-family:Helvetica;font-size:6.0px;stroke:none;">0'0"W</text>
   <text y="67.664" x="326.741,330.077" svgx:width="0.56,0.56" style="fill:rgb(0,0,0);font-family:Helvetica;font-size:6.0px;stroke:none;">30</text>
   <text y="67.664" x="333.413" svgx:width="0.4" style="fill:rgb(0,0,0);font-family:Symbol;font-size:6.0px;stroke:none;">°</text>
   <text y="67.664" x="335.813,339.148,340.294,343.629,345.759" svgx:width="0.56,0.19,0.56,0.35,0.94" style="fill:rgb(0,0,0);font-family:Helvetica;font-size:6.0px;stroke:none;">0'0"W</text>
   <text y="67.663" x="291.628,294.964" svgx:width="0.56,0.56" style="fill:rgb(0,0,0);font-family:Helvetica;font-size:6.0px;stroke:none;">50</text>
   <text y="67.663" x="298.3" svgx:width="0.4" style="fill:rgb(0,0,0);font-family:Symbol;font-size:6.0px;stroke:none;">°</text>
   <text y="67.663" x="300.7,304.036,305.182,308.518,310.648,261.266,264.602" svgx:width="0.56,0.19,0.56,0.35,0.94,0.56,0.56" style="fill:rgb(0,0,0);font-family:Helvetica;font-size:6.0px;stroke:none;">0'0"W80</text>
   <text y="67.663" x="267.938" svgx:width="0.4" style="fill:rgb(0,0,0);font-family:Symbol;font-size:6.0px;stroke:none;">°</text>
   <text y="67.663" x="270.338,273.674,274.82,278.156,280.286,227.985,231.321,234.657" svgx:width="0.56,0.19,0.56,0.35,0.94,0.56,0.56,0.56" style="fill:rgb(0,0,0);font-family:Helvetica;font-size:6.0px;stroke:none;">0'0"W120</text>
   <text y="67.663" x="237.993" svgx:width="0.4" style="fill:rgb(0,0,0);font-family:Symbol;font-size:6.0px;stroke:none;">°</text>
   <text y="67.663" x="240.393,243.729,244.875,248.211,250.341,193.81,197.146,200.482" svgx:width="0.56,0.19,0.56,0.35,0.94,0.56,0.56,0.56" style="fill:rgb(0,0,0);font-family:Helvetica;font-size:6.0px;stroke:none;">0'0"W150</text>
   <text y="67.663" x="203.818" svgx:width="0.4" style="fill:rgb(0,0,0);font-family:Symbol;font-size:6.0px;stroke:none;">°</text>
   <text y="67.663" x="206.219,209.555,210.701,214.037,216.167" svgx:width="0.56,0.19,0.56,0.35,0.94" style="fill:rgb(0,0,0);font-family:Helvetica;font-size:6.0px;stroke:none;">0'0"W</text>
   <text y="160.086" transform="matrix(0.0,-1.0,1.0,0.0,298.634,618.806)" rotateDegrees="-90" matrix="[0.0,6.0,-6.0,0.0,458.7196,622.2759]" x="458.72,462.05600000000004" svgx:width="0.56,0.56" style="fill:rgb(0,0,0);font-family:Helvetica;font-size:6.0px;stroke:none;">50</text>
   <text y="153.414" transform="matrix(0.0,-1.0,1.0,0.0,305.306,612.134)" rotateDegrees="-90" matrix="[0.0,6.0,-6.0,0.0,458.7196,628.9479]" x="458.72" svgx:width="0.4" style="fill:rgb(0,0,0);font-family:Symbol;font-size:6.0px;stroke:none;">°</text>
   <text y="151.015" transform="matrix(0.0,-1.0,1.0,0.0,307.705,609.735)" rotateDegrees="-90" matrix="[0.0,6.0,-6.0,0.0,458.7196,631.3467]" x="458.72,462.05600000000004,463.203,466.54,468.67" svgx:width="0.56,0.19,0.56,0.35,0.72" style="fill:rgb(0,0,0);font-family:Helvetica;font-size:6.0px;stroke:none;">0'0"N</text>
   <text y="67.664" x="145.488,148.824,152.16" svgx:width="0.56,0.56,0.56" style="fill:rgb(0,0,0);font-family:Helvetica;font-size:6.0px;stroke:none;">170</text>
   <text y="67.664" x="155.496" svgx:width="0.4" style="fill:rgb(0,0,0);font-family:Symbol;font-size:6.0px;stroke:none;">°</text>
   <text y="67.664" x="157.897,161.233,162.379,165.715,167.845" svgx:width="0.56,0.19,0.56,0.35,0.94" style="fill:rgb(0,0,0);font-family:Helvetica;font-size:6.0px;stroke:none;">0'0"W</text>
   <text y="164.918" transform="matrix(0.0,-1.0,1.0,0.0,-21.07,308.766)" rotateDegrees="-90" matrix="[0.0,6.0,-6.0,0.0,143.8481,617.4439]" x="143.848,147.18400000000003" svgx:width="0.56,0.56" style="fill:rgb(0,0,0);font-family:Helvetica;font-size:6.0px;stroke:none;">60</text>
   <text y="158.247" transform="matrix(0.0,-1.0,1.0,0.0,-14.399,302.095)" rotateDegrees="-90" matrix="[0.0,6.0,-6.0,0.0,143.8481,624.1147]" x="143.848" svgx:width="0.4" style="fill:rgb(0,0,0);font-family:Symbol;font-size:6.0px;stroke:none;">°</text>
   <text y="155.847" transform="matrix(0.0,-1.0,1.0,0.0,-11.999,299.695)" rotateDegrees="-90" matrix="[0.0,6.0,-6.0,0.0,143.8481,626.5147]" x="143.848,147.18400000000003,148.33,151.66600000000003,153.79600000000002" svgx:width="0.56,0.19,0.56,0.35,0.72" style="fill:rgb(0,0,0);font-family:Helvetica;font-size:6.0px;stroke:none;">0'0"N</text>
   <text y="228.109" x="135.695,139.031,142.367" svgx:width="0.56,0.56,0.56" style="fill:rgb(0,0,0);font-family:Helvetica;font-size:6.0px;stroke:none;">130</text>
   <text y="228.109" x="145.703" svgx:width="0.4" style="fill:rgb(0,0,0);font-family:Symbol;font-size:6.0px;stroke:none;">°</text>
   <text y="228.109" x="148.104,151.44,152.586,155.922,158.052" svgx:width="0.56,0.19,0.56,0.35,0.94" style="fill:rgb(0,0,0);font-family:Helvetica;font-size:6.0px;stroke:none;">0'0"W</text>
   <text y="393.503" x="155.71,158.661,161.997,166.995,170.331,173.667,175.605,178.941,180.609,183.945,185.943,189.279" svgx:width="0.61,0.56,0.83,0.56,0.56,0.33,0.56,0.28,0.56,0.33,0.56,0.28" style="fill:rgb(0,0,0);font-family:Helvetica;font-size:6.0px;stroke:none;">Temperature </text>
   <text y="400.703" x="153.652,157.984,162.316,166.318,167.986,171.322,172.99,176.326,179.662,182.998,186.334,189.67" svgx:width="0.72,0.72,0.67,0.28,0.56,0.28,0.56,0.56,0.56,0.56,0.56,0.56" style="fill:rgb(0,0,0);font-family:Helvetica;font-size:6.0px;stroke:none;">RCP 4.5–2100</text>
   <text y="393.503" x="310.076,313.028,316.364,321.362,324.698,328.034,329.972,333.308,334.976,338.312,340.31,343.646" svgx:width="0.61,0.56,0.83,0.56,0.56,0.33,0.56,0.28,0.56,0.33,0.56,0.28" style="fill:rgb(0,0,0);font-family:Helvetica;font-size:6.0px;stroke:none;">Temperature </text>
   <text y="400.703" x="308.02,312.352,316.684,320.686,322.354,325.69,327.358,330.694,334.03,337.366,340.702,344.038" svgx:width="0.72,0.72,0.67,0.28,0.56,0.28,0.56,0.56,0.56,0.56,0.56,0.56" style="fill:rgb(0,0,0);font-family:Helvetica;font-size:6.0px;stroke:none;">RCP 8.5–2100</text>
   <text y="337.806" x="306.194,310.863,314.755,318.563,322.455,326.347,327.901,329.847,335.678,341.509,343.455,347.347,351.043" svgx:width="0.67,0.56,0.56,0.56,0.56,0.22,0.28,0.83,0.83,0.28,0.56,0.56,0.5" style="fill:rgb(0,0,0);font-family:Helvetica;font-size:7.0px;stroke:none;">Annual mm/day</text>
   <text y="339.556" x="152.919,157.588,161.48,165.288,169.18,173.072,174.626,176.572,182.403,188.234,190.18,194.072,197.767" svgx:width="0.67,0.56,0.56,0.56,0.56,0.22,0.28,0.83,0.83,0.28,0.56,0.56,0.5" style="fill:rgb(0,0,0);font-family:Helvetica;font-size:7.0px;stroke:none;">Annual mm/day</text>
   <text y="478.051" x="152.327,156.996,160.888,164.696,168.588,172.48,174.034,175.98,179.48,183.372,184.926,188.426,189.98,193.872" svgx:width="0.67,0.56,0.56,0.56,0.56,0.22,0.28,0.5,0.56,0.22,0.5,0.22,0.56,0.5" style="fill:rgb(0,0,0);font-family:Helvetica;font-size:7.0px;stroke:none;">Annual celsius</text>
   <text y="476.093" x="307.377,312.046,315.938,319.746,323.638,327.53,329.084,331.03,334.53,338.422,339.976,343.476,345.03,348.922" svgx:width="0.67,0.56,0.56,0.56,0.56,0.22,0.28,0.5,0.56,0.22,0.5,0.22,0.56,0.5" style="fill:rgb(0,0,0);font-family:Helvetica;font-size:7.0px;stroke:none;">Annual celsius</text>
   <text y="347.036" x="313.528,318.582,320.136,324.028,327.92,329.866,331.453,333.399,337.291,339.237,343.129" svgx:width="0.72,0.22,0.56,0.56,0.28,0.28,0.28,0.56,0.28,0.56,0.56" style="fill:rgb(0,0,0);font-family:Helvetica;font-size:7.0px;stroke:none;">High : 1.43</text>
   <text y="347.285" x="161.727,166.781,168.335,172.227,176.119,178.065,179.653,181.599,185.491,187.437,191.329" svgx:width="0.72,0.22,0.56,0.56,0.28,0.28,0.28,0.56,0.28,0.56,0.56" style="fill:rgb(0,0,0);font-family:Helvetica;font-size:7.0px;stroke:none;">High : 1.43</text>
   <text y="487.643" x="159.628,164.682,166.236,170.128,174.02,175.966,177.554,179.5,183.392,187.284,189.23,193.122" svgx:width="0.72,0.22,0.56,0.56,0.28,0.28,0.28,0.56,0.56,0.28,0.56,0.56" style="fill:rgb(0,0,0);font-family:Helvetica;font-size:7.0px;stroke:none;">High : 10.61</text>
   <text y="484.75" x="313.761,318.815,320.369,324.261,328.153,330.099,331.687,333.633,337.525,341.417,343.363,347.255" svgx:width="0.72,0.22,0.56,0.56,0.28,0.28,0.28,0.56,0.56,0.28,0.56,0.56" style="fill:rgb(0,0,0);font-family:Helvetica;font-size:7.0px;stroke:none;">High : 10.61</text>
   <text y="360.768" x="313.528,317.42,321.2,326.254,328.2,329.789,331.735,335.627,337.573,341.465" svgx:width="0.56,0.56,0.72,0.28,0.28,0.28,0.56,0.28,0.56,0.56" style="fill:rgb(0,0,0);font-family:Helvetica;font-size:7.0px;stroke:none;">Low : 0.06</text>
   <text y="362.012" x="161.727,165.619,169.399,174.453,176.399,177.988,179.934,183.826,185.772,189.664" svgx:width="0.56,0.56,0.72,0.28,0.28,0.28,0.56,0.28,0.56,0.56" style="fill:rgb(0,0,0);font-family:Helvetica;font-size:7.0px;stroke:none;">Low : 0.06</text>
   <text y="501.638" x="159.628,163.52,167.3,172.354,174.3,175.889,177.835,181.727,183.673,187.565" svgx:width="0.56,0.56,0.72,0.28,0.28,0.28,0.56,0.28,0.56,0.56" style="fill:rgb(0,0,0);font-family:Helvetica;font-size:7.0px;stroke:none;">Low : 3.48</text>
   <text y="499.531" x="313.761,317.653,321.433,326.487,328.433,330.022,331.968,335.86,337.806,341.698" svgx:width="0.56,0.56,0.72,0.28,0.28,0.28,0.56,0.28,0.56,0.56" style="fill:rgb(0,0,0);font-family:Helvetica;font-size:7.0px;stroke:none;">Low : 3.48</text>
   <text y="213.055" x="151.8,154.60000000000002,168.045,170.825,173.605,176.405,186.586,189.366,192.146,194.946,222.296,225.076,227.856,230.636,233.416,234.806,238.141,239.251,240.361,243.141,247.306,250.086,251.476,254.256,255.921" svgx:width="0.56,0.55,0.56,0.56,0.56,0.55,0.56,0.56,0.56,0.55,0.56,0.56,0.56,0.56,0.28,0.67,0.22,0.22,0.56,0.83,0.56,0.28,0.56,0.33,0.5" style="fill:rgb(0,0,0);font-family:Helvetica;font-size:5.0px;stroke:none;">0 390 780 1560 Kilometers</text>
   <text y="228.109" x="172.445,175.781,179.117" svgx:width="0.56,0.56,0.56" style="fill:rgb(0,0,0);font-family:Helvetica;font-size:6.0px;stroke:none;">120</text>
   <text y="228.109" x="182.453" svgx:width="0.4" style="fill:rgb(0,0,0);font-family:Symbol;font-size:6.0px;stroke:none;">°</text>
   <text y="228.109" x="184.854,188.19,189.336,192.672,194.802,200.44199999999998,205.068,208.404,211.74" svgx:width="0.56,0.19,0.56,0.35,0.94,0.55,0.56,0.56,0.56" style="fill:rgb(0,0,0);font-family:Helvetica;font-size:6.0px;stroke:none;">0'0"W 110</text>
   <text y="228.109" x="215.076" svgx:width="0.4" style="fill:rgb(0,0,0);font-family:Symbol;font-size:6.0px;stroke:none;">°</text>
   <text y="228.109" x="217.476,220.812,221.958,225.294,227.424,233.064,235.44,238.776,242.112" svgx:width="0.56,0.19,0.56,0.35,0.94,0.55,0.56,0.56,0.56" style="fill:rgb(0,0,0);font-family:Helvetica;font-size:6.0px;stroke:none;">0'0"W 100</text>
   <text y="228.109" x="245.448" svgx:width="0.4" style="fill:rgb(0,0,0);font-family:Symbol;font-size:6.0px;stroke:none;">°</text>
   <text y="228.109" x="247.848,251.184,252.33,255.666,257.796,263.436,267.105,270.441" svgx:width="0.56,0.19,0.56,0.35,0.94,0.55,0.56,0.56" style="fill:rgb(0,0,0);font-family:Helvetica;font-size:6.0px;stroke:none;">0'0"W 90</text>
   <text y="228.109" x="273.777" svgx:width="0.4" style="fill:rgb(0,0,0);font-family:Symbol;font-size:6.0px;stroke:none;">°</text>
   <text y="228.109" x="276.177,279.513,280.659,283.995,286.125,291.765,297.977,301.313" svgx:width="0.56,0.19,0.56,0.35,0.94,0.55,0.56,0.56" style="fill:rgb(0,0,0);font-family:Helvetica;font-size:6.0px;stroke:none;">0'0"W 80</text>
   <text y="228.109" x="304.649" svgx:width="0.4" style="fill:rgb(0,0,0);font-family:Symbol;font-size:6.0px;stroke:none;">°</text>
   <text y="228.109" x="307.049,310.385,311.531,314.867,316.997" svgx:width="0.56,0.19,0.56,0.35,0.94" style="fill:rgb(0,0,0);font-family:Helvetica;font-size:6.0px;stroke:none;">0'0"W</text>
   <text y="244.619" x="309.856,313.858,315.856,319.192,322.192,323.524,326.86,328.192,329.86,333.196,334.864,336.196,339.532,342.868" svgx:width="0.67,0.33,0.56,0.5,0.22,0.56,0.22,0.28,0.56,0.28,0.22,0.56,0.56,0.28" style="fill:rgb(0,0,0);font-family:Helvetica;font-size:6.0px;stroke:none;">Precipitation </text>
   <text y="251.819" x="307.519,311.851,316.183,320.185,321.853,325.189,326.857,330.193,333.529,336.865,340.201,343.537" svgx:width="0.72,0.72,0.67,0.28,0.56,0.28,0.56,0.56,0.56,0.56,0.56,0.56" style="fill:rgb(0,0,0);font-family:Helvetica;font-size:6.0px;stroke:none;">RCP 8.5–2100</text>
   <text y="244.619" x="156.022,160.024,162.022,165.358,168.358,169.69,173.026,174.358,176.026,179.362,181.03,182.362,185.698,189.034" svgx:width="0.67,0.33,0.56,0.5,0.22,0.56,0.22,0.28,0.56,0.28,0.22,0.56,0.56,0.28" style="fill:rgb(0,0,0);font-family:Helvetica;font-size:6.0px;stroke:none;">Precipitation </text>
   <text y="251.819" x="153.685,158.017,162.349,166.351,168.019,171.355,173.023,176.359,179.695,183.031,186.367,189.703" svgx:width="0.72,0.72,0.67,0.28,0.56,0.28,0.56,0.56,0.56,0.56,0.56,0.56" style="fill:rgb(0,0,0);font-family:Helvetica;font-size:6.0px;stroke:none;">RCP 4.5–2100</text>
   <text y="228.109" x="330.973,334.309" svgx:width="0.56,0.56" style="fill:rgb(0,0,0);font-family:Helvetica;font-size:6.0px;stroke:none;">70</text>
   <text y="228.109" x="337.645" svgx:width="0.4" style="fill:rgb(0,0,0);font-family:Symbol;font-size:6.0px;stroke:none;">°</text>
   <text y="228.109" x="340.045,343.381,344.527,347.863,349.993,355.633,368.782,372.118" svgx:width="0.56,0.19,0.56,0.35,0.94,0.55,0.56,0.56" style="fill:rgb(0,0,0);font-family:Helvetica;font-size:6.0px;stroke:none;">0'0"W 60</text>
   <text y="228.109" x="375.454" svgx:width="0.4" style="fill:rgb(0,0,0);font-family:Symbol;font-size:6.0px;stroke:none;">°</text>
   <text y="228.109" x="377.854,381.19,382.336,385.672,387.802,393.442,413.304,416.64" svgx:width="0.56,0.19,0.56,0.35,0.94,0.55,0.56,0.56" style="fill:rgb(0,0,0);font-family:Helvetica;font-size:6.0px;stroke:none;">0'0"W 50</text>
   <text y="228.109" x="419.976" svgx:width="0.4" style="fill:rgb(0,0,0);font-family:Symbol;font-size:6.0px;stroke:none;">°</text>
   <text y="228.109" x="422.376,425.712,426.857,430.192,432.322" svgx:width="0.56,0.19,0.56,0.35,0.94" style="fill:rgb(0,0,0);font-family:Helvetica;font-size:6.0px;stroke:none;">0'0"W</text>
  </g>
  <path style="fill:rgb(0,0,0);stroke:none;stroke-width:1.0;" d="M147.260 70.920 M153.490 202.770 L227.870 202.770 "/>
  <path style="fill:none;stroke:rgb(0,0,0);stroke-width:1.0;" d="M153.490 202.770 L227.870 202.770 "/>
  <g begin="text">
   <text y="527.584" x="43.597,47.582,49.654,53.886,55.8785,58.507" svgx:width="0.5,0.26,0.53,0.25,0.55,0.54" style="fill:rgb(0,0,0);font-family:AdvOTcb88df00;font-size:7.97px;stroke:none;">Fig. 2</text>
   <text y="527.584" x="65.481,70.04,74.184,78.0893,80.674,83.241,87.385,91.52940000000001,94.223,100.695,104.513,108.65740000000001,111.231,114.714,118.859,123.003,128.726,132.2328,134.872,137.439,141.583,145.4883,148.082,150.154,154.299,158.443,160.269,162.8194,165.487,171.042,175.186,179.331,183.149,187.293,191.278,195.096,197.6464,200.296,203.03,206.928,210.913,212.738,216.882,220.99,228.19,233.912,238.057,239.882,243.532,247.6764,250.3,252.125,256.27,259.92,261.745,265.89,270.034,273.932,277.4388,280.007,282.327,286.471,290.616,293.32579999999996,295.995,300.139,301.964,305.694,307.52,311.003,312.828,316.972,321.117,324.6238,327.233,330.381,332.454,336.598,340.743,344.473,346.298,350.115,351.941,356.085,357.91,360.399,362.1524,364.82,370.376,374.52,378.665,382.482,386.212,390.357,392.923,394.6764,397.249,402.804,406.949,411.093,414.911,418.641,420.466,424.1322,426.729,430.547,434.691,438.8354,441.469,447.024,451.169,455.313,459.131,461.697,465.18,467.006,470.823,474.553,478.698,481.264,484.385,491.586,495.404,499.548,503.6924,506.326,510.558,515.4197,518.061,519.886,524.031,528.175,531.993,536.138,537.963,540.529,544.427" svgx:width="0.57,0.52,0.49,0.55,0.32,0.52,0.52,0.55,0.81,0.48,0.52,0.55,0.44,0.52,0.52,0.72,0.44,0.55,0.32,0.52,0.49,0.55,0.26,0.52,0.52,0.23,0.32,0.55,0.7,0.52,0.52,0.48,0.52,0.5,0.48,0.32,0.55,0.34,0.49,0.5,0.23,0.52,0.52,0.91,0.72,0.52,0.23,0.46,0.52,0.55,0.23,0.52,0.46,0.23,0.52,0.52,0.49,0.44,0.55,0.29,0.52,0.52,0.34,0.55,0.52,0.23,0.47,0.23,0.44,0.23,0.52,0.52,0.44,0.55,0.4,0.26,0.52,0.52,0.47,0.23,0.48,0.23,0.52,0.23,0.32,0.22,0.55,0.7,0.52,0.52,0.48,0.47,0.52,0.32,0.22,0.55,0.7,0.52,0.52,0.48,0.47,0.23,0.46,0.55,0.48,0.52,0.52,0.55,0.7,0.52,0.52,0.48,0.32,0.44,0.23,0.48,0.47,0.52,0.32,0.4,0.91,0.48,0.52,0.52,0.55,0.53,0.61,0.55,0.23,0.52,0.52,0.48,0.52,0.23,0.32,0.49,0.52" style="fill:rgb(0,0,0);font-family:AdvOTea1a7398;font-size:7.97px;stroke:none;">The top map shows the Inuit Nunangat region—which includes four divisions (Inuvialuit, Nunavut, Nunavik and Nunatsiavut)—and 50 inhabited</text>
   <text y="538.072" x="43.597,47.247,51.392,57.863,64.335,68.48,72.624,74.449,76.932,78.757,82.655,86.1618,88.044,91.192,95.337,97.162,100.98,104.63,108.2962,110.154,114.299,118.443,121.01,124.384,127.533,129.28640000000001,131.131,135.443,139.587,141.907,144.226,148.124,150.8338,152.731,156.549,159.283,163.18,166.998,170.5048,172.347,176.492,178.80329999999998,180.681,183.502,188.396,193.29,196.111,199.762,208.121,210.855,214.752,218.897,221.63,225.528,229.011,232.908,236.978,239.5284,241.456,245.274,248.008,251.905,255.723,259.2298,261.072,264.89,269.035,272.852,274.678,278.495,282.058,285.955,290.0994,291.914,293.739,297.8834,299.794,303.691,307.509,311.16,315.30440000000004,317.142,320.792,324.937,331.409,337.88,342.025,346.169,347.995,350.561,354.379,356.1324,357.961,360.695,364.592,368.7364,370.604,374.421,376.246,378.98,383.125,384.95,388.768,392.912,396.81,400.3168,402.181,405.999,408.733,412.6383,414.484,418.302,420.127,422.861,427.005,431.15,433.884,436.45,439.9568,441.81,445.628,449.772,453.9164,455.756,459.574,463.471,465.297,467.122,471.266,477.00440000000003,478.887,483.032,487.176,489.743,493.2498,495.102,499.246,503.064,505.798,509.942,514.087,516.821,520.304,522.0574,523.902,528.461,532.606,536.5113,538.357,540.677,544.821,548.966" svgx:width="0.46,0.52,0.81,0.81,0.52,0.52,0.23,0.32,0.23,0.49,0.44,0.55,0.4,0.52,0.23,0.48,0.46,0.46,0.55,0.52,0.52,0.32,0.44,0.4,0.22,0.55,0.54,0.52,0.29,0.29,0.49,0.34,0.55,0.48,0.34,0.49,0.48,0.44,0.55,0.52,0.29,0.55,0.35,0.61,0.61,0.35,0.46,0.81,0.34,0.49,0.52,0.34,0.49,0.44,0.49,0.52,0.32,0.55,0.48,0.34,0.49,0.48,0.44,0.55,0.48,0.52,0.48,0.23,0.48,0.45,0.49,0.52,0.55,0.23,0.52,0.55,0.49,0.48,0.46,0.52,0.55,0.46,0.52,0.81,0.81,0.52,0.52,0.23,0.32,0.48,0.22,0.55,0.34,0.49,0.52,0.55,0.48,0.23,0.34,0.52,0.23,0.48,0.52,0.49,0.44,0.55,0.48,0.34,0.49,0.55,0.48,0.23,0.34,0.52,0.52,0.34,0.32,0.44,0.55,0.48,0.52,0.52,0.55,0.48,0.49,0.23,0.23,0.52,0.72,0.55,0.52,0.52,0.32,0.44,0.55,0.52,0.48,0.34,0.52,0.52,0.34,0.44,0.22,0.55,0.57,0.52,0.49,0.55,0.29,0.52,0.52,0.34" style="fill:rgb(0,0,0);font-family:AdvOTea1a7398;font-size:7.97px;stroke:none;">communities (black dots). Buffer areas of 100-kmrepresent areas analyzed in each community; red airplanes are airports and yellow dots harbors. The four</text>
   <text y="548.503" x="43.597,47.741,51.886,54.452,57.019,61.163,67.61869999999999,70.243,76.715,80.532,84.677,88.1838,90.766,92.591,94.416,96.242,100.386,103.869,106.435,109.169,112.987,115.553,119.4583,122.061,125.711,127.537,129.362,135.833,139.651,142.218,146.1233,148.764,155.235,159.38,163.524,167.422,169.247,172.7538,175.353,177.178,181.323,184.973,187.707,191.604,195.422,198.905,202.8103,205.287,209.017,212.835,214.66,218.805,222.702,226.2088,228.815,231.964,236.108,240.006,241.831,244.397,248.215,251.403,253.987,256.306,260.451,263.1608,265.836,269.654,273.798,277.943,282.087,285.905,287.7381,290.384,296.856,300.754,304.571,308.71540000000005,311.305,315.449,318.183,322.08,325.731,327.556,331.7,333.525,336.092,339.91,342.476,344.301,348.382,352.5264,355.185,358.333,364.805,371.277,375.342,379.486,383.304,386.99,390.178,392.773,396.59,400.735,404.87940000000003,407.513,411.33,415.475,419.619,423.764,427.582,429.4151,432.061,438.533,442.43,446.248,450.3924,452.981,455.547,459.445,465.917,470.061,473.959,476.692,480.51,483.077,487.221,489.889,493.7943,496.465,499.613,503.016,508.157,511.34499999999997,513.927,516.246,520.391,523.1007999999999,525.775,529.92,534.064,536.631" svgx:width="0.52,0.52,0.32,0.32,0.52,0.81,0.55,0.81,0.48,0.52,0.44,0.55,0.23,0.23,0.23,0.52,0.44,0.32,0.34,0.48,0.32,0.49,0.55,0.46,0.23,0.23,0.81,0.48,0.32,0.49,0.55,0.81,0.52,0.52,0.49,0.23,0.44,0.55,0.23,0.52,0.46,0.34,0.49,0.48,0.44,0.49,0.55,0.47,0.48,0.23,0.52,0.49,0.44,0.55,0.4,0.52,0.49,0.23,0.32,0.48,0.4,0.55,0.29,0.52,0.34,0.55,0.48,0.52,0.52,0.52,0.48,0.23,0.55,0.81,0.49,0.48,0.52,0.55,0.52,0.34,0.49,0.46,0.23,0.52,0.23,0.32,0.48,0.32,0.23,0.52,0.52,0.55,0.4,0.81,0.81,0.51,0.52,0.48,0.48,0.4,0.55,0.48,0.52,0.52,0.55,0.48,0.52,0.52,0.52,0.48,0.23,0.55,0.81,0.49,0.48,0.52,0.55,0.32,0.49,0.81,0.52,0.49,0.34,0.48,0.32,0.52,0.34,0.49,0.55,0.4,0.43,0.64,0.4,0.55,0.29,0.52,0.34,0.55,0.52,0.52,0.32,0.52" style="fill:rgb(0,0,0);font-family:AdvOTea1a7398;font-size:7.97px;stroke:none;">bottom maps illustrate climate models increase values (delta) for annual mean precipitation (mm/day) and annual mean temperature (°C) for both</text>
   <text y="558.991" x="43.597,48.076,53.217,57.449,62.096,63.833,68.05709999999999,70.64,74.457,78.602,82.74640000000001,85.38,89.859,91.596,95.8201,98.476,101.959,105.609,109.506,113.651,117.469,120.202,122.028,126.172,129.6788,132.264,136.082,138.6324,141.335,143.902,148.046,151.9513,154.545,158.443,162.587,166.73139999999998,169.398,173.543,175.8543,178.526,181.092,185.237,189.1423,191.736,195.386,199.283,203.428,205.994,210.139,212.873,216.6986,219.345,222.493,226.726,229.547,234.441,239.334" svgx:width="0.56,0.64,0.53,0.58,0.22,0.53,0.55,0.48,0.52,0.52,0.55,0.56,0.22,0.53,0.55,0.44,0.46,0.49,0.52,0.48,0.34,0.23,0.52,0.44,0.55,0.48,0.32,0.55,0.32,0.52,0.49,0.55,0.49,0.52,0.52,0.55,0.52,0.29,0.55,0.32,0.52,0.49,0.55,0.46,0.49,0.52,0.32,0.52,0.34,0.48,0.55,0.4,0.53,0.35,0.61,0.61,0.4" style="fill:rgb(0,0,0);font-family:AdvOTea1a7398;font-size:7.97px;stroke:none;">RCP4.5 and 8.5 scenarios at the end of the century (2100)</text>
  </g>
  <path style="fill:rgb(0,0,0);stroke:none;stroke-width:0.25;" d="M551.680 29.930 L43.600 29.930 L43.600 29.650 L551.680 29.650 "/>
  <g begin="text">
   <text y="26.872" x="43.597,53.96,62.579,71.339,75.746,85.523,92.692" svgx:width="0.69,0.56,0.57,0.26,0.64,0.46,0.5" style="fill:rgb(0,0,0);font-family:AdvOTea1a7398;font-size:13.95px;stroke:none;">ARTICLE</text>
   <text y="26.872" x="289.077,294.632,300.108,304.667,310.063,314.542,318.527,321.109,326.249,332.139,339.36,346.581,351.977,357.532,359.605,364.649,370.124,374.683,376.756,382.646,388.201,392.26570000000004,394.866,396.9382,399.629,403.773,406.34,408.906,413.05,416.533,418.271,422.336,426.331,430.476,434.62,436.445,438.183,442.327,445.061,449.462,453.527,456.348,461.242,462.98,465.801,470.695,474.839,479.226,483.291,486.774,491.421,494.242,498.889,503.368,507.6,510.421,515.315,518.137,522.616,525.437,528.153,533.047,537.191,541.838,546.07,548.891" svgx:width="0.7,0.69,0.57,0.68,0.56,0.5,0.55,0.64,0.74,0.91,0.91,0.68,0.7,0.26,0.64,0.69,0.57,0.26,0.74,0.7,0.51,0.55,0.26,0.55,0.52,0.32,0.32,0.52,0.44,0.22,0.51,0.51,0.52,0.52,0.23,0.22,0.52,0.34,0.5,0.51,0.35,0.61,0.22,0.35,0.61,0.52,0.56,0.51,0.44,0.58,0.35,0.58,0.56,0.53,0.35,0.61,0.35,0.56,0.35,0.35,0.61,0.52,0.58,0.53,0.35,0.35" style="fill:rgb(236,126,28);font-family:AdvOTea1a7398;font-size:7.97px;stroke:none;">NATURE COMMUNICATIONS | https://doi.org/10.1038/s41467-019-10347-1</text>
   <text y="757.134" x="43.597" svgx:width="0.58" style="fill:rgb(0,0,0);font-family:AdvTTda6f6cb8.B;font-size:7.22px;stroke:none;">4</text>
   <text y="757.134" x="109.474,114.161,118.781,122.628,127.181,130.96,134.32000000000002,136.63,140.967,145.937,152.106,158.199,162.752,167.439,169.188,173.525,178.145,181.992,183.74,188.71,193.397" svgx:width="0.7,0.69,0.57,0.68,0.56,0.5,0.55,0.64,0.74,0.91,0.91,0.68,0.7,0.26,0.64,0.69,0.57,0.26,0.74,0.7,0.51" style="fill:rgb(236,126,28);font-family:AdvOTea1a7398;font-size:6.72px;stroke:none;">NATURE COMMUNICATIONS</text>
   <text y="757.134" x="198.028,199.77519999999998,202.053,202.053,202.053,202.053,202.053,202.053,202.053,202.053,202.053,202.172,204.828,208.399,212.528,214.909,218.688,221.345,221.345,223.834,227.963,229.429,233.0,236.571,240.35,244.129,244.129,245.298,247.0452,248.189,251.685,253.851,256.016,259.513,262.452,263.918,267.348,270.777,274.38,277.877,279.417,280.883,284.38,286.687,290.424,293.853,296.234,300.363,301.829,304.21,308.339,311.836,315.709,319.138,322.077,325.998,328.378,332.299,336.078,339.649,342.03,346.159,348.646,352.426,354.806,357.187,361.316,364.813,368.734,372.305,374.685,377.037,378.24,379.98720000000003,381.131,385.96,390.788,395.617,397.083,400.58,403.801,405.966,409.463,411.77,415.058,416.524,419.739,423.236,428.696,432.126,435.623,438.844,441.01,444.507,446.813,450.102,453.182,456.679,462.258,467.718,471.215,474.712,476.252,479.332,482.553,484.719,486.259,489.756,493.253" svgx:width="0.26,0.55,0.0,0.0,0.0,0.0,0.0,0.0,0.0,0.0,0.55,0.4,0.53,0.61,0.35,0.56,0.4,0.0,0.35,0.61,0.22,0.53,0.53,0.56,0.56,0.0,0.55,0.26,0.55,0.52,0.32,0.32,0.52,0.44,0.22,0.51,0.51,0.52,0.52,0.23,0.22,0.52,0.34,0.5,0.51,0.35,0.61,0.22,0.35,0.61,0.52,0.56,0.51,0.44,0.58,0.35,0.58,0.56,0.53,0.35,0.61,0.35,0.56,0.35,0.35,0.61,0.52,0.58,0.53,0.35,0.35,0.55,0.26,0.55,0.72,0.72,0.72,0.22,0.52,0.48,0.32,0.52,0.34,0.49,0.22,0.46,0.52,0.81,0.51,0.52,0.48,0.32,0.52,0.34,0.49,0.46,0.52,0.81,0.81,0.52,0.52,0.23,0.46,0.48,0.32,0.23,0.52,0.52,0.44" style="fill:rgb(0,0,0);font-family:AdvOTea1a7398;font-size:6.72px;stroke:none;">| (2019) 10:2596 | https://doi.org/10.1038/s41467-019-10347-1 | www.nature.com/naturecommunications</text>
  </g>
 </g>
</svg>
