<?xml version="1.0" encoding="UTF-8"?>
<svg height="778.971" width="481.909" xmlns="http://www.w3.org/2000/svg">
 <g style="fill:none;">
  <text x="467.424" y="154.50199999999995" svg_rhmargin="470.795" style="fill:#ffffff;font-family:ENEFEE+MyriadPro-BoldCond;font-size:8.97px;font-style:NORMAL;font-weight:bold;">2</text>
  <text svg_rhmargin="467.523" transform="matrix(0.0,1.0,-1.0,0.0,638.963,-296.083)" x="467.523" y="171.44" style="fill:#0092cf;font-family:ENEEPF+MyriadPro-Cond;font-size:0.0px;font-style:NORMAL;font-weight:normal;">r</text>
  <text svg_rhmargin="467.523" transform="matrix(0.0,1.0,-1.0,0.0,641.681,-293.365)" x="467.523" y="174.158" style="fill:#0092cf;font-family:ENEEPF+MyriadPro-Cond;font-size:0.0px;font-style:NORMAL;font-weight:normal;">s</text>
  <text svg_rhmargin="467.523" transform="matrix(0.0,1.0,-1.0,0.0,644.848,-290.198)" x="467.523" y="177.325" style="fill:#0092cf;font-family:ENEEPF+MyriadPro-Cond;font-size:0.0px;font-style:NORMAL;font-weight:normal;">t</text>
  <text svg_rhmargin="467.523" transform="matrix(0.0,1.0,-1.0,0.0,647.642,-287.404)" x="467.523" y="180.119" style="fill:#0092cf;font-family:ENEEPF+MyriadPro-Cond;font-size:0.0px;font-style:NORMAL;font-weight:normal;">a</text>
  <text svg_rhmargin="467.523" transform="matrix(0.0,1.0,-1.0,0.0,651.631,-283.415)" x="467.523" y="184.108" style="fill:#0092cf;font-family:ENEEPF+MyriadPro-Cond;font-size:0.0px;font-style:NORMAL;font-weight:normal;">.</text>
  <text svg_rhmargin="467.523" transform="matrix(0.0,1.0,-1.0,0.0,653.757,-281.289)" x="467.523" y="186.234" style="fill:#0092cf;font-family:ENEEPF+MyriadPro-Cond;font-size:0.0px;font-style:NORMAL;font-weight:normal;">r</text>
  <text svg_rhmargin="467.523" transform="matrix(0.0,1.0,-1.0,0.0,656.323,-278.723)" x="467.523" y="188.8" style="fill:#0092cf;font-family:ENEEPF+MyriadPro-Cond;font-size:0.0px;font-style:NORMAL;font-weight:normal;">o</text>
  <text svg_rhmargin="467.523" transform="matrix(0.0,1.0,-1.0,0.0,660.436,-274.61)" x="467.523" y="192.913" style="fill:#0092cf;font-family:ENEEPF+MyriadPro-Cond;font-size:0.0px;font-style:NORMAL;font-weight:normal;">y</text>
  <text svg_rhmargin="467.523" transform="matrix(0.0,1.0,-1.0,0.0,664.126,-270.92)" x="467.523" y="196.603" style="fill:#0092cf;font-family:ENEEPF+MyriadPro-Cond;font-size:0.0px;font-style:NORMAL;font-weight:normal;">a</text>
  <text svg_rhmargin="467.523" transform="matrix(0.0,1.0,-1.0,0.0,668.115,-266.931)" x="467.523" y="200.592" style="fill:#0092cf;font-family:ENEEPF+MyriadPro-Cond;font-size:0.0px;font-style:NORMAL;font-weight:normal;">l</text>
  <text svg_rhmargin="467.523" transform="matrix(0.0,1.0,-1.0,0.0,670.208,-264.838)" x="467.523" y="202.685" style="fill:#0092cf;font-family:ENEEPF+MyriadPro-Cond;font-size:0.0px;font-style:NORMAL;font-weight:normal;">s</text>
  <text svg_rhmargin="467.523" transform="matrix(0.0,1.0,-1.0,0.0,673.375,-261.671)" x="467.523" y="205.852" style="fill:#0092cf;font-family:ENEEPF+MyriadPro-Cond;font-size:0.0px;font-style:NORMAL;font-weight:normal;">o</text>
  <text svg_rhmargin="467.523" transform="matrix(0.0,1.0,-1.0,0.0,677.572,-257.474)" x="467.523" y="210.049" style="fill:#0092cf;font-family:ENEEPF+MyriadPro-Cond;font-size:0.0px;font-style:NORMAL;font-weight:normal;">c</text>
  <text svg_rhmargin="467.523" transform="matrix(0.0,1.0,-1.0,0.0,680.882,-254.164)" x="467.523" y="213.359" style="fill:#0092cf;font-family:ENEEPF+MyriadPro-Cond;font-size:0.0px;font-style:NORMAL;font-weight:normal;">i</text>
  <text svg_rhmargin="467.523" transform="matrix(0.0,1.0,-1.0,0.0,682.898,-252.148)" x="467.523" y="215.375" style="fill:#0092cf;font-family:ENEEPF+MyriadPro-Cond;font-size:0.0px;font-style:NORMAL;font-weight:normal;">e</text>
  <text svg_rhmargin="467.523" transform="matrix(0.0,1.0,-1.0,0.0,686.876,-248.17)" x="467.523" y="219.353" style="fill:#0092cf;font-family:ENEEPF+MyriadPro-Cond;font-size:0.0px;font-style:NORMAL;font-weight:normal;">t</text>
  <text svg_rhmargin="467.523" transform="matrix(0.0,1.0,-1.0,0.0,689.784,-245.262)" x="467.523" y="222.261" style="fill:#0092cf;font-family:ENEEPF+MyriadPro-Cond;font-size:0.0px;font-style:NORMAL;font-weight:normal;">y</text>
  <text svg_rhmargin="467.523" transform="matrix(0.0,1.0,-1.0,0.0,693.575,-241.471)" x="467.523" y="226.052" style="fill:#0092cf;font-family:ENEEPF+MyriadPro-Cond;font-size:0.0px;font-style:NORMAL;font-weight:normal;">p</text>
  <text svg_rhmargin="467.523" transform="matrix(0.0,1.0,-1.0,0.0,697.948,-237.098)" x="467.523" y="230.425" style="fill:#0092cf;font-family:ENEEPF+MyriadPro-Cond;font-size:0.0px;font-style:NORMAL;font-weight:normal;">u</text>
  <text svg_rhmargin="467.523" transform="matrix(0.0,1.0,-1.0,0.0,702.31,-232.736)" x="467.523" y="234.787" style="fill:#0092cf;font-family:ENEEPF+MyriadPro-Cond;font-size:0.0px;font-style:NORMAL;font-weight:normal;">b</text>
  <text svg_rhmargin="467.523" transform="matrix(0.0,1.0,-1.0,0.0,706.682,-228.364)" x="467.523" y="239.159" style="fill:#0092cf;font-family:ENEEPF+MyriadPro-Cond;font-size:0.0px;font-style:NORMAL;font-weight:normal;">l</text>
  <text svg_rhmargin="467.523" transform="matrix(0.0,1.0,-1.0,0.0,708.775,-226.271)" x="467.523" y="241.252" style="fill:#0092cf;font-family:ENEEPF+MyriadPro-Cond;font-size:0.0px;font-style:NORMAL;font-weight:normal;">i</text>
  <text svg_rhmargin="467.523" transform="matrix(0.0,1.0,-1.0,0.0,710.792,-224.254)" x="467.523" y="243.269" style="fill:#0092cf;font-family:ENEEPF+MyriadPro-Cond;font-size:0.0px;font-style:NORMAL;font-weight:normal;">s</text>
  <text svg_rhmargin="467.523" transform="matrix(0.0,1.0,-1.0,0.0,713.959,-221.087)" x="467.523" y="246.436" style="fill:#0092cf;font-family:ENEEPF+MyriadPro-Cond;font-size:0.0px;font-style:NORMAL;font-weight:normal;">h</text>
  <text svg_rhmargin="467.523" transform="matrix(0.0,1.0,-1.0,0.0,718.397,-216.649)" x="467.523" y="250.874" style="fill:#0092cf;font-family:ENEEPF+MyriadPro-Cond;font-size:0.0px;font-style:NORMAL;font-weight:normal;">i</text>
  <text svg_rhmargin="467.523" transform="matrix(0.0,1.0,-1.0,0.0,720.414,-214.632)" x="467.523" y="252.891" style="fill:#0092cf;font-family:ENEEPF+MyriadPro-Cond;font-size:0.0px;font-style:NORMAL;font-weight:normal;">n</text>
  <text svg_rhmargin="467.523" transform="matrix(0.0,1.0,-1.0,0.0,724.852,-210.194)" x="467.523" y="257.329" style="fill:#0092cf;font-family:ENEEPF+MyriadPro-Cond;font-size:0.0px;font-style:NORMAL;font-weight:normal;">g</text>
  <text svg_rhmargin="467.523" transform="matrix(0.0,1.0,-1.0,0.0,728.982,-206.064)" x="467.523" y="261.459" style="fill:#0092cf;font-family:ENEEPF+MyriadPro-Cond;font-size:0.0px;font-style:NORMAL;font-weight:normal;">.</text>
  <text svg_rhmargin="467.523" transform="matrix(0.0,1.0,-1.0,0.0,731.106,-203.94)" x="467.523" y="263.583" style="fill:#0092cf;font-family:ENEEPF+MyriadPro-Cond;font-size:0.0px;font-style:NORMAL;font-weight:normal;">o</text>
  <text svg_rhmargin="467.523" transform="matrix(0.0,1.0,-1.0,0.0,735.304,-199.742)" x="467.523" y="267.781" style="fill:#0092cf;font-family:ENEEPF+MyriadPro-Cond;font-size:0.0px;font-style:NORMAL;font-weight:normal;">r</text>
  <text svg_rhmargin="467.523" transform="matrix(0.0,1.0,-1.0,0.0,737.868,-197.178)" x="467.523" y="270.345" style="fill:#0092cf;font-family:ENEEPF+MyriadPro-Cond;font-size:0.0px;font-style:NORMAL;font-weight:normal;">g</text>
  <text svg_rhmargin="467.523" transform="matrix(0.0,1.0,-1.0,0.0,747.727,-187.319)" x="467.523" y="280.204" style="fill:#0092cf;font-family:ENEFFE+MyriadPro-CondIt;font-size:0.0px;font-style:ITALIC;font-weight:normal;">P</text>
  <text svg_rhmargin="467.523" transform="matrix(0.0,1.0,-1.0,0.0,752.002,-183.044)" x="467.523" y="284.479" style="fill:#0092cf;font-family:ENEFFE+MyriadPro-CondIt;font-size:0.0px;font-style:ITALIC;font-weight:normal;">h</text>
  <text svg_rhmargin="467.523" transform="matrix(0.0,1.0,-1.0,0.0,756.313,-178.733)" x="467.523" y="288.79" style="fill:#0092cf;font-family:ENEFFE+MyriadPro-CondIt;font-size:0.0px;font-style:ITALIC;font-weight:normal;">i</text>
  <text svg_rhmargin="467.523" transform="matrix(0.0,1.0,-1.0,0.0,758.275,-176.771)" x="467.523" y="290.752" style="fill:#0092cf;font-family:ENEFFE+MyriadPro-CondIt;font-size:0.0px;font-style:ITALIC;font-weight:normal;">l</text>
  <text svg_rhmargin="467.523" transform="matrix(0.0,1.0,-1.0,0.0,759.894,-175.152)" x="467.523" y="292.371" style="fill:#0092cf;font-family:ENEFFE+MyriadPro-CondIt;font-size:0.0px;font-style:ITALIC;font-weight:normal;">.</text>
  <text svg_rhmargin="467.523" transform="matrix(0.0,1.0,-1.0,0.0,763.867,-171.179)" x="467.523" y="296.344" style="fill:#0092cf;font-family:ENEFFE+MyriadPro-CondIt;font-size:0.0px;font-style:ITALIC;font-weight:normal;">T</text>
  <text svg_rhmargin="467.523" transform="matrix(0.0,1.0,-1.0,0.0,767.152,-167.894)" x="467.523" y="299.629" style="fill:#0092cf;font-family:ENEFFE+MyriadPro-CondIt;font-size:0.0px;font-style:ITALIC;font-weight:normal;">r</text>
  <text svg_rhmargin="467.523" transform="matrix(0.0,1.0,-1.0,0.0,769.637,-165.409)" x="467.523" y="302.114" style="fill:#0092cf;font-family:ENEFFE+MyriadPro-CondIt;font-size:0.0px;font-style:ITALIC;font-weight:normal;">a</text>
  <text svg_rhmargin="467.523" transform="matrix(0.0,1.0,-1.0,0.0,773.803,-161.243)" x="467.523" y="306.28" style="fill:#0092cf;font-family:ENEFFE+MyriadPro-CondIt;font-size:0.0px;font-style:ITALIC;font-weight:normal;">n</text>
  <text svg_rhmargin="467.523" transform="matrix(0.0,1.0,-1.0,0.0,778.115,-156.931)" x="467.523" y="310.592" style="fill:#0092cf;font-family:ENEFFE+MyriadPro-CondIt;font-size:0.0px;font-style:ITALIC;font-weight:normal;">s</text>
  <text svg_rhmargin="467.523" transform="matrix(0.0,1.0,-1.0,0.0,781.093,-153.953)" x="467.523" y="313.57" style="fill:#0092cf;font-family:ENEFFE+MyriadPro-CondIt;font-size:0.0px;font-style:ITALIC;font-weight:normal;">.</text>
  <text svg_rhmargin="467.523" transform="matrix(0.0,1.0,-1.0,0.0,785.066,-149.98)" x="467.523" y="317.543" style="fill:#0092cf;font-family:ENEFFE+MyriadPro-CondIt;font-size:0.0px;font-style:ITALIC;font-weight:normal;">R</text>
  <text svg_rhmargin="467.523" transform="matrix(0.0,1.0,-1.0,0.0,789.431,-145.615)" x="467.523" y="321.908" style="fill:#0092cf;font-family:ENEFFE+MyriadPro-CondIt;font-size:0.0px;font-style:ITALIC;font-weight:normal;">.</text>
  <text svg_rhmargin="467.523" transform="matrix(0.0,1.0,-1.0,0.0,793.138,-141.908)" x="467.523" y="325.615" style="fill:#0092cf;font-family:ENEFFE+MyriadPro-CondIt;font-size:0.0px;font-style:ITALIC;font-weight:normal;">S</text>
  <text svg_rhmargin="467.523" transform="matrix(0.0,1.0,-1.0,0.0,796.936,-138.11)" x="467.523" y="329.413" style="fill:#0092cf;font-family:ENEFFE+MyriadPro-CondIt;font-size:0.0px;font-style:ITALIC;font-weight:normal;">o</text>
  <text svg_rhmargin="467.523" transform="matrix(0.0,1.0,-1.0,0.0,801.013,-134.033)" x="467.523" y="333.49" style="fill:#0092cf;font-family:ENEFFE+MyriadPro-CondIt;font-size:0.0px;font-style:ITALIC;font-weight:normal;">c</text>
  <text svg_rhmargin="467.523" transform="matrix(0.0,1.0,-1.0,0.0,804.082,-130.964)" x="467.523" y="336.559" style="fill:#0092cf;font-family:ENEFFE+MyriadPro-CondIt;font-size:0.0px;font-style:ITALIC;font-weight:normal;">.</text>
  <text svg_rhmargin="467.523" transform="matrix(0.0,1.0,-1.0,0.0,808.054,-126.992)" x="467.523" y="340.531" style="fill:#0092cf;font-family:ENEFFE+MyriadPro-CondIt;font-size:0.0px;font-style:ITALIC;font-weight:normal;">A</text>
  <text svg_rhmargin="467.523" transform="matrix(0.0,1.0,-1.0,0.0,814.433,-120.613)" x="467.523" y="346.91" style="fill:#0092cf;font-family:ENEFEE+MyriadPro-BoldCond;font-size:0.0px;font-style:NORMAL;font-weight:bold;">3</text>
  <text svg_rhmargin="467.523" transform="matrix(0.0,1.0,-1.0,0.0,818.394,-116.652)" x="467.523" y="350.871" style="fill:#0092cf;font-family:ENEFEE+MyriadPro-BoldCond;font-size:0.0px;font-style:NORMAL;font-weight:bold;">7</text>
  <text svg_rhmargin="467.523" transform="matrix(0.0,1.0,-1.0,0.0,822.256,-112.79)" x="467.523" y="354.733" style="fill:#0092cf;font-family:ENEFEE+MyriadPro-BoldCond;font-size:0.0px;font-style:NORMAL;font-weight:bold;">6</text>
  <text svg_rhmargin="467.523" transform="matrix(0.0,1.0,-1.0,0.0,826.926,-108.12)" x="467.523" y="359.403" style="fill:#0092cf;font-family:ENEEPF+MyriadPro-Cond;font-size:0.0px;font-style:NORMAL;font-weight:normal;">:</text>
  <text svg_rhmargin="467.523" transform="matrix(0.0,1.0,-1.0,0.0,831.038,-104.008)" x="467.523" y="363.515" style="fill:#0092cf;font-family:ENEEPF+MyriadPro-Cond;font-size:0.0px;font-style:NORMAL;font-weight:normal;">2</text>
  <text svg_rhmargin="467.523" transform="matrix(0.0,1.0,-1.0,0.0,834.72,-100.326)" x="467.523" y="367.197" style="fill:#0092cf;font-family:ENEEPF+MyriadPro-Cond;font-size:0.0px;font-style:NORMAL;font-weight:normal;">0</text>
  <text svg_rhmargin="467.523" transform="matrix(0.0,1.0,-1.0,0.0,838.94,-96.106)" x="467.523" y="371.417" style="fill:#0092cf;font-family:ENEEPF+MyriadPro-Cond;font-size:0.0px;font-style:NORMAL;font-weight:normal;">1</text>
  <text svg_rhmargin="467.523" transform="matrix(0.0,1.0,-1.0,0.0,841.878,-93.168)" x="467.523" y="374.355" style="fill:#0092cf;font-family:ENEEPF+MyriadPro-Cond;font-size:0.0px;font-style:NORMAL;font-weight:normal;">7</text>
  <text svg_rhmargin="467.523" transform="matrix(0.0,1.0,-1.0,0.0,845.309,-89.737)" x="467.523" y="377.786" style="fill:#0092cf;font-family:ENEEPF+MyriadPro-Cond;font-size:0.0px;font-style:NORMAL;font-weight:normal;">0</text>
  <text svg_rhmargin="467.523" transform="matrix(0.0,1.0,-1.0,0.0,849.529,-85.517)" x="467.523" y="382.006" style="fill:#0092cf;font-family:ENEEPF+MyriadPro-Cond;font-size:0.0px;font-style:NORMAL;font-weight:normal;">3</text>
  <text svg_rhmargin="467.523" transform="matrix(0.0,1.0,-1.0,0.0,853.191,-81.855)" x="467.523" y="385.668" style="fill:#0092cf;font-family:ENEEPF+MyriadPro-Cond;font-size:0.0px;font-style:NORMAL;font-weight:normal;">3</text>
  <text svg_rhmargin="467.523" transform="matrix(0.0,1.0,-1.0,0.0,856.852,-78.194)" x="467.523" y="389.329" style="fill:#0092cf;font-family:ENEEPF+MyriadPro-Cond;font-size:0.0px;font-style:NORMAL;font-weight:normal;">2</text>
  <text svg_rhmargin="461.169" transform="matrix(0.0,1.0,-1.0,0.0,633.464,-288.874)" x="461.169" y="172.295" style="fill:#000000;font-family:ENEELF+Palatino-Roman;font-size:0.0px;font-style:NORMAL;font-weight:normal;">.</text>
  <text svg_rhmargin="461.169" transform="matrix(0.0,1.0,-1.0,0.0,637.409,-284.929)" x="461.169" y="176.24" style="fill:#000000;font-family:ENEELF+Palatino-Roman;font-size:0.0px;font-style:NORMAL;font-weight:normal;">.</text>
  <text svg_rhmargin="461.169" transform="matrix(0.0,1.0,-1.0,0.0,641.354,-280.984)" x="461.169" y="180.185" style="fill:#000000;font-family:ENEELF+Palatino-Roman;font-size:0.0px;font-style:NORMAL;font-weight:normal;">.</text>
  <text svg_rhmargin="461.169" transform="matrix(0.0,1.0,-1.0,0.0,645.3,-277.038)" x="461.169" y="184.131" style="fill:#000000;font-family:ENEELF+Palatino-Roman;font-size:0.0px;font-style:NORMAL;font-weight:normal;">.</text>
  <text svg_rhmargin="461.169" transform="matrix(0.0,1.0,-1.0,0.0,649.245,-273.093)" x="461.169" y="188.076" style="fill:#000000;font-family:ENEELF+Palatino-Roman;font-size:0.0px;font-style:NORMAL;font-weight:normal;">.</text>
  <text svg_rhmargin="461.169" transform="matrix(0.0,1.0,-1.0,0.0,653.19,-269.148)" x="461.169" y="192.021" style="fill:#000000;font-family:ENEELF+Palatino-Roman;font-size:0.0px;font-style:NORMAL;font-weight:normal;">.</text>
  <text svg_rhmargin="461.169" transform="matrix(0.0,1.0,-1.0,0.0,657.135,-265.203)" x="461.169" y="195.966" style="fill:#000000;font-family:ENEELF+Palatino-Roman;font-size:0.0px;font-style:NORMAL;font-weight:normal;">.</text>
  <text svg_rhmargin="461.169" transform="matrix(0.0,1.0,-1.0,0.0,661.08,-261.258)" x="461.169" y="199.911" style="fill:#000000;font-family:ENEELF+Palatino-Roman;font-size:0.0px;font-style:NORMAL;font-weight:normal;">.</text>
  <text svg_rhmargin="461.169" transform="matrix(0.0,1.0,-1.0,0.0,665.026,-257.312)" x="461.169" y="203.857" style="fill:#000000;font-family:ENEELF+Palatino-Roman;font-size:0.0px;font-style:NORMAL;font-weight:normal;">.</text>
  <text svg_rhmargin="461.169" transform="matrix(0.0,1.0,-1.0,0.0,668.971,-253.367)" x="461.169" y="207.802" style="fill:#000000;font-family:ENEELF+Palatino-Roman;font-size:0.0px;font-style:NORMAL;font-weight:normal;">.</text>
  <text svg_rhmargin="461.169" transform="matrix(0.0,1.0,-1.0,0.0,672.916,-249.422)" x="461.169" y="211.747" style="fill:#000000;font-family:ENEELF+Palatino-Roman;font-size:0.0px;font-style:NORMAL;font-weight:normal;">.</text>
  <text svg_rhmargin="461.169" transform="matrix(0.0,1.0,-1.0,0.0,676.861,-245.477)" x="461.169" y="215.692" style="fill:#000000;font-family:ENEELF+Palatino-Roman;font-size:0.0px;font-style:NORMAL;font-weight:normal;">.</text>
  <text svg_rhmargin="461.169" transform="matrix(0.0,1.0,-1.0,0.0,680.806,-241.532)" x="461.169" y="219.637" style="fill:#000000;font-family:ENEELF+Palatino-Roman;font-size:0.0px;font-style:NORMAL;font-weight:normal;">.</text>
  <text svg_rhmargin="461.169" transform="matrix(0.0,1.0,-1.0,0.0,684.751,-237.587)" x="461.169" y="223.582" style="fill:#000000;font-family:ENEELF+Palatino-Roman;font-size:0.0px;font-style:NORMAL;font-weight:normal;">.</text>
  <text svg_rhmargin="461.169" transform="matrix(0.0,1.0,-1.0,0.0,688.697,-233.641)" x="461.169" y="227.528" style="fill:#000000;font-family:ENEELF+Palatino-Roman;font-size:0.0px;font-style:NORMAL;font-weight:normal;">.</text>
  <text svg_rhmargin="461.169" transform="matrix(0.0,1.0,-1.0,0.0,692.642,-229.696)" x="461.169" y="231.473" style="fill:#000000;font-family:ENEELF+Palatino-Roman;font-size:0.0px;font-style:NORMAL;font-weight:normal;">.</text>
  <text svg_rhmargin="461.169" transform="matrix(0.0,1.0,-1.0,0.0,696.587,-225.751)" x="461.169" y="235.418" style="fill:#000000;font-family:ENEELF+Palatino-Roman;font-size:0.0px;font-style:NORMAL;font-weight:normal;">.</text>
  <text svg_rhmargin="461.169" transform="matrix(0.0,1.0,-1.0,0.0,700.532,-221.806)" x="461.169" y="239.363" style="fill:#000000;font-family:ENEELF+Palatino-Roman;font-size:0.0px;font-style:NORMAL;font-weight:normal;">.</text>
  <text svg_rhmargin="461.169" transform="matrix(0.0,1.0,-1.0,0.0,704.477,-217.861)" x="461.169" y="243.308" style="fill:#000000;font-family:ENEELF+Palatino-Roman;font-size:0.0px;font-style:NORMAL;font-weight:normal;">.</text>
  <text svg_rhmargin="461.169" transform="matrix(0.0,1.0,-1.0,0.0,708.423,-213.915)" x="461.169" y="247.254" style="fill:#000000;font-family:ENEELF+Palatino-Roman;font-size:0.0px;font-style:NORMAL;font-weight:normal;">.</text>
  <text svg_rhmargin="461.169" transform="matrix(0.0,1.0,-1.0,0.0,712.368,-209.97)" x="461.169" y="251.199" style="fill:#000000;font-family:ENEELF+Palatino-Roman;font-size:0.0px;font-style:NORMAL;font-weight:normal;">.</text>
  <text svg_rhmargin="461.169" transform="matrix(0.0,1.0,-1.0,0.0,716.313,-206.025)" x="461.169" y="255.144" style="fill:#000000;font-family:ENEELF+Palatino-Roman;font-size:0.0px;font-style:NORMAL;font-weight:normal;">.</text>
  <text svg_rhmargin="461.169" transform="matrix(0.0,1.0,-1.0,0.0,720.258,-202.08)" x="461.169" y="259.089" style="fill:#000000;font-family:ENEELF+Palatino-Roman;font-size:0.0px;font-style:NORMAL;font-weight:normal;">.</text>
  <text svg_rhmargin="461.169" transform="matrix(0.0,1.0,-1.0,0.0,724.203,-198.135)" x="461.169" y="263.034" style="fill:#000000;font-family:ENEELF+Palatino-Roman;font-size:0.0px;font-style:NORMAL;font-weight:normal;">.</text>
  <text svg_rhmargin="461.169" transform="matrix(0.0,1.0,-1.0,0.0,728.149,-194.189)" x="461.169" y="266.98" style="fill:#000000;font-family:ENEELF+Palatino-Roman;font-size:0.0px;font-style:NORMAL;font-weight:normal;">.</text>
  <text svg_rhmargin="461.169" transform="matrix(0.0,1.0,-1.0,0.0,732.094,-190.244)" x="461.169" y="270.925" style="fill:#000000;font-family:ENEELF+Palatino-Roman;font-size:0.0px;font-style:NORMAL;font-weight:normal;">.</text>
  <text svg_rhmargin="461.169" transform="matrix(0.0,1.0,-1.0,0.0,736.039,-186.299)" x="461.169" y="274.87" style="fill:#000000;font-family:ENEELF+Palatino-Roman;font-size:0.0px;font-style:NORMAL;font-weight:normal;">.</text>
  <text svg_rhmargin="461.169" transform="matrix(0.0,1.0,-1.0,0.0,739.984,-182.354)" x="461.169" y="278.815" style="fill:#000000;font-family:ENEELF+Palatino-Roman;font-size:0.0px;font-style:NORMAL;font-weight:normal;">.</text>
  <text svg_rhmargin="461.169" transform="matrix(0.0,1.0,-1.0,0.0,743.929,-178.409)" x="461.169" y="282.76" style="fill:#000000;font-family:ENEELF+Palatino-Roman;font-size:0.0px;font-style:NORMAL;font-weight:normal;">.</text>
  <text svg_rhmargin="461.169" transform="matrix(0.0,1.0,-1.0,0.0,747.875,-174.463)" x="461.169" y="286.706" style="fill:#000000;font-family:ENEELF+Palatino-Roman;font-size:0.0px;font-style:NORMAL;font-weight:normal;">.</text>
  <text svg_rhmargin="461.169" transform="matrix(0.0,1.0,-1.0,0.0,751.82,-170.518)" x="461.169" y="290.651" style="fill:#000000;font-family:ENEELF+Palatino-Roman;font-size:0.0px;font-style:NORMAL;font-weight:normal;">.</text>
  <text svg_rhmargin="461.169" transform="matrix(0.0,1.0,-1.0,0.0,755.765,-166.573)" x="461.169" y="294.596" style="fill:#000000;font-family:ENEELF+Palatino-Roman;font-size:0.0px;font-style:NORMAL;font-weight:normal;">.</text>
  <text svg_rhmargin="461.169" transform="matrix(0.0,1.0,-1.0,0.0,759.71,-162.628)" x="461.169" y="298.541" style="fill:#000000;font-family:ENEELF+Palatino-Roman;font-size:0.0px;font-style:NORMAL;font-weight:normal;">.</text>
  <text svg_rhmargin="461.169" transform="matrix(0.0,1.0,-1.0,0.0,763.655,-158.683)" x="461.169" y="302.486" style="fill:#000000;font-family:ENEELF+Palatino-Roman;font-size:0.0px;font-style:NORMAL;font-weight:normal;">.</text>
  <text svg_rhmargin="461.169" transform="matrix(0.0,1.0,-1.0,0.0,767.601,-154.737)" x="461.169" y="306.432" style="fill:#000000;font-family:ENEELF+Palatino-Roman;font-size:0.0px;font-style:NORMAL;font-weight:normal;">.</text>
  <text svg_rhmargin="461.169" transform="matrix(0.0,1.0,-1.0,0.0,771.546,-150.792)" x="461.169" y="310.377" style="fill:#000000;font-family:ENEELF+Palatino-Roman;font-size:0.0px;font-style:NORMAL;font-weight:normal;">.</text>
  <text svg_rhmargin="461.169" transform="matrix(0.0,1.0,-1.0,0.0,775.491,-146.847)" x="461.169" y="314.322" style="fill:#000000;font-family:ENEELF+Palatino-Roman;font-size:0.0px;font-style:NORMAL;font-weight:normal;">.</text>
  <text svg_rhmargin="461.169" transform="matrix(0.0,1.0,-1.0,0.0,779.436,-142.902)" x="461.169" y="318.267" style="fill:#000000;font-family:ENEELF+Palatino-Roman;font-size:0.0px;font-style:NORMAL;font-weight:normal;">.</text>
  <text svg_rhmargin="461.169" transform="matrix(0.0,1.0,-1.0,0.0,783.381,-138.957)" x="461.169" y="322.212" style="fill:#000000;font-family:ENEELF+Palatino-Roman;font-size:0.0px;font-style:NORMAL;font-weight:normal;">.</text>
  <text svg_rhmargin="461.169" transform="matrix(0.0,1.0,-1.0,0.0,787.327,-135.011)" x="461.169" y="326.158" style="fill:#000000;font-family:ENEELF+Palatino-Roman;font-size:0.0px;font-style:NORMAL;font-weight:normal;">.</text>
  <text svg_rhmargin="461.169" transform="matrix(0.0,1.0,-1.0,0.0,791.272,-131.066)" x="461.169" y="330.103" style="fill:#000000;font-family:ENEELF+Palatino-Roman;font-size:0.0px;font-style:NORMAL;font-weight:normal;">.</text>
  <text svg_rhmargin="461.169" transform="matrix(0.0,1.0,-1.0,0.0,795.217,-127.121)" x="461.169" y="334.048" style="fill:#000000;font-family:ENEELF+Palatino-Roman;font-size:0.0px;font-style:NORMAL;font-weight:normal;">.</text>
  <text svg_rhmargin="461.169" transform="matrix(0.0,1.0,-1.0,0.0,799.162,-123.176)" x="461.169" y="337.993" style="fill:#000000;font-family:ENEELF+Palatino-Roman;font-size:0.0px;font-style:NORMAL;font-weight:normal;">.</text>
  <text svg_rhmargin="461.169" transform="matrix(0.0,1.0,-1.0,0.0,803.108,-119.23)" x="461.169" y="341.939" style="fill:#000000;font-family:ENEELF+Palatino-Roman;font-size:0.0px;font-style:NORMAL;font-weight:normal;">.</text>
  <text svg_rhmargin="461.169" transform="matrix(0.0,1.0,-1.0,0.0,807.053,-115.285)" x="461.169" y="345.884" style="fill:#000000;font-family:ENEELF+Palatino-Roman;font-size:0.0px;font-style:NORMAL;font-weight:normal;">.</text>
  <text svg_rhmargin="461.169" transform="matrix(0.0,1.0,-1.0,0.0,810.998,-111.34)" x="461.169" y="349.829" style="fill:#000000;font-family:ENEELF+Palatino-Roman;font-size:0.0px;font-style:NORMAL;font-weight:normal;">.</text>
  <text svg_rhmargin="461.169" transform="matrix(0.0,1.0,-1.0,0.0,814.943,-107.395)" x="461.169" y="353.774" style="fill:#000000;font-family:ENEELF+Palatino-Roman;font-size:0.0px;font-style:NORMAL;font-weight:normal;">.</text>
  <text svg_rhmargin="461.169" transform="matrix(0.0,1.0,-1.0,0.0,818.888,-103.45)" x="461.169" y="357.719" style="fill:#000000;font-family:ENEELF+Palatino-Roman;font-size:0.0px;font-style:NORMAL;font-weight:normal;">.</text>
  <text svg_rhmargin="461.169" transform="matrix(0.0,1.0,-1.0,0.0,822.834,-99.504)" x="461.169" y="361.665" style="fill:#000000;font-family:ENEELF+Palatino-Roman;font-size:0.0px;font-style:NORMAL;font-weight:normal;">.</text>
  <text svg_rhmargin="461.169" transform="matrix(0.0,1.0,-1.0,0.0,826.779,-95.559)" x="461.169" y="365.61" style="fill:#000000;font-family:ENEELF+Palatino-Roman;font-size:0.0px;font-style:NORMAL;font-weight:normal;">.</text>
  <text svg_rhmargin="461.169" transform="matrix(0.0,1.0,-1.0,0.0,830.724,-91.614)" x="461.169" y="369.555" style="fill:#000000;font-family:ENEELF+Palatino-Roman;font-size:0.0px;font-style:NORMAL;font-weight:normal;">.</text>
  <text svg_rhmargin="461.169" transform="matrix(0.0,1.0,-1.0,0.0,834.669,-87.669)" x="461.169" y="373.5" style="fill:#000000;font-family:ENEELF+Palatino-Roman;font-size:0.0px;font-style:NORMAL;font-weight:normal;">.</text>
  <text svg_rhmargin="461.169" transform="matrix(0.0,1.0,-1.0,0.0,838.615,-83.723)" x="461.169" y="377.446" style="fill:#000000;font-family:ENEELF+Palatino-Roman;font-size:0.0px;font-style:NORMAL;font-weight:normal;">.</text>
  <text svg_rhmargin="461.169" transform="matrix(0.0,1.0,-1.0,0.0,842.56,-79.778)" x="461.169" y="381.391" style="fill:#000000;font-family:ENEELF+Palatino-Roman;font-size:0.0px;font-style:NORMAL;font-weight:normal;">.</text>
  <text svg_rhmargin="461.169" transform="matrix(0.0,1.0,-1.0,0.0,846.505,-75.833)" x="461.169" y="385.336" style="fill:#000000;font-family:ENEELF+Palatino-Roman;font-size:0.0px;font-style:NORMAL;font-weight:normal;">.</text>
  <text svg_rhmargin="461.169" transform="matrix(0.0,1.0,-1.0,0.0,850.45,-71.888)" x="461.169" y="389.281" style="fill:#000000;font-family:ENEELF+Palatino-Roman;font-size:0.0px;font-style:NORMAL;font-weight:normal;">.</text>
  <text svg_rhmargin="461.169" transform="matrix(0.0,1.0,-1.0,0.0,854.395,-67.943)" x="461.169" y="393.226" style="fill:#000000;font-family:ENEELF+Palatino-Roman;font-size:0.0px;font-style:NORMAL;font-weight:normal;">.</text>
  <text x="55.548,62.524,65.908,69.889,72.812,75.421,79.402,83.053,86.855,91.15,95.633,98.619,101.228,105.209,109.504,113.156,117.135,122.03,127.096,131.391,134.933,138.591,144.072,148.968,156.885,159.495,164.713,169.196,172.119,176.414,180.216,182.458,186.111,193.086,195.696,198.619,203.837,208.733,214.139,219.125,224.343,227.99,235.469,239.76399999999998,243.416,247.394,251.877,257.095,260.751,265.647,270.605,274.407,278.702,282.244,287.31,291.605,295.248,298.171,303.389,307.684,311.336,316.814,321.298,323.907,326.516,331.50100000000003,335.147,337.756,341.737,346.03200000000004,349.684,353.663,358.558,363.624,367.919,371.46099999999996,375.119,378.108,381.492,386.388,394.30499999999995,397.944,401.742,407.131,411.614,415.595,419.89,422.132,425.795,428.718,433.936" y="149.56100000000004" svg_rhmargin="438.231" style="fill:#000000;font-family:ENEELF+Palatino-Roman;font-size:8.97px;font-style:NORMAL;font-weight:normal;">Arctic sea-ice cover dominates. Although we can observe the daily ice cover from space, the</text>
  <text x="55.548,59.35,64.756,69.715,73.517,76.44,80.923,86.141,89.064,91.674,96.157,98.76599999999999,101.908,105.889,111.107,115.591,120.809,125.794,130.089,133.891,137.037,139.647,144.86499999999998,148.0,154.975,158.359,162.337,165.26,167.869,171.85,174.989,177.599,181.58,185.875,189.023,196.94,201.423,205.225,209.027,212.164,217.643,223.049,226.591,229.2,234.419,239.40400000000002,242.537,245.921,250.216,254.197,258.492,263.71,266.633,269.776,275.257,279.552,283.533,288.016,293.495,297.79,301.59200000000004,304.738,309.221,312.605,316.90000000000003,320.03,324.512,328.314,332.116,337.011,340.992,343.602,348.085,351.008,355.303,360.781,363.934,371.412,374.021,376.944,382.16200000000003,385.305,389.788,395.00600000000003,398.149,403.045,406.847,409.77,414.065,419.283,423.085,425.694,430.653,433.262" y="161.52200000000005" svg_rhmargin="438.247" style="fill:#000000;font-family:ENEELF+Palatino-Roman;font-size:8.97px;font-style:NORMAL;font-weight:normal;">substantial changes in Arctic ice mass during recent decades are associated with an ostensibly</text>
  <text x="55.548,60.956,66.175,74.093,78.389,82.873,86.676,92.083,95.626,100.11,105.069,107.68,111.97500000000001,115.483,118.47,122.954,128.344,133.733,137.117,142.014,146.641,148.88299999999998,152.392,156.875,158.368,168.827" y="173.47400000000005" svg_rhmargin="176.744" style="fill:#000000;font-family:ENEELF+Palatino-Roman;font-size:8.97px;font-style:NORMAL;font-weight:normal;">unmeasurable (approx. 1 Wm</text>
  <text x="176.742" y="170.22500000000002" svg_rhmargin="182.182" style="fill:#000000;font-family:ENEHJH+MTSY;font-size:6.97px;font-style:NORMAL;font-weight:normal;">−</text>
  <text x="182.179" y="170.22500000000002" svg_rhmargin="185.666" style="fill:#000000;font-family:ENEELF+Palatino-Roman;font-size:6.97px;font-style:NORMAL;font-weight:normal;">2</text>
  <text x="186.165,189.15099999999998,192.663,196.641,201.538,206.757,209.681,213.224,215.834,220.793,226.201,229.125,231.735,236.632,241.85,245.343,248.267,253.162,256.673,259.597,264.816,269.111,272.62,276.423,281.83,285.373,288.36,292.844,296.826,301.12100000000004,304.629,308.922,314.142,318.437,321.821,326.807,331.79200000000003,335.295,340.254,344.738,347.349,351.833,357.052,361.034,365.329,368.846,371.827,376.309,379.295,381.53700000000003,385.046,392.506,396.801,402.019,406.0,410.295,412.53700000000003,416.055,421.041,423.65,428.716,433.011" y="173.47400000000005" svg_rhmargin="438.229" style="fill:#000000;font-family:ENEELF+Palatino-Roman;font-size:8.97px;font-style:NORMAL;font-weight:normal;">) contribution to the surface energy balance [1]. Hence, given</text>
  <text x="55.549,58.473,63.692,66.302,70.10400000000001,74.34,78.138,82.434,87.653,91.456,94.066,96.99,99.6,104.667,107.277,110.201,114.188,116.43,120.677,126.156,130.452,135.519,139.815,142.425,147.322,152.711,155.321,160.541,165.526,169.757,174.24,178.478,183.5,188.908,193.392,198.611,201.535,204.145,207.069,211.553,214.477,217.087,222.154,226.44899999999998,230.678,236.085,241.305,246.784,251.08,254.623,258.425,261.349,265.833,271.053,276.532,279.142,284.361,289.346,293.569,298.466,301.452,305.692,308.616,313.836,318.13100000000003,322.359,327.812,333.219,337.201,340.125,345.533,350.017,352.941,355.551,360.448,365.667,369.469,373.695,376.305,381.523,385.765,389.563,393.859,398.343,401.33,403.94,407.922,412.21700000000004,416.463,420.445,425.342,430.409,434.704" y="185.43499999999995" svg_rhmargin="438.246" style="fill:#000000;font-family:ENEELF+Palatino-Roman;font-size:8.97px;font-style:NORMAL;font-weight:normal;">this sensitivity, developing a quantitative understanding of the ﬂuctuations in sea-ice cover</text>
  <text x="55.549,58.159,61.961,66.997,69.607,77.525,82.915,87.812,91.354,94.278,98.762,103.982,106.906,109.14800000000001,114.177,121.154,125.136,129.118,134.015,137.398,142.88,145.49,150.709,155.69400000000002,160.726,163.651,168.54600000000002,173.57,176.494,181.713,186.00799999999998,191.037,194.06,199.279,202.203,206.499,209.883,212.871,217.858,222.754,227.821,232.117,235.66,240.879,248.797,253.093,258.312,261.236,265.72,268.329,273.344,278.762,283.246,288.465,292.761,295.37,300.402,305.299,310.517,315.55,321.908,324.518,327.128,335.047,339.531,342.455,346.75,351.779,358.133,363.353,367.837,373.056,378.042,382.337,387.366,390.353,393.376,398.792,405.15,411.508,414.49399999999997,419.527,424.513,427.123,430.11,433.034" y="197.38699999999994" svg_rhmargin="438.252" style="fill:#000000;font-family:ENEELF+Palatino-Roman;font-size:8.97px;font-style:NORMAL;font-weight:normal;">is important. According to the Inter-governmental Panel on Climate Change (IPCC) Fifth</text>
  <text x="55.549,62.524,66.325,70.125,74.419,78.22,82.021,89.938,94.232,99.449,102.372,105.749,111.734,116.028,121.416,126.311,129.851,132.774,136.142,139.132,143.614,146.6,148.84199999999998,152.198,155.121,160.339,164.634,167.989,175.906,180.802,184.604,187.52700000000002,190.895,194.279,198.572,201.181,203.79,208.273,213.232,215.841,220.82600000000002,224.184,232.102,236.397,240.88,244.681,250.088,253.472,257.767,263.245,266.605,270.586,275.805,280.288,283.83,288.313,292.294,295.217,299.512,303.054,305.663,309.465,312.388,314.997,318.978,322.341,327.237,330.223,333.582,337.384,341.679,346.162,349.536,352.146,356.127,360.422,363.787,366.396,370.19800000000004,373.56,376.483,381.701,385.99600000000004,389.352,394.57,398.865,406.782,409.391,413.193,418.582,423.8,428.095,431.637,434.246" y="209.34000000000003" svg_rhmargin="438.227" style="fill:#000000;font-family:ENEELF+Palatino-Roman;font-size:8.97px;font-style:NORMAL;font-weight:normal;">Assessment Report [2], the most reliably measured characteristic of sea ice is the hemispheric</text>
  <text x="55.549,59.351,63.647,68.131,71.118,73.728,77.71,82.005,84.325,88.619,93.246,96.17,100.466,105.685,108.609,110.851,113.154,116.078,120.973,123.278,130.757,135.976,138.587,142.569,147.78699999999998,150.102,158.022,162.919,168.398,172.694,175.304,179.106,181.406,185.889,189.273,193.56799999999998,195.879,198.803,204.211,209.43,213.726,219.204,221.511,225.994,231.213,236.691,238.999,244.388,248.872,252.415,256.899,264.817,269.113,272.037,275.58,278.19,282.674,287.158,290.082,292.692,297.589,302.808,306.61,308.902,312.285,316.581,322.007,327.226,331.522,337.001,339.243,341.546,346.218,351.113,353.427,356.351,361.57,364.18,367.982,370.283,374.576,379.795,385.275,387.517,389.829,397.308,401.603,403.905,407.883,412.78,420.698,426.088,430.572,433.956" y="221.30100000000004" svg_rhmargin="438.251" style="fill:#000000;font-family:ENEELF+Palatino-Roman;font-size:8.97px;font-style:NORMAL;font-weight:normal;">sea-ice extent, to which models are tuned and parametrizations reﬁned. To this end, we compare</text>
  <text x="55.549,58.473,63.692,67.987,70.226,74.028,76.952,81.437,84.36,86.971,90.773,93.697,96.307,100.289,104.773,107.38199999999999,109.633,113.431,116.355,119.83,125.237,129.219,132.143,137.551,140.935,145.23,147.46,152.356,155.34199999999998,157.577,161.379,165.863,168.787,173.083,175.693,178.303,180.913,183.837,188.13199999999998,190.38,195.277,200.236,204.039,208.334,211.877,216.944,221.428,224.352,226.962,231.859,237.078,240.88,243.117,248.013,250.999,253.234,255.844,259.826,264.12100000000004,266.369,270.664,275.292,278.216,282.512,287.731,290.654,292.897,295.821,300.716,302.959,305.883,311.102,315.586,318.509,320.743,323.732,327.116,332.012,339.929,342.165,350.085,354.982,360.461,364.757,367.366,369.608,374.504,379.912,382.836,388.226,393.633,396.557" y="233.25300000000004" svg_rhmargin="398.799" style="fill:#000000;font-family:ENEELF+Palatino-Roman;font-size:8.97px;font-style:NORMAL;font-weight:normal;">the statistical structure of satellite observations of ice extent to that from model output.</text>
  <text x="67.501,72.997,78.216,82.511,84.237,89.222,91.831,96.727,101.685,106.169,108.77799999999999,110.497,114.476,117.085,119.694,127.612,132.095,135.018,139.313,141.03,148.95,153.846,159.324,163.619,166.228,170.03,171.754,174.743,181.584,187.941,196.423,200.225,203.21099999999998,204.941,207.927,211.311,216.207,224.124,225.837,228.76,233.978,238.273,239.999,243.021,248.437,254.794,261.151,262.867,269.842,273.644,277.446,281.741,285.542,289.344,297.261,301.556,306.775,309.698,311.437,317.422,321.717,327.106,332.002,335.543,338.466,340.187,344.67,346.397,349.383,356.359,362.348,366.832,369.818,371.539,376.93,380.314,385.211,387.309,391.604,395.585,398.508,400.238,403.161,408.379,412.67400000000004,414.391,421.367,424.751,428.732,431.655,434.264" y="245.20500000000004" svg_rhmargin="438.245" style="fill:#000000;font-family:ENEELF+Palatino-Roman;font-size:8.97px;font-style:NORMAL;font-weight:normal;">The global climate models (GCMs) from the IPCC Assessment Report 5 (AR5) project the Arctic</text>
  <text x="55.549,58.473,63.367999999999995,66.591,71.55,75.845,79.065,81.675,85.657,89.953,92.939,95.926,99.31,103.606,107.901,111.112,116.071,121.056,124.279,127.203,132.422,136.71699999999998,139.937,147.855,150.465,155.945,161.424,164.034,168.32899999999998,171.54,176.436,179.422,182.638,185.562,190.781,193.391,197.19299999999998,200.411,204.389,208.685,213.904,216.828,222.236,225.779,229.766,232.00799999999998,235.229,242.708,247.927,252.223,255.607,259.9,264.384,268.18600000000004,271.404,274.328,279.547,283.84200000000004,287.053,292.443,295.827,300.123,305.189,307.8,312.696,318.104,321.906,325.124,329.606,333.408,337.211,341.507,345.31,349.112,357.03,361.326,366.546,369.469,372.702,378.093,381.477,386.374,388.473,392.769,396.751,399.675,403.97,409.44800000000004,412.664,415.588,420.808,423.418,427.22,430.437,433.362" y="257.16600000000005" svg_rhmargin="438.258" style="fill:#000000;font-family:ENEELF+Palatino-Roman;font-size:8.97px;font-style:NORMAL;font-weight:normal;">to be ice-free by the middle of this century, whereas the previous assessment projected this to</text>
  <text x="55.549,60.444,64.425,68.407,73.813,77.355,79.42,83.902,86.825,88.897,91.82,97.039,101.334,103.393,107.688,112.907,118.38499999999999,120.449,125.346,128.332,130.395,133.318,138.536,142.831,144.891,148.872,153.167,158.385,161.308,166.715,170.257,174.244,176.486,178.546,184.045,189.264,193.559,195.627,202.603,208.593,213.076,215.144,223.064,227.96,233.439,237.733,240.343,244.14499999999998,246.202,251.594,254.978,259.874,261.972,266.267,270.248,273.171,275.234,278.158,283.376,287.671,289.73,296.706,300.09,304.071,306.994,309.604,313.585,315.642,318.565,323.46,325.531,330.49,334.785,336.844,339.454,343.435,347.729,350.715,353.701,357.085,361.38,365.675,367.734,372.218,376.02000000000004,378.086,382.381,386.864,390.406,393.015,398.0,400.063,404.545,408.34700000000004,410.414,414.897,419.38,423.863,428.346,430.415,433.338" y="269.119" svg_rhmargin="438.234" style="fill:#000000;font-family:ENEELF+Palatino-Roman;font-size:8.97px;font-style:NORMAL;font-weight:normal;">occur at the end of the century. The AR5 models project the Arctic to be ice-free as early as 2030 to</text>
  <text x="55.549,60.032,63.833999999999996,65.855,68.464,72.947,75.87,80.165,82.179,86.662,90.46400000000001,92.485,96.968,101.451,105.935,110.418,112.441,115.427,118.414,122.896,125.884,128.126,130.141,135.568,140.555,142.797,144.803,149.286,151.31,153.921,159.13899999999998,161.157,164.143,168.626,171.612,174.599,176.84099999999998,178.856,184.354,189.573,193.868,195.882,201.102,203.712,208.698,213.916,215.925,218.535,223.755,226.679,230.975,234.358,237.345,245.263,250.16,255.639,259.935,262.544,264.552,269.619,274.103,277.646,280.256,284.74,289.699,292.309,294.919,297.529,300.453,305.438,307.446,311.929,317.148,322.62600000000003,324.645,327.569,332.788,337.083,339.097,344.486,348.971,352.513,356.997,364.916,369.211,372.135,375.678,378.288,382.772,387.256,390.18,392.79,397.687,402.90500000000003,404.914,408.712,412.694,417.913,422.209,430.127,434.423" y="281.071" svg_rhmargin="438.225" style="fill:#000000;font-family:ENEELF+Palatino-Roman;font-size:8.97px;font-style:NORMAL;font-weight:normal;">as late as 2100 ([3], ﬁg. 1 in [4]). The high inter-model variability and the parametrization schemes</text>
  <text x="55.55,60.033,65.251,70.729,72.64,75.565,80.972,86.19,88.8,94.018,99.003,100.912,106.322,110.124,114.418,119.896,121.808,124.796,129.091,131.333,136.318,138.56,140.476,143.399,148.617,152.91199999999998,154.818,158.62,162.915,167.398,170.384,172.993,176.974,181.26899999999998,183.185,187.667,190.276,195.234,199.529,205.008,209.903,212.14499999999998,214.052,218.031,220.64,225.536,230.942,236.421,240.222,242.464,244.38,248.359,253.254,258.473,263.539,267.834,271.815,274.738,277.347,282.413,286.708,288.623,294.012,297.396,302.291,306.273,310.567,314.369,318.171,322.466,326.268,329.25399999999996,331.173,334.146,338.628,343.11,347.592,350.578,352.489,356.467,361.363,366.581,370.383,373.306,375.915,378.839,384.245,387.168,391.463,393.369,398.356,402.651,407.636,409.554,414.037,417.839,423.227,427.522,431.503,434.426" y="293.032" svg_rhmargin="438.228" style="fill:#000000;font-family:ENEELF+Palatino-Roman;font-size:8.97px;font-style:NORMAL;font-weight:normal;">and tuning used (e.g. the sea-ice albedo, clouds, convective processes) [5–9] constitute key aspects</text>
  <text x="55.55,60.447,63.433,65.676,68.6,73.82,78.115,80.725,84.267,86.503,91.57,95.866,99.409,103.893,107.875,110.485,113.409,118.394,120.636,125.12,128.043,130.286,135.676,139.06,143.956,146.056,150.351,154.333,157.257,159.867,165.087,170.072,172.305,175.229,180.448,184.743,186.982,190.784,193.708,198.192,201.116,205.411,207.659,212.556,215.542,217.776,220.7,225.919,230.214,232.453,235.063,239.045,243.33999999999997,245.588,249.566,254.463,259.53,263.826,266.706" y="304.984" svg_rhmargin="268.948" style="fill:#000000;font-family:ENEELF+Palatino-Roman;font-size:8.97px;font-style:NORMAL;font-weight:normal;">of their veracity at projecting the state of the ice cover.</text>
  <text x="67.503,72.174,77.069,79.788,84.81,90.216,94.7,99.918,102.841,105.45,108.436,113.421,116.131,119.054,124.273,128.56799999999998,131.283,136.735,142.142,146.123,149.046,154.453,158.936,161.859,164.468,169.364,174.582,178.384,181.089,183.699,188.917,191.637,194.56,199.779,204.07399999999998,206.789,209.399,213.38,217.67499999999998,220.391,224.369,229.265,234.331,238.626,242.168,244.89,247.878,251.262,256.158,264.075,266.788,272.269,276.753,281.738,285.54,288.254,291.179,296.07399999999996,298.793,304.274,308.569,312.55,317.033,322.512,326.807,330.60900000000004,333.322,340.8,345.095,347.811,353.03,357.513,362.579,366.874,369.59,374.073,379.291,383.775,386.384,391.369,395.171,399.466,404.944,407.674,411.475,415.959,418.882,423.176,425.786,428.395,431.004,433.927" y="316.936" svg_rhmargin="438.222" style="fill:#000000;font-family:ENEELF+Palatino-Roman;font-size:8.97px;font-style:NORMAL;font-weight:normal;">To quantify the ﬂuctuations in the ice cover from days to decades we have analysed satellite</text>
  <text x="55.55,60.94,65.424,69.227,73.03,75.64,80.707,85.002,87.331,95.249,97.859,101.841,105.225,110.122,117.601,122.085,127.152,131.447,133.758,139.237,143.722,146.646,151.129,153.45,158.858,162.66,165.271,170.49,175.47500000000002,177.798,182.281,184.603,192.521,197.929,200.539,203.463,206.073,209.06,212.602,217.087,221.068,223.992,228.477,231.086,233.4,241.32,245.616,248.54,253.759,258.656,264.135,269.032,271.642,276.538,281.524,286.509,288.815,291.783,296.265,300.747,303.733,305.975,308.296,316.432,320.72700000000003,323.057,326.859,329.783,335.191,340.67,343.28,347.576,353.05400000000003,355.38,358.304,363.523,367.81800000000004,370.129,377.106,380.49,384.472,387.396,390.006,393.98699999999997,396.306,400.602,405.624,411.031,413.642,418.708,423.193,425.803,430.098,435.318" y="328.898" svg_rhmargin="438.241" style="fill:#000000;font-family:ENEELF+Palatino-Roman;font-size:8.97px;font-style:NORMAL;font-weight:normal;">passive microwave data using a multifractal methodology [10]. We studied the Arctic equivalent</text>
  <text x="55.55,59.352,63.648,68.132,71.119,73.729,77.711,82.006,84.128,88.421,93.049,95.973,100.269,105.488,108.411,110.519,113.506,118.985,122.008,127.487,130.474,132.71599999999998,134.812,142.291,147.51,151.806,155.19,159.48499999999999,161.589,164.513,169.732,174.027,176.141,181.62,184.642,190.12,192.221,194.831,198.63299999999998,200.744,206.224,210.519,215.945,221.164,225.46,230.93800000000002,233.048,237.532,241.334,243.445,246.369,251.588,255.88299999999998,257.988,260.912,265.808,268.732,273.216,275.825,277.932,281.731,287.138,290.681,293.668,298.152,302.134,306.42900000000003,308.542,313.026,316.41,320.706,325.19,327.432,329.546,332.156,337.375,341.357,343.967,349.375,354.854,357.464,362.684,367.66900000000004,369.767,372.377,376.861,382.081,387.56,389.802,391.907,397.127,402.024,405.566,408.49,413.708,415.817,420.713,423.699,425.807,428.731,433.95" y="340.85" svg_rhmargin="438.245" style="fill:#000000;font-family:ENEELF+Palatino-Roman;font-size:8.97px;font-style:NORMAL;font-weight:normal;">sea-ice extent (EIE), where the EIE is deﬁned as the total surface area, including land, north of the</text>
  <text x="55.55,60.034,64.93,70.15,74.634,77.244,80.23,88.149,92.445,96.929,102.147,104.408,107.018,111.0,115.295,117.56,121.853,127.333,132.319,136.61399999999998,138.871,141.481,145.965,148.889,151.499,154.423,159.831,165.31,169.605,171.862,176.346,181.565,187.043,189.305,192.229,197.448,202.856,206.658,208.913,211.523,215.325,217.589,222.98,226.364,231.261,236.65,241.547,245.089,248.013,250.624,255.52,260.739,265.224,267.83299999999997,270.074,272.998,277.893,280.153,283.077,288.297,292.59200000000004,294.849,298.651,301.261,306.481,310.776,313.042,317.939,320.925,323.186,326.11,331.329,335.624,337.881,340.491,344.473,348.76800000000003,351.035,355.328,360.807,365.793,370.088,372.355,374.965,379.449,382.373,384.983,387.907,393.315,398.794,403.089,405.337,408.324,412.806,417.287,420.276,422.51800000000003,424.776,427.765,433.246" y="352.802" svg_rhmargin="438.231" style="fill:#000000;font-family:ENEELF+Palatino-Roman;font-size:8.97px;font-style:NORMAL;font-weight:normal;">zonal-mean ice edge latitude and thus is proportional to the sine of the ice edge latitude [11]. (By</text>
  <text x="55.55,59.352,62.276,67.684,73.163,78.149,80.76,85.979,90.964,93.261,96.184,101.404,105.699,107.992,113.472,116.494,121.972,124.271,129.167,134.387,138.682,140.975,148.895,151.505,156.725,159.335,167.253,169.863,174.347,178.643,182.445,184.737,188.719,193.615,198.099,201.902,204.826,209.31,211.919,214.224,218.518,221.344,224.332,228.628,232.61,235.534,239.337,241.579,244.565,246.871,255.007,259.302,261.605,267.03,272.25,277.728,280.026,282.95,288.169,292.654,295.577,297.874,300.798,306.017,310.312,312.606,318.085,321.108,326.586,328.884,331.494,335.29600000000005,337.588,342.071,344.374,352.292,357.699,360.309,363.233,365.844,368.83,372.373,376.857,380.839,383.763,388.247,390.856,393.143,395.753,400.971,403.268,406.193,408.803,416.721,421.016,423.31,426.279,430.761,435.243" y="364.763" svg_rhmargin="438.229" style="fill:#000000;font-family:ENEELF+Palatino-Roman;font-size:8.97px;font-style:NORMAL;font-weight:normal;">studying the EIE one minimizes coastal effects.) We ﬁnd that the EIE is a multifractal in time [10]</text>
  <text x="55.55,60.033,65.251,70.729,73.487,76.41,81.628,87.035,90.837,93.578,97.556,102.04,107.258,112.476,117.372,120.295,123.051,128.011,132.30599999999998,135.058,139.351,143.978,149.367,151.976,156.459,159.069,164.287,168.582,174.06,176.808,181.291,185.093,187.852,192.335,197.553,200.309,204.792,210.199,213.122,218.017,221.003,224.387,228.682,233.667,237.051,241.344,245.146,248.948,251.557,256.623,260.918,263.661,269.049,272.433,277.329,281.31,285.605,289.407,293.209,295.959,303.437,306.046,308.969,314.187,316.943,321.426,324.178,327.98,330.589,335.808,340.793,343.402,347.697,350.45,353.373,355.982,363.9,368.195,370.937,374.739,378.72,383.203,385.813,390.108,392.869,395.858,400.341,403.094,406.892,411.787,414.773,418.754,423.237,425.847,428.456,432.751" y="376.715" svg_rhmargin="438.229" style="fill:#000000;font-family:ENEELF+Palatino-Roman;font-size:8.97px;font-style:NORMAL;font-weight:normal;">and thus cannot be explained as an auto-regressive process with a single time scale (a so-called</text>
  <text x="55.55,62.526,68.515,71.501,75.98400000000001,79.448,84.837,88.221,93.116,97.097,101.392,105.194,108.996,111.981,114.223,117.679,122.161,125.96300000000001,129.424,132.034,135.83599999999998,139.288,143.266,148.162,156.079,163.996,168.892,174.111,176.72,181.705,185.153,190.562,194.364,198.659,204.137,207.596,210.52,215.41500000000002,218.873,222.851,228.069,232.553,236.094,240.578,244.559,247.482,251.777,255.318,257.928,262.411,266.706,270.16,277.135,280.518,284.497,287.42,290.029,294.01,297.463,301.261,305.556,310.039,313.494,316.103,320.084,324.379,327.843,330.453,335.671,339.12,345.961,352.318,360.8,364.60200000000003,368.072,371.046,375.528,380.01,384.492,388.974,393.456,396.442,398.684,402.149,409.125,414.343,417.792,424.769,430.759,433.746" y="388.677" svg_rhmargin="438.229" style="fill:#000000;font-family:ENEELF+Palatino-Roman;font-size:8.97px;font-style:NORMAL;font-weight:normal;">AR-1 process), as is commonly used to characterize Arctic sea ice in GCMs [12–14]. An AR-1</text>
  <text x="55.55,60.939,64.323,69.22,73.202,77.498,81.3,85.102,88.293,90.903,94.70500000000001,97.896,100.506,105.726,110.21,115.599,120.989,124.373,129.27,134.659,138.202,140.812,145.296,148.22,152.515,155.69,160.649,164.945,168.927,173.411,178.819,182.622,186.917,190.118,193.105,195.715,198.701,201.889,204.813,210.033,214.32799999999997,217.512,221.807,226.435,229.045,232.848,235.772,240.068,245.287,249.269,253.564,256.766,261.662,264.64799999999997,267.836,275.755,281.162,283.772,286.696,289.306,294.696,297.306,301.601,304.785,307.71,310.32,318.238,322.533,325.717,329.515,333.497,337.981,340.592,344.887,348.689,351.889,354.499,359.71700000000004,362.905,365.829,371.049,375.344,378.536,384.016,388.5,391.424,395.907,399.092,403.074,407.558,412.777,417.997,422.893,425.816,429.014,433.973" y="400.629" svg_rhmargin="438.268" style="fill:#000000;font-family:ENEELF+Palatino-Roman;font-size:8.97px;font-style:NORMAL;font-weight:normal;">process is inappropriate because (i) the existence of multiple time scales in the data cannot be</text>
  <text x="55.55,58.474,61.858,66.153,70.637,73.561,77.857,83.335,85.3,87.91,93.128,95.083,99.566,101.537,106.559,111.966,116.45,121.67,124.594,127.204,130.128,134.612,137.536,140.146,145.213,149.509,152.119,157.104,159.049,163.031,167.927,173.147,176.949,179.56,183.362,186.286,190.582,195.801,198.724,200.698,208.616,213.1,218.32,223.539,227.835,231.377,233.334,240.813,243.423,246.347,251.565,253.529,258.012,259.973,263.776,266.386,271.605,276.591,279.201,283.49600000000004,285.456,290.936,295.231,299.213,303.698,308.683,310.646,315.128,320.536,323.459,328.356,332.338,337.235,340.777,344.161,348.454,351.064,355.548,358.472,361.082,365.979,371.198,373.44,375.393,378.381,380.991,383.602,386.58799999999997,388.552,394.049,399.269,403.564,405.524,409.322,412.246,415.63,419.925,425.145,430.131,433.055" y="412.581" svg_rhmargin="438.273" style="fill:#000000;font-family:ENEELF+Palatino-Roman;font-size:8.97px;font-style:NORMAL;font-weight:normal;">treated in a quantitatively consistent manner with a single decay autocorrelation. (ii) The strength</text>
  <text x="55.55,60.446,63.431999999999995,65.981,68.905,74.124,78.419,80.974,84.777,89.072,93.556,97.359,102.256,107.475,111.959,114.568,117.126,121.108,126.094,130.076,132.686,136.981,139.544,142.154,145.956,148.509,152.307,157.715,161.697,166.915,169.464,172.388,177.607,182.092,185.016,187.25799999999998,189.813,192.423,195.409,197.958,203.177,208.074,210.997,213.546,218.028,223.418,228.807,232.191,237.088,242.478,246.02,248.63,253.114,256.038,260.334,262.944,267.92900000000003,270.469,273.853,278.149,286.067,290.963,296.03,300.326,305.806,308.048,310.594,313.978,318.271,321.195,324.737,327.347,331.643,336.71,341.194,343.804,347.606,350.15,357.629,360.239,362.849,365.45799999999997,368.006,372.49,375.101,382.579,387.064,392.05,395.85200000000003,398.404,403.794,407.178,412.074,417.554,422.961,426.943,431.238,433.784" y="424.542" svg_rhmargin="438.267" style="fill:#000000;font-family:ENEELF+Palatino-Roman;font-size:8.97px;font-style:NORMAL;font-weight:normal;">of the seasonal cycle is such that, if not appropriately removed, retrievals will always produce a</text>
  <text x="55.55,59.351,61.961,67.179,72.164,74.774,79.069,81.334,85.315,90.534,95.017,98.559,103.042,107.023,109.946,114.241,117.783,120.392,124.194,127.117,129.726,133.707,135.963,138.886,141.495,149.413,153.708,155.964,160.86,163.846,166.107,170.59,175.549,180.444,185.851,188.774,191.036,195.519,197.785,202.771,207.066,211.549,215.091,217.333,219.591,224.074,226.341,229.264,231.873,239.79,244.08499999999998,246.342,250.144,254.125,258.608,261.217,265.512,267.778,272.26,275.183,277.445,284.924,290.142,292.751,296.732,301.95000000000005,304.211,308.694,311.304,313.91299999999995,316.181,324.101,328.997,336.914,341.209,346.428,349.351,353.153,355.408,359.389,364.284,369.503,374.569,378.864,382.248,387.233,391.528,393.77000000000004,396.028,403.489,407.784,413.002,416.983,421.278,423.52000000000004,425.787,428.711,433.929" y="436.494" svg_rhmargin="438.224" style="fill:#000000;font-family:ENEELF+Palatino-Roman;font-size:8.97px;font-style:NORMAL;font-weight:normal;">single characteristic time of about a year; a time scale at which all moments converge. Hence, the</text>
  <text x="55.55,60.957,66.347,71.737,76.033,79.575,81.451,86.41,91.307,96.714,101.934,107.41199999999999,109.287,114.184,119.402,121.285,124.209,129.428,133.72299999999998,135.603,140.992,145.288,148.831,152.633,155.244,159.046,161.97,166.266,171.485,175.467,179.762,181.642,184.566,187.176,195.095,199.39,201.269,203.879,209.09699999999998,210.98,215.463,220.682,225.667,227.55,231.352,234.276,239.684,245.163,250.14800000000002,252.022,254.945,260.165,264.649,267.572,269.455,273.937,277.74,281.542,286.95,294.868,299.164,302.966,304.852,309.335,314.553,316.436,323.411,329.401,332.388,336.871,338.752,344.143,347.527,352.424,356.406,360.701,364.504,368.30600000000004,370.192,377.671,380.281,382.891,385.5,387.374,389.984,395.203,399.499,404.566,407.176,410.1,414.584,419.543,422.153,427.13800000000003,429.021,433.98" y="448.447" svg_rhmargin="438.275" style="fill:#000000;font-family:ENEELF+Palatino-Roman;font-size:8.97px;font-style:NORMAL;font-weight:normal;">upper bound on the persistence time in any study that assumes an AR-1 process will inevitably be</text>
  <text x="55.55,60.034,65.423,70.813,74.197,79.094,83.721,86.331,94.25,98.734,101.658,105.953,108.564,113.54899999999999,115.764,120.247,122.478,127.464,131.76,136.244,139.124,141.36599999999999,143.588,148.07,151.87199999999999,154.1,156.71,160.512,162.74,165.35,170.57,176.049,180.345,184.641,190.119,192.345,195.331,200.228,205.636,210.855,216.333,218.559,221.547,226.444,229.986,232.204,234.814,238.796,243.09099999999998,245.321,249.803,253.187,257.48,261.963,264.194,267.167,271.65,276.131,278.372,282.854,287.336,290.322,292.564,294.787,299.495,303.791,309.18,313.665,317.207,321.691,324.615,328.91,331.131,334.934,337.858,343.265,348.745,351.355,355.651,359.45300000000003,361.681,369.159,371.77,374.693,379.911,382.136,388.977,395.335,403.818,407.62,409.857,412.832,417.314,421.796,426.278,430.76,435.242" y="460.408" svg_rhmargin="438.228" style="fill:#000000;font-family:ENEELF+Palatino-Roman;font-size:8.97px;font-style:NORMAL;font-weight:normal;">approximately 1 year, as is indeed found for ice area [13,14]. Separate studies with GCMs [15–19]</text>
  <text x="55.549,60.033,62.643,66.446,71.341,74.203,78.006,83.225,88.122,95.6,98.463,101.387,106.606,111.09,114.013,116.877,121.359,126.577,129.433,134.84,140.23,145.62,149.916,153.458,156.315,161.274,166.171,171.579,176.798,182.276,185.132,189.428,194.056,196.666,200.468,203.392,207.194,210.052,214.949,220.167,223.031,225.955,231.175,235.47,238.33,243.72,247.103,251.399,256.879,259.489,263.471,266.395,270.879,275.838,278.448,281.058,283.668,286.592,291.577,294.423,297.411,302.308,305.84999999999997,308.707,311.631,316.85,321.14500000000004,324.005,330.982,334.366,338.348,341.272,343.882,347.863,350.723,354.525,358.821,363.305,366.292,368.902,372.884,377.17900000000003,380.039,384.018,388.914,393.981,398.277,401.81899999999996,404.685,409.167,414.387,419.865,422.721,425.645,430.864,435.348" y="472.36" svg_rhmargin="438.271" style="fill:#000000;font-family:ENEELF+Palatino-Roman;font-size:8.97px;font-style:NORMAL;font-weight:normal;">also show that an upper bound exists on the predictability for the Arctic sea-ice cover and that</text>
  <text svg_rhmargin="118.252" x="55.549,60.938,64.322,68.618,74.098,76.708,80.69,83.614,88.098,93.057,95.667,98.277,100.887,103.811,108.796,111.84,114.45,118.25200000000001" y="484.312" style="fill:#000000;font-family:ENEELF+Palatino-Roman;font-size:8.97px;font-style:NORMAL;font-weight:normal;">predictability is </text>
  <text svg_rhmargin="143.727" x="121.296,124.785,128.767,131.26,133.754,136.247,141.234,143.727" y="484.312" style="fill:#000000;font-family:ENEJEM+Palatino-Italic;font-size:8.97px;font-style:ITALIC;font-weight:normal;">skilful </text>
  <text x="146.767,151.663,156.883,159.493,164.478,167.53,172.427,177.64499999999998,180.689,183.613,188.833,193.128,196.177,199.98,204.275,208.759,212.562,217.459,222.678,227.162,229.77100000000002,232.832,235.756,238.367,246.285,250.57999999999998,253.62,257.423,261.405,265.889,268.499,272.795,276.597,278.839,281.907,287.406,292.626,296.922,300.306,304.599,307.585,312.482,315.866,320.159,322.401,325.442,330.339,335.746,339.28799999999995,342.335,346.819,352.208,357.598,360.982,365.879,370.363,374.345,379.56300000000005,382.607,387.827,390.437,395.423,400.642,403.252,405.862,410.849,416.068,418.992,422.79400000000004,425.832,428.756,433.976" y="484.312" svg_rhmargin="438.271" style="fill:#000000;font-family:ENEELF+Palatino-Roman;font-size:8.97px;font-style:NORMAL;font-weight:normal;">only on the seasonal time scales. Therefore, our approach highlights the</text>
  <text x="55.549,61.028,65.512,70.732,75.718,80.014,83.556,87.358,89.595,94.492,97.47800000000001,99.721,104.941,109.838,112.761,114.995,118.977,123.461,126.845,131.138,134.125,139.533,142.143,144.753,149.738,151.98,157.459,161.755,164.679,168.063,172.359,177.578,183.057,185.667,190.887,195.872,198.105,201.029,206.248,210.54299999999998,212.773,216.576,220.871,225.355,229.158,234.055,239.274,243.758,246.368,248.978,251.902,255.89" y="496.273" svg_rhmargin="258.132" style="fill:#000000;font-family:ENEELF+Palatino-Roman;font-size:8.97px;font-style:NORMAL;font-weight:normal;">dangers of not carefully detrending the seasonality.</text>
  <text x="55.548,60.904,63.996,70.372,79.921,85.707,89.772,96.228,102.333,108.693,113.3,115.804,121.609,128.065,134.425,136.931,143.291,148.953,153.018" y="535.841" svg_rhmargin="158.82" style="fill:#0092cf;font-family:ENEEPF+MyriadPro-Cond;font-size:15.94px;font-style:NORMAL;font-weight:normal;">2. Methods and data</text>
  <text x="55.548,58.571,63.789,65.987,70.471,75.68900000000001,77.896,82.192,85.018,88.005,92.901,96.444,99.367,101.564,104.488,109.383,111.581,114.191,122.109,127.499,130.883,135.779,140.846,145.141,147.335,152.743,157.962,163.442,167.737,171.28,175.083,178.007,182.491,187.71,193.189,195.8,201.019,206.00400000000002,208.192,213.089,216.075,218.282,225.257,228.641,232.619,235.543,238.153,242.134,244.328,248.126,252.421,256.906,259.892,262.502,266.484,270.779,272.991,277.951,282.246,287.466,291.95,297.017,299.627,304.523,309.931,313.47299999999996,315.673,318.283,323.50100000000003,325.699,328.623,333.843,338.13800000000003,340.341,347.317,353.308,357.791,359.995,366.835,373.193,381.677,385.479,387.721,389.935,397.413,401.708,403.911,407.893,412.79,420.708,426.098,430.582,433.966" y="553.769" svg_rhmargin="438.261" style="fill:#000000;font-family:ENEELF+Palatino-Roman;font-size:8.97px;font-style:NORMAL;font-weight:normal;">In an effort to improve understanding of Arctic sea-ice behaviour in the AR5 GCMs, we compare</text>
  <text x="55.548,58.472,63.691,67.986,70.153,75.633,80.117,82.727,85.337,90.322,92.492,96.295,100.779,103.703,107.999,110.609,113.219,115.829,118.753,123.048,125.215,130.112,135.071,138.874,143.169,146.712,151.779,156.263,159.187,161.797,166.694,171.913,175.715,177.88,180.869,184.253,189.149,197.066,199.229,203.713,208.197,212.682,217.166,221.65,226.134,230.618,235.102,239.585,241.762,244.686,249.58100000000002,251.752,254.676,259.895,264.19,266.348,274.266,279.163,284.642,288.938,291.54699999999997,293.717,298.614,304.021,306.945,312.335,317.743,320.666,322.819,328.298,332.782,335.706,340.189,342.357,349.836,352.446,355.37,360.588,362.759,368.241,372.725,375.335,377.945,382.93,385.091,388.078,391.462,395.757,400.78,406.187,410.483,415.702,419.684,424.66900000000004,426.839,429.828,434.725" y="565.73" svg_rhmargin="438.267" style="fill:#000000;font-family:ENEELF+Palatino-Roman;font-size:8.97px;font-style:NORMAL;font-weight:normal;">the daily satellite observations from 1978–2005 to the model output data with daily frequency for</text>
  <text x="55.548,58.472,63.691,67.986,70.271,74.073,78.558,86.476,90.771,93.064,98.454,102.75,106.292,108.903,113.799,119.278,121.52000000000001,123.806,128.792,133.688,137.23,139.52,144.91,149.394,152.937,155.547,158.471,163.45600000000002,165.733,168.344,173.56199999999998,175.849,178.773,183.993,186.603,190.405,192.696,196.675,201.571,209.489,214.879,219.363,222.906,225.516,229.319,234.215,239.435,241.677,243.962,251.441,255.736,258.02,262.504,267.724,272.208,274.818,279.804,283.607,287.90200000000004,290.195,293.119,298.338,302.63300000000004,304.918,309.402,313.885,316.179,323.156,329.146,333.629,335.923,343.843,348.739,354.219,358.515,361.125,364.927,367.209,370.198,374.0,379.22,384.116,391.595,396.81300000000005,399.101,401.711,406.92900000000003,409.204,412.128,416.612,421.572,424.182,428.47700000000003,430.761,435.242" y="577.682" svg_rhmargin="438.228" style="fill:#000000;font-family:ENEELF+Palatino-Roman;font-size:8.97px;font-style:NORMAL;font-weight:normal;">the same period. For parity in this comparison, we analyse the 21 AR5 models (shown in table 1)</text>
  <text x="55.549,63.027,65.636,68.559,73.777,76.416,81.898,86.381,88.99,91.599,96.584,99.214,104.692,109.175,112.098,116.581,119.218,121.827,127.045,129.684,132.607,137.826,142.12,144.73,148.272,150.904,156.122,158.732,162.533,165.456,170.352,173.894,176.503,180.484,184.967,187.57600000000002,190.206,193.68,199.089,204.308,208.11,210.352,212.987,217.47,222.688,228.166,230.806,236.213,240.015,244.30999999999997,246.945,249.868,255.086,259.38100000000003,262.017,267.441,270.983,274.785,277.708,280.338,284.632,289.851,293.653,297.948,305.865,310.823,313.432,317.72700000000003,320.372,328.289,332.584,340.501,345.46,349.754,353.296,355.929,358.914,362.298,367.194,375.111,377.742,382.225,386.708,389.345,394.24,397.226,399.866,402.789,408.007,412.302,416.104,420.399,423.034,427.517,432.736" y="589.635" svg_rhmargin="438.214" style="fill:#000000;font-family:ENEELF+Palatino-Roman;font-size:8.97px;font-style:NORMAL;font-weight:normal;">with daily data in their historical runs, and use the ﬁrst ensemble member from 11 of these and</text>
  <text x="55.549,58.473,65.952,70.847,73.278,76.267,79.651,84.547,92.464,94.888,97.812,103.031,107.32600000000001,109.754,113.138,117.431,125.35,129.834,132.444,137.663,140.273,145.493,150.478,152.9,157.382,161.865,164.294,172.214,177.111,182.59,186.886,189.496,193.299,195.541,197.97,202.642,207.537,209.968,214.928,219.22299999999998,221.66,225.642,230.538,235.757,239.56,242.17,245.973,248.897,253.193,258.412,261.335,263.767,266.377,271.595,274.027,278.923,284.331,287.873,290.298,294.277,299.173,307.091,312.481,316.965,320.508,323.118,326.921,331.817,337.035,339.467,344.364,347.34999999999997,349.773,354.255,356.866,359.47499999999997,361.906,364.83,370.049,374.344,376.772,384.69,389.587,395.066,399.362,401.972,405.774,408.2,412.684,417.903,423.38100000000003,425.815,428.738,433.958" y="601.596" svg_rhmargin="438.253" style="fill:#000000;font-family:ENEELF+Palatino-Roman;font-size:8.97px;font-style:NORMAL;font-weight:normal;">two from the remaining 10 models. To be consistent in our comparison of all the models and the</text>
  <text x="55.549,59.352,63.836,66.76,71.055,73.666,76.276,78.886,81.81,86.105,88.191,93.088,98.047,101.85,106.145,109.688,114.755,119.239,122.163,124.773,129.67,134.889,138.692,140.934,143.021,147.504,149.591,153.57,158.466,166.384,174.303,179.199,184.417,186.499,189.109,193.593,196.517,199.127,202.051,207.459,212.938,217.234,221.718,224.328,229.225,234.444,239.43,242.04,244.964,250.372,255.851,260.146,262.215,267.201,270.744,273.354,278.832,280.914,285.811,288.79699999999997,290.887,295.371,297.613" y="613.548" svg_rhmargin="302.096" style="fill:#000000;font-family:ENEELF+Palatino-Roman;font-size:8.97px;font-style:NORMAL;font-weight:normal;">satellite observations, a common latitude–longitude grid of 0.5</text>
  <text svg_rhmargin="305.563" x="302.076,305.56300000000005" y="613.547" style="fill:#000000;font-family:ENEHJH+MTSY;font-size:6.97px;font-style:NORMAL;font-weight:normal;">◦ </text>
  <text svg_rhmargin="315.082" x="308.052,315.081" y="613.547" style="fill:#000000;font-family:ENEHJH+MTSY;font-size:8.97px;font-style:NORMAL;font-weight:normal;">× </text>
  <text x="317.079,321.562,323.802" y="613.547" svg_rhmargin="328.285" style="fill:#000000;font-family:ENEELF+Palatino-Roman;font-size:8.97px;font-style:NORMAL;font-weight:normal;">0.5</text>
  <text svg_rhmargin="331.771" x="328.284,331.771" y="613.547" style="fill:#000000;font-family:ENEHJH+MTSY;font-size:6.97px;font-style:NORMAL;font-weight:normal;">◦ </text>
  <text x="334.359,336.969,340.771,342.856,348.263,352.066,356.362,361.84000000000003,363.931,368.415,373.634,379.112,381.195,388.674,392.969,395.055,397.665,402.885,405.809,410.104,413.647,419.037,423.933,426.543,431.028,433.951" y="613.547" svg_rhmargin="438.246" style="fill:#000000;font-family:ENEELF+Palatino-Roman;font-size:8.97px;font-style:NORMAL;font-weight:normal;">is used and we interpolate</text>
  <text x="55.547,58.471,63.69,67.985,70.233,74.036,78.332,82.816,85.802,88.412,92.394,96.68900000000001,98.955,102.934,107.83,113.049,117.031,121.327,126.547,129.471,133.013,137.497,140.421,143.031,147.928,153.146,155.389,158.376,163.272,166.814,169.068,172.866,177.162,181.646,184.633,187.243,191.225,195.51999999999998,197.777,202.261,205.645,209.94,214.423,216.681,219.668,223.211,227.695,231.677,234.601,237.211,242.107,247.327,250.313,252.556,255.544,258.928,263.825,271.74199999999996,273.987,276.91,282.13,286.425,288.673,293.569,297.112,299.722,304.708,307.318,312.538,317.022,319.631,321.881,329.8,334.696,340.176,344.471,347.081,352.516,357.413,362.372,366.174,370.47,374.013,379.08,383.564,386.488,389.098,393.995,399.213,401.456,406.442,409.984,412.594,418.072,420.316,425.213,430.432,433.356" y="625.499" svg_rhmargin="438.252" style="fill:#000000;font-family:ENEELF+Palatino-Roman;font-size:8.97px;font-style:NORMAL;font-weight:normal;">the sea-ice concentration (or sea-ice area fraction) from the original model/observation grid onto</text>
  <text x="55.547,58.471,63.69,66.3,70.102,72.33,76.309,81.205,89.123,97.042,101.938,107.156,109.39,114.376,117.919,120.529,126.009,128.251,130.473,137.45,141.25199999999998,143.489,146.099,149.90099999999998,152.129,157.608,162.505,167.724,172.01899999999998,174.249,177.235,182.132,185.674,187.901,190.825,196.044,200.339,202.569,207.466,212.425,216.228,220.523,224.066,229.133,233.617,236.541,239.151,244.048,249.267,253.07,255.31199999999998,257.543,260.467,265.686,269.981,272.211,276.014,280.31,284.794,287.78,290.39,294.372,298.66700000000003,300.906,305.199,309.827,312.751,317.047,322.266,325.189,327.423,332.32,337.279,340.203,344.687,347.297,352.517,356.813,362.291,364.526,367.514,370.898,375.794,383.71099999999996,385.938,388.862,394.081,398.37600000000003,400.606,408.525,413.421,418.9,423.196,425.806,429.608,431.836,434.446" y="637.46" svg_rhmargin="438.248" style="fill:#000000;font-family:ENEELF+Palatino-Roman;font-size:8.97px;font-style:NORMAL;font-weight:normal;">this common grid. As is done for the observations, the sea-ice extent obtained from the models is</text>
  <text x="55.547,58.471,63.69,67.986,73.20400000000001,75.447,79.425,84.322,89.541,94.608,98.904,102.447,105.371,109.666,115.14399999999999,117.379,120.303,125.198,127.44,132.92,135.942,141.422" y="649.413" svg_rhmargin="143.664" style="fill:#000000;font-family:ENEELF+Palatino-Roman;font-size:8.97px;font-style:NORMAL;font-weight:normal;">then converted to EIE.</text>
  <text x="67.508,74.959,79.254,83.881,86.804,89.046,92.213,99.692,103.987,107.153,110.537,114.832,122.749,127.645,132.711,137.006,140.172,143.095,148.313,152.60799999999998,155.774,163.692,167.987,172.47,177.688,180.858,184.66,188.954,193.438,197.239,202.135,207.354,211.837,214.446,217.624,221.605,226.59,230.571,233.18,237.475,240.65,243.639,246.562,251.78,256.075,259.241,267.159,271.453,275.937,281.15500000000003,284.325,289.803,292.825,298.303,301.474,306.37,311.588,314.758,319.052,323.536,327.517,332.735,335.905,339.886,344.369,346.978,351.273,356.492,361.97,366.453,369.99499999999995,373.167,378.646,383.129,388.11400000000003,391.283,396.18,399.166,402.336,405.259,410.478,414.773,417.938,422.924,427.219,431.702,435.244" y="661.365" svg_rhmargin="438.23" style="fill:#000000;font-family:ENEELF+Palatino-Roman;font-size:8.97px;font-style:NORMAL;font-weight:normal;">Next, we remove the mean seasonal cycle (the mean EIE on each calendar day of the year)</text>
  <text x="55.547,58.535,61.919,66.816,74.733,78.462,81.387,86.608,90.903,94.627,102.546,107.444,112.924,117.221,119.83,123.566,128.463,133.871,136.796,142.187,147.595,150.52,152.762,156.487,161.474,164.085,169.072,174.481,177.865,182.158,185.95999999999998,189.683,194.166,197.891,202.375,207.595,213.073,216.809,221.292,225.026,228.828,234.047,238.942,246.42000000000002,250.147,253.071,258.289,262.584,266.317,274.235,278.53,283.013,288.231,291.969,295.77,300.065,304.548,308.35,313.246,318.464,322.947,325.556,329.293,333.274,338.259,342.24,344.85,349.14500000000004,352.887,355.876,360.771,364.313,368.043,370.966,376.184,380.47900000000004,384.204,391.18,394.564,398.545,401.468,404.077,408.058,411.79,415.592,419.887,424.37,427.356,429.965,433.946" y="673.326" svg_rhmargin="438.241" style="fill:#000000;font-family:ENEELF+Palatino-Roman;font-size:8.97px;font-style:NORMAL;font-weight:normal;">from the model output. Figures 1 and 2 show the mean seasonal cycle for the Arctic sea-ice</text>
  <text x="55.547,59.843,64.47,67.394,71.69,76.909,79.83200000000001,83.093,87.577,92.796,98.274,101.536,104.46,109.679,113.974,117.239,122.719,125.741,131.219,134.472,137.459,142.355,145.897,149.159,154.118,159.015,161.939,167.15699999999998,170.407,173.331,178.551,182.84599999999998,186.111,193.088,199.078,203.561,206.827,214.747,219.644,225.123,229.419,232.029,235.831,239.086,243.568,248.787,254.26500000000001,257.527,260.451,265.67,269.96500000000003,273.222,278.118,283.078,286.88,291.176,294.719,299.786,304.27,307.194,309.804,314.7,319.92,323.722,325.964,329.23,334.728,339.947,344.242,347.498,350.109,355.328,358.252,362.548,365.932,368.918,376.836,381.733,387.212,391.508,394.11699999999996,397.367,402.434,406.918,410.461,413.071,417.555,422.514,425.124,427.734,430.344,433.268" y="685.278" svg_rhmargin="438.253" style="fill:#000000;font-family:ENEELF+Palatino-Roman;font-size:8.97px;font-style:NORMAL;font-weight:normal;">extent and the EIE for both the AR5 models and the observations. The inter-model variability</text>
  <text svg_rhmargin="229.134" x="55.547,58.157,61.958999999999996,64.331,67.715,72.008,79.927,84.411,87.953,92.94,97.424,102.383,104.993,109.289,111.531,113.897,116.921,119.84400000000001,122.213,124.823,128.625,130.988,136.209,141.105,144.029,148.325,153.803,156.173,158.783,164.00099999999998,166.371,169.295,174.514,178.809,181.174,184.197,189.614,195.972,202.329,204.702,208.086,212.382,217.772,222.668,226.211,229.13400000000001" y="697.239" style="fill:#000000;font-family:ENEELF+Palatino-Roman;font-size:8.97px;font-style:NORMAL;font-weight:normal;">is remarkable. It is noted in the IPCC report </text>
  <text svg_rhmargin="335.894" x="231.494,236.971,241.454,245.434,247.926,252.91,256.89,259.875,262.367,266.347,271.332,273.709,277.69,280.183,282.558,286.207,288.699,291.19,298.165,302.145,305.13,308.618,310.99,317.965,321.945,326.427,329.914,332.406,335.894" y="697.239" style="fill:#000000;font-family:ENEJEM+Palatino-Italic;font-size:8.97px;font-style:ITALIC;font-weight:normal;">Evaluation of climate models </text>
  <text x="338.274,341.253,345.736,348.722,351.09,354.014,359.234,363.718,366.641,369.01,376.93,381.826,387.306,391.601,394.211,398.01300000000003,400.377,404.859,408.243,412.538,414.912,417.836,423.244,428.463,432.759" y="697.239" svg_rhmargin="438.237" style="fill:#000000;font-family:ENEELF+Palatino-Roman;font-size:8.97px;font-style:NORMAL;font-weight:normal;">[2] that models are tuned</text>
  <text x="55.548,58.472,63.367000000000004,65.996,73.915,78.399,81.323,85.305,90.52300000000001,93.153,96.077,101.296,105.59100000000001,108.226,113.123,118.082,121.885,126.181,129.723,134.79,139.086,144.56400000000002,147.195,151.174,153.784,156.394,164.312,168.796,171.72,176.015,178.641,182.44,187.426,191.228,194.152,198.448,206.366,208.608,211.244,218.723,223.942,226.552,230.534,235.75199999999998,238.383,240.993,246.21099999999998,248.841,251.766,257.174,260.716,265.934,268.556,273.776,278.072,280.682,286.071,289.87300000000005,292.507,295.431,300.32599999999996,302.955,307.941,310.551,315.618,319.913,322.54,326.342,331.328,333.939,336.549,339.535,344.943,347.55199999999996,350.181,355.571,358.955,363.251,368.73,371.34,375.322,378.246,380.856,385.753,390.972,394.775,397.017,399.643,407.104,412.001,419.48,423.775,428.842,433.138,436.018" y="709.192" svg_rhmargin="438.26" style="fill:#000000;font-family:ENEELF+Palatino-Roman;font-size:8.97px;font-style:NORMAL;font-weight:normal;">to match the observed climate system, which in turn helps to give skilful predictions. However,</text>
  <text x="55.548,60.031,63.833,66.961,69.57,73.372,76.501,80.795,85.861,88.471,93.949,98.244,103.463,106.386,109.51,112.12,117.33800000000001,120.465,125.892,130.88,136.289,139.673,143.968,147.089,151.569,153.81099999999998,156.942,164.421,169.64,173.936,177.32,181.61499999999998,184.736,189.22,191.83,194.754,199.973,204.87,210.277,215.264,220.482,223.607,226.531,231.75,236.045,239.166,247.085,251.981,257.46,261.756,264.366,268.168,271.297,279.215,283.699,288.684,291.808,296.767,301.062,304.192,307.117,312.525,317.744,322.04,327.51800000000003,330.635,333.559,338.454,341.588,349.506,353.99,356.914,360.896,366.11400000000003,369.239,372.163,377.382,381.677,384.798,391.775,395.159,399.141,402.065,404.675,408.656,411.786,415.588,419.884,424.368,427.355,429.965,433.947" y="721.144" svg_rhmargin="438.242" style="fill:#000000;font-family:ENEELF+Palatino-Roman;font-size:8.97px;font-style:NORMAL;font-weight:normal;">as is evident in ﬁgure 2, where although the models may be tuned to match the Arctic sea-ice</text>
  <text x="55.548,59.843,64.469,67.393,71.687,76.906,79.82900000000001,82.162,85.149,90.576,95.564,100.973,104.357,108.652,110.964,115.443,118.429,120.671,123.001,125.611,128.597,130.921,135.818,141.037,145.332,147.661,151.64,156.124,158.734,162.716,168.124,170.734,175.218,178.142,182.438,186.23999999999998,188.576,191.5,196.719,201.01399999999998,203.335,208.814,211.837,217.315,219.64,222.627,226.011,230.907,238.824,241.15,244.074,249.293,253.588,255.908,263.827,268.723,274.203,278.498,281.10699999999997,283.431,288.327,293.735,296.659,302.049,307.456,310.379,312.703,315.627,320.847,325.142,327.462,332.529,337.013,340.556,343.166,347.65,350.574,353.184,358.081,363.29900000000004,365.623,368.61,371.994,376.89,384.80699999999996,387.133,390.057,395.276,399.571,401.891,406.788,411.747,415.55,419.846,423.388,428.455,432.751" y="733.105" svg_rhmargin="438.229" style="fill:#000000;font-family:ENEELF+Palatino-Roman;font-size:8.97px;font-style:NORMAL;font-weight:normal;">extent (ﬁgure 1), if one calculates the EIE from the model output the variation from the observed</text>
  <text x="55.547,59.349,63.644,68.127,71.929,76.824,82.043,86.526,89.13499999999999,92.16,96.141,101.127,105.108,107.717,112.012,115.035,117.645,121.447,124.458,128.256,133.663,138.622,142.423,145.346,149.83,155.048,157.971,160.58,165.063,167.673,169.915,172.929,178.149,183.045,185.968,188.976,193.872,199.09,201.699,206.68400000000003,209.701,212.31,217.528,220.536,223.459,228.677,232.97199999999998,235.986,243.903,248.386,253.372,258.59,261.199,264.122,269.529,275.008,279.303,282.307,287.203,290.18899999999996,293.197,296.12,301.338,305.63300000000004,308.647,316.564,320.859,325.342,330.56,333.577,337.379,341.674,346.157,349.959,354.854,360.073,364.556,367.16499999999996,370.19,374.172,379.157,383.138,385.747,390.042,392.284,395.307,400.266,405.672,408.595,411.604,416.086,418.695,422.497,427.392,430.408,433.018" y="745.057" svg_rhmargin="438.236" style="fill:#000000;font-family:ENEELF+Palatino-Roman;font-size:8.97px;font-style:NORMAL;font-weight:normal;">seasonal cycle is substantial, not only in the magnitude of the mean seasonal cycle, but also in</text>
  <text svg_rhmargin="308.646" x="55.547,58.471,63.69,67.985,69.972,74.994,80.402,84.886,87.496,90.106,93.03,97.514,100.438,103.048,108.115,112.41,114.397,118.2,123.419,127.903,133.293,137.588,139.584,144.48,147.46599999999998,149.458,152.381,157.601,161.896,163.892,167.874,173.281,176.824,181.891,186.187,189.989,192.231,194.229,201.681,206.165,214.083,218.379,220.989,224.976,227.218,229.206,233.009,237.906,245.824,250.119,252.115,260.033,264.93,270.409,274.705,277.315,281.117,283.111,288.33,292.814,297.881,302.176,304.163,308.646" y="757.009" style="fill:#000000;font-family:ENEELF+Palatino-Roman;font-size:8.97px;font-style:NORMAL;font-weight:normal;">the qualitative shape of the curves. Namely, some models have a </text>
  <text x="310.634,314.282,318.765,322.413,324.905,328.885,331.377,335.859,339.839,342.332,344.34,347.832,350.817,354.304,359.288,362.937,365.922,370.906,374.236" y="757.009" svg_rhmargin="377.724" style="fill:#000000;font-family:ENEJEM+Palatino-Italic;font-size:8.97px;font-style:ITALIC;font-weight:normal;">cycloidal structure</text>
  <text x="377.731,379.973,381.953,389.432,392.042,394.966,400.184,402.175,406.658,408.646,414.035,416.645,421.13,424.053,428.349,432.833" y="757.009" svg_rhmargin="438.24" style="fill:#000000;font-family:ENEELF+Palatino-Roman;font-size:8.97px;font-style:NORMAL;font-weight:normal;">, with a plateau</text>
  <text x="55.548,59.351,64.57,69.054,74.444,78.739,84.217,85.931,89.314,93.608,98.594,101.204,106.1,111.318,113.022,115.632,120.85000000000001,122.562,130.041,132.651,137.87,140.794,145.09,148.632,150.337,154.819,160.039,165.517,167.221,171.704,173.413,178.894,183.19,187.486,192.875,194.587,202.066,206.362,208.972,211.58100000000002,213.292,217.095,220.019,223.493,228.903,232.885,235.808,241.216,244.6,248.89499999999998,250.594,253.204,258.422,260.125,263.923,269.331,277.249,285.168,289.463,292.343,294.58500000000004,296.295,304.431,308.726,310.443,314.739,322.657,328.047,333.266,337.75,341.553,344.163,348.647,352.942,354.65,359.132,364.118,368.603,371.213,376.43100000000004,378.134,381.058,386.277,390.761,393.684,395.396,398.32,403.539,407.834,409.533,415.013,418.035,423.51300000000003,425.217,430.437,435.333" y="768.971" svg_rhmargin="438.256" style="fill:#000000;font-family:ENEELF+Palatino-Roman;font-size:8.97px;font-style:NORMAL;font-weight:normal;">shaped region in winter and a deep well structure in summer. We emphasize again that the EIE not</text>
 </g>
</svg>
