<?xml version="1.0" encoding="UTF-8"?>
<svg height="800.865966796875" width="605.2760009765625" xmlns="http://www.w3.org/2000/svg">
 <g style="fill:none;">
  <path d=" M -8.503999710083008 753.448974609375 L 595.2760009765625 753.448974609375 L 595.2760009765625 790.865966796875 L -8.503999710083008 790.865966796875 Z " style="fill:none;stroke:#000000;stroke-width:1.0;"/>
  <text svg_rhmargin="198.52" x="40.638,48.208,55.778,63.055,66.145,71.865,77.215,81.135,86.765,90.565,95.995,99.085,103.915,109.695,118.435,121.635,126.125,130.955,133.725,139.15,144.87,148.79,151.56,155.19,157.96,162.79,166.59,172.02,177.78,183.56,187.36,191.28,195.77,198.52" y="781.868" style="fill:#ffffff;font-family:LTGMKO+Corbel2;font-size:10.0px;font-style:NORMAL;font-weight:normal;">www.nature.com/scientificreports/ </text>
  <text x="549.393" y="781.868" svg_rhmargin="554.633" style="fill:#839097;font-family:LTGMKO+Corbel2;font-size:10.0px;font-style:NORMAL;font-weight:normal;">6</text>
  <text x="40.794,45.642,50.786,52.754000000000005,53.186,58.026,64.026,68.898,70.866,71.298,75.762,77.73,78.162,83.162" y="781.882" svg_rhmargin="84.762" style="fill:#839097;font-family:LTGMKO+Corbel2;font-size:8.0px;font-style:NORMAL;font-weight:normal;">Sci enti fi c </text>
  <text x="84.762,90.218,95.194,100.434,106.738,112.194,117.186" y="781.882" svg_rhmargin="121.802" style="fill:#839097;font-family:KSDXTO+Corbel-Bold2;font-size:8.0px;font-style:NORMAL;font-weight:bold;">RepoRtS</text>
  <text y="781.882" svg_rhmargin="126.938" x="123.522,125.338" style="fill:#000000;font-family:LTGMKO+Corbel2;font-size:8.0px;font-style:NORMAL;font-weight:normal;">| </text>
  <text y="781.882" svg_rhmargin="176.738" x="128.234,130.506,134.442,138.378,142.314,146.25,148.522,149.978,153.914,155.602,159.538,163.474,167.41,171.346,175.282" style="fill:#000000;font-family:MyriadPro-It;font-size:8.0px;font-style:ITALIC;font-weight:normal;">(2018) 8:13460 </text>
  <text y="781.882" svg_rhmargin="294.342" x="178.18,179.996,181.437,186.805,192.645,194.613,196.725,200.829,204.933,207.045,211.149,215.253,219.357,223.461,225.661,228.893,232.997,237.101,241.205,245.309,249.413,252.077,256.181,260.285,264.389,267.053,271.158,275.262,279.366,283.47,287.574,290.238" style="fill:#000000;font-family:TLHJJM+Corbel;font-size:8.0px;font-style:NORMAL;font-weight:normal;">| DOI:10.1038/s41598-018-31824-5</text>
  <text x="155.638,163.217,165.956,170.62,175.471,181.466,186.13,190.794,193.533,199.627" y="473.138" svg_rhmargin="205.732" style="fill:#000000;font-family:RYESHQ+Corbel-Bold;font-size:11.0px;font-style:NORMAL;font-weight:bold;">Discussion</text>
  <text x="155.638,162.465,167.307,170.709,172.757,176.123,178.598,185.858,190.742,193.105,196.944,199.794,202.269,206.81,211.721,215.087,217.134,220.46,225.291,229.796,236.024,238.072,240.931,245.76,249.648,251.696,255.584,259.895,264.751,268.681,272.61,275.361,279.291,284.106,286.153,290.968,293.443,298.471,302.359,305.641,309.529,314.475,318.345,322.233,325.599,327.647,332.359,336.247,339.079,345.231,349.161,353.049,358.035,360.082,367.926,371.814,378.525,382.8,384.852,388.781,393.728,398.543,400.59,405.72,411.768,417.123,420.489,422.537,427.241,432.083,435.971,438.019,440.77,445.423,447.47,452.327,456.914,459.295,461.524,466.255,469.114,473.043,477.855,480.663,482.711,486.64,493.901,498.613,500.953,503.428,508.306,512.199,516.039,518.888,521.363,525.904,530.891,532.938,537.78,542.726,547.541,551.429,554.768" y="483.138" svg_rhmargin="556.811" style="fill:#000000;font-family:MinionPro-Regular;font-size:9.0px;font-style:NORMAL;font-weight:normal;">Our simulations show the expected differences between MeHg and PCBs due to pollutant amplification under </text>
  <text x="155.638,159.45,161.79,164.265,171.669,175.508,178.259,182.147,184.19,188.002,192.84,196.77,201.68,205.88,209.71,211.825,213.868,223.53,227.418,230.853,234.741,236.784,241.599,244.074,249.101,252.989,256.271,260.159,265.105,268.975,272.863,276.229,278.272,282.201,285.483,289.371,291.414,296.229,299.681,302.09,306.244,310.128,315.114,317.157,321.644,325.838,327.881,332.696,335.171,340.198,344.086,347.368,351.256,356.067,358.875,360.918,365.733,368.208,372.096,374.955,378.884,382.543,386.737,388.78,393.511,398.187,401.046,405.101,409.543,413.431,415.474,419.404,424.351,429.166,431.209,433.96,438.51,441.368,445.424,447.764,449.807,453.655,455.995,458.47,465.9,468.375,473.331,477.171,480.019,482.494,487.035,492.021,494.064,497.466,501.306,504.056,507.94,511.306,513.349,517.278,522.225,527.04,529.083,532.4,537.256,541.186,545.056,547.526,551.414,554.717" y="493.137" svg_rhmargin="556.76" style="fill:#000000;font-family:MinionPro-Regular;font-size:9.0px;font-style:NORMAL;font-weight:normal;">climate change. These differences are driven by different dietary uptake and total elimination rates and species </text>
  <text x="155.638,160.112,162.533,167.025,174.379,178.313,181.581,184.893,186.846,189.646,192.994,196.874,201.735,205.047,207.641,211.475,214.823,216.776,219.585,224.4,227.632,232.134,236.922,241.206,246.021,247.974,250.783,255.563,259.397,261.35,263.943,268.625,273.306,278.067,280.02,286.123,289.931,294.252,296.313,298.266,307.879,311.713,315.098,318.932,320.885,325.646,328.067,333.046,336.88,340.112,343.946,348.844,352.66,356.494,359.806,361.759,365.639,368.871,372.705,374.658,378.664,380.924,384.309,388.908,390.861,394.695,398.952,403.759,407.639,411.519,414.22,418.1,422.861,424.814,427.515,432.114,434.067,438.748,442.564,446.444,451.232,454.58,456.533,461.195,465.075,468.919,472.709,477.471,480.857,484.691,486.644,489.453,494.234,498.068,500.021,504.495,506.916,511.417,514.217,517.565,521.445,526.306,529.618,532.211,536.703,540.106,547.46,551.42" y="503.136" svg_rhmargin="554.624" style="fill:#000000;font-family:MinionPro-Regular;font-size:9.0px;font-style:NORMAL;font-weight:normal;">biomass transfer through the food web. These differences are also expected to occur because the biotransforma-</text>
  <text x="155.638,158.436,160.857,165.347,170.279,172.232,176.11,181.006,185.767,187.72,192.193,194.614,199.105,206.457,210.372,214.638,219.57,221.991,226.815,230.657,234.445,237.244,239.665,244.156,249.088,251.041,255.532,258.205,260.158,264.963,269.499,271.829,274.007,278.686,281.494,285.372,290.133,292.887,296.199,298.26,300.213,304.092,308.987,313.748,315.701,320.173,322.594,327.273,331.108,336.003,339.837,343.112,347.26,351.094,353.892,356.313,360.129,363.441,365.394,367.815,372.747,374.7,378.579,382.457,385.156,389.656,392.463,397.242,401.076,404.478,411.858,414.279,418.095,420.048,423.927,428.822,433.583,435.536,439.37,444.266,449.027,453.527,456.334,461.113,464.947,468.349,475.729,478.15,481.966,483.919,487.185,491.99,495.869,499.685,502.106,505.94,509.252,511.205,515.381,519.259,522.868,527.008,528.961,533.227,536.457,540.344,544.133,546.94,549.163,552.645,554.697" y="513.135" svg_rhmargin="556.74" style="fill:#000000;font-family:MinionPro-Regular;font-size:9.0px;font-style:NORMAL;font-weight:normal;">tion and biomagnification of pollutants, and bioenergetics in ectothermic and endothermic species vary greatly, </text>
  <text x="155.638,158.098,160.249,164.121,166.272,168.468,172.392,177.381,182.232,186.826,189.726,194.599,198.523,202.018,209.488,211.999,215.905,218.101,222.072,227.094,229.605,237.051,241.15,243.501,246.903,249.099,256.536,261.121,264.444,268.368,270.564,272.94,275.499,279.984,283.875,286.191,290.421,292.617,295.411,300.1,302.296,306.861,309.372,313.956,321.403,325.41,329.769,334.791,337.302,340.221,344.451,346.647,350.502,355.374,359.298,366.768,369.279,373.215,377.313,379.665,383.067,385.263,388.164,393.045,397.017,402.039,404.235,408.207,412.179,414.971,419.565,422.466,427.337,431.261,434.756,442.226,444.737,448.643,450.839,454.199,459.097,463.069,466.975,469.486,473.41" y="523.134" svg_rhmargin="476.713" style="fill:#000000;font-family:MinionPro-Regular;font-size:9.0px;font-style:NORMAL;font-weight:normal;">i.e. endothermic animals more likely to biomagnify chemicals than ectothermic species</text>
  <text x="476.911,479.783,482.655,484.059,486.932" y="520.078" svg_rhmargin="489.74" style="fill:#0000ff;font-family:MinionPro-Regular;font-size:5.85px;font-style:NORMAL;font-weight:normal;">22,23</text>
  <text x="489.808,491.959,494.155,503.861,507.785,509.981,513.34,518.239,522.212,526.118,528.629,533.543,537.449,539.645,544.21,546.721,551.41" y="523.1379999999999" svg_rhmargin="554.614" style="fill:#000000;font-family:MinionPro-Regular;font-size:9.0px;font-style:NORMAL;font-weight:normal;">. The specific bio-</text>
  <text x="155.638,159.643,163.504,167.431,172.264,179.52,184.4,186.761,190.598,193.444,195.91,200.449,205.426,207.46,211.387,216.33,221.136,223.17,226.026,230.853,234.732,238.182,245.573,250.3,255.047,259.261,264.214,268.141,275.566,278.032,281.893,285.25,287.284,291.822,294.54,296.574,301.113,304.437,308.703,312.63,317.607,320.073,323.934,325.968,330.82,335.404,337.783,340.008,344.736,347.592,351.519,356.327,359.126,362.483,364.517,368.57,370.877,374.307,378.951,380.985,385.791,388.197,392.349,396.228,399.552,403.748,407.627,409.661,414.371,418.25,421.079,427.228,431.155,435.034,440.011,442.045,446.359,448.872,451.25,453.581,456.839,460.991,464.87,469.679,472.525,475.039,477.4,481.236,484.082,486.548,491.456,495.722,498.755,504.974,508.811,511.558,515.437,518.617,521.875,525.154,529.033,532.347,537.012,539.478,542.928,545.394,550.302,554.514" y="533.137" svg_rhmargin="556.557" style="fill:#000000;font-family:MinionPro-Regular;font-size:9.0px;font-style:NORMAL;font-weight:normal;">accumulation and thermodynamics of organic pollutants also diverge between gill-ventilating/water-respiring </text>
  <text x="155.638,160.094,163.334,167.519,171.363,176.259,178.618,181.894,189.166,192.442,194.152,197.996,202.857,207.582,209.292,213.135,215.52,218.617,221.794,226.232,229.428,233.28,237.034,239.807,244.586,246.971,251.796,255.981,257.691,262.147,265.388,269.573,273.417,278.313,280.671,283.947,291.219,294.495,296.52,298.23,301.426,305.224,308.455,313.226,317.681,322.542,327.267,329.652,334.476,338.661,340.371,345.096,347.481,352.423,356.221,359.416,363.214,367.94,370.712,372.9,377.004,378.714,381.379,385.942,387.652,391.379,396.122,399.921,407.264,409.65,413.457,417.427,419.677,421.387,425.825,428.21,432.818,436.742,440.522,444.365,449.117,456.29,461.088,463.365,467.119,469.883,472.268,476.724" y="543.136" svg_rhmargin="481.647" style="fill:#000000;font-family:MinionPro-Regular;font-size:9.0px;font-style:NORMAL;font-weight:normal;">organisms and air-breathing organisms, responding differently to chemical bioaccumulation</text>
  <text x="481.635,484.425,487.216,488.532,491.322" y="540.078" svg_rhmargin="494.13" style="fill:#0000ff;font-family:MinionPro-Regular;font-size:5.85px;font-style:NORMAL;font-weight:normal;">22,24</text>
  <text y="543.1379999999999" svg_rhmargin="556.679" x="495.825,499.668,504.529,509.254,510.964,513.629,517.427,524.6,529.371,533.169,536.481,540.235,542.863,547.615,550.811,554.636" style="fill:#000000;font-family:MinionPro-Regular;font-size:9.0px;font-style:NORMAL;font-weight:normal;">and temperature </text>
  <text x="155.634,159.567,163.923,168.83,173.528,176.897,181.784,185.117,189.05" y="553.137" svg_rhmargin="192.353" style="fill:#000000;font-family:MinionPro-Regular;font-size:9.0px;font-style:NORMAL;font-weight:normal;">exposures</text>
  <text x="192.481,195.359" y="550.078" svg_rhmargin="198.167" style="fill:#0000ff;font-family:MinionPro-Regular;font-size:5.85px;font-style:NORMAL;font-weight:normal;">25</text>
  <text x="198.24,200.4,202.623,209.304,211.584,214.484,217.005,224.46,228.351,231.152,235.052,237.377,240.962,243.122,245.345,249.208,254.098,258.08,263.041,267.292,271.225,274.636,276.859,279.379,284.41,286.633,289.327,294.108,298.89,303.75,305.973,312.178,316.086,320.766,322.989,326.358,329.259,332.799,337.686,341.666,344.432,349.319,352.652,356.585,358.808,362.789,367.787,372.647,374.87,382.316,386.249,389.158,393.148,397.912,402.549,404.934,407.454,411.369,413.592,417.525,424.815,428.73,431.25,435.183,440.181,444.243,448.482,450.705,453.927,456.396,458.556,462.437,464.597,466.82,470.267,474.158,477.059,479.579,484.277,486.5,491.092,493.864,496.087,500.002,504.595,509.557,512.925,517.812,525.123,529.851,532.752,535.272,539.864,544.895,547.118,549.92,554.51" y="553.138" svg_rhmargin="556.553" style="fill:#000000;font-family:MinionPro-Regular;font-size:9.0px;font-style:NORMAL;font-weight:normal;">. Ultimately, changes in food web structure and metabolic efficiency (i.e. ratio of consumption to </text>
  <text x="155.634,160.307,163.594,168.33,173.039,177.881,181.815,184.67,187.145,191.692,196.678,198.743,201.218,206.204,208.275,211.138,215.973,219.861,221.927,224.574,229.31,234.046,238.861,240.931,247.089,250.952,255.587,258.764,260.829,263.169,267.113,271.127,275.942,278.417,283.333,287.608,289.678,292.434,297.087,299.157,302.974,307.818,311.753,316.669,320.874,324.762,328.128,330.198,334.744,337.471,339.537,344.067,346.542,351.089,358.498,362.487,365.81,369.176,371.246,373.721,378.707,380.772,383.555,388.397,393.349,397.284,400.138,402.613,407.161,412.122,416.183,418.523,420.588,424.91,428.197,432.753,437.489,442.268,445.634,447.7,452.247,454.974,457.044,460.367,465.228,469.163,473.033,475.508,479.396,482.762,484.828,489.375,492.102,494.167,497.031,501.866,505.754,507.824,510.471,515.207,519.943,524.758,526.824,532.981,536.845,541.48,543.546,547.48,550.767,554.592" y="563.137" svg_rhmargin="556.635" style="fill:#000000;font-family:MinionPro-Regular;font-size:9.0px;font-style:NORMAL;font-weight:normal;">production in the food web) leading to changes of biomass in functional groups of species of the food web are </text>
  <text x="155.634,162.969,166.839,170.592,175.371,179.241,184.164,186.549,189.852,197.151,200.454,202.29,204.702,209.625,214.314,219.093,222.918,227.805,231.612,234.024,238.874,243.086,244.922,249.989,255.974,261.266,263.102,266.972,271.859,276.611,278.447,286.232,290.057,296.708,300.92,302.756,307.221,309.633,314.267,318.218,322.025,325.895,330.674,337.874,342.698,345.001,348.781,351.571,353.983,358.465,363.388,365.224,369.094,373.981,378.733,380.569,385.033,387.445,391.927,399.271,403.177,407.434,412.357,414.769,419.584,423.418,427.198,429.988,432.4,436.882,441.805,443.641,448.42,453.307,458.059,461.884,465.223,467.059,470.812,473.089,475.501,482.845,486.625,489.316,493.141,494.977,498.73,503.509,507.38,512.231,516.37,520.195,522.031,524.614,529.096,532.318,536.125,538.537,543.388,547.627" y="573.136" svg_rhmargin="549.679" style="fill:#000000;font-family:MinionPro-Regular;font-size:9.0px;font-style:NORMAL;font-weight:normal;">mechanisms influencing PCB and MeHg bioaccumulation and biomagnification under climate change forcing.</text>
  <text x="167.631,173.391,178.367,182.399,184.442,184.955,189.914,192.506,196.086,200.1,203.528,207.56,212.526,216.602,221.695,225.709,228.328,232.36,235.87,237.913,238.426,241.045,246.175,248.21800000000002,248.731,252.807,260.214,265.072,267.556,270.175,273.135,275.754,279.794,283.78,286.775,289.394,294.082,299.212,301.255,301.768,306.735,310.721,313.582,316.478,320.51,324.109,329.166,332.676,334.719,335.232,339.92,342.791,344.834,345.347,350.016,352.635,357.477,361.635,365.649,369.725,374.711,382.117,387.146,389.656,393.642,396.637,399.256,403.944,409.074,411.117,411.63,416.49,420.522,423.499,429.798,433.874,437.906,443.036,445.079,445.592,450.595,455.328,457.855,460.231,465.108,468.112,472.188,477.146,480.098,483.608,485.651,486.164,490.241,495.333,500.292,502.335,502.848,506.312,511.315,515.391,519.405,522.024,526.056,529.566,531.609,532.122,535.018,539.815,541.8580000000001,542.371,546.33,548.814,551.433" y="583.135" svg_rhmargin="554.637" style="fill:#000000;font-family:MinionPro-Regular;font-size:9.0px;font-style:NORMAL;font-weight:normal;">The discrepancies in amplification patterns of bioaccumulation between pollutants and species to cli-</text>
  <text x="155.634,163.143,167.088,169.943,173.93,176.342,180.26,185.204,189.239,194.254,198.559,202.546,204.958,208.993,212.379,216.366,218.778,221.217,223.839,228.387,232.341,234.719,239.012,241.424,244.28,249.032,251.444,256.262,260.249,262.661,266.648,271.058,275.875,278.344,282.379,284.953,290.004,294.039,298.953,301.365,303.939,309.024,311.436,316.362,320.396,323.99,326.897,329.309,333.902,338.195,340.607,345.521,348.095,351.014,353.761,357.748,361.135,365.122,370.174,374.143,378.13,381.595,384.007,386.581,391.666,394.078,397.041,401.976,405.963,408.375,413.004,415.578,420.377,424.49,428.459,432.494,437.435,444.8,449.789,452.257,456.202,459.157,461.731,466.378,471.463,473.875,477.376,481.321,484.177,488.164,490.576,495.222,498.048,500.46,505.422,510.114,512.601,514.934,519.77,522.734,526.768,531.685,534.592,538.057,540.469,543.745,546.268,548.482,552.417,554.469" y="593.134" svg_rhmargin="556.512" style="fill:#000000;font-family:MinionPro-Regular;font-size:9.0px;font-style:NORMAL;font-weight:normal;">mate change are likely to be explained in part by differences in the bioaccumulation rate of pollutants (i.e. </text>
  <text x="155.634,160.655,165.405,167.95,170.342,175.236,178.259,182.352,187.327,190.297,193.726,197.207,202.227,206.32,210.352,212.989,215.966,218.603,222.635,224.678,225.254,229.941,232.578,237.436,241.612,245.644,249.737,254.741,262.165,267.212,269.739,273.742,276.755,279.392,284.097,289.245,292.584,294.627,295.203,299.297,304.406,309.383,311.426,312.002,315.023,320.018,324.068,326.111,326.687,330.285,334.335,339.409,342.937,345.464,348.477,351.05,355.467,357.994,360.989,365.345,367.38800000000003,367.964,370.878,375.693,377.736,378.312,382.289,384.791,387.428,394.995,398.998,401.912,405.962,408.005,408.581,412.631,415.608,418.415,422.508,426.6,429.57,433.098,435.141,435.717,440.593,444.643,447.638,453.955,458.048,462.098,467.246,469.289,469.865,472.806,477.81,482.92,487.013,490.026,492.663,497.368,502.488,506.706,509.208,511.25100000000003,511.827,516.308,519.753,524.467,529.361,534.302,537.83,539.873,540.449,543.788,546.37,548.646,552.641,554.693" y="603.133" svg_rhmargin="556.736" style="fill:#000000;font-family:MinionPro-Regular;font-size:9.0px;font-style:NORMAL;font-weight:normal;">pollutant-specific bioaccumulation) and the sensitivity to climate effects between functional groups (i.e. </text>
  <text x="155.634,158.969,163.843,167.79,171.673,174.166,178.068,181.447,184.732,188.067,192.94,196.887,200.775,203.263,208.155,212.043,214.149,218.689,221.182,225.894,229.921,233.809,237.756,242.611,249.889,254.789,257.17,261.027,263.894,266.382,270.941,275.941,279.132,281.238,284.428,289.266,291.759,296.074,298.203,300.291,304.688,310.988,313.116,318.489,321.68,323.808,325.914,332.022,336.877,340.825,345.752,349.97,353.871,357.251,359.357,361.845,366.845,368.951,372.25,376.116,378.496,382.354,385.22,387.646,391.818,395.719,397.825,401.782,406.331,411.191,416.155,421.011,424.958,429.921,433.809,437.711,439.817,444.376,447.117,449.223,453.907,457.207,461.18,465.392,467.498,471.445,476.409,481.237,483.343,488.029,491.327,495.274,500.13,503.987,506.754,511.314,514.729,516.835,519.631,524.486,529.45,533.397,536.263,538.752,543.311,548.284,552.357,554.633" y="613.1320000000001" svg_rhmargin="556.676" style="fill:#000000;font-family:MinionPro-Regular;font-size:9.0px;font-style:NORMAL;font-weight:normal;">species-specific bioaccumulation) (Fig. 4A,B). Changes in relative abundance of prey and predator functional </text>
  <text x="155.634,159.891,163.113,167.604,172.275,176.991,180.294,182.053,185.923,190.891,194.761,198.631,201.376,203.135,205.934,210.704,214.529,216.288,221.049,224.829,227.628,232.227,238.392,242.181,246.312,249.615,251.374,255.856,258.52,260.279,264.743,267.155,271.79,275.741,279.548,283.417,288.196,295.396,300.22,302.524,306.304,309.094,311.506,315.987,320.91,322.962,324.722,329.312,333.794,337.133,338.892,342.717,346.965,350.835,358.035,362.688,364.965,368.736,370.788,372.547,375.922,380.431,385.21,387.622,392.319,394.371,396.131,400.001,404.924,406.683,409.095,416.294,421.091,425.573,429.002,431.801,435.671,440.423,443.168,444.928,449.536,452.758,456.654,460.785,462.544,464.848,467.539,471.364,478.735,480.495,483.078,487.56,490.899,492.658,498.688,503.494,505.906,510.793,515.464,519.992,524.456,526.214,529.571,533.567,535.844,543.179,547.661,552.584,554.636" y="623.131" svg_rhmargin="556.679" style="fill:#000000;font-family:MinionPro-Regular;font-size:9.0px;font-style:NORMAL;font-weight:normal;">groups affect the pathways of bioaccumulation. For example, squid, an important prey item for Chinook salmon, </text>
  <text x="155.634,159.504,164.391,169.143,170.943,175.434,178.233,183.003,186.828,190.167,191.967,195.225,200.022,203.892,207.699,210.111,213.936,217.239,219.039,222.153,225.924,227.976,232.215,234.267,236.319,238.119,242.898,246.894,251.277,255.048,257.1" y="633.13" svg_rhmargin="259.143" style="fill:#000000;font-family:MinionPro-Regular;font-size:9.0px;font-style:NORMAL;font-weight:normal;">and other species (e.g., hake, </text>
  <text x="258.9,266.514,270.114,273.336,275.46,280.22,283.595,287.033,289.373,294.206,297.239,299.057,303.341,306.464,310.658,315.113,319.874,323.348,326.03,330.863,333.896" y="633.13" svg_rhmargin="336.011" style="fill:#000000;font-family:MinionPro-It;font-size:9.0px;font-style:ITALIC;font-weight:normal;">Merluccius productus;</text>
  <text y="633.13" svg_rhmargin="370.912" x="337.811,341.033,345.703,349.456,353.956,358.744,362.011,366.817,368.869" style="fill:#000000;font-family:MinionPro-Regular;font-size:9.0px;font-style:NORMAL;font-weight:normal;">rockfish, </text>
  <text x="370.669,374.935,378.355,382.692,387.102,390.045,392.718,396.246" y="633.13" svg_rhmargin="399.279" style="fill:#000000;font-family:MinionPro-It;font-size:9.0px;font-style:ITALIC;font-weight:normal;">Sebastes</text>
  <text y="633.13" svg_rhmargin="468.014" x="401.064,404.322,408.939,413.394,415.446,417.498,419.298,423.906,426.318,431.286,435.75,437.55,440.906,444.902,447.18,454.514,458.996,463.919,465.971" style="fill:#000000;font-family:MinionPro-Regular;font-size:9.0px;font-style:NORMAL;font-weight:normal;">spp.; pink salmon, </text>
  <text x="467.771" y="633.13" svg_rhmargin="474.143" style="fill:#000000;font-family:MinionPro-It;font-size:9.0px;font-style:ITALIC;font-weight:normal;">O</text>
  <text x="474.143,476.195" y="633.13" svg_rhmargin="478.238" style="fill:#000000;font-family:MinionPro-Regular;font-size:9.0px;font-style:NORMAL;font-weight:normal;">. </text>
  <text x="477.987,481.767,485.907,489.12,493.404,498.237,501.297,504.626,509.163" y="633.13" svg_rhmargin="513.573" style="fill:#000000;font-family:MinionPro-It;font-size:9.0px;font-style:ITALIC;font-weight:normal;">gorbuscha</text>
  <text x="513.573,516.687,518.487,522.357,525.579,529.404,531.204,536.01,538.422,542.697,547.467,551.292,554.631" y="633.13" svg_rhmargin="556.674" style="fill:#000000;font-family:MinionPro-Regular;font-size:9.0px;font-style:NORMAL;font-weight:normal;">) are higher </text>
  <text x="155.625,158.082,163.05,165.039,169.547,172.004,176.53,183.917,187.884,191.186,194.534,196.523,201.174,204.44,208.975,211.367,215.281,219.194,221.928,225.842,230.639,232.628,237.452,242.382,247.179,251.049,254.433,256.422,261.982,268.012,273.124,275.113,279.478,281.575,285.94,287.929,291.195,295.027,297.374,301.198,304.032,306.424,310.562,314.432,316.421,319.155,323.79,325.779,328.622,333.435,338.07,341.489,345.359,347.348,352.172,357.103,361.9,365.77,369.154,371.143,376.703,382.733,387.845,389.834,394.199,396.296,400.661,402.65,405.809,408.211,410.307,414.122,416.219,418.208,422.716,425.173,429.698,437.086,441.053,444.354,447.702,449.691,453.076,456.899,459.732,462.189,466.824,468.813,474.373,480.403,485.515,487.504,491.869,493.966,498.331,500.32,503.054,507.689,509.678,515.24,521.27,526.382,528.371,532.736,534.833,539.198" y="643.129" svg_rhmargin="541.241" style="fill:#000000;font-family:MinionPro-Regular;font-size:9.0px;font-style:NORMAL;font-weight:normal;">in biomass projected under RCP 8.5 relative to those under RCP 2.6 (i.e. biomass ratio RCP 8.5 to RCP 2.6 </text>
  <text x="541.187" y="643.129" svg_rhmargin="548.189" style="fill:#000000;font-family:EuclidSymbol;font-size:9.0px;font-style:NORMAL;font-weight:normal;">&gt;</text>
  <text x="548.205,552.569,554.621" y="643.129" svg_rhmargin="556.664" style="fill:#000000;font-family:MinionPro-Regular;font-size:9.0px;font-style:NORMAL;font-weight:normal;">1; </text>
  <text x="155.625,160.427,162.884,167.163,169.26,171.242,175.553,179.914,183.073,185.165,187.145,190.111,195.079,197.059,200.911,205.433,210.227,213.057,216.441,220.406,223.705,226.49,228.587,230.567,235.1,237.94,242.751,246.621,250.0,251.98,254.74,259.559,264.487,268.398,271.229,273.682,278.205,283.142,287.179,289.497,291.477,294.775,299.613,303.524,307.372,309.829,313.694,317.042,319.022,322.181,324.58,326.677,330.488,332.585,334.565,337.19,341.712,345.096,349.043,353.224,357.089,359.069,363.898,367.206,372.053,374.15,376.13,380.995,384.816,387.647,392.476,395.784,400.631,403.79,405.77,409.681,412.944,416.814,418.794,423.443,426.705,431.238,433.627,437.539,441.449,444.182,448.092,452.885,454.865,457.596,462.231,464.211,469.032,472.862,476.998,480.868,482.848,486.111,489.94,492.285,496.106,498.937,501.327,505.464,509.293,511.549,515.72,517.7,520.018,524.505,530.638,534.508,537.888,539.868,544.372,546.829,551.418" y="653.1279999999999" svg_rhmargin="554.622" style="fill:#000000;font-family:MinionPro-Regular;font-size:9.0px;font-style:NORMAL;font-weight:normal;">Fig. S9). In contrast, other functional species (i.e. forage fish, flatfish) are projected to have relatively lower bio-</text>
  <text x="155.625,163.022,166.998,170.308,173.665,175.69,180.523,185.462,190.268,194.147,197.54,199.561,205.13,211.169,216.29,218.31,222.684,224.79,229.164,231.185,234.036,238.867,242.789,247.766,249.787,254.62,259.559,264.365,268.244,271.637,273.662,279.23,285.269,290.39,292.415,296.789,298.895,303.269,305.29,308.458,313.273,315.739,320.03,322.136,324.157,328.477,332.851,336.019,338.125,340.15,346.278,349.635,351.66,355.665,357.685,360.959,364.838,368.149,373.024,375.245,378.044,380.15,382.171,385.598,390.159,394.992,397.458,402.264,404.289,407.457,410.298,413.572,418.116,422.821,427.681,430.147,434.008,436.028,438.359,442.309,446.455,450.296,452.598,455.955,458.061,460.082,465.689,470.585" y="663.127" svg_rhmargin="472.628" style="fill:#000000;font-family:MinionPro-Regular;font-size:9.0px;font-style:NORMAL;font-weight:normal;">mass under RCP 8.5 than under RCP 2.6 (Fig. S9). As a result, squid (trophic levels, TL </text>
  <text x="471.651" y="663.127" svg_rhmargin="478.653" style="fill:#000000;font-family:EuclidSymbol;font-size:9.0px;font-style:NORMAL;font-weight:normal;">=</text>
  <text y="663.127" svg_rhmargin="556.696" x="479.886,484.26,486.366,490.74,493.908,495.933,500.638,504.56,508.421,512.955,520.342,524.221,527.578,529.603,533.608,535.633,543.02,547.555,550.828,554.653" style="fill:#000000;font-family:MinionPro-Regular;font-size:9.0px;font-style:NORMAL;font-weight:normal;">3.4) becomes a more </text>
  <text x="155.625,158.037,165.237,170.034,174.515,177.944,180.743,184.613,189.365,192.11,193.928,197.303,201.794,206.573,209.795,213.602,217.427,219.245,223.727,226.391,228.209,232.673,235.085,239.567,246.911,250.835,254.093,257.396,259.214,261.905,266.495,268.313,271.571,276.241,280.858,285.655,290.137,293.566,296.311,298.129,300.928,305.698,309.523,311.341,315.949,319.171,323.842,328.486,333.265,337.135,339.925,342.337,346.818,351.741,353.559,358.041,360.705,362.523,367.131,370.353,374.223,379.002,382.782,385.473,389.955,393.554,397.685,399.503,402.761,407.558,411.428,415.235,417.647,421.472,424.775,426.593,429.851,434.63,438.383,443.189,445.007,448.931,452.234,454.052,457.409,461.405,463.682,471.017,475.499,480.422,482.24,485.354,490.907,495.749" y="673.126" svg_rhmargin="497.792" style="fill:#000000;font-family:MinionPro-Regular;font-size:9.0px;font-style:NORMAL;font-weight:normal;">important source of biomass to support the production of predatory species such as salmon (TL </text>
  <text x="496.833" y="673.126" svg_rhmargin="503.835" style="fill:#000000;font-family:EuclidSymbol;font-size:9.0px;font-style:NORMAL;font-weight:normal;">=</text>
  <text y="673.126" svg_rhmargin="556.675" x="504.96,509.28,511.332,515.652,518.766,520.584,524.455,529.342,534.094,535.912,540.412,542.869,545.191,547.468,551.293,554.632" style="fill:#000000;font-family:MinionPro-Regular;font-size:9.0px;font-style:NORMAL;font-weight:normal;">3.9) and killer </text>
  <text x="155.625,161.853,166.632,170.628,172.905,176.73,180.033,181.869,184.983,190.536,192.813" y="683.125" svg_rhmargin="194.856" style="fill:#000000;font-family:MinionPro-Regular;font-size:9.0px;font-style:NORMAL;font-weight:normal;">whales (Tl </text>
  <text x="193.938" y="683.125" svg_rhmargin="200.94" style="fill:#000000;font-family:EuclidSymbol;font-size:9.0px;font-style:NORMAL;font-weight:normal;">=</text>
  <text y="683.125" svg_rhmargin="556.637" x="202.065,206.385,208.437,212.757,215.871,217.707,222.486,227.373,232.125,235.95,239.289,241.125,246.642,252.627,257.694,259.53,263.85,265.902,270.222,272.274,274.11,280.185,283.488,285.324,288.123,292.893,296.718,298.554,303.018,305.43,310.065,314.016,317.823,321.693,326.472,333.671,338.495,340.799,344.579,347.369,349.781,354.263,359.186,361.022,365.504,368.168,370.004,375.071,381.056,386.348,388.184,390.569,393.872,395.708,403.043,407.525,410.747,414.572,416.408,420.233,427.415,431.222,433.634,437.459,442.211,444.956,446.792,449.591,454.397,457.619,462.11,466.889,471.163,475.969,477.805,481.18,485.689,490.468,492.88,497.632,499.468,502.267,507.046,510.916,515.839,517.675,522.166,524.965,529.735,533.56,536.899,538.735,543.344,546.565,550.463,554.594" style="fill:#000000;font-family:MinionPro-Regular;font-size:9.0px;font-style:NORMAL;font-weight:normal;">4.8) under RCP 8.5. As the bioaccumulation of PCB is more efficient through squid than other prey </text>
  <text x="155.625,158.038,160.838,164.771,172.179,175.59,177.813,182.403,185.175,187.398,192.376,196.435,200.35,202.87,207.793,211.708,213.931,217.397,221.502,223.887,231.331,235.922,240.953,243.176,246.398,248.864,251.024,254.904,257.064,259.287,265.426,270.34,272.86,277.856,282.636,287.272,291.844,294.062,297.528,301.633,304.018,311.461,316.052,321.083,324.305,326.465,328.688,331.596,336.475,340.408,342.626,346.541,351.132,356.128,360.043,363.976,368.837,371.736,375.183,379.072,381.971,384.491,389.081,394.112,396.335,400.926,403.698,405.916,411.091,417.184,422.584,424.807,427.327,432.358,434.581,437.488,442.367,446.3,449.784,453.717,455.94,460.657,463.988,467.966,472.854,476.743,479.543,484.133,487.841,492.08,494.303,497.67,502.575,506.554,510.469,512.989,516.922,520.333,522.556,525.05,528.461,530.684,535.598,538.118,542.501,547.38,551.313,554.652" y="693.124" svg_rhmargin="556.695" style="fill:#000000;font-family:MinionPro-Regular;font-size:9.0px;font-style:NORMAL;font-weight:normal;">items of Pacific salmon (i.e. Chinook salmon), the concentration of PCB in these predatory species is higher </text>
  <text x="155.625,160.404,165.291,170.043,173.868,177.207,179.043,184.56,190.545,195.612,197.448,201.768,203.82,208.14,209.976,213.09,215.448,217.5,221.27,223.322,225.158,227.957,232.727,236.552,238.388,240.665,245.111,251.204,255.029,258.368,260.204,264.668,267.08,271.561,278.905,282.829,286.087,289.39,291.226,295.708,298.372,300.208,303.583,308.092,312.871,315.283,320.035,321.871,326.65,331.537,336.289,340.114,343.453,345.289,350.806,356.791,361.858,363.694,368.014,370.066,374.386,376.222,378.634,383.521,387.328,390.55,394.429,398.353,401.728,405.553,408.856,410.692,412.996,415.741,419.044,420.88,425.677,429.502,432.841,434.677,439.456,444.379,446.683,449.428,451.264,456.331,462.316,467.608,469.444,473.251,477.733,482.62,486.427,490.252,495.003,497.793,501.132,504.912,507.702,510.114,514.596,519.519,522.633" y="703.123" svg_rhmargin="524.685" style="fill:#000000;font-family:MinionPro-Regular;font-size:9.0px;font-style:NORMAL;font-weight:normal;">under RCP 2.6 (i.e. the lower biomass of squid under RCP 2.6 increases its per unit PCB concentration).</text>
  <text x="167.622,176.252,181.058,183.515,185.792,189.617,191.354,194.152,198.921,202.746,205.967,209.792,211.529,213.913,217.216,218.953,222.904,224.641,227.223,231.893,236.563,241.315,243.052,249.144,252.941,257.513,260.717,263.975,268.771,272.639,276.446,278.858,283.673,287.48,289.217,294.013,298.539,300.86,303.028,307.698,310.496,314.366,319.117,321.862,323.599,328.062,330.474,334.955,342.298,346.203,350.459,355.382,357.794,362.609,366.442,370.221,373.01,375.422,379.904,384.827,386.564,391.171,394.392,399.062,402.869,406.694,409.95,413.253,414.99,419.742,423.133,425.482,429.674,432.086,436.937,441.149,442.886,445.684,450.453,454.278,456.015,458.292,462.772,467.622,471.834,475.038,477.728,481.553,484.945,492.316,494.053,498.516,500.928,505.562,509.513,513.32,517.19,521.969,529.168,533.991,536.294,540.073,542.861,545.273,549.754,554.677" y="713.122" svg_rhmargin="556.72" style="fill:#000000;font-family:MinionPro-Regular;font-size:9.0px;font-style:NORMAL;font-weight:normal;">While there is a food web-specific pollutant biomagnification process driving the long-term bioaccumulation </text>
  <text x="155.625,160.39,164.174,166.834,169.529,173.358,176.755,181.682,183.626,186.214,190.699,194.043,195.987,199.815,202.124,204.927,209.701,213.53,216.874,218.818,226.607,230.436,237.091,241.307,243.251,247.738,251.08,253.024,258.096,264.084,269.381,272.688,274.632,277.048,281.975,283.919,288.082,293.675,299.736,308.479,311.786,313.842,315.786,318.588,323.363,327.192,329.136,333.946,336.362,340.641,345.452,347.396,350.189,353.416,357.911,362.568,367.378,369.794,373.606,375.55,377.83,381.732,385.831,389.624,391.851,393.908,395.852,398.132,402.619,407.474,411.69,413.634,415.915,418.331,420.919,424.747,426.691,429.953,434.718,438.592,443.519,445.576,447.52,451.394,456.285,461.042,462.986,465.266,469.096,472.358,475.665,477.609,482.23,487.058,489.313,492.691,496.521,498.465,500.881,505.808,507.752,510.555,515.329,519.158,521.102,525.859,529.732,533.49,535.771,538.187,543.115,545.53,550.386,554.598" y="723.121" svg_rhmargin="556.641" style="fill:#000000;font-family:MinionPro-Regular;font-size:9.0px;font-style:NORMAL;font-weight:normal;">pattern for either MeHg or PCBs in SRKWs, the high trophic level, long life span, and less pulse in the declining </text>
  <text x="155.625,160.152,162.627,167.173,174.58,178.567,181.888,185.254,187.315,191.86,194.587,196.648,200.869,206.521,212.641,221.443,224.809,226.87,229.345,234.331,236.392,239.677,243.565,246.886,251.746,256.291,261.205,264.644,268.532,270.593,273.347,278.0,280.061,284.777,289.331,292.193,297.062,299.123,302.939,305.279,307.754,315.162,319.005,321.759,325.647,327.708,331.524,336.366,340.299,345.213,349.417,353.305,355.366,358.012,362.558,365.843,369.713,372.188,377.102,381.377,383.438,387.371,392.321,397.136,399.197,403.067,407.612,412.427,415.29,419.223,426.657,429.132,434.091,438.025,442.84,445.648,447.709,452.246,457.088,460.373,465.188,469.076,474.062,476.123,478.598,483.584,485.645,493.052,496.895,499.307,503.852,507.254,509.315,513.986,517.271,521.231,525.425,527.486,530.663,535.596,539.61,543.48,545.955,550.833,554.64" y="733.12" svg_rhmargin="556.683" style="fill:#000000;font-family:MinionPro-Regular;font-size:9.0px;font-style:NORMAL;font-weight:normal;">biomass of SRKWs in response to both climate change forcing and contaminant burden in major prey (Pacific </text>
  <text x="155.625,158.98,162.974,165.251,172.583,177.063,181.986,184.038,185.775,188.131,190.183,193.951,196.003,197.74,203.768,208.574,210.986,215.87,220.539,225.064,229.528,231.265,234.619,238.613,240.89,248.224,252.703,257.626,260.74,262.477,266.344,269.564,273.389,275.126,279.778,282.079,285.856,290.606,293.909,296.284,300.79,303.067,306.892,308.629,311.848,315.725,319.647,323.02,327.499,332.348,335.651,337.388,340.077,344.667,346.404,350.229,354.477,359.128,361.429,365.297,367.709,372.632,374.369,376.781,381.704,383.441,388.2,392.068,395.494,398.239,399.976,402.773,407.541,411.366,413.103,417.753,421.539,426.316,430.103,434.295,436.707,441.187,444.526,446.263,450.742,453.406,455.143,457.94,462.708,466.533,469.905,473.73,475.467,479.274,483.754,488.504,491.3,495.168,502.539,504.951,509.845,513.714,518.463,521.208,522.945,525.733,528.952,532.777,537.662,542.385,545.688,547.425,549.837,554.76" y="743.119" svg_rhmargin="556.803" style="fill:#000000;font-family:MinionPro-Regular;font-size:9.0px;font-style:NORMAL;font-weight:normal;">salmon, i.e. Chinook salmon) are plausible reasons to explain in part the behavior of these contaminant trends in </text>
  <text x="155.625,159.783,165.372,171.429,180.168,183.471,185.307,189.754,193.849,197.674,201.013,202.849,205.648,210.418,214.243,216.079,219.382,221.794,228.994,233.818,236.122,239.902,242.692,245.104,249.586,254.509,256.345,261.141,264.966,268.359,270.771,275.442,280.14" y="753.118" svg_rhmargin="282.192" style="fill:#000000;font-family:MinionPro-Regular;font-size:9.0px;font-style:NORMAL;font-weight:normal;">SRKWs over the simulation period.</text>
  <rect style="stroke:blue;stroke-width:0.3;" x="155.638" y="64.138" height="304.92" width="240.0" title="6"/>
  <text x="155.638" y="64.138" class="image" id="image.6.1" width="240" height="304">image.6.1.156_396.64_369</text>
  <text x="155.638,160.552,163.207,167.662,172.657,176.221,180.154,181.909,186.409" y="387.601" svg_rhmargin="188.695" style="fill:#000000;font-family:MinionPro-Bold;font-size:9.0px;font-style:NORMAL;font-weight:bold;">Figure 4.</text>
  <text y="387.601" svg_rhmargin="528.667" x="193.195,200.98,204.859,208.729,213.652,215.488,220.285,224.11,227.331,231.138,234.963,239.715,242.514,246.42,250.56,254.385,256.221,259.974,264.753,268.623,273.474,277.614,281.439,283.275,285.687,290.61,292.446,297.513,303.498,308.79,310.626,314.433,318.915,323.802,327.609,331.434,336.185,338.975,342.314,346.094,348.884,351.296,355.778,360.629,363.932,365.768,370.376,373.598,378.089,380.438,384.307,388.177,390.868,394.738,399.49,401.326,403.738,408.661,410.497,413.296,418.066,421.891,423.727,426.31,430.981,435.652,440.404,442.24,448.333,452.131,456.703,458.539,461.293,464.515,468.997,476.368,478.204,482.524,486.844,491.164,495.484,497.32,500.011,504.601,506.437,510.757,515.077,519.397,523.717,525.553" style="fill:#000000;font-family:MinionPro-Regular;font-size:9.0px;font-style:NORMAL;font-weight:normal;">Mean percentage change in PCB concentrations projected in the food web from 2070 to 2099 (</text>
  <text x="528.667" y="387.601" svg_rhmargin="535.021" style="fill:#000000;font-family:MinionPro-Bold;font-size:9.0px;font-style:NORMAL;font-weight:bold;">A</text>
  <text x="535.021,538.135" y="387.601" svg_rhmargin="540.178" style="fill:#000000;font-family:MinionPro-Regular;font-size:9.0px;font-style:NORMAL;font-weight:normal;">) </text>
  <text x="155.638,159.508,164.395,169.147,170.983,173.566,178.048,181.387,183.223,186.021,190.791,194.616,196.452,200.277,205.029,207.819,210.231,213.453,217.278,219.114,222.417,224.829,232.028,236.852,239.156,242.936,245.726,248.138,252.62,257.543,259.379,264.176,268.001,271.394,273.806,278.477,283.229,285.065,288.179,292.499,296.819,301.139,305.459,310.139,314.459,318.779,323.099,327.419,330.533,332.585,334.421" y="397.6" svg_rhmargin="337.535" style="fill:#000000;font-family:MinionPro-Regular;font-size:9.0px;font-style:NORMAL;font-weight:normal;">and for the entire simulation period (2005–2099). (</text>
  <text x="337.535" y="397.6" svg_rhmargin="343.268" style="fill:#000000;font-family:MinionPro-Bold;font-size:9.0px;font-style:NORMAL;font-weight:bold;">B</text>
  <text x="343.268,346.382,348.218,353.591,357.461,360.746,364.049,365.885,369.107,372.932,377.54,380.762,384.587,387.961,391.786,396.538,399.283,401.119,403.918,408.688,412.513,414.349,421.684,425.563,429.433,434.356" y="397.6" svg_rhmargin="436.399" style="fill:#000000;font-family:MinionPro-Regular;font-size:9.0px;font-style:NORMAL;font-weight:normal;">) Bars represent the mean </text>
  <text x="435.511" y="397.6" svg_rhmargin="442.513" style="fill:#000000;font-family:EuclidSymbol;font-size:9.0px;font-style:NORMAL;font-weight:normal;">±</text>
  <text y="397.6" svg_rhmargin="553.177" x="443.638,447.958,452.278,459.082,460.918,466.903,469.972,471.808,476.29,478.954,480.79,484.543,489.322,493.192,498.043,502.183,506.008,509.311,511.147,515.926,520.813,525.565,529.39,532.729,534.565,540.082,546.067,551.134" style="fill:#000000;font-family:MinionPro-Regular;font-size:9.0px;font-style:NORMAL;font-weight:normal;">95% CI of changes under RCP </text>
  <text x="155.638,159.958,162.01,166.33,168.166,172.036,176.923,181.675,183.511,189.028,195.013,200.08,201.916,206.236,208.288,212.608,214.444,217.819,221.626,225.451,230.347,234.217,237.61,240.022,244.612,247.915,249.751,252.973,256.762,259.066,262.846,265.636,267.985,272.08,275.905,277.741,280.431,285.021,286.857,289.656,294.426,298.251,300.087,303.309,307.134,309.717,313.542,316.764,320.589,325.476,329.283,333.108,334.944,339.561,343.485,346.86,350.649,352.926,355.338,360.225,364.05,365.886,369.0,371.358,373.41,377.181,379.233,381.069,385.956,390.546,393.75,397.503,399.78,402.192,409.535,413.315,416.006,419.831,421.667,425.42,430.199,434.069,438.92,443.06,446.885,448.721,452.528,457.01,461.762,464.552,467.774,472.301,474.578,477.692,479.528,482.111,486.593,489.932,491.768,496.421,501.02,505.151,507.842,512.333,516.987,519.29,523.16,528.128,532.475,535.166,539.648,544.571,546.623" y="407.599" svg_rhmargin="548.666" style="fill:#000000;font-family:MinionPro-Regular;font-size:9.0px;font-style:NORMAL;font-weight:normal;">2.6 and RCP 8.5 scenarios relative to the reference baseline (i.e. no-climate change control) for phytoplankton, </text>
  <text x="155.638,159.418,164.089,168.58,173.233,175.537,179.407,184.375,188.722,191.413,195.895,200.818,202.87,204.706,207.289,211.771,215.11,219.016,223.156,226.981,231.769,235.036,239.842,241.894,243.73,247.105,251.614,256.393,258.805,263.502,265.554,267.39,273.42,278.226,280.638,285.525,290.196,294.723,299.187,301.023,304.38,308.376,310.653,317.988,322.47,327.393,329.229,333.099,337.986,342.738,344.574,347.949,352.44,357.111,359.91,364.68,368.505,371.897,376.82,378.656,381.878,385.703,389.006,391.418,396.17,399.995,404.747,407.492,409.328,413.827,416.284,418.606,420.883,424.708,428.047,429.883,436.111,440.89,444.886,447.163,450.988,454.291,456.127,459.241,463.399,468.988,475.045,483.811,486.925,488.977,490.813,500.416,504.241,506.077,510.586,512.89,516.841,520.594,525.058,526.894,530.764,535.651,540.403" y="417.598" svg_rhmargin="542.446" style="fill:#000000;font-family:MinionPro-Regular;font-size:9.0px;font-style:NORMAL;font-weight:normal;">zooplankton, foragefish, squid, Chinook salmon and southern resident killer whales (SRKW). The black and </text>
  <text x="155.638,159.895,163.117,167.014,171.145,172.981,177.76,181.684,184.951,189.721,193.591,198.343,200.179,202.456,204.868,209.755,213.58,216.883,218.719,221.941,225.766,230.374,233.596,237.421,240.796,244.621,249.373,252.118,253.954,256.753,261.522,265.347,267.183,270.972,275.067,278.892,282.231,286.137,290.277,294.102,295.938,301.005,306.99,312.282,314.118,317.925,322.407,327.294,331.101,334.926,339.678,342.468,345.807,349.587,352.377,354.789,359.27,364.121,367.424,369.26,372.014,375.236,379.718,387.089,388.925,393.245,397.565,401.885,406.205,410.885,415.205,419.525,423.845,428.165,430.001,433.871,438.758,443.51,445.346,448.1,451.322,455.804,463.175,465.011,469.331,473.651,477.971,482.291,486.971,491.291,495.611,499.931,504.251,506.087,510.866,515.753,520.505,524.33,527.669,529.505,532.303,537.073,540.898" y="427.597" svg_rhmargin="542.941" style="fill:#000000;font-family:MinionPro-Regular;font-size:9.0px;font-style:NORMAL;font-weight:normal;">grey dashed lines represent the average PCB concentrations from 2070–2099 and from 2005–2099 under the </text>
  <text x="155.638,157.681,162.154,166.906,170.209,172.621,177.508,181.333,184.591,187.894,191.098,195.021,198.324,201.528,206.28,209.538,214.344,218.34,220.383,222.39,224.226,227.34,232.856,238.841,243.908,245.744,250.064,252.116,256.436,259.55,261.386,265.256,270.143,274.895,276.731,278.225,281.483,284.273,287.495,291.977,296.828,301.04,302.876,310.247,312.551,315.341,317.753,321.965,325.745,328.535,330.947,335.428,339.614,341.621,343.457,346.571,352.088,358.073,363.14,364.976,369.296,371.348,375.668,378.782,380.618,383.992,387.799,391.624,396.52,400.39,403.783,406.195,410.785,414.088,416.14,417.976,421.198,425.023,428.281,433.077,436.947,440.817,443.607,445.956,450.051,453.84,456.054,459.528" y="437.596" svg_rhmargin="461.58" style="fill:#000000;font-family:MinionPro-Regular;font-size:9.0px;font-style:NORMAL;font-weight:normal;">‘business-as-usual’ (RCP 8.5) and ‘strong mitigation’ (RCP 2.6) scenarios, respectively.</text>
 </g>
</svg>
