<?xml version="1.0" encoding="UTF-8"?>
<svg height="774.0" width="587.11" xmlns="http://www.w3.org/2000/svg">
 <g style="fill:none;">
  <path d=" M 439.8236083984375 253.30389404296875 L 449.3479919433594 253.30389404296875 Z " style="fill:none;stroke:#000000;stroke-width:1.0;"/>
  <path d=" M 455.527587890625 240.32130432128906 L 465.052001953125 240.32130432128906 Z " style="fill:none;stroke:#000000;stroke-width:1.0;"/>
  <path d=" M 360.51019287109375 214.2991943359375 L 369.9779968261719 214.2991943359375 Z " style="fill:none;stroke:#000000;stroke-width:1.0;"/>
  <path d=" M 375.1936950683594 214.2991943359375 L 384.6614074707031 214.2991943359375 Z " style="fill:none;stroke:#000000;stroke-width:1.0;"/>
  <text x="200.012,202.882,206.592,211.652,219.87199999999999,222.065,226.815,231.565,236.315,241.105,243.268,246.249,251.349,253.529,256.509,261.78,266.04999999999995,268.214,272.754,276.983,281.314,285.064,287.262,292.012,296.762,301.512,306.262,308.552,310.732,313.393,317.03299999999996,319.237,323.566,328.727,333.886,337.596,342.656,347.297,349.956,358.136,362.466,365.446,369.677,374.987,377.232,381.563,385.203,387.38,390.36,395.63,399.9,402.12,405.721,409.951,415.431,419.031,421.691,424.671,427.331,431.871,434.531,437.511,442.091,444.301,449.361,452.271,454.448,458.049,462.279,466.649,468.849,471.309,475.539,480.078,484.309,486.809,488.974,491.953,497.053,499.235,503.875,506.336,511.396,516.456,520.786,523.286,525.484,533.664,537.893,542.224,547.744,549.919,552.898,557.129,565.309" y="466.022" svg_rhmargin="568.849" style="fill:#000000;font-family:MinionPro-Regular;font-size:10.0px;font-style:NORMAL;font-weight:normal;">from 1880 to the year 2300, is approximated as the sensitivity of sea level to global mean tem-</text>
  <text svg_rhmargin="233.672" x="200.012,205.173,209.402,213.113,217.442,220.423,225.692,229.402,233.672" y="479.004" style="fill:#000000;font-family:MinionPro-Regular;font-size:10.0px;font-style:NORMAL;font-weight:normal;">perature </text>
  <text svg_rhmargin="241.478" x="235.898,241.478" y="479.004" style="fill:#000000;font-family:EVYBBQ+SymbolGreekU-Italic-Identity-H;font-size:10.0px;font-style:ITALIC;font-weight:normal;">α </text>
  <text svg_rhmargin="438.353" x="243.551,246.531,249.191,257.371,261.602,265.24199999999996,267.477,270.456,275.727,279.99699999999996,282.159,287.43,290.089,292.96,295.829,300.06,303.77,308.0,313.479,317.71,321.97999999999996,324.168,329.228,333.458,336.438,343.268,347.498,351.729,357.24899999999997,359.488,362.469,366.698,374.879,380.039,384.268,387.979,392.309,395.289,400.559,404.269,408.539,410.738,415.068,418.08799999999997,420.263,423.242,425.903,434.083,438.353" y="479.004" style="fill:#000000;font-family:MinionPro-Regular;font-size:10.0px;font-style:NORMAL;font-weight:normal;">times the difference between temperature at time </text>
  <text svg_rhmargin="443.628" x="440.558,443.628" y="479.004" style="fill:#000000;font-family:MinionPro-It;font-size:10.0px;font-style:ITALIC;font-weight:normal;">t </text>
  <text x="445.775,450.104,455.585,460.895,463.065,466.045,471.315,475.585,477.748,480.729,484.958,493.138,498.299,502.529,506.239,510.569,513.549,518.819,522.529,526.799,529.055,535.885,541.156,545.385,550.905,553.094,556.074,561.344" y="479.004" svg_rhmargin="565.614" style="fill:#000000;font-family:MinionPro-Regular;font-size:10.0px;font-style:NORMAL;font-weight:normal;">and the temperature when the</text>
  <text svg_rhmargin="316.837" x="200.012,203.613,207.842,212.173,215.673,218.132,222.363,226.902,231.132,233.632,235.841,240.171,245.651,250.712,258.891,263.221,265.681,270.26099999999997,272.466,276.695,281.755,287.026,291.355,293.815,297.455,299.677,303.797,308.027,311.737,316.83700000000005" y="492.043" style="fill:#000000;font-family:MinionPro-Regular;font-size:10.0px;font-style:NORMAL;font-weight:normal;">sea-level anomaly equals zero </text>
  <text x="319.009" y="492.043" svg_rhmargin="325.039" style="fill:#000000;font-family:MinionPro-It;font-size:10.0px;font-style:ITALIC;font-weight:normal;">T</text>
  <text x="324.907" y="493.688" svg_rhmargin="328.499" style="fill:#000000;font-family:MinionPro-Regular;font-size:6.67px;font-style:NORMAL;font-weight:normal;">0</text>
  <text svg_rhmargin="330.769" x="328.479,330.769" y="510.98" style="fill:#000000;font-family:MinionPro-Regular;font-size:10.0px;font-style:NORMAL;font-weight:normal;">, </text>
  <path d=" M 344.8630065917969 284.9385986328125 L 359.82989501953125 284.9385986328125 L 359.82989501953125 284.54168701171875 L 344.8630065917969 284.54168701171875" style="fill:none;stroke:#000000;stroke-width:0.0;"/>
  <text x="344.863" y="510.98" svg_rhmargin="349.863" style="fill:#000000;font-family:PI_chars_2;font-size:10.0px;font-style:NORMAL;font-weight:normal;">d</text>
  <text x="349.863" y="510.98" svg_rhmargin="357.283" style="fill:#000000;font-family:MinionPro-It;font-size:10.0px;font-style:ITALIC;font-weight:normal;">H</text>
  <text x="357.279" y="513.4739999999999" svg_rhmargin="359.121" style="fill:#000000;font-family:MinionPro-It;font-size:6.0px;font-style:ITALIC;font-weight:normal;">t</text>
  <text x="348.094" y="524.643" svg_rhmargin="353.094" style="fill:#000000;font-family:PI_chars_2;font-size:10.0px;font-style:NORMAL;font-weight:normal;">d</text>
  <text svg_rhmargin="356.164" x="353.094,356.164" y="517.784" style="fill:#000000;font-family:MinionPro-It;font-size:10.0px;font-style:ITALIC;font-weight:normal;">t </text>
  <text svg_rhmargin="370.307" x="362.607,370.307" y="517.784" style="fill:#000000;font-family:TeX_CM_Maths_Symbols;font-size:10.0px;font-style:NORMAL;font-weight:normal;">¼ </text>
  <text x="373.095" y="517.784" svg_rhmargin="378.095" style="fill:#000000;font-family:PI_chars_2;font-size:10.0px;font-style:NORMAL;font-weight:normal;">a</text>
  <text x="378.095" y="517.784" svg_rhmargin="381.945" style="fill:#000000;font-family:TeX_CM_Maths_Symbols;font-size:10.0px;font-style:NORMAL;font-weight:normal;">ð</text>
  <text x="381.945" y="517.784" svg_rhmargin="387.975" style="fill:#000000;font-family:MinionPro-It;font-size:10.0px;font-style:ITALIC;font-weight:normal;">T</text>
  <text svg_rhmargin="389.735" x="387.893,389.73499999999996" y="517.783" style="fill:#000000;font-family:MinionPro-It;font-size:6.0px;font-style:ITALIC;font-weight:normal;">t </text>
  <text svg_rhmargin="395.155" x="392.655,395.155" y="517.783" style="fill:#000000;font-family:TeX_CM_Maths_Symbols;font-size:10.0px;font-style:NORMAL;font-weight:normal;">? </text>
  <text x="402.632" y="517.783" svg_rhmargin="408.662" style="fill:#000000;font-family:MinionPro-It;font-size:10.0px;font-style:ITALIC;font-weight:normal;">T</text>
  <text x="408.586" y="520.277" svg_rhmargin="411.586" style="fill:#000000;font-family:TeX_CM_Roman;font-size:6.0px;font-style:NORMAL;font-weight:normal;">0</text>
  <text x="412.044" y="517.783" svg_rhmargin="415.894" style="fill:#000000;font-family:TeX_CM_Maths_Symbols;font-size:10.0px;font-style:NORMAL;font-weight:normal;">Þ</text>
  <text svg_rhmargin="418.594" x="415.894,418.594" y="516.8199999999999" style="fill:#000000;font-family:TeX_CM_Maths_Italic;font-size:10.0px;font-style:italic;font-weight:normal;">: </text>
  <text x="563.469" y="516.8199999999999" svg_rhmargin="567.319" style="fill:#000000;font-family:TeX_CM_Maths_Symbols;font-size:10.0px;font-style:NORMAL;font-weight:normal;">ð</text>
  <text x="567.319" y="516.8199999999999" svg_rhmargin="572.109" style="fill:#000000;font-family:MinionPro-Regular;font-size:10.0px;font-style:NORMAL;font-weight:normal;">1</text>
  <text x="572.109" y="516.8199999999999" svg_rhmargin="575.959" style="fill:#000000;font-family:TeX_CM_Maths_Symbols;font-size:10.0px;font-style:NORMAL;font-weight:normal;">Þ</text>
  <text x="211.976,217.246,222.306,224.766,227.226,232.286,239.116,241.776,247.256,251.936,254.212,258.582,260.732,266.522,270.852,275.392,279.622,283.222,285.882,290.212,295.73199999999997,297.979,302.309,307.469,312.629,316.339,321.399,325.729,329.959,335.269,337.494,340.884,345.214,348.854,351.043,356.313,360.543,364.143,368.373,372.083,374.743,379.803,384.033,389.343,391.522,394.182,399.702,401.897,407.167,411.397,414.377,418.707,421.367,423.867,426.047,428.707,434.227,436.421,439.811,444.561,449.311,452.701,456.091,458.38100000000003,460.572,467.402,471.67199999999997,473.895,476.765,479.425,482.445,484.61,487.59,492.86,497.13,499.293,507.473,512.533,517.803,522.033,524.533,526.733,529.713,534.813,536.994,541.634,544.094,549.154,554.214,558.544" y="545.619" svg_rhmargin="561.044" style="fill:#000000;font-family:MinionPro-Regular;font-size:10.0px;font-style:NORMAL;font-weight:normal;">Following a Bayesian approach (as described in detail in [35]), we fit the model to global</text>
  <text x="200.014,203.614,207.844,212.174,215.674,218.134,222.364,226.904,231.134,233.634,235.844,240.174,245.654,250.714,258.894,263.224,265.684,268.344,272.574,276.214,278.42,285.25,287.91,290.89,296.2,298.433,302.143,306.373,309.973,315.133,319.363,323.593,326.613,328.82,331.8,336.90000000000003,339.024,342.004,347.274,351.544,353.765,358.095,362.635,366.865,370.575,374.905,379.545,383.815,386.023,389.623,393.853,398.223,400.366,402.826,407.056,411.596,415.826,418.326,420.547,423.207,428.727,430.865,435.615,440.365,445.115,449.90500000000003,452.125,455.515,460.265,465.015,468.445,470.607,475.877,479.477,482.137,487.617,492.297,494.531,498.901,501.051,509.961,514.291,518.001,522.961,528.021,532.601,534.84,539.07,544.34,548.67,551.33" y="558.601" svg_rhmargin="556.85" style="fill:#000000;font-family:MinionPro-Regular;font-size:10.0px;font-style:NORMAL;font-weight:normal;">sea-level anomalies with respect to the average sea level in 2000 [32] using a Markov chain</text>
  <text x="200.014,208.924,213.984,219.464,222.444,226.714,228.928,235.548,239.878,243.588,246.048,251.148,253.305,261.485,265.715,268.695,273.965,279.025,284.335,286.584,290.914,295.144,299.374,304.434,309.704,315.184,318.164,320.824,326.304,330.984,333.185,336.055,341.115,344.865,347.075,349.735,355.215,358.195,362.425,366.135,371.405,375.635,380.795,385.025,390.505,395.775,400.005,405.485,408.505,410.741,414.131,418.461,423.731,426.711,431.771,436.001,441.061,444.771,448.481,452.711,455.171,459.501,462.481,466.711,471.981,475.411,477.693,481.403,485.633,489.233,491.893,497.163,502.433,506.763,509.223,512.863,515.054,519.384,524.864,530.174,532.345,535.325,537.985,546.165,550.395,553.895,558.435,562.765,566.475,571.015" y="571.64" svg_rhmargin="574.555" style="fill:#000000;font-family:MinionPro-Regular;font-size:10.0px;font-style:NORMAL;font-weight:normal;">Monte Carlo method accounting for interdependent (autocorrelated) residuals and time-vary-</text>
  <text x="200.014,202.674,208.154,212.834,215.038,218.428,223.698,227.928,230.908,235.138,238.848,243.908,247.508,252.468,256.698,261.968,266.298,269.898,272.878,275.538,279.768,283.198,285.45,290.51,295.57,299.17,303.4,307.11,311.65,315.98,318.96,321.62,326.68,332.2,334.432,338.662,342.372,346.082,351.142,354.892,357.109,360.499,365.249,369.999,375.159,379.909,384.659,388.049,390.339,392.542,399.892,403.492,406.152,411.632,416.312,418.506,421.486,426.756,429.416,433.056,435.287,443.467,447.697,450.677,455.947,461.007,466.277,468.567,470.777,477.607,481.877,484.043,488.373,493.533,498.693,502.403,507.463,512.103,514.763,522.943,527.273,530.253,534.523,536.767,539.747,545.017,549.287,551.45,556.93,561.99,564.65,568.25" y="584.623" svg_rhmargin="572.83" style="fill:#000000;font-family:MinionPro-Regular;font-size:10.0px;font-style:NORMAL;font-weight:normal;">ing (heteroskedastic) observation error [36–38]. Using this method, we approximate the noisy</text>
  <text svg_rhmargin="250.364" x="200.014,205.074,210.134,213.734,217.964,221.674,226.214,230.544,233.524,236.184,241.244,246.724,250.36399999999998" y="597.606" style="fill:#000000;font-family:MinionPro-Regular;font-size:10.0px;font-style:NORMAL;font-weight:normal;">observations </text>
  <text x="252.625" y="597.606" svg_rhmargin="257.045" style="fill:#000000;font-family:MinionPro-It;font-size:10.0px;font-style:ITALIC;font-weight:normal;">y</text>
  <text svg_rhmargin="259.234" x="256.932,259.235" y="597.606" style="fill:#000000;font-family:MinionPro-It;font-size:6.67px;font-style:ITALIC;font-weight:normal;">t </text>
  <text svg_rhmargin="466.243" x="261.354,265.684,269.324,271.501,274.481,279.751,284.02099999999996,286.185,289.785,295.055,303.27500000000003,305.517,310.577,313.487,315.665,318.645,323.915,328.185,330.348,333.948,338.178,346.358,349.018,352.518,356.748,364.928,370.088,372.748,376.458,379.118,383.348,387.678,390.178,392.427,400.607,405.667,410.937,415.167,417.667,419.923,423.523,426.183,434.363,439.633,442.093,446.423,449.403,452.063,457.123,462.603,466.243" y="597.606" style="fill:#000000;font-family:MinionPro-Regular;font-size:10.0px;font-style:NORMAL;font-weight:normal;">as the sum of the semi-empirical model simulations </text>
  <text x="468.451" y="597.606" svg_rhmargin="475.871" style="fill:#000000;font-family:MinionPro-It;font-size:10.0px;font-style:ITALIC;font-weight:normal;">H</text>
  <text x="475.824" y="599.307" svg_rhmargin="478.126" style="fill:#000000;font-family:MinionPro-It;font-size:6.67px;font-style:ITALIC;font-weight:normal;">t</text>
  <text svg_rhmargin="517.683" x="478.035,480.32500000000005,482.513,486.223,490.453,494.053,496.713,501.983,507.253,511.583,514.043,517.683" y="597.606" style="fill:#000000;font-family:MinionPro-Regular;font-size:10.0px;font-style:NORMAL;font-weight:normal;">, residuals </text>
  <text x="519.93" y="597.606" svg_rhmargin="525.92" style="fill:#000000;font-family:MinionPro-It;font-size:10.0px;font-style:ITALIC;font-weight:normal;">R</text>
  <text svg_rhmargin="528.129" x="525.827,528.13" y="597.606" style="fill:#000000;font-family:MinionPro-It;font-size:6.67px;font-style:ITALIC;font-weight:normal;">t </text>
  <text x="530.249,533.639,536.299,538.549,542.779,545.029" y="597.606" svg_rhmargin="547.319" style="fill:#000000;font-family:MinionPro-Regular;font-size:10.0px;font-style:NORMAL;font-weight:normal;">(i.e.,</text>
  <text x="200.015,204.345,209.505,214.665,218.375,223.435,228.075,230.735,238.915,243.245,246.225,248.885,254.365,259.045,261.3,264.28,269.55,273.82,276.04,280.27,283.14,286.01,290.24,294.47,297.45,301.09,303.253,308.313,311.223,313.4,318.67,324.15,327.86,332.09,335.69,340.75,343.21,347.75,351.98,357.29,359.548,362.208,367.688,370.668,374.898,378.608,384.088,388.418,390.918,393.11,397.65,401.98,405.69,408.35,412.68,417.74,420.4,422.86,425.52,428.5,433.08,435.346,439.676,445.156,450.466,452.637,460.817,465.877,471.147,475.377,477.877,480.077,484.307,488.017,491.727,496.787,500.497,503.887,506.177,508.366,512.696,518.176,523.486,525.657,530.717,535.777,539.377,543.607,547.317,551.857,556.187,559.167,561.827,566.887" y="610.645" svg_rhmargin="572.407" style="fill:#000000;font-family:MinionPro-Regular;font-size:10.0px;font-style:NORMAL;font-weight:normal;">approximating the effects of unresolved internal variability and model error), and observation</text>
  <text svg_rhmargin="224.075" x="200.015,204.245,207.955,211.665,216.725,220.435,224.075" y="623.627" style="fill:#000000;font-family:MinionPro-Regular;font-size:10.0px;font-style:NORMAL;font-weight:normal;">errors </text>
  <text x="226.264" y="623.627" svg_rhmargin="230.214" style="fill:#000000;font-family:TeX_CM_Maths_Italic;font-size:10.0px;font-style:italic;font-weight:normal;">?</text>
  <text x="230.23" y="625.273" svg_rhmargin="232.532" style="fill:#000000;font-family:MinionPro-It;font-size:6.67px;font-style:ITALIC;font-weight:normal;">t</text>
  <text svg_rhmargin="234.731" x="232.441,234.731" y="643.016" style="fill:#000000;font-family:MinionPro-Regular;font-size:10.0px;font-style:NORMAL;font-weight:normal;">, </text>
  <text x="345.656" y="643.016" svg_rhmargin="350.076" style="fill:#000000;font-family:MinionPro-It;font-size:10.0px;font-style:ITALIC;font-weight:normal;">y</text>
  <text svg_rhmargin="351.864" x="350.022,351.864" y="643.017" style="fill:#000000;font-family:MinionPro-It;font-size:6.0px;font-style:ITALIC;font-weight:normal;">t </text>
  <text svg_rhmargin="363.051" x="355.351,363.051" y="643.017" style="fill:#000000;font-family:TeX_CM_Maths_Symbols;font-size:10.0px;font-style:NORMAL;font-weight:normal;">¼ </text>
  <text x="365.839" y="643.017" svg_rhmargin="373.259" style="fill:#000000;font-family:MinionPro-It;font-size:10.0px;font-style:ITALIC;font-weight:normal;">H</text>
  <text svg_rhmargin="375.108" x="373.266,375.108" y="643.017" style="fill:#000000;font-family:MinionPro-It;font-size:6.0px;font-style:ITALIC;font-weight:normal;">t </text>
  <text svg_rhmargin="385.728" x="378.028,385.728" y="643.017" style="fill:#000000;font-family:TeX_CM_Maths_Symbols;font-size:10.0px;font-style:NORMAL;font-weight:normal;">þ </text>
  <text x="387.949" y="643.017" svg_rhmargin="393.939" style="fill:#000000;font-family:MinionPro-It;font-size:10.0px;font-style:ITALIC;font-weight:normal;">R</text>
  <text svg_rhmargin="395.744" x="393.902,395.74399999999997" y="643.017" style="fill:#000000;font-family:MinionPro-It;font-size:6.0px;font-style:ITALIC;font-weight:normal;">t </text>
  <text svg_rhmargin="406.364" x="398.664,406.364" y="643.017" style="fill:#000000;font-family:TeX_CM_Maths_Symbols;font-size:10.0px;font-style:NORMAL;font-weight:normal;">þ </text>
  <text x="408.641" y="643.017" svg_rhmargin="412.591" style="fill:#000000;font-family:TeX_CM_Maths_Italic;font-size:10.0px;font-style:italic;font-weight:normal;">?</text>
  <text svg_rhmargin="414.453" x="412.611,414.453" y="643.017" style="fill:#000000;font-family:MinionPro-It;font-size:6.0px;font-style:ITALIC;font-weight:normal;">t </text>
  <text svg_rhmargin="417.862" x="415.162,417.86199999999997" y="643.017" style="fill:#000000;font-family:TeX_CM_Maths_Italic;font-size:10.0px;font-style:italic;font-weight:normal;">; </text>
  <text x="563.469" y="643.017" svg_rhmargin="567.319" style="fill:#000000;font-family:TeX_CM_Maths_Symbols;font-size:10.0px;font-style:NORMAL;font-weight:normal;">ð</text>
  <text x="567.319" y="643.017" svg_rhmargin="572.109" style="fill:#000000;font-family:MinionPro-Regular;font-size:10.0px;font-style:NORMAL;font-weight:normal;">2</text>
  <text x="572.109" y="643.017" svg_rhmargin="575.959" style="fill:#000000;font-family:TeX_CM_Maths_Symbols;font-size:10.0px;font-style:NORMAL;font-weight:normal;">Þ</text>
  <text x="342.709" y="671.816" svg_rhmargin="348.699" style="fill:#000000;font-family:MinionPro-It;font-size:10.0px;font-style:ITALIC;font-weight:normal;">R</text>
  <text svg_rhmargin="350.503" x="348.661,350.503" y="671.817" style="fill:#000000;font-family:MinionPro-It;font-size:6.0px;font-style:ITALIC;font-weight:normal;">t </text>
  <text svg_rhmargin="361.691" x="353.991,361.691" y="671.817" style="fill:#000000;font-family:TeX_CM_Maths_Symbols;font-size:10.0px;font-style:NORMAL;font-weight:normal;">¼ </text>
  <text svg_rhmargin="369.999" x="364.479,369.99899999999997" y="671.817" style="fill:#000000;font-family:PI_chars_2;font-size:10.0px;font-style:NORMAL;font-weight:normal;">r </text>
  <text svg_rhmargin="379.946" x="372.246,379.94599999999997" y="671.817" style="fill:#000000;font-family:TeX_CM_Maths_Symbols;font-size:10.0px;font-style:NORMAL;font-weight:normal;">? </text>
  <text x="382.167" y="671.817" svg_rhmargin="388.157" style="fill:#000000;font-family:MinionPro-It;font-size:10.0px;font-style:ITALIC;font-weight:normal;">R</text>
  <text x="388.12" y="674.312" svg_rhmargin="389.962" style="fill:#000000;font-family:MinionPro-It;font-size:6.0px;font-style:ITALIC;font-weight:normal;">t</text>
  <text svg_rhmargin="391.717" x="390.217,391.717" y="674.312" style="fill:#000000;font-family:TeX_CM_Maths_Symbols;font-size:6.0px;font-style:NORMAL;font-weight:normal;">? </text>
  <text svg_rhmargin="397.809" x="394.809,397.809" y="671.817" style="fill:#000000;font-family:TeX_CM_Roman;font-size:6.0px;font-style:NORMAL;font-weight:normal;">1 </text>
  <text svg_rhmargin="408.235" x="400.535,408.235" y="671.817" style="fill:#000000;font-family:TeX_CM_Maths_Symbols;font-size:10.0px;font-style:NORMAL;font-weight:normal;">þ </text>
  <text x="410.456" y="671.817" svg_rhmargin="415.456" style="fill:#000000;font-family:PI_chars_2;font-size:10.0px;font-style:NORMAL;font-weight:normal;">d</text>
  <text svg_rhmargin="417.344" x="415.502,417.344" y="671.817" style="fill:#000000;font-family:MinionPro-It;font-size:6.0px;font-style:ITALIC;font-weight:normal;">t </text>
  <text svg_rhmargin="420.753" x="418.053,420.753" y="671.817" style="fill:#000000;font-family:TeX_CM_Maths_Italic;font-size:10.0px;font-style:italic;font-weight:normal;">; </text>
  <text x="563.469" y="671.817" svg_rhmargin="567.319" style="fill:#000000;font-family:TeX_CM_Maths_Symbols;font-size:10.0px;font-style:NORMAL;font-weight:normal;">ð</text>
  <text x="567.32" y="671.817" svg_rhmargin="572.11" style="fill:#000000;font-family:MinionPro-Regular;font-size:10.0px;font-style:NORMAL;font-weight:normal;">3</text>
  <text x="572.109" y="671.817" svg_rhmargin="575.959" style="fill:#000000;font-family:TeX_CM_Maths_Symbols;font-size:10.0px;font-style:NORMAL;font-weight:normal;">Þ</text>
  <text x="276.323" y="707.59" svg_rhmargin="282.313" style="fill:#000000;font-family:MinionPro-It;font-size:10.0px;font-style:ITALIC;font-weight:normal;">R</text>
  <text svg_rhmargin="285.274" x="282.274,285.274" y="707.591" style="fill:#000000;font-family:TeX_CM_Roman;font-size:6.0px;font-style:NORMAL;font-weight:normal;">1 </text>
  <text svg_rhmargin="296.267" x="288.567,296.267" y="707.591" style="fill:#000000;font-family:TeX_CM_Maths_Symbols;font-size:10.0px;font-style:NORMAL;font-weight:normal;">? </text>
  <text svg_rhmargin="306.105" x="299.055,306.105" y="707.591" style="fill:#000000;font-family:MinionPro-It;font-size:10.0px;font-style:ITALIC;font-weight:normal;">N </text>
  <text x="314.078" y="707.591" svg_rhmargin="319.078" style="fill:#000000;font-family:TeX_CM_Roman;font-size:10.0px;font-style:NORMAL;font-weight:normal;">0</text>
  <text svg_rhmargin="321.778" x="319.078,321.77799999999996" y="700.787" style="fill:#000000;font-family:TeX_CM_Maths_Italic;font-size:10.0px;font-style:italic;font-weight:normal;">; </text>
  <path d=" M 323.43310546875 95.13069915771484 L 349.6252136230469 95.13069915771484 L 349.6252136230469 94.73390197753906 L 323.43310546875 94.73390197753906" style="fill:none;stroke:#000000;stroke-width:0.0;"/>
  <text x="328.309" y="700.787" svg_rhmargin="333.829" style="fill:#000000;font-family:PI_chars_2;font-size:10.0px;font-style:NORMAL;font-weight:normal;">s</text>
  <text x="333.808" y="697.159" svg_rhmargin="336.808" style="fill:#000000;font-family:TeX_CM_Roman;font-size:6.0px;font-style:NORMAL;font-weight:normal;">2</text>
  <text x="333.808,337.792" y="703.565" svg_rhmargin="341.386" style="fill:#000000;font-family:MinionPro-It;font-size:6.0px;font-style:ITALIC;font-weight:normal;">AR</text>
  <text x="341.386" y="703.565" svg_rhmargin="344.386" style="fill:#000000;font-family:TeX_CM_Roman;font-size:6.0px;font-style:NORMAL;font-weight:normal;">1</text>
  <text svg_rhmargin="328.433" x="323.433,328.433" y="714.45" style="fill:#000000;font-family:TeX_CM_Roman;font-size:10.0px;font-style:NORMAL;font-weight:normal;">1 </text>
  <text svg_rhmargin="333.189" x="330.689,333.189" y="714.45" style="fill:#000000;font-family:TeX_CM_Maths_Symbols;font-size:10.0px;font-style:NORMAL;font-weight:normal;">? </text>
  <text x="340.61" y="714.45" svg_rhmargin="346.13" style="fill:#000000;font-family:PI_chars_2;font-size:10.0px;font-style:NORMAL;font-weight:normal;">r</text>
  <text x="346.11" y="711.559" svg_rhmargin="349.11" style="fill:#000000;font-family:TeX_CM_Roman;font-size:6.0px;font-style:NORMAL;font-weight:normal;">2</text>
  <text x="306.765,314.055,349.624" y="693.474" svg_rhmargin="356.914" style="fill:#000000;font-family:TeX_CM_Maths_Extension;font-size:10.0px;font-style:NORMAL;font-weight:normal;">? ?</text>
  <text svg_rhmargin="359.637" x="356.937,359.637" y="707.59" style="fill:#000000;font-family:TeX_CM_Maths_Italic;font-size:10.0px;font-style:italic;font-weight:normal;">; </text>
  <text x="361.303" y="707.59" svg_rhmargin="366.303" style="fill:#000000;font-family:PI_chars_2;font-size:10.0px;font-style:NORMAL;font-weight:normal;">d</text>
  <text svg_rhmargin="368.135" x="366.293,368.135" y="707.591" style="fill:#000000;font-family:MinionPro-It;font-size:6.0px;font-style:ITALIC;font-weight:normal;">t </text>
  <text svg_rhmargin="379.322" x="371.622,379.322" y="707.591" style="fill:#000000;font-family:TeX_CM_Maths_Symbols;font-size:10.0px;font-style:NORMAL;font-weight:normal;">? </text>
  <text x="382.11" y="707.591" svg_rhmargin="389.16" style="fill:#000000;font-family:MinionPro-It;font-size:10.0px;font-style:ITALIC;font-weight:normal;">N</text>
  <text x="389.82" y="707.591" svg_rhmargin="393.67" style="fill:#000000;font-family:TeX_CM_Maths_Symbols;font-size:10.0px;font-style:NORMAL;font-weight:normal;">ð</text>
  <text x="393.67" y="707.591" svg_rhmargin="398.67" style="fill:#000000;font-family:TeX_CM_Roman;font-size:10.0px;font-style:NORMAL;font-weight:normal;">0</text>
  <text svg_rhmargin="401.37" x="398.67,401.37" y="707.591" style="fill:#000000;font-family:TeX_CM_Maths_Italic;font-size:10.0px;font-style:italic;font-weight:normal;">; </text>
  <text x="403.086" y="707.591" svg_rhmargin="408.606" style="fill:#000000;font-family:PI_chars_2;font-size:10.0px;font-style:NORMAL;font-weight:normal;">s</text>
  <text x="408.586" y="703.962" svg_rhmargin="411.586" style="fill:#000000;font-family:TeX_CM_Roman;font-size:6.0px;font-style:NORMAL;font-weight:normal;">2</text>
  <text x="408.586,412.57" y="710.3679999999999" svg_rhmargin="416.164" style="fill:#000000;font-family:MinionPro-It;font-size:6.0px;font-style:ITALIC;font-weight:normal;">AR</text>
  <text x="416.164" y="710.3679999999999" svg_rhmargin="419.164" style="fill:#000000;font-family:TeX_CM_Roman;font-size:6.0px;font-style:NORMAL;font-weight:normal;">1</text>
  <text x="419.584" y="707.591" svg_rhmargin="423.434" style="fill:#000000;font-family:TeX_CM_Maths_Symbols;font-size:10.0px;font-style:NORMAL;font-weight:normal;">Þ</text>
  <text x="423.434,426.134,427.747" y="707.591" svg_rhmargin="431.697" style="fill:#000000;font-family:TeX_CM_Maths_Italic;font-size:10.0px;font-style:italic;font-weight:normal;">; ?</text>
  <text svg_rhmargin="433.558" x="431.716,433.558" y="707.591" style="fill:#000000;font-family:MinionPro-It;font-size:6.0px;font-style:ITALIC;font-weight:normal;">t </text>
  <text svg_rhmargin="444.746" x="437.046,444.746" y="707.591" style="fill:#000000;font-family:TeX_CM_Maths_Symbols;font-size:10.0px;font-style:NORMAL;font-weight:normal;">? </text>
  <text x="447.534" y="707.591" svg_rhmargin="454.584" style="fill:#000000;font-family:MinionPro-It;font-size:10.0px;font-style:ITALIC;font-weight:normal;">N</text>
  <text x="455.244" y="707.591" svg_rhmargin="459.094" style="fill:#000000;font-family:TeX_CM_Maths_Symbols;font-size:10.0px;font-style:NORMAL;font-weight:normal;">ð</text>
  <text x="459.094" y="707.591" svg_rhmargin="464.094" style="fill:#000000;font-family:TeX_CM_Roman;font-size:10.0px;font-style:NORMAL;font-weight:normal;">0</text>
  <text svg_rhmargin="466.794" x="464.094,466.794" y="707.591" style="fill:#000000;font-family:TeX_CM_Maths_Italic;font-size:10.0px;font-style:italic;font-weight:normal;">; </text>
  <text x="468.51" y="707.591" svg_rhmargin="474.03" style="fill:#000000;font-family:PI_chars_2;font-size:10.0px;font-style:NORMAL;font-weight:normal;">s</text>
  <text x="474.009" y="703.962" svg_rhmargin="477.009" style="fill:#000000;font-family:TeX_CM_Roman;font-size:6.0px;font-style:NORMAL;font-weight:normal;">2</text>
  <text x="474.009,476.379" y="710.3679999999999" svg_rhmargin="477.999" style="fill:#000000;font-family:TeX_CM_Maths_Italic;font-size:6.0px;font-style:italic;font-weight:normal;">?;</text>
  <text svg_rhmargin="479.841" x="477.999,479.841" y="707.591" style="fill:#000000;font-family:MinionPro-It;font-size:6.0px;font-style:ITALIC;font-weight:normal;">t </text>
  <text x="480.586" y="707.591" svg_rhmargin="484.436" style="fill:#000000;font-family:TeX_CM_Maths_Symbols;font-size:10.0px;font-style:NORMAL;font-weight:normal;">Þ</text>
  <text svg_rhmargin="487.136" x="484.436,487.13599999999997" y="707.591" style="fill:#000000;font-family:TeX_CM_Maths_Italic;font-size:10.0px;font-style:italic;font-weight:normal;">; </text>
  <text x="563.47" y="707.591" svg_rhmargin="567.32" style="fill:#000000;font-family:TeX_CM_Maths_Symbols;font-size:10.0px;font-style:NORMAL;font-weight:normal;">ð</text>
  <text x="567.32" y="707.591" svg_rhmargin="572.11" style="fill:#000000;font-family:MinionPro-Regular;font-size:10.0px;font-style:NORMAL;font-weight:normal;">4</text>
  <text x="572.11" y="707.591" svg_rhmargin="575.96" style="fill:#000000;font-family:TeX_CM_Maths_Symbols;font-size:10.0px;font-style:NORMAL;font-weight:normal;">Þ</text>
  <path d=" M 576.0 387.4197998046875 L 200.00010681152344 387.4197998046875 L 200.00010681152344 387.9197998046875 L 576.0 387.9197998046875" style="fill:none;stroke:#000000;stroke-width:0.0;"/>
  <path d=" M 225.75120544433594 418.3370056152344 L 234.48190307617188 418.3370056152344 Z " style="fill:none;stroke:#000000;stroke-width:0.0;"/>
  <path d=" M 276.8315124511719 399.34490966796875 L 285.56219482421875 399.34490966796875 Z " style="fill:none;stroke:#000000;stroke-width:0.0;"/>
  <path d=" M 200.01260375976562 374.3432922363281 L 352.5165100097656 374.3432922363281 Z " style="fill:none;stroke:#000000;stroke-width:0.0;"/>
  <path d="M439.823 546.696 L449.347 546.696 M455.527 559.678 L465.052 559.678 M360.51 585.7 L369.977 585.7 M375.193 585.7 L384.661 585.7 M344.863 515.061 L359.829 515.061 L359.829 515.458 L344.863 515.458 M323.433 704.869 L349.625 704.869 L349.625 705.266 L323.433 705.266 M576.0 412.58 L200.0 412.58 L200.0 412.08 L576.0 412.08 M225.751 381.662 L234.481 381.662 M276.831 400.655 L285.562 400.655 M200.012 425.656 L352.516 425.656 " style="fill:none;stroke:#000000;stroke-width:0.0;"/>
  <rect style="stroke:blue;stroke-width:0.3;" x="200.013" y="86.009" height="261.978" width="347.924" title="3"/>
  <text x="200.013" y="86.009" class="image" id="image.3.1" width="347" height="261">image.3.1.200_548.86_348</text>
  <text x="200.012,204.884,207.092,212.00400000000002,213.675,218.051,220.29899999999998,222.916,228.62,233.492,240.532,245.404,249.78,252.82,255.028,259.313,264.185,269.097,270.764,275.636,278.3,280.005,284.877,287.085,291.461,294.085,298.957,301.997,304.205,308.581,312.957,315.205,316.856,321.232,325.608,329.984,332.608,334.816,339.192,343.568,347.943,350.191,351.835,356.211,361.083,365.955,372.995,377.371,379.579,381.787,386.163,390.579,392.201,394.408,399.32,400.988,406.276,410.651,415.563,417.259,422.13,425.17,429.546,434.418,438.794,441.002,445.378,449.754,454.666,456.32,462.024,466.4,470.816,472.477,475.101,480.389,485.261,490.965,493.62899999999996,495.267,497.891,502.803,504.509,509.381,511.589,516.461,521.333,525.708,527.956,529.623,536.663,541.039,545.415,550.327,552.017,556.393,560.769,565.145" y="361.594" svg_rhmargin="567.809" style="fill:#000000;font-family:Helvetica-Bold;font-size:8.0px;font-style:NORMAL;font-weight:bold;">Fig 1. Comparison of historical sea-level anomalies in San Francisco Bay (SFB) to global mean sea-</text>
  <text svg_rhmargin="320.301" x="200.013,202.221,206.596,210.972,215.348,217.596,219.231,223.607,228.479,233.351,240.39,244.766,246.974,249.182,253.558,257.974,259.596,263.972,268.844,273.756,275.47,280.342,283.382,288.254,290.462,294.838,299.214,301.838,304.046,308.806,313.677,318.053,320.301" y="371.061" style="fill:#000000;font-family:Helvetica-Bold;font-size:8.0px;font-style:NORMAL;font-weight:bold;">level anomalies and projections. </text>
  <text x="322.015,326.887,331.263,335.679,337.379,341.755,343.459,347.835,351.795,355.795,357.447,361.823,366.199,368.407,372.407,374.058,376.682,381.058,385.434,388.058,392.434,396.394,400.77,405.146,407.394,409.038,411.246,415.622,420.038,421.737,428.361,432.737,437.113,439.321,443.697,445.401,449.401,451.047,457.671,462.047,466.423,470.839,472.477,476.437,480.813,485.229,486.934,488.638,493.014,496.974,501.35,503.09400000000005,504.735,509.111,511.359,513.069,515.277,519.653,524.0690000000001,525.768,531.056,535.928,541.256,542.946,545.154,546.858,551.234" y="371.061" svg_rhmargin="555.65" style="fill:#000000;font-family:Helvetica;font-size:8.0px;font-style:NORMAL;font-weight:normal;">The black dots represent the monthly mean sea level at the SFB tide</text>
  <text x="200.013,204.388,208.764,213.14,217.516,221.932,223.596,225.804,230.18,234.556,236.764,239.012,240.661,246.365,250.741,252.949,257.365,259.029,261.237,265.613,269.989,272.23699999999997,273.94,276.148,280.524,284.94,286.639,291.927,296.799,302.12699999999995,303.816,306.024,307.728,312.104,316.52,318.217,322.593,326.969,331.344,335.72,340.136,341.744,346.12,350.495,354.455,358.831,361.455,365.415,369.791,371.999,373.703,378.079,382.336,386.336,388.061,392.437,395.061,399.477,401.158,405.534,409.91,412.158,413.857,418.233,422.193,426.569,430.985,432.678,434.382,438.798,440.502,442.71,447.086,451.502,453.145,457.521,459.224,463.6,467.976,472.352,474.096,475.765,482.389,486.765,491.141,495.557,497.252,501.212,505.588,510.004,511.652,513.356,517.732,521.692,526.068,527.812,529.51,536.134,540.51,544.886,549.262,550.966,552.67,557.046" y="380.586" svg_rhmargin="561.462" style="fill:#000000;font-family:Helvetica;font-size:8.0px;font-style:NORMAL;font-weight:normal;">gauge [31]. Note that the SFB tide gauge observations are not used in the global mean sea level modeling</text>
  <text x="200.013,204.389,207.012,211.388,215.348,219.724,223.684,227.644,229.892,231.533,236.405,240.781,245.197,246.84,251.216,253.84,258.216,262.592,267.008,268.667,270.371,272.075,276.451,280.867,282.556,285.18,289.556,293.932,296.556,300.932,304.892,309.268,313.644,315.852,319.852,321.505,325.465,329.425,333.8,336.008,340.384,344.76,348.604,350.307,354.267,358.643,363.05899999999997,364.761,369.137,370.841,375.217,379.593,383.969,385.713,387.381,394.005,398.381,402.757,407.173,408.812,412.771,417.147,421.523,424.147,425.851,430.227,434.187,438.563,440.307,441.977,446.353,450.729,455.105,461.729,466.104,467.808,469.416,473.792,477.792,479.507,482.131,486.507,488.211,492.586,494.794,496.498,500.458,504.874,506.549,508.758,513.174,514.826,517.034,521.41,525.826,527.525,534.149,538.525,542.901,547.317,549.012,552.972,557.348" y="390.053" svg_rhmargin="561.764" style="fill:#000000;font-family:Helvetica;font-size:8.0px;font-style:NORMAL;font-weight:normal;">process. The green line represents synthesized global mean sea-level anomalies relative to the mean sea</text>
  <text x="200.013,201.717,206.092,210.052,214.428,216.172,217.814,219.518,223.934,225.694,227.902,232.278,236.694,238.336,242.296,246.672,251.048,253.712,255.401,259.777,264.153,268.529,272.945,274.62,276.828,281.204,285.579,287.787,290.03499999999997,291.684,297.388,301.764,306.14,308.764,313.18,314.871,317.079,321.455,325.871,327.571,331.947,334.571,338.947,342.947,344.635,349.011,353.387,357.347,361.723,363.427,367.802,372.074,376.49,378.198,379.901,383.901,385.624,387.832,392.208,396.624,398.323,402.699,407.075,414.155,415.784,419.744,422.368,426.744,431.12,432.824,437.2,438.904,443.32,444.982,446.685,451.061,453.269,457.645,460.269,464.229,468.605,470.34900000000005,472.024,476.4,480.775,485.191,486.877,489.085,493.461,497.877,499.576,503.952,505.656,510.032,514.448,516.13,517.834,519.538,523.914,528.33,530.02,531.724,535.724,537.39,539.598,543.974" y="399.577" svg_rhmargin="548.39" style="fill:#000000;font-family:Helvetica;font-size:8.0px;font-style:NORMAL;font-weight:normal;">level in the year 2000 [32], where the gray envelope is the 90% credible interval and the blue line is the</text>
  <text x="200.013,204.389,207.012,211.388,213.092,217.468,221.428,223.636,227.905,232.321,234.028,240.652,245.028,249.404,253.82,255.514,257.722,259.426,261.634,263.842,268.218,272.634,274.28,276.488,280.904,282.613,284.821,289.197,293.573,297.533,301.949,303.646,308.022,312.398,316.774,323.398,327.774,329.478,331.085,335.461,339.421" y="409.102" svg_rhmargin="341.669" style="fill:#000000;font-family:Helvetica;font-size:8.0px;font-style:NORMAL;font-weight:normal;">projected mean fitted to those anomalies.</text>
  <text svg_rhmargin="352.719" x="200.013,203.813,205.861,207.908,211.708,215.084,216.884,218.932,220.98,224.674,228.474,230.018,231.818,235.618,238.082,241.882,243.93,247.73,251.53,253.33,257.129,260.929,264.729,268.529,270.577,272.012,275.812,279.612,282.076,285.876,289.251,290.795,292.595,296.395,300.195,303.873,307.249,309.049,312.849,316.649,320.449,324.249,328.049,331.849,335.648,337.448,341.248,344.919,348.719,352.719" y="54.20500000000004" style="fill:#3b5aa6;font-family:Helvetica-Condensed;font-size:8.0px;font-style:NORMAL;font-weight:normal;">https://doi.org/10.1371/journal.pone.0174666.g001 </text>
  <path d=" M 576.0 737.0999755859375 L 36.0 737.0999755859375 L 36.0 737.5999755859375 L 576.0 737.5999755859375" style="fill:none;stroke:#000000;stroke-width:0.0;"/>
  <path d="M576.0 62.9 L36.0 62.9 L36.0 62.4 L576.0 62.4 " style="fill:none;stroke:#000000;stroke-width:0.0;"/>
  <rect style="stroke:blue;stroke-width:0.3;" x="36.0" y="35.043" height="23.64" width="107.093" title="3"/>
  <text x="36.0" y="35.043" class="image" id="image.3.2" width="107" height="23">image.3.2.36_143.35_59</text>
  <text x="425.367,431.071,435.447,439.407,443.783,446.407,448.615,452.991,454.695,459.111,460.742,464.702,469.078,473.454,476.078,477.782,482.158,486.118,490.494,492.23800000000006,493.851,496.475,498.179,502.139,506.555,508.251,512.627,517.003,521.4190000000001,523.105,525.313,529.689,531.897,536.273,538.897,543.3130000000001,544.988,547.196,548.9,553.276,557.652,562.0680000000001,563.753,566.377,568.081,572.041" y="54.20500000000004" svg_rhmargin="576.041" style="fill:#000000;font-family:Helvetica;font-size:8.0px;font-style:NORMAL;font-weight:normal;">Uncertain sea-level rise and future flood risk</text>
  <path d=" M 36.0 48.00019836425781 L 576.0 48.00019836425781 L 576.0 47.50019836425781 L 36.0 47.50019836425781" style="fill:none;stroke:#000000;stroke-width:0.0;"/>
  <path d=" M 81.58110046386719 34.92279815673828 L 237.8834991455078 34.92279815673828 Z " style="fill:none;stroke:#000000;stroke-width:0.0;"/>
  <text x="36.0,41.288,45.664,51.872,57.2,58.847,65.055,70.759,76.087,77.782,79.862,81.58,85.956,88.164,90.372,94.748,98.708,100.916,103.124,105.332,109.708,114.084,115.788,117.996,122.372,124.893,129.269,131.477,135.853,140.229,142.437,146.813,151.189,155.451,159.827,162.035,163.739,168.115,172.491,175.115,179.491,183.867,185.571,187.779,192.155,196.44,200.816,205.191,207.399,211.775,216.151,220.527,224.903,229.151,233.527,237.94299999999998,245.876,252.5,256.876,259.5,263.46,267.876,269.573,273.949,278.325,280.573,282.272,286.648,291.024,295.4,299.816,557.118,561.5340000000001,563.241,565.489,567.209,571.585" y="764.0" svg_rhmargin="576.001" style="fill:#000000;font-family:Helvetica;font-size:8.0px;font-style:NORMAL;font-weight:normal;">PLOS ONE | https://doi.org/10.1371/journal.pone.0174666 March 28, 2017 3 / 17</text>
 </g>
</svg>
