<?xml version="1.0" encoding="UTF-8"?>
<svg height="771.981" width="530.528" xmlns="http://www.w3.org/2000/svg">
 <g id="page" xmlns:svgx="http://www.xml-cml.org/schema/svgx">
  <g begin="text">
   <text y="62.979" x="76.535,79.189,83.62,86.274,88.26650000000001,90.738,93.392,95.3845,97.377,102.247,106.678,110.663,112.879,115.836,119.374,123.806,125.7985,128.269,133.585,136.685,139.786,141.7785,144.249,149.119,153.55,157.24,159.456,161.672,164.9397,166.908,173.109,176.209,179.748,181.964,184.618" svgx:width="0.33,0.56,0.33,0.25,0.55,0.33,0.25,0.55,0.61,0.56,0.5,0.28,0.39,0.44,0.56,0.25,0.55,0.67,0.39,0.39,0.25,0.55,0.61,0.56,0.46,0.28,0.28,0.41,0.55,0.78,0.39,0.44,0.28,0.33,0.5" style="fill:rgb(0,0,0);font-family:URWPalladioL-Ital;font-size:7.97px;stroke:none;">Int. J. Environ. Res. Public Health</text>
   <text y="62.979" x="190.594,194.579,198.564,202.549" svgx:width="0.5,0.5,0.5,0.5" style="fill:rgb(0,0,0);font-family:URWPalladioL-Bold;font-size:7.97px;stroke:none;">2019</text>
   <text y="62.979" x="206.534" svgx:width="0.25" style="fill:rgb(0,0,0);font-family:URWPalladioL-Roma;font-size:7.97px;stroke:none;">,</text>
   <text y="62.979" x="210.52,214.505" svgx:width="0.5,0.5" style="fill:rgb(0,0,0);font-family:URWPalladioL-Ital;font-size:7.97px;stroke:none;">16</text>
   <text y="62.979" x="218.49,220.48250000000002,222.475,226.46,230.44500000000002,495.794,499.779,501.772,506.123,508.7531,510.77,514.755" svgx:width="0.25,0.55,0.5,0.5,0.55,0.5,0.55,0.55,0.33,0.55,0.5,0.5" style="fill:rgb(0,0,0);font-family:URWPalladioL-Roma;font-size:7.97px;stroke:none;">, 70 2 of 17</text>
   <text y="97.848" x="76.535,81.616,84.573,88.55699999999999,92.601,98.708,104.257,107.214,110.171,116.298,119.611,122.568,128.117,134.031,136.52100000000002,140.961,143.918,148.999,154.913,160.98860000000002,165.126,171.254,175.562,180.43,182.92000000000002,187.36,192.441,198.355,204.4306,208.578,213.446,217.958,223.506,227.814,233.464,237.773,241.086,245.953,254.7178,258.94,263.452,269.366,274.447,280.361,286.011,290.879,295.0622,299.191,302.575,307.443,309.983,315.633,318.174,320.664,325.104,330.652,335.164,340.032,345.113,350.8898,355.041,360.955,365.823,370.904,373.861,377.173,383.088,386.37480000000005,390.485" svgx:width="0.5,0.29,0.4,0.55,0.6,0.55,0.29,0.29,0.6,0.33,0.29,0.55,0.58,0.25,0.55,0.29,0.5,0.58,0.61,0.55,0.6,0.42,0.48,0.25,0.55,0.5,0.58,0.61,0.55,0.48,0.44,0.55,0.42,0.56,0.42,0.33,0.48,0.88,0.55,0.44,0.58,0.5,0.58,0.56,0.48,0.42,0.55,0.33,0.48,0.25,0.56,0.25,0.25,0.55,0.55,0.44,0.48,0.5,0.58,0.55,0.58,0.48,0.5,0.29,0.33,0.58,0.33,0.55,0.33" style="fill:rgb(0,0,0);font-family:URWPalladioL-Roma;font-size:9.96px;stroke:none;">air pollution, land use, and ecosystem changes (e.g., ocean health) [</text>
   <text y="97.848" x="393.865" svgx:width="0.5" style="fill:rgb(8,117,183);font-family:URWPalladioL-Roma;font-size:9.96px;stroke:none;">4</text>
   <text y="97.848" x="398.846" svgx:width="0.25" style="fill:rgb(0,0,0);font-family:URWPalladioL-Roma;font-size:9.96px;stroke:none;">,</text>
   <text y="97.848" x="401.386" svgx:width="0.5" style="fill:rgb(8,117,183);font-family:URWPalladioL-Roma;font-size:9.96px;stroke:none;">5</text>
   <text y="97.848" x="406.368,409.752,412.242,419.944,426.173,432.088,436.955,441.264,446.0448,450.135,456.049,460.917,465.998,468.955,472.268,478.04479999999995,482.196,485.153,494.126,500.233,505.314,509.826,513.139,517.447" svgx:width="0.33,0.25,0.55,0.61,0.58,0.48,0.42,0.48,0.55,0.58,0.48,0.5,0.29,0.33,0.58,0.55,0.29,0.88,0.6,0.5,0.44,0.33,0.42,0.25" style="fill:rgb(0,0,0);font-family:URWPalladioL-Roma;font-size:9.96px;stroke:none;">]. These health impacts,</text>
   <text y="111.358" x="76.236,82.343,87.424,91.438,94.751,97.708,102.22,108.347,111.305,116.385,120.399,123.357,128.9346,131.73,135.043,140.52100000000002,143.325,146.637,152.551,158.1,162.408,167.1888,169.999,178.972,184.521,188.829,192.1158,194.865,200.607,206.734,209.692,215.606,220.473,224.487,229.568,235.188,238.145,243.012,245.502,248.337,252.849,257.93,263.7068,266.578,269.535,275.449,279.961,283.792,288.659,293.74,298.049,302.8298,305.64,311.747,315.588,320.456,324.764,329.073,335.201,339.032,343.899,348.0822,350.931,356.479,362.25579999999997,365.127,371.041,375.909,380.99,383.947,387.26,393.03679999999997,395.897,400.206,405.856,410.165,413.477,418.345,427.318,431.626,434.116,436.951,439.908,445.822,450.334,453.291,459.419,465.628,468.585,474.499,480.07660000000004,482.883,489.092,494.173,503.145,508.226,513.876" svgx:width="0.6,0.5,0.4,0.33,0.29,0.44,0.6,0.29,0.5,0.4,0.29,0.56,0.55,0.33,0.55,0.55,0.33,0.58,0.55,0.42,0.48,0.55,0.88,0.55,0.42,0.33,0.55,0.56,0.6,0.29,0.58,0.48,0.4,0.5,0.55,0.29,0.48,0.25,0.55,0.44,0.5,0.58,0.55,0.29,0.58,0.44,0.4,0.48,0.5,0.42,0.48,0.55,0.6,0.4,0.48,0.42,0.42,0.6,0.4,0.48,0.42,0.55,0.55,0.58,0.55,0.58,0.48,0.5,0.29,0.33,0.58,0.55,0.42,0.56,0.42,0.33,0.48,0.88,0.42,0.25,0.55,0.29,0.58,0.44,0.29,0.6,0.61,0.29,0.58,0.56,0.55,0.61,0.5,0.88,0.5,0.56,0.48" style="fill:rgb(0,0,0);font-family:URWPalladioL-Roma;font-size:9.96px;stroke:none;">particularly to those most vulnerable, can increase pressures on health systems, including damage</text>
   <text y="124.867" x="76.535,79.841,85.31899999999999,87.864,90.815,96.717,100.095,104.101,109.172,113.472,116.778,120.703,126.819,131.322,134.628,140.744,144.577,149.3578,151.92,156.991,162.894,168.9696,171.575,177.772,180.723,185.023,188.948,195.064,201.159,204.465,207.417,212.954,218.73080000000002,221.341,226.879,230.1658,232.741,238.644,243.502,248.573,251.524,254.83,260.6068,263.228,267.528,272.386,276.392,282.122,285.073,289.576,294.434,298.734,301.224,303.755,307.061,312.964,317.822,321.645,326.503,332.112,337.68960000000004,340.235,343.541,348.399,352.7,356.006,358.957,364.86,370.43760000000003,372.983,376.29,382.192,386.9728,389.545,393.369,398.227,402.527,405.478,408.429,411.381,416.239,422.141,426.644,431.4248,433.987,439.058,444.961,451.0366,453.642,458.145,463.216,469.311,474.382,478.885,481.837,485.143,490.7206,493.267,498.804,502.0908,504.676,507.983,513.885" svgx:width="0.33,0.55,0.55,0.29,0.58,0.33,0.4,0.5,0.42,0.33,0.4,0.6,0.44,0.33,0.6,0.4,0.48,0.55,0.5,0.58,0.61,0.55,0.61,0.29,0.42,0.4,0.6,0.6,0.33,0.29,0.55,0.58,0.55,0.55,0.33,0.55,0.58,0.48,0.5,0.29,0.33,0.58,0.55,0.42,0.48,0.4,0.56,0.29,0.44,0.48,0.42,0.25,0.55,0.33,0.58,0.48,0.4,0.48,0.55,0.56,0.55,0.33,0.48,0.42,0.33,0.29,0.58,0.56,0.55,0.33,0.58,0.48,0.55,0.4,0.48,0.42,0.29,0.29,0.29,0.48,0.58,0.44,0.48,0.55,0.5,0.58,0.61,0.55,0.44,0.5,0.6,0.5,0.44,0.29,0.33,0.56,0.55,0.55,0.33,0.55,0.33,0.58,0.48" style="fill:rgb(0,0,0);font-family:URWPalladioL-Roma;font-size:9.96px;stroke:none;">to infrastructure and disruption of health services, thereby testing the resilience and capacity of the</text>
   <text y="138.377" x="76.535,82.333,87.105,92.087,94.986,98.234,104.01079999999999,106.522,110.747,116.286,120.51,123.758,128.53,139.817,143.065,148.543,150.995,159.304,162.203,165.451,171.249,175.474,178.721,183.703,189.501,195.5766,198.079,200.978,206.776,211.199,214.955,219.727,224.709,228.933,233.705,239.78060000000002,242.283,246.507,252.305,257.745,262.168,267.707,271.8902,274.422,279.403,285.202,291.2776,293.779,298.004,301.251,305.007,309.779,314.004,318.228,323.0,327.1832,329.715" svgx:width="0.58,0.48,0.5,0.29,0.33,0.58,0.55,0.42,0.56,0.42,0.33,0.48,0.88,0.33,0.55,0.55,0.83,0.29,0.33,0.58,0.42,0.33,0.5,0.58,0.61,0.55,0.29,0.58,0.44,0.4,0.48,0.5,0.42,0.48,0.61,0.55,0.42,0.58,0.55,0.44,0.56,0.42,0.55,0.5,0.58,0.61,0.55,0.42,0.33,0.4,0.48,0.42,0.42,0.48,0.42,0.55,0.33" style="fill:rgb(0,0,0);font-family:URWPalladioL-Roma;font-size:9.96px;stroke:none;">health systemto withstand increased shocks and stresses [</text>
   <text y="138.377" x="333.032" svgx:width="0.5" style="fill:rgb(8,117,183);font-family:URWPalladioL-Roma;font-size:9.96px;stroke:none;">6</text>
   <text y="138.377" x="338.013" svgx:width="0.25" style="fill:rgb(0,0,0);font-family:URWPalladioL-Roma;font-size:9.96px;stroke:none;">,</text>
   <text y="138.377" x="340.504" svgx:width="0.5" style="fill:rgb(8,117,183);font-family:URWPalladioL-Roma;font-size:9.96px;stroke:none;">7</text>
   <text y="138.377" x="345.485,348.803" svgx:width="0.33,0.25" style="fill:rgb(0,0,0);font-family:URWPalladioL-Roma;font-size:9.96px;stroke:none;">].</text>
   <text y="151.886" x="97.795,105.641,108.9278,111.461,114.715,120.525,125.3058,127.802,132.794,137.774,140.271,149.085,151.99,154.895,157.8,160.705,166.155,171.9318,174.461,180.46,185.242,190.692,196.692,199.597,204.3778,206.874,210.128,215.938,220.929,224.2158,226.679,229.584,235.394,241.204,246.195,251.715,254.62,257.90680000000003,260.36,263.615,269.424,274.2048,276.702,283.779,288.771,292.714,295.619,301.139,306.659,311.441,316.432,322.242,324.732,327.233,332.684,338.324,343.105,347.089,349.544,355.354,360.345,363.25,366.5368,369.06,371.965,374.87,380.51,385.2908,387.787,396.113,399.018,402.272,408.082,410.987,416.7638,419.292,424.283,426.779,431.759,434.266,439.816,451.116,456.567,459.85380000000004,462.387,465.641,471.451,476.2318,478.728,483.16,488.611,493.602,497.835,501.089,503.994,506.899,512.709,517.49" svgx:width="0.79,0.33,0.55,0.33,0.58,0.48,0.55,0.5,0.5,0.55,0.88,0.29,0.29,0.29,0.29,0.55,0.58,0.55,0.6,0.48,0.55,0.6,0.29,0.48,0.55,0.33,0.58,0.5,0.33,0.55,0.29,0.58,0.58,0.5,0.55,0.29,0.33,0.55,0.33,0.58,0.48,0.55,0.71,0.5,0.4,0.29,0.55,0.55,0.48,0.5,0.58,0.25,0.55,0.55,0.56,0.48,0.4,0.55,0.58,0.5,0.29,0.33,0.55,0.29,0.29,0.56,0.48,0.55,0.83,0.29,0.33,0.58,0.29,0.58,0.55,0.5,0.25,0.5,0.55,0.56,0.88,0.55,0.33,0.55,0.33,0.58,0.48,0.55,0.44,0.55,0.5,0.42,0.33,0.29,0.29,0.58,0.48,0.25" style="fill:rgb(0,0,0);font-family:URWPalladioL-Roma;font-size:9.96px;stroke:none;">Of the 40 million people that inhabit the Caribbean, over half live within 1.5 kmof the coastline,</text>
   <text y="165.395" x="76.535,79.463,85.319,89.787,93.58,98.4,103.431,107.698,110.626,116.482,122.0596,124.582,127.862,133.719,138.538,141.467,145.45100000000002,147.937,150.865,153.793,159.387,164.207,167.135,170.063,175.92,181.414,186.908,192.9836,195.551,201.045,204.3318,206.901,212.466,217.285,220.214,226.07,231.64759999999998,234.16,238.98,244.172,250.219,255.713,259.979,264.799,270.8746,273.453,276.733,282.211,284.722,289.542,294.734,298.015,301.808,306.628,315.513,320.2938,322.838,331.23,336.05,341.081,344.361,350.217,355.037,359.02099999999996,361.507,366.327,372.012,376.832,382.688,385.968,390.235,392.725,395.256,399.522,404.342,409.373,412.724,415.652,420.472,426.157,430.977,433.86539999999997,436.4,440.375,443.303,447.569,452.3498,454.884,459.916,465.772,471.8476,474.425,480.573,485.393,489.861,493.654,498.474,503.505,507.771,512.591" svgx:width="0.29,0.58,0.44,0.4,0.48,0.5,0.42,0.29,0.58,0.56,0.55,0.33,0.58,0.48,0.29,0.4,0.55,0.29,0.29,0.56,0.48,0.29,0.29,0.58,0.55,0.55,0.61,0.55,0.55,0.33,0.55,0.55,0.48,0.29,0.58,0.56,0.55,0.48,0.52,0.6,0.55,0.42,0.48,0.61,0.55,0.33,0.55,0.55,0.48,0.52,0.33,0.4,0.48,0.88,0.48,0.55,0.83,0.48,0.5,0.33,0.58,0.48,0.4,0.55,0.48,0.56,0.48,0.58,0.33,0.42,0.25,0.55,0.42,0.48,0.5,0.33,0.29,0.48,0.56,0.48,0.29,0.55,0.4,0.29,0.42,0.48,0.55,0.5,0.58,0.61,0.55,0.61,0.48,0.44,0.4,0.48,0.5,0.42,0.48,0.61" style="fill:rgb(0,0,0);font-family:URWPalladioL-Roma;font-size:9.96px;stroke:none;">increasing their likelihood of being exposed to extreme weather events, sea-level rise and decreased</text>
   <text y="178.905" x="76.535,82.466,86.622,92.328,97.024,100.896,103.749,108.444,112.6272,115.101,120.993,124.679,130.031,136.021,141.932,146.285,149.481,152.333,157.872,160.725,163.921,169.49859999999998,171.871" svgx:width="0.61,0.42,0.58,0.48,0.4,0.29,0.48,0.42,0.55,0.6,0.4,0.55,0.61,0.6,0.44,0.33,0.29,0.56,0.29,0.33,0.56,0.55,0.33" style="fill:rgb(0,0,0);font-family:URWPalladioL-Roma;font-size:9.96px;stroke:none;">ﬁsheries productivity [</text>
   <text y="178.905" x="175.135" svgx:width="0.5" style="fill:rgb(8,117,183);font-family:URWPalladioL-Roma;font-size:9.96px;stroke:none;">8</text>
   <text y="178.905" x="180.116" svgx:width="0.25" style="fill:rgb(0,0,0);font-family:URWPalladioL-Roma;font-size:9.96px;stroke:none;">,</text>
   <text y="178.905" x="182.567" svgx:width="0.5" style="fill:rgb(8,117,183);font-family:URWPalladioL-Roma;font-size:9.96px;stroke:none;">9</text>
   <text y="178.905" x="187.548,190.812,193.30200000000002,196.371,202.292,206.988,212.34,218.232,221.085,225.8658,228.27,231.123,233.976,239.515,242.368,248.073,253.6506,256.023,258.876,264.65279999999996,267.081,271.238,279.894,284.796,287.648,290.5364,292.991,295.844,300.0,302.853,307.755,313.46,319.5356,321.95,327.94,332.635,338.174,342.87,345.723,351.075,356.967,359.82,365.525,371.1026,373.475,377.632,380.828,385.729,388.925,393.621,397.8042,400.268,403.532,408.679,411.982,419.57,424.717,428.0038,430.481,436.187,441.088,446.627,451.4078,453.823,459.234,463.93,468.625,474.4018,476.831,479.683,485.673,490.369,496.074,499.27,502.123,508.054,512.75" svgx:width="0.33,0.25,0.55,0.6,0.48,0.55,0.6,0.29,0.48,0.55,0.29,0.29,0.56,0.29,0.58,0.56,0.55,0.29,0.58,0.55,0.42,0.88,0.5,0.29,0.29,0.55,0.29,0.42,0.29,0.5,0.58,0.61,0.55,0.61,0.48,0.56,0.48,0.29,0.55,0.6,0.29,0.58,0.56,0.55,0.42,0.33,0.5,0.33,0.48,0.42,0.55,0.33,0.52,0.34,0.77,0.52,0.33,0.55,0.58,0.5,0.56,0.48,0.55,0.55,0.48,0.48,0.58,0.55,0.29,0.61,0.48,0.58,0.33,0.29,0.61,0.48,0.61" style="fill:rgb(0,0,0);font-family:URWPalladioL-Roma;font-size:9.96px;stroke:none;">]. People living in small island developing states (SIDS) have been identiﬁed</text>
   <text y="192.414" x="76.535,81.616,85.7992,88.546,93.414,97.722,103.83,108.697,113.209,116.166,121.247,124.204,127.161,132.7386,135.443,141.185,147.312,150.269,156.184,161.051,165.065,170.146,175.765,178.723,183.5038,186.212,189.525,195.00300000000001,197.695,201.007,206.922,211.7028,214.411,220.325,225.193,230.274,233.231,236.543,242.31980000000001,245.09,248.047,257.02,263.127,268.208,272.72,276.032,280.2152,282.963,288.511,291.79780000000005,294.517,299.029,301.986,304.943,313.916,318.997,322.31,327.0908,329.809,334.321,340.235,345.316,351.23,356.88,361.6608,364.369" svgx:width="0.5,0.42,0.55,0.48,0.42,0.6,0.48,0.44,0.29,0.5,0.29,0.29,0.56,0.55,0.56,0.6,0.29,0.58,0.48,0.4,0.5,0.55,0.29,0.48,0.55,0.33,0.55,0.55,0.33,0.58,0.48,0.55,0.58,0.48,0.5,0.29,0.33,0.58,0.55,0.29,0.88,0.6,0.5,0.44,0.33,0.42,0.55,0.55,0.33,0.55,0.44,0.29,0.29,0.88,0.5,0.33,0.48,0.55,0.44,0.58,0.5,0.58,0.56,0.48,0.55,0.33" style="fill:rgb(0,0,0);font-family:URWPalladioL-Roma;font-size:9.96px;stroke:none;">as especially vulnerable to the health impacts of climate change [</text>
   <text y="192.414" x="367.753,372.734" svgx:width="0.5,0.5" style="fill:rgb(8,117,183);font-family:URWPalladioL-Roma;font-size:9.96px;stroke:none;">10</text>
   <text y="192.414" x="377.716" svgx:width="0.5" style="fill:rgb(0,0,0);font-family:URWPalladioL-Roma;font-size:9.96px;stroke:none;">–</text>
   <text y="192.414" x="382.796,387.777" svgx:width="0.5,0.5" style="fill:rgb(8,117,183);font-family:URWPalladioL-Roma;font-size:9.96px;stroke:none;">14</text>
   <text y="192.414" x="392.759,396.143,398.633,402.179,408.408,414.322,419.19,423.499,428.2798,430.988,435.297,438.609,443.69,447.003,451.871,456.0542,458.801,462.185,467.266,471.778,476.5588,479.267,483.779,489.327,498.3,507.273,512.821" svgx:width="0.33,0.25,0.55,0.61,0.58,0.48,0.42,0.48,0.55,0.42,0.33,0.5,0.33,0.48,0.42,0.55,0.33,0.5,0.44,0.48,0.55,0.44,0.55,0.88,0.88,0.55,0.58" style="fill:rgb(0,0,0);font-family:URWPalladioL-Roma;font-size:9.96px;stroke:none;">]. These states face common</text>
   <text y="205.924" x="76.535,80.892,86.603,91.51,94.366,97.221,101.922,107.633,113.089,117.79,121.9732,124.453,127.652,133.363,138.27,141.5568,143.961,149.879,155.59,161.586,166.286,170.162,178.827,181.683,187.394,192.1748,194.597,197.796,203.507,208.208,211.064,215.048,217.442,221.142,225.842,230.003,232.859,235.714,238.57,243.27,248.982,253.339,258.1198,260.532,263.731,269.209,271.591,276.571,279.0,287.184,292.091,295.967,304.632,307.488,313.199,318.77660000000003,321.157,325.515,328.37,331.226,339.891,344.797,347.996,352.697,355.187,357.653,360.508,366.219,370.577,373.432,379.349,385.345,388.201,393.912,399.4896,401.861,405.06,410.771,415.5518,417.974,422.675,427.738,430.594,434.755,437.954,442.654,448.365,452.723,457.5038,459.925,465.283,468.56980000000004,471.053,475.214,483.879,488.786,491.632,494.487,497.755,501.916,506.273,511.179,514.035" svgx:width="0.44,0.58,0.5,0.29,0.29,0.48,0.58,0.56,0.48,0.42,0.55,0.33,0.58,0.5,0.33,0.55,0.6,0.58,0.61,0.48,0.4,0.88,0.29,0.58,0.48,0.55,0.33,0.58,0.48,0.29,0.4,0.55,0.4,0.48,0.42,0.29,0.29,0.29,0.48,0.58,0.44,0.48,0.55,0.33,0.55,0.55,0.5,0.55,0.83,0.5,0.4,0.88,0.29,0.58,0.56,0.55,0.44,0.29,0.29,0.88,0.5,0.33,0.48,0.25,0.55,0.29,0.58,0.44,0.29,0.6,0.61,0.29,0.58,0.56,0.55,0.33,0.58,0.48,0.55,0.48,0.52,0.29,0.42,0.33,0.48,0.58,0.44,0.48,0.55,0.55,0.33,0.55,0.42,0.88,0.5,0.29,0.29,0.33,0.42,0.44,0.5,0.29,0.48" style="fill:rgb(0,0,0);font-family:URWPalladioL-Roma;font-size:9.96px;stroke:none;">challenges that undermine their resilience to a warming climate, including the existence of small-scale</text>
   <text y="219.433" x="76.535,81.345,85.804,91.287,97.132,102.615,111.482,114.405,119.215,123.473,125.963,128.464,132.25,137.06,141.318,146.801,152.856,156.642,161.101,165.8818,168.382,172.64,177.099,182.12,185.906,190.365,193.287,196.561,201.039,203.529,206.03,212.066,217.549,223.032,227.01600000000002,229.469,232.392,238.236,241.58,245.547,250.568,254.826,258.1,261.986,268.042,272.5,275.774,281.83,285.616,290.426,292.916,295.417,300.438,306.283,312.3586,314.889,317.811,323.656,328.115,331.901,336.711,341.732,345.99,350.8,356.8756,359.406,364.217,369.399,375.434,380.917,385.175,391.231,395.016,399.7968,402.307,405.581,411.059,413.534,417.993,420.916,423.838,432.705,437.726,441.0,445.81,449.155,452.94,457.751,460.673,465.694,468.968,473.778,479.85360000000003,482.384,488.229,493.25,498.271,503.293,507.078,513.214,517.472" svgx:width="0.48,0.44,0.55,0.58,0.55,0.88,0.29,0.48,0.42,0.25,0.55,0.4,0.48,0.42,0.55,0.6,0.4,0.44,0.48,0.55,0.42,0.44,0.5,0.4,0.44,0.29,0.33,0.56,0.25,0.55,0.6,0.55,0.55,0.4,0.55,0.29,0.58,0.33,0.4,0.5,0.42,0.33,0.4,0.6,0.44,0.33,0.6,0.4,0.48,0.25,0.55,0.5,0.58,0.61,0.55,0.29,0.58,0.44,0.4,0.48,0.5,0.42,0.48,0.61,0.55,0.48,0.52,0.6,0.55,0.42,0.6,0.4,0.48,0.55,0.33,0.55,0.55,0.44,0.29,0.29,0.88,0.5,0.33,0.48,0.33,0.4,0.48,0.29,0.5,0.33,0.48,0.61,0.55,0.58,0.5,0.5,0.5,0.4,0.61,0.42,0.25" style="fill:rgb(0,0,0);font-family:URWPalladioL-Roma;font-size:9.96px;stroke:none;">economies, resource scarcity, poor infrastructure, and increased exposure to climate-related hazards,</text>
   <text y="232.942" x="76.535,80.759,86.767,91.19,96.96679999999999,99.479,104.46,108.6432,111.175,117.262,127.225,133.312,137.4952,140.027" svgx:width="0.42,0.6,0.44,0.58,0.55,0.5,0.42,0.55,0.61,1.0,0.61,0.42,0.55,0.33" style="fill:rgb(0,0,0);font-family:URWPalladioL-Roma;font-size:9.96px;stroke:none;">such as EWEs [</text>
   <text y="232.942" x="143.344,148.325" svgx:width="0.5,0.5" style="fill:rgb(8,117,183);font-family:URWPalladioL-Roma;font-size:9.96px;stroke:none;">12</text>
   <text y="232.942" x="153.307" svgx:width="0.25" style="fill:rgb(0,0,0);font-family:URWPalladioL-Roma;font-size:9.96px;stroke:none;">,</text>
   <text y="232.942" x="155.797,160.779" svgx:width="0.5,0.5" style="fill:rgb(8,117,183);font-family:URWPalladioL-Roma;font-size:9.96px;stroke:none;">14</text>
   <text y="232.942" x="165.76,169.078" svgx:width="0.33,0.25" style="fill:rgb(0,0,0);font-family:URWPalladioL-Roma;font-size:9.96px;stroke:none;">].</text>
   <text y="246.452" x="97.795,104.024,109.938,114.7188,117.631,124.836,130.384,139.357,148.33,153.878,159.792,168.267,173.135,178.216,181.173,184.486,190.2628,193.225,198.773,202.0598,204.982,212.848,218.396,227.369,230.326,236.24,239.197,243.709,248.689,251.615,254.572,258.7552,261.716,264.673,270.221,274.733,279.814,283.127,287.994,294.06960000000004,297.028,299.985,305.7618,308.725,312.037,317.951,322.7318,325.644,334.891,339.759,344.067,347.35380000000004,350.205,353.63,359.544,365.753,368.71,373.577,377.7602,380.711,384.542,389.41,395.06,398.017,403.565,409.3418,412.314,417.863,421.1498,424.072,427.384,433.299,438.0798,440.991,448.196,453.277,457.291,460.248,465.867,471.487,476.354,481.435,487.2118,490.174,498.649,501.606,504.919,510.69579999999996,513.658" svgx:width="0.61,0.58,0.48,0.55,0.71,0.55,0.88,0.88,0.55,0.58,0.83,0.48,0.5,0.29,0.33,0.58,0.55,0.55,0.33,0.55,0.77,0.55,0.88,0.29,0.58,0.29,0.44,0.5,0.55,0.29,0.42,0.55,0.29,0.55,0.44,0.5,0.33,0.48,0.61,0.55,0.29,0.58,0.55,0.33,0.58,0.48,0.55,1.0,0.48,0.42,0.33,0.55,0.34,0.58,0.61,0.29,0.48,0.42,0.55,0.4,0.48,0.56,0.29,0.55,0.58,0.55,0.55,0.33,0.55,0.33,0.58,0.48,0.55,0.71,0.5,0.4,0.29,0.55,0.55,0.48,0.5,0.58,0.55,0.83,0.29,0.33,0.58,0.55,0.5" style="fill:rgb(0,0,0);font-family:URWPalladioL-Roma;font-size:9.96px;stroke:none;">The Commonwealth of Dominica is located in the West Indies region of the Caribbean with a</text>
   <text y="259.961" x="76.236,82.206,87.629,93.598,99.588,102.478,107.445,110.683,113.573,118.996,124.77279999999999,127.27,132.694,135.9808,138.504,140.828,146.818,151.029,154.3158,156.76,162.184,167.796,172.554,176.538,178.97,183.936,188.903,191.386,196.352,201.319,206.29899999999998,208.788,214.758,219.515,224.939,230.908,233.799,238.5798,241.049" svgx:width="0.6,0.55,0.6,0.6,0.29,0.5,0.33,0.29,0.55,0.58,0.55,0.55,0.33,0.55,0.23,0.6,0.42,0.33,0.55,0.55,0.56,0.48,0.4,0.55,0.5,0.5,0.25,0.5,0.5,0.5,0.55,0.6,0.48,0.55,0.6,0.29,0.48,0.55,0.33" style="fill:rgb(0,0,0);font-family:URWPalladioL-Roma;font-size:9.96px;stroke:none;">population of just over 71,000 people [</text>
   <text y="259.961" x="244.358,249.339" svgx:width="0.5,0.5" style="fill:rgb(8,117,183);font-family:URWPalladioL-Roma;font-size:9.96px;stroke:none;">15</text>
   <text y="259.961" x="254.321,257.629,260.119,263.221,270.263,273.153,276.044,284.814,289.781,293.019,297.7998,300.27,305.882,310.848,314.772,317.662,322.628,328.121,331.012,333.902,336.792,340.03,345.6076,348.046,353.012,358.793,364.8686,367.365,371.775,377.556,382.523,388.303,393.826,398.6068,401.077,406.043,409.788,414.5688,417.039,422.005,425.134,428.441,433.199,437.609,440.847,443.738,449.519,455.0966,457.544,463.325,469.315,478.085,483.052,488.8288,491.326,497.106,501.864,506.83,509.721,512.959" svgx:width="0.33,0.25,0.55,0.71,0.29,0.29,0.88,0.5,0.33,0.48,0.55,0.56,0.5,0.4,0.29,0.5,0.55,0.29,0.29,0.29,0.33,0.56,0.55,0.5,0.58,0.61,0.55,0.44,0.58,0.5,0.58,0.56,0.48,0.55,0.5,0.4,0.48,0.55,0.5,0.33,0.33,0.48,0.44,0.33,0.29,0.58,0.56,0.55,0.58,0.6,0.88,0.5,0.58,0.55,0.58,0.48,0.5,0.29,0.33,0.58" style="fill:rgb(0,0,0);font-family:URWPalladioL-Roma;font-size:9.96px;stroke:none;">]. Climate variability and change are affecting human health</text>
   <text y="273.471" x="76.535,79.408,85.1848,87.632,96.35,101.286,107.033,112.6106,115.01,122.01,126.946,130.846,133.709,139.169,144.629,149.358,154.294,160.07080000000002,162.528,167.712,171.039,178.68,183.864,186.354,188.81,192.996,198.95,203.333,209.1098,211.557,216.494,220.6772,223.158,230.8,236.19,244.908,247.781,253.527,256.4,260.784,265.72,268.21000000000004,270.676,275.613,281.359,287.4346,289.869,295.803,299.525,304.916,309.852,314.236,317.454,320.327,325.906,330.6868,333.113,338.049,344.082,349.018,354.952,358.17,363.107,366.325,369.198,374.589,380.3658,382.813,388.747,391.62,396.556,402.302,408.048,410.921,416.668,422.2456,424.645,427.518,431.7012,434.182,437.904,442.633,448.162,454.116,456.989,460.701,465.43,471.5056,473.95,477.169,482.647,485.038,490.971,494.693,499.422,505.356,510.293,514.015" svgx:width="0.29,0.58,0.55,0.88,0.5,0.58,0.56,0.55,0.71,0.5,0.4,0.29,0.55,0.55,0.48,0.5,0.58,0.55,0.52,0.34,0.77,0.52,0.25,0.55,0.42,0.6,0.44,0.58,0.55,0.5,0.42,0.55,0.77,0.55,0.88,0.29,0.58,0.29,0.44,0.5,0.25,0.55,0.5,0.58,0.61,0.55,0.6,0.4,0.55,0.5,0.44,0.33,0.29,0.56,0.48,0.55,0.5,0.61,0.5,0.6,0.33,0.5,0.33,0.29,0.55,0.58,0.55,0.6,0.29,0.5,0.58,0.58,0.29,0.58,0.56,0.55,0.29,0.42,0.55,0.4,0.48,0.56,0.6,0.29,0.4,0.48,0.61,0.55,0.33,0.55,0.55,0.6,0.4,0.48,0.6,0.5,0.4,0.48" style="fill:rgb(0,0,0);font-family:URWPalladioL-Roma;font-size:9.96px;stroke:none;">in many Caribbean SIDS, such as Dominica, and proactive adaptation planning is required to prepare</text>
   <text y="286.98" x="76.535,79.492,85.406,91.615,94.572,100.314,103.271,109.48,115.607,120.688,123.645,127.954,130.444,133.116,137.628,143.176,152.149,161.122,167.25,173.164,176.121,179.434,182.391,187.259,191.567,194.05700000000002,196.729,201.81,207.725,213.8006,216.525,222.439,227.306,232.387,235.344,238.657,244.43380000000002,247.173,251.481,257.131,261.44,264.753,269.62,278.593,282.7762,285.493,288.806,294.284,296.956,305.929,311.01,316.924,322.005,327.655,332.4358,335.113,339.625,345.753,349.767,353.608,358.476,364.39,367.6768,370.294,375.375,381.289,387.3646,390.099,393.483,399.611,402.924,409.051,412.882,417.6628,420.341,423.298,432.271,438.378,443.459,447.971,451.284,455.592,458.082,461.537,467.187,472.735,476.719,479.351,484.218,489.462,494.543,503.516,509.623,512.58,517.448" svgx:width="0.29,0.58,0.61,0.29,0.56,0.29,0.61,0.6,0.5,0.29,0.42,0.25,0.55,0.44,0.55,0.88,0.88,0.6,0.58,0.29,0.33,0.29,0.48,0.42,0.25,0.55,0.5,0.58,0.61,0.55,0.58,0.48,0.5,0.29,0.33,0.58,0.55,0.42,0.56,0.42,0.33,0.48,0.88,0.42,0.55,0.33,0.55,0.55,0.88,0.5,0.58,0.5,0.56,0.48,0.55,0.44,0.6,0.4,0.4,0.48,0.58,0.33,0.55,0.5,0.58,0.61,0.55,0.33,0.6,0.33,0.6,0.4,0.48,0.55,0.29,0.88,0.6,0.5,0.44,0.33,0.42,0.25,0.55,0.56,0.55,0.4,0.55,0.48,0.52,0.5,0.88,0.6,0.29,0.48,0.25" style="fill:rgb(0,0,0);font-family:URWPalladioL-Roma;font-size:9.96px;stroke:none;">individuals, communities, and health systems to manage current and future impacts. For example,</text>
   <text y="300.489" x="76.535,84.092,89.423,98.044,100.885,106.567,109.408,113.743,118.723,120.88,126.562,131.444,135.6272,137.839,142.516,147.554,153.421,158.098,161.955,164.796,169.472,175.155,179.49,184.166,190.2416,192.387,196.068,200.744,205.079,209.756,215.438,218.7248,220.876,226.207,232.094,235.277,240.676,244.357,249.034,253.916,259.344,263.5272,265.739,271.07,274.3568,276.576,280.911,283.752,286.593,295.214,300.096,303.279,307.956,311.207,314.888,319.564,322.405,327.287,330.47,335.147,341.2226,343.367,346.208,351.891,355.142,359.819,364.153,367.336,370.177,375.508,381.396,385.5792,387.791,393.756,396.597,400.737,405.413,410.295,414.435,419.111,423.251,425.741,427.996,432.136,438.023,442.358,448.1348,450.295,455.177,459.3602,461.572,465.907,471.589,474.43,479.859,485.746,491.428,496.857,502.744,508.426,513.855" svgx:width="0.77,0.55,0.88,0.29,0.58,0.29,0.44,0.5,0.55,0.58,0.5,0.42,0.55,0.48,0.52,0.6,0.48,0.4,0.29,0.48,0.58,0.44,0.48,0.61,0.55,0.4,0.48,0.44,0.48,0.58,0.33,0.55,0.55,0.6,0.33,0.55,0.4,0.48,0.5,0.56,0.42,0.55,0.55,0.33,0.55,0.44,0.29,0.29,0.88,0.5,0.33,0.48,0.33,0.4,0.48,0.29,0.5,0.33,0.48,0.61,0.55,0.29,0.58,0.33,0.48,0.44,0.33,0.29,0.55,0.6,0.42,0.55,0.61,0.29,0.42,0.48,0.5,0.42,0.48,0.42,0.25,0.55,0.42,0.6,0.44,0.58,0.55,0.5,0.42,0.55,0.44,0.58,0.29,0.56,0.6,0.58,0.56,0.6,0.58,0.56,0.5" style="fill:rgb(0,0,0);font-family:URWPalladioL-Roma;font-size:9.96px;stroke:none;">Dominica has experienced recent outbreaks of climate-related infectious diseases, such as chikungunya</text>
   <text y="313.999" x="76.535,81.422,87.11,93.1856,95.583,101.555,106.236,111.924,117.358,123.251,128.0318,130.445,133.699,138.381,143.902,148.584,152.568,154.946,158.201,163.605,168.942,172.128,177.9048,180.318,185.84,188.684,192.544,197.431,200.3194,202.787,208.758,211.602,215.746,220.427,225.314,229.458,234.13,238.3132,240.785,243.971,247.832,252.719,258.407,262.55,271.18,274.024,277.21,280.397,285.078,291.1536,293.551,298.956,304.53360000000004,306.892,310.078,315.766" svgx:width="0.5,0.58,0.61,0.55,0.61,0.48,0.58,0.56,0.6,0.48,0.55,0.33,0.48,0.56,0.48,0.4,0.55,0.33,0.55,0.55,0.33,0.58,0.55,0.56,0.29,0.4,0.5,0.29,0.55,0.61,0.29,0.42,0.48,0.5,0.42,0.48,0.42,0.55,0.33,0.4,0.5,0.58,0.42,0.88,0.29,0.33,0.33,0.48,0.61,0.55,0.55,0.56,0.55,0.33,0.58,0.48" style="fill:rgb(0,0,0);font-family:URWPalladioL-Roma;font-size:9.96px;stroke:none;">and dengue fever (both viral diseases transmitted by the</text>
   <text y="313.999" x="322.957,330.013,333.815,338.702,342.504,346.38840000000005,348.807,353.147,356.949,361.835,366.722,371.609,374.863" svgx:width="0.72,0.39,0.5,0.39,0.39,0.55,0.44,0.39,0.5,0.5,0.5,0.33,0.28" style="fill:rgb(0,0,0);font-family:URWPalladioL-Ital;font-size:9.96px;stroke:none;">Aedes aegypti</text>
   <text y="313.999" x="380.087,388.717,394.053,398.197,403.67,409.563,412.407,415.593,420.93,424.184,426.67400000000004,429.139,434.026,439.714,445.7896,448.187,451.442,456.778,462.114,468.1896,470.588,476.462,480.146,485.482,491.454,497.347,501.686,504.873,507.717,513.053" svgx:width="0.88,0.55,0.42,0.56,0.6,0.29,0.33,0.55,0.33,0.25,0.55,0.5,0.58,0.61,0.55,0.33,0.55,0.55,0.61,0.55,0.6,0.4,0.55,0.61,0.6,0.44,0.33,0.29,0.55,0.58" style="fill:rgb(0,0,0);font-family:URWPalladioL-Roma;font-size:9.96px;stroke:none;">mosquito), and food production</text>
   <text y="327.508" x="76.535,80.844,86.494,90.802,94.115,98.983,107.955,112.1382,115.028,117.985,123.7618,126.653,129.966,135.88,140.6608,143.512,148.024,153.572,159.7,165.614,168.927,172.94,178.5176,181.354,187.269,192.35,198.091,202.8718,205.712,211.921,216.789,225.762,231.31,237.224,241.533,244.846,248.86,253.941,257.253,262.121,268.1966,271.094,275.402,280.27,286.184,290.493,293.45,296.763,299.72,305.461,308.418,311.731,317.3086,320.145,323.458,328.93600000000004,331.76,337.41,341.424,346.505,352.714,358.841,363.922,366.8104,369.643,374.155,377.112,380.07,389.042,394.123,397.436,402.2168,405.068,409.58,415.494,420.575,426.489,432.139,436.9198,439.76,444.841,449.0242,451.914,460.389,465.256,468.214,471.1024,473.935,479.016,483.1992,486.078,490.59,493.547,496.504,505.477,510.558,513.871" svgx:width="0.42,0.56,0.42,0.33,0.48,0.88,0.42,0.55,0.29,0.58,0.55,0.33,0.58,0.48,0.55,0.44,0.55,0.6,0.58,0.33,0.4,0.56,0.55,0.58,0.5,0.56,0.48,0.55,0.61,0.48,0.88,0.55,0.58,0.42,0.33,0.4,0.5,0.33,0.48,0.61,0.55,0.42,0.48,0.58,0.42,0.29,0.33,0.29,0.56,0.29,0.33,0.56,0.55,0.33,0.55,0.55,0.56,0.4,0.5,0.61,0.6,0.5,0.29,0.55,0.44,0.29,0.29,0.88,0.5,0.33,0.48,0.55,0.44,0.58,0.5,0.58,0.56,0.48,0.55,0.5,0.42,0.55,0.83,0.48,0.29,0.29,0.55,0.5,0.42,0.55,0.44,0.29,0.29,0.88,0.5,0.33,0.48" style="fill:rgb(0,0,0);font-family:URWPalladioL-Roma;font-size:9.96px;stroke:none;">systems in the country have demonstrated sensitivity to gradual climate change as well as climate</text>
   <text y="341.018" x="76.535,80.763,86.567,92.012,96.44,101.985,106.1682,108.697" svgx:width="0.42,0.58,0.55,0.44,0.56,0.42,0.55,0.33" style="fill:rgb(0,0,0);font-family:URWPalladioL-Roma;font-size:9.96px;stroke:none;">shocks [</text>
   <text y="341.018" x="112.019,117.0" svgx:width="0.5,0.5" style="fill:rgb(8,117,183);font-family:URWPalladioL-Roma;font-size:9.96px;stroke:none;">16</text>
   <text y="341.018" x="121.982,125.303,127.79299999999999,130.878,134.238,140.0148,142.535,147.522,153.615,159.708,162.61,165.861,168.763,174.208,180.012,182.502,184.989,192.707,198.152,206.958,209.86,215.664,218.566,222.994,227.974,230.464,238.781,243.767,247.9502,250.478,254.707,257.958,261.817,267.831,272.259,277.83660000000003,280.286,283.188,288.96479999999997,291.486,299.244,305.258,310.802,316.816,321.044,324.3308,326.779,331.765,336.751,341.737,346.71700000000004,349.207,354.722,360.2996,362.749,367.965,371.725,377.17,383.163,386.065,390.493,395.479,398.3674,400.865,406.1,409.351,414.796,418.735,430.034,436.128,440.067,442.969,448.513,453.5,455.99,458.476,466.793,472.597,475.499,479.927,485.7038,488.214,492.642,497.628,503.642,507.87,512.647" svgx:width="0.33,0.25,0.55,0.34,0.58,0.55,0.5,0.61,0.61,0.29,0.33,0.29,0.55,0.58,0.25,0.55,0.77,0.55,0.88,0.29,0.58,0.29,0.44,0.5,0.55,0.83,0.5,0.42,0.55,0.42,0.33,0.4,0.6,0.44,0.56,0.55,0.29,0.58,0.55,0.78,0.6,0.56,0.6,0.42,0.33,0.55,0.5,0.5,0.5,0.5,0.55,0.55,0.56,0.55,0.61,0.4,0.55,0.6,0.29,0.44,0.5,0.29,0.55,0.52,0.33,0.55,0.4,0.88,0.61,0.4,0.29,0.56,0.5,0.25,0.55,0.83,0.58,0.29,0.44,0.58,0.55,0.44,0.5,0.6,0.42,0.48,0.61" style="fill:rgb(0,0,0);font-family:URWPalladioL-Roma;font-size:9.96px;stroke:none;">]. In addition, Dominica was struck in August 2015 by Tropical StormErika, which caused</text>
   <text y="354.527" x="76.535,81.403,86.646,89.959,94.826,100.741,105.049,108.006,113.748,118.5288,122.202,128.371,133.919,139.467,145.676,148.633,154.548,160.198,162.68800000000002,166.599,169.557,174.638,180.552,186.761,191.069,194.026,196.983,203.192,208.06,212.368,214.858,218.76,223.841,229.755,235.8306,239.551,245.76,248.717,253.026,256.959,263.086,269.194,272.506,275.463,281.012,286.926,291.1092,294.812,298.124,303.60200000000003,307.26,313.174,318.042,323.122,326.08,329.392,335.1688,338.883,343.395,348.476,352.317,357.0978,360.762,363.719,369.4958,373.22,376.533,382.447,387.2278,390.892,395.404,400.952,407.08,412.994,416.307,420.321,425.89860000000004,429.558" svgx:width="0.48,0.52,0.33,0.48,0.58,0.42,0.29,0.56,0.48,0.55,0.61,0.55,0.55,0.61,0.29,0.58,0.56,0.25,0.55,0.29,0.5,0.58,0.61,0.42,0.29,0.29,0.61,0.48,0.42,0.25,0.55,0.5,0.58,0.61,0.55,0.61,0.29,0.42,0.4,0.6,0.6,0.33,0.29,0.55,0.58,0.42,0.55,0.33,0.55,0.55,0.58,0.48,0.5,0.29,0.33,0.58,0.55,0.44,0.5,0.4,0.48,0.55,0.29,0.58,0.55,0.33,0.58,0.48,0.55,0.44,0.55,0.6,0.58,0.33,0.4,0.56,0.55,0.33" style="fill:rgb(0,0,0);font-family:URWPalladioL-Roma;font-size:9.96px;stroke:none;">extensive ﬂooding, landslides, and disruptions to health care in the country [</text>
   <text y="354.527" x="432.939,437.92" svgx:width="0.5,0.5" style="fill:rgb(8,117,183);font-family:URWPalladioL-Roma;font-size:9.96px;stroke:none;">16</text>
   <text y="354.527" x="442.902,446.286,448.776,455.188,464.801,470.349,474.19,478.9708,482.635,486.466,491.333,495.845,500.713,506.627,509.94,512.897,517.449" svgx:width="0.33,0.25,0.55,0.95,0.55,0.4,0.48,0.55,0.4,0.48,0.44,0.48,0.58,0.33,0.29,0.56,0.25" style="fill:rgb(0,0,0);font-family:URWPalladioL-Roma;font-size:9.96px;stroke:none;">]. More recently,</text>
   <text y="368.036" x="76.535,79.408,85.1848,87.652,92.835,97.564,103.498,106.717,111.446,120.163,125.623,130.352,134.336,136.75,141.686,146.623,151.559,156.496,158.98600000000002,161.462,169.104,174.494,183.212,186.085,191.831,194.704,199.088,204.06799999999998,206.522,214.756,219.693,223.8762,226.377,232.123,234.996,238.2828,240.712,246.172,251.7496,254.159,262.373,268.327,272.226,276.126,278.999,283.383,288.319,294.065,298.8458,301.292,310.632,315.569,319.468,322.341,327.278,329.76800000000003,332.244,337.22400000000005,339.678,344.062,348.998,352.217,356.946,362.435,367.826,371.726,377.3036,379.713,385.686,391.264,396.0448,398.491,402.677,405.896,411.287,415.186,423.904,426.394,428.87,437.104,442.85,445.723,450.107,455.8838,458.351,462.735,467.671,473.624,477.811,482.54,488.61560000000003,491.07,495.256,499.985,505.563,510.292,514.015" svgx:width="0.29,0.58,0.55,0.52,0.48,0.6,0.33,0.48,0.88,0.55,0.48,0.4,0.55,0.5,0.5,0.5,0.5,0.25,0.55,0.77,0.55,0.88,0.29,0.58,0.29,0.44,0.5,0.55,0.83,0.5,0.42,0.55,0.58,0.29,0.33,0.55,0.55,0.56,0.55,0.83,0.6,0.4,0.4,0.29,0.44,0.5,0.58,0.48,0.55,0.95,0.5,0.4,0.29,0.5,0.25,0.55,0.5,0.55,0.44,0.5,0.33,0.48,0.56,0.55,0.4,0.56,0.55,0.61,0.56,0.48,0.55,0.42,0.33,0.55,0.4,0.88,0.25,0.55,0.83,0.58,0.29,0.44,0.58,0.55,0.44,0.5,0.6,0.42,0.48,0.61,0.55,0.42,0.48,0.56,0.48,0.4,0.48" style="fill:rgb(0,0,0);font-family:URWPalladioL-Roma;font-size:9.96px;stroke:none;">in September 2017, Dominica was hit by Hurricane Maria, a category ﬁve storm, which caused severe</text>
   <text y="381.546" x="76.535,82.592,87.34,91.543,94.775,98.611,104.588,108.989,112.221,115.106,120.518,126.2948,128.765,133.722,138.123,141.86,147.273,151.476,155.6592,158.167,161.398,167.168,171.9488,174.394,177.279,181.482,184.366,189.323,195.092,201.149,203.639,206.72,214.432,218.6152,221.113,226.093,228.557,232.295,237.043,241.246,247.223,250.108,253.339,255.829,258.296,263.252,268.232,270.697,276.654,281.403,286.815,292.773,295.657,300.4378,302.893,308.95,311.835,316.583,322.65860000000004,325.118,330.074,335.844,341.9196,344.388,347.62,353.389,358.802,364.779,368.982,373.938,379.708,385.764,389.9472,392.446,400.713,405.461,409.198,413.9788,416.435,419.319,425.088,427.408,433.385,437.123,441.871,447.9466,450.406,453.707,457.444,462.856,474.097,476.982,481.938,487.708,493.764,497.967,500.852,503.736,509.793,514.541" svgx:width="0.61,0.48,0.42,0.33,0.4,0.6,0.44,0.33,0.29,0.55,0.58,0.55,0.5,0.44,0.4,0.55,0.42,0.42,0.55,0.33,0.58,0.48,0.55,0.29,0.42,0.29,0.5,0.58,0.61,0.25,0.55,0.78,0.42,0.55,0.5,0.55,0.4,0.48,0.42,0.6,0.29,0.33,0.25,0.55,0.5,0.5,0.55,0.6,0.48,0.55,0.6,0.29,0.48,0.55,0.61,0.29,0.48,0.61,0.55,0.5,0.58,0.61,0.55,0.33,0.58,0.55,0.6,0.42,0.5,0.58,0.61,0.42,0.55,0.83,0.48,0.4,0.48,0.55,0.29,0.58,0.23,0.6,0.4,0.48,0.61,0.55,0.33,0.4,0.55,0.88,0.29,0.5,0.58,0.61,0.42,0.29,0.29,0.61,0.48,0.42" style="fill:rgb(0,0,0);font-family:URWPalladioL-Roma;font-size:9.96px;stroke:none;">destruction across the island. As a result, 31 people died and thousands were injured fromlandslides</text>
   <text y="395.055" x="76.535,81.417,87.099,93.1746,95.447,101.383,106.714,112.044,118.01,122.149,124.639,127.646,133.543,137.683,143.111,147.446,153.119,158.449,162.589,167.92,172.255,175.096,179.978,182.8664,185.201,191.167,194.008,198.147,201.33,205.011,209.688,213.827,218.0102,220.349,228.492,233.373,237.5562,239.895,248.038,250.879,256.845,261.521,265.661,271.529,275.2,279.876,284.758,290.723,293.213,295.576,298.827,304.158,309.489,315.5646,317.826,321.966,326.643,330.978,336.865,340.721,343.563,346.745,352.3226,354.556,362.699,367.58,371.7632,374.102,377.783,382.46,388.425,394.313,398.647,403.324,409.3996,411.672,417.637,423.524,428.3048,430.583,433.766,439.244,441.469,446.146,451.184,454.367,459.043,464.726,468.865,471.707,477.223,482.0038,484.282,490.247,495.129,503.75,508.632,514.06" svgx:width="0.5,0.58,0.61,0.55,0.61,0.55,0.55,0.61,0.42,0.25,0.55,0.6,0.42,0.56,0.44,0.58,0.55,0.42,0.55,0.44,0.29,0.5,0.29,0.55,0.61,0.29,0.42,0.33,0.4,0.48,0.42,0.42,0.55,0.83,0.5,0.42,0.55,0.83,0.29,0.61,0.48,0.42,0.6,0.4,0.48,0.5,0.61,0.25,0.55,0.33,0.55,0.55,0.61,0.55,0.42,0.48,0.44,0.6,0.4,0.29,0.33,0.56,0.55,0.83,0.5,0.42,0.55,0.4,0.48,0.61,0.6,0.44,0.48,0.61,0.55,0.61,0.6,0.48,0.55,0.33,0.55,0.55,0.48,0.52,0.33,0.48,0.58,0.42,0.29,0.56,0.48,0.55,0.61,0.5,0.88,0.5,0.56,0.48" style="fill:rgb(0,0,0);font-family:URWPalladioL-Roma;font-size:9.96px;stroke:none;">and ﬂoods. Psychosocial distress was widespread, food security was reduced due to extensive damage</text>
   <text y="408.565" x="76.535,79.724,85.202,87.551,90.74,96.434,101.2148,103.605,108.497,113.936,117.801,120.648,124.992,130.891,133.738,136.927,142.826,146.691,151.582,154.47039999999998,156.914,161.062,165.749,170.092,173.282,178.623,181.754,184.244,186.685,191.576,197.27,203.34560000000002,205.733,208.922,214.616,219.302,222.991,227.7718,230.162,238.321,243.007,246.686,251.4668,253.867,258.015,260.862,266.301,271.995,274.842,280.761,285.105,289.996,295.69,298.9768,301.364,305.708,311.402,316.294,319.141,321.988,326.674,332.368,337.807,342.493,346.6762,349.126,357.286,360.133,363.322,369.0988,371.501,376.392,380.736,385.08,389.766,393.914,398.062,400.909,406.603,412.1806,414.528,418.676,423.567,426.825,431.6058,433.996,439.974,443.838,446.685,452.379,457.819,460.666,466.359,471.9366,474.284,482.443,487.335,490.524,495.21,499.19399999999996,501.56" svgx:width="0.33,0.55,0.55,0.33,0.58,0.48,0.55,0.5,0.56,0.4,0.29,0.44,0.6,0.29,0.33,0.6,0.4,0.5,0.29,0.55,0.42,0.48,0.44,0.33,0.55,0.4,0.25,0.55,0.5,0.58,0.61,0.55,0.33,0.58,0.48,0.4,0.48,0.55,0.83,0.48,0.4,0.48,0.55,0.42,0.29,0.56,0.58,0.29,0.61,0.44,0.5,0.58,0.33,0.55,0.44,0.58,0.5,0.29,0.29,0.48,0.58,0.56,0.48,0.42,0.55,0.83,0.29,0.33,0.58,0.55,0.5,0.44,0.44,0.48,0.42,0.42,0.29,0.58,0.56,0.55,0.42,0.5,0.33,0.48,0.55,0.61,0.4,0.29,0.58,0.56,0.29,0.58,0.56,0.55,0.83,0.5,0.33,0.48,0.4,0.55,0.33" style="fill:rgb(0,0,0);font-family:URWPalladioL-Roma;font-size:9.96px;stroke:none;">to the agricultural sector, and there were signiﬁcant challenges with accessing safe drinking water [</text>
   <text y="408.565" x="504.817,509.798" svgx:width="0.5,0.5" style="fill:rgb(8,117,183);font-family:URWPalladioL-Roma;font-size:9.96px;stroke:none;">17</text>
   <text y="408.565" x="514.78,518.038" svgx:width="0.33,0.25" style="fill:rgb(0,0,0);font-family:URWPalladioL-Roma;font-size:9.96px;stroke:none;">].</text>
   <text y="422.074" x="76.535,83.74,89.288,95.202,99.714,104.582,108.596,114.51,118.6932,121.918,126.999,132.618,138.167,144.294,147.5808,150.706,156.448,161.315,165.827,169.14,174.688,178.519,181.903,187.523,193.071,197.085,202.999,207.7798,210.966,216.047,221.961,228.03660000000002,231.27,239.744,244.825,248.138,253.006,257.02,262.639,268.188,272.201,278.116,282.8968,286.083,292.291,295.249,299.557,304.425,309.506,313.814,318.682,322.8652,326.09,334.565,339.432,343.263,348.0438,351.23,357.144,362.012,364.969,370.619,376.533,379.846,384.713,390.628,395.495,401.5706,404.803,410.453,413.41,419.152,424.019,429.7958,433.033,436.346,442.26,447.0408,450.227,456.334,460.165,465.713,468.671,471.628,475.012,479.879,483.893,488.974,492.287,495.244,500.792,506.56879999999995,509.806,515.354" svgx:width="0.71,0.55,0.58,0.44,0.48,0.4,0.58,0.42,0.55,0.5,0.55,0.55,0.6,0.33,0.55,0.56,0.48,0.44,0.33,0.55,0.4,0.33,0.55,0.55,0.4,0.58,0.48,0.55,0.5,0.58,0.61,0.55,0.83,0.5,0.33,0.48,0.4,0.55,0.55,0.4,0.58,0.48,0.55,0.61,0.29,0.42,0.48,0.5,0.42,0.48,0.42,0.55,0.83,0.48,0.4,0.48,0.55,0.58,0.48,0.29,0.56,0.58,0.33,0.48,0.58,0.48,0.61,0.55,0.56,0.29,0.56,0.48,0.58,0.55,0.33,0.58,0.48,0.55,0.6,0.4,0.55,0.29,0.29,0.33,0.48,0.4,0.5,0.33,0.29,0.55,0.58,0.55,0.55,0.33" style="fill:rgb(0,0,0);font-family:URWPalladioL-Roma;font-size:9.96px;stroke:none;">Concerns about vector-borne and waterborne diseases were heightened given the proliferation of</text>
   <text y="435.583" x="76.256,81.997,86.865,91.377,94.69,100.238,104.252,108.4352,111.711,116.792,122.706,128.7816,132.065,135.022,140.103,144.615,150.1926,153.405,158.953,162.2398,165.487,169.796,174.877,178.261,183.0418,186.278,192.487,196.501,199.458,205.372,211.022,213.98,219.894,225.4716,228.694,237.169,242.25,245.563,250.43,254.41400000000002,257.584,262.096,267.177,273.305,277.613,282.481,288.5566,291.84,297.459,303.0366,306.259,309.572,315.486,320.2668,323.504,329.713,334.58,338.889,342.202,346.135,352.262,356.774,360.087,363.044,368.592,374.36879999999996,377.657,382.738,388.652,394.7276,398.001,403.082,407.593,412.105,418.233,427.206,433.333,436.29,441.371,444.684,449.552,455.62760000000003,458.911,465.12,469.987,475.607,479.621,482.578,486.7612,490.037,495.585,501.36179999999996,504.649,507.962,513.876" svgx:width="0.56,0.48,0.44,0.33,0.55,0.4,0.42,0.55,0.5,0.58,0.61,0.55,0.29,0.5,0.44,0.56,0.55,0.55,0.33,0.55,0.42,0.5,0.33,0.48,0.55,0.61,0.4,0.29,0.58,0.56,0.29,0.58,0.56,0.55,0.83,0.5,0.33,0.48,0.4,0.55,0.44,0.5,0.6,0.42,0.48,0.61,0.55,0.55,0.56,0.55,0.33,0.58,0.48,0.55,0.61,0.48,0.42,0.33,0.4,0.6,0.44,0.33,0.29,0.55,0.58,0.55,0.5,0.58,0.61,0.55,0.5,0.44,0.44,0.6,0.88,0.6,0.29,0.5,0.33,0.48,0.61,0.55,0.61,0.48,0.55,0.4,0.29,0.42,0.55,0.55,0.58,0.55,0.33,0.58,0.48" style="fill:rgb(0,0,0);font-family:URWPalladioL-Roma;font-size:9.96px;stroke:none;">vectors and lack of safe drinking water caused by the destruction and accumulated debris on the</text>
   <text y="449.093" x="76.535,79.434,83.658,86.557,91.539,97.337,103.4126,105.915" svgx:width="0.29,0.42,0.29,0.5,0.58,0.61,0.55,0.33" style="fill:rgb(0,0,0);font-family:URWPalladioL-Roma;font-size:9.96px;stroke:none;">island [</text>
   <text y="449.093" x="109.232,114.214" svgx:width="0.5,0.5" style="fill:rgb(8,117,183);font-family:URWPalladioL-Roma;font-size:9.96px;stroke:none;">18</text>
   <text y="449.093" x="119.195,122.512,125.002,128.091,135.155,138.054,140.953,149.75,154.731,157.979,162.7598,165.242,169.665,175.464,180.445,186.243,191.782,196.5628,199.045,201.944,206.1272,208.659,217.456,222.437,227.976,230.876,236.674,242.2516,244.704,250.502,253.401,258.94,264.738,268.056,270.955,276.753,280.001,284.773,290.571,294.796,297.695,300.942,306.5196,308.972,313.197,316.444,321.884,325.819,334.616,338.7992,341.331,350.128,355.567,359.323,364.1038,366.586,369.485,372.384,377.924,382.696,385.595,391.17260000000005,393.625,396.524,402.3008,404.813,408.06,413.859,418.6398,421.121,424.877,429.649,435.189,438.088,443.527,449.30379999999997,451.816" svgx:width="0.33,0.25,0.55,0.71,0.29,0.29,0.88,0.5,0.33,0.48,0.55,0.44,0.58,0.5,0.58,0.56,0.48,0.55,0.29,0.42,0.55,0.88,0.5,0.56,0.29,0.58,0.56,0.55,0.58,0.29,0.56,0.58,0.33,0.29,0.58,0.33,0.48,0.58,0.42,0.29,0.33,0.56,0.55,0.42,0.33,0.55,0.4,0.88,0.42,0.55,0.88,0.55,0.4,0.48,0.55,0.29,0.29,0.56,0.48,0.29,0.56,0.55,0.29,0.58,0.55,0.33,0.58,0.48,0.55,0.4,0.48,0.56,0.29,0.55,0.58,0.55,0.33" style="fill:rgb(0,0,0);font-family:URWPalladioL-Roma;font-size:9.96px;stroke:none;">]. Climate change is making high-intensity storms more likely in the region [</text>
   <text y="449.093" x="455.134,460.115" svgx:width="0.5,0.5" style="fill:rgb(8,117,183);font-family:URWPalladioL-Roma;font-size:9.96px;stroke:none;">19</text>
   <text y="449.093" x="465.096,468.414" svgx:width="0.33,0.25" style="fill:rgb(0,0,0);font-family:URWPalladioL-Roma;font-size:9.96px;stroke:none;">].</text>
   <text y="462.602" x="97.795,105.352,110.683,119.304,122.145,127.827,130.668,135.003,139.885,142.599,146.7822,149.023,153.905,158.787,163.668,168.55,173.432,178.313,183.195,188.077,193.057,195.253,203.366,208.248,211.431,214.272,219.602,225.285,230.166,233.0544,235.292,240.418,243.601,247.457,252.339,255.522,260.198,265.627,268.468,272.85040000000004,275.097,280.994,283.836,288.717,294.49379999999996,296.684,299.935,305.266,309.25,311.407,319.53,324.207,329.089,331.93,335.113,340.8898,343.089,347.971,352.306,357.734,363.417,368.747,376.89,379.731,384.408,390.373,395.802,400.478,406.5536,408.728,411.911,417.593,422.3738,424.564,430.247,434.923,439.805,442.646,445.829,451.6058,453.796,457.653,460.494,464.633,470.062,474.2452,476.486,481.817,485.10380000000004,487.362,491.697,494.538,497.38,506.001,510.882,514.065" svgx:width="0.77,0.55,0.88,0.29,0.58,0.29,0.44,0.5,0.28,0.42,0.55,0.5,0.5,0.5,0.5,0.5,0.5,0.5,0.5,0.5,0.55,0.83,0.5,0.33,0.29,0.55,0.58,0.5,0.29,0.55,0.52,0.33,0.4,0.5,0.33,0.48,0.56,0.29,0.44,0.55,0.6,0.29,0.5,0.58,0.55,0.33,0.55,0.4,0.55,0.83,0.48,0.5,0.29,0.33,0.58,0.55,0.5,0.44,0.56,0.58,0.55,0.83,0.29,0.48,0.61,0.56,0.48,0.61,0.55,0.33,0.58,0.48,0.55,0.58,0.48,0.5,0.29,0.33,0.58,0.55,0.4,0.29,0.42,0.56,0.42,0.55,0.55,0.33,0.55,0.44,0.29,0.29,0.88,0.5,0.33,0.48" style="fill:rgb(0,0,0);font-family:URWPalladioL-Roma;font-size:9.96px;stroke:none;">Dominica’s 2010–2019 National Strategic Plan for Health acknowledged the health risks of climate</text>
   <text y="476.112" x="76.535,80.87,86.552,91.434,97.116,102.545,107.3258,109.154" svgx:width="0.44,0.58,0.5,0.58,0.56,0.48,0.55,0.33" style="fill:rgb(0,0,0);font-family:URWPalladioL-Roma;font-size:9.96px;stroke:none;">change [</text>
   <text y="476.112" x="112.406,117.387" svgx:width="0.5,0.5" style="fill:rgb(8,117,183);font-family:URWPalladioL-Roma;font-size:9.96px;stroke:none;">20</text>
   <text y="476.112" x="122.368,125.619,128.109,130.101,134.982,140.665,148.563,151.746,157.428,162.2088,164.038,168.373,173.704,179.591,185.273,188.456,192.313,197.89059999999998,199.674,205.542,209.223,214.553,219.435,223.77,226.953,229.794,235.31,239.987,242.828,248.4056,250.19,256.155,260.832,265.167,268.008,273.973,278.65,286.548,289.731,295.209,296.995,302.882,308.565,314.53,319.207,323.063,326.246,331.128,336.556,341.3368,343.166,348.146,349.981,354.316,357.157,359.998,368.619,373.501,376.684,381.4648,383.293,387.628,393.311,398.192,403.875,409.303,414.0838,415.913,420.794,426.477,434.375,440.058,444.734,449.616,452.457,455.64,461.41679999999997,463.255,468.772,474.659,477.5,483.182,487.859,491.715,496.597,501.996,504.837,507.679,510.52,513.703" svgx:width="0.33,0.25,0.55,0.5,0.58,0.61,0.33,0.58,0.48,0.55,0.44,0.55,0.6,0.58,0.33,0.4,0.56,0.55,0.6,0.4,0.55,0.5,0.44,0.33,0.29,0.56,0.48,0.29,0.56,0.55,0.61,0.48,0.44,0.29,0.61,0.48,0.61,0.33,0.55,0.55,0.6,0.58,0.61,0.48,0.4,0.33,0.5,0.56,0.48,0.55,0.5,0.55,0.44,0.29,0.29,0.88,0.5,0.33,0.48,0.55,0.44,0.58,0.5,0.58,0.56,0.48,0.55,0.5,0.58,0.61,0.58,0.48,0.5,0.29,0.33,0.58,0.55,0.56,0.6,0.29,0.58,0.48,0.4,0.5,0.55,0.29,0.29,0.29,0.33,0.56" style="fill:rgb(0,0,0);font-family:URWPalladioL-Roma;font-size:9.96px;stroke:none;">], andthe country proactively decidedto undertake a climate change andhealth vulnerability</text>
   <text y="489.621" x="76.535,81.486,87.25,93.3256,95.796,100.747,106.798,111.749,117.701,120.929,125.881,129.109,131.991,137.398,143.1748,145.667,150.618,154.817,159.016,163.759,167.958,172.157,180.901,185.644,191.408,194.6948,197.132,200.429,207.579,215.283,222.988,226.286,228.776,231.267,239.526,245.289,248.171,252.568,258.3448,260.827,269.086,274.037,278.2202,280.741,285.138,290.545,299.289,305.241,308.122,312.866,316.094,320.838,326.91360000000003,329.384,332.266,338.0428,340.534,345.486,350.437,355.389,360.369,362.836" svgx:width="0.5,0.58,0.61,0.55,0.5,0.61,0.5,0.6,0.33,0.5,0.33,0.29,0.55,0.58,0.55,0.5,0.42,0.42,0.48,0.42,0.42,0.88,0.48,0.58,0.33,0.55,0.33,0.72,0.78,0.78,0.33,0.25,0.55,0.83,0.58,0.29,0.44,0.58,0.55,0.83,0.5,0.42,0.55,0.44,0.55,0.88,0.6,0.29,0.48,0.33,0.48,0.61,0.55,0.29,0.58,0.55,0.5,0.5,0.5,0.5,0.55,0.33" style="fill:rgb(0,0,0);font-family:URWPalladioL-Roma;font-size:9.96px;stroke:none;">and adaptation assessment (V&amp;A), which was completed in 2016 [</text>
   <text y="489.621" x="366.133,371.114" svgx:width="0.5,0.5" style="fill:rgb(8,117,183);font-family:URWPalladioL-Roma;font-size:9.96px;stroke:none;">21</text>
   <text y="489.621" x="376.096,379.394,381.884,384.989,392.139,399.843,407.547,411.7302,414.242,420.193,423.927,429.334,434.929,437.81,443.861,448.6418,451.1,455.843,461.439,464.32,470.371,475.114,480.878,485.275,490.018,493.316,498.792,503.743,507.942,512.686" svgx:width="0.33,0.25,0.55,0.72,0.78,0.78,0.42,0.55,0.6,0.4,0.55,0.56,0.29,0.61,0.48,0.55,0.48,0.56,0.29,0.61,0.48,0.58,0.44,0.48,0.33,0.55,0.5,0.42,0.48,0.61" style="fill:rgb(0,0,0);font-family:URWPalladioL-Roma;font-size:9.96px;stroke:none;">]. V&amp;As provide evidence-based</text>
   <text y="503.13" x="76.535,79.399,85.128,88.406,93.78,97.668,106.359,111.281,114.49,117.354,122.728,128.5048,130.957,135.879,141.322,146.696,152.632,155.9188,158.331,162.701,168.636,172.524,176.235,180.95,186.679,189.9658,192.388,197.309,203.038,209.11360000000002,211.552,214.83,220.765,223.974,229.909,233.61,238.3908,240.825,244.713,247.578,251.751,257.224,261.4072,263.897,267.106,272.584,274.981,280.709,285.424,290.346,293.21,296.419,302.148,304.63800000000003,307.108,312.67,318.605,321.469,327.198,331.913,335.801,340.722,346.166,349.03,353.8108,356.235,362.151,367.525,373.441,379.376,382.24,387.162,390.371,393.235,398.609,404.338,408.512,411.002,413.472,418.394,424.123,430.1986,432.637,437.352,440.452,443.73,448.445,452.815,456.024,458.888,464.449,469.2298,471.664,476.586,482.6,487.522,493.437,496.646,501.568,504.776,507.641,513.015" svgx:width="0.29,0.58,0.33,0.55,0.4,0.88,0.5,0.33,0.29,0.55,0.58,0.55,0.5,0.55,0.55,0.6,0.33,0.55,0.44,0.6,0.4,0.4,0.48,0.58,0.33,0.55,0.5,0.58,0.61,0.55,0.33,0.6,0.33,0.6,0.4,0.48,0.55,0.4,0.29,0.42,0.56,0.42,0.55,0.33,0.55,0.55,0.58,0.48,0.5,0.29,0.33,0.58,0.25,0.55,0.56,0.6,0.29,0.58,0.48,0.4,0.5,0.55,0.29,0.48,0.55,0.6,0.55,0.6,0.6,0.29,0.5,0.33,0.29,0.55,0.58,0.42,0.25,0.55,0.5,0.58,0.61,0.55,0.48,0.33,0.33,0.48,0.44,0.33,0.29,0.56,0.48,0.55,0.5,0.61,0.5,0.6,0.33,0.5,0.33,0.29,0.55,0.58" style="fill:rgb(0,0,0);font-family:URWPalladioL-Roma;font-size:9.96px;stroke:none;">information about current and future risks to health, vulnerable populations, and effective adaptation</text>
   <text y="516.64" x="76.535,81.866,87.734,90.916,93.758,99.088,104.771,108.91,111.39999999999999,114.407,120.392,126.074,130.751,136.3286,138.581,142.721,148.608,154.476,160.344,165.674,169.531,172.8178,175.116,179.792,182.858,186.119,191.45,195.306,198.489,202.6722,205.021,210.42,215.99759999999998,218.25,224.118,230.005,235.404,238.245,241.086,245.4684,247.823,253.505,258.182,263.064,265.905,269.088,274.8648,277.172,282.503,285.568,291.485,295.82,298.661,303.543,306.384,310.5672,312.915,316.098,321.576,323.831,329.796,334.473,339.989,344.666,347.507,352.838,358.814,361.107,365.784,368.85,372.111,376.787,381.122,384.305,387.146,392.662,397.4428,399.731,408.352,413.029,417.91,422.05,427.937,431.618,436.295,440.4782,442.836,447.718,453.4,459.4756,461.767,467.166,473.054,475.895,478.736,484.8116,487.093,492.776,497.452,502.129,508.094,512.771" svgx:width="0.55,0.6,0.33,0.29,0.55,0.58,0.42,0.25,0.55,0.61,0.58,0.48,0.56,0.55,0.42,0.6,0.6,0.6,0.55,0.4,0.33,0.55,0.48,0.33,0.33,0.55,0.4,0.33,0.42,0.55,0.55,0.56,0.55,0.6,0.6,0.55,0.29,0.29,0.44,0.55,0.58,0.48,0.5,0.29,0.33,0.58,0.55,0.55,0.33,0.61,0.44,0.29,0.5,0.29,0.42,0.55,0.33,0.55,0.55,0.61,0.48,0.56,0.48,0.29,0.55,0.6,0.55,0.48,0.33,0.33,0.48,0.44,0.33,0.29,0.56,0.48,0.55,0.88,0.48,0.5,0.42,0.6,0.4,0.48,0.42,0.55,0.5,0.58,0.61,0.55,0.55,0.6,0.29,0.29,0.61,0.55,0.58,0.48,0.48,0.61,0.48,0.61" style="fill:rgb(0,0,0);font-family:URWPalladioL-Roma;font-size:9.96px;stroke:none;">options. They support efforts by public health ofﬁcials to develop effective measures and build needed</text>
   <text y="530.149" x="76.236,82.11,86.996,90.857,94.043,99.731,104.412,108.273,112.417,118.105,120.949,126.823,131.0062,133.449,136.635,142.113,144.463,150.337,154.022,159.358,162.544,167.225,171.565,174.8518,177.233,182.921,187.603,192.49,195.334,198.52,204.29680000000002,206.7,209.954,213.629,218.965,230.087,234.427,237.271,240.115,248.745,253.631,256.817,261.5978,263.981,268.321,274.009,278.895,284.583,290.017,294.7978,297.191,300.035,308.665,314.539,319.425,323.765,326.951,331.1342,333.577" svgx:width="0.6,0.5,0.4,0.33,0.58,0.48,0.4,0.42,0.58,0.29,0.6,0.42,0.55,0.33,0.55,0.55,0.6,0.4,0.55,0.33,0.48,0.44,0.33,0.55,0.58,0.48,0.5,0.29,0.33,0.58,0.55,0.33,0.4,0.55,0.88,0.44,0.29,0.29,0.88,0.5,0.33,0.48,0.55,0.44,0.58,0.5,0.58,0.56,0.48,0.55,0.29,0.88,0.6,0.5,0.44,0.33,0.42,0.55,0.33" style="fill:rgb(0,0,0);font-family:URWPalladioL-Roma;font-size:9.96px;stroke:none;">partnerships to protect health fromclimate change impacts [</text>
   <text y="530.149" x="336.834,341.815" svgx:width="0.5,0.5" style="fill:rgb(8,117,183);font-family:URWPalladioL-Roma;font-size:9.96px;stroke:none;">22</text>
   <text y="530.149" x="346.796" svgx:width="0.25" style="fill:rgb(0,0,0);font-family:URWPalladioL-Roma;font-size:9.96px;stroke:none;">,</text>
   <text y="530.149" x="349.24,354.221" svgx:width="0.5,0.5" style="fill:rgb(8,117,183);font-family:URWPalladioL-Roma;font-size:9.96px;stroke:none;">23</text>
   <text y="530.149" x="359.202,362.457,364.947,367.988,373.979,379.667,384.4478,386.831,393.888,401.491,411.587,419.738,424.625,428.8082,431.251,434.095,438.776,444.8516,447.24,452.645,458.2226,460.561,463.747,469.435,474.2158,476.609,484.173,489.51,498.139,500.983,506.672,509.516,513.855" svgx:width="0.33,0.25,0.55,0.61,0.58,0.48,0.55,0.72,0.78,0.78,0.83,0.5,0.42,0.55,0.29,0.48,0.61,0.55,0.55,0.56,0.55,0.33,0.58,0.48,0.55,0.77,0.55,0.88,0.29,0.58,0.29,0.44,0.5" style="fill:rgb(0,0,0);font-family:URWPalladioL-Roma;font-size:9.96px;stroke:none;">]. The V&amp;Awas led by the Dominica</text>
   <text y="543.658" x="76.535,85.771,88.612,94.295,97.136,101.275,104.458,108.315,113.8926,115.813,121.144,124.4308,126.455,134.578,139.255,144.136,146.978,150.16,155.9368,157.913,162.794,168.476,174.5516,176.512,182.477,188.159,193.676,196.517,200.188,205.519,211.201,219.822,224.499,230.181,233.4678,235.433,240.315,245.997,252.07260000000002,254.033,257.704,262.38,266.715,271.392,274.233,279.749,284.426,290.5016,292.461,296.601,302.488,308.356,314.224,319.554,323.411,326.69780000000003,328.664,331.915,335.586,340.917,351.607,354.79,360.473,365.2538,367.219,373.116,377.998,383.77479999999997,385.74,393.336,401.957,406.634,410.49,413.331,417.666,422.548,428.3248,430.3,438.423,443.1,447.982,450.823,454.005,459.7818,461.758,469.432,473.103,478.531,483.413,489.095,491.936,496.818,501.699,504.882,507.723,513.054" svgx:width="0.95,0.29,0.58,0.29,0.42,0.33,0.4,0.56,0.55,0.55,0.33,0.55,0.83,0.48,0.5,0.29,0.33,0.58,0.55,0.5,0.58,0.61,0.55,0.61,0.58,0.56,0.29,0.4,0.55,0.58,0.88,0.48,0.58,0.33,0.55,0.5,0.58,0.61,0.55,0.4,0.48,0.44,0.48,0.29,0.56,0.48,0.61,0.55,0.42,0.6,0.6,0.6,0.55,0.4,0.33,0.55,0.33,0.4,0.55,0.88,0.33,0.58,0.48,0.55,0.6,0.5,0.58,0.55,0.78,0.88,0.48,0.4,0.29,0.44,0.5,0.58,0.55,0.83,0.48,0.5,0.29,0.33,0.58,0.55,0.79,0.4,0.56,0.5,0.58,0.29,0.5,0.5,0.33,0.29,0.55,0.58" style="fill:rgb(0,0,0);font-family:URWPalladioL-Roma;font-size:9.96px;stroke:none;">Ministry of Health and Environment and received support fromthe Pan American Health Organization</text>
   <text y="557.168" x="76.207,79.591,84.814,92.72,101.175,109.162,112.546,115.036,118.155,127.402,132.951,136.965,139.922,145.9976,149.2,157.654,162.522,167.603,170.56,173.873,179.6498,182.866,190.853,194.684,200.334,205.415,211.329,214.286,219.367,224.448,227.761,230.718,236.266,242.0428,245.26,248.643,258.805,267.26,275.247,278.631,281.121,284.24,293.488,299.036,303.05,306.007,312.0826,315.285,324.898,329.766,333.078,337.946,343.494,347.335,352.884,355.841,361.389,367.039,369.996,374.508,379.589,382.4774,385.615,393.602,397.443,403.093,408.174,414.089,417.046,422.127,427.208,430.52,433.477,439.026,444.8028,448.009,451.393,461.555,471.168,479.155,482.539,485.029,488.148,496.603,501.47,506.551,509.508,512.821" svgx:width="0.33,0.6,0.78,0.83,0.79,0.33,0.25,0.55,1.0,0.55,0.4,0.29,0.61,0.55,0.83,0.48,0.5,0.29,0.33,0.58,0.55,0.79,0.4,0.56,0.5,0.58,0.29,0.5,0.5,0.33,0.29,0.55,0.58,0.55,0.33,1.0,0.83,0.79,0.33,0.25,0.55,1.0,0.55,0.4,0.29,0.61,0.55,0.95,0.48,0.33,0.48,0.55,0.4,0.55,0.29,0.55,0.56,0.29,0.44,0.5,0.29,0.55,0.79,0.4,0.56,0.5,0.58,0.29,0.5,0.5,0.33,0.29,0.55,0.58,0.55,0.33,1.0,0.95,0.79,0.33,0.25,0.55,0.83,0.48,0.5,0.29,0.33,0.58" style="fill:rgb(0,0,0);font-family:URWPalladioL-Roma;font-size:9.96px;stroke:none;">(PAHO), World Health Organization (WHO), World Meteorological Organization (WMO), Health</text>
   <text y="570.677" x="76.535,83.598,88.58,94.378,99.359,105.446,110.426,112.908,116.226,124.515,131.578,134.896,137.386,139.867,144.849,150.647,156.7226,159.215,162.462,168.261,173.0418,175.513,182.577,187.558,191.493,194.393,199.902,205.411,210.183,215.165,220.9418,223.443,226.801,232.599,236.823,240.071,242.97,246.218,252.225,255.473,260.2538,262.726,266.043,271.483,275.467,277.909,287.334,292.106,295.353,300.126,305.565,309.321,314.761,317.66,323.099,328.639,334.2166,336.658,341.64,347.438,353.5136,356.006,364.295,369.834,375.921,379.677,385.117,388.016,393.455,398.994,404.57160000000005,407.014,410.332,417.395,420.753,430.177,438.466,441.75280000000004,444.264" svgx:width="0.71,0.5,0.58,0.5,0.61,0.5,0.55,0.33,0.83,0.71,0.33,0.25,0.55,0.5,0.58,0.61,0.55,0.33,0.58,0.48,0.55,0.71,0.5,0.4,0.29,0.55,0.55,0.48,0.5,0.58,0.55,0.34,0.58,0.42,0.33,0.29,0.33,0.6,0.33,0.48,0.55,0.33,0.55,0.4,0.55,0.95,0.48,0.33,0.48,0.55,0.4,0.55,0.29,0.55,0.56,0.56,0.55,0.5,0.58,0.61,0.55,0.83,0.56,0.61,0.4,0.55,0.29,0.55,0.56,0.56,0.55,0.33,0.71,0.34,0.95,0.83,0.33,0.55,0.33" style="fill:rgb(0,0,0);font-family:URWPalladioL-Roma;font-size:9.96px;stroke:none;">Canada (HC), and the Caribbean Institute for Meteorology and Hydrology (CIMH) [</text>
   <text y="570.677" x="447.582,452.563" svgx:width="0.5,0.5" style="fill:rgb(8,117,183);font-family:URWPalladioL-Roma;font-size:9.96px;stroke:none;">21</text>
   <text y="570.677" x="457.545,460.862,463.35200000000003,466.441,473.505,478.944,484.742,490.83,496.837,501.26,504.508,507.407,513.206" svgx:width="0.33,0.25,0.55,0.71,0.55,0.58,0.61,0.6,0.44,0.33,0.29,0.58,0.56" style="fill:rgb(0,0,0);font-family:URWPalladioL-Roma;font-size:9.96px;stroke:none;">]. Conducting</text>
   <text y="584.187" x="76.535,81.515,84.056,91.336,99.18,106.9488,109.514,112.448,116.63119999999999,119.203,124.183,126.724,132.33,137.159,142.73659999999998,145.245,150.286,154.762,158.049,160.983,166.488,172.2648,174.846,183.255,186.188,189.475,195.343,198.277,204.0538,206.625,209.912,215.78,220.5608,223.089,228.261,236.105,244.493,252.418,258.528,268.61,276.998,284.8664,287.403,292.696,295.983,299.965,305.007,308.293,313.123,318.728,324.3056,326.824,331.865,337.733,343.8086,346.374,352.463,355.397,360.438,366.21479999999997,368.786,374.291,377.5778,380.139,387.983,392.459,395.746,398.68,404.174,409.95079999999996,412.533,418.037,423.81379999999996,426.385,433.534,436.468,439.401,448.304,453.345,456.632,461.4128,463.941,471.09,476.957,481.999,487.866,493.472,498.2528,500.792" svgx:width="0.5,0.55,0.72,0.78,0.78,0.55,0.29,0.42,0.55,0.5,0.55,0.56,0.48,0.56,0.55,0.5,0.44,0.33,0.29,0.55,0.58,0.55,0.83,0.29,0.33,0.58,0.29,0.58,0.55,0.33,0.58,0.48,0.55,0.6,0.78,0.83,0.79,0.61,1.0,0.83,0.79,0.55,0.52,0.33,0.4,0.5,0.33,0.48,0.56,0.56,0.55,0.5,0.58,0.61,0.55,0.6,0.29,0.5,0.58,0.55,0.55,0.33,0.55,0.78,0.44,0.33,0.29,0.55,0.58,0.55,0.55,0.58,0.55,0.71,0.29,0.29,0.88,0.5,0.33,0.48,0.55,0.71,0.58,0.5,0.58,0.56,0.48,0.55,0.33" style="fill:rgb(0,0,0);font-family:URWPalladioL-Roma;font-size:9.96px;stroke:none;">a V&amp;A is a key action within the PAHO/WHO Strategy and Plan of Action on Climate Change [</text>
   <text y="584.187" x="504.145,509.126" svgx:width="0.5,0.5" style="fill:rgb(8,117,183);font-family:URWPalladioL-Roma;font-size:9.96px;stroke:none;">24</text>
   <text y="584.187" x="514.108,517.465" svgx:width="0.33,0.25" style="fill:rgb(0,0,0);font-family:URWPalladioL-Roma;font-size:9.96px;stroke:none;">],</text>
   <text y="597.696" x="76.535,81.616,87.53,93.6056,96.452,104.318,109.866,118.839,121.796,127.71,130.667,135.179,140.159,142.983,151.458,156.539,160.7222,163.561,166.874,172.788,177.5688,180.369,186.517,190.531,194.839,198.1258,200.875,205.387,210.936,217.063,222.977,226.29,230.304,235.8816,238.667,241.98,247.458,250.242,254.754,260.302,266.216,272.425,278.553,283.064,286.35080000000005,289.101,294.081,296.895,302.809,307.89,311.203,314.16,319.708,325.622,330.703,333.59139999999996,336.374,342.115,348.243,351.2,357.114,361.981,365.995,371.076,376.696,379.653,382.61,385.567,388.88,394.4576,397.253,402.334,408.248,414.3236,417.17,422.251,428.46,433.541,439.648,442.961,448.042,451.355,454.312,459.86,465.6368,468.488,473.569,477.877,482.186,487.054,491.362,495.671,504.644,509.511,515.425" svgx:width="0.5,0.58,0.61,0.55,0.77,0.55,0.88,0.29,0.58,0.29,0.44,0.5,0.55,0.83,0.5,0.42,0.55,0.33,0.58,0.48,0.55,0.61,0.4,0.42,0.33,0.55,0.44,0.55,0.6,0.58,0.33,0.4,0.56,0.55,0.33,0.55,0.55,0.44,0.55,0.58,0.61,0.6,0.44,0.33,0.55,0.5,0.55,0.58,0.5,0.33,0.29,0.55,0.58,0.5,0.29,0.55,0.56,0.6,0.29,0.58,0.48,0.4,0.5,0.55,0.29,0.29,0.29,0.33,0.56,0.55,0.5,0.58,0.61,0.55,0.5,0.61,0.5,0.6,0.33,0.5,0.33,0.29,0.55,0.58,0.55,0.5,0.42,0.42,0.48,0.42,0.42,0.88,0.48,0.58,0.33" style="fill:rgb(0,0,0);font-family:URWPalladioL-Roma;font-size:9.96px;stroke:none;">and Dominica was the ﬁrst country to conduct a national vulnerability and adaptation assessment</text>
   <text y="611.205" x="76.117,84.426,87.325,90.573,96.371,99.27,105.04679999999999,107.559,110.807,116.605,121.3858,123.868,130.931,135.913,139.848,142.747,148.256,153.766,158.538,163.519,169.2958,171.808,175.564,180.336,185.875,188.774,194.214,200.012,202.502,204.993,212.595,216.351,221.123,226.921,231.902,237.989,242.969,245.461,249.885,255.324,264.121,270.109,273.008,277.78,281.028,285.8,291.8756,294.378,299.359,305.13579999999996,307.648,312.629,316.853,321.077,325.849,330.074,334.298,343.095,347.867,353.665,356.95180000000005,359.404,363.628,369.426,374.865,378.801,382.049,384.948,390.5256,392.978,397.959,401.276,404.524,409.296,413.28,415.722" svgx:width="0.83,0.29,0.33,0.58,0.29,0.58,0.55,0.33,0.58,0.48,0.55,0.71,0.5,0.4,0.29,0.55,0.55,0.48,0.5,0.58,0.55,0.4,0.48,0.56,0.29,0.55,0.58,0.25,0.55,0.76,0.4,0.48,0.58,0.5,0.61,0.5,0.55,0.44,0.55,0.88,0.6,0.29,0.48,0.33,0.48,0.61,0.55,0.5,0.58,0.55,0.5,0.42,0.42,0.48,0.42,0.42,0.88,0.48,0.58,0.33,0.55,0.42,0.58,0.55,0.4,0.33,0.29,0.56,0.55,0.5,0.33,0.33,0.48,0.4,0.55,0.33" style="fill:rgb(0,0,0);font-family:URWPalladioL-Roma;font-size:9.96px;stroke:none;">within the Caribbean region; Grenada completed an assessment shortly after [</text>
   <text y="611.205" x="419.04,424.021" svgx:width="0.5,0.5" style="fill:rgb(8,117,183);font-family:URWPalladioL-Roma;font-size:9.96px;stroke:none;">25</text>
   <text y="611.205" x="429.002,432.32" svgx:width="0.33,0.25" style="fill:rgb(0,0,0);font-family:URWPalladioL-Roma;font-size:9.96px;stroke:none;">].</text>
   <text y="624.715" x="97.795,104.024,109.938,112.896,117.0792,119.765,125.872,130.953,137.06,141.928,145.912,148.503,154.61,158.451,163.999,169.741,172.698,178.907,183.774,187.9572,190.644,195.725,201.5018,204.2,209.748,215.49,220.357,224.371,230.112,233.07,237.937,246.2038,248.973,254.521,257.8078,260.466,263.779,269.693,274.4738,277.131,284.468,292.374,300.1428,302.841,307.353,312.901,318.815,325.024,331.152,335.664,338.976,343.844,349.9196,352.614,355.571,361.3478,364.046,371.911,377.459,386.432,389.389,395.303,398.261,402.772,407.853,410.343,413.696,417.121,420.4078,423.005,429.112,432.943,438.491,444.233,447.19,453.399,458.266,462.4492,465.136,468.093,474.007,477.391,482.939,486.953,495.926,501.007,504.32,507.277,512.825" svgx:width="0.61,0.58,0.29,0.42,0.55,0.6,0.5,0.6,0.48,0.4,0.55,0.6,0.4,0.55,0.56,0.29,0.61,0.48,0.42,0.55,0.5,0.58,0.55,0.55,0.56,0.48,0.4,0.56,0.29,0.48,0.83,0.55,0.55,0.33,0.55,0.33,0.58,0.48,0.55,0.72,0.78,0.78,0.55,0.44,0.55,0.58,0.61,0.6,0.44,0.33,0.48,0.61,0.55,0.29,0.58,0.55,0.77,0.55,0.88,0.29,0.58,0.29,0.44,0.5,0.25,0.55,0.34,0.33,0.55,0.6,0.4,0.55,0.56,0.29,0.61,0.48,0.42,0.55,0.29,0.58,0.33,0.55,0.4,0.88,0.5,0.33,0.29,0.55,0.58" style="fill:rgb(0,0,0);font-family:URWPalladioL-Roma;font-size:9.96px;stroke:none;">This paper provides an overview of the V&amp;A conducted in Dominica. It provides information</text>
   <text y="638.224" x="76.535,82.083,87.85979999999999,91.503,94.816,100.73,105.5108,109.114,114.195,118.503,122.812,127.68,131.988,136.297,145.27,150.137,156.051,159.3378,162.87,167.951,174.058,180.166,183.997,189.545,194.626,199.138,204.9148,208.568,213.649,219.563,225.6386,229.278,232.591,238.505,243.2858,246.878,251.187,254.5,259.367,265.474,269.6572,273.299,276.683,282.231,285.188,288.145,293.694,302.169,307.036,313.1116,316.751,320.064,325.54200000000003,329.118,332.075,337.989,343.731,348.598,352.907,356.22,359.177,364.827,369.908,373.22,378.0008,381.594,386.106,389.063,392.02,400.993,406.074,409.386,414.254,417.638,421.479,426.347,429.304,434.385,437.697,442.565,448.6406,452.28,456.294,459.251,463.559,469.209,473.3922,477.024,480.336,485.814,489.401,495.315,500.183,505.263,508.221,511.533,517.448" svgx:width="0.55,0.58,0.55,0.33,0.58,0.48,0.55,0.5,0.42,0.42,0.48,0.42,0.42,0.88,0.48,0.58,0.33,0.55,0.5,0.6,0.6,0.4,0.55,0.5,0.44,0.58,0.55,0.5,0.58,0.61,0.55,0.33,0.58,0.48,0.55,0.42,0.33,0.48,0.6,0.42,0.55,0.33,0.55,0.29,0.29,0.55,0.83,0.48,0.61,0.55,0.33,0.55,0.55,0.29,0.58,0.56,0.48,0.42,0.33,0.29,0.56,0.5,0.33,0.48,0.55,0.44,0.29,0.29,0.88,0.5,0.33,0.48,0.33,0.4,0.48,0.29,0.5,0.33,0.48,0.61,0.55,0.4,0.29,0.42,0.56,0.42,0.55,0.33,0.55,0.55,0.58,0.48,0.5,0.29,0.33,0.58,0.25" style="fill:rgb(0,0,0);font-family:URWPalladioL-Roma;font-size:9.96px;stroke:none;">on the assessment approach and the steps followed to investigate climate-related risks to health,</text>
   <text y="651.734" x="76.236,82.247,87.709,93.72,99.752,102.662,107.664,110.924,113.835,119.297,125.118,129.3012,131.84,140.182,143.092,146.353,152.12980000000002,154.665,160.487,163.397,168.959,174.78,179.571,183.555,186.003,191.654,197.686,200.596,206.418,211.209,215.16,220.161,225.693,228.603,231.514,234.425,237.686,243.2636,245.727,248.988,254.466,256.93,261.171,267.203,271.644,277.4208,279.956,283.907,286.817,291.059,296.62,300.861,303.351,305.842,310.843,316.665,322.74060000000003,325.257,330.718,336.73,342.741,348.203,352.153,355.414,361.446,367.267,370.178,373.439,376.349,381.141,385.3242,387.872,392.873,398.695,404.7706,407.287,411.728,417.549,422.551,425.461,428.372,433.163,438.985,444.546,449.337,453.5202,456.059,464.401,467.312,470.572,476.3488,478.884,484.896,487.807,492.808,498.629,504.451,507.361,513.183" svgx:width="0.6,0.55,0.6,0.6,0.29,0.5,0.33,0.29,0.55,0.58,0.42,0.55,0.83,0.29,0.33,0.58,0.55,0.58,0.29,0.56,0.58,0.48,0.4,0.55,0.56,0.6,0.29,0.58,0.48,0.4,0.5,0.55,0.29,0.29,0.29,0.33,0.56,0.55,0.33,0.55,0.55,0.42,0.6,0.44,0.58,0.55,0.4,0.29,0.42,0.56,0.42,0.25,0.55,0.5,0.58,0.61,0.55,0.55,0.6,0.6,0.55,0.4,0.33,0.6,0.58,0.29,0.33,0.29,0.48,0.42,0.55,0.5,0.58,0.61,0.55,0.44,0.58,0.5,0.29,0.29,0.48,0.58,0.56,0.48,0.42,0.55,0.83,0.29,0.33,0.58,0.55,0.6,0.29,0.5,0.58,0.58,0.29,0.58,0.56" style="fill:rgb(0,0,0);font-family:URWPalladioL-Roma;font-size:9.96px;stroke:none;">populations with higher vulnerability to such risks, and opportunities and challenges with planning</text>
   <text y="665.243" x="76.535,79.882,85.371,89.35499999999999,91.835,95.182,101.243,104.521,110.582,114.372,119.1528,121.67,124.595,133.471,139.512,144.539,149.002,152.279,156.541,159.031,162.14,169.438,174.253,179.83059999999998,182.335,188.417,194.267,200.409,203.334,209.185,214.774,218.9572,221.519,224.866,228.666,234.155,245.514,248.791,254.641,259.4218,261.949,266.975,271.237,275.499,280.314,284.577,288.839,297.715,302.53,308.38,311.6668,314.14,319.166,322.956,327.7368,330.264,336.306,340.095,344.91,349.172,353.987,359.838,363.115,367.93,374.0056,376.555,381.581,384.506,389.995,395.845,401.42260000000005,403.927,412.311,415.236,418.513,424.28979999999996,426.846,429.771,434.586,438.849,443.111,448.599,454.45,458.6332,461.205,464.13,468.945,473.971,477.942,483.792,488.607,494.68260000000004,497.232,500.579,504.379,509.868" svgx:width="0.33,0.55,0.4,0.55,0.33,0.6,0.33,0.6,0.4,0.48,0.55,0.29,0.88,0.6,0.5,0.44,0.33,0.42,0.25,0.55,0.73,0.48,0.56,0.55,0.61,0.58,0.61,0.29,0.58,0.56,0.42,0.55,0.33,0.4,0.55,0.88,0.33,0.58,0.48,0.55,0.5,0.42,0.42,0.48,0.42,0.42,0.88,0.48,0.58,0.33,0.55,0.5,0.4,0.48,0.55,0.6,0.4,0.48,0.42,0.48,0.58,0.33,0.48,0.61,0.55,0.5,0.29,0.55,0.58,0.56,0.55,0.83,0.29,0.33,0.58,0.55,0.29,0.48,0.42,0.42,0.55,0.58,0.42,0.55,0.29,0.48,0.5,0.4,0.58,0.48,0.61,0.55,0.33,0.4,0.55,0.88" style="fill:rgb(0,0,0);font-family:URWPalladioL-Roma;font-size:9.96px;stroke:none;">for future impacts. Key ﬁndings fromthe assessment are presented along with lessons learned from</text>
   <text y="678.752" x="76.535,79.783,85.581,90.3618,92.844,97.068,100.316,106.323,112.41,117.9876,120.44,123.688,129.486,134.468,137.7548,140.206,149.003,153.984,159.5616,162.014,167.523,172.3038,174.786,180.794,185.018,189.79,193.107,199.115,202.0034,204.505,207.752,213.23000000000002,215.683,221.122,224.37,230.168,234.94,238.924,241.366,246.597,249.954,257.665,262.8442,265.386,271.393,277.192,283.279,288.051,291.986,295.234,300.215,305.754,308.654,314.452,320.0296,322.482,329.675,337.426,345.176,349.401" svgx:width="0.33,0.58,0.48,0.55,0.42,0.33,0.6,0.61,0.56,0.55,0.33,0.58,0.5,0.33,0.55,0.88,0.5,0.56,0.55,0.55,0.48,0.55,0.6,0.42,0.48,0.33,0.6,0.29,0.55,0.33,0.55,0.55,0.55,0.33,0.58,0.48,0.4,0.55,0.52,0.34,0.77,0.52,0.55,0.6,0.58,0.61,0.48,0.4,0.33,0.5,0.56,0.29,0.58,0.56,0.55,0.72,0.78,0.78,0.42,0.25" style="fill:rgb(0,0,0);font-family:URWPalladioL-Roma;font-size:9.96px;stroke:none;">the study that may be useful to other SIDS undertaking V&amp;As.</text>
   <text y="701.965" x="76.535,81.516,84.006,87.095,97.058,102.039,105.357,110.338,114.214,117.531,122.512,125.83,130.2124,132.744,137.725,143.812,149.88760000000002,152.39,162.353,167.334,170.652,176.739,182.278,188.365" svgx:width="0.5,0.25,0.55,1.0,0.5,0.33,0.5,0.39,0.33,0.5,0.33,0.44,0.55,0.5,0.61,0.61,0.55,1.0,0.5,0.33,0.61,0.56,0.61,0.44" style="fill:rgb(0,0,0);font-family:URWPalladioL-Bold;font-size:9.96px;stroke:none;">2. Materials and Methods</text>
   <text y="721.452" x="97.795,103.859,109.617,114.3978,116.849,124.506,129.907,138.643,141.521,147.279,150.158,154.55,159.53,161.99,169.132,176.829,184.5978,187.019,190.313,195.715,198.593,201.472,206.874,215.124,219.863,225.9386,228.401,231.626,237.383,242.1638,244.615,250.115,254.854,260.612,265.35,269.258,274.204,277.0924,279.576,288.312,293.05,296.275,302.033,307.435,313.479,318.881,321.759,327.161,332.661,335.54,339.933,344.879,347.7674,350.251,355.197,361.143,367.089,370.818,376.22,381.166,385.559,391.3358,393.809,397.103,402.505,406.489,408.906,414.871,420.629,426.673,431.412,435.32,438.545,443.491,448.992,451.87,457.628,463.2056,465.621,470.568,474.762,478.957,483.696,487.89,492.085,500.82,505.559,511.317,514.542" svgx:width="0.61,0.58,0.48,0.55,0.77,0.55,0.88,0.29,0.58,0.29,0.44,0.5,0.55,0.72,0.78,0.78,0.55,0.33,0.55,0.29,0.29,0.55,0.83,0.48,0.61,0.55,0.33,0.58,0.48,0.55,0.56,0.48,0.58,0.48,0.4,0.5,0.29,0.55,0.88,0.48,0.33,0.58,0.55,0.61,0.55,0.29,0.55,0.56,0.29,0.44,0.5,0.29,0.55,0.5,0.6,0.6,0.4,0.55,0.5,0.44,0.58,0.55,0.33,0.55,0.4,0.55,0.6,0.58,0.61,0.48,0.4,0.33,0.5,0.56,0.29,0.58,0.56,0.55,0.5,0.42,0.42,0.48,0.42,0.42,0.88,0.48,0.58,0.33,0.42" style="fill:rgb(0,0,0);font-family:URWPalladioL-Roma;font-size:9.96px;stroke:none;">The Dominica V&amp;A followed the general methodological approach for undertaking assessments</text>
   <text y="734.962" x="76.535,82.695,87.525,93.221,98.05,100.984,106.489,112.548,117.378,123.4536,126.028,131.604,137.1816,139.7,142.986,148.854,153.6348,156.174,166.256,174.644,182.5124,185.059" svgx:width="0.61,0.48,0.56,0.48,0.29,0.55,0.6,0.48,0.61,0.55,0.55,0.56,0.55,0.33,0.58,0.48,0.55,1.0,0.83,0.79,0.55,0.33" style="fill:rgb(0,0,0);font-family:URWPalladioL-Roma;font-size:9.96px;stroke:none;">developed by the WHO [</text>
   <text y="734.962" x="188.418,193.399" svgx:width="0.5,0.5" style="fill:rgb(8,117,183);font-family:URWPalladioL-Roma;font-size:9.96px;stroke:none;">21</text>
   <text y="734.962" x="198.381" svgx:width="0.25" style="fill:rgb(0,0,0);font-family:URWPalladioL-Roma;font-size:9.96px;stroke:none;">,</text>
   <text y="734.962" x="200.902,205.883" svgx:width="0.5,0.5" style="fill:rgb(8,117,183);font-family:URWPalladioL-Roma;font-size:9.96px;stroke:none;">23</text>
   <text y="734.962" x="210.864,214.221,216.711,219.827,227.631,233.71,238.4908,241.03,244.317,249.79500000000002,252.312,255.599,261.466,266.2468,268.796,271.73,274.654,283.556,286.49,289.777,294.606,300.6816,303.267,306.554,309.477,318.38,323.209,326.567,330.549,335.59,344.493,349.2738,351.822,356.864,362.731,368.8066,371.382,375.183,380.012,384.287,389.792,395.871,399.672,404.149,408.978,413.253,415.743,418.264,423.244,425.795,430.272,435.776,444.679,450.738,454.539,459.369,465.237,470.066,475.934,480.208,483.142,488.839,493.6198,496.158,503.438,511.282" svgx:width="0.33,0.25,0.55,0.77,0.6,0.48,0.55,0.33,0.55,0.55,0.33,0.58,0.48,0.55,0.29,0.29,0.88,0.29,0.33,0.48,0.61,0.55,0.33,0.29,0.88,0.48,0.33,0.4,0.5,0.88,0.48,0.55,0.5,0.58,0.61,0.55,0.4,0.48,0.42,0.55,0.6,0.4,0.44,0.48,0.42,0.25,0.55,0.5,0.55,0.44,0.55,0.88,0.6,0.4,0.48,0.58,0.48,0.58,0.42,0.29,0.56,0.48,0.55,0.72,0.78,0.78" style="fill:rgb(0,0,0);font-family:URWPalladioL-Roma;font-size:9.96px;stroke:none;">]. Due to the limited timeframe and resources, a comprehensive V&amp;A</text>
   <text y="748.471" x="76.535,79.848,85.762,90.843,94.1298,96.869,99.826,105.74,110.252,113.209,119.337,125.546,130.413,136.48860000000002,139.325,144.406,147.363,150.2514,153.033,158.948,163.815,168.896,171.853,175.166,180.9428,183.793,186.75,191.059,195.368,201.495,206.363,210.5462,213.374,218.923,222.2098,225.02,229.532,235.08,240.994,245.506,250.374,254.388,260.1648,263.015,271.49,276.571,280.7542,283.583,289.497,295.045,298.33180000000004,301.071,307.199,313.113,319.322,324.189,328.203,331.516,336.597,342.247,347.115,353.029,355.519,359.319,365.548,371.462,376.2428,379.033,383.342,386.654,391.522,397.629,401.8122,404.651,409.732,415.646,421.7216,424.568,428.399,433.267,436.224,441.305,444.618,449.485,455.5606,458.407,463.488,468.0,471.313,474.27,480.011,482.968,486.281,489.238,494.106,498.2892,501.117,504.43,510.344,515.425" svgx:width="0.33,0.58,0.5,0.33,0.55,0.29,0.58,0.44,0.29,0.6,0.61,0.48,0.61,0.55,0.5,0.29,0.29,0.55,0.58,0.48,0.5,0.29,0.33,0.58,0.55,0.29,0.42,0.42,0.6,0.48,0.42,0.55,0.55,0.33,0.55,0.44,0.55,0.58,0.44,0.48,0.4,0.58,0.55,0.83,0.5,0.42,0.55,0.58,0.55,0.33,0.55,0.6,0.58,0.61,0.48,0.4,0.33,0.5,0.56,0.48,0.58,0.25,0.55,0.61,0.58,0.48,0.55,0.42,0.33,0.48,0.6,0.42,0.55,0.5,0.58,0.61,0.55,0.4,0.48,0.29,0.5,0.33,0.48,0.61,0.55,0.5,0.44,0.33,0.29,0.56,0.29,0.33,0.29,0.48,0.42,0.55,0.33,0.58,0.5,0.33" style="fill:rgb(0,0,0);font-family:URWPalladioL-Roma;font-size:9.96px;stroke:none;">that included all health issues of concern was not undertaken. The steps and related activities that</text>
   <text y="761.981" x="76.117,84.368,89.106,92.836,97.6168,100.068,104.46,109.862,118.597,124.543,127.421,132.16,135.385,140.124,146.1996,148.661,153.608,157.7912,160.285,166.231,171.177,175.085,178.3718,180.803,186.205,189.4918,191.992,195.217,200.975,205.7558,208.206,213.153,217.347,221.542,226.281,230.475,234.67,243.405,248.144,253.902,257.1888,259.62,264.566,268.296,273.0768,275.527,281.473,285.203,289.941,294.136,298.875,304.632,307.857,312.596,318.6716,321.124,324.002,329.7788,332.253,337.407,342.354,347.824,350.703" svgx:width="0.83,0.48,0.4,0.48,0.55,0.44,0.55,0.88,0.6,0.29,0.48,0.33,0.48,0.61,0.55,0.5,0.42,0.55,0.6,0.5,0.4,0.33,0.55,0.55,0.33,0.55,0.33,0.58,0.48,0.55,0.5,0.42,0.42,0.48,0.42,0.42,0.88,0.48,0.58,0.33,0.55,0.5,0.4,0.48,0.55,0.6,0.4,0.48,0.42,0.48,0.58,0.33,0.48,0.61,0.55,0.29,0.58,0.55,0.61,0.5,0.55,0.29,0.48" style="fill:rgb(0,0,0);font-family:URWPalladioL-Roma;font-size:9.96px;stroke:none;">were completed as part of the assessment are presented in Table</text>
   <text y="761.981" x="357.925" svgx:width="0.5" style="fill:rgb(8,117,183);font-family:URWPalladioL-Roma;font-size:9.96px;stroke:none;">1</text>
   <text y="761.981" x="365.365,370.311,376.069,382.1446,384.606,389.553,393.282,398.0628,400.514,406.558,409.437,413.632,418.024,423.99,428.184,432.379,437.117,443.1926,445.655,451.126,455.864,458.743,464.145,471.475,473.96500000000003,477.045,484.742,489.134,492.359,495.238,500.827,503.706,506.931,509.81,514.549" svgx:width="0.5,0.58,0.61,0.55,0.5,0.4,0.48,0.55,0.61,0.29,0.42,0.44,0.6,0.42,0.42,0.48,0.61,0.55,0.55,0.48,0.29,0.55,0.83,0.25,0.55,0.78,0.44,0.33,0.29,0.56,0.29,0.33,0.29,0.48,0.42" style="fill:rgb(0,0,0);font-family:URWPalladioL-Roma;font-size:9.96px;stroke:none;">and are discussed below. Activities</text>
  </g>
 </g>
</svg>
