<?xml version="1.0" encoding="UTF-8"?>
<svg height="568.452" width="530.027" xmlns="http://www.w3.org/2000/svg">
 <g id="page" xmlns:svgx="http://www.xml-cml.org/schema/svgx">
  <g begin="text">
   <text y="62.979" x="76.535,79.189,83.62,86.274,88.26650000000001,91.057,93.711,95.7035,97.696,102.565,106.997,110.982,113.197,116.154,119.693,124.124,126.1165,128.907,134.223,137.323,140.423,142.4155,145.205,150.075,154.507,158.197,160.412,162.628,165.89569999999998,167.864,174.065,177.165,180.704,182.92,185.574" svgx:width="0.33,0.56,0.33,0.25,0.55,0.33,0.25,0.55,0.61,0.56,0.5,0.28,0.39,0.44,0.56,0.25,0.55,0.67,0.39,0.39,0.25,0.55,0.61,0.56,0.46,0.28,0.28,0.41,0.55,0.78,0.39,0.44,0.28,0.33,0.5" style="fill:rgb(0,0,0);font-family:URWPalladioL-Ital;font-size:7.97px;stroke:none;">Int. J. Environ. Res. Public Health</text>
   <text y="62.979" x="191.551,195.536,199.521,203.506" svgx:width="0.5,0.5,0.5,0.5" style="fill:rgb(0,0,0);font-family:URWPalladioL-Bold;font-size:7.97px;stroke:none;">2019</text>
   <text y="62.979" x="207.491" svgx:width="0.25" style="fill:rgb(0,0,0);font-family:URWPalladioL-Roma;font-size:7.97px;stroke:none;">,</text>
   <text y="62.979" x="211.476,215.461" svgx:width="0.5,0.5" style="fill:rgb(0,0,0);font-family:URWPalladioL-Ital;font-size:7.97px;stroke:none;">16</text>
   <text y="62.979" x="219.446,221.4385,223.431,227.416,231.401,235.386,239.371,491.808,495.793,499.778,501.771,506.123,508.7531,510.769,514.754" svgx:width="0.25,0.55,0.5,0.5,0.5,0.5,0.55,0.5,0.5,0.55,0.55,0.33,0.55,0.5,0.5" style="fill:rgb(0,0,0);font-family:URWPalladioL-Roma;font-size:7.97px;stroke:none;">, 3452 13 of 21</text>
   <text y="97.848" x="97.795,101.092,106.8688,109.271,114.612,118.301,124.278,128.965,132.949,135.314,138.503,143.981,146.33,150.478,153.667,159.567,165.544,171.1216,173.478,176.668,182.362,187.1428,189.533,195.51,200.95,206.644,211.535,220.174,223.021,227.40339999999998,229.85,234.193,239.887,244.779,250.473,255.912,260.69280000000003,263.083,268.425,271.71180000000004,274.168,282.298,289.87,296.934,300.3204,302.725,306.404,311.09,315.238,321.118,326.46,332.153,336.301,341.0818,343.473,346.662,352.14,354.498,358.842,361.689,364.536,373.175,378.066,381.256,384.103,388.4854,390.931,394.189,399.081,403.425,406.614,411.956,415.82,420.0032,422.453,425.3,431.0768,433.479,436.668,442.362,447.1428,449.533,454.973,458.661,464.003,472.162,475.009,480.703,486.2806,488.627,492.775,497.461,502.353,506.501,511.843,517.537" svgx:width="0.34,0.58,0.55,0.55,0.4,0.61,0.48,0.4,0.55,0.33,0.55,0.55,0.42,0.33,0.6,0.61,0.56,0.55,0.33,0.58,0.48,0.55,0.61,0.56,0.58,0.5,0.88,0.29,0.44,0.55,0.44,0.58,0.5,0.58,0.56,0.48,0.55,0.55,0.33,0.55,0.83,0.77,0.72,0.34,0.55,0.4,0.48,0.42,0.6,0.55,0.58,0.42,0.48,0.55,0.33,0.55,0.55,0.44,0.29,0.29,0.88,0.5,0.33,0.29,0.44,0.55,0.33,0.5,0.44,0.33,0.55,0.4,0.42,0.55,0.29,0.58,0.55,0.33,0.58,0.48,0.55,0.56,0.4,0.55,0.83,0.29,0.58,0.56,0.55,0.42,0.48,0.5,0.42,0.55,0.58,0.25" style="fill:rgb(0,0,0);font-family:URWPalladioL-Roma;font-size:9.96px;stroke:none;">In order to study the dynamic change of NDVI response to climatic factors in the growing season,</text>
   <text y="111.358" x="76.117,84.592,87.549,90.862,96.63879999999999,100.008,103.32,109.234,114.0148,117.333,126.306,131.174,134.487,140.401,145.949,152.02460000000002,155.379,160.928,164.2148,167.543,176.516,182.644,185.601,188.914,191.871,197.978,200.935,205.7158,209.034,214.948,219.816,224.124,227.437,232.305,238.38060000000002,241.745,245.058,248.015,256.988,261.7688,265.077,269.385,274.253,278.267,281.224,286.091,290.2742,293.631,298.712,304.627,309.707,312.665,318.315,322.623,325.58,329.889,332.379,335.844,344.319,349.0998,352.418,358.627,361.584,367.325,370.282,376.491,381.2718,384.59,389.671,394.752,399.833,404.914,409.995,415.076,420.157,425.238,430.218,433.54,436.497,442.411,445.724,451.202,454.504,458.812,463.68,469.421,474.289,480.06579999999997,483.435,489.542,494.409,498.423,501.38,506.929,513.138,517.446" svgx:width="0.83,0.29,0.33,0.58,0.55,0.33,0.58,0.48,0.55,0.88,0.48,0.33,0.58,0.55,0.61,0.55,0.55,0.33,0.55,0.88,0.6,0.29,0.33,0.29,0.6,0.29,0.48,0.55,0.58,0.48,0.42,0.33,0.48,0.61,0.55,0.33,0.29,0.88,0.48,0.55,0.42,0.48,0.4,0.29,0.48,0.42,0.55,0.5,0.58,0.5,0.29,0.56,0.42,0.29,0.42,0.25,0.55,0.83,0.48,0.55,0.61,0.29,0.56,0.29,0.61,0.48,0.55,0.5,0.5,0.5,0.5,0.5,0.5,0.5,0.5,0.5,0.55,0.29,0.58,0.33,0.55,0.55,0.42,0.48,0.56,0.48,0.58,0.55,0.6,0.48,0.4,0.29,0.55,0.61,0.42,0.25" style="fill:rgb(0,0,0);font-family:URWPalladioL-Roma;font-size:9.96px;stroke:none;">with the method of multiple nested time series analysis, we divide 2001–2017 into seven periods,</text>
   <text y="124.867" x="76.535,81.422,86.308,91.195,96.082,100.968,105.855,110.742,115.628,120.515,123.005,125.45,130.337,135.224,140.11,144.997,149.884,154.77,159.657,164.544,169.43,171.92000000000002,174.366,179.253,184.139,189.026,193.913,198.799,203.686,208.572,213.459,218.346" svgx:width="0.5,0.5,0.5,0.5,0.5,0.5,0.5,0.5,0.5,0.25,0.55,0.5,0.5,0.5,0.5,0.5,0.5,0.5,0.5,0.5,0.25,0.55,0.5,0.5,0.5,0.5,0.5,0.5,0.5,0.5,0.5,0.25" style="fill:rgb(0,0,0);font-family:URWPalladioL-Roma;font-size:9.96px;stroke:none;">2001–2011, 2001–2012, 2001–2013,</text>
   <text y="124.867" x="223.277,225.767,227.431,229.92100000000002,231.576" svgx:width="0.25,0.55,0.25,0.55,0.25" style="fill:rgb(0,0,0);font-family:Rpxmi;font-size:9.96px;stroke:none;">. . .</text>
   <text y="124.867" x="237.391,239.881,242.327,247.213,252.1,256.986,261.873,266.76,271.646,276.533,281.42,286.40000000000003,288.799,293.685,299.373,305.4486,307.827,312.167,317.503,323.191,329.162,335.056,339.395,342.6818,345.073,352.53,359.059,366.663,369.153,371.598,375.283,379.964,384.108,389.982,394.663,399.003,402.189,405.033,410.555,415.236,418.08,422.41,424.90000000000003,428.332,434.323,440.011,444.7918,447.185,451.329,454.515,459.402,462.588,465.432,469.576,472.762,475.606,479.945,484.832,487.7204,490.168,493.852,498.534,502.678,508.571,511.405,514.591" svgx:width="0.25,0.55,0.5,0.5,0.5,0.5,0.5,0.5,0.5,0.5,0.5,0.55,0.5,0.58,0.61,0.55,0.44,0.55,0.58,0.61,0.6,0.44,0.33,0.55,0.76,0.67,0.78,0.25,0.55,0.4,0.48,0.42,0.6,0.48,0.44,0.33,0.29,0.56,0.48,0.29,0.56,0.25,0.55,0.61,0.58,0.48,0.55,0.42,0.33,0.5,0.33,0.29,0.42,0.33,0.29,0.44,0.5,0.29,0.55,0.4,0.48,0.42,0.6,0.29,0.33,0.42" style="fill:rgb(0,0,0);font-family:URWPalladioL-Roma;font-size:9.96px;stroke:none;">, 2001–2017 and conduct GRA, respectively. The statistical results</text>
   <text y="138.377" x="76.207,79.591,84.906,89.986,95.606,98.563" svgx:width="0.33,0.61,0.5,0.55,0.29,0.48" style="fill:rgb(0,0,0);font-family:URWPalladioL-Roma;font-size:9.96px;stroke:none;">(Table</text>
   <text y="138.377" x="105.981" svgx:width="0.5" style="fill:rgb(8,117,183);font-family:URWPalladioL-Roma;font-size:9.96px;stroke:none;">3</text>
   <text y="138.377" x="111.062,114.3488,116.987,121.295,127.209,132.758,141.0248,143.783,147.096,153.01,158.091,161.3778,163.955,167.267,173.182,177.9628,180.6,184.431,189.298,193.607,199.714,205.263,211.177,215.485,220.2658,222.904,228.452,231.7388,234.376,237.689,243.603,248.3838,251.021,259.466,267.331,274.668,278.0544,280.643,283.956,289.434,292.055,301.028,305.895,310.976,316.7528,319.431,324.512,327.469,331.453,334.034,337.346,342.214,351.187,357.294,362.162,366.175,371.256,374.569,380.697,384.538,389.3188,391.946,394.903,400.6798,403.368,406.681,412.595,417.3758,420.013,425.663,429.494,435.042,443.517,446.474,452.389,457.9666,460.589,464.898,469.765,474.846,479.155,484.703,490.47979999999995,493.168,498.716,502.00280000000004,504.641,507.954,513.868" svgx:width="0.33,0.55,0.42,0.58,0.55,0.83,0.55,0.33,0.58,0.5,0.33,0.55,0.33,0.58,0.48,0.55,0.4,0.48,0.42,0.6,0.55,0.58,0.42,0.48,0.55,0.55,0.33,0.55,0.33,0.58,0.48,0.55,0.83,0.77,0.72,0.34,0.55,0.33,0.55,0.55,0.88,0.48,0.5,0.58,0.55,0.5,0.29,0.4,0.55,0.33,0.48,0.88,0.6,0.48,0.4,0.5,0.33,0.6,0.4,0.48,0.55,0.29,0.58,0.55,0.33,0.58,0.48,0.55,0.56,0.4,0.55,0.83,0.29,0.58,0.56,0.55,0.42,0.48,0.5,0.42,0.55,0.58,0.55,0.55,0.33,0.55,0.33,0.58,0.48" style="fill:rgb(0,0,0);font-family:URWPalladioL-Roma;font-size:9.96px;stroke:none;">) show that the response of the NDVI to mean air temperature in the growing season of the</text>
   <text y="151.886" x="76.535,80.763,85.54,91.175,95.952,101.72879999999999,104.249,110.242,115.019,118.958,121.86,127.305,133.399,137.5822,140.12,143.441,147.201,152.646,163.944,168.931,173.917,178.903,183.88299999999998,186.383,189.634,195.112,197.582,202.568,207.555,212.541,217.521,220.02,225.465,229.893,234.321,240.334,244.273,248.4562,250.995,253.897,259.67379999999997,262.194,265.445,271.249,276.0298,278.519,282.947,288.96,292.9,296.659,301.436,307.24,310.52680000000004,312.984,321.79,327.235,333.039,336.29,342.094,344.584,347.081,352.595,358.609,361.8958,364.353,367.604,373.408,378.1888,380.688,383.59,388.576,394.15360000000004,396.614,399.516,403.6992,406.238,412.042,417.487,420.77380000000005,423.231,428.676,434.191,439.825,442.727,448.172,454.186,458.414,460.904,463.4,466.652,472.456,477.2368,479.726,483.485,488.262,492.49,498.484,503.929,509.733,513.961" svgx:width="0.42,0.48,0.56,0.48,0.58,0.55,0.6,0.48,0.4,0.29,0.55,0.61,0.42,0.55,0.33,0.4,0.55,0.88,0.5,0.5,0.5,0.5,0.55,0.33,0.55,0.55,0.5,0.5,0.5,0.5,0.55,0.55,0.44,0.44,0.6,0.4,0.42,0.55,0.29,0.58,0.55,0.33,0.58,0.48,0.55,0.44,0.6,0.4,0.4,0.48,0.58,0.33,0.55,0.88,0.55,0.58,0.33,0.58,0.25,0.55,0.55,0.6,0.33,0.55,0.33,0.58,0.48,0.55,0.29,0.5,0.56,0.55,0.29,0.42,0.55,0.58,0.55,0.33,0.55,0.55,0.55,0.56,0.29,0.55,0.6,0.42,0.25,0.55,0.33,0.58,0.48,0.55,0.4,0.48,0.42,0.6,0.55,0.58,0.42,0.48" style="fill:rgb(0,0,0);font-family:URWPalladioL-Roma;font-size:9.96px;stroke:none;">seven periods from2001 to 2017 occurs in the current month, but the lag is not obvious, the response</text>
   <text y="165.395" x="76.535,79.796,82.707,91.539,96.3198,98.82,102.081,107.559,110.023,114.464,120.496,129.328,135.359,138.27,143.271,146.532,149.443,155.094,159.8748,162.376,168.387,172.158,176.95,181.391,184.301,190.313,193.224,196.484,201.486,204.746,207.657,213.118,218.8948,221.43,224.341,228.5242,231.073,236.634,240.575,245.586,251.698,257.719,262.721,265.631,268.542,274.1196,276.594,280.835,286.656,292.118,296.069,299.329,304.121,309.942,312.853,318.674,324.236,326.726,329.227,332.137,337.9138,340.449,345.451,350.452,355.453,360.454,365.456,370.457,375.458,380.459,385.46,387.95,390.442,395.443,400.444,405.445,410.447,415.448,420.449,425.45,430.451,435.43100000000004,437.943,442.944,448.766,454.8416,457.368,462.369,467.37,472.372,477.373,482.374,487.375,492.377,497.378,502.358,504.87,508.13,513.952" svgx:width="0.33,0.29,0.88,0.48,0.55,0.33,0.55,0.55,0.44,0.6,0.88,0.6,0.29,0.5,0.33,0.29,0.56,0.48,0.55,0.6,0.4,0.48,0.44,0.29,0.6,0.29,0.33,0.5,0.33,0.29,0.55,0.58,0.55,0.29,0.42,0.55,0.56,0.4,0.5,0.61,0.6,0.5,0.29,0.29,0.56,0.55,0.42,0.58,0.55,0.4,0.33,0.48,0.58,0.29,0.58,0.56,0.25,0.55,0.29,0.58,0.55,0.5,0.5,0.5,0.5,0.5,0.5,0.5,0.5,0.5,0.25,0.55,0.5,0.5,0.5,0.5,0.5,0.5,0.5,0.5,0.5,0.55,0.5,0.58,0.61,0.55,0.5,0.5,0.5,0.5,0.5,0.5,0.5,0.5,0.5,0.55,0.33,0.58,0.48" style="fill:rgb(0,0,0);font-family:URWPalladioL-Roma;font-size:9.96px;stroke:none;">time to cumulative precipitation is gradually shortening; in 2001–2011, 2001–2012 and 2001–2013 the</text>
   <text y="178.905" x="76.535,80.31,85.106,89.351,95.368,100.835,106.662,110.908,115.6888,118.197,123.663,126.9498,129.491,132.755,138.582,143.3628,145.871,154.191,161.941,169.17,172.5564,175.037,177.951,182.957,188.524,192.7072,195.272,200.809,205.605,211.432,214.346,220.173,226.2486,228.784,233.229,239.267,248.108,254.145,257.059,262.065,265.329,268.243,273.9,278.6808,281.189,287.206,290.981,295.777,300.222,303.136,309.153,312.067,315.331,320.337,323.601,326.515,331.982,337.7588,340.302,345.839,351.4166,353.899,359.366,365.193,369.9738,372.482,381.323,386.79,392.617,395.881,401.708,404.19800000000004,406.704,412.241,418.279,421.5658,424.036,429.042,432.376,435.64,440.436,444.41999999999996,446.884,451.89,456.896,461.903,466.909,469.399,471.905,474.819,478.10580000000004,480.586,486.123,491.129,495.374,498.288,502.733,507.739,510.643,513.557" svgx:width="0.4,0.48,0.42,0.6,0.55,0.58,0.42,0.48,0.55,0.55,0.33,0.55,0.33,0.58,0.48,0.55,0.83,0.77,0.72,0.34,0.55,0.29,0.5,0.56,0.42,0.55,0.55,0.48,0.58,0.29,0.58,0.61,0.55,0.44,0.6,0.88,0.6,0.29,0.5,0.33,0.29,0.56,0.48,0.55,0.6,0.4,0.48,0.44,0.29,0.6,0.29,0.33,0.5,0.33,0.29,0.55,0.58,0.55,0.55,0.56,0.55,0.55,0.58,0.48,0.55,0.88,0.55,0.58,0.33,0.58,0.25,0.55,0.55,0.6,0.33,0.55,0.5,0.33,0.33,0.48,0.4,0.55,0.5,0.5,0.5,0.5,0.25,0.55,0.29,0.33,0.55,0.55,0.5,0.42,0.29,0.44,0.5,0.29,0.29,0.56" style="fill:rgb(0,0,0);font-family:URWPalladioL-Roma;font-size:9.96px;stroke:none;">response of the NDVI lags behind cumulative precipitation by one month, but after 2014, it basically</text>
   <text y="192.414" x="76.535,80.366,85.234,89.542,95.649,101.198,107.112,113.321,118.188,124.2636,127.639,130.596,136.3728,139.752,143.065,148.979,153.7598,157.088,161.6,167.727,171.741,175.583,180.45,186.364,189.6508,192.909,201.881,207.43,213.344,216.657,222.571,225.061,228.729,232.042,237.956,242.7368,246.065,249.906,254.774,259.083,265.19,270.738,276.652,280.961,285.7418,289.07,294.618,297.9048,301.234,304.547,310.461,315.2418,318.57,327.014,334.88,342.217,345.60339999999997,348.883,352.196,357.67400000000004,360.986,364.827,369.694,372.651,377.732,381.045,384.002,389.744,394.5248,397.843,403.757,409.884,418.857,421.814,428.023,430.98,434.293,439.8706,443.185,446.142,451.223,456.873,461.0562,464.423,470.043,474.91,480.824,483.781,489.696,495.77160000000003,499.146,504.766,510.34360000000004,513.657" svgx:width="0.4,0.48,0.42,0.6,0.55,0.58,0.61,0.48,0.61,0.55,0.29,0.58,0.55,0.33,0.58,0.48,0.55,0.44,0.6,0.4,0.4,0.48,0.58,0.33,0.55,0.88,0.55,0.58,0.33,0.58,0.25,0.55,0.33,0.58,0.48,0.55,0.4,0.48,0.42,0.6,0.55,0.58,0.42,0.48,0.55,0.55,0.33,0.55,0.33,0.58,0.48,0.55,0.83,0.77,0.72,0.34,0.55,0.33,0.55,0.55,0.4,0.48,0.29,0.5,0.33,0.29,0.56,0.48,0.55,0.58,0.6,0.88,0.29,0.61,0.29,0.33,0.56,0.55,0.29,0.5,0.56,0.42,0.55,0.55,0.48,0.58,0.29,0.58,0.61,0.55,0.55,0.56,0.55,0.5" style="fill:rgb(0,0,0);font-family:URWPalladioL-Roma;font-size:9.96px;stroke:none;">responded in the current month; the response of the NDVI to relative humidity lags behind by 2</text>
   <text y="205.924" x="76.535,85.156,90.487,96.169,99.352,105.034,109.174,111.664,114.007,117.19,122.872,127.6528,129.892,133.572,138.249,142.389,148.257,153.587,159.27,163.409,168.1898,170.429,175.76,179.0468,181.354,184.537,190.219,194.9998,197.249,205.362,212.919,219.968,223.3544,225.602,228.785,234.263,236.459,240.598,246.486,252.168,256.307,261.99,264.831,270.513,275.2938,277.533,283.498,289.386,293.242,298.124,301.307,304.148,309.479,315.25579999999997,317.504,320.345,325.227,330.655,334.8382,337.138,342.537,347.214,352.896,355.737,361.42,367.4956,369.738,375.137,380.7146,382.909,387.889,390.134,399.37,404.701,410.383,413.566,419.248,423.388,425.878,429.265,435.25,440.932,445.7128,447.952,451.633,456.31,460.449,466.317,471.648,477.33,481.47,486.2508,488.49,491.673,494.514,503.135,507.9158,510.155,515.485" svgx:width="0.88,0.55,0.58,0.33,0.58,0.42,0.25,0.55,0.33,0.58,0.48,0.55,0.4,0.48,0.42,0.6,0.55,0.58,0.42,0.48,0.55,0.55,0.33,0.55,0.33,0.58,0.48,0.55,0.83,0.77,0.72,0.34,0.55,0.33,0.55,0.55,0.42,0.6,0.58,0.42,0.58,0.29,0.58,0.48,0.55,0.61,0.6,0.4,0.5,0.33,0.29,0.55,0.58,0.55,0.29,0.5,0.56,0.42,0.55,0.55,0.48,0.58,0.29,0.58,0.61,0.55,0.55,0.56,0.55,0.5,0.55,0.95,0.55,0.58,0.33,0.58,0.42,0.25,0.55,0.61,0.58,0.48,0.55,0.4,0.48,0.42,0.6,0.55,0.58,0.42,0.48,0.55,0.33,0.29,0.88,0.48,0.55,0.55,0.33" style="fill:rgb(0,0,0);font-family:URWPalladioL-Roma;font-size:9.96px;stroke:none;">months; the response of the NDVI to sunshine duration lags behind by 3 Months. The response time of</text>
   <text y="219.433" x="76.535,84.872,92.637,99.88,103.26639999999999,105.739,109.01,114.488,116.975,121.43,124.349,127.269,136.127,141.143,144.414,147.333,151.7154,154.266,157.606,162.622,167.077,170.347,175.825,179.788,183.9712,186.52,189.86,194.666,199.842,204.297,209.102,215.132,218.4188,220.88,225.335,231.384,240.243,246.292,249.212,254.228,257.498,260.418,266.086,270.8668,273.379,279.409,283.191,287.997,292.451,295.37,301.4,304.319,307.59,312.606,315.876,318.796,324.274,330.112,333.39880000000005,335.931,338.85,344.6268,347.167,350.438,356.277,361.0578,363.57,367.824,372.629,378.298,383.103,388.8798,391.42,395.674,398.944,404.994,411.123,416.7006,419.179,425.209,430.014,433.977,436.896,442.374,448.504,452.6872,455.246,460.262,463.181,472.04,477.517,481.771,485.05780000000004,487.52,491.302,496.107,504.966,509.982,512.901" svgx:width="0.83,0.77,0.72,0.34,0.55,0.33,0.55,0.55,0.44,0.29,0.29,0.88,0.5,0.33,0.29,0.44,0.55,0.33,0.5,0.44,0.33,0.55,0.4,0.42,0.55,0.33,0.48,0.52,0.44,0.48,0.6,0.33,0.55,0.44,0.6,0.88,0.6,0.29,0.5,0.33,0.29,0.56,0.48,0.55,0.6,0.4,0.48,0.44,0.29,0.6,0.29,0.33,0.5,0.33,0.29,0.55,0.58,0.33,0.55,0.29,0.58,0.55,0.33,0.58,0.48,0.55,0.42,0.48,0.56,0.48,0.58,0.55,0.42,0.33,0.6,0.61,0.56,0.55,0.6,0.48,0.4,0.29,0.55,0.61,0.42,0.55,0.5,0.29,0.88,0.55,0.42,0.33,0.55,0.4,0.48,0.88,0.5,0.29,0.58" style="fill:rgb(0,0,0);font-family:URWPalladioL-Roma;font-size:9.96px;stroke:none;">NDVI to climatic factors (except cumulative precipitation) in the seven study periods almost remain</text>
   <text y="232.942" x="76.535,79.783,85.581,90.3618,92.844,97.068,102.049,110.846,115.618,118.10799999999999,120.6,125.581,131.379,137.4546,139.957,143.205,149.003,153.78379999999999,156.266,159.165,164.146,169.72359999999998,172.176,175.932,180.704,184.928,190.916,196.355,202.153,206.378,211.15879999999999,213.64,216.888,219.787,228.584,233.3648,235.847,241.286,244.5728,247.095,255.374,263.085,270.278,273.6644,276.126,279.373,284.851,287.304,291.727,294.626,297.525,306.322,311.304,314.551,319.3318,321.814,325.132,330.113,334.536,337.784,343.224,347.159,351.3422,353.874,359.672,364.653,368.8362,371.368,377.166,380.065,385.605,391.403,396.175,400.159,402.601,406.825,410.073,415.054,420.564,423.463,426.362,429.261,432.509,436.942" svgx:width="0.33,0.58,0.48,0.55,0.42,0.5,0.88,0.48,0.25,0.55,0.5,0.58,0.61,0.55,0.33,0.58,0.48,0.55,0.29,0.5,0.56,0.55,0.4,0.48,0.42,0.6,0.55,0.58,0.42,0.48,0.55,0.33,0.29,0.88,0.48,0.55,0.55,0.33,0.55,0.83,0.77,0.72,0.34,0.55,0.33,0.55,0.55,0.44,0.29,0.29,0.88,0.5,0.33,0.48,0.55,0.33,0.5,0.44,0.33,0.55,0.4,0.42,0.55,0.58,0.5,0.42,0.55,0.58,0.29,0.56,0.58,0.48,0.4,0.55,0.42,0.33,0.5,0.55,0.29,0.29,0.29,0.33,0.56,0.25" style="fill:rgb(0,0,0);font-family:URWPalladioL-Roma;font-size:9.96px;stroke:none;">the same, and the lag response time of NDVI to climate factors has higher stability.</text>
   <text y="257.683" x="146.874,151.859,156.343,161.821,164.807,169.292,171.532,176.015" svgx:width="0.67,0.5,0.61,0.33,0.5,0.55,0.5,0.25" style="fill:rgb(0,0,0);font-family:URWPalladioL-Bold;font-size:8.97px;stroke:none;">Table 3.</text>
   <text y="257.683" x="181.395,186.891,192.11,196.4156,198.646,201.256,205.739,210.7622,212.966,216.346,220.641,224.443,229.831,234.727,239.946,243.747,248.0526,250.284,255.18,258.1401,260.407,267.858,274.798,281.272,284.3218,286.535,289.458,294.3915,296.595,302.953,305.562,308.171,316.088,320.571,323.495,327.80060000000003,330.031,335.016,339.5,343.481,346.404,351.299,354.841,358.6084,360.884,363.494,368.69660000000005,370.954,374.755,379.05,384.116,388.411,393.6136,395.871,398.794,401.404,409.321,413.62660000000005,415.857,421.246,425.541,429.083,431.692,436.588,442.066,445.868" svgx:width="0.61,0.58,0.48,0.55,0.29,0.5,0.56,0.55,0.4,0.48,0.42,0.6,0.55,0.58,0.42,0.48,0.55,0.55,0.33,0.55,0.83,0.77,0.72,0.34,0.55,0.33,0.55,0.55,0.71,0.29,0.29,0.88,0.5,0.33,0.48,0.55,0.56,0.5,0.44,0.33,0.55,0.4,0.42,0.55,0.29,0.58,0.55,0.42,0.48,0.56,0.48,0.58,0.55,0.33,0.29,0.88,0.48,0.55,0.6,0.48,0.4,0.29,0.55,0.61,0.42,0.25" style="fill:rgb(0,0,0);font-family:URWPalladioL-Roma;font-size:8.97px;stroke:none;">The lag response of NDVI to Climate Factors in seven time periods.</text>
  </g>
  <path style="fill:none;stroke:rgb(0,0,0);stroke-width:1.0;" d="M76.540 267.910 L518.740 267.910 "/>
  <g begin="text">
   <text y="279.77" x="86.747,93.221,96.207,99.192,107.163,111.647,114.632,117.618" svgx:width="0.72,0.33,0.33,0.89,0.5,0.33,0.33,0.44" style="fill:rgb(0,0,0);font-family:URWPalladioL-Bold;font-size:8.97px;stroke:none;">Climatic</text>
   <text y="290.729" x="91.804,96.789,101.273,105.254,108.239,113.225" svgx:width="0.56,0.5,0.44,0.33,0.56,0.39" style="fill:rgb(0,0,0);font-family:URWPalladioL-Bold;font-size:8.97px;stroke:none;">Factor</text>
   <text y="278.763" x="297.009,302.487,306.971,311.9942,314.198,320.671,325.155,329.136,334.614,339.599,345.078,349.059" svgx:width="0.61,0.5,0.56,0.55,0.72,0.5,0.44,0.61,0.56,0.61,0.44,0.5" style="fill:rgb(0,0,0);font-family:URWPalladioL-Bold;font-size:8.97px;stroke:none;">Lag Response</text>
  </g>
  <path style="fill:none;stroke:rgb(0,0,0);stroke-width:0.8;" d="M131.810 284.150 L518.740 284.150 "/>
  <g begin="text">
   <text y="294.762" x="139.274,143.757,148.24,152.724,157.207,161.69,166.173,170.656,175.14,179.625,194.552,199.035,203.518,208.001,212.485,216.968,221.451,225.934,230.417,234.90200000000002,249.83,254.313,258.796,263.279,267.763,272.246,276.729,281.212,285.695,290.18,305.099,309.582,314.065,318.548,323.032,327.515,331.998,336.481,340.964,345.449,360.377,364.86,369.343,373.826,378.31,382.793,387.276,391.759,396.242,400.72700000000003,415.655,420.138,424.621,429.104,433.588,438.071,442.554,447.037,451.52,456.005,470.933,475.416,479.899,484.382,488.865,493.349,497.832,502.315,506.798" svgx:width="0.5,0.5,0.5,0.5,0.5,0.5,0.5,0.5,0.5,0.55,0.5,0.5,0.5,0.5,0.5,0.5,0.5,0.5,0.5,0.55,0.5,0.5,0.5,0.5,0.5,0.5,0.5,0.5,0.5,0.55,0.5,0.5,0.5,0.5,0.5,0.5,0.5,0.5,0.5,0.55,0.5,0.5,0.5,0.5,0.5,0.5,0.5,0.5,0.5,0.55,0.5,0.5,0.5,0.5,0.5,0.5,0.5,0.5,0.5,0.55,0.5,0.5,0.5,0.5,0.5,0.5,0.5,0.5,0.5" style="fill:rgb(0,0,0);font-family:URWPalladioL-Bold;font-size:8.97px;stroke:none;">2001–2011 2001–2012 2001–2013 2001–2014 2001–2015 2001–2016 2001–2017</text>
  </g>
  <path style="fill:none;stroke:rgb(0,0,0);stroke-width:0.3;" d="M76.540 300.150 L518.740 300.150 "/>
  <g begin="text">
   <text y="310.76" x="97.7,104.676,107.285" svgx:width="0.78,0.29,0.4" style="fill:rgb(0,0,0);font-family:URWPalladioL-Roma;font-size:8.97px;stroke:none;">Air</text>
   <text y="321.719" x="82.513,85.378,89.587,97.346,102.627,106.836,110.307,114.7,117.565,122.863,126.176" svgx:width="0.33,0.48,0.88,0.6,0.48,0.4,0.5,0.33,0.6,0.4,0.48" style="fill:rgb(0,0,0);font-family:URWPalladioL-Roma;font-size:8.97px;stroke:none;">temperature</text>
   <text y="310.76" x="143.888,150.245,155.652,159.194,162.574,166.869,172.087" svgx:width="0.71,0.6,0.4,0.4,0.48,0.58,0.33" style="fill:rgb(0,0,0);font-family:URWPalladioL-Roma;font-size:8.97px;stroke:none;">Current</text>
   <text y="321.719" x="146.363,154.28,159.176,164.394,167.317" svgx:width="0.88,0.55,0.58,0.33,0.58" style="fill:rgb(0,0,0);font-family:URWPalladioL-Roma;font-size:8.97px;stroke:none;">month</text>
   <text y="310.76" x="199.163,205.52,210.927,214.469,217.849,222.144,227.362" svgx:width="0.71,0.6,0.4,0.4,0.48,0.58,0.33" style="fill:rgb(0,0,0);font-family:URWPalladioL-Roma;font-size:8.97px;stroke:none;">Current</text>
   <text y="321.719" x="201.638,209.555,214.451,219.669,222.592" svgx:width="0.88,0.55,0.58,0.33,0.58" style="fill:rgb(0,0,0);font-family:URWPalladioL-Roma;font-size:8.97px;stroke:none;">month</text>
   <text y="310.76" x="254.439,260.796,266.203,269.745,273.125,277.42,282.638" svgx:width="0.71,0.6,0.4,0.4,0.48,0.58,0.33" style="fill:rgb(0,0,0);font-family:URWPalladioL-Roma;font-size:8.97px;stroke:none;">Current</text>
   <text y="321.719" x="256.914,264.831,269.727,274.945,277.868" svgx:width="0.88,0.55,0.58,0.33,0.58" style="fill:rgb(0,0,0);font-family:URWPalladioL-Roma;font-size:8.97px;stroke:none;">month</text>
   <text y="310.76" x="309.715,316.072,321.479,325.021,328.401,332.696,337.914" svgx:width="0.71,0.6,0.4,0.4,0.48,0.58,0.33" style="fill:rgb(0,0,0);font-family:URWPalladioL-Roma;font-size:8.97px;stroke:none;">Current</text>
   <text y="321.719" x="312.189,320.106,325.002,330.22,333.143" svgx:width="0.88,0.55,0.58,0.33,0.58" style="fill:rgb(0,0,0);font-family:URWPalladioL-Roma;font-size:8.97px;stroke:none;">month</text>
   <text y="310.76" x="364.99,371.347,376.754,380.296,383.676,387.971,393.189" svgx:width="0.71,0.6,0.4,0.4,0.48,0.58,0.33" style="fill:rgb(0,0,0);font-family:URWPalladioL-Roma;font-size:8.97px;stroke:none;">Current</text>
   <text y="321.719" x="367.465,375.382,380.278,385.496,388.419" svgx:width="0.88,0.55,0.58,0.33,0.58" style="fill:rgb(0,0,0);font-family:URWPalladioL-Roma;font-size:8.97px;stroke:none;">month</text>
   <text y="310.76" x="420.266,426.623,432.03,435.572,438.952,443.247,448.465" svgx:width="0.71,0.6,0.4,0.4,0.48,0.58,0.33" style="fill:rgb(0,0,0);font-family:URWPalladioL-Roma;font-size:8.97px;stroke:none;">Current</text>
   <text y="321.719" x="422.741,430.658,435.554,440.772,443.695" svgx:width="0.88,0.55,0.58,0.33,0.58" style="fill:rgb(0,0,0);font-family:URWPalladioL-Roma;font-size:8.97px;stroke:none;">month</text>
   <text y="310.76" x="475.542,481.899,487.306,490.848,494.228,498.523,503.741" svgx:width="0.71,0.6,0.4,0.4,0.48,0.58,0.33" style="fill:rgb(0,0,0);font-family:URWPalladioL-Roma;font-size:8.97px;stroke:none;">Current</text>
   <text y="321.719" x="478.016,485.933,490.829,496.047,498.97" svgx:width="0.88,0.55,0.58,0.33,0.58" style="fill:rgb(0,0,0);font-family:URWPalladioL-Roma;font-size:8.97px;stroke:none;">month</text>
  </g>
  <path style="fill:none;stroke:rgb(0,0,0);stroke-width:0.3;" d="M76.540 326.870 L518.740 326.870 "/>
  <g begin="text">
   <text y="342.959" x="82.513,87.82,91.133,95.342,99.244,101.801,107.082,109.639,112.503,116.897,119.761,122.318,127.116" svgx:width="0.6,0.4,0.48,0.44,0.29,0.6,0.29,0.33,0.5,0.33,0.29,0.55,0.58" style="fill:rgb(0,0,0);font-family:URWPalladioL-Roma;font-size:8.97px;stroke:none;">Precipitation</text>
   <text y="337.48" x="142.745,148.223,152.707,157.7302,159.934,164.892,169.9152,172.119" svgx:width="0.61,0.5,0.56,0.55,0.55,0.56,0.55,0.5" style="fill:rgb(0,0,0);font-family:URWPalladioL-Roma;font-size:8.97px;stroke:none;">Lag by 1</text>
   <text y="348.439" x="146.362,154.279,159.175,164.393,167.316" svgx:width="0.88,0.55,0.58,0.33,0.58" style="fill:rgb(0,0,0);font-family:URWPalladioL-Roma;font-size:8.97px;stroke:none;">month</text>
   <text y="337.48" x="198.02,203.498,207.982,213.0052,215.209,220.167,225.1902,227.394" svgx:width="0.61,0.5,0.56,0.55,0.55,0.56,0.55,0.5" style="fill:rgb(0,0,0);font-family:URWPalladioL-Roma;font-size:8.97px;stroke:none;">Lag by 1</text>
   <text y="348.439" x="201.638,209.555,214.451,219.669,222.592" svgx:width="0.88,0.55,0.58,0.33,0.58" style="fill:rgb(0,0,0);font-family:URWPalladioL-Roma;font-size:8.97px;stroke:none;">month</text>
   <text y="337.48" x="253.296,258.774,263.258,268.28119999999996,270.485,275.443,280.46619999999996,282.67" svgx:width="0.61,0.5,0.56,0.55,0.55,0.56,0.55,0.5" style="fill:rgb(0,0,0);font-family:URWPalladioL-Roma;font-size:8.97px;stroke:none;">Lag by 1</text>
   <text y="348.439" x="256.914,264.831,269.727,274.945,277.868" svgx:width="0.88,0.55,0.58,0.33,0.58" style="fill:rgb(0,0,0);font-family:URWPalladioL-Roma;font-size:8.97px;stroke:none;">month</text>
   <text y="337.48" x="309.715,316.072,321.479,325.021,328.401,332.696,337.914" svgx:width="0.71,0.6,0.4,0.4,0.48,0.58,0.33" style="fill:rgb(0,0,0);font-family:URWPalladioL-Roma;font-size:8.97px;stroke:none;">Current</text>
   <text y="348.439" x="312.189,320.106,325.002,330.22,333.143" svgx:width="0.88,0.55,0.58,0.33,0.58" style="fill:rgb(0,0,0);font-family:URWPalladioL-Roma;font-size:8.97px;stroke:none;">month</text>
   <text y="337.48" x="364.99,371.347,376.754,380.296,383.676,387.971,393.189" svgx:width="0.71,0.6,0.4,0.4,0.48,0.58,0.33" style="fill:rgb(0,0,0);font-family:URWPalladioL-Roma;font-size:8.97px;stroke:none;">Current</text>
   <text y="348.439" x="367.465,375.382,380.278,385.496,388.419" svgx:width="0.88,0.55,0.58,0.33,0.58" style="fill:rgb(0,0,0);font-family:URWPalladioL-Roma;font-size:8.97px;stroke:none;">month</text>
   <text y="337.48" x="419.123,424.601,429.085,434.10819999999995,436.312,441.27,446.29319999999996,448.497" svgx:width="0.61,0.5,0.56,0.55,0.55,0.56,0.55,0.5" style="fill:rgb(0,0,0);font-family:URWPalladioL-Roma;font-size:8.97px;stroke:none;">Lag by 1</text>
   <text y="348.439" x="422.741,430.658,435.554,440.772,443.695" svgx:width="0.88,0.55,0.58,0.33,0.58" style="fill:rgb(0,0,0);font-family:URWPalladioL-Roma;font-size:8.97px;stroke:none;">month</text>
   <text y="337.48" x="475.541,481.898,487.305,490.847,494.227,498.522,503.74" svgx:width="0.71,0.6,0.4,0.4,0.48,0.58,0.33" style="fill:rgb(0,0,0);font-family:URWPalladioL-Roma;font-size:8.97px;stroke:none;">Current</text>
   <text y="348.439" x="478.016,485.933,490.829,496.047,498.97" svgx:width="0.88,0.55,0.58,0.33,0.58" style="fill:rgb(0,0,0);font-family:URWPalladioL-Roma;font-size:8.97px;stroke:none;">month</text>
  </g>
  <path style="fill:none;stroke:rgb(0,0,0);stroke-width:0.3;" d="M76.540 353.590 L518.740 353.590 "/>
  <g begin="text">
   <text y="364.199" x="88.038,94.028,98.322,100.932,105.415,108.338,110.947,116.013" svgx:width="0.67,0.48,0.29,0.5,0.33,0.29,0.56,0.48" style="fill:rgb(0,0,0);font-family:URWPalladioL-Roma;font-size:8.97px;stroke:none;">Relative</text>
   <text y="375.158" x="85.6,90.818,96.225,104.143,106.752,112.23,114.839,117.762" svgx:width="0.58,0.6,0.88,0.29,0.61,0.29,0.33,0.56" style="fill:rgb(0,0,0);font-family:URWPalladioL-Roma;font-size:8.97px;stroke:none;">humidity</text>
   <text y="364.199" x="142.52,147.998,152.482,157.5052,159.709,164.667,169.6902,171.894" svgx:width="0.61,0.5,0.56,0.55,0.55,0.56,0.55,0.5" style="fill:rgb(0,0,0);font-family:URWPalladioL-Roma;font-size:8.97px;stroke:none;">Lag by 2</text>
   <text y="375.158" x="144.462,152.379,157.275,162.493,165.416,170.635" svgx:width="0.88,0.55,0.58,0.33,0.58,0.42" style="fill:rgb(0,0,0);font-family:URWPalladioL-Roma;font-size:8.97px;stroke:none;">months</text>
   <text y="364.199" x="197.796,203.274,207.758,212.7812,214.985,219.943,224.96620000000001,227.17" svgx:width="0.61,0.5,0.56,0.55,0.55,0.56,0.55,0.5" style="fill:rgb(0,0,0);font-family:URWPalladioL-Roma;font-size:8.97px;stroke:none;">Lag by 2</text>
   <text y="375.158" x="199.737,207.654,212.55,217.768,220.691,225.91" svgx:width="0.88,0.55,0.58,0.33,0.58,0.42" style="fill:rgb(0,0,0);font-family:URWPalladioL-Roma;font-size:8.97px;stroke:none;">months</text>
   <text y="364.199" x="253.072,258.55,263.034,268.05719999999997,270.261,275.219,280.24219999999997,282.446" svgx:width="0.61,0.5,0.56,0.55,0.55,0.56,0.55,0.5" style="fill:rgb(0,0,0);font-family:URWPalladioL-Roma;font-size:8.97px;stroke:none;">Lag by 2</text>
   <text y="375.158" x="255.013,262.93,267.826,273.044,275.967,281.186" svgx:width="0.88,0.55,0.58,0.33,0.58,0.42" style="fill:rgb(0,0,0);font-family:URWPalladioL-Roma;font-size:8.97px;stroke:none;">months</text>
   <text y="364.199" x="308.347,313.825,318.309,323.3322,325.536,330.494,335.5172,337.721" svgx:width="0.61,0.5,0.56,0.55,0.55,0.56,0.55,0.5" style="fill:rgb(0,0,0);font-family:URWPalladioL-Roma;font-size:8.97px;stroke:none;">Lag by 2</text>
   <text y="375.158" x="310.288,318.205,323.101,328.319,331.242,336.461" svgx:width="0.88,0.55,0.58,0.33,0.58,0.42" style="fill:rgb(0,0,0);font-family:URWPalladioL-Roma;font-size:8.97px;stroke:none;">months</text>
   <text y="364.199" x="363.623,369.101,373.585,378.60819999999995,380.812,385.77,390.79319999999996,392.997" svgx:width="0.61,0.5,0.56,0.55,0.55,0.56,0.55,0.5" style="fill:rgb(0,0,0);font-family:URWPalladioL-Roma;font-size:8.97px;stroke:none;">Lag by 2</text>
   <text y="375.158" x="365.564,373.481,378.377,383.595,386.518,391.737" svgx:width="0.88,0.55,0.58,0.33,0.58,0.42" style="fill:rgb(0,0,0);font-family:URWPalladioL-Roma;font-size:8.97px;stroke:none;">months</text>
   <text y="364.199" x="418.898,424.376,428.86,433.8832,436.087,441.045,446.0682,448.272" svgx:width="0.61,0.5,0.56,0.55,0.55,0.56,0.55,0.5" style="fill:rgb(0,0,0);font-family:URWPalladioL-Roma;font-size:8.97px;stroke:none;">Lag by 2</text>
   <text y="375.158" x="420.84,428.757,433.653,438.871,441.794,447.013" svgx:width="0.88,0.55,0.58,0.33,0.58,0.42" style="fill:rgb(0,0,0);font-family:URWPalladioL-Roma;font-size:8.97px;stroke:none;">months</text>
   <text y="364.199" x="474.174,479.652,484.136,489.1592,491.363,496.321,501.3442,503.548" svgx:width="0.61,0.5,0.56,0.55,0.55,0.56,0.55,0.5" style="fill:rgb(0,0,0);font-family:URWPalladioL-Roma;font-size:8.97px;stroke:none;">Lag by 2</text>
   <text y="375.158" x="476.115,484.032,488.928,494.146,497.069,502.288" svgx:width="0.88,0.55,0.58,0.33,0.58,0.42" style="fill:rgb(0,0,0);font-family:URWPalladioL-Roma;font-size:8.97px;stroke:none;">months</text>
  </g>
  <path style="fill:none;stroke:rgb(0,0,0);stroke-width:0.3;" d="M76.540 380.310 L518.740 380.310 "/>
  <g begin="text">
   <text y="390.918" x="85.936,90.643,96.05,101.269,105.07,110.289,112.898,118.116" svgx:width="0.52,0.6,0.58,0.42,0.58,0.29,0.58,0.48" style="fill:rgb(0,0,0);font-family:URWPalladioL-Roma;font-size:8.97px;stroke:none;">Sunshine</text>
   <text y="401.877" x="86.895,92.373,97.78,101.322,105.805,108.728,111.337,116.233" svgx:width="0.61,0.6,0.4,0.5,0.33,0.29,0.55,0.58" style="fill:rgb(0,0,0);font-family:URWPalladioL-Roma;font-size:8.97px;stroke:none;">duration</text>
   <text y="390.918" x="142.52,147.998,152.482,157.5052,159.709,164.667,169.6902,171.894" svgx:width="0.61,0.5,0.56,0.55,0.55,0.56,0.55,0.5" style="fill:rgb(0,0,0);font-family:URWPalladioL-Roma;font-size:8.97px;stroke:none;">Lag by 3</text>
   <text y="401.877" x="144.462,152.379,157.275,162.493,165.416,170.635" svgx:width="0.88,0.55,0.58,0.33,0.58,0.42" style="fill:rgb(0,0,0);font-family:URWPalladioL-Roma;font-size:8.97px;stroke:none;">months</text>
   <text y="390.918" x="197.796,203.274,207.758,212.7812,214.985,219.943,224.96620000000001,227.17" svgx:width="0.61,0.5,0.56,0.55,0.55,0.56,0.55,0.5" style="fill:rgb(0,0,0);font-family:URWPalladioL-Roma;font-size:8.97px;stroke:none;">Lag by 3</text>
   <text y="401.877" x="199.737,207.654,212.55,217.768,220.691,225.91" svgx:width="0.88,0.55,0.58,0.33,0.58,0.42" style="fill:rgb(0,0,0);font-family:URWPalladioL-Roma;font-size:8.97px;stroke:none;">months</text>
   <text y="390.918" x="253.072,258.55,263.034,268.05719999999997,270.261,275.219,280.24219999999997,282.446" svgx:width="0.61,0.5,0.56,0.55,0.55,0.56,0.55,0.5" style="fill:rgb(0,0,0);font-family:URWPalladioL-Roma;font-size:8.97px;stroke:none;">Lag by 3</text>
   <text y="401.877" x="255.013,262.93,267.826,273.044,275.967,281.186" svgx:width="0.88,0.55,0.58,0.33,0.58,0.42" style="fill:rgb(0,0,0);font-family:URWPalladioL-Roma;font-size:8.97px;stroke:none;">months</text>
   <text y="390.918" x="308.347,313.825,318.309,323.3322,325.536,330.494,335.5172,337.721" svgx:width="0.61,0.5,0.56,0.55,0.55,0.56,0.55,0.5" style="fill:rgb(0,0,0);font-family:URWPalladioL-Roma;font-size:8.97px;stroke:none;">Lag by 3</text>
   <text y="401.877" x="310.288,318.205,323.101,328.319,331.242,336.461" svgx:width="0.88,0.55,0.58,0.33,0.58,0.42" style="fill:rgb(0,0,0);font-family:URWPalladioL-Roma;font-size:8.97px;stroke:none;">months</text>
   <text y="390.918" x="363.623,369.101,373.585,378.60819999999995,380.812,385.77,390.79319999999996,392.997" svgx:width="0.61,0.5,0.56,0.55,0.55,0.56,0.55,0.5" style="fill:rgb(0,0,0);font-family:URWPalladioL-Roma;font-size:8.97px;stroke:none;">Lag by 3</text>
   <text y="401.877" x="365.564,373.481,378.377,383.595,386.518,391.737" svgx:width="0.88,0.55,0.58,0.33,0.58,0.42" style="fill:rgb(0,0,0);font-family:URWPalladioL-Roma;font-size:8.97px;stroke:none;">months</text>
   <text y="390.918" x="418.898,424.376,428.86,433.8832,436.087,441.045,446.0682,448.272" svgx:width="0.61,0.5,0.56,0.55,0.55,0.56,0.55,0.5" style="fill:rgb(0,0,0);font-family:URWPalladioL-Roma;font-size:8.97px;stroke:none;">Lag by 3</text>
   <text y="401.877" x="420.84,428.757,433.653,438.871,441.794,447.013" svgx:width="0.88,0.55,0.58,0.33,0.58,0.42" style="fill:rgb(0,0,0);font-family:URWPalladioL-Roma;font-size:8.97px;stroke:none;">months</text>
   <text y="390.918" x="474.174,479.652,484.136,489.1592,491.363,496.321,501.3442,503.548" svgx:width="0.61,0.5,0.56,0.55,0.55,0.56,0.55,0.5" style="fill:rgb(0,0,0);font-family:URWPalladioL-Roma;font-size:8.97px;stroke:none;">Lag by 3</text>
   <text y="401.877" x="476.115,484.032,488.928,494.146,497.069,502.288" svgx:width="0.88,0.55,0.58,0.33,0.58,0.42" style="fill:rgb(0,0,0);font-family:URWPalladioL-Roma;font-size:8.97px;stroke:none;">months</text>
  </g>
  <path style="fill:none;stroke:rgb(0,0,0);stroke-width:0.3;" d="M76.540 407.280 L518.740 407.280 "/>
  <g begin="text">
   <text y="430.89" x="76.535,81.516,84.007,88.988,91.478,94.966,102.159,107.698,112.121,114.891,119.872,123.748,126.517,130.4014,132.883,137.307,140.0958,142.567,150.318,158.069,165.262,168.5488,171.07,177.715,181.591,185.466,190.447,194.871,200.41,204.285,208.1694,210.652,213.969,218.35139999999998,220.883,227.528,230.298,233.067,240.818,245.242,248.559,251.329,255.4126,257.874,263.413,267.837,271.892,275.209,279.633,283.508,287.3924,289.874,292.644,298.2216,300.674,307.867,311.563,315.986,323.179,325.949,331.488,336.468,338.96,344.499,348.375,352.798,356.673,361.097" svgx:width="0.5,0.25,0.5,0.25,0.55,0.72,0.56,0.44,0.28,0.5,0.39,0.28,0.39,0.55,0.44,0.28,0.55,0.78,0.78,0.72,0.33,0.55,0.67,0.39,0.39,0.5,0.44,0.56,0.39,0.39,0.55,0.33,0.44,0.55,0.67,0.28,0.28,0.78,0.44,0.33,0.28,0.41,0.55,0.56,0.44,0.41,0.33,0.44,0.39,0.39,0.55,0.28,0.56,0.55,0.72,0.39,0.44,0.72,0.28,0.56,0.5,0.55,0.56,0.39,0.44,0.39,0.44,0.56" style="fill:rgb(0,0,0);font-family:URWPalladioL-Ital;font-size:9.96px;stroke:none;">3.5. Analysis of NDVI Response to Climatic Factors in Growing Season</text>
   <text y="450.377" x="97.795,104.004,109.085,113.393,118.261,124.33659999999999,127.396,132.945,138.7218,141.776,145.088,151.002,155.7828,158.797,162.628,167.495,171.804,177.931,180.888,184.201,188.3842,191.436,196.985,200.2718,203.285,206.598,212.512,217.2928,220.306,223.263,228.344,233.92159999999998,236.911,240.752,245.619,249.928,256.035,261.584,267.498,271.807,276.5878,279.591,284.671,290.586,295.667,298.624,304.274,308.582,311.539,315.848,318.338,321.427,324.74,330.654,335.4348,338.438,341.751,347.299,350.612,355.693,358.5814,361.576,364.889,367.846,376.819,381.5998,384.603,390.71,395.578,399.592,402.549,408.097,414.1726,417.233,420.617,425.698,430.779,435.86,440.94,446.021,451.102,456.183,461.264,466.345,469.63180000000006,472.645,475.603,479.7862,482.838,487.146,492.014,494.971,499.839,504.35,507.663,512.531" svgx:width="0.61,0.5,0.42,0.48,0.61,0.55,0.55,0.58,0.55,0.33,0.58,0.48,0.55,0.4,0.48,0.42,0.6,0.29,0.33,0.42,0.55,0.55,0.33,0.55,0.33,0.58,0.48,0.55,0.29,0.5,0.56,0.55,0.4,0.48,0.42,0.6,0.55,0.58,0.42,0.48,0.55,0.5,0.58,0.5,0.29,0.56,0.42,0.29,0.42,0.25,0.55,0.33,0.58,0.48,0.55,0.33,0.55,0.33,0.5,0.29,0.55,0.33,0.29,0.88,0.48,0.55,0.6,0.48,0.4,0.29,0.55,0.61,0.55,0.33,0.5,0.5,0.5,0.5,0.5,0.5,0.5,0.5,0.5,0.33,0.55,0.29,0.42,0.55,0.42,0.48,0.29,0.48,0.44,0.33,0.48,0.61" style="fill:rgb(0,0,0);font-family:URWPalladioL-Roma;font-size:9.96px;stroke:none;">Based on the results of the lag response analysis, the total time period (2001–2017) is selected</text>
   <text y="463.887" x="76.535,79.832,85.30999999999999,87.83,92.886,98.771,103.827,106.77,112.392,117.448,122.22879999999999,124.769,128.066,133.951,138.7318,141.272,145.085,149.928,154.216,160.293,165.814,171.699,175.987,180.7678,183.308,188.829,192.1158,194.674,203.077,210.904,218.205,221.59140000000002,224.09,227.386,232.864,235.385,239.875,242.817,245.76,254.689,259.745,263.042,265.984,270.3664,272.951,276.319,281.375,285.864,289.161,294.682,298.676,302.964,305.454,308.97,315.169,321.054,325.8348,328.375,332.865,338.386,342.381,346.203,351.036,353.979,359.035,362.332,365.274,370.795,376.5718,379.158,384.214,390.099,395.155,398.098,403.72,408.008,410.95,415.1332,417.715,423.307,428.151,431.447,439.881,444.725,449.568,455.34479999999996,457.931,466.334,474.161,481.462,484.84839999999997,487.347,492.403,498.288,504.3636,506.944,512.0,514.943" svgx:width="0.33,0.55,0.55,0.5,0.58,0.5,0.29,0.56,0.5,0.48,0.55,0.33,0.58,0.48,0.55,0.4,0.48,0.42,0.6,0.55,0.58,0.42,0.48,0.55,0.55,0.33,0.55,0.83,0.77,0.72,0.34,0.55,0.33,0.55,0.55,0.44,0.29,0.29,0.88,0.5,0.33,0.29,0.44,0.55,0.33,0.5,0.44,0.33,0.55,0.4,0.42,0.25,0.55,0.61,0.58,0.48,0.55,0.44,0.55,0.4,0.4,0.48,0.29,0.5,0.33,0.29,0.55,0.58,0.55,0.5,0.58,0.5,0.29,0.56,0.42,0.29,0.42,0.55,0.55,0.48,0.33,0.83,0.48,0.48,0.58,0.55,0.83,0.77,0.72,0.34,0.55,0.5,0.58,0.61,0.55,0.5,0.29,0.4" style="fill:rgb(0,0,0);font-family:URWPalladioL-Roma;font-size:9.96px;stroke:none;">to analyze the response of NDVI to climatic factors. The correlation analysis between NDVI and air</text>
   <text y="477.396" x="76.535,79.799,84.595,93.436,99.453,104.249,108.204,113.21,116.475,122.512,126.287,131.0678,133.576,136.489,142.2658,144.81,148.064,153.891,158.6718,161.18,165.425,168.689,174.727,180.844,186.42159999999998,188.904,193.911,197.685,202.481,207.46099999999998,209.98,213.315,218.881,221.795,227.362,233.399,237.174" svgx:width="0.33,0.48,0.88,0.6,0.48,0.4,0.5,0.33,0.6,0.4,0.48,0.55,0.29,0.58,0.55,0.33,0.58,0.48,0.55,0.42,0.33,0.6,0.61,0.56,0.55,0.5,0.4,0.48,0.5,0.55,0.33,0.56,0.29,0.56,0.6,0.4,0.48" style="fill:rgb(0,0,0);font-family:URWPalladioL-Roma;font-size:9.96px;stroke:none;">temperature in the study area (Figure</text>
   <text y="477.396" x="244.463" svgx:width="0.5" style="fill:rgb(8,117,183);font-family:URWPalladioL-Roma;font-size:9.96px;stroke:none;">8</text>
   <text y="477.396" x="249.469,254.476,257.7628,260.293,264.538,270.365,275.832,284.182,288.3652,290.921,294.185,300.012,305.018,308.3048,310.775,314.039,319.867,324.6478,327.146,334.785,341.473,349.1422,351.716,357.253,362.049,365.313,373.663,378.459,383.255,389.0318,391.576,399.896,407.646,414.874,418.2604,420.732,425.738,431.565,437.6406,440.176,445.182,448.096,452.08,454.544,457.808,462.604,471.445,477.462,482.258,486.213,491.219,494.483,500.521,504.295,509.0758,511.584,514.498" svgx:width="0.5,0.33,0.55,0.42,0.58,0.55,0.83,0.42,0.55,0.33,0.58,0.5,0.33,0.55,0.33,0.58,0.48,0.55,0.76,0.67,0.77,0.55,0.55,0.48,0.33,0.83,0.48,0.48,0.58,0.55,0.83,0.77,0.72,0.34,0.55,0.5,0.58,0.61,0.55,0.5,0.29,0.4,0.55,0.33,0.48,0.88,0.6,0.48,0.4,0.5,0.33,0.6,0.4,0.48,0.55,0.29,0.42" style="fill:rgb(0,0,0);font-family:URWPalladioL-Roma;font-size:9.96px;stroke:none;">a) shows that the GRD between NDVI and air temperature is</text>
   <text y="490.905" x="76.535,82.011,86.755,89.983,98.242,102.985,107.729,113.5058,115.988,120.939,123.415,128.366,133.318,138.298,140.775,145.726,151.49,157.56560000000002,160.036,164.987,167.463,172.414,177.366,182.317,184.80700000000002,187.288,195.547,198.429,201.657,207.43380000000002,209.926,214.878,220.6548,223.136,228.088,233.683,238.426,242.338,247.289,252.795,257.5758,260.034,265.441,268.7278,271.234,276.186,278.662,283.613,288.564,293.516,296.00600000000003,299.507,305.578,311.341,316.1218,318.58,324.343,327.225,332.731,338.495,341.792,347.387,352.339,355.22,361.192,365.9728,368.431" svgx:width="0.55,0.48,0.33,0.83,0.48,0.48,0.58,0.55,0.5,0.25,0.5,0.5,0.5,0.55,0.5,0.58,0.61,0.55,0.5,0.25,0.5,0.5,0.5,0.25,0.55,0.83,0.29,0.33,0.58,0.55,0.5,0.58,0.55,0.5,0.56,0.48,0.4,0.5,0.56,0.48,0.55,0.55,0.33,0.55,0.5,0.25,0.5,0.5,0.5,0.25,0.55,0.61,0.58,0.48,0.55,0.58,0.29,0.56,0.58,0.33,0.56,0.5,0.29,0.6,0.48,0.55,0.33" style="fill:rgb(0,0,0);font-family:URWPalladioL-Roma;font-size:9.96px;stroke:none;">between 0.394 and 0.944, with an average of 0.613. The high-value (</text>
   <text y="490.905" x="371.733" svgx:width="0.67" style="fill:rgb(0,0,0);font-family:Rpxr;font-size:9.96px;stroke:none;">&gt;</text>
   <text y="490.905" x="378.358,383.309,385.785,390.737,395.688,400.639,403.92580000000004,406.433,411.384,415.117,419.861,424.841,427.308,430.189,434.3722,436.894,445.638,450.589,453.471,459.234,462.116,467.6936,470.118,476.168,479.05,483.249,486.477,490.389,493.27,498.747,504.718,507.946,512.69" svgx:width="0.5,0.25,0.5,0.5,0.5,0.33,0.55,0.5,0.4,0.48,0.5,0.55,0.29,0.42,0.55,0.88,0.5,0.29,0.58,0.29,0.56,0.55,0.61,0.29,0.42,0.33,0.4,0.29,0.55,0.6,0.33,0.48,0.61" style="fill:rgb(0,0,0);font-family:URWPalladioL-Roma;font-size:9.96px;stroke:none;">0.613) area is mainly distributed</text>
   <text y="504.415" x="76.535,79.449,85.22579999999999,87.759,91.023,96.85,101.6308,104.129,108.374,111.639,117.676,123.794,129.3716,131.854,136.86,140.634,145.43,150.41,152.92,157.926,161.2128,163.673,166.937,172.764,177.5448,180.043,182.386,188.424,194.251,198.696,201.961,204.874,210.341,216.11780000000002,218.661,224.128,227.41479999999999,229.945,233.209,239.037,243.8178,246.316,251.572,254.486,258.931,264.758,270.796,275.802,281.5788,284.112,289.119,294.946,301.02160000000003,303.546,311.416,314.33,320.157,325.724,331.551,336.557,339.4454,341.964,347.981,351.756,357.223,362.88,365.794,371.621,376.066,380.862,385.107,387.59700000000004,390.094,393.358,399.185,403.9658,406.464,410.91,415.705,421.533,424.797,428.752,433.758,436.64639999999997,439.155,444.161,449.988,456.0636,458.599,462.844,468.311,474.348,477.602,483.429,488.225,492.18,497.9568,500.501,506.518,511.524,515.479" svgx:width="0.29,0.58,0.55,0.33,0.58,0.48,0.55,0.42,0.33,0.6,0.61,0.56,0.55,0.5,0.4,0.48,0.5,0.55,0.5,0.33,0.55,0.33,0.58,0.48,0.55,0.23,0.6,0.58,0.44,0.33,0.29,0.55,0.58,0.55,0.55,0.33,0.55,0.33,0.58,0.48,0.55,0.52,0.29,0.44,0.58,0.6,0.5,0.58,0.55,0.5,0.58,0.61,0.55,0.79,0.29,0.58,0.56,0.58,0.5,0.29,0.55,0.6,0.4,0.55,0.56,0.29,0.58,0.44,0.48,0.42,0.25,0.55,0.33,0.58,0.48,0.55,0.44,0.48,0.58,0.33,0.4,0.5,0.29,0.55,0.5,0.58,0.61,0.55,0.42,0.55,0.6,0.33,0.58,0.48,0.4,0.58,0.55,0.6,0.5,0.4,0.33" style="fill:rgb(0,0,0);font-family:URWPalladioL-Roma;font-size:9.96px;stroke:none;">in the study area at the junction of the Sichuan and Qinghai provinces, the central and southern part</text>
   <text y="517.924" x="76.535,82.083,85.3698,88.445,96.432,99.389,105.303,110.953,116.867,121.948,124.8364,127.883,132.964,138.878,144.9536,148.064,151.377,157.291,162.0718,165.136,169.648,174.516,180.43,183.743,187.756,192.837,195.72539999999998,198.772,203.853,209.767,215.8426,218.953,223.262,228.81,234.938,238.251,244.165,249.032,253.046,258.8228,261.938,268.045,273.126,277.14,280.4268,283.43,288.979,292.2658,295.34,301.02,303.978,309.597,314.465,317.777,320.267,325.267,331.496,337.41,342.1908,345.255,350.996,355.864,361.514,366.381,369.694,374.775,378.088,381.045,386.593,392.3698,395.485,398.798,404.448,410.555,415.423,419.6062,422.709,427.79,431.631,436.41179999999997,439.476,448.449,453.529,456.487,462.401,465.358,470.9356,473.985,482.958,487.826,492.907,499.116,504.664,513.139,517.448" svgx:width="0.55,0.33,0.55,0.79,0.29,0.58,0.56,0.58,0.5,0.29,0.55,0.5,0.58,0.61,0.55,0.33,0.58,0.48,0.55,0.44,0.48,0.58,0.33,0.4,0.5,0.29,0.55,0.5,0.58,0.61,0.55,0.42,0.55,0.6,0.33,0.58,0.48,0.4,0.58,0.55,0.6,0.5,0.4,0.33,0.55,0.55,0.33,0.55,0.61,0.29,0.55,0.48,0.33,0.25,0.55,0.61,0.58,0.48,0.55,0.56,0.48,0.56,0.48,0.33,0.5,0.33,0.29,0.55,0.58,0.55,0.33,0.56,0.6,0.48,0.42,0.55,0.5,0.4,0.48,0.55,0.88,0.5,0.29,0.58,0.29,0.56,0.55,0.88,0.48,0.5,0.61,0.55,0.83,0.42,0.25" style="fill:rgb(0,0,0);font-family:URWPalladioL-Roma;font-size:9.96px;stroke:none;">of Qinghai and the central and southern part of Tibet. The vegetation types are mainly meadows,</text>
   <text y="531.434" x="76.535,82.185,86.199,91.28,95.588,99.897,102.854,107.935,113.849,120.058,124.367,126.857,130.718,135.23,140.778,146.692,149.65,153.033,157.901,161.732,167.28,173.408,177.5912,181.263,184.647,190.195,194.026,198.894,203.202,206.515,210.824,213.31400000000002,217.175,222.795,226.626,232.174,237.255,243.464,246.848,249.805,254.672,259.753,265.495,270.362,276.43760000000003,280.118,283.501,289.05,292.881,297.748,302.057,305.37,309.678,312.168,316.03,321.111,324.068,330.175,333.132,339.046,343.8268,347.45,353.191,358.059,363.709,368.576,371.889,376.97,380.283,383.24,388.788,394.5648,398.249,403.33,409.244,415.31960000000004,419.0,423.308,428.786,432.393,437.941,443.855,446.345,453.052,459.281,465.195,469.9758,473.599,476.556,482.105,490.58,493.964,499.705,504.786,507.743,513.871" svgx:width="0.56,0.4,0.5,0.42,0.42,0.29,0.5,0.58,0.61,0.42,0.25,0.55,0.44,0.55,0.58,0.29,0.33,0.48,0.4,0.55,0.6,0.42,0.55,0.33,0.55,0.4,0.48,0.42,0.33,0.42,0.25,0.55,0.55,0.4,0.55,0.5,0.61,0.33,0.29,0.48,0.5,0.56,0.48,0.61,0.55,0.33,0.55,0.4,0.48,0.42,0.33,0.42,0.25,0.55,0.5,0.29,0.6,0.29,0.58,0.48,0.55,0.56,0.48,0.56,0.48,0.33,0.5,0.33,0.29,0.55,0.58,0.55,0.5,0.58,0.61,0.55,0.42,0.55,0.55,0.55,0.58,0.25,0.55,0.61,0.58,0.48,0.55,0.29,0.55,0.83,0.33,0.56,0.5,0.29,0.6,0.48" style="fill:rgb(0,0,0);font-family:URWPalladioL-Roma;font-size:9.96px;stroke:none;">grasslands, coniferous forests, broad-leaved forests, alpine vegetation and so on. The low-value</text>
   <text y="544.943" x="76.207" svgx:width="0.33" style="fill:rgb(0,0,0);font-family:URWPalladioL-Roma;font-size:9.96px;stroke:none;">(</text>
   <text y="544.943" x="79.571" svgx:width="0.67" style="fill:rgb(0,0,0);font-family:Rpxr;font-size:9.96px;stroke:none;">&lt;</text>
   <text y="544.943" x="86.329,91.38,93.906,98.957,104.008,109.059,112.3458,114.908,119.959,123.767,128.606,133.58599999999998,136.142,139.082,143.2652,145.85,154.771,159.822,162.761,168.641,171.58,177.1576,179.692,185.865,188.804,193.088,196.381,200.371,203.311,208.897,214.979,218.272,223.111,229.1866,231.779,236.83,240.1168,242.608,245.901,251.781,256.5618,259.105,261.469,267.56,273.44,277.925,281.218,284.158,289.674,295.45079999999996,298.038,303.554,306.8408,309.403,315.05,317.99,323.576,328.415,331.708,334.19800000000004,336.719,342.023,344.962,349.448,355.327,361.419,366.47,372.2468,374.834,379.885,385.764,391.8396,394.422,402.362,405.302,411.181,416.798,422.677,427.728,430.668,433.158,435.679,440.73,446.609,452.6846,455.267,458.56,464.439,469.2198,471.763,477.471,482.31,487.927,492.766,496.059,501.11,504.403,507.343,512.859" svgx:width="0.5,0.25,0.5,0.5,0.5,0.33,0.55,0.5,0.4,0.48,0.5,0.55,0.29,0.42,0.55,0.88,0.5,0.29,0.58,0.29,0.56,0.55,0.61,0.29,0.42,0.33,0.4,0.29,0.55,0.6,0.33,0.48,0.61,0.55,0.5,0.33,0.55,0.33,0.58,0.48,0.55,0.23,0.6,0.58,0.44,0.33,0.29,0.55,0.58,0.55,0.55,0.33,0.55,0.61,0.29,0.55,0.48,0.33,0.25,0.55,0.52,0.29,0.44,0.58,0.6,0.5,0.58,0.55,0.5,0.58,0.61,0.55,0.79,0.29,0.58,0.56,0.58,0.5,0.29,0.25,0.55,0.5,0.58,0.61,0.55,0.33,0.58,0.48,0.55,0.56,0.48,0.56,0.48,0.33,0.5,0.33,0.29,0.55,0.58" style="fill:rgb(0,0,0);font-family:URWPalladioL-Roma;font-size:9.96px;stroke:none;">0.613) area is mainly distributed at the junction of Tibet, Sichuan and Qinghai, and the vegetation</text>
   <text y="558.452" x="76.535,79.783,85.322,91.31,96.082,100.2652,102.796,107.778,111.534,116.3148,118.796,127.593,132.575,135.474,141.272,144.171,149.74859999999998,152.201,160.998,165.77,170.751,176.838,182.278,190.587,194.7702,197.302,202.283,208.081,214.1566,216.659,220.883,226.681,230.537,236.544,242.054,246.278" svgx:width="0.33,0.56,0.6,0.48,0.42,0.55,0.5,0.4,0.48,0.55,0.88,0.5,0.29,0.58,0.29,0.56,0.55,0.88,0.48,0.5,0.61,0.55,0.83,0.42,0.55,0.5,0.58,0.61,0.55,0.42,0.58,0.4,0.6,0.55,0.42,0.25" style="fill:rgb(0,0,0);font-family:URWPalladioL-Roma;font-size:9.96px;stroke:none;">types are mainly meadows and shrubs.</text>
  </g>
 </g>
</svg>
