<?xml version="1.0" encoding="UTF-8"?>
<svg height="772.693" width="530.533" xmlns="http://www.w3.org/2000/svg">
 <g id="page" xmlns:svgx="http://www.xml-cml.org/schema/svgx">
  <g begin="text">
   <text y="62.979" x="76.535,79.189,83.62,86.274,88.26650000000001,91.057,93.711,95.7035,97.696,102.565,106.997,110.982,113.197,116.154,119.693,124.124,126.1165,128.907,134.223,137.323,140.423,142.4155,145.205,150.075,154.507,158.197,160.412,162.628,165.89569999999998,167.864,174.065,177.165,180.704,182.92,185.574" svgx:width="0.33,0.56,0.33,0.25,0.55,0.33,0.25,0.55,0.61,0.56,0.5,0.28,0.39,0.44,0.56,0.25,0.55,0.67,0.39,0.39,0.25,0.55,0.61,0.56,0.46,0.28,0.28,0.41,0.55,0.78,0.39,0.44,0.28,0.33,0.5" style="fill:rgb(0,0,0);font-family:URWPalladioL-Ital;font-size:7.97px;stroke:none;">Int. J. Environ. Res. Public Health</text>
   <text y="62.979" x="191.551,195.536,199.521,203.506" svgx:width="0.5,0.5,0.5,0.5" style="fill:rgb(0,0,0);font-family:URWPalladioL-Bold;font-size:7.97px;stroke:none;">2019</text>
   <text y="62.979" x="207.491" svgx:width="0.25" style="fill:rgb(0,0,0);font-family:URWPalladioL-Roma;font-size:7.97px;stroke:none;">,</text>
   <text y="62.979" x="211.476,215.461" svgx:width="0.5,0.5" style="fill:rgb(0,0,0);font-family:URWPalladioL-Ital;font-size:7.97px;stroke:none;">16</text>
   <text y="62.979" x="219.446,221.4385,223.431,227.416,231.401,235.386,239.371,495.793,499.778,501.771,506.123,508.7531,510.769,514.754" svgx:width="0.25,0.55,0.5,0.5,0.5,0.5,0.55,0.5,0.55,0.55,0.33,0.55,0.5,0.5" style="fill:rgb(0,0,0);font-family:URWPalladioL-Roma;font-size:7.97px;stroke:none;">, 3452 2 of 21</text>
   <text y="97.848" x="82.205,89.956,94.937,100.476,108.775,114.314,118.19,124.277,128.7" svgx:width="0.78,0.5,0.56,0.83,0.56,0.39,0.61,0.44,0.25" style="fill:rgb(0,0,0);font-family:URWPalladioL-Bold;font-size:9.96px;stroke:none;">Keywords:</text>
   <text y="97.848" x="134.657,142.77,150.327,157.376,160.667,163.157,165.558,169.893,172.734,175.575,184.196,189.078,192.261,197.0418,199.388,203.723,209.405,214.287,219.969,225.398,230.074,232.56400000000002,234.975,244.212,250.099,252.94,256.123,258.964,264.832,267.673,272.4538,274.8,282.913,287.59,291.73,294.913,299.589,305.6646,308.005,313.434,316.275,324.896,329.572,333.7552,336.163,341.288,345.965,349.822,352.663,357.339,361.5222,363.93,371.525,377.208,382.089,384.931,390.359,394.499,397.34,401.5232,403.93,407.181,416.417,424.531,430.516,435.641,443.237,446.488,448.978,451.38,458.829,462.5,467.177,472.75460000000004,475.056,481.578,486.254,489.096,493.977,497.16,500.001,505.332,511.014,515.896" svgx:width="0.83,0.77,0.72,0.34,0.25,0.55,0.44,0.29,0.29,0.88,0.5,0.33,0.48,0.55,0.44,0.58,0.5,0.58,0.56,0.48,0.25,0.55,0.95,0.6,0.29,0.33,0.29,0.6,0.29,0.48,0.55,0.83,0.48,0.42,0.33,0.48,0.61,0.55,0.61,0.29,0.88,0.48,0.42,0.55,0.52,0.48,0.4,0.29,0.48,0.42,0.55,0.78,0.58,0.5,0.29,0.56,0.42,0.29,0.42,0.55,0.33,0.95,0.83,0.61,0.52,0.78,0.33,0.25,0.55,0.76,0.4,0.48,0.56,0.55,0.67,0.48,0.29,0.5,0.33,0.29,0.55,0.58,0.5,0.29" style="fill:rgb(0,0,0);font-family:URWPalladioL-Roma;font-size:9.96px;stroke:none;">NDVI; climate change; Multiple Nested Times Series Analysis (MNTSA); Grey Relational</text>
   <text y="111.358" x="81.816,89.567,95.365,100.346,103.246,108.785,113.009,115.908,120.0912,122.623,125.94,133.542,140.197,147.948,151.265,153.755,156.247,161.806,164.705,170.214,174.986,178.234,183.215,188.9918,191.504,197.522,200.421,205.402,208.65,213.422,218.403" svgx:width="0.78,0.58,0.5,0.29,0.56,0.42,0.29,0.42,0.55,0.33,0.76,0.67,0.78,0.33,0.25,0.55,0.61,0.29,0.55,0.48,0.33,0.5,0.58,0.55,0.6,0.29,0.5,0.33,0.48,0.5,0.6" style="fill:rgb(0,0,0);font-family:URWPalladioL-Roma;font-size:9.96px;stroke:none;">Analysis (GRA); Tibetan Plateau</text>
  </g>
  <path style="fill:none;stroke:rgb(0,0,0);stroke-width:1.0;" d="M76.540 130.310 L518.740 130.310 "/>
  <g begin="text">
   <text y="162.302" x="76.535,81.516,84.006,87.494,91.369,97.456,100.774,104.649,110.189,116.276,122.363,126.786,130.104,133.421,138.961" svgx:width="0.5,0.25,0.55,0.39,0.61,0.33,0.39,0.56,0.61,0.61,0.44,0.33,0.33,0.56,0.61" style="fill:rgb(0,0,0);font-family:URWPalladioL-Bold;font-size:9.96px;stroke:none;">1. Introduction</text>
   <text y="181.789" x="97.795,103.78,109.462,114.2428,116.599,124.049,126.89,132.221,137.62,142.501,145.3894,147.803,154.725,157.566,160.407,169.028,173.91,177.093,181.8738,184.23,191.152,196.834,201.716,207.398,212.827,217.6078,219.964,224.845,230.528,236.6036,238.953,244.021,248.697,252.554,256.235,260.911,265.051,268.234,272.09,274.931,279.813,282.7014,285.115,291.08,295.415,300.746,304.885,310.314,314.453,317.636,322.313,333.394,336.645,344.095,351.017,357.002,362.967,366.2538,368.679,371.52,375.7032,378.12,383.451,389.133,393.9138,396.27,401.601,404.8878,407.312,410.495,416.178,420.9588,423.315,427.65,432.98,436.661,441.4418,443.798,447.469,452.146,456.285,460.962,465.844,469.524,473.859,479.63579999999996,482.002,485.185,490.516,496.383,499.225,503.56,507.7432,510.16,515.49" svgx:width="0.61,0.58,0.48,0.55,0.76,0.29,0.55,0.55,0.5,0.29,0.55,0.71,0.29,0.29,0.88,0.5,0.33,0.48,0.55,0.71,0.58,0.5,0.58,0.56,0.48,0.55,0.5,0.58,0.61,0.55,0.61,0.48,0.4,0.4,0.48,0.42,0.33,0.4,0.29,0.5,0.29,0.55,0.61,0.44,0.55,0.42,0.56,0.42,0.33,0.48,0.88,0.33,0.76,0.71,0.61,0.61,0.33,0.55,0.29,0.42,0.55,0.55,0.58,0.48,0.55,0.55,0.33,0.55,0.33,0.58,0.48,0.55,0.44,0.55,0.4,0.48,0.55,0.4,0.48,0.42,0.48,0.5,0.4,0.44,0.58,0.55,0.33,0.55,0.6,0.29,0.44,0.42,0.55,0.55,0.33" style="fill:rgb(0,0,0);font-family:URWPalladioL-Roma;font-size:9.96px;stroke:none;">The Global Climate Change and Terrestrial Ecosystem(GCTE) is one of the core research topics of</text>
   <text y="195.298" x="76.535,79.718,85.4,90.1808,92.449,95.74,101.422,104.605,109.281,113.138,118.82,123.702,126.885,129.726,135.057,140.739,145.62,148.5084,150.824,158.274,162.95,168.281,172.421,178.289,183.971,188.648,192.328,197.1088,199.368,205.333,208.174,213.505,217.645,223.512,229.195,233.871,237.552,242.3328,244.592,250.489,254.169,259.5,264.929,268.785,273.667,282.288,290.909,295.6898,297.958,301.209,304.499,311.949,317.914,323.811,327.063,329.553,331.866,340.009,345.691,348.532,352.867,358.6438,360.922,366.604,371.486,375.6692,377.988,381.669,386.346,390.681,395.357,398.198,403.715,408.391,414.4666,416.719,422.148,425.829,430.505,435.387,438.6738,440.942,445.824,449.007,452.19,456.866,462.549,465.731,468.573,473.903,479.6798,481.948,485.2,488.88,494.211,505.195,508.378,514.06" svgx:width="0.33,0.58,0.48,0.55,0.34,0.58,0.33,0.48,0.4,0.58,0.5,0.33,0.29,0.55,0.58,0.5,0.29,0.55,0.76,0.48,0.55,0.42,0.6,0.58,0.48,0.4,0.48,0.55,0.61,0.29,0.55,0.42,0.6,0.58,0.48,0.4,0.48,0.55,0.6,0.4,0.55,0.56,0.4,0.5,0.88,0.88,0.48,0.55,0.33,0.34,0.76,0.61,0.6,0.33,0.25,0.55,0.83,0.58,0.29,0.44,0.58,0.55,0.58,0.5,0.42,0.55,0.4,0.48,0.44,0.48,0.29,0.56,0.48,0.61,0.55,0.56,0.4,0.48,0.5,0.33,0.55,0.5,0.33,0.33,0.48,0.58,0.33,0.29,0.55,0.58,0.55,0.33,0.4,0.55,0.88,0.33,0.58,0.48" style="fill:rgb(0,0,0);font-family:URWPalladioL-Roma;font-size:9.96px;stroke:none;">the International Geosphere Biosphere Programme (IGBP), which has received great attention fromthe</text>
   <text y="208.807" x="76.535,79.463,85.319,88.6,93.419,97.394,103.25,108.281,111.562,114.49,119.984,125.84,130.871,133.7594,136.285,140.551,145.019,147.947,152.756,158.613,161.893,164.821,170.909,175.29139999999998,177.862,182.329,187.823,196.708,205.593,211.661,217.517,220.445,223.725,229.30259999999998,231.805,236.836,241.0192,243.578,251.97,256.79,259.718,262.6064,265.131,270.162,274.3452,276.904,280.184,286.041,290.8218,293.346,296.274,302.13,305.41,310.23,314.205,320.061,325.092,328.372,331.3,336.794,342.651,347.682,350.5704,353.085,357.553,363.047,371.932,380.817,386.884,392.74,395.668,398.949,404.52660000000003,407.029,409.957,415.7338,418.288,423.883,428.703,434.559,439.379,443.353,448.384,451.2724,453.798" svgx:width="0.29,0.58,0.33,0.48,0.4,0.58,0.5,0.33,0.29,0.55,0.58,0.5,0.29,0.55,0.42,0.44,0.29,0.48,0.58,0.33,0.29,0.61,0.44,0.55,0.44,0.55,0.88,0.88,0.6,0.58,0.29,0.33,0.56,0.55,0.5,0.42,0.55,0.83,0.48,0.29,0.29,0.55,0.5,0.42,0.55,0.33,0.58,0.48,0.55,0.29,0.58,0.33,0.48,0.4,0.58,0.5,0.33,0.29,0.55,0.58,0.5,0.29,0.55,0.44,0.55,0.88,0.88,0.6,0.58,0.29,0.33,0.56,0.55,0.29,0.58,0.55,0.56,0.48,0.58,0.48,0.4,0.5,0.29,0.55,0.33" style="fill:rgb(0,0,0);font-family:URWPalladioL-Roma;font-size:9.96px;stroke:none;">international scientiﬁc community as well as the international community in general [</text>
   <text y="208.807" x="457.146" svgx:width="0.5" style="fill:rgb(8,117,183);font-family:URWPalladioL-Roma;font-size:9.96px;stroke:none;">1</text>
   <text y="208.807" x="462.128,465.479,467.969,471.476,477.634,482.454,488.048,492.868,496.148,501.179,504.46,507.388,512.882" svgx:width="0.33,0.25,0.55,0.72,0.48,0.56,0.48,0.33,0.5,0.33,0.29,0.55,0.58" style="fill:rgb(0,0,0);font-family:URWPalladioL-Roma;font-size:9.96px;stroke:none;">]. Vegetation</text>
   <text y="222.317" x="76.535,79.492,83.6752,86.656,91.63600000000001,94.603,100.253,105.12,110.69760000000001,113.626,118.138,123.686,132.659,138.766,144.315,150.229,155.096,161.01,164.2968,167.179,172.727,176.0138,178.966,182.279,188.193,192.9738,195.916,199.229,204.097,208.111,211.952,216.819,221.128,224.441,228.455,231.412,236.493,239.38139999999999,242.305,247.173,251.685,257.233,261.542,267.192,271.5,274.813,279.681,288.654,292.962,295.452,298.45,303.53,309.445,315.5206,318.509,323.59,329.504,335.08160000000004,338.02,342.532,348.446,353.527,359.441,365.091,369.8718,372.814,375.771,381.5478,384.541,387.853,393.768,398.54879999999997,401.491,404.803,409.671,413.685,417.526,422.393,426.702,430.015,434.029,436.986,442.067,444.9554,447.879,452.747,457.259,462.807,467.116,472.766,477.074,480.387,485.255,494.228,498.4112,501.392,509.867,512.824,515.781" svgx:width="0.29,0.42,0.55,0.5,0.55,0.56,0.48,0.56,0.55,0.44,0.55,0.88,0.6,0.55,0.58,0.48,0.58,0.33,0.55,0.55,0.33,0.55,0.33,0.58,0.48,0.55,0.33,0.48,0.4,0.4,0.48,0.42,0.33,0.4,0.29,0.5,0.29,0.55,0.48,0.44,0.55,0.42,0.56,0.42,0.33,0.48,0.88,0.42,0.25,0.55,0.5,0.58,0.61,0.55,0.5,0.58,0.56,0.55,0.44,0.58,0.5,0.58,0.56,0.48,0.55,0.29,0.58,0.55,0.33,0.58,0.48,0.55,0.33,0.48,0.4,0.4,0.48,0.42,0.33,0.4,0.29,0.5,0.29,0.55,0.48,0.44,0.55,0.42,0.56,0.42,0.33,0.48,0.88,0.42,0.55,0.83,0.29,0.29,0.29" style="fill:rgb(0,0,0);font-family:URWPalladioL-Roma;font-size:9.96px;stroke:none;">is a key component of the terrestrial ecosystems, and any change in the terrestrial ecosystems will</text>
   <text y="235.826" x="76.535,79.376,85.058,89.735,95.251,98.092,101.275,106.157,111.556,114.397,119.97460000000001,121.856,124.698,129.374,134.256,140.3316,142.242,145.425,150.90300000000002,152.787,158.723,164.61,168.945,172.128,178.015,182.897,186.08,188.921,194.252,199.934,204.1172,206.104,208.946,214.7228,216.649,222.165,226.842,232.27,236.947,240.13,245.011,248.194,251.035,256.366,262.14279999999997,264.079,267.262,272.69,278.558,283.235,285.725,287.794,293.262,299.149,304.031,309.713,312.896,315.737,318.92,324.49760000000003,326.379,331.71,335.69399999999996,337.597,343.065,348.952,353.834,356.675,359.516,362.699,367.014,369.504,372.794,380.907,386.238,390.095,398.716,403.597,406.439,409.28,414.161,418.838,424.91360000000003,426.824,434.381" svgx:width="0.29,0.58,0.48,0.56,0.29,0.33,0.5,0.55,0.29,0.56,0.55,0.29,0.48,0.5,0.61,0.55,0.33,0.55,0.55,0.61,0.6,0.44,0.33,0.6,0.5,0.33,0.29,0.55,0.58,0.42,0.55,0.29,0.58,0.55,0.56,0.48,0.56,0.48,0.33,0.5,0.33,0.29,0.55,0.58,0.55,0.33,0.56,0.6,0.48,0.25,0.55,0.56,0.6,0.5,0.58,0.33,0.29,0.33,0.56,0.55,0.55,0.4,0.55,0.56,0.6,0.5,0.29,0.29,0.33,0.56,0.25,0.55,0.83,0.55,0.4,0.88,0.5,0.29,0.29,0.5,0.48,0.61,0.55,0.77,0.29" style="fill:rgb(0,0,0);font-family:URWPalladioL-Roma;font-size:9.96px;stroke:none;">inevitably lead to ﬂuctuations in vegetation type, quantity or quality. Normalized Di</text>
   <text y="235.826" x="437.226" svgx:width="0.61" style="fill:rgb(0,0,0);font-family:Rpxr;font-size:9.96px;stroke:none;">ﬀ</text>
   <text y="235.826" x="443.162,447.839,451.519,456.196,461.878,466.213,470.9938,472.911,478.857,483.533,488.962,493.638,496.821,501.703,504.886,507.727,513.058" svgx:width="0.48,0.4,0.48,0.58,0.44,0.48,0.55,0.72,0.48,0.56,0.48,0.33,0.5,0.33,0.29,0.55,0.58" style="fill:rgb(0,0,0);font-family:URWPalladioL-Roma;font-size:9.96px;stroke:none;">erence Vegetation</text>
   <text y="249.336" x="76.535,79.953,85.855,92.052,96.91,102.08919999999999,104.648,108.026,116.454,124.303,131.626,135.044,138.3308,140.916,143.867,148.0502,150.672,155.652,158.238,163.918,170.033,175.104,181.007,184.313,187.265,190.571,195.642,198.948,201.899,207.63,212.4108,214.993,221.088,226.159,230.165,235.236,244.191,249.049,252.355,257.213,261.197,263.714,267.021,272.923,277.994,281.28080000000006,283.806,288.309,293.38,299.1568,301.787,307.396,312.1768,314.749,320.864,325.164,330.022,336.0976,338.724,342.03,347.508,350.063,354.566,360.468,365.539,369.545,374.616,379.119,382.426,387.284,391.29,394.241,399.312,404.0928,406.675,411.746,417.648,423.72360000000003,426.35,430.174,435.032,441.198,446.056,450.559,453.84580000000005,456.36,459.667,465.569,470.3498,472.932,477.232,482.09,487.993,492.293,495.244,498.551,501.502,507.232,510.183,513.49" svgx:width="0.34,0.58,0.61,0.48,0.52,0.55,0.33,0.83,0.77,0.72,0.34,0.33,0.55,0.29,0.42,0.55,0.5,0.55,0.56,0.6,0.5,0.58,0.33,0.29,0.33,0.5,0.33,0.29,0.56,0.48,0.55,0.6,0.5,0.4,0.5,0.88,0.48,0.33,0.48,0.4,0.55,0.33,0.58,0.5,0.33,0.55,0.44,0.5,0.58,0.55,0.55,0.48,0.55,0.6,0.42,0.48,0.61,0.55,0.33,0.55,0.55,0.44,0.58,0.5,0.4,0.5,0.44,0.33,0.48,0.4,0.29,0.5,0.48,0.55,0.5,0.58,0.61,0.55,0.4,0.48,0.61,0.48,0.44,0.33,0.55,0.33,0.58,0.48,0.55,0.42,0.48,0.58,0.42,0.29,0.33,0.29,0.56,0.29,0.33,0.56" style="fill:rgb(0,0,0);font-family:URWPalladioL-Roma;font-size:9.96px;stroke:none;">Index (NDVI) is a quantitative parameter that can be used to characterize and reﬂect the sensitivity</text>
   <text y="262.845" x="76.535,82.083,85.3698,89.014,92.327,98.241,103.0218,106.665,111.532,116.613,120.627,123.94,129.854,132.679,136.8622,140.534,144.843,150.971,154.985,158.368,163.449,167.961,172.7418,176.385,182.127,186.994,192.644,197.512,200.825,205.906,209.218,212.175,217.724,223.5008,227.184,231.696,237.245,242.986,247.854,251.868,256.948,262.598,267.3788,271.023,276.104,282.018,288.0936,291.773,297.423,301.254,306.803,315.277,318.59,324.36679999999996,328.061,332.37,335.682,340.763,344.076,350.204,354.512,357.002,360.864,365.945,371.859,377.9346,381.624,384.581,387.86780000000005,391.441,394.398,398.5812,402.263,407.811,413.725,418.5058,422.139,427.688,430.9748,434.618,437.931,443.845,448.6258,452.269,457.889,462.756,467.065,470.3518,473.924,476.881,482.796,489.004,491.962,496.473,501.554,504.867,510.415,514.429" svgx:width="0.55,0.33,0.55,0.33,0.58,0.48,0.55,0.48,0.5,0.4,0.33,0.58,0.28,0.42,0.55,0.42,0.6,0.4,0.33,0.5,0.44,0.48,0.55,0.56,0.48,0.56,0.48,0.33,0.5,0.33,0.29,0.55,0.58,0.55,0.44,0.55,0.56,0.48,0.4,0.5,0.56,0.48,0.55,0.5,0.58,0.61,0.55,0.56,0.4,0.55,0.83,0.33,0.58,0.55,0.42,0.33,0.5,0.33,0.6,0.42,0.25,0.55,0.5,0.58,0.61,0.55,0.29,0.33,0.55,0.29,0.42,0.55,0.55,0.58,0.48,0.55,0.55,0.33,0.55,0.33,0.58,0.48,0.55,0.55,0.48,0.42,0.33,0.55,0.29,0.58,0.61,0.29,0.44,0.5,0.33,0.55,0.4,0.42" style="fill:rgb(0,0,0);font-family:URWPalladioL-Roma;font-size:9.96px;stroke:none;">of the earth’s surface vegetation coverage and growth status, and it is one of the best indicators</text>
   <text y="276.354" x="76.535,79.919,85.467,89.451,92.53,98.22,104.348,109.429,115.343,118.656,121.613,124.926,130.007,133.319,136.277,142.018,146.885,149.843,155.42059999999998,158.541,163.053,168.967,174.048,178.062,183.143,187.655,190.968,195.835,199.849,202.806,207.887,210.844,216.758,222.3356,225.467,231.209,236.076,241.726,246.594,249.906,254.987,258.3,261.257,266.805,272.5818,275.768,281.977,287.627,293.541,298.622,307.595,310.552,314.93440000000004,318.113,322.625,328.539,333.62,339.534,345.184,350.051,354.2342,357.409" svgx:width="0.33,0.55,0.4,0.55,0.56,0.6,0.5,0.58,0.33,0.29,0.33,0.5,0.33,0.29,0.56,0.48,0.29,0.56,0.55,0.44,0.58,0.5,0.4,0.5,0.44,0.33,0.48,0.4,0.29,0.5,0.29,0.58,0.56,0.55,0.56,0.48,0.56,0.48,0.33,0.5,0.33,0.29,0.55,0.58,0.55,0.61,0.56,0.58,0.5,0.88,0.29,0.44,0.55,0.44,0.58,0.5,0.58,0.56,0.48,0.42,0.55,0.33" style="fill:rgb(0,0,0);font-family:URWPalladioL-Roma;font-size:9.96px;stroke:none;">for quantitatively characterizing vegetation dynamic changes [</text>
   <text y="276.354" x="360.795" svgx:width="0.5" style="fill:rgb(8,117,183);font-family:URWPalladioL-Roma;font-size:9.96px;stroke:none;">2</text>
   <text y="276.354" x="365.777,369.161,371.651,376.874,384.78,388.0668,391.141,394.454,400.368,405.1488,408.284,412.593,417.674,426.647,431.4278,434.563,437.875,440.832,449.805,454.673,457.163,460.404,468.849,476.714,484.051,487.43739999999997,490.524,493.481,497.6642,500.848,505.929,508.886,513.195" svgx:width="0.33,0.25,0.55,0.78,0.33,0.55,0.33,0.58,0.48,0.55,0.42,0.5,0.88,0.48,0.55,0.33,0.29,0.88,0.48,0.25,0.55,0.83,0.77,0.72,0.34,0.55,0.29,0.42,0.55,0.5,0.29,0.42,0.55" style="fill:rgb(0,0,0);font-family:URWPalladioL-Roma;font-size:9.96px;stroke:none;">]. At the same time, NDVI is also</text>
   <text y="289.864" x="76.535,80.95,86.378,92.165,96.381,99.274,105.349,110.111,113.86,118.622,124.6976,127.193,130.434,135.912,138.349,143.847,148.6278,151.105,156.076,161.8528,164.359" svgx:width="0.44,0.55,0.58,0.42,0.29,0.61,0.48,0.4,0.48,0.61,0.55,0.33,0.55,0.55,0.55,0.48,0.55,0.5,0.58,0.55,0.48" style="fill:rgb(0,0,0);font-family:URWPalladioL-Roma;font-size:9.96px;stroke:none;">considered to be an e</text>
   <text y="289.864" x="169.118" svgx:width="0.61" style="fill:rgb(0,0,0);font-family:Rpxr;font-size:9.96px;stroke:none;">ﬀ</text>
   <text y="289.864" x="175.163,179.926,184.34,187.581,190.475,196.092,200.8728,203.35,206.244,212.03,218.105,220.999,225.413,230.385,233.626,239.055,243.03900000000002,245.468,250.896,254.1828,256.703,262.321,267.083,272.611,277.374,280.615,285.586,288.828,291.721,297.15,302.92679999999996,305.432,311.408,315.156,320.585,326.66,332.655,337.07,340.311,343.194,348.812,351.705,354.947,360.5246,362.97" svgx:width="0.48,0.44,0.33,0.29,0.56,0.48,0.55,0.29,0.58,0.61,0.29,0.44,0.5,0.33,0.55,0.4,0.55,0.55,0.33,0.55,0.56,0.48,0.56,0.48,0.33,0.5,0.33,0.29,0.55,0.58,0.55,0.6,0.4,0.55,0.61,0.6,0.44,0.33,0.29,0.56,0.29,0.33,0.56,0.55,0.33" style="fill:rgb(0,0,0);font-family:URWPalladioL-Roma;font-size:9.96px;stroke:none;">ective indicator of vegetation productivity [</text>
   <text y="289.864" x="366.283" svgx:width="0.5" style="fill:rgb(8,117,183);font-family:URWPalladioL-Roma;font-size:9.96px;stroke:none;">3</text>
   <text y="289.864" x="371.264,374.575,377.065,380.55,385.77,388.664,394.45,398.865,403.6458,406.123,409.364,415.151,419.9318,422.409,427.38,432.352,437.323,442.294,446.51,449.0,451.482,459.744,467.439,474.618,478.0044,480.464,486.251,491.222,495.4052,497.934,503.432,508.195,512.957" svgx:width="0.33,0.25,0.55,0.52,0.29,0.58,0.44,0.48,0.55,0.33,0.58,0.48,0.55,0.5,0.5,0.5,0.5,0.42,0.25,0.55,0.83,0.77,0.72,0.34,0.55,0.58,0.5,0.42,0.55,0.55,0.48,0.48,0.58" style="fill:rgb(0,0,0);font-family:URWPalladioL-Roma;font-size:9.96px;stroke:none;">]. Since the 1980s, NDVI has been</text>
   <text y="303.373" x="76.117,84.326,87.19,93.205,97.919,100.784,106.36160000000001,108.757,114.692,118.865,123.58,129.6556,132.094,134.959,140.7358,143.188,147.361,150.57,156.505,162.519,167.992,170.856,176.585,182.1626,184.558,187.767,193.495,198.2758,200.72,203.584,212.276,218.192,223.113,227.483,230.7698,233.192,238.567,241.8538,244.345,248.715,251.579,254.444,263.135,268.056,271.265,276.0458,278.48,283.855,289.6318,292.083,297.645,302.359,307.832,312.547,315.756,320.677,323.886,326.751,332.125,337.853,340.343,343.838,352.018,359.636,366.743,370.1294,372.56,378.574,384.047,389.776,394.697,403.388,406.253,410.623,414.8062,417.297,422.218,427.947,434.0226,436.461,439.325,442.534,446.7172,449.208,453.578,458.952,462.84,466.551,471.266,474.13,479.052,482.261,485.125,490.499,496.2758,498.728,506.937,509.802,513.01" svgx:width="0.83,0.29,0.61,0.48,0.29,0.56,0.55,0.6,0.42,0.48,0.61,0.55,0.29,0.58,0.55,0.42,0.33,0.6,0.61,0.56,0.29,0.58,0.56,0.55,0.33,0.58,0.48,0.55,0.29,0.88,0.6,0.5,0.44,0.33,0.55,0.55,0.33,0.55,0.44,0.29,0.29,0.88,0.5,0.33,0.48,0.55,0.55,0.58,0.55,0.56,0.48,0.56,0.48,0.33,0.5,0.33,0.29,0.55,0.58,0.25,0.55,0.83,0.77,0.72,0.34,0.55,0.61,0.56,0.58,0.5,0.88,0.29,0.44,0.42,0.55,0.5,0.58,0.61,0.55,0.29,0.33,0.42,0.55,0.44,0.55,0.4,0.4,0.48,0.29,0.5,0.33,0.29,0.55,0.58,0.55,0.83,0.29,0.33,0.58" style="fill:rgb(0,0,0);font-family:URWPalladioL-Roma;font-size:9.96px;stroke:none;">widely used in studying the impact of climate on vegetation. NDVI dynamics and its correlation with</text>
   <text y="316.883" x="76.535,80.87,83.711,86.552,95.173,100.055,103.238,106.079,110.4614,112.572,115.823,120.704,125.039,128.222,133.553,137.409,141.5922,143.697,149.379,154.261,159.777,164.5578,166.612,172.011,176.687,181.022,186.353,194.974,199.7548,201.809,207.139,212.822,217.6028,219.646,224.977,228.2638,230.386,233.569,239.251,244.0318,246.085,248.926,257.547,263.415,268.746,272.603,275.785,280.667,286.349,289.6358,291.68,295.361,300.038,304.177,308.854,313.736,317.416,321.751,327.52779999999996,329.582,332.764,338.095,343.963,346.804,351.139,355.3222,357.436,362.767,366.0538,368.176,373.604,376.446,381.776,387.176,392.057,394.9454,397.046,401.381,407.064,411.945,417.627,423.056,427.8368,429.89" svgx:width="0.44,0.29,0.29,0.88,0.5,0.33,0.29,0.44,0.55,0.33,0.5,0.44,0.33,0.55,0.4,0.42,0.55,0.58,0.5,0.56,0.48,0.55,0.55,0.48,0.44,0.55,0.88,0.48,0.55,0.55,0.58,0.48,0.55,0.55,0.33,0.55,0.33,0.58,0.48,0.55,0.29,0.88,0.6,0.55,0.4,0.33,0.5,0.58,0.33,0.55,0.4,0.48,0.42,0.48,0.5,0.4,0.44,0.58,0.55,0.33,0.55,0.6,0.29,0.44,0.42,0.55,0.55,0.33,0.55,0.56,0.29,0.55,0.55,0.5,0.29,0.55,0.44,0.58,0.5,0.58,0.56,0.48,0.55,0.33" style="fill:rgb(0,0,0);font-family:URWPalladioL-Roma;font-size:9.96px;stroke:none;">climatic factors have become one of the important research topics of global change [</text>
   <text y="316.883" x="433.142" svgx:width="0.5" style="fill:rgb(8,117,183);font-family:URWPalladioL-Roma;font-size:9.96px;stroke:none;">4</text>
   <text y="316.883" x="438.123" svgx:width="0.5" style="fill:rgb(0,0,0);font-family:URWPalladioL-Roma;font-size:9.96px;stroke:none;">–</text>
   <text y="316.883" x="443.005" svgx:width="0.5" style="fill:rgb(8,117,183);font-family:URWPalladioL-Roma;font-size:9.96px;stroke:none;">6</text>
   <text y="316.883" x="447.986,451.237,453.72700000000003,457.056,464.652,468.8352,470.94,474.122,479.805,484.5858,486.639,492.077,494.918,500.318,504.994,508.177,513.059" svgx:width="0.33,0.25,0.55,0.78,0.42,0.55,0.33,0.58,0.48,0.55,0.61,0.29,0.55,0.48,0.33,0.5,0.58" style="fill:rgb(0,0,0);font-family:URWPalladioL-Roma;font-size:9.96px;stroke:none;">]. As the Tibetan</text>
   <text y="330.392" x="76.535,82.661,85.612,90.683,93.989,98.847,103.918,109.894,112.519,115.896,122.113,128.239,131.5258,134.101,137.052,141.2352,143.837,148.908,154.6848,157.285,160.236,169.192,175.287,180.824,184.83,188.137,193.208,199.11,202.3968,204.901,209.759,214.262,219.8,222.751,228.289,233.928,236.879,241.382,246.453,249.3414,251.889,257.497,262.568,266.574,270.58,273.532,278.39,282.37399999999997,284.881,287.832,293.6088,296.219,304.11,308.41,311.361,316.341,318.907" svgx:width="0.6,0.29,0.5,0.33,0.48,0.5,0.6,0.55,0.33,0.61,0.6,0.33,0.55,0.29,0.42,0.55,0.5,0.58,0.55,0.29,0.88,0.6,0.55,0.4,0.33,0.5,0.58,0.33,0.55,0.48,0.44,0.55,0.29,0.55,0.56,0.29,0.44,0.5,0.29,0.55,0.55,0.5,0.4,0.4,0.29,0.48,0.4,0.55,0.29,0.58,0.55,0.78,0.42,0.29,0.5,0.55,0.33" style="fill:rgb(0,0,0);font-family:URWPalladioL-Roma;font-size:9.96px;stroke:none;">Plateau (TP) is an important ecological barrier in Asia [</text>
   <text y="330.392" x="322.289" svgx:width="0.5" style="fill:rgb(8,117,183);font-family:URWPalladioL-Roma;font-size:9.96px;stroke:none;">7</text>
   <text y="330.392" x="327.27,330.647,333.137,335.668,338.619,344.3958,347.006,350.83,355.688,360.191,365.049,370.951,374.23780000000005,376.742,382.939,387.797,392.3,397.371,403.568,408.426,412.726,415.216,417.746,420.697,423.98380000000003,426.488,432.391,437.462,441.6452,444.247,450.362,456.265,462.462,467.32,471.143,476.782,482.32,488.222,493.0028,495.565,504.52,510.058,513.881" svgx:width="0.33,0.25,0.55,0.29,0.58,0.55,0.4,0.48,0.44,0.48,0.58,0.33,0.55,0.61,0.48,0.44,0.5,0.61,0.48,0.42,0.25,0.55,0.29,0.33,0.55,0.58,0.5,0.42,0.55,0.6,0.58,0.61,0.48,0.4,0.56,0.55,0.58,0.48,0.55,0.88,0.55,0.4,0.48" style="fill:rgb(0,0,0);font-family:URWPalladioL-Roma;font-size:9.96px;stroke:none;">], in recent decades, it has undergone more</text>
   <text y="343.901" x="76.535,80.772,85.558,91.204,95.99,99.758,104.5388,107.022,111.459,114.367,117.274,126.098,131.094,134.352,139.1328,141.626,146.063,151.878,156.875,162.69,168.246,173.032,177.2152,179.747,183.005,188.821,193.817,199.59380000000002,202.121,205.378,211.194,216.65,220.886,225.6668,228.151,233.147,236.4338,238.883,242.141,247.956,252.7368,255.231,259.467,264.464,273.287,278.0678,280.552,283.459,288.456,291.713,294.621,297.879,303.904,310.009,314.796,318.9792,321.521" svgx:width="0.42,0.48,0.56,0.48,0.4,0.48,0.55,0.44,0.29,0.29,0.88,0.5,0.33,0.48,0.55,0.44,0.58,0.5,0.58,0.56,0.48,0.42,0.55,0.33,0.58,0.5,0.58,0.55,0.33,0.58,0.55,0.42,0.48,0.55,0.5,0.33,0.55,0.33,0.58,0.48,0.55,0.42,0.5,0.88,0.48,0.55,0.29,0.5,0.33,0.29,0.33,0.6,0.61,0.48,0.42,0.55,0.33" style="fill:rgb(0,0,0);font-family:URWPalladioL-Roma;font-size:9.96px;stroke:none;">severe climate changes than those at the same latitudes [</text>
   <text y="343.901" x="324.844" svgx:width="0.5" style="fill:rgb(8,117,183);font-family:URWPalladioL-Roma;font-size:9.96px;stroke:none;">8</text>
   <text y="343.901" x="329.826" svgx:width="0.25" style="fill:rgb(0,0,0);font-family:URWPalladioL-Roma;font-size:9.96px;stroke:none;">,</text>
   <text y="343.901" x="332.324" svgx:width="0.5" style="fill:rgb(8,117,183);font-family:URWPalladioL-Roma;font-size:9.96px;stroke:none;">9</text>
   <text y="343.901" x="337.305,340.632,343.122,345.619,350.615,356.431,362.5066,365.014,368.272,374.087,378.8678,381.352,386.138,391.954,397.6,400.507,404.275,409.731,415.546,424.37,429.156,434.972,438.229,443.225,446.1134,448.621,453.058,458.514,464.329,470.435,473.343,476.6,479.508,484.964,490.78,494.9632,497.495,503.31,508.306,513.952" svgx:width="0.33,0.25,0.55,0.5,0.58,0.61,0.55,0.33,0.58,0.48,0.55,0.48,0.58,0.56,0.29,0.4,0.55,0.58,0.88,0.48,0.58,0.33,0.5,0.29,0.55,0.44,0.55,0.58,0.61,0.29,0.33,0.29,0.55,0.58,0.42,0.55,0.58,0.5,0.56,0.48" style="fill:rgb(0,0,0);font-family:URWPalladioL-Roma;font-size:9.96px;stroke:none;">], and the environmental conditions have</text>
   <text y="357.411" x="76.535,82.53,88.317,94.392,99.155,102.903,108.431,113.86,119.646,124.4268,126.895,135.674,140.645,142.972,148.401,152.38500000000002,154.804,159.218,165.005,169.976,175.763,181.291,186.054,190.2372,192.755" svgx:width="0.6,0.58,0.61,0.48,0.4,0.56,0.55,0.58,0.48,0.55,0.88,0.5,0.23,0.55,0.4,0.55,0.44,0.58,0.5,0.58,0.56,0.48,0.42,0.55,0.33" style="fill:rgb(0,0,0);font-family:URWPalladioL-Roma;font-size:9.96px;stroke:none;">undergone major changes [</text>
   <text y="357.411" x="196.066,201.047" svgx:width="0.5,0.5" style="fill:rgb(8,117,183);font-family:URWPalladioL-Roma;font-size:9.96px;stroke:none;">10</text>
   <text y="357.411" x="206.028" svgx:width="0.5" style="fill:rgb(0,0,0);font-family:URWPalladioL-Roma;font-size:9.96px;stroke:none;">–</text>
   <text y="357.411" x="211.0,215.981" svgx:width="0.5,0.5" style="fill:rgb(8,117,183);font-family:URWPalladioL-Roma;font-size:9.96px;stroke:none;">12</text>
   <text y="357.411" x="220.962,224.273,226.763,230.239,237.974,243.761,249.836,254.598,258.582,261.011,264.252,270.039,272.932,277.1152,279.634,285.132,290.103,294.518,300.046,305.574,309.323,314.751,320.747,326.533,332.608,335.098,337.58,345.842,353.538,360.716,364.1024,366.543,372.618,378.146,383.932,388.904,397.683,400.577,404.991,409.1742,411.692,414.586,420.3628,422.858,428.953,434.929,437.434,442.405,448.192,454.2676,456.753,459.994,465.781,470.543,473.436,477.41999999999996,479.849,483.598,488.36,492.576,498.552,503.97,509.757,513.973" svgx:width="0.33,0.25,0.55,0.78,0.58,0.61,0.48,0.4,0.55,0.33,0.58,0.29,0.42,0.55,0.55,0.5,0.44,0.56,0.56,0.4,0.55,0.6,0.58,0.61,0.25,0.55,0.83,0.77,0.72,0.34,0.55,0.61,0.56,0.58,0.5,0.88,0.29,0.44,0.42,0.55,0.29,0.58,0.55,0.61,0.6,0.55,0.5,0.58,0.61,0.55,0.33,0.58,0.48,0.29,0.4,0.55,0.4,0.48,0.42,0.6,0.55,0.58,0.42,0.48" style="fill:rgb(0,0,0);font-family:URWPalladioL-Roma;font-size:9.96px;stroke:none;">]. Under this background, NDVI dynamics in TP and their response</text>
   <text y="370.92" x="76.535,79.783,85.261,87.713,92.136,95.036,97.935,106.732,111.713,114.961,119.7418,122.223,126.647,132.445,137.426,143.225,148.764,153.536,157.7192,160.251,166.049,171.03,176.659,181.4398,183.922,187.678,192.45,196.873,201.645,204.544,210.173,214.945,221.0206,223.523,228.295,233.436,236.684,241.456,247.254,251.478,254.377,260.006,264.78679999999997,267.269,272.25,275.498,278.746,283.518,289.316,292.564,295.463,300.903,306.6798,309.192" svgx:width="0.33,0.55,0.55,0.44,0.29,0.29,0.88,0.5,0.33,0.48,0.55,0.44,0.58,0.5,0.58,0.56,0.48,0.42,0.55,0.58,0.5,0.56,0.48,0.55,0.4,0.48,0.44,0.48,0.29,0.56,0.48,0.61,0.55,0.48,0.52,0.33,0.48,0.58,0.42,0.29,0.56,0.48,0.55,0.5,0.33,0.33,0.48,0.58,0.33,0.29,0.55,0.58,0.55,0.33" style="fill:rgb(0,0,0);font-family:URWPalladioL-Roma;font-size:9.96px;stroke:none;">to climate changes have received extensive attention [</text>
   <text y="370.92" x="312.509" svgx:width="0.5" style="fill:rgb(8,117,183);font-family:URWPalladioL-Roma;font-size:9.96px;stroke:none;">8</text>
   <text y="370.92" x="317.49" svgx:width="0.25" style="fill:rgb(0,0,0);font-family:URWPalladioL-Roma;font-size:9.96px;stroke:none;">,</text>
   <text y="370.92" x="319.981,324.962" svgx:width="0.5,0.5" style="fill:rgb(8,117,183);font-family:URWPalladioL-Roma;font-size:9.96px;stroke:none;">13</text>
   <text y="370.92" x="329.944" svgx:width="0.25" style="fill:rgb(0,0,0);font-family:URWPalladioL-Roma;font-size:9.96px;stroke:none;">,</text>
   <text y="370.92" x="332.434,337.416" svgx:width="0.5,0.5" style="fill:rgb(8,117,183);font-family:URWPalladioL-Roma;font-size:9.96px;stroke:none;">14</text>
   <text y="370.92" x="342.397,345.714" svgx:width="0.33,0.25" style="fill:rgb(0,0,0);font-family:URWPalladioL-Roma;font-size:9.96px;stroke:none;">].</text>
   <text y="384.43" x="97.795,104.317,108.994,111.835,116.716,119.899,124.576,130.6516,133.021,137.161,140.344,146.231,152.196,155.038,159.714,163.8972,166.324,172.006,176.888,182.404,187.1848,189.561,192.812,198.143,204.03,209.712,215.7876,218.158,221.34,227.023,231.904,235.1908,237.567,245.68,253.237,260.286,263.6724,266.057,270.391,276.074,280.955,286.638,292.066,296.743,300.9262,303.353,306.194,311.9708,314.356,317.539,323.221,328.0018,330.378,337.3,341.976,347.659,350.842,354.698,359.58,362.4684,364.901,370.798,373.639,378.521,381.362,387.044,391.2272,393.654,398.985,402.27180000000004,404.716,407.899,413.581,418.3618,420.737,428.333,434.016,436.857,440.039,444.716,450.7916,453.161,458.287,461.47,466.352,469.535,474.211,478.3942,480.821" svgx:width="0.67,0.48,0.29,0.5,0.33,0.48,0.61,0.55,0.42,0.33,0.6,0.61,0.29,0.48,0.42,0.55,0.58,0.5,0.56,0.48,0.55,0.33,0.55,0.6,0.58,0.61,0.55,0.33,0.58,0.5,0.33,0.55,0.83,0.77,0.72,0.34,0.55,0.44,0.58,0.5,0.58,0.56,0.48,0.42,0.55,0.29,0.58,0.55,0.33,0.58,0.48,0.55,0.71,0.48,0.58,0.33,0.4,0.5,0.29,0.55,0.6,0.29,0.5,0.29,0.58,0.42,0.55,0.55,0.33,0.55,0.33,0.58,0.48,0.55,0.78,0.58,0.29,0.33,0.48,0.61,0.55,0.52,0.33,0.5,0.33,0.48,0.42,0.55,0.33" style="fill:rgb(0,0,0);font-family:URWPalladioL-Roma;font-size:9.96px;stroke:none;">Related studies have found that NDVI changes in the Central Plains of the United States [</text>
   <text y="384.43" x="484.076,489.057" svgx:width="0.5,0.5" style="fill:rgb(8,117,183);font-family:URWPalladioL-Roma;font-size:9.96px;stroke:none;">15</text>
   <text y="384.43" x="494.039,497.29,499.78000000000003,502.211,507.093,512.775" svgx:width="0.33,0.25,0.55,0.5,0.58,0.61" style="fill:rgb(0,0,0);font-family:URWPalladioL-Roma;font-size:9.96px;stroke:none;">], and</text>
   <text y="397.939" x="76.535,79.718,85.4,90.1808,92.274,98.258,103.941,107.621,112.298,116.975,120.226,126.748,129.589,135.105,139.782,143.453,146.704,151.83,157.161,163.048,166.729,171.064,175.8448,177.937,185.533,189.214,193.89,198.86999999999998,200.969,203.81,209.5868,211.689,218.611,224.294,227.135,232.817,237.797,239.895" svgx:width="0.33,0.58,0.48,0.55,0.61,0.58,0.4,0.48,0.48,0.33,0.67,0.29,0.56,0.48,0.4,0.33,0.52,0.55,0.6,0.4,0.44,0.48,0.55,0.78,0.4,0.48,0.5,0.55,0.29,0.58,0.55,0.71,0.58,0.29,0.58,0.5,0.55,0.33" style="fill:rgb(0,0,0);font-family:URWPalladioL-Roma;font-size:9.96px;stroke:none;">the Three-River-Source Area in China [</text>
   <text y="397.939" x="243.145,248.126" svgx:width="0.5,0.5" style="fill:rgb(8,117,183);font-family:URWPalladioL-Roma;font-size:9.96px;stroke:none;">16</text>
   <text y="397.939" x="253.108,256.39480000000003,258.556,263.438,267.118,271.8988,273.992,278.327,281.168,286.499,290.638,295.315,298.156,303.7336,305.781,309.452,314.129,316.97,321.852,325.035,329.711,335.7866,337.883,341.066,346.544,348.593,354.461,358.132,362.809,367.144,369.985,375.853,378.694,381.877,386.758,389.941,392.782,398.113,403.795,406.285,408.492,416.634,422.317,425.158,427.999,432.7798,434.872,439.754,442.595,446.579,448.648,451.831,456.508,465.129,470.997,475.673,479.53,484.411,487.594,493.482,497.162,501.9428,504.036,509.718,514.6" svgx:width="0.33,0.55,0.5,0.4,0.48,0.55,0.44,0.29,0.55,0.42,0.48,0.29,0.56,0.55,0.4,0.48,0.29,0.5,0.33,0.48,0.61,0.55,0.33,0.55,0.55,0.6,0.4,0.48,0.44,0.29,0.6,0.29,0.33,0.5,0.33,0.29,0.55,0.58,0.25,0.55,0.83,0.58,0.29,0.29,0.48,0.55,0.5,0.29,0.4,0.55,0.33,0.48,0.88,0.6,0.48,0.4,0.5,0.33,0.6,0.4,0.48,0.55,0.58,0.5,0.42" style="fill:rgb(0,0,0);font-family:URWPalladioL-Roma;font-size:9.96px;stroke:none;">] are closely related to precipitation, while air temperature has</text>
   <text y="411.448" x="76.535,82.052,85.793,90.546,95.507,98.742,103.495,107.479,109.905,112.793,121.555,127.518,132.479,136.885,140.1718,142.611,148.028,153.8048,156.294,159.529,165.304,170.0848,172.548,180.793,188.474,195.638,199.0244,201.472,204.36,210.13680000000002,212.635,215.87,221.645,226.4258,228.889,234.664,240.082,244.001,247.236,253.011,257.764,261.684,267.4608,269.949,275.913,280.874,284.794,288.0808,290.519,295.937,299.22380000000004,301.732,307.249,312.002,317.777,323.552,328.97,333.177,337.583,342.544,348.319,354.382,357.269,362.249,364.721,369.683,375.458,381.53360000000004,384.011,389.975,394.936,398.856,402.09,406.2732,408.788,414.206,417.49280000000005,420.001,428.247,433.665,437.584,440.819,446.5958,449.085,456.804,465.566,470.319,474.239,477.126,481.532,486.512,488.984" svgx:width="0.56,0.4,0.48,0.5,0.33,0.48,0.4,0.55,0.29,0.88,0.6,0.5,0.44,0.33,0.55,0.55,0.58,0.55,0.33,0.58,0.48,0.55,0.83,0.77,0.72,0.34,0.55,0.29,0.58,0.55,0.33,0.58,0.48,0.55,0.58,0.55,0.4,0.33,0.58,0.48,0.4,0.58,0.55,0.6,0.5,0.4,0.33,0.55,0.55,0.33,0.55,0.56,0.48,0.58,0.58,0.55,0.42,0.44,0.5,0.58,0.61,0.29,0.5,0.55,0.5,0.58,0.61,0.55,0.6,0.5,0.4,0.33,0.42,0.55,0.55,0.33,0.55,0.83,0.55,0.4,0.33,0.58,0.55,0.78,0.88,0.48,0.4,0.29,0.44,0.5,0.55,0.33" style="fill:rgb(0,0,0);font-family:URWPalladioL-Roma;font-size:9.96px;stroke:none;">greater impact on the NDVI in the northern part of Fennoscandia and parts of North America [</text>
   <text y="411.448" x="492.293,497.274" svgx:width="0.5,0.5" style="fill:rgb(8,117,183);font-family:URWPalladioL-Roma;font-size:9.96px;stroke:none;">17</text>
   <text y="411.448" x="502.255" svgx:width="0.25" style="fill:rgb(0,0,0);font-family:URWPalladioL-Roma;font-size:9.96px;stroke:none;">,</text>
   <text y="411.448" x="504.736,509.717" svgx:width="0.5,0.5" style="fill:rgb(8,117,183);font-family:URWPalladioL-Roma;font-size:9.96px;stroke:none;">18</text>
   <text y="411.448" x="514.699,518.003" svgx:width="0.33,0.25" style="fill:rgb(0,0,0);font-family:URWPalladioL-Roma;font-size:9.96px;stroke:none;">].</text>
   <text y="424.958" x="76.226,82.309,88.084,92.8648,95.327,99.068,103.821,106.709,111.67,114.905,117.792,123.399,128.1798,130.642,136.417,142.401,151.163,154.05,160.113,163.0,166.235,171.8126,174.243,179.661,182.9478,185.456,189.663,194.416,203.178,206.065,209.369,214.331,218.25,221.138,227.2136,229.691,234.653,238.394,243.147,248.108,252.2912,254.806,259.013,264.996,269.402,275.17879999999997,277.668,282.629,286.8122,289.327,294.536,299.954,305.729,311.246,317.021,321.774,327.5508,330.04,336.033,338.921,343.882,346.77,352.54679999999996,355.035,357.923,363.6998,366.189,373.224,378.999,381.886,387.661,392.641,395.113,400.889,405.85,410.0332,412.548,418.065,421.806,426.559,431.52,434.755,439.508,443.49199999999996,445.918,448.805,457.567,463.531,468.492,472.898,476.18480000000005,478.623,484.041,489.8178,492.307,500.553,508.233,515.397" svgx:width="0.61,0.58,0.48,0.55,0.4,0.48,0.29,0.5,0.33,0.29,0.56,0.48,0.55,0.58,0.6,0.88,0.29,0.61,0.29,0.33,0.56,0.55,0.55,0.33,0.55,0.42,0.48,0.88,0.29,0.33,0.5,0.4,0.29,0.61,0.55,0.5,0.4,0.48,0.5,0.42,0.55,0.42,0.6,0.44,0.58,0.55,0.5,0.42,0.55,0.52,0.55,0.58,0.56,0.58,0.48,0.58,0.55,0.6,0.29,0.5,0.29,0.58,0.55,0.29,0.58,0.55,0.71,0.58,0.29,0.58,0.5,0.55,0.58,0.5,0.42,0.55,0.56,0.4,0.48,0.5,0.33,0.48,0.4,0.55,0.29,0.88,0.6,0.5,0.44,0.33,0.55,0.55,0.58,0.55,0.83,0.77,0.72,0.34" style="fill:rgb(0,0,0);font-family:URWPalladioL-Roma;font-size:9.96px;stroke:none;">The relative humidity of semi-arid areas such as Songnen Plain in China has greater impact on NDVI</text>
   <text y="438.467" x="76.535,79.848,85.762,90.843,96.6198,99.592,105.7,109.541,114.408,118.92,121.877,127.984,130.942,134.254,139.335,142.638,145.595,151.143,156.9198,159.903" svgx:width="0.33,0.58,0.5,0.58,0.55,0.6,0.4,0.48,0.44,0.29,0.6,0.29,0.33,0.5,0.33,0.29,0.55,0.58,0.55,0.33" style="fill:rgb(0,0,0);font-family:URWPalladioL-Roma;font-size:9.96px;stroke:none;">than precipitation [</text>
   <text y="438.467" x="163.283,168.264" svgx:width="0.5,0.5" style="fill:rgb(8,117,183);font-family:URWPalladioL-Roma;font-size:9.96px;stroke:none;">19</text>
   <text y="438.467" x="173.246,176.63,179.12,183.692,189.922,195.836,200.6168,203.549" svgx:width="0.33,0.25,0.55,0.61,0.58,0.48,0.55,0.48" style="fill:rgb(0,0,0);font-family:URWPalladioL-Roma;font-size:9.96px;stroke:none;">]. The e</text>
   <text y="438.467" x="208.412" svgx:width="0.61" style="fill:rgb(0,0,0);font-family:Rpxr;font-size:9.96px;stroke:none;">ﬀ</text>
   <text y="438.467" x="214.59,219.458,223.969,227.2558,230.117,235.666,238.9528,241.885,246.193,252.321,258.235,262.544,268.458,271.415,277.329,282.1098,285.042,291.251,297.379,301.392,306.473,309.786,312.743,318.281,324.0578,327.041,332.589,338.3658,341.339,349.783,357.648,364.985,368.3714,371.245,374.202,379.9788,382.951,387.26,392.808,401.781,406.5618,409.484,415.591,420.672,424.686,427.999,432.1822,435.153,440.701,443.98780000000005,446.92,454.674,459.755,465.669,469.977,476.105,478.595,481.562,488.767,494.681,497.638,503.552,508.53200000000004,511.478,514.435" svgx:width="0.48,0.44,0.33,0.55,0.55,0.33,0.55,0.42,0.6,0.58,0.42,0.58,0.29,0.58,0.48,0.55,0.61,0.6,0.4,0.5,0.33,0.29,0.55,0.58,0.55,0.55,0.58,0.55,0.83,0.77,0.72,0.34,0.55,0.29,0.58,0.55,0.42,0.55,0.88,0.48,0.55,0.6,0.5,0.4,0.33,0.42,0.55,0.55,0.33,0.55,0.76,0.5,0.58,0.42,0.6,0.25,0.55,0.71,0.58,0.29,0.58,0.5,0.55,0.29,0.42" style="fill:rgb(0,0,0);font-family:URWPalladioL-Roma;font-size:9.96px;stroke:none;">ect of sunshine duration on NDVI in some parts of Gansu, China is</text>
   <text y="451.977" x="76.535,81.963,85.644,90.321,95.203,98.385,103.062,107.04599999999999,109.408,112.591,118.273,123.155,128.9318,131.337,136.218,139.059,143.043,145.415,148.598,153.275,161.896,167.764,172.44,176.297,181.179,184.361,190.249,193.92,198.7008,201.096,205.977,211.66,217.7356,220.125,225.992,229.663,234.34,238.675,241.516,247.384,250.225,253.408,258.289,261.472,264.313,269.644,275.4208,277.826" svgx:width="0.56,0.4,0.48,0.5,0.33,0.48,0.4,0.55,0.33,0.58,0.5,0.58,0.55,0.5,0.29,0.4,0.55,0.33,0.48,0.88,0.6,0.48,0.4,0.5,0.33,0.6,0.4,0.48,0.55,0.5,0.58,0.61,0.55,0.6,0.4,0.48,0.44,0.29,0.6,0.29,0.33,0.5,0.33,0.29,0.55,0.58,0.55,0.33" style="fill:rgb(0,0,0);font-family:URWPalladioL-Roma;font-size:9.96px;stroke:none;">greater than air temperature and precipitation [</text>
   <text y="451.977" x="281.078,286.059" svgx:width="0.5,0.5" style="fill:rgb(8,117,183);font-family:URWPalladioL-Roma;font-size:9.96px;stroke:none;">20</text>
   <text y="451.977" x="291.041,294.292,296.782,300.238,307.16,312.843,315.684,321.366,326.346,328.747,331.588,335.7712,338.217,341.059,346.389,350.724,355.606,358.789,363.465,369.5406,371.93,374.771,380.5478,382.953,386.136,391.818,396.5988,398.994,404.96,409.841,413.981,417.2678,419.654,427.249,431.389,434.23,439.112,444.8888,447.294,455.915,461.245,466.928,471.067,476.398,481.729,487.50579999999997,489.911,493.582,498.258,503.687,506.528,511.859,517.541" svgx:width="0.33,0.25,0.55,0.71,0.58,0.29,0.58,0.5,0.55,0.29,0.42,0.55,0.29,0.55,0.44,0.5,0.33,0.48,0.61,0.55,0.29,0.58,0.55,0.33,0.58,0.48,0.55,0.61,0.5,0.42,0.33,0.55,0.78,0.42,0.29,0.5,0.58,0.55,0.88,0.55,0.58,0.42,0.55,0.55,0.58,0.55,0.4,0.48,0.56,0.29,0.55,0.58,0.25" style="fill:rgb(0,0,0);font-family:URWPalladioL-Roma;font-size:9.96px;stroke:none;">]. China is located in the East Asian monsoon region,</text>
   <text y="465.486" x="76.117,84.592,87.549,90.862,96.63879999999999,99.875,104.387,109.936,118.909,125.016,127.973,132.84,138.0192,141.173,145.685,148.642,151.599,160.572,165.653,168.966,173.7468,176.933,180.245,185.895,192.003,196.87,201.0532,204.268,209.349,215.263,221.3386,224.571,228.585,231.543,236.054,241.8308,245.068,250.809,255.677,261.327,266.194,269.507,274.588,277.901,280.858,286.406,292.1828,295.41,298.723,304.372,310.48,315.347,319.656,322.146,327.501,333.73,339.644,344.512,348.343,353.1238,356.31,361.391,365.222,370.0028,373.189,378.839,382.669,387.537,392.618,395.931,400.798,404.782,407.912,414.12" svgx:width="0.83,0.29,0.33,0.58,0.55,0.44,0.55,0.88,0.6,0.29,0.48,0.52,0.55,0.44,0.29,0.29,0.88,0.5,0.33,0.48,0.55,0.33,0.56,0.6,0.48,0.42,0.55,0.5,0.58,0.61,0.55,0.4,0.29,0.44,0.58,0.55,0.56,0.48,0.56,0.48,0.33,0.5,0.33,0.29,0.55,0.58,0.55,0.33,0.56,0.6,0.48,0.42,0.25,0.55,0.61,0.58,0.48,0.4,0.48,0.55,0.5,0.4,0.48,0.55,0.56,0.4,0.48,0.5,0.33,0.48,0.4,0.55,0.61,0.29" style="fill:rgb(0,0,0);font-family:URWPalladioL-Roma;font-size:9.96px;stroke:none;">with complex climate types and rich vegetation types. There are greater di</text>
   <text y="465.486" x="417.076" svgx:width="0.61" style="fill:rgb(0,0,0);font-family:Rpxr;font-size:9.96px;stroke:none;">ﬀ</text>
   <text y="465.486" x="423.254,428.122,431.953,436.82,442.734,447.246,452.114,456.2972,459.522,462.479,468.25579999999997,471.492,477.234,482.101,487.751,492.619,495.932,501.012,504.325,507.282,512.831" svgx:width="0.48,0.4,0.48,0.58,0.44,0.48,0.42,0.55,0.29,0.58,0.55,0.56,0.48,0.56,0.48,0.33,0.5,0.33,0.29,0.55,0.58" style="fill:rgb(0,0,0);font-family:URWPalladioL-Roma;font-size:9.96px;stroke:none;">erences in vegetation</text>
   <text y="478.995" x="76.535,80.905,86.634,91.555,97.284,102.757,107.472,111.6552,114.145,119.067,124.795,130.8706,133.32,136.184,139.393,143.5762,146.066,150.437,155.811,159.699,163.41,168.125,170.989,175.91,179.119,181.984,187.358,193.1348,195.587,203.796,206.66,209.869,215.6458,218.098,223.826,229.299,235.313,239.024,244.398,247.607,253.336,258.051,261.939,270.63,275.552,278.4404,280.926,284.204,289.125,293.495,296.704,302.079,305.967,310.1502,312.64,315.504,321.2808,323.733,329.747" svgx:width="0.44,0.58,0.5,0.58,0.56,0.48,0.42,0.55,0.5,0.58,0.61,0.55,0.29,0.33,0.42,0.55,0.44,0.55,0.4,0.4,0.48,0.29,0.5,0.33,0.29,0.55,0.58,0.55,0.83,0.29,0.33,0.58,0.55,0.58,0.56,0.61,0.4,0.55,0.33,0.58,0.48,0.4,0.88,0.5,0.29,0.55,0.33,0.5,0.44,0.33,0.55,0.4,0.42,0.55,0.29,0.58,0.55,0.61,0.29" style="fill:rgb(0,0,0);font-family:URWPalladioL-Roma;font-size:9.96px;stroke:none;">changes and its correlation with hydrothermal factors in di</text>
   <text y="478.995" x="332.614" svgx:width="0.61" style="fill:rgb(0,0,0);font-family:Rpxr;font-size:9.96px;stroke:none;">ﬀ</text>
   <text y="478.995" x="338.599,343.314,347.025,351.739,357.468,360.75480000000005,363.177,366.888,371.603,377.075,379.94,385.314,391.043,395.216,397.706,401.201,407.235,412.963,417.7438,420.178,423.042,427.964,433.5416,435.947,439.156,442.02,450.711,455.4918,457.926,461.204,466.578,470.56199999999995,472.966,478.528,483.242,488.715,493.43,496.639,501.56,504.769,507.634,513.008" svgx:width="0.48,0.4,0.48,0.58,0.33,0.55,0.4,0.48,0.56,0.29,0.55,0.58,0.42,0.25,0.55,0.61,0.58,0.48,0.55,0.29,0.5,0.56,0.55,0.33,0.29,0.88,0.48,0.55,0.33,0.55,0.4,0.55,0.56,0.48,0.56,0.48,0.33,0.5,0.33,0.29,0.55,0.58" style="fill:rgb(0,0,0);font-family:URWPalladioL-Roma;font-size:9.96px;stroke:none;">erent regions. The lag time for vegetation</text>
   <text y="492.505" x="76.535,80.231,84.927,89.083,94.975,100.327,106.033,110.189,114.885,119.0682,121.532,124.728,130.206,132.57,136.923,139.775,142.628,151.284,156.186,159.382,164.1628,166.558,169.822,174.724,179.076,182.272,187.625,191.497,195.6802,198.144,200.996,205.1792,207.643,212.545,215.397,219.554,225.032,227.396,233.386" svgx:width="0.4,0.48,0.42,0.6,0.55,0.58,0.42,0.48,0.42,0.55,0.33,0.55,0.55,0.44,0.29,0.29,0.88,0.5,0.33,0.48,0.55,0.33,0.5,0.44,0.33,0.55,0.4,0.42,0.55,0.29,0.42,0.55,0.5,0.29,0.42,0.55,0.55,0.61,0.29" style="fill:rgb(0,0,0);font-family:URWPalladioL-Roma;font-size:9.96px;stroke:none;">responses to climate factors is also di</text>
   <text y="492.505" x="236.24" svgx:width="0.61" style="fill:rgb(0,0,0);font-family:Rpxr;font-size:9.96px;stroke:none;">ﬀ</text>
   <text y="492.505" x="242.201,246.897,250.593,255.288,260.994,264.19,266.68,270.121,277.826,286.002,288.854,294.56,300.1376,302.501,305.696,311.17400000000004,313.539,316.735,322.44,327.2208,329.626,332.822,335.675,341.125,346.831,350.11780000000005,352.516,356.869,362.222,368.133,374.025,376.877,379.73,385.436,391.0136,393.376,399.268,402.954,408.306,412.659,417.355,421.511,425.6942,428.158,433.51,436.7968,439.265,443.422,449.333,453.205,456.47,461.371,465.724,470.5048,472.91,481.085,485.987,489.183,493.879,497.863,500.241,505.946,510.642,515.544" svgx:width="0.48,0.4,0.48,0.58,0.33,0.25,0.55,0.79,0.83,0.29,0.58,0.56,0.55,0.33,0.55,0.55,0.33,0.58,0.48,0.55,0.33,0.29,0.56,0.58,0.33,0.55,0.44,0.55,0.6,0.6,0.29,0.29,0.58,0.56,0.55,0.6,0.4,0.55,0.44,0.48,0.42,0.42,0.55,0.55,0.33,0.55,0.42,0.6,0.4,0.33,0.5,0.44,0.48,0.55,0.83,0.5,0.33,0.48,0.4,0.55,0.58,0.48,0.5,0.33" style="fill:rgb(0,0,0);font-family:URWPalladioL-Roma;font-size:9.96px;stroke:none;">erent. Owing to the tight coupling process of surface water heat</text>
   <text y="506.014" x="76.535,81.307,86.448,90.871,96.669,101.651,107.449,112.988,117.76,120.25,122.742,131.05,136.032,139.967,148.764,151.663,157.461,163.0386,165.491,174.288,179.269,184.8466,187.289,193.087,198.069,203.698,208.4788,210.96,217.047" svgx:width="0.48,0.52,0.44,0.58,0.5,0.58,0.56,0.48,0.25,0.55,0.83,0.5,0.4,0.88,0.29,0.58,0.56,0.55,0.88,0.5,0.56,0.55,0.58,0.5,0.56,0.48,0.55,0.61,0.29" style="fill:rgb(0,0,0);font-family:URWPalladioL-Roma;font-size:9.96px;stroke:none;">exchange, warming may have di</text>
   <text y="506.014" x="219.948" svgx:width="0.61" style="fill:rgb(0,0,0);font-family:Rpxr;font-size:9.96px;stroke:none;">ﬀ</text>
   <text y="506.014" x="226.005,230.777,234.533,239.305,245.103,248.3898,250.842" svgx:width="0.48,0.4,0.48,0.58,0.33,0.55,0.48" style="fill:rgb(0,0,0);font-family:URWPalladioL-Roma;font-size:9.96px;stroke:none;">erent e</text>
   <text y="506.014" x="255.611" svgx:width="0.61" style="fill:rgb(0,0,0);font-family:Rpxr;font-size:9.96px;stroke:none;">ﬀ</text>
   <text y="506.014" x="261.669,266.441,270.865,274.112,278.2952,280.827,286.267,292.0438,294.546,297.793,303.592,308.3728,310.854,316.414,319.313,324.822,329.594,332.842,337.823,343.59979999999996,346.112,352.129,355.029,360.01,363.258,368.03,373.011,378.987,381.509,384.827,390.934,396.951,400.23780000000005,402.749,407.521,411.945,417.384,421.609,427.148,431.372,434.62,439.392,448.189,452.413,454.903,458.391,464.498,470.296,475.0768,477.559,481.494,484.393,488.617,493.3978,495.88,501.319,504.60580000000004,507.128,512.109,515.008" svgx:width="0.48,0.44,0.33,0.42,0.55,0.55,0.58,0.55,0.33,0.58,0.48,0.55,0.61,0.29,0.55,0.48,0.33,0.5,0.58,0.55,0.6,0.29,0.5,0.33,0.48,0.5,0.6,0.55,0.33,0.61,0.6,0.33,0.55,0.48,0.44,0.55,0.42,0.56,0.42,0.33,0.48,0.88,0.42,0.25,0.55,0.61,0.58,0.48,0.55,0.4,0.29,0.42,0.48,0.55,0.55,0.33,0.55,0.5,0.29,0.4" style="fill:rgb(0,0,0);font-family:URWPalladioL-Roma;font-size:9.96px;stroke:none;">ects on the Tibetan Plateau (TP) ecosystems. The rise of air</text>
   <text y="519.524" x="76.535,79.776,84.539,93.318,99.294,104.056,107.984,112.955,116.196,122.192,125.94,130.7208,133.198,137.613,142.584,148.3608,150.866,156.653,162.082,165.3688,167.809,173.237,179.024,181.917,187.4946,189.941,193.69,198.452,204.527,210.522,214.937,219.7178,222.195,225.436,231.223,236.0038,238.481,242.697,248.692,254.668,260.644,264.392,269.154,273.37,277.586,280.479,285.908,291.6848,294.18,299.609,302.8958,305.415,311.033,315.796,321.324,326.086,329.328,334.299,337.54,340.434,345.862,351.6388,354.145,359.116,363.53,366.772,369.665,375.283,378.176,381.417,386.9946,389.441,392.334,398.1108,400.607,403.848,409.635,414.4158,416.893,422.421,426.169,431.598,439.89,442.783,448.57,454.1476,456.594,460.81,465.572,470.543,474.759,480.188,485.96479999999997,488.47" svgx:width="0.33,0.48,0.88,0.6,0.48,0.4,0.5,0.33,0.6,0.4,0.48,0.55,0.44,0.5,0.58,0.55,0.58,0.55,0.33,0.55,0.55,0.58,0.29,0.56,0.55,0.4,0.48,0.61,0.6,0.44,0.48,0.55,0.33,0.58,0.48,0.55,0.42,0.6,0.6,0.6,0.4,0.48,0.42,0.42,0.29,0.55,0.58,0.55,0.55,0.33,0.55,0.56,0.48,0.56,0.48,0.33,0.5,0.33,0.29,0.55,0.58,0.55,0.5,0.44,0.33,0.29,0.56,0.29,0.33,0.56,0.55,0.29,0.58,0.55,0.33,0.58,0.48,0.55,0.56,0.4,0.55,0.83,0.29,0.58,0.56,0.55,0.42,0.48,0.5,0.42,0.55,0.58,0.55,0.33" style="fill:rgb(0,0,0);font-family:URWPalladioL-Roma;font-size:9.96px;stroke:none;">temperature can not only reduce the suppression of vegetation activity in the growing season [</text>
   <text y="519.524" x="491.778,496.759" svgx:width="0.5,0.5" style="fill:rgb(8,117,183);font-family:URWPalladioL-Roma;font-size:9.96px;stroke:none;">21</text>
   <text y="519.524" x="501.741" svgx:width="0.25" style="fill:rgb(0,0,0);font-family:URWPalladioL-Roma;font-size:9.96px;stroke:none;">,</text>
   <text y="519.524" x="504.226,509.207" svgx:width="0.5,0.5" style="fill:rgb(8,117,183);font-family:URWPalladioL-Roma;font-size:9.96px;stroke:none;">22</text>
   <text y="519.524" x="514.189,517.5" svgx:width="0.33,0.25" style="fill:rgb(0,0,0);font-family:URWPalladioL-Roma;font-size:9.96px;stroke:none;">],</text>
   <text y="533.033" x="76.535,82.072,88.109,91.3958,93.866,98.873,101.786,106.032,111.50999999999999,113.981,119.999,123.774,129.24,138.081,143.548,146.812,151.5928,154.101,157.365,163.192,167.9728,170.471,173.736,179.563,184.569,192.919,195.833,201.66,207.2376,209.72,215.187,218.4738,221.004,225.249,231.287,235.242,238.576,243.582,248.028,252.8088,255.317,259.562,265.029,267.942,270.8304,273.349" svgx:width="0.55,0.6,0.33,0.55,0.5,0.29,0.42,0.55,0.55,0.6,0.4,0.55,0.88,0.55,0.33,0.48,0.55,0.33,0.58,0.48,0.55,0.33,0.58,0.5,0.83,0.29,0.58,0.56,0.55,0.55,0.33,0.55,0.42,0.6,0.4,0.33,0.5,0.44,0.48,0.55,0.42,0.55,0.29,0.29,0.55,0.33" style="fill:rgb(0,0,0);font-family:URWPalladioL-Roma;font-size:9.96px;stroke:none;">but also promote the thawing of surface soil [</text>
   <text y="533.033" x="276.679,281.66" svgx:width="0.5,0.5" style="fill:rgb(8,117,183);font-family:URWPalladioL-Roma;font-size:9.96px;stroke:none;">23</text>
   <text y="533.033" x="286.642" svgx:width="0.25" style="fill:rgb(0,0,0);font-family:URWPalladioL-Roma;font-size:9.96px;stroke:none;">,</text>
   <text y="533.033" x="289.145,294.126" svgx:width="0.5,0.5" style="fill:rgb(8,117,183);font-family:URWPalladioL-Roma;font-size:9.96px;stroke:none;">24</text>
   <text y="533.033" x="299.107,302.441,304.931,307.437,312.444,318.271,324.3466,326.871,330.135,335.963,340.7438,343.252,348.048,353.705,358.711,364.728,370.195,374.15,379.156,382.42,385.334,390.801,396.57779999999997,399.111,402.025,407.852,412.297,416.072,420.868,425.874,430.119,434.915,439.0982,441.654,450.004,455.01,458.274,463.07,467.054,469.518,472.422,477.889,482.134,486.379,488.869,491.375,499.726,505.553,508.466,512.912" svgx:width="0.33,0.25,0.55,0.5,0.58,0.61,0.55,0.33,0.58,0.48,0.55,0.48,0.56,0.5,0.6,0.55,0.4,0.5,0.33,0.29,0.55,0.58,0.55,0.29,0.58,0.44,0.4,0.48,0.5,0.42,0.48,0.42,0.55,0.83,0.5,0.33,0.48,0.4,0.55,0.29,0.55,0.42,0.42,0.25,0.55,0.83,0.58,0.29,0.44,0.58" style="fill:rgb(0,0,0);font-family:URWPalladioL-Roma;font-size:9.96px;stroke:none;">], and the evaporation increases water loss, which</text>
   <text y="546.542" x="76.535,85.156,90.038,97.263,101.939,106.977,111.859,116.194,120.87,124.727,130.126,135.008,138.191,142.9718,144.673,148.813,154.144,156.985,159.8734,161.623,169.765,174.647,177.83,182.506,186.49,188.159,194.125,198.801,204.708,209.043,211.884,215.17079999999999,216.864,221.745,227.428,235.199,241.165,244.836,250.166,256.054,261.482,267.164,270.347,272.837,276.049,285.285,290.167,295.849,303.074,306.755,311.431,315.571,320.248,325.129,328.8,333.135,338.818,343.494,347.351,351.5342,353.287,358.686,363.363,366.204,369.045,373.722,379.238,384.0188,385.721,388.904,394.586,399.468,402.75480000000005,404.447,407.63,413.312,418.0928,419.785" svgx:width="0.88,0.5,0.56,0.48,0.52,0.5,0.44,0.48,0.4,0.55,0.5,0.33,0.48,0.55,0.42,0.55,0.29,0.29,0.55,0.83,0.5,0.33,0.48,0.4,0.55,0.61,0.48,0.61,0.44,0.29,0.33,0.55,0.5,0.58,0.61,0.61,0.4,0.55,0.6,0.56,0.58,0.33,0.25,0.55,0.95,0.5,0.58,0.56,0.4,0.48,0.42,0.48,0.5,0.4,0.44,0.58,0.48,0.4,0.42,0.55,0.55,0.48,0.29,0.29,0.48,0.56,0.48,0.55,0.33,0.58,0.5,0.33,0.55,0.33,0.58,0.48,0.55,0.48" style="fill:rgb(0,0,0);font-family:URWPalladioL-Roma;font-size:9.96px;stroke:none;">mayexacerbate soil water deﬁcit anddrought. Manyresearchers believe that the e</text>
   <text y="546.542" x="424.464" svgx:width="0.61" style="fill:rgb(0,0,0);font-family:Rpxr;font-size:9.96px;stroke:none;">ﬀ</text>
   <text y="546.542" x="430.4,435.077,439.412,442.594,446.7772,448.531,453.861,457.1478,458.919,464.601,470.029,475.995,479.666,484.997,488.179,493.862,498.538,502.395,511.016,515.898" svgx:width="0.48,0.44,0.33,0.42,0.55,0.55,0.33,0.55,0.58,0.56,0.61,0.4,0.55,0.33,0.58,0.48,0.4,0.88,0.5,0.29" style="fill:rgb(0,0,0);font-family:URWPalladioL-Roma;font-size:9.96px;stroke:none;">ects of hydrothermal</text>
   <text y="560.052" x="76.535,81.02,86.536,92.415,98.588,101.528,104.821,107.761,113.276,119.156,123.3392,125.924,131.44,137.2168,139.804,143.098,148.977,153.7578,156.301,162.009,166.848,172.464,177.303,180.596,185.648,188.941,191.881,197.396,203.1728,205.751,211.367,215.186,220.702,229.127,232.42,238.1968,240.785,243.724,249.5008,252.079,258.271,264.247,266.858,271.909,275.728,280.5088,283.042,291.962,298.053,301.347,307.438,312.489,315.429,317.919,321.44,326.743,330.036,336.128,342.3,347.917,350.857,356.736,362.3136,364.838,368.131,374.011,378.7918,381.335,385.143,389.982,394.265,400.337,405.853,411.732,416.015,420.7958,423.339,428.855,432.14180000000005,434.704,443.099,450.918,458.212,461.59839999999997,464.101,469.152,475.032,481.1076,483.689,488.174,491.114,494.054,502.974,508.025,511.318,514.258" svgx:width="0.44,0.55,0.58,0.61,0.29,0.33,0.29,0.55,0.58,0.42,0.55,0.55,0.58,0.55,0.33,0.58,0.48,0.55,0.56,0.48,0.56,0.48,0.33,0.5,0.33,0.29,0.55,0.58,0.55,0.56,0.4,0.55,0.83,0.33,0.58,0.55,0.29,0.58,0.55,0.61,0.6,0.55,0.5,0.4,0.48,0.55,0.88,0.6,0.33,0.6,0.5,0.29,0.25,0.55,0.52,0.33,0.6,0.61,0.56,0.29,0.58,0.56,0.55,0.33,0.58,0.48,0.55,0.4,0.48,0.42,0.6,0.55,0.58,0.42,0.48,0.55,0.55,0.33,0.55,0.83,0.77,0.72,0.34,0.55,0.5,0.58,0.61,0.55,0.44,0.29,0.29,0.88,0.5,0.33,0.29,0.44" style="fill:rgb(0,0,0);font-family:URWPalladioL-Roma;font-size:9.96px;stroke:none;">conditions on the vegetation growth in TP are mutual. Studying the response of NDVI and climatic</text>
   <text y="573.561" x="76.535,79.786,84.668,89.003,92.186,97.516,101.373,105.5562,107.534,110.375,116.1518,118.088,121.271,126.953,131.7338,133.651,139.167,143.844,149.272,153.949,157.131,162.013,165.196,168.037,173.368,179.1448,181.071,186.5,190.18,195.511,203.654,206.495,212.177,217.75459999999998,219.627,223.766,228.443,233.325,237.464,242.795,248.5718,250.508,253.349,259.12579999999997,261.053,267.038,273.014,274.956,279.095,284.778,290.108,295.996,298.837,304.9126,306.833,309.674,315.356,319.691,322.532,328.41,334.385,339.1658,341.083,344.266,349.948,354.7288,356.646,360.785,363.968,369.855,375.821,381.39860000000004,383.27,388.601,391.8878,393.883,399.565,404.994,410.959,414.63,419.961,423.144,428.826,433.503,437.359,445.98,450.862,453.7504,455.734,458.985,463.867,468.202,471.384,476.715,480.572,484.7552,486.732" svgx:width="0.33,0.5,0.44,0.33,0.55,0.4,0.42,0.55,0.29,0.58,0.55,0.33,0.58,0.48,0.55,0.56,0.48,0.56,0.48,0.33,0.5,0.33,0.29,0.55,0.58,0.55,0.56,0.4,0.55,0.83,0.29,0.58,0.56,0.55,0.42,0.48,0.5,0.42,0.55,0.58,0.55,0.29,0.58,0.55,0.61,0.6,0.55,0.42,0.58,0.55,0.6,0.29,0.61,0.55,0.29,0.58,0.44,0.29,0.6,0.61,0.48,0.55,0.33,0.58,0.48,0.55,0.42,0.33,0.6,0.61,0.56,0.55,0.55,0.33,0.55,0.58,0.56,0.61,0.4,0.55,0.33,0.58,0.48,0.4,0.88,0.5,0.29,0.55,0.33,0.5,0.44,0.33,0.55,0.4,0.42,0.55,0.33" style="fill:rgb(0,0,0);font-family:URWPalladioL-Roma;font-size:9.96px;stroke:none;">factors in the vegetation growing season in TP should include the study of hydrothermal factors [</text>
   <text y="573.561" x="489.985,494.966" svgx:width="0.5,0.5" style="fill:rgb(8,117,183);font-family:URWPalladioL-Roma;font-size:9.96px;stroke:none;">25</text>
   <text y="573.561" x="499.947" svgx:width="0.5" style="fill:rgb(0,0,0);font-family:URWPalladioL-Roma;font-size:9.96px;stroke:none;">–</text>
   <text y="573.561" x="504.829,509.81" svgx:width="0.5,0.5" style="fill:rgb(8,117,183);font-family:URWPalladioL-Roma;font-size:9.96px;stroke:none;">27</text>
   <text y="573.561" x="514.792,518.043" svgx:width="0.33,0.25" style="fill:rgb(0,0,0);font-family:URWPalladioL-Roma;font-size:9.96px;stroke:none;">].</text>
   <text y="587.071" x="97.795,103.867,106.792,111.818,117.29599999999999,119.789,124.604,127.8908,130.364,135.39,138.316,140.806,143.312" svgx:width="0.6,0.29,0.5,0.55,0.55,0.48,0.33,0.55,0.5,0.29,0.25,0.55,0.33" style="fill:rgb(0,0,0);font-family:URWPalladioL-Roma;font-size:9.96px;stroke:none;">Piao et al. [</text>
   <text y="587.071" x="146.655,151.636" svgx:width="0.5,0.5" style="fill:rgb(8,117,183);font-family:URWPalladioL-Roma;font-size:9.96px;stroke:none;">13</text>
   <text y="587.071" x="156.617,159.9038,162.447,168.509,172.771,177.586,183.66160000000002,186.211,189.488,195.338,200.1188,202.636,207.099,212.588,216.559,220.348,225.163,228.089,233.115,236.392,239.317,244.806,250.58280000000002,253.139,258.165,264.015,269.042,271.967,277.556,281.818,284.743,288.9262,291.478,300.354,305.169,308.446,314.297,319.785,325.86060000000003,328.41,331.687,337.165,339.659,343.921,347.198,353.259,359.401,364.97860000000003,367.473,370.75,376.601,381.3818,383.899,387.688,392.503,395.429,400.455,403.732,406.657,412.145,417.996,422.258,428.108,431.034,437.01,439.558,445.117,449.932,453.209,461.592,466.407,471.223,476.9998,479.556,483.346,488.161,497.037,502.525,505.802,510.617,513.543" svgx:width="0.33,0.55,0.6,0.42,0.48,0.61,0.55,0.33,0.58,0.48,0.55,0.44,0.55,0.4,0.4,0.48,0.29,0.5,0.33,0.29,0.55,0.58,0.55,0.5,0.58,0.5,0.29,0.56,0.42,0.29,0.42,0.55,0.88,0.48,0.33,0.58,0.55,0.61,0.55,0.33,0.55,0.55,0.42,0.33,0.6,0.61,0.56,0.55,0.33,0.58,0.48,0.55,0.4,0.48,0.29,0.5,0.33,0.29,0.55,0.58,0.42,0.58,0.29,0.6,0.55,0.55,0.48,0.33,0.83,0.48,0.48,0.58,0.55,0.4,0.48,0.88,0.55,0.33,0.48,0.29,0.56" style="fill:rgb(0,0,0);font-family:URWPalladioL-Roma;font-size:9.96px;stroke:none;">] used the correlation analysis method to study the relationship between remotely</text>
   <text y="600.58" x="76.535,80.675,85.351,91.034,95.173,99.85,107.67,113.187,117.863,123.292,127.968,131.151,136.033,139.216,142.057,147.388,153.1648,154.935,160.402,166.289,171.171,176.853,180.036,182.877,186.06,190.942,194.125,196.966,202.482,207.2628,209.014,212.265,217.147,221.482,224.664,229.995,233.852,238.0352,239.846,244.728,250.41,258.231,262.566,265.407,268.248,276.869,281.751,284.934,289.7148,291.475,295.81,301.492,306.374,312.056,317.485,322.161,324.651,326.584,331.983,337.871,341.1578,342.908,346.091,351.774,356.5548,358.315,362.65,367.981,371.837,375.508,380.185,383.026,387.908,391.091,393.932,399.263,405.03979999999996,406.81,411.691,417.374,422.255,425.096,430.525,434.664,437.506,441.68919999999997,443.5,452.121,456.798,459.981,465.663,470.994,478.814,484.243,488.919,494.602,499.278,503.135,508.017,510.858,513.699" svgx:width="0.42,0.48,0.58,0.42,0.48,0.61,0.56,0.48,0.56,0.48,0.33,0.5,0.33,0.29,0.55,0.58,0.55,0.56,0.6,0.5,0.58,0.33,0.29,0.33,0.5,0.33,0.29,0.56,0.48,0.55,0.33,0.5,0.44,0.33,0.55,0.4,0.42,0.55,0.5,0.58,0.61,0.44,0.29,0.29,0.88,0.5,0.33,0.48,0.55,0.44,0.58,0.5,0.58,0.56,0.48,0.25,0.55,0.55,0.6,0.33,0.55,0.33,0.58,0.48,0.55,0.44,0.55,0.4,0.4,0.48,0.29,0.5,0.33,0.29,0.55,0.58,0.55,0.5,0.58,0.5,0.29,0.56,0.42,0.29,0.42,0.55,0.88,0.48,0.33,0.58,0.55,0.61,0.56,0.48,0.58,0.48,0.4,0.5,0.29,0.29,0.56" style="fill:rgb(0,0,0);font-family:URWPalladioL-Roma;font-size:9.96px;stroke:none;">sensedvegetation quantitative factors andclimate change, but the correlation analysis methodgenerally</text>
   <text y="614.089" x="76.535,80.366,85.234,90.924,97.052,100.009,103.85,108.718,112.9012,116.288,121.156,126.237,130.748,136.5248,139.935,145.676,150.757,154.771,157.728,162.809,168.429,171.386,176.1668,179.515,182.828,188.306,191.648,200.621,205.489,210.356,213.6428,216.931,220.244,226.158,230.9388,234.298,236.676,242.224,245.181,251.095,254.3818,257.67,263.584,269.133,273.146,282.119,287.2,290.0884,293.429,299.638,302.595,306.904,310.217,314.231,317.188,322.807,328.935,332.248,335.205,340.753,346.667,349.157,355.02,361.25,367.164,371.9448,375.293,380.161,385.404,388.717,392.558,397.426,406.399,411.1798,414.528,420.27,425.351,428.308,434.435,439.303,443.4862,446.884,452.432,455.71880000000004,459.078,462.391,468.305,473.0858,476.444,479.828,484.909,489.421,492.734,498.282,502.296,506.4792,509.867,512.824" svgx:width="0.4,0.48,0.56,0.6,0.29,0.4,0.48,0.42,0.55,0.48,0.5,0.44,0.58,0.55,0.56,0.5,0.4,0.29,0.5,0.55,0.29,0.48,0.55,0.33,0.55,0.55,0.88,0.48,0.48,0.33,0.55,0.33,0.58,0.48,0.55,0.23,0.55,0.29,0.58,0.33,0.55,0.58,0.55,0.4,0.88,0.5,0.29,0.55,0.61,0.29,0.42,0.33,0.4,0.29,0.55,0.6,0.33,0.29,0.55,0.58,0.25,0.55,0.61,0.58,0.48,0.55,0.48,0.52,0.33,0.4,0.48,0.88,0.48,0.55,0.56,0.5,0.29,0.6,0.48,0.42,0.55,0.55,0.33,0.55,0.33,0.58,0.48,0.55,0.33,0.5,0.44,0.33,0.55,0.4,0.42,0.55,0.29,0.58" style="fill:rgb(0,0,0);font-family:URWPalladioL-Roma;font-size:9.96px;stroke:none;">requires each variable to meet the joint normal distribution. The extreme values of the factors in</text>
   <text y="627.599" x="76.535,79.848,85.762,90.5428,93.78,98.861,104.775,109.856,112.813,118.463,122.771,125.729,129.9122,133.187,139.295,143.126,148.674,153.186,158.053,162.362,166.5452,169.821,178.296,181.253,184.21,187.0984,190.317,195.398,198.355,202.664,208.142,211.362,214.32,220.234,226.412,232.54,237.407,243.321,247.833,252.6138,255.851,259.164,265.078,269.8588,273.096,277.608,283.156,287.17,291.011,295.879,298.836,303.917,307.229,310.186,315.735,321.5118,324.799,329.88,335.794,340.875,343.832,349.482,353.791,356.748,360.9312,364.207,368.038,372.905,377.214,383.342,386.299,389.611,393.7942,397.07" svgx:width="0.33,0.58,0.48,0.55,0.5,0.58,0.5,0.29,0.56,0.42,0.29,0.42,0.55,0.6,0.4,0.55,0.44,0.48,0.42,0.42,0.55,0.83,0.29,0.29,0.29,0.55,0.5,0.29,0.42,0.55,0.55,0.29,0.58,0.61,0.6,0.48,0.58,0.44,0.48,0.55,0.33,0.58,0.48,0.55,0.44,0.55,0.4,0.4,0.48,0.29,0.5,0.33,0.29,0.55,0.58,0.55,0.5,0.58,0.5,0.29,0.56,0.42,0.29,0.42,0.55,0.4,0.48,0.42,0.6,0.29,0.33,0.42,0.55,0.33" style="fill:rgb(0,0,0);font-family:URWPalladioL-Roma;font-size:9.96px;stroke:none;">the analysis process will also inﬂuence the correlation analysis results [</text>
   <text y="627.599" x="400.456" svgx:width="0.5" style="fill:rgb(8,117,183);font-family:URWPalladioL-Roma;font-size:9.96px;stroke:none;">4</text>
   <text y="627.599" x="405.437" svgx:width="0.25" style="fill:rgb(0,0,0);font-family:URWPalladioL-Roma;font-size:9.96px;stroke:none;">,</text>
   <text y="627.599" x="407.978,412.959" svgx:width="0.5,0.5" style="fill:rgb(8,117,183);font-family:URWPalladioL-Roma;font-size:9.96px;stroke:none;">28</text>
   <text y="627.599" x="417.94,421.324,423.814,429.331,436.536,442.45,447.531,453.3078,456.596,461.463,464.74980000000005,467.926,473.007,475.964,478.454,481.655" svgx:width="0.33,0.25,0.55,0.71,0.58,0.5,0.58,0.55,0.48,0.33,0.55,0.5,0.29,0.25,0.55,0.33" style="fill:rgb(0,0,0);font-family:URWPalladioL-Roma;font-size:9.96px;stroke:none;">]. Chan et al. [</text>
   <text y="627.599" x="485.039,490.02" svgx:width="0.5,0.5" style="fill:rgb(8,117,183);font-family:URWPalladioL-Roma;font-size:9.96px;stroke:none;">29</text>
   <text y="627.599" x="495.002,498.28880000000004,501.536,506.617,512.531" svgx:width="0.33,0.55,0.5,0.58,0.61" style="fill:rgb(0,0,0);font-family:URWPalladioL-Roma;font-size:9.96px;stroke:none;">] and</text>
   <text y="641.108" x="76.366,79.75,82.707,88.48379999999999,91.822,96.69,99.9768,103.214,108.295,111.252,113.74199999999999,116.993" svgx:width="0.33,0.29,0.58,0.55,0.48,0.33,0.55,0.5,0.29,0.25,0.55,0.33" style="fill:rgb(0,0,0);font-family:URWPalladioL-Roma;font-size:9.96px;stroke:none;">Jin et al. [</text>
   <text y="641.108" x="120.381,125.362" svgx:width="0.5,0.5" style="fill:rgb(8,117,183);font-family:URWPalladioL-Roma;font-size:9.96px;stroke:none;">30</text>
   <text y="641.108" x="130.344,133.6308,136.929,143.056,147.365,152.233,158.3086,161.653,164.965,170.88,175.6608,178.948,186.702,190.543,195.41,200.9876,204.261,211.049,215.917,218.874,223.955,227.268,230.225,235.773,241.687,246.768,249.6564,252.937,260.842,266.757,271.838,274.795,280.445,284.753,287.71,291.8932,295.22,298.604,306.357,313.146,321.051,324.3378,327.636,336.609,341.477,344.79,350.704,356.252,362.3276,365.672,368.985,374.463,377.734,382.043,385.356,391.483,397.692,403.2696,406.553,409.866,415.78,420.5608,423.849,427.69,432.557,435.515,440.596,443.908,446.865,452.414,458.328,462.637,468.551,471.508,477.484,480.816,486.436,491.303,494.616,503.091,507.958,512.826" svgx:width="0.33,0.55,0.6,0.42,0.48,0.61,0.55,0.33,0.58,0.48,0.55,0.76,0.4,0.48,0.56,0.55,0.67,0.48,0.29,0.5,0.33,0.29,0.55,0.58,0.5,0.29,0.55,0.78,0.58,0.5,0.29,0.56,0.42,0.29,0.42,0.55,0.33,0.76,0.67,0.78,0.33,0.55,0.88,0.48,0.33,0.58,0.55,0.61,0.55,0.33,0.55,0.55,0.42,0.33,0.6,0.61,0.56,0.55,0.33,0.58,0.48,0.55,0.4,0.48,0.29,0.5,0.33,0.29,0.55,0.58,0.42,0.58,0.29,0.6,0.55,0.55,0.48,0.33,0.83,0.48,0.48,0.58" style="fill:rgb(0,0,0);font-family:URWPalladioL-Roma;font-size:9.96px;stroke:none;">] used the Grey Relational Analysis (GRA) method to study the relationship between</text>
   <text y="654.618" x="76.256,81.845,86.584,92.085,96.823,100.048,104.995,108.22,111.099,116.5,122.2768,124.751,127.63,133.387,139.432,144.171,149.3502,151.768,156.715,162.472,168.54760000000002,171.01,175.402,178.281,181.16,189.895,194.842,198.067,200.946,205.3284,207.831,211.125,216.072,220.464,223.689,229.091,232.998,237.193,239.68300000000002,243.168,250.717,257.325,265.0938,267.515,270.394,274.5772,277.081,281.474,286.875,292.633,296.827,299.706,305.751,310.489,314.219,318.958,325.03360000000004,327.495,330.72,336.19800000000004,338.615,344.085,348.8658,351.317,356.264,362.0408,364.524,369.471,375.228,380.175,383.053,388.554,392.749,395.627,399.8102,402.315,407.716,411.00280000000004,413.504,416.729,422.486,427.2668,429.718,435.219,439.957,445.359,454.094,458.833,462.058,465.966,468.844,473.2264,475.73,481.675,485.405,490.807,495.911,498.79,507.525,510.404,513.629" svgx:width="0.56,0.48,0.56,0.48,0.33,0.5,0.33,0.29,0.55,0.58,0.55,0.29,0.58,0.61,0.48,0.52,0.55,0.5,0.58,0.61,0.55,0.44,0.29,0.29,0.88,0.5,0.33,0.29,0.44,0.55,0.33,0.5,0.44,0.33,0.55,0.4,0.42,0.25,0.55,0.76,0.67,0.78,0.55,0.29,0.42,0.55,0.44,0.55,0.58,0.42,0.29,0.61,0.48,0.4,0.48,0.61,0.55,0.33,0.55,0.55,0.55,0.48,0.55,0.5,0.58,0.55,0.5,0.58,0.5,0.29,0.56,0.42,0.29,0.42,0.55,0.55,0.33,0.55,0.33,0.58,0.48,0.55,0.56,0.48,0.55,0.88,0.48,0.33,0.4,0.29,0.44,0.55,0.6,0.4,0.55,0.52,0.29,0.88,0.29,0.33,0.56" style="fill:rgb(0,0,0);font-family:URWPalladioL-Roma;font-size:9.96px;stroke:none;">vegetation index and climatic factors. GRA is considered to be an analysis of the geometric proximity</text>
   <text y="668.127" x="76.535,81.934,86.611,89.794,97.936,102.613,107.29,113.0668,115.295,121.261" svgx:width="0.55,0.48,0.33,0.83,0.48,0.48,0.58,0.55,0.61,0.29" style="fill:rgb(0,0,0);font-family:URWPalladioL-Roma;font-size:9.96px;stroke:none;">between di</text>
   <text y="668.127" x="124.103" svgx:width="0.61" style="fill:rgb(0,0,0);font-family:Rpxr;font-size:9.96px;stroke:none;">ﬀ</text>
   <text y="668.127" x="130.039,134.716,138.396,143.073,148.755,152.0418,154.262,160.227,163.068,167.208,171.543,175.214,179.891,183.074,187.8548,190.074,194.213,198.89,204.358,210.245,214.922,220.604,224.939,229.615,233.7982,236.079,244.221,247.063,250.245,255.928,258.769,264.5458,266.775,271.755,273.99,278.129,283.558,287.698,290.88,295.557,304.178,306.668,310.046,316.031,321.713,326.4938,328.713,334.581,338.262,343.593,348.631,351.472,360.093,362.934,366.117,371.69460000000004,373.869,376.71,380.8932,383.173,389.139,393.815,397.955,402.29,406.146,408.988,414.387,419.063,425.1386,427.352,432.751,438.3286,440.504,443.686,449.369,454.1498,456.369,461.797,465.478,470.155,475.7326,477.907,481.578,486.255,489.096,493.977,497.16,500.001,505.332,511.015,515.896" svgx:width="0.48,0.4,0.48,0.58,0.33,0.55,0.61,0.29,0.42,0.44,0.4,0.48,0.33,0.48,0.55,0.42,0.48,0.56,0.6,0.48,0.58,0.44,0.48,0.42,0.55,0.83,0.29,0.33,0.58,0.29,0.58,0.55,0.5,0.55,0.42,0.56,0.42,0.33,0.48,0.88,0.25,0.55,0.61,0.58,0.48,0.55,0.6,0.4,0.55,0.52,0.29,0.88,0.29,0.33,0.56,0.55,0.29,0.42,0.55,0.61,0.48,0.42,0.44,0.4,0.29,0.55,0.48,0.61,0.55,0.55,0.56,0.55,0.33,0.58,0.48,0.55,0.56,0.4,0.48,0.56,0.55,0.4,0.48,0.29,0.5,0.33,0.29,0.55,0.58,0.5,0.29" style="fill:rgb(0,0,0);font-family:URWPalladioL-Roma;font-size:9.96px;stroke:none;">erent discrete sequences within a system. The proximity is described by the grey relational</text>
   <text y="681.636" x="76.535,82.744,87.611,93.261,97.092,101.96,106.827,109.317,112.549,121.024,126.938,129.895,134.407,140.18380000000002,143.359,146.316,150.4992,153.653,157.494,162.362,168.012,173.093,176.924,183.133,188.0,194.0756,197.248,202.329,206.5122,209.676,214.65599999999998,217.795,226.768,231.635,236.716,241.025,247.152,250.984,255.7648,258.889,264.438,267.7248,270.86,274.173,280.087,284.8678,287.993,292.302,295.259,304.232,307.189,310.146,315.227,319.241,322.198,325.511,328.468,333.335,337.5182,340.682,346.231,349.5178,352.653,358.862,361.819,366.127,370.639,374.47,379.338,382.651,387.4318,390.557,396.765,401.846,405.159,410.139,413.278,416.591,422.505,427.586,430.87280000000004,433.938,438.449,443.53,449.30679999999995,452.473,458.092,462.8728,465.998,471.079,475.093,479.107,484.188,490.102,495.752,500.62,506.6956,509.867,512.824" svgx:width="0.61,0.48,0.56,0.4,0.48,0.48,0.25,0.55,0.83,0.58,0.29,0.44,0.58,0.55,0.29,0.42,0.55,0.4,0.48,0.56,0.5,0.4,0.61,0.48,0.61,0.55,0.5,0.42,0.55,0.5,0.55,0.88,0.48,0.5,0.42,0.6,0.4,0.48,0.55,0.55,0.33,0.55,0.33,0.58,0.48,0.55,0.42,0.29,0.88,0.29,0.29,0.5,0.4,0.29,0.33,0.29,0.48,0.42,0.55,0.55,0.33,0.55,0.61,0.29,0.42,0.44,0.4,0.48,0.33,0.48,0.55,0.61,0.5,0.33,0.5,0.55,0.33,0.58,0.5,0.33,0.55,0.44,0.5,0.58,0.55,0.55,0.48,0.55,0.5,0.4,0.4,0.5,0.58,0.56,0.48,0.61,0.55,0.29,0.58" style="fill:rgb(0,0,0);font-family:URWPalladioL-Roma;font-size:9.96px;stroke:none;">degree, which is regarded as a measure of the similarities of discrete data that can be arranged in</text>
   <text y="695.146" x="76.535,80.692,85.387,90.877,96.788,101.484,107.19,110.385,113.238,118.14,121.0284,123.492,128.845,132.541,138.53,143.226,147.21,149.588" svgx:width="0.42,0.48,0.56,0.6,0.48,0.58,0.33,0.29,0.5,0.29,0.55,0.55,0.4,0.61,0.48,0.4,0.55,0.33" style="fill:rgb(0,0,0);font-family:URWPalladioL-Roma;font-size:9.96px;stroke:none;">sequential order [</text>
   <text y="695.146" x="152.857,157.838" svgx:width="0.5,0.5" style="fill:rgb(8,117,183);font-family:URWPalladioL-Roma;font-size:9.96px;stroke:none;">30</text>
   <text y="695.146" x="162.82" svgx:width="0.5" style="fill:rgb(0,0,0);font-family:URWPalladioL-Roma;font-size:9.96px;stroke:none;">–</text>
   <text y="695.146" x="167.721,172.702" svgx:width="0.5,0.5" style="fill:rgb(8,117,183);font-family:URWPalladioL-Roma;font-size:9.96px;stroke:none;">33</text>
   <text y="695.146" x="177.684,180.948,183.43800000000002,186.909,194.497" svgx:width="0.33,0.25,0.55,0.77,0.29" style="fill:rgb(0,0,0);font-family:URWPalladioL-Roma;font-size:9.96px;stroke:none;">]. Di</text>
   <text y="695.146" x="197.35" svgx:width="0.61" style="fill:rgb(0,0,0);font-family:Rpxr;font-size:9.96px;stroke:none;">ﬀ</text>
   <text y="695.146" x="203.311,208.007,211.879,214.732,220.437,226.0146,228.388,231.652,235.348,240.691,251.847,255.043,260.748,265.5288,267.944,271.139,275.012,279.913,285.903,288.756,291.952,294.804,300.157,305.862,310.764,313.6524,316.116,324.773,329.674,332.87,338.576,343.271,351.928,356.829,360.025,362.878,367.23,372.132,375.0204,377.484,382.386,388.092,392.993,395.846,401.296,405.453,408.306,412.462,414.952,417.413,424.893,431.441,439.2098,441.568,447.46,451.146,456.498,462.037,464.89,470.88,475.575,479.7582,482.232,487.21200000000005,489.633,493.79,496.642,505.299,511.19,514.043" svgx:width="0.48,0.4,0.29,0.58,0.56,0.55,0.33,0.4,0.55,0.88,0.33,0.58,0.48,0.55,0.33,0.4,0.5,0.61,0.29,0.33,0.29,0.55,0.58,0.5,0.29,0.55,0.88,0.5,0.33,0.58,0.48,0.88,0.5,0.33,0.29,0.44,0.5,0.29,0.55,0.5,0.58,0.5,0.29,0.56,0.42,0.29,0.42,0.25,0.55,0.76,0.67,0.78,0.55,0.6,0.4,0.55,0.56,0.29,0.61,0.48,0.42,0.55,0.5,0.55,0.42,0.29,0.88,0.6,0.29,0.48" style="fill:rgb(0,0,0);font-family:URWPalladioL-Roma;font-size:9.96px;stroke:none;">ering fromthe traditional mathematical analysis, GRA provides a simple</text>
   <text y="708.655" x="76.535,80.708,85.079,90.807,95.522,104.214,108.9948,111.429,114.637,120.115,122.502,127.424,133.152,138.074,140.938,146.411,151.332,156.1128,158.547,161.746,167.475,172.2558,174.69,178.863,183.578,187.466,190.33,195.045,199.2282,201.709,205.42,210.135,212.999,217.921,221.129,223.994,229.368,235.097,239.27,244.999,247.863,253.779,257.9622,260.452,265.827,269.811,272.205,275.414,281.142,285.9228,288.357,292.531,298.004,302.177,305.386,310.101,321.282,326.726,331.44,337.169,342.091,347.652,350.516,355.891,359.04,361.53000000000003,364.001,368.716,374.277,378.992,384.7688,387.211,390.075,393.3618,395.853,399.062,404.791,409.5718,411.996,414.86,420.589,426.505,432.44,435.7268,438.149,441.013,446.742,450.02,455.394,459.282,467.973,472.895,476.104,478.968,484.342,490.11879999999996,492.561,495.426,499.6092,502.099,504.963,509.678,513.852,518.025" svgx:width="0.42,0.44,0.58,0.48,0.88,0.48,0.55,0.33,0.55,0.55,0.5,0.58,0.5,0.29,0.56,0.5,0.48,0.55,0.33,0.58,0.48,0.55,0.42,0.48,0.4,0.29,0.48,0.42,0.55,0.4,0.48,0.29,0.5,0.33,0.29,0.55,0.58,0.42,0.58,0.29,0.6,0.42,0.55,0.55,0.4,0.55,0.33,0.58,0.48,0.55,0.42,0.56,0.42,0.33,0.48,0.88,0.55,0.48,0.58,0.5,0.56,0.29,0.55,0.4,0.25,0.55,0.48,0.56,0.48,0.58,0.55,0.29,0.33,0.55,0.33,0.58,0.48,0.55,0.29,0.58,0.6,0.6,0.33,0.55,0.29,0.58,0.33,0.55,0.4,0.88,0.5,0.33,0.29,0.55,0.58,0.55,0.29,0.42,0.55,0.29,0.48,0.42,0.42,0.25" style="fill:rgb(0,0,0);font-family:URWPalladioL-Roma;font-size:9.96px;stroke:none;">scheme to analyze the series relationships or the systembehavior, even if the input information is less.</text>
   <text y="722.165" x="76.535,82.659,88.702,91.9888,94.455,97.722,103.555,108.3358,110.842,114.62,119.421,122.337,127.348,130.616,135.416,141.4916,144.026,148.275,151.542,157.586,163.71,166.626,171.427,175.6102,178.162,186.521,191.321,195.1,199.8808,202.386,211.236,216.247,219.163,224.996,227.913,233.4906,235.971,241.513,246.524,250.774,255.575,261.6506,264.184,269.656,275.4328,277.975,281.242,287.075,291.8558,294.371,299.844,305.496,310.297,314.256,319.267,322.183,325.0714,327.595,331.845,335.112,340.123,343.381,346.297,350.547,353.814,356.731,361.18,366.192,369.0804,371.604,377.256,382.278,385.184,391.228,396.0088,398.524,403.996,407.2828,409.819,413.086,418.919,423.6998,426.206,430.455,433.722,439.766,445.89,451.4676,453.948,458.959,462.737,467.538,472.51800000000003,475.035,480.507,484.491,486.951,489.868,492.784,501.634,504.551,507.818,512.619" svgx:width="0.61,0.6,0.33,0.55,0.33,0.58,0.48,0.55,0.4,0.48,0.29,0.5,0.33,0.48,0.61,0.55,0.42,0.33,0.6,0.61,0.29,0.48,0.42,0.55,0.83,0.48,0.4,0.48,0.55,0.88,0.5,0.29,0.58,0.29,0.56,0.55,0.55,0.5,0.42,0.48,0.61,0.55,0.55,0.58,0.55,0.33,0.58,0.48,0.55,0.55,0.56,0.48,0.4,0.5,0.29,0.29,0.55,0.42,0.33,0.5,0.33,0.29,0.42,0.33,0.29,0.44,0.5,0.29,0.55,0.56,0.5,0.29,0.6,0.48,0.55,0.55,0.33,0.55,0.33,0.58,0.48,0.55,0.42,0.33,0.6,0.61,0.56,0.55,0.5,0.4,0.48,0.5,0.55,0.55,0.4,0.55,0.29,0.29,0.88,0.29,0.33,0.48,0.61" style="fill:rgb(0,0,0);font-family:URWPalladioL-Roma;font-size:9.96px;stroke:none;">But the related studies were mainly based on the overall statistical value of the study area or limited</text>
   <text y="735.674" x="76.535,80.675,85.556,94.177,100.045,102.886,107.6668,109.838,115.706,121.036,123.877,129.56,132.743,136.882,139.372,142.74,148.725,154.407,160.295,164.434,166.924,169.189,172.372,178.054,182.8348,185.006,188.687,193.363,197.503,203.39,206.231,209.414,213.5972,215.829,218.67,223.551,227.886,233.315,237.991,244.06660000000002,246.232,252.197,256.874,260.057,264.938,267.779,270.621,275.297,281.37260000000003,283.528,289.493,294.17,298.309,302.644,306.501,309.342,315.21,318.393,321.234,326.565,332.3418,334.522,339.852,343.1388,345.379,350.895,355.571,361.0,365.677,368.859,373.741,376.924,379.765,385.096,390.8728,393.053,396.734,401.41,405.55,411.418,416.749,422.431,426.571,431.247,435.4302,437.662,440.845,446.32300000000004,448.45,454.416" svgx:width="0.42,0.5,0.88,0.6,0.29,0.48,0.55,0.6,0.55,0.29,0.58,0.33,0.42,0.25,0.55,0.61,0.58,0.6,0.42,0.25,0.55,0.33,0.58,0.48,0.55,0.4,0.48,0.42,0.6,0.29,0.33,0.42,0.55,0.29,0.5,0.44,0.56,0.48,0.61,0.55,0.61,0.48,0.33,0.5,0.29,0.29,0.48,0.61,0.55,0.61,0.48,0.42,0.44,0.4,0.29,0.6,0.33,0.29,0.55,0.58,0.55,0.55,0.33,0.55,0.56,0.48,0.56,0.48,0.33,0.5,0.33,0.29,0.55,0.58,0.55,0.4,0.48,0.42,0.6,0.55,0.58,0.42,0.48,0.42,0.55,0.33,0.55,0.55,0.61,0.29" style="fill:rgb(0,0,0);font-family:URWPalladioL-Roma;font-size:9.96px;stroke:none;">sample points. Thus, the results lacked detailed description of vegetation responses to di</text>
   <text y="735.674" x="457.255" svgx:width="0.61" style="fill:rgb(0,0,0);font-family:Rpxr;font-size:9.96px;stroke:none;">ﬀ</text>
   <text y="735.674" x="463.191,467.868,471.548,476.225,481.907,485.1938,487.365,491.7,494.541,497.382,506.003,510.885,514.068" svgx:width="0.48,0.4,0.48,0.58,0.33,0.55,0.44,0.29,0.29,0.88,0.5,0.33,0.48" style="fill:rgb(0,0,0);font-family:URWPalladioL-Roma;font-size:9.96px;stroke:none;">erent climate</text>
   <text y="749.183" x="76.535,79.839,84.801,89.206,92.441,97.859,101.778,105.9612,108.476,111.364,117.1408,119.62,122.854,128.629,133.4098,135.873,140.08,143.315,149.299,155.361,160.93859999999998,163.359,168.32,172.061,176.814,181.776,184.26600000000002,187.739,195.459,199.6422,202.157,205.461,210.879,214.863,217.279,220.514,226.289,231.0698,233.533,236.768,239.655,248.417,253.1978,255.651,261.614,266.367,270.287,273.174,278.592,284.6676,287.145,292.107,298.169,303.587,309.551,312.786,317.539,323.6146,326.092,328.98,334.7568,337.235,340.47,346.245,351.0258,353.489,357.23,361.983,366.19,370.943,375.904,379.635,384.041,389.816,392.306,394.787,398.994,404.412,413.174,417.9548,420.418,424.625,429.031,434.806,440.223,443.111,448.072,451.992,456.1752,458.68" svgx:width="0.33,0.5,0.44,0.33,0.55,0.4,0.42,0.55,0.29,0.58,0.55,0.33,0.58,0.48,0.55,0.42,0.33,0.6,0.61,0.56,0.55,0.5,0.4,0.48,0.5,0.25,0.55,0.78,0.42,0.55,0.33,0.55,0.4,0.55,0.33,0.58,0.48,0.55,0.33,0.29,0.88,0.48,0.55,0.6,0.48,0.4,0.29,0.55,0.61,0.55,0.5,0.61,0.55,0.6,0.33,0.48,0.61,0.55,0.29,0.58,0.55,0.33,0.58,0.48,0.55,0.4,0.48,0.42,0.48,0.5,0.4,0.44,0.58,0.25,0.55,0.42,0.55,0.88,0.48,0.55,0.42,0.44,0.58,0.55,0.29,0.5,0.4,0.42,0.55,0.33" style="fill:rgb(0,0,0);font-family:URWPalladioL-Roma;font-size:9.96px;stroke:none;">factors in the study area. As for the time period adopted in the research, some scholars [</text>
   <text y="749.183" x="461.986" svgx:width="0.5" style="fill:rgb(8,117,183);font-family:URWPalladioL-Roma;font-size:9.96px;stroke:none;">9</text>
   <text y="749.183" x="466.968" svgx:width="0.25" style="fill:rgb(0,0,0);font-family:URWPalladioL-Roma;font-size:9.96px;stroke:none;">,</text>
   <text y="749.183" x="469.448,474.429" svgx:width="0.5,0.5" style="fill:rgb(8,117,183);font-family:URWPalladioL-Roma;font-size:9.96px;stroke:none;">34</text>
   <text y="749.183" x="479.411" svgx:width="0.25" style="fill:rgb(0,0,0);font-family:URWPalladioL-Roma;font-size:9.96px;stroke:none;">,</text>
   <text y="749.183" x="481.892,486.873" svgx:width="0.5,0.5" style="fill:rgb(8,117,183);font-family:URWPalladioL-Roma;font-size:9.96px;stroke:none;">35</text>
   <text y="749.183" x="491.854,495.1408,497.649,503.424,508.385,513.992" svgx:width="0.33,0.55,0.58,0.5,0.56,0.48" style="fill:rgb(0,0,0);font-family:URWPalladioL-Roma;font-size:9.96px;stroke:none;">] have</text>
   <text y="762.693" x="76.535,80.366,85.234,90.314,93.272,96.229,101.31,106.177,112.2526,114.886,118.199,124.113,129.194,132.4808,135.006,138.319,144.233,149.0138,151.601,154.558,157.515,163.429,168.297,173.377,177.36100000000002,179.891,183.204,187.045,191.913,197.827,203.9026,206.536,212.084,215.3708,217.968,221.28,227.195,231.9758,234.562,240.11,245.852,250.719,254.733,259.814,262.771,265.6594,268.228,272.537,275.85,281.977,288.186,293.7636,296.336,302.443,307.311,311.325,314.282,319.83,325.9056,328.539,333.051,338.599,344.727,347.684,353.75960000000003,356.392,362.307,367.855,371.14180000000005,373.668,377.051,383.179,386.136,389.093,394.67060000000004,397.243,402.111,407.354,413.461,417.292,422.16,426.469,430.6522,433.277,436.59,442.504,447.2848,449.871,454.952,459.464,462.777,468.904,473.985,476.8734,479.442,485.651,491.301,497.215,502.296,511.269,514.226" svgx:width="0.4,0.48,0.5,0.29,0.29,0.5,0.48,0.61,0.55,0.33,0.58,0.5,0.33,0.55,0.33,0.58,0.48,0.55,0.29,0.29,0.58,0.48,0.5,0.4,0.55,0.33,0.4,0.48,0.58,0.61,0.55,0.55,0.33,0.55,0.33,0.58,0.48,0.55,0.55,0.56,0.48,0.4,0.5,0.29,0.29,0.55,0.42,0.33,0.6,0.61,0.56,0.55,0.6,0.48,0.4,0.29,0.55,0.61,0.55,0.44,0.55,0.6,0.29,0.61,0.55,0.58,0.55,0.33,0.55,0.33,0.6,0.29,0.29,0.56,0.55,0.48,0.52,0.6,0.4,0.48,0.42,0.42,0.55,0.33,0.58,0.48,0.55,0.5,0.44,0.33,0.6,0.5,0.29,0.55,0.61,0.56,0.58,0.5,0.88,0.29,0.44" style="fill:rgb(0,0,0);font-family:URWPalladioL-Roma;font-size:9.96px;stroke:none;">realized that the linear trend of the overall study period could not fully express the actual dynamic</text>
  </g>
 </g>
</svg>
