<?xml version="1.0" encoding="UTF-8"?>
<svg height="781.509" width="636.9986572265625" xmlns="http://www.w3.org/2000/svg">
 <g style="fill:none;">
  <text x="533.862,538.282,542.532,549.459,552.137,556.557" y="771.509" svg_rhmargin="560.977" style="fill:#171615;font-family:QADFKS+FrutigerLTPro-BoldCn;font-size:8.5px;font-style:NORMAL;font-weight:bold;">2SM-21</text>
  <text svg_rhmargin="560.692" x="56.693,63.935,66.298,69.604,71.967,76.846,81.411,84.717,87.08,91.959,96.685,98.895,103.468,108.033,111.339,116.065,122.831,127.396,131.807,135.428,137.638,142.517,147.396,154.485,159.364,163.929,167.235,169.598,174.477,176.84,181.405,183.615,190.381,192.744,196.05,200.776,202.986,207.406,209.616,214.036,217.436,222.315,224.525,226.888,231.614,233.824,237.131,241.857,246.421,248.631,253.51,258.389,263.115,266.422,270.901,275.313,278.619,280.829,285.708,288.853,291.063,295.628,300.354,303.975,307.281,311.846,314.209,318.935,323.5,328.379,330.742,335.306,337.516,343.186,347.75,352.162,356.726,359.089,363.968,368.847,375.936,380.501,385.227,388.533,390.743,392.953,523.836,528.715,533.441,538.005,542.885,546.191,550.756,554.062,556.272,560.692" y="246.66099999999994" style="fill:#4c8ecf;font-family:OALFSW+FrutigerLTPro-BlackCn;font-size:8.5px;font-style:NORMAL;font-weight:bold;">Mitigation Pathways Compatible with 1.5°C in the Context of Sustainable Development Chapter 2 </text>
  <path d=" M -587.1505737304688 537.4489135742188 C -587.1505737304688 537.4489135742188 -575.1505737304688 537.4489135742188 -575.1505737304688 549.4489135742188 L -575.1505737304688 624.3779296875 C -575.1505737304688 624.3779296875 -575.1505737304688 636.3779296875 -587.1505737304688 636.3779296875 L -627.0005493164062 636.3779296875 L -627.0005493164062 537.4489135742188 Z " style="fill:none;stroke:#000000;stroke-width:1.0;"/>
  <path d=" M 587.148681640625 636.3779296875 C 587.148681640625 636.3779296875 575.148681640625 636.3779296875 575.148681640625 624.3779296875 L 575.148681640625 549.4489135742188 C 575.148681640625 549.4489135742188 575.148681640625 537.4489135742188 587.148681640625 537.4489135742188 L 626.9986572265625 537.4489135742188 L 626.9986572265625 636.3779296875 Z " style="fill:none;stroke:#000000;stroke-width:1.0;"/>
  <text svg_rhmargin="-582.207" x="581.497,585.657,589.953,-597.479,-593.319,-589.023,-582.207" y="96.78599999999994" style="fill:#ffffff;font-family:OALFSW+FrutigerLTPro-BlackCn;font-size:8.0px;font-style:NORMAL;font-weight:bold;">2SM2SM </text>
  <path d=" M 56.959999084472656 713.2139892578125 L 309.54400634765625 713.2139892578125 L 309.54400634765625 699.2139892578125 L 56.959999084472656 699.2139892578125 Z M 309.5429992675781 713.2139892578125 L 560.9219970703125 713.2139892578125 L 560.9219970703125 699.2139892578125 L 309.5429992675781 699.2139892578125 Z M 56.959999084472656 699.2139892578125 L 104.17399597167969 699.2139892578125 L 104.17399597167969 685.9639892578125 L 56.959999084472656 685.9639892578125 Z M 104.1729965209961 699.2139892578125 L 309.5429992675781 699.2139892578125 L 309.5429992675781 685.9639892578125 L 104.1729965209961 685.9639892578125 Z M 309.5429992675781 699.2139892578125 L 354.5429992675781 699.2139892578125 L 354.5429992675781 685.9639892578125 L 309.5429992675781 685.9639892578125 Z M 354.5429992675781 699.2139892578125 L 560.9219970703125 699.2139892578125 L 560.9219970703125 685.9639892578125 L 354.5429992675781 685.9639892578125 Z " style="fill:none;stroke:#000000;stroke-width:1.0;"/>
  <path d=" M 104.1729965209961 685.9639892578125 L 309.5429992675781 685.9639892578125 L 309.5429992675781 662.7139892578125 L 104.1729965209961 662.7139892578125 Z M 309.5429992675781 685.9639892578125 L 354.5429992675781 685.9639892578125 L 354.5429992675781 662.7139892578125 L 309.5429992675781 662.7139892578125 Z M 354.5429992675781 685.9639892578125 L 560.9219970703125 685.9639892578125 L 560.9219970703125 662.7139892578125 L 354.5429992675781 662.7139892578125 Z M 104.1729965209961 649.4639892578125 L 309.5429992675781 649.4639892578125 L 309.5429992675781 636.2139892578125 L 104.1729965209961 636.2139892578125 Z M 309.5429992675781 649.4639892578125 L 354.5429992675781 649.4639892578125 L 354.5429992675781 636.2139892578125 L 309.5429992675781 636.2139892578125 Z M 354.5429992675781 649.4639892578125 L 560.9219970703125 649.4639892578125 L 560.9219970703125 636.2139892578125 L 354.5429992675781 636.2139892578125 Z M 104.1729965209961 622.9639892578125 L 309.5429992675781 622.9639892578125 L 309.5429992675781 609.7139892578125 L 104.1729965209961 609.7139892578125 Z M 309.5429992675781 622.9639892578125 L 354.5429992675781 622.9639892578125 L 354.5429992675781 609.7139892578125 L 309.5429992675781 609.7139892578125 Z M 354.5429992675781 622.9639892578125 L 560.9219970703125 622.9639892578125 L 560.9219970703125 609.7139892578125 L 354.5429992675781 609.7139892578125 Z M 104.1729965209961 596.4639892578125 L 309.5429992675781 596.4639892578125 L 309.5429992675781 583.2139892578125 L 104.1729965209961 583.2139892578125 Z M 309.5429992675781 596.4639892578125 L 354.5429992675781 596.4639892578125 L 354.5429992675781 583.2139892578125 L 309.5429992675781 583.2139892578125 Z M 354.5429992675781 596.4639892578125 L 560.9219970703125 596.4639892578125 L 560.9219970703125 583.2139892578125 L 354.5429992675781 583.2139892578125 Z M 104.1729965209961 569.9639892578125 L 309.5429992675781 569.9639892578125 L 309.5429992675781 556.7139892578125 L 104.1729965209961 556.7139892578125 Z M 309.5429992675781 569.9639892578125 L 354.5429992675781 569.9639892578125 L 354.5429992675781 556.7139892578125 L 309.5429992675781 556.7139892578125 Z M 354.5429992675781 569.9639892578125 L 560.9219970703125 569.9639892578125 L 560.9219970703125 556.7139892578125 L 354.5429992675781 556.7139892578125 Z M 104.1729965209961 543.4639892578125 L 309.5429992675781 543.4639892578125 L 309.5429992675781 520.2139892578125 L 104.1729965209961 520.2139892578125 Z M 309.5429992675781 543.4639892578125 L 354.5429992675781 543.4639892578125 L 354.5429992675781 520.2139892578125 L 309.5429992675781 520.2139892578125 Z M 354.5429992675781 543.4639892578125 L 560.9219970703125 543.4639892578125 L 560.9219970703125 520.2139892578125 L 354.5429992675781 520.2139892578125 Z " style="fill:none;stroke:#000000;stroke-width:1.0;"/>
  <text x="150.312,156.832,158.912,161.728,163.808,168.104,172.104,174.92,177.0,181.296,185.448,187.528,194.048,198.048,202.048,205.304,209.456,212.191,216.191,410.744,414.456,418.456,421.272,425.424,431.352,435.352,439.056,441.136,445.288,448.024,452.32,456.024" y="96.78599999999994" svg_rhmargin="459.728" style="fill:#171615;font-family:QADFKS+FrutigerLTPro-BoldCn;font-size:8.0px;font-style:NORMAL;font-weight:bold;">Mitigation Measure Pathway Proxy</text>
  <text x="71.526,76.062,78.456,82.215,85.848,89.607,190.127,194.537,198.037,200.886,203.868,206.332,208.152,211.911,214.375,216.195,219.954,223.58700000000002,324.59,328.482,332.241,336.0,339.5,441.007,445.417,448.917,451.766,454.748,457.212,459.032,462.791,465.255,467.075,470.834" y="110.03599999999994" svg_rhmargin="474.467" style="fill:#171615;font-family:QADFKS+FrutigerLTPro-BoldCn;font-size:7.0px;font-style:NORMAL;font-weight:bold;">Group Description Code Description</text>
  <text svg_rhmargin="92.694" x="68.446,72.856,76.356,81.802,85.302,88.935,92.694" y="128.28499999999997" style="fill:#171615;font-family:QADFKS+FrutigerLTPro-BoldCn;font-size:7.0px;font-style:NORMAL;font-weight:bold;">Demand </text>
  <text svg_rhmargin="333.725" x="108.178,112.196,114.919,117.642,120.75,122.304,125.412,127.484,130.725,132.797,134.351,137.725,141.092,142.772,145.88,149.254,152.362,154.434,157.801,160.65,162.33,165.438,167.384,170.884,173.607,175.161,178.269,181.643,184.366,187.215,188.895,190.449,195.503,198.87,200.942,204.316,207.298,210.406,215.46,218.568,221.942,224.014,226.604,228.284,229.838,233.212,234.892,238.0,241.374,244.741,246.813,250.187,252.777,255.885,257.565,260.155,263.263,265.986,268.058,271.432,273.504,276.094,330.365,333.725" y="123.28700000000003" style="fill:#171615;font-family:QADFKS+FrutigerLTPro-Condensed;font-size:7.0px;font-style:NORMAL;font-weight:normal;">Accelerating energy efficiency improvements in end-use sectors 1 </text>
  <text x="358.547,362.306,365.68,370.734,374.101,377.475,380.849,384.223,387.59,389.27,392.511,395.885,399.259,402.633,405.874,407.428,409.108,412.475,414.547,417.921,422.716,424.788,428.162,429.842,431.914,435.155,437.227,440.335,442.015,445.389,447.335,449.015,452.382,454.454,456.008,461.062,464.303,466.375,469.224,470.904,474.012,477.386,480.494,482.566,485.933,488.782,490.462,492.408,495.775,499.016,500.962,502.642,504.714,508.088,509.768,513.268,516.642,519.883,521.437,523.117,526.225,529.599,532.707,534.779,538.146,540.995,542.675,544.621,547.603,550.844,552.783" y="123.28700000000003" svg_rhmargin="554.463" style="fill:#171615;font-family:QADFKS+FrutigerLTPro-Condensed;font-size:7.0px;font-style:NORMAL;font-weight:normal;">Compound annual growth rate of primary energy (PE) to final energy (FE) </text>
  <text x="358.547,361.27,364.644,368.018,371.0,374.108,376.18,378.77,380.324,383.698,387.072,388.752,390.698,392.77,396.144,401.198,402.878,406.238,409.598,412.958,416.318,417.998,420.07,423.444,425.124,428.484,431.844,435.204" y="133.28999999999996" svg_rhmargin="438.564" style="fill:#171615;font-family:QADFKS+FrutigerLTPro-Condensed;font-size:7.0px;font-style:NORMAL;font-weight:normal;">conversion from 2020 to 2050</text>
  <text x="108.178,111.741,114.779,118.083,121.254,124.166,125.65,128.954,132.258,134.26,137.431,138.915,140.525,142.527,145.565,148.085,151.382,154.686,157.99,160.51,163.548,165.158,167.16,170.198,173.495,176.799,179.452,180.936,184.24,187.537,189.147,192.71,196.014,197.498,198.982,202.279,203.763,207.067,210.364,211.974,215.145,218.449,221.746,222.971,225.491,227.493,230.664,233.968,236.488,239.785,243.089,245.091,247.093,248.703,252.0,255.038,260.022,263.193,266.497,269.86400000000003,330.365,333.725,358.547,361.655,364.763,366.835,369.558,372.666,376.04,378.112,379.792,382.515,385.889,389.13,392.504,395.871,398.979,400.659,402.213,405.587,407.267,410.249,413.49,415.17,418.537,421.645,423.717,428.512,431.62,434.728,438.102,439.782,443.142,446.502,449.862,453.222,454.902,458.143,461.517,464.884,466.564,469.924,473.284,476.644" y="146.54100000000005" svg_rhmargin="480.004" style="fill:#171615;font-family:QADFKS+FrutigerLTPro-Condensed;font-size:7.0px;font-style:NORMAL;font-weight:normal;">Behavioural response reducing Building and Transport demand 2 Percent change in FE between 2010 and 2050</text>
  <text x="108.178,111.16,114.534,117.642,119.196,120.876,123.466,128.261,129.815,131.887,134.61,137.984,139.664,142.905,146.279,149.646,151.326,154.567,157.29,160.013,163.121,165.711,168.301,169.981,172.053,175.427,177.107,182.161,185.535,188.902,192.01,194.082,197.456,199.136,200.69,204.064,208.859,210.931,213.654,216.895,218.967,222.334,225.708,229.082,230.762,233.87,237.244,240.352,242.424,245.791,248.64,330.365,333.725,358.547,361.606,364.714,367.955,369.712,371.784,375.144,378.504,381.864,385.224,386.904,389.627,392.868,394.94,398.307,401.681,405.055,406.735,408.289,411.663,413.735,416.843,420.217,422.807,424.361,426.433,429.282,430.962,434.336,436.282,437.962,440.944" y="159.79200000000003" svg_rhmargin="444.185" style="fill:#171615;font-family:QADFKS+FrutigerLTPro-Condensed;font-size:7.0px;font-style:NORMAL;font-weight:normal;">Fuel switch and access to modern low-carbon energy 3 Year-2050 carbon intensity of FE</text>
  <text x="108.178,111.811,114.919,118.293,121.534,124.516,126.07,129.444,132.818,134.89,138.131,139.685,141.365,143.437,146.545,149.135,152.502,155.876,159.25,161.84,164.948,166.368,168.048,171.156,174.53,177.12,179.192,182.433,183.987,187.361,190.602,193.969,195.523,198.631,200.311,203.685,206.793,210.034,211.588,213.66,217.034,219.883,221.563,224.93,226.484,229.592,231.664,234.254,235.934,239.175,242.549,245.916,247.596,249.668,252.776,256.143,259.517,262.24,265.348,268.715,270.395,272.341,275.715,279.089,282.456,284.136,288.802,292.043,294.633,296.705,299.813,330.365,333.725,358.547,361.606,364.714,367.955,369.712,371.784,375.144,378.504,381.864,385.224,386.904,389.494,392.868,396.109,398.181,401.289,402.969,406.343,408.289,409.969,413.343,416.717,420.091,422.163,423.717,425.271,428.253,431.361,433.951,436.023,439.397,442.12,445.228,446.908,448.462,451.836,453.516,455.462,458.836,462.21,465.577,467.257,470.365,473.739,476.847,478.919,482.286,485.135,486.815,489.405,492.779,496.146,499.513,501.067" y="173.043" svg_rhmargin="503.916" style="fill:#171615;font-family:QADFKS+FrutigerLTPro-Condensed;font-size:7.0px;font-style:NORMAL;font-weight:normal;">Behavioural response: Sustainable healthy diets and reduced food waste 4 Year-2050 share of non-livestock in food energy supply</text>
  <text svg_rhmargin="90.426" x="70.714,74.214,77.847,81.606,85.365,87.185,90.426" y="186.29399999999998" style="fill:#171615;font-family:QADFKS+FrutigerLTPro-BoldCn;font-size:7.0px;font-style:NORMAL;font-weight:bold;">Supply </text>
  <text x="108.178,112.462,115.836,119.21,121.282,124.649,126.203,129.577,134.631,137.872,140.462,143.052,144.732,146.804,149.912,153.286,156.394,161.062,164.303,167.67,169.224,172.332,174.922,176.343,178.023,180.613,183.987,185.541,188.782,190.217,191.638,193.318,198.113,199.667,203.041,206.408,207.828,209.508,212.882,215.731,219.098,221.17,224.54399999999998,330.365,333.725,358.547,361.606,364.714,367.955,369.712,371.784,375.144,378.504,381.864,385.224,386.904,390.271,393.512,395.192,397.138,399.21,402.584,407.638,409.318,412.692,416.066,419.44,421.512,424.879,426.433,429.807,434.861,438.102,440.692,443.282,444.962,447.034,450.142,453.516,456.624,461.291,464.532,467.899,469.453,472.561" y="186.29399999999998" svg_rhmargin="475.151" style="fill:#171615;font-family:QADFKS+FrutigerLTPro-Condensed;font-size:7.0px;font-style:NORMAL;font-weight:normal;">Non-biomass renewables: solar, wind, hydro 5 Year-2050 PE from non-biomass renewables</text>
  <text x="108.178,109.872,113.246,115.969,118.041,121.149,124.39,126.98,130.088,133.455,135.135,138.509,141.099,144.207,145.887,149.261,151.207,152.887,156.254,157.808,161.182,166.236,169.477,172.067,174.657,330.365,333.725,358.547,361.606,364.714,367.955,369.712,371.784,375.144,378.504,381.864,385.224,386.904,390.271,393.512,395.192,397.138,399.21,402.584,407.638,409.318,412.685,414.239,417.613,422.667,425.908,428.498" y="199.54499999999996" svg_rhmargin="431.088" style="fill:#171615;font-family:QADFKS+FrutigerLTPro-Condensed;font-size:7.0px;font-style:NORMAL;font-weight:normal;">Increased use of biomass 6 Year-2050 PE from biomass</text>
  <text x="108.178,112.462,115.836,118.559,120.113,123.221,126.462,128.534,130.347,133.588,136.955,139.81,143.051,146.425,149.148,152.256,155.623,157.303,160.677,164.051,166.774,168.328,171.436,174.677,176.749,178.429,330.365,333.725,358.547,361.606,364.714,367.955,369.712,371.784,375.144,378.504,381.864,385.224,386.904,390.271,393.512,395.192,397.138,399.21,402.584,407.638,409.318,412.692,416.066,418.789,420.343,423.451,426.692" y="212.79600000000005" svg_rhmargin="428.764" style="fill:#171615;font-family:QADFKS+FrutigerLTPro-Condensed;font-size:7.0px;font-style:NORMAL;font-weight:normal;">Nuclear/advanced nuclear 7 Year-2050 PE from nuclear</text>
  <text x="108.178,111.811,113.365,116.739,119.847,123.221,126.329,128.401,131.768,134.617,136.297,141.092,142.646,144.718,148.092,149.772,152.495,155.736,157.808,161.175,164.549,167.923,169.603,172.326,175.567,178.934,181.006,184.38,186.452,189.56,191.24,194.481,197.855,201.222,202.902,205.492,207.564,210.938,213.01,216.251,219.618,222.726,224.406,226.352,229.985,233.226,236.985,240.744,243.852,245.798,330.365,333.725,358.547,361.606,364.714,367.955,369.712,371.784,375.144,378.504,381.864,385.224,386.904,390.537,393.778,397.537,401.296,404.404,406.084,409.451,412.559,415.926,417.48,420.854,423.703,428.757,431.865,435.239,437.311,438.991,440.545,443.919,445.599,449.883,451.955,455.714" y="226.04700000000003" svg_rhmargin="459.998" style="fill:#171615;font-family:QADFKS+FrutigerLTPro-Condensed;font-size:7.0px;font-style:NORMAL;font-weight:normal;">Bioenergy with carbon capture and storage (BECCS) 8 Year-2050 BECCS deployment in GtCO</text>
  <text x="459.992" y="228.36699999999996" svg_rhmargin="461.951" style="fill:#171615;font-family:QADFKS+FrutigerLTPro-Condensed;font-size:4.08px;font-style:NORMAL;font-weight:normal;">2</text>
  <text x="108.173,110.896,114.27,116.86,119.45,121.004,122.558,124.238,126.184,129.558,132.666,134.22,136.81,138.49,143.285,144.839,146.911,150.285,151.965,154.688,157.929,160.001,163.368,166.742,170.116,171.796,174.519,177.76,181.127,183.199,186.573,188.645,191.753,193.433,196.674,200.048,203.415,205.095,207.685,209.757,213.131,215.203,218.444,221.811,224.919,226.599,228.545,230.491,233.865,236.455,239.045,240.599,242.153,244.225,247.984,251.743,254.851,256.797,330.36,333.72,358.542,361.601,364.709,367.95,369.707,371.779,375.139,378.499,381.859,385.219,386.899,388.845,392.219,394.809,397.399,398.953,400.507,402.579,406.338,410.097,413.205,414.885,418.252,421.36,424.727,426.281,429.655,432.504,437.558,440.666,444.04,446.112,447.792,449.346,452.72,454.4,458.684,460.756,464.515" y="239.28599999999994" svg_rhmargin="468.799" style="fill:#171615;font-family:QADFKS+FrutigerLTPro-Condensed;font-size:7.0px;font-style:NORMAL;font-weight:normal;">Fossil fuels with carbon capture and storage (fossil-CCS) 9 Year-2050 fossil-CCS deployment in GtCO</text>
  <text x="468.798" y="241.61699999999996" svg_rhmargin="470.757" style="fill:#171615;font-family:QADFKS+FrutigerLTPro-Condensed;font-size:4.08px;font-style:NORMAL;font-weight:normal;">2</text>
  <text svg_rhmargin="87.567" x="73.567,76.675,80.175,83.808,87.56700000000001" y="252.53700000000003" style="fill:#171615;font-family:QADFKS+FrutigerLTPro-BoldCn;font-size:7.0px;font-style:NORMAL;font-weight:bold;">Land </text>
  <text x="108.175,111.024,114.265,117.639,121.006,122.686,126.053,129.294,131.884,134.992,138.359,140.039,143.406,145.478,148.586,151.694,155.068,158.442,161.816,165.19,167.78,170.888,172.568,175.935,179.176,181.766,183.446,185.518,188.626,191.993,195.367,198.09,200.162,201.716,205.09,208.464,210.144,213.385,216.759,220.126,221.806,224.396,227.77,229.324,230.878,232.558,235.281,238.522,240.594,243.961,247.335,250.709,252.389,254.979,258.086,261.453,264.827,267.935,270.525,272.597,274.669,277.91,279.982,281.536,284.91,288.28400000000005,328.682,332.042,335.402,358.544,362.303,365.677,370.731,374.105,375.659,378.9,380.972,382.526,385.508,388.616,389.911,393.929,396.911,401.195,404.044,408.188,409.868,413.627" y="252.53700000000003" svg_rhmargin="417.911" style="fill:#171615;font-family:QADFKS+FrutigerLTPro-Condensed;font-size:7.0px;font-style:NORMAL;font-weight:normal;">Land based greenhouse gas reduction and soil carbon sequestration 10 Cumulative AFOLU CO</text>
  <text x="417.909" y="254.86699999999996" svg_rhmargin="419.868" style="fill:#171615;font-family:QADFKS+FrutigerLTPro-Condensed;font-size:4.08px;font-style:NORMAL;font-weight:normal;">2</text>
  <text y="252.53599999999994" svg_rhmargin="521.368" x="421.548,424.656,429.71,431.264,433.854,436.444,437.998,441.372,444.746,447.336,449.016,452.39,455.372,458.48,460.552,462.232,464.304,467.678,470.786,472.466,475.826,479.186,482.546,485.906,489.406,492.766,496.126,499.486,502.846,504.526,507.893,511.001,513.073,514.627,518.001" style="fill:#171615;font-family:QADFKS+FrutigerLTPro-Condensed;font-size:7.0px;font-style:NORMAL;font-weight:normal;">emissions over the 2020–2100 period</text>
  <text x="108.172,112.456,114.528,117.636,120.744,124.118,127.492,130.866,134.24,136.83,139.938,141.618,144.985,148.226,150.816,152.496,154.568,157.676,161.043,164.417,167.14,169.212,170.766,174.14,177.514,179.194,181.14,183.212,186.586,191.64,193.32,194.874,199.928,203.295,205.367,208.741,211.723,214.831,218.198,219.878,221.432,222.986,225.968,229.076,231.666,233.738,237.112,239.835,242.943,244.623,247.99,250.062,253.436,256.803,260.177,262.9,264.972,266.526,269.9,273.274,274.954,278.195,281.569,284.936,286.609" y="265.78700000000003" svg_rhmargin="288.289" style="fill:#171615;font-family:QADFKS+FrutigerLTPro-Condensed;font-size:7.0px;font-style:NORMAL;font-weight:normal;">Greenhouse gas reduction from improved livestock production and </text>
  <text svg_rhmargin="187.601" x="108.172,113.226,116.467,119.841,123.215,125.287,128.395,130.075,135.129,138.37,141.744,144.985,148.352,151.46,156.514,159.622,162.996,165.068,166.748,169.338,172.187,174.777,176.849,179.957,185.011,187.601" y="270.79200000000003" style="fill:#171615;font-family:QADFKS+FrutigerLTPro-Condensed;font-size:7.0px;font-style:NORMAL;font-weight:normal;">manure management systems </text>
  <text x="328.679,332.039,335.399,358.541,362.3" y="270.79200000000003" svg_rhmargin="366.318" style="fill:#171615;font-family:QADFKS+FrutigerLTPro-Condensed;font-size:7.0px;font-style:NORMAL;font-weight:normal;">11 CH</text>
  <text x="366.32" y="273.11699999999996" svg_rhmargin="368.279" style="fill:#171615;font-family:QADFKS+FrutigerLTPro-Condensed;font-size:4.08px;font-style:NORMAL;font-weight:normal;">4</text>
  <text y="270.78599999999994" svg_rhmargin="385.905" x="369.959,373.2,376.574,379.941,381.621" style="fill:#171615;font-family:QADFKS+FrutigerLTPro-Condensed;font-size:7.0px;font-style:NORMAL;font-weight:normal;">and N</text>
  <text x="385.905" y="273.11699999999996" svg_rhmargin="387.864" style="fill:#171615;font-family:QADFKS+FrutigerLTPro-Condensed;font-size:4.08px;font-style:NORMAL;font-weight:normal;">2</text>
  <text x="387.864,392.148,393.443,397.461,400.443,404.727,407.576,411.72,413.4,416.508,421.562,423.116,425.706,428.296,429.85,433.224,436.598,439.188,440.867,444.234,447.342,449.414,451.094,454.468,457.842,459.396,461.468,463.148,466.522,468.468,470.148,472.22,475.594,477.666,480.907,482.461,484.141,486.087,489.461,492.835,496.202,497.882,500.99,504.364,507.472,509.544,512.911,515.76,517.44,520.03,523.404,526.771,530.138,531.692" y="270.78599999999994" svg_rhmargin="534.541" style="fill:#171615;font-family:QADFKS+FrutigerLTPro-Condensed;font-size:7.0px;font-style:NORMAL;font-weight:normal;">O AFOLU emissions per unit of total food energy supply</text>
  <text x="108.172,111.735,114.773,118.07,121.374,124.027,127.065,130.362,131.972,135.269,138.307,140.183,143.487,145.489,148.527,151.047,153.049,156.22,158.222,159.706,163.01,166.314,167.665,169.275,172.838,176.009,179.957,183.905,188.035,189.386,190.996,194.167,196.043,197.919,201.223,203.225,206.263,208.783,210.785,213.956,215.958,217.442,220.746,224.05,225.66,228.831,232.135,235.432,237.042,239.044,242.082,243.958,247.262,249.264,252.302,254.822,256.824,259.995,261.997,263.481,266.785,270.15900000000005,328.679,332.039,335.399,358.541,362.3,365.674,368.915,372.289,375.656,378.764,380.444,381.998,385.372,387.052,390.419,391.973,395.346,398.714,401.954,403.508,405.188,407.134,410.508,412.58,415.688,418.278,420.35,422.03,425.271,427.343,430.451,433.692,435.372,438.739,441.847,443.919,448.714,451.822,454.93,458.304,459.984,463.344,466.704,470.064,473.424,475.104,478.345,481.719,485.086,486.766,490.126,493.486,496.846" y="289.035" svg_rhmargin="500.206" style="fill:#171615;font-family:QADFKS+FrutigerLTPro-Condensed;font-size:7.0px;font-style:NORMAL;font-weight:normal;">Reduced deforestation, REDD+, afforestation and reforestation 12 Change in global forest area between 2020 and 2050</text>
  <text x="56.693,59.941,63.941,68.237,70.317,74.317,76.397,80.557,82.637,86.637,93.157,95.237,99.397,103.557,105.637,107.717" y="65.024" svg_rhmargin="109.493" style="fill:#192a53;font-family:QADFKS+FrutigerLTPro-BoldCn;font-size:8.0px;font-style:NORMAL;font-weight:bold;">Table 2.SM.14 |</text>
  <text style="fill:#171615;font-family:QADFKS+FrutigerLTPro-Condensed;font-size:8.0px;font-style:NORMAL;font-weight:normal;" svg_rhmargin="111.413" y="65.024" x=""/>
  <text x="113.389,119.309,120.941,123.165,124.797,128.501,132.053,134.277,135.909,139.621,143.325,145.597,151.085,154.493,158.045,160.861,164.565,166.789,170.197,172.469,176.021,179.725,183.429,185.701,189.405,191.629,195.269,198.381,201.341,203.613,205.245,208.949,212.653,214.285,217.245,220.797,223.021,226.733,228.957,231.773,234.045,236.269,239.677,243.381,246.789,249.749,251.973,253.605,257.309,261.013,263.285,265.509,268.917,270.549,274.101,276.325,277.957,281.077,284.485,286.757,290.461,293.869,297.573,299.205,302.917,305.877,311.365,314.773,318.477,320.701,322.973,326.685,328.757,331.029,334.733,336.365,339.485,342.893,346.597,348.869,354.357,357.765,361.317,364.133,367.837,370.061,373.469,375.741,379.293,382.253,384.477,388.189,391.005,393.821,396.093,399.797,403.349,405.573,409.277,414.317,417.869,420.829,423.101,426.653,428.877,431.837,435.541,438.949,441.173,444.133,447.837,451.245,453.764,455.388,457.219,460.995,464.547,466.179,469.883,473.291,476.107,478.379,482.091,484.163,486.435,488.211,491.915,495.619,497.251,500.211,503.763,505.987,509.699,511.923,514.739,517.011,520.851,522.475,524.747,528.587,530.211,532.483,536.035,539.739,543.443,545.715,549.555,551.827,555.379,557.603,561.011,560.981" y="65.024" svg_rhmargin="562.901" style="fill:#171615;font-family:QADFKS+FrutigerLTPro-LightCn;font-size:8.0px;font-style:NORMAL;font-weight:normal;">Mitigation measure and proxy indicators reflecting relative deployment of given measure across pathway archetypes. Values of Indicators 2, 3, and 4 are </text>
  <text y="75.024" svg_rhmargin="304.523" x="113.397,115.029,118.733,121.853,125.261,127.485,130.301,133.709,135.341,138.301,140.221,142.445,145.853,147.485,151.037,153.261,156.669,160.373,162.293,167.477,169.109,171.333,175.037,176.957,179.181,182.885,186.293,188.213,191.917,195.325,199.029,200.661,204.373,207.333,212.821,216.229,219.933,222.157,224.077,227.789,229.861,231.781,234.005,237.709,241.117,243.037,245.261,248.669,251.485,255.189,258.597,261.557,263.781,265.413,268.533,271.941,273.861,279.349,282.757,286.309,289.125,292.829,295.053,298.461,300.979,302.603" style="fill:#171615;font-family:QADFKS+FrutigerLTPro-LightCn;font-size:8.0px;font-style:NORMAL;font-weight:normal;">inversely related with the deployment of the respective measures. </text>
 </g>
</svg>
