<?xml version="1.0" encoding="UTF-8"?>
<svg height="781.509" width="1248.9986572265625" xmlns="http://www.w3.org/2000/svg">
 <g style="fill:none;">
  <text x="51.024,55.444,59.694,66.621,69.299,73.719" y="771.509" svg_rhmargin="78.139" style="fill:#171615;font-family:QADFKS+FrutigerLTPro-BoldCn;font-size:8.5px;font-style:NORMAL;font-weight:bold;">2SM-36</text>
  <text svg_rhmargin="557.241" x="51.024,55.903,60.629,65.193,70.072,73.379,77.943,81.25,83.46,87.88,90.08999999999999,223.191,230.433,232.796,236.103,238.466,243.345,247.909,251.216,253.579,258.458,263.184,265.394,269.967,274.531,277.838,282.564,289.33,293.894,298.306,301.927,304.137,309.016,313.895,320.984,325.863,330.427,333.734,336.097,340.976,343.339,347.903,350.113,356.879,359.242,362.549,367.275,369.485,373.905,376.115,380.535,383.935,388.814,391.024,393.387,398.113,400.323,403.629,408.355,412.92,415.13,420.009,424.888,429.614,432.92,437.4,441.811,445.118,447.328,452.207,455.352,457.562,462.126,466.852,470.473,473.78,478.344,480.707,485.433,489.998,494.877,497.24,501.804,504.014,509.684,514.248,518.66,523.224,525.587,530.466,535.345,542.434,546.999,551.725,555.031,557.241" y="246.66099999999994" style="fill:#4c8ecf;font-family:OALFSW+FrutigerLTPro-BlackCn;font-size:8.5px;font-style:NORMAL;font-weight:bold;">Chapter 2 Mitigation Pathways Compatible with 1.5°C in the Context of Sustainable Development </text>
  <path d=" M 24.84950065612793 537.4489135742188 C 24.84950065612793 537.4489135742188 36.84950256347656 537.4489135742188 36.84950256347656 549.4489135742188 L 36.84950256347656 624.3779296875 C 36.84950256347656 624.3779296875 36.84950256347656 636.3779296875 24.84950065612793 636.3779296875 L -15.000497817993164 636.3779296875 L -15.000497817993164 537.4489135742188 Z " style="fill:none;stroke:#000000;stroke-width:1.0;"/>
  <path d=" M 1199.148681640625 636.3779296875 C 1199.148681640625 636.3779296875 1187.148681640625 636.3779296875 1187.148681640625 624.3779296875 L 1187.148681640625 549.4489135742188 C 1187.148681640625 549.4489135742188 1187.148681640625 537.4489135742188 1199.148681640625 537.4489135742188 L 1238.9986572265625 537.4489135742188 L 1238.9986572265625 636.3779296875 Z " style="fill:none;stroke:#000000;stroke-width:1.0;"/>
  <text svg_rhmargin="29.793" x="1193.497,1197.657,1201.953,14.521,18.681,22.977,29.793" y="68.0" style="fill:#ffffff;font-family:OALFSW+FrutigerLTPro-BlackCn;font-size:8.0px;font-style:NORMAL;font-weight:bold;">2SM2SM </text>
  <text x="51.024,54.539,57.351,61.749,66.319" y="68.0" svg_rhmargin="70.537" style="fill:#171615;font-family:QADFKS+FrutigerLTPro-CondensedIta;font-size:9.5px;font-style:NORMAL;font-weight:normal;">Trade</text>
  <text x="51.024,56.125,60.704,65.103,66.689,68.618,70.898,72.783,77.362,79.471,81.058,82.986,85.266,87.152,91.722,96.12,99.284,101.212,103.492,105.378,109.596,111.705,115.923,119.618,122.43,125.242,127.351,131.047,133.156,135.968,139.834,141.763,144.043,145.929,150.498,152.607,157.186,161.404,165.983,170.201,173.013,177.583,181.449,183.729,185.615,189.31,192.122,196.701,201.271,204.434,206.363,208.643,210.529,213.17,217.749,222.328,226.897,229.177,231.063,234.758,237.57,242.149,246.719,249.882,251.811,254.091,255.977,260.556,265.135,269.714,272.526,276.744,281.323,285.541,288.353,292.922,296.789" y="79.99800000000005" svg_rhmargin="299.069" style="fill:#171615;font-family:QADFKS+FrutigerLTPro-Condensed;font-size:9.5px;font-style:NORMAL;font-weight:normal;">Coal, oil, gas, electricity, bioenergy crops, food crops, non-energy </text>
  <text x="51.024,55.593,60.172,64.751,69.321,72.484,74.413,76.693,81.272,85.138,89.708,92.52,97.099,101.668,105.886" y="91.99699999999996" svg_rhmargin="110.465" style="fill:#171615;font-family:QADFKS+FrutigerLTPro-Condensed;font-size:9.5px;font-style:NORMAL;font-weight:normal;">goods, hydrogen</text>
  <text x="51.024,55.774,60.704,65.454,68.703,73.805" y="115.99400000000003" svg_rhmargin="78.203" style="fill:#192a53;font-family:QADFKS+FrutigerLTPro-BoldCn;font-size:9.5px;font-style:NORMAL;font-weight:bold;">Energy</text>
  <text x="51.024,55.954,60.172,64.751,69.15,73.197,75.306,79.885,84.464" y="127.99199999999996" svg_rhmargin="87.276" style="fill:#171615;font-family:QADFKS+FrutigerLTPro-CondensedIta;font-size:9.5px;font-style:NORMAL;font-weight:normal;">Behaviour</text>
  <text x="51.024,56.838,61.417,65.996" y="139.99099999999999" svg_rhmargin="70.214" style="fill:#171615;font-family:QADFKS+FrutigerLTPro-Condensed;font-size:9.5px;font-style:NORMAL;font-weight:normal;">None</text>
  <text x="51.024,55.954,60.172,63.687,68.266,72.845,75.657,79.353,83.571,85.851,90.43,93.945" y="163.98800000000006" svg_rhmargin="98.163" style="fill:#171615;font-family:QADFKS+FrutigerLTPro-CondensedIta;font-size:9.5px;font-style:NORMAL;font-weight:normal;">Resource use</text>
  <text x="51.024,56.125,60.704,65.103,67.212,69.492,69.999,72.64,76.155,80.734,85.303,89.873,91.982,95.848,98.128,98.637,102.332,106.911,109.723,113.77,117.988,120.629,122.558,124.83800000000001,125.346,129.041,133.62,138.199,142.246,146.464,151.043,153.855,155.964,160.543,165.122,169.521,171.63,173.91,174.418,178.997,181.106,183.215,185.495,186.002,188.643,192.158,196.737,201.307,205.876,207.985,211.852,214.132,214.639,218.335,222.914,225.726,229.773,233.991,236.632,238.56,240.84,241.348,245.927,250.506,254.202,258.781,263.36,267.407,271.625,276.204,279.016,281.125,285.704,290.283,294.681,296.79" y="175.986" svg_rhmargin="299.07" style="fill:#171615;font-family:QADFKS+FrutigerLTPro-Condensed;font-size:9.5px;font-style:NORMAL;font-weight:normal;">Coal (supply curve), conventional oil (supply curve), unconventional </text>
  <text x="51.024,55.603,57.712,59.821,62.101,63.136,65.777,69.292,73.871,78.441,83.01,85.119,88.986,91.266,92.301,95.997,100.576,103.388,107.435,111.653,114.294,116.222,118.502,119.538,123.233,127.812,132.391,136.438,140.656,145.235,148.047,150.156,154.735,159.314,163.713,165.822,168.102,169.137,173.707,178.105,181.62,183.9,184.936,187.577,191.092,195.671,200.24,204.81,206.919,210.785,213.065,214.101,217.796,222.375,225.187,229.234,233.452,236.093,238.022,240.302,241.337,245.916,250.495,254.191,258.77,263.349,267.396,271.614,276.193,279.005,281.114,285.693,290.272,294.67,296.779" y="187.985" svg_rhmargin="299.059" style="fill:#171615;font-family:QADFKS+FrutigerLTPro-Condensed;font-size:9.5px;font-style:NORMAL;font-weight:normal;">oil (supply curve), conventional gas (supply curve), unconventional </text>
  <text x="51.024,55.593,59.992,63.507,65.78699999999999,66.57,69.211,72.726,77.305,81.875,86.444,88.553,92.42,94.7,95.484,99.179,103.758,106.57,110.617,114.835,117.476,119.405,121.685,122.468,127.047,129.859,134.258,138.837,140.946,145.525,152.384,154.664,155.448,158.089,161.604,166.183,170.752,175.322,177.431,181.297,183.577,184.361,188.056,192.635,195.447,199.494,203.712,206.353,208.282,210.562,211.35,215.92,218.029,222.608,229.467,233.865,237.38,240.895,243.175,243.964,246.605,250.12,254.699,259.268,263.838,265.947,269.813,272.09299999999996,272.882,276.577,281.156,283.968,288.015,292.233,294.874,296.803" y="199.98299999999995" svg_rhmargin="299.083" style="fill:#171615;font-family:QADFKS+FrutigerLTPro-Condensed;font-size:9.5px;font-style:NORMAL;font-weight:normal;">gas (supply curve), uranium (supply curve), biomass (supply curve), </text>
  <text x="51.024,57.36,61.759,64.571,68.789,71.601,73.881,76.522,81.091,83.903,88.482,92.178,96.396,99.911,103.426,105.706,112.565,117.144,121.713,125.931,128.04,130.681,132.61,134.89,136.999,141.397,145.976" y="211.98199999999997" svg_rhmargin="150.546" style="fill:#171615;font-family:QADFKS+FrutigerLTPro-Condensed;font-size:9.5px;font-style:NORMAL;font-weight:normal;">water (process model), land</text>
  <text x="51.024,55.422,57.531,61.749,65.445,68.257,71.069,73.178,76.873,78.982,81.794,85.661,87.941,90.753,94.971,98.666,103.245,107.824,112.403,114.512,119.091,123.661,125.77,129.988" y="235.97900000000004" svg_rhmargin="133.503" style="fill:#171615;font-family:QADFKS+FrutigerLTPro-CondensedIta;font-size:9.5px;font-style:NORMAL;font-weight:normal;">Electricity technologies</text>
  <text x="51.024,56.125,60.704,65.103,67.212,69.729,72.37,78.878,81.338,85.917,88.435,92.833,97.412,101.982,104.499,111.007,113.467,115.985,121.086,126.188,130.406,133.047,134.975,137.493,142.062,146.461,149.976,152.493,155.134,161.642,164.102,168.681,171.199,175.597,180.176,184.746,187.263,193.771,196.231,198.749,203.85,208.952,213.17,215.811,217.739,220.257,224.836,226.945,229.054,231.571,234.212,240.72,243.18,247.759,250.277,254.675,259.254,263.824,266.341,272.849,275.309,277.827,282.928,288.03,292.248,294.889,296.817" y="247.97699999999998" svg_rhmargin="299.097" style="fill:#171615;font-family:QADFKS+FrutigerLTPro-Condensed;font-size:9.5px;font-style:NORMAL;font-weight:normal;">Coal (w/o and w/ CCS), gas (w/o and w/ CCS), oil (w/o and w/ CCS), </text>
  <text x="51.024,55.603,60.182,63.877,65.986,70.204,74.603,76.551,78.479,80.151,84.72,86.829,91.408,98.267,102.666,106.181,109.696,111.368,114.009,120.516,122.977,127.556,129.228,133.626,138.205,142.775,144.447,150.954,153.415,155.087,160.188,165.29,169.508,172.149,174.077,175.749,182.257,184.366,188.945,193.514,195.186,197.827,202.406,206.985,210.5,215.079,219.658,222.47,226.688,228.36,232.759,237.338,241.907,243.579,248.158,250.799,253.44,256.955,261.534,266.113,268.925,273.143,275.784,277.713,279.385,282.9,287.479,289.588,293.986,296.798" y="259.976" svg_rhmargin="299.078" style="fill:#171615;font-family:QADFKS+FrutigerLTPro-Condensed;font-size:9.5px;font-style:NORMAL;font-weight:normal;">nuclear, biomass (w/o and w/ CCS), wind (onshore and offshore), solar </text>
  <text x="51.024,55.593,60.695,62.975,65.616,69.311,73.529,78.108,80.92,83.732,88.131,90.24,92.52,96.918,101.497,106.067,108.347,112.916,115.025,118.54,121.352,124.164,126.273,130.843,135.422,138.234,142.452,147.021,149.662,151.591,153.871,158.44,162.658,167.237,170.049,174.628,178.846,181.658,188.517,192.916,194.502,196.431,198.711,203.29,207.156,211.726,214.538,219.117,223.335,225.444,229.662,233.357,236.169,238.981,241.09,244.786,246.714,248.994,253.573,257.44,262.009,264.821,269.4,273.97,278.188" y="271.97400000000005" svg_rhmargin="282.767" style="fill:#171615;font-family:QADFKS+FrutigerLTPro-Condensed;font-size:9.5px;font-style:NORMAL;font-weight:normal;">PV (central and distributed), geothermal, hydroelectric, hydrogen</text>
  <text x="51.024,56.125,60.704,65.283,69.33,73.548,76.36,79.875,81.984,86.563,91.142,93.422,96.234,100.452,104.148,108.727,113.306,117.885,119.994,124.573,129.142,131.251,135.469" y="295.971" svg_rhmargin="138.984" style="fill:#171615;font-family:QADFKS+FrutigerLTPro-CondensedIta;font-size:9.5px;font-style:NORMAL;font-weight:normal;">Conversion technologies</text>
  <text x="51.024,56.125,61.578,64.922,66.851,69.514,73.21,77.789,82.187,84.296,86.757,91.336,93.445,95.554,98.014,102.584,106.982,110.497,112.958,117.527,119.636,124.215,131.074,135.473,138.988,142.503,145.315,148.127,152.706,155.518,160.097,164.315,168.713,171.525,173.453,176.118,180.697,184.563,189.133,191.945,196.524,201.093,205.311,209.89,211.819,214.483,218.179,222.758,227.156,229.265,231.93,234.742,239.321,241.985" y="307.97" svg_rhmargin="247.438" style="fill:#171615;font-family:QADFKS+FrutigerLTPro-Condensed;font-size:9.5px;font-style:NORMAL;font-weight:normal;">CHP, coal/oil/gas/biomass-to-heat, hydrogen, coal to H</text>
  <text x="247.434" y="311.164" svg_rhmargin="250.092" style="fill:#171615;font-family:QADFKS+FrutigerLTPro-Condensed;font-size:5.54px;font-style:NORMAL;font-weight:normal;">2</text>
  <text y="308.0" svg_rhmargin="299.067" x="252.756,255.397,261.905,264.365,268.944,271.608,276.007,280.586,285.155,287.819,294.326,296.787" style="fill:#171615;font-family:QADFKS+FrutigerLTPro-Condensed;font-size:9.5px;font-style:NORMAL;font-weight:normal;">(w/o and w/ </text>
  <text x="51.02,56.122,61.223,65.441,68.082,70.011,71.981,76.56,78.669,80.778,82.748,85.56,90.139,92.109" y="319.999" svg_rhmargin="97.562" style="fill:#171615;font-family:QADFKS+FrutigerLTPro-Condensed;font-size:9.5px;font-style:NORMAL;font-weight:normal;">CCS), oil to H</text>
  <text x="97.566" y="323.164" svg_rhmargin="100.224" style="fill:#171615;font-family:QADFKS+FrutigerLTPro-Condensed;font-size:5.54px;font-style:NORMAL;font-weight:normal;">2</text>
  <text y="320.0" svg_rhmargin="197.039" x="102.195,104.836,111.343,113.804,118.383,120.354,124.753,129.332,133.901,135.872,142.379,144.84,146.811,151.912,157.014,161.232,163.873,165.801,167.772,172.341,176.74,180.255,182.225,185.037,189.616,191.586" style="fill:#171615;font-family:QADFKS+FrutigerLTPro-Condensed;font-size:9.5px;font-style:NORMAL;font-weight:normal;">(w/o and w/ CCS), gas to H</text>
  <text x="197.039" y="323.164" svg_rhmargin="199.697" style="fill:#171615;font-family:QADFKS+FrutigerLTPro-Condensed;font-size:5.54px;font-style:NORMAL;font-weight:normal;">2</text>
  <text y="320.0" svg_rhmargin="299.069" x="201.667,204.308,210.816,213.276,217.855,219.827,224.225,228.804,233.374,235.344,241.851,244.312,246.283,251.385,256.486,260.704,263.345,265.274,267.244,271.813,273.922,278.501,285.36,289.759,293.274,296.789" style="fill:#171615;font-family:QADFKS+FrutigerLTPro-Condensed;font-size:9.5px;font-style:NORMAL;font-weight:normal;">(w/o and w/ CCS), biomass </text>
  <text x="51.022,53.834,58.413,61.092" y="331.999" svg_rhmargin="66.545" style="fill:#171615;font-family:QADFKS+FrutigerLTPro-Condensed;font-size:9.5px;font-style:NORMAL;font-weight:normal;">to H</text>
  <text x="66.548" y="335.164" svg_rhmargin="69.206" style="fill:#171615;font-family:QADFKS+FrutigerLTPro-Condensed;font-size:5.54px;font-style:NORMAL;font-weight:normal;">2</text>
  <text y="332.0" svg_rhmargin="299.059" x="71.885,74.526,81.034,83.494,88.073,90.752,95.854,100.955,105.173,107.814,109.743,112.422,117.001,121.58,125.275,127.384,131.602,136.001,138.813,141.492,145.89,150.469,155.039,157.718,161.233,165.812,167.921,172.319,175.131,177.81,180.622,185.201,189.419,192.231,199.09,203.669,207.365,211.944,216.162,223.021,225.13,228.825,233.224,234.81,236.739,239.418,243.636,245.745,249.963,253.658,256.47,259.282,263.861,265.97,269.837,273.352,275.461,278.624,280.553,283.232,285.873,290.452,294.67,296.779" style="fill:#171615;font-family:QADFKS+FrutigerLTPro-Condensed;font-size:9.5px;font-style:NORMAL;font-weight:normal;">(w/o CCS), nuclear and solar thermochemical, electrolysis, fuel </text>
  <text x="51.023,53.835,58.414,60.694,61.511,66.081,70.479,73.643,75.571,77.851,78.668,82.364,86.943,91.341,93.45,95.73,96.547,99.359,103.938,106.218,107.035,111.605,116.003,119.518,121.798,122.615,125.256,131.764,134.224,138.803,141.083,141.9,146.299,150.878,155.447,157.727,158.544,165.052,167.512,169.792,170.609,175.711,180.812,185.03,187.671,189.6,191.88,192.697,195.338,199.917,204.135,206.244,208.524,209.341,212.153,216.732,219.012,219.829,221.938,224.047,228.616,233.195,235.304,239.874,241.801,244.081,244.898,248.594,253.173,257.571,259.68,261.96,262.777,265.589,270.168,272.448,273.265,275.374,277.483,282.053,286.632,288.741,293.31,296.825" y="343.999" svg_rhmargin="299.105" style="fill:#171615;font-family:QADFKS+FrutigerLTPro-Condensed;font-size:9.5px;font-style:NORMAL;font-weight:normal;">to gas, coal to gas (w/o and w/ CCS), fuel to liquid, coal to liquids </text>
  <text x="51.023,53.664,60.172,62.632,67.211,69.244,73.643,78.222,82.791,84.824,91.332,93.792,95.825,100.927,106.028,110.246,112.887,114.816,116.849,121.418,125.817,129.332,131.365,134.177,138.756,140.789,142.898,145.007,149.576,154.155,156.264,160.834,164.349,166.382,169.023,175.53,177.991,182.57,184.603,189.001,193.58,198.15,200.183,206.69,209.151,211.184,216.285,221.387,225.605,228.246,230.174,232.207,236.777,238.886,243.465,250.324,254.722,258.237,261.752,263.785,266.597,271.176,273.209,275.318,277.427,281.997,286.576,288.685,293.254,296.769" y="355.997" svg_rhmargin="299.049" style="fill:#171615;font-family:QADFKS+FrutigerLTPro-Condensed;font-size:9.5px;font-style:NORMAL;font-weight:normal;">(w/o and w/ CCS), gas to liquids (w/o and w/ CCS), biomass to liquids </text>
  <text x="51.023,53.664,60.172,62.632,67.211,69.491,73.89,78.469,83.038,85.318,91.826,94.286,96.566,101.668,106.769,110.987,113.628,115.557,117.837,122.416,124.525,126.634,128.914,131.726,135.944,140.694,145.273,147.382,151.961" y="367.996" svg_rhmargin="156.531" style="fill:#171615;font-family:QADFKS+FrutigerLTPro-Condensed;font-size:9.5px;font-style:NORMAL;font-weight:normal;">(w/o and w/ CCS), oil refining</text>
  <text x="51.023,56.837,59.649,61.758,66.328,68.608,73.006,77.585,82.155,84.435,86.544,91.123,93.764,96.576,100.974,104.489,107.301,110.113,114.692,118.388,121.2,125.779,128.591" y="391.993" svg_rhmargin="132.809" style="fill:#171615;font-family:QADFKS+FrutigerLTPro-CondensedIta;font-size:9.5px;font-style:NORMAL;font-weight:normal;">Grid and infrastructure</text>
  <text x="51.023,55.422,57.531,61.749,65.444,68.256,71.068,73.177,76.873,78.982,81.794,85.66,87.589,89.869,95.683,100.081,103.245,105.173,107.453,112.906,117.124,121.523,124.335,126.263,128.543,133.645" y="403.991" svg_rhmargin="139.459" style="fill:#171615;font-family:QADFKS+FrutigerLTPro-Condensed;font-size:9.5px;font-style:NORMAL;font-weight:normal;">Electricity, Gas, Heat, CO</text>
  <text x="139.457" y="407.164" svg_rhmargin="142.115" style="fill:#171615;font-family:QADFKS+FrutigerLTPro-Condensed;font-size:5.54px;font-style:NORMAL;font-weight:normal;">2</text>
  <text x="142.116,144.396" y="404.0" svg_rhmargin="149.849" style="fill:#171615;font-family:QADFKS+FrutigerLTPro-Condensed;font-size:9.5px;font-style:NORMAL;font-weight:normal;">,H</text>
  <text x="149.849" y="407.164" svg_rhmargin="152.507" style="fill:#171615;font-family:QADFKS+FrutigerLTPro-Condensed;font-size:5.54px;font-style:NORMAL;font-weight:normal;">2</text>
  <text x="51.024,55.422,60.001,64.219,67.031,71.601,75.467,77.747,80.559,84.777,88.473,93.052,97.631,102.21,104.319,108.898,113.467,117.334,119.614,123.129,127.708,132.277,135.792,138.604,140.713,143.525,148.104,150.916,153.025,157.604" y="428.0" svg_rhmargin="162.183" style="fill:#171615;font-family:QADFKS+FrutigerLTPro-CondensedIta;font-size:9.5px;font-style:NORMAL;font-weight:normal;">Energy technology substitution</text>
  <text x="51.024,56.477,58.586,62.101,65.796,68.608,72.826,75.638,79.856,81.794,84.606,88.824,92.52,97.099,101.678,106.257,108.366,112.945,117.514,121.381,123.319,127.014,131.593,136.172,138.281,141.977,146.195,149.71,151.648,158.155,160.264,163.076,167.655,169.593,176.452,181.031,184.546,187.358,189.467,193.334,195.272,199.851,201.96,206.529,211.108,213.046,216.561,221.14,225.71,229.225,232.037,234.146,236.958,241.537,244.349,248.747,253.317,255.426,257.535,259.644,262.456,266.322,268.26,271.072,275.651,278.463,283.042,287.621,292.191,296.77" y="439.999" svg_rhmargin="299.05" style="fill:#171615;font-family:QADFKS+FrutigerLTPro-Condensed;font-size:9.5px;font-style:NORMAL;font-weight:normal;">Discrete technology choices with mostly high substitutability through </text>
  <text x="51.024,53.133,55.242,59.821,64.039,68.437,71.249,73.529,77.225,81.804,86.383,88.492,92.187,96.405,98.685,101.326,103.435,108.014,114.522,118.74,122.255,125.067,127.347,131.042,135.621,139.136,141.948,144.589,146.518,148.798,153.016,157.063,161.632,166.031,170.61,174.125,176.234,180.813,185.392,187.672,192.07,196.649,201.219,203.499,208.068,212.286,215.982,218.091,220.2,224.779,228.997,231.277,234.972,239.551,244.13,247.645,250.457,253.269,257.668,259.777,264.356,267.168" y="451.997" svg_rhmargin="270.683" style="fill:#171615;font-family:QADFKS+FrutigerLTPro-Condensed;font-size:9.5px;font-style:NORMAL;font-weight:normal;">linear choice (lowest cost), expansion and decline constraints</text>
  <text x="51.024,55.422,60.001,64.219,67.031,71.601,75.467,77.747,81.262,85.48,88.292,92.339,94.448,98.144,102.362,104.642,108.157,112.375,116.07,118.882,123.461,126.273" y="475.994" svg_rhmargin="129.788" style="fill:#171615;font-family:QADFKS+FrutigerLTPro-CondensedIta;font-size:9.5px;font-style:NORMAL;font-weight:normal;">Energy service sectors</text>
  <text x="51.024,54.539,57.351,61.749,66.328,69.843,74.413,78.992,81.804,84.616,89.014,91.826,93.935,98.514,103.093,105.022,107.302,109.411,113.99,118.559,123.138,126.653,129.465,132.277,136.144,138.072,140.352,143.164,147.382,150.897,153.006,157.576,161.794,166.373,169.185,171.294,175.692,177.801,180.081,184.48,189.059,193.628,195.908,199.604,204.183,211.042,217.901,222.119,224.931,228.626,230.735,235.134" y="487.993" svg_rhmargin="237.243" style="fill:#171615;font-family:QADFKS+FrutigerLTPro-Condensed;font-size:9.5px;font-style:NORMAL;font-weight:normal;">Transportation, industry, residential and commercial</text>
  <text x="51.024,55.242,59.992,64.922,70.024,72.494,77.424,81.291" y="511.99" svg_rhmargin="86.041" style="fill:#171615;font-family:QADFKS+FrutigerLTPro-BoldCn;font-size:9.5px;font-style:NORMAL;font-weight:bold;">Land use</text>
  <text x="51.024,54.89,59.289,63.868,68.437,70.717,74.413,78.992,83.039,87.257" y="523.988" svg_rhmargin="90.069" style="fill:#171615;font-family:QADFKS+FrutigerLTPro-CondensedIta;font-size:9.5px;font-style:NORMAL;font-weight:normal;">Land cover</text>
  <text x="51.024,55.422,60.001,64.219,67.031,71.601,75.467,77.747,81.443,84.255,88.834,93.403,95.512,99.911,104.49,109.059,110.988,113.268,115.909,120.488,123.3,127.518,131.033,133.845,135.773,138.053,142.623,147.021,150.536,153.348,157.927,160.739,164.957,168.121,170.05,172.33,176.9,181.479,183.588,185.697,188.509,191.321,195.9,200.469,202.749,207.148,209.96,214.178" y="535.9870000000001" svg_rhmargin="218.576" style="fill:#171615;font-family:QADFKS+FrutigerLTPro-Condensed;font-size:9.5px;font-style:NORMAL;font-weight:normal;">Energy cropland, forest, pastures, built-up area</text>
  <text x="51.024,57.18,60.524,65.454,70.204,73.548,76.018,79.267,84.017,87.884,92.985,97.916,101.165,105.212,109.962" y="559.984" svg_rhmargin="113.829" style="fill:#192a53;font-family:QADFKS+FrutigerLTPro-BoldCn;font-size:9.5px;font-style:NORMAL;font-weight:bold;">Other resources</text>
  <text x="51.024,56.838,59.764,64.343,68.561,71.373,73.653,76.465,80.683,84.198,88.777,93.356,96.168,99.863,104.081" y="571.982" svg_rhmargin="107.596" style="fill:#171615;font-family:QADFKS+FrutigerLTPro-CondensedIta;font-size:9.5px;font-style:NORMAL;font-weight:normal;">Other resources</text>
  <text x="51.024,58.234,62.633,65.445,69.663" y="583.981" svg_rhmargin="72.475" style="fill:#171615;font-family:QADFKS+FrutigerLTPro-Condensed;font-size:9.5px;font-style:NORMAL;font-weight:normal;">Water</text>
  <text x="51.024,55.774,63.165,65.635,69.501,73.368,75.838,80.939,85.87,89.736,92.206,96.956,101.887,106.988,109.458,113.505,115.975,118.445,125.836,130.586,133.93" y="607.9780000000001" svg_rhmargin="138.68" style="fill:#192a53;font-family:QADFKS+FrutigerLTPro-BoldCn;font-size:9.5px;font-style:NORMAL;font-weight:bold;">Emissions and climate</text>
  <text x="51.024,56.838,59.65,63.868,68.086,72.665,77.244,81.823,86.402,89.917,94.135,96.415,100.984,105.383,108.898,113.116" y="619.976" svg_rhmargin="116.631" style="fill:#171615;font-family:QADFKS+FrutigerLTPro-CondensedIta;font-size:9.5px;font-style:NORMAL;font-weight:normal;">Greenhouse gases</text>
  <text x="51.024,56.125" y="631.975" svg_rhmargin="61.939" style="fill:#171615;font-family:QADFKS+FrutigerLTPro-Condensed;font-size:9.5px;font-style:NORMAL;font-weight:normal;">CO</text>
  <text x="61.939" y="635.163" svg_rhmargin="64.597" style="fill:#171615;font-family:QADFKS+FrutigerLTPro-Condensed;font-size:5.54px;font-style:NORMAL;font-weight:normal;">2</text>
  <text x="64.597,66.526,68.806,69.357,71.998,76.577,80.092,83.607,85.716,87.825,90.105,90.656,93.297,97.876,102.094,104.203,107.366,109.295,111.575,112.126,114.235,118.633,123.212,127.782,130.06199999999998,130.613,135.192,138.707,142.573,144.502,146.782,147.333,152.434" y="632.0" svg_rhmargin="157.887" style="fill:#171615;font-family:QADFKS+FrutigerLTPro-Condensed;font-size:9.5px;font-style:NORMAL;font-weight:normal;">, fossil fuels, land use, CH</text>
  <text x="157.893" y="635.163" svg_rhmargin="160.551" style="fill:#171615;font-family:QADFKS+FrutigerLTPro-Condensed;font-size:5.54px;font-style:NORMAL;font-weight:normal;">4</text>
  <text x="160.552,162.48,164.76,165.311,169.529,174.108,178.326,181.138,185.708,189.574,191.503,193.783,194.334,196.443,200.841,205.42,209.99,212.27,212.821,217.4,220.915,224.781,226.71,228.99,229.541" y="632.0" svg_rhmargin="235.355" style="fill:#171615;font-family:QADFKS+FrutigerLTPro-Condensed;font-size:9.5px;font-style:NORMAL;font-weight:normal;">, energy, land use, N</text>
  <text x="235.36" y="635.163" svg_rhmargin="238.018" style="fill:#171615;font-family:QADFKS+FrutigerLTPro-Condensed;font-size:5.54px;font-style:NORMAL;font-weight:normal;">2</text>
  <text x="238.018,243.31,245.238,247.518,248.069,252.287,256.866,261.084,263.896,268.466,272.332,274.261,276.541,277.092,282.545,286.592,291.693,294.856,296.784" y="632.0" svg_rhmargin="299.064" style="fill:#171615;font-family:QADFKS+FrutigerLTPro-Condensed;font-size:9.5px;font-style:NORMAL;font-weight:normal;">O, energy, HFCs, </text>
  <text x="51.02,56.122,60.169,65.27,68.434,70.362,72.642,76.86" y="643.999" svg_rhmargin="80.907" style="fill:#171615;font-family:QADFKS+FrutigerLTPro-Condensed;font-size:9.5px;font-style:NORMAL;font-weight:normal;">CFCs, SF</text>
  <text x="80.91" y="647.163" svg_rhmargin="83.568" style="fill:#171615;font-family:QADFKS+FrutigerLTPro-Condensed;font-size:5.54px;font-style:NORMAL;font-weight:normal;">6</text>
  <text x="83.569,85.497,87.777,92.879,98.17,100.099,102.379,106.597,111.176,115.394,118.206,122.775,126.642,128.922,133.501,137.016" y="644.0" svg_rhmargin="141.234" style="fill:#171615;font-family:QADFKS+FrutigerLTPro-Condensed;font-size:9.5px;font-style:NORMAL;font-weight:normal;">, CO, energy use</text>
  <text x="51.022,55.24,59.819,61.928,64.037,68.616,71.428,75.826,80.405,83.217" y="667.9970000000001" svg_rhmargin="86.732" style="fill:#171615;font-family:QADFKS+FrutigerLTPro-CondensedIta;font-size:9.5px;font-style:NORMAL;font-weight:normal;">Pollutants</text>
  <text x="51.022,56.836,61.415,63.524,67.39,69.67,72.311,76.89,79.702,81.982,86.2,90.779,94.997,97.809,102.379,106.245,108.174,110.454,116.268" y="679.995" svg_rhmargin="122.082" style="fill:#171615;font-family:QADFKS+FrutigerLTPro-Condensed;font-size:9.5px;font-style:NORMAL;font-weight:normal;">Only for energy, NO</text>
  <text x="122.082" y="683.163" svg_rhmargin="125.056" style="fill:#171615;font-family:QADFKS+FrutigerLTPro-Condensed;font-size:5.54px;font-style:NORMAL;font-weight:normal;">X</text>
  <text x="125.057,126.985,129.265,133.483" y="680.0" svg_rhmargin="139.297" style="fill:#171615;font-family:QADFKS+FrutigerLTPro-Condensed;font-size:9.5px;font-style:NORMAL;font-weight:normal;">, SO</text>
  <text x="139.297" y="683.163" svg_rhmargin="142.271" style="fill:#171615;font-family:QADFKS+FrutigerLTPro-Condensed;font-size:5.54px;font-style:NORMAL;font-weight:normal;">X</text>
  <text x="142.271,144.199,146.479,151.41,156.511,158.44,160.72,166.534,171.635,173.564,175.844,181.658,185.353,189.932,194.511" y="680.0" svg_rhmargin="198.729" style="fill:#171615;font-family:QADFKS+FrutigerLTPro-Condensed;font-size:9.5px;font-style:NORMAL;font-weight:normal;">, BC, OC, Ozone</text>
  <text x="51.023,56.125,58.234,60.343,67.202,71.6,74.412,78.63,80.91,83.019,87.598,92.168,94.277,97.972,102.371,105.183,109.762,112.574" y="703.997" svg_rhmargin="116.089" style="fill:#171615;font-family:QADFKS+FrutigerLTPro-CondensedIta;font-size:9.5px;font-style:NORMAL;font-weight:normal;">Climate indicators</text>
  <text x="51.023,56.125" y="715.995" svg_rhmargin="61.939" style="fill:#171615;font-family:QADFKS+FrutigerLTPro-Condensed;font-size:9.5px;font-style:NORMAL;font-weight:normal;">CO</text>
  <text x="61.939" y="719.163" svg_rhmargin="64.597" style="fill:#171615;font-family:QADFKS+FrutigerLTPro-Condensed;font-size:5.54px;font-style:NORMAL;font-weight:normal;">2</text>
  <text x="64.597,68.815,71.095,72.511,76.206,80.785,85.364,89.06,93.278,97.857,100.669,103.481,107.879,110.691,112.8,117.379,121.958,124.238,125.654,128.295,132.864,137.434,144.293,146.934,148.862,151.142,152.558,155.37,159.768,164.338,166.447,170.845,173.657,175.766,179.813,184.031,186.311,187.727,191.422,196.001,198.813,202.509,204.618,209.197,213.766,216.046,217.462,220.103,227.665,229.945,231.36" y="716.0" svg_rhmargin="238.219" style="fill:#171615;font-family:QADFKS+FrutigerLTPro-Condensed;font-size:9.5px;font-style:NORMAL;font-weight:normal;">e concentration (ppm), radiative Forcing (W m</text>
  <text x="238.232,241.555" y="712.837" svg_rhmargin="244.213" style="fill:#171615;font-family:QADFKS+FrutigerLTPro-Condensed;font-size:5.54px;font-style:NORMAL;font-weight:normal;">−2</text>
  <text x="244.213,246.854,248.783,251.063,252.478,255.29,259.508,266.367,270.936,275.154,277.966,282.365,285.177,289.756,292.568,296.786" y="716.0" svg_rhmargin="299.066" style="fill:#171615;font-family:QADFKS+FrutigerLTPro-Condensed;font-size:9.5px;font-style:NORMAL;font-weight:normal;">), temperature </text>
  <text svg_rhmargin="93.524" x="51.021,54.716,59.295,63.694,68.273,72.842,77.061,79.34,81.981,85.782,90.883,93.524" y="68.0" style="fill:#171615;font-family:QADFKS+FrutigerLTPro-Condensed;font-size:9.5px;font-style:NORMAL;font-weight:normal;">change (°C) </text>
  <text x="309.543,314.743,317.343,322.343,330.493,333.093,338.293,340.893,346.093,351.293,353.893,356.493,366.233,371.793,376.793,380.123,385.123,388.543,393.543,398.733,402.993,407.993,410.593,416.153,421.153,424.573,429.943,432.543,437.543,440.143,445.143,449.953,455.143,457.743,465.893,471.263,476.633,481.633" y="68.0" svg_rhmargin="484.233" style="fill:#192a53;font-family:QADFKS+FrutigerLTPro-BoldCn;font-size:10.0px;font-style:NORMAL;font-weight:bold;">2.SM.2.10 Reference Card – ETP Model</text>
  <text x="309.543,315.348,320.449,325.551,330.481" y="92.0" svg_rhmargin="333.825" style="fill:#192a53;font-family:QADFKS+FrutigerLTPro-BoldCn;font-size:9.5px;font-style:NORMAL;font-weight:bold;">About</text>
  <text x="309.543,315.357,319.756,326.615,330.833,333.113,337.511,342.09,346.66,348.94,352.987,357.205,360.017,363.532,365.641,370.22" y="103.99800000000005" svg_rhmargin="374.799" style="fill:#171615;font-family:QADFKS+FrutigerLTPro-CondensedIta;font-size:9.5px;font-style:NORMAL;font-weight:normal;">Name and version</text>
  <text x="309.543,313.942,318.16,322.729,325.009,332.4,336.979,341.549,345.767,347.353,349.282,351.562,355.609,359.827,362.639,366.154,368.263,372.842,377.421,379.701" y="115.99699999999996" svg_rhmargin="384.261" style="fill:#171615;font-family:QADFKS+FrutigerLTPro-Condensed;font-size:9.5px;font-style:NORMAL;font-weight:normal;">ETP Model, version 3</text>
  <text x="309.543,311.842,316.421,319.936,322.748,324.857,327.669,332.248,335.06,337.169,341.748,346.327,348.607,353.006,357.585,362.154,364.434,369.013,372.528,376.746,379.558" y="139.99400000000003" svg_rhmargin="383.073" style="fill:#171615;font-family:QADFKS+FrutigerLTPro-CondensedIta;font-size:9.5px;font-style:NORMAL;font-weight:normal;">Institution and users</text>
  <text x="309.543,311.842,316.421,319.233,323.451,326.263,330.842,335.241,338.053,340.162,344.741,349.32,353.718,355.827,358.107,362.506,367.085,371.303,374.115,378.684,382.551,384.308,389.761,394.331,398.549,403.128,406.823,410.69,412.97,417.72,420.0,424.579,427.391,430.203,434.772,437.052,439.513,441.973,448.481,454.988,461.496,463.776,465.885,470.103,474.501,476.781,481.36,484.172,488.742,491.202,495.42,498.232,502.802,505.262,509.48,512.292,516.862,523.721,528.3,532.869,537.087,539.196" y="151.99199999999996" svg_rhmargin="541.657" style="fill:#171615;font-family:QADFKS+FrutigerLTPro-Condensed;font-size:9.5px;font-style:NORMAL;font-weight:normal;">International Energy Agency – http://www.iea.org/etp/etpmodel/</text>
  <text x="309.543,317.286,322.387,327.489,332.239,334.709,337.179,341.045,345.092,350.194,355.295,360.045,362.515,367.265,372.196,377.297,379.767,387.158,391.908,395.252,400.183,405.284,410.386" y="175.98900000000003" svg_rhmargin="414.253" style="fill:#192a53;font-family:QADFKS+FrutigerLTPro-BoldCn;font-size:9.5px;font-style:NORMAL;font-weight:bold;">Model scope and methods</text>
  <text x="309.543,315.357,319.927,322.036,326.254,329.949,332.761,334.87,338.917" y="187.98800000000006" svg_rhmargin="343.135" style="fill:#171615;font-family:QADFKS+FrutigerLTPro-CondensedIta;font-size:9.5px;font-style:NORMAL;font-weight:normal;">Objective</text>
  <text x="309.543,313.41,317.799,321.827,323.613,327.821,332.21,336.419,338.338,342.014,345.339,347.258,350.583,352.369,356.578,360.967,365.346,367.132,373.801,378.19,382.57,386.598,388.517,390.436,392.355,396.744,401.123,402.909,407.118,409.037,415.706,417.492,420.114,424.503,426.289,428.208,432.587,436.615,441.004,443.626,445.545,447.996,451.673,453.459,457.667,462.056,463.842,467.87,471.376,475.765,480.154,484.543,491.212,493.131,496.637,500.845,502.764,504.55,510.697,514.905,518.582,520.368,522.819,527.208,529.83,531.616,534.941,539.33,542.835,544.754,548.782,551.404,555.271" y="199.986" svg_rhmargin="557.551" style="fill:#171615;font-family:QADFKS+FrutigerLTPro-Condensed;font-size:9.5px;font-style:NORMAL;font-weight:normal;">The analysis and modelling aim to identify an economical way for society </text>
  <text x="309.543,312.165,316.554,319.214,321.836,325.864,330.073,333.578,337.967,340.627,343.249,347.638,351.666,354.326,358.706,362.734,366.059,367.978,370.6,374.628,379.007,381.667,386.056,390.445,393.067,396.573,400.962,407.631,411.659,414.984,417.644,422.033,424.484,427.144,429.766,433.794,435.713,437.632,441.84,446.22,448.139,451.815,453.554,456.214,460.422,462.873,465.324,469.713,472.335,476.715,480.923,485.303,487.222,491.25,493.91,498.118,502.507,506.887,509.547,513.052,514.971,518.999,523.208,527.597,530.257,534.285,538.674,542.702,545.324,549.703,553.38,555.308" y="211.985" svg_rhmargin="557.588" style="fill:#171615;font-family:QADFKS+FrutigerLTPro-Condensed;font-size:9.5px;font-style:NORMAL;font-weight:normal;">to reach the desired outcomes of reliable, affordable and clean energy. </text>
  <text x="309.543,313.049,317.438,320.06,322.34,323.1,327.308,329.58799999999997,330.348,334.034,338.243,340.865,342.784,346.812,349.434,353.11,355.39,356.15,360.539,362.99,365.27,366.03,368.652,372.68,376.889,380.214,384.603,388.992,391.965,393.704,395.984,396.744,399.366,403.755,407.783,410.063,410.823,414.148,417.653,421.681,426.07,430.279,432.901,434.82,439.209,441.489,442.249,444.871,448.899,452.224,456.613,458.532,461.154,464.479,466.75899999999996,467.519,471.898,476.287,478.56699999999995,479.327,483.716,488.105,490.728,493.008,493.768,498.157,502.185,505.69,509.718,513.043,516.368,520.577,523.199,525.118,527.037,530.713,532.9929999999999,533.753,536.375,540.403,544.963,548.991,552.497,555.309" y="223.98299999999995" svg_rhmargin="557.589" style="fill:#171615;font-family:QADFKS+FrutigerLTPro-Condensed;font-size:9.5px;font-style:NORMAL;font-weight:normal;">For a variety of reasons, the scenario results do not necessarily reflect </text>
  <text x="309.543,312.165,316.554,320.582,322.86199999999997,323.664,325.583,329.611,333.82,337.145,339.767,342.389,345.894,350.283,353.608,356.23,358.51,359.312,361.231,365.61,369.638,373.847,375.243,376.982,379.542,383.219,387.608,391.636,393.916,394.718,398.926,402.954,407.334,409.614,410.415,414.624,419.013,423.221,425.14,428.817,432.142,434.061,437.386,439.666,440.469,443.091,447.299,450.976,455.004,458.329,460.609,461.411,463.33,467.719,470.341,474.73,477.01,477.812,482.021,485.526,489.032,493.421,497.81,502.199,504.821,507.101,507.903,510.525,514.914,519.303,522.628,526.656,528.9359999999999,529.739,534.119,538.508,540.427,542.346,545.851,547.77,551.798,555.313" y="235.98199999999997" svg_rhmargin="557.593" style="fill:#171615;font-family:QADFKS+FrutigerLTPro-Condensed;font-size:9.5px;font-style:NORMAL;font-weight:normal;">the least-cost ideal. The ETP analysis takes into account those policies </text>
  <text x="309.543,312.165,316.554,320.763,323.385,325.95,330.339,334.547,338.404,342.432,344.997,349.206,351.125,353.747,357.775,361.983,366.363,370.039,372.604,376.984,381.012,385.04,389.429,391.994,393.913,400.582,404.961,406.88,410.908,417.577,421.605,425.994,428.616,432.644,437.024,439.584,443.973,446.595,449.155,453.535,457.563,461.068,462.987,467.367,471.395,475.774,477.513,480.078,482.187,486.576,489.136,491.758,496.147,500.175,502.74,506.065,510.454,514.843,517.465,520.087,522.652,525.274,529.302,531.924,538.593,540.332,542.897,545.519,549.908,551.827,555.342" y="247.98000000000002" svg_rhmargin="557.622" style="fill:#171615;font-family:QADFKS+FrutigerLTPro-Condensed;font-size:9.5px;font-style:NORMAL;font-weight:normal;">that have already been implemented or decided. In the short term, this </text>
  <text x="309.543,316.212,320.24,324.449,328.838,332.163,334.443,337.065,341.454,345.662,348.284,350.564,354.944,358.972,363.351,365.27,369.659,373.336,380.005,384.033,388.422,391.044,393.324,397.703,401.912,404.534,408.923,415.069,419.278,422.954,426.279,428.559,435.228,439.437,443.113,445.393,449.773,451.692,454.143,456.594,460.622,463.244,465.524,467.975,470.597,474.986,481.655,483.935,490.252,494.641,498.85,501.472,503.752,510.069,514.458,518.847,520.766,525.146,527.426,531.805,535.833,538.114,544.783,549.172,552.497,555.309" y="259.97900000000004" svg_rhmargin="557.589" style="fill:#171615;font-family:QADFKS+FrutigerLTPro-Condensed;font-size:9.5px;font-style:NORMAL;font-weight:normal;">means that deployment pathways may differ from what would be most </text>
  <text x="309.543,313.049,317.438,320.763,323.385,326.007,330.035,332.486,334.937,338.965,342.47,345.092,347.011,350.868,354.545,356.282,358.56199999999995,359.085,361.194,365.583,367.863,368.385,371.007,375.396,379.424,381.70399999999995,382.227,384.146,388.535,392.924,397.303,401.331,403.953,406.23299999999995,406.756,409.378,413.406,416.028,422.697,424.435,426.715,427.238,429.86,434.249,438.277,440.55699999999996,441.079,445.288,449.677,453.885,455.804,459.481,462.806,464.725,468.05,470.33,470.853,474.88,481.549,485.929,490.318,494.526,497.852,499.771,503.276,507.304,510.629,512.909,513.432,517.64,519.92,520.443,524.831,529.22,531.842,538.511,542.72,545.342,547.261,551.118,555.336" y="271.977" svg_rhmargin="557.616" style="fill:#171615;font-family:QADFKS+FrutigerLTPro-Condensed;font-size:9.5px;font-style:NORMAL;font-weight:normal;">cost-effective. In the longer term, the analysis emphasizes a normative </text>
  <text x="309.543,313.752,318.131,322.511,325.133,329.522,333.73,337.236,341.625,343.363,345.482,349.69,354.079,358.459,360.577,363.028,367.056,373.374,377.402,380.024,382.142,385.648,390.037,394.426,397.751,400.373,402.995,407.203,409.122,413.511,416.133,419.458,421.577,425.956,430.345,434.202,438.23,440.852,445.241,449.269,453.649,455.767,460.147,463.823,465.942,469.447,473.836,476.458,479.08,483.108,487.497,490.119,492.238,496.617,501.006,502.925,504.844,507.466,509.385,512.891,517.099,519.018,521.137,525.526,529.905,531.824,535.852,539.358,541.98,543.899,547.756,551.784,555.299" y="283.976" svg_rhmargin="557.579" style="fill:#171615;font-family:QADFKS+FrutigerLTPro-Condensed;font-size:9.5px;font-style:NORMAL;font-weight:normal;">approach, and fewer constraints governed by current political objectives </text>
  <text x="309.543,313.752,318.131,322.511,324.43,328.106,330.795,332.714,337.103,339.791,342.413,346.802,350.83,353.519,360.188,364.577,368.956,372.984,374.903,376.822,378.741,383.13,387.51,389.248,391.414,395.091,399.48,403.508,406.196,410.585,414.965,416.884,420.912,424.417,427.039,428.958,432.815,436.843,439.532,443.921,446.372,449.06,451.682,456.071,457.99,461.315,464.004,470.673,474.701,477.323,481.712,486.101,490.48,494.869,496.788,501.177,505.557,509.233,511.922,513.841,517.166,519.854,522.476,526.865,529.554,533.933,536.555,540.944,544.801,546.72,551.1,555.318" y="295.974" svg_rhmargin="557.598" style="fill:#171615;font-family:QADFKS+FrutigerLTPro-Condensed;font-size:9.5px;font-style:NORMAL;font-weight:normal;">apply in the modelling. The objective of this methodology is to provide </text>
  <text x="309.543,313.752,315.842,322.511,326.9,331.279,335.307,337.226,339.316,341.767,346.156,348.778,350.868,355.077,357.167,360.672,365.061,368.386,371.008,373.63,377.658,380.109,382.56,386.588,390.094,392.716,394.635,398.492,402.52,404.61,407.232,409.854,414.062,418.451,421.776,423.695,426.317,428.236,432.625,437.014,439.104,441.726,446.115,448.205,452.414,454.504,457.829,462.218,465.543,468.165,472.373,474.292,478.681,482.89,487.269,489.188,493.216,495.306,499.334,503.723,507.751,510.373,514.753,518.429,520.519,523.844,527.521,530.846,533.468,537.496,544.165" y="307.973" svg_rhmargin="546.445" style="fill:#171615;font-family:QADFKS+FrutigerLTPro-Condensed;font-size:9.5px;font-style:NORMAL;font-weight:normal;">a model for a cost-effective transition to a sustainable energy system.</text>
  <text x="309.543,314.645,319.224,323.803,327.498,331.716,336.286" y="331.97" svg_rhmargin="339.098" style="fill:#171615;font-family:QADFKS+FrutigerLTPro-CondensedIta;font-size:9.5px;font-style:NORMAL;font-weight:normal;">Concept</text>
  <text x="309.543,313.59,317.989,320.801,323.613,325.722,330.12,332.229,334.329,338.547,343.116,347.695,349.804,351.913,354.022,358.592,361.404,363.513,368.092,374.951,377.05,379.691,384.441,388.488,392.706,397.276,399.375,403.593,408.172,412.39,415.202,419.772,423.638,425.738,429.253,433.471,436.283,440.33,442.439,446.134,450.352,452.452,456.85,461.429,465.999,468.098,474.957,479.356,482.168,486.386,489.198,491.307,495.705,497.814,499.914,504.483,508.701,515.56,519.959,524.538,529.107,532.622,535.263,537.192,539.291,545.799,547.908,550.72,555.299" y="343.968" svg_rhmargin="557.579" style="fill:#171615;font-family:QADFKS+FrutigerLTPro-Condensed;font-size:9.5px;font-style:NORMAL;font-weight:normal;">Partial equilibrium (fixed energy service and material demands), with </text>
  <text x="309.543,312.355,316.934,321.152,323.128,327.346,331.393,335.089,339.307,343.876,346.688,348.797,353.376,357.955,359.931,362.572,367.151,369.963,371.939,374.751,379.33,383.548,385.524,388.336,391.148,395.547,400.126,403.641,408.21,412.789,415.601,418.413,420.389,423.904,428.122,431.818,434.63,439.209,441.156,443.085,445.061,451.569,456.148,460.366,463.178,467.396,469.019,471.299,475.698,479.745,484.324,486.433,491.002,492.978,497.377,501.956,506.525,508.501,512.016,516.595,518.704,521.345,524.157,526.437,528.413,532.983,537.562,539.671,541.78,545.475,547.584,551.802,555.317" y="355.967" svg_rhmargin="557.597" style="fill:#171615;font-family:QADFKS+FrutigerLTPro-Condensed;font-size:9.5px;font-style:NORMAL;font-weight:normal;">the exception for the transport sector, where ‘avoid and shift’ policies </text>
  <text x="309.543,313.942,316.754,320.972,323.252,327.821,332.039,334.148,338.727,343.297,345.577,349.272,353.851,358.43,361.945,364.054,368.624,372.842,375.654,379.872,384.441" y="367.965" svg_rhmargin="386.721" style="fill:#171615;font-family:QADFKS+FrutigerLTPro-Condensed;font-size:9.5px;font-style:NORMAL;font-weight:normal;">are being considered.</text>
  <text x="309.543,313.761,318.34,320.449,325.028,327.84,329.949,334.528,339.107,341.387,348.246,352.464,355.39,359.969,364.548" y="391.962" svg_rhmargin="369.118" style="fill:#171615;font-family:QADFKS+FrutigerLTPro-CondensedIta;font-size:9.5px;font-style:NORMAL;font-weight:normal;">Solution method</text>
  <text x="309.543,315.357,319.927,322.739,324.848,331.707,333.816,337.511,341.91,344.722,346.831,351.41,355.989,358.26899999999995,359.361,362.002,366.581,369.393,371.67299999999994,372.766,377.335,381.914,388.422,392.64,394.586,396.516,398.796,399.888,404.467,407.279,411.858,416.076,418.888,421.16799999999995,422.261,425.073,427.885,432.283,436.862,440.377,443.018,447.597,450.409,457.268,461.667,464.479,466.588,471.167,475.746,478.02599999999995,479.118,483.517,488.096,492.665,494.945,496.038,498.147,502.726,507.296,511.875,515.39,518.202,521.014,524.88,527.16,528.253,531.768,535.986,539.681,542.493,547.072,549.884,553.399,555.327" y="403.961" svg_rhmargin="557.607" style="fill:#171615;font-family:QADFKS+FrutigerLTPro-Condensed;font-size:9.5px;font-style:NORMAL;font-weight:normal;">Optimization for power, other transformation and industry sectors; </text>
  <text x="309.543,313.058,315.167,322.026,326.605,328.714,333.113,335.925,338.034,342.613,347.192,349.472,352.113,356.692,359.504,361.784,366.182,370.752,373.564,375.673,379.368,383.947,386.056,388.868,393.447,396.259,400.126,402.054,404.334,407.146,411.364,414.879,416.988,421.558,425.776,430.355,433.167,435.276,439.674,441.26,443.189,445.469,448.984,453.202,456.014,460.061,462.171,465.866,470.084,473.599,475.879,480.277,484.857,489.426,491.706,494.518,497.33,501.729,506.308,509.823,514.392,518.971,521.783,524.595,526.875,530.39,534.608,538.304,541.116,545.695,548.507" y="415.959" svg_rhmargin="552.022" style="fill:#171615;font-family:QADFKS+FrutigerLTPro-Condensed;font-size:9.5px;font-style:NORMAL;font-weight:normal;">simulation for agriculture, residential, services and transport sectors</text>
  <text x="309.543,314.996,319.575,322.387,324.496,328.192,330.301,334.87,339.269,342.081,344.19,348.769" y="439.956" svg_rhmargin="353.348" style="fill:#171615;font-family:QADFKS+FrutigerLTPro-CondensedIta;font-size:9.5px;font-style:NORMAL;font-weight:normal;">Anticipation</text>
  <text x="309.543,311.842,316.421,319.233,323.451,325.835,328.647,331.459,335.677,342.536,347.105,351.684,354.496,358.895,361.004,363.284,365.925,368.566,373.145,375.957,380.175,383.69,385.799,390.368,394.947,397.759" y="451.955" svg_rhmargin="400.4" style="fill:#171615;font-family:QADFKS+FrutigerLTPro-Condensed;font-size:9.5px;font-style:NORMAL;font-weight:normal;">Inter-temporal (foresight)</text>
  <text x="309.543,313.058,317.276,324.135,328.705,333.284,336.096,340.494,342.603,344.883,349.453,351.562,358.421,362.639,367.218,370.733,372.842,377.421" y="475.952" svg_rhmargin="382.0" style="fill:#171615;font-family:QADFKS+FrutigerLTPro-CondensedIta;font-size:9.5px;font-style:NORMAL;font-weight:normal;">Temporal dimension</text>
  <text x="309.543,314.474,318.872,322.387,326.605,328.885,332.752,336.97,341.368,344.18,346.109,348.389,352.949,357.509,362.069" y="487.95" svg_rhmargin="366.629" style="fill:#171615;font-family:QADFKS+FrutigerLTPro-Condensed;font-size:9.5px;font-style:NORMAL;font-weight:normal;">Base year: 2014</text>
  <text x="309.543,313.41,315.519,322.378,326.596,328.876,332.391,335.203,339.421,343.99,347.505,349.434,351.714,356.274,358.554,362.42,366.638,371.037,373.849" y="499.949" svg_rhmargin="377.364" style="fill:#171615;font-family:QADFKS+FrutigerLTPro-Condensed;font-size:9.5px;font-style:NORMAL;font-weight:normal;">Time steps: 5 years</text>
  <text x="309.543,314.996,319.575,322.387,324.496,328.192,332.771,337.35,339.278,341.558,346.118,350.678,355.238" y="511.947" svg_rhmargin="359.798" style="fill:#171615;font-family:QADFKS+FrutigerLTPro-Condensed;font-size:9.5px;font-style:NORMAL;font-weight:normal;">Horizon: 2060</text>
  <text x="309.543,313.761,318.331,322.729,325.541,327.65,332.049,334.158,336.438,341.007,343.116,349.975,354.193,358.772,362.287,364.396,368.975" y="535.944" svg_rhmargin="373.554" style="fill:#171615;font-family:QADFKS+FrutigerLTPro-CondensedIta;font-size:9.5px;font-style:NORMAL;font-weight:normal;">Spatial dimension</text>
  <text x="309.543,315.357,319.936,326.795,331.365,335.583,338.395,340.67499999999995,342.432,347.011,349.652,351.93199999999996,353.69,356.502,360.72,365.289,367.398,371.977,376.556,380.071,382.0,384.28,386.037,390.607,392.716,395.357,397.998,402.216,405.028,408.543,410.823,412.58,417.15,421.368,424.18,430.687,434.905,439.123,443.702,445.98199999999997,447.74,451.958,456.537,460.755,463.567,468.136,472.003,474.28299999999996,476.04,479.555,483.773,487.469,490.281,494.86,497.672,501.187,503.467,505.224,507.865,512.425,516.985,519.797,524.357,528.917,531.197,532.955,539.814,544.393,548.962,553.18,555.289" y="547.943" svg_rhmargin="557.569" style="fill:#171615;font-family:QADFKS+FrutigerLTPro-Condensed;font-size:9.5px;font-style:NORMAL;font-weight:normal;">Number of regions: differs between energy sectors (28-39 model </text>
  <text x="309.543,312.355,316.573,321.143,323.252,327.831,332.41,335.925" y="559.941" svg_rhmargin="338.566" style="fill:#171615;font-family:QADFKS+FrutigerLTPro-Condensed;font-size:9.5px;font-style:NORMAL;font-weight:normal;">regions)</text>
  <text x="309.543,314.996,318.511,320.62,325.019,329.598,331.878,334.167,337.863,342.442,347.021,351.6,354.412,357.224,359.333,363.551,367.066,369.34599999999995,371.635,375.853,379.9,383.596,387.814,392.383,395.195,397.47499999999997,399.765,402.662,407.061,411.63,416.029,420.608,422.536,424.816,427.106,430.801,435.38,439.959,444.538,447.35,450.162,452.271,456.489,460.004,462.284,464.574,469.153,471.794,474.07399999999996,476.363,479.175,483.754,487.972,490.25199999999995,492.542,499.933,502.042,506.611,511.181,513.29,517.508,519.788,522.077,526.476,530.874,534.389,537.201,539.481,541.771,546.169,550.748,555.318" y="571.94" svg_rhmargin="557.598" style="fill:#171615;font-family:QADFKS+FrutigerLTPro-Condensed;font-size:9.5px;font-style:NORMAL;font-weight:normal;">Asian countries except Japan, countries of the Middle East and </text>
  <text x="309.543,314.996,317.637,320.449,322.558,326.254,330.652,332.581,334.718,338.585,342.983,345.795,347.904,352.483,354.097,359.55,366.409,370.627,373.439,375.548,379.244,383.642,388.221,390.359,394.054,398.633,403.212,407.791,410.603,413.415,415.525,419.742,422.906,424.835,426.972,432.786,437.185,442.286,447.739,452.299,456.859,458.997,463.395,467.974,472.544,474.681,479.08,484.704,486.841,489.482,493.881,498.46,503.029,505.167,509.565,515.189,517.327,521.022,525.421,530.0,534.569,536.678,541.248,545.646,548.458,552.676,555.317" y="583.938" svg_rhmargin="557.597" style="fill:#171615;font-family:QADFKS+FrutigerLTPro-Condensed;font-size:9.5px;font-style:NORMAL;font-weight:normal;">Africa, Latin American countries, OECD90 and EU (and EU candidate) </text>
  <text x="309.543,313.239,317.818,322.397,326.976,329.788,332.6,334.709,338.927,342.09,344.019,346.299,347.8,351.495,356.074,360.653,365.232,368.044,370.856,372.965,377.183,380.698,382.97799999999995,384.479,387.12,389.932,394.511,401.37,403.65,405.151,407.963,412.542,416.76,419.03999999999996,420.541,425.472,429.69,432.331,436.91,439.722,446.581,448.69,453.269,457.839,460.11899999999997,461.62,466.018,469.714,474.293,478.872,483.451,490.31,492.419,496.637,500.152,502.43199999999996,503.933,508.512,511.153,513.433,514.934,517.746,522.325,526.543,528.823,530.324,534.019,538.598,541.41,548.269,552.487,555.299" y="595.937" svg_rhmargin="557.579" style="fill:#171615;font-family:QADFKS+FrutigerLTPro-Condensed;font-size:9.5px;font-style:NORMAL;font-weight:normal;">countries, countries from the Reforming Economies of the Former </text>
  <text x="309.543,313.761,318.34,322.387,324.496,328.714,331.526,333.806,335.948,341.572,346.151,348.26,352.839,357.418,359.698,361.316,368.707,373.286,376.098,378.207,382.777,384.705,386.98499999999996,389.128,394.942,399.34,404.442,409.895,412.17499999999995,414.316,418.012,422.591,427.17,431.749,434.561,437.373,439.482,443.7,446.863,448.793,451.073,453.214,457.793,462.372,466.951,469.763,475.577,479.975,485.077,490.53,492.80999999999995,494.951,498.647,503.226,507.805,512.384,515.196,518.008,520.117,524.335,527.499,529.428,531.708,533.849,538.78,541.592,545.99,549.686,551.795,553.381,555.31" y="607.935" svg_rhmargin="557.59" style="fill:#171615;font-family:QADFKS+FrutigerLTPro-Condensed;font-size:9.5px;font-style:NORMAL;font-weight:normal;">Soviet Union World, OECD countries, non-OECD countries, Brazil, </text>
  <text x="309.543,314.645,319.224,321.333,325.912,330.31,332.239,334.51899999999995,336.685,340.903,345.482,350.061,352.873,357.452,359.73199999999997,361.373,366.826,369.467,372.279,374.388,378.084,382.482,384.411,386.691,388.857,393.788,398.367,401.882,405.397,407.506,411.904,413.833,416.113,418.279,420.578,425.157,429.726,431.835,436.234,438.163,440.443,442.085,447.538,451.756,456.154,461.607,467.421,469.70099999999996,471.867,474.679,478.897,483.467,485.576,490.155,494.734,497.01399999999995,499.18,502.875,507.454,512.033,516.612,519.424,522.236,524.345,528.563,531.727,533.655,535.935,538.101,543.725,547.943,553.396,555.325" y="619.934" svg_rhmargin="557.605" style="fill:#171615;font-family:QADFKS+FrutigerLTPro-Condensed;font-size:9.5px;font-style:NORMAL;font-weight:normal;">China, South Africa, Russia, India, ASEAN region countries, USA, </text>
  <text x="309.543,313.942,318.521,321.333,325.912,330.481,334.699,339.098,343.677,345.957,351.581,356.16,358.269,362.848,367.427,369.707,372.348,376.908,381.468,383.748,390.607,394.825,401.684,406.253,410.471,413.283,415.563,419.259,423.838,428.417,432.996,435.808,438.62,440.729,444.947,448.462,451.103,453.031,455.311,462.702,466.92,470.967,473.076,476.772" y="631.932" svg_rhmargin="481.351" style="fill:#171615;font-family:QADFKS+FrutigerLTPro-Condensed;font-size:9.5px;font-style:NORMAL;font-weight:normal;">European Union (28 member countries), Mexico</text>
  <text x="309.543,313.761,318.34,320.449,322.558,326.254,330.12,332.4,334.509,341.368,345.938,348.047,352.265,359.124,363.342,367.921,370.733,375.131,377.943,380.052,384.631" y="655.929" svg_rhmargin="389.21" style="fill:#171615;font-family:QADFKS+FrutigerLTPro-CondensedIta;font-size:9.5px;font-style:NORMAL;font-weight:normal;">Policy implementation</text>
  <text x="309.543,313.942,320.801,322.91,326.425,329.94,332.049,336.628,341.207,343.48699999999997,344.209,347.021,351.419,355.466,357.927,362.496,365.308,367.417,371.113,373.222,377.801,382.37,384.299,386.57899999999995,387.301,390.996,395.395,399.964,402.24399999999997,402.966,407.365,411.944,416.513,418.79299999999995,419.515,422.327,425.139,429.538,434.107,437.974,439.902,442.18199999999996,442.904,445.545,450.124,454.342,456.451,458.731,459.453,462.265,466.664,470.711,474.929,478.092,480.021,482.301,483.023,485.664,490.243,494.461,496.57,498.84999999999997,499.572,503.087,507.666,512.236,515.751,517.86,522.429,524.538,528.756,531.92,533.848,536.1279999999999,536.85,539.491,543.709,547.927,552.497" y="667.928" svg_rhmargin="555.309" style="fill:#171615;font-family:QADFKS+FrutigerLTPro-Condensed;font-size:9.5px;font-style:NORMAL;font-weight:normal;">Emission tax/pricing, cap and trade, fuel taxes, fuel subsidies, feed-</text>
  <text x="309.543,311.652,316.231,319.043,321.855,326.254,329.066,331.175,333.816,335.934,337.863,340.143,342.1,346.669,351.248,354.06,356.872,359.513,364.092,366.201,368.31,372.889,375.169,377.126,380.641,383.453,387.852,392.431,397.0,401.399,404.211,408.78,411.944,413.872,416.152,418.109,421.805,426.203,430.773,435.171,438.867,440.976,443.788,447.654,449.93399999999997,451.891,454.703,459.102,461.914,466.483,470.701,473.513,476.677,478.605,480.885,482.842,487.06,493.919,496.028,499.543,503.058,505.167,509.746,514.326,516.606,518.563,522.078,524.89,529.288,533.867,538.437,542.835,545.647,550.217,553.38,555.309" y="679.926" svg_rhmargin="557.589" style="fill:#171615;font-family:QADFKS+FrutigerLTPro-Condensed;font-size:9.5px;font-style:NORMAL;font-weight:normal;">in-tariff, portfolio standards, capacity targets, emission standards, </text>
  <text x="309.543,313.761,318.34,322.558,325.37,329.94,333.806,336.086,340.304,342.945,347.695,351.391,353.5,357.718,362.297,365.992,369.859,372.139,375.654,378.466,382.864,387.443,392.013,396.411,399.223,403.793" y="691.925" svg_rhmargin="407.308" style="fill:#171615;font-family:QADFKS+FrutigerLTPro-Condensed;font-size:9.5px;font-style:NORMAL;font-weight:normal;">energy efficiency standards</text>
  <text x="309.543,314.293,319.395,323.442,325.912,331.013,333.483,338.233,342.28,347.382,352.312,357.414,364.805,367.275,371.322,373.792,378.893,382.237,384.707,389.277,394.027,397.276" y="715.922" svg_rhmargin="401.143" style="fill:#192a53;font-family:QADFKS+FrutigerLTPro-BoldCn;font-size:9.5px;font-style:NORMAL;font-weight:bold;">Socio economic drivers</text>
  <text x="309.543,313.942,317.989,322.568,327.137,331.355,335.934,340.513,345.092,348.607,350.887,355.457,358.269,360.378,364.425,368.643,371.455" y="727.92" svg_rhmargin="374.97" style="fill:#171615;font-family:QADFKS+FrutigerLTPro-CondensedIta;font-size:9.5px;font-style:NORMAL;font-weight:normal;">Exogenous drivers</text>
  <text x="309.543,313.761,318.34,322.91,327.489,329.598,333.996,336.808,338.917,343.496,348.075,350.003,352.28299999999996,354.107,358.686,361.498,366.067,370.466,375.045,377.154,380.849,385.248,388.06,390.169,394.748,399.327,401.60699999999997,403.431,406.243,410.641,413.453,417.319,419.248,421.52799999999996,423.352,429.166,434.619,437.963,439.891,442.171,443.995,448.394,452.973,455.785,460.364,464.943,469.522,476.381,480.96,485.539,489.054,491.33399999999995,493.158,497.376,501.955,506.173,508.985,513.554,517.421,519.701,521.525,525.743,528.384,533.134,536.829,538.938,543.156,547.735,551.431,555.297" y="739.919" svg_rhmargin="557.577" style="fill:#171615;font-family:QADFKS+FrutigerLTPro-Condensed;font-size:9.5px;font-style:NORMAL;font-weight:normal;">Population, urbanization rate, GDP, autonomous energy efficiency </text>
 </g>
</svg>
