<?xml version="1.0" encoding="UTF-8"?>
<svg height="830.94" width="4129.13" xmlns="http://www.w3.org/2000/svg">
 <g id="page" xmlns:svgx="http://www.xml-cml.org/schema/svgx">
  <g begin="text">
   <text y="-21.531" x="8.034,10.402,14.594,16.618,19.554,22.402,26.242,30.082,32.93,36.77,40.61,44.45,48.29,52.129999999999995,68.13,70.762,75.01,77.034,80.71400000000001,82.522,86.362,90.202,92.042,93.842,97.682,101.522,105.362,109.202,125.202,130.018,132.162,138.714,142.114,143.954,146.186,150.026,153.866,155.69,159.53,163.37,179.37,183.21,185.026" svgx:width="0.3,0.52,0.25,0.37,0.36,0.48,0.48,0.36,0.48,0.48,0.48,0.48,0.48,0.55,0.33,0.53,0.25,0.46,0.55,0.48,0.48,0.23,0.55,0.48,0.48,0.48,0.48,0.55,0.62,0.27,0.82,0.43,0.23,0.55,0.48,0.48,0.23,0.48,0.48,0.55,0.48,0.55,0.48" style="fill:rgb(23,22,21);font-family:MinionPro-Regular;font-size:8.0px;stroke:none;">fpls-10-00908 July 11, 2019 Time: 17:36 # 4</text>
  </g>
  <path style="fill:none;stroke:rgb(23,22,21);stroke-width:1.0;" d="M-1.420 -18.390 L-1.420 -42.290 "/>
  <path style="fill:none;stroke:rgb(23,22,21);stroke-width:0.25;" d="M-43.030 -0.380 L-19.120 -0.380 "/>
  <path style="fill:none;stroke:rgb(23,22,21);stroke-width:0.25;" d="M611.940 -0.380 L635.850 -0.380 "/>
  <path style="fill:none;stroke:rgb(23,22,21);stroke-width:0.25;" d="M593.760 -18.390 L593.760 -42.290 "/>
  <path style="fill:none;stroke:rgb(23,22,21);stroke-width:0.25;" d="M-43.010 779.050 L-19.100 779.050 "/>
  <path style="fill:none;stroke:rgb(23,22,21);stroke-width:0.25;" d="M-1.120 820.940 L-1.120 797.030 "/>
  <path style="fill:none;stroke:rgb(23,22,21);stroke-width:0.25;" d="M593.760 820.940 L593.760 797.030 "/>
  <path style="fill:none;stroke:rgb(23,22,21);stroke-width:0.25;" d="M611.950 779.050 L635.860 779.050 "/>
  <g begin="text">
   <text y="34.783" x="44.98,48.613,52.246,56.005,59.925000000000004,61.843,65.476,67.576,69.494,73.127,74.422,76.38199999999999,427.814,432.224,434.303,437.936,441.954,443.249,446.882,448.954,450.249,454.141,457.921,459.846,463.612,467.245,471.137,474.77,476.842,480.475,482.547,483.842,487.734,491.51399999999995,493.439,498.367,502.126,505.759,509.518,513.41,517.05,518.989,525.506,526.801,528.873,532.653,534.578,537.826,540.031,543.664,544.959,547.031" svgx:width="0.61,0.52,0.54,0.56,0.55,0.52,0.3,0.55,0.52,0.19,0.28,0.55,0.63,0.31,0.52,0.57,0.19,0.52,0.3,0.19,0.56,0.54,0.55,0.59,0.52,0.56,0.52,0.3,0.52,0.3,0.19,0.56,0.54,0.55,0.7,0.54,0.52,0.54,0.56,0.52,0.55,0.91,0.19,0.3,0.54,0.55,0.56,0.31,0.52,0.19,0.3,0.48" style="fill:rgb(109,109,108);font-family:HelveticaNeueLTStd-Lt;font-size:7.0px;stroke:none;">Yang et al. Prediction Vegetation Change With Traits</text>
  </g>
  <path style="fill:none;stroke:rgb(109,109,108);stroke-width:0.25;" d="M44.980 42.740 L550.400 42.740 "/>
  <g begin="text">
   <text y="68.225" x="44.98,48.739,53.534,58.462,62.613,67.163,69.095,73.015,74.933" svgx:width="0.61,0.69,0.7,0.59,0.65,0.55,0.56,0.55,0.22" style="fill:rgb(23,22,21);font-family:HelveticaNeueLTStd-Bd;font-size:7.0px;stroke:none;">TABLE 1 |</text>
   <text y="68.225" x="78.44,79.994,83.753,85.566,89.458,91.663,97.494,101.127,103.199,104.494,108.386,112.166,114.091,117.983,121.763,123.688,125.76,129.519,133.159,135.098,139.767,144.695,149.105,152.465,154.418,158.177,161.544,165.177,169.167,171.141,172.436,176.216,178.141,180.213,183.972,185.267,188.627,190.58,193.947,196.019,199.778,203.796,206.393" svgx:width="0.22,0.54,0.26,0.56,0.31,0.83,0.52,0.3,0.19,0.56,0.54,0.55,0.56,0.54,0.55,0.3,0.54,0.52,0.55,0.67,0.7,0.63,0.48,0.55,0.54,0.48,0.52,0.57,0.55,0.19,0.54,0.55,0.3,0.54,0.19,0.48,0.55,0.48,0.3,0.54,0.57,0.46,0.28" style="fill:rgb(23,22,21);font-family:HelveticaNeueLTStd-Lt;font-size:7.0px;stroke:none;">Information on the RCPs used in this study.</text>
  </g>
  <path style="fill:none;stroke:rgb(109,109,108);stroke-width:0.25;" d="M44.980 75.690 L550.400 75.690 "/>
  <g begin="text">
   <text y="86.603" x="44.98,48.613,52.246,56.523,60.513000000000005,86.147,91.201,95.219,99.496,101.302,105.32,107.784,109.59,113.23,117.22,119.194,121.525,125.802,128.399,132.417,134.223,138.374,142.644,175.313,180.5,184.777,188.928,192.946,196.964,201.115,203.579,206.302,210.32,212.784,214.59,218.867,222.99699999999999,224.964,227.036,231.313,235.59,241.932,244.03199999999998,264.479,268.112,270.709,274.727,278.878,283.155,286.93499999999995,341.682,348.031,352.308,356.585,360.603,362.423,364.355,368.373,372.524,376.794,378.747,383.024,385.621,389.898,393.538,395.344,399.621,401.427,405.578" svgx:width="0.61,0.52,0.61,0.57,0.55,0.72,0.57,0.61,0.26,0.57,0.35,0.26,0.52,0.57,0.55,0.33,0.61,0.39,0.57,0.26,0.59,0.61,0.55,0.74,0.61,0.59,0.57,0.57,0.59,0.35,0.39,0.57,0.35,0.26,0.61,0.59,0.55,0.3,0.61,0.61,0.91,0.3,0.55,0.61,0.39,0.57,0.59,0.61,0.54,0.55,0.91,0.61,0.61,0.57,0.26,0.55,0.57,0.59,0.61,0.55,0.61,0.39,0.61,0.52,0.26,0.61,0.26,0.59,0.61" style="fill:rgb(23,22,21);font-family:HelveticaNeueLTStd-Bd;font-size:7.0px;stroke:none;">Type Radiative forcing Concentration (ppm) Trends Model and providing</text>
   <text y="96.068" x="341.683,343.489,347.64,351.399,353.863,355.669,358.133,362.284,364.748" svgx:width="0.26,0.59,0.54,0.35,0.26,0.35,0.59,0.35,0.57" style="fill:rgb(23,22,21);font-family:HelveticaNeueLTStd-Bd;font-size:7.0px;stroke:none;">institute</text>
   <text y="86.603" x="450.907,452.972,457.123,461.141,463.738,467.756,471.774,475.533,479.523,481.497,483.303,487.433,489.4,493.677,495.483,499.76,504.037,508.055,509.875,511.807,518.149,522.167,526.185" svgx:width="0.29,0.59,0.57,0.39,0.57,0.57,0.54,0.57,0.55,0.26,0.59,0.55,0.61,0.26,0.61,0.61,0.57,0.26,0.55,0.91,0.57,0.57,0.59" style="fill:rgb(23,22,21);font-family:HelveticaNeueLTStd-Bd;font-size:7.0px;stroke:none;">Increase in global mean</text>
   <text y="96.068" x="432.858,435.322,439.34,445.682,449.959,453.977,456.7,460.718,463.182,467.333,469.93,473.92,475.894,479.912,484.063,488.081,492.232,496.509,500.499,502.473,504.804,509.081,511.81100000000004,513.75,517.642,521.534,525.426,529.318,532.818,536.71,540.602,544.494" svgx:width="0.35,0.57,0.91,0.61,0.57,0.39,0.57,0.35,0.59,0.39,0.57,0.55,0.57,0.59,0.57,0.59,0.61,0.57,0.55,0.33,0.61,0.39,0.55,0.56,0.56,0.56,0.56,0.5,0.56,0.56,0.56,0.56" style="fill:rgb(23,22,21);font-family:HelveticaNeueLTStd-Bd;font-size:7.0px;stroke:none;">temperature change for 2081–2100</text>
   <text y="105.532" x="455.804,458.401,462.419,464.225,468.243,470.707,472.513,476.153,480.14300000000003,482.117,484.581,488.851,490.804,494.696,498.588,502.48,506.372,509.872,513.764,517.656,521.548" svgx:width="0.39,0.57,0.26,0.57,0.35,0.26,0.52,0.57,0.55,0.35,0.61,0.55,0.56,0.56,0.56,0.56,0.5,0.56,0.56,0.56,0.56" style="fill:rgb(23,22,21);font-family:HelveticaNeueLTStd-Bd;font-size:7.0px;stroke:none;">relative to 1986–2005</text>
  </g>
  <path style="fill:none;stroke:rgb(109,109,108);stroke-width:0.25;" d="M44.980 111.700 L550.400 111.700 "/>
  <g begin="text">
   <text y="122.618" x="44.98,49.649,54.577,58.987,62.879,64.825,68.745,86.147,90.557,94.19,97.823,101.323,103.269,106.902" svgx:width="0.67,0.7,0.63,0.56,0.28,0.56,0.55,0.63,0.52,0.52,0.5,0.55,0.52,0.3" style="fill:rgb(23,22,21);font-family:HelveticaNeueLTStd-Lt;font-size:7.0px;stroke:none;">RCP2.6 Peak at</text>
   <text y="122.618" x="110.922" svgx:width="0.78" style="fill:rgb(23,22,21);font-family:MTSYN;font-size:7.0px;stroke:none;">∼</text>
   <text y="122.618" x="116.382,120.302,122.22,128.59,130.515" svgx:width="0.56,0.55,0.91,0.55,0.83" style="fill:rgb(23,22,21);font-family:HelveticaNeueLTStd-Lt;font-size:7.0px;stroke:none;">3 W m</text>
   <text y="120.077" x="136.346" svgx:width="0.78" style="fill:rgb(23,22,21);font-family:MTSYN;font-size:5.32px;stroke:none;">−</text>
   <text y="120.077" x="140.994" svgx:width="0.56" style="fill:rgb(23,22,21);font-family:HelveticaNeueLTStd-Lt;font-size:5.32px;stroke:none;">2</text>
   <text y="132.082" x="86.149,90.167,93.8,95.613,99.505,101.584,105.224,107.163,111.055,114.947,118.839,122.759,124.677,128.31,132.069,136.059,138.033,140.105,143.864,147.497" svgx:width="0.57,0.52,0.26,0.56,0.31,0.52,0.55,0.56,0.56,0.56,0.56,0.55,0.52,0.54,0.57,0.55,0.3,0.54,0.52,0.54" style="fill:rgb(23,22,21);font-family:HelveticaNeueLTStd-Lt;font-size:7.0px;stroke:none;">before 2100 and then</text>
   <text y="141.547" x="86.149,90.167,93.8,97.433,98.728,100.023,103.782" svgx:width="0.57,0.52,0.52,0.19,0.19,0.54,0.52" style="fill:rgb(23,22,21);font-family:HelveticaNeueLTStd-Lt;font-size:7.0px;stroke:none;">decline</text>
   <text y="122.618" x="175.312,179.722,183.355,186.988,190.488,192.434,196.067" svgx:width="0.63,0.52,0.52,0.5,0.55,0.52,0.3" style="fill:rgb(23,22,21);font-family:HelveticaNeueLTStd-Lt;font-size:7.0px;stroke:none;">Peak at</text>
   <text y="122.618" x="200.085" svgx:width="0.78" style="fill:rgb(23,22,21);font-family:MTSYN;font-size:7.0px;stroke:none;">∼</text>
   <text y="122.618" x="205.545,209.437,213.329,217.249,219.167,224.095" svgx:width="0.56,0.56,0.56,0.55,0.7,0.74" style="fill:rgb(23,22,21);font-family:HelveticaNeueLTStd-Lt;font-size:7.0px;stroke:none;">490 CO</text>
   <text y="123.824" x="229.282" svgx:width="0.56" style="fill:rgb(23,22,21);font-family:HelveticaNeueLTStd-Lt;font-size:5.32px;stroke:none;">2</text>
   <text y="132.082" x="175.312,178.945,182.963,186.722,188.017,191.258,194.891,196.186,199.819,203.578,205.65,209.01000000000002,210.963,214.981,218.614,220.427,224.319,226.398" svgx:width="0.52,0.57,0.54,0.19,0.46,0.52,0.19,0.52,0.54,0.3,0.48,0.55,0.57,0.52,0.26,0.56,0.31,0.52" style="fill:rgb(23,22,21);font-family:HelveticaNeueLTStd-Lt;font-size:7.0px;stroke:none;">equivalents before</text>
   <text y="141.547" x="175.312,179.204,183.096,186.988,190.908,192.826,196.459,200.218,204.208,206.182,208.254,212.013,215.646,219.426,221.351,225.369,229.002,232.635,233.93,235.225,238.984" svgx:width="0.56,0.56,0.56,0.56,0.55,0.52,0.54,0.57,0.55,0.3,0.54,0.52,0.54,0.55,0.57,0.52,0.52,0.19,0.19,0.54,0.52" style="fill:rgb(23,22,21);font-family:HelveticaNeueLTStd-Lt;font-size:7.0px;stroke:none;">2100 and then decline</text>
   <text y="122.618" x="264.475,268.885,272.518,276.151,279.651,281.597,285.23,288.989,292.979,294.953,297.025,300.784,304.417" svgx:width="0.63,0.52,0.52,0.5,0.55,0.52,0.54,0.57,0.55,0.3,0.54,0.52,0.54" style="fill:rgb(23,22,21);font-family:HelveticaNeueLTStd-Lt;font-size:7.0px;stroke:none;">Peak and then</text>
   <text y="132.082" x="264.475,268.493,272.126,275.759,277.054,278.349,282.108" svgx:width="0.57,0.52,0.52,0.19,0.19,0.54,0.52" style="fill:rgb(23,22,21);font-family:HelveticaNeueLTStd-Lt;font-size:7.0px;stroke:none;">decline</text>
   <text y="122.618" x="341.683,343.237,349.068,353.478,358.665,362.816,364.77599999999995,366.708,371.636,377.467" svgx:width="0.22,0.83,0.63,0.74,0.59,0.28,0.55,0.7,0.83,0.63" style="fill:rgb(23,22,21);font-family:HelveticaNeueLTStd-Lt;font-size:7.0px;stroke:none;">IMAGE, NMP</text>
   <text y="120.077" x="381.877" svgx:width="0.56" style="fill:rgb(23,22,21);font-family:HelveticaNeueLTStd-Lt;font-size:5.32px;stroke:none;">1</text>
   <text y="122.618" x="474.119,478.011,479.957" svgx:width="0.56,0.28,0.56" style="fill:rgb(23,22,21);font-family:HelveticaNeueLTStd-Lt;font-size:7.0px;stroke:none;">0.3</text>
   <text y="122.618" x="483.849" svgx:width="0.78" style="fill:rgb(23,22,21);font-family:MTSYN;font-size:7.0px;stroke:none;">∼</text>
   <text y="122.618" x="489.309,493.201,495.147" svgx:width="0.56,0.28,0.56" style="fill:rgb(23,22,21);font-family:HelveticaNeueLTStd-Lt;font-size:7.0px;stroke:none;">1.7</text>
   <text y="120.077" x="499.039" svgx:width="0.5" style="fill:rgb(23,22,21);font-family:MTSYN;font-size:5.32px;stroke:none;">◦</text>
   <text y="122.618" x="502.197" svgx:width="0.7" style="fill:rgb(23,22,21);font-family:HelveticaNeueLTStd-Lt;font-size:7.0px;stroke:none;">C</text>
   <text y="152.904" x="44.98,49.649,54.577,58.987,62.879,64.825" svgx:width="0.67,0.7,0.63,0.56,0.28,0.56" style="fill:rgb(23,22,21);font-family:HelveticaNeueLTStd-Lt;font-size:7.0px;stroke:none;">RCP4.5</text>
   <text y="152.904" x="86.149" svgx:width="0.78" style="fill:rgb(23,22,21);font-family:MTSYN;font-size:7.0px;stroke:none;">∼</text>
   <text y="152.904" x="91.609,95.501,97.447,101.339,107.709,109.634" svgx:width="0.56,0.28,0.56,0.91,0.55,0.83" style="fill:rgb(23,22,21);font-family:HelveticaNeueLTStd-Lt;font-size:7.0px;stroke:none;">4.5W m</text>
   <text y="150.363" x="115.465" svgx:width="0.78" style="fill:rgb(23,22,21);font-family:MTSYN;font-size:5.32px;stroke:none;">−</text>
   <text y="150.363" x="120.113" svgx:width="0.56" style="fill:rgb(23,22,21);font-family:HelveticaNeueLTStd-Lt;font-size:5.32px;stroke:none;">2</text>
   <text y="152.904" x="125.515,129.148" svgx:width="0.52,0.3" style="fill:rgb(23,22,21);font-family:HelveticaNeueLTStd-Lt;font-size:7.0px;stroke:none;">at</text>
   <text y="162.369" x="86.149,89.516,91.588,95.221,99.239,100.534,101.829,103.124,106.365,109.998,112.07,113.365,117.257,121.037,122.962,126.595,128.408,130.48,134.113,136.283,138.264,142.156,146.048,149.94" svgx:width="0.48,0.3,0.52,0.57,0.19,0.19,0.19,0.46,0.52,0.3,0.19,0.56,0.54,0.55,0.52,0.26,0.3,0.52,0.31,0.55,0.56,0.56,0.56,0.56" style="fill:rgb(23,22,21);font-family:HelveticaNeueLTStd-Lt;font-size:7.0px;stroke:none;">stabilization after 2100</text>
   <text y="152.904" x="175.312" svgx:width="0.78" style="fill:rgb(23,22,21);font-family:MTSYN;font-size:7.0px;stroke:none;">∼</text>
   <text y="152.904" x="180.772,184.664,188.556,192.476,194.394,199.322" svgx:width="0.56,0.56,0.56,0.55,0.7,0.74" style="fill:rgb(23,22,21);font-family:HelveticaNeueLTStd-Lt;font-size:7.0px;stroke:none;">650 CO</text>
   <text y="154.111" x="204.509" svgx:width="0.56" style="fill:rgb(23,22,21);font-family:HelveticaNeueLTStd-Lt;font-size:5.32px;stroke:none;">2</text>
   <text y="152.904" x="209.911,213.544,217.562,221.321,222.616,225.857,229.49,230.785,234.418,238.177,240.249" svgx:width="0.52,0.57,0.54,0.19,0.46,0.52,0.19,0.52,0.54,0.3,0.48" style="fill:rgb(23,22,21);font-family:HelveticaNeueLTStd-Lt;font-size:7.0px;stroke:none;">equivalents</text>
   <text y="162.369" x="175.312,178.945,182.704,186.69400000000002,188.668,190.74,194.499,198.132,201.912,203.837,207.204,209.276,212.909,216.927,218.222,219.517,220.812,224.053,227.686,229.758,231.053,234.945" svgx:width="0.52,0.54,0.57,0.55,0.3,0.54,0.52,0.54,0.55,0.48,0.3,0.52,0.57,0.19,0.19,0.19,0.46,0.52,0.3,0.19,0.56,0.54" style="fill:rgb(23,22,21);font-family:HelveticaNeueLTStd-Lt;font-size:7.0px;stroke:none;">and then stabilization</text>
   <text y="171.833" x="175.312,178.945,180.758,182.83,186.463,188.63299999999998,190.614,194.506,198.398,202.29" svgx:width="0.52,0.26,0.3,0.52,0.31,0.55,0.56,0.56,0.56,0.56" style="fill:rgb(23,22,21);font-family:HelveticaNeueLTStd-Lt;font-size:7.0px;stroke:none;">after 2100</text>
   <text y="152.904" x="264.475,268.885,270.957,274.59,278.608,279.903,281.198,282.493,285.734,289.367,291.439,292.734,296.626" svgx:width="0.63,0.3,0.52,0.57,0.19,0.19,0.19,0.46,0.52,0.3,0.19,0.56,0.54" style="fill:rgb(23,22,21);font-family:HelveticaNeueLTStd-Lt;font-size:7.0px;stroke:none;">Stabilization</text>
   <text y="162.369" x="264.475,269.662,270.957,273.029,276.788,280.68,284.439,286.53900000000004,288.457,292.349,295.59,299.223,301.428,304.795,308.554,312.446,316.338" svgx:width="0.74,0.19,0.3,0.54,0.56,0.54,0.3,0.55,0.56,0.46,0.52,0.31,0.48,0.54,0.56,0.56,0.3" style="fill:rgb(23,22,21);font-family:HelveticaNeueLTStd-Lt;font-size:7.0px;stroke:none;">without overshoot</text>
   <text y="152.904" x="341.683,346.87,351.798,356.208,362.039,363.99899999999997,365.931,370.341,375.269,380.197" svgx:width="0.74,0.7,0.63,0.83,0.28,0.55,0.63,0.7,0.7,0.54" style="fill:rgb(23,22,21);font-family:HelveticaNeueLTStd-Lt;font-size:7.0px;stroke:none;">GCAM, PNNL</text>
   <text y="150.363" x="383.956" svgx:width="0.56" style="fill:rgb(23,22,21);font-family:HelveticaNeueLTStd-Lt;font-size:5.32px;stroke:none;">2</text>
   <text y="152.904" x="474.119,478.011,479.957" svgx:width="0.56,0.28,0.56" style="fill:rgb(23,22,21);font-family:HelveticaNeueLTStd-Lt;font-size:7.0px;stroke:none;">1.1</text>
   <text y="152.904" x="483.849" svgx:width="0.78" style="fill:rgb(23,22,21);font-family:MTSYN;font-size:7.0px;stroke:none;">∼</text>
   <text y="152.904" x="489.309,493.201,495.147" svgx:width="0.56,0.28,0.56" style="fill:rgb(23,22,21);font-family:HelveticaNeueLTStd-Lt;font-size:7.0px;stroke:none;">2.6</text>
   <text y="150.363" x="499.039" svgx:width="0.5" style="fill:rgb(23,22,21);font-family:MTSYN;font-size:5.32px;stroke:none;">◦</text>
   <text y="152.904" x="502.197" svgx:width="0.7" style="fill:rgb(23,22,21);font-family:HelveticaNeueLTStd-Lt;font-size:7.0px;stroke:none;">C</text>
   <text y="183.191" x="44.98,49.649,54.577,58.987,62.879,64.825" svgx:width="0.67,0.7,0.63,0.56,0.28,0.56" style="fill:rgb(23,22,21);font-family:HelveticaNeueLTStd-Lt;font-size:7.0px;stroke:none;">RCP8.5</text>
   <text y="183.191" x="86.149" svgx:width="0.78" style="fill:rgb(23,22,21);font-family:RBLMI;font-size:7.0px;stroke:none;">&gt;</text>
   <text y="183.191" x="91.609,95.501,97.447,101.367,103.285,109.655,111.58" svgx:width="0.56,0.28,0.56,0.55,0.91,0.55,0.83" style="fill:rgb(23,22,21);font-family:HelveticaNeueLTStd-Lt;font-size:7.0px;stroke:none;">8.5 W m</text>
   <text y="180.65" x="117.411" svgx:width="0.78" style="fill:rgb(23,22,21);font-family:MTSYN;font-size:5.32px;stroke:none;">−</text>
   <text y="180.65" x="122.059" svgx:width="0.56" style="fill:rgb(23,22,21);font-family:HelveticaNeueLTStd-Lt;font-size:5.32px;stroke:none;">2</text>
   <text y="183.191" x="127.461,128.756,132.536,134.461,138.353,142.245,146.137" svgx:width="0.19,0.54,0.55,0.56,0.56,0.56,0.56" style="fill:rgb(23,22,21);font-family:HelveticaNeueLTStd-Lt;font-size:7.0px;stroke:none;">in 2100</text>
   <text y="183.191" x="175.312" svgx:width="0.78" style="fill:rgb(23,22,21);font-family:RBLMI;font-size:7.0px;stroke:none;">&gt;</text>
   <text y="183.191" x="180.772,184.664,188.556,192.448" svgx:width="0.56,0.56,0.56,0.56" style="fill:rgb(23,22,21);font-family:HelveticaNeueLTStd-Lt;font-size:7.0px;stroke:none;">1370</text>
   <text y="183.191" x="198.286" svgx:width="0.78" style="fill:rgb(23,22,21);font-family:MTSYN;font-size:7.0px;stroke:none;">×</text>
   <text y="183.191" x="205.72,209.612" svgx:width="0.56,0.56" style="fill:rgb(23,22,21);font-family:HelveticaNeueLTStd-Lt;font-size:7.0px;stroke:none;">10</text>
   <text y="180.65" x="213.504" svgx:width="0.78" style="fill:rgb(23,22,21);font-family:MTSYN;font-size:5.32px;stroke:none;">−</text>
   <text y="180.65" x="218.152" svgx:width="0.56" style="fill:rgb(23,22,21);font-family:HelveticaNeueLTStd-Lt;font-size:5.32px;stroke:none;">6</text>
   <text y="183.191" x="223.554,228.482" svgx:width="0.7,0.74" style="fill:rgb(23,22,21);font-family:HelveticaNeueLTStd-Lt;font-size:7.0px;stroke:none;">CO</text>
   <text y="184.397" x="233.669" svgx:width="0.56" style="fill:rgb(23,22,21);font-family:HelveticaNeueLTStd-Lt;font-size:5.32px;stroke:none;">2</text>
   <text y="192.655" x="175.312,178.945,182.963,186.722,188.017,191.258,194.891,196.186,199.819,203.578,205.65,209.01000000000002,210.963,212.258,216.038,217.963,221.855,225.747,229.639" svgx:width="0.52,0.57,0.54,0.19,0.46,0.52,0.19,0.52,0.54,0.3,0.48,0.55,0.19,0.54,0.55,0.56,0.56,0.56,0.56" style="fill:rgb(23,22,21);font-family:HelveticaNeueLTStd-Lt;font-size:7.0px;stroke:none;">equivalents in 2100</text>
   <text y="183.191" x="264.475,269.144,270.439,273.806,275.101,278.86,282.78000000000003,341.685,347.516,351.667,356.077,360.487,364.897,370.084,374.235,376.195,378.127,379.681,381.235,385.645,390.055" svgx:width="0.67,0.19,0.48,0.19,0.54,0.56,0.55,0.83,0.59,0.63,0.63,0.63,0.74,0.59,0.28,0.55,0.22,0.22,0.63,0.63,0.63" style="fill:rgb(23,22,21);font-family:HelveticaNeueLTStd-Lt;font-size:7.0px;stroke:none;">Rising MESSAGE, IIASA</text>
   <text y="180.65" x="394.463" svgx:width="0.56" style="fill:rgb(23,22,21);font-family:HelveticaNeueLTStd-Lt;font-size:5.32px;stroke:none;">3</text>
   <text y="183.191" x="474.119,478.011,479.957" svgx:width="0.56,0.28,0.56" style="fill:rgb(23,22,21);font-family:HelveticaNeueLTStd-Lt;font-size:7.0px;stroke:none;">2.6</text>
   <text y="183.191" x="483.849" svgx:width="0.78" style="fill:rgb(23,22,21);font-family:MTSYN;font-size:7.0px;stroke:none;">∼</text>
   <text y="183.191" x="489.309,493.201,495.147" svgx:width="0.56,0.28,0.56" style="fill:rgb(23,22,21);font-family:HelveticaNeueLTStd-Lt;font-size:7.0px;stroke:none;">4.8</text>
   <text y="180.65" x="499.039" svgx:width="0.5" style="fill:rgb(23,22,21);font-family:MTSYN;font-size:5.32px;stroke:none;">◦</text>
   <text y="183.191" x="502.197" svgx:width="0.7" style="fill:rgb(23,22,21);font-family:HelveticaNeueLTStd-Lt;font-size:7.0px;stroke:none;">C</text>
  </g>
  <path style="fill:none;stroke:rgb(109,109,108);stroke-width:0.25;" d="M44.980 198.830 L550.400 198.830 "/>
  <g begin="text">
   <text y="206.591" x="44.98" svgx:width="0.56" style="fill:rgb(23,22,21);font-family:HelveticaNeueLTStd-LtIt;font-size:5.32px;stroke:none;">1</text>
   <text y="209.132" x="48.436,49.99,55.954,60.364,65.551,69.569,71.529,73.279,74.833,78.592,80.664,84.297,88.189,90.394,94.027,96.099,99.732,103.722,105.507,111.471,115.363,119.381,123.014,124.344,126.073,128.145,132.065,133.801,138.211,141.578,144.945,148.578,151.945,155.305,157.076,159.148,162.907,166.547,168.297,173.484,174.779,178.671,182.689,186.322,187.65200000000002,189.381,193.399,197.158,200.399,201.694,203.899,207.791,211.55,217.381,221.014,224.773,226.845,228.805,230.555,235.483,239.116,241.188,244.947,248.58,250.785,252.08,255.713,259.472,263.49,266.85,268.614,272.632,276.391,279.632,280.927,283.132,287.024,290.783,296.614,300.247,304.006,306.078,309.711,311.041,312.77,317.18,320.547,323.914,327.547,330.914,334.281,340.112,343.745,347.504,349.60400000000004,351.34,355.75,359.642,363.275,367.034,370.667,373.264,375.224,376.974,381.902,385.535,387.607,391.366,394.999,397.204,398.499,402.132,405.891,409.909,413.276" svgx:width="0.22,0.85,0.63,0.74,0.57,0.28,0.55,0.22,0.54,0.3,0.52,0.56,0.31,0.52,0.3,0.52,0.57,0.55,0.85,0.56,0.57,0.52,0.19,0.55,0.3,0.56,0.55,0.63,0.48,0.48,0.52,0.48,0.48,0.55,0.3,0.54,0.52,0.55,0.74,0.19,0.56,0.57,0.52,0.19,0.55,0.57,0.54,0.46,0.19,0.31,0.56,0.54,0.83,0.52,0.54,0.3,0.28,0.55,0.7,0.52,0.3,0.54,0.52,0.31,0.19,0.52,0.54,0.57,0.48,0.55,0.57,0.54,0.46,0.19,0.31,0.56,0.54,0.83,0.52,0.54,0.3,0.52,0.19,0.55,0.63,0.48,0.48,0.52,0.48,0.48,0.83,0.52,0.54,0.3,0.55,0.63,0.56,0.52,0.54,0.52,0.46,0.28,0.55,0.7,0.52,0.3,0.54,0.52,0.31,0.19,0.52,0.54,0.57,0.48,0.28" style="fill:rgb(23,22,21);font-family:HelveticaNeueLTStd-LtIt;font-size:7.0px;stroke:none;">IMAGE, Integrated Model to Assess the Global Environment, Netherlands Environmental Assessment Agency, Netherlands.</text>
   <text y="206.591" x="416.981" svgx:width="0.56" style="fill:rgb(23,22,21);font-family:HelveticaNeueLTStd-LtIt;font-size:5.32px;stroke:none;">2</text>
   <text y="209.132" x="420.437,425.624,430.552,434.962,440.926,442.88599999999997,444.636,449.823,451.118,455.01,459.028,462.661,463.991,465.713,470.641,474.4,478.033,481.792,485.684,489.324,491.081,495.491,498.858,502.225,505.858,509.225,512.592,518.423,522.056,525.815,527.9150000000001,529.651,535.615,539.507,543.525,547.158,548.453" svgx:width="0.74,0.7,0.63,0.85,0.28,0.55,0.74,0.19,0.56,0.57,0.52,0.19,0.55,0.7,0.54,0.52,0.54,0.56,0.52,0.55,0.63,0.48,0.48,0.52,0.48,0.48,0.83,0.52,0.54,0.3,0.55,0.85,0.56,0.57,0.52,0.19,0.28" style="fill:rgb(23,22,21);font-family:HelveticaNeueLTStd-LtIt;font-size:7.0px;stroke:none;">GCAM, Global Change Assessment Model,</text>
   <text y="218.098" x="44.98,49.39,53.023,56.656,57.951,61.059,64.699,66.918,71.846,75.738,77.943,80.015,83.774,88.961,92.594,95.961,98.06099999999999,100.266,105.194,108.827,110.899,112.194,116.086,119.845,123.478,124.80799999999999,126.999,130.758,134.391,138.409,142.301,144.506,148.139,150.211,154.103,156.434,159.031,160.991,163.21,168.138,171.897,173.192,175.264,178.897,182.887,185.141,189.551,191.623,195.256,197.328,200.961,204.328" svgx:width="0.63,0.52,0.52,0.19,0.44,0.52,0.55,0.7,0.56,0.31,0.3,0.54,0.74,0.52,0.48,0.3,0.55,0.7,0.52,0.3,0.19,0.56,0.54,0.52,0.19,0.55,0.54,0.52,0.57,0.56,0.31,0.52,0.3,0.56,0.31,0.46,0.28,0.55,0.7,0.54,0.19,0.3,0.52,0.57,0.55,0.63,0.3,0.52,0.3,0.52,0.48,0.28" style="fill:rgb(23,22,21);font-family:HelveticaNeueLTStd-LtIt;font-size:7.0px;stroke:none;">Paciﬁc Northwest National Laboratory, United States.</text>
   <text y="215.557" x="208.503" svgx:width="0.56" style="fill:rgb(23,22,21);font-family:HelveticaNeueLTStd-LtIt;font-size:5.32px;stroke:none;">3</text>
   <text y="218.098" x="211.959,217.923,221.941,226.351,230.761,235.171,240.358,244.376,246.336,248.548,254.512,258.404,262.422,266.055,267.385,269.583,271.396,275.288,277.458,279.719,283.737,287.496,291.129,293.334,297.226,300.446,302.7,307.11,310.869,314.887,318.905,320.2,323.42,325.667,330.077,332.149,334.354,337.987,340.059,343.692,347.584,350.80400000000003,353.051,357.461,358.756,360.828,364.461,366.666,370.425,374.058,376.13,377.425,380.666,384.299,387.659,389.899,393.532,397.291,401.281,403.535,405.607,409.366,412.999,414.294,416.464,418.725,423.912,427.545,431.304,434.937,437.142,440.775,442.10499999999996,444.303,448.321,452.08,455.321,456.616,458.821,462.713,466.472,472.303,475.936,479.695,481.767,485.4,486.72999999999996,488.921,490.475,496.306,500.324,503.957,507.59,509.662,511.62199999999996,513.841,515.395,519.154,521.226,524.859,527.064,530.823,534.456,536.528,537.823,541.715,545.474,549.107" svgx:width="0.85,0.57,0.63,0.63,0.63,0.74,0.57,0.28,0.55,0.85,0.56,0.57,0.52,0.19,0.55,0.26,0.56,0.31,0.55,0.57,0.54,0.52,0.31,0.56,0.46,0.55,0.63,0.54,0.57,0.57,0.19,0.46,0.55,0.63,0.3,0.31,0.52,0.3,0.52,0.56,0.46,0.55,0.63,0.19,0.3,0.52,0.31,0.54,0.52,0.3,0.19,0.46,0.52,0.48,0.55,0.52,0.54,0.57,0.55,0.3,0.54,0.52,0.19,0.31,0.55,0.74,0.52,0.54,0.52,0.31,0.52,0.19,0.55,0.57,0.54,0.46,0.19,0.31,0.56,0.54,0.83,0.52,0.54,0.3,0.52,0.19,0.55,0.22,0.83,0.57,0.52,0.52,0.3,0.28,0.55,0.22,0.54,0.3,0.52,0.31,0.54,0.52,0.3,0.19,0.56,0.54,0.52,0.19" style="fill:rgb(23,22,21);font-family:HelveticaNeueLTStd-LtIt;font-size:7.0px;stroke:none;">MESSAGE, Model for Energy Supply Strategy Alternatives and their General Environmental Impact, International</text>
   <text y="227.065" x="44.98,46.534,50.293,53.66,55.732,57.027,59.099,62.858,64.93,68.57000000000001,70.509,72.322,76.214,78.384,80.365,84.775,88.793,92.811,94.106,95.401,99.034,103.024,104.998,109.408,112.649,116.016,118.088,121.721,127.552,130.912,132.865,137.275,141.034,144.667,145.962,149.203,152.57,153.865,157.232,159.192,161.124,165.534,169.293,172.66,174.732,176.937,178.232,181.865" svgx:width="0.22,0.54,0.48,0.3,0.19,0.3,0.54,0.3,0.52,0.55,0.26,0.56,0.31,0.55,0.63,0.57,0.57,0.19,0.19,0.52,0.57,0.55,0.63,0.46,0.48,0.3,0.52,0.83,0.48,0.55,0.63,0.54,0.52,0.19,0.46,0.48,0.19,0.48,0.28,0.55,0.63,0.54,0.48,0.3,0.31,0.19,0.52,0.28" style="fill:rgb(23,22,21);font-family:HelveticaNeueLTStd-LtIt;font-size:7.0px;stroke:none;">Institute for Applied Systems Analysis, Austria.</text>
  </g>
  <rect style="stroke:blue;stroke-width:0.3;" x="119.13" y="274.758" height="404.313" width="354.96" title="4"/>
  <text y="274.758" class="image" id="image.4.1" width="354" height="404" x="119.13">image.4.1.119_474.275_679</text>
  <rect style="stroke:blue;stroke-width:0.3;" x="119.13" y="274.758" height="404.313" width="354.96" title="4"/>
  <text y="274.758" class="image" id="image.4.2" width="354" height="404" x="119.13">image.4.2.119_474.275_679</text>
  <g begin="text">
   <text y="678.524" x="51.207,55.358,57.423,62.736,67.923,72.977,77.527,79.459,83.379,85.297" svgx:width="0.59,0.29,0.76,0.74,0.72,0.65,0.55,0.56,0.55,0.22" style="fill:rgb(23,22,21);font-family:HelveticaNeueLTStd-Bd;font-size:7.0px;stroke:none;">FIGURE 2 |</text>
   <text y="678.524" x="88.804,93.214,96.973,100.865,106.696,110.329,111.624,114.844,116.811,120.703,122.523,124.462,130.293,133.926,137.559,141.339,143.264,146.897,150.656,154.415,158.174,161.807,163.137,165.048,167.12,170.753,176.584,180.602,184.235,186.44,190.073,192.145,195.904,197.983,201.623,203.562" svgx:width="0.63,0.54,0.56,0.83,0.52,0.19,0.46,0.55,0.56,0.26,0.55,0.83,0.52,0.52,0.54,0.55,0.52,0.54,0.54,0.54,0.52,0.19,0.55,0.3,0.52,0.83,0.57,0.52,0.31,0.52,0.3,0.54,0.31,0.52,0.55,0.24" style="fill:rgb(23,22,21);font-family:HelveticaNeueLTStd-Lt;font-size:7.0px;stroke:none;">Anomaly of mean annual temperature (</text>
   <text y="678.524" x="205.248" svgx:width="0.69" style="fill:rgb(23,22,21);font-family:HelveticaNeueLTStd-Bd;font-size:7.0px;stroke:none;">A</text>
   <text y="678.524" x="210.043,212.00300000000001,213.935,219.766,223.7,227.592,229.279,231.239,233.171,239.002,242.635,246.268,250.048,251.973,255.606,259.365,263.124,266.883,270.516,271.846,273.757,277.775,279.854,283.487,287.12,288.415,292.433,293.728,295.8,299.433,301.505,302.8,306.692,310.472,312.397" svgx:width="0.28,0.55,0.83,0.63,0.56,0.24,0.28,0.55,0.83,0.52,0.52,0.54,0.55,0.52,0.54,0.54,0.54,0.52,0.19,0.55,0.57,0.31,0.52,0.52,0.19,0.57,0.19,0.3,0.52,0.3,0.19,0.56,0.54,0.55,0.24" style="fill:rgb(23,22,21);font-family:HelveticaNeueLTStd-Lt;font-size:7.0px;stroke:none;">, MAT), mean annual precipitation (</text>
   <text y="678.524" x="314.084" svgx:width="0.7" style="fill:rgb(23,22,21);font-family:HelveticaNeueLTStd-Bd;font-size:7.0px;stroke:none;">B</text>
   <text y="678.524" x="319.012,320.972,322.904,328.735,333.145,337.555,339.242,341.202,343.134,346.767,350.526,354.516,356.49,362.321,366.213,369.972,372.044,375.803,377.098,380.31800000000004,382.285,386.303,390.062,393.954,396.026,399.918,403.285,406.526,410.285,412.357,416.116,419.749,421.821,423.116,426.749,430.382,431.677,432.972,436.192,438.159,441.792,445.425,447.497,448.792,452.033,455.673,457.612,459.817,463.45,467.468,468.763,472.396,474.468,475.763,479.655,483.43499999999995,485.36" svgx:width="0.28,0.55,0.83,0.63,0.63,0.24,0.28,0.55,0.52,0.54,0.57,0.55,0.83,0.56,0.54,0.3,0.54,0.19,0.46,0.55,0.57,0.54,0.56,0.3,0.56,0.48,0.46,0.54,0.3,0.54,0.52,0.3,0.19,0.52,0.52,0.19,0.19,0.46,0.55,0.52,0.52,0.3,0.19,0.46,0.52,0.55,0.31,0.52,0.57,0.19,0.52,0.3,0.19,0.56,0.54,0.55,0.24" style="fill:rgb(23,22,21);font-family:HelveticaNeueLTStd-Lt;font-size:7.0px;stroke:none;">, MAP), and monthly photosynthetically active radiation (</text>
   <text y="678.524" x="487.047" svgx:width="0.74" style="fill:rgb(23,22,21);font-family:HelveticaNeueLTStd-Bd;font-size:7.0px;stroke:none;">C</text>
   <text y="678.524" x="492.234,494.19399999999996,496.126,501.957,505.849,510.259,514.928,516.608,518.561,520.374,522.453,526.345" svgx:width="0.28,0.55,0.83,0.63,0.63,0.67,0.24,0.55,0.26,0.31,0.56,0.83" style="fill:rgb(23,22,21);font-family:HelveticaNeueLTStd-Lt;font-size:7.0px;stroke:none;">, mPAR) from</text>
   <text y="687.988" x="51.207,55.099,58.991,62.883,66.803,68.721,70.793,74.71300000000001,76.631,80.523,84.415,88.307,92.199,94.15899999999999,96.091,99.983,103.742,107.382,109.321,113.339,114.634,118.393,122.033,123.972,125.267,126.562,130.321,133.96099999999998,135.9,139.267,141.339,144.972,148.731,152.749,156.109,158.062,159.875,163.767,165.93699999999998,167.918,172.587,177.515,181.925,185.817,187.763,191.655,193.615,195.547,197.619,201.378,205.01799999999997,206.957,209.036,212.669,216.65900000000002,218.633,219.928,221.223,224.982,228.62199999999999,230.561,233.928,236.0,239.633,243.392,247.41,250.77,252.723,254.536,258.428,260.598,262.579,267.248,272.176,276.586,280.478,282.424,286.316,288.27599999999995,290.208,293.841,297.6,301.59000000000003,303.564,305.636,309.395,313.03499999999997,314.974,318.866,320.945,324.578,328.211,331.991,333.916,335.211,336.506,340.265,343.905,345.844,349.211,351.283,354.916,358.675,362.693,366.053,368.006,369.819,373.711,375.88100000000003,377.862,382.531,387.459,391.869,395.761,397.707,401.599,403.55899999999997,405.491,409.383,413.142,416.782,418.721,422.088,425.847,429.48,433.498,437.39,442.577,445.937,447.89,451.257,453.329,456.962,460.721,464.711,466.685,468.498,472.39,474.56,476.541,478.613,482.372,486.012,487.951,491.843,495.735,501.96500000000003,503.904,507.537,511.429,515.188,518.296,522.314,525.947,529.706,533.339" svgx:width="0.56,0.56,0.56,0.56,0.55,0.3,0.56,0.55,0.56,0.56,0.56,0.56,0.28,0.55,0.56,0.54,0.52,0.55,0.57,0.19,0.54,0.52,0.55,0.19,0.19,0.54,0.52,0.55,0.48,0.3,0.52,0.54,0.57,0.48,0.55,0.26,0.56,0.31,0.55,0.67,0.7,0.63,0.56,0.28,0.56,0.28,0.55,0.3,0.54,0.52,0.55,0.31,0.52,0.57,0.55,0.19,0.19,0.54,0.52,0.55,0.48,0.3,0.52,0.54,0.57,0.48,0.55,0.26,0.56,0.31,0.55,0.67,0.7,0.63,0.56,0.28,0.56,0.28,0.55,0.52,0.54,0.57,0.55,0.3,0.54,0.52,0.55,0.56,0.31,0.52,0.52,0.54,0.55,0.19,0.19,0.54,0.52,0.55,0.48,0.3,0.52,0.54,0.57,0.48,0.55,0.26,0.56,0.31,0.55,0.67,0.7,0.63,0.56,0.28,0.56,0.28,0.55,0.56,0.54,0.52,0.55,0.48,0.54,0.52,0.57,0.56,0.74,0.48,0.55,0.48,0.3,0.52,0.54,0.57,0.55,0.26,0.56,0.31,0.55,0.3,0.54,0.52,0.55,0.56,0.56,0.89,0.55,0.52,0.56,0.54,0.44,0.57,0.52,0.54,0.52,0.52" style="fill:rgb(23,22,21);font-family:HelveticaNeueLTStd-Lt;font-size:7.0px;stroke:none;">2006 to 2100. The blue line stands for RCP8.5, the red line stands for RCP4.5, and the green line stands for RCP2.6. The shadows stand for the 95% conﬁdence</text>
   <text y="697.453" x="51.207,52.502,56.261,58.333,61.966,64.171,67.412,71.045,72.34,75.707" svgx:width="0.19,0.54,0.3,0.52,0.31,0.46,0.52,0.19,0.48,0.28" style="fill:rgb(23,22,21);font-family:HelveticaNeueLTStd-Lt;font-size:7.0px;stroke:none;">intervals.</text>
  </g>
  <path style="fill:none;stroke:rgb(0,0,0);stroke-width:0.25;" d="M44.980 248.180 L550.400 248.180 "/>
  <path style="fill:none;stroke:rgb(0,0,0);stroke-width:0.25;" d="M45.100 702.170 L45.100 248.180 "/>
  <path style="fill:none;stroke:rgb(0,0,0);stroke-width:0.25;" d="M550.270 702.170 L550.270 248.180 "/>
  <path style="fill:none;stroke:rgb(0,0,0);stroke-width:0.25;" d="M44.980 702.170 L550.400 702.170 "/>
  <path style="fill:none;stroke:rgb(109,109,108);stroke-width:0.25;" d="M44.980 736.240 L550.400 736.240 "/>
  <g begin="text">
   <text y="747.575" x="44.98,48.739,50.818,54.71,58.469,60.541,61.836,65.469,67.674,71.034,72.987,74.282,78.062,79.987,84.397,85.692,89.325,93.084,95.184,97.102,101.512,105.145,106.44,110.073,113.832,117.465,121.105,123.044,124.584,126.544,131.731,136.918,141.72,143.666,145.479,147.558,151.45,155.209,157.281,158.576,162.209,164.414,167.781,169.076,172.835,174.781,178.673,180.878" svgx:width="0.54,0.31,0.56,0.54,0.3,0.19,0.52,0.31,0.48,0.55,0.19,0.54,0.55,0.63,0.19,0.52,0.54,0.3,0.55,0.63,0.52,0.19,0.52,0.54,0.52,0.52,0.55,0.22,0.55,0.74,0.74,0.74,0.28,0.26,0.31,0.56,0.54,0.3,0.19,0.52,0.31,0.48,0.19,0.54,0.28,0.56,0.31,0.56" style="fill:rgb(109,109,108);font-family:HelveticaNeueLTStd-Lt;font-size:7.0px;stroke:none;">Frontiers in Plant Science | www.frontiersin.org</text>
   <text y="747.575" x="295.743" svgx:width="0.56" style="fill:rgb(109,109,108);font-family:HelveticaNeueLTStd-Bd;font-size:7.0px;stroke:none;">4</text>
   <text y="747.575" x="446.126,449.626,453.385,454.68,457.90000000000003,459.867,463.759,467.651,471.543,475.463,477.381,478.921,480.881,484.647,488.539,489.834,493.593,499.424,503.06399999999996,505.003,508.895,512.8149999999999,514.733,516.2729999999999,518.233,522.643,524.848,526.92,528.215,531.848,533.143,536.783,538.722,542.614,546.506" svgx:width="0.5,0.54,0.19,0.46,0.55,0.56,0.56,0.56,0.56,0.55,0.22,0.55,0.59,0.56,0.19,0.54,0.83,0.52,0.55,0.56,0.56,0.55,0.22,0.55,0.63,0.31,0.3,0.19,0.52,0.19,0.52,0.55,0.56,0.56,0.56" style="fill:rgb(109,109,108);font-family:HelveticaNeueLTStd-Lt;font-size:7.0px;stroke:none;">July 2019 | Volume 10 | Article 908</text>
  </g>
 </g>
</svg>
