<?xml version="1.0" encoding="UTF-8"?>
<svg height="800.865966796875" width="613.780029296875" xmlns="http://www.w3.org/2000/svg">
 <g style="fill:none;">
  <path d=" M 0.0 753.448974609375 L 603.780029296875 753.448974609375 L 603.780029296875 790.865966796875 L 0.0 790.865966796875 Z " style="fill:none;stroke:#000000;stroke-width:1.0;"/>
  <text svg_rhmargin="198.52" x="40.638,48.208,55.778,63.055,66.145,71.865,77.215,81.135,86.765,90.565,95.995,99.085,103.915,109.695,118.435,121.635,126.125,130.955,133.725,139.15,144.87,148.79,151.56,155.19,157.96,162.79,166.59,172.02,177.78,183.56,187.36,191.28,195.77,198.52" y="781.868" style="fill:#ffffff;font-family:MMUYEG+Corbel2;font-size:10.0px;font-style:NORMAL;font-weight:normal;">www.nature.com/scientificreports/ </text>
  <text x="549.838" y="781.868" svg_rhmargin="554.638" style="fill:#839097;font-family:MMUYEG+Corbel2;font-size:10.0px;font-style:NORMAL;font-weight:normal;">5</text>
  <text x="40.794,45.642,50.786,52.754000000000005,53.186,58.026,64.026,68.898,70.866,71.298,75.762,77.73,78.162,83.162" y="781.882" svg_rhmargin="84.762" style="fill:#839097;font-family:MMUYEG+Corbel2;font-size:8.0px;font-style:NORMAL;font-weight:normal;">Sci enti fi c </text>
  <text x="84.762,90.218,95.194,100.434,106.738,112.194,117.186" y="781.882" svg_rhmargin="121.802" style="fill:#839097;font-family:SCHQMP+Corbel-Bold2;font-size:8.0px;font-style:NORMAL;font-weight:bold;">REPoRTS</text>
  <text y="781.882" svg_rhmargin="126.938" x="123.522,125.338" style="fill:#000000;font-family:MMUYEG+Corbel2;font-size:8.0px;font-style:NORMAL;font-weight:normal;">| </text>
  <text y="781.882" svg_rhmargin="172.802" x="128.234,130.506,134.442,138.378,142.314,146.25,148.522,149.978,153.914,155.602,159.538,163.474,167.41,171.346" style="fill:#000000;font-family:MyriadPro-It;font-size:8.0px;font-style:ITALIC;font-weight:normal;">(2018) 8:4435 </text>
  <text y="781.882" svg_rhmargin="290.406" x="174.244,176.06,177.502,182.87,188.71,190.678,192.79,196.894,200.998,203.11,207.214,211.318,215.422,219.526,221.726,224.958,229.062,233.166,237.27,241.374,245.478,248.142,252.246,256.35,260.454,263.118,267.222,271.326,275.43,279.534,283.638,286.302" style="fill:#000000;font-family:CBATFZ+Corbel;font-size:8.0px;font-style:NORMAL;font-weight:normal;">| DOI:10.1038/s41598-018-22795-8</text>
  <text x="155.638,160.281,163.539,167.444,171.287,173.627,178.27,180.609,183.444,187.259,190.085,192.533,197.051,202.01,203.99,207.778,212.593,216.498,221.385,225.56,229.421,232.76,234.735,237.354,241.871,245.246,247.222,251.253,253.611,255.924,257.904,261.314,265.228,269.188,272.598,277.115,282.003,285.341,287.322,291.182,295.395,299.237,303.098,307.751,310.532,312.512,315.13,319.647,323.022,325.002,328.295,333.11,340.517,347.887,351.748,355.123,357.103,359.722,364.239,367.614,369.594,375.857,380.699,383.147,386.935,391.777,393.753,399.306,405.327,413.382,415.362,420.177,425.099,428.942,432.803,436.267,439.101,443.007,445.455,450.242,453.049,457.216,459.196,463.984,468.502,475.909,478.357,483.289,487.105,489.831,493.692,497.031,499.011,501.845,506.65,510.511,512.486,515.213,519.739,522.574,526.606,528.919,530.898,535.714,540.636,544.479,548.341,551.431" y="641.138" svg_rhmargin="554.635" style="fill:#000000;font-family:MinionPro-Regular;font-size:9.0px;font-style:NORMAL;font-weight:normal;">precipitation changes for all seasons except for summer for which RCM uncertainty dominates the total uncer-</text>
  <text x="155.638,158.511,162.455,164.939,169.764,172.609,176.812,178.909,181.566,186.122,189.533,191.63,195.799,199.696,203.37,207.573,209.67,213.567,217.887,220.75,224.046,227.943,235.352,239.249,241.346,245.29,250.251,255.075,257.172,264.58,269.325,274.149,278.046,281.457,285.311,288.076,291.973,294.07,297.967,302.287,305.151,308.446,312.343,319.752,323.649,325.746,330.428,333.724,337.668,341.547,343.923,348.605,350.983,353.856,357.71,360.573,363.057,367.612,372.607,374.731,376.828,386.505,390.402,392.499,397.323,401.879,409.322,411.806,416.776,420.719,425.68,429.704,433.907,436.004,440.56,443.296,445.393,450.984,457.041,465.132,467.229,472.08,477.041,480.92,484.817,488.319,491.192,495.136,497.62,502.446,505.292,509.495,511.592,514.248,518.804,522.215,524.312,527.644,532.495,539.938,547.347,551.244,554.583" y="651.137" svg_rhmargin="556.626" style="fill:#000000;font-family:MinionPro-Regular;font-size:9.0px;font-style:NORMAL;font-weight:normal;">tainty for very extreme and moderate extreme precipitation. The dominancy of RCM uncertainty for summer </text>
  <text x="155.638,159.576,163.936,166.839,170.174,174.111,181.559,185.496,187.728,192.45,195.784,199.767,203.686,206.103,210.823,213.241,216.152,220.045,222.947,225.472,230.066,235.102,237.334,239.831,243.247,245.479,248.003,253.039,255.271,259.523,264.307,269.091,273.956,276.188,280.207,284.576,287.911,291.893,295.831,303.278,307.216,312.08,314.942,317.174,323.479,325.895,328.807,333.73,335.962,338.873,343.756,347.693,349.925,353.26,357.197,360.569,365.505,367.787,370.644,374.06,376.292,378.988,383.592,388.483,393.483,398.352,400.584,403.108,408.144,410.376,415.402,420.294,423.628,428.233,433.142,437.08,439.312,443.295,448.295,453.159,455.391,461.967,466.561,470.103,473.014,477.933,480.165,486.469,493.917,497.854,501.36,503.884,507.831" y="661.136" svg_rhmargin="511.782" style="fill:#000000;font-family:MinionPro-Regular;font-size:9.0px;font-style:NORMAL;font-weight:normal;">extreme precipitation is in good agreement with the results found in Europe and North America</text>
  <text x="511.901,514.782,517.663,520.781,523.662" y="658.078" svg_rhmargin="526.47" style="fill:#0000ff;font-family:MinionPro-Regular;font-size:5.85px;font-style:NORMAL;font-weight:normal;">32–35</text>
  <text x="526.541,528.705,530.937,540.693,543.191,546.606,548.838,551.336,554.639" y="661.138" svg_rhmargin="556.682" style="fill:#000000;font-family:MinionPro-Regular;font-size:9.0px;font-style:NORMAL;font-weight:normal;">. This is </text>
  <text x="155.642,159.407,162.047,164.822,168.2,170.56,175.019,179.675,182.35,186.205,190.939,192.658,195.334,199.906,201.625,204.408,209.163,212.97,214.689,217.335,221.268,225.123,227.85,229.569,232.353,237.117,240.882,243.609,245.328,247.587,252.243,256.061,260.043,262.302,264.021,268.614,271.82,276.476,280.265,284.072,287.315,290.674,294.481,297.766,299.485,303.34,306.547,310.354,312.073,319.402,323.257,325.651,330.604,332.803,336.916,338.635,341.842,345.649,348.893,353.674,358.141,362.978,366.263,368.624,373.117,375.376,379.183,380.902,383.47,387.937,391.258,392.977,396.22,400.981,408.334,415.654,419.461,422.782,424.501,428.308,432.538,435.313,438.52,442.327,449.647,453.454,455.173,459.766,462.972,466.828,470.617,472.906,477.498,479.788,482.572,486.336,489.111,491.505,495.972,500.877,502.596,506.334,511.098,514.953,519.789,523.914,527.721,531.006,532.725,536.046,539.812,542.595,547.35,551.157,554.496" y="671.137" svg_rhmargin="556.539" style="fill:#000000;font-family:MinionPro-Regular;font-size:9.0px;font-style:NORMAL;font-weight:normal;">attributed to the fact that local processes are mainly responsible for summer extreme precipitation changes rather </text>
  <text x="155.642,158.428,163.195,167.052,171.966,173.69,175.981,179.838,183.093,187.22,191.036,194.231,197.594,201.415,205.398,207.662,211.478,213.206,216.973,219.751,227.072,231.653,234.899,239.539,244.296,248.112,251.493,253.896,257.694,259.417,263.215,265.618,268.828,272.685,277.497,279.788,283.555,286.332,288.735,293.204,298.043,301.337,303.06,306.918,311.793,316.536,318.259,322.126,326.068,329.808,334.605,336.329,341.833,347.809,355.819,357.543,362.309,366.221,369.511,371.239,375.181,376.904,381.647,384.05,389.006,392.822,396.031,399.847,404.587,407.323,409.046,412.255,416.071,420.667,423.876,427.692,431.055,434.871,439.61,442.396,446.164,448.94,451.343,455.813,460.727,462.455,466.924,469.579,471.303,474.548,479.318,483.058,487.855,489.579,494.174,497.384,502.042,505.84,509.656,512.902,516.264,520.08" y="681.136" svg_rhmargin="523.383" style="fill:#000000;font-family:MinionPro-Regular;font-size:9.0px;font-style:NORMAL;font-weight:normal;">than large-scale atmospheric circulations and each RCM has a different representation of such processes</text>
  <text x="523.227,526.029,528.831,531.861,534.663" y="678.078" svg_rhmargin="537.471" style="fill:#0000ff;font-family:MinionPro-Regular;font-size:5.85px;font-style:NORMAL;font-weight:normal;">35–38</text>
  <text x="537.459,539.499,541.222,550.816,554.641" y="681.138" svg_rhmargin="556.684" style="fill:#000000;font-family:MinionPro-Regular;font-size:9.0px;font-style:NORMAL;font-weight:normal;">. The </text>
  <text x="155.634,161.231,167.297,172.445,174.569,179.429,184.397,188.285,192.191,195.701,198.58,202.531,205.024,209.856,212.708,216.92,219.044,221.509,224.893,227.017,231.237,235.143,240.111,244.017,247.437,251.513,253.916,256.21,260.422,262.546,264.904,268.81,272.149,275.533,277.657,282.345,285.648,290.21,297.662,300.155,305.122,309.028,313.861,316.687,318.811,322.699,327.262,334.542,339.384,343.334,346.637,350.587,355.42,357.544,363.816,366.201,369.08,373.967,376.087,378.967,383.817,387.723,389.847,394.418,397.297,402.148,406.054,409.474,411.598,416.458,421.425,425.313,429.219,432.728,435.607,439.558,442.051,446.883,449.736,453.948,456.072,459.527,464.099,468.959,472.262,476.15,480.056,483.44,485.573,487.697,492.43,496.336,498.829,503.761,508.054,510.178,512.562,516.512,519.86,524.08,527.986,531.406,533.53,536.023,541.027,543.151,546.031,550.881,554.706" y="691.137" svg_rhmargin="556.749" style="fill:#000000;font-family:MinionPro-Regular;font-size:9.0px;font-style:NORMAL;font-weight:normal;">RCP uncertainty is generally less prominent compared with the other uncertainty sources, being larger in the </text>
  <text x="155.634,159.441,163.97,166.247,170.999,172.943,176.319,180.199,184.124,187.501,191.983,196.906,198.85,201.964,205.746,210.418,213.074,217.853,225.224,230.147,232.091,235.962,240.85,245.602,247.546,253.739,256.151,260.904,263.596,267.421,270.76,273.874,275.818,278.618,283.398,287.27,292.193,294.137,296.549,301.472,303.416,306.216,310.988,314.813,316.757,322.922,326.793,330.187,337.558,339.502,342.877,346.758,350.683,354.059,358.542,363.465,365.409,368.523,371.782,376.391,379.786,382.198,387.049,391.262,393.206,397.076,401.965,406.717,408.661,411.92,416.699,424.07,431.407,435.232,438.571,441.685,443.737,445.681,455.286,459.111,461.055,466.574,472.559,477.625,479.569,484.348,489.236,493.043,496.868,500.298,503.098,506.97,509.382,514.135,516.908,521.039,522.983,526.934,530.741,534.548,539.041,543.82,548.572,551.317,554.62" y="701.136" svg_rhmargin="556.663" style="fill:#000000;font-family:MinionPro-Regular;font-size:9.0px;font-style:NORMAL;font-weight:normal;">cold season (autumn and winter) than in the warm season (spring and summer). The RCP uncertainty accounts </text>
  <text x="155.634,158.217,162.699,166.038,167.897,172.217,176.537,181.217,185.537,189.857,196.661,198.519,203.001,205.665,207.524,210.323,215.093,218.918,220.776,223.467,227.958,230.757,234.753,237.03,238.889,243.668,248.555,252.362,256.187,259.616,262.415,266.285,268.697,273.449,276.221,279.694,281.746,283.609,289.837,294.607,298.432,301.654,305.532,309.456,312.759,314.622,321.956,326.627,331.379,335.168,337.445,339.304,344.083,348.97,352.777,356.602,360.031,362.83,366.7,369.112,373.864,376.653,379.065,382.89,386.193,388.051,392.191,396.781,398.644,402.568,405.871,407.73,412.536,414.948,419.222,424.028,425.891,429.815,433.118,434.976,439.296,443.616,450.42,452.472,454.331,463.97,466.355,469.658,471.516,473.901,477.204,479.063,483.059,485.309,488.684,493.274,495.132,499.029,503.223,505.635,510.387,514.212,518.964,521.709,523.568,526.322,529.544,534.026,541.397,543.255,546.054,550.824,554.649" y="711.135" svg_rhmargin="556.692" style="fill:#000000;font-family:MinionPro-Regular;font-size:9.0px;font-style:NORMAL;font-weight:normal;">for 16–29% of the total uncertainty, whereas model uncertainties go as high as 48%. This is also evident from the </text>
  <text x="155.634,158.892,163.653,167.433,170.223,172.661,176.657,178.934,180.77,188.114,191.894,196.61,199.913,201.749,206.231,208.895,210.731,213.953,217.742,220.045,223.825,226.615,228.964,233.059,236.884,238.72,241.132,248.332,253.129,257.611,261.039,263.838,267.709,272.596,276.403,280.228,282.064,286.546,289.21,291.046,293.845,298.615,302.44,305.815,309.64,311.476,314.275,319.081,322.303,326.172,329.997,331.833,336.612,341.499,345.306,349.131,352.56,355.359,359.229,361.641,366.392,369.164,373.296,375.132,378.507,382.997,387.776,390.998,394.805,398.63,401.934,403.77,406.884,411.645,414.056,418.268,423.047,426.269,430.094,433.397,435.237,439.503,443.823,447.027,451.293,455.613,458.727,460.779,462.615,472.218,476.043,477.879,481.182,488.526,492.522,494.843,497.12,498.956,502.331,506.138,509.963,514.859,518.729,522.122,524.534,529.124,530.96,535.739,540.627,544.434,548.259,551.427" y="721.134" svg_rhmargin="554.631" style="fill:#000000;font-family:MinionPro-Regular;font-size:9.0px;font-style:NORMAL;font-weight:normal;">spatial maps of relative importance of these three uncertainty sources (Figures S3-S6). The small scenario uncer-</text>
  <text x="155.634,158.433,162.303,164.715,169.467,172.239,176.37,178.206,180.618,185.541,187.377,190.176,194.946,198.771,200.607,206.655,213.297,218.886,225.42,230.532,236.418,238.254,242.079,246.929,250.304,254.129,261.41,265.919,268.196,272.021,275.324,277.16,279.545,282.848,284.684,289.328,294.107,297.932,299.768,302.18,307.103,308.939,313.7,317.57,320.999,323.744,325.58,328.271,332.861,334.697,337.495,342.265,346.09,347.926,352.705,357.601,361.39,365.557,369.427,371.884,374.188,378.067,382.531,384.988,387.265,389.569,392.341,396.472,398.308,402.79,405.454,407.29,410.089,414.859,418.684,420.52,426.037,432.022,440.041,441.877,445.18,447.592,454.792,459.616,461.92,465.7,468.49,470.902,475.384,480.235,483.538,485.374,487.957,492.439,495.778,497.614,500.413,505.183,509.008,510.844,514.669,518.917,521.706,524.928,528.753,536.088,539.913,541.749,544.026,548.472,554.637" y="731.133" svg_rhmargin="556.68" style="fill:#000000;font-family:MinionPro-Regular;font-size:9.0px;font-style:NORMAL;font-weight:normal;">tainty in the CORDEX ensembles is due in part to the unavailability of the RCM simulations for the extreme low </text>
  <text x="155.634,159.459,166.83,169.215,172.473,175.776,178.188,182.67,187.593,189.429,192.804,196.611,200.436,205.332,209.202,212.595,215.007,219.597,221.433,224.547,226.904,228.956,232.727,234.779,236.831,238.667,244.184,250.169,255.236,259.556,261.608,265.928,269.042,271.094,272.93,279.158,283.964,286.375,290.129,294.935,296.771,299.992,303.818,307.076,311.9,314.069,316.814,320.117,321.953,324.365,329.288,331.124,334.993,339.917,341.753,346.531,351.418,356.171,359.996,363.217,367.043,370.301,373.09,375.502,382.846,386.626,389.416,391.828,396.31,401.233,403.069,407.551,410.215,412.051,414.85,419.619,423.444,425.28,428.655,432.462,436.287,441.183,445.053,448.446,450.858,455.448,457.284,462.063,466.95,470.757,474.582,478.011,480.81,484.68,487.092,491.844,494.616" y="741.132" svg_rhmargin="498.747" style="fill:#000000;font-family:MinionPro-Regular;font-size:9.0px;font-style:NORMAL;font-weight:normal;">emission scenario (i.e., RCP2.6), which results in an underestimation of the scenario uncertainty</text>
  <text x="498.78,501.588,504.396,505.73,508.538" y="738.078" svg_rhmargin="511.346" style="fill:#0000ff;font-family:MinionPro-Regular;font-size:5.85px;font-style:NORMAL;font-weight:normal;">39,40</text>
  <text x="511.346" y="741.138" svg_rhmargin="513.398" style="fill:#000000;font-family:MinionPro-Regular;font-size:9.0px;font-style:NORMAL;font-weight:normal;">.</text>
  <rect style="stroke:blue;stroke-width:0.3;" x="155.638" y="64.138" height="494.88" width="360.0" title="5"/>
  <text x="155.638" y="64.138" class="image" id="image.5.1" width="360" height="494">image.5.1.156_516.64_559</text>
  <text x="155.638,160.552,163.207,167.662,172.657,176.221,180.154,181.909,186.409" y="577.561" svg_rhmargin="188.695" style="fill:#000000;font-family:MinionPro-Bold;font-size:9.0px;font-style:NORMAL;font-weight:bold;">Figure 4.</text>
  <text y="577.561" svg_rhmargin="408.193" x="193.195,199.864,204.346,209.098,213.769,216.514,218.35,222.103,226.882,230.753,234.181,236.926,240.229,242.065,246.547,249.211,251.047,253.846,258.616,262.441,264.277,267.03,270.369,274.32,278.19,280.98,283.392,287.874,292.797,294.633,299.115,301.779,303.615,306.306,310.797,313.596,317.592,319.869,321.705,326.484,331.371,335.178,339.003,342.431,345.23,349.1,351.512,356.264,359.036,363.167,365.003,367.415,372.338,374.174,377.999,382.247,385.036,388.258,392.083,399.418,403.243,405.079" style="fill:#000000;font-family:MinionPro-Regular;font-size:9.0px;font-style:NORMAL;font-weight:normal;">Donut charts of the fraction of total uncertainty in extreme (</text>
  <text x="408.193" y="577.561" svg_rhmargin="412.126" style="fill:#000000;font-family:MinionPro-Bold;font-size:9.0px;font-style:NORMAL;font-weight:bold;">e</text>
  <text x="412.126,415.24,417.076,420.946,425.833,430.585,432.421,439.756,443.635,447.505,452.428,454.264" y="577.561" svg_rhmargin="457.378" style="fill:#000000;font-family:MinionPro-Regular;font-size:9.0px;font-style:NORMAL;font-weight:normal;">) and mean (</text>
  <text x="457.378" y="577.561" svg_rhmargin="460.357" style="fill:#000000;font-family:MinionPro-Bold;font-size:9.0px;font-style:NORMAL;font-weight:bold;">f</text>
  <text x="460.357,463.471,465.307,469.915,473.136,477.006,480.813,483.117,487.725,490.029,492.828,496.608,499.398,501.81,506.292,511.215,513.051,516.804,521.583,525.454,530.305,534.444,538.269,541.572" y="577.561" svg_rhmargin="543.615" style="fill:#000000;font-family:MinionPro-Regular;font-size:9.0px;font-style:NORMAL;font-weight:normal;">) precipitation changes </text>
  <text x="155.638,159.463,163.711,168.364,170.668,174.538,176.95,181.837,185.706,190.458,192.294,196.722,200.853,202.689,209.124,215.109,223.128,224.964,228.078,232.587,234.756,239.535,243.36,246.474,248.526,250.362,255.879,261.864,269.883,271.719,274.833,279.297,282.519,286.965,293.157,298.08,301.194,303.03,306.9,311.787,316.539,318.375,323.892,329.877,334.944,336.78,339.894,344.151,347.373,351.243,355.068,359.991,363.105,364.941,369.72,374.607,378.414,382.239,385.668,388.466,392.336,394.748,399.5,402.29,404.702,408.527,411.83,413.666,416.249,420.731,424.07,425.906" y="587.56" svg_rhmargin="429.02" style="fill:#000000;font-family:MinionPro-Regular;font-size:9.0px;font-style:NORMAL;font-weight:normal;">explained by GCM (blue), RCM (brown) and RCP (green) uncertainties for (</text>
  <text x="429.02" y="587.56" svg_rhmargin="433.214" style="fill:#000000;font-family:MinionPro-Bold;font-size:9.0px;font-style:NORMAL;font-weight:bold;">a</text>
  <text x="433.214,436.328,438.164,444.356,446.768,451.52,454.211,458.036,460.808,462.86,464.696" y="587.56" svg_rhmargin="467.81" style="fill:#000000;font-family:MinionPro-Regular;font-size:9.0px;font-style:NORMAL;font-weight:normal;">) winter, (</text>
  <text x="467.81" y="587.56" svg_rhmargin="472.616" style="fill:#000000;font-family:MinionPro-Bold;font-size:9.0px;font-style:NORMAL;font-weight:bold;">b</text>
  <text x="472.616,475.73,477.566,480.824,485.432,488.825,491.237,496.088,500.327,502.379,504.215" y="587.56" svg_rhmargin="507.329" style="fill:#000000;font-family:MinionPro-Regular;font-size:9.0px;font-style:NORMAL;font-weight:normal;">) spring, (</text>
  <text x="507.329" y="587.56" svg_rhmargin="511.127" style="fill:#000000;font-family:MinionPro-Bold;font-size:9.0px;font-style:NORMAL;font-weight:bold;">c</text>
  <text x="511.127,514.241,516.077,519.335,524.114,531.485,538.82,542.645,545.984" y="587.56" svg_rhmargin="548.027" style="fill:#000000;font-family:MinionPro-Regular;font-size:9.0px;font-style:NORMAL;font-weight:normal;">) summer </text>
  <text x="155.638,159.508,164.395,169.147,170.983" y="597.559" svg_rhmargin="174.097" style="fill:#000000;font-family:MinionPro-Regular;font-size:9.0px;font-style:NORMAL;font-weight:normal;">and (</text>
  <text x="174.097" y="597.559" svg_rhmargin="179.02" style="fill:#000000;font-family:MinionPro-Bold;font-size:9.0px;font-style:NORMAL;font-weight:bold;">d</text>
  <text x="179.02,182.134,183.97,187.75,192.421,195.076,199.855,207.226,212.149,213.985,218.431,222.526,226.351,229.69,231.526,234.325,239.095,242.92,244.756,252.712,255.124,259.876,264.672,266.949,270.774,272.61,277.839,281.763,285.021,287.766,289.602,292.824,296.649,300.905,303.317,307.799,312.722,314.774,316.61,322.163" y="597.559" svg_rhmargin="324.206" style="fill:#000000;font-family:MinionPro-Regular;font-size:9.0px;font-style:NORMAL;font-weight:normal;">) autumn over the Middle East region. T </text>
  <text x="323.308" y="597.559" svg_rhmargin="330.31" style="fill:#000000;font-family:EuclidSymbol;font-size:9.0px;font-style:NORMAL;font-weight:normal;">=</text>
  <text y="597.559" svg_rhmargin="359.617" x="331.435,335.755,340.075,341.2,345.358,348.13,350.182,352.021,357.574" style="fill:#000000;font-family:MinionPro-Regular;font-size:9.0px;font-style:NORMAL;font-weight:normal;">15 yr, T </text>
  <text x="358.699" y="597.559" svg_rhmargin="365.701" style="fill:#000000;font-family:EuclidSymbol;font-size:9.0px;font-style:NORMAL;font-weight:normal;">=</text>
  <text y="597.559" svg_rhmargin="404.55" x="366.826,371.146,372.271,376.429,379.768,381.607,385.477,390.363,395.116,396.954,402.507" style="fill:#000000;font-family:MinionPro-Regular;font-size:9.0px;font-style:NORMAL;font-weight:normal;">5 yr and T </text>
  <text x="403.632" y="597.559" svg_rhmargin="410.634" style="fill:#000000;font-family:EuclidSymbol;font-size:9.0px;font-style:NORMAL;font-weight:normal;">=</text>
  <text y="597.559" svg_rhmargin="542.123" x="411.76,416.08,417.205,421.363,424.702,426.538,429.76,433.585,436.168,439.993,443.332,445.168,447.859,452.449,454.285,458.11,462.358,465.147,468.369,472.194,479.529,483.354,485.19,489.798,493.02,496.89,500.697,503.0,507.609,509.912,512.711,516.491,519.281,521.693,526.175,531.098,532.934,537.416,540.08" style="fill:#000000;font-family:MinionPro-Regular;font-size:9.0px;font-style:NORMAL;font-weight:normal;">1 yr refer to extreme precipitation of </text>
  <text x="155.638,159.958,164.278,167.482,169.534,171.37,175.69,178.894,180.73,184.6,189.487,194.239,196.075,200.395,203.599,207.658,211.537,215.407,218.746,220.582,223.804,227.629,230.284,235.063,238.455,243.378,245.214,250.011,253.836,257.229,259.641,264.311,269.036,272.339,274.391,276.227,279.449,283.274,286.532,291.329,295.199,299.068,301.858,304.207,308.302,312.091,314.305,317.779,319.831,321.667,323.458,331.243,335.122,338.992,343.177,345.184,347.02,350.827,355.309,358.702,361.924,365.749,369.007,373.803,378.285,383.172,387.897,391.2,393.036,395.727,400.317,402.153,409.488,413.367,417.237,422.16,423.996,428.604,431.826,435.696,439.503,441.807,446.415,448.719,451.518,455.298,458.088,460.5,464.982,469.905" y="607.558" svg_rhmargin="471.957" style="fill:#000000;font-family:MinionPro-Regular;font-size:9.0px;font-style:NORMAL;font-weight:normal;">15-, 5- and 1-year return periods, respectively. ‘Mean’ corresponds to mean precipitation.</text>
 </g>
</svg>
