<?xml version="1.0" encoding="UTF-8"?>
<svg height="784.772" width="564.777" xmlns="http://www.w3.org/2000/svg">
 <g style="fill:none;">
  <text x="43.597,53.179,61.017,68.995,72.622,81.618,88.006" y="156.93200000000002" svg_rhmargin="94.98" style="fill:#000000;font-family:IEKFJH+AdvOTea1a7398;font-size:13.95px;font-style:NORMAL;font-weight:normal;">ARTICLE</text>
  <text x="43.597,61.266,72.217,83.909,95.362,107.79499999999999,115.767,123.466,135.159,154.574,167.007,178.699,186.9,198.353,206.052,218.486,226.687,238.37900000000002,246.444,251.919,271.334,283.768,295.221,306.171,313.87,321.902,334.335,346.768,354.726,360.201,371.152,382.844,390.84,401.289,413.722,425.414,430.889,437.84700000000004,445.888,457.58,468.77,476.469,488.161,500.595" y="204.78099999999995" svg_rhmargin="508.294" style="fill:#000000;font-family:IEKFJH+AdvOTea1a7398;font-size:23.91px;font-style:NORMAL;font-weight:normal;">Ocean temperature impact on ice shelf extent</text>
  <text x="43.597,49.072,61.505,69.506,77.205,89.638,101.33000000000001,109.304,120.997,132.449,142.898,150.597,162.289,170.491,182.924,190.941,207.367,219.801,227.5,238.953,247.154,258.105,265.804,271.279,282.23,290.266,302.963,314.655,327.088,332.564,344.997,355.446,367.879,373.354" y="230.63300000000004" svg_rhmargin="384.807" style="fill:#000000;font-family:IEKFJH+AdvOTea1a7398;font-size:23.91px;font-style:NORMAL;font-weight:normal;">in the eastern Antarctic Peninsula</text>
  <text x="43.597,47.476,53.175,58.874,64.123,69.822,73.19,78.67,82.199,87.897,93.596,97.355,103.054,108.413,113.662" y="257.67600000000004" svg_rhmargin="119.361" style="fill:#000000;font-family:IEKFJH+AdvOTea1a7398;font-size:10.96px;font-style:NORMAL;font-weight:normal;">Johan Etourneau</text>
  <text x="119.395,122.499,124.41" y="253.65099999999995" svg_rhmargin="129.065" style="fill:#000000;font-family:IEKFJH+AdvOTea1a7398;font-size:8.77px;font-style:NORMAL;font-weight:normal;">1,2</text>
  <text x="129.033,131.422,134.872,142.401,144.911,150.609,155.738,160.987,166.686,172.385,174.89499999999998,178.242,183.831,189.311,195.01,200.708,203.218" y="257.67600000000004" svg_rhmargin="208.917" style="fill:#000000;font-family:IEKFJH+AdvOTea1a7398;font-size:10.96px;font-style:NORMAL;font-weight:normal;">, Giovanni Sgubin</text>
  <text x="208.913" y="253.65099999999995" svg_rhmargin="212.017" style="fill:#000000;font-family:IEKFJH+AdvOTea1a7398;font-size:8.77px;font-style:NORMAL;font-weight:normal;">1</text>
  <text x="212.031,214.42000000000002,217.814,224.664,229.913,235.042,237.552,242.911,246.67,250.073,257.142,260.901,266.6,271.389,274.917" y="257.67600000000004" svg_rhmargin="280.166" style="fill:#000000;font-family:IEKFJH+AdvOTea1a7398;font-size:10.96px;font-style:NORMAL;font-weight:normal;">, Xavier Crosta</text>
  <text x="280.176" y="253.65099999999995" svg_rhmargin="283.28" style="fill:#000000;font-family:IEKFJH+AdvOTea1a7398;font-size:8.77px;font-style:NORMAL;font-weight:normal;">1</text>
  <text x="283.238,285.627,289.021,296.659,299.169,304.867,307.377,312.736,316.495,319.919,325.508,333.376,335.886,341.585,347.064,352.423,358.122,363.82,369.519" y="257.67600000000004" svg_rhmargin="377.388" style="fill:#000000;font-family:IEKFJH+AdvOTea1a7398;font-size:10.96px;font-style:NORMAL;font-weight:normal;">, Didier Swingedouw</text>
  <text x="377.348" y="253.65099999999995" svg_rhmargin="380.452" style="fill:#000000;font-family:IEKFJH+AdvOTea1a7398;font-size:8.77px;font-style:NORMAL;font-weight:normal;">1</text>
  <text x="380.466,382.855,386.249,393.668,399.027,402.786,408.485,414.184,416.693,421.712,426.961,430.357,441.535,444.045,446.554,449.064,457.963,463.661,467.19" y="257.67600000000004" svg_rhmargin="470.719" style="fill:#000000;font-family:IEKFJH+AdvOTea1a7398;font-size:10.96px;font-style:NORMAL;font-weight:normal;">, Verónica Willmott</text>
  <text x="470.721,475.28,477.191" y="253.65099999999995" svg_rhmargin="482.302" style="fill:#000000;font-family:IEKFJH+AdvOTea1a7398;font-size:8.77px;font-style:NORMAL;font-weight:normal;">3,4</text>
  <text x="482.343,484.732,488.126,493.146,498.844,501.354,506.373,509.726,515.655,520.905,524.664,530.362,535.612,539.371" y="257.67600000000004" svg_rhmargin="544.62" style="fill:#000000;font-family:IEKFJH+AdvOTea1a7398;font-size:10.96px;font-style:NORMAL;font-weight:normal;">, Loïc Barbara</text>
  <text x="544.649" y="253.65099999999995" svg_rhmargin="549.304" style="fill:#000000;font-family:IEKFJH+AdvOTea1a7398;font-size:8.77px;font-style:NORMAL;font-weight:normal;">5</text>
  <text x="549.297" y="257.67600000000004" svg_rhmargin="551.686" style="fill:#000000;font-family:IEKFJH+AdvOTea1a7398;font-size:10.96px;font-style:NORMAL;font-weight:normal;">,</text>
  <text x="43.598,53.527,58.776,62.535,65.045,70.403,74.283,81.921,87.62,92.979,95.489,97.998,103.357,106.358,113.996,119.695,125.394,130.183,134.972,140.221,142.731" y="273.60699999999997" svg_rhmargin="147.52" style="fill:#000000;font-family:IEKFJH+AdvOTea1a7398;font-size:10.96px;font-style:NORMAL;font-weight:normal;">Marie-Noëlle Houssais</text>
  <text x="147.515" y="269.581" svg_rhmargin="152.442" style="fill:#000000;font-family:IEKFJH+AdvOTea1a7398;font-size:8.77px;font-style:NORMAL;font-weight:normal;">6</text>
  <text x="152.447,154.836,157.889,163.479,167.007,172.366,175.555,180.805,186.50400000000002,189.525,195.114,200.133,205.832,211.53,217.229,220.758,226.117" y="273.606" svg_rhmargin="231.816" style="fill:#000000;font-family:IEKFJH+AdvOTea1a7398;font-size:10.96px;font-style:NORMAL;font-weight:normal;">, Stefan Schouten</text>
  <text x="231.817,236.376,238.287" y="269.581" svg_rhmargin="242.942" style="fill:#000000;font-family:IEKFJH+AdvOTea1a7398;font-size:8.77px;font-style:NORMAL;font-weight:normal;">3,7</text>
  <text x="242.986,245.375,248.428,252.308,257.557,262.806,268.505,271.559,277.148,279.53700000000003,282.558,288.147,290.656,296.355,302.054,304.563,310.262,315.741,321.44,326.799,329.84,337.479,342.728,351.627,356.416,359.945" y="273.606" svg_rhmargin="365.304" style="fill:#000000;font-family:IEKFJH+AdvOTea1a7398;font-size:10.96px;font-style:NORMAL;font-weight:normal;">, Jaap S. Sinninghe Damsté</text>
  <text x="365.272,369.831,371.742" y="269.581" svg_rhmargin="376.397" style="fill:#000000;font-family:IEKFJH+AdvOTea1a7398;font-size:8.77px;font-style:NORMAL;font-weight:normal;">3,7</text>
  <text svg_rhmargin="453.448" x="376.441,378.83,381.883,389.522,395.22,400.7,406.398,411.757,416.546,419.584,427.113,432.812,438.51,443.3,448.089,453.448" y="269.581" style="fill:#000000;font-family:IEKFJH+AdvOTea1a7398;font-size:10.96px;font-style:NORMAL;font-weight:normal;">, Hugues Goosse </text>
  <path d=" M 463.2860107421875 529.1190185546875 C 463.2860107421875 526.6790161132812 461.3070068359375 524.7020263671875 458.8680114746094 524.7020263671875 C 456.427001953125 524.7020263671875 454.45001220703125 526.6790161132812 454.45001220703125 529.1190185546875 C 454.45001220703125 531.5590209960938 456.427001953125 533.5370483398438 458.8680114746094 533.5370483398438 C 461.3070068359375 533.5370483398438 463.2860107421875 531.5590209960938 463.2860107421875 529.1190185546875" style="fill:none;stroke:#000000;stroke-width:1.0;"/>
  <path d=" M 456.72198486328125 527.1079711914062 L 457.25372314453125 527.1079711914062 L 457.25372314453125 530.8056640625 L 456.72198486328125 530.8056640625 Z " style="fill:none;stroke:#000000;stroke-width:1.0;"/>
  <path d=" M 458.56298828125 527.5880126953125 L 459.40899658203125 527.5880126953125 C 460.61297607421875 527.5880126953125 460.88800048828125 528.5040283203125 460.88800048828125 528.958984375 C 460.88800048828125 529.7020263671875 460.4169921875 530.3300170898438 459.38299560546875 530.3300170898438 L 458.56298828125 530.3300170898438 L 458.56298828125 527.5880126953125 Z M 458.0309753417969 530.8070068359375 L 459.4679870605469 530.8070068359375 C 460.8349914550781 530.8070068359375 461.4369812011719 529.83203125 461.4369812011719 528.958984375 C 461.4369812011719 528.010009765625 460.6940002441406 527.1099853515625 459.4739990234375 527.1099853515625 L 458.0309753417969 527.1099853515625 L 458.0309753417969 530.8070068359375" style="fill:none;stroke:#000000;stroke-width:1.0;"/>
  <path d=" M 457.33599853515625 531.5759887695312 C 457.33599853515625 531.385009765625 457.17999267578125 531.2279663085938 456.9880065917969 531.2279663085938 C 456.7950134277344 531.2279663085938 456.6399841308594 531.385009765625 456.6399841308594 531.5759887695312 C 456.6399841308594 531.7680053710938 456.7950134277344 531.9240112304688 456.9880065917969 531.9240112304688 C 457.17999267578125 531.9240112304688 457.33599853515625 531.7680053710938 457.33599853515625 531.5759887695312" style="fill:none;stroke:#000000;stroke-width:1.0;"/>
  <text x="465.902" y="269.581" svg_rhmargin="470.829" style="fill:#000000;font-family:IEKFJH+AdvOTea1a7398;font-size:8.77px;font-style:NORMAL;font-weight:normal;">8</text>
  <text x="470.835,473.224,476.277,483.345,488.595,492.354,494.863,500.562,504.091,509.34000000000003,512.39,517.869,522.659,527.678,533.376,536.905,539.415" y="273.606" svg_rhmargin="544.664" style="fill:#000000;font-family:IEKFJH+AdvOTea1a7398;font-size:10.96px;font-style:NORMAL;font-weight:normal;">, Carlota Escutia</text>
  <text x="544.649" y="269.581" svg_rhmargin="549.304" style="fill:#000000;font-family:IEKFJH+AdvOTea1a7398;font-size:8.77px;font-style:NORMAL;font-weight:normal;">2</text>
  <text x="549.297" y="273.606" svg_rhmargin="551.686" style="fill:#000000;font-family:IEKFJH+AdvOTea1a7398;font-size:10.96px;font-style:NORMAL;font-weight:normal;">,</text>
  <text x="43.598,47.477,53.176,55.686,58.195,63.554,69.253,72.909,79.977,83.736,89.095,93.884,99.583,102.092" y="289.537" svg_rhmargin="107.791" style="fill:#000000;font-family:IEKFJH+AdvOTea1a7398;font-size:10.96px;font-style:NORMAL;font-weight:normal;">Julien Crespin</text>
  <text x="107.773" y="285.51199999999994" svg_rhmargin="110.877" style="fill:#000000;font-family:IEKFJH+AdvOTea1a7398;font-size:8.77px;font-style:NORMAL;font-weight:normal;">1</text>
  <text x="110.891,113.28,116.957,124.486,130.185,132.694,135.204,137.713,142.963,148.661,157.56,162.919,166.507,176.436,181.685,186.474,191.264" y="289.537" svg_rhmargin="196.623" style="fill:#000000;font-family:IEKFJH+AdvOTea1a7398;font-size:10.96px;font-style:NORMAL;font-weight:normal;">, Guillaume Massé</text>
  <text svg_rhmargin="201.538" x="196.611,201.53799999999998" y="289.537" style="fill:#000000;font-family:IEKFJH+AdvOTea1a7398;font-size:8.77px;font-style:NORMAL;font-weight:normal;">9 </text>
  <text svg_rhmargin="286.867" x="205.228,212.64700000000002,216.284,220.163,225.862,231.561,237.04,240.92,248.558,253.807,259.506,265.205,268.839,275.458,277.968,286.867" y="285.51199999999994" style="fill:#000000;font-family:IEKFJH+AdvOTea1a7398;font-size:10.96px;font-style:NORMAL;font-weight:normal;">&amp; Jung-Hyun Kim </text>
  <path d="M463.286 270.88 C463.286 273.32 461.307 275.297 458.868 275.297 C456.427 275.297 454.45 273.32 454.45 270.88 C454.45 268.44 456.427 266.462 458.868 266.462 C461.307 266.462 463.286 268.44 463.286 270.88 M458.562 272.411 L459.408 272.411 C460.612 272.411 460.888 271.495 460.888 271.041 C460.888 270.297 460.417 269.669 459.383 269.669 L458.562 269.669 L458.562 272.411 M458.03 269.192 L459.467 269.192 C460.835 269.192 461.436 270.167 461.436 271.041 C461.436 271.989 460.694 272.89 459.474 272.89 L458.03 272.89 L458.03 269.192 M457.335 268.424 C457.336 268.614 457.18 268.772 456.988 268.772 C456.795 268.772 456.639 268.614 456.639 268.424 C456.639 268.231 456.795 268.075 456.988 268.075 C457.18 268.075 457.336 268.231 457.336 268.424 " style="fill:none;stroke:#000000;stroke-width:1.0;"/>
  <path d=" M 296.6659851074219 513.18798828125 C 296.6659851074219 510.74798583984375 294.6869812011719 508.77099609375 292.24798583984375 508.77099609375 C 289.8069763183594 508.77099609375 287.8299865722656 510.74798583984375 287.8299865722656 513.18798828125 C 287.8299865722656 515.6279907226562 289.8069763183594 517.6060180664062 292.24798583984375 517.6060180664062 C 294.6869812011719 517.6060180664062 296.6659851074219 515.6279907226562 296.6659851074219 513.18798828125" style="fill:none;stroke:#000000;stroke-width:1.0;"/>
  <path d=" M 290.10198974609375 511.177001953125 L 290.63372802734375 511.177001953125 L 290.63372802734375 514.8748168945312 L 290.10198974609375 514.8748168945312 Z " style="fill:none;stroke:#000000;stroke-width:1.0;"/>
  <path d=" M 291.9419860839844 511.6570129394531 L 292.7879943847656 511.6570129394531 C 293.9919738769531 511.6570129394531 294.2669982910156 512.572998046875 294.2669982910156 513.0280151367188 C 294.2669982910156 513.77099609375 293.7959899902344 514.3989868164062 292.7619934082031 514.3989868164062 L 291.9419860839844 514.3989868164062 L 291.9419860839844 511.6570129394531 Z M 291.40997314453125 514.8760375976562 L 292.84698486328125 514.8760375976562 C 294.2139892578125 514.8760375976562 294.81597900390625 513.9010009765625 294.81597900390625 513.0280151367188 C 294.81597900390625 512.0790405273438 294.072998046875 511.17901611328125 292.8529968261719 511.17901611328125 L 291.40997314453125 511.17901611328125 L 291.40997314453125 514.8760375976562" style="fill:none;stroke:#000000;stroke-width:1.0;"/>
  <path d=" M 290.71600341796875 515.64501953125 C 290.71600341796875 515.4540405273438 290.55999755859375 515.2969970703125 290.3680114746094 515.2969970703125 C 290.1750183105469 515.2969970703125 290.0199890136719 515.4540405273438 290.0199890136719 515.64501953125 C 290.0199890136719 515.8370361328125 290.1750183105469 515.9930419921875 290.3680114746094 515.9930419921875 C 290.55999755859375 515.9930419921875 290.71600341796875 515.8370361328125 290.71600341796875 515.64501953125" style="fill:none;stroke:#000000;stroke-width:1.0;"/>
  <text x="299.282,303.841,305.752,308.855" y="285.51199999999994" svg_rhmargin="314.238" style="fill:#000000;font-family:IEKFJH+AdvOTea1a7398;font-size:8.77px;font-style:NORMAL;font-weight:normal;">3,10</text>
  <text x="43.597,49.011,53.932,58.56,61.965,65.211,69.839,74.174,78.802,83.724,86.772,90.198,93.245,98.167,100.334,105.256,110.177,112.345,117.266,121.99900000000001,125.403,129.937,134.858,139.78,143.204,146.45,151.079,154.126,157.373,162.001,166.534,169.582,172.967,177.889,180.643,184.079,190.581,195.503,198.55,203.084,206.33,210.665,213.713,215.88,220.215,223.65,225.818,230.153,234.781,238.163,242.299,247.221,251.849,254.017,258.446,263.074,267.21000000000004,270.648,275.569,280.103,284.23900000000003,287.599,292.52,297.149,301.777,306.699,310.106,314.639,317.687,320.734,323.981,326.148,331.07,335.991,339.039,343.667,348.589,352.059,355.106,360.028,363.454,368.375,373.297,376.345,381.26700000000005,384.657,389.19,392.238,399.923,404.845" y="341.525" svg_rhmargin="408.195" style="fill:#000000;font-family:IEKFJH+AdvOTea1a7398;font-size:9.46px;font-style:NORMAL;font-weight:normal;">The recent thinning and retreat of Antarctic ice shelves has been attributed to both atmo-</text>
  <text x="43.597,47.733,52.654,57.576,62.204,65.451,70.079,73.134,77.667,82.589,87.511,90.538,95.46,99.795,104.423,108.957,113.87899999999999,116.9,123.696,128.229,131.476,139.161,141.328,146.25,150.982,153.045,156.074,162.671,167.593,174.388,178.921,183.35,187.978,191.225,193.28799999999998,196.382,199.43,204.351,208.97899999999998,211.972,214.139,218.673,223.008,227.34300000000002,230.397,235.318,238.072,241.112,245.446,250.368,255.29,258.337,260.505,265.426,270.348,275.269,280.191,284.327,286.39,289.47,297.155,302.077,304.244,307.292,309.459,312.81,317.343,321.971,326.505,329.751,332.783,337.705,339.872,343.118,347.746,352.081,355.129,358.181,363.103,368.024,372.16,376.789,380.035,384.464,388.998,392.046,394.213,399.135,404.056" y="355.471" svg_rhmargin="408.192" style="fill:#000000;font-family:IEKFJH+AdvOTea1a7398;font-size:9.46px;font-style:NORMAL;font-weight:normal;">sphere and ocean warming. However, the lack of continuous, multi-year direct observations</text>
  <text x="43.597,48.13,52.266000000000005,55.389,62.184,66.813,68.98,71.147,74.267,78.8,82.93599999999999,86.059,88.226,90.394,98.079,100.246,103.294,107.827,110.875,113.042,117.964,122.886,127.02199999999999,130.166,135.087,137.84099999999998,140.937,145.272,147.44,149.607,157.292,161.826,164.873,169.50099999999998,172.629,177.162,182.084,187.006,190.147,192.314,196.649,201.277,204.377,208.513,213.434,218.062,220.23,222.98399999999998,226.146,233.831,238.753,243.675,248.303,250.47,254.606,257.724,262.645,265.892,270.423,274.852,279.48,284.402,287.45,290.605,295.139,298.258,303.18,306.426,311.054,315.389,317.556,321.692,326.32,329.439,333.973,338.109,342.245,346.873,351.009,355.145,362.83,367.458,372.38,375.428,378.591,383.513,388.435,391.574,396.496,401.417" y="369.417" svg_rhmargin="408.213" style="fill:#000000;font-family:IEKFJH+AdvOTea1a7398;font-size:9.46px;font-style:NORMAL;font-weight:normal;">as well as limitations of climate and ice shelf models prevent a precise assessment on how</text>
  <text svg_rhmargin="157.502" x="43.597,46.644,51.566,56.194,59.187,64.108,68.443,73.071,77.605,82.527,85.549,88.303,93.224,96.471,100.806,102.973,107.895,112.628,115.709,120.242,122.996,125.75,130.379,134.713,137.761,141.897,144.905,147.953,152.874,157.502" y="383.363" style="fill:#000000;font-family:IEKFJH+AdvOTea1a7398;font-size:9.46px;font-style:NORMAL;font-weight:normal;">the ocean forcing affects the </text>
  <text x="160.555" y="383.363" svg_rhmargin="165.581" style="fill:#000000;font-family:IEKFOG+AdvOTea1a7398+fb;font-size:9.46px;font-style:NORMAL;font-weight:normal;">ﬂ</text>
  <text svg_rhmargin="282.421" x="165.543,170.465,174.8,177.847,182.769,187.303,190.35,192.518,197.439,202.361,206.49699999999999,209.537,214.458,217.212,220.252,224.786,227.792,232.524,235.771,240.692,245.614,250.535,255.457,260.085,265.007,268.044,272.578,277.499,282.42100000000005" y="383.363" style="fill:#000000;font-family:IEKFJH+AdvOTea1a7398;font-size:9.46px;font-style:NORMAL;font-weight:normal;">uctuations of a grounded and </text>
  <text x="285.449" y="383.363" svg_rhmargin="290.475" style="fill:#000000;font-family:IEKFOG+AdvOTea1a7398+fb;font-size:9.46px;font-style:NORMAL;font-weight:normal;">ﬂ</text>
  <text x="290.494,295.416,299.949,302.997,305.164,310.086,314.819,317.82,319.988,324.323,328.95099999999996,331.994,336.328,340.862,345.783,347.846,350.873,357.469,362.098,365.344,369.972,372.983,379.778,384.406,387.439,391.575,396.497,401.418" y="383.363" svg_rhmargin="408.214" style="fill:#000000;font-family:IEKFJH+AdvOTea1a7398;font-size:9.46px;font-style:NORMAL;font-weight:normal;">oating ice cap. Here we show</text>
  <text svg_rhmargin="68.256" x="43.597,46.644,51.566,56.1,59.148,63.722,68.256" y="397.309" style="fill:#000000;font-family:IEKFJH+AdvOTea1a7398;font-size:9.46px;font-style:NORMAL;font-weight:normal;">that a </text>
  <text x="72.793" y="397.309" svg_rhmargin="80.081" style="fill:#000000;font-family:IEKFOH+AdvTTab7e17fd;font-size:9.46px;font-style:NORMAL;font-weight:normal;">+</text>
  <text x="80.107,85.918,87.981" y="397.309" svg_rhmargin="92.903" style="fill:#000000;font-family:IEKFJH+AdvOTea1a7398;font-size:9.46px;font-style:NORMAL;font-weight:normal;">0.3</text>
  <text x="92.919" y="397.309" svg_rhmargin="97.15" style="fill:#000000;font-family:IEKFOI+AdvOTea1a7398+20;font-size:9.46px;font-style:NORMAL;font-weight:normal;">–</text>
  <text x="97.114,100.465,102.528,107.554,109.473,113.515,119.62,124.157,126.324,131.246,135.58,138.827,143.455,147.989,152.125,156.753,161.347,163.514,168.436,172.968,177.104,182.026,186.948,191.084,196.005,199.252,202.006,206.539,210.874,215.502,220.079,225.001,229.336,233.964,238.497,243.419,248.028,251.076,255.704,263.389,268.311,272.939,276.186,280.719,283.767,288.688,291.935,296.563,301.149,304.888,309.914" y="397.309" svg_rhmargin="315.725" style="fill:#000000;font-family:IEKFJH+AdvOTea1a7398;font-size:9.46px;font-style:NORMAL;font-weight:normal;">1.5 °C increase in subsurface ocean temperature (50</text>
  <text x="315.722" y="397.309" svg_rhmargin="319.953" style="fill:#000000;font-family:IEKFOI+AdvOTea1a7398+20;font-size:9.46px;font-style:NORMAL;font-weight:normal;">–</text>
  <text x="319.974,325.491,331.303,337.115,338.965,346.65,350.38899999999995,354.953,357.12,362.04200000000003,366.631,369.679,374.6,379.228,383.753,388.674,393.596,396.842,399.89,404.811" y="397.309" svg_rhmargin="408.161" style="fill:#000000;font-family:IEKFJH+AdvOTea1a7398;font-size:9.46px;font-style:NORMAL;font-weight:normal;">400 m) in the north-</text>
  <text x="43.596,48.224,52.758,56.894,59.941,64.569,67.816,72.738,76.364,82.866,87.788,90.836,95.369,98.615,102.95,105.998,108.165,112.5,116.162,121.188,125.816,130.737,132.905,137.826,141.962,146.884,149.051,153.58499999999998,157.264,162.185,166.719,170.855,174.498,179.419,182.666,184.833,189.263,193.891,198.813,202.447,205.494,210.416,214.068,221.754,226.287,228.455,233.376,236.622,240.26,244.595,249.516,251.684,253.851,258.384,263.306,267.442,272.07,275.749,280.283,285.204,290.12600000000003,293.777,297.024,301.652,305.987,310.615,314.751,318.887,321.054,325.976,330.898,334.539,339.461,342.21500000000003,345.878,348.926,353.847,358.47499999999997,362.092,365.338,369.966,374.699,376.866,381.788,386.709,391.243,393.40999999999997,397.071,399.238,403.573" y="411.255" svg_rhmargin="408.201" style="fill:#000000;font-family:IEKFJH+AdvOTea1a7398;font-size:9.46px;font-style:NORMAL;font-weight:normal;">eastern Antarctic Peninsula has driven to major collapse and recession of the regional ice</text>
  <text x="43.596,47.732,52.653,57.282,59.449,62.202999999999996,64.912,69.834,74.755,78.002,80.169,85.091,89.824,92.578,97.5,102.421,105.469,110.39099999999999,113.101,116.149,121.07,125.698,128.465,130.632,135.554,139.69,142.738,145.984,150.905,158.591,163.219,168.141,171.188,175.722,177.889,180.621,185.543,190.171,193.418,195.585,200.507,205.429,208.174,212.707,217.629,222.551,225.295,228.343,233.264,237.892,240.602,242.77,247.303,251.439,254.487,257.214,262.533,268.344,274.155,279.967,282.726,287.259,291.887,296.421,299.667,303.803,305.866,308.577,315.572,320.493,323.739,326.492,331.413,334.66,339.581,341.749,346.377,350.712,353.759,355.927,360.848,365.77,369.906,372.639,375.394,380.315,382.483,384.65,389.572,396.367,398.535,403.456" y="425.201" svg_rhmargin="408.188" style="fill:#000000;font-family:IEKFJH+AdvOTea1a7398;font-size:9.46px;font-style:NORMAL;font-weight:normal;">shelf during both the instrumental period and the last 9000 years. Our projections following</text>
  <text x="43.596,46.643,51.565,56.193,59.356,62.603,67.231,72.152,75.399,80.027,84.163,88.791,93.713,96.76,101.294,104.342,106.509,110.938,115.566,118.826,123.161,128.083,133.004,137.339,141.967,146.889,149.936,153.183,157.716,160.764,162.931,167.853,172.775,175.972,180.893,185.427,188.474,193.396,200.191,204.725,209.259,212.481,217.8,219.864,224.89000000000001,228.071,232.699,240.385,242.552,246.688,250.824,252.992,257.913,262.83500000000004,265.999,270.135,274.47,279.098,284.019,288.553,291.799,293.967,298.889,302.112,304.866,308.112,313.034,320.71999999999997,323.938,326.986,331.907,336.53499999999997,339.699,344.128,346.295,349.05,352.097,357.019,360.222,366.724,370.86,374.996,379.624,383.76,387.896,395.581,400.21,405.131" y="439.147" svg_rhmargin="408.179" style="fill:#000000;font-family:IEKFJH+AdvOTea1a7398;font-size:9.46px;font-style:NORMAL;font-weight:normal;">the representative concentration pathway 8.5 emission scenario from the Fifth Assessment</text>
  <text svg_rhmargin="303.017" x="43.596,48.915,53.543,58.465,63.386,66.633,69.681,72.055,76.977,79.73100000000001,82.146,85.194,90.115,94.743,97.112,99.573,104.495,107.542,112.171,115.417,120.149,125.071,129.5,134.129,137.375,142.296,149.982,154.61,159.532,162.579,167.113,169.28,171.719,176.745,181.278,186.2,190.828,192.995,195.417,200.338,205.26,207.605,213.71,215.877,218.044,225.73,230.263,233.311,237.93900000000002,240.373,246.478,251.4,255.933,260.855,265.587,270.215,272.575,275.821,280.341,284.771,289.399,293.933,296.09999999999997,298.483,303.017" y="453.093" style="fill:#000000;font-family:IEKFJH+AdvOTea1a7398;font-size:9.46px;font-style:NORMAL;font-weight:normal;">Report of the Intergovernmental Panel on Climate Change reveal a </text>
  <text x="305.404" y="453.093" svg_rhmargin="312.692" style="fill:#000000;font-family:IEKFOH+AdvTTab7e17fd;font-size:9.46px;font-style:NORMAL;font-weight:normal;">+</text>
  <text x="312.717,318.528,320.592,325.514,327.4,331.442,337.547,339.93,344.066,348.987,353.909,358.045,362.966,366.213,368.967,373.501,377.835,382.46299999999997,384.887,389.808,394.143,398.771,403.305" y="453.093" svg_rhmargin="408.227" style="fill:#000000;font-family:IEKFJH+AdvOTea1a7398;font-size:9.46px;font-style:NORMAL;font-weight:normal;">0.3 °C subsurface ocean</text>
  <text x="43.596,46.643,51.272,58.957,63.878,68.507,71.753,76.287,79.334,84.256,87.502,92.13,95.526,102.322,106.855,110.102,117.787,119.954,124.876,129.609,132.944,139.739,141.907,144.954,149.876,152.043,156.965,160.326,163.373,168.295,172.923,176.313,180.648,185.57,193.255,195.422,200.344,205.077,208.401,213.323,217.951,222.286,226.819,231.741,236.369,240.505,243.89,246.938,251.86,256.393,259.441,262.77,269.565,271.732,273.9,276.06699999999995,279.437,284.358,289.28,294.201,299.123,304.045,308.966,312.014,316.642,321.564,323.731,328.265,331.65,336.184,340.518,344.853,349.481,351.649,356.277,359.523,364.057,367.104,371.73199999999997,375.133,377.301,381.635,386.263,389.589,393.725,398.647,403.275,405.443" y="467.096" svg_rhmargin="408.197" style="fill:#000000;font-family:IEKFJH+AdvOTea1a7398;font-size:9.46px;font-style:NORMAL;font-weight:normal;">temperature warming within the coming decades that will undoubtedly accelerate ice shelf</text>
  <text x="43.596,51.281,55.909,58.077,61.124,63.292,68.213,72.946,75.009,78.179,80.346,85.268,89.602,91.77,96.691,101.613,103.78,108.702,113.435,116.616,119.664,124.585,129.213,132.377,136.513,141.434,146.356,149.403,154.325,158.953,162.2,167.121,174.806,179.728,183.864,186.912,190.089,194.225,198.853,203.188,206.236,211.157,214.40300000000002,217.585,222.506,225.26,228.47,231.517,236.439,241.067,244.23,248.858,253.392,257.528,260.576,265.204,268.45,273.372,276.545,283.047,287.969,291.017,295.55,298.796,303.131,306.179,308.346,312.681,315.833,320.858,325.487,330.408,332.576,337.497,341.633,346.555,348.722,353.256" y="481.042" svg_rhmargin="355.319" style="fill:#000000;font-family:IEKFJH+AdvOTea1a7398;font-size:9.46px;font-style:NORMAL;font-weight:normal;">melting, including the southernmost sector of the eastern Antarctic Peninsula.</text>
  <path d=" M 43.59700012207031 621.1270141601562 L 210.61399841308594 621.1270141601562 L 210.61399841308594 635.1300048828125 L 43.59700012207031 635.1300048828125 Z " style="fill:none;stroke:#000000;stroke-width:1.0;"/>
  <text svg_rhmargin="207.196" x="46.602,50.834,53.655,56.477,60.789,64.439,66.511,70.656,74.8,79.03,83.174,85.247,87.239,91.384,94.373,98.986,103.13,106.366,111.347,113.34,116.576,121.557,125.869,130.516,134.66,138.217,143.031,146.267,151.081,155.64,159.872,162.606,167.588,170.824,175.47,178.204,183.062,187.708,190.944,195.503,199.903,202.637,207.196" y="175.43600000000004" style="fill:#ffffff;font-family:IEKFOJ+AdvOTcb88df00;font-size:7.97px;font-style:NORMAL;font-weight:normal;">https://doi.org/10.1038/s41467-018-08195-6 </text>
  <text x="234.595,242.685,249.621,256.557" y="175.43600000000004" svg_rhmargin="264.066" style="fill:#f0841a;font-family:Arial-BoldMT;font-size:10.4px;font-style:NORMAL;font-weight:BOLD;">OPEN</text>
  <path d="M296.665 286.812 C296.666 289.252 294.686 291.229 292.248 291.229 C289.806 291.229 287.83 289.252 287.83 286.812 C287.83 284.372 289.806 282.393 292.248 282.393 C294.686 282.393 296.666 284.372 296.666 286.812 M291.941 288.342 L292.787 288.342 C293.991 288.342 294.267 287.427 294.267 286.971 C294.267 286.229 293.796 285.601 292.762 285.601 L291.941 285.601 L291.941 288.342 M291.409 285.123 L292.846 285.123 C294.214 285.123 294.815 286.098 294.815 286.971 C294.815 287.92 294.073 288.82 292.853 288.82 L291.409 288.82 L291.409 285.123 M290.716 284.354 C290.716 284.545 290.56 284.703 290.368 284.703 C290.175 284.703 290.02 284.545 290.02 284.354 C290.02 284.162 290.175 284.006 290.368 284.006 C290.56 284.006 290.716 284.162 290.716 284.354 M43.597 684.063 L551.679 684.063 L551.679 754.872 L43.597 754.872 " style="fill:none;stroke:#000000;stroke-width:1.0;"/>
  <path d=" M 43.59700012207031 116.22000122070312 L 551.6790161132812 116.22000122070312 L 551.906005859375 116.05000305175781 L 551.906005859375 115.822998046875 L 551.6790161132812 115.65299987792969 L 43.59700012207031 115.65299987792969 L 43.369998931884766 115.822998046875 L 43.369998931884766 116.05000305175781 Z " style="fill:none;stroke:#ec7e1c;stroke-width:0.0;"/>
  <text svg_rhmargin="45.784" x="43.597,45.784" y="695.1179999999999" style="fill:#000000;font-family:IEKFPK+AdvOTf23bb480;font-size:6.38px;font-style:NORMAL;font-weight:normal;">1 </text>
  <text svg_rhmargin="387.144" x="47.112,49.184,53.249,56.652,59.219,60.956,63.522,67.587,70.154,74.219,76.819,82.295,86.359,90.504,94.322,96.059,100.124,103.607,106.243,110.387,114.205,116.845,121.985,123.723,127.541,131.605,135.256,136.993,140.811,144.214,146.779,150.924,154.74200000000002,157.438,159.175,162.99300000000002,165.602,170.081,171.818,175.636,178.202,180.769,184.587,186.24499999999998,188.902,194.043,198.108,200.18,205.321,208.222,213.53,217.595,219.333,222.983,226.717,229.283,232.687,234.424,238.569,242.386,246.53,249.167,254.643,257.209,261.027,265.092,268.91,273.054,276.872,278.53000000000003,281.142,283.876,288.435,291.169,295.983,300.797,303.366,308.842,311.408,317.88,319.618,321.355,323.093,326.911,329.559,332.627,338.103,340.669,344.487,348.552,352.369,356.514,360.332,363.4,365.058,367.656,371.721,375.866,379.683,381.421,385.486,387.144" y="692.17" style="fill:#000000;font-family:IEKFPK+AdvOTf23bb480;font-size:7.97px;font-style:NORMAL;font-weight:normal;">Instituto Andaluz de Ciencias de la Tierra, CSIC-Universidad Granada, 18100 Armilla (Granada), Spain. </text>
  <text svg_rhmargin="393.15" x="389.764,393.15000000000003" y="695.1179999999999" style="fill:#000000;font-family:IEKFPK+AdvOTf23bb480;font-size:6.38px;font-style:NORMAL;font-weight:normal;">2 </text>
  <text x="394.469,399.777,406.998,411.477,414.085,418.318,422.877,427.691,431.923,434.552,438.537,442.682,448.572,453.713,455.37100000000004,457.966,461.951,466.096,471.651,475.636,479.621,484.762,490.317,494.797,498.861,500.519,503.094,508.402,512.467,514.205,517.855,521.673,524.239,527.643,529.38,531.946,535.764,538.414,542.559" y="695.1179999999999" svg_rhmargin="546.377" style="fill:#000000;font-family:IEKFPK+AdvOTf23bb480;font-size:7.97px;font-style:NORMAL;font-weight:normal;">UMR 5805 EPOC, EPHE/CNRS, Université de</text>
  <text svg_rhmargin="150.467" x="43.595,47.907,51.972,54.539,58.683,62.501,66.319,70.298,73.948,75.606,78.292,82.437,86.581,91.06,93.794,98.026,100.629,104.774,108.592,111.995,115.398,119.216,122.866,124.524,127.162,130.892,133.459,137.276,141.341,144.992,148.809,150.46699999999998" y="702.148" style="fill:#000000;font-family:IEKFPK+AdvOTf23bb480;font-size:7.97px;font-style:NORMAL;font-weight:normal;">Bordeaux, 33615 Pessac, France. </text>
  <text svg_rhmargin="156.387" x="153.071,156.387" y="705.039" style="fill:#000000;font-family:IEKFPK+AdvOTf23bb480;font-size:6.38px;font-style:NORMAL;font-weight:normal;">3 </text>
  <text svg_rhmargin="491.302" x="157.72,163.275,165.347,171.237,176.051,178.64,183.119,187.184,190.914,194.732,196.469,199.107,204.662,208.48,211.046,215.111,218.928,221.495,223.232,227.05,231.115,235.259,238.66199999999998,241.23,243.302,247.367,250.77,253.337,255.074,257.64,261.705,264.272,268.09,270.71,272.95,277.014,279.58,282.219,286.284,290.101,293.919,296.562,301.041,304.859,308.262,312.08,315.898,318.464,322.115,326.179,327.837,330.465,335.773,338.339,340.906,344.724,348.374,352.439,355.005,357.621,362.929,366.994,368.731,372.382,376.2,378.766,382.169,383.907,386.473,390.203,391.861,394.472,397.206,401.438,405.917,410.731,413.351,417.83,421.648,425.298,429.116,430.854,432.512,435.121,439.6,443.665,447.483,450.088,455.643,459.461,462.027,466.092,469.91,472.476,474.214,478.032,482.096,486.241,489.644,491.302" y="702.148" style="fill:#000000;font-family:IEKFPK+AdvOTf23bb480;font-size:7.97px;font-style:NORMAL;font-weight:normal;">NIOZ Royal Netherlands Institute for Sea Research, Utrecht University, 1790 Texel, The Netherlands. </text>
  <text svg_rhmargin="497.69" x="493.909,497.69" y="705.039" style="fill:#000000;font-family:IEKFPK+AdvOTf23bb480;font-size:6.38px;font-style:NORMAL;font-weight:normal;">4 </text>
  <text x="499.011,501.083,505.148,507.714,511.532,514.098,518.163,521.981,524.547,526.285,530.35,534.415,538.232" y="705.039" svg_rhmargin="539.97" style="fill:#000000;font-family:IEKFPK+AdvOTf23bb480;font-size:7.97px;font-style:NORMAL;font-weight:normal;">International</text>
  <text svg_rhmargin="293.881" x="43.595,48.736,52.801,56.866,61.01,64.828,67.394,71.212,73.699,75.437,79.502,83.567,86.229,91.537,95.602,97.339,99.906,101.56400000000001,104.201,109.676,111.414,113.653,116.22,120.037,124.18100000000001,126.822,135.039,138.857,142.842,146.659,150.724,154.431,156.997,159.704,161.776,165.841,169.244,171.81,173.548,176.114,180.179,182.664,186.482,188.14,190.828,195.06,199.292,203.524,207.757,212.571,215.149,219.461,222.027,225.845,232.317,236.135,238.701,242.766,246.583,250.234,254.052,258.116,259.774,262.375,267.85,271.668,274.234,280.706,284.428,288.493,292.223,293.88100000000003" y="712.069" style="fill:#000000;font-family:IEKFPK+AdvOTf23bb480;font-size:7.97px;font-style:NORMAL;font-weight:normal;">Cooperation Unit, Alfred Wegener Institute, 27570 Bremerhaven, Germany. </text>
  <text svg_rhmargin="299.947" x="296.561,299.947" y="715.017" style="fill:#000000;font-family:IEKFPK+AdvOTf23bb480;font-size:6.38px;font-style:NORMAL;font-weight:normal;">5 </text>
  <text x="301.266,303.338,307.403,310.806,313.373,315.11,317.677,321.742,324.308,328.373,330.973,335.118,338.936,341.575,343.648,347.712,351.363,355.181,358.584,361.15,362.888,366.873,370.691,374.341,376.078,380.143,384.208,387.951,391.35400000000004,394.017,399.907,403.557,407.375,411.193,415.258,419.322,421.06,425.028,429.013,430.751,434.401,438.219,441.622,443.28000000000003,445.891,451.199,455.264,457.001,460.652,464.47,467.036,470.439,472.177,476.321,480.139,484.283,486.88,492.356,496.421,498.987,503.052,507.116,511.181,517.653,521.471,524.071,528.215,532.033,534.673,538.985,542.802,544.54" y="715.017" svg_rhmargin="548.358" style="fill:#000000;font-family:IEKFPK+AdvOTf23bb480;font-size:7.97px;font-style:NORMAL;font-weight:normal;">Instituto de Investigaciones Oceanologicas, Universidad Autónoma de Baja</text>
  <text svg_rhmargin="179.042" x="43.596,48.737,52.554,54.292,56.029,58.269,62.334,64.9,68.965,70.703,74.437,76.095,78.293,82.525,86.757,91.316,95.795,100.60900000000001,102.728,107.04,110.857,112.595,116.413,118.545,123.686,127.504,129.241,130.979,133.218,137.283,139.85,143.831,145.568,149.386,151.04399999999998,153.242,160.463,164.281,167.931,169.669,173.319,177.384,179.04199999999997" y="722.047" style="fill:#000000;font-family:IEKFPK+AdvOTf23bb480;font-size:7.97px;font-style:NORMAL;font-weight:normal;">California, 22860 Baja California, Mexico. </text>
  <text svg_rhmargin="184.717" x="181.134,184.71699999999998" y="724.995" style="fill:#000000;font-family:IEKFPK+AdvOTf23bb480;font-size:6.38px;font-style:NORMAL;font-weight:normal;">6 </text>
  <text svg_rhmargin="521.581" x="186.009,191.318,198.539,203.018,205.171,209.404,212.137,216.369,220.848,222.973,226.623,232.513,237.654,241.639,247.115,252.67,254.32799999999997,256.422,261.563,267.118,271.597,275.662,279.647,284.955,289.1,296.221,301.361,305.346,312.567,318.123,323.678,329.233,333.218,335.291,339.77,345.325,346.983,349.059,354.367,358.432,360.17,363.82,367.638,370.204,373.607,375.345,377.911,381.729,383.869,388.013,389.751,393.569,396.135,398.701,402.519,404.619,408.436,411.00199999999995,413.179,420.4,424.218,426.784,428.522,432.34,434.439,439.58,443.645,446.211,447.949,451.766,453.42400000000004,455.586,459.818,464.05,468.282,472.514,476.74600000000004,478.83,482.974,486.792,489.359,491.096,494.499,496.15700000000004,498.276,502.006,504.572,508.39,512.455,516.105,519.923,521.581" y="722.047" style="fill:#000000;font-family:IEKFPK+AdvOTf23bb480;font-size:7.97px;font-style:NORMAL;font-weight:normal;">UMR 7159 LOCEAN, CNRS/UPMC/MHNH/IRD, Université Pierre et Marie Curie, 75252 Paris, France. </text>
  <text svg_rhmargin="527.115" x="523.729,527.115" y="724.995" style="fill:#000000;font-family:IEKFPK+AdvOTf23bb480;font-size:6.38px;font-style:NORMAL;font-weight:normal;">7 </text>
  <text x="528.435,532.165,535.982,539.633,543.697,545.435,548.001" y="724.995" svg_rhmargin="551.731" style="fill:#000000;font-family:IEKFPK+AdvOTf23bb480;font-size:7.97px;font-style:NORMAL;font-weight:normal;">Faculty</text>
  <text svg_rhmargin="275.924" x="43.595,47.66,49.9,52.553,58.029,61.846,65.911,69.314,72.965,74.702,78.52,82.487,86.138,89.956,93.359,95.017,97.681,102.989,107.054,108.792,112.442,116.26,118.826,122.229,123.874,126.44,130.17,132.831,136.896,139.136,141.789,147.097,149.663,152.23,156.048,159.698,163.763,166.329,167.987,170.589,174.734,178.966,183.525,188.251,190.885,196.194,198.76,201.326,205.144,208.794,212.859,215.426,217.08399999999997,219.742,224.222,228.286,232.104,234.71,240.265,244.082,246.649,250.714,254.531,257.098,258.835,262.653,266.718,270.862,274.266,275.92400000000004" y="732.025" style="fill:#000000;font-family:IEKFPK+AdvOTf23bb480;font-size:7.97px;font-style:NORMAL;font-weight:normal;">of Geosciences, University of Utrecht, 3584 Utrecht, The Netherlands. </text>
  <text svg_rhmargin="282.179" x="278.532,282.179" y="734.973" style="fill:#000000;font-family:IEKFPK+AdvOTf23bb480;font-size:6.38px;font-style:NORMAL;font-weight:normal;">8 </text>
  <text x="283.465,287.45,291.267,293.834,296.4,300.465,303.137,306.955,311.02,315.164,317.764,321.415,323.152,325.392,329.21,331.881,333.953,338.018,341.421,343.988,345.725,348.292,352.357,354.923,358.741,360.399,363.005,368.314,372.378,374.116,377.766,381.584,384.15,387.554,389.291,391.858,395.676,398.269,402.413,406.231,408.871,412.521,416.586,420.651,424.301,428.119,429.856,433.921,435.579,438.181,440.915,445.06,449.786,454.345,457.004,460.654,464.719,468.784,472.434,476.252,477.989,482.054,484.955,486.598,490.415,493.317,498.872,502.69,506.754,510.405,514.222,515.88,518.516,522.828,526.646,528.383,532.368,534.106,538.171,544.642" y="734.973" svg_rhmargin="546.3" style="fill:#000000;font-family:IEKFPK+AdvOTf23bb480;font-size:7.97px;font-style:NORMAL;font-weight:normal;">Earth and Life Institute, Université de Louvain, 1348 Louvain-la-Neuve, Belgium.</text>
  <text svg_rhmargin="47.18" x="43.597,47.18" y="744.895" style="fill:#000000;font-family:IEKFPK+AdvOTf23bb480;font-size:6.38px;font-style:NORMAL;font-weight:normal;">9 </text>
  <text svg_rhmargin="279.256" x="48.472,53.781,61.002,63.074000000000005,64.97,70.111,75.666,80.145,84.21,86.117,90.596,94.414,97.976,102.041,105.691,107.429,110.992,112.65,114.52,119.828,123.893,125.63,129.281,133.098,135.665,139.068,140.712,143.279,147.097,149.046,153.191,157.00900000000001,158.854,162.505,166.322,169.973,173.79,175.528,177.18599999999998,179.094,184.569,187.303,192.699,197.513,202.988,207.467,209.311,215.201,219.266,223.084,227.228,231.046,234.696,236.35399999999998,238.225,244.115,249.255,250.91299999999998,252.795,257.936,261.753,265.818,269.636,273.78,277.598,279.25600000000003" y="742.003" style="fill:#000000;font-family:IEKFPK+AdvOTf23bb480;font-size:7.97px;font-style:NORMAL;font-weight:normal;">UMI CNRS Takuvik, Université de Laval, G1V0A6 Québec, QC, Canada. </text>
  <text svg_rhmargin="287.121" x="281.083,283.27,287.121" y="744.895" style="fill:#000000;font-family:IEKFPK+AdvOTf23bb480;font-size:6.38px;font-style:NORMAL;font-weight:normal;">10 </text>
  <text x="288.453,293.18,297.245,299.811,303.629,307.447,309.316,313.461,317.526,319.263,323.081,325.647,327.571,332.05,335.868,339.271,343.089,346.907,349.473,353.026,357.091,359.036,361.108,365.173,368.576,371.143,372.88,375.447,379.511,382.078,385.896,387.55400000000003,389.424,393.656,396.39,400.869,405.348,410.16200000000003,411.988,414.06,418.125,421.775,425.84,429.657,433.722,437.787,439.445,441.298,445.363,449.427,453.492,456.059,460.124,461.991,466.717,470.782,473.348,477.166,480.984,482.642,484.555,489.695,493.76,496.326,498.893,502.711,506.114,510.258,514.323,518.388,522.533,526.281,530.346,533.996,537.814,539.661,543.478,547.543" y="744.895" svg_rhmargin="551.688" style="fill:#000000;font-family:IEKFPK+AdvOTf23bb480;font-size:7.97px;font-style:NORMAL;font-weight:normal;">Korea Polar Research Institute, 21990 Incheon, South Korea. Correspondence and</text>
  <text x="43.596,46.163,49.98,54.125,58.19,62.007,65.411,67.977,71.38000000000001,73.984,76.224,80.289,82.855,85.493,91.965,95.783,98.349,102.167,104.733,106.471,110.288,112.026,115.429,118.035,121.439,125.504,129.568,133.633,135.371,139.51500000000001,142.13,146.275,150.09300000000002,152.732,156.55,160.694,164.839,167.405,171.223,174.626,178.03,181.847,185.991,188.562,191.129,195.194,197.86,200.682,202.339,206.325,207.98299999999998,210.617,213.685,217.503,223.975,227.792,229.53,231.267,233.004,235.616,237.353,241.418,245.483,249.301,253.365,255.023,258.841,261.407,265.472,269.537,272.103,276.095,279.913,283.73,287.795,294.514,296.251,300.069,303.72,306.286,307.944,312.009,315.994,318.388,321.449,325.1,328.503,330.24,333.891,335.549,339.366,342.766" y="754.872" svg_rhmargin="345.835" style="fill:#000000;font-family:IEKFPK+AdvOTf23bb480;font-size:7.97px;font-style:NORMAL;font-weight:normal;">requests for materials should be addressed to J.E. (email: johan.etourneau@iact.ugr-csic.es)</text>
  <text svg_rhmargin="428.692" x="43.597,48.284,52.904,56.751,61.303,65.083,68.446,70.753,75.09,80.06,86.153,92.245,96.798,101.485,103.234,107.659,112.279,116.126,117.874,122.844,127.531,130.961,132.151,133.899,136.119,136.119,136.119,136.185,136.185,136.185,136.185,136.185,136.185,136.185,136.185,138.95,142.521,146.65,149.03,152.81,155.466,155.466,157.847,162.084,163.55,167.047,171.176,175.097,175.097,176.266,178.01399999999998,179.157,182.654,184.82,186.985,190.482,193.421,194.887,198.317,201.746,205.243,208.74,210.395,211.861,215.358,217.664,221.393,224.823,227.203,231.333,232.799,235.179,239.308,242.805,246.678,250.108,253.047,256.967,259.348,263.268,267.048,270.619,272.999,277.128,279.509,283.288,285.669,289.798,293.676,296.056,299.836,303.407,305.787,309.566,310.74,312.488,313.575,318.403,323.232,328.145,329.611,333.108,336.329,338.495,341.991,344.298,347.587,349.053,352.133,355.63,361.196,364.626,368.123,371.344,373.51,377.007,379.313,382.602,385.682,389.179,394.639,400.1,403.715,407.212,408.752,411.832,415.054,417.219,418.759,422.256,425.753,428.692" y="774.772" style="fill:#ec7e1c;font-family:IEKFJH+AdvOTea1a7398;font-size:6.72px;font-style:NORMAL;font-weight:normal;">NATURE COMMUNICATIONS | (2019) 10:304 | https://doi.org/10.1038/s41467-018-08195-6 | www.nature.com/naturecommunications </text>
  <text x="547.483" y="774.772" svg_rhmargin="551.694" style="fill:#000000;font-family:IEKGAL+AdvTTda6f6cb8.B;font-size:7.22px;font-style:NORMAL;font-weight:normal;">1</text>
  <path d="M43.597 683.779 L551.679 683.779 L551.906 683.949 L551.906 684.177 L551.679 684.347 L43.597 684.347 L43.369 684.177 L43.369 683.949 " style="fill:none;stroke:#000000;stroke-width:1.0;"/>
  <path d="M33.604 89.452 " style="fill:none;stroke:#000000;stroke-width:1.0;"/>
  <path d=" M 33.60300064086914 744.6669921875 L 51.413002014160156 744.6669921875 C 59.22599792480469 744.6669921875 65.96600341796875 747.3569946289062 72.39700317382812 751.5369873046875 C 74.73799896240234 753.0590209960938 77.12200164794922 754.5150146484375 79.59600067138672 755.81298828125 C 80.14599609375 756.1010131835938 80.70700073242188 756.3690185546875 81.26899719238281 756.6339721679688 C 81.1300048828125 756.5679931640625 84.14700317382812 757.7109985351562 82.2449951171875 757.0919799804688 C 83.62899780273438 757.5419921875 85.05900573730469 757.8179931640625 86.5009994506836 757.9929809570312 C 91.82099914550781 758.6380004882812 97.0510025024414 756.8170166015625 101.77400207519531 754.5499877929688 C 112.31900024414062 749.4879760742188 121.37699890136719 741.719970703125 131.8939971923828 736.573974609375 C 139.39599609375 732.9049682617188 147.9600067138672 733.8109741210938 156.0800018310547 733.8109741210938 L 306.34600830078125 733.8109741210938 C 307.3139953613281 733.8109741210938 308.27398681640625 734.8590087890625 309.2250061035156 734.8590087890625 L 154.8470001220703 734.8590087890625 C 151.61300659179688 734.8590087890625 148.36199951171875 734.781005859375 145.1300048828125 734.927001953125 C 138.81500244140625 735.2109985351562 133.52700805664062 738.0800170898438 128.197998046875 741.2650146484375 C 122.60000610351562 744.6119995117188 117.14599609375 748.197998046875 111.62899780273438 751.6759643554688 C 106.36900329589844 754.990966796875 100.63499450683594 758.0570068359375 94.40800476074219 758.9669799804688 C 85.83300018310547 760.2219848632812 77.09400177001953 755.323974609375 70.15800476074219 750.9010009765625 C 68.00199890136719 749.5260009765625 65.8280029296875 747.6010131835938 63.33000183105469 746.9019775390625 C 61.20899963378906 746.3079833984375 59.000999450683594 746.0089721679688 56.81100082397461 745.822998046875 C 55.30500030517578 745.6950073242188 53.802001953125 745.7149658203125 52.29199981689453 745.7149658203125 L 36.48200225830078 745.7149658203125 C 35.51499938964844 745.7149658203125 34.55400085449219 744.6669921875 33.60300064086914 744.6669921875" style="fill:none;stroke:#000000;stroke-width:1.0;"/>
  <path d=" M 33.60300064086914 742.8579711914062 L 45.816001892089844 742.8579711914062 C 51.35700225830078 742.8579711914062 56.53200149536133 742.625 61.78099822998047 744.5519409179688 C 65.76100158691406 746.0130004882812 68.72100067138672 748.345947265625 71.25399780273438 751.7489624023438 C 73.81999969482422 755.1969604492188 75.79000091552734 760.2809448242188 79.90800476074219 762.1439819335938 C 78.96499633789062 761.7989501953125 78.02299499511719 761.4549560546875 77.08100128173828 761.1109619140625 C 79.8479995727539 762.031982421875 81.9739990234375 760.0549926757812 83.66799926757812 758.0929565429688 C 85.78500366210938 755.6409912109375 87.51899719238281 752.8269653320312 89.52099609375 750.2769775390625 C 93.07200622558594 745.751953125 97.4540023803711 741.5439453125 103.46099853515625 741.0669555664062 C 110.77099609375 740.4859619140625 119.25999450683594 743.2879638671875 125.13999938964844 747.5239868164062 C 127.60200500488281 749.2979736328125 129.68499755859375 751.5309448242188 132.11399841308594 753.3409423828125 C 132.7209930419922 753.7939453125 133.94200134277344 754.06396484375 132.0749969482422 753.616943359375 C 132.52499389648438 753.7249755859375 133.0 753.720947265625 133.45899963378906 753.6929931640625 C 134.4040069580078 753.6349487304688 135.2989959716797 753.011962890625 136.04800415039062 752.4949951171875 C 138.1020050048828 751.0769653320312 139.84100341796875 749.1449584960938 141.63999938964844 747.4309692382812 C 144.27200317382812 744.9229736328125 147.04100036621094 742.6319580078125 150.06199645996094 740.60595703125 C 152.13800048828125 739.2129516601562 154.1580047607422 737.7369995117188 156.4739990234375 736.760986328125 C 158.8090057373047 735.7769775390625 161.4459991455078 735.6209716796875 163.9459991455078 735.6209716796875 L 290.5159912109375 735.6209716796875 C 291.4840087890625 735.6209716796875 292.4440002441406 736.6689453125 293.39599609375 736.6689453125 L 167.4980010986328 736.6689453125 C 164.322998046875 736.6689453125 161.24900817871094 736.9010009765625 158.33399963378906 738.260986328125 C 152.781005859375 740.8529663085938 147.8330078125 745.2979736328125 143.45899963378906 749.4929809570312 C 140.60299682617188 752.22998046875 137.83099365234375 755.75 133.55299377441406 754.241943359375 C 132.22999572753906 753.7749633789062 130.9040069580078 753.3399658203125 129.6999969482422 752.6099853515625 C 126.99099731445312 750.9669799804688 124.77200317382812 748.4019775390625 122.26100158691406 746.4759521484375 C 118.4320068359375 743.5409545898438 113.67799377441406 742.1709594726562 108.88400268554688 742.095947265625 C 103.84599304199219 742.0179443359375 99.9429931640625 743.5879516601562 96.24200439453125 747.031982421875 C 91.70199584960938 751.2559814453125 89.13200378417969 757.5069580078125 84.3030014038086 761.3419799804688 C 81.70600128173828 763.4039916992188 77.6300048828125 761.864990234375 75.28500366210938 760.0130004882812 C 71.58999633789062 757.095947265625 69.72700500488281 752.0709838867188 66.64599609375 748.552978515625 C 65.19499969482422 746.89697265625 63.10099792480469 744.9349975585938 60.90800094604492 744.386962890625 C 57.28499984741211 743.4819946289062 53.29199981689453 743.9059448242188 49.59600067138672 743.9059448242188 L 36.48200225830078 743.9059448242188 C 35.51499938964844 743.9059448242188 34.55400085449219 742.8579711914062 33.60300064086914 742.8579711914062" style="fill:none;stroke:#000000;stroke-width:1.0;"/>
  <path d=" M 33.60300064086914 746.4769897460938 C 39.07600021362305 746.4769897460938 44.54899978637695 746.5079956054688 50.022003173828125 746.4760131835938 C 55.165000915527344 746.4469604492188 60.36499786376953 745.9550170898438 65.38999938964844 744.85498046875 C 71.51000213623047 743.5139770507812 77.67399597167969 740.0269775390625 84.06999969482422 741.4349975585938 C 87.00799560546875 742.0830078125 90.13299560546875 743.416015625 92.34500122070312 745.4569702148438 C 95.08799743652344 747.9879760742188 96.59500122070312 751.5899658203125 98.38800048828125 754.7860107421875 C 99.14300537109375 756.1300048828125 99.99000549316406 757.4240112304688 101.09800720214844 758.5050048828125 C 101.94900512695312 759.3349609375 103.4949951171875 759.532958984375 101.23699951171875 759.0419921875 C 102.30099487304688 759.2739868164062 103.44200134277344 759.1209716796875 104.48199462890625 758.8629760742188 C 109.17300415039062 757.7019653320312 109.94400024414062 751.0869750976562 110.60400390625 747.2139892578125 C 111.13200378417969 744.115966796875 111.57499694824219 741.0059814453125 112.20599365234375 737.9249877929688 C 112.85800170898438 734.7359619140625 113.58000183105469 731.35400390625 115.81100463867188 728.865966796875 C 118.46000671386719 725.9099731445312 123.09500122070312 726.2639770507812 126.48800659179688 727.4229736328125 C 131.968994140625 729.2949829101562 137.23899841308594 730.9210205078125 143.04299926757812 731.52099609375 C 147.0449981689453 731.9349975585938 151.07400512695312 732.0020141601562 155.093994140625 732.0020141601562 L 318.09100341796875 732.0020141601562 C 319.0579833984375 732.0020141601562 320.01898193359375 733.0509643554688 320.9700012207031 733.0509643554688 L 168.42999267578125 733.0509643554688 C 157.63999938964844 733.0509643554688 146.3350067138672 733.7869873046875 135.9080047607422 730.7340087890625 C 131.9080047607422 729.56298828125 128.27099609375 727.4749755859375 124.15400695800781 727.6489868164062 C 117.85699462890625 727.9149780273438 116.21600341796875 733.740966796875 115.08500671386719 738.9729614257812 C 113.7080078125 745.3359985351562 113.79800415039062 763.5999755859375 102.68000793457031 759.6599731445312 C 100.50999450683594 758.8909912109375 98.74800109863281 758.2210083007812 97.24200439453125 756.3889770507812 C 95.46699523925781 754.2269897460938 94.36399841308594 751.5260009765625 92.98400115966797 749.114013671875 C 91.46099853515625 746.448974609375 89.56800079345703 744.0339965820312 86.86299896240234 742.5 C 86.26699829101562 742.2119750976562 86.29600524902344 742.2069702148438 86.94999694824219 742.4829711914062 C 86.41699981689453 742.3419799804688 85.86799621582031 742.27001953125 85.322998046875 742.1959838867188 C 84.30500030517578 742.0589599609375 83.2770004272461 742.083984375 82.25799560546875 742.1749877929688 C 79.31300354003906 742.4400024414062 76.39500427246094 743.5689697265625 73.58799743652344 744.4299926757812 C 61.454002380371094 748.1530151367188 49.000999450683594 747.5249633789062 36.48200225830078 747.5249633789062 C 35.51499938964844 747.5249633789062 34.55400085449219 746.4769897460938 33.60300064086914 746.4769897460938" style="fill:none;stroke:#000000;stroke-width:1.0;"/>
  <path d=" M 43.25600051879883 724.6439819335938 C 43.43600082397461 724.6439819335938 45.327999114990234 724.7340087890625 45.77899932861328 724.7340087890625 C 46.22999954223633 724.7340087890625 47.979000091552734 724.6439819335938 48.23099899291992 724.6439819335938 C 48.483001708984375 724.6439819335938 48.80799865722656 724.6259765625 48.80799865722656 724.8419799804688 C 48.80799865722656 725.0579833984375 48.249000549316406 725.1129760742188 47.96099853515625 725.2389526367188 C 47.58300018310547 725.4019775390625 47.275001525878906 725.5989990234375 47.204002380371094 725.9779663085938 C 47.05900192260742 726.6629638671875 47.04199981689453 727.6189575195312 47.04199981689453 729.6380004882812 C 47.04199981689453 731.1339721679688 47.05900192260742 732.7179565429688 47.492000579833984 733.4769897460938 C 47.79899978637695 734.0169677734375 48.62800216674805 734.6839599609375 49.58399963378906 734.6839599609375 C 50.520999908447266 734.6839599609375 51.079002380371094 734.5029907226562 51.62000274658203 733.8729858398438 C 52.1609992980957 733.2429809570312 52.143001556396484 731.8899536132812 52.143001556396484 729.6009521484375 C 52.143001556396484 727.7439575195312 52.143001556396484 726.7899780273438 52.052001953125 726.1220092773438 C 51.9630012512207 725.4739990234375 51.638999938964844 725.3469848632812 51.132999420166016 725.1649780273438 C 50.71900177001953 725.0239868164062 50.2140007019043 725.0399780273438 50.2140007019043 724.8070068359375 C 50.2140007019043 724.6619873046875 50.41200256347656 724.6439819335938 50.86199951171875 724.6439819335938 C 51.1879997253418 724.6439819335938 52.70100021362305 724.7340087890625 53.36800003051758 724.7340087890625 C 54.0359992980957 724.7340087890625 55.459999084472656 724.6439819335938 55.749000549316406 724.6439819335938 C 56.0359992980957 724.6439819335938 56.25199890136719 724.6809692382812 56.25199890136719 724.8590087890625 C 56.25199890136719 725.0579833984375 55.893001556396484 725.0769653320312 55.62200164794922 725.1499633789062 C 54.52300262451172 725.43701171875 54.52300262451172 725.3819580078125 54.52300262451172 728.4660034179688 C 54.52300262451172 729.2420043945312 54.540000915527344 730.3219604492188 54.540000915527344 732.0349731445312 C 54.540000915527344 732.8460083007812 54.45000076293945 734.0709838867188 54.018001556396484 734.6839599609375 C 53.422000885009766 735.5139770507812 52.55799865722656 736.126953125 51.079002380371094 736.126953125 C 48.71800231933594 736.126953125 47.69000244140625 734.1610107421875 47.25699996948242 734.1610107421875 C 47.112998962402344 734.1610107421875 47.07699966430664 734.3419799804688 47.07699966430664 734.5029907226562 L 47.07699966430664 735.7109985351562 C 47.07699966430664 736.0 47.04199981689453 736.2349853515625 46.84300231933594 736.2349853515625 C 46.71699905395508 736.2349853515625 46.55500030517578 736.1079711914062 46.46500015258789 736.0369873046875 C 45.4370002746582 735.1529541015625 44.44499969482422 734.468994140625 43.3640022277832 734.1069946289062 C 43.25600051879883 734.0709838867188 43.18400192260742 734.0349731445312 43.18400192260742 733.8909912109375 C 43.18400192260742 733.72900390625 43.417999267578125 733.72900390625 43.81500244140625 733.6740112304688 C 44.121002197265625 733.6380004882812 44.374000549316406 733.5130004882812 44.48200225830078 733.3689575195312 C 44.715999603271484 733.06201171875 44.715999603271484 732.0889892578125 44.715999603271484 730.5379638671875 C 44.715999603271484 728.2849731445312 44.698001861572266 726.8259887695312 44.571998596191406 725.9779663085938 C 44.48200225830078 725.4190063476562 44.19300079345703 725.3289794921875 43.63500213623047 725.1849975585938 C 43.20199966430664 725.0769653320312 42.823001861572266 725.0399780273438 42.823001861572266 724.823974609375 C 42.823001861572266 724.6619873046875 42.93199920654297 724.6439819335938 43.25600051879883 724.6439819335938 Z M 61.69599914550781 726.572998046875 C 61.279998779296875 725.9779663085938 60.79399871826172 725.6170043945312 60.16400146484375 725.6170043945312 C 59.56800079345703 725.6170043945312 58.775001525878906 726.032958984375 58.775001525878906 727.0589599609375 C 58.775001525878906 728.8980102539062 61.49700164794922 730.2319946289062 61.84000015258789 730.2319946289062 C 62.11000061035156 730.2319946289062 62.23699951171875 730.10595703125 62.23699951171875 729.7279663085938 C 62.23699951171875 728.4840087890625 62.18299865722656 727.2760009765625 61.69599914550781 726.572998046875 Z M 64.30899810791016 724.572998046875 C 65.91400146484375 724.572998046875 66.87000274658203 725.9599609375 66.87000274658203 726.4099731445312 C 66.87000274658203 726.5009765625 66.83300018310547 726.6090087890625 66.7249984741211 726.6090087890625 C 66.56199645996094 726.6090087890625 66.1300048828125 725.9419555664062 65.33599853515625 725.9419555664062 C 64.58000183105469 725.9419555664062 64.41699981689453 726.698974609375 64.41699981689453 727.4929809570312 C 64.41699981689453 728.2849731445312 64.61599731445312 732.4859619140625 64.61599731445312 734.052978515625 C 64.61599731445312 735.9639892578125 62.88600158691406 736.2699584960938 61.388999938964844 736.2699584960938 C 58.25299835205078 736.2699584960938 56.43299865722656 733.8909912109375 56.43299865722656 732.7550048828125 C 56.43299865722656 732.3410034179688 56.79199981689453 732.1610107421875 57.04499816894531 732.1610107421875 C 57.496002197265625 732.1610107421875 58.14500045776367 732.448974609375 58.30699920654297 732.9539794921875 C 58.667999267578125 734.1430053710938 59.20800018310547 735.6759643554688 60.86600112915039 735.6759643554688 C 61.49700164794922 735.6759643554688 61.93000030517578 735.5669555664062 62.253997802734375 734.9190063476562 C 62.41699981689453 734.593994140625 62.38100051879883 734.0349731445312 62.38100051879883 733.31396484375 C 62.38100051879883 730.843994140625 62.34400177001953 731.1519775390625 60.00199890136719 729.97998046875 C 58.54199981689453 729.2420043945312 56.64900207519531 728.3389892578125 56.64900207519531 726.4639892578125 C 56.64900207519531 725.6170043945312 57.262001037597656 724.3919677734375 58.79399871826172 724.3919677734375 C 60.34300231933594 724.3919677734375 61.44300079345703 725.364990234375 62.02000045776367 726.1950073242188 C 62.03900146484375 726.22998046875 62.07400131225586 726.2479858398438 62.12799835205078 726.2479858398438 C 62.21800231933594 726.2479858398438 62.253997802734375 726.1759643554688 62.272003173828125 726.0849609375 C 62.52400207519531 725.2919921875 63.22800064086914 724.572998046875 64.30899810791016 724.572998046875 Z M 91.94200134277344 724.6439819335938 C 92.13899993896484 724.6439819335938 92.48200225830078 724.6439819335938 92.48200225830078 724.823974609375 C 92.48200225830078 725.0579833984375 92.24700164794922 725.0399780273438 91.95899963378906 725.094970703125 C 91.61700439453125 725.1649780273438 90.49800109863281 725.3289794921875 90.21099853515625 725.7789916992188 C 89.95800018310547 726.1589965820312 89.99400329589844 727.6900024414062 89.99400329589844 729.656005859375 C 89.99400329589844 731.7639770507812 90.02999877929688 733.2059936523438 90.47999572753906 733.7099609375 C 90.64300537109375 733.8909912109375 90.82400512695312 734.2160034179688 91.27299499511719 734.2160034179688 C 92.15800476074219 734.2160034179688 92.35499572753906 733.2059936523438 93.33000183105469 733.2059936523438 C 94.06800079345703 733.2059936523438 94.71800231933594 733.7470092773438 94.71800231933594 734.6119995117188 C 94.71800231933594 735.458984375 94.08599853515625 736.1629638671875 93.11299896240234 736.1629638671875 C 91.39900207519531 736.1629638671875 90.51599884033203 734.2329711914062 90.15699768066406 734.2329711914062 C 90.08399963378906 734.2329711914062 90.01300048828125 734.2689819335938 90.01300048828125 734.5029907226562 L 90.01300048828125 735.802001953125 C 90.01300048828125 736.1439819335938 89.88700103759766 736.2349853515625 89.75900268554688 736.2349853515625 C 89.6510009765625 736.2349853515625 89.50700378417969 736.198974609375 89.16400146484375 735.85595703125 C 88.47999572753906 735.18896484375 86.96600341796875 734.3419799804688 86.58599853515625 734.197998046875 C 86.26300048828125 734.0709838867188 86.10000610351562 734.0169677734375 86.10000610351562 733.85498046875 C 86.10000610351562 733.7639770507812 86.22700500488281 733.72900390625 86.38899993896484 733.7099609375 C 87.61500549316406 733.6380004882812 87.66899871826172 733.3309936523438 87.66899871826172 730.2669677734375 C 87.66899871826172 727.2039794921875 87.63299560546875 726.2479858398438 87.47000122070312 725.7959594726562 C 87.30799865722656 725.3469848632812 86.49600219726562 725.1849975585938 86.281005859375 725.1300048828125 C 86.01000213623047 725.0579833984375 85.7030029296875 725.0239868164062 85.7030029296875 724.823974609375 C 85.7030029296875 724.6619873046875 86.01000213623047 724.6439819335938 86.22700500488281 724.6439819335938 C 86.44400024414062 724.6439819335938 88.19100189208984 724.7340087890625 89.00300598144531 724.7340087890625 C 89.81399536132812 724.7340087890625 91.74299621582031 724.6439819335938 91.94200134277344 724.6439819335938 Z M 99.80099487304688 735.7109985351562 C 101.31300354003906 735.7109985351562 101.83700561523438 734.6119995117188 101.83700561523438 734.1069946289062 C 101.83700561523438 732.7919921875 99.81900024414062 732.6829833984375 98.37699890136719 732.6829833984375 C 97.1510009765625 732.6829833984375 96.79000091552734 732.7730102539062 96.79000091552734 733.0989990234375 C 96.79000091552734 733.98095703125 97.80000305175781 735.7109985351562 99.80099487304688 735.7109985351562 Z M 99.26000213623047 724.4099731445312 C 102.03399658203125 724.4099731445312 104.14300537109375 726.9509887695312 104.14300537109375 727.4019775390625 C 104.14300537109375 727.4929809570312 104.10800170898438 727.56396484375 103.96400451660156 727.56396484375 C 103.78300476074219 727.56396484375 102.80900573730469 726.0130004882812 100.59300231933594 726.0130004882812 C 97.63800048828125 726.0130004882812 96.48500061035156 728.3219604492188 96.48500061035156 730.9530029296875 C 96.48500061035156 732.053955078125 96.73600006103516 732.0719604492188 97.33000183105469 732.0719604492188 C 99.60200500488281 732.0719604492188 101.531005859375 731.927001953125 103.0979995727539 731.927001953125 C 103.81999969482422 731.927001953125 104.17900085449219 731.927001953125 104.17900085449219 732.5929565429688 C 104.17900085449219 734.4509887695312 102.34199523925781 736.2699584960938 99.927001953125 736.2699584960938 C 96.68199920654297 736.2699584960938 93.90699768066406 733.7470092773438 93.90699768066406 730.0869750976562 C 93.90699768066406 726.6090087890625 96.25 724.4099731445312 99.26000213623047 724.4099731445312 Z M 77.43000030517578 724.4099731445312 C 79.6300048828125 724.4099731445312 81.0 726.3209838867188 81.28800201416016 726.3209838867188 C 81.46800231933594 726.3209838867188 81.50399780273438 726.1220092773438 81.50399780273438 725.9229736328125 C 81.50399780273438 725.4190063476562 81.46800231933594 725.1129760742188 81.46800231933594 724.7340087890625 C 81.46800231933594 724.4469604492188 81.52200317382812 724.3200073242188 81.70199584960938 724.3200073242188 C 81.75700378417969 724.3200073242188 81.99000549316406 724.4099731445312 82.13500213623047 724.4639892578125 C 82.98200225830078 724.823974609375 84.94700622558594 725.31201171875 85.43400573730469 725.4019775390625 C 85.75799560546875 725.4559936523438 85.88400268554688 725.5279541015625 85.88400268554688 725.6539916992188 C 85.88400268554688 725.761962890625 85.81199645996094 725.8330078125 85.7040023803711 725.8330078125 C 85.59600067138672 725.8330078125 85.18099975585938 725.7959594726562 85.0009994506836 725.7959594726562 C 84.47799682617188 725.7959594726562 84.22599792480469 725.8699951171875 84.10000610351562 726.10400390625 C 83.91899871826172 726.428955078125 83.9020004272461 727.4929809570312 83.9020004272461 728.9349975585938 C 83.9020004272461 731.31396484375 84.08100128173828 734.3419799804688 84.08100128173828 735.2799682617188 C 84.08100128173828 735.6220092773438 83.9729995727539 735.7659912109375 83.55900573730469 735.7470092773438 L 79.89900207519531 735.656982421875 C 79.54000091552734 735.6389770507812 79.46699523925781 735.5669555664062 79.46699523925781 735.4049682617188 C 79.46699523925781 735.2249755859375 79.66500091552734 735.2249755859375 80.18800354003906 735.1529541015625 C 80.65800476074219 735.0989990234375 81.0530014038086 735.06298828125 81.30599975585938 734.8289794921875 C 81.61199951171875 734.5579833984375 81.61199951171875 733.2429809570312 81.61199951171875 730.5379638671875 C 81.61199951171875 729.2420043945312 81.59400177001953 727.6900024414062 81.30599975585938 727.1669921875 C 80.91000366210938 726.4469604492188 79.93499755859375 725.9949951171875 78.97999572753906 725.9949951171875 C 77.26800537109375 725.9949951171875 76.67300415039062 726.8619995117188 76.67300415039062 728.10498046875 C 76.70899963378906 733.1339721679688 76.7449951171875 734.1430053710938 76.7449951171875 735.2069702148438 C 76.7449951171875 735.7470092773438 76.69100189208984 735.8739624023438 76.16899871826172 735.85595703125 L 70.63500213623047 735.6389770507812 C 70.4540023803711 735.6389770507812 70.34600067138672 735.7659912109375 70.34600067138672 736.0180053710938 C 70.34600067138672 736.5230102539062 70.4000015258789 737.2799682617188 70.4000015258789 737.7669677734375 C 70.4000015258789 737.9829711914062 70.30999755859375 738.0919799804688 70.14800262451172 738.0919799804688 C 69.98500061035156 738.0919799804688 69.91400146484375 737.9110107421875 69.76899719238281 737.6950073242188 C 69.15599822998047 736.7749633789062 67.87699890136719 735.7659912109375 67.01200103759766 735.1529541015625 C 66.63300323486328 734.8829956054688 66.41699981689453 734.864990234375 66.41699981689453 734.6300048828125 C 66.41699981689453 734.5409545898438 66.50599670410156 734.5029907226562 66.61399841308594 734.5029907226562 L 67.40899658203125 734.5029907226562 C 67.93099975585938 734.5029907226562 67.94900512695312 734.1259765625 67.94900512695312 733.802001953125 C 67.94900512695312 733.4769897460938 67.822998046875 728.8259887695312 67.822998046875 727.8330078125 C 67.822998046875 725.8509521484375 68.25599670410156 724.4099731445312 70.2030029296875 724.4099731445312 C 72.0050048828125 724.4099731445312 73.69900512695312 725.9229736328125 73.69900512695312 726.1589965820312 C 73.69900512695312 726.22998046875 73.64500427246094 726.2849731445312 73.55500030517578 726.2849731445312 C 73.46400451660156 726.2849731445312 72.54499816894531 725.8330078125 71.697998046875 725.8330078125 C 71.04899597167969 725.8330078125 70.67100524902344 725.9949951171875 70.41699981689453 726.4469604492188 C 70.14800262451172 726.9509887695312 70.16600036621094 727.7080078125 70.16600036621094 728.9530029296875 C 70.16600036621094 731.927001953125 70.2030029296875 733.2959594726562 70.25599670410156 734.197998046875 C 70.29199981689453 734.79296875 70.34600067138672 734.8289794921875 70.70600128173828 734.8469848632812 C 71.08399963378906 734.864990234375 71.62699890136719 734.8829956054688 72.29199981689453 734.8829956054688 C 74.33000183105469 734.8829956054688 74.36499786376953 734.8829956054688 74.36499786376953 733.85498046875 C 74.36499786376953 733.3309936523438 74.2760009765625 729.1499633789062 74.2760009765625 727.7259521484375 C 74.2760009765625 725.1649780273438 76.11500549316406 724.4099731445312 77.43000030517578 724.4099731445312 Z M 123.13800048828125 714.322998046875 L 124.07899475097656 717.322998046875 L 124.10699462890625 717.322998046875 L 124.97999572753906 714.322998046875 L 123.13800048828125 714.322998046875 Z M 122.6199951171875 720.5819702148438 L 119.03399658203125 710.844970703125 L 122.04800415039062 710.844970703125 L 122.48399353027344 712.2359619140625 L 125.57899475097656 712.2359619140625 L 125.98899841308594 710.844970703125 L 129.0970001220703 710.844970703125 L 125.55299377441406 720.5819702148438 L 122.6199951171875 720.5819702148438 Z M 106.39099884033203 710.844970703125 L 109.38999938964844 710.844970703125 L 109.38999938964844 720.5811767578125 L 106.39099884033203 720.5811767578125 Z M 116.39999389648438 714.6640014648438 C 116.22300720214844 713.75 115.82699584960938 713.0409545898438 114.8179931640625 713.0409545898438 C 113.41400146484375 713.0409545898438 112.96400451660156 714.4039916992188 112.96400451660156 715.7119750976562 C 112.96400451660156 717.0230102539062 113.41400146484375 718.385986328125 114.8179931640625 718.385986328125 C 116.05900573730469 718.385986328125 116.33200073242188 717.3079833984375 116.38699340820312 716.9549560546875 L 119.30400085449219 716.9549560546875 C 119.04499816894531 719.39599609375 117.572998046875 720.7990112304688 114.89999389648438 720.81396484375 C 111.89999389648438 720.81396484375 109.96400451660156 718.781005859375 109.96400451660156 715.7119750976562 C 109.96400451660156 712.8349609375 111.75 710.6129760742188 114.89999389648438 710.6129760742188 C 117.75100708007812 710.6129760742188 119.34500122070312 712.698974609375 119.34500122070312 714.6640014648438 L 116.39999389648438 714.6640014648438 Z M 156.56900024414062 715.3729858398438 L 156.54200744628906 715.3729858398438 L 153.7050018310547 720.5819702148438 L 150.63699340820312 720.5819702148438 L 150.63699340820312 710.844970703125 L 153.47300720214844 710.844970703125 L 153.47300720214844 716.1640014648438 L 153.50100708007812 716.1640014648438 L 156.48699951171875 710.844970703125 L 159.406005859375 710.844970703125 L 159.406005859375 720.5819702148438 L 156.56900024414062 720.5819702148438 L 156.56900024414062 715.3729858398438 Z M 165.7209930419922 716.7769775390625 C 164.34500122070312 717.157958984375 162.9530029296875 717.3079833984375 162.8990020751953 718.0029907226562 C 162.8990020751953 718.5499877929688 163.5659942626953 718.6599731445312 163.9759979248047 718.6599731445312 C 164.2760009765625 718.6599731445312 164.61599731445312 718.5910034179688 164.86199951171875 718.4140014648438 C 165.10699462890625 718.25 165.27200317382812 718.0029907226562 165.2169952392578 717.635986328125 L 168.05299377441406 717.635986328125 C 167.9720001220703 720.0079956054688 166.10400390625 720.81396484375 163.99000549316406 720.81396484375 C 161.98500061035156 720.81396484375 160.06300354003906 719.844970703125 160.06300354003906 717.594970703125 C 160.06300354003906 715.6309814453125 161.8209991455078 715.2080078125 163.36199951171875 714.77197265625 C 165.0399932861328 714.2949829101562 165.46200561523438 714.1599731445312 165.46200561523438 713.6539916992188 C 165.46200561523438 712.9309692382812 164.71299743652344 712.7669677734375 164.2209930419922 712.7669677734375 C 163.66200256347656 712.7669677734375 163.00799560546875 712.8899536132812 162.78900146484375 713.4759521484375 C 162.7209930419922 713.6539916992188 162.6800079345703 713.8729858398438 162.6800079345703 714.1179809570312 L 159.6800079345703 714.1179809570312 C 159.7080078125 711.0089721679688 162.85800170898438 710.6129760742188 163.96200561523438 710.6129760742188 C 166.1300048828125 710.6129760742188 168.46200561523438 711.4309692382812 168.46200561523438 713.9679565429688 C 168.46200561523438 715.7539672851562 167.09800720214844 716.3949584960938 165.7209930419922 716.7769775390625 Z M 127.71099853515625 718.0849609375 L 130.43800354003906 718.0849609375 L 130.43800354003906 710.844970703125 L 133.43800354003906 710.844970703125 L 133.43800354003906 718.0849609375 L 136.1649932861328 718.0849609375 L 136.1649932861328 720.5819702148438 L 127.71099853515625 720.5819702148438 L 127.71099853515625 718.0849609375 Z M 145.0989990234375 713.0409545898438 C 144.33599853515625 713.0409545898438 143.16299438476562 713.5440063476562 143.16299438476562 715.7119750976562 C 143.16299438476562 717.8819580078125 144.33599853515625 718.385986328125 145.0989990234375 718.385986328125 C 145.86300659179688 718.385986328125 147.03500366210938 717.8819580078125 147.03500366210938 715.7119750976562 C 147.03500366210938 713.5440063476562 145.86300659179688 713.0409545898438 145.0989990234375 713.0409545898438 Z M 145.0989990234375 720.81396484375 C 142.13999938964844 720.81396484375 140.16299438476562 718.6859741210938 140.16299438476562 715.7119750976562 C 140.16299438476562 712.740966796875 142.13999938964844 710.6129760742188 145.0989990234375 710.6129760742188 C 148.05799865722656 710.6129760742188 150.03599548339844 712.740966796875 150.03599548339844 715.7119750976562 C 150.03599548339844 718.6859741210938 148.05799865722656 720.81396484375 145.0989990234375 720.81396484375 Z M 136.58900451660156 710.844970703125 L 139.58900451660156 710.844970703125 L 139.58900451660156 720.5811767578125 L 136.58900451660156 720.5811767578125 Z M 92.88700103759766 715.2769775390625 C 92.88700103759766 714.281005859375 92.88700103759766 713.0409545898438 91.46900177001953 713.0409545898438 C 90.01000213623047 713.0409545898438 90.01000213623047 714.281005859375 90.01000213623047 715.2769775390625 L 90.01000213623047 720.5819702148438 L 87.00900268554688 720.5819702148438 L 87.00900268554688 714.6090087890625 C 87.00900268554688 711.907958984375 88.48200225830078 710.6129760742188 91.45500183105469 710.6129760742188 C 94.4280014038086 710.6129760742188 95.88800048828125 711.907958984375 95.88800048828125 714.6090087890625 L 95.88800048828125 720.5819702148438 L 92.88700103759766 720.5819702148438 L 92.88700103759766 715.2769775390625 Z M 68.33599853515625 714.8529663085938 L 68.30999755859375 714.8529663085938 L 66.91899871826172 720.5819702148438 L 62.650001525878906 720.5819702148438 L 62.650001525878906 710.844970703125 L 65.48600006103516 710.844970703125 L 65.48600006103516 717.0910034179688 L 65.51399993896484 717.0910034179688 L 67.20500183105469 710.844970703125 L 69.44100189208984 710.844970703125 L 71.13200378417969 717.0910034179688 L 71.15899658203125 717.0910034179688 L 71.15899658203125 710.844970703125 L 73.99600219726562 710.844970703125 L 73.99600219726562 720.5819702148438 L 69.72700500488281 720.5819702148438 L 68.33599853515625 714.8529663085938 Z M 57.138999938964844 713.0409545898438 C 56.375999450683594 713.0409545898438 55.202999114990234 713.5440063476562 55.202999114990234 715.7119750976562 C 55.202999114990234 717.8819580078125 56.375999450683594 718.385986328125 57.138999938964844 718.385986328125 C 57.90299987792969 718.385986328125 59.07500076293945 717.8819580078125 59.07500076293945 715.7119750976562 C 59.07500076293945 713.5440063476562 57.90299987792969 713.0409545898438 57.138999938964844 713.0409545898438 Z M 57.138999938964844 720.81396484375 C 54.18000030517578 720.81396484375 52.202999114990234 718.6859741210938 52.202999114990234 715.7119750976562 C 52.202999114990234 712.740966796875 54.18000030517578 710.6129760742188 57.138999938964844 710.6129760742188 C 60.0989990234375 710.6129760742188 62.07600021362305 712.740966796875 62.07600021362305 715.7119750976562 C 62.07600021362305 718.6859741210938 60.0989990234375 720.81396484375 57.138999938964844 720.81396484375 Z M 47.387001037597656 713.0409545898438 C 45.98200225830078 713.0409545898438 45.53300094604492 714.4039916992188 45.53300094604492 715.7119750976562 C 45.53300094604492 717.0230102539062 45.98200225830078 718.385986328125 47.387001037597656 718.385986328125 C 48.62800216674805 718.385986328125 48.9010009765625 717.3079833984375 48.95500183105469 716.9549560546875 L 51.874000549316406 716.9549560546875 C 51.61399841308594 719.39599609375 50.14099884033203 720.7990112304688 47.46900177001953 720.81396484375 C 44.46900177001953 720.81396484375 42.53300094604492 718.781005859375 42.53300094604492 715.7119750976562 C 42.53300094604492 712.8349609375 44.319000244140625 710.6129760742188 47.46900177001953 710.6129760742188 C 50.319000244140625 710.6129760742188 51.915000915527344 712.698974609375 51.915000915527344 714.6640014648438 L 48.96900177001953 714.6640014648438 C 48.79199981689453 713.75 48.395999908447266 713.0409545898438 47.387001037597656 713.0409545898438 Z M 80.52999877929688 714.8529663085938 L 80.50300598144531 714.8529663085938 L 79.11199951171875 720.5819702148438 L 74.84400177001953 720.5819702148438 L 74.84400177001953 710.844970703125 L 77.68000030517578 710.844970703125 L 77.68000030517578 717.0910034179688 L 77.70700073242188 717.0910034179688 L 79.39799499511719 710.844970703125 L 81.63500213623047 710.844970703125 L 83.32499694824219 717.0910034179688 L 83.35299682617188 717.0910034179688 L 83.35299682617188 710.844970703125 L 86.18899536132812 710.844970703125 L 86.18899536132812 720.5819702148438 L 81.92100524902344 720.5819702148438 L 80.52999877929688 714.8529663085938 Z M 102.66500091552734 715.3729858398438 L 102.63800048828125 715.3729858398438 L 99.8030014038086 720.5819702148438 L 96.73400115966797 720.5819702148438 L 96.73400115966797 710.844970703125 L 99.57099914550781 710.844970703125 L 99.57099914550781 716.1640014648438 L 99.5979995727539 716.1640014648438 L 102.58300018310547 710.844970703125 L 105.50199890136719 710.844970703125 L 105.50199890136719 720.5819702148438 L 102.66500091552734 720.5819702148438 L 102.66500091552734 715.3729858398438" style="fill:none;stroke:#000000;stroke-width:1.0;"/>
  <text svg_rhmargin="10.488" transform="matrix(0.0,-1.0,1.0,0.0,-341.185,362.161)" x="10.488" y="351.673" style="fill:#ffffff;font-family:IEKFJH+AdvOTea1a7398;font-size:1.0px;font-style:NORMAL;font-weight:normal;">1</text>
  <text svg_rhmargin="10.488" transform="matrix(0.0,-1.0,1.0,0.0,-339.421,360.397)" x="10.488" y="349.909" style="fill:#ffffff;font-family:IEKFJH+AdvOTea1a7398;font-size:1.0px;font-style:NORMAL;font-weight:normal;">2</text>
  <text svg_rhmargin="10.488" transform="matrix(0.0,-1.0,1.0,0.0,-336.776,357.752)" x="10.488" y="347.264" style="fill:#ffffff;font-family:IEKFJH+AdvOTea1a7398;font-size:1.0px;font-style:NORMAL;font-weight:normal;">3</text>
  <text svg_rhmargin="10.488" transform="matrix(0.0,-1.0,1.0,0.0,-334.186,355.162)" x="10.488" y="344.674" style="fill:#ffffff;font-family:IEKFJH+AdvOTea1a7398;font-size:1.0px;font-style:NORMAL;font-weight:normal;">4</text>
  <text svg_rhmargin="10.488" transform="matrix(0.0,-1.0,1.0,0.0,-331.282,352.258)" x="10.488" y="341.77" style="fill:#ffffff;font-family:IEKFJH+AdvOTea1a7398;font-size:1.0px;font-style:NORMAL;font-weight:normal;">5</text>
  <text svg_rhmargin="10.488" transform="matrix(0.0,-1.0,1.0,0.0,-328.637,349.613)" x="10.488" y="339.125" style="fill:#ffffff;font-family:IEKFJH+AdvOTea1a7398;font-size:1.0px;font-style:NORMAL;font-weight:normal;">6</text>
  <text svg_rhmargin="10.488" transform="matrix(0.0,-1.0,1.0,0.0,-325.837,346.813)" x="10.488" y="336.325" style="fill:#ffffff;font-family:IEKFJH+AdvOTea1a7398;font-size:1.0px;font-style:NORMAL;font-weight:normal;">7</text>
  <text svg_rhmargin="10.488" transform="matrix(0.0,-1.0,1.0,0.0,-323.192,344.168)" x="10.488" y="333.68" style="fill:#ffffff;font-family:IEKFJH+AdvOTea1a7398;font-size:1.0px;font-style:NORMAL;font-weight:normal;">8</text>
  <text svg_rhmargin="10.488" transform="matrix(0.0,-1.0,1.0,0.0,-320.393,341.369)" x="10.488" y="330.881" style="fill:#ffffff;font-family:IEKFJH+AdvOTea1a7398;font-size:1.0px;font-style:NORMAL;font-weight:normal;">9</text>
  <text svg_rhmargin="10.488" transform="matrix(0.0,-1.0,1.0,0.0,-317.431,338.407)" x="10.488" y="327.919" style="fill:#ffffff;font-family:IEKFJH+AdvOTea1a7398;font-size:1.0px;font-style:NORMAL;font-weight:normal;">0</text>
  <text svg_rhmargin="10.488" transform="matrix(0.0,-1.0,1.0,0.0,-314.372,335.348)" x="10.488" y="324.86" style="fill:#ffffff;font-family:IEKFJH+AdvOTea1a7398;font-size:1.0px;font-style:NORMAL;font-weight:normal;">(</text>
  <text svg_rhmargin="10.488" transform="matrix(0.0,-1.0,1.0,0.0,-312.405,333.381)" x="10.488" y="322.893" style="fill:#ffffff;font-family:IEKFJH+AdvOTea1a7398;font-size:1.0px;font-style:NORMAL;font-weight:normal;">)</text>
  <text svg_rhmargin="10.488" transform="matrix(0.0,-1.0,1.0,0.0,-310.437,331.413)" x="10.488" y="320.925" style="fill:#ffffff;font-family:IEKFJH+AdvOTea1a7398;font-size:1.0px;font-style:NORMAL;font-weight:normal;">:</text>
  <text svg_rhmargin="10.488" transform="matrix(0.0,-1.0,1.0,0.0,-309.351,330.327)" x="10.488" y="319.839" style="fill:#ffffff;font-family:IEKFJH+AdvOTea1a7398;font-size:1.0px;font-style:NORMAL;font-weight:normal;">,</text>
  <text svg_rhmargin="10.488" transform="matrix(0.0,-1.0,1.0,0.0,-308.265,329.241)" x="10.488" y="318.753" style="fill:#ffffff;font-family:IEKFJH+AdvOTea1a7398;font-size:1.0px;font-style:NORMAL;font-weight:normal;">;</text>
 </g>
</svg>
