<?xml version="1.0" encoding="UTF-8"?>
<svg height="800.865966796875" width="613.780029296875" xmlns="http://www.w3.org/2000/svg">
 <g style="fill:none;">
  <path d=" M 0.0 753.448974609375 L 603.780029296875 753.448974609375 L 603.780029296875 790.865966796875 L 0.0 790.865966796875 Z " style="fill:none;stroke:#000000;stroke-width:1.0;"/>
  <text svg_rhmargin="198.52" x="40.638,48.208,55.778,63.055,66.145,71.865,77.215,81.135,86.765,90.565,95.995,99.085,103.915,109.695,118.435,121.635,126.125,130.955,133.725,139.15,144.87,148.79,151.56,155.19,157.96,162.79,166.59,172.02,177.78,183.56,187.36,191.28,195.77,198.52" y="781.868" style="fill:#ffffff;font-family:ODDWKG+Corbel;font-size:10.0px;font-style:NORMAL;font-weight:normal;">www.nature.com/scientificreports/ </text>
  <text x="550.36" y="781.868" svg_rhmargin="554.64" style="fill:#839097;font-family:ODDWKG+Corbel;font-size:10.0px;font-style:NORMAL;font-weight:normal;">7</text>
  <text x="40.794,45.642,50.786,52.754000000000005,53.186,58.026,64.026,68.898,70.866,71.298,75.762,77.73,78.162,83.162" y="781.831" svg_rhmargin="84.762" style="fill:#839097;font-family:ODDWKG+Corbel;font-size:8.0px;font-style:NORMAL;font-weight:normal;">Sci enti fi c </text>
  <text x="84.762,90.218,95.194,100.434,106.738,112.194,117.186" y="781.831" svg_rhmargin="121.802" style="fill:#839097;font-family:MAZKIK+Corbel-Bold;font-size:8.0px;font-style:NORMAL;font-weight:bold;">RepoRts</text>
  <text y="781.831" svg_rhmargin="238.53" x="123.524,125.34,126.781,130.885,132.997,137.102,141.206,145.31,149.414,153.518,154.946,156.762,158.203,163.571,169.411,171.379,173.491,174.93,179.034,183.138,185.25,189.354,193.458,197.562,201.666,203.866,207.098,209.778,213.762,218.01,222.114,226.218,230.322,234.426" style="fill:#000000;font-family:OHGYFG+Corbel;font-size:8.0px;font-style:NORMAL;font-weight:normal;">| 6:38287 | DOI: 10.1038/srep38287</text>
  <text x="159.328,162.928,164.638,166.34,167.638,173.214,176.39,178.302,182.236,183.961,185.596,188.169,189.894,191.529,198.226,199.951,201.586,209.607,212.809,214.444,216.788,219.491,223.252,227.268,231.108,233.841,237.737,241.731,244.933,247.779,249.804,252.992,254.627,256.566,259.734,263.679,266.51,269.712,271.347,274.145,277.314,279.574,282.777,284.412,287.655,291.746,295.721,297.356,300.501,302.414,304.439,310.578,313.746,316.007,319.209,320.844,323.675,326.877,330.938,333.705,335.644,337.987,339.963,343.476,345.415,347.743,351.436,353.161,354.796,357.999,361.554,365.57,368.772,371.618,373.643,379.773,382.976,386.955,389.257,392.025,393.66,398.838,400.776,403.127,407.147,408.782,412.089,413.724,416.052,421.148,424.988,427.673,429.612,432.787,436.188,439.391,442.188,443.823,446.992,449.335,455.466,459.306,462.039,465.935,469.928,473.13,475.977,478.001,481.189,482.824,488.954,492.865,496.84,500.016,501.886,503.611" y="72.63800000000003" svg_rhmargin="505.313" style="fill:#000000;font-family:PHQBOE+MinionPro-Regular;font-size:7.5px;font-style:NORMAL;font-weight:normal;">8. Held, I. M. The tropospheric lapse rate and climate sensitivity: experiments with a two-layer atmospheric model. </text>
  <text x="505.246,507.44,509.22,510.87,515.569,517.822,523.691,527.189,529.735,531.515,533.165,536.739,539.622" y="72.63800000000003" svg_rhmargin="541.67" style="fill:#000000;font-family:XBPSWO+MinionPro-It;font-size:7.5px;font-style:ITALIC;font-weight:normal;">J. Atmos. Sci</text>
  <text x="541.836,543.564" y="72.63800000000003" svg_rhmargin="545.266" style="fill:#000000;font-family:PHQBOE+MinionPro-Regular;font-size:7.5px;font-style:NORMAL;font-weight:normal;">. </text>
  <text x="545.203,548.968,552.733" y="72.63800000000003" svg_rhmargin="554.638" style="fill:#000000;font-family:EOBIQA+MinionPro-Bold;font-size:7.5px;font-style:NORMAL;font-weight:bold;">35,</text>
  <text y="72.63800000000003" style="fill:#000000;font-family:PHQBOE+MinionPro-Regular;font-size:7.5px;font-style:NORMAL;font-weight:normal;" svg_rhmargin="556.348" x=""/>
  <text x="167.646,171.246,174.846,178.446,182.046,185.946,189.546,193.146,196.746,200.346,201.876,204.471,208.071,211.671,215.271,218.871,221.466" y="81.13499999999999" svg_rhmargin="223.176" style="fill:#000000;font-family:PHQBOE+MinionPro-Regular;font-size:7.5px;font-style:NORMAL;font-weight:normal;">2083–2098 (1979).</text>
  <text x="159.336,162.936,164.646,166.34799999999998,167.646,173.2,176.481,179.624,182.77,184.66,187.836,191.275,194.455,196.754,198.456,199.893,206.084,207.786" y="89.63300000000004" svg_rhmargin="209.488" style="fill:#000000;font-family:PHQBOE+MinionPro-Regular;font-size:7.5px;font-style:NORMAL;font-weight:normal;">9. Hazeleger, W. </text>
  <text x="209.203,212.139,214.434,215.882,219.463,221.319" y="89.63300000000004" svg_rhmargin="223.081" style="fill:#000000;font-family:XBPSWO+MinionPro-It;font-size:7.5px;font-style:ITALIC;font-weight:normal;">et al.</text>
  <text y="89.63300000000004" svg_rhmargin="421.414" x="224.511,228.759,233.739,236.398,240.744,243.959,246.805,249.127,253.121,254.823,256.26,261.431,262.867,265.669,268.89,272.105,278.274,280.16,283.34,286.044,288.789,290.225,294.571,297.786,300.632,302.953,306.951,308.387,311.128,314.563,317.267,319.499,322.675,328.81,330.246,334.075,336.75,339.963,343.912,345.915,349.128,351.443,353.441,357.166,361.257,362.694,365.833,369.669,373.499,376.172,380.024,383.309,386.426,390.419,391.856,393.854,397.949,399.386,402.667,405.882,408.195,410.194,413.919,418.014,419.712" style="fill:#000000;font-family:PHQBOE+MinionPro-Regular;font-size:7.5px;font-style:NORMAL;font-weight:normal;">EC-Earth: A seamless Earth system prediction approach in action. </text>
  <text x="421.108,425.319,429.269,431.088,432.948,434.699,436.146,440.89,446.781,448.536,449.984,456.318,459.254,461.471,464.46,467.051,470.49,472.346,474.098,475.545,479.09,482.573" y="89.63300000000004" svg_rhmargin="485.438" style="fill:#000000;font-family:XBPSWO+MinionPro-It;font-size:7.5px;font-style:ITALIC;font-weight:normal;">Bull. Am. Meterol. Soc</text>
  <text x="485.428,487.127" y="89.63300000000004" svg_rhmargin="488.829" style="fill:#000000;font-family:PHQBOE+MinionPro-Regular;font-size:7.5px;font-style:NORMAL;font-weight:normal;">. </text>
  <text x="488.563,492.306,496.048" y="89.63300000000004" svg_rhmargin="497.953" style="fill:#000000;font-family:EOBIQA+MinionPro-Bold;font-size:7.5px;font-style:NORMAL;font-weight:bold;">91,</text>
  <text y="89.63300000000004" svg_rhmargin="554.679" x="499.381,502.974,506.566,510.155,513.744,517.636,521.225,524.817,528.406,531.999,533.435,536.019,539.611,543.2,546.793,550.382,552.969" style="fill:#000000;font-family:PHQBOE+MinionPro-Regular;font-size:7.5px;font-style:NORMAL;font-weight:normal;">1357–1363 (2010).</text>
  <text x="155.736,159.336,162.936,164.646,166.34799999999998,167.646,173.203,176.976,178.911,180.831,184.056,188.128,192.043,193.753,195.283,201.966,203.676,205.206,211.888,213.598,215.128,220.461,221.991,226.341,228.261,230.548,233.698,235.408,236.938,241.926,243.636,245.166,251.848,253.558,255.088,259.071,262.843,264.763,267.988,270.771,272.301,275.526,281.526,285.403,287.301,289.311,293.323,296.518,299.668,301.993,304.003,307.738,311.841,313.371,317.106,319.326,320.856,323.983,325.881,327.891,334.011,337.161,339.403,342.591,344.121,347.248,351.231,354.456,358.498,361.948,365.136,366.666,368.676,372.778,374.308,377.481,381.223,385.116,388.993,390.891,394.115,398.075,399.605,405.717,409.61,413.57,416.728,418.603,421.355,423.065" y="98.13" svg_rhmargin="424.767" style="fill:#000000;font-family:PHQBOE+MinionPro-Regular;font-size:7.5px;font-style:NORMAL;font-weight:normal;">10. Holland, M. M. &amp; Bitz, C. M. Polar amplification of climate change in coupled models. </text>
  <text x="424.595,429.358,431.128,433.078,438.981,440.743,442.288,447.681,451.093" y="98.13" svg_rhmargin="455.083" style="fill:#000000;font-family:XBPSWO+MinionPro-It;font-size:7.5px;font-style:ITALIC;font-weight:normal;">Clim. Dyn</text>
  <text x="455.083,456.793" y="98.13" svg_rhmargin="458.495" style="fill:#000000;font-family:PHQBOE+MinionPro-Regular;font-size:7.5px;font-style:NORMAL;font-weight:normal;">. </text>
  <text x="458.353,462.103,465.853" y="98.13" svg_rhmargin="467.758" style="fill:#000000;font-family:EOBIQA+MinionPro-Bold;font-size:7.5px;font-style:NORMAL;font-weight:bold;">21,</text>
  <text y="98.13" svg_rhmargin="517.618" x="469.288,472.888,476.488,480.088,483.988,487.588,491.188,494.788,496.318,498.913,502.513,506.113,509.713,513.313,515.908" style="fill:#000000;font-family:PHQBOE+MinionPro-Regular;font-size:7.5px;font-style:NORMAL;font-weight:normal;">221–232 (2003).</text>
  <text x="155.736,159.336,162.936,164.646,166.34799999999998,167.646,171.876,175.886,179.417,181.284,183.24,185.931,189.906,191.586,193.004,195.124,196.804,198.222,204.874,206.554,208.234,209.652,215.042,218.199,220.38,222.591,225.717,227.584,233.673,236.866,240.939,242.619,244.036,249.189,250.869,252.286,257.589,259.006,264.532,267.69,271.731,275.661,278.818,281.524,284.304,288.008,292.08,293.76,295.178,300.51,302.19,303.608,308.384,310.064,311.481,316.61,319.263,322.456,324.75,326.73,329.872,331.29,334.042,337.305,341.235,343.235,346.353,348.646,350.572,353.953,357.111,358.528,362.404,366.357,369.805,372.963,375.685,377.365,378.783,382.59,385.244,388.401,391.182,394.34,398.268,400.526,403.166,407.117,410.243,413.655,415.073,418.762,420.762,424.0,426.781,429.938,432.661,434.078,437.271,441.312,445.242,446.659,448.892,452.753,454.933,458.886,461.539,464.697,466.114,469.923,472.576,476.287,478.213,481.405,484.599,486.892,488.872,492.575,496.586,499.309,500.726,502.706,506.779,508.196,513.154,519.806,522.334,526.526,530.096,531.514,537.594,541.454,545.384,548.51,550.353,553.075,554.785" y="106.62800000000004" svg_rhmargin="556.487" style="fill:#000000;font-family:PHQBOE+MinionPro-Regular;font-size:7.5px;font-style:NORMAL;font-weight:normal;">11. English, J. M., Gettelman, A. &amp; Henderson, G. R. Arctic radiative fluxes: present-day biases and future projections in CMIP5 models. </text>
  <text x="167.646,169.821,171.583,173.128,177.891,179.661,181.611" y="115.125" svg_rhmargin="187.514" style="fill:#000000;font-family:XBPSWO+MinionPro-It;font-size:7.5px;font-style:ITALIC;font-weight:normal;">J. Clim</text>
  <text x="187.513,189.223" y="115.125" svg_rhmargin="190.925" style="fill:#000000;font-family:PHQBOE+MinionPro-Regular;font-size:7.5px;font-style:NORMAL;font-weight:normal;">. </text>
  <text x="190.753,194.503,198.253" y="115.125" svg_rhmargin="200.158" style="fill:#000000;font-family:EOBIQA+MinionPro-Bold;font-size:7.5px;font-style:NORMAL;font-weight:bold;">28,</text>
  <text y="115.125" svg_rhmargin="357.238" x="201.688,205.288,208.888,212.488,216.088,219.988,223.588,227.188,230.788,234.388,236.098,237.628,241.588,245.323,247.333,249.043,250.573,254.173,257.773,259.483,263.083,266.683,270.283,273.883,276.366,278.796,283.783,287.818,290.376,293.046,298.558,301.228,304.828,308.428,311.098,314.698,318.298,321.898,325.498,329.098,330.808,334.408,335.938,338.533,342.133,345.733,349.333,352.933,355.528" style="fill:#000000;font-family:PHQBOE+MinionPro-Regular;font-size:7.5px;font-style:NORMAL;font-weight:normal;">6019–6038, doi: 10.1175/JCLI-D-14-00801.1 (2015).</text>
  <text x="155.736,159.336,162.936,164.646,166.34799999999998,167.646,171.439,174.747,177.565,180.924,184.247,188.484,190.329,192.332,194.618,196.463,198.465,203.783,205.628,207.63,213.098,215.1,218.744,220.889,227.166,233.412,237.282,241.488,245.559,248.447,250.292,252.294,254.987,256.832,258.834,263.597,267.705,271.028,273.03,276.338,279.66,283.755,286.213,289.131,292.595,294.627,296.63,299.449,303.355,305.388,308.71,310.713,314.581,316.936,318.939,323.034,325.179,331.456,333.601,337.839,339.96,342.816,346.956,349.101,353.277,356.922,358.925,361.872,365.238,368.665,370.668,372.813,376.12,379.443,381.445,383.59,387.828,389.83,392.649,396.008,399.315,402.638,406.731,409.154,411.156,416.451,419.27,422.628,425.087,427.232,430.539,432.542,434.918,438.24,444.374,448.505,451.827,454.745,458.028,460.375,464.493,467.312,470.634,472.637,475.996,482.13,486.141,488.174,490.319,492.748,494.893,498.222,501.506,503.964,506.109,509.978,514.215,516.06" y="123.62300000000005" svg_rhmargin="517.762" style="fill:#000000;font-family:PHQBOE+MinionPro-Regular;font-size:7.5px;font-style:NORMAL;font-weight:normal;">12. Screen, J. A. &amp; Simmonds, I. The central role of diminishing sea ice in recent Arctic temperature amplification. </text>
  <text x="518.063,523.268,526.913,529.283,533.319,536.056" y="123.62300000000005" svg_rhmargin="539.056" style="fill:#000000;font-family:XBPSWO+MinionPro-It;font-size:7.5px;font-style:ITALIC;font-weight:normal;">Nature</text>
  <text y="123.62300000000005" style="fill:#000000;font-family:PHQBOE+MinionPro-Regular;font-size:7.5px;font-style:NORMAL;font-weight:normal;" svg_rhmargin="540.808" x=""/>
  <text x="541.108,544.986,548.863,552.741" y="123.62300000000005" svg_rhmargin="554.646" style="fill:#000000;font-family:EOBIQA+MinionPro-Bold;font-size:7.5px;font-style:NORMAL;font-weight:bold;">464,</text>
  <text y="123.62300000000005" style="fill:#000000;font-family:PHQBOE+MinionPro-Regular;font-size:7.5px;font-style:NORMAL;font-weight:normal;" svg_rhmargin="556.348" x=""/>
  <text x="167.646,171.246,174.846,178.446,182.046,185.946,189.546,193.146,196.746,200.346,201.876,204.471,208.071,211.671,215.271,218.871,221.466" y="132.12" svg_rhmargin="223.176" style="fill:#000000;font-family:PHQBOE+MinionPro-Regular;font-size:7.5px;font-style:NORMAL;font-weight:normal;">1334–1337 (2010).</text>
  <text x="155.736,159.336,162.936,164.646,166.34799999999998,167.646,172.725,176.478,178.392,180.267,182.255,186.277,189.007,190.695,192.12,198.78,200.467" y="140.61800000000005" svg_rhmargin="202.169" style="fill:#000000;font-family:PHQBOE+MinionPro-Regular;font-size:7.5px;font-style:NORMAL;font-weight:normal;">13. Collins, M. </text>
  <text x="201.892,204.819,207.099,208.539,212.112,213.957" y="140.61800000000005" svg_rhmargin="215.719" style="fill:#000000;font-family:XBPSWO+MinionPro-It;font-size:7.5px;font-style:ITALIC;font-weight:normal;">et al.</text>
  <text y="140.61800000000005" svg_rhmargin="372.319" x="217.122,219.539,223.619,225.044,230.049,231.924,233.911,240.011,243.141,245.363,248.528,249.953,254.958,258.92,262.125,266.147,269.577,272.742,274.167,277.744,281.322,284.899,288.477,290.164,291.589,299.571,302.736,304.161,308.326,312.138,315.558,318.288,320.276,323.451,326.76,328.635,330.06,333.7,336.85,338.838,342.003,346.055,349.205,352.37,353.795,358.252,361.502,364.232,366.199,368.929,370.617" style="fill:#000000;font-family:PHQBOE+MinionPro-Regular;font-size:7.5px;font-style:NORMAL;font-weight:normal;">In Climate Change 2013: The Physical Science Basis. </text>
  <text x="372.042,376.806,380.234,384.039,386.253,389.045,390.967,394.515,398.387,400.602,402.599,406.026,409.996,411.436,414.858,416.871,418.311,424.71,428.138,430.802,433.984,435.914,439.786,442.916,444.356,449.345,451.928,455.355,459.255,462.88,464.32,466.812,468.252,470.457,473.961,475.401,477.616,481.375,484.355,485.795,489.622,491.559,495.723,499.535,500.975,505.858,508.288,510.817,513.737,516.167,518.597,524.426,527.405,531.21,533.492,534.932,539.397,542.347,545.941,549.368,552.236,554.538" y="140.61800000000005" svg_rhmargin="556.256" style="fill:#000000;font-family:XBPSWO+MinionPro-It;font-size:7.5px;font-style:ITALIC;font-weight:normal;">Contribution of Working Group I to the Fifth Assessment Report </text>
  <text x="167.646,171.088,173.121,174.666,176.901,180.681,183.681,185.226,187.446,191.271,193.499,196.499,199.191,202.341,205.769,209.091,212.091,214.903,218.766,224.616,227.616,231.441,233.668,237.261,239.128,240.673,244.656,248.211,252.148,255.028,256.896,258.441,261.891,265.881,267.426,272.188,273.958,275.909,281.759,285.268,287.496,290.496,292.041,296.804,300.584,304.139,308.031,311.181" y="149.115" svg_rhmargin="314.181" style="fill:#000000;font-family:XBPSWO+MinionPro-It;font-size:7.5px;font-style:ITALIC;font-weight:normal;">of the Intergovernmental Panel on Climate Change</text>
  <text y="149.115" svg_rhmargin="368.555" x="315.711,318.306,321.531,325.469,328.221,329.751,333.201,335.444,339.336,342.463,346.138,349.326,351.635,353.345,354.875,358.76,360.47,362.0,365.143,366.853" style="fill:#000000;font-family:PHQBOE+MinionPro-Regular;font-size:7.5px;font-style:NORMAL;font-weight:normal;">(eds Stocker, T. F. </text>
  <text x="368.383,371.33,373.633,375.178,378.771,380.639" y="149.115" svg_rhmargin="382.401" style="fill:#000000;font-family:XBPSWO+MinionPro-It;font-size:7.5px;font-style:ITALIC;font-weight:normal;">et al.</text>
  <text x="382.401,384.996,386.526,390.126,393.726,397.326,400.926,404.826,408.426,412.026,415.626,419.226,420.756,423.351,428.406,431.631,437.699,441.419,444.246,446.256,450.216,453.666,456.854,458.384,463.581,467.684,469.641,472.566,474.276,475.806,479.961,482.646,485.834,488.549,491.301,493.011,494.541,498.141,501.741,505.341,508.941,511.536" y="149.115" svg_rhmargin="513.246" style="fill:#000000;font-family:PHQBOE+MinionPro-Regular;font-size:7.5px;font-style:NORMAL;font-weight:normal;">) 1029–1136 (Cambridge Univ. Press, 2013).</text>
  <text x="155.736,159.336,162.936,164.646,166.34799999999998,167.646,172.086,174.186,178.236,180.658,183.973,188.023,190.056,193.438,195.238,197.083,201.981,203.781,205.626,211.048,212.893,216.643,219.891,221.788,224.121,227.398,231.591,233.391,235.236,238.468,240.268,242.113,248.886,250.686,252.531,256.438,260.421,262.723,266.796,269.571,272.848,274.693,276.793,280.956,284.218,286.993,290.316,293.676,296.578,299.856,302.698,304.543,306.643,310.836,312.681,317.931,320.706,324.021,326.436,328.536,331.798,333.643,337.573,340.348,343.663,346.926,348.936,352.866,354.876,357.298,360.538,362.953,365.053,368.879,373.072,374.917,376.904,379.004,383.234,386.999,390.314,394.364,396.209,398.542,402.457,404.302,406.289,410.272,413.557,416.977,418.964,420.809,424.147,427.709,430.949,435.037,438.862,441.734,444.974,447.389,449.489,453.314,457.507,459.352,462.667,466.829,470.879,472.724,475.627,478.949,482.332,484.177,486.277,489.539,492.817,494.662,497.437,500.714,503.129,505.903,509.226,512.467,514.844,516.644" y="157.61300000000006" svg_rhmargin="518.346" style="fill:#000000;font-family:PHQBOE+MinionPro-Regular;font-size:7.5px;font-style:NORMAL;font-weight:normal;">14. Bintanja, R. &amp; Selten, F. M. Future increases in Arctic precipitation linked to local evaporation and sea ice retreat. </text>
  <text x="518.489,523.649,527.25,529.576,533.566,536.26" y="157.61300000000006" svg_rhmargin="539.26" style="fill:#000000;font-family:XBPSWO+MinionPro-It;font-size:7.5px;font-style:ITALIC;font-weight:normal;">Nature</text>
  <text y="157.61300000000006" style="fill:#000000;font-family:PHQBOE+MinionPro-Regular;font-size:7.5px;font-style:NORMAL;font-weight:normal;" svg_rhmargin="541.085" x=""/>
  <text x="541.228,545.064,548.901,552.736" y="157.61300000000006" svg_rhmargin="554.641" style="fill:#000000;font-family:EOBIQA+MinionPro-Bold;font-size:7.5px;font-style:NORMAL;font-weight:bold;">509,</text>
  <text y="157.61300000000006" style="fill:#000000;font-family:PHQBOE+MinionPro-Regular;font-size:7.5px;font-style:NORMAL;font-weight:normal;" svg_rhmargin="556.34" x=""/>
  <text x="167.638,171.238,174.838,178.438,182.338,185.938,189.538,193.138,194.848,196.378,200.338,204.073,206.083,207.793,209.323,212.923,216.523,218.233,221.833,225.433,229.033,232.633,235.116,239.196,242.346,244.558,248.541,251.226,254.413,258.013,261.613,265.213,268.813,272.413,273.943,276.538,280.138,283.738,287.338,290.938,293.533" y="166.11" svg_rhmargin="295.243" style="fill:#000000;font-family:PHQBOE+MinionPro-Regular;font-size:7.5px;font-style:NORMAL;font-weight:normal;">479–482, doi: 10.1038/nature13259 (2014).</text>
  <text x="155.728,159.328,162.928,164.638,166.34,167.638,172.61,177.598,179.878,185.06,186.59,191.75,194.435,197.66,199.985,201.995,205.167,206.697,211.722,213.62,215.63,221.75,224.9,227.142,230.33,231.86,234.297,240.297,244.265,247.557,250.781,253.069,254.599,259.661,262.376,265.189,268.376,271.091,273.844,279.956,283.144,287.103,289.391,291.101,292.631,297.686,300.911,306.978,310.698,313.526,315.536,319.496,322.945,326.132,327.662,332.86,336.962,338.92,341.845,343.555,345.085,349.24,351.925,355.112,357.827,360.58,362.11,364.705,368.305,371.905,375.505,379.105,381.7" y="174.60799999999995" svg_rhmargin="383.41" style="fill:#000000;font-family:PHQBOE+MinionPro-Regular;font-size:7.5px;font-style:NORMAL;font-weight:normal;">15. ACIA Arctic Climate Impact Assessment. Cambridge Univ. Press (2005).</text>
  <text x="155.728,159.328,162.928,164.638,166.34,167.638,173.384,176.812,180.014,182.783,184.719,187.959,192.048,195.979,197.704,199.339,201.507,203.232,204.867,209.142,210.867,212.502,217.85,219.485,226.04,229.281,233.339,236.888,238.613,240.248,246.945,248.67,250.305,254.468,257.709,260.447,263.913,267.116,269.801,272.629,275.84,279.185,281.098,284.3,285.935,289.101,291.442,297.57,301.41,304.141,308.034,312.025,315.227,318.071,320.096,323.283,324.918,328.106,330.131,332.831,336.072,340.108,342.044,345.209,347.55,349.575,353.326,357.443,359.078,362.222,366.22,369.461,373.519,376.985,380.187,382.955,384.59,387.83,390.531,393.734,395.369,398.654,401.385,404.213,408.122,411.309,413.357,416.523,418.781,422.022,425.997,427.632,432.808,434.744,437.092,441.112,442.747,445.095,449.086,452.288,453.923,456.624,459.865,463.052,466.255,470.231,472.533,474.168,476.081,479.921,482.651,485.419,487.054,490.805,493.04,494.675,499.852,502.552,505.793,508.133,510.158,513.346,514.981,517.809,521.057,524.365,526.0,528.025,531.212,534.371,536.096" y="183.10500000000002" svg_rhmargin="537.798" style="fill:#000000;font-family:PHQBOE+MinionPro-Regular;font-size:7.5px;font-style:NORMAL;font-weight:normal;">16. Overland, J. E. &amp; Wang, M. Large-scale atmospheric circulation changes are associated with the recent loss of Arctic sea ice. </text>
  <text x="537.731,541.541,544.436,546.283,548.069,552.112" y="183.10500000000002" svg_rhmargin="554.64" style="fill:#000000;font-family:XBPSWO+MinionPro-It;font-size:7.5px;font-style:ITALIC;font-weight:normal;">Tellus</text>
  <text y="183.10500000000002" style="fill:#000000;font-family:PHQBOE+MinionPro-Regular;font-size:7.5px;font-style:NORMAL;font-weight:normal;" svg_rhmargin="556.34" x=""/>
  <text x="167.638,171.388,175.138,180.433" y="191.60299999999995" svg_rhmargin="182.338" style="fill:#000000;font-family:EOBIQA+MinionPro-Bold;font-size:7.5px;font-style:NORMAL;font-weight:bold;">62A,</text>
  <text y="191.60299999999995" svg_rhmargin="217.798" x="183.868,187.468,191.368,194.968,196.498,199.093,202.693,206.293,209.893,213.493,216.088" style="fill:#000000;font-family:PHQBOE+MinionPro-Regular;font-size:7.5px;font-style:NORMAL;font-weight:normal;">1–9 (2010).</text>
  <text x="155.728,159.328,162.928,164.638,166.34,167.638,171.584,174.464,177.787,181.958,185.228,187.314,190.164,191.971,193.846,196.097,197.904,199.779,205.059,206.867,208.742,214.172,216.047,220.675,223.93,227.523,230.479,234.537,237.387,239.195,241.07,244.722,246.53,248.405,250.655,252.462,254.337,258.546,262.139,264.246,268.304,271.589,275.76,279.03,282.315,284.19,286.185,288.292,292.53,296.4,298.508,302.649,306.256,308.131,313.389,316.173,319.495,321.918,324.026,327.296,329.171,332.494,338.592,342.568,344.563,346.671,350.781,354.074,357.321,359.745,361.852,365.685,369.885,371.76,374.101,378.024,379.899,383.184,386.821,389.244,392.028,395.313,401.523,404.808,406.683,411.858,415.189,418.437,420.868,424.941,428.226,431.106,432.981,435.088,439.288,441.163,447.403,449.511,453.568,456.336,458.354,461.602,464.025,466.043,468.354,472.434,476.491,479.776,482.626,484.434" y="200.10000000000002" svg_rhmargin="486.136" style="fill:#000000;font-family:PHQBOE+MinionPro-Regular;font-size:7.5px;font-style:NORMAL;font-weight:normal;">17. Francis, J. A. &amp; Vavrus, S. J. Evidence linking Arctic amplification to extreme weather in mid-latitudes. </text>
  <text x="486.309,491.545,494.599,498.155,501.824,505.568,508.98,511.605,513.465,515.355,519.939,522.978,525.603,527.463,529.353,533.465,536.511,538.911" y="200.10000000000002" svg_rhmargin="541.214" style="fill:#000000;font-family:XBPSWO+MinionPro-It;font-size:7.5px;font-style:ITALIC;font-weight:normal;">Geophys. Res. Lett</text>
  <text x="541.311,543.119" y="200.10000000000002" svg_rhmargin="544.821" style="fill:#000000;font-family:PHQBOE+MinionPro-Regular;font-size:7.5px;font-style:NORMAL;font-weight:normal;">. </text>
  <text x="545.046,548.889,552.733" y="200.10000000000002" svg_rhmargin="554.638" style="fill:#000000;font-family:EOBIQA+MinionPro-Bold;font-size:7.5px;font-style:NORMAL;font-weight:bold;">39,</text>
  <text y="200.10000000000002" style="fill:#000000;font-family:PHQBOE+MinionPro-Regular;font-size:7.5px;font-style:NORMAL;font-weight:normal;" svg_rhmargin="556.34" x=""/>
  <text x="167.638,171.673,175.273,178.873,182.473,186.073,189.673,191.383,192.913,196.873,200.608,202.618,204.328,205.858,209.458,213.058,214.768,218.368,221.968,225.568,229.168,231.651,235.251,238.851,242.451,246.051,251.413,255.448,259.048,262.648,266.248,269.848,273.448,277.048,278.578,281.173,284.773,288.373,291.973,295.573,298.168" y="208.59799999999996" svg_rhmargin="299.878" style="fill:#000000;font-family:PHQBOE+MinionPro-Regular;font-size:7.5px;font-style:NORMAL;font-weight:normal;">L06801. doi: 10.1029/2012GL051000 (2012).</text>
  <text x="155.728,159.328,162.928,164.638,166.34,167.638,174.238,177.627,179.562,182.344,186.409,188.179,189.919,192.132,193.902,195.642,199.962,201.732,203.472,205.969,209.989,212.291,215.538,219.641,222.453,224.523,228.596,231.881,235.901,237.641,242.838,246.123,249.01,255.213,257.283,261.385,264.955,266.695,270.49,272.77,274.51,276.903,280.937,284.184,285.924,291.144,293.889,297.174,299.559,301.629,304.861,306.631,308.371,311.626,314.835,318.855,321.728,324.975,327.788,329.528,332.813,336.945,340.965,342.705,344.775,350.835,354.862,358.215,361.5,363.847,366.66,368.4,372.194,376.356,378.096,380.488,384.523,387.771,389.511,395.713,397.783,401.841,403.82,407.03,409.415,411.394,413.667,417.709,421.729,424.977,427.789,429.559" y="217.09500000000003" svg_rhmargin="431.261" style="fill:#000000;font-family:PHQBOE+MinionPro-Regular;font-size:7.5px;font-style:NORMAL;font-weight:normal;">18. Walsh, J. E. Intensified warming of the Arctic: causes and impacts on the midlatitudes. </text>
  <text x="431.299,436.407,438.304,441.792,445.467,449.12,451.047,452.802,456.417,460.416,464.286,466.041,470.218,472.116,475.731,479.73,482.737,485.025,488.64,491.595,494.97,496.725,501.548,505.388,509.003,512.956,516.166" y="217.09500000000003" svg_rhmargin="519.166" style="fill:#000000;font-family:XBPSWO+MinionPro-It;font-size:7.5px;font-style:ITALIC;font-weight:normal;">Global and Planetary Change</text>
  <text y="217.09500000000003" style="fill:#000000;font-family:PHQBOE+MinionPro-Regular;font-size:7.5px;font-style:NORMAL;font-weight:normal;" svg_rhmargin="520.928" x=""/>
  <text x="520.978,524.788,528.598,532.408" y="217.09500000000003" svg_rhmargin="534.313" style="fill:#000000;font-family:EOBIQA+MinionPro-Bold;font-size:7.5px;font-style:NORMAL;font-weight:bold;">117,</text>
  <text y="217.09500000000003" svg_rhmargin="556.355" x="536.113,539.773,543.433,547.393,551.053,554.653" style="fill:#000000;font-family:PHQBOE+MinionPro-Regular;font-size:7.5px;font-style:NORMAL;font-weight:normal;">52–63 </text>
  <text x="167.638,170.233,173.833,177.433,181.033,184.633,187.228" y="225.59299999999996" svg_rhmargin="188.938" style="fill:#000000;font-family:PHQBOE+MinionPro-Regular;font-size:7.5px;font-style:NORMAL;font-weight:normal;">(2014).</text>
  <text x="155.728,159.328,162.928,164.638,166.34,167.638,171.35,174.59,176.584,179.907,182.712,184.474,186.188,189.795,191.558,193.271,198.507,200.269,202.031,203.749,208.856,212.132,214.149,215.912,217.629,224.364,226.127,227.889,229.607,235.111,239.1,240.863,242.576,247.811,249.574,251.336,253.05,259.589,262.866,266.076,270.17,272.075,273.837,275.551,280.966,282.728,284.442,289.677,291.44,293.202,294.92,301.511,304.833,307.607,311.665,313.727,317.822,321.384,323.678,327.465,331.62,333.383,335.096,341.351,343.113,344.831,350.216,351.929,355.919,359.129,362.675,364.625,368.412,370.774,372.536,374.254,377.486,379.248,380.962,386.002,387.764,389.478,391.967,396.092,400.104,402.113,405.66,407.723,411.644,415.701,419.083,421.033,422.747,424.951,428.228,431.504,435.486,439.385,442.73,445.91,449.705,451.418,454.643,458.43,462.443,464.819,467.699,469.73,473.51,477.454,479.831,481.893,485.681,489.775,492.58,494.294,496.588,500.465,502.179,504.563,508.59,511.83,513.548,516.412,519.696,523.018,525.882,529.669,533.801,537.183,539.133,541.105,543.467,546.962,548.675,552.463,554.682" y="234.09000000000003" svg_rhmargin="556.384" style="fill:#000000;font-family:PHQBOE+MinionPro-Regular;font-size:7.5px;font-style:NORMAL;font-weight:normal;">19. Sejas, S. A., Cai, M., Hu, A., Meehl, G. A., Washington, W. &amp; Taylor, P. C. Individual feedback contributions to the seasonality of </text>
  <text x="167.638,170.353,174.336,177.163,179.383,182.676,185.848,189.036,190.566,195.703,198.928,201.756,207.898,209.908,213.951,217.483,219.193" y="242.58799999999997" svg_rhmargin="220.895" style="fill:#000000;font-family:PHQBOE+MinionPro-Regular;font-size:7.5px;font-style:NORMAL;font-weight:normal;">surface warming. </text>
  <text x="220.723,222.898,224.661,226.206,230.968,232.738,234.688,240.538,244.048,246.275" y="242.58799999999997" svg_rhmargin="249.275" style="fill:#000000;font-family:XBPSWO+MinionPro-It;font-size:7.5px;font-style:ITALIC;font-weight:normal;">J. Climate</text>
  <text y="242.58799999999997" style="fill:#000000;font-family:PHQBOE+MinionPro-Regular;font-size:7.5px;font-style:NORMAL;font-weight:normal;" svg_rhmargin="250.985" x=""/>
  <text x="250.813,254.563,258.313" y="242.58799999999997" svg_rhmargin="260.218" style="fill:#000000;font-family:EOBIQA+MinionPro-Bold;font-size:7.5px;font-style:NORMAL;font-weight:bold;">27,</text>
  <text y="242.58799999999997" svg_rhmargin="317.278" x="261.748,265.348,268.948,272.548,276.148,280.048,283.648,287.248,290.848,294.448,295.978,298.573,302.173,305.773,309.373,312.973,315.568" style="fill:#000000;font-family:PHQBOE+MinionPro-Regular;font-size:7.5px;font-style:NORMAL;font-weight:normal;">5653–5669 (2014).</text>
  <text x="155.728,159.328,162.928,164.638,166.34,167.638,174.193,177.418,181.498,184.73,188.608,191.75,193.46,195.05,198.605,200.315,201.905,207.238,208.828,212.278,214.52,218.263,222.245,226.385,229.573,231.883,233.593,235.183,239.99,241.7,243.29,245.442,247.152,248.742,252.401,255.589,259.631,262.384,264.304,266.629,268.587,272.082,274.002,276.312,279.754,281.344,285.079,287.299,288.889,292.182,293.772,297.334,299.232,303.019,306.867,310.197,312.094,313.684,316.812,318.709,320.719,326.839,329.989,332.232,335.419,337.009,343.122,347.014,350.974,354.132,356.029,357.619,359.862,363.687,365.277,368.502,372.605,374.195,376.205,380.277,383.45,386.135,389.367,392.637,395.45,398.637,400.227,403.962,406.182,407.772,412.812" y="251.08500000000004" svg_rhmargin="418.414" style="fill:#000000;font-family:PHQBOE+MinionPro-Regular;font-size:7.5px;font-style:NORMAL;font-weight:normal;">20. Manabe, S. &amp; Stouffer, R. J. Sensitivity of a global climate model to an increase of CO</text>
  <text x="418.4" y="252.63800000000003" svg_rhmargin="420.74" style="fill:#000000;font-family:PHQBOE+MinionPro-Regular;font-size:4.88px;font-style:NORMAL;font-weight:normal;">2</text>
  <text y="251.13800000000003" svg_rhmargin="522.843" x="422.33,425.503,429.238,433.31,436.483,439.67,443.63,445.954,448.737,451.887,454.212,456.222,459.957,464.06,465.65,467.66,471.762,473.352,475.685,479.66,482.847,484.437,487.587,489.911,496.024,499.849,502.564,506.441,510.416,513.604,516.289,519.431,521.141" style="fill:#000000;font-family:PHQBOE+MinionPro-Regular;font-size:7.5px;font-style:NORMAL;font-weight:normal;">concentration in the atmosphere. </text>
  <text x="522.731,524.906,526.669,528.274,533.411,536.366,539.824,543.394,547.039,550.354,552.882,554.644" y="251.13800000000003" svg_rhmargin="556.362" style="fill:#000000;font-family:XBPSWO+MinionPro-It;font-size:7.5px;font-style:ITALIC;font-weight:normal;">J. Geophys. </text>
  <text x="167.638,172.123,175.063" y="259.635" svg_rhmargin="177.591" style="fill:#000000;font-family:XBPSWO+MinionPro-It;font-size:7.5px;font-style:ITALIC;font-weight:normal;">Res</text>
  <text x="177.59,179.3" y="259.635" svg_rhmargin="181.002" style="fill:#000000;font-family:PHQBOE+MinionPro-Regular;font-size:7.5px;font-style:NORMAL;font-weight:normal;">. </text>
  <text x="180.83,184.58,188.33" y="259.635" svg_rhmargin="190.235" style="fill:#000000;font-family:EOBIQA+MinionPro-Bold;font-size:7.5px;font-style:NORMAL;font-weight:bold;">85,</text>
  <text y="259.635" svg_rhmargin="247.295" x="191.765,195.365,198.965,202.565,206.165,210.065,213.665,217.265,220.865,224.465,225.995,228.59,232.19,235.79,239.39,242.99,245.585" style="fill:#000000;font-family:PHQBOE+MinionPro-Regular;font-size:7.5px;font-style:NORMAL;font-weight:normal;">5529–5554 (1980).</text>
  <text x="155.728,159.328,162.928,164.638,166.34,167.638,172.6,175.447,177.514,181.344,185.038,188.248,192.373,194.106,195.741,198.903,200.635,202.27,207.625,209.26,214.846,218.161,221.333,224.511,226.431,229.641,233.11,236.32,238.651,240.383,242.018,248.24,249.973,251.608,256.788,259.492,262.737,265.081,267.114,270.309,271.944,275.154,279.246,282.456,285.198,288.908,292.373,294.008,297.755,301.76,305.743,309.212,312.422,314.732,316.367,318.4,322.525,324.16,326.864,330.041,331.981,335.151,337.496,339.528,343.283,347.408,349.043,351.305,355.153,356.788,359.62,362.872,366.187,367.822,369.854,373.049,376.259,377.894,381.389,384.634,387.481,389.534,392.786,396.525,398.592,400.512,402.452,404.781,408.246,409.881,413.636,417.761,419.396,425.528,429.283,433.263,435.615,439.677,441.542,445.007,447.699,449.961,453.809,456.501,459.746,463.871,467.85,471.875,475.224,477.144,478.779,481.124,483.156,489.288,492.498,494.133,496.965,500.18,503.529,505.449,508.659,511.434,513.167" y="268.13300000000004" svg_rhmargin="514.869" style="fill:#000000;font-family:PHQBOE+MinionPro-Regular;font-size:7.5px;font-style:NORMAL;font-weight:normal;">21. Krikken, F. &amp; Hazeleger, W. Arctic energy budget in relation to sea ice variability on monthly-to-annual time scales. </text>
  <text x="514.802,516.997,518.779,520.429,525.212,527.004,528.977,534.847,538.376,540.624" y="268.13300000000004" svg_rhmargin="543.624" style="fill:#000000;font-family:XBPSWO+MinionPro-It;font-size:7.5px;font-style:ITALIC;font-weight:normal;">J. Climate</text>
  <text y="268.13300000000004" style="fill:#000000;font-family:PHQBOE+MinionPro-Regular;font-size:7.5px;font-style:NORMAL;font-weight:normal;" svg_rhmargin="545.262" x=""/>
  <text x="545.195,548.964,552.733" y="268.13300000000004" svg_rhmargin="554.638" style="fill:#000000;font-family:EOBIQA+MinionPro-Bold;font-size:7.5px;font-style:NORMAL;font-weight:bold;">28,</text>
  <text y="268.13300000000004" style="fill:#000000;font-family:PHQBOE+MinionPro-Regular;font-size:7.5px;font-style:NORMAL;font-weight:normal;" svg_rhmargin="556.34" x=""/>
  <text x="167.638,171.238,174.838,178.438,182.038,185.938,189.538,193.138,196.738,200.338,202.048,203.578,207.538,211.273,213.283,214.993,216.523,220.123,223.723,225.433,229.033,232.633,236.233,239.833,242.315,244.745,249.733,253.768,256.325,258.995,264.508,267.178,270.778,274.378,277.048,280.648,284.248,287.848,291.448,293.158,296.758,298.288,300.883,304.483,308.083,311.683,315.283,317.878" y="276.63" svg_rhmargin="319.588" style="fill:#000000;font-family:PHQBOE+MinionPro-Regular;font-size:7.5px;font-style:NORMAL;font-weight:normal;">6335–6350, doi: 10.1175/JCLI-D-15-0002.1 (2015).</text>
  <text x="155.728,159.328,162.928,164.638,166.34,167.638,173.203,176.428,180.47,183.283,186.47,190.573,192.283,193.813,195.965,197.675,199.385,200.915,204.47,207.62,209.863,213.47,215.18,216.71,223.393,225.103,226.633,231.965,233.495,238.04,242.023,245.247,249.155,252.05,253.76,255.29,260.097,261.807,263.337,268.175,271.467,275.427,277.46,280.61,282.934,284.891,288.305,291.492,293.022,295.175,298.91,301.595,304.767,306.777,310.82,314.33,315.86,319.085,323.157,327.117,328.647,331.774,333.671,335.681,341.801,344.951,347.194,350.381,351.911,354.596,357.784,360.499,364.496,368.231,372.273,375.086,378.228,379.938" y="285.12800000000004" svg_rhmargin="381.64" style="fill:#000000;font-family:PHQBOE+MinionPro-Regular;font-size:7.5px;font-style:NORMAL;font-weight:normal;">22. Hansen, J., Sato, M. &amp; Ruedy, R. Radiative forcing and climate response. </text>
  <text x="381.468,383.643,385.406,386.951,392.088,395.043,398.501,402.071,405.716,409.031,411.558,413.321,414.866,419.351,422.291" y="285.12800000000004" svg_rhmargin="424.819" style="fill:#000000;font-family:XBPSWO+MinionPro-It;font-size:7.5px;font-style:ITALIC;font-weight:normal;">J. Geophys. Res</text>
  <text x="424.818,426.528" y="285.12800000000004" svg_rhmargin="428.23" style="fill:#000000;font-family:PHQBOE+MinionPro-Regular;font-size:7.5px;font-style:NORMAL;font-weight:normal;">. </text>
  <text x="428.09,431.84,435.59,439.34,441.98,447.688,451.438,454.078" y="285.12800000000004" svg_rhmargin="455.983" style="fill:#000000;font-family:EOBIQA+MinionPro-Bold;font-size:7.5px;font-style:NORMAL;font-weight:bold;">102(D6),</text>
  <text y="285.12800000000004" svg_rhmargin="513.043" x="457.513,461.113,464.713,468.313,471.913,475.813,479.413,483.013,486.613,490.213,491.743,494.338,497.938,501.538,505.138,508.738,511.333" style="fill:#000000;font-family:PHQBOE+MinionPro-Regular;font-size:7.5px;font-style:NORMAL;font-weight:normal;">6831–6864 (1997).</text>
  <text x="155.728,159.328,162.928,164.638,166.34,167.638,172.543,175.693,179.623,182.435,185.562,189.567,191.277,192.83,199.512,201.222,202.775,206.81,208.52,210.23,211.782,217.085,219.867,223.025,226.437,229.625,232.362,235.175,238.362,242.465,244.175,245.727,250.535,252.245,253.797,259.16,260.87,262.422,267.755,269.307,273.815,275.772,278.96,281.786,285.829,288.544,290.869,293.554,297.289,303.431,305.141,306.694,313.376,315.086,316.639,320.09,323.929,326.756,328.766,332.809,336.319,338.644,340.654,346.766,349.954,351.506,354.656,356.981,363.094,366.919,369.634,373.511,377.486,380.674,383.501,385.511,388.683,390.236,393.423,397.496,400.683,403.406,407.095,410.537,412.09,414.415,417.197,420.422,424.465,427.18,431.177,434.912,437.769,440.057,441.609,444.834,448.907,452.867,454.419,456.752,460.727,463.914,465.467,468.639,472.374,476.334,478.659,481.344,485.117,487.014,488.567,492.302,494.522,496.074,501.234,503.919,507.143,509.469,511.479,514.651,516.203,518.919,522.901,529.044,535.156,538.344,541.126,542.678,545.491,548.723,552.015" y="293.625" svg_rhmargin="554.685" style="fill:#000000;font-family:PHQBOE+MinionPro-Regular;font-size:7.5px;font-style:NORMAL;font-weight:normal;">23. Kapsch, M. L., Graversen, R. G. &amp; Tjernström, M. Springtime atmospheric energy transport and the control of Arctic summer sea-</text>
  <text x="167.638,169.648,172.82,176.008,177.538,180.725,184.265,186.507,189.695,193.655,195.942,197.652" y="302.123" svg_rhmargin="199.354" style="fill:#000000;font-family:PHQBOE+MinionPro-Regular;font-size:7.5px;font-style:NORMAL;font-weight:normal;">ice extent. </text>
  <text x="199.182,204.252,207.762,209.997,213.897,216.5,219.5,221.045,225.807,227.577,229.527,235.377,238.887,241.115,244.115,245.66,250.422,254.202,257.757,261.65,264.799" y="302.123" svg_rhmargin="267.799" style="fill:#000000;font-family:XBPSWO+MinionPro-It;font-size:7.5px;font-style:ITALIC;font-weight:normal;">Nature Climate Change</text>
  <text y="302.123" style="fill:#000000;font-family:PHQBOE+MinionPro-Regular;font-size:7.5px;font-style:NORMAL;font-weight:normal;" svg_rhmargin="269.501" x=""/>
  <text x="269.338,273.088" y="302.123" svg_rhmargin="274.993" style="fill:#000000;font-family:EOBIQA+MinionPro-Bold;font-size:7.5px;font-style:NORMAL;font-weight:bold;">3,</text>
  <text y="302.123" svg_rhmargin="324.853" x="276.523,280.123,283.723,287.323,291.223,294.823,298.423,302.023,303.553,306.148,309.748,313.348,316.948,320.548,323.143" style="fill:#000000;font-family:PHQBOE+MinionPro-Regular;font-size:7.5px;font-style:NORMAL;font-weight:normal;">744–748 (2013).</text>
  <text x="155.728,159.328,162.928,164.638,166.34,167.638,171.759,175.085,177.908,181.752,185.386,187.534,190.8,194.944,196.792,198.809,204.161,206.009,208.026,213.16,215.008" y="310.62" svg_rhmargin="216.71" style="fill:#000000;font-family:PHQBOE+MinionPro-Regular;font-size:7.5px;font-style:NORMAL;font-weight:normal;">24. Perovich, D. K. </text>
  <text x="217.025,220.113,222.558,224.591,228.323,230.333" y="310.62" svg_rhmargin="232.095" style="fill:#000000;font-family:XBPSWO+MinionPro-It;font-size:7.5px;font-style:ITALIC;font-weight:normal;">et al.</text>
  <text y="310.62" svg_rhmargin="556.35" x="234.255,236.831,241.042,244.353,247.177,250.547,253.956,256.847,258.995,263.177,266.825,268.843,271.793,275.705,277.763,281.126,284.048,286.065,290.178,293.549,296.838,299.301,301.45,305.631,309.279,311.296,315.17,317.528,319.546,322.017,326.13,329.456,331.474,336.772,339.595,342.959,345.423,347.571,350.882,352.9,358.686,361.997,365.368,368.731,372.973,374.99,378.353,382.564,386.663,388.681,392.111,396.12,398.201,401.632,404.943,408.269,412.368,414.793,416.811,419.761,423.133,426.541,429.432,431.281,433.298,437.037,440.775,444.514,448.252,452.29,456.029,459.768,463.507,467.245,469.093,471.111,476.124,478.475,480.939,483.904,486.023,489.889,493.921,496.384,498.532,502.406,506.647,508.665,512.029,516.24,520.338,522.355,525.179,529.09,531.126,534.452,536.47,538.618,542.859,544.876,547.347,551.461,554.648" style="fill:#000000;font-family:PHQBOE+MinionPro-Regular;font-size:7.5px;font-style:NORMAL;font-weight:normal;">Increasing solar heating of the Arctic Ocean and adjacent seas, 1979–2005: Attribution and role in the </text>
  <text x="167.638,169.648,172.82,176.008,179.908,183.237,185.105,188.982,192.207,196.167,199.992,201.522,203.675,206.899,210.124,214.054,217.901,221.194,224.321,228.064,229.774" y="319.118" svg_rhmargin="231.476" style="fill:#000000;font-family:PHQBOE+MinionPro-Regular;font-size:7.5px;font-style:NORMAL;font-weight:normal;">ice–albedo feedback. </text>
  <text x="231.304,236.441,239.396,242.854,246.424,250.068,253.383,255.911,257.673,259.218,263.703,266.643,269.171,270.933,272.478,276.49,279.438,281.741" y="319.118" svg_rhmargin="284.044" style="fill:#000000;font-family:XBPSWO+MinionPro-It;font-size:7.5px;font-style:ITALIC;font-weight:normal;">Geophys. Res. Lett</text>
  <text x="284.043,285.753" y="319.118" svg_rhmargin="287.455" style="fill:#000000;font-family:PHQBOE+MinionPro-Regular;font-size:7.5px;font-style:NORMAL;font-weight:normal;">. </text>
  <text x="287.293,291.043,294.793" y="319.118" svg_rhmargin="296.698" style="fill:#000000;font-family:EOBIQA+MinionPro-Bold;font-size:7.5px;font-style:NORMAL;font-weight:bold;">34,</text>
  <text y="319.118" svg_rhmargin="444.508" x="298.228,301.828,305.428,309.028,310.738,312.268,316.303,319.903,323.503,327.103,330.703,334.303,336.013,337.543,341.503,345.238,347.248,348.958,350.488,354.088,357.688,359.398,362.998,366.598,370.198,373.798,376.28,379.88,383.48,387.08,390.68,396.043,400.078,403.678,407.278,410.878,414.478,418.078,421.678,423.208,425.803,429.403,433.003,436.603,440.203,442.798" style="fill:#000000;font-family:PHQBOE+MinionPro-Regular;font-size:7.5px;font-style:NORMAL;font-weight:normal;">750, L19505, doi: 10.1029/2007GL031480 (2007).</text>
  <text x="155.728,159.328,162.928,164.638,166.34,167.638,172.608,175.823,179.821,182.699,185.891,189.964,191.741,193.504,200.254,202.031,203.794,207.896,209.674,211.451,213.214,218.582,221.432,224.655,228.133,231.388,234.191,237.068,240.323,244.493,246.271,248.033,252.906,254.684,256.446,261.876,263.654,265.431,267.194,271.766,273.789,277.044,279.937,284.045,286.826,289.216,291.966,295.766,301.976,303.754,305.516,312.266,314.044,315.806,321.206,322.969,327.384,329.462,333.487,335.885,339.175,343.2,345.208,348.568,350.345,352.108,356.981,358.758,360.521,368.588,371.843,373.606,376.861,381.066,384.356,387.647,390.002,391.764,395.564,397.852,399.614,403.642,407.412,412.637,416.633,421.776,424.999,426.999,428.964,431.042,435.149,438.727,440.489,442.454,446.255,450.362,454.118,459.323,462.546,466.024,469.279,471.041,474.332,478.47,482.498,484.26,487.048,491.088,494.888,497.811,500.186,505.391,508.614,512.093,515.348,517.11,519.96,523.32,527.348,529.445,532.661,535.051,537.128,540.929,545.099,546.861,550.662,554.765" y="327.615" svg_rhmargin="556.467" style="fill:#000000;font-family:PHQBOE+MinionPro-Regular;font-size:7.5px;font-style:NORMAL;font-weight:normal;">25. Kapsch, M. L., Graversen, R. G., Tjernström, M. &amp; Bintanja, R. The effect of downwelling longwave and shortwave radiation on </text>
  <text x="167.638,172.798,175.483,178.708,181.033,183.043,186.215,187.745,190.46,194.443,200.585,206.698,209.885,212.668,214.198,217.01,220.243,223.535,225.065,227.075,230.248,233.39,235.1" y="336.113" svg_rhmargin="236.802" style="fill:#000000;font-family:PHQBOE+MinionPro-Regular;font-size:7.5px;font-style:NORMAL;font-weight:normal;">Arctic summer sea ice. </text>
  <text x="236.63,238.805,240.567,242.112,246.875,248.645,250.595,256.445,259.955,262.182" y="336.113" svg_rhmargin="265.182" style="fill:#000000;font-family:XBPSWO+MinionPro-It;font-size:7.5px;font-style:ITALIC;font-weight:normal;">J. Climate</text>
  <text x="265.19,266.9" y="336.113" svg_rhmargin="268.602" style="fill:#000000;font-family:PHQBOE+MinionPro-Regular;font-size:7.5px;font-style:NORMAL;font-weight:normal;">, </text>
  <text x="268.43,272.18,275.93" y="336.113" svg_rhmargin="277.835" style="fill:#000000;font-family:EOBIQA+MinionPro-Bold;font-size:7.5px;font-style:NORMAL;font-weight:bold;">29,</text>
  <text y="336.113" svg_rhmargin="431.315" x="279.365,282.965,286.565,290.165,293.765,297.665,301.265,304.865,308.465,312.065,313.775,315.305,319.265,323.0,325.01,326.72,328.25,331.85,335.45,337.16,340.76,344.36,347.96,351.56,354.043,356.472,361.46,365.495,368.052,370.722,376.235,378.905,382.505,386.105,388.775,392.375,395.975,399.575,403.175,404.885,408.485,410.015,412.61,416.21,419.81,423.41,427.01,429.605" style="fill:#000000;font-family:PHQBOE+MinionPro-Regular;font-size:7.5px;font-style:NORMAL;font-weight:normal;">1143–1159, doi: 10.1175/JCLI-D-15-0238.1 (2016).</text>
  <text x="155.728,159.328,162.928,164.638,166.34,167.638,172.738,176.473,179.255,183.133,186.32,188.532,190.82,192.53,194.007,196.16,197.87,199.347,201.5,203.21" y="344.61" svg_rhmargin="204.912" style="fill:#000000;font-family:PHQBOE+MinionPro-Regular;font-size:7.5px;font-style:NORMAL;font-weight:normal;">26. Corbett, J. J. </text>
  <text x="204.687,207.635,209.937,211.422,215.015,216.882" y="344.61" svg_rhmargin="218.644" style="fill:#000000;font-family:XBPSWO+MinionPro-It;font-size:7.5px;font-style:ITALIC;font-weight:normal;">et al.</text>
  <text y="344.61" svg_rhmargin="396.824" x="220.122,225.282,227.967,231.191,233.516,235.526,238.699,240.176,242.899,246.904,248.824,252.671,256.511,258.521,262.563,266.073,267.551,270.738,276.881,278.868,281.583,284.336,286.346,290.081,294.123,296.876,298.353,300.363,304.293,307.706,310.893,314.853,317.096,320.831,323.658,325.668,328.856,331.608,333.082,336.308,340.38,344.34,345.818,348.083,351.975,354.188,358.17,360.855,364.043,365.52,368.332,371.505,374.692,378.772,381.997,384.825,386.835,390.66,393.412,395.122" style="fill:#000000;font-family:PHQBOE+MinionPro-Regular;font-size:7.5px;font-style:NORMAL;font-weight:normal;">Arctic shipping emissions inventories and future scenarios. </text>
  <text x="396.6,401.28,403.515,409.365,412.845,415.372,417.135,418.62,423.382,427.162,430.162,436.065,437.827,439.312,443.43,447.075,450.39" y="344.61" svg_rhmargin="452.918" style="fill:#000000;font-family:XBPSWO+MinionPro-It;font-size:7.5px;font-style:ITALIC;font-weight:normal;">Atmos. Chem. Phys</text>
  <text x="452.917,454.627" y="344.61" svg_rhmargin="456.329" style="fill:#000000;font-family:PHQBOE+MinionPro-Regular;font-size:7.5px;font-style:NORMAL;font-weight:normal;">. </text>
  <text x="456.073,459.823,463.573" y="344.61" svg_rhmargin="465.478" style="fill:#000000;font-family:EOBIQA+MinionPro-Bold;font-size:7.5px;font-style:NORMAL;font-weight:bold;">10,</text>
  <text y="344.61" svg_rhmargin="554.645" x="466.955,470.555,474.155,477.755,481.355,485.255,488.855,492.455,496.055,499.655,501.365,502.843,506.803,510.538,512.548,514.258,515.735,519.335,522.935,524.645,528.245,531.845,535.445,539.045,541.528,544.82,548.045,551.975" style="fill:#000000;font-family:PHQBOE+MinionPro-Regular;font-size:7.5px;font-style:NORMAL;font-weight:normal;">9689–9704, doi: 10.5194/acp-</text>
  <text x="167.638,171.238,174.838,177.508,181.108,184.708,188.308,191.908,194.578,198.178,201.778,205.378,208.978,210.508,213.103,216.703,220.303,223.903,227.503,230.098" y="353.108" svg_rhmargin="231.808" style="fill:#000000;font-family:PHQBOE+MinionPro-Regular;font-size:7.5px;font-style:NORMAL;font-weight:normal;">10-9689-2010 (2010).</text>
  <text x="155.728,159.328,162.928,164.638,166.34,167.638,171.193,174.418,178.49,182.405,184.115,185.69,192.373,194.083" y="361.605" svg_rhmargin="195.785" style="fill:#000000;font-family:PHQBOE+MinionPro-Regular;font-size:7.5px;font-style:NORMAL;font-weight:normal;">27. Sand, M. </text>
  <text x="195.658,198.605,200.908,202.498,206.09,207.958" y="361.605" svg_rhmargin="209.72" style="fill:#000000;font-family:XBPSWO+MinionPro-It;font-size:7.5px;font-style:ITALIC;font-weight:normal;">et al.</text>
  <text y="361.605" svg_rhmargin="403.298" x="211.295,219.298,222.485,224.06,229.22,231.905,235.13,237.455,239.465,242.637,244.212,246.897,250.085,252.8,256.796,260.531,264.574,267.386,270.574,272.149,274.391,278.216,279.791,282.476,285.664,291.776,295.519,297.761,300.949,302.524,305.749,309.821,313.781,315.356,317.254,321.146,324.341,327.671,329.568,331.143,333.296,337.031,339.716,342.888,344.898,348.94,352.45,354.025,357.76,359.98,361.555,365.312,367.232,370.524,373.652,377.394,378.969,382.163,385.388,388.171,392.048,395.783,399.886,401.596" style="fill:#000000;font-family:PHQBOE+MinionPro-Regular;font-size:7.5px;font-style:NORMAL;font-weight:normal;">The Arctic response to remote and local forcing of black carbon. </text>
  <text x="403.171,407.85,410.086,415.936,419.415,421.943,423.705,425.295,430.058,433.838,436.838,442.74,444.503,446.093,450.21,453.855,457.17" y="361.605" svg_rhmargin="459.698" style="fill:#000000;font-family:XBPSWO+MinionPro-It;font-size:7.5px;font-style:ITALIC;font-weight:normal;">Atmos. Chem. Phys</text>
  <text x="459.698,461.408" y="361.605" svg_rhmargin="463.11" style="fill:#000000;font-family:PHQBOE+MinionPro-Regular;font-size:7.5px;font-style:NORMAL;font-weight:normal;">. </text>
  <text x="462.973,466.723,470.473" y="361.605" svg_rhmargin="472.378" style="fill:#000000;font-family:EOBIQA+MinionPro-Bold;font-size:7.5px;font-style:NORMAL;font-weight:bold;">13,</text>
  <text y="361.605" svg_rhmargin="554.637" x="473.953,477.553,481.153,484.753,488.653,492.253,495.853,499.453,501.163,502.738,506.698,510.433,512.443,514.153,515.728,519.328,522.928,524.638,528.238,531.838,535.438,539.038,541.52,544.813,548.037,551.967" style="fill:#000000;font-family:PHQBOE+MinionPro-Regular;font-size:7.5px;font-style:NORMAL;font-weight:normal;">211–224, doi: 10.5194/acp-</text>
  <text x="167.638,171.238,174.838,177.508,181.108,184.708,188.308,190.978,194.578,198.178,201.778,205.378,206.908,209.503,213.103,216.703,220.303,223.903,226.498" y="370.103" svg_rhmargin="228.208" style="fill:#000000;font-family:PHQBOE+MinionPro-Regular;font-size:7.5px;font-style:NORMAL;font-weight:normal;">13-211-2013 (2013).</text>
  <text x="155.728,159.328,162.928,164.638,166.34,167.638,172.895,174.845,178.085,181.618,184.895,188.195,191.173,192.935,194.653,198.898,200.66,202.378,207.613,209.375,211.138,212.855,217.055,220.334,224.429,227.931,231.171,235.326,237.089,238.806,242.039,243.801,245.519,249.606,251.369,253.086,258.471,260.189,264.719,267.921,270.216,273.456,276.261,278.024,279.741,281.947,283.709,285.427,290.287,292.049,293.767,297.802,301.627,303.599,306.878,309.713,311.43,314.708,320.76,324.691,326.641,328.703,332.768,336.016,339.219,341.597,343.659,347.447,351.602,353.319,357.107,359.379,361.097,363.865,367.9,370.78,373.052,376.397,379.622,382.862,384.58,389.77,393.047,395.927,402.122,404.185,408.28,411.842,413.56,417.348,421.503,423.221,426.499,430.654,432.371,435.716,439.526,443.584,446.787,450.717,452.69,455.968,460.093,463.333,465.673,467.39,469.453,473.608,475.325,478.94,482.968,486.845,489.614,491.954,493.671,495.877,499.664,502.402,505.627,507.689,511.785,515.348,517.065,520.305,523.898,527.948,531.188,534.068,536.13,542.295,545.535,549.548,551.888,554.641" y="378.6" svg_rhmargin="556.343" style="fill:#000000;font-family:PHQBOE+MinionPro-Regular;font-size:7.5px;font-style:NORMAL;font-weight:normal;">28. Alexeev, V. A., Langen, P. L. &amp; Bates, J. R. Polar amplification of surface warming on an aquaplanet in ghost forcing experiments </text>
  <text x="167.638,172.798,174.718,177.05,181.025,184.768,188.66,190.948,192.478,195.29,198.522,201.815,203.345,205.355,208.527,211.715,213.245,215.397,218.622,221.847,225.777,229.625,232.917,236.045,239.787,242.54,244.25" y="387.098" svg_rhmargin="245.952" style="fill:#000000;font-family:PHQBOE+MinionPro-Regular;font-size:7.5px;font-style:NORMAL;font-weight:normal;">without sea ice feedbacks. </text>
  <text x="245.78,250.542,252.312,254.262,260.165,261.927,263.472,268.865,272.277" y="387.098" svg_rhmargin="276.267" style="fill:#000000;font-family:XBPSWO+MinionPro-It;font-size:7.5px;font-style:ITALIC;font-weight:normal;">Clim. Dyn</text>
  <text x="276.267,277.977" y="387.098" svg_rhmargin="279.679" style="fill:#000000;font-family:PHQBOE+MinionPro-Regular;font-size:7.5px;font-style:NORMAL;font-weight:normal;">. </text>
  <text x="279.515,283.265,287.015" y="387.098" svg_rhmargin="288.92" style="fill:#000000;font-family:EOBIQA+MinionPro-Bold;font-size:7.5px;font-style:NORMAL;font-weight:bold;">24,</text>
  <text y="387.098" svg_rhmargin="338.78" x="290.45,294.05,297.65,301.25,305.15,308.75,312.35,315.95,317.48,320.075,323.675,327.275,330.875,334.475,337.07" style="fill:#000000;font-family:PHQBOE+MinionPro-Regular;font-size:7.5px;font-style:NORMAL;font-weight:normal;">655–666 (2005).</text>
  <text x="155.728,159.328,162.928,164.638,166.34,167.638,171.812,173.752,176.103,180.105,183.35,187.475,189.207,190.842,194.004,195.737" y="395.595" svg_rhmargin="197.439" style="fill:#000000;font-family:PHQBOE+MinionPro-Regular;font-size:7.5px;font-style:NORMAL;font-weight:normal;">29. Pithan, F. </text>
  <text x="197.372,200.339,202.664,204.314,207.926,209.816" y="395.595" svg_rhmargin="211.578" style="fill:#000000;font-family:XBPSWO+MinionPro-It;font-size:7.5px;font-style:ITALIC;font-weight:normal;">et al.</text>
  <text y="395.595" svg_rhmargin="556.403" x="213.236,216.915,220.092,222.012,225.257,228.5,230.81,232.445,235.18,237.524,240.229,243.435,247.497,251.03,253.382,257.346,260.121,261.756,265.001,269.093,273.075,274.71,278.45,280.502,283.79,286.622,289.832,292.607,294.242,297.997,300.239,301.874,308.006,311.918,315.897,319.074,320.969,323.744,325.379,327.411,331.536,333.171,335.876,339.082,342.941,345.646,348.856,351.688,354.898,358.877,361.221,363.254,367.316,370.848,372.483,374.835,378.83,382.036,383.671,388.85,391.554,394.799,397.143,399.176,402.367,404.002,409.181,411.213,415.193,417.455,420.665,423.466,425.101,428.997,432.759,436.764,440.856,444.858,448.103,451.121,454.586,456.221,458.16,461.337,464.739,467.949,470.754,472.389,476.114,479.546,482.752,485.557,487.192,490.023,493.275,496.59,498.225,500.258,503.453,506.659,508.391,510.026,512.378,516.372,519.582,521.217,525.384,528.629,531.333,534.528,536.7,540.454,543.301,549.466,551.101,554.701" style="fill:#000000;font-family:PHQBOE+MinionPro-Regular;font-size:7.5px;font-style:NORMAL;font-weight:normal;">Select strengths and biases of models in representing the Arctic winter boundary layer over sea ice: the Larcform 1 </text>
  <text x="167.638,170.39,172.4,176.443,180.005,181.903,185.09,186.62,189.793,193.565,195.373,199.355,205.498,209.6,211.13,217.243,221.135,225.095,228.252,230.15,231.68,233.69,237.65,239.892,243.08,245.765,248.937,252.671,258.671,262.639,265.864,268.691,270.679,273.491,277.226,281.329,283.039" y="404.093" svg_rhmargin="284.741" style="fill:#000000;font-family:PHQBOE+MinionPro-Regular;font-size:7.5px;font-style:NORMAL;font-weight:normal;">single column model intercomparison. </text>
  <text x="284.569,286.744,288.506,290.051,294.806,298.504,301.391,303.154,304.699,311.044,314.539,318.319,321.199,323.066,324.829,326.374,330.566,334.121,337.009,339.244,343.076,344.621,347.929,351.244,353.696,355.968" y="404.093" svg_rhmargin="357.73" style="fill:#000000;font-family:XBPSWO+MinionPro-It;font-size:7.5px;font-style:ITALIC;font-weight:normal;">J. Adv. Model. Earth Syst.</text>
  <text y="404.093" svg_rhmargin="467.066" x="359.261,363.221,366.956,368.966,370.676,372.206,375.806,379.406,381.116,384.716,388.316,391.916,395.516,397.998,401.598,405.198,408.798,412.398,419.081,422.636,426.236,429.836,433.436,437.036,440.636,444.236,445.766,448.361,451.961,455.561,459.161,462.761,465.356" style="fill:#000000;font-family:PHQBOE+MinionPro-Regular;font-size:7.5px;font-style:NORMAL;font-weight:normal;">doi: 10.1002/2016MS000630 (2016).</text>
  <text x="155.638,162.865,167.716,173.392,179.497,185.591,193.83,196.602,202.245,208.383,214.433,220.076,229.448,235.091,241.196,245.365" y="422.138" svg_rhmargin="250.029" style="fill:#000000;font-family:MAZKIK+Corbel-Bold;font-size:11.0px;font-style:NORMAL;font-weight:bold;">Acknowledgements</text>
  <text x="155.638,163.606,167.53,169.726,173.776,177.63,182.23,187.219,191.766,198.095,200.471,204.442,209.293,213.534,217.458,219.654,222.555,227.426,231.35,233.546,241.512,246.096,249.5,251.876,256.727,258.923,265.055,267.431,269.942,277.387,281.268,284.06,287.984,290.18,295.897,299.821,303.297,307.276,311.248,314.571,318.425,323.33,325.526,330.613,333.936,338.625,342.983,346.421,350.392,357.862,365.298,368.701,369.955,373.357,375.553,383.52,388.104,391.507,396.108,398.619,403.571,407.882,410.078,416.542,419.865,424.457,429.229,434.044,436.24,440.824,445.846,448.042,454.264,458.855,463.628,468.382,470.758,474.73,479.581,481.777,489.662,494.434,499.285,503.175,505.598,507.974,510.485,515.437,519.777,521.928,524.124,530.454,535.359,537.87,541.725,546.63,548.826,551.312,554.615" y="432.138" svg_rhmargin="556.658" style="fill:#000000;font-family:PHQBOE+MinionPro-Regular;font-size:9.0px;font-style:NORMAL;font-weight:normal;">We acknowledge the World Climate Research Programme’s Working Group on Coupled Modelling, which is </text>
  <text x="155.638,158.823,162.612,165.833,170.592,175.038,179.851,183.118,185.456,189.928,192.169,195.958,197.659,200.204,204.649,207.952,209.653,215.602,223.585,226.618,230.397,232.413,234.114,237.947,242.796,247.512,249.213,255.268,259.057,260.758,263.519,268.261,272.094,277.025,281.453,283.154,287.113,289.397,291.638,293.339,297.054,299.295,301.671,308.978,312.721,315.375,319.164,322.332,329.629,334.262,338.978,342.729,345.014,347.255,349.631,354.445,358.621,360.322,364.542,367.727,372.181,376.814,381.494,384.761,386.462,389.008,393.452,396.755,398.456,403.026,406.212,410.845,415.452,420.195,423.966,426.342,431.156,435.332,437.033,440.866,445.716,450.432,452.133,459.44,463.398,467.861,470.237,475.05,479.226,480.927,484.679,488.81,492.643,495.062,497.329,501.171,505.643,507.884,511.673,513.374,516.135,520.868,524.657,527.033,530.336,532.037,539.335,543.968,548.684,552.435,554.712" y="442.137" svg_rhmargin="556.755" style="fill:#000000;font-family:PHQBOE+MinionPro-Regular;font-size:9.0px;font-style:NORMAL;font-weight:normal;">responsible for CMIP, and we thank all climate-modelling groups for producing and making available their model </text>
  <text x="155.638,160.144,164.828,167.497,172.129,176.814,179.573,181.643,183.596,188.2,192.696,196.053,198.006,204.009,212.046,215.128,220.213,222.166,224.979,229.763,233.606,235.559,241.522,243.592,247.876,249.946,251.899,258.581,262.424,267.199,271.083,274.526,277.33,284.679,288.518,293.284,296.047,298.0,302.497,305.174,307.127,312.257,317.158,320.997,324.278,328.72,332.869,334.035,337.356,339.309,344.309,347.545,352.153,356.424,359.781,363.665,371.05,373.003,375.6,380.096,383.449,385.402,391.445,393.74,396.166,403.524,407.319,410.023,413.866,415.819,423.619,428.303,433.073,436.876,439.167,441.12,447.748,450.202,454.122,458.393,463.294,467.898,471.219,473.618,476.935,478.888,482.772,487.673,492.443,494.396,497.336,502.101,504.807,508.65,511.885,515.71,520.207,527.42,532.195,536.08,539.486,541.886,545.274,549.771,554.694" y="452.136" svg_rhmargin="556.737" style="fill:#000000;font-family:PHQBOE+MinionPro-Regular;font-size:9.0px;font-style:NORMAL;font-weight:normal;">output. For CMIP the U.S. Department of Energy’s Program for Climate Model Diagnosis and Intercomparison </text>
  <text x="155.638,160.325,163.626,168.152,172.425,174.918,179.751,183.657,187.041,189.156,193.044,197.794,202.355,205.657,210.49,212.983,217.958,221.816,224.685,227.178,232.108,236.401,238.516,241.853,246.603,251.299,256.175,260.737,264.245,267.071,269.186,273.135,278.101,282.934,285.049,287.407,291.356,296.189,298.304,303.137,307.113,311.287,315.155,317.513,322.083,326.77,334.185,338.091,342.922,345.748,347.863,352.424,355.169,357.284,360.738,365.299,370.644,376.89,380.839,384.139,388.045,390.16,392.653,397.657,400.49,403.91,407.914,411.251,414.12,417.628,422.488,426.437,429.171,434.031,437.333,441.239,443.354,445.847,450.851,452.966,457.806,461.754,465.262,468.132,473.098,477.004,480.368,483.714,488.601,490.984,495.781,497.896,504.168,506.551,509.429,514.316,516.431,519.308,524.157,528.063,530.178,536.666,539.024,543.648,548.343,552.418,554.695" y="462.135" svg_rhmargin="556.738" style="fill:#000000;font-family:PHQBOE+MinionPro-Regular;font-size:9.0px;font-style:NORMAL;font-weight:normal;">provides coordinating support and led development of software infrastructure in partnership with the Global </text>
  <text x="155.638,162.334,165.578,169.763,173.609,178.505,180.89,184.643,188.4,191.166,193.551,198.01,202.906,204.616,207.176,211.634,214.946,216.656,221.862,225.709,229.114,231.89,236.669,238.379,242.477,246.581,249.816,252.484,256.282,263.626,265.336,269.704,273.484,275.869,279.667,284.531,288.311,292.109,293.819,298.574,303.033,306.439,309.214,313.187,315.413,318.689,320.714,322.424,330.268,334.066,335.776,339.622,342.821,346.619,348.329,352.563,355.875,359.631,362.299,366.097,368.791,373.592,375.842,377.552,380.22,384.783,386.493,389.268,394.015,397.813,399.523,404.608,410.566,413.743,418.948,422.795,426.201,428.976,433.755,435.465,439.245,443.704,448.531,451.883,456.342,459.747,462.514,464.794,469.546,476.89,478.6,481.161,485.619,488.931,490.641,493.417,498.164,501.962,504.347,507.659,509.369,513.149,517.607,522.336,525.102,528.472,530.825,535.274,539.922,542.688,545.073,549.532,554.455" y="472.134" svg_rhmargin="556.498" style="fill:#000000;font-family:PHQBOE+MinionPro-Regular;font-size:9.0px;font-style:NORMAL;font-weight:normal;">Organization for Earth System Science Portals. We are grateful to the EC-Earth consortium for their contribution </text>
  <text x="155.638,158.512,163.282,165.32500000000002,165.761,168.743,173.696,177.701,179.744,180.179,185.111,189.191,193.47,197.441,199.898,204.572,209.364,216.881,220.886,225.821,228.746,230.78900000000002,231.226,235.89,238.734,240.77700000000002,241.214,244.195,249.148,253.153,255.196,255.633,261.044,265.097,268.709,271.69,276.676,278.719,279.155,283.46,287.771,291.211,294.085,298.09,305.641,307.684,308.12,316.087,320.941,325.873,329.845,332.302,334.345,334.78,340.072,346.237,349.621,355.033,359.086,362.698,365.68,370.666,372.898,374.94100000000003,375.378,383.426,387.431,389.474,389.91,392.893,397.854,401.907,407.059,411.703,413.746,414.181,419.473,421.705,423.748,424.184,428.531,432.584,437.687,439.73,440.166,445.098,449.103,452.622,454.665,455.101,460.18,462.772,467.842,472.774,476.779,481.882,483.925,484.361,488.413,493.484,498.416,500.459,500.895,509.094,511.326,513.369,513.805,519.938,523.9,528.796,532.354,536.29,541.276,543.319,543.754,546.52,551.186,554.524" y="482.133" svg_rhmargin="556.567" style="fill:#000000;font-family:PHQBOE+MinionPro-Regular;font-size:9.0px;font-style:NORMAL;font-weight:normal;">to the development of the Earth System Model EC-Earth. We thank E. van der Linden and M. Kapsch for </text>
  <text x="155.638,159.445,163.927,168.778,172.036,174.826,178.254,183.033,186.903,189.693,192.042,196.137,199.962,201.798,205.605,210.087,217.458,224.792,228.617,233.369,236.114,239.417,241.253,245.735,250.658,252.494,256.364,261.287,263.123,267.002,270.872,274.175,276.452,278.864,282.689,286.028,287.864,291.959,295.784,299.069,302.372,304.784,309.265,314.188,316.024,320.506,323.17,325.006,327.805,332.575,336.4,338.236,345.58,349.45,354.202,358.954,362.329,366.136,369.528,371.832,376.449,379.194" y="492.132" svg_rhmargin="381.246" style="fill:#000000;font-family:PHQBOE+MinionPro-Regular;font-size:9.0px;font-style:NORMAL;font-weight:normal;">constructive comments on an earlier version of the manuscript.</text>
  <text x="155.638,162.865,168.86,173.029,179.189,185.283,189.133,190.739,197.163,203.257,209.362,213.531,217.381,220.12,226.247,232.242,236.411,239.15,245.244,251.349" y="510.138" svg_rhmargin="256.013" style="fill:#000000;font-family:MAZKIK+Corbel-Bold;font-size:11.0px;font-style:NORMAL;font-weight:bold;">Author Contributions</text>
  <text x="155.638,161.459,163.619,168.865,171.025,173.239,178.099,182.102,186.303,190.198,192.583,197.18,202.084,206.06,210.92,213.129,216.034,220.911,224.844,227.053,229.573,234.433,238.418,242.449,245.86,248.069,250.974,255.859,259.746,262.599,264.808,267.193,271.178,275.237,280.097,282.307,285.104,289.802,292.012,294.917,299.831,302.322,305.733,307.942,312.81,316.696,321.599,325.532,328.41,330.57,332.784,338.605,340.765,346.009,348.169,350.383,354.359,359.352,364.212,366.422,370.299,372.459,378.624,380.784,382.993,386.97,391.972,396.074,398.394,402.633,406.114,410.091,414.951,417.165,420.07,424.946,428.879,431.093,436.313,442.406,445.718,451.053,455.029,458.565,461.47,466.384,468.593,476.034,480.812,485.672,489.567,491.994,494.379,496.899,501.856,506.176,508.386,511.714,515.647,519.011,523.942,526.217,529.07,532.481,534.641,536.855,542.432,547.029,549.934,554.74" y="520.1379999999999" svg_rhmargin="556.783" style="fill:#000000;font-family:PHQBOE+MinionPro-Regular;font-size:9.0px;font-style:NORMAL;font-weight:normal;">R.B. developed the ideas that lead to this paper. R.B. and F.K. analysed the EC-Earth modelling results. Both </text>
  <text x="155.638,159.418,164.089,166.888,171.658,176.14,179.425,182.728,184.564,189.316,191.701,195.076,198.946,203.698,206.956,210.331,214.201,218.953,220.789,223.588,228.358,232.183,234.019,237.241,241.066,244.324,249.148,251.317,254.062,257.365,259.201,263.071,267.958,272.71,274.546,276.958,284.158,288.811,291.088,293.5,297.334,301.114,303.904,306.316,310.798,315.649,318.952,320.788,324.658,329.545,334.297,336.133,339.94,344.422,351.793,359.128,362.953,367.705,370.396,374.265,379.017,380.853,385.335,390.258,392.094,394.893,399.663,403.488,405.324,412.668,416.538,421.29,426.042,429.417,433.224,436.616,438.92,443.537,446.282,448.118,451.898,454.643,456.479,460.475,462.797,465.074,466.91,470.168,472.967,476.873,481.013,484.838,488.141" y="530.137" svg_rhmargin="490.193" style="fill:#000000;font-family:PHQBOE+MinionPro-Regular;font-size:9.0px;font-style:NORMAL;font-weight:normal;">authors discussed the results and implications and commented on the manuscript at all stages.</text>
  <text x="155.638,162.865,169.003,175.141,177.88,182.049,184.788,190.882,196.987,202.652,205.424,207.447,210.483,216.588,220.196,226.29,230.14,239.512,245.177,249.346,252.085,258.179" y="548.138" svg_rhmargin="264.284" style="fill:#000000;font-family:MAZKIK+Corbel-Bold;font-size:11.0px;font-style:NORMAL;font-weight:bold;">Additional Information</text>
  <text x="155.638,161.902,166.537,174.052,179.074,183.034,186.039,188.694,193.716,198.144,199.899,205.128,210.222,214.371,219.465,223.263,225.954,230.193,232.695,234.45,237.105,242.127,245.07,248.958,252.522,256.455,259.866,262.917,266.364,268.65" y="558.138" svg_rhmargin="270.603" style="fill:#000000;font-family:EOBIQA+MinionPro-Bold;font-size:9.0px;font-style:NORMAL;font-weight:bold;">Competing financial interests: </text>
  <text x="270.405,280.009,283.834,285.67,289.45,294.121,296.92,301.69,306.172,309.457,312.76,314.596,319.348,323.218,326.971,329.274,333.144,336.366,340.191,342.027,346.914,351.504,353.34,357.147,361.629,368.829,373.625,377.45,380.24,382.652,387.503,391.715,393.551,398.366,403.262,407.132,412.019,415.826,418.265,422.26,424.537,426.373,428.785,433.537,436.228,440.053,443.275,447.1,450.358,453.103,456.406" y="558.138" svg_rhmargin="458.458" style="fill:#000000;font-family:PHQBOE+MinionPro-Regular;font-size:9.0px;font-style:NORMAL;font-weight:normal;">The authors declare no competing financial interests.</text>
  <text x="155.638,162.496,167.185,173.332,175.087,178.03,182.755,184.51,188.308,190.918,193.861,197.794,199.549,202.6,207.55,210.205,213.652,215.407,219.556,223.3,226.306,229.015,232.813,235.369" y="572.637" svg_rhmargin="239.302" style="fill:#000000;font-family:EOBIQA+MinionPro-Bold;font-size:9.0px;font-style:NORMAL;font-weight:bold;">How to cite this article</text>
  <text x="239.302,241.354,243.19,248.41,250.822,255.574,258.373,262.243,266.995,269.326,273.277,275.329,277.165,282.88,284.932,286.768,290.638,295.525,300.277,302.113,308.107,311.5,313.957,318.501,322.884,326.709,331.632,333.684,335.52,339.291,341.343,343.179,351.045,354.951,359.208,364.131,366.435,369.09,373.869,378.621,382.446,384.282,388.152,393.039,397.791,399.627,404.388,408.168,410.823,413.514,417.339,420.732,425.655,427.491,431.974,434.638,436.474,442.666,445.888,449.758,452.548,454.96,458.767,460.603,466.768,470.638,474.03,481.401,483.813,488.664,492.876,494.712,498.852,503.298,507.393,511.218,514.61,519.497,523.367,528.119,529.955,534.383,538.514,540.35,543.149,547.919,551.744" y="572.637" svg_rhmargin="553.787" style="fill:#000000;font-family:PHQBOE+MinionPro-Regular;font-size:9.0px;font-style:NORMAL;font-weight:normal;">: Bintanja, R. and Krikken, F. Magnitude and pattern of Arctic warming governed by the </text>
  <text x="155.638,159.013,162.892,166.816,170.191,174.673,179.569,183.565,185.842,188.145,190.917,195.048,196.884,201.366,204.03,205.866,209.205,213.156,217.908,220.347,224.126,226.916,229.265,233.36,237.185,239.021,241.604,246.086,249.308,253.115,255.527,260.378,264.617,266.669" y="582.636" svg_rhmargin="268.712" style="fill:#000000;font-family:PHQBOE+MinionPro-Regular;font-size:9.0px;font-style:NORMAL;font-weight:normal;">seasonality of radiative forcing. </text>
  <text x="268.505,272.771,276.209,278.666,280.781,282.635,287.999,291.563,295.586" y="582.636" svg_rhmargin="297.701" style="fill:#000000;font-family:XBPSWO+MinionPro-It;font-size:9.0px;font-style:ITALIC;font-weight:normal;">Sci. Rep.</text>
  <text y="582.636" style="fill:#000000;font-family:PHQBOE+MinionPro-Regular;font-size:9.0px;font-style:NORMAL;font-weight:normal;" svg_rhmargin="299.744" x=""/>
  <text x="299.548" y="582.636" svg_rhmargin="304.048" style="fill:#000000;font-family:EOBIQA+MinionPro-Bold;font-size:9.0px;font-style:NORMAL;font-weight:bold;">6</text>
  <text x="304.048,306.1,307.936,312.256,316.576,320.896,325.216,329.536,331.588,333.424,338.176,342.658,345.07,347.122,348.958,353.278,357.598,359.65,363.97,368.29,372.61,376.93,379.909,383.212,386.434,390.259,394.975,399.295,403.615,407.935,412.255,416.575,418.411,421.525,425.845,430.165,434.485,438.805,441.919" y="582.636" svg_rhmargin="443.971" style="fill:#000000;font-family:PHQBOE+MinionPro-Regular;font-size:9.0px;font-style:NORMAL;font-weight:normal;">, 38287; doi: 10.1038/srep38287 (2016).</text>
  <text x="155.638,161.029,165.997,170.776,173.278,175.933,179.353,184.303,188.191,191.827,193.618,197.065,198.82,203.914,208.567,211.51,215.443" y="597.135" svg_rhmargin="217.729" style="fill:#000000;font-family:EOBIQA+MinionPro-Bold;font-size:9.0px;font-style:NORMAL;font-weight:bold;">Publisher's note:</text>
  <text y="597.135" svg_rhmargin="546.307" x="219.565,223.704,228.312,231.705,234.117,238.968,243.108,246.933,250.272,252.108,258.561,262.341,264.996,269.775,272.997,276.822,278.658,281.88,285.705,293.049,296.919,299.331,304.182,307.485,309.321,314.208,318.033,322.704,325.494,328.833,332.828,335.105,336.941,343.133,345.437,348.236,353.042,354.878,358.1,361.925,366.137,370.007,373.229,377.981,379.817,382.509,387.099,388.935,391.149,395.928,399.321,401.706,405.081,409.833,412.245,416.114,418.904,421.316,425.798,430.694,434.69,436.967,438.803,442.556,444.86,448.73,451.142,458.441,461.744,463.58,465.992,470.915,472.751,477.368,482.111,486.62,488.897,491.282,494.549,499.319,503.189,507.941,509.777,517.12,520.9,525.616,528.919,530.755,534.625,539.512,544.264" style="fill:#000000;font-family:PHQBOE+MinionPro-Regular;font-size:9.0px;font-style:NORMAL;font-weight:normal;">Springer Nature remains neutral with regard to jurisdictional claims in published maps and </text>
  <text x="155.638,158.05,162.901,166.159,168.949,171.253,173.908,178.579,181.369,183.781,188.262,193.158,197.154,199.431,201.267,205.137,212.364,214.641,217.08,220.86,223.649,226.061,230.543,235.394,238.697" y="607.134" svg_rhmargin="240.749" style="fill:#000000;font-family:PHQBOE+MinionPro-Regular;font-size:9.0px;font-style:NORMAL;font-weight:normal;">institutional affiliations.</text>
  <path d="M40.638 770.187 L554.638 770.187 " style="fill:none;stroke:#000000;stroke-width:1.0;"/>
  <path d=" M 156.73089599609375 184.2971954345703 L 196.17788696289062 184.22718811035156 C 196.72889709472656 184.22718811035156 197.2209014892578 184.30918884277344 197.2209014892578 183.127197265625 L 197.1728973388672 170.13619995117188 L 155.73489379882812 170.13619995117188 L 155.73489379882812 183.17520141601562 C 155.73489379882812 183.75819396972656 155.79190063476562 184.2971954345703 156.73089599609375 184.2971954345703" style="fill:none;stroke:#000000;stroke-width:1.0;"/>
  <path d=" M 156.4197998046875 184.1204071044922 L 196.6157989501953 184.1204071044922 C 196.851806640625 184.1204071044922 197.0447998046875 183.92840576171875 197.0447998046875 183.69241333007812 L 197.0447998046875 174.20040893554688 L 168.2218017578125 174.20040893554688 C 167.16879272460938 172.29640197753906 165.13980102539062 171.00340270996094 162.81179809570312 171.00340270996094 C 160.48179626464844 171.00340270996094 158.45379638671875 172.29440307617188 157.4008026123047 174.20040893554688 L 155.9907989501953 174.20040893554688 L 155.9907989501953 183.69241333007812 C 155.9907989501953 183.92840576171875 156.18380737304688 184.1204071044922 156.4197998046875 184.1204071044922 M 196.6157989501953 184.4744110107422 L 156.4197998046875 184.4744110107422 C 155.98880004882812 184.4744110107422 155.63780212402344 184.12240600585938 155.63780212402344 183.69241333007812 L 155.63780212402344 170.03440856933594 C 155.63780212402344 169.9364013671875 155.716796875 169.85841369628906 155.81480407714844 169.85841369628906 L 197.22079467773438 169.85841369628906 C 197.3188018798828 169.85841369628906 197.39779663085938 169.9364013671875 197.39779663085938 170.03440856933594 L 197.39779663085938 183.69241333007812 C 197.39779663085938 184.12240600585938 197.0467987060547 184.4744110107422 196.6157989501953 184.4744110107422" style="fill:none;stroke:#000000;stroke-width:1.0;"/>
  <path d=" M 181.2884979248047 171.1678009033203 C 181.3385009765625 171.1678009033203 181.385498046875 171.1728057861328 181.43150329589844 171.18280029296875 C 181.47549438476562 171.19180297851562 181.51649475097656 171.20880126953125 181.5504913330078 171.22979736328125 C 181.5854949951172 171.25379943847656 181.6114959716797 171.28379821777344 181.6324920654297 171.32180786132812 C 181.65350341796875 171.3607940673828 181.6634979248047 171.41079711914062 181.6634979248047 171.4718017578125 C 181.6634979248047 171.58880615234375 181.6304931640625 171.67379760742188 181.5625 171.7248077392578 C 181.49649047851562 171.7738037109375 181.40750122070312 171.7998046875 181.29849243164062 171.7998046875 L 180.74449157714844 171.7998046875 L 180.74449157714844 171.1678009033203 Z M 181.25949096679688 172.1457977294922 C 181.34950256347656 172.1457977294922 181.42349243164062 172.1678009033203 181.4814910888672 172.20980834960938 C 181.54049682617188 172.2528076171875 181.56849670410156 172.3227996826172 181.56849670410156 172.41880798339844 C 181.56849670410156 172.47279357910156 181.5594940185547 172.51780700683594 181.54049682617188 172.5518035888672 C 181.52049255371094 172.58580017089844 181.49449157714844 172.61280822753906 181.46249389648438 172.63180541992188 C 181.4304962158203 172.6508026123047 181.39349365234375 172.664794921875 181.35049438476562 172.6717987060547 C 181.30850219726562 172.67979431152344 181.2655029296875 172.68380737304688 181.2205047607422 172.68380737304688 L 180.74449157714844 172.68380737304688 L 180.74449157714844 172.1457977294922 Z M 181.32350158691406 173.0778045654297 C 181.43350219726562 173.0778045654297 181.5334930419922 173.0677947998047 181.62449645996094 173.04879760742188 C 181.7154998779297 173.02879333496094 181.79249572753906 172.997802734375 181.8564910888672 172.95379638671875 C 181.92149353027344 172.90980529785156 181.97250366210938 172.85079956054688 182.0074920654297 172.77780151367188 C 182.04249572753906 172.70379638671875 182.06149291992188 172.61480712890625 182.06149291992188 172.50680541992188 C 182.06149291992188 172.39080810546875 182.0345001220703 172.29380798339844 181.98049926757812 172.216796875 C 181.92849731445312 172.1387939453125 181.85049438476562 172.0758056640625 181.74649047851562 172.0258026123047 C 181.88949584960938 171.98480224609375 181.99549865722656 171.91380310058594 182.06549072265625 171.81179809570312 C 182.13650512695312 171.70880126953125 182.17149353027344 171.58580017089844 182.17149353027344 171.4407958984375 C 182.17149353027344 171.32479858398438 182.14849853515625 171.2248077392578 182.10350036621094 171.13980102539062 C 182.05850219726562 171.05479431152344 181.99749755859375 170.98480224609375 181.92050170898438 170.9318084716797 C 181.84449768066406 170.8778076171875 181.7574920654297 170.83779907226562 181.6584930419922 170.81280517578125 C 181.5605010986328 170.78579711914062 181.4604949951172 170.77279663085938 181.35549926757812 170.77279663085938 L 180.2364959716797 170.77279663085938 L 180.2364959716797 173.0778045654297 Z " style="fill:none;stroke:#000000;stroke-width:1.0;"/>
  <path d=" M 182.26109313964844 173.0780029296875 L 182.82908630371094 173.0780029296875 L 183.3690948486328 172.16799926757812 L 183.90609741210938 173.0780029296875 L 184.4700927734375 173.0780029296875 L 183.61509704589844 171.6580047607422 L 183.61509704589844 170.77301025390625 L 183.10708618164062 170.77301025390625 L 183.10708618164062 171.67100524902344 Z " style="fill:none;stroke:#000000;stroke-width:1.0;"/>
  <path d=" M 167.55850219726562 177.6511993408203 C 167.55950927734375 175.0312042236328 165.43650817871094 172.9051971435547 162.81649780273438 172.9031982421875 C 160.19549560546875 172.90220642089844 158.07049560546875 175.0251922607422 158.06849670410156 177.64520263671875 L 158.06849670410156 177.6511993408203 C 158.06649780273438 180.2711944580078 160.1905059814453 182.3961944580078 162.8105010986328 182.398193359375 C 165.43150329589844 182.4001922607422 167.5574951171875 180.2761993408203 167.55850219726562 177.6562042236328 Z " style="fill:none;stroke:#000000;stroke-width:1.0;"/>
  <path d=" M 165.16099548339844 178.1804962158203 C 165.02499389648438 178.47650146484375 164.82598876953125 178.62449645996094 164.56298828125 178.62449645996094 C 164.07398986816406 178.62449645996094 163.8280029296875 178.302490234375 163.8280029296875 177.656494140625 C 163.8280029296875 177.010498046875 164.07398986816406 176.6875 164.56298828125 176.6875 C 164.87998962402344 176.6875 165.10198974609375 176.84548950195312 165.22898864746094 177.1595001220703 L 165.90899658203125 176.8054962158203 C 165.59300231933594 176.24349975585938 165.1179962158203 175.9615020751953 164.48500061035156 175.9615020751953 C 163.99600219726562 175.9615020751953 163.60499572753906 176.1114959716797 163.3109893798828 176.41049194335938 C 163.0179901123047 176.7104949951172 162.87100219726562 177.1234893798828 162.87100219726562 177.6514892578125 C 162.87100219726562 178.1685028076172 163.01998901367188 178.57949829101562 163.31900024414062 178.88449096679688 C 163.6169891357422 179.18849182128906 163.99600219726562 179.3404998779297 164.45799255371094 179.3404998779297 C 165.1269989013672 179.3404998779297 165.6060028076172 179.0764923095703 165.89498901367188 178.54849243164062 Z M 162.03298950195312 178.1804962158203 C 161.89700317382812 178.47650146484375 161.6929931640625 178.62449645996094 161.4219970703125 178.62449645996094 C 160.94200134277344 178.62449645996094 160.7030029296875 178.302490234375 160.7030029296875 177.656494140625 C 160.7030029296875 177.010498046875 160.94200134277344 176.6875 161.4219970703125 176.6875 C 161.73899841308594 176.6875 161.96499633789062 176.84548950195312 162.1009979248047 177.1595001220703 L 162.76499938964844 176.8054962158203 C 162.44898986816406 176.24349975585938 161.97299194335938 175.9615020751953 161.3389892578125 175.9615020751953 C 160.84999084472656 175.9615020751953 160.45799255371094 176.1114959716797 160.16400146484375 176.41049194335938 C 159.86898803710938 176.7104949951172 159.72299194335938 177.1234893798828 159.72299194335938 177.6514892578125 C 159.72299194335938 178.1685028076172 159.87399291992188 178.57949829101562 160.17799377441406 178.88449096679688 C 160.4810028076172 179.18849182128906 160.85899353027344 179.3404998779297 161.31199645996094 179.3404998779297 C 161.98199462890625 179.3404998779297 162.4619903564453 179.0764923095703 162.7519989013672 178.54849243164062 Z M 159.69200134277344 180.8074951171875 C 158.802001953125 179.9095001220703 158.35699462890625 178.8564910888672 158.35699462890625 177.6494903564453 C 158.35699462890625 176.44248962402344 158.79798889160156 175.3994903564453 159.67799377441406 174.51950073242188 C 160.55799865722656 173.63848876953125 161.60699462890625 173.19850158691406 162.822998046875 173.19850158691406 C 164.03900146484375 173.19850158691406 165.0959930419922 173.64349365234375 165.99398803710938 174.53250122070312 C 166.84799194335938 175.35848999023438 167.2740020751953 176.39749145507812 167.2740020751953 177.6494903564453 C 167.2740020751953 178.8925018310547 166.8409881591797 179.94749450683594 165.9739990234375 180.8144989013672 C 165.10699462890625 181.6804962158203 164.05699157714844 182.114501953125 162.822998046875 182.114501953125 C 161.5889892578125 182.114501953125 160.5449981689453 181.67849731445312 159.69200134277344 180.8074951171875 M 166.67098999023438 181.5155029296875 C 167.72299194335938 180.4635009765625 168.24899291992188 179.17449951171875 168.24899291992188 177.6514892578125 C 168.24899291992188 176.12649536132812 167.73199462890625 174.8524932861328 166.697998046875 173.8264923095703 C 165.59999084472656 172.74749755859375 164.30299377441406 172.20748901367188 162.80699157714844 172.20748901367188 C 161.3280029296875 172.20748901367188 160.0540008544922 172.74249267578125 158.98300170898438 173.81349182128906 C 157.91299438476562 174.8834991455078 157.37799072265625 176.16249084472656 157.37799072265625 177.6514892578125 C 157.37799072265625 179.13848876953125 157.91299438476562 180.42649841308594 158.98300170898438 181.5155029296875 C 160.0260009765625 182.56748962402344 161.30099487304688 183.09449768066406 162.80699157714844 183.09449768066406 C 164.3300018310547 183.09449768066406 165.61898803710938 182.56748962402344 166.67098999023438 181.5155029296875" style="fill:none;stroke:#000000;stroke-width:1.0;"/>
  <path d=" M 182.17909240722656 182.9154052734375 C 184.2430877685547 182.9154052734375 185.9160919189453 181.24240112304688 185.9160919189453 179.17840576171875 C 185.9160919189453 177.11441040039062 184.2430877685547 175.44140625 182.17909240722656 175.44140625 C 180.11509704589844 175.44140625 178.4420928955078 177.11441040039062 178.4420928955078 179.17840576171875 C 178.4420928955078 181.24240112304688 180.11509704589844 182.9154052734375 182.17909240722656 182.9154052734375" style="fill:none;stroke:#000000;stroke-width:1.0;"/>
  <path d=" M 183.26010131835938 180.2595977783203 C 183.26010131835938 180.40359497070312 183.14410400390625 180.52059936523438 183.00010681152344 180.52059936523438 L 181.34910583496094 180.52059936523438 C 181.20510864257812 180.52059936523438 181.08909606933594 180.40359497070312 181.08909606933594 180.2595977783203 L 181.08909606933594 178.60960388183594 L 181.54910278320312 178.60960388183594 L 181.54910278320312 176.6555938720703 L 182.8000946044922 176.6555938720703 L 182.8000946044922 178.60960388183594 L 183.26010131835938 178.60960388183594 Z " style="fill:none;stroke:#000000;stroke-width:1.0;"/>
  <path d=" M 182.1741943359375 181.8665008544922 C 182.48619079589844 181.8665008544922 182.73818969726562 181.614501953125 182.73818969726562 181.30250549316406 C 182.73818969726562 180.99049377441406 182.48619079589844 180.7375030517578 182.1741943359375 180.7375030517578 C 181.86219787597656 180.7375030517578 181.61019897460938 180.99049377441406 181.61019897460938 181.30250549316406 C 181.61019897460938 181.614501953125 181.86219787597656 181.8665008544922 182.1741943359375 181.8665008544922" style="fill:none;stroke:#000000;stroke-width:1.0;"/>
  <path d=" M 182.1800994873047 182.5697021484375 C 183.0950927734375 182.5697021484375 183.8730926513672 182.2467041015625 184.51309204101562 181.6007080078125 C 185.1591033935547 180.96270751953125 185.48309326171875 180.18170166015625 185.48309326171875 179.2606964111328 C 185.48309326171875 178.33270263671875 185.16610717773438 177.5626983642578 184.5341033935547 176.95069885253906 C 183.86610412597656 176.2917022705078 183.08209228515625 175.96170043945312 182.1800994873047 175.96170043945312 C 181.277099609375 175.96170043945312 180.4980926513672 176.28770446777344 179.84609985351562 176.94070434570312 C 179.19309997558594 177.5926971435547 178.86610412597656 178.36669921875 178.86610412597656 179.2606964111328 C 178.86610412597656 180.1547088623047 179.1970977783203 180.93569946289062 179.8571014404297 181.6007080078125 C 180.49009704589844 182.2467041015625 181.26309204101562 182.5697021484375 182.1800994873047 182.5697021484375 M 182.16909790039062 183.2957000732422 C 181.0511016845703 183.2957000732422 180.1051025390625 182.90570068359375 179.33009338378906 182.12570190429688 C 178.53610229492188 181.31869506835938 178.13909912109375 180.36370849609375 178.13909912109375 179.2606964111328 C 178.13909912109375 178.15769958496094 178.53610229492188 177.20970153808594 179.33009338378906 176.4156951904297 C 180.12510681152344 175.62269592285156 181.0720977783203 175.22669982910156 182.16909790039062 175.22669982910156 C 183.28109741210938 175.22669982910156 184.2440948486328 175.62570190429688 185.05810546875 176.42669677734375 C 185.8260955810547 177.18569946289062 186.21009826660156 178.13070678710938 186.21009826660156 179.2606964111328 C 186.21009826660156 180.3907012939453 185.82009887695312 181.345703125 185.03810119628906 182.12570190429688 C 184.25709533691406 182.90570068359375 183.3011016845703 183.2957000732422 182.16909790039062 183.2957000732422" style="fill:none;stroke:#000000;stroke-width:1.0;"/>
  <text x="200.232,209.871,212.283,215.586,217.458,223.623,228.213,231.552,236.016,237.888,240.3,243.603,245.475,247.752,250.164,253.971,257.796,262.719,266.022,269.848,274.6,276.472,281.251,286.174,290.926,294.751,298.09,299.962,303.913,305.785,311.77,315.109,318.934,322.885,325.63,328.042,332.208,336.034,337.906,343.891,348.48,355.852,363.223,367.813,372.736,376.039,377.911,384.13,386.875,389.62,392.958,395.37,399.942,404.721,407.466,409.878,414.468,419.391,421.263,425.583,427.635,431.955,433.827,436.896,441.819,444.564,448.389,451.728,456.651,460.602,463.347,465.759,470.349,475.272,479.223,481.5,483.372,488.214,490.626,494.433,498.258,503.181,506.484,510.31,512.362,514.234,523.872,527.698,529.57,531.982,539.352,543.303,547.515,551.34,554.643" y="621.638" svg_rhmargin="556.686" style="fill:#000000;font-family:PHQBOE+MinionPro-Regular;font-size:9.0px;font-style:NORMAL;font-weight:normal;">This work is licensed under a Creative Commons Attribution 4.0 International License. The images </text>
  <text x="200.232,204.867,208.251,210.24,214.875,217.665,222.516,226.386,229.77,231.759,234.549,239.4,241.857,245.241,250.038,252.027,256.788,260.784,264.168,266.958,271.134,273.123,280.539,284.535,287.325,291.195,294.579,297.036,301.032,303.354,305.343,307.8,312.768,314.757,317.547,322.398,324.855,328.203,330.193,334.189,337.573,340.363,342.82,346.672,348.993,352.863,354.853,358.849,362.233,366.103,368.092,370.549,375.517,379.368,381.69,386.514,391.311,395.181,399.978,401.967,404.424,409.392,411.382,414.172,419.023,422.893,424.882,428.878,432.262,435.052,437.509,441.361,443.683,447.553,449.605,452.953,454.942,460.972,464.356,468.226,472.222,475.012,477.469,481.681,485.551,487.54,493.57,498.205,505.621,513.037,517.672,522.64,525.988,527.977,530.299,532.756,536.608,540.478,545.446,548.794,552.664,554.716" y="631.637" svg_rhmargin="556.759" style="fill:#000000;font-family:PHQBOE+MinionPro-Regular;font-size:9.0px;font-style:NORMAL;font-weight:normal;">or other third party material in this article are included in the article’s Creative Commons license, </text>
  <text x="155.637,160.417,165.34,167.617,171.441,174.744,178.047,179.784,182.196,187.119,191.871,194.283,198.09,202.042,204.786,208.611,213.363,215.1,219.69,222.435,227.241,231.066,234.405,240.57,242.982,246.285,250.11,251.847,254.259,259.182,260.919,263.664,268.47,272.295,274.032,277.839,281.178,285.003,289.755,292.167,294.912,296.649,298.926,301.338,306.261,310.086,312.138,313.875,316.287,318.951,320.688,323.433,328.239,332.064,333.801,341.172,345.123,347.868,351.693,355.032,357.444,361.395,363.672,365.409,367.821,371.124,372.861,377.784,382.374,385.119,386.856,389.268,394.191,397.998,400.275,405.054,409.806,413.631,418.383,420.12,424.899,429.822,434.574,438.4,441.738,443.475,446.22,451.026,454.852,456.589,462.573,465.912,469.737,473.688,476.433,478.845,483.012,486.837,488.574,494.559,499.149,506.52,513.891,518.481,523.404,526.707,528.444,530.721,533.133,536.94,540.765,545.688,548.991,552.816,554.868" y="641.636" svg_rhmargin="556.911" style="fill:#000000;font-family:PHQBOE+MinionPro-Regular;font-size:9.0px;font-style:NORMAL;font-weight:normal;">unless indicated otherwise in the credit line; if the material is not included under the Creative Commons license, </text>
  <text x="155.637,160.488,163.863,167.76,171.171,174.546,176.634,182.871,185.355,187.704,190.053,192.141,197.136,201.033,204.93,209.754,211.842,214.659,219.321,221.409,226.071,230.715,233.532,237.555,240.039,245.034,247.122,251.91,255.807,259.218,266.661,269.145,272.52,275.895,278.379,283.041,288.036,290.124,292.86,296.271,300.933,308.376,310.464,313.281,318.159,322.056,324.144,326.493,328.977,332.856,336.753,341.748,345.123,349.02,351.108,355.986,360.648,362.997,367.821,371.718,375.129,377.217,380.034,384.696,386.784,390.195,394.092,398.88,402.292,406.953,411.777,416.629,420.508,424.405,426.493,429.31,434.188,438.085,440.173,447.616,451.639,454.456,458.353,461.764,464.248,468.271,470.62,472.744,474.832,480.457,485.119,487.207,491.446,493.93,497.827,504.064,506.152,510.175,512.263,516.142,520.804,525.592,529.795,531.883,536.545,539.281,541.369,544.186,549.064,551.548,554.851" y="651.635" svg_rhmargin="556.894" style="fill:#000000;font-family:PHQBOE+MinionPro-Regular;font-size:9.0px;font-style:NORMAL;font-weight:normal;">users will need to obtain permission from the license holder to reproduce the material. To view a copy of this </text>
  <text x="155.637,157.914,160.326,164.133,167.958,172.882,176.184,180.009,182.061,183.897,188.064,190.476,193.779,196.191,198.936,200.772,205.578,208.323,211.068,215.784,217.836,220.815,223.794,227.601,230.94,234.765,238.716,241.461,243.873,248.04,251.865,255.673,260.263,267.634,275.005,279.595,284.518,287.821,289.873,294.463,297.802,302.014,304.993,307.27,309.682,313.489,317.314,322.237,325.54,329.365,332.668,335.647,340.219,344.35,347.329,351.649,353.701,358.021" y="661.634" svg_rhmargin="361.0" style="fill:#000000;font-family:PHQBOE+MinionPro-Regular;font-size:9.0px;font-style:NORMAL;font-weight:normal;">license, visit http://creativecommons.org/licenses/by/4.0/</text>
  <text y="671.633" style="fill:#000000;font-family:PHQBOE+MinionPro-Regular;font-size:9.0px;font-style:NORMAL;font-weight:normal;" svg_rhmargin="157.68" x=""/>
  <text x="155.637,161.955,163.791,173.43,177.255,179.091,185.31,190.089,192.834,197.64,202.23,205.569,208.683,211.986,215.1,216.936,221.256,225.576,229.896" y="681.6320000000001" svg_rhmargin="234.216" style="fill:#000000;font-family:PHQBOE+MinionPro-Regular;font-size:9.0px;font-style:NORMAL;font-weight:normal;">© The Author(s) 2016</text>
 </g>
</svg>
