<?xml version="1.0" encoding="UTF-8"?>
<svg height="800.865966796875" width="613.780029296875" xmlns="http://www.w3.org/2000/svg">
 <g style="fill:none;">
  <path d=" M 0.0 753.448974609375 L 603.780029296875 753.448974609375 L 603.780029296875 790.865966796875 L 0.0 790.865966796875 Z " style="fill:none;stroke:#000000;stroke-width:1.0;"/>
  <text svg_rhmargin="198.52" x="40.638,48.208,55.778,63.055,66.145,71.865,77.215,81.135,86.765,90.565,95.995,99.085,103.915,109.695,118.435,121.635,126.125,130.955,133.725,139.15,144.87,148.79,151.56,155.19,157.96,162.79,166.59,172.02,177.78,183.56,187.36,191.28,195.77,198.52" y="781.868" style="fill:#ffffff;font-family:ORBJRM+Corbel;font-size:10.0px;font-style:NORMAL;font-weight:normal;">www.nature.com/scientificreports/ </text>
  <text x="550.36" y="781.868" svg_rhmargin="554.64" style="fill:#839097;font-family:ORBJRM+Corbel;font-size:10.0px;font-style:NORMAL;font-weight:normal;">7</text>
  <text x="40.794,45.642,50.786,52.754000000000005,53.186,58.026,64.026,68.898,70.866,71.298,75.762,77.73,78.162,83.162" y="781.831" svg_rhmargin="84.762" style="fill:#839097;font-family:ORBJRM+Corbel;font-size:8.0px;font-style:NORMAL;font-weight:normal;">Sci enti fi c </text>
  <text x="84.762,90.218,95.194,100.434,106.738,112.194,117.186" y="781.831" svg_rhmargin="121.802" style="fill:#839097;font-family:MOCXPQ+Corbel-Bold;font-size:8.0px;font-style:NORMAL;font-weight:bold;">RepoRts</text>
  <text y="781.831" svg_rhmargin="238.53" x="123.524,125.34,126.781,130.885,132.997,137.102,141.206,145.31,149.414,153.518,154.946,156.762,158.203,163.571,169.411,171.379,173.491,174.93,179.034,183.138,185.25,189.354,193.458,197.562,201.666,203.866,207.098,209.778,213.762,218.01,222.114,226.218,230.322,234.426" style="fill:#000000;font-family:FMFALE+Corbel;font-size:8.0px;font-style:NORMAL;font-weight:normal;">| 7:45242 | DOI: 10.1038/srep45242</text>
  <text x="167.638,177.252,181.086,183.039,187.658,190.89,195.392,197.751,201.632,205.513,208.313,210.734,215.226,220.158,222.111,226.604,229.277,231.23,234.04,238.821,242.655,244.608,249.432,254.293,258.444,262.278,265.717,270.336,273.739,276.16,280.923,283.677,285.63,291.804,295.739,299.051,301.004,304.838,308.106,310.906,313.327,320.682,324.473,327.175,331.055,335.816,337.769,340.19,345.122,347.075,351.738,356.24,359.05,363.865,365.818,371.812,379.84,382.918,387.994,392.323,394.276,397.588,400.009,407.219,412.054,414.369,418.159,420.86,424.741,429.502,431.455,434.578,437.964,441.845,445.679,447.632,452.295,456.094,458.38,462.837,469.011,472.134,474.087,477.968,482.866,487.627,489.58,494.136,498.717,502.102,505.936,509.547,513.723,517.514,520.315,522.736,527.229,532.136,536.141,538.427,540.38,543.503,546.889,550.77,554.594" y="525.6379999999999" svg_rhmargin="556.637" style="fill:#000000;font-family:KORPJU+MinionPro-Regular;font-size:9.0px;font-style:NORMAL;font-weight:normal;">The projection of the fingerprint was estimated in both CMIP5 simulated (see below) and observational (see </text>
  <text x="155.641,160.372,164.24,166.598,171.122,177.368,180.563,182.678,187.536,191.394,194.272,198.275,201.728,205.634,208.46,211.844,213.959,216.837,221.724,225.025,229.595,234.455,238.808,243.695,245.81,248.168,250.661,255.627,259.584,263.533,266.953,269.068,272.368,276.274,280.611,283.911,287.817,291.153,294.537,297.03,301.591,306.595,308.71,313.271,316.016,318.131,321.008,325.856,329.762,331.877,336.278,340.679,342.794,346.662,349.02,352.926,360.339,364.245,369.075,371.901,374.016,377.317,381.842,388.088,390.203,394.377,398.325,402.273,405.043,409.604,412.967,416.351,418.466,423.299,427.205,432.101,437.067,441.015,445.848,447.963,452.47,456.682,458.797,461.674,466.523,470.429,472.544,475.037,480.002,484.835,487.263,491.535,494.029,498.752,503.636,507.71,510.068,512.183,516.321,520.279,524.227,527.608,529.901,534.113,536.228,539.574,542.616,545.341,551.641,554.755" y="535.637" svg_rhmargin="556.798" style="fill:#000000;font-family:KORPJU+MinionPro-Regular;font-size:9.0px;font-style:NORMAL;font-weight:normal;">below) datasets through linear regression of the 11 element row vectors defined by the individual yearly (JJA) </text>
  <text x="155.641,162.976,167.647,172.399,176.188,178.465,180.301,184.783,188.122,189.958,194.503,199.075,202.45,206.275,209.875,214.042,217.821,220.611,223.023,227.505,232.401,236.397,238.674,240.51,244.29,248.772,253.668,257.664,259.941,261.777,269.111,272.99,276.86,281.783,283.619,286.877,291.656,295.049,297.713,301.664,305.471,309.296,311.132,313.823,317.648,324.848,329.645,333.47,336.809,340.589,343.244,348.023,351.245,355.07,358.373,360.209,364.691,369.443,372.134,376.724,378.56,381.359,386.129,389.954,391.79,398.415,404.039,410.258,412.094,416.909,421.76,425.9,429.725,433.154,437.762,441.155,443.567,448.319,451.064,452.9,457.652,461.477,466.292,471.179,475.049,479.801,481.637,485.516,490.168,494.615,498.71,502.48" y="545.636" svg_rhmargin="504.532" style="fill:#000000;font-family:KORPJU+MinionPro-Regular;font-size:9.0px;font-style:NORMAL;font-weight:normal;">model or observational zonal mean surface temperatures onto the QRA fingerprint defined above.</text>
  <text svg_rhmargin="287.049" x="155.638,161.548,169.878,172.701,178.772,184.112,186.193,193.243,195.794,200.097,203.957,209.559,213.12,215.67,220.144,225.355,227.945,229.782,235.622,238.172,246.757,252.271,254.861,260.072,263.932,266.482,272.084,277.696,281.999,284.989,287.049" y="564.969" style="fill:#000000;font-family:QXTZPI+Corbel-Bold;font-size:10.0px;font-style:NORMAL;font-weight:bold;">CMIP5 Historical Simulations. </text>
  <text x="295.037,302.967,306.855,308.916,313.733,317.172,321.105,325.921,327.982,330.844,335.678,339.566,341.627,347.812,352.367,357.102,361.819,364.159,368.093,372.908,374.969,382.818,387.553,392.368,396.22,398.56,400.621,403.61,408.426,411.182,415.07,418.356,422.226,426.773,434.037,438.862,442.796,446.253,448.702,452.141,456.687,461.673,463.734,468.785,472.071,476.626,479.039,482.973,486.907,489.715,491.776,496.862,501.705,505.694,509.133,513.021,515.082,519.465,521.526,524.703,530.751,538.833,541.965,547.095,551.478,554.592" y="564.969" svg_rhmargin="556.635" style="fill:#000000;font-family:KORPJU+MinionPro-Regular;font-size:9.0px;font-style:NORMAL;font-weight:normal;">We used the Coupled Model Intercomparison Project Phase 5 (CMIP5) </text>
  <text x="155.636,160.397,162.737,165.951,168.598,173.036,176.384,178.751,182.54,186.492,188.724,190.407,194.187,198.39,203.142,206.922,210.271,212.638,219.929,223.709,228.416" y="574.968" svg_rhmargin="231.161" style="fill:#000000;font-family:KORPJU+MinionPro-Regular;font-size:9.0px;font-style:NORMAL;font-weight:normal;">historical experiment</text>
  <text x="231.123,233.902" y="571.909" svg_rhmargin="236.71" style="fill:#000000;font-family:KORPJU+MinionPro-Regular;font-size:5.85px;font-style:NORMAL;font-weight:normal;">38</text>
  <text y="574.969" svg_rhmargin="480.378" x="238.364,245.52,250.3,252.424,255.17,257.537,264.828,269.455,274.162,277.906,280.138,281.822,285.602,290.408,293.738,297.518,304.754,309.219,311.451,315.231,316.914,320.172,322.539,329.695,334.474,336.734,340.469,343.215,345.582,350.019,354.826,358.084,360.091,361.774,364.141,368.984,372.693,374.818,379.552,384.259,386.626,391.432,395.599,397.282,401.891,406.337,409.091,413.852,415.535,418.29,423.016,426.796,428.479,432.305,437.012,439.767,444.528,447.705,452.152,456.905,461.45,465.546,469.326,474.204,476.571" style="fill:#000000;font-family:KORPJU+MinionPro-Regular;font-size:9.0px;font-style:NORMAL;font-weight:normal;">multimodel ensemble simulations, including both the anthropogenic</text>
  <text x="480.333" y="574.969" svg_rhmargin="487.335" style="fill:#000000;font-family:XSDKJU+EuclidSymbol;font-size:9.0px;font-style:NORMAL;font-weight:normal;">+</text>
  <text y="574.969" svg_rhmargin="554.63" x="487.25,492.102,495.838,498.448,503.182,506.476,510.428,512.66,514.343,516.882,521.32,524.497,528.259,532.085,536.792,538.475,541.733,544.1,551.426" style="fill:#000000;font-family:KORPJU+MinionPro-Regular;font-size:9.0px;font-style:NORMAL;font-weight:normal;">natural forced sim-</text>
  <text x="155.636,160.469,162.782,166.572,169.371,171.792,176.283,181.143,184.455,186.408" y="584.968" svg_rhmargin="189.522" style="fill:#000000;font-family:KORPJU+MinionPro-Regular;font-size:9.0px;font-style:NORMAL;font-weight:normal;">ulations (</text>
  <text x="189.531" y="584.968" svg_rhmargin="195.876" style="fill:#000000;font-family:CCVTBK+MinionPro-It;font-size:9.0px;font-style:ITALIC;font-weight:normal;">N</text>
  <text y="584.968" style="fill:#000000;font-family:KORPJU+MinionPro-Regular;font-size:9.0px;font-style:NORMAL;font-weight:normal;" svg_rhmargin="197.927" x=""/>
  <text x="197.018" y="584.968" svg_rhmargin="204.02" style="fill:#000000;font-family:XSDKJU+EuclidSymbol;font-size:9.0px;font-style:NORMAL;font-weight:normal;">=</text>
  <text y="584.968" svg_rhmargin="265.506" x="205.172,209.501,213.83,218.159,220.108,223.34,227.228,231.233,233.519,235.94,239.729,243.518,246.317,248.738,253.23,258.09,261.402,263.463" style="fill:#000000;font-family:KORPJU+MinionPro-Regular;font-size:9.0px;font-style:NORMAL;font-weight:normal;">164 realizations; </text>
  <text x="265.418" y="584.968" svg_rhmargin="273.302" style="fill:#000000;font-family:CCVTBK+MinionPro-It;font-size:9.0px;font-style:ITALIC;font-weight:normal;">M</text>
  <text y="584.968" style="fill:#000000;font-family:KORPJU+MinionPro-Regular;font-size:9.0px;font-style:NORMAL;font-weight:normal;" svg_rhmargin="275.354" x=""/>
  <text x="274.445" y="584.968" svg_rhmargin="281.447" style="fill:#000000;font-family:XSDKJU+EuclidSymbol;font-size:9.0px;font-style:NORMAL;font-weight:normal;">=</text>
  <text y="584.968" svg_rhmargin="485.035" x="282.599,286.928,291.257,293.21,300.554,305.235,309.996,313.794,316.053,319.365,322.488,324.441,328.321,333.217,337.978,339.931,343.811,348.572,351.38,356.195,359.427,363.927,368.733,373.332,377.481,381.315,386.247,388.668,392.484,395.697,400.189,405.166,407.389,411.529,413.482,416.075,420.566,423.797,427.613,431.492,436.253,438.206,441.518,443.939,451.148,455.982,458.295,462.084,464.883,467.304,471.795,476.656,479.968,481.921" style="fill:#000000;font-family:KORPJU+MinionPro-Regular;font-size:9.0px;font-style:NORMAL;font-weight:normal;">48 models) and anthropogenic-only forced simulations (</text>
  <text x="485.044" y="584.968" svg_rhmargin="491.389" style="fill:#000000;font-family:CCVTBK+MinionPro-It;font-size:9.0px;font-style:ITALIC;font-weight:normal;">N</text>
  <text y="584.968" style="fill:#000000;font-family:KORPJU+MinionPro-Regular;font-size:9.0px;font-style:NORMAL;font-weight:normal;" svg_rhmargin="493.433" x=""/>
  <text x="492.524" y="584.968" svg_rhmargin="499.526" style="fill:#000000;font-family:XSDKJU+EuclidSymbol;font-size:9.0px;font-style:NORMAL;font-weight:normal;">=</text>
  <text y="584.968" svg_rhmargin="556.674" x="500.678,505.007,509.336,511.285,514.517,518.405,522.41,524.696,527.117,530.906,534.695,537.494,539.915,544.407,549.267,552.579,554.631" style="fill:#000000;font-family:KORPJU+MinionPro-Regular;font-size:9.0px;font-style:NORMAL;font-weight:normal;">40 realizations; </text>
  <text x="155.636" y="594.967" svg_rhmargin="163.52" style="fill:#000000;font-family:CCVTBK+MinionPro-It;font-size:9.0px;font-style:ITALIC;font-weight:normal;">M</text>
  <text y="594.967" style="fill:#000000;font-family:KORPJU+MinionPro-Regular;font-size:9.0px;font-style:NORMAL;font-weight:normal;" svg_rhmargin="165.689" x=""/>
  <text x="164.897" y="594.967" svg_rhmargin="171.899" style="fill:#000000;font-family:XSDKJU+EuclidSymbol;font-size:9.0px;font-style:NORMAL;font-weight:normal;">=</text>
  <text y="594.967" svg_rhmargin="556.703" x="173.411,177.857,182.303,184.58,192.04,196.836,201.714,205.628,208.003,211.432,214.672,216.949,220.333,225.219,229.214,234.263,239.312,241.85,246.826,251.164,253.441,257.887,262.333,266.779,271.225,276.031,280.477,284.923,289.369,293.815,296.092,299.332,304.182,308.186,312.82,315.223,319.174,321.451,325.843,330.289,333.529,335.707,337.984,343.338,347.415,351.293,356.225,358.502,363.281,368.005,372.262,375.691,378.229,382.162,385.591,387.868,392.088,396.039,399.45,402.879,405.417,410.024,415.073,417.35,421.957,424.747,427.024,431.101,433.378,440.838,445.634,450.512,454.426,456.829,459.106,465.397,469.446,472.875,475.152,479.085,483.693,488.669,492.098,494.636,499.514,503.465,506.812,510.807,515.685,517.962,522.039,524.316,527.816,531.767,536.653,540.648,544.113,548.019,550.835,554.66" style="fill:#000000;font-family:KORPJU+MinionPro-Regular;font-size:9.0px;font-style:NORMAL;font-weight:normal;">10 models) spanning 1861–2005 (Table S1). Each physics version of a model was considered a separate </text>
  <text x="155.636,163.057,167.812,172.65,176.523,178.832,180.969,183.102,192.791,196.7,198.833,202.789,207.77,211.852,214.15,218.367,221.755,224.225,227.614,229.747,235.997,240.006,243.394,245.527,247.89,250.387,257.843,260.232,263.008,266.963,271.8,273.933,276.709,281.384,283.517,286.402,291.256,295.167,297.3,301.192,305.76,313.215,320.636,325.202,330.211,332.344,335.219,337.716,345.137,349.047,351.18,356.062,359.972,363.45,365.947,370.703,375.54,377.673,382.241,384.99,387.123,391.655,395.834,399.745,403.133,405.522,409.388,414.188,416.321,418.99,423.557,426.981,429.114,433.194,435.602,437.963,440.096,447.516,452.272,457.109,460.984,463.319,466.707,468.84,472.795,477.768,482.605,484.738,488.045,492.009,496.091,498.452,500.95,504.815,508.68,511.556,514.052,518.62,523.556,526.944,529.077,532.275,536.681,541.086,545.491,549.896" y="604.966" svg_rhmargin="554.576" style="fill:#000000;font-family:KORPJU+MinionPro-Regular;font-size:9.0px;font-style:NORMAL;font-weight:normal;">model. The analysis was limited to the common time period of overlap for all models and realizations (1861–</text>
  <text x="155.636,159.956,164.276,168.596,172.916,176.03,178.082,179.918,189.521,194.111,197.485,201.31,203.146,209.338,211.642,214.441,219.247,221.083,225.034,226.87,230.127,232.926,236.796,240.225,242.97,244.806,248.865,252.744,256.614,259.953,261.789,264.093,267.873,270.563,274.388,277.727,279.563,282.362,287.141,291.011,295.934,297.77,302.09,306.41,310.73,315.05,316.886,322.979,326.804,330.026,333.851,335.687,340.574,345.065,347.81,349.646,352.058,356.945,360.698,362.867,367.646,372.398,376.268,381.02,382.856,385.268,390.191,392.027,394.826,399.596,403.421,405.257,409.127,414.023,418.019,420.233,424.364,427.667,430.052,433.355" y="614.965" svg_rhmargin="435.407" style="fill:#000000;font-family:KORPJU+MinionPro-Regular;font-size:9.0px;font-style:NORMAL;font-weight:normal;">2005). Those with a start year later than 1861 were not included in the analysis.</text>
  <text x="167.633,175.499,179.324,181.16,185.912,189.287,193.156,197.908,199.744,203.695,205.531,208.834,211.246,218.446,223.099,225.376,229.201,231.037,234.907,238.129,242.008,245.959,249.163,255.256,259.081,261.493,265.768,270.403,273.094,276.963,281.715,283.551,287.34,291.435,295.26,298.599,302.505,306.645,310.47,312.306,314.997,319.587,321.423,325.23,328.451,332.33,336.11,338.801,342.626,344.462,348.242,352.724,357.62,361.616,363.893,365.729,373.063,376.942,380.812,385.663,388.966,390.802,394.582,397.327,399.163,403.114,404.95,409.27,412.357,414.193,416.605,421.357,424.048,427.874,431.473,435.64,439.636,441.859" y="624.9639999999999" svg_rhmargin="443.911" style="fill:#000000;font-family:KORPJU+MinionPro-Regular;font-size:9.0px;font-style:NORMAL;font-weight:normal;">We used a simple area-weighted average to create zonal means at a 5° interval.</text>
  <text svg_rhmargin="319.118" x="155.638,163.034,168.654,172.944,178.124,181.674,186.634,191.834,195.68,198.22,203.81,209.41,214.61,217.187,218.979,224.799,230.299,233.849,237.179,242.379,246.839,252.019,253.372,258.492,263.672,272.242,277.792,282.972,286.522,291.722,295.568,301.068,304.618,309.798,314.088,317.058,319.118" y="644.3" style="fill:#000000;font-family:QXTZPI+Corbel-Bold;font-size:10.0px;font-style:NORMAL;font-weight:bold;">Observational Surface Temperatures. </text>
  <text x="327.115,335.032,338.911,340.927,344.849,349.797,353.844,356.11,360.295,364.129,368.05,372.856,374.872,378.706,383.24,388.187,392.235,394.566,396.582,403.969,407.9,411.821,416.798,418.814,423.518,428.053,431.326,435.256,439.303,441.634,443.65,446.96,451.793,459.218,466.604,470.483,473.876,475.892,479.21,482.225,484.923,491.196,494.364,496.38,500.221,504.367,508.246,511.639,515.597,519.789,523.668,525.684,528.426,532.305,539.557,544.406,548.285,551.431" y="644.3" svg_rhmargin="554.635" style="fill:#000000;font-family:KORPJU+MinionPro-Regular;font-size:9.0px;font-style:NORMAL;font-weight:normal;">We analyzed zonal mean boreal summer (JJA) average temper-</text>
  <text x="155.638,159.465,162.166,166.99,170.259,174.129,177.477,179.484,182.643,186.831,191.655,195.095,197.804,201.8,205.652,209.522,211.529,217.767,220.224,223.608,225.615,230.334,234.204,241.451,246.295,250.165,253.549,257.376,260.078,264.902,268.171,272.041,274.048,278.542,282.684,286.554,289.938,291.945,294.295,298.213,303.147,307.944,309.951,313.869,318.802,323.599,325.606,330.045,333.971,337.967,339.974,344.161,348.985,352.424,355.133,359.129,362.981,366.851,368.858,373.576,377.446,384.693,389.537,393.407,396.791,400.618,403.319,408.143,411.413,415.283,417.29,421.783,425.925,429.795,433.179,435.186,439.904,443.756,447.681,451.598,456.497,459.845,463.004,465.011,469.81,473.158,475.615,480.512,484.769,486.776,490.702,494.698,498.499,503.35,505.357,509.886,512.595,514.602,517.447,522.298,525.567,529.484,533.354,535.361,539.404,541.621,544.358,548.228,551.431" y="654.299" svg_rhmargin="554.635" style="fill:#000000;font-family:KORPJU+MinionPro-Regular;font-size:9.0px;font-style:NORMAL;font-weight:normal;">atures (Surface Air Temperature over land and Sea Surface Temperature over oceans) using each of three alter-</text>
  <text x="155.638,160.563,164.372,167.191,169.57,173.694,177.546,179.517,184.325,188.134,190.962,194.916,198.319,202.171,204.943,208.273,210.352,212.323,218.785,221.881,226.087,231.667,236.806,244.852" y="664.298" svg_rhmargin="249.919" style="fill:#000000;font-family:KORPJU+MinionPro-Regular;font-size:9.0px;font-style:NORMAL;font-weight:normal;">native datasets: GISTEMP</text>
  <text x="249.968,252.794" y="661.24" svg_rhmargin="255.602" style="fill:#000000;font-family:KORPJU+MinionPro-Regular;font-size:5.85px;font-style:NORMAL;font-weight:normal;">39</text>
  <text y="664.3" svg_rhmargin="350.722" x="257.593,260.734,265.081,269.428,273.775,278.122,282.829,287.176,291.523,295.87,300.217,303.358,305.437,307.408,314.116,318.094,322.873,328.885,334.171,340.822,346.402" style="fill:#000000;font-family:KORPJU+MinionPro-Regular;font-size:9.0px;font-style:NORMAL;font-weight:normal;">(1880–2015), HadCRUT4</text>
  <text x="350.785,353.611" y="661.24" svg_rhmargin="356.419" style="fill:#000000;font-family:KORPJU+MinionPro-Regular;font-size:5.85px;font-style:NORMAL;font-weight:normal;">40</text>
  <text y="664.3" svg_rhmargin="476.399" x="358.41,361.551,365.898,370.245,374.592,378.939,383.646,387.993,392.34,396.687,401.034,404.175,406.146,410.045,414.962,419.741,421.712,427.861,432.336,438.528,441.356,445.255,450.205,452.176,458.602,460.573,468.45,472.268" style="fill:#000000;font-family:KORPJU+MinionPro-Regular;font-size:9.0px;font-style:NORMAL;font-weight:normal;">(1894–2015) and Cowtan &amp; Way</text>
  <text x="476.458,479.283" y="661.24" svg_rhmargin="482.091" style="fill:#000000;font-family:KORPJU+MinionPro-Regular;font-size:5.85px;font-style:NORMAL;font-weight:normal;">41</text>
  <text y="664.3" svg_rhmargin="556.654" x="484.083,487.224,491.571,495.918,500.265,504.612,509.319,513.666,518.013,522.36,526.707,529.848,531.927,533.898,543.53,547.382,550.786,554.611" style="fill:#000000;font-family:KORPJU+MinionPro-Regular;font-size:9.0px;font-style:NORMAL;font-weight:normal;">(1894–2015). These </text>
  <text x="155.637,158.541,163.455,166.782,170.758,174.691,176.896,181.756,184.276,189.349,193.282,196.609,200.542,205.4,208.253,210.458,215.341,219.226,222.131,226.16,229.64,233.573,236.426,239.837,242.042,249.492,253.593,258.081,262.014,264.219,268.32,270.595,273.391,277.324,280.822,285.824,289.709,292.604,295.058,299.259,303.192,305.397,309.426,312.789,316.153,321.04,328.345,333.067,335.963,338.483,343.071,348.026,351.437,353.642,357.626,362.384,366.981,371.757,374.61,376.815,381.691,386.242,392.515,394.72,397.516,402.214,404.419,408.478,412.393,416.308,420.904,425.791,430.649,433.502,435.707,438.395,442.982,446.429,448.634,453.548,456.039,459.402,462.198,466.786,470.283,472.803,476.742,480.844,483.229,485.434,490.318,494.203,497.107,501.166,503.371,507.691,511.577,516.401,519.812,521.972,524.177,530.51,535.424,537.944,541.802,546.716,548.921,551.412,554.714" y="674.299" svg_rhmargin="556.757" style="fill:#000000;font-family:KORPJU+MinionPro-Regular;font-size:9.0px;font-style:NORMAL;font-weight:normal;">three different datasets make alternative assumptions about how to account for historical data gaps, which is </text>
  <text x="155.637,160.379,164.23,167.64,170.412,172.806,176.657,181.462,183.747,187.598,190.883,193.079,197.192,198.911,201.305,208.486,213.264,217.727,221.137,223.917,227.768,232.502,235.229,236.948,239.342,244.247,245.966,248.746,253.497,257.304,259.023,265.196,268.4,272.251,275.022,277.416,281.205,282.924,286.128,289.935,294.173,296.567,301.03,305.935,307.654,310.434,315.195,318.956,321.683,323.402,325.768,329.053,330.772,335.136,339.014,343.128,344.846,347.519,352.091,353.81,356.59,361.378,363.745,367.03,368.749,371.989,374.625,379.386,384.056,387.512,389.546,391.265,395.891,400.652,404.459,406.178,408.85,413.422,415.141,417.921,422.672,426.479,428.198,430.483,434.334,437.582,441.704,445.511,447.23,450.47,455.212,458.974,461.745,464.165,468.142,470.401,472.12,476.314,480.075,484.773,488.058,489.777,492.171,497.076,498.795,501.575,506.363,508.729,512.014,513.733,516.936,520.743,524.981,527.375,531.838,536.743,538.462,542.251,546.724,551.485" y="684.298" svg_rhmargin="554.689" style="fill:#000000;font-family:KORPJU+MinionPro-Regular;font-size:9.0px;font-style:NORMAL;font-weight:normal;">particularly important in the Arctic region that is key to this study, due to the large spatial gaps in this region cou-</text>
  <text x="155.637,160.327,162.64,166.547,171.335,173.315,179.543,181.885,184.721,189.563,191.543,194.38,199.187,203.048,205.028,208.935,216.172,220.862,223.175,225.623,230.474,234.381,239.169,241.149,245.991,248.439,252.751,257.593,260.833,263.174,266.992,269.819,272.16,274.853,279.668,284.456,288.317,290.297,296.498,300.404,303.835,311.242,313.69,318.579,322.827,324.807,327.255,332.214,334.194,337.03,341.838,345.699,347.679,354.179,358.697,362.163,365.0,369.807,373.668,377.098,382.057,384.037,390.743,394.604,402.011,404.433,407.729,412.419,417.226,421.087,424.347,428.208,430.188,432.636,437.595,439.575,442.834,446.742,450.585,454.446,459.236,462.017,463.997,468.785,472.692,476.562,480.549,485.337,489.198,492.537,494.625,496.605,506.246,510.107,512.087,514.915,517.363,524.735,528.596,530.576,535.41,539.271,542.702,545.15,549.858,554.61" y="694.297" svg_rhmargin="556.653" style="fill:#000000;font-family:KORPJU+MinionPro-Regular;font-size:9.0px;font-style:NORMAL;font-weight:normal;">pled with the amplified high-latitude warming in the Northern Hemisphere in recent decades. The time period </text>
  <text x="155.637,160.146,162.837,164.808,168.706,173.629,177.652,179.894,184.052,187.382,189.794,193.124,195.095,201.287,205.238,208.568,210.539,214.373,218.882,223.76,227.045,229.863,233.229,237.126,239.565,244.48,248.377,253.156,255.127,259.582,263.74,265.711,269.545,274.055,278.834,281.651,284.09,288.87,293.676,298.194,302.974,306.304,308.275,313.081,316.888,319.715,323.693,325.664,329.481,333.675,337.573,340.057,342.388,346.294,350.786,353.27,355.574,357.905,360.704,364.862,366.833,369.444,373.953,377.319,379.29,383.196,387.174,390.954,395.787,397.758,400.089,403.896,406.714,409.045,411.727,416.533,421.312,425.164,427.135,431.78,435.677,440.591,445.317,447.396,449.367,453.984,458.493,461.859,463.83,467.682,471.957,475.854,483.081,487.762,490.066,493.864,495.943,497.914,500.74,505.538,509.39,511.361,518.066,522.044,526.823,532.835,538.118,544.769,550.349,554.669" y="704.296" svg_rhmargin="556.712" style="fill:#000000;font-family:KORPJU+MinionPro-Regular;font-size:9.0px;font-style:NORMAL;font-weight:normal;">of analysis was constrained by continuous data availability for each latitude band. For example, the HadCRUT4 </text>
  <text x="155.637,159.491,164.361,169.095,170.814,176.917,181.347,187.494,190.276,194.13,199.035,200.754,207.135,208.854,216.686,220.458,224.571,226.29,231.052,234.816,237.599,241.507,244.865,248.672,251.399,254.684,256.403,260.192,264.657,269.392,272.175,276.029,278.423,283.328,285.047,288.81,291.537,293.256,295.515,299.377,303.284,306.526,309.253,310.972,315.438,320.309,324.116,325.835,330.076,333.452,335.846,340.58,342.299,346.088,349.86,352.166,354.425,356.144,358.819,362.626,369.81,374.59,378.397,381.718,385.481,388.119,392.88,396.086,399.893,401.612,405.761,409.741,411.894,416.655,420.462,422.181,424.575,429.48,431.199,435.061,438.994,442.731,447.519,449.238,451.525,455.289,458.063,460.35,462.989,467.75,472.484,476.291,478.01,482.611,486.464,491.335,496.069,497.788,501.721,505.51,508.716,513.288,516.53,519.815,521.534,524.316,529.069,532.876,534.595,537.916,541.77,546.604,550.728,554.553" y="714.295" svg_rhmargin="556.596" style="fill:#000000;font-family:KORPJU+MinionPro-Regular;font-size:9.0px;font-style:NORMAL;font-weight:normal;">and Cowtan &amp; Way datasets contain at least one grid cell temperature value in each latitude band across the range </text>
  <text x="155.637,160.119,162.783,164.619,167.031,171.783,174.474,178.299,181.521,185.346,188.604,191.349,193.185,196.299,200.619,204.939,209.619,213.939,218.259,224.946,228.06,229.896,232.649,235.871,240.354,247.725,249.561,253.881,258.201,262.521,266.841,268.677,271.368,275.958,277.794,282.402,285.624,289.449,292.824,296.649,301.4,304.145,306.197,308.033,314.018,317.825,321.632,326.114,329.336,334.088,336.5,341.351,345.625,347.84,351.313,353.365,355.201,358.0,362.77,366.595,368.431,372.688,376.081,378.493,383.245,385.081,388.888,392.676,394.998,397.275,399.111,402.918,407.364,411.458,415.283,418.622,422.528,426.668,430.493,432.329,434.714,438.017,439.853,443.075,446.864,449.168,452.948,455.738,458.087,462.182,465.971,468.185,472.316,474.152,477.41,482.171,486.041,489.326,492.701,496.526,498.362,500.774,505.697,507.533,510.332,515.102,518.927,520.763,524.642,528.512,531.815,534.029,538.16,539.996,543.371,547.196,551.408" y="724.294" svg_rhmargin="554.612" style="fill:#000000;font-family:KORPJU+MinionPro-Regular;font-size:9.0px;font-style:NORMAL;font-weight:normal;">of interest (25–75N) from 1894 to present. Accordingly, the grid cell coverage is relatively sparse in the early seg-</text>
  <text x="155.637,162.972,166.797,171.549,174.294,177.597,179.433,183.915,186.579,188.415,191.214,195.984,199.809,201.645,204.867,208.737,212.544,217.025,220.248,224.973,228.276,230.112,233.982,238.869,243.621,245.457,247.869,252.756,256.563,259.785,263.664,267.588,270.963,274.788,278.091,279.927,282.618,287.064,293.229,297.1,300.322,305.074,306.91,311.518,314.74,318.565,321.94,325.765,330.517,333.262,335.098,339.877,343.666,347.14" y="734.293" svg_rhmargin="349.192" style="fill:#000000;font-family:KORPJU+MinionPro-Regular;font-size:9.0px;font-style:NORMAL;font-weight:normal;">ments of the records and increases toward present day.</text>
  <text x="167.634,173.709,177.012,178.848,185.04,187.344,190.142,194.948,196.784,199.583,204.353,208.178,210.014,217.349,222.02,226.772,230.561,232.838,234.674,239.165,243.836,246.491,251.108,255.779,258.524,260.576,262.412,268.505,272.33,274.166,278.918,282.293,286.163,290.915,292.751,296.702,298.538,301.841,304.253,311.453,316.106,318.383,322.208,324.044,327.914,331.136,335.015,338.966,342.17,348.263,352.088,354.5,358.775,363.41,366.101,369.971,374.723,376.559,380.348,384.443,388.268,391.607,395.513,399.653,403.478,405.314,408.005,412.595,414.431,418.238,421.46,425.338,429.118,431.809,435.634,437.47,441.25,445.732,450.628,454.624,456.901,458.737,466.072,469.95,473.821,478.672,481.975,483.811,487.591,490.336,492.172,496.123,497.959,502.279,505.366,507.202,509.614,514.367,517.057,520.882,524.482,528.649,532.645,534.868" y="744.292" svg_rhmargin="536.92" style="fill:#000000;font-family:KORPJU+MinionPro-Regular;font-size:9.0px;font-style:NORMAL;font-weight:normal;">As with the model output, we used a simple area-weighted average to create zonal means at a 5° interval.</text>
  <rect style="stroke:blue;stroke-width:0.3;" x="155.638" y="64.138" height="382.2" width="204.0" title="7"/>
  <text x="155.638" y="64.138" class="image" id="image.7.1" width="204" height="382">image.7.1.156_360.64_446</text>
  <text x="155.638,160.552,163.207,167.662,172.657,176.221,180.154,181.909,186.409" y="464.881" svg_rhmargin="188.695" style="fill:#000000;font-family:JSFEVW+MinionPro-Bold;font-size:9.0px;font-style:NORMAL;font-weight:bold;">Figure 4.</text>
  <text style="fill:#000000;font-family:KORPJU+MinionPro-Regular;font-size:9.0px;font-style:NORMAL;font-weight:normal;" svg_rhmargin="190.738" y="464.881" x=""/>
  <text x="193.195,198.478,202.042,206.695,209.287,213.337,217.189,220.195,222.904,227.539,232.633,234.388,239.023,242.002,243.757,250.462,256.473,262.827,264.582,269.496,272.151,277.173,281.601,285.489,289.233,294.066,297.702,300.357,305.379,308.43,310.185,314.838,318.726,322.362,325.071,329.004,332.451,334.206,338.841,343.862,346.805,351.53,353.285,357.785,362.285,366.785,367.93,375.472,380.278,382.033,387.703,392.338,397.432,401.67,404.172,405.927,414.404,417.059,422.153,427.076,428.831,431.999,438.56,441.728,443.483,446.138,451.232,452.987,455.642,460.736,465.659,468.314,472.607,475.316,480.194,485.225,489.463,491.965,493.72,499.804,507.796,511.198,516.589,521.089" y="464.881" svg_rhmargin="523.042" style="fill:#000000;font-family:JSFEVW+MinionPro-Bold;font-size:9.0px;font-style:NORMAL;font-weight:bold;">Projection of QRA Fingerprint Series onto 300 mb Zonal Wind (U) in individual CMIP5 </text>
  <text x="155.638,160.588,163.243,166.654,169.597,174.232,177.868,180.577,184.5,188.739,191.241,192.996,197.451,200.106,207.621,212.706,215.244,219.303,222.309,225.018,229.653,234.747,238.194,239.949,243.117,246.942,251.64,254.196,258.831,262.394,266.444,271.367,273.122,276.974,281.969,285.902,290.051,293.984,297.431,300.599,302.354,306.503,311.597,316.52,318.275,322.352,326.501,330.389,334.097,338.291,342.719,346.769,351.692,353.447,358.136,362.285,366.173,369.809,371.564,375.452,380.546,384.074,387.962,395.504,400.283,402.839,406.772,408.527,411.695,416.474,419.012,423.206,427.004,431.621,434.789,437.075" y="474.88" svg_rhmargin="439.028" style="fill:#000000;font-family:JSFEVW+MinionPro-Bold;font-size:9.0px;font-style:NORMAL;font-weight:bold;">historical Simulations (colored curves) and averaged over ensemble (black). </text>
  <text x="438.83,443.042,447.812,452.258,458.45,463.373,465.209,469.079,472.301,476.126,477.962,481.184,485.009,488.267,493.091,495.26,498.005,501.308,503.144,505.727,510.209,513.548,515.384" y="474.88" svg_rhmargin="518.498" style="fill:#000000;font-family:KORPJU+MinionPro-Regular;font-size:9.0px;font-style:NORMAL;font-weight:normal;">Shown are results for (</text>
  <text x="518.498" y="474.88" svg_rhmargin="522.692" style="fill:#000000;font-family:JSFEVW+MinionPro-Bold;font-size:9.0px;font-style:NORMAL;font-weight:bold;">a</text>
  <text x="522.692,525.806,527.642,531.638,533.959,536.236" y="474.88" svg_rhmargin="539.44" style="fill:#000000;font-family:KORPJU+MinionPro-Regular;font-size:9.0px;font-style:NORMAL;font-weight:normal;">) all-</text>
  <text x="155.638,158.221,162.703,165.925,169.732,172.144,176.995,181.207,183.043,186.914,191.801,196.553,198.389" y="484.879" svg_rhmargin="201.503" style="fill:#000000;font-family:KORPJU+MinionPro-Regular;font-size:9.0px;font-style:NORMAL;font-weight:normal;">forcing and (</text>
  <text x="201.503" y="484.879" svg_rhmargin="206.309" style="fill:#000000;font-family:JSFEVW+MinionPro-Bold;font-size:9.0px;font-style:NORMAL;font-weight:bold;">b</text>
  <text x="206.309,209.423,211.259,215.129,219.881,222.68,227.486,230.708,235.199,239.996,244.586,248.726,252.551,257.474,259.886,263.693,266.897,271.378,276.346,278.56,282.691,284.527,287.11,291.592,294.814,298.621,301.033,305.884,310.096,311.932,315.757,320.005,324.801,328.626,332.019,334.431,341.766,345.591,350.342,353.087,356.39" y="484.879" svg_rhmargin="358.442" style="fill:#000000;font-family:KORPJU+MinionPro-Regular;font-size:9.0px;font-style:NORMAL;font-weight:normal;">) anthropogenic-only forcing experiments.</text>
 </g>
</svg>
