<?xml version="1.0" encoding="UTF-8"?>
<svg height="761.306" width="530.491" xmlns="http://www.w3.org/2000/svg">
 <g id="page" xmlns:svgx="http://www.xml-cml.org/schema/svgx">
  <g begin="text">
   <text y="62.979" x="76.535,79.189,83.62,86.274,88.26650000000001,91.057,93.711,95.7035,97.696,102.565,106.997,110.982,113.197,116.154,119.693,124.124,126.1165,128.907,134.223,137.323,140.423,142.4155,145.205,150.075,154.507,158.197,160.412,162.628,165.89569999999998,167.864,174.065,177.165,180.704,182.92,185.574" svgx:width="0.33,0.56,0.33,0.25,0.55,0.33,0.25,0.55,0.61,0.56,0.5,0.28,0.39,0.44,0.56,0.25,0.55,0.67,0.39,0.39,0.25,0.55,0.61,0.56,0.46,0.28,0.28,0.41,0.55,0.78,0.39,0.44,0.28,0.33,0.5" style="fill:rgb(0,0,0);font-family:URWPalladioL-Ital;font-size:7.97px;stroke:none;">Int. J. Environ. Res. Public Health</text>
   <text y="62.979" x="191.551,195.536,199.521,203.506" svgx:width="0.5,0.5,0.5,0.5" style="fill:rgb(0,0,0);font-family:URWPalladioL-Bold;font-size:7.97px;stroke:none;">2019</text>
   <text y="62.979" x="207.491" svgx:width="0.25" style="fill:rgb(0,0,0);font-family:URWPalladioL-Roma;font-size:7.97px;stroke:none;">,</text>
   <text y="62.979" x="211.476,215.461" svgx:width="0.5,0.5" style="fill:rgb(0,0,0);font-family:URWPalladioL-Ital;font-size:7.97px;stroke:none;">16</text>
   <text y="62.979" x="219.446,221.4385,223.431,227.416,231.401,235.386,239.371,495.793,499.778,501.771,506.123,508.7531,510.769,514.754" svgx:width="0.25,0.55,0.5,0.5,0.5,0.5,0.55,0.5,0.55,0.55,0.33,0.55,0.5,0.5" style="fill:rgb(0,0,0);font-family:URWPalladioL-Roma;font-size:7.97px;stroke:none;">, 2624 3 of 15</text>
   <text y="96.861" x="245.306,250.291,254.775,260.253,263.239,267.724,269.964,274.447" svgx:width="0.67,0.5,0.61,0.33,0.5,0.55,0.5,0.25" style="fill:rgb(0,0,0);font-family:URWPalladioL-Bold;font-size:8.97px;stroke:none;">Table 1.</text>
   <text y="96.861" x="279.826,284.533,288.828,293.311,296.692,300.673,305.8756,308.133,313.118,317.413,322.398,329.876,334.772,338.152,343.631,347.433" svgx:width="0.52,0.48,0.5,0.4,0.44,0.58,0.55,0.56,0.48,0.56,0.83,0.55,0.4,0.61,0.42,0.25" style="fill:rgb(0,0,0);font-family:URWPalladioL-Roma;font-size:8.97px;stroke:none;">Search keywords.</text>
  </g>
  <path style="fill:none;stroke:rgb(0,0,0);stroke-width:1.0;" d="M76.540 107.080 L518.740 107.080 "/>
  <g begin="text">
   <text y="117.941" x="82.513,88.987,93.47,96.456,100.939,105.924,110.91,114.398,119.4212,340.467,347.443,351.926,356.912,364.381,369.366,372.854,378.332" svgx:width="0.72,0.5,0.33,0.5,0.56,0.56,0.39,0.56,0.55,0.78,0.5,0.56,0.83,0.56,0.39,0.61,0.44" style="fill:rgb(0,0,0);font-family:URWPalladioL-Bold;font-size:8.97px;stroke:none;">Category Keywords</text>
  </g>
  <path style="fill:none;stroke:rgb(0,0,0);stroke-width:0.8;" d="M76.540 123.330 L518.740 123.330 "/>
  <g begin="text">
   <text y="155.857" x="82.513,88.87,91.479,94.089,102.006,106.489,109.412,113.7176,115.949,118.935,123.418,127.399,130.322,135.217,138.759,142.5264,144.803,149.286,154.504,159.9757,162.224,167.443,171.738,176.221,178.83,181.753" svgx:width="0.71,0.29,0.29,0.88,0.5,0.33,0.48,0.55,0.33,0.5,0.44,0.33,0.55,0.4,0.42,0.55,0.5,0.58,0.61,0.55,0.58,0.48,0.5,0.29,0.33,0.58" style="fill:rgb(0,0,0);font-family:URWPalladioL-Roma;font-size:8.97px;stroke:none;">Climate factors and health</text>
   <text y="133.939" x="210.015,212.959,217.379,221.305,223.878,226.45,234.257,238.677,241.559,245.794,250.27900000000002,252.442,259.391,265.40090000000004,267.525,271.945,275.871,278.443,281.016,288.823,293.243,296.125,300.4306,302.588,306.513,311.659,316.079,321.224,326.14,330.375,334.86,337.032,343.981,349.9909,352.114,356.535,360.77,365.331,368.214,371.538,375.773,383.579,387.88460000000003,390.051,397.424,401.659,406.079,408.961,414.107,418.341,421.833,426.31800000000004,428.482,435.431,441.4409,443.564,447.985,452.9,455.473,460.3,465.189,469.61,472.2113,474.41,481.783,486.204,489.696,497.503,500.075,505.221,510.136" svgx:width="0.33,0.5,0.44,0.29,0.29,0.88,0.5,0.33,0.48,0.5,0.55,0.79,0.67,0.55,0.5,0.44,0.29,0.29,0.88,0.5,0.33,0.48,0.55,0.44,0.58,0.5,0.58,0.56,0.48,0.5,0.55,0.79,0.67,0.55,0.5,0.48,0.52,0.33,0.4,0.48,0.88,0.48,0.55,0.83,0.48,0.5,0.33,0.58,0.48,0.4,0.5,0.55,0.79,0.67,0.55,0.5,0.56,0.29,0.55,0.55,0.5,0.29,0.55,0.83,0.5,0.4,0.88,0.29,0.58,0.56,0.5" style="fill:rgb(0,0,0);font-family:URWPalladioL-Roma;font-size:8.97px;stroke:none;">(“climate” OR “climate change” OR “extreme weather” OR “global warming”</text>
   <text y="144.898" x="211.594,218.642,224.65189999999998,226.873,231.356,235.337,237.946,240.555,248.473,252.956,255.879,260.1846,262.416,267.482,271.965,275.507,278.116,282.599,287.557,290.167,292.776,295.385,298.308,303.293,307.778,310.018,317.066,323.0759,325.297,329.78,334.765,338.146,342.441,346.736,351.954,357.172,362.068,367.475,371.277,375.5826,377.813,382.798,387.282,391.083,395.56800000000004,397.808,404.856,410.8659,413.087,417.57,421.112,423.721,427.523,430.132,435.35,440.3732,442.577,445.5,449.795,457.713,463.101,467.396,470.938,475.421,478.344,483.751,487.131,491.426,495.911,498.151,505.199" svgx:width="0.79,0.67,0.55,0.5,0.44,0.29,0.29,0.88,0.5,0.33,0.48,0.55,0.56,0.5,0.4,0.29,0.5,0.55,0.29,0.29,0.29,0.33,0.56,0.5,0.55,0.79,0.67,0.55,0.5,0.56,0.4,0.48,0.48,0.58,0.58,0.55,0.6,0.42,0.48,0.55,0.56,0.5,0.42,0.5,0.55,0.79,0.67,0.55,0.5,0.4,0.29,0.42,0.29,0.58,0.56,0.55,0.33,0.48,0.88,0.6,0.48,0.4,0.5,0.33,0.6,0.4,0.48,0.5,0.55,0.79,0.67" style="fill:rgb(0,0,0);font-family:URWPalladioL-Roma;font-size:8.97px;stroke:none;">OR “climate variability” OR “greenhouse gas” OR “rising temperature” OR</text>
   <text y="155.857" x="236.291,240.774,244.576,248.871,253.354,256.34,258.949,263.244,268.31,272.605,275.2063,277.456,280.997,283.607,287.408,290.018,295.236,300.221,304.706,306.946,313.994,320.00390000000004,322.225,326.708,333.065,340.113,344.596,349.079,352.0391,354.307,361.283,368.734,375.6409,377.915,380.901,385.384,390.603,394.898,399.381,401.99,404.913,410.132,414.617,416.856,423.904,429.9139,432.135,436.618,442.097,444.706,448.508,452.803,457.286,461.088,465.382,469.867,472.107,479.155" svgx:width="0.5,0.42,0.48,0.5,0.33,0.29,0.48,0.56,0.48,0.29,0.55,0.4,0.29,0.42,0.29,0.58,0.56,0.5,0.55,0.79,0.67,0.55,0.5,0.71,0.79,0.5,0.5,0.33,0.55,0.78,0.83,0.77,0.55,0.33,0.5,0.58,0.48,0.5,0.29,0.33,0.58,0.5,0.55,0.79,0.67,0.55,0.5,0.61,0.29,0.42,0.48,0.5,0.42,0.48,0.5,0.55,0.79,0.67" style="fill:rgb(0,0,0);font-family:URWPalladioL-Roma;font-size:8.97px;stroke:none;">“sea-level rising” OR “CO2”) AND (“health” OR “disease” OR</text>
   <text y="166.816" x="208.67,213.064,217.273,222.554,225.111,230.48,234.689,242.448,245.005,249.802,252.359,257.157,262.043,266.928,271.413,273.457,280.364,286.3739,288.369,292.762,297.156,299.713,303.30100000000004,305.328,310.609,315.407,317.964,320.521,325.819,328.684,331.232,336.03,341.144,345.629,347.681,354.588,360.59790000000004,362.593,366.987,374.315,378.709,381.573,385.782,389.253,393.738,395.782,402.688,408.6979,410.693,415.087,418.013,422.811,427.609,432.977,437.462,439.515,446.422,452.43190000000004,454.427,458.82,463.934,469.233,472.097,475.568,478.125,480.99,483.547,488.345,493.459,497.944,499.988,506.894" svgx:width="0.5,0.48,0.6,0.29,0.61,0.48,0.88,0.29,0.55,0.29,0.55,0.56,0.56,0.5,0.55,0.79,0.67,0.55,0.5,0.5,0.29,0.4,0.55,0.6,0.55,0.29,0.29,0.6,0.33,0.29,0.55,0.58,0.5,0.55,0.79,0.67,0.55,0.5,0.83,0.5,0.33,0.48,0.4,0.5,0.55,0.79,0.67,0.55,0.5,0.33,0.55,0.55,0.61,0.5,0.55,0.79,0.67,0.55,0.5,0.58,0.6,0.33,0.4,0.29,0.33,0.29,0.55,0.58,0.5,0.55,0.79,0.67" style="fill:rgb(0,0,0);font-family:URWPalladioL-Roma;font-size:8.97px;stroke:none;">“epidemiology” OR “air pollution” OR “water” OR “food” OR “nutrition” OR</text>
   <text y="177.775" x="342.389,346.872,351.938,356.233,360.214,363.137,368.033,371.575,376.058" svgx:width="0.5,0.56,0.48,0.44,0.33,0.55,0.4,0.5,0.33" style="fill:rgb(0,0,0);font-family:URWPalladioL-Roma;font-size:8.97px;stroke:none;">“vector”)</text>
   <text y="188.734" x="82.513,87.991,92.887,96.868,101.351,104.274,106.884,111.779" svgx:width="0.61,0.55,0.44,0.5,0.33,0.29,0.55,0.58" style="fill:rgb(0,0,0);font-family:URWPalladioL-Roma;font-size:8.97px;stroke:none;">Location</text>
   <text y="188.734" x="116.997" svgx:width="0.29" style="fill:rgb(0,0,0);font-family:Rpxr;font-size:8.97px;stroke:none;">/</text>
   <text y="188.734" x="119.571,123.373,126.296,131.703,137.181,142.20420000000001,144.408,148.21,150.819,153.742,158.0476,334.325,338.808,344.224,349.443,352.052,354.661,357.27,362.659,368.048,370.657,375.876,380.17,383.972" svgx:width="0.42,0.33,0.6,0.61,0.56,0.55,0.42,0.29,0.33,0.48,0.55,0.5,0.6,0.58,0.29,0.29,0.29,0.6,0.6,0.29,0.58,0.48,0.42,0.5" style="fill:rgb(0,0,0);font-family:URWPalladioL-Roma;font-size:8.97px;stroke:none;">study site “Philippines”</text>
   <text y="199.931" x="82.513,87.516,90.125,98.043,102.338,105.324,108.865,113.348,121.266,125.5716,328.336,332.819,337.302,341.785,346.269,350.752,355.237,357.477,360.4,365.33349999999996,367.537,372.02,376.503,380.987,385.47,389.953" svgx:width="0.61,0.29,0.88,0.48,0.33,0.4,0.5,0.88,0.48,0.55,0.5,0.5,0.5,0.5,0.5,0.5,0.55,0.33,0.55,0.55,0.5,0.5,0.5,0.5,0.5,0.5" style="fill:rgb(0,0,0);font-family:URWPalladioL-Roma;font-size:8.97px;stroke:none;">Timeframe “1980” to “2017”</text>
  </g>
  <path style="fill:none;stroke:rgb(0,0,0);stroke-width:0.3;" d="M76.540 205.570 L518.740 205.570 "/>
  <g begin="text">
   <text y="231.433" x="97.795,104.024,109.938,114.7188,117.895,120.852,123.809,127.122,131.99,136.004,141.085,144.397,150.525,154.356,159.1368,162.313,166.621,171.489,176.57,180.401,184.913,190.68980000000002,193.906,202.381,207.462,211.6452,214.86,217.817,220.774,229.747,232.704,236.017,240.884,246.9596,250.182,253.566,257.397,262.945,271.7098,275.008,280.088,285.169,290.25,295.23,298.41,301.723,307.201,310.361,315.442,320.523,325.603,330.583,333.763,337.147,342.228,347.208,350.398,356.048,360.916,365.997,370.011,374.319,377.60580000000004,380.793,384.105,389.583,392.733,398.84,404.388,408.697,413.006,415.963,421.582,424.539,430.1166,433.279,437.79,443.339,449.253,453.562,456.519,462.728,467.595,471.579,474.688,478.997,482.309,488.437,494.646,497.603,502.471,506.6542,509.868,512.826" svgx:width="0.61,0.58,0.48,0.55,0.29,0.29,0.33,0.48,0.4,0.5,0.33,0.6,0.4,0.48,0.55,0.42,0.48,0.5,0.4,0.44,0.58,0.55,0.83,0.5,0.42,0.55,0.29,0.29,0.88,0.29,0.33,0.48,0.61,0.55,0.33,0.4,0.55,0.88,0.55,0.5,0.5,0.5,0.5,0.55,0.33,0.55,0.55,0.5,0.5,0.5,0.5,0.55,0.33,0.5,0.5,0.55,0.56,0.48,0.5,0.4,0.42,0.33,0.55,0.33,0.55,0.55,0.6,0.55,0.42,0.42,0.29,0.55,0.29,0.56,0.55,0.44,0.55,0.58,0.42,0.29,0.61,0.48,0.4,0.55,0.42,0.33,0.6,0.61,0.29,0.48,0.42,0.55,0.29,0.58" style="fill:rgb(0,0,0);font-family:URWPalladioL-Roma;font-size:9.96px;stroke:none;">The literature search was limited from 1980 to 2017 (37 years) to possibly consider studies in</text>
   <text y="244.943" x="76.535,79.848,85.762,90.5428,94.034,100.141,105.222,109.531,112.843,115.333,121.593,128.381,133.248,136.632,141.5,145.341,150.208,156.123,160.634,165.502,169.6852,173.205,178.753,182.03979999999999,185.541,189.85,194.362,198.193,203.06,207.928,213.842,218.709,224.7846,228.323,231.706,237.834,240.791,243.748,247.132,250.445,255.312,260.556,263.8428,267.263,272.344,276.358,279.67,282.627,287.139,290.096,294.964,299.1472,302.677,307.758,313.672,319.74760000000003,323.275,328.925,332.766,337.634,343.21160000000003,346.678,349.635,352.592,355.905,360.772,364.786,369.867,373.18,379.307,383.148,387.9288,391.41,399.885,404.753,408.594,413.3748,416.855,425.828,430.909,436.823,442.951,448.032,450.989,453.946,459.52360000000004,463.0,467.309,472.176,477.257,481.088,485.6,491.514,496.382,502.4576,505.995,509.379,514.927" svgx:width="0.33,0.58,0.48,0.55,0.6,0.5,0.42,0.33,0.25,0.55,0.67,0.48,0.33,0.48,0.4,0.48,0.58,0.44,0.48,0.42,0.55,0.55,0.33,0.55,0.42,0.44,0.4,0.48,0.48,0.58,0.48,0.61,0.55,0.33,0.6,0.29,0.29,0.33,0.33,0.48,0.52,0.33,0.55,0.5,0.4,0.33,0.29,0.44,0.29,0.48,0.42,0.55,0.5,0.58,0.61,0.55,0.56,0.4,0.48,0.56,0.55,0.29,0.29,0.33,0.48,0.4,0.5,0.33,0.6,0.4,0.48,0.55,0.83,0.48,0.4,0.48,0.55,0.88,0.5,0.58,0.6,0.5,0.29,0.29,0.56,0.55,0.42,0.48,0.5,0.4,0.44,0.58,0.48,0.61,0.55,0.33,0.55,0.4" style="fill:rgb(0,0,0);font-family:URWPalladioL-Roma;font-size:9.96px;stroke:none;">the past. References of screened full-text articles and grey literature were manually searched for</text>
   <text y="258.452" x="76.535,81.516,87.603,93.691,96.59,99.838,102.737,108.176,113.974,118.956,121.84440000000001,124.346,127.245,130.144,133.392,138.164,142.099,147.08,150.328,156.335,160.091,164.863" svgx:width="0.5,0.61,0.61,0.29,0.33,0.29,0.55,0.58,0.5,0.29,0.55,0.29,0.29,0.33,0.48,0.4,0.5,0.33,0.6,0.4,0.48,0.25" style="fill:rgb(0,0,0);font-family:URWPalladioL-Roma;font-size:9.96px;stroke:none;">additional literature.</text>
   <text y="281.665" x="76.535,81.516,84.007,88.988,91.478,94.966,101.053,103.823,106.592,111.573,114.343,118.956,121.725,124.495,127.265,130.582,135.56199999999998,138.054,144.699,148.575,151.344,154.662,158.537,162.413,165.182" svgx:width="0.5,0.25,0.5,0.25,0.55,0.61,0.28,0.28,0.5,0.28,0.46,0.28,0.28,0.28,0.33,0.5,0.55,0.67,0.39,0.28,0.33,0.39,0.39,0.28,0.44" style="fill:rgb(0,0,0);font-family:URWPalladioL-Ital;font-size:9.96px;stroke:none;">2.2. Eligibility Criteria</text>
   <text y="301.152" x="97.795,103.223,108.554,112.538,114.383,120.251,126.138,131.537,134.378,137.219,141.359,147.041,151.718,157.7936,159.646,164.527,168.384,171.567,174.408,178.743,181.584,186.261,190.4,192.89000000000001,194.921,200.252,205.934,208.775,214.3526,216.166,219.417,225.304,228.145,230.987,234.238,237.421,242.097,247.135,250.4218,252.29,257.621,261.478,264.319,269.747,272.588,278.271,283.152,286.0404,287.956,293.287,297.27099999999996,299.115,302.796,307.473,311.612,316.289,321.171,324.842,329.177,334.9538,336.831,341.713,345.569,348.752,351.593,355.928,358.769,363.446,367.6292,369.558,377.701,382.377,386.048,390.8288,392.697,396.837,401.513,404.354,409.031,413.366,416.549,421.225,427.191,429.681,431.702,439.844,445.526,448.368,451.209,455.9898,457.858,463.286,466.967,471.643,477.2206,479.034,481.875,484.716,487.899,492.576,496.433,501.314,504.497,510.384,514.065" svgx:width="0.56,0.55,0.4,0.55,0.6,0.6,0.55,0.29,0.29,0.42,0.58,0.48,0.61,0.55,0.5,0.4,0.33,0.29,0.44,0.29,0.48,0.42,0.25,0.55,0.55,0.58,0.29,0.56,0.55,0.33,0.6,0.29,0.29,0.33,0.33,0.48,0.52,0.33,0.55,0.55,0.4,0.29,0.56,0.29,0.58,0.5,0.29,0.55,0.55,0.4,0.55,0.4,0.48,0.42,0.48,0.5,0.4,0.44,0.58,0.55,0.5,0.4,0.33,0.29,0.44,0.29,0.48,0.42,0.55,0.83,0.48,0.4,0.48,0.55,0.42,0.48,0.29,0.48,0.44,0.33,0.48,0.61,0.25,0.55,0.83,0.58,0.29,0.29,0.48,0.55,0.56,0.4,0.48,0.56,0.55,0.29,0.29,0.33,0.48,0.4,0.5,0.33,0.6,0.4,0.48" style="fill:rgb(0,0,0);font-family:URWPalladioL-Roma;font-size:9.96px;stroke:none;">For published articles, only full-text original or research articles were selected, while grey literature</text>
   <text y="314.662" x="76.117,84.26,88.936,92.617,97.3978,99.403,102.244,105.085,113.706,116.547,119.73,124.407,130.4826,132.491,135.673,141.151,143.113,146.364,152.252,155.093,157.934,161.185,164.368,169.045,174.082,177.3688,179.384,182.567,188.249,192.926,197.065,201.742,205.882,208.372,210.51,216.475,219.316,223.456,227.595,232.272,236.129,239.311,244.193,247.376,250.217,255.548,261.23,265.37,267.86,269.998,273.18,277.857,282.192,287.874,293.557,296.398,300.733,305.614,308.50239999999997,310.574,314.245,318.922,324.79,330.12,333.977,337.16,341.299,343.789,345.927,350.809,356.491,362.5666,364.575,370.541,373.382,377.521,381.856,387.744,391.883,396.023,398.864,404.195,409.9718,411.986,417.854,422.735,428.603,433.28,437.136,441.276,443.766,447.085,454.007,456.848,461.525,466.407,470.39099999999996,472.372,476.512,479.695,484.576,487.759,492.436,501.057,505.734,511.416,514.599" svgx:width="0.83,0.48,0.4,0.48,0.55,0.29,0.29,0.88,0.29,0.33,0.48,0.61,0.55,0.33,0.55,0.55,0.33,0.6,0.29,0.29,0.33,0.33,0.48,0.52,0.33,0.55,0.33,0.58,0.48,0.42,0.48,0.42,0.25,0.55,0.61,0.29,0.42,0.42,0.48,0.4,0.33,0.5,0.33,0.29,0.55,0.58,0.42,0.25,0.55,0.33,0.48,0.44,0.58,0.58,0.29,0.44,0.5,0.29,0.55,0.4,0.48,0.6,0.55,0.4,0.33,0.42,0.25,0.55,0.5,0.58,0.61,0.55,0.61,0.29,0.42,0.44,0.6,0.42,0.42,0.29,0.55,0.58,0.55,0.6,0.5,0.6,0.48,0.4,0.42,0.25,0.55,0.71,0.29,0.48,0.5,0.4,0.55,0.42,0.33,0.5,0.33,0.48,0.88,0.48,0.58,0.33,0.42" style="fill:rgb(0,0,0);font-family:URWPalladioL-Roma;font-size:9.96px;stroke:none;">were limited to full-text theses, dissertations, technical reports, and discussion papers. Clear statements</text>
   <text y="328.171" x="76.535,82.083,85.3698,88.587,93.668,97.977,102.285,107.834,112.345,115.302,120.383,123.696,126.653,132.202,138.116,142.2992,145.544,151.164,156.031,159.344,167.819,172.686,177.554,183.3308,186.588,191.1,194.057,197.014,205.987,211.068,214.381,219.1618,222.378,225.762,230.843,235.355,238.667,244.216,248.23,252.4132,255.658,260.739,266.653,272.72860000000003,275.982,281.896,286.763,291.844,294.801,298.114,303.89079999999996,307.148,312.696,318.824,322.137,326.649,332.197,341.17,346.037,350.2202,353.466,361.941,366.808,370.639,375.4198,378.637,382.468,387.335,393.026,399.153,402.111,405.942,410.809,417.018,419.508,424.944,432.149,435.106,438.063,447.036,452.117,455.43,460.2108,463.417,466.801,471.882,476.394,479.706,485.255,489.269,493.4522,496.697,505.172,510.04,513.871" svgx:width="0.55,0.33,0.55,0.5,0.42,0.42,0.55,0.44,0.29,0.5,0.33,0.29,0.55,0.58,0.42,0.55,0.55,0.48,0.33,0.83,0.48,0.48,0.58,0.55,0.44,0.29,0.29,0.88,0.5,0.33,0.48,0.55,0.33,0.5,0.44,0.33,0.55,0.4,0.42,0.55,0.5,0.58,0.61,0.55,0.58,0.48,0.5,0.29,0.33,0.58,0.55,0.55,0.6,0.33,0.44,0.55,0.88,0.48,0.42,0.55,0.83,0.48,0.4,0.48,0.55,0.4,0.48,0.56,0.6,0.29,0.4,0.48,0.61,0.25,0.55,0.71,0.29,0.29,0.88,0.5,0.33,0.48,0.55,0.33,0.5,0.44,0.33,0.55,0.4,0.42,0.55,0.83,0.48,0.4,0.48" style="fill:rgb(0,0,0);font-family:URWPalladioL-Roma;font-size:9.96px;stroke:none;">of associations between climate factors and health outcomes were required. Climate factors were</text>
   <text y="341.68" x="76.535,85.341,90.118,93.369,98.146,103.591,107.35,112.795,115.697,121.142,126.687,129.589,134.017,139.003,141.89139999999998,144.418,150.412,155.398,159.337,164.323,173.129,177.906,181.157,185.934,189.873,194.102,196.592,199.108,203.885,209.03,212.282,216.041,220.818,229.624,234.4048,236.914,245.231,250.008,254.994,258.245,264.049,268.826,272.81,275.268,280.045,285.68,290.456,296.26,299.512,303.74,306.23,308.756,313.742,316.644,320.628,323.087,329.08,334.525,337.427,340.329,346.343,349.594,352.496,357.941,363.745,366.235,368.761,373.747,379.551,385.6266,388.148,393.134,396.385,405.191,410.636,414.864,420.858,426.662,431.438,435.198,439.975,443.296,448.741,453.169,457.946,462.932,468.7088,471.249,474.151,479.955,483.206,487.983,491.922,496.908,501.336,504.587,507.489,512.934" svgx:width="0.88,0.48,0.33,0.48,0.55,0.4,0.55,0.29,0.55,0.56,0.29,0.44,0.5,0.29,0.55,0.6,0.5,0.4,0.5,0.88,0.48,0.33,0.48,0.4,0.42,0.25,0.55,0.48,0.52,0.33,0.4,0.48,0.88,0.48,0.55,0.83,0.48,0.5,0.33,0.58,0.48,0.4,0.55,0.48,0.56,0.48,0.58,0.33,0.42,0.25,0.55,0.5,0.29,0.4,0.55,0.6,0.55,0.29,0.29,0.6,0.33,0.29,0.55,0.58,0.25,0.55,0.5,0.58,0.61,0.55,0.5,0.33,0.88,0.55,0.42,0.6,0.58,0.48,0.4,0.48,0.33,0.55,0.44,0.48,0.5,0.58,0.55,0.29,0.58,0.33,0.48,0.4,0.5,0.44,0.33,0.29,0.55,0.58" style="fill:rgb(0,0,0);font-family:URWPalladioL-Roma;font-size:9.96px;stroke:none;">meteorological parameters, extreme weather events, air pollution, and atmosphere-ocean interaction</text>
   <text y="355.19" x="76.236,82.307,88.187,93.026,98.905,104.421,113.341,118.18,124.059,129.11,131.60000000000002,135.141,141.334,147.213,151.9938,154.547,160.649,166.528,169.468,172.408,175.347,181.419,187.49,190.43,196.309,201.148,205.3312,207.927,213.806,218.857,224.9326,227.525,230.818,236.29600000000002,238.829,244.415,249.1958,251.749,256.588,261.801,267.872,270.812,273.752,278.237,281.177,284.47,287.41,292.98760000000004,295.532,304.452,309.291,315.16,318.453,321.393,326.909,332.788,337.627,343.7026,346.305,351.356,355.5392,358.134,363.11400000000003,365.681,369.964,373.257,379.349,385.521,391.09860000000003,393.633,397.916,400.856,404.149,408.988,411.478,415.019,418.424,424.20079999999996,426.798,430.091,435.971,440.7518,443.305,447.79,452.841,457.125,461.9058,464.459,469.974,473.2608,475.834,484.754,490.845,493.785,497.078,500.018,503.382,507.665,510.605,513.898" svgx:width="0.6,0.58,0.48,0.58,0.55,0.88,0.48,0.58,0.5,0.25,0.55,0.61,0.58,0.48,0.55,0.6,0.58,0.29,0.29,0.29,0.6,0.6,0.29,0.58,0.48,0.42,0.55,0.58,0.5,0.61,0.55,0.33,0.55,0.55,0.55,0.48,0.55,0.48,0.52,0.6,0.29,0.29,0.44,0.29,0.33,0.29,0.56,0.55,0.88,0.48,0.58,0.33,0.29,0.55,0.58,0.48,0.61,0.55,0.5,0.42,0.55,0.5,0.55,0.42,0.33,0.6,0.61,0.56,0.55,0.42,0.29,0.33,0.48,0.25,0.55,0.34,0.58,0.55,0.33,0.58,0.48,0.55,0.44,0.5,0.42,0.48,0.55,0.55,0.33,0.55,0.88,0.6,0.29,0.33,0.29,0.33,0.42,0.29,0.33,0.48" style="fill:rgb(0,0,0);font-family:URWPalladioL-Roma;font-size:9.96px;stroke:none;">phenomena. The Philippines had to be explicitly mentioned as a study site. In the case of multi-site</text>
   <text y="368.699" x="76.535,80.751,83.992,89.987,96.062,98.956,103.718,107.934,110.42399999999999,112.905,118.921,124.707,130.782,133.676,139.462,144.99,149.1732,151.702,155.917,161.893,166.655,171.07,173.963,179.979,184.393,189.365,192.258,195.151,200.7286,203.165,206.476,211.905,215.889,218.318,221.559,227.346,232.1268,234.594,240.599,246.386,249.279,252.172,255.066,261.041,267.017,269.91,275.697,280.459,284.6422,287.171,291.386,297.173,302.602,308.597,311.49,317.5656,320.051,325.549,330.3298,332.798,338.773,342.522,347.284,351.5,356.262,362.049,365.3358,367.776,370.669,376.44579999999996,378.952,382.193,387.979,392.7598,395.228,398.976,403.739,407.954,413.95,416.843,420.084,424.2672,426.786,432.214,436.198,438.637,444.712,447.606,451.821,456.236,462.231,466.447,470.663,473.556,478.985,484.7618,487.257,491.473,496.235,500.65,503.891,506.784,512.213,518.0" svgx:width="0.42,0.33,0.6,0.61,0.29,0.48,0.42,0.25,0.55,0.61,0.58,0.61,0.29,0.58,0.56,0.42,0.55,0.42,0.6,0.48,0.44,0.29,0.61,0.44,0.5,0.29,0.29,0.56,0.55,0.33,0.55,0.4,0.55,0.33,0.58,0.48,0.55,0.6,0.58,0.29,0.29,0.29,0.6,0.6,0.29,0.58,0.48,0.42,0.55,0.42,0.58,0.55,0.6,0.29,0.61,0.55,0.55,0.48,0.55,0.6,0.4,0.48,0.42,0.48,0.58,0.33,0.55,0.29,0.58,0.55,0.33,0.58,0.48,0.55,0.4,0.48,0.42,0.6,0.29,0.33,0.42,0.55,0.55,0.4,0.55,0.61,0.29,0.42,0.44,0.6,0.42,0.42,0.29,0.55,0.58,0.55,0.42,0.48,0.44,0.33,0.29,0.55,0.58,0.25" style="fill:rgb(0,0,0);font-family:URWPalladioL-Roma;font-size:9.96px;stroke:none;">studies, ﬁndings speciﬁcally for the Philippines should be present in the results or discussion section.</text>
   <text y="382.209" x="76.535,79.859,85.599,88.469,91.685,94.555,99.486,102.356,105.226,109.606,112.09599999999999,114.547,120.001,125.386,128.602,134.3788,136.817,142.341,148.288,153.22,158.96,162.175,165.045,168.261,173.192,176.407,179.278,184.85,189.6308,192.06,196.992,202.732,208.8076,211.234,216.757,222.704,227.636,230.506,233.376,236.591,241.523,244.738,247.608,253.181,257.96180000000004,260.381,264.563,267.778,273.726,279.752,282.622,287.346,291.5292,294.004,302.23,306.954,310.672,315.4528,317.872,322.251,327.637,333.377,337.559,340.429,346.455,351.18,354.898,359.622,365.6976,368.124,371.339,376.817,379.2,382.485,388.432,392.328,395.543,401.283,406.008,409.99199999999996,412.379,420.605,423.475,429.501,434.226,440.0028,442.452,445.667,451.407,456.1878,458.607,462.789,467.513,470.384,475.108,479.487,482.702,485.572,490.958,496.7348,499.174,505.101,510.486,515.872" svgx:width="0.34,0.58,0.29,0.33,0.29,0.5,0.29,0.29,0.56,0.25,0.55,0.55,0.55,0.33,0.58,0.55,0.56,0.6,0.5,0.58,0.33,0.29,0.33,0.5,0.33,0.29,0.56,0.48,0.55,0.5,0.58,0.61,0.55,0.56,0.6,0.5,0.29,0.29,0.33,0.5,0.33,0.29,0.56,0.48,0.55,0.42,0.33,0.6,0.61,0.29,0.48,0.42,0.55,0.83,0.48,0.4,0.48,0.55,0.44,0.55,0.58,0.42,0.29,0.61,0.48,0.4,0.48,0.61,0.55,0.33,0.55,0.55,0.33,0.6,0.4,0.33,0.58,0.48,0.4,0.55,0.83,0.29,0.61,0.48,0.58,0.55,0.33,0.58,0.48,0.55,0.42,0.48,0.29,0.48,0.44,0.33,0.29,0.55,0.58,0.55,0.6,0.55,0.55,0.29" style="fill:rgb(0,0,0);font-family:URWPalladioL-Roma;font-size:9.96px;stroke:none;">Initially, both quantitative and qualitative studies were considered to further widen the selection pool</text>
   <text y="395.718" x="76.535,81.915,85.2018,87.698,92.625,96.517,99.729,102.596,106.971,109.838,114.558,118.7412,121.238,126.165,131.899,137.9746,140.422,146.344,151.27,157.192,161.911,165.803,169.981,172.471,174.957,180.691,186.071,194.288,199.008,204.575,209.294,212.447,214.937,217.413,222.931,228.872,233.799,239.533,242.745,245.613,248.825,253.751,256.963,259.831,265.397,270.1778,272.62,276.797,280.009,285.951,291.971,294.838,299.558,303.7412,306.238,314.456,319.175,322.89,327.6708,330.112,335.492,341.226,344.093,349.67060000000004,352.074,357.996,361.711,366.43,370.608,375.327,381.062,384.274,388.994,395.06960000000004,397.516,403.251,407.971,411.685,416.4658,418.907,422.119,427.59700000000004,430.002,434.377,437.244,441.963,446.89,450.782,453.649,459.2266,461.63,466.556,470.448,473.66,476.528,480.902,486.844,489.711,494.638,497.85,502.6308,505.072,508.284,514.018" svgx:width="0.55,0.33,0.55,0.5,0.4,0.33,0.29,0.44,0.29,0.48,0.42,0.55,0.5,0.58,0.61,0.55,0.6,0.5,0.6,0.48,0.4,0.42,0.25,0.55,0.58,0.55,0.83,0.48,0.56,0.48,0.4,0.25,0.55,0.56,0.6,0.5,0.58,0.33,0.29,0.33,0.5,0.33,0.29,0.56,0.48,0.55,0.42,0.33,0.6,0.61,0.29,0.48,0.42,0.55,0.83,0.48,0.4,0.48,0.55,0.55,0.58,0.29,0.56,0.55,0.6,0.4,0.48,0.42,0.48,0.58,0.33,0.48,0.61,0.55,0.58,0.48,0.4,0.48,0.55,0.33,0.55,0.55,0.44,0.29,0.48,0.5,0.4,0.29,0.56,0.55,0.5,0.4,0.33,0.29,0.44,0.6,0.29,0.5,0.33,0.48,0.55,0.33,0.58,0.48" style="fill:rgb(0,0,0);font-family:URWPalladioL-Roma;font-size:9.96px;stroke:none;">of articles and papers; however, quantitative studies were only presented here to clearly articulate the</text>
   <text y="409.227" x="76.535,80.34,85.174,89.453,95.538,98.475,101.765,106.044,108.53399999999999,112.079,121.627,124.563,129.771,132.708,138.581,144.15859999999998,146.695,149.985,155.859,160.6398,163.196,167.001,171.835,176.114,182.199,185.136,188.426,192.6092,195.208,200.254,206.128,212.2036,214.787,220.953,223.89,228.169,232.65,238.735,243.014,247.293,250.23,255.741,261.5178,264.117,272.534,275.471,278.761,284.5378,287.137,292.789,298.874,303.92,306.857,309.794,313.084,318.13,321.42,324.357,330.059,334.8398,337.386,342.432,348.305" svgx:width="0.4,0.48,0.42,0.6,0.29,0.33,0.42,0.25,0.55,0.95,0.29,0.52,0.29,0.58,0.56,0.55,0.33,0.58,0.48,0.55,0.4,0.48,0.42,0.6,0.29,0.33,0.42,0.55,0.5,0.58,0.61,0.55,0.61,0.29,0.42,0.44,0.6,0.42,0.42,0.29,0.55,0.58,0.55,0.83,0.29,0.33,0.58,0.55,0.56,0.6,0.5,0.29,0.29,0.33,0.5,0.33,0.29,0.56,0.48,0.55,0.5,0.58,0.61" style="fill:rgb(0,0,0);font-family:URWPalladioL-Roma;font-size:9.96px;stroke:none;">results. Mixing the results and discussion with qualitative and</text>
   <text y="409.227" x="354.477" svgx:width="0.29" style="fill:rgb(0,0,0);font-family:Rpxr;font-size:9.96px;stroke:none;">/</text>
   <text y="409.227" x="357.373,362.883,366.86699999999996,369.372,378.284,381.221,386.428,391.262,397.3376,399.921,408.833,413.667,416.957,422.83,428.341,434.507,438.6902,441.289,445.568,448.858,454.944,461.11,464.047,468.881,473.06419999999997,475.663,484.574,489.62,495.1976,497.724,500.661,503.598,512.509,515.446" svgx:width="0.55,0.4,0.55,0.88,0.29,0.52,0.48,0.61,0.55,0.88,0.48,0.33,0.58,0.55,0.61,0.42,0.55,0.42,0.33,0.6,0.61,0.29,0.48,0.42,0.55,0.88,0.5,0.56,0.55,0.29,0.29,0.88,0.29,0.33" style="fill:rgb(0,0,0);font-family:URWPalladioL-Roma;font-size:9.96px;stroke:none;">or mixed methods studies may limit</text>
   <text y="422.737" x="76.535,79.718,85.4,90.1808,92.479,98.444,103.121,108.988,112.171,117.9478,120.255,125.586,128.8728,131.249,134.432,140.114,144.8948,147.192,153.158,155.999,160.139,164.473,170.361,174.5,178.64,181.481,186.812,192.494,194.984,198.391,206.065,211.748,214.589,220.1666,222.419,227.301,231.157,234.34,237.181,241.516,244.357,249.034,253.2172,255.575,260.457,266.139,272.2146,274.506,279.935,283.616,288.292,293.8696,296.123,298.964,301.805,304.988,309.664,313.521,318.403,321.585,327.473,331.153,335.9338,338.232,346.375,350.231,353.072,356.255,359.438,364.115,369.8918,372.199,375.04,380.8168,383.124,389.089,394.772,400.2,403.041,405.882,410.022,415.79879999999997,418.116,426.258,430.935,434.606,439.3868,441.684,444.526,450.208,454.543,457.384,463.271,469.237,473.913,479.879,482.369,484.741,490.14,494.816,499.151,504.033,509.92,514.06" svgx:width="0.33,0.58,0.48,0.55,0.61,0.48,0.6,0.33,0.58,0.55,0.55,0.33,0.55,0.33,0.58,0.48,0.55,0.61,0.29,0.42,0.44,0.6,0.42,0.42,0.29,0.55,0.58,0.25,0.55,0.79,0.58,0.29,0.56,0.55,0.5,0.4,0.33,0.29,0.44,0.29,0.48,0.42,0.55,0.5,0.58,0.61,0.55,0.56,0.4,0.48,0.56,0.55,0.29,0.29,0.33,0.48,0.4,0.5,0.33,0.6,0.4,0.48,0.55,0.83,0.4,0.29,0.33,0.33,0.48,0.58,0.55,0.29,0.58,0.55,0.61,0.58,0.56,0.29,0.29,0.42,0.58,0.55,0.83,0.48,0.4,0.48,0.55,0.29,0.58,0.44,0.29,0.6,0.61,0.48,0.61,0.25,0.55,0.55,0.48,0.44,0.5,0.6,0.42,0.48" style="fill:rgb(0,0,0);font-family:URWPalladioL-Roma;font-size:9.96px;stroke:none;">the depth of the discussion. Only articles and grey literature written in English were included, because</text>
   <text y="436.246" x="76.535,79.434,82.7208,85.173,88.072,92.2552,94.786,98.034,103.833,108.6138,111.095,113.994,118.976,124.774,130.313,136.321,141.302,146.841,151.6218,154.104,160.111,164.335,169.107,175.1826,177.685,180.584,186.3608,188.873,193.855,198.278,203.259,209.346,214.118,222.915,225.815,230.795,233.286,238.726,242.71,245.152,250.661,256.669,260.893,263.792,269.59,274.362,278.586,282.7692,285.301,288.2,293.97679999999997,296.489,299.737,305.535,310.3158,312.798,318.815,324.614,327.513,330.412,333.311,339.298,345.286,348.185,353.983,358.755,362.98" svgx:width="0.29,0.33,0.55,0.29,0.42,0.55,0.33,0.58,0.48,0.55,0.29,0.5,0.58,0.56,0.6,0.5,0.56,0.48,0.55,0.6,0.42,0.48,0.61,0.55,0.29,0.58,0.55,0.5,0.44,0.5,0.61,0.48,0.88,0.29,0.5,0.55,0.55,0.4,0.55,0.55,0.6,0.42,0.29,0.58,0.48,0.42,0.42,0.55,0.29,0.58,0.55,0.33,0.58,0.48,0.55,0.6,0.58,0.29,0.29,0.29,0.6,0.6,0.29,0.58,0.48,0.42,0.25" style="fill:rgb(0,0,0);font-family:URWPalladioL-Roma;font-size:9.96px;stroke:none;">it is the language used in academia or business in the Philippines.</text>
   <text y="459.459" x="76.535,81.516,84.007,88.988,91.478,94.966,100.505,104.56,108.256,112.131,116.007,121.546,124.316,129.855" svgx:width="0.5,0.25,0.5,0.25,0.55,0.56,0.41,0.39,0.39,0.39,0.56,0.28,0.56,0.5" style="fill:rgb(0,0,0);font-family:URWPalladioL-Ital;font-size:9.96px;stroke:none;">2.3. Screening</text>
   <text y="478.946" x="97.795,103.78,109.462,114.2428,115.808,120.69,126.089,130.229,133.412,137.268,142.15,146.485,149.668,153.8512,155.477,160.359,166.041,173.676,178.352,183.39,188.067,192.402,198.289,201.472,204.313,209.829,214.6098,216.176,220.315,226.203,234.824,243.445,248.326,252.183,255.024,259.701,263.8842,265.51,273.652,278.329,282.0,286.7808,288.346,292.027,296.704,302.22,305.061,309.738,317.88,322.557,330.192,335.591,342.689,345.872,354.014,361.015,363.856,369.538,375.504,378.345,383.861,386.692,392.658,398.545,403.427,406.268,410.4512,412.077,414.918,420.249,425.58,431.008,433.849,439.532,446.63,449.881,455.211,459.195,460.738,463.92,469.603,474.3838,475.949,481.377,486.054,491.482,499.625,504.956,508.637,514.602" svgx:width="0.61,0.58,0.48,0.55,0.5,0.55,0.42,0.33,0.4,0.5,0.44,0.33,0.42,0.55,0.5,0.58,0.61,0.48,0.52,0.48,0.44,0.6,0.33,0.29,0.56,0.48,0.55,0.42,0.6,0.88,0.88,0.5,0.4,0.29,0.48,0.42,0.55,0.83,0.48,0.4,0.48,0.55,0.4,0.48,0.56,0.29,0.48,0.83,0.48,0.61,0.55,0.56,0.33,0.83,0.55,0.29,0.58,0.61,0.29,0.56,0.29,0.61,0.6,0.5,0.29,0.42,0.55,0.29,0.55,0.55,0.56,0.29,0.58,0.56,0.33,0.55,0.4,0.55,0.33,0.58,0.48,0.55,0.56,0.48,0.56,0.83,0.55,0.4,0.61,0.42" style="fill:rgb(0,0,0);font-family:URWPalladioL-Roma;font-size:9.96px;stroke:none;">The abstracts andexecutive summaries were reviewedbytwoindividuals lookingfor the keywords</text>
   <text y="492.456" x="76.535,80.366,85.234,88.191,93.272,96.584,101.452,107.52759999999999,110.587,113.9,119.378,122.375,126.887,129.844,132.801,141.774,146.855,150.168,154.9488,157.962,161.346,166.427,170.939,174.251,179.8,183.814,188.122,190.61200000000002,193.691,199.605,205.733,214.706,219.787,225.56380000000001,228.627,234.542,239.409,244.49,247.447,250.76,256.53679999999997,259.601,265.149,271.277,274.59,279.101,284.65,293.623,298.49,302.799,305.289,308.368,313.448,317.757,322.066,327.614,332.126,335.083,340.164,343.477,346.434,351.982,357.896,362.0792,365.132,370.751,375.619,378.931,387.406,392.274,397.141,402.9178,405.982,410.85,416.093,422.201,427.749,432.058,438.185,442.016,446.884,451.0672,454.119,459.2,465.114,471.1896,474.249,479.798,485.925,489.238,493.75,499.298,508.271,513.139,517.448" svgx:width="0.4,0.48,0.29,0.5,0.33,0.48,0.61,0.55,0.33,0.55,0.55,0.44,0.29,0.29,0.88,0.5,0.33,0.48,0.55,0.33,0.5,0.44,0.33,0.55,0.4,0.42,0.25,0.55,0.58,0.6,0.88,0.5,0.58,0.55,0.58,0.48,0.5,0.29,0.33,0.58,0.55,0.55,0.6,0.33,0.44,0.55,0.88,0.48,0.42,0.25,0.55,0.5,0.42,0.42,0.55,0.44,0.29,0.5,0.33,0.29,0.55,0.58,0.42,0.55,0.55,0.48,0.33,0.83,0.48,0.48,0.58,0.55,0.48,0.52,0.6,0.55,0.42,0.6,0.4,0.48,0.42,0.55,0.5,0.58,0.61,0.55,0.55,0.6,0.33,0.44,0.55,0.88,0.48,0.42,0.25" style="fill:rgb(0,0,0);font-family:URWPalladioL-Roma;font-size:9.96px;stroke:none;">related to climate factors, human health outcomes, associations between exposures and outcomes,</text>
   <text y="505.965" x="76.535,81.616,87.53,93.6056,97.062,100.375,106.289,111.0698,114.49,120.627,126.541,129.499,132.456,135.413,141.51,147.617,150.574,156.488,161.356,165.5392,168.998,174.079,178.2622,181.71,185.023,190.937,195.7178,199.128,203.436,206.749,212.877,219.085,224.6626,228.058,232.367,235.324,238.637,243.4178,246.837,252.386,256.37,259.723,265.271,271.185,275.9658,279.376,284.924,288.2108,291.631,294.944,300.858,305.6388,309.058,313.367,316.68,322.807,329.016,334.59360000000004,337.989,342.298,345.255,348.568,353.435,357.744,360.23400000000004,366.28,371.615,374.928,381.055,387.264,390.221,395.089,399.2722,402.72,411.195,414.152,417.465,423.24179999999996,426.702,432.352,435.309,438.266,441.224,447.331,450.288,456.202,461.68,465.073,471.181,476.262,480.276,483.588,486.545,491.057,494.014,500.122,505.203,511.117,514.43" svgx:width="0.5,0.58,0.61,0.55,0.33,0.58,0.48,0.55,0.6,0.58,0.29,0.29,0.29,0.6,0.6,0.29,0.58,0.48,0.42,0.55,0.5,0.42,0.55,0.33,0.58,0.48,0.55,0.42,0.33,0.6,0.61,0.56,0.55,0.42,0.29,0.33,0.48,0.55,0.55,0.4,0.55,0.55,0.58,0.48,0.55,0.55,0.33,0.55,0.33,0.58,0.48,0.55,0.42,0.33,0.6,0.61,0.56,0.55,0.42,0.29,0.33,0.48,0.42,0.25,0.55,0.52,0.33,0.6,0.61,0.29,0.48,0.42,0.55,0.83,0.29,0.33,0.58,0.55,0.56,0.29,0.29,0.29,0.6,0.29,0.58,0.55,0.55,0.6,0.5,0.4,0.33,0.29,0.44,0.29,0.6,0.5,0.58,0.33,0.42" style="fill:rgb(0,0,0);font-family:URWPalladioL-Roma;font-size:9.96px;stroke:none;">and the Philippines as the study site or one of the study sites. Studies with Filipino participants</text>
   <text y="519.474" x="76.535,82.592,88.004,93.773,98.5538,101.01,106.422,112.399,115.631,119.834,122.719,128.775,133.5558,136.002,139.233,145.003,149.78379999999999,152.239,156.64,162.053,168.03,173.799,177.031,180.946,186.5236,188.946,197.213,201.962,205.699,210.4798,212.925,217.673,222.788,227.19,230.074,236.052,242.108,246.857,252.9326,255.401,258.702,263.451,265.929,271.44,273.919,276.409,278.885,283.088,286.319,292.297,298.354,301.238,305.986,310.1692,312.668,320.935,323.82,327.051,332.82779999999997,335.308,340.721,346.322,351.07,354.985,359.188,363.937,368.893,373.0762,375.584,381.096,383.98,386.865,389.749,395.697,398.582,404.351,409.829,412.251,420.519,425.931,429.847,435.358,440.106,444.022,448.2052,450.713,455.67,459.8532,462.351,468.308,473.265,477.18,480.412,483.296,487.698,490.582,496.54,501.496,507.266,510.497,514.7,518.001" svgx:width="0.61,0.55,0.58,0.48,0.55,0.55,0.6,0.33,0.42,0.29,0.61,0.48,0.55,0.33,0.58,0.48,0.55,0.44,0.55,0.6,0.58,0.33,0.4,0.56,0.55,0.83,0.48,0.4,0.48,0.55,0.48,0.52,0.44,0.29,0.6,0.61,0.48,0.61,0.55,0.33,0.48,0.25,0.56,0.25,0.25,0.55,0.42,0.33,0.6,0.61,0.29,0.48,0.42,0.55,0.83,0.29,0.33,0.58,0.55,0.55,0.56,0.48,0.4,0.42,0.48,0.5,0.42,0.55,0.56,0.29,0.29,0.29,0.6,0.29,0.58,0.55,0.55,0.83,0.55,0.4,0.56,0.48,0.4,0.42,0.55,0.5,0.42,0.55,0.6,0.5,0.4,0.33,0.29,0.44,0.29,0.6,0.5,0.58,0.33,0.42,0.33,0.25" style="fill:rgb(0,0,0);font-family:URWPalladioL-Roma;font-size:9.96px;stroke:none;">done outside the country were excluded (e.g., studies with overseas Filipino workers as participants).</text>
   <text y="532.984" x="76.147,83.937,87.271,90.535,95.331,99.315,101.779,105.043,110.87,115.6508,118.169,121.083,126.91,129.824,133.088,136.001,141.007,143.8954,146.414,150.659,155.105,158.88,163.676,168.471,174.299,177.212,183.04,188.606,191.096,193.603,198.399,203.405,207.85,213.6268,216.181,219.955,224.751,230.408,233.322,238.118,246.468,251.264,255.24800000000002,257.712,261.957,266.753,272.771,277.777,281.732,286.738,290.002,294.798,297.712,303.2896,305.772,309.546,314.342,319.999,322.913,327.709,336.059,340.855,346.9306,349.476,352.74,358.567,363.3478,365.856,369.19,375.228,378.141,381.0294,383.548,386.812,391.608,396.775,400.039,404.2222,406.777,412.244,415.53080000000006,418.081,421.345,427.172,431.9528,434.461,439.467,443.422,446.686,449.6,454.046,456.959,461.755,465.9382,468.493,473.5,479.327,485.4026,487.948,493.965,498.971,504.989,509.785,513.74,517.985" svgx:width="0.78,0.33,0.33,0.48,0.4,0.55,0.33,0.58,0.48,0.55,0.29,0.58,0.29,0.33,0.29,0.5,0.29,0.55,0.42,0.44,0.4,0.48,0.48,0.58,0.29,0.58,0.56,0.25,0.55,0.48,0.5,0.44,0.58,0.55,0.4,0.48,0.56,0.29,0.48,0.83,0.48,0.4,0.55,0.42,0.48,0.6,0.5,0.4,0.5,0.33,0.48,0.29,0.56,0.55,0.4,0.48,0.56,0.29,0.48,0.83,0.48,0.61,0.55,0.33,0.58,0.48,0.55,0.33,0.6,0.29,0.29,0.55,0.33,0.48,0.52,0.33,0.42,0.55,0.55,0.33,0.55,0.33,0.58,0.48,0.55,0.5,0.4,0.33,0.29,0.44,0.29,0.48,0.42,0.55,0.5,0.58,0.61,0.55,0.6,0.5,0.6,0.48,0.4,0.42,0.25" style="fill:rgb(0,0,0);font-family:URWPalladioL-Roma;font-size:9.96px;stroke:none;">After the initial screening, each reviewer separately reviewed the full texts of the articles and papers.</text>
   <text y="546.493" x="76.147,83.758,89.53479999999999,91.947,96.633,99.48,102.327,107.767,110.613,116.024,118.871,121.717,124.564,127.754,133.3316,135.678,140.022,143.886,146.733,149.923,154.609,158.473,161.32,166.29999999999998,168.707,172.395,177.081,182.609,185.456,190.142,200.786,208.945,213.837,218.0202,220.48,226.457,231.799,237.493,242.2738,244.674,247.863,253.341,255.69,260.376,265.424,270.316,278.954,281.801,287.495,292.2758,294.676,297.865,303.559,308.245,311.092,315.07599999999996,317.451,321.795,327.137,332.831,336.02,340.706,346.4,349.6868,352.075,354.921,360.6978,363.11,366.299,370.986,374.85,383.489,387.6722,390.131,395.473,398.75980000000004,401.216,406.108,410.256,414.404,419.745,424.089,426.936,431.828,435.017,437.864,443.206,448.9,453.0832,455.542,464.181,469.073,475.05,479.8308,482.231,487.641,492.328,495.517,503.676,508.362,513.048" svgx:width="0.78,0.58,0.55,0.48,0.29,0.29,0.56,0.29,0.55,0.29,0.29,0.29,0.33,0.56,0.55,0.44,0.4,0.29,0.33,0.48,0.4,0.29,0.5,0.55,0.4,0.48,0.56,0.29,0.48,0.83,0.83,0.5,0.42,0.55,0.61,0.55,0.58,0.48,0.55,0.33,0.55,0.55,0.48,0.52,0.5,0.88,0.29,0.58,0.48,0.55,0.33,0.58,0.48,0.29,0.4,0.55,0.44,0.55,0.58,0.33,0.48,0.58,0.33,0.55,0.29,0.58,0.55,0.33,0.48,0.4,0.88,0.42,0.55,0.55,0.33,0.55,0.5,0.42,0.42,0.55,0.44,0.29,0.5,0.33,0.29,0.55,0.58,0.42,0.55,0.88,0.5,0.61,0.48,0.55,0.55,0.48,0.33,0.83,0.48,0.48,0.58" style="fill:rgb(0,0,0);font-family:URWPalladioL-Roma;font-size:9.96px;stroke:none;">An eligibility criteria reviewwas done to examine their content in terms of associations made between</text>
   <text y="560.003" x="76.535,82.339,87.116,92.102,95.004,98.255,104.03179999999999,106.542,111.987,118.001,121.252,125.68,131.125,139.931,144.707,148.8902,151.419,156.405,162.209,168.2846,170.786,175.214,178.116,181.018,189.823,194.81,198.061,202.8418,205.321,208.642,213.628,218.056,221.307,226.752,230.691,234.8742,237.402,240.304,246.0808,248.592,251.843,257.647,262.4278,264.907,270.93,276.734,279.636,282.538,285.44,291.434,297.427,300.329,306.133,310.91,315.138,317.628,321.112,326.657,332.102,336.08599999999996,338.524,341.775,347.579,352.3598,354.839,360.833,366.846,370.785,376.779,382.224,386.452,391.229,395.4122,397.94,403.385,406.6718,409.189,412.441,418.245,421.147,425.3302,427.858,432.086,435.338,441.351,447.444,451.882,454.372,456.858,461.845,467.6218,470.132,475.118,479.346,483.575,489.02,493.448,496.35,501.336,504.587,507.489,512.934" svgx:width="0.58,0.48,0.5,0.29,0.33,0.58,0.55,0.55,0.6,0.33,0.44,0.55,0.88,0.48,0.42,0.55,0.5,0.58,0.61,0.55,0.44,0.29,0.29,0.88,0.5,0.33,0.48,0.55,0.33,0.5,0.44,0.33,0.55,0.4,0.42,0.55,0.29,0.58,0.55,0.33,0.58,0.48,0.55,0.6,0.58,0.29,0.29,0.29,0.6,0.6,0.29,0.58,0.48,0.42,0.25,0.55,0.56,0.55,0.4,0.55,0.33,0.58,0.48,0.55,0.6,0.6,0.4,0.6,0.55,0.42,0.48,0.42,0.55,0.55,0.33,0.55,0.33,0.58,0.29,0.42,0.55,0.42,0.33,0.6,0.61,0.56,0.25,0.55,0.5,0.58,0.55,0.5,0.42,0.42,0.55,0.44,0.29,0.5,0.33,0.29,0.55,0.58" style="fill:rgb(0,0,0);font-family:URWPalladioL-Roma;font-size:9.96px;stroke:none;">health outcomes and climate factors in the Philippines. For the purposes of this study, an association</text>
   <text y="573.512" x="76.117,84.484,89.5,93.6832,96.232,99.151,104.629,110.107,114.36,119.166,122.085,127.6626,130.141,136.271,141.076,147.146,152.985,157.79,163.8656,166.398,171.414,175.5972,178.146,183.162,189.001,194.5786,197.057,201.862,207.039,213.068,215.988,218.907,223.362,226.281,229.5678,232.03,235.3,240.106,245.282,248.553,254.602,259.618,262.5064,265.016,269.27,272.54,277.556,280.827,285.632,294.491,299.296,305.135,308.4218,310.884,316.361,322.13779999999997,324.678,327.949,333.787,338.5678,341.071,346.087,349.358,352.628,357.434,366.292,372.322,375.60880000000003,378.07,381.341,386.819,389.296,393.079,397.884,400.803,405.82,409.09,413.8708,416.374,422.212,427.018,432.034,434.954,438.224,444.00079999999997,446.541,452.019,458.068,461.339,465.793,471.271,480.129,484.935,488.275,492.529,495.8158,498.348,506.715,509.634,512.905" svgx:width="0.83,0.5,0.42,0.55,0.29,0.55,0.55,0.42,0.48,0.29,0.56,0.55,0.61,0.48,0.61,0.58,0.48,0.61,0.55,0.5,0.42,0.55,0.5,0.58,0.56,0.55,0.48,0.52,0.6,0.29,0.29,0.44,0.29,0.33,0.55,0.33,0.48,0.52,0.33,0.6,0.5,0.29,0.55,0.42,0.33,0.5,0.33,0.48,0.88,0.48,0.58,0.33,0.55,0.55,0.58,0.55,0.33,0.58,0.48,0.55,0.5,0.33,0.33,0.48,0.88,0.6,0.33,0.55,0.33,0.55,0.55,0.4,0.48,0.29,0.5,0.33,0.48,0.55,0.58,0.48,0.5,0.29,0.33,0.58,0.55,0.55,0.6,0.33,0.44,0.55,0.88,0.48,0.33,0.42,0.33,0.55,0.83,0.29,0.33,0.58" style="fill:rgb(0,0,0);font-family:URWPalladioL-Roma;font-size:9.96px;stroke:none;">was loosely deﬁned as any explicit textual statement on the attempt to relate health outcome(s) with</text>
   <text y="587.021" x="76.535,80.87,83.711,86.552,95.173,100.055,103.238,108.0188,110.355,113.606,118.488,122.823,126.006,131.337,135.193,138.444,142.584,145.835,148.32500000000002,151.752,157.737,163.419,168.1998,170.537,174.217,178.894,183.034,188.921,191.762,194.945,199.1282,201.525,206.856,210.1428,212.548,215.731,221.413,226.1938,228.541,232.68,237.015,240.686,245.363,250.04,255.722,258.563,264.245,269.8226,272.124,280.267,284.944,288.615,293.3958,295.742,301.707,304.548,308.688,313.023,318.91,323.05,327.189,331.866,337.9416,340.272,345.671,351.2486,353.541,356.724,364.866,370.344,372.648,376.319,380.995,386.512,389.353,394.029,402.172,406.849,410.705,414.8882,417.286,420.468,425.946,428.25,431.921,436.597,441.479,445.814,451.5908,453.947,458.927,461.269,465.604,470.935,476.617,480.757,485.434,491.116,495.256,501.143,505.3262,507.723,513.054" svgx:width="0.44,0.29,0.29,0.88,0.5,0.33,0.48,0.55,0.33,0.5,0.44,0.33,0.55,0.4,0.33,0.42,0.33,0.25,0.55,0.61,0.58,0.48,0.55,0.4,0.48,0.42,0.6,0.29,0.33,0.42,0.55,0.55,0.33,0.55,0.33,0.58,0.48,0.55,0.42,0.44,0.4,0.48,0.48,0.58,0.29,0.58,0.56,0.55,0.83,0.48,0.4,0.48,0.55,0.61,0.29,0.42,0.44,0.6,0.42,0.42,0.48,0.61,0.55,0.55,0.56,0.55,0.33,0.83,0.55,0.55,0.4,0.48,0.56,0.29,0.48,0.83,0.48,0.4,0.42,0.55,0.33,0.55,0.55,0.4,0.48,0.5,0.44,0.58,0.55,0.5,0.55,0.44,0.55,0.58,0.42,0.48,0.58,0.42,0.6,0.42,0.55,0.55,0.58" style="fill:rgb(0,0,0);font-family:URWPalladioL-Roma;font-size:9.96px;stroke:none;">climate factor(s). The results of the screening were discussed by two reviewers to reach a consensus on</text>
   <text y="600.531" x="76.117,84.426,90.224,93.123,97.547,103.32379999999999,105.835,110.06,115.858,121.297,127.305,130.204,136.27960000000002,138.782,144.291,149.0718,151.554,154.453,160.251,164.675,167.574,173.581,179.668,184.44,190.5156,193.018,195.917,201.6938,204.206,207.454,213.252,218.0328,220.515,226.542,232.34,237.322,240.2104,242.712,246.936,251.708,254.607,259.379,263.802,267.05,269.949,275.389,281.1658,283.678,286.577,289.476,293.7,296.948" svgx:width="0.83,0.58,0.29,0.44,0.58,0.55,0.42,0.58,0.55,0.6,0.29,0.61,0.55,0.55,0.48,0.55,0.29,0.58,0.44,0.29,0.6,0.61,0.48,0.61,0.55,0.29,0.58,0.55,0.33,0.58,0.48,0.55,0.61,0.58,0.5,0.29,0.55,0.42,0.48,0.29,0.48,0.44,0.33,0.29,0.55,0.58,0.55,0.29,0.29,0.42,0.33,0.25" style="fill:rgb(0,0,0);font-family:URWPalladioL-Roma;font-size:9.96px;stroke:none;">which should be included in the ﬁnal selection list.</text>
   <text y="623.744" x="76.535,81.516,84.007,88.988,91.478,94.966,101.611,106.592,111.016,114.891,119.314,123.369,126.687,130.562,134.438,137.207,141.631,146.054,149.372,152.141,156.565" svgx:width="0.5,0.25,0.5,0.25,0.55,0.67,0.5,0.44,0.39,0.44,0.41,0.33,0.39,0.39,0.28,0.44,0.44,0.33,0.28,0.44,0.56" style="fill:rgb(0,0,0);font-family:URWPalladioL-Ital;font-size:9.96px;stroke:none;">2.4. Characterization</text>
   <text y="643.231" x="97.795,103.896,109.688,114.4688,116.934,121.154,125.921,128.817,133.585,138.004,141.248,146.016,152.0916,154.585,159.561,163.492,166.737,169.633,174.052,176.948,181.716,185.8992,188.414,193.39,199.183,205.2586,207.742,213.723,218.7,224.681,229.448,233.38,237.5632,240.088,248.388,253.156,256.908,261.6888,264.153,268.572,273.549,276.793,281.561,287.094,292.528,296.46,299.356,304.332,309.099,315.1746,317.669,323.163,328.139,332.359,337.126,343.2016,345.695,351.129,356.9058,359.4,362.645,368.437,373.2178,375.693,381.485,387.486,396.275,401.251,407.02779999999996,409.522,415.314,420.081,425.058,427.954,431.198,436.97479999999996,439.469,444.903,450.905,454.149,458.568,464.002,472.79,477.558,481.778,484.26800000000003,486.754,491.173,494.069,496.965,505.754,510.73,513.974" svgx:width="0.61,0.58,0.48,0.55,0.42,0.48,0.29,0.48,0.44,0.33,0.48,0.61,0.55,0.5,0.4,0.33,0.29,0.44,0.29,0.48,0.42,0.55,0.5,0.58,0.61,0.55,0.6,0.5,0.6,0.48,0.4,0.42,0.55,0.83,0.48,0.4,0.48,0.55,0.44,0.5,0.33,0.48,0.56,0.55,0.4,0.29,0.5,0.48,0.61,0.55,0.55,0.5,0.42,0.48,0.61,0.55,0.55,0.58,0.55,0.33,0.58,0.48,0.55,0.58,0.6,0.88,0.5,0.58,0.55,0.58,0.48,0.5,0.29,0.33,0.58,0.55,0.55,0.6,0.33,0.44,0.55,0.88,0.48,0.42,0.25,0.55,0.44,0.29,0.29,0.88,0.5,0.33,0.48" style="fill:rgb(0,0,0);font-family:URWPalladioL-Roma;font-size:9.96px;stroke:none;">The selected articles and papers were categorized based on the human health outcomes, climate</text>
   <text y="656.74" x="76.535,79.919,85.0,89.512,92.824,98.373,102.387,106.695,109.18499999999999,113.301,117.142,122.009,126.318,131.185,136.266,140.097,144.609,150.38580000000002,154.273,160.482,165.35,169.658,172.615,178.265,184.18,186.67000000000002,190.785,199.758,204.625,207.938,213.852,219.4,225.609,231.158,234.115,239.663,245.313,248.27,253.138,257.446,259.93600000000004,264.052,269.133,275.047,281.12260000000003,285.016,289.527,295.076,301.203,307.118,310.43,314.444,320.02160000000003,323.844" svgx:width="0.33,0.5,0.44,0.33,0.55,0.4,0.42,0.25,0.55,0.4,0.48,0.42,0.48,0.5,0.4,0.44,0.58,0.55,0.61,0.48,0.42,0.29,0.56,0.58,0.25,0.55,0.88,0.48,0.33,0.58,0.55,0.61,0.55,0.29,0.55,0.56,0.29,0.48,0.42,0.25,0.55,0.5,0.58,0.61,0.55,0.44,0.55,0.6,0.58,0.33,0.4,0.56,0.55,0.5" style="fill:rgb(0,0,0);font-family:URWPalladioL-Roma;font-size:9.96px;stroke:none;">factors, research design, methodologies, and country a</text>
   <text y="656.74" x="328.923" svgx:width="0.92" style="fill:rgb(0,0,0);font-family:Rpxr;font-size:9.96px;stroke:none;">ﬃ</text>
   <text y="656.74" x="338.262,341.219,344.176,349.257,352.57,355.527,361.075,366.99,371.1732,375.048,380.596,383.88280000000003,387.73,391.043,396.957,401.7378,405.584,411.732,415.736,420.045,423.33180000000004,427.117,432.198,438.326,441.639,447.553,453.101,457.115,461.2982,465.173,473.648,479.563,482.52,487.031,492.8078,496.695,505.17,510.038,513.869" svgx:width="0.29,0.29,0.5,0.33,0.29,0.55,0.58,0.42,0.55,0.55,0.33,0.55,0.33,0.58,0.48,0.55,0.61,0.4,0.42,0.33,0.55,0.5,0.6,0.33,0.58,0.55,0.4,0.42,0.55,0.83,0.58,0.29,0.44,0.58,0.55,0.83,0.48,0.4,0.48" style="fill:rgb(0,0,0);font-family:URWPalladioL-Roma;font-size:9.96px;stroke:none;">liations of the ﬁrst authors which were</text>
   <text y="670.25" x="76.535,80.235,84.935,89.096,93.796,98.703,102.393,106.75,112.461,117.161,123.157,125.64699999999999,129.114,134.57,140.487,144.364,147.563,153.274,157.974,161.958,164.343,170.339,175.246,178.445,183.42499999999998,185.844,191.202,196.9788,199.415,202.615,208.326,213.1068,215.519,219.68,222.879,228.796,234.792,240.3696,242.741,246.44,251.141,255.301,261.219,264.074,267.273,271.4562,273.927,282.111,286.811,290.511,295.2918,297.704,302.405,307.468,310.667,314.543,319.45,323.807,327.006,331.707,337.7826,340.195,343.394,348.872,351.245,354.1,360.096,364.797,370.508,373.707,376.563,379.83,385.4076,387.779,390.978,396.689,401.4698,403.892,408.053,413.951,418.651,423.008,425.864,431.801,436.1834,438.651,444.646,449.347,452.546,457.453,460.308,463.164,467.3472,469.817,475.175,480.9518,483.379,486.578,492.289,497.0698,499.482,502.681,508.138,514.035" svgx:width="0.4,0.48,0.42,0.48,0.5,0.4,0.44,0.58,0.48,0.61,0.25,0.55,0.56,0.6,0.4,0.33,0.58,0.48,0.4,0.55,0.61,0.5,0.33,0.5,0.55,0.55,0.58,0.55,0.33,0.58,0.48,0.55,0.42,0.33,0.6,0.61,0.56,0.55,0.4,0.48,0.42,0.6,0.29,0.33,0.42,0.55,0.83,0.48,0.4,0.48,0.55,0.48,0.52,0.33,0.4,0.5,0.44,0.33,0.48,0.61,0.55,0.33,0.55,0.55,0.29,0.61,0.48,0.58,0.33,0.29,0.33,0.56,0.55,0.33,0.58,0.48,0.55,0.42,0.6,0.48,0.44,0.29,0.61,0.44,0.55,0.61,0.48,0.33,0.5,0.29,0.29,0.42,0.55,0.55,0.58,0.55,0.33,0.58,0.48,0.55,0.33,0.56,0.6,0.48" style="fill:rgb(0,0,0);font-family:URWPalladioL-Roma;font-size:9.96px;stroke:none;">researched. Further data on the study results were extracted to identify the speciﬁc details on the type</text>
   <text y="683.759" x="76.535,81.991,85.2778,87.797,91.564,96.35,100.587,105.373,110.37,114.137,118.573,124.34979999999999,126.877,131.873,137.689,143.7646,146.273,152.378,157.164,163.17,166.427,172.2038,174.721,180.177,183.4638,185.993,189.25,195.066,199.8468,202.33,208.376,214.192,220.297,223.205,229.02,234.576,238.813,241.303,244.799,250.005,255.483,257.939,260.846,266.952,271.738,277.554,280.811,283.719,287.047,292.62460000000004,295.081,298.848,303.634,307.871,312.657,317.654,321.421,325.858,331.6348,334.161,337.419,343.234,348.021,356.844,361.631,365.867,368.357,370.844,376.889,382.535,387.3158,389.799,394.236,397.144,400.052,408.875,413.871,417.129,421.9098,424.403,429.4,435.215,441.2906,443.799,449.614,454.401,459.397,462.305,465.562,471.3388,473.856,477.114,482.929,487.716,496.539,501.326,505.5092,508.051,513.576" svgx:width="0.55,0.33,0.55,0.4,0.48,0.42,0.48,0.5,0.4,0.44,0.58,0.55,0.5,0.58,0.61,0.55,0.61,0.48,0.6,0.33,0.58,0.55,0.55,0.33,0.55,0.33,0.58,0.48,0.55,0.61,0.58,0.61,0.29,0.58,0.56,0.42,0.25,0.55,0.61,0.55,0.55,0.29,0.61,0.48,0.58,0.33,0.29,0.33,0.56,0.55,0.4,0.48,0.42,0.48,0.5,0.4,0.44,0.58,0.55,0.33,0.58,0.48,0.88,0.48,0.42,0.25,0.55,0.61,0.56,0.48,0.55,0.44,0.29,0.29,0.88,0.5,0.33,0.48,0.55,0.5,0.58,0.61,0.55,0.58,0.48,0.5,0.29,0.33,0.58,0.55,0.33,0.58,0.48,0.88,0.48,0.42,0.55,0.55,0.56" style="fill:rgb(0,0,0);font-family:URWPalladioL-Roma;font-size:9.96px;stroke:none;">of research and depth of the ﬁndings. To identify research themes, ﬁve climate and health themes by</text>
   <text y="697.268" x="76.535,81.661,90.282,93.123,96.306,102.08279999999999,104.37,109.047,112.3338,114.612,119.494,122.335,124.82499999999999,128.222,131.063,136.8398,139.128,144.459,150.141,154.9218,157.19,162.521,165.8078,168.154,171.337,177.019,181.7998,184.078,188.413,194.096,198.977,204.845,208.028,212.704,216.561,220.7442,223.083,228.414,231.7008,234.047,237.22,242.902,247.6828,249.961,253.252,258.934,262.117,266.793,270.474,275.903,281.233,286.75,291.426,295.283,300.965,309.586,314.263,319.945,323.128,328.01,330.8984,333.233,339.13,344.012,349.694,354.371,357.25939999999997,359.584,364.915,370.6918,372.98,379.902,382.743,385.584,394.205,399.087,402.27,407.0508,409.329,416.251,421.933,426.815,432.497,437.926,442.7068,444.984,450.413,453.254,456.505,459.688,465.46479999999997,467.743,475.339,479.478,483.618,488.295,492.434,496.574,505.195,509.872,515.554" svgx:width="0.52,0.88,0.29,0.33,0.58,0.55,0.48,0.33,0.55,0.5,0.29,0.25,0.55,0.29,0.58,0.55,0.55,0.58,0.48,0.55,0.55,0.33,0.55,0.33,0.58,0.48,0.55,0.44,0.58,0.5,0.6,0.33,0.48,0.4,0.42,0.55,0.55,0.33,0.55,0.33,0.58,0.48,0.55,0.34,0.58,0.33,0.48,0.4,0.56,0.55,0.56,0.48,0.4,0.58,0.88,0.48,0.58,0.33,0.5,0.29,0.55,0.6,0.5,0.58,0.48,0.29,0.55,0.55,0.58,0.55,0.71,0.29,0.29,0.88,0.5,0.33,0.48,0.55,0.71,0.58,0.5,0.58,0.56,0.48,0.55,0.56,0.29,0.33,0.33,0.58,0.55,0.78,0.42,0.42,0.48,0.42,0.42,0.88,0.48,0.58,0.33" style="fill:rgb(0,0,0);font-family:URWPalladioL-Roma;font-size:9.96px;stroke:none;">Smith et al. in one of the chapters of the Intergovernmental Panel on Climate Change Fifth Assessment</text>
   <text y="710.778" x="76.535,83.097,87.802,93.706,99.069,102.949,106.2358,108.647,116.839,121.545,125.238,130.0188,132.438,137.35,143.352,148.715,154.619,157.821,162.527,168.6026,171.024" svgx:width="0.67,0.48,0.6,0.55,0.4,0.33,0.55,0.83,0.48,0.4,0.48,0.55,0.5,0.61,0.55,0.6,0.33,0.48,0.61,0.55,0.33" style="fill:rgb(0,0,0);font-family:URWPalladioL-Roma;font-size:9.96px;stroke:none;">Report were adopted [</text>
   <text y="710.778" x="174.294,179.275" svgx:width="0.5,0.5" style="fill:rgb(8,117,183);font-family:URWPalladioL-Roma;font-size:9.96px;stroke:none;">13</text>
   <text y="710.778" x="184.256,187.527,190.017,193.48,201.122,207.026,211.938,215.818,219.1048,221.505,224.776,228.48,233.843,245.012,248.214,253.931,258.71180000000004,261.122,267.026,272.949,276.829,282.733,288.096,292.261,296.966,301.1492,303.627,308.99,312.27680000000004,314.756,320.188,323.892,328.597,334.147,337.005,340.208,344.559,347.04900000000004,349.51,352.713,358.43,361.288,365.4712,367.939,376.131,381.043,385.2262,387.703,391.868,396.573,399.431,404.137,408.498,411.701,416.406,422.4816,424.903,430.335,435.04,439.402,444.313,450.237,454.402,459.1828,461.602,464.804,470.521,475.3018,477.712,482.417,485.276,488.134,493.596,496.454,501.887,504.745,507.604,510.462,513.664" svgx:width="0.33,0.25,0.55,0.78,0.6,0.5,0.4,0.33,0.55,0.33,0.4,0.55,0.88,0.33,0.58,0.48,0.55,0.6,0.6,0.4,0.6,0.55,0.42,0.48,0.42,0.55,0.55,0.33,0.55,0.55,0.4,0.48,0.56,0.29,0.33,0.56,0.25,0.55,0.33,0.58,0.29,0.42,0.55,0.83,0.5,0.42,0.55,0.42,0.48,0.29,0.48,0.44,0.33,0.48,0.61,0.55,0.55,0.48,0.44,0.5,0.6,0.42,0.48,0.55,0.33,0.58,0.48,0.55,0.48,0.29,0.29,0.56,0.29,0.55,0.29,0.29,0.29,0.33,0.56" style="fill:rgb(0,0,0);font-family:URWPalladioL-Roma;font-size:9.96px;stroke:none;">]. Apart fromthe purposes of brevity, this was selected because the eligibility</text>
   <text y="724.287" x="76.535,80.87,84.726,87.568,90.75,95.427,99.284,102.125,107.105,109.428,112.679,118.01,120.851,123.692,129.023,137.165,141.842,147.91760000000002,150.219,155.345,163.966,166.807,169.99,175.76680000000002,178.093,182.77,186.0568,188.374,193.256,196.097,198.538,201.252,205.4352,207.803,212.138,217.469,223.151,227.486,232.163,238.031,241.3178,243.635,248.965,252.2518,254.638,257.479,260.32,266.003,271.431,274.272,279.954,285.5316,287.804,293.672,297.528,300.37,308.991,313.872,317.729,323.3066,325.569,330.245,335.283,341.151,346.482,350.622,356.509,360.19,364.9708,367.288,373.155,378.037,381.22,386.902,395.045,399.926,405.355,409.5382,411.906,417.305,422.8826,425.155,433.298,438.98,441.821,446.156,451.9328,454.26,458.594,461.436,464.277,472.898,477.779,480.962,485.7428,488.05,492.385,498.068,502.949,508.632,514.06" svgx:width="0.44,0.4,0.29,0.33,0.48,0.4,0.29,0.5,0.55,0.33,0.55,0.29,0.29,0.55,0.83,0.48,0.61,0.55,0.52,0.88,0.29,0.33,0.58,0.55,0.48,0.33,0.55,0.5,0.29,0.25,0.28,0.42,0.55,0.44,0.55,0.58,0.44,0.48,0.6,0.33,0.55,0.55,0.33,0.55,0.29,0.29,0.58,0.56,0.29,0.58,0.56,0.55,0.6,0.4,0.29,0.88,0.5,0.4,0.56,0.55,0.48,0.52,0.6,0.55,0.42,0.6,0.4,0.48,0.55,0.6,0.5,0.33,0.58,0.83,0.5,0.56,0.42,0.55,0.55,0.56,0.55,0.83,0.58,0.29,0.44,0.58,0.55,0.44,0.29,0.29,0.88,0.5,0.33,0.48,0.55,0.44,0.58,0.5,0.58,0.56,0.48" style="fill:rgb(0,0,0);font-family:URWPalladioL-Roma;font-size:9.96px;stroke:none;">criteria followed Smith et al.’s concept of linking primary exposure pathways by which climate change</text>
   <text y="737.797" x="76.535" svgx:width="0.5" style="fill:rgb(0,0,0);font-family:URWPalladioL-Roma;font-size:9.96px;stroke:none;">a</text>
   <text y="737.797" x="81.417" svgx:width="0.61" style="fill:rgb(0,0,0);font-family:Rpxr;font-size:9.96px;stroke:none;">ﬀ</text>
   <text y="737.797" x="87.353,92.03,96.365,99.547,103.7302,106.108,111.791,116.467,121.349,124.19,127.363,133.1398,135.467,140.798,146.685,149.868,154.203,159.533,168.154,172.831,176.971,179.461,182.878,187.945,193.423,195.687,201.116,207.003,209.844,215.809,220.5898,222.907,226.09,231.772,236.5528,238.861,243.196,248.077,251.26,255.937,261.365,266.696,270.553,273.394,278.275,283.157,286.34,289.181,294.512,300.2888,302.615,307.946,311.23280000000005,313.609,316.792,322.474,327.2548,329.572,334.454,338.31,341.493,344.334,348.669,351.51,356.187,360.327,362.817,365.198,369.875,374.913,379.248,383.924,387.781,393.649,396.832,401.0152,403.383,406.634,410.315,415.646,426.678,429.861,435.543,440.22,443.061,447.04499999999996,449.339,453.479,456.661,462.549,468.514,474.0916,476.354,481.685,487.084,489.369,494.045,498.38,501.563,504.404,509.921,514.597" svgx:width="0.48,0.44,0.33,0.42,0.55,0.58,0.48,0.5,0.29,0.33,0.58,0.55,0.55,0.6,0.33,0.44,0.55,0.88,0.48,0.42,0.25,0.55,0.61,0.55,0.55,0.56,0.6,0.29,0.61,0.48,0.55,0.33,0.58,0.48,0.55,0.44,0.5,0.33,0.48,0.56,0.55,0.4,0.29,0.5,0.5,0.33,0.29,0.55,0.58,0.55,0.55,0.33,0.55,0.33,0.58,0.48,0.55,0.5,0.4,0.33,0.29,0.44,0.29,0.48,0.42,0.25,0.55,0.48,0.52,0.44,0.48,0.4,0.6,0.33,0.42,0.55,0.33,0.4,0.55,0.88,0.33,0.58,0.48,0.29,0.4,0.55,0.42,0.33,0.6,0.61,0.56,0.55,0.55,0.55,0.23,0.48,0.44,0.33,0.29,0.56,0.48,0.42" style="fill:rgb(0,0,0);font-family:URWPalladioL-Roma;font-size:9.96px;stroke:none;">ects health outcomes. To guide the categorization of the articles, excerpts fromtheir study objectives</text>
   <text y="751.306" x="76.535,81.516,87.315,93.39059999999999,95.892,99.648,104.42,108.644,114.652,117.551,120.799,124.9822,127.514,135.822,140.595,144.35,149.1308,151.613,157.621,161.845,166.617,172.6926,175.195,180.176,184.3592,186.891,191.87099999999998,194.363,199.872,204.853,209.077,211.976,216.1592,218.691,222.009,225.765,231.204,242.492,250.801,256.599,259.498,263.921,269.6978,272.21,275.458,280.93600000000004,283.388,286.287,292.375,297.147,302.945,306.193,309.092,312.409,317.9866,320.439,328.748,334.546,337.445,341.869,347.6458,350.158,353.406,359.204,363.976,372.773,377.5538,380.036,383.283,389.082,393.854,399.4316,401.884,405.201,409.973,412.872,415.7604,418.262,424.27,430.068,436.155,440.927,444.911,447.353,450.67,455.861,460.842,466.352,469.251" svgx:width="0.5,0.58,0.61,0.55,0.4,0.48,0.42,0.6,0.29,0.33,0.42,0.55,0.83,0.48,0.4,0.48,0.55,0.6,0.42,0.48,0.61,0.55,0.5,0.42,0.55,0.5,0.55,0.55,0.5,0.42,0.29,0.42,0.55,0.33,0.4,0.55,0.88,0.83,0.58,0.29,0.44,0.58,0.55,0.33,0.55,0.55,0.29,0.61,0.48,0.58,0.33,0.29,0.33,0.56,0.55,0.83,0.58,0.29,0.44,0.58,0.55,0.33,0.58,0.48,0.88,0.48,0.55,0.33,0.58,0.48,0.56,0.55,0.33,0.48,0.29,0.29,0.55,0.6,0.58,0.61,0.48,0.4,0.55,0.33,0.61,0.5,0.55,0.29,0.48" style="fill:rgb(0,0,0);font-family:URWPalladioL-Roma;font-size:9.96px;stroke:none;">and results were used as a basis fromwhich to identify which theme they fell under (Table</text>
   <text y="751.306" x="476.513" svgx:width="0.5" style="fill:rgb(8,117,183);font-family:URWPalladioL-Roma;font-size:9.96px;stroke:none;">2</text>
   <text y="751.306" x="481.495,484.812" svgx:width="0.33,0.25" style="fill:rgb(0,0,0);font-family:URWPalladioL-Roma;font-size:9.96px;stroke:none;">).</text>
  </g>
 </g>
</svg>
