<?xml version="1.0" encoding="UTF-8"?>
<svg height="785.962" width="576.5567550000001" xmlns="http://www.w3.org/2000/svg">
 <g style="fill:none;">
  <text x="48.019,52.601,56.351,60.101,63.851,67.601,69.505,74.508,79.09,80.75500000000001,82.658,85.988,87.653,91.403,95.153,98.483,102.233,105.563,107.489,110.819,114.989,116.65400000000001,118.544,124.792,128.542,131.039,134.369,138.119,141.869,145.619,147.514,153.762,155.427,157.379,161.549,165.299,169.049,172.379,176.128,178.213,180.298,182.21,186.38,191.383,193.048,194.966,199.548,202.046,204.131,207.461,211.211,214.961,216.849,221.432,223.09699999999998,225.07,228.4,231.73,235.06,238.39,240.05499999999998,241.964,245.714,249.464,253.214,255.174,258.924,264.339,268.088,270.586,274.222,277.972,281.722,285.472,289.222,291.173,294.923" y="66.45100000000002" svg_rhmargin="297.008" style="fill:#171615;font-family:IFHMMK+AdvOTb4959fff;font-size:7.5px;font-style:NORMAL;font-weight:normal;">Ogden NH, Lindsay LR, Morshed M, Sockett PN, Artsob H. 2009. The emergence of</text>
  <text x="59.981,63.311,66.641,72.056,75.806,78.463,82.213,83.878,87.208,90.958,94.708,98.038,101.788,104.429,106.094,109.844,112.536,116.706,120.456,124.206,127.956,131.706,135.456,137.12099999999998,139.749,143.919,147.669,151.419,154.091,160.339,164.089,167.839,170.532,175.114,178.444,181.774,185.524,189.274,191.905,195.655,201.09,204.42,207.75,211.079,212.744,216.074,219.404,222.734" y="75.46500000000003" svg_rhmargin="226.064" style="fill:#171615;font-family:IFHMMK+AdvOTb4959fff;font-size:7.5px;font-style:NORMAL;font-weight:normal;">Lyme disease in Canada. Can Med Assoc J 180:1221</text>
  <text x="225.978" y="75.46500000000003" svg_rhmargin="229.728" style="fill:#171615;font-family:IFHMMM+AdvOTb4959fff+20;font-size:7.5px;font-style:NORMAL;font-weight:normal;">–</text>
  <text x="229.72,233.05,236.38,239.71,243.04,244.70499999999998,247.351,251.521,257.769,259.854,264.436,266.101,268.724,272.054,275.384,278.714,282.044,285.374,288.704,291.912,295.313" y="75.46500000000003" svg_rhmargin="296.978" style="fill:#171615;font-family:IFHMMK+AdvOTb4959fff;font-size:7.5px;font-style:NORMAL;font-weight:normal;">1224, PMID: 19506281,</text>
  <text x="59.981,63.731,65.816,67.901,71.651,74.981,76.646,78.731,80.816,84.566,88.316,89.858,91.523,95.273,97.77,101.52,103.605,106.809,110.139,111.804,115.134,118.464,121.794,125.124,127.209,130.959,136.233,139.983,141.648,143.313,146.643,149.973,153.302,156.632,159.962,163.276" y="84.47900000000004" svg_rhmargin="164.941" style="fill:#0000ff;font-family:IFHMMK+AdvOTb4959fff;font-size:7.5px;font-style:NORMAL;font-weight:normal;">https://doi.org/10.1503/cmaj.080148.</text>
  <text x="48.019,52.601,56.351,60.101,63.851,67.601,70.356,75.358,79.941,81.60600000000001,84.416,87.746,89.411,93.161,96.911,100.241,103.991,107.321,110.041,113.371,117.541,119.206,122.059,125.389,129.139,130.804,134.554,138.304,140.258,144.008,147.758,150.576,154.746,159.329,160.994,163.842,167.172,170.502,173.832,177.162,178.827,181.587,185.757,188.254,192.004,195.754,197.419,201.169,203.13,204.795,208.545,212.295,215.148,217.233,220.983,224.733,227.507,230.005,233.755,235.84,239.59,242.417,246.167,248.252,251.035,252.7,256.449,259.779,263.529,266.859,268.524,272.274,276.024,278.757,282.507,284.592,287.431,289.516,293.266" y="93.49300000000005" svg_rhmargin="297.016" style="fill:#171615;font-family:IFHMMK+AdvOTb4959fff;font-size:7.5px;font-style:NORMAL;font-weight:normal;">Ogden NH, Lindsay LR, Leighton PA. 2013. Predicting the rate of invasion of the</text>
  <text x="59.981,63.731,67.481,71.231,74.981,77.06599999999999,82.772,86.522,88.607,94.394,97.724,101.054,106.469,110.219,115.937,119.687,121.352,124.682,128.432,132.182,135.512,139.262,144.964,149.547,153.297,155.794,158.291,162.041,163.706,165.371,169.121,174.784,178.534,182.284,184.782,188.532,192.282,196.032,198.529,200.466,204.216,206.714,208.379,210.04399999999998,215.774,219.524,225.298,229.88,233.63,237.38,239.045,244.8,248.55,252.3,256.05,257.71500000000003,263.395,266.725,270.055,271.72,275.05,278.38" y="102.45100000000002" svg_rhmargin="281.71" style="fill:#171615;font-family:IFHMMK+AdvOTb4959fff;font-size:7.5px;font-style:NORMAL;font-weight:normal;">agent of Lyme disease Borrelia burgdorferi. J Appl Ecol 50:510</text>
  <text x="281.651" y="102.45100000000002" svg_rhmargin="285.401" style="fill:#171615;font-family:IFHMMM+AdvOTb4959fff+20;font-size:7.5px;font-style:NORMAL;font-weight:normal;">–</text>
  <text x="285.392,288.722,292.052,295.382" y="102.45100000000002" svg_rhmargin="297.047" style="fill:#171615;font-family:IFHMMK+AdvOTb4959fff;font-size:7.5px;font-style:NORMAL;font-weight:normal;">518,</text>
  <text x="59.981,63.731,65.816,67.901,71.651,74.981,76.646,78.731,80.816,84.566,88.316,89.858,91.523,95.273,97.77,101.52,103.605,106.809,110.139,111.804,115.134,118.464,121.794,125.124,127.209,130.539,133.738,137.068,140.398,142.896,146.226,149.556,152.885,156.215,157.88,161.064,164.394,167.724,171.054,174.444" y="111.46500000000003" svg_rhmargin="176.109" style="fill:#0000ff;font-family:IFHMMK+AdvOTb4959fff;font-size:7.5px;font-style:NORMAL;font-weight:normal;">https://doi.org/10.1111/1365-2664.12050.</text>
  <text x="48.019,52.601,56.351,60.101,63.851,67.601,69.448,74.451,79.033,80.69800000000001,82.601,88.848,92.598,96.348,98.846,102.596,106.346,108.431,110.324,114.906,116.57100000000001,118.487,123.07,126.82,129.317,132.647,136.397,138.89499999999998,140.767,142.852,147.022,148.68699999999998,150.575,155.157,156.822,160.572,163.07,166.82,170.15,172.647,176.817,180.451,184.201,185.866,187.531,191.281,193.15,199.398,201.063,203.015,206.345,208.01,211.76,215.51,218.84,222.59,225.92000000000002,227.733,231.063,235.233,236.898,238.845,245.092,248.842,251.34,254.67,258.42,262.17,265.92,267.758,274.005,278.588,280.25300000000004,282.158,285.907,287.99199999999996,289.924,293.674,295.339" y="120.47900000000004" svg_rhmargin="297.004" style="fill:#171615;font-family:IFHMMK+AdvOTb4959fff;font-size:7.5px;font-style:NORMAL;font-weight:normal;">Ogden NH, Maarouf A, Barker IK, Bigras-Poulin M, Lindsay LR, Morshed MG, et al.</text>
  <text x="59.981,63.311,66.641,69.971,73.301,74.96600000000001,77.556,81.726,83.391,85.056,90.471,94.221,96.306,100.056,102.614,106.364,110.114,113.864,117.613,121.363,125.113,127.615,131.365,135.115,138.865,141.505,143.59,147.34,151.09,153.694,157.444,161.194,163.279,167.029,170.779,172.742,174.407,178.157,179.822,182.437,184.522,188.272,190.76999999999998,193.378,195.876,199.626,203.376,207.126,210.876,213.391,217.141,220.471,224.221,227.971,231.721,235.051,236.716,240.466,244.216,246.726,250.476,252.561,255.173,257.258,261.008,264.758,267.362,270.692,274.022,279.437,283.187,285.787,289.537,291.202,294.532" y="129.49300000000005" svg_rhmargin="297.029" style="fill:#171615;font-family:IFHMMK+AdvOTb4959fff;font-size:7.5px;font-style:NORMAL;font-weight:normal;">2006. Climate change and the potential for range expansion of the Lyme dis-</text>
  <text svg_rhmargin="96.831" x="59.981,63.731,67.481,70.811,74.561,77.669,80.999,84.749,88.499,90.584,94.334,96.83200000000001" y="138.45100000000002" style="fill:#171615;font-family:IFHMMK+AdvOTb4959fff;font-size:7.5px;font-style:NORMAL;font-weight:normal;">ease vector </text>
  <text svg_rhmargin="154.019" x="99.836,101.921,105.251,109.001,112.751,116.501,119.831,122.91,126.24,129.99,133.74,137.49,141.24,142.905,146.655,149.152,150.689,154.019" y="138.45100000000002" style="fill:#171615;font-family:IFHMML+AdvOT0c7211e1.I;font-size:7.5px;font-style:NORMAL;font-weight:normal;">Ixodes scapularis </text>
  <text x="157.096,158.761,162.511,165.656,169.826,173.576,177.326,181.076,184.705,188.455,190.12,193.265,195.35,199.1,201.185,204.264,208.014,211.124,215.294,219.044,221.541,225.291,228.621,230.172,232.257,236.007,237.672,240.774,244.104,247.434,249.519,252.849,254.934,256.599,259.929" y="138.45100000000002" svg_rhmargin="263.259" style="fill:#171615;font-family:IFHMMK+AdvOTb4959fff;font-size:7.5px;font-style:NORMAL;font-weight:normal;">in Canada. Int J Parasitol 36(1):63</text>
  <text x="263.169" y="138.45100000000002" svg_rhmargin="266.919" style="fill:#171615;font-family:IFHMMM+AdvOTb4959fff+20;font-size:7.5px;font-style:NORMAL;font-weight:normal;">–</text>
  <text x="266.853,270.183,273.513,275.178,278.305,282.475,288.722,290.807,295.39" y="138.45100000000002" svg_rhmargin="297.055" style="fill:#171615;font-family:IFHMMK+AdvOTb4959fff;font-size:7.5px;font-style:NORMAL;font-weight:normal;">70, PMID:</text>
  <text x="59.981,63.311,66.641,69.971,73.301,76.631,79.961,83.291,86.627,88.292,92.013,95.763,97.847,99.932,103.682,107.012,108.677,110.762,112.706,116.455,120.205,121.87,123.535,127.285,129.783,133.533,135.495,138.825,142.155,143.82,147.15,150.48,153.81,157.14,159.225,160.89,162.425,164.09,165.755,169.505,173.254,175.752,179.502,181.167,184.365,187.695,191.025,194.355,196.02,199.35,202.68,204.345,207.552,210.882,214.299" y="147.46500000000003" svg_rhmargin="215.964" style="fill:#0000ff;font-family:IFHMMK+AdvOTb4959fff;font-size:7.5px;font-style:NORMAL;font-weight:normal;">16229849, https://doi.org/10.1016/j.ijpara.2005.08.016.</text>
  <text x="48.019,52.601,56.351,60.101,63.851,67.601,69.959,74.962,79.544,81.209,83.622,87.792,91.542,95.292,99.041,100.706,104.456,107.786,109.451,113.201,115.54,121.787,123.45200000000001,125.914,132.582,136.332,138.727,142.897,144.56199999999998,147.004,151.586,155.336,158.666,161.996,165.746,168.244,169.909,172.288,176.458,180.628,182.29299999999998,184.704,188.034,191.784,193.449,197.199,200.949,203.034,206.784,210.534,212.88,217.05,221.633,223.298,225.693,232.36,236.11,238.562,242.312,243.977,246.442,249.772,253.102,256.432,259.762,263.393,265.058,267.532,271.282,274.612,276.697,278.362,283.777,287.527,289.612,293.214" y="156.48000000000002" svg_rhmargin="296.964" style="fill:#171615;font-family:IFHMMK+AdvOTb4959fff;font-size:7.5px;font-style:NORMAL;font-weight:normal;">Ogden NH, Radojevic M, Wu X, Duvvuri VR, Leighton PA, Wu J. 2014b. Estimated</text>
  <text x="59.981,63.731,65.816,67.901,71.651,75.401,77.486,80.816,83.282,87.032,89.11699999999999,91.616,95.366,97.863,101.613,103.278,107.028,110.664,112.749,116.499,120.249,122.796,126.546,128.211,129.876,135.291,139.041,140.994,144.744,147.288,151.037,154.787,158.537,162.287,166.037,169.787,172.232,175.982,179.732,182.267,184.352,188.102,191.852,194.343,198.093,201.843,205.173,206.838,210.588,213.051,215.549,219.299,223.049,225.546,229.296,233.046,236.796,240.546,242.475,244.14,247.47,251.22,253.757,257.507,261.257,266.672,270.422,274.052,276.55,279.098,282.848,284.933,287.432,289.517,293.267" y="165.49400000000003" svg_rhmargin="297.017" style="fill:#171615;font-family:IFHMMK+AdvOTb4959fff;font-size:7.5px;font-style:NORMAL;font-weight:normal;">effects of projected climate change on the basic reproductive number of the</text>
  <text svg_rhmargin="123.306" x="59.981,63.311,66.641,72.056,75.806,78.349,82.099,83.764,87.094,90.844,94.594,97.795,101.545,104.144,107.474,111.224,114.974,117.059,120.809,123.307" y="174.452" style="fill:#171615;font-family:IFHMMK+AdvOTb4959fff;font-size:7.5px;font-style:NORMAL;font-weight:normal;">Lyme disease vector </text>
  <text x="125.745,127.83,131.16,134.91,138.66,142.41,145.74,148.252,151.582,155.332,159.082,162.832,166.582,168.247,171.997,174.494,176.031" y="174.452" svg_rhmargin="179.361" style="fill:#171615;font-family:IFHMML+AdvOT0c7211e1.I;font-size:7.5px;font-style:NORMAL;font-weight:normal;">Ixodes scapularis</text>
  <text x="179.32,180.98499999999999,183.571,187.321,191.071,194.401,196.066,198.564,202.314,206.064,208.516,213.098,216.848,220.598,222.263,224.348,228.098,230.57,234.739,238.489,240.987,244.317,248.067,251.817,255.567,257.652,260.106,263.436,266.766,270.096,271.761,275.091,278.421" y="174.452" svg_rhmargin="281.751" style="fill:#171615;font-family:IFHMMK+AdvOTb4959fff;font-size:7.5px;font-style:NORMAL;font-weight:normal;">. Environ Health Perspect 122:631</text>
  <text x="281.651" y="174.452" svg_rhmargin="285.401" style="fill:#171615;font-family:IFHMMM+AdvOTb4959fff+20;font-size:7.5px;font-style:NORMAL;font-weight:normal;">–</text>
  <text x="285.392,288.722,292.052,295.382" y="174.452" svg_rhmargin="297.047" style="fill:#171615;font-family:IFHMMK+AdvOTb4959fff;font-size:7.5px;font-style:NORMAL;font-weight:normal;">638,</text>
  <text x="59.981,63.731,65.816,67.901,71.651,74.981,76.646,78.731,80.816,84.566,88.316,89.858,91.523,95.273,97.77,101.52,103.605,106.809,110.139,111.804,115.134,118.464,121.794,125.124,127.209,130.959,134.588,138.338,140.003,143.333,146.663,149.993,153.323,156.528,159.858,163.276" y="183.466" svg_rhmargin="164.941" style="fill:#0000ff;font-family:IFHMMK+AdvOTb4959fff;font-size:7.5px;font-style:NORMAL;font-weight:normal;">https://doi.org/10.1289/ehp.1307799.</text>
  <text x="48.019,52.601,56.351,60.101,63.851,67.601,70.186,75.188,79.77,81.435,84.075,88.245,90.33,92.828,97.41,101.16,104.91,108.66,111.288,114.618,116.283,118.942,123.524,127.274,129.772,133.101,136.851,139.349,141.902,143.987,148.157,149.822,152.503,157.085,159.583,163.333,166.25,170.0,173.75,177.5,180.055,184.225,185.89,188.56,193.142,194.807,198.557,201.054,204.804,208.134,210.632,214.802,218.436,222.186,223.851,225.516,229.266,231.872,238.12,239.785,242.473,246.643,250.393,254.143,256.641,259.138,262.769,266.519,269.231,273.814,277.144,278.809,281.42,285.17,287.255,289.924,293.674,295.339" y="192.48000000000002" svg_rhmargin="297.004" style="fill:#171615;font-family:IFHMMK+AdvOTb4959fff;font-size:7.5px;font-style:NORMAL;font-weight:normal;">Ogden NH, St-Onge L, Barker IK, Brazeau S, Bigras-Poulin M, Charron DF, et al.</text>
  <text x="59.981,63.311,66.641,69.971,73.301,74.96600000000001,76.989,81.159,82.824,86.154,89.484,91.502,96.917,100.667,104.417,107.747,109.814,111.899,115.648,118.146,120.188,122.686,126.436,130.186,133.935,137.685,139.69,143.44,146.77,150.52,154.27,158.02,161.233,162.898,166.648,170.398,172.458,176.208,178.293,180.338,182.423,186.173,189.923,192.017,195.347,198.677,204.092,207.842,209.875,213.625,215.29,218.62,222.37,226.12,229.321,233.071,235.16,238.49,242.24,245.99,248.075,251.825,254.208,255.873,257.95,260.035,263.365,267.115,270.865,274.615,277.945,279.947,283.277,287.026,290.776,294.526" y="201.49400000000003" svg_rhmargin="297.023" style="fill:#171615;font-family:IFHMMK+AdvOTb4959fff;font-size:7.5px;font-style:NORMAL;font-weight:normal;">2008. Risk maps for range expansion of the Lyme disease vector, Ixodes scap-</text>
  <text x="59.981,63.731,65.396,69.146,71.644,73.309,76.639,78.304,80.22,81.885,85.635,87.647,91.817,95.567,99.317,103.067,106.817,110.567,112.478,116.228,119.978,125.393,127.388,131.138,134.888,138.638,140.598,146.013,147.678,149.763,153.513,155.507,159.257,160.922,162.587,168.002,171.752,173.837,177.587,179.488,183.238,186.988,190.738,194.488,198.238,201.988,203.653,205.567,207.652,211.402,213.487,215.488,219.238,221.214,225.797,229.547,233.296,234.961,237.046,240.796,242.757,247.339,251.089,254.839,258.589,261.087,263.052,266.382,268.047,271.377,274.707,276.372,278.303,282.473,288.72,290.805,295.387" y="210.452" svg_rhmargin="297.052" style="fill:#171615;font-family:IFHMMK+AdvOTb4959fff;font-size:7.5px;font-style:NORMAL;font-weight:normal;">ularis, in Canada now and with climate change. Int J Health Geogr 7:24. PMID:</text>
  <text x="59.981,63.311,66.641,69.971,73.301,76.631,79.961,83.291,86.627,88.292,90.142,93.892,95.977,98.062,101.812,105.142,106.807,108.892,110.835,114.585,118.335,120.0,121.665,125.415,127.912,131.662,133.625,136.955,140.285,141.95,145.28,148.61,151.94,155.27,157.355,160.554,163.884,167.214,170.544,173.041,176.371,179.701,183.031,187.086,189.583,192.913,195.411,198.741,202.054" y="219.466" svg_rhmargin="203.719" style="fill:#0000ff;font-family:IFHMMK+AdvOTb4959fff;font-size:7.5px;font-style:NORMAL;font-weight:normal;">18498647, https://doi.org/10.1186/1476-072X-7-24.</text>
  <text x="48.02,52.19,56.58,61.162,65.197,66.86200000000001,68.769,72.099,75.289,78.618,81.808,83.47300000000001,85.38,88.71,91.899,97.314,101.064,102.841,106.591,108.113,111.443,115.193,118.714,122.044,125.794,127.672,131.3,135.05,138.8,140.654,144.404,146.323,150.073,153.693,156.191,158.059,160.144,161.687,165.437,168.604,171.101,174.727,178.477,180.793,184.543,188.293,190.147,193.897,195.42,198.75,202.336,206.086,209.253,213.002,216.169,217.834,219.74,221.405,225.013,227.098,230.848,233.119,238.534,242.134,244.219,245.762,249.512,253.262,255.06,257.145,260.895,263.393,265.151,268.901,272.521,276.271,277.793,279.878,283.462,287.212,290.833,293.214" y="228.48000000000002" svg_rhmargin="296.964" style="fill:#171615;font-family:IFHMMK+AdvOTb4959fff;font-size:7.5px;font-style:NORMAL;font-weight:normal;">PHAC. 2015. Lyme disease and other tick-borne diseases: information for healthcare</text>
  <text x="59.982,63.732,66.105,69.855,71.774,75.524,78.69,82.02,83.566,87.316,90.936,94.565,96.23,99.44,101.105,103.919,107.669,109.588,111.673,115.257,118.587,120.133,122.218,124.158,129.573,134.816,140.231,141.732,145.482,149.103,152.852,156.473,158.97,162.539,165.869,169.619,173.14,174.805,178.412,182.162,183.685,187.435,191.055,193.14,194.626,198.376,200.749,206.164,207.666,209.751,211.691,213.356,216.963,220.293,221.782,225.532,227.617,231.136,233.633,237.259,241.009,244.629,246.294,249.901,253.53,257.28,260.221,262.306,265.89,269.64,273.26,276.889,280.219,283.408,287.158,290.908,293.67" y="237.495" svg_rhmargin="297.0" style="fill:#171615;font-family:IFHMMK+AdvOTb4959fff;font-size:7.5px;font-style:NORMAL;font-weight:normal;">professionals. https://www.phac-aspc.gc.ca/id-mi/tickinfo-eng.php [accessed 4</text>
  <text x="59.982,64.152,67.749,71.499,73.584,77.103,82.518,86.268,89.802,92.30000000000001,94.111,97.441,100.631,103.961,107.15,109.235" y="246.452" svg_rhmargin="110.9" style="fill:#171615;font-family:IFHMMK+AdvOTb4959fff;font-size:7.5px;font-style:NORMAL;font-weight:normal;">September 2015].</text>
  <text x="48.02,52.19,54.687,58.437,61.767,63.852,67.602,71.352,77.273,81.855,85.185,86.85000000000001,92.92,97.502,101.252,106.667,112.705,116.875,118.54,124.555,129.137,132.887,135.384,138.714,142.464,146.214,149.839,151.924,158.003,161.333,162.998,169.058,172.387,175.717,179.047,182.377,184.042,190.034,193.784,197.534,201.284,207.269,211.019,212.684,214.349,219.764,223.514,225.599,229.349,235.331,239.081,242.831,246.581,250.331,252.416,256.166,258.251,259.916,263.666,267.416,273.371,275.456,277.954,281.704,285.454,287.539,289.075,292.825,295.323" y="255.46699999999998" svg_rhmargin="296.988" style="fill:#171615;font-family:IFHMMK+AdvOTb4959fff;font-size:7.5px;font-style:NORMAL;font-weight:normal;">Preston BL, Dow K, Berkhout F. 2013. The climate adaptation frontier.</text>
  <text x="59.982,64.152,67.902,71.232,73.317,77.067,78.732,82.482,86.117,89.867,91.532,93.197,94.862,96.947,100.277,102.104,105.434,107.099,110.429,113.759,117.089" y="264.481" svg_rhmargin="120.419" style="fill:#171615;font-family:IFHMMK+AdvOTb4959fff;font-size:7.5px;font-style:NORMAL;font-weight:normal;">Sustainability 5:1011</text>
  <text x="120.303" y="264.481" svg_rhmargin="124.053" style="fill:#171615;font-family:IFHMMM+AdvOTb4959fff+20;font-size:7.5px;font-style:NORMAL;font-weight:normal;">–</text>
  <text x="124.045,127.375,130.705,134.034,137.364,139.029,140.826,144.576,146.661,148.746,152.495,155.825,157.49,159.575,161.519,165.269,169.019,170.684,172.348,176.098,178.596,182.346,184.309,187.639,190.969,192.633,195.963,199.293,202.623,205.953,208.038,211.238,214.988,218.318,221.648,224.978,228.308,231.637,234.967,238.281" y="264.481" svg_rhmargin="239.946" style="fill:#171615;font-family:IFHMMK+AdvOTb4959fff;font-size:7.5px;font-style:NORMAL;font-weight:normal;">1035, https://doi.org/10.3390/su5031011.</text>
  <text x="48.02,52.19,53.855,57.604,61.354,63.019,64.801,68.971,70.63600000000001,72.454,76.624,80.374,84.124,85.947,90.117,91.78200000000001,93.601,97.771,100.268,104.018,107.348,109.192,113.362,115.027,116.845,121.015,124.765,128.515,130.339,134.508,136.173,137.992,142.162,145.912,147.577,150.074,153.404,157.154,160.484,162.257,166.427,168.09199999999998,169.91,173.24,174.905,178.235,181.985,185.735,189.485,191.983,193.778,198.36,200.025,201.828,205.578,207.663,209.482,213.232,214.897,216.56199999999998,218.383,221.713,225.043,228.373,231.703,233.368,235.164,239.334,243.504,247.67399999999998,249.507,252.837,254.502" y="273.495" svg_rhmargin="257.832" style="fill:#171615;font-family:IFHMMK+AdvOTb4959fff;font-size:7.5px;font-style:NORMAL;font-weight:normal;">Riahi K, Rao S, Krey V, Cho C, Chirkov V, Fischer G, et al. 2011. RCP 8.5</text>
  <text x="257.784" y="273.495" svg_rhmargin="265.284" style="fill:#171615;font-family:IFHMMM+AdvOTb4959fff+20;font-size:7.5px;font-style:NORMAL;font-weight:normal;">—</text>
  <text x="265.267,269.017,270.88,274.21,277.96,281.71,285.46,289.21,291.707,293.372" y="273.495" svg_rhmargin="297.122" style="fill:#171615;font-family:IFHMMK+AdvOTb4959fff;font-size:7.5px;font-style:NORMAL;font-weight:normal;">a scenario</text>
  <text x="59.982,63.732,65.817,69.847,73.597,77.346,82.761,86.511,90.142,92.64,96.389,98.474,100.139,103.469,107.219,108.884,112.214,116.107,119.857,121.522,125.272,129.022,133.002,136.752,139.249,142.999,146.749,150.499,154.249,157.999,161.631,164.961,168.711,172.686,176.436,180.186,183.51600000000002,187.483,191.232,196.647,198.312,201.642,204.972,206.637,210.272,214.022,217.352,219.017,223.028,227.198,228.863,230.528,235.94299999999998,239.866,244.036,247.786,251.536,255.286,259.036,262.786,266.738,270.068,273.398,276.728,278.393,281.723" y="282.452" svg_rhmargin="285.053" style="fill:#171615;font-family:IFHMMK+AdvOTb4959fff;font-size:7.5px;font-style:NORMAL;font-weight:normal;">of comparatively high greenhouse gas emissions. Clim Change 109:33</text>
  <text x="284.939" y="282.452" svg_rhmargin="288.689" style="fill:#171615;font-family:IFHMMM+AdvOTb4959fff+20;font-size:7.5px;font-style:NORMAL;font-weight:normal;">–</text>
  <text x="288.681,292.011,295.341" y="282.452" svg_rhmargin="297.006" style="fill:#171615;font-family:IFHMMK+AdvOTb4959fff;font-size:7.5px;font-style:NORMAL;font-weight:normal;">57,</text>
  <text x="59.982,63.732,65.817,67.902,71.652,74.982,76.647,78.732,80.817,84.567,88.317,89.859,91.524,95.273,97.771,101.521,103.606,106.81,110.14,111.805,115.135,118.465,121.795,125.125,127.21,130.539,133.739,137.069,140.399,143.729,147.059,149.556,152.886,156.216,159.421,161.918,165.248,168.578,171.908,175.238,177.736,181.078" y="291.466" svg_rhmargin="182.743" style="fill:#0000ff;font-family:IFHMMK+AdvOTb4959fff;font-size:7.5px;font-style:NORMAL;font-weight:normal;">https://doi.org/10.1007/s10584-011-0149-y.</text>
  <text x="48.02,52.19,55.939,59.689,63.439,65.104,67.068,69.985,72.454,78.701,83.283,84.94800000000001,87.363,91.946,95.696,97.361,99.02600000000001,101.423,106.006,107.671,110.097,114.679,118.429,122.179,123.844,126.762,130.512,135.927,139.677,143.427,147.177,149.498,153.248,156.998,158.66299999999998,161.12,165.29,169.04,172.79,176.12,179.45,183.2,185.555,190.137,191.802,194.229,197.979,201.729,205.479,209.228,210.893,214.643,217.973,221.723,224.049,228.219,229.884,232.326,236.908,240.658,242.323,246.073,249.823,255.238,260.653,264.403,266.901,269.233,272.983,277.565,279.23,281.648,285.398,287.483,289.925,293.675,295.34" y="300.48" svg_rhmargin="297.005" style="fill:#171615;font-family:IFHMMK+AdvOTb4959fff;font-size:7.5px;font-style:NORMAL;font-weight:normal;">Schultz MG, Heil A, Hoelzemann JJ, Spessa A, Thonicke K, Goldammer JG, et al.</text>
  <text x="59.982,63.312,66.642,69.972,73.302,74.96700000000001,78.237,82.819,84.484,88.234,91.984,95.734,97.399,100.687,106.102,107.767,109.432,113.182,114.847,118.597,122.23,125.98,129.316,131.401,133.066,135.564,139.314,142.582,146.332,151.747,153.412,156.742,160.072,161.737,165.372,169.122,172.45200000000003,175.747,177.832,180.329,184.079,189.494,192.811,196.141,199.471,202.801,206.131,209.422,211.507,215.257,218.549,221.879,225.209,228.539,231.869,233.534,236.804,241.387,243.052,246.801,250.551,254.301,255.96599999999998,259.197,263.78,265.445,269.195,272.945,276.695,280.444,284.194,287.827,291.577" y="309.494" svg_rhmargin="296.992" style="fill:#171615;font-family:IFHMMK+AdvOTb4959fff;font-size:7.5px;font-style:NORMAL;font-weight:normal;">2008. Global wildland fire emissions from 1960 to 2000. Global Biogeochem</text>
  <text x="59.982,64.152,67.482,71.232,72.897,76.647,79.977,81.808,85.138,88.468,90.553,93.883,95.968,97.63300000000001,99.383,103.133,105.218,107.303,111.053,114.383,116.048,118.133,120.218,123.818,127.568,129.233,130.898,134.648,137.145,140.895,142.98,146.31,149.64,151.305,154.489,157.819,161.149,164.479,166.564,169.894,173.224,176.554,179.884,184.466,188.901,192.231,195.561,198.891,202.221,205.551,208.857" y="318.452" svg_rhmargin="210.522" style="fill:#171615;font-family:IFHMMK+AdvOTb4959fff;font-size:7.5px;font-style:NORMAL;font-weight:normal;">Cycles 22(2), https://doi.org/10.1029/2007GB003031.</text>
  <text x="48.02,52.19,55.939,61.354,65.104,68.854,72.604,75.934,77.727,83.974,88.557,90.22200000000001,92.126,96.296,98.381,100.879,104.629,106.714,110.464,114.214,117.964,121.153,122.818,124.903,128.652,132.402,134.305,138.475,140.14,142.015,145.345,148.675,152.005,155.335,157.0,158.909,163.492,166.822,170.572,172.459,176.209,178.294,180.169,185.583,189.333,190.998,193.083,194.748,197.246,202.661,206.411,210.045,213.795,215.45999999999998,217.358,221.108,224.858,228.188,231.938,237.353,241.103,242.643,246.393,249.723,251.657,253.742,256.239,259.989,265.404,267.248,270.998,272.663,276.413,280.162,283.912,285.577,287.43,291.18,292.845,294.51" y="327.466" svg_rhmargin="297.007" style="fill:#171615;font-family:IFHMMK+AdvOTb4959fff;font-size:7.5px;font-style:NORMAL;font-weight:normal;">Semenov MA, Stratonovitch P. 2010. Use of multi-model ensembles from global cli-</text>
  <text x="59.982,65.397,69.147,71.232,74.982,79.314,84.729,88.479,92.229,95.979,97.644,100.974,105.28,107.365,111.115,113.613,117.922,121.672,125.002,128.332,132.082,135.412,138.615,144.03,147.78,151.53,153.615,157.947,161.697,163.782,168.151,171.901,173.566,175.231,180.646,184.396,186.35,190.1,194.457,198.207,201.957,205.707,209.457,213.207,216.957,221.273,222.938,228.352,232.102,235.852,239.602,241.568,244.898,246.563,250.923,255.093,256.758,258.423,263.838,268.157,272.327,276.077,279.407,283.748,287.078,290.408,292.073,295.403" y="336.48" svg_rhmargin="297.068" style="fill:#171615;font-family:IFHMMK+AdvOTb4959fff;font-size:7.5px;font-style:NORMAL;font-weight:normal;">mate models for assessment of climate change impacts. Clim Res 41:1,</text>
  <text x="59.982,63.732,65.817,67.902,71.652,74.982,76.647,78.732,80.817,84.567,88.317,89.859,91.523,95.273,97.771,101.521,103.606,106.81,110.14,111.805,115.135,118.465,121.795,125.125,127.21,130.959,133.341,136.671,140.001,143.331,146.661,150.01" y="345.494" svg_rhmargin="151.675" style="fill:#0000ff;font-family:IFHMMK+AdvOTb4959fff;font-size:7.5px;font-style:NORMAL;font-weight:normal;">https://doi.org/10.3354/cr00836.</text>
  <text x="48.02,52.19,54.275,58.024,60.109,62.079,65.829,68.326,72.076,74.778,78.948,83.118,84.783,87.477,90.807,93.304,97.054,98.71900000000001,101.423,105.593,109.343,111.84,113.925,116.01,119.76,122.25800000000001,124.894,131.141,134.471,136.136,138.84,145.087,148.837,152.587,156.337,160.087,162.584,166.334,167.866,169.531,171.196,173.932,177.262,181.844,183.509,186.234,189.984,192.481,194.566,198.316,199.981,202.618,206.788,211.37,213.035,215.771,222.018,225.348,229.098,232.848,235.346,237.994,242.164,246.747,248.412,251.09,254.42,257.75,261.08,264.41,266.07500000000005,268.778,272.528,276.278,281.692,285.442,289.192,291.568,295.318" y="354.451" svg_rhmargin="296.983" style="fill:#171615;font-family:IFHMMK+AdvOTb4959fff;font-size:7.5px;font-style:NORMAL;font-weight:normal;">Stafford KC, 3rd, Cartter ML, Magnarelli LA, Ertel SH, Mshar PA. 1998. Temporal</text>
  <text x="59.982,63.732,67.482,69.979,72.477,76.227,77.892,81.642,83.727,85.266,89.016,92.766,96.096,99.212,102.962,106.712,108.797,114.212,117.962,121.712,125.462,128.522,130.607,132.272,136.022,139.352,142.412,146.162,149.912,153.662,157.412,161.162,164.912,168.661,172.288,176.038,179.205,182.955,186.705,190.455,193.548,197.298,199.796,203.546,206.876,210.626,212.291,216.041,219.791,223.425,227.175,230.285,234.035,236.12,239.242,241.327,242.992,246.742,250.072,253.40200000000002,256.477,258.142,261.892,263.977,267.727,271.477,273.562,277.312,281.062,284.143,289.558,291.223,293.308" y="363.465" svg_rhmargin="297.058" style="fill:#171615;font-family:IFHMMK+AdvOTb4959fff;font-size:7.5px;font-style:NORMAL;font-weight:normal;">correlations between tick abundance and prevalence of ticks infected with</text>
  <text x="59.982,64.564,68.314,70.812,73.309,77.059,78.724,80.389,84.139,89.122,92.872,96.622,99.119,102.869,106.619,110.369,112.867,114.952,118.702,121.04,122.70500000000001,127.786,131.536,135.286,139.036,144.114,145.779,149.528,153.278,155.776,159.526,163.162,166.492,168.157,171.907,175.657,180.68,182.345,186.095,189.845,191.51,195.26,199.01,202.76,206.51,210.26,215.262,219.012,221.097,226.147,229.477,232.807,238.222,241.972,247.009,250.759,252.424,255.754,259.504,263.254,266.455,270.205,271.87,276.943,280.693,285.787,289.957,291.622,293.287" y="372.479" svg_rhmargin="297.037" style="fill:#171615;font-family:IFHMMK+AdvOTb4959fff;font-size:7.5px;font-style:NORMAL;font-weight:normal;">Borrelia burgdorferi and increasing incidence of Lyme disease. J Clin</text>
  <text x="59.982,66.229,67.894,71.644,74.142,77.892,81.642,83.307,87.057,88.72200000000001,90.483,93.812,97.142,99.227,102.557,104.642,106.307,109.637,112.967,116.164" y="381.493" svg_rhmargin="119.494" style="fill:#171615;font-family:IFHMMK+AdvOTb4959fff;font-size:7.5px;font-style:NORMAL;font-weight:normal;">Microbiol 36(5):1240</text>
  <text x="119.453" y="381.493" svg_rhmargin="123.203" style="fill:#171615;font-family:IFHMMM+AdvOTb4959fff+20;font-size:7.5px;font-style:NORMAL;font-weight:normal;">–</text>
  <text svg_rhmargin="138.18" x="123.195,126.525,129.855,133.185,136.515,138.17999999999998" y="66.45100000000002" style="fill:#171615;font-family:IFHMMK+AdvOTb4959fff;font-size:7.5px;font-style:NORMAL;font-weight:normal;">1244. </text>
  <text x="314.987,318.44,321.894,324.928,326.297,329.75,332.248,333.776,337.687,341.141,342.80600000000004,344.316,348.19,349.978,353.432,356.833,358.622,360.411,363.864,366.36199999999997,367.89,371.763,375.164,376.829,378.396,384.349,387.803,391.204,394.658,396.32300000000004,397.889,402.141,406.45,408.115,409.624,412.686,415.72,418.753,421.787,423.452,424.962,429.27,433.02,434.543,438.001,441.035,444.473,446.672,449.704,451.07,454.522,459.937,461.495,464.953,467.03799999999995,468.525,472.437,478.386,480.172,484.043,487.373,488.919,492.371,495.822,499.572,501.094,502.881,506.332,510.082,511.605,515.063,518.094,521.546,524.948,527.159,528.525,533.642,537.043,540.501,542.586,544.13,547.581,551.033,554.064,555.431,558.882,562.334" y="66.45100000000002" svg_rhmargin="563.999" style="fill:#171615;font-family:IFHMMK+AdvOTb4959fff;font-size:7.5px;font-style:NORMAL;font-weight:normal;">Taylor KE, Stouffer RJ, Meehl GA. 2012. An overview of CMIP5 and the experiment design.</text>
  <text x="327.005,331.257,334.715,336.083,337.74800000000005,339.371,343.623,348.725,352.178,354.676,356.26,362.211,365.663,367.451,370.904,374.357,376.855,378.44,382.312,385.765,389.515,391.095,394.099,397.132,398.5,401.533,404.566" y="75.46500000000003" svg_rhmargin="407.896" style="fill:#171615;font-family:IFHMMK+AdvOTb4959fff;font-size:7.5px;font-style:NORMAL;font-weight:normal;">Bull Amer Meteor Soc 93:485</text>
  <text x="407.566" y="75.46500000000003" svg_rhmargin="411.316" style="fill:#171615;font-family:IFHMMM+AdvOTb4959fff+20;font-size:7.5px;font-style:NORMAL;font-weight:normal;">–</text>
  <text x="411.024,414.029,417.09,420.095,421.76000000000005,423.327,426.759,428.574,430.341,433.774,436.835,438.196,439.964,441.778,445.211,448.643,449.991,451.408,454.841,457.052,460.485,462.253,465.314,468.318,469.666,472.728,475.74,478.802,481.814,483.629,487.894,492.203,498.133,501.985,504.196,508.448,510.659,513.664,516.725,518.936,521.949,525.01,528.023,531.036,534.097,535.445,538.583" y="75.46500000000003" svg_rhmargin="540.248" style="fill:#171615;font-family:IFHMMK+AdvOTb4959fff;font-size:7.5px;font-style:NORMAL;font-weight:normal;">498, https://doi.org/10.1175/BAMS-D-11-00094.1.</text>
  <text x="314.987,318.737,322.487,326.237,331.651,334.981,338.731,342.481,344.353,348.936,355.183,356.848,358.753,362.923,366.673,368.338,371.668,373.333,377.083,378.935,383.105,387.275,388.94,390.898,395.068,400.483,402.148,404.232,407.982,409.833,414.003,417.753,419.418,421.341,425.511,428.841,430.506,434.256,436.195,440.777,444.947,446.612,448.497,452.667,456.417,458.082,461.412,465.162,467.035,471.618,473.283,475.256,479.426,483.176,485.261,489.011,490.67600000000004,492.547,496.717,498.382,500.314,504.064,506.149,508.081,511.83,513.495,515.16,517.038,520.368,523.698,527.027,530.357,532.0219999999999,533.932,538.102,542.272,546.442,549.772,551.437,553.321,556.651,558.3159999999999,560.237" y="84.47900000000004" svg_rhmargin="563.987" style="fill:#171615;font-family:IFHMMK+AdvOTb4959fff;font-size:7.5px;font-style:NORMAL;font-weight:normal;">Thomson AM, Calvin KV, Smith SJ, Kyle GP, Volke A, Patel P, et al. 2011. RCP4. 5: a</text>
  <text x="327.005,330.755,334.505,336.59,340.34,345.755,349.505,352.835,355.351,357.436,361.186,363.68399999999997,366.293,369.623,371.708,375.458,379.208,380.872,382.537,384.202,386.986,390.736,392.821,394.486,398.235,401.985,404.56,408.31,410.395,413.007,415.505,419.255,423.005,424.67,428.419,430.504,432.055,435.385,439.135,441.75,443.835,447.585,450.082,453.832,455.497,459.247,462.997,465.504,469.254,472.584,475.199,478.528,481.858,485.188,488.518,490.183,492.773,496.943,498.608,500.273,505.68800000000005,508.25,512.42,516.17,519.92,523.67,527.419,531.169,533.704,537.034,540.364,543.694,545.359,548.689" y="93.49400000000003" svg_rhmargin="552.019" style="fill:#171615;font-family:IFHMMK+AdvOTb4959fff;font-size:7.5px;font-style:NORMAL;font-weight:normal;">pathway for stabilization of radiative forcing by 2100. Clim Change 109:77</text>
  <text x="551.963" y="93.49400000000003" svg_rhmargin="555.713" style="fill:#171615;font-family:IFHMMM+AdvOTb4959fff+20;font-size:7.5px;font-style:NORMAL;font-weight:normal;">–</text>
  <text x="555.704,559.034,562.364" y="93.49400000000003" svg_rhmargin="564.029" style="fill:#171615;font-family:IFHMMK+AdvOTb4959fff;font-size:7.5px;font-style:NORMAL;font-weight:normal;">94,</text>
  <text x="327.005,330.755,332.84,334.925,338.675,342.005,343.67,345.755,347.698,351.448,355.198,356.863,358.528,362.278,364.775,368.525,370.488,373.818,377.148,378.813,382.143,385.473,388.803,392.133,394.218,397.417,400.747,404.077,407.407,410.737,414.067,416.564,419.894,423.099,426.429,428.927,432.257,435.586,438.916,442.246,444.744,448.045" y="102.452" svg_rhmargin="449.71" style="fill:#0000ff;font-family:IFHMMK+AdvOTb4959fff;font-size:7.5px;font-style:NORMAL;font-weight:normal;">https://doi.org/10.1007/s10584-011-0151-4.</text>
  <text x="314.987,318.317,322.067,325.817,327.686,331.435,335.185,337.683,339.591,346.258,350.008,352.506,354.59099999999995,356.428,361.011,365.18,366.845,368.73,372.9,376.65,380.4,384.15,387.9,390.397,393.727,397.477,401.227,403.086,406.836,410.586,412.25100000000003,414.141,418.723,420.388,424.138,425.803,427.468,431.218,433.076,436.405,438.07,439.935,444.105,447.855,449.52,451.185,454.935,457.02,459.93699999999995,461.761,466.344,470.093,471.75800000000004,473.666,477.836,481.586,484.916,486.581,490.331,494.081,497.831,499.916,501.581,505.331,507.171,511.341,515.511,517.1759999999999,519.02,523.602,526.1,529.85,531.515,533.18,536.93,540.679,544.429,546.289,550.871,554.201,556.096,559.846,562.344" y="111.46600000000001" svg_rhmargin="564.009" style="fill:#171615;font-family:IFHMMK+AdvOTb4959fff;font-size:7.5px;font-style:NORMAL;font-weight:normal;">van der Werf GR, Randerson JT, Giglio L, Collatz GJ, Kasibhatla PS, Arellano AF Jr.</text>
  <text x="327.005,330.335,333.665,336.995,340.325,341.99,344.353,346.438,350.188,352.273,356.023,358.521,362.271,366.02,369.77,373.52,377.27,378.935,381.316,384.646,388.396,390.894,392.559,396.309,400.059,401.724,403.389,405.054,407.139,410.469,412.781,414.446,418.196,420.605,424.355,426.02,429.77,433.519,437.269,438.934,441.298,445.048,446.712,450.462,455.877,459.627,462.957,466.287,468.68,472.43,476.18,478.677,482.427,484.092,487.842,491.592,493.965,497.715,503.13,504.795,508.125,511.454,513.119,516.869,520.619,523.9490000000001,526.279,528.364,530.862,534.612,540.0269999999999,542.436,545.766,549.096,552.426,555.7560000000001,558.141,560.225" y="120.48000000000002" svg_rhmargin="563.975" style="fill:#171615;font-family:IFHMMK+AdvOTb4959fff;font-size:7.5px;font-style:NORMAL;font-weight:normal;">2006. Interannual variability in global biomass burning emissions from 1997 to</text>
  <text x="327.005,330.335,333.665,336.995,340.325,341.99,343.843,348.425,350.51,355.925,359.675,363.005,364.819,368.989,372.739,376.489,381.904,383.754,387.924,391.674,395.004,398.334,400.194,403.524,405.189,408.519,411.849,415.179" y="129.49400000000003" svg_rhmargin="418.509" style="fill:#171615;font-family:IFHMMK+AdvOTb4959fff;font-size:7.5px;font-style:NORMAL;font-weight:normal;">2004. Atmos Chem Phys 6:3423</text>
  <text x="418.451" y="129.49400000000003" svg_rhmargin="422.201" style="fill:#171615;font-family:IFHMMM+AdvOTb4959fff+20;font-size:7.5px;font-style:NORMAL;font-weight:normal;">–</text>
  <text x="422.193,425.522,428.852,432.182,435.512,437.177,439.031,442.78,444.865,446.95,450.7,454.03,455.695,457.78,459.865,463.615,467.365,468.907,470.572,474.322,476.819,480.569,482.654,485.984,489.314,490.979,494.309,497.639,500.969,504.299,506.384,510.134,513.884,517.634,520.131,523.331,525.829,529.159,532.489,535.819,539.149,541.646,544.976,548.306,551.636,554.968" y="129.49400000000003" svg_rhmargin="556.633" style="fill:#171615;font-family:IFHMMK+AdvOTb4959fff;font-size:7.5px;font-style:NORMAL;font-weight:normal;">3441, https://doi.org/10.5194/acp-6-3423-2006.</text>
  <text x="314.987,319.157,322.907,326.657,329.613,333.783,337.533,341.283,343.78,347.53,351.28,354.217,358.799,362.969,364.634,367.54,371.29,375.04,380.455,384.205,387.955,391.704,395.034,397.927,401.677,403.34200000000004,406.317,410.487,414.237,415.902,419.652,423.402,428.817,432.567,435.457,441.705,443.37,446.343,450.513,452.178,455.928,459.678,461.343,464.258,468.428,470.093,473.102,476.852,480.602,484.351,489.766,493.096,496.846,500.596,503.489,508.071,509.73600000000005,512.673,517.256,518.921,522.671,526.421,530.171,532.668,536.418,539.319,543.489,545.154,548.106,551.856,553.941,556.95,560.7,562.365" y="138.452" svg_rhmargin="564.03" style="fill:#171615;font-family:IFHMMK+AdvOTb4959fff;font-size:7.5px;font-style:NORMAL;font-weight:normal;">Van Vuuren DP, Edmonds J, Kainuma M, Riahi K, Thomson A, Hibbard K, et al.</text>
  <text x="327.005,330.335,333.665,336.995,340.325,341.99,344.75,348.5,352.25,356.0,358.753,361.25,365.0,368.75,371.248,374.998,378.328,382.078,385.828,387.779,391.529,393.614,395.279,398.609,402.359,405.127,408.877,412.627,416.377,420.127,423.877,427.627,429.712,432.056,435.806,437.891,439.556,443.306,447.056,449.801,453.551,457.301,459.386,463.136,468.551,472.301,475.63,478.96,480.625,483.363,487.113,490.863,493.624,497.374,500.704,504.454,506.952,510.281,511.946,515.696,521.111,522.776,525.485,529.655,531.32,532.985,538.4,541.132,545.302,549.052,552.802,556.552,560.302" y="147.466" svg_rhmargin="564.052" style="fill:#171615;font-family:IFHMMK+AdvOTb4959fff;font-size:7.5px;font-style:NORMAL;font-weight:normal;">2011. The representative concentration pathways: an overview. Clim Change</text>
  <text x="327.005,330.335,333.665,336.995,338.66" y="156.48000000000002" svg_rhmargin="341.99" style="fill:#171615;font-family:IFHMMK+AdvOTb4959fff;font-size:7.5px;font-style:NORMAL;font-weight:normal;">109:5</text>
  <text x="341.916" y="156.48000000000002" svg_rhmargin="345.666" style="fill:#171615;font-family:IFHMMM+AdvOTb4959fff+20;font-size:7.5px;font-style:NORMAL;font-weight:normal;">–</text>
  <text x="345.658,348.987,352.317,353.982,355.806,359.556,361.641,363.725,367.475,370.805,372.47,374.555,376.499,380.248,383.998,385.663,387.328,391.078,393.576,397.326,399.288,402.618,405.948,407.613,410.943,414.273,417.603,420.933,423.018,426.218,429.547,432.877,436.207,439.537,442.867,445.365,448.695,451.899,455.229,457.727,461.057,464.387,467.717,471.047,473.544,476.448" y="156.48000000000002" svg_rhmargin="478.113" style="fill:#171615;font-family:IFHMMK+AdvOTb4959fff;font-size:7.5px;font-style:NORMAL;font-weight:normal;">31, https://doi.org/10.1007/s10584-011-0148-z.</text>
  <text x="314.987,321.654,325.404,329.154,332.904,335.906,339.656,341.321,344.296,348.046,351.376,355.126,358.876,362.626,365.556,372.224,378.891,380.55600000000004,383.527,389.775,393.525,396.022,399.352,403.102,406.852,408.517,410.059,413.809,416.805,421.388,423.053,426.046,429.376,432.706,436.036,439.366,441.031,444.017,447.767,451.097,454.847,456.512,460.262,464.012,465.957,467.622,471.372,475.122,478.089,482.259,486.009,487.674,493.089,496.839,500.589,504.339,506.718,510.468,513.798,515.673,519.003,521.969,525.719,527.384,530.714,532.798,535.296,536.961,540.711,544.461,546.546,548.211,551.845,555.595,557.26,560.236" y="165.49400000000003" svg_rhmargin="563.986" style="fill:#171615;font-family:IFHMMK+AdvOTb4959fff;font-size:7.5px;font-style:NORMAL;font-weight:normal;">Wang J, Tsang WW, Marsaglia G. 2003. Evaluating Kolmogorov's distribution. J</text>
  <text x="327.005,331.175,333.26,337.01,339.09499999999997,340.895,345.065,348.815,350.9,352.98499999999996,356.712,360.042,361.707,363.372,365.159,368.909,370.994,373.079,376.829,380.159,381.824,383.909,385.994,389.744,393.336,395.001,396.666,400.416,402.913,406.663,408.748,412.078,415.408,417.073,420.264,423.594,426.924,430.254,433.584,435.669,437.334,440.664,443.994,445.659,448.837,452.167,455.497,458.827,460.492,462.157,465.487,468.794" y="174.452" svg_rhmargin="470.459" style="fill:#171615;font-family:IFHMMK+AdvOTb4959fff;font-size:7.5px;font-style:NORMAL;font-weight:normal;">Stat Soft 8:, https://doi.org/10.18637/jss.v008.i18.</text>
  <text x="314.986,321.653,325.403,327.488,331.238,334.988,338.738,342.488,346.238,349.454,355.702,357.367,360.68,364.849,368.599,371.517,375.267,378.597,380.262,383.469,387.219,388.884,392.2" y="183.46500000000003" svg_rhmargin="396.782" style="fill:#171615;font-family:IFHMMK+AdvOTb4959fff;font-size:7.5px;font-style:NORMAL;font-weight:normal;">Watanabe M, Suzuki T, O</text>
  <text x="396.794" y="183.46500000000003" svg_rhmargin="398.459" style="fill:#171615;font-family:IFHMMM+AdvOTb4959fff+20;font-size:7.5px;font-style:NORMAL;font-weight:normal;">’</text>
  <text x="398.438,400.103,403.433,407.183,408.848,412.1,416.27,417.935,421.228,425.398,429.148,434.563,438.313,440.81,444.56,447.816,451.566,453.231,456.49,463.157,466.907,468.992,472.742,476.492,480.242,483.992,487.742,490.959,495.129,496.79400000000004,500.086,503.836,509.251,513.001,515.498,517.163,520.439,524.608,526.2729999999999,529.566,533.316,535.4010000000001,538.693,542.443,544.108,545.7729999999999,549.068,552.398,555.728,559.058,562.388" y="183.46500000000003" svg_rhmargin="564.053" style="fill:#171615;font-family:IFHMMK+AdvOTb4959fff;font-size:7.5px;font-style:NORMAL;font-weight:normal;">ishi R, Komuro Y, Watanabe S, Emori S, et al. 2010.</text>
  <text x="327.005,329.09,334.505,338.255,340.752,344.502,347.832,351.582,355.332,357.732,361.482,363.147,364.812,370.227,373.977,376.062,379.812,382.223,385.553,387.218,392.633,396.383,398.048,401.669,403.754,405.419,409.169,412.919,415.388,419.138,422.46799999999996,424.969,431.217,433.302,437.472,442.054,446.224,449.554,451.219,453.599,459.014,462.764,466.513,470.263,472.704,476.034,478.119,481.869,483.954,487.704,491.034,492.699,495.154,498.484,502.234,504.731,506.396,510.146,513.896,515.561,517.094,518.759,520.844,524.174,525.8389999999999,528.262,532.012,535.762,539.512,541.982,545.732,547.397,549.062,554.477,558.227,560.312" y="192.47900000000004" svg_rhmargin="564.062" style="fill:#171615;font-family:IFHMMK+AdvOTb4959fff;font-size:7.5px;font-style:NORMAL;font-weight:normal;">Improved climate simulation by MIROC5: mean states, variability, and climate</text>
  <text x="327.005,330.335,334.085,337.835,341.165,342.83,344.915,346.451,349.781,351.446,353.531,356.861,358.526,360.341,364.091,365.953,370.123,371.788,373.453,378.868,382.618,384.703,388.453,392.088,395.418,398.748,400.413,403.743,407.073,410.403" y="201.49300000000005" svg_rhmargin="413.733" style="fill:#171615;font-family:IFHMMK+AdvOTb4959fff;font-size:7.5px;font-style:NORMAL;font-weight:normal;">sensitivity. J Climate 23:6312</text>
  <text x="413.632" y="201.49300000000005" svg_rhmargin="417.382" style="fill:#171615;font-family:IFHMMM+AdvOTb4959fff+20;font-size:7.5px;font-style:NORMAL;font-weight:normal;">–</text>
  <text x="417.374,420.704,424.033,427.363,430.693,432.358,434.155,437.905,439.99,442.074,445.824,449.154,450.819,452.904,454.989,458.589,462.339,464.004,465.669,469.419,471.917,475.666,477.751,481.081,484.411,486.076,489.259,492.589,495.919,499.249,501.334,504.664,507.994,511.324,514.654,518.285,522.455,525.785,527.87,531.2,534.53,537.86,541.075,542.74,546.123" y="201.49300000000005" svg_rhmargin="547.788" style="fill:#171615;font-family:IFHMMK+AdvOTb4959fff;font-size:7.5px;font-style:NORMAL;font-weight:normal;">6335, https://doi.org/10.1175/2010JCLI3679.1.</text>
  <text x="314.986,321.653,325.403,327.488,331.086,334.836,338.586,342.336,346.086,348.321,352.491,354.156,356.485,361.067,364.817,366.482,367.993,373.408,377.158,379.502,383.252,384.91700000000003,387.212,391.382,395.132,398.882,402.632,404.9,409.07,410.735,413.006,418.009,421.759,425.509,429.107,432.437,436.187,437.852,443.267,447.017,449.233,452.983,454.648,457.0,460.75,464.5,467.715,471.465,476.88,480.471,482.968,486.718,489.088,492.838,494.50300000000004,496.798,501.38,504.71,508.46,509.951,511.616,517.031,520.781,523.103,527.686,529.351,531.664,535.414,537.499,539.77,543.52,545.185,546.8499999999999,549.124,552.454,555.784,559.114,562.444" y="210.45100000000002" svg_rhmargin="564.109" style="fill:#171615;font-family:IFHMMK+AdvOTb4959fff;font-size:7.5px;font-style:NORMAL;font-weight:normal;">Watanabe S, Hajima T, Sudo K, Nagashima T, Takemura T, Okajima H, et al. 2011.</text>
  <text x="327.004,333.252,335.337,339.363,343.946,348.116,350.613,354.217,358.387,364.635,366.576,369.906,373.236,376.441,379.771,381.43600000000004,383.357,388.772,392.522,396.113,399.863,401.528,403.426,407.176,410.926,414.141,417.891,420.388,422.053,425.803,427.747,429.412,433.162,436.912,438.746,442.496,446.246,449.996,451.842,455.592,459.342,462.672,464.201,467.951,469.927,472.425,476.05,479.38,483.13,484.795,486.765,490.09499999999997,492.038,495.788,497.873,499.748,503.918,510.165,512.25,516.302,519.631,522.129,525.316,528.646,532.396,535.725,541.14,543.003,546.753,550.083,553.718,557.468,559.841,561.506" y="219.46500000000003" svg_rhmargin="564.003" style="fill:#171615;font-family:IFHMMK+AdvOTb4959fff;font-size:7.5px;font-style:NORMAL;font-weight:normal;">MIROC-ESM 2010: model description and basic results of CMIP5-20c3m experi-</text>
  <text x="327.004,332.419,336.169,339.919,341.858,345.188,346.853,348.661,353.243,356.993,360.623,363.953,367.703,369.368,371.111,377.359,381.108,384.858,388.459,390.124,391.974,396.557,400.307,403.637,407.282,410.612,412.276,415.606,418.79" y="228.47900000000004" svg_rhmargin="422.12" style="fill:#171615;font-family:IFHMMK+AdvOTb4959fff;font-size:7.5px;font-style:NORMAL;font-weight:normal;">ments. Geosci Model Dev 4:845</text>
  <text x="422.078" y="228.47900000000004" svg_rhmargin="425.828" style="fill:#171615;font-family:IFHMMM+AdvOTb4959fff+20;font-size:7.5px;font-style:NORMAL;font-weight:normal;">–</text>
  <text x="425.763,429.093,432.423,435.753,437.418,439.143,442.893,444.978,447.063,450.813,453.996,455.661,457.625,459.71,463.46,467.21,468.737,470.402,474.151,476.649,480.245,482.33,485.66,488.99,490.506,493.836,497.166,500.496,503.826,505.757,509.507,514.922,518.672,521.007,524.337,526.834,530.021,533.351,536.681,539.178,542.38,545.71,549.04,552.358" y="228.47900000000004" svg_rhmargin="554.023" style="fill:#171615;font-family:IFHMMK+AdvOTb4959fff;font-size:7.5px;font-style:NORMAL;font-weight:normal;">872, https://doi.org/10.5194/gmd-4-845-2011.</text>
  <text x="314.985,321.358,324.76,327.796,331.251,335.001,339.528,343.78,345.445,349.959,353.021,356.057,359.093,362.129,363.79400000000004,368.308,371.764,375.22,378.97,383.497,386.953,390.409,393.81,395.228,398.63,402.086,405.542,407.745,411.075,415.569,419.025,422.481,423.852,427.308,431.058,435.585,437.376,441.126,445.653,449.529,452.93,456.386,458.589,462.045,465.081,468.537,471.993,473.784,477.186,479.0,480.371,483.407,487.157,491.684,495.596,499.052,502.454,505.91,509.366,512.822,514.613,516.816,520.272,522.063,523.434,526.836,530.586,535.113,538.989,542.445,544.236,547.692,552.813,556.269,559.305,562.341" y="237.49300000000005" svg_rhmargin="564.006" style="fill:#171615;font-family:IFHMMK+AdvOTb4959fff;font-size:7.5px;font-style:NORMAL;font-weight:normal;">Wayne G. 2013. The beginners guide to Representative Concentration Pathways.</text>
  <text x="327.004,330.879,333.915,337.317,340.776,342.567,343.938,347.394,350.849,352.514,354.081,357.957,361.413,362.784,366.24,369.696,373.152,376.553,378.218,379.841,383.284,385.098,386.875,390.318,393.379,394.74,396.517,398.331,403.439,408.546,413.654,415.011,418.072,421.077,424.519,427.962,429.776,431.133,434.576,438.018,439.376,442.437,445.896,447.253,450.695,454.138,457.58,461.023,462.38,465.823,469.265,474.373,476.187,478.341,481.784,485.226,486.584,490.026,493.469,497.219,498.896,500.7,504.17,507.572,511.041,514.511,517.56,520.565,524.023,527.773,529.352,532.682,534.228,538.53,541.999,544.216,545.601,547.266,548.833,551.837,554.886,557.891,560.94" y="246.45100000000002" svg_rhmargin="563.025" style="fill:#171615;font-family:IFHMMK+AdvOTb4959fff;font-size:7.5px;font-style:NORMAL;font-weight:normal;">Skeptical Science. https://www.skepticalscience.com/rcp.php [accessed 2 April 2017]</text>
  <text x="314.984,321.652,323.317,324.982,326.647,328.312,331.641,335.391,339.141,341.176,344.926,346.591,348.716,352.886,356.636,360.386,362.051,365.801,369.131,372.881,376.631,378.706,385.374,389.956,391.62100000000004,393.73,397.06,400.81,404.56,407.89,413.305,417.055,420.805,424.555,426.612,431.194,437.442,439.107,441.238,444.568,447.898,451.228,454.558,456.223,458.303,462.053,465.802,469.552,471.625,473.29,478.705,482.455,486.205,488.703,490.788,494.538,498.287,501.899,505.649,507.795,511.545,513.63,515.788,518.286,522.036,525.366,529.116,530.781,534.111,535.776,539.526,543.276,545.325,550.74,554.49,557.82,561.57" y="255.46500000000003" svg_rhmargin="564.067" style="fill:#171615;font-family:IFHMMK+AdvOTb4959fff;font-size:7.5px;font-style:NORMAL;font-weight:normal;">Willison J, Robinson WA, Lackmann GM. 2013. The importance of resolving meso-</text>
  <text x="327.003,330.333,334.083,337.833,339.498,343.248,346.052,347.717,351.467,353.552,357.302,361.051,363.13599999999997,365.95,369.7,373.45,377.2,379.285,380.95,384.7,388.45,391.235,392.9,396.65,399.512,401.597,405.347,409.097,411.927,416.929,420.679,423.177,425.262,429.012,431.826,436.408,438.493,440.158,443.908,447.658,449.627,451.292,455.042,457.904,461.233,463.318,467.068,469.566,474.981,477.802,479.887,482.385,486.135,489.885,493.214,494.879,497.645,501.395,504.278,508.86,510.945,516.36,520.11,523.44,526.274,530.444,534.194,535.8589999999999,538.689,542.019,545.349,547.014,550.344,553.674,556.888" y="264.48" svg_rhmargin="560.218" style="fill:#171615;font-family:IFHMMK+AdvOTb4959fff;font-size:7.5px;font-style:NORMAL;font-weight:normal;">scale latent heating in the North Atlantic storm track. J Atmos Sci 70:2234</text>
  <text x="560.238" y="264.48" svg_rhmargin="563.988" style="fill:#171615;font-family:IFHMMM+AdvOTb4959fff+20;font-size:7.5px;font-style:NORMAL;font-weight:normal;">–</text>
  <text x="327.003,330.333,333.663,336.993,340.323,341.988,343.784,347.534,349.619,351.704,355.454,358.784,360.449,362.534,364.477,368.227,371.977,373.642,375.307,379.056,381.554,385.304,387.267,390.597,393.927,395.591,398.921,402.251,405.581,408.911,410.996,414.746,419.185,423.355,425.852,430.434,432.932,436.262,439.592,442.089,445.419,448.749,451.952,455.282,456.947,460.288" y="273.494" svg_rhmargin="461.953" style="fill:#171615;font-family:IFHMMK+AdvOTb4959fff;font-size:7.5px;font-style:NORMAL;font-weight:normal;">2250, https://doi.org/10.1175/JAS-D-12-0226.1.</text>
  <text x="314.984,321.787,325.537,326.889,330.774,332.439,333.778,338.083,341.968,345.853,349.603,350.899,354.414,356.079,357.362,360.827,362.492,363.832,370.634,372.29900000000004,373.639,380.441,384.326,388.211,391.961,393.257,397.142,398.807,400.146,404.031,407.916,411.801,415.686,419.436,420.732,425.438,427.103,428.442,432.751,434.551,438.301,439.597,443.902,445.567,446.906,450.791,452.876,454.192,458.077,459.877,461.54200000000003,462.882,466.347,469.812,473.277,476.742,478.40700000000004,479.746,484.463,488.213,489.566,493.451,496.916,500.8,503.433,506.898,508.698,512.583,517.9979999999999,519.329,523.214,525.2990000000001,526.616,531.333,535.638,539.808,541.137,545.049,546.849,548.649,554.199,558.084,560.304" y="282.451" svg_rhmargin="564.054" style="fill:#171615;font-family:IFHMMK+AdvOTb4959fff;font-size:7.5px;font-style:NORMAL;font-weight:normal;">Wu T, Song L, Li W, Wang Z, Zhang H, Xin X, et al. 2014. An overview of BCC climate</text>
  <text x="327.003,330.469,333.936,337.402,339.624,343.51,348.925,350.767,356.318,360.205,364.091,367.978,369.64300000000003,371.493,375.348,379.234,382.701,386.587,388.389,392.275,396.162,401.713,405.599,409.486,411.57099999999997,413.398,417.284,421.113,424.863,426.669,430.581,434.47,438.358,440.162,441.966,445.854,449.743,451.967,453.771,457.659,461.409,463.215,465.426,469.315,471.813,473.624,477.512,479.316,481.12,486.673,490.562,492.786,496.536,498.342,502.254,506.142,510.031,513.92,517.808,521.558,523.364,526.823,529.046,532.935,536.824,538.627,542.516,545.985,547.65,549.443,554.148,558.037,560.261" y="291.465" svg_rhmargin="564.011" style="fill:#171615;font-family:IFHMMK+AdvOTb4959fff;font-size:7.5px;font-style:NORMAL;font-weight:normal;">system model development and application for climate change studies. Acta</text>
  <text x="327.003,333.375,337.249,339.459,343.333,347.208,349.872,353.747,355.41200000000003,356.468,360.762,362.552,366.302,368.278,371.732,375.187,377.396,380.851,383.06,384.85,388.304" y="300.479" svg_rhmargin="391.634" style="fill:#171615;font-family:IFHMMK+AdvOTb4959fff;font-size:7.5px;font-style:NORMAL;font-weight:normal;">Meteorol Sin 28(1):34</text>
  <text x="391.803" y="300.479" svg_rhmargin="395.553" style="fill:#171615;font-family:IFHMMM+AdvOTb4959fff+20;font-size:7.5px;font-style:NORMAL;font-weight:normal;">–</text>
  <text x="395.715,399.173,402.631,404.296,405.353,409.229,411.441,413.709,417.564,421.021,422.813,425.024,427.236,431.113,434.989,436.781,438.573,442.45,445.114,448.969,451.181,454.696,458.153,459.945,463.46,466.916,470.373,473.83,476.042,479.498,482.955,486.412,489.927,493.384,496.84,499.464,502.921,506.378,509.893,512.517,515.974,519.431,522.887,526.344,529.009,532.515" y="300.479" svg_rhmargin="534.18" style="fill:#171615;font-family:IFHMMK+AdvOTb4959fff;font-size:7.5px;font-style:NORMAL;font-weight:normal;">56, https://doi.org/10.1007/s13351-014-3041-7.</text>
  <text x="314.984,321.652,325.402,329.725,333.895,335.56,339.873,344.455,348.205,351.535,354.865,358.615,361.112,362.77700000000004,366.971,371.141,375.311,376.976,381.258,384.588,388.338,392.088,396.395,400.145,401.81,406.146,410.729,414.479,418.229,421.979,425.729,429.957,434.959,439.542,441.207,445.491,449.661,453.411,455.076,458.826,462.575,464.65999999999997,468.905,472.655,474.32,478.656,485.323,489.073,493.339,497.089,498.754,503.091,506.421,509.751,513.081,516.41,518.0749999999999,522.309,526.892,530.642,533.971,537.721,539.386,543.136,546.886,548.551,552.186,555.936,560.236" y="309.493" svg_rhmargin="563.986" style="fill:#171615;font-family:IFHMMK+AdvOTb4959fff;font-size:7.5px;font-style:NORMAL;font-weight:normal;">Wu X, Duvvuri VR, Lou Y, Ogden NH, Pelcat Y, Wu J. 2013. Developing a</text>
  <text x="327.003,329.088,332.838,338.253,342.003,345.753,348.25,352.0,354.085,357.674,360.171,363.921,366.418,370.168,372.666,374.331,377.661,381.411,385.161,386.983,392.398,396.148,399.898,401.78,405.53,407.61499999999995,409.49,411.574,415.324,419.074,420.941,424.691,428.441,431.771,433.436,437.186,439.083,441.58,445.33,449.08,451.577,455.327,459.077,462.827,466.408,468.493,470.158,473.488,477.238,479.107,482.857,486.607,492.022,495.772,499.522,502.02,503.882,507.632,509.717,511.591,513.676,517.426,521.176,523.043,526.793,532.208,535.958,538.455,542.205,543.87,547.62,551.37,553.203,555.288,556.953,560.703" y="318.45" svg_rhmargin="564.033" style="fill:#171615;font-family:IFHMMK+AdvOTb4959fff;font-size:7.5px;font-style:NORMAL;font-weight:normal;">temperature-driven map of the basic reproductive number of the emerging tick</text>
  <text x="327.003,330.333,334.083,337.833,339.918,343.668,346.166,348.716,352.466,354.551,357.22,360.55,363.88,369.295,373.045,375.645,379.395,381.06,384.39,388.14,391.89,395.091,398.841,401.497,403.582,406.912,410.662,414.412,418.162,421.49199999999996,424.06,427.39,431.14,434.89,438.64,442.39,444.055,447.805,450.302,451.839,455.169,457.792,459.457,463.207,465.842,470.012,473.762,477.512,481.262,485.012,488.762,490.427,492.998,496.748,499.404,503.154,506.904,510.654,514.404,516.902,519.473,524.056,525.721,529.471,531.136,533.703,537.033,540.363,543.693,545.358,548.688" y="327.465" svg_rhmargin="552.018" style="fill:#171615;font-family:IFHMMK+AdvOTb4959fff;font-size:7.5px;font-style:NORMAL;font-weight:normal;">vector of Lyme disease Ixodes scapularis in Canada. J Theor Biol 319:50</text>
  <text x="551.96" y="327.465" svg_rhmargin="555.71" style="fill:#171615;font-family:IFHMMM+AdvOTb4959fff+20;font-size:7.5px;font-style:NORMAL;font-weight:normal;">–</text>
  <text x="555.702,559.032,562.362" y="327.465" svg_rhmargin="564.027" style="fill:#171615;font-family:IFHMMK+AdvOTb4959fff;font-size:7.5px;font-style:NORMAL;font-weight:normal;">61,</text>
  <text x="327.003,330.753,332.838,334.923,338.673,342.003,343.668,345.753,347.696,351.446,355.196,356.861,358.526,362.275,364.773,368.523,370.486,373.816,377.146,378.81,382.14,385.47,388.8,392.13,394.215,395.88,397.415,399.08,401.165,404.915,406.58,408.245,411.575,414.904,418.108,421.438,423.103,426.433,429.763,431.428,434.757,438.087,441.409" y="336.479" svg_rhmargin="443.074" style="fill:#0000ff;font-family:IFHMMK+AdvOTb4959fff;font-size:7.5px;font-style:NORMAL;font-weight:normal;">https://doi.org/10.1016/j.jtbi.2012.11.014.</text>
  <text x="314.984,318.734,322.484,325.814,327.479,332.894,336.644,338.729,342.479,344.408,348.578,350.243,352.232,356.814,360.564,363.894,367.644,370.974,374.724,376.666,382.914,384.579,386.587,390.337,394.087,397.837,401.587,404.917,408.667,410.568,414.318,415.983,417.994,421.324,424.654,427.984,431.314,432.97900000000004,434.889,439.47200000000004,441.522,445.272,449.022,454.437,456.375,460.125,461.79,465.54,469.29,473.04,474.70500000000004,476.671,480.421,482.086,483.75,489.165,492.915,495.0,498.75,500.651,506.066,509.816,513.566,517.316,518.981,520.947,524.697,526.782,528.771,530.856,534.606,538.356,540.336,545.751,549.501,551.586,555.336,559.086,561.583" y="345.493" svg_rhmargin="564.08" style="fill:#171615;font-family:IFHMMK+AdvOTb4959fff;font-size:7.5px;font-style:NORMAL;font-weight:normal;">Yukimoto S, Hosaka M, Tanaka T. 2012. A new global climate model of the meteor-</text>
  <text x="327.003,330.753,332.418,336.168,339.918,341.583,345.333,349.082,350.747,352.685,355.182,358.932,362.262,366.012,369.762,372.13,375.88,379.63,381.654,383.319,387.069,390.399,392.484,394.149,396.234,399.984,401.95,405.7,407.365,409.376,415.624,419.794,421.879,424.376,428.546,433.128,437.298,443.546,446.736,448.401,450.478,455.893,459.643,463.393,467.143,468.808,470.773,474.523,478.273,481.603,485.353,487.851,489.516,493.266,495.208,496.873,500.623,504.373,506.376,510.126,513.876,517.626,519.642,523.392,527.142,530.472,532.137,535.887,537.84,541.59,545.34,547.838,549.923,553.673,556.17,561.585" y="354.45" svg_rhmargin="564.082" style="fill:#171615;font-family:IFHMMK+AdvOTb4959fff;font-size:7.5px;font-style:NORMAL;font-weight:normal;">ological research institute: MRI-CGCM3: model description and basic perform-</text>
  <text x="327.003,330.753,334.503,338.253,342.003,343.668,345.485,349.235,351.098,357.345,361.095,363.18,366.93,370.68,373.178,374.965,379.135,382.885,386.635,388.458,392.208,395.958,399.708,403.458,407.208,408.981,412.311,415.641,420.223,421.888,425.218" y="363.464" svg_rhmargin="428.548" style="fill:#171615;font-family:IFHMMK+AdvOTb4959fff;font-size:7.5px;font-style:NORMAL;font-weight:normal;">ance. J Meteor Soc Japan 90A:23</text>
  <text x="428.483" y="363.464" svg_rhmargin="432.233" style="fill:#171615;font-family:IFHMMM+AdvOTb4959fff+20;font-size:7.5px;font-style:NORMAL;font-weight:normal;">–</text>
  <text x="432.225,435.555,438.885,440.55,442.373,446.123,448.208,450.293,454.043,457.373,459.038,461.123,463.066,466.816,470.566,472.231,473.896,477.646,480.143,483.893,485.856,489.186,492.516,494.181,497.511,500.841,504.171,507.501,509.585,511.25,516.527,519.857,521.573" y="363.464" svg_rhmargin="523.238" style="fill:#171615;font-family:IFHMMK+AdvOTb4959fff;font-size:7.5px;font-style:NORMAL;font-weight:normal;">64, https://doi.org/10.2151/jmsj.</text>
  <text x="314.983,318.433,321.882,325.331,328.78,332.53,334.677,338.546,340.211,342.401,348.348,351.797,353.161,354.945,357.562,361.011,363.509,365.717,371.669,373.454,375.119,377.309,381.178,384.627,388.076,391.826,393.973,397.842,402.124,403.78900000000004,405.978,410.23,413.679,417.129,420.158,421.522,424.971,428.301,430.47,434.779,439.031,440.696,442.886,449.252,451.449,454.898,456.682,460.432,462.635,465.64,467.305,469.495,472.499,473.863,477.193,479.362,483.644,487.896,489.56100000000004,491.751,494.812,497.841,500.87,503.9,505.565,507.755,511.157,514.606,518.055,521.504,524.953,530.068,531.432,535.182,537.385,538.749,543.863,547.312,550.761,554.163,556.248,558.414,561.873" y="372.478" svg_rhmargin="563.958" style="fill:#171615;font-family:IFHMMK+AdvOTb4959fff;font-size:7.5px;font-style:NORMAL;font-weight:normal;">Zhang X, Meltzer MI, Peña CA, Hopkins AB, Wroth L, Fix AD. 2006. Economic impact of</text>
  <text x="327.002,330.034,333.066,338.184,341.934,343.513,346.965,348.332,351.365,354.817,358.269,361.301,364.754,366.41900000000004,367.985,371.437,376.555,379.957,382.168,385.62,386.987,390.439,394.189,395.769,397.556,401.008,402.795,406.247,409.649,411.734,413.333,417.618,418.985,422.315,423.861,426.922,429.955,431.322,434.354,437.386" y="381.492" svg_rhmargin="440.716" style="fill:#171615;font-family:IFHMMK+AdvOTb4959fff;font-size:7.5px;font-style:NORMAL;font-weight:normal;">Lyme disease. Emerging Infect Dis 12:653</text>
  <text x="440.388" y="381.492" svg_rhmargin="444.138" style="fill:#171615;font-family:IFHMMM+AdvOTb4959fff+20;font-size:7.5px;font-style:NORMAL;font-weight:normal;">–</text>
  <text x="443.846,446.907,449.912,452.973,454.63800000000003,456.205,459.64,461.41,463.224,466.625,469.687,471.047,472.817,474.632,478.067,481.502,482.852,484.202,487.637,489.819,493.254,495.068,498.073,501.134,502.495,505.51,508.571,511.586,514.647,516.417,519.852,521.202,524.637,527.652,530.714,533.729,536.79,538.14,541.155,544.216,547.231,550.246,553.308,556.495" y="381.492" svg_rhmargin="558.16" style="fill:#171615;font-family:IFHMMK+AdvOTb4959fff;font-size:7.5px;font-style:NORMAL;font-weight:normal;">660, https://doi.org/10.3201/eid1204.050602.</text>
  <text svg_rhmargin="165.957" x="48.019,52.186,56.524,60.358,62.356,65.02,69.358,73.696,80.194,84.19,88.528,91.192,95.359,97.357,99.498,104.664,108.66,112.827,114.825,117.489,121.827,123.99,128.319,132.315,134.979,138.309,142.638,146.634,150.135,152.799,154.797,158.631,162.627,165.95700000000002" y="775.962" style="fill:#000000;font-family:IFFMKO+AdvOTeea082cb;font-size:9.0px;font-style:NORMAL;font-weight:normal;">Environmental Health Perspectives </text>
  <text x="286.98,291.984,296.988,301.992,306.996,312.0,317.004,320.001" y="775.962" svg_rhmargin="325.005" style="fill:#000000;font-family:IFFMLO+AdvOT10f0fcb1;font-size:9.0px;font-style:NORMAL;font-weight:normal;">057008-9</text>
 </g>
</svg>
