<?xml version="1.0" encoding="UTF-8"?>
<svg height="634.293" width="4086.178" xmlns="http://www.w3.org/2000/svg">
 <g id="page" xmlns:svgx="http://www.xml-cml.org/schema/svgx">
  <g begin="text">
   <text y="40.903" x="166.234,169.302,171.791,175.648,179.904,183.761,188.264,190.639,195.142,197.783,200.272,202.97,206.21,208.851,213.278,217.99,220.688,223.329,227.186,231.945,234.32,238.538,243.298,247.801,250.176,253.387,255.724,258.365,265.29,269.508,272.206,275.493,277.868,281.079,285.592,289.81,294.569,298.198" svgx:width="0.34,0.26,0.41,0.45,0.41,0.47,0.25,0.47,0.28,0.26,0.28,0.34,0.28,0.47,0.5,0.28,0.28,0.41,0.5,0.25,0.44,0.5,0.47,0.25,0.34,0.25,0.28,0.73,0.44,0.28,0.35,0.25,0.34,0.47,0.44,0.5,0.38,0.35" style="fill:rgb(23,22,21);font-family:AGaramondPro-Italic;font-size:9.5px;stroke:none;">Isopod distribution and climate change</text>
  </g>
  <g begin="text">
   <text y="40.903" x="405.776,410.526" svgx:width="0.5,0.5" style="fill:rgb(23,22,21);font-family:AGaramondPro-Regular;font-size:9.5px;stroke:none;">43</text>
  </g>
  <rect style="stroke:blue;stroke-width:0.3;" x="76.178" y="181.48" height="146.982" width="315.36" title="19"/>
  <text y="181.48" class="image" id="image.19.1" width="315" height="146" x="76.178">image.19.1.76_392.181_328</text>
  <g begin="text">
   <text y="222.388" x="52.441,57.877,60.316,65.194,70.441,74.295,79.263,82.17,87.138" svgx:width="0.6,0.27,0.54,0.58,0.45,0.55,0.28,0.55,0.27" style="fill:rgb(23,22,21);font-family:GillSans-Bold;font-size:9.0px;stroke:none;">Figure 7.</text>
  </g>
  <g begin="text">
   <text y="222.388" x="89.572,92.191,97.528,99.841,104.215,106.978,109.291,112.891,115.505,119.141,123.866,128.447,131.066,134.702,139.202,141.515,145.889,148.652,150.965,154.565,157.18,159.79,163.426,167.026,169.789,174.163,177.151,180.058,182.672,185.552,187.127,191.69,194.624,198.944,202.832,205.145,212.228,215.864,218.627,222.191,224.81,228.41,232.046,236.654,239.561,243.125,245.672,247.787,250.667,253.282,256.918,261.643,266.224,268.843,272.443,276.817,279.724,282.487,285.367,289.867,293.431,298.156,301.72,306.418,309.181,311.8,314.698,318.262,320.485,324.121,326.884,329.197,333.571,338.296,341.203,343.822,346.702,348.277,352.885,355.108,357.871,360.184,367.267,370.903,373.666,377.23,379.849,383.449,387.085,391.693,394.6,398.164,400.71,402.825,405.705,408.324,412.698,415.308" svgx:width="0.25,0.61,0.26,0.49,0.31,0.26,0.4,0.25,0.4,0.52,0.51,0.25,0.4,0.5,0.26,0.49,0.31,0.26,0.4,0.25,0.29,0.4,0.4,0.31,0.49,0.33,0.32,0.25,0.32,0.23,0.51,0.33,0.49,0.43,0.26,0.79,0.4,0.31,0.4,0.25,0.4,0.4,0.51,0.32,0.4,0.32,0.23,0.32,0.25,0.4,0.52,0.51,0.25,0.4,0.49,0.32,0.31,0.32,0.5,0.4,0.52,0.4,0.52,0.31,0.25,0.33,0.4,0.25,0.4,0.31,0.26,0.49,0.52,0.32,0.25,0.32,0.23,0.51,0.25,0.31,0.26,0.79,0.4,0.31,0.4,0.25,0.4,0.4,0.51,0.32,0.4,0.32,0.23,0.32,0.25,0.49,0.29,0.25" style="fill:rgb(23,22,21);font-family:AGaramondPro-Regular;font-size:9.0px;stroke:none;"> Biotic and abiotic factors (‘proximate causes’) and cost-benefit relations (‘ultimate causes’) of </text>
  </g>
  <g begin="text">
   <text y="234.388" x="52.441,56.077,60.091,64.105,67.003,70.567,74.581,78.217,80.98,83.293,87.667,92.392,94.583,96.896,101.621,103.812,106.575,110.139,113.127,116.024,119.588,122.495,125.258,128.246,130.559,134.195,136.418,138.61,140.923,143.83,148.204,152.767,157.141,161.722,164.629,166.819,170.455,173.362,175.553,179.189,181.38,185.88,189.444,194.079,197.715,201.603,203.916,208.29,211.278,214.914,217.137,219.328,222.964,227.545,231.181,235.744,238.507,242.143,244.906,247.219,251.593,256.318,258.509,261.272,265.646,267.836,271.472,275.306,279.68,281.993,286.574,288.766,293.347,296.911,299.818,302.131,305.731,309.331,312.967,315.73,318.043,322.417,327.142,329.333,332.213,336.587,339.575,341.888,345.902,348.215,352.94,356.576,358.799,360.991,363.304,367.885,371.449,375.085,377.276,379.886,382.82,387.194,394.277,396.468,401.806,404.739,409.113,411.336,415.278" svgx:width="0.4,0.45,0.45,0.33,0.4,0.45,0.4,0.31,0.26,0.49,0.52,0.25,0.26,0.52,0.25,0.31,0.4,0.33,0.33,0.4,0.32,0.31,0.33,0.26,0.4,0.25,0.25,0.26,0.32,0.49,0.51,0.49,0.51,0.32,0.25,0.4,0.32,0.25,0.4,0.25,0.5,0.4,0.51,0.4,0.43,0.26,0.49,0.33,0.4,0.25,0.25,0.4,0.51,0.4,0.51,0.31,0.4,0.31,0.26,0.49,0.52,0.25,0.31,0.49,0.25,0.4,0.43,0.49,0.26,0.51,0.25,0.51,0.4,0.32,0.26,0.4,0.4,0.4,0.31,0.26,0.49,0.52,0.25,0.32,0.49,0.33,0.26,0.45,0.26,0.52,0.4,0.25,0.25,0.26,0.51,0.4,0.4,0.25,0.29,0.33,0.49,0.79,0.25,0.61,0.33,0.49,0.25,0.44,0.25" style="fill:rgb(23,22,21);font-family:AGaramondPro-Regular;font-size:9.0px;stroke:none;">aggregation in terrestrial isopods as a behavioral adaptation to avoid desiccation (original idea from Broly </text>
  </g>
  <g begin="text">
   <text y="246.388" x="52.441,56.005,58.768,61.018,64.654,66.877,69.127,71.377,75.877,80.377,84.877,89.377,93.877,96.757" svgx:width="0.4,0.31,0.25,0.4,0.25,0.25,0.25,0.5,0.5,0.5,0.5,0.5,0.32,0.25" style="fill:rgb(23,22,21);font-family:AGaramondPro-Regular;font-size:9.0px;stroke:none;">et al. 2013b).</text>
  </g>
  <g begin="text">
   <text y="281.093" x="69.449,75.389,79.745,88.402,93.979,98.335,101.987,106.431,109.808,115.44,118.981,123.337,126.34,131.026,135.47,138.187,143.819,148.175,151.728,154.731,160.33,164.686,168.063,172.419,176.071,184.728,187.555,193.33,197.686,200.689,205.133,207.85,211.403,216.749,219.752,224.658,228.244,233.458,240.718,244.095,249.76,252.763,256.415,260.859,264.236,268.592,271.595,275.115,282.375,285.202,288.579,294.244,297.247,300.8,306.377,310.733,315.133,317.96,322.316,325.869,329.389,332.942,338.519,342.875,347.275,350.102,355.844,360.244,363.247,371.904,374.731,380.506,383.333,391.99,396.434,399.437,403.881,409.656,415.255" svgx:width="0.66,0.4,0.79,0.51,0.4,0.33,0.4,0.31,0.51,0.33,0.4,0.25,0.43,0.4,0.25,0.51,0.4,0.32,0.25,0.51,0.4,0.31,0.4,0.33,0.79,0.26,0.52,0.4,0.25,0.4,0.25,0.32,0.49,0.25,0.45,0.33,0.49,0.66,0.31,0.51,0.25,0.33,0.4,0.31,0.4,0.25,0.32,0.66,0.26,0.31,0.51,0.25,0.32,0.51,0.4,0.4,0.26,0.4,0.32,0.32,0.32,0.51,0.4,0.4,0.26,0.52,0.4,0.25,0.79,0.26,0.52,0.26,0.79,0.4,0.25,0.4,0.52,0.51,0.25" style="fill:rgb(23,22,21);font-family:AGaramondPro-Regular;font-size:11.0px;stroke:none;">Temperature values determine also growth rate (with species-specific minima and </text>
  </g>
  <g begin="text">
   <text y="294.293" x="52.441,61.098,65.542,70.294,73.121,81.778,86.222,89.742,92.492,93.625,98.069,103.844,109.443,112.193,113.326,117.726,123.072,128.737,134.083,137.822,141.199,143.949,145.082,148.635,154.267,158.117,162.869,165.696,170.381,174.825,177.542,180.292,181.425,185.077,189.521,192.898,197.254,200.004,201.137,204.657,213.314,217.758,223.533,227.933,232.377,235.93,238.68,239.813,245.39,248.976,254.146,258.832,263.188,268.787,271.537,272.67,276.047,281.393,284.143,285.276,290.776,295.132,297.882,299.015,302.392,308.057,312.413,315.163,316.296,324.953,330.299,333.852,337.229,339.979,341.112,344.665,349.021,354.796,358.349,361.176,364.553,367.38,372.066,376.422,379.942,382.692,385.442,386.575,390.16,395.935,398.685,399.818,405.164,410.939,415.295" svgx:width="0.79,0.4,0.43,0.26,0.79,0.4,0.32,0.25,0.55,0.4,0.52,0.51,0.25,0.55,0.4,0.49,0.51,0.49,0.33,0.31,0.25,0.55,0.32,0.51,0.33,0.43,0.26,0.43,0.4,0.25,0.25,0.55,0.33,0.4,0.31,0.4,0.25,0.55,0.32,0.79,0.4,0.52,0.4,0.4,0.32,0.25,0.55,0.51,0.33,0.49,0.43,0.4,0.51,0.25,0.55,0.31,0.49,0.25,0.55,0.5,0.4,0.25,0.55,0.31,0.51,0.4,0.25,0.55,0.79,0.49,0.32,0.31,0.25,0.55,0.32,0.4,0.52,0.32,0.26,0.31,0.26,0.43,0.4,0.32,0.25,0.25,0.55,0.34,0.52,0.25,0.55,0.49,0.52,0.4,0.25" style="fill:rgb(23,22,21);font-family:AGaramondPro-Regular;font-size:11.0px;stroke:none;">maxima) and cohort survival rate (mancas proved to be the most sensitive). In one </text>
  </g>
  <g begin="text">
   <text y="307.493" x="52.441,55.994,59.371,65.003,70.602,74.485,77.235,79.461,82.838,88.503,92.859,95.087,97.804,103.018,110.211,114.567,118.219,120.446,123.163,127.519,130.896,136.561,141.005,143.722,145.949,149.326,153.682,162.339,167.916,172.272,175.924,180.368,183.745,189.377,192.917,197.273,199.501,203.021,208.521,214.021,223.305,225.531,234.188,239.534,243.274,246.651,251.095,253.812,256.639,260.016,264.834,268.354,270.581,273.771,279.117,282.769" svgx:width="0.32,0.31,0.51,0.51,0.44,0.25,0.25,0.31,0.51,0.4,0.25,0.25,0.49,0.66,0.4,0.33,0.25,0.25,0.4,0.31,0.51,0.4,0.25,0.25,0.31,0.4,0.79,0.51,0.4,0.33,0.4,0.31,0.51,0.33,0.4,0.25,0.32,0.5,0.5,0.84,0.25,0.79,0.49,0.33,0.31,0.4,0.25,0.26,0.31,0.44,0.32,0.25,0.29,0.49,0.33,0.25" style="fill:rgb(23,22,21);font-family:AGaramondPro-Regular;font-size:11.0px;stroke:none;">study, the lower lethal temperature (50% mortality) for </text>
  </g>
  <g begin="text">
   <text y="307.493" x="284.996,290.606,295.072,298.691,302.409,306.215,308.921,311.627,314.685,319.151,321.378,324.26,327.978,332.862,337.988,341.794" svgx:width="0.55,0.41,0.34,0.34,0.35,0.25,0.25,0.28,0.41,0.25,0.26,0.34,0.44,0.47,0.35,0.34" style="fill:rgb(23,22,21);font-family:AGaramondPro-Italic;font-size:11.0px;stroke:none;">Porcellio scaber</text>
  </g>
  <g begin="text">
   <text y="307.493" x="345.543,347.771,353.854,358.298,361.675,365.217,369.573,372.4,375.117,377.834,382.19,384.416,391.676,396.12,399.673,401.901,407.401" svgx:width="0.25,0.55,0.4,0.31,0.33,0.4,0.26,0.25,0.25,0.4,0.25,0.66,0.4,0.32,0.25,0.5,0.4" style="fill:rgb(23,22,21);font-family:AGaramondPro-Regular;font-size:11.0px;stroke:none;"> Latreille was be</text>
  </g>
  <g begin="text">
   <text y="307.493" x="411.756" svgx:width="0.32" style="fill:rgb(23,22,21);font-family:AGaramondPro-Regular;font-size:11.0px;stroke:none;">-</text>
  </g>
  <g begin="text">
   <text y="320.693" x="52.441,55.158,60.372,67.632,70.184,74.265,78.621,82.207,87.553,90.303,92.855,98.355,102.711,106.088,113.282,117.638,121.994,127.769,130.321,133.841,139.341,142.091,147.591,150.143,154.587,160.362,165.961,168.513,172.033,177.533,180.283,185.783,188.335,191.657,199.313,202.063,204.615,211.875,214.702,218.079,223.744,226.296,230.74,233.292,236.845,242.477,248.054,252.41,256.062,259.582,263.982,269.328,274.674,277.391,280.218,285.993,290.899,293.445,299.022,304.368,307.195,312.97,316.347,318.899,323.343,326.72,329.272,333.716,339.216,344.562,350.194,353.571,356.123,359.643,365.143,367.695,371.017,378.673,381.225,384.877,390.927,395.371,401.146,405.59,410.892,415.336" svgx:width="0.25,0.49,0.66,0.25,0.38,0.4,0.33,0.49,0.25,0.25,0.5,0.4,0.31,0.66,0.4,0.4,0.52,0.25,0.32,0.5,0.25,0.5,0.25,0.4,0.52,0.51,0.25,0.32,0.5,0.25,0.5,0.25,0.3,0.7,0.25,0.25,0.66,0.26,0.31,0.51,0.25,0.4,0.25,0.32,0.51,0.51,0.4,0.33,0.32,0.4,0.49,0.49,0.25,0.26,0.52,0.45,0.25,0.51,0.49,0.26,0.52,0.31,0.25,0.4,0.31,0.25,0.4,0.5,0.49,0.51,0.31,0.25,0.32,0.5,0.25,0.3,0.7,0.25,0.32,0.66,0.4,0.52,0.4,0.48,0.4,0.25" style="fill:rgb(23,22,21);font-family:AGaramondPro-Regular;font-size:11.0px;stroke:none;">low zero, between -1.4 and -4.6 °C, with a super-cooling point at about -7 °C (Tanaka </text>
  </g>
  <g begin="text">
   <text y="333.893" x="52.441,56.885,62.66,68.259,71.009,78.885,84.484,88.928,96.188,100.632,105.538,109.982,112.732,118.232,123.732,129.232,134.732,138.252" svgx:width="0.4,0.52,0.51,0.25,0.75,0.51,0.4,0.66,0.4,0.45,0.4,0.25,0.5,0.5,0.5,0.5,0.32,0.25" style="fill:rgb(23,22,21);font-family:AGaramondPro-Regular;font-size:11.0px;stroke:none;">and Udawaga 1993).</text>
  </g>
  <g begin="text">
   <text y="347.093" x="69.449,74.861,80.097,85.333,90.822,93.968,99.325,104.847,109.181,111.788,114.505,117.772,122.48,125.626,129.96,135.625,141.114,144.26,147.527,151.773,160.32,165.787,170.033,173.575,177.909,181.176,186.698,190.13,194.376,197.522,203.077,207.411,211.987,216.233,219.379,222.096,230.643,236.11,241.346,244.976,248.243,252.577,258.242,261.509,264.655,268.901,274.929,279.175,283.465,286.732,290.175,293.321,298.557,304.222,307.368,310.91,315.244,318.511,322.757,325.903,331.139,334.219,337.365,342.161,345.703,350.037,354.679,357.396,362.885,366.031,369.111,373.357,381.904,386.238,388.845,393.091,396.534,399.68,404.014,409.679,415.278" svgx:width="0.54,0.49,0.49,0.51,0.25,0.5,0.51,0.4,0.25,0.26,0.31,0.44,0.25,0.4,0.52,0.51,0.25,0.31,0.4,0.79,0.51,0.4,0.33,0.4,0.31,0.51,0.33,0.4,0.25,0.51,0.4,0.43,0.4,0.25,0.26,0.79,0.51,0.49,0.33,0.31,0.4,0.52,0.31,0.25,0.4,0.56,0.4,0.4,0.31,0.32,0.25,0.49,0.52,0.25,0.33,0.4,0.31,0.4,0.25,0.49,0.29,0.25,0.45,0.33,0.4,0.43,0.26,0.51,0.25,0.29,0.4,0.79,0.4,0.25,0.4,0.32,0.25,0.4,0.52,0.51,0.25" style="fill:rgb(23,22,21);font-family:AGaramondPro-Regular;font-size:11.0px;stroke:none;">Food quality and temperature have important effects on rate of gravid females and </text>
  </g>
  <g begin="text">
   <text y="360.293" x="52.441,57.677,63.342,66.565,69.832,75.387,79.633,82.856,87.652,91.128,96.232,103.382,106.649,112.204,115.427,120.663,123.743,126.966,130.046,135.568,138.835,144.357,147.789,152.035,155.258,160.494,166.522,169.965,175.432,178.974,181.691,187.356,192.152,194.792,198.015,203.426,207.672,216.219,220.553,223.16,227.406,230.849,234.072,239.462,243.708,247.998,253.234,261.781,266.027,269.25,274.046,277.588,281.922,286.564,289.281,294.77,297.993,302.327,305.594,308.817,313.151,316.374,319.817,328.364,332.698,335.305,337.912,342.158,345.7,348.923,352.366,355.083,359.054,363.3,366.523,370.857,374.124,377.347,380.064,385.729,390.019,393.45,397.696,402.03,405.473,409.719,415.318" svgx:width="0.49,0.52,0.25,0.31,0.51,0.4,0.25,0.45,0.33,0.49,0.66,0.31,0.51,0.25,0.49,0.29,0.25,0.29,0.51,0.31,0.51,0.33,0.4,0.25,0.49,0.56,0.32,0.51,0.33,0.26,0.52,0.45,0.25,0.25,0.54,0.4,0.79,0.4,0.25,0.4,0.32,0.25,0.5,0.4,0.4,0.49,0.79,0.4,0.25,0.45,0.33,0.4,0.43,0.26,0.51,0.25,0.4,0.31,0.25,0.4,0.25,0.32,0.79,0.4,0.25,0.25,0.4,0.33,0.25,0.32,0.26,0.38,0.4,0.25,0.4,0.31,0.25,0.26,0.52,0.4,0.33,0.4,0.4,0.32,0.4,0.51,0.25" style="fill:rgb(23,22,21);font-family:AGaramondPro-Regular;font-size:11.0px;stroke:none;">on the growth of future offspring. Females become gravid at a smaller size at increased </text>
  </g>
  <g begin="text">
   <text y="373.493" x="52.441,55.708,59.954,68.501,73.968,78.214,81.756,86.09,89.357,94.879,98.311,102.557,104.757,111.907,117.462,120.179,122.786,127.032,129.232,131.949,137.614,141.904,145.336,149.582,153.916,157.359,161.605,167.094,169.294,172.374,177.61,182.846,188.335,190.535,195.892,201.414,205.748,208.355,211.072,214.339,219.047,221.247,224.679,228.925,232.368,237.89,240.497,243.764,247.207,249.407,252.124,257.789,259.989,262.596,266.93,270.472,275.268,279.514,283.056,285.256,288.699,291.416,295.388,299.634,301.834,305.244,313.802,318.048,320.655,326.144,330.39,336.055,338.255,342.589,348.254,353.743,355.943,364.633,368.967,372.41,375.853,380.187,382.794,385.401,387.601,392.991,398.381,403.771,409.161,412.571" svgx:width="0.31,0.4,0.79,0.51,0.4,0.33,0.4,0.31,0.51,0.33,0.4,0.25,0.66,0.51,0.26,0.25,0.4,0.25,0.26,0.52,0.4,0.33,0.4,0.4,0.32,0.4,0.51,0.25,0.29,0.49,0.49,0.51,0.25,0.5,0.51,0.4,0.25,0.26,0.31,0.44,0.25,0.33,0.4,0.32,0.51,0.25,0.31,0.32,0.25,0.26,0.52,0.25,0.25,0.4,0.33,0.45,0.4,0.33,0.25,0.32,0.26,0.38,0.4,0.25,0.32,0.81,0.4,0.25,0.51,0.4,0.52,0.25,0.4,0.52,0.51,0.25,0.81,0.4,0.32,0.32,0.4,0.25,0.25,0.25,0.5,0.5,0.5,0.5,0.32,0.25" style="fill:rgb(23,22,21);font-family:AGaramondPro-Regular;font-size:11.0px;stroke:none;">temperature while increased food quality results in larger size (Helden and Hassall 1998).</text>
  </g>
  <g begin="text">
   <text y="386.693" x="69.449,77.105,79.822,82.649,91.306,95.75,99.127,101.954,106.354,109.104,111.315,115.715,121.38,125.824,131.599,136.505,140.861,144.414,147.164,149.375,154.974,159.33,165.072,170.847,173.674,177.051,179.878,184.563,188.919,191.636,196.454,199.204,201.415,204.242,210.017,215.759,221.391,225.747,231.522,235.922,240.278,243.028,245.239,250.816,256.162,261.739,267.371,270.088,274.532,277.909,280.736,286.082,291.857,294.607,296.818,302.395,305.98,311.326,315.726,320.082,323.635,327.188,331.544,335.097,337.847,340.597,342.808,346.185,351.531,356.701,359.451,362.201,364.412,370.495,373.322,376.512,380.868,383.618,385.829,391.494,394.321,397.874,401.251,406.597,410.447,415.265" svgx:width="0.7,0.25,0.26,0.79,0.4,0.31,0.26,0.4,0.25,0.55,0.4,0.51,0.4,0.52,0.45,0.4,0.32,0.25,0.55,0.51,0.4,0.52,0.52,0.26,0.31,0.26,0.43,0.4,0.25,0.44,0.25,0.55,0.26,0.52,0.52,0.51,0.4,0.52,0.4,0.4,0.25,0.55,0.51,0.49,0.51,0.51,0.25,0.4,0.31,0.26,0.49,0.52,0.25,0.55,0.51,0.33,0.49,0.4,0.4,0.32,0.32,0.4,0.32,0.25,0.25,0.55,0.31,0.49,0.49,0.25,0.25,0.55,0.55,0.26,0.29,0.4,0.25,0.55,0.51,0.26,0.32,0.31,0.49,0.33,0.44,0.25" style="fill:rgb(23,22,21);font-family:AGaramondPro-Regular;font-size:11.0px;stroke:none;">Climatic changes definitively influenc e populatio n processes , too . Lif e history </text>
  </g>
  <g begin="text">
   <text y="399.893" x="52.441,55.818,59.47,63.914,66.741,70.118,73.671,77.103,80.656,86.288,90.688,96.353,99.785,104.229,107.782,111.214,114.756,119.112,124.689,128.274,133.62,139.219,144.851,149.251,152.628,155.455,160.801,166.576,170.008,173.528,176.905,179.732,188.389,191.216,196.991,201.897,204.647,208.079,213.656,218.1,221.752,224.579,227.956,231.838,234.588,238.02,243.795,249.427,258.084,263.584,267.94,271.592,275.024,280.37,283.56,286.992,292.569,297.915,301.292,305.648,311.423,314.8,317.627,322.071,324.788,328.22,333.566,339.704,343.257,348.834,352.486,355.313,361.088,365.994,369.514,372.946,377.39,380.932,385.288,388.72,394.385,397.212,402.118,407.783,410.5,415.318" svgx:width="0.31,0.33,0.4,0.26,0.31,0.32,0.25,0.32,0.51,0.4,0.51,0.25,0.4,0.32,0.25,0.33,0.4,0.51,0.33,0.49,0.51,0.51,0.4,0.31,0.26,0.49,0.52,0.25,0.32,0.31,0.26,0.79,0.26,0.52,0.45,0.25,0.25,0.51,0.4,0.33,0.26,0.31,0.44,0.25,0.25,0.52,0.51,0.79,0.5,0.4,0.33,0.25,0.49,0.29,0.25,0.51,0.49,0.31,0.4,0.52,0.31,0.26,0.4,0.25,0.25,0.49,0.56,0.32,0.51,0.33,0.26,0.52,0.45,0.32,0.25,0.4,0.33,0.4,0.25,0.51,0.26,0.45,0.51,0.25,0.44,0.25" style="fill:rgb(23,22,21);font-family:AGaramondPro-Regular;font-size:11.0px;stroke:none;">traits such as reproduction (timing, parity, number of potential offspring) are highly </text>
  </g>
  <g begin="text">
   <text y="413.093" x="52.441,55.268,61.043,66.785,72.417,76.773,82.548,86.948,91.304,96.903,99.565,104.999,109.817,112.479,118.144,123.776,132.433,135.26,140.859,143.686,147.063,150.945,153.695,156.357,165.014,170.36,173.187,176.74,180.117,185.749,189.29,193.646,196.396,199.058,203.502,209.277,214.876,217.538,220.915,225.271,233.928,239.505,243.861,247.513,251.957,255.334,260.966,264.507,268.863,271.525,275.045,280.292,285.638,291.27,294.647,299.465,302.985,310.938,314.524,319.87,323.423,326.976,331.332,334.709,337.371,341.727,345.104,347.766,352.21,354.927,357.677,360.339,365.839,371.339,376.839,382.339,385.859,388.609,391.271,402.986,407.341,410.884,415.24" svgx:width="0.26,0.52,0.52,0.51,0.4,0.52,0.4,0.4,0.51,0.25,0.5,0.44,0.25,0.51,0.51,0.79,0.26,0.51,0.26,0.31,0.44,0.25,0.25,0.79,0.49,0.26,0.32,0.31,0.51,0.33,0.4,0.25,0.25,0.4,0.52,0.51,0.25,0.31,0.4,0.79,0.51,0.4,0.33,0.4,0.31,0.51,0.33,0.4,0.25,0.32,0.49,0.49,0.51,0.31,0.44,0.32,0.75,0.33,0.49,0.32,0.32,0.4,0.31,0.25,0.4,0.31,0.25,0.4,0.25,0.25,0.25,0.5,0.5,0.5,0.5,0.32,0.25,0.25,1.07,0.4,0.33,0.4,0.25" style="fill:rgb(23,22,21);font-family:AGaramondPro-Regular;font-size:11.0px;stroke:none;">influenced by humidity, moisture, and temperature (Souty-Grosset et al. 1988). There </text>
  </g>
  <g begin="text">
   <text y="426.293" x="52.441,56.885,60.427,64.783,67.379,70.096,72.923,76.113,80.469,83.065,88.73,91.557,95.11,98.487,103.833,107.682,112.5,115.096,120.673,125.117,128.769,133.213,141.87,146.226,149.603,153.959,157.611,161.164,163.76,171.02,176.685,179.512,183.912,189.577,192.173,197.838,202.194,204.911,210.488,213.084,215.911,219.464,224.81,230.387,235.733,241.332,243.928,248.284,251.837,255.214,259.658,265.158,267.875,270.702,274.255,279.92,288.577,292.933,298.708,302.085,304.681,309.125,314.9,320.499,323.095,326.747,331.191,336.966,341.872,346.228,348.824,353.18,357.932,363.509,367.953,373.728,377.281,380.108,385.454,391.229,393.979,396.575,401.69,407.322" svgx:width="0.4,0.33,0.4,0.25,0.25,0.26,0.29,0.4,0.25,0.51,0.26,0.32,0.31,0.49,0.33,0.44,0.25,0.51,0.4,0.33,0.4,0.79,0.4,0.31,0.4,0.33,0.32,0.25,0.66,0.51,0.26,0.4,0.51,0.25,0.51,0.4,0.25,0.51,0.25,0.26,0.32,0.49,0.51,0.49,0.51,0.25,0.4,0.32,0.31,0.4,0.5,0.25,0.26,0.32,0.51,0.79,0.4,0.52,0.31,0.25,0.4,0.52,0.51,0.25,0.33,0.4,0.52,0.45,0.4,0.25,0.4,0.43,0.51,0.4,0.52,0.32,0.26,0.49,0.52,0.25,0.25,0.49,0.51,0.4" style="fill:rgb(23,22,21);font-family:AGaramondPro-Regular;font-size:11.0px;stroke:none;">are life history parameters which help isopod establishment and range expansion. Suc</text>
  </g>
  <g begin="text">
   <text y="426.293" x="411.756" svgx:width="0.32" style="fill:rgb(23,22,21);font-family:AGaramondPro-Regular;font-size:11.0px;stroke:none;">-</text>
  </g>
  <g begin="text">
   <text y="439.493" x="52.441,56.841,61.197,64.75,68.303,71.493,77.125,79.842,82.658,86.211,91.788,96.144,100.544,103.371,107.727,111.28,114.03,116.846,119.673,125.448,128.264,132.708,138.307,143.906,146.733,150.11,152.937,158.283,164.058,166.868,170.245,175.591,178.407,181.784,187.449,191.805,194.621,199.967,208.624,214.399,217.226,221.911,227.257,230.799,235.155,237.971,242.415,248.19,253.789,256.605,262.204,266.56,269.937,273.589,276.416,279.793,282.62,287.306,292.652,296.193,300.549,303.365,306.555,310.911,315.267,320.866,323.693,329.468,334.374,337.19,342.855,347.299,352.799,355.626,359.003,362.556,365.306,368.122,373.787,378.231,382.917,387.273,390.089,395.688,400.044,404.73,409.086" svgx:width="0.4,0.4,0.32,0.32,0.29,0.51,0.25,0.25,0.32,0.51,0.4,0.4,0.26,0.4,0.32,0.25,0.25,0.26,0.52,0.25,0.4,0.51,0.51,0.26,0.31,0.26,0.49,0.52,0.25,0.31,0.49,0.25,0.31,0.51,0.4,0.25,0.49,0.79,0.52,0.26,0.43,0.49,0.33,0.4,0.25,0.4,0.52,0.51,0.25,0.51,0.4,0.31,0.33,0.26,0.31,0.26,0.43,0.49,0.33,0.4,0.25,0.29,0.4,0.4,0.51,0.26,0.52,0.45,0.25,0.51,0.4,0.5,0.26,0.31,0.32,0.25,0.25,0.51,0.4,0.43,0.4,0.25,0.51,0.4,0.43,0.4,0.25" style="fill:rgb(23,22,21);font-family:AGaramondPro-Regular;font-size:11.0px;stroke:none;">cessful species, in addition to the omnivore and detritivore feeding habits, have devel</text>
  </g>
  <g begin="text">
   <text y="439.493" x="411.756" svgx:width="0.32" style="fill:rgb(23,22,21);font-family:AGaramondPro-Regular;font-size:11.0px;stroke:none;">-</text>
  </g>
  <g begin="text">
   <text y="452.693" x="52.441,57.787,63.364,67.72,73.319,76.586,80.139,84.495,89.181,93.537,97.189,101.633,104.35,107.617,112.061,117.66,122.346,126.79,132.565,135.942,140.386,145.292,149.648,154.994,160.626,164.179,167.446,170.988,175.344,180.921,184.506,189.852,195.451,201.083,205.483,208.86,211.687,216.373,220.729,223.996,227.549,230.926,234.578,239.022,242.399,246.755,251.661,254.488,258.844,262.397,265.147,268.414,271.967,277.599,281.999,287.664,290.931,295.375,298.928,302.195,307.772,312.216,315.956,319.333,324.998,329.354,335.129,340.475,345.381,349.737,355.512,359.868,363.421,366.248,369.801,372.551,375.818,384.475,390.107,392.824,396.201,399.028,403.714,409.06" svgx:width="0.49,0.51,0.4,0.51,0.25,0.32,0.4,0.43,0.4,0.33,0.4,0.25,0.25,0.4,0.51,0.43,0.4,0.52,0.31,0.4,0.45,0.4,0.49,0.51,0.32,0.25,0.33,0.4,0.51,0.33,0.49,0.51,0.51,0.4,0.31,0.26,0.43,0.4,0.25,0.32,0.31,0.33,0.4,0.31,0.4,0.45,0.26,0.4,0.32,0.25,0.25,0.32,0.51,0.4,0.51,0.25,0.4,0.32,0.25,0.51,0.4,0.33,0.31,0.51,0.4,0.52,0.49,0.45,0.4,0.52,0.4,0.32,0.26,0.32,0.25,0.25,0.79,0.51,0.25,0.31,0.26,0.43,0.49,0.25" style="fill:rgb(23,22,21);font-family:AGaramondPro-Regular;font-size:11.0px;stroke:none;">oped several advantageous reproductive strategies, such as parthenogenesis, multivol</text>
  </g>
  <g begin="text">
   <text y="452.693" x="411.756" svgx:width="0.32" style="fill:rgb(23,22,21);font-family:AGaramondPro-Regular;font-size:11.0px;stroke:none;">-</text>
  </g>
  <g begin="text">
   <text y="465.893" x="52.441,55.818,58.645,64.42,68.776,71.526,72.802,75.629,79.006,83.362,86.948,92.294,97.871,102.315,105.967,108.794,112.171,116.053,118.803,121.553,122.829,126.382,131.959,136.315,139.967,148.624,151.374,152.65,156.203,159.58,164.926,168.578,173.022,177.928,182.284,185.034,187.784,189.06,193.504,199.279,204.878,207.628,208.904,214.569,217.396,222.302,227.967,230.717,231.993,237.339,243.477,247.03,252.607,256.259,259.086,264.861,269.767,272.517,273.793,279.568,285.2,293.857,299.357,303.713,306.705,309.455,312.205,313.481,321.291,327.066,332.665,337.021,340.673,343.423,344.699,348.252,351.629,355.171,359.527,363.08,366.633,369.823,375.455,378.172,380.922,382.198,389.391,393.747,398.191,401.568,407.233,411.589,415.241" svgx:width="0.31,0.26,0.52,0.4,0.25,0.55,0.26,0.31,0.4,0.33,0.49,0.51,0.4,0.33,0.26,0.31,0.44,0.25,0.25,0.55,0.32,0.51,0.4,0.33,0.79,0.25,0.55,0.32,0.31,0.49,0.33,0.4,0.45,0.4,0.25,0.25,0.55,0.4,0.52,0.51,0.25,0.55,0.51,0.26,0.45,0.51,0.25,0.55,0.49,0.56,0.32,0.51,0.33,0.26,0.52,0.45,0.25,0.55,0.52,0.51,0.79,0.5,0.4,0.33,0.25,0.25,0.55,0.75,0.52,0.51,0.4,0.33,0.25,0.55,0.32,0.31,0.33,0.4,0.32,0.32,0.29,0.51,0.25,0.25,0.55,0.66,0.4,0.4,0.31,0.51,0.4,0.33,0.25" style="fill:rgb(23,22,21);font-family:AGaramondPro-Regular;font-size:11.0px;stroke:none;">tine iteroparity, sperm storage, and high offspring number. Under stressful weather </text>
  </g>
  <g begin="text">
   <text y="479.093" x="52.441,56.841,62.187,67.962,73.561,76.388,79.765,82.592,87.938,93.713,97.266,100.016,101.219,104.046,109.821,115.42,118.247,122.999,125.826,131.425,137.057,141.501,144.218,147.771,150.521,151.724,156.124,160.568,166.343,169.093,170.296,178.953,184.299,189.898,192.725,195.915,200.733,203.483,204.686,208.063,213.728,218.084,220.911,224.563,227.313,228.517,232.059,236.415,241.992,245.578,250.924,256.523,262.155,266.555,269.932,272.759,277.445,281.801,284.551,285.754,291.1,296.732,300.109,305.686,311.318,314.695,317.445,318.65,322.17,327.747,333.412,337.768,343.543,348.889,352.266,357.084,362.661,365.488,369.888,372.638,373.842,379.419,382.136,386.58,390.133,393.51,396.337,400.737,403.564,406.941,411.759,415.279" svgx:width="0.4,0.49,0.52,0.51,0.26,0.31,0.26,0.49,0.52,0.32,0.25,0.55,0.26,0.52,0.51,0.26,0.43,0.26,0.51,0.51,0.4,0.25,0.32,0.25,0.55,0.4,0.4,0.52,0.25,0.55,0.79,0.49,0.51,0.26,0.29,0.44,0.25,0.55,0.31,0.51,0.4,0.26,0.33,0.25,0.55,0.33,0.4,0.51,0.33,0.49,0.51,0.51,0.4,0.31,0.26,0.43,0.4,0.25,0.55,0.49,0.51,0.31,0.51,0.51,0.31,0.25,0.55,0.32,0.51,0.51,0.4,0.52,0.49,0.31,0.44,0.51,0.26,0.4,0.25,0.55,0.51,0.25,0.4,0.32,0.31,0.26,0.4,0.26,0.31,0.44,0.32,0.25" style="fill:rgb(23,22,21);font-family:AGaramondPro-Regular;font-size:11.0px;stroke:none;">conditions individuals can modify their reproductive output (phenotypic plasticity) </text>
  </g>
  <g begin="text">
   <text y="492.293" x="52.441,55.818,61.164,63.914,64.744,67.571,73.346,77.746,81.288,85.644,90.088,93.641,97.997,100.747,101.578,105.131,110.763,114.613,119.365,122.192,126.877,131.321,134.038,136.788,137.624,143.201,146.787,152.133,157.633,162.077,167.577,170.404,173.121,175.948,179.325,184.143,186.893,187.722,191.242,199.91,205.256,208.908,214.683,220.315,226.09,230.996,233.746,234.577,239.021,244.796,250.395,253.81,263.402,267.846,271.498,276.998,282.63,286.282,291.188,293.938,294.769,300.269,305.769,311.269,316.769,320.289,323.039,325.789,326.625,334.281,336.998,339.825,348.482,352.926,356.303,360.659,363.409,364.239,368.639,374.304,378.748,384.523,389.429,393.785,396.535,397.371,406.028,410.472,415.29" svgx:width="0.31,0.49,0.25,0.55,0.26,0.52,0.4,0.33,0.4,0.4,0.32,0.4,0.25,0.55,0.32,0.51,0.33,0.43,0.26,0.43,0.4,0.25,0.25,0.55,0.51,0.33,0.49,0.5,0.4,0.5,0.26,0.25,0.26,0.31,0.44,0.25,0.55,0.32,0.81,0.49,0.33,0.52,0.51,0.52,0.45,0.25,0.55,0.4,0.52,0.51,0.25,0.96,0.4,0.33,0.5,0.51,0.33,0.45,0.25,0.55,0.5,0.5,0.5,0.5,0.32,0.25,0.25,0.55,0.7,0.25,0.26,0.79,0.4,0.31,0.4,0.25,0.55,0.4,0.51,0.4,0.52,0.45,0.4,0.25,0.55,0.79,0.4,0.44,0.25" style="fill:rgb(23,22,21);font-family:AGaramondPro-Regular;font-size:11.0px;stroke:none;">to increase survival probability (Hornung and Warburg 1998). Climate change may </text>
  </g>
  <g begin="text">
   <text y="505.493" x="52.441,55.268,61.043,66.785,72.417,76.773,82.548,86.948,91.304,93.625,97.167,101.523,107.1,110.685,116.031,121.63,127.262,131.662,135.039,137.866,143.212,148.987,151.308,154.685,160.35,163.936,169.282,174.914,179.82,185.485,187.806,190.633,196.408,202.007,204.834,208.375,212.731,217.131,220.508,222.829,227.185,233.323,237.679,242.079,245.456,249.009,251.759,254.08,257.633,263.265,267.665,273.33,275.651,280.095,283.648,285.969,289.159,294.505,299.851,305.45,307.771,313.238,318.87,323.314,326.031,328.858,332.235,337.053,339.374,342.894,348.471,351.188,355.632,361.407,364.784,367.105,372.011,375.597,380.811,388.071,391.448,397.113,399.434,403.878,409.653,415.252" svgx:width="0.26,0.52,0.52,0.51,0.4,0.52,0.4,0.4,0.25,0.33,0.4,0.51,0.33,0.49,0.51,0.51,0.4,0.31,0.26,0.49,0.52,0.25,0.31,0.51,0.33,0.49,0.51,0.45,0.51,0.25,0.26,0.52,0.51,0.26,0.33,0.4,0.4,0.31,0.25,0.4,0.56,0.4,0.4,0.31,0.32,0.25,0.25,0.32,0.51,0.4,0.51,0.25,0.4,0.32,0.25,0.29,0.49,0.49,0.51,0.25,0.5,0.51,0.4,0.25,0.26,0.31,0.44,0.25,0.32,0.51,0.25,0.4,0.52,0.31,0.25,0.45,0.33,0.49,0.66,0.31,0.51,0.25,0.4,0.52,0.51,0.25" style="fill:rgb(23,22,21);font-family:AGaramondPro-Regular;font-size:11.0px;stroke:none;">influence reproduction through indirect effects, such as food quality (plant growth and </text>
  </g>
  <g begin="text">
   <text y="518.693" x="52.441,57.908,63.54,67.984,70.701,73.528,76.905,81.723,85.243,87.993,88.851,92.371,99.333,104.965,108.518,114.183,117.56,122.906,128.681,131.431,132.289,136.733,142.508,148.107,150.857,151.715,160.515,164.959,168.512,172.065,176.509,179.226,181.943,184.693,185.551,191.051,196.551,202.051,207.551,211.071,213.821,216.571,217.429,229.144,233.5,236.25,237.108,241.508,247.14,250.792,254.333,258.689,264.464,267.841,270.591,271.449,275.849,278.566,281.393,290.05,294.494,297.871,302.227,304.977,305.835,310.235,315.9,320.344,326.119,331.025,335.381,338.131,338.989,342.366,345.908,350.264,356.039,361.638,364.388,365.246,369.646,374.992,380.624,383.341,388.94,391.69,392.548,396.992,403.13,407.486,411.886,415.263" svgx:width="0.5,0.51,0.4,0.25,0.26,0.31,0.44,0.32,0.25,0.55,0.32,0.64,0.51,0.32,0.51,0.31,0.49,0.52,0.25,0.55,0.4,0.52,0.51,0.25,0.55,0.81,0.4,0.32,0.32,0.4,0.25,0.25,0.25,0.55,0.5,0.5,0.5,0.5,0.32,0.25,0.25,0.55,1.07,0.4,0.25,0.55,0.4,0.51,0.33,0.33,0.4,0.52,0.31,0.25,0.55,0.4,0.25,0.26,0.79,0.4,0.31,0.4,0.25,0.55,0.4,0.51,0.4,0.52,0.45,0.4,0.25,0.55,0.31,0.33,0.4,0.52,0.51,0.25,0.55,0.4,0.49,0.51,0.25,0.51,0.25,0.55,0.4,0.56,0.4,0.4,0.31,0.25" style="fill:rgb(23,22,21);font-family:AGaramondPro-Regular;font-size:11.0px;stroke:none;">quality) (Rushton and Hassall 1983). The current climate change trend could affect </text>
  </g>
  <g begin="text">
   <text y="531.893" x="52.441,55.994,61.626,66.026,71.691,74.826,78.203,81.855,86.299,89.126,92.503,96.056,98.806,101.941,107.056,112.633,116.989,121.389,124.216,128.572,132.125,135.26,142.52,145.347,148.724,154.389,157.524,164.784,167.611,173.21,177.566,181.218,184.353,187.73,193.076,195.793,200.149,203.801,208.245,214.02,218.42,222.776,225.911,228.628,231.455,240.112,242.939,246.316,249.869,252.619,255.754,261.419,264.246,269.152,274.817,279.173,282.825,285.96,289.502,293.858,299.435,303.02,308.366,313.965,319.597,323.997,327.374,330.201,334.887,339.243,342.378,347.724,353.356,356.733,362.31,367.942,371.319,374.069,377.204,381.648,387.423,393.022,396.157,403.417,406.244,409.621,415.286" svgx:width="0.32,0.51,0.4,0.51,0.25,0.31,0.33,0.4,0.26,0.31,0.32,0.25,0.25,0.49,0.51,0.4,0.4,0.26,0.4,0.32,0.25,0.66,0.26,0.31,0.51,0.25,0.66,0.26,0.51,0.4,0.33,0.25,0.31,0.49,0.25,0.4,0.33,0.4,0.52,0.4,0.4,0.25,0.25,0.26,0.79,0.26,0.31,0.32,0.25,0.25,0.51,0.26,0.45,0.51,0.4,0.33,0.25,0.33,0.4,0.51,0.33,0.49,0.51,0.51,0.4,0.31,0.26,0.43,0.4,0.25,0.49,0.51,0.31,0.51,0.51,0.31,0.25,0.25,0.4,0.52,0.51,0.25,0.66,0.26,0.31,0.51,0.25" style="fill:rgb(23,22,21);font-family:AGaramondPro-Regular;font-size:11.0px;stroke:none;">such traits. Species with wider tolerance limits, higher reproductive output, and with </text>
  </g>
  <g begin="text">
   <text y="545.093" x="52.441,55.818,61.483,65.839,68.512,72.956,78.456,81.283,84.0,86.827,90.204,95.022,97.695,103.041,106.231,108.904,112.457,118.034,122.39,126.042,134.699,137.372,140.925,144.302,149.648,153.3,157.744,162.65,167.006,169.679,173.199,178.314,183.946,188.093,193.725,199.027,201.854,204.527,208.971,214.746,220.345,223.018,229.937,232.764,237.12,242.026,244.743,249.099,252.751,255.424,260.924,266.424,271.924,277.424,280.944,283.617,289.282,293.726,298.412,302.768,305.441,310.941,315.297,318.674,322.051,326.407,330.059,332.732,337.132,342.797,347.241,353.016,357.416,361.772,365.325,367.998,371.188,376.534,380.186,382.859,386.412,392.044,395.894,400.646,403.473,408.159,412.603,415.32" svgx:width="0.31,0.51,0.4,0.25,0.4,0.5,0.26,0.25,0.26,0.31,0.44,0.25,0.49,0.29,0.25,0.32,0.51,0.4,0.33,0.79,0.25,0.32,0.31,0.49,0.33,0.4,0.45,0.4,0.25,0.32,0.49,0.51,0.38,0.51,0.48,0.26,0.25,0.4,0.52,0.51,0.25,0.64,0.26,0.4,0.45,0.25,0.4,0.33,0.25,0.5,0.5,0.5,0.5,0.32,0.25,0.51,0.4,0.43,0.4,0.25,0.5,0.4,0.31,0.31,0.4,0.33,0.25,0.4,0.51,0.4,0.52,0.4,0.4,0.32,0.25,0.29,0.49,0.33,0.25,0.32,0.51,0.33,0.43,0.26,0.43,0.4,0.25,0.25" style="fill:rgb(23,22,21);font-family:AGaramondPro-Regular;font-size:11.0px;stroke:none;">the ability of sperm storage (Suzuki and Ziegler 2005) have better chances for survival </text>
  </g>
  <g begin="text">
   <text y="558.293" x="52.441,56.885,62.66,68.259,71.009,71.861,76.767,81.123,86.469,91.375,95.027,99.471,105.048,110.713,113.54,117.94,122.384,125.101,127.851,128.704,133.06,137.812,143.389,147.833,153.608,157.161,159.988,165.334,171.109,173.859,176.609,177.461,181.905,187.68,193.279,196.029,196.882,205.539,208.366,213.272,218.937,222.314,225.064,225.916,230.316,235.662,241.437,244.814,248.466,251.293,256.793,262.425,265.802,270.158,272.908,273.76,277.137,282.483,285.233,286.091,289.468,295.133,299.489,302.239,303.091,308.756,314.102,322.759,328.105,333.011,337.367,343.142,345.969,349.522,353.966,357.343,360.17,365.516,371.291,374.041,374.894,380.24,383.43,386.18,387.038,389.865,393.418,398.764,404.341,409.687,415.286" svgx:width="0.4,0.52,0.51,0.25,0.55,0.45,0.4,0.49,0.45,0.33,0.4,0.51,0.51,0.26,0.4,0.4,0.25,0.25,0.55,0.4,0.43,0.51,0.4,0.52,0.32,0.26,0.49,0.52,0.25,0.25,0.55,0.4,0.52,0.51,0.25,0.55,0.79,0.26,0.45,0.51,0.31,0.25,0.55,0.4,0.49,0.52,0.31,0.33,0.26,0.5,0.51,0.31,0.4,0.25,0.55,0.31,0.49,0.25,0.55,0.31,0.51,0.4,0.25,0.55,0.51,0.49,0.79,0.49,0.45,0.4,0.52,0.26,0.32,0.4,0.31,0.26,0.49,0.52,0.25,0.55,0.49,0.29,0.25,0.55,0.26,0.32,0.49,0.51,0.49,0.51,0.25" style="fill:rgb(23,22,21);font-family:AGaramondPro-Regular;font-size:11.0px;stroke:none;">and geographical expansion, and might contribute to the homogenisation of isopod </text>
  </g>
  <g begin="text">
   <text y="571.493" x="52.441,55.631,60.075,65.707,71.482,75.926,79.105,86.365,91.711,95.209,100.808,104.328,111.588,114.415,120.014,124.37,127.12,130.299,135.414,141.046,145.446,151.111,154.29,159.867,165.532,169.888,175.663,181.009,189.666,194.022,199.797,204.241,207.42,213.085,217.529,222.215,226.571,229.75,234.194,236.911,240.453,244.809,249.253,254.852,259.67,262.849,268.349,272.705,277.061,282.836,286.015,291.614,296.96,301.36,306.992,315.649,320.005,325.78,329.157,333.513,339.112,342.291,345.118,350.893,354.072,359.704,363.356,368.856,373.3,379.075,382.254,385.796,390.152,395.058,397.885,403.231,409.006,412.559,415.309" svgx:width="0.29,0.4,0.51,0.52,0.4,0.25,0.66,0.49,0.33,0.51,0.32,0.66,0.26,0.51,0.4,0.25,0.25,0.49,0.51,0.4,0.51,0.25,0.51,0.51,0.4,0.52,0.49,0.79,0.4,0.52,0.4,0.25,0.51,0.4,0.43,0.4,0.25,0.4,0.25,0.33,0.4,0.4,0.51,0.44,0.25,0.5,0.4,0.4,0.52,0.25,0.51,0.49,0.4,0.51,0.79,0.4,0.52,0.31,0.4,0.51,0.25,0.26,0.52,0.25,0.51,0.33,0.5,0.4,0.52,0.25,0.33,0.4,0.45,0.26,0.49,0.52,0.32,0.25,0.25" style="fill:rgb(23,22,21);font-family:AGaramondPro-Regular;font-size:11.0px;stroke:none;">fauna word-wide. Such phenomena have already been documented in urban regions, </text>
  </g>
  <g begin="text">
   <text y="584.693" x="52.441,59.701,65.366,69.722,73.264,77.62,80.535,86.2,90.644,96.144,98.971,102.348,106.792,110.169,113.084,117.99,122.346,128.121,132.477,136.129,140.573,143.29,146.117,149.67,153.047,156.6,159.515,163.959,169.734,175.333,178.248,181.075,186.85,190.227,193.813,199.159,204.758,210.39,214.79,219.146,224.745,227.495,230.41,233.963,239.309,247.966,252.322,255.699,258.526,267.183,271.539,275.092,278.007,282.363,287.049,291.405,297.18,300.095,302.922,308.697,313.383,317.827,321.38,324.207,328.893,333.249,336.164,339.717,345.294,349.65,354.05,356.877,361.233,364.786,367.701,373.333,376.886,381.242,384.157,387.534,393.199,397.555,400.47,406.135" svgx:width="0.66,0.51,0.4,0.33,0.4,0.25,0.51,0.4,0.5,0.26,0.31,0.4,0.31,0.25,0.45,0.4,0.52,0.4,0.33,0.4,0.25,0.26,0.32,0.31,0.32,0.25,0.4,0.52,0.51,0.25,0.26,0.52,0.31,0.33,0.49,0.51,0.51,0.4,0.4,0.51,0.25,0.25,0.32,0.49,0.79,0.4,0.31,0.26,0.79,0.4,0.32,0.25,0.4,0.43,0.4,0.52,0.25,0.26,0.52,0.43,0.4,0.32,0.26,0.43,0.4,0.25,0.32,0.51,0.4,0.4,0.26,0.4,0.32,0.25,0.51,0.32,0.4,0.25,0.31,0.51,0.4,0.25,0.51,0.51" style="fill:rgb(23,22,21);font-family:AGaramondPro-Regular;font-size:11.0px;stroke:none;">where habitat generalists and introduced, sometimes even invasive species use the hu</text>
  </g>
  <g begin="text">
   <text y="584.693" x="411.756" svgx:width="0.32" style="fill:rgb(23,22,21);font-family:AGaramondPro-Regular;font-size:11.0px;stroke:none;">-</text>
  </g>
  <g begin="text">
   <text y="597.893" x="52.441,61.098,65.542,71.317,74.837,83.494,87.938,93.537,97.893,100.269,104.625,110.4,115.152,117.979,121.565,126.911,132.686,141.343,145.699,151.474,154.851,157.227,161.671,165.224,167.6,172.044,174.42,176.542,180.095,185.672,189.324,192.151,197.926,202.832,206.352,211.852,217.198,221.642,225.14,230.607,233.192,235.568,238.758,244.104,247.756,250.132,253.685,259.317,263.717,268.117,272.473,276.026,279.579,282.769,288.401,291.118,293.494,297.85,301.403,304.78,309.224,314.724,317.441,320.268,323.821,329.486,338.143,342.499,348.274,351.651,354.027,357.547,365.698,370.142,373.882,377.259,382.924,390.184,394.628,397.455,400.832,405.188,407.564,411.92,415.297" svgx:width="0.79,0.4,0.52,0.32,0.79,0.4,0.51,0.4,0.25,0.4,0.52,0.43,0.26,0.33,0.49,0.52,0.79,0.4,0.52,0.31,0.25,0.4,0.32,0.25,0.4,0.25,0.23,0.32,0.51,0.33,0.26,0.52,0.45,0.32,0.5,0.49,0.4,0.33,0.51,0.23,0.25,0.29,0.49,0.33,0.25,0.32,0.51,0.4,0.4,0.4,0.32,0.32,0.29,0.51,0.25,0.25,0.4,0.32,0.31,0.4,0.5,0.25,0.26,0.32,0.51,0.79,0.4,0.52,0.31,0.25,0.32,0.75,0.4,0.33,0.31,0.51,0.66,0.4,0.26,0.31,0.4,0.25,0.4,0.31,0.25" style="fill:rgb(23,22,21);font-family:AGaramondPro-Regular;font-size:11.0px;stroke:none;">man-made environment as a ‘spring-board’ for successful establishment (Garthwaite et </text>
  </g>
  <g begin="text">
   <text y="611.093" x="52.441,56.885,59.602,62.352,65.52,71.02,76.52,82.02,87.52,90.27,93.438,102.106,107.452,111.104,116.879,122.511,128.286,133.192,136.36,140.804,146.579,152.178,155.346,160.725,164.872,167.589,172.033,176.718,181.074,185.474,189.621,192.789,198.289,203.789,209.289,214.789,217.539,220.213,226.263,230.707,234.446,237.823,242.267,244.984,247.701,252.519,255.687,260.043,263.42,266.588,271.032,273.749,276.499,279.667,285.167,290.667,296.167,301.667,305.187,307.937,311.105,322.82,327.176,330.344,335.921,339.507,344.853,349.253,353.609,357.162,360.715,363.883,366.71,370.263,373.431,379.008,382.594,387.94,396.597,401.943,405.32,409.676,415.275" svgx:width="0.4,0.25,0.25,0.25,0.5,0.5,0.5,0.5,0.25,0.25,0.81,0.49,0.33,0.52,0.51,0.52,0.45,0.25,0.4,0.52,0.51,0.25,0.49,0.38,0.25,0.4,0.43,0.4,0.4,0.38,0.25,0.5,0.5,0.5,0.5,0.25,0.25,0.66,0.4,0.33,0.31,0.4,0.25,0.25,0.44,0.25,0.4,0.31,0.25,0.4,0.25,0.25,0.25,0.5,0.5,0.5,0.5,0.32,0.25,0.25,1.07,0.4,0.25,0.51,0.33,0.49,0.4,0.4,0.32,0.32,0.25,0.26,0.32,0.25,0.51,0.33,0.49,0.79,0.49,0.31,0.4,0.51,0.25" style="fill:rgb(23,22,21);font-family:AGaramondPro-Regular;font-size:11.0px;stroke:none;">al. 1995, Hornung and Szlavecz 2003, Tartally et al. 2004). The process is promoted </text>
  </g>
  <g begin="text">
   <text y="624.293" x="52.441,57.875,62.693,65.443,67.082,72.747,78.379,87.036,91.48,97.255,100.775,105.219,108.046,113.645,118.001,123.6,126.35,127.989,133.588,136.415,139.968,145.545,149.901,153.553,157.106,161.55,164.267,167.017,169.767,171.406,174.947,179.303,184.88,189.236,193.68,197.057,201.413,207.012,209.762,211.401,214.228,220.003,223.38,226.966,232.312,237.911,243.543,247.943,251.32,254.147,259.493,265.268,268.821,271.571,274.321,275.96,280.404,286.179,291.778,294.528,296.167,300.567,304.109,308.465,312.909,316.286,319.113,324.459,330.234,332.984,334.623,339.969,343.159,345.909,347.548,353.323,357.745,364.18,366.93,369.68,371.319,374.509,378.953,383.639,388.985,394.617,398.269,402.713,408.213,410.93,415.286" svgx:width="0.5,0.44,0.25,0.55,0.51,0.51,0.79,0.4,0.52,0.32,0.4,0.26,0.51,0.4,0.51,0.25,0.55,0.51,0.26,0.32,0.51,0.4,0.33,0.32,0.4,0.25,0.25,0.25,0.55,0.33,0.4,0.51,0.4,0.4,0.31,0.4,0.51,0.25,0.55,0.26,0.52,0.31,0.33,0.49,0.51,0.51,0.4,0.31,0.26,0.49,0.52,0.32,0.25,0.25,0.55,0.4,0.52,0.51,0.25,0.55,0.4,0.33,0.4,0.4,0.31,0.26,0.49,0.52,0.25,0.55,0.49,0.29,0.25,0.55,0.52,0.4,0.66,0.25,0.25,0.55,0.29,0.4,0.43,0.49,0.51,0.33,0.4,0.5,0.25,0.4,0.25" style="fill:rgb(23,22,21);font-family:AGaramondPro-Regular;font-size:11.0px;stroke:none;">by human-aided dispersal, repeated introductions, and creation of new, favourable </text>
  </g>
 </g>
</svg>
