<?xml version="1.0" encoding="UTF-8"?>
<svg height="780.957" width="481.684" xmlns="http://www.w3.org/2000/svg">
 <g style="fill:none;">
  <text x="467.199" y="154.50199999999995" svg_rhmargin="471.019" style="fill:#ffffff;font-family:HFHFKG+MyriadPro-BoldCond;font-size:8.97px;font-style:NORMAL;font-weight:bold;">8</text>
  <text svg_rhmargin="467.532" transform="matrix(0.0,1.0,-1.0,0.0,639.044,-296.02)" x="467.532" y="171.512" style="fill:#0092cf;font-family:HFHEKL+MyriadPro-Cond;font-size:0.0px;font-style:NORMAL;font-weight:normal;">r</text>
  <text svg_rhmargin="467.532" transform="matrix(0.0,1.0,-1.0,0.0,641.762,-293.302)" x="467.532" y="174.23" style="fill:#0092cf;font-family:HFHEKL+MyriadPro-Cond;font-size:0.0px;font-style:NORMAL;font-weight:normal;">s</text>
  <text svg_rhmargin="467.532" transform="matrix(0.0,1.0,-1.0,0.0,644.929,-290.135)" x="467.532" y="177.397" style="fill:#0092cf;font-family:HFHEKL+MyriadPro-Cond;font-size:0.0px;font-style:NORMAL;font-weight:normal;">t</text>
  <text svg_rhmargin="467.532" transform="matrix(0.0,1.0,-1.0,0.0,647.723,-287.341)" x="467.532" y="180.191" style="fill:#0092cf;font-family:HFHEKL+MyriadPro-Cond;font-size:0.0px;font-style:NORMAL;font-weight:normal;">a</text>
  <text svg_rhmargin="467.532" transform="matrix(0.0,1.0,-1.0,0.0,651.712,-283.352)" x="467.532" y="184.18" style="fill:#0092cf;font-family:HFHEKL+MyriadPro-Cond;font-size:0.0px;font-style:NORMAL;font-weight:normal;">.</text>
  <text svg_rhmargin="467.532" transform="matrix(0.0,1.0,-1.0,0.0,653.839,-281.225)" x="467.532" y="186.307" style="fill:#0092cf;font-family:HFHEKL+MyriadPro-Cond;font-size:0.0px;font-style:NORMAL;font-weight:normal;">r</text>
  <text svg_rhmargin="467.532" transform="matrix(0.0,1.0,-1.0,0.0,656.404,-278.66)" x="467.532" y="188.872" style="fill:#0092cf;font-family:HFHEKL+MyriadPro-Cond;font-size:0.0px;font-style:NORMAL;font-weight:normal;">o</text>
  <text svg_rhmargin="467.532" transform="matrix(0.0,1.0,-1.0,0.0,660.517,-274.547)" x="467.532" y="192.985" style="fill:#0092cf;font-family:HFHEKL+MyriadPro-Cond;font-size:0.0px;font-style:NORMAL;font-weight:normal;">y</text>
  <text svg_rhmargin="467.532" transform="matrix(0.0,1.0,-1.0,0.0,664.207,-270.857)" x="467.532" y="196.675" style="fill:#0092cf;font-family:HFHEKL+MyriadPro-Cond;font-size:0.0px;font-style:NORMAL;font-weight:normal;">a</text>
  <text svg_rhmargin="467.532" transform="matrix(0.0,1.0,-1.0,0.0,668.196,-266.868)" x="467.532" y="200.664" style="fill:#0092cf;font-family:HFHEKL+MyriadPro-Cond;font-size:0.0px;font-style:NORMAL;font-weight:normal;">l</text>
  <text svg_rhmargin="467.532" transform="matrix(0.0,1.0,-1.0,0.0,670.289,-264.775)" x="467.532" y="202.757" style="fill:#0092cf;font-family:HFHEKL+MyriadPro-Cond;font-size:0.0px;font-style:NORMAL;font-weight:normal;">s</text>
  <text svg_rhmargin="467.532" transform="matrix(0.0,1.0,-1.0,0.0,673.456,-261.608)" x="467.532" y="205.924" style="fill:#0092cf;font-family:HFHEKL+MyriadPro-Cond;font-size:0.0px;font-style:NORMAL;font-weight:normal;">o</text>
  <text svg_rhmargin="467.532" transform="matrix(0.0,1.0,-1.0,0.0,677.653,-257.411)" x="467.532" y="210.121" style="fill:#0092cf;font-family:HFHEKL+MyriadPro-Cond;font-size:0.0px;font-style:NORMAL;font-weight:normal;">c</text>
  <text svg_rhmargin="467.532" transform="matrix(0.0,1.0,-1.0,0.0,680.963,-254.101)" x="467.532" y="213.431" style="fill:#0092cf;font-family:HFHEKL+MyriadPro-Cond;font-size:0.0px;font-style:NORMAL;font-weight:normal;">i</text>
  <text svg_rhmargin="467.532" transform="matrix(0.0,1.0,-1.0,0.0,682.979,-252.085)" x="467.532" y="215.447" style="fill:#0092cf;font-family:HFHEKL+MyriadPro-Cond;font-size:0.0px;font-style:NORMAL;font-weight:normal;">e</text>
  <text svg_rhmargin="467.532" transform="matrix(0.0,1.0,-1.0,0.0,686.957,-248.107)" x="467.532" y="219.425" style="fill:#0092cf;font-family:HFHEKL+MyriadPro-Cond;font-size:0.0px;font-style:NORMAL;font-weight:normal;">t</text>
  <text svg_rhmargin="467.532" transform="matrix(0.0,1.0,-1.0,0.0,689.865,-245.199)" x="467.532" y="222.333" style="fill:#0092cf;font-family:HFHEKL+MyriadPro-Cond;font-size:0.0px;font-style:NORMAL;font-weight:normal;">y</text>
  <text svg_rhmargin="467.532" transform="matrix(0.0,1.0,-1.0,0.0,693.657,-241.407)" x="467.532" y="226.125" style="fill:#0092cf;font-family:HFHEKL+MyriadPro-Cond;font-size:0.0px;font-style:NORMAL;font-weight:normal;">p</text>
  <text svg_rhmargin="467.532" transform="matrix(0.0,1.0,-1.0,0.0,698.029,-237.035)" x="467.532" y="230.497" style="fill:#0092cf;font-family:HFHEKL+MyriadPro-Cond;font-size:0.0px;font-style:NORMAL;font-weight:normal;">u</text>
  <text svg_rhmargin="467.532" transform="matrix(0.0,1.0,-1.0,0.0,702.391,-232.673)" x="467.532" y="234.859" style="fill:#0092cf;font-family:HFHEKL+MyriadPro-Cond;font-size:0.0px;font-style:NORMAL;font-weight:normal;">b</text>
  <text svg_rhmargin="467.532" transform="matrix(0.0,1.0,-1.0,0.0,706.763,-228.301)" x="467.532" y="239.231" style="fill:#0092cf;font-family:HFHEKL+MyriadPro-Cond;font-size:0.0px;font-style:NORMAL;font-weight:normal;">l</text>
  <text svg_rhmargin="467.532" transform="matrix(0.0,1.0,-1.0,0.0,708.857,-226.207)" x="467.532" y="241.325" style="fill:#0092cf;font-family:HFHEKL+MyriadPro-Cond;font-size:0.0px;font-style:NORMAL;font-weight:normal;">i</text>
  <text svg_rhmargin="467.532" transform="matrix(0.0,1.0,-1.0,0.0,710.873,-224.191)" x="467.532" y="243.341" style="fill:#0092cf;font-family:HFHEKL+MyriadPro-Cond;font-size:0.0px;font-style:NORMAL;font-weight:normal;">s</text>
  <text svg_rhmargin="467.532" transform="matrix(0.0,1.0,-1.0,0.0,714.04,-221.024)" x="467.532" y="246.508" style="fill:#0092cf;font-family:HFHEKL+MyriadPro-Cond;font-size:0.0px;font-style:NORMAL;font-weight:normal;">h</text>
  <text svg_rhmargin="467.532" transform="matrix(0.0,1.0,-1.0,0.0,718.478,-216.586)" x="467.532" y="250.946" style="fill:#0092cf;font-family:HFHEKL+MyriadPro-Cond;font-size:0.0px;font-style:NORMAL;font-weight:normal;">i</text>
  <text svg_rhmargin="467.532" transform="matrix(0.0,1.0,-1.0,0.0,720.495,-214.569)" x="467.532" y="252.963" style="fill:#0092cf;font-family:HFHEKL+MyriadPro-Cond;font-size:0.0px;font-style:NORMAL;font-weight:normal;">n</text>
  <text svg_rhmargin="467.532" transform="matrix(0.0,1.0,-1.0,0.0,724.933,-210.131)" x="467.532" y="257.401" style="fill:#0092cf;font-family:HFHEKL+MyriadPro-Cond;font-size:0.0px;font-style:NORMAL;font-weight:normal;">g</text>
  <text svg_rhmargin="467.532" transform="matrix(0.0,1.0,-1.0,0.0,729.064,-206.0)" x="467.532" y="261.532" style="fill:#0092cf;font-family:HFHEKL+MyriadPro-Cond;font-size:0.0px;font-style:NORMAL;font-weight:normal;">.</text>
  <text svg_rhmargin="467.532" transform="matrix(0.0,1.0,-1.0,0.0,731.187,-203.877)" x="467.532" y="263.655" style="fill:#0092cf;font-family:HFHEKL+MyriadPro-Cond;font-size:0.0px;font-style:NORMAL;font-weight:normal;">o</text>
  <text svg_rhmargin="467.532" transform="matrix(0.0,1.0,-1.0,0.0,735.385,-199.679)" x="467.532" y="267.853" style="fill:#0092cf;font-family:HFHEKL+MyriadPro-Cond;font-size:0.0px;font-style:NORMAL;font-weight:normal;">r</text>
  <text svg_rhmargin="467.532" transform="matrix(0.0,1.0,-1.0,0.0,737.949,-197.115)" x="467.532" y="270.417" style="fill:#0092cf;font-family:HFHEKL+MyriadPro-Cond;font-size:0.0px;font-style:NORMAL;font-weight:normal;">g</text>
  <text svg_rhmargin="467.532" transform="matrix(0.0,1.0,-1.0,0.0,747.808,-187.256)" x="467.532" y="280.276" style="fill:#0092cf;font-family:HFHFKH+MyriadPro-CondIt;font-size:0.0px;font-style:ITALIC;font-weight:normal;">P</text>
  <text svg_rhmargin="467.532" transform="matrix(0.0,1.0,-1.0,0.0,752.083,-182.981)" x="467.532" y="284.551" style="fill:#0092cf;font-family:HFHFKH+MyriadPro-CondIt;font-size:0.0px;font-style:ITALIC;font-weight:normal;">h</text>
  <text svg_rhmargin="467.532" transform="matrix(0.0,1.0,-1.0,0.0,756.394,-178.67)" x="467.532" y="288.862" style="fill:#0092cf;font-family:HFHFKH+MyriadPro-CondIt;font-size:0.0px;font-style:ITALIC;font-weight:normal;">i</text>
  <text svg_rhmargin="467.532" transform="matrix(0.0,1.0,-1.0,0.0,758.356,-176.708)" x="467.532" y="290.824" style="fill:#0092cf;font-family:HFHFKH+MyriadPro-CondIt;font-size:0.0px;font-style:ITALIC;font-weight:normal;">l</text>
  <text svg_rhmargin="467.532" transform="matrix(0.0,1.0,-1.0,0.0,759.976,-175.088)" x="467.532" y="292.444" style="fill:#0092cf;font-family:HFHFKH+MyriadPro-CondIt;font-size:0.0px;font-style:ITALIC;font-weight:normal;">.</text>
  <text svg_rhmargin="467.532" transform="matrix(0.0,1.0,-1.0,0.0,763.948,-171.116)" x="467.532" y="296.416" style="fill:#0092cf;font-family:HFHFKH+MyriadPro-CondIt;font-size:0.0px;font-style:ITALIC;font-weight:normal;">T</text>
  <text svg_rhmargin="467.532" transform="matrix(0.0,1.0,-1.0,0.0,767.234,-167.83)" x="467.532" y="299.702" style="fill:#0092cf;font-family:HFHFKH+MyriadPro-CondIt;font-size:0.0px;font-style:ITALIC;font-weight:normal;">r</text>
  <text svg_rhmargin="467.532" transform="matrix(0.0,1.0,-1.0,0.0,769.718,-165.346)" x="467.532" y="302.186" style="fill:#0092cf;font-family:HFHFKH+MyriadPro-CondIt;font-size:0.0px;font-style:ITALIC;font-weight:normal;">a</text>
  <text svg_rhmargin="467.532" transform="matrix(0.0,1.0,-1.0,0.0,773.885,-161.179)" x="467.532" y="306.353" style="fill:#0092cf;font-family:HFHFKH+MyriadPro-CondIt;font-size:0.0px;font-style:ITALIC;font-weight:normal;">n</text>
  <text svg_rhmargin="467.532" transform="matrix(0.0,1.0,-1.0,0.0,778.196,-156.868)" x="467.532" y="310.664" style="fill:#0092cf;font-family:HFHFKH+MyriadPro-CondIt;font-size:0.0px;font-style:ITALIC;font-weight:normal;">s</text>
  <text svg_rhmargin="467.532" transform="matrix(0.0,1.0,-1.0,0.0,781.174,-153.89)" x="467.532" y="313.642" style="fill:#0092cf;font-family:HFHFKH+MyriadPro-CondIt;font-size:0.0px;font-style:ITALIC;font-weight:normal;">.</text>
  <text svg_rhmargin="467.532" transform="matrix(0.0,1.0,-1.0,0.0,785.147,-149.917)" x="467.532" y="317.615" style="fill:#0092cf;font-family:HFHFKH+MyriadPro-CondIt;font-size:0.0px;font-style:ITALIC;font-weight:normal;">R</text>
  <text svg_rhmargin="467.532" transform="matrix(0.0,1.0,-1.0,0.0,789.512,-145.552)" x="467.532" y="321.98" style="fill:#0092cf;font-family:HFHFKH+MyriadPro-CondIt;font-size:0.0px;font-style:ITALIC;font-weight:normal;">.</text>
  <text svg_rhmargin="467.532" transform="matrix(0.0,1.0,-1.0,0.0,793.22,-141.844)" x="467.532" y="325.688" style="fill:#0092cf;font-family:HFHFKH+MyriadPro-CondIt;font-size:0.0px;font-style:ITALIC;font-weight:normal;">S</text>
  <text svg_rhmargin="467.532" transform="matrix(0.0,1.0,-1.0,0.0,797.019,-138.045)" x="467.532" y="329.487" style="fill:#0092cf;font-family:HFHFKH+MyriadPro-CondIt;font-size:0.0px;font-style:ITALIC;font-weight:normal;">o</text>
  <text svg_rhmargin="467.532" transform="matrix(0.0,1.0,-1.0,0.0,801.095,-133.969)" x="467.532" y="333.563" style="fill:#0092cf;font-family:HFHFKH+MyriadPro-CondIt;font-size:0.0px;font-style:ITALIC;font-weight:normal;">c</text>
  <text svg_rhmargin="467.532" transform="matrix(0.0,1.0,-1.0,0.0,804.165,-130.899)" x="467.532" y="336.633" style="fill:#0092cf;font-family:HFHFKH+MyriadPro-CondIt;font-size:0.0px;font-style:ITALIC;font-weight:normal;">.</text>
  <text svg_rhmargin="467.532" transform="matrix(0.0,1.0,-1.0,0.0,808.138,-126.926)" x="467.532" y="340.606" style="fill:#0092cf;font-family:HFHFKH+MyriadPro-CondIt;font-size:0.0px;font-style:ITALIC;font-weight:normal;">A</text>
  <text svg_rhmargin="467.532" transform="matrix(0.0,1.0,-1.0,0.0,814.515,-120.549)" x="467.532" y="346.983" style="fill:#0092cf;font-family:HFHFKG+MyriadPro-BoldCond;font-size:0.0px;font-style:NORMAL;font-weight:bold;">3</text>
  <text svg_rhmargin="467.532" transform="matrix(0.0,1.0,-1.0,0.0,818.474,-116.59)" x="467.532" y="350.942" style="fill:#0092cf;font-family:HFHFKG+MyriadPro-BoldCond;font-size:0.0px;font-style:NORMAL;font-weight:bold;">7</text>
  <text svg_rhmargin="467.532" transform="matrix(0.0,1.0,-1.0,0.0,822.335,-112.729)" x="467.532" y="354.803" style="fill:#0092cf;font-family:HFHFKG+MyriadPro-BoldCond;font-size:0.0px;font-style:NORMAL;font-weight:bold;">6</text>
  <text svg_rhmargin="467.532" transform="matrix(0.0,1.0,-1.0,0.0,827.007,-108.057)" x="467.532" y="359.475" style="fill:#0092cf;font-family:HFHEKL+MyriadPro-Cond;font-size:0.0px;font-style:NORMAL;font-weight:normal;">:</text>
  <text svg_rhmargin="467.532" transform="matrix(0.0,1.0,-1.0,0.0,830.85,-104.214)" x="467.532" y="363.318" style="fill:#0092cf;font-family:HFHEKL+MyriadPro-Cond;font-size:0.0px;font-style:NORMAL;font-weight:normal;">2</text>
  <text svg_rhmargin="467.532" transform="matrix(0.0,1.0,-1.0,0.0,834.531,-100.533)" x="467.532" y="366.999" style="fill:#0092cf;font-family:HFHEKL+MyriadPro-Cond;font-size:0.0px;font-style:NORMAL;font-weight:normal;">0</text>
  <text svg_rhmargin="467.532" transform="matrix(0.0,1.0,-1.0,0.0,838.752,-96.312)" x="467.532" y="371.22" style="fill:#0092cf;font-family:HFHEKL+MyriadPro-Cond;font-size:0.0px;font-style:NORMAL;font-weight:normal;">1</text>
  <text svg_rhmargin="467.532" transform="matrix(0.0,1.0,-1.0,0.0,841.686,-93.378)" x="467.532" y="374.154" style="fill:#0092cf;font-family:HFHEKL+MyriadPro-Cond;font-size:0.0px;font-style:NORMAL;font-weight:normal;">7</text>
  <text svg_rhmargin="467.532" transform="matrix(0.0,1.0,-1.0,0.0,845.115,-89.949)" x="467.532" y="377.583" style="fill:#0092cf;font-family:HFHEKL+MyriadPro-Cond;font-size:0.0px;font-style:NORMAL;font-weight:normal;">0</text>
  <text svg_rhmargin="467.532" transform="matrix(0.0,1.0,-1.0,0.0,849.337,-85.727)" x="467.532" y="381.805" style="fill:#0092cf;font-family:HFHEKL+MyriadPro-Cond;font-size:0.0px;font-style:NORMAL;font-weight:normal;">1</text>
  <text svg_rhmargin="467.532" transform="matrix(0.0,1.0,-1.0,0.0,852.27,-82.794)" x="467.532" y="384.738" style="fill:#0092cf;font-family:HFHEKL+MyriadPro-Cond;font-size:0.0px;font-style:NORMAL;font-weight:normal;">7</text>
  <text svg_rhmargin="467.532" transform="matrix(0.0,1.0,-1.0,0.0,855.699,-79.365)" x="467.532" y="388.167" style="fill:#0092cf;font-family:HFHEKL+MyriadPro-Cond;font-size:0.0px;font-style:NORMAL;font-weight:normal;">6</text>
  <text svg_rhmargin="461.169" transform="matrix(0.0,1.0,-1.0,0.0,635.363,-286.975)" x="461.169" y="174.194" style="fill:#000000;font-family:HFHEEM+Palatino-Roman;font-size:0.0px;font-style:NORMAL;font-weight:normal;">.</text>
  <text svg_rhmargin="461.169" transform="matrix(0.0,1.0,-1.0,0.0,639.309,-283.029)" x="461.169" y="178.14" style="fill:#000000;font-family:HFHEEM+Palatino-Roman;font-size:0.0px;font-style:NORMAL;font-weight:normal;">.</text>
  <text svg_rhmargin="461.169" transform="matrix(0.0,1.0,-1.0,0.0,643.255,-279.083)" x="461.169" y="182.086" style="fill:#000000;font-family:HFHEEM+Palatino-Roman;font-size:0.0px;font-style:NORMAL;font-weight:normal;">.</text>
  <text svg_rhmargin="461.169" transform="matrix(0.0,1.0,-1.0,0.0,647.201,-275.137)" x="461.169" y="186.032" style="fill:#000000;font-family:HFHEEM+Palatino-Roman;font-size:0.0px;font-style:NORMAL;font-weight:normal;">.</text>
  <text svg_rhmargin="461.169" transform="matrix(0.0,1.0,-1.0,0.0,651.147,-271.191)" x="461.169" y="189.978" style="fill:#000000;font-family:HFHEEM+Palatino-Roman;font-size:0.0px;font-style:NORMAL;font-weight:normal;">.</text>
  <text svg_rhmargin="461.169" transform="matrix(0.0,1.0,-1.0,0.0,655.093,-267.245)" x="461.169" y="193.924" style="fill:#000000;font-family:HFHEEM+Palatino-Roman;font-size:0.0px;font-style:NORMAL;font-weight:normal;">.</text>
  <text svg_rhmargin="461.169" transform="matrix(0.0,1.0,-1.0,0.0,659.04,-263.298)" x="461.169" y="197.871" style="fill:#000000;font-family:HFHEEM+Palatino-Roman;font-size:0.0px;font-style:NORMAL;font-weight:normal;">.</text>
  <text svg_rhmargin="461.169" transform="matrix(0.0,1.0,-1.0,0.0,662.986,-259.352)" x="461.169" y="201.817" style="fill:#000000;font-family:HFHEEM+Palatino-Roman;font-size:0.0px;font-style:NORMAL;font-weight:normal;">.</text>
  <text svg_rhmargin="461.169" transform="matrix(0.0,1.0,-1.0,0.0,666.932,-255.406)" x="461.169" y="205.763" style="fill:#000000;font-family:HFHEEM+Palatino-Roman;font-size:0.0px;font-style:NORMAL;font-weight:normal;">.</text>
  <text svg_rhmargin="461.169" transform="matrix(0.0,1.0,-1.0,0.0,670.878,-251.46)" x="461.169" y="209.709" style="fill:#000000;font-family:HFHEEM+Palatino-Roman;font-size:0.0px;font-style:NORMAL;font-weight:normal;">.</text>
  <text svg_rhmargin="461.169" transform="matrix(0.0,1.0,-1.0,0.0,674.824,-247.514)" x="461.169" y="213.655" style="fill:#000000;font-family:HFHEEM+Palatino-Roman;font-size:0.0px;font-style:NORMAL;font-weight:normal;">.</text>
  <text svg_rhmargin="461.169" transform="matrix(0.0,1.0,-1.0,0.0,678.77,-243.568)" x="461.169" y="217.601" style="fill:#000000;font-family:HFHEEM+Palatino-Roman;font-size:0.0px;font-style:NORMAL;font-weight:normal;">.</text>
  <text svg_rhmargin="461.169" transform="matrix(0.0,1.0,-1.0,0.0,682.716,-239.622)" x="461.169" y="221.547" style="fill:#000000;font-family:HFHEEM+Palatino-Roman;font-size:0.0px;font-style:NORMAL;font-weight:normal;">.</text>
  <text svg_rhmargin="461.169" transform="matrix(0.0,1.0,-1.0,0.0,686.662,-235.676)" x="461.169" y="225.493" style="fill:#000000;font-family:HFHEEM+Palatino-Roman;font-size:0.0px;font-style:NORMAL;font-weight:normal;">.</text>
  <text svg_rhmargin="461.169" transform="matrix(0.0,1.0,-1.0,0.0,690.608,-231.73)" x="461.169" y="229.439" style="fill:#000000;font-family:HFHEEM+Palatino-Roman;font-size:0.0px;font-style:NORMAL;font-weight:normal;">.</text>
  <text svg_rhmargin="461.169" transform="matrix(0.0,1.0,-1.0,0.0,694.555,-227.783)" x="461.169" y="233.386" style="fill:#000000;font-family:HFHEEM+Palatino-Roman;font-size:0.0px;font-style:NORMAL;font-weight:normal;">.</text>
  <text svg_rhmargin="461.169" transform="matrix(0.0,1.0,-1.0,0.0,698.501,-223.837)" x="461.169" y="237.332" style="fill:#000000;font-family:HFHEEM+Palatino-Roman;font-size:0.0px;font-style:NORMAL;font-weight:normal;">.</text>
  <text svg_rhmargin="461.169" transform="matrix(0.0,1.0,-1.0,0.0,702.447,-219.891)" x="461.169" y="241.278" style="fill:#000000;font-family:HFHEEM+Palatino-Roman;font-size:0.0px;font-style:NORMAL;font-weight:normal;">.</text>
  <text svg_rhmargin="461.169" transform="matrix(0.0,1.0,-1.0,0.0,706.393,-215.945)" x="461.169" y="245.224" style="fill:#000000;font-family:HFHEEM+Palatino-Roman;font-size:0.0px;font-style:NORMAL;font-weight:normal;">.</text>
  <text svg_rhmargin="461.169" transform="matrix(0.0,1.0,-1.0,0.0,710.339,-211.999)" x="461.169" y="249.17" style="fill:#000000;font-family:HFHEEM+Palatino-Roman;font-size:0.0px;font-style:NORMAL;font-weight:normal;">.</text>
  <text svg_rhmargin="461.169" transform="matrix(0.0,1.0,-1.0,0.0,714.285,-208.053)" x="461.169" y="253.116" style="fill:#000000;font-family:HFHEEM+Palatino-Roman;font-size:0.0px;font-style:NORMAL;font-weight:normal;">.</text>
  <text svg_rhmargin="461.169" transform="matrix(0.0,1.0,-1.0,0.0,718.231,-204.107)" x="461.169" y="257.062" style="fill:#000000;font-family:HFHEEM+Palatino-Roman;font-size:0.0px;font-style:NORMAL;font-weight:normal;">.</text>
  <text svg_rhmargin="461.169" transform="matrix(0.0,1.0,-1.0,0.0,722.177,-200.161)" x="461.169" y="261.008" style="fill:#000000;font-family:HFHEEM+Palatino-Roman;font-size:0.0px;font-style:NORMAL;font-weight:normal;">.</text>
  <text svg_rhmargin="461.169" transform="matrix(0.0,1.0,-1.0,0.0,726.123,-196.215)" x="461.169" y="264.954" style="fill:#000000;font-family:HFHEEM+Palatino-Roman;font-size:0.0px;font-style:NORMAL;font-weight:normal;">.</text>
  <text svg_rhmargin="461.169" transform="matrix(0.0,1.0,-1.0,0.0,730.07,-192.268)" x="461.169" y="268.901" style="fill:#000000;font-family:HFHEEM+Palatino-Roman;font-size:0.0px;font-style:NORMAL;font-weight:normal;">.</text>
  <text svg_rhmargin="461.169" transform="matrix(0.0,1.0,-1.0,0.0,734.016,-188.322)" x="461.169" y="272.847" style="fill:#000000;font-family:HFHEEM+Palatino-Roman;font-size:0.0px;font-style:NORMAL;font-weight:normal;">.</text>
  <text svg_rhmargin="461.169" transform="matrix(0.0,1.0,-1.0,0.0,737.962,-184.376)" x="461.169" y="276.793" style="fill:#000000;font-family:HFHEEM+Palatino-Roman;font-size:0.0px;font-style:NORMAL;font-weight:normal;">.</text>
  <text svg_rhmargin="461.169" transform="matrix(0.0,1.0,-1.0,0.0,741.908,-180.43)" x="461.169" y="280.739" style="fill:#000000;font-family:HFHEEM+Palatino-Roman;font-size:0.0px;font-style:NORMAL;font-weight:normal;">.</text>
  <text svg_rhmargin="461.169" transform="matrix(0.0,1.0,-1.0,0.0,745.854,-176.484)" x="461.169" y="284.685" style="fill:#000000;font-family:HFHEEM+Palatino-Roman;font-size:0.0px;font-style:NORMAL;font-weight:normal;">.</text>
  <text svg_rhmargin="461.169" transform="matrix(0.0,1.0,-1.0,0.0,749.8,-172.538)" x="461.169" y="288.631" style="fill:#000000;font-family:HFHEEM+Palatino-Roman;font-size:0.0px;font-style:NORMAL;font-weight:normal;">.</text>
  <text svg_rhmargin="461.169" transform="matrix(0.0,1.0,-1.0,0.0,753.746,-168.592)" x="461.169" y="292.577" style="fill:#000000;font-family:HFHEEM+Palatino-Roman;font-size:0.0px;font-style:NORMAL;font-weight:normal;">.</text>
  <text svg_rhmargin="461.169" transform="matrix(0.0,1.0,-1.0,0.0,757.692,-164.646)" x="461.169" y="296.523" style="fill:#000000;font-family:HFHEEM+Palatino-Roman;font-size:0.0px;font-style:NORMAL;font-weight:normal;">.</text>
  <text svg_rhmargin="461.169" transform="matrix(0.0,1.0,-1.0,0.0,761.638,-160.7)" x="461.169" y="300.469" style="fill:#000000;font-family:HFHEEM+Palatino-Roman;font-size:0.0px;font-style:NORMAL;font-weight:normal;">.</text>
  <text svg_rhmargin="461.169" transform="matrix(0.0,1.0,-1.0,0.0,765.584,-156.754)" x="461.169" y="304.415" style="fill:#000000;font-family:HFHEEM+Palatino-Roman;font-size:0.0px;font-style:NORMAL;font-weight:normal;">.</text>
  <text svg_rhmargin="461.169" transform="matrix(0.0,1.0,-1.0,0.0,769.531,-152.807)" x="461.169" y="308.362" style="fill:#000000;font-family:HFHEEM+Palatino-Roman;font-size:0.0px;font-style:NORMAL;font-weight:normal;">.</text>
  <text svg_rhmargin="461.169" transform="matrix(0.0,1.0,-1.0,0.0,773.477,-148.861)" x="461.169" y="312.308" style="fill:#000000;font-family:HFHEEM+Palatino-Roman;font-size:0.0px;font-style:NORMAL;font-weight:normal;">.</text>
  <text svg_rhmargin="461.169" transform="matrix(0.0,1.0,-1.0,0.0,777.423,-144.915)" x="461.169" y="316.254" style="fill:#000000;font-family:HFHEEM+Palatino-Roman;font-size:0.0px;font-style:NORMAL;font-weight:normal;">.</text>
  <text svg_rhmargin="461.169" transform="matrix(0.0,1.0,-1.0,0.0,781.369,-140.969)" x="461.169" y="320.2" style="fill:#000000;font-family:HFHEEM+Palatino-Roman;font-size:0.0px;font-style:NORMAL;font-weight:normal;">.</text>
  <text svg_rhmargin="461.169" transform="matrix(0.0,1.0,-1.0,0.0,785.315,-137.023)" x="461.169" y="324.146" style="fill:#000000;font-family:HFHEEM+Palatino-Roman;font-size:0.0px;font-style:NORMAL;font-weight:normal;">.</text>
  <text svg_rhmargin="461.169" transform="matrix(0.0,1.0,-1.0,0.0,789.261,-133.077)" x="461.169" y="328.092" style="fill:#000000;font-family:HFHEEM+Palatino-Roman;font-size:0.0px;font-style:NORMAL;font-weight:normal;">.</text>
  <text svg_rhmargin="461.169" transform="matrix(0.0,1.0,-1.0,0.0,793.207,-129.131)" x="461.169" y="332.038" style="fill:#000000;font-family:HFHEEM+Palatino-Roman;font-size:0.0px;font-style:NORMAL;font-weight:normal;">.</text>
  <text svg_rhmargin="461.169" transform="matrix(0.0,1.0,-1.0,0.0,797.153,-125.185)" x="461.169" y="335.984" style="fill:#000000;font-family:HFHEEM+Palatino-Roman;font-size:0.0px;font-style:NORMAL;font-weight:normal;">.</text>
  <text svg_rhmargin="461.169" transform="matrix(0.0,1.0,-1.0,0.0,801.099,-121.239)" x="461.169" y="339.93" style="fill:#000000;font-family:HFHEEM+Palatino-Roman;font-size:0.0px;font-style:NORMAL;font-weight:normal;">.</text>
  <text svg_rhmargin="461.169" transform="matrix(0.0,1.0,-1.0,0.0,805.046,-117.292)" x="461.169" y="343.877" style="fill:#000000;font-family:HFHEEM+Palatino-Roman;font-size:0.0px;font-style:NORMAL;font-weight:normal;">.</text>
  <text svg_rhmargin="461.169" transform="matrix(0.0,1.0,-1.0,0.0,808.992,-113.346)" x="461.169" y="347.823" style="fill:#000000;font-family:HFHEEM+Palatino-Roman;font-size:0.0px;font-style:NORMAL;font-weight:normal;">.</text>
  <text svg_rhmargin="461.169" transform="matrix(0.0,1.0,-1.0,0.0,812.938,-109.4)" x="461.169" y="351.769" style="fill:#000000;font-family:HFHEEM+Palatino-Roman;font-size:0.0px;font-style:NORMAL;font-weight:normal;">.</text>
  <text svg_rhmargin="461.169" transform="matrix(0.0,1.0,-1.0,0.0,816.884,-105.454)" x="461.169" y="355.715" style="fill:#000000;font-family:HFHEEM+Palatino-Roman;font-size:0.0px;font-style:NORMAL;font-weight:normal;">.</text>
  <text svg_rhmargin="461.169" transform="matrix(0.0,1.0,-1.0,0.0,820.83,-101.508)" x="461.169" y="359.661" style="fill:#000000;font-family:HFHEEM+Palatino-Roman;font-size:0.0px;font-style:NORMAL;font-weight:normal;">.</text>
  <text svg_rhmargin="461.169" transform="matrix(0.0,1.0,-1.0,0.0,824.776,-97.562)" x="461.169" y="363.607" style="fill:#000000;font-family:HFHEEM+Palatino-Roman;font-size:0.0px;font-style:NORMAL;font-weight:normal;">.</text>
  <text svg_rhmargin="461.169" transform="matrix(0.0,1.0,-1.0,0.0,828.722,-93.616)" x="461.169" y="367.553" style="fill:#000000;font-family:HFHEEM+Palatino-Roman;font-size:0.0px;font-style:NORMAL;font-weight:normal;">.</text>
  <text svg_rhmargin="461.169" transform="matrix(0.0,1.0,-1.0,0.0,832.668,-89.67)" x="461.169" y="371.499" style="fill:#000000;font-family:HFHEEM+Palatino-Roman;font-size:0.0px;font-style:NORMAL;font-weight:normal;">.</text>
  <text svg_rhmargin="461.169" transform="matrix(0.0,1.0,-1.0,0.0,836.614,-85.724)" x="461.169" y="375.445" style="fill:#000000;font-family:HFHEEM+Palatino-Roman;font-size:0.0px;font-style:NORMAL;font-weight:normal;">.</text>
  <text svg_rhmargin="461.169" transform="matrix(0.0,1.0,-1.0,0.0,840.56,-81.778)" x="461.169" y="379.391" style="fill:#000000;font-family:HFHEEM+Palatino-Roman;font-size:0.0px;font-style:NORMAL;font-weight:normal;">.</text>
  <text svg_rhmargin="461.169" transform="matrix(0.0,1.0,-1.0,0.0,844.507,-77.831)" x="461.169" y="383.338" style="fill:#000000;font-family:HFHEEM+Palatino-Roman;font-size:0.0px;font-style:NORMAL;font-weight:normal;">.</text>
  <text svg_rhmargin="461.169" transform="matrix(0.0,1.0,-1.0,0.0,848.453,-73.885)" x="461.169" y="387.284" style="fill:#000000;font-family:HFHEEM+Palatino-Roman;font-size:0.0px;font-style:NORMAL;font-weight:normal;">.</text>
  <text svg_rhmargin="461.169" transform="matrix(0.0,1.0,-1.0,0.0,852.399,-69.939)" x="461.169" y="391.23" style="fill:#000000;font-family:HFHEEM+Palatino-Roman;font-size:0.0px;font-style:NORMAL;font-weight:normal;">.</text>
  <text x="55.548,60.939,65.235,68.779,71.39,76.287,81.768,85.57000000000001,87.851,90.837,95.319,97.56,102.042,105.029,107.271,109.556,114.264,116.875,121.861,127.08,129.69,135.116,139.098,143.582,148.801,151.724,154.004,156.614,161.098,164.9,167.824,170.435,175.654,180.639,182.926,185.536,193.454,198.844,203.328,207.31,210.233,212.521,217.418,220.404,222.692,227.678,230.288,234.772,239.991,242.91400000000002,245.194,247.804,251.786,256.082,261.041,265.337,268.721,273.706,275.992,280.952,283.562,288.458,293.355,301.272,303.561,306.548,310.844,314.387,317.311,319.921,322.531,325.141,329.625,334.109,337.033,339.643,344.54,349.75800000000004,352.036,355.023,357.633,362.851,365.13,368.055,372.351,375.893,383.812,387.61400000000003,389.895,394.792,397.77799999999996,400.066,404.362,409.581,414.8,419.284,424.504,428.486,432.781" y="149.56100000000004" svg_rhmargin="438.259" style="fill:#000000;font-family:HFHEEM+Palatino-Roman;font-size:8.97px;font-style:NORMAL;font-weight:normal;">periods [6,9]. Signiﬁcant lasting impact of giant iceberg bloom fertilization (in terms of enhanced</text>
  <text x="55.548,60.506,63.116,68.522,72.81700000000001,75.345,79.323,83.807,87.348,92.307,97.202,102.42,104.942,108.744,111.667,116.563,120.104,124.587,129.573,133.868,142.834,147.317,151.119,153.645,158.541,163.93,169.319,174.215,178.016,182.311,187.78900000000002,190.322,193.247,198.14200000000002,200.663,204.641,209.125,212.666,217.625,222.52,227.738,230.26,234.241,239.227,243.208,245.817,248.426,253.645,258.63,261.616,264.147,266.756,270.558,273.084,275.693,278.302,283.287,287.582,290.192,295.177,297.697,300.62,305.515,308.045,313.004,317.29900000000004,319.817,327.735,332.63,336.432,339.355,341.886,346.37,350.171,353.973,358.869,362.85,365.459,369.942,372.865,377.16,382.63800000000003,385.171,392.649,395.258,398.181,403.399,405.921,408.531,412.512,416.807,421.765,426.06,429.444,434.43" y="161.52200000000005" svg_rhmargin="438.232" style="fill:#000000;font-family:HFHEEM+Palatino-Roman;font-size:8.97px;font-style:NORMAL;font-weight:normal;">blue carbon storage—as opposed to carbon cycling) is likely to be most associated with icebergs</text>
  <text x="55.548,59.53,64.014,66.624,71.691,75.987,81.46499999999999,85.833,88.443,93.661,98.019,101.817,107.207,110.75,113.36,118.579,123.564,127.912,132.809,136.351,140.711,145.193,150.601,153.525,158.932,166.851,172.069,176.418,179.404,184.364,188.66,192.642,197.126,202.533,206.336,210.631,214.994,220.384,225.603,230.589,233.513,238.41,243.799,246.41,250.894,256.113,261.099,264.023,268.92,274.13800000000003,278.478,282.96,287.919,293.327,298.546,304.026,308.51,313.729,317.711,322.00600000000003,326.36,328.97,334.18800000000005,338.546,342.349,347.757,355.675,363.593,367.889,371.431,375.791,380.084,384.712,388.694,392.989,397.285,402.765,406.567,410.928,415.41,420.629,423.239,431.158,435.642" y="173.47400000000005" svg_rhmargin="438.251" style="fill:#000000;font-family:HFHEEM+Palatino-Roman;font-size:8.97px;font-style:NORMAL;font-weight:normal;">calved in spring or autumn (because phytoplankton abundance in summer exceeds animal</text>
  <text x="55.548,59.529,64.012,69.401,73.884,77.865,80.475,83.398,88.383,92.218,95.141,100.036,103.872,108.166,112.65,115.573,118.559,122.395,126.878,132.097,137.57500000000002,141.403,144.326,149.545,154.44,158.242,162.53699999999998,166.369,173.847,176.456,179.379,184.59699999999998,188.425,192.223,197.119,205.036,209.331,213.172,218.653,221.262,225.064,227.987,232.47,237.689,241.67,245.96499999999997,249.797,252.722,257.617,261.444,264.368,267.91,272.393,277.459,281.754,284.363,288.198,293.158,297.452,300.438,305.334,308.718,313.01300000000003,316.836,320.22,324.515,328.998,332.979,338.198,340.807,346.025,351.01,354.845,357.769,362.987,367.28200000000004,371.105,375.086,379.982,385.2,388.123,390.733,395.951,400.246,405.464,408.387,412.871,415.47999999999996,419.315,423.113,428.331,432.626,435.235" y="185.43600000000004" svg_rhmargin="438.221" style="fill:#000000;font-family:HFHEEM+Palatino-Roman;font-size:8.97px;font-style:NORMAL;font-weight:normal;">capacity to eat) and those with some distance to travel before reaching the continental shelf</text>
  <text x="55.548,60.506,63.89,68.185,72.668,77.654,79.896,82.217,89.193,91.802,94.725,99.943,104.839,110.246,115.231,120.449,122.774,126.752,131.235,134.777,139.735,144.631,149.849,152.165,156.146,161.131,165.112,167.721,170.33,175.549,180.53400000000002,182.866,185.477,190.695,194.676,198.06,202.353,206.836,210.638,214.933,218.73499999999999,221.062,226.541,230.083,232.692,237.758,242.053,247.271,249.586,254.546,259.531,261.863,266.848,269.458,273.941,279.159,282.082,284.397,287.007,290.988,295.283,300.241,304.536,307.92,312.90500000000003,315.237,318.226,323.121,326.663,334.58,339.064,341.987,344.596,349.492,354.71000000000004,357.016,362.235,366.718,371.784,376.079,378.408,383.367,387.661,391.956,397.17400000000004,399.499,403.794,407.596,410.519,413.128,421.045,425.528,428.451,432.746" y="197.38800000000003" svg_rhmargin="438.224" style="fill:#000000;font-family:HFHEEM+Palatino-Roman;font-size:8.97px;font-style:NORMAL;font-weight:normal;">break. Although carbon cycling increases driven by giant iceberg formation have been estimated</text>
  <text x="55.548,58.536,63.018,67.499,70.486,72.72800000000001,77.119,81.101,85.998,91.217,94.141,97.684,100.294,105.253,110.661,113.585,116.195,121.092,126.311,130.113,134.492,137.417,142.312,146.696,151.655,155.951,161.17,164.094,169.314,171.924,175.905,180.294,185.253,187.863,193.271,197.56599999999997,201.947,205.925,210.409,213.952,218.911,223.808,229.02599999999998,233.42,237.223,240.147,245.043,248.586,253.07,258.056,262.351,266.741,271.223,274.607,278.90200000000004,283.283,288.502,293.399,296.322,300.716,304.514,307.438,310.981,315.465,318.075,323.061,328.281,331.205,334.191,339.088,342.631,350.11,354.594,357.978,363.459,365.701,370.074,375.555,379.851,383.654,389.043,391.654,394.578,398.873,403.253,408.643,412.027,416.924,421.883,426.367,431.326,433.936" y="209.34000000000003" svg_rhmargin="438.231" style="fill:#000000;font-family:HFHEEM+Palatino-Roman;font-size:8.97px;font-style:NORMAL;font-weight:normal;">[14], contributions to benthic blue carbon storage are not straightforward, despite probable</text>
  <text x="55.547,58.156,66.074,71.462,76.358,79.9,82.823,87.306,92.525,96.506,100.801,109.767,114.25,119.469,124.94699999999999,127.181,134.659,139.555,144.962,147.571,153.049,155.293,160.511,164.806,169.101,174.579,176.823,179.746,184.64100000000002,186.874,191.833,196.128,198.367,202.348,206.831,209.44,213.421,218.828,221.437,225.92,228.843,233.138,238.616,240.869,245.765,250.98299999999998,253.226,257.709,262.927,265.17,267.663,270.272,274.253,278.548,283.506,287.801,291.185,296.17,298.412,303.37,308.355,310.597,313.206,317.188,321.482,326.441,330.736,334.12,339.105,341.598,343.839,348.798,353.281,357.083,359.692,363.494" y="221.30100000000004" svg_rhmargin="365.736" style="fill:#000000;font-family:HFHEEM+Palatino-Roman;font-size:8.97px;font-style:NORMAL;font-weight:normal;">importance—and would need to be calculated on an ‘iceberg by iceberg’ basis.</text>
  <text x="67.499,74.342,76.952,81.436,86.655,89.578,92.64,95.25,99.232,103.528,108.487,112.783,116.167,121.153,124.95500000000001,128.021,133.241,137.725,142.792,147.087,150.145,154.628,159.847,164.744,167.667,172.887,177.183,180.725,183.789,188.856,193.152,196.694,201.679,204.732,207.342,215.26,220.65,225.546,229.089,232.013,236.497,241.717,244.64000000000001,247.693,252.175,257.394,262.872,265.936,271.415,274.025,276.851,279.84,284.136,287.52,291.815,297.035,299.958,303.011,305.621,313.539,318.929,323.413,327.395,330.318,333.371,338.268,343.486,346.548,350.844,356.063,361.282,365.767,370.986,374.968,377.578,382.797,387.78200000000004,390.844,395.803,398.413,403.821,408.11600000000004,411.174,415.153,419.637,423.179,428.139,433.035" y="233.25300000000004" svg_rhmargin="438.253" style="fill:#000000;font-family:HFHEEM+Palatino-Roman;font-size:8.97px;font-style:NORMAL;font-weight:normal;">Giant icebergs have another very important and different impact on enhancing blue carbon</text>
  <text x="55.547,59.35,62.274,67.17,70.713,75.197,80.183,84.479,93.446,96.37,101.59,105.885,108.495,112.037,115.767,119.749,124.233,126.843,131.91,134.52,139.74,144.72500000000002,148.452,151.062,156.281,161.348,166.245,168.855,173.922,178.217,182.019,185.741,190.7,194.084,198.377,202.862,207.848,210.834,215.731,218.557,221.54299999999998,225.271,228.258,231.642,236.538,244.455,248.176,252.66,257.878,261.606,264.216,268.198,272.493,276.226,280.025,285.244,289.54,292.15,295.136,297.37800000000004,301.113,308.088,311.89000000000004,315.621,318.231,323.449,327.177,331.155,336.563,340.106,343.49,347.783,353.002,355.925,359.644,362.568,365.178,373.097,377.392,381.116,385.6,388.21,390.81899999999996,394.547,397.157,401.139,405.434,409.167,412.97,418.189,422.485,425.095,430.162,434.458" y="245.20600000000002" svg_rhmargin="438.26" style="fill:#000000;font-family:HFHEEM+Palatino-Roman;font-size:8.97px;font-style:NORMAL;font-weight:normal;">storage—their calving involves break-off from an ice shelf. As in current time all ice shelves</text>
  <text x="55.547,60.443,64.424,68.405,73.812,77.354,81.012,85.907,90.973,95.268,98.81,102.459,106.438,111.333,116.552,119.475,122.084,127.303,131.597,136.816,139.739,144.222,146.83100000000002,150.477,154.275,159.494,163.789,166.398,169.384,171.62599999999998,175.279,178.202,183.421,187.715,190.325,193.867,197.516,202.474,205.858,210.153,214.636,219.621,222.607,228.014,233.40300000000002,237.05,239.973,244.86800000000002,248.515,251.501,256.396,259.938,267.85499999999996,271.504,276.489,279.098,283.581,288.8,291.723,295.37,297.979,301.96,306.255,311.213,315.508,318.892,323.877,327.67900000000003,331.338,335.319,338.703,342.998,347.481,350.404,354.699,358.50100000000003,362.151,367.371,371.666,379.144,382.8,387.283,390.667,394.962,399.445,403.247,406.897,411.794,414.78,418.427,423.324,428.712,433.007" y="257.16700000000003" svg_rhmargin="438.225" style="fill:#000000;font-family:HFHEEM+Palatino-Roman;font-size:8.97px;font-style:NORMAL;font-weight:normal;">occur over continental shelf, their break-up to form giant icebergs creates new areas of open</text>
  <text x="55.547,63.026,67.51,70.434,74.73,78.272,81.66,86.142,91.102,95.998,101.065,105.36,108.742,114.132,119.028,121.952,126.248,131.467,134.391,137.001,141.486,144.096,146.706,151.691,155.067,160.286,162.896,167.883,173.102,175.712,180.697,184.073,189.463,192.847,197.743,203.223,208.631,212.612,215.536,218.147,223.213,227.50799999999998,230.873,234.675,238.971,243.455,248.414,252.71,258.19,260.432,263.833,266.857,272.07500000000005,275.453,278.377,283.596,287.891,291.273,293.883,298.367,302.17,305.093,308.479,311.465,315.761,323.23900000000003,326.625,332.106,336.402,340.384,344.868,350.347,354.643,358.445,361.834,369.752,374.649,378.033,382.32800000000003,385.701,388.625,393.844,398.328,403.546,406.923,411.406" y="269.119" svg_rhmargin="415.889" style="fill:#000000;font-family:HFHEEM+Palatino-Roman;font-size:8.97px;font-style:NORMAL;font-weight:normal;">water above potentially highly productive seabed. In the last few decades more than 10</text>
  <text svg_rhmargin="419.341" x="415.854,419.341" y="269.11699999999996" style="fill:#000000;font-family:HFHEEM+Palatino-Roman;font-size:6.97px;font-style:NORMAL;font-weight:normal;">4 </text>
  <text x="421.335,426.321" y="269.11699999999996" svg_rhmargin="434.238" style="fill:#000000;font-family:HFHEEM+Palatino-Roman;font-size:8.97px;font-style:NORMAL;font-weight:normal;">km</text>
  <text x="434.241" y="265.85900000000004" svg_rhmargin="437.728" style="fill:#000000;font-family:HFHEEM+Palatino-Roman;font-size:6.97px;font-style:NORMAL;font-weight:normal;">2</text>
  <text x="55.548,60.445,63.431,67.6,70.21,74.192,78.487,82.652,86.45,91.669,95.965,98.575,101.561,105.721,110.941,115.425,120.492,124.787,128.951,132.933,137.83,140.44,143.05,147.534,152.924,156.727,161.022,166.502,168.744,172.91,175.835,180.73000000000002,184.898,189.795,195.184,199.48,204.69799999999998,208.858,214.268,219.657,223.817,227.795,232.692,237.911,240.835,243.445,248.665,252.96,258.18,261.104,265.588,268.197,272.356,276.154,281.373,285.669,288.279,291.265,295.434,302.913,307.397,310.321,314.617,318.16,321.96200000000005,326.124,329.048,333.943,338.103,343.492,347.035,349.645,357.563,362.047,365.59,370.575,374.725,380.116,383.5,388.397,393.876,399.284,403.266,406.19,408.8,413.697,418.915,423.066,427.55,432.769" y="281.06899999999996" svg_rhmargin="438.247" style="fill:#000000;font-family:HFHEEM+Palatino-Roman;font-size:8.97px;font-style:NORMAL;font-weight:normal;">of ice shelf have collapsed, to open up continental shelf waters to primary production and</text>
  <text x="55.548,59.351,63.646,67.628,72.525,77.744,83.224,87.708,91.25,96.235,100.035,104.994,109.29,114.509,117.433,122.653,125.263,129.244,133.039,137.018,141.502,145.044,150.004,154.9,160.118,163.919,167.901,172.385,177.774,180.698,186.106,189.49,193.785,197.572,202.055,207.274,212.752,216.553,220.356,223.28,228.176,231.719,236.203,241.189,245.48399999999998,249.281,252.253,256.735,261.217,264.202,266.444,270.25,277.701,281.996,289.474,293.273,298.233,302.527,307.746,310.669,315.887,318.497,322.478,326.273,331.665,335.049,339.945,345.424,350.83,354.811,357.734,360.344,365.239,370.457,374.249,376.858,382.076,385.867,389.669,395.076,399.057,404.27500000000003,408.084,412.568,417.786,421.586,426.069,429.453,433.748" y="293.03" svg_rhmargin="438.231" style="fill:#000000;font-family:HFHEEM+Palatino-Roman;font-size:8.97px;font-style:NORMAL;font-weight:normal;">secondary benthic carbon capture and storage [18]. New benthic production in such an area</text>
  <text x="55.548,63.026,67.509,71.311,74.277,78.57,82.372,85.295,87.904,95.821,100.305,103.228,107.523,113.00099999999999,115.973,118.897,123.792,126.763,131.721,136.016,138.984,144.202,148.497,152.98,156.522,159.131,164.116,167.078,171.562" y="304.982" svg_rhmargin="176.045" style="fill:#000000;font-family:HFHEEM+Palatino-Roman;font-size:8.97px;font-style:NORMAL;font-weight:normal;">was estimated to be nearly 10</text>
  <text svg_rhmargin="179.536" x="176.049,179.536" y="304.982" style="fill:#000000;font-family:HFHEEM+Palatino-Roman;font-size:6.97px;font-style:NORMAL;font-weight:normal;">6 </text>
  <text x="181.53,184.454,189.35,194.57,199.789,204.085,207.887,210.853,215.749,218.73499999999999,221.708,225.686,230.17,233.713,238.672,243.569,248.78699999999998,251.749,257.139,261.435,264.977,267.942,272.928,277.224,281.708,285.25,288.224,291.212,296.109,299.09499999999997,302.058,309.537,314.756,317.366,321.348,326.56600000000003,329.538,334.759,339.054,343.538,347.081,349.691,354.676,357.638,362.858,367.342,369.953,372.93899999999996,375.911,379.889,384.786,390.193,392.803,398.281,401.245,406.205,410.5,413.467,417.27,420.194,425.09,428.474,432.77" y="304.982" svg_rhmargin="438.248" style="fill:#000000;font-family:HFHEEM+Palatino-Roman;font-size:8.97px;font-style:NORMAL;font-weight:normal;">tonnes of carbon per year (of which nearly half could be stored</text>
  <text svg_rhmargin="355.015" x="55.548,58.534,61.144,69.063,76.981,81.877,86.837,89.447,92.057,94.667,99.151,103.447,108.926,111.912,115.91,123.389,125.999,128.923,134.143,136.753,141.97099999999998,145.969,148.893,154.113,158.408,162.411,166.214,171.2,175.496,178.106,182.402,185.326,189.81,192.419,196.434,204.352,208.836,211.76,215.303,217.913,222.53900000000002,226.535,231.432,234.41799999999998,238.425,241.349,246.568,250.863,254.866,259.826,264.121,269.341,272.265,277.484,282.381,286.183,289.169,293.176,296.155,300.637,303.624,305.86600000000004,309.879,312.901,315.887,319.894,322.818,328.037,332.332,336.336,341.752,346.048,350.03,355.015" y="316.934" style="fill:#000000;font-family:HFHEEM+Palatino-Roman;font-size:8.97px;font-style:NORMAL;font-weight:normal;">(immobilized) within the skeletal matrix of the benthos) [6]. If the Peck </text>
  <text x="359.022,362.51,365.496,369.503,373.485" y="316.934" svg_rhmargin="375.978" style="fill:#000000;font-family:HFHLDE+Palatino-Italic;font-size:8.97px;font-style:ITALIC;font-weight:normal;">et al</text>
  <text x="375.978,378.22,382.233,385.219,389.701,394.183,397.169,401.175,405.469,409.267,412.192,414.802,422.722,427.204,430.129,434.422" y="316.934" svg_rhmargin="438.224" style="fill:#000000;font-family:HFHEEM+Palatino-Roman;font-size:8.97px;font-style:NORMAL;font-weight:normal;">. [18] estimates</text>
  <text x="55.548,60.032,63.416,67.711,71.012,75.494,80.884,86.274,89.658,94.554,99.182,101.792,109.71,114.194,117.118,121.414,124.024,129.00900000000001,132.295,136.274,141.17,144.713,148.097,152.39,156.372,159.296,161.53799999999998,164.84,167.764,172.983,177.278,180.58,185.799,190.095,197.573,200.868,205.764,211.154,215.45,220.66799999999998,223.973,231.452,235.936,238.86,243.156,246.698,249.997,252.607,256.902,259.889,262.812,266.117,271.077,276.062,279.357,283.339,287.823,290.433,295.5,298.11,303.33,308.315,311.619,314.543,319.762,324.057,327.359,332.578,336.874,344.35200000000003,347.647,352.131,356.615,361.099,365.582,367.084,372.07" y="328.895" svg_rhmargin="379.987" style="fill:#000000;font-family:HFHEEM+Palatino-Roman;font-size:8.97px;font-style:NORMAL;font-weight:normal;">are approximately correct, the new open water left by calving the new 5000 km</text>
  <text svg_rhmargin="383.449" x="379.962,383.449" y="328.895" style="fill:#000000;font-family:HFHEEM+Palatino-Roman;font-size:6.97px;font-style:NORMAL;font-weight:normal;">2 </text>
  <text x="387.243,389.851,393.832,398.126,403.083,407.377,410.761,415.74600000000004,419.05,422.039,425.423,430.319" y="328.895" svg_rhmargin="438.236" style="fill:#000000;font-family:HFHEEM+Palatino-Roman;font-size:8.97px;font-style:NORMAL;font-weight:normal;">iceberg from</text>
  <text svg_rhmargin="162.972" x="55.547,61.027,65.511,69.053,72.856,77.152,82.37,85.711,92.068,95.405,99.383,104.28,109.687,112.297,117.77499999999999,121.109,126.095,130.391,135.61,139.906,143.448,147.933,150.856,155.15099999999998,158.489,162.972" y="340.847" style="fill:#000000;font-family:HFHEEM+Palatino-Roman;font-size:8.97px;font-style:NORMAL;font-weight:normal;">Larsen C could generate 7 </text>
  <text svg_rhmargin="171.489" x="164.459,171.488" y="340.847" style="fill:#000000;font-family:HFHHHM+MTSY;font-size:8.97px;font-style:NORMAL;font-weight:normal;">× </text>
  <text x="172.983,177.465" y="340.847" svg_rhmargin="181.948" style="fill:#000000;font-family:HFHEEM+Palatino-Roman;font-size:8.97px;font-style:NORMAL;font-weight:normal;">10</text>
  <text svg_rhmargin="185.431" x="181.944,185.43099999999998" y="340.847" style="fill:#000000;font-family:HFHEEM+Palatino-Roman;font-size:6.97px;font-style:NORMAL;font-weight:normal;">4 </text>
  <text x="189.27,192.194,197.09,202.31,207.529,211.825,215.62699999999998,218.962,223.859,226.845,230.177" y="340.847" svg_rhmargin="236.534" style="fill:#000000;font-family:HFHEEM+Palatino-Roman;font-size:8.97px;font-style:NORMAL;font-weight:normal;">tonnes of C</text>
  <text svg_rhmargin="275.687" x="236.529,238.556,244.711,250.866,254.671,258.524,260.551,262.578,264.604,268.088,271.426,275.687" y="340.847" style="fill:#000000;font-family:HFHEEM+Palatino-Roman;font-size:6.97px;font-style:NORMAL;font-weight:normal;">immobilized </text>
  <text x="277.713,283.103,287.399,290.941,292.43,297.416,301.712,306.196,309.738,313.081,316.07,320.365,325.432,329.728,334.946,338.278,345.757,348.367,351.291,356.511,361.407,366.815,369.738,373.07,377.052,381.948,387.168,390.97,393.58,399.06,403.356,406.898,411.382,414.306,416.916,421.813,427.031,430.363,435.26" y="340.847" svg_rhmargin="438.246" style="fill:#000000;font-family:HFHEEM+Palatino-Roman;font-size:8.97px;font-style:NORMAL;font-weight:normal;">per year (even without consideration of</text>
  <text x="55.547,60.03,65.509,70.987,73.597,76.52,79.129,84.024,89.243,93.726,96.335,98.884,101.869,106.164,109.706,112.629,115.238,117.847,120.457,124.94,129.423,132.346,134.955,139.851,145.069,147.619,151.914,154.74,157.726,162.02,166.002,168.925,172.726,175.712,177.95399999999998,180.518,187.978,192.874,200.352,204.647,209.713,214.008,216.888,219.13,221.685,224.671,229.566,234.973,238.51500000000001,241.066,246.052,250.347,254.83,258.372,262.17400000000004,264.726,269.208,272.194,275.117,279.412,282.95399999999995,285.515,288.438,293.656,297.951,300.506,305.984,310.467,314.009,317.811,322.106,327.324,329.882,336.858,339.413,343.896,349.114,354.592,357.152,362.63,365.189,367.799,371.78,376.075,378.639,382.441,387.659,391.954,394.563,397.549,400.107,404.085,408.981,411.59,414.199,418.683,424.071,427.873,432.168,435.97" y="352.799" svg_rhmargin="438.212" style="fill:#000000;font-family:HFHEEM+Palatino-Roman;font-size:8.97px;font-style:NORMAL;font-weight:normal;">additional fertilization effects). However, four years after the Larsen A and B ice shelf collapses,</text>
  <text svg_rhmargin="89.017" x="55.547,60.533,63.143,65.754,68.364,70.974,76.193,81.179,85.475,89.017" y="364.76" style="fill:#000000;font-family:HFHEEM+Palatino-Roman;font-size:8.97px;font-style:NORMAL;font-weight:normal;">Fillinger </text>
  <text x="91.818,95.307,98.293,101.094,105.076" y="364.76" svg_rhmargin="107.569" style="fill:#000000;font-family:HFHLDE+Palatino-Italic;font-size:8.97px;font-style:ITALIC;font-weight:normal;">et al</text>
  <text x="107.568,109.81,112.626,115.613,120.095,124.577,127.563,130.364,133.748,138.043,143.431,148.327,151.869,154.792,159.087,164.565,167.367,169.86,172.783,180.261,185.157,188.143,190.943,193.866,198.76100000000002,201.561,204.484,209.703,213.087,217.382,221.677,224.662,229.558,232.167,237.645,240.448,243.057,248.276,252.257,255.641,259.935,264.419,268.22,272.515,276.317,278.81,281.627,284.236,289.454,292.256,297.214,301.509,306.727,309.65,314.869,317.478,321.459,324.264,328.062,333.451,338.347,343.565,348.55,352.845,355.643,361.124,365.419,370.637,374.439,377.048,379.971,384.956,387.766,392.249,397.467,402.945,405.748,410.706,413.315,418.211,426.128,430.612,434.413" y="364.76" svg_rhmargin="438.215" style="fill:#000000;font-family:HFHEEM+Palatino-Roman;font-size:8.97px;font-style:NORMAL;font-weight:normal;">. [19] reported ‘two- to threefold increases’ in benthic sponge density and biomass</text>
  <text svg_rhmargin="418.034" x="55.546,58.533,63.017,68.236,73.714,76.219,79.143,84.362,88.847,91.77,94.274,98.072,103.462,108.358,113.578,118.564,122.86,126.662,129.168,136.647,140.943,144.327,148.62199999999999,151.132,154.056,159.275,163.57,166.07,171.549,176.446,184.364,186.974,192.193,196.677,201.897,204.82,207.324,211.306,216.203,224.121,229.511,234.407,239.626,243.922,249.142,252.065,254.569,259.466,262.452,264.956,267.88,273.099,277.394,279.894,282.88,287.364,292.772,297.991,302.476,305.462,307.704,310.205,315.705,320.924,323.534,327.336,329.843,333.641,339.049,344.035,349.021,353.317,357.119,360.043,363.845,366.352,369.276,374.495,378.979,381.902,384.407,387.331,392.55,396.845,399.355,404.771,409.067,413.049,418.034" y="376.713" style="fill:#000000;font-family:HFHEEM+Palatino-Roman;font-size:8.97px;font-style:NORMAL;font-weight:normal;">(and that sponges were the dominant component of the fauna). This suggests that the Peck </text>
  <text x="420.544,424.033,427.019,429.523,433.505" y="376.713" svg_rhmargin="435.998" style="fill:#000000;font-family:HFHLDE+Palatino-Italic;font-size:8.97px;font-style:ITALIC;font-weight:normal;">et al</text>
  <text x="435.998" y="376.713" svg_rhmargin="438.24" style="fill:#000000;font-family:HFHEEM+Palatino-Roman;font-size:8.97px;font-style:NORMAL;font-weight:normal;">.</text>
  <text x="55.546,58.534,63.016,67.498,70.48400000000001,72.988,77.281,81.083,84.006,86.615,94.532,99.015,101.938,106.233,110.03500000000001,112.542,117.5,121.984,125.785,130.08,135.55800000000002,138.072,142.969,148.18699999999998,150.691,154.489,157.412,161.707,166.19,171.668,176.654,179.639,183.441,186.364,190.847,193.77,198.065,200.575,203.185,208.404,212.385,215.769,220.062,224.545,228.347,232.642,236.444,238.959,246.877,251.36,256.345,258.848,263.807,268.10200000000003,270.602,274.58,279.476,284.694,288.496,292.791,296.333,301.399,305.882,308.805,311.414,316.48,320.775,323.017,325.527,331.008,336.074,340.369,345.58700000000005,348.091,350.701,353.687,356.191,361.088,366.306,368.916,373.901,376.403,379.392,384.288,387.83,390.335,393.258,398.477,402.772,405.272,410.697,414.239,418.041,420.964,423.468,426.454,430.749" y="388.674" svg_rhmargin="438.227" style="fill:#000000;font-family:HFHEEM+Palatino-Roman;font-size:8.97px;font-style:NORMAL;font-weight:normal;">[18] estimates based on steady-state increases may be conservative. Even if only for the ﬁrst few</text>
  <text x="55.545,60.531,64.826,69.309,72.85,76.652,79.286,84.182,87.168,89.798,95.018,99.313,106.791,109.429,113.41,118.306,120.915,125.811,131.029,133.638,138.121,142.605,145.528,148.137,153.033,158.25099999999998,160.881,165.364,170.582,176.06,178.701,184.092,187.476,192.373,197.851,203.258,207.239,210.162,212.771,217.837,220.446,223.369,227.357,229.599,232.217,237.435,241.73,249.208,251.817,256.802,259.44,263.735,268.362,273.751,278.646,282.448,286.743,292.221,294.861,298.659,303.878,308.173,310.782,313.768,316.407,320.891,324.275,328.569,333.053,336.855,339.488,343.466,346.075,350.37,354.854,358.395,361.005,365.99,368.619,372.6,377.083,382.472,385.395,390.802,394.186,398.481,401.116,405.598,410.816,416.294,418.926,422.727,425.65,430.546,433.93" y="400.626" svg_rhmargin="438.225" style="fill:#000000;font-family:HFHEEM+Palatino-Roman;font-size:8.97px;font-style:NORMAL;font-weight:normal;">years of new colonization and productivity, newly exposed shelf areas clearly capture and store</text>
  <text x="55.545,59.527,64.011,67.554,72.513,77.41,82.628,86.014,93.932,98.829,102.213,106.508,109.881,113.423,117.908,123.297,125.907,131.387,133.997,138.98200000000003,142.358,145.282,150.501,154.985,160.203,163.581,166.073,171.293,176.189,179.732,187.65,192.134,194.744,197.237,200.613,205.095,210.314,215.534,220.941,225.426,228.035,231.411,234.021,239.24,243.222,246.606,250.902,258.82,263.116,268.335,271.259,275.743,278.352,281.728,286.714,290.098,294.995,302.474,305.398,310.617,312.85900000000004,316.242,321.739,326.958,332.366,336.169,338.411,341.784,346.267,349.651,354.87,359.166,366.644,370.029,374.513,378.998,383.482,387.96500000000003,389.467,394.453" y="412.578" svg_rhmargin="402.37" style="fill:#000000;font-family:HFHEEM+Palatino-Roman;font-size:8.97px;font-style:NORMAL;font-weight:normal;">carbon more rapidly than ‘normal’ annual incremental growth. Thus, a new 5000 km</text>
  <text svg_rhmargin="405.85" x="402.363,405.85" y="412.577" style="fill:#000000;font-family:HFHEEM+Palatino-Roman;font-size:6.97px;font-style:NORMAL;font-weight:normal;">2 </text>
  <text x="409.725,412.333,416.314,420.608,425.565,429.859,433.243" y="412.577" svg_rhmargin="438.228" style="fill:#000000;font-family:HFHEEM+Palatino-Roman;font-size:8.97px;font-style:NORMAL;font-weight:normal;">iceberg</text>
  <text x="55.547,59.529,62.913,67.209,71.693,74.617,77.227,82.123,87.34100000000001,89.891,97.809,102.293,107.278,109.827,114.309,118.291,121.215,126.623,131.107,133.717,136.327,141.312,143.861,148.847,153.143,158.362,162.658,166.2,170.684,173.608,177.903,180.449,188.367,193.264,196.648,200.94299999999998,203.488,206.412,211.631,216.115,221.333,223.874,228.356" y="424.538" svg_rhmargin="232.839" style="fill:#000000;font-family:HFHEEM+Palatino-Roman;font-size:8.97px;font-style:NORMAL;font-weight:normal;">creation may actually generate more than 10</text>
  <text svg_rhmargin="236.308" x="232.821,236.308" y="424.538" style="fill:#000000;font-family:HFHEEM+Palatino-Roman;font-size:6.97px;font-style:NORMAL;font-weight:normal;">5 </text>
  <text x="238.311,241.235,246.132,251.351,256.57,260.866,264.668,267.212,272.108,275.094,277.643" y="424.538" svg_rhmargin="284.0" style="fill:#000000;font-family:HFHEEM+Palatino-Roman;font-size:8.97px;font-style:NORMAL;font-weight:normal;">tonnes of C</text>
  <text svg_rhmargin="323.153" x="283.995,286.022,292.177,298.332,302.137,305.99,308.017,310.044,312.07,315.554,318.892,323.153" y="424.538" style="fill:#000000;font-family:HFHEEM+Palatino-Roman;font-size:6.97px;font-style:NORMAL;font-weight:normal;">immobilized </text>
  <text x="326.232,331.621,335.916,339.45799999999997,341.999,346.986,351.28,355.764,359.306,361.857,364.846,368.827,373.31,375.919,379.9,385.307,387.916,392.399,395.323,397.932,402.827,408.045,410.595,413.204,417.00600000000003,419.559,424.974,429.269,433.25" y="424.538" svg_rhmargin="438.235" style="fill:#000000;font-family:HFHEEM+Palatino-Roman;font-size:8.97px;font-style:NORMAL;font-weight:normal;">per year (calculation is Peck</text>
  <text x="55.547,59.036,62.022,65.147,69.129" y="436.49" svg_rhmargin="71.622" style="fill:#000000;font-family:HFHLDE+Palatino-Italic;font-size:8.97px;font-style:ITALIC;font-weight:normal;">et al</text>
  <text svg_rhmargin="128.305" x="71.621,73.863,76.994,79.981,84.464,88.945,91.931,95.057,99.35,103.148,106.073,108.683,116.603,121.085,124.01,128.305" y="436.49" style="fill:#000000;font-family:HFHEEM+Palatino-Roman;font-size:8.97px;font-style:NORMAL;font-weight:normal;">. [18] estimate </text>
  <text svg_rhmargin="136.837" x="129.807,136.83599999999998" y="436.49" style="fill:#000000;font-family:HFHHHM+MTSY;font-size:8.97px;font-style:NORMAL;font-weight:normal;">× </text>
  <text svg_rhmargin="171.8" x="138.33,143.317,145.927,148.537,151.147,153.757,158.976,163.963,168.258,171.8" y="436.49" style="fill:#000000;font-family:HFHEEM+Palatino-Roman;font-size:8.97px;font-style:NORMAL;font-weight:normal;">Fillinger </text>
  <text x="174.917,178.406,181.392,184.517,188.499" y="436.49" svg_rhmargin="190.992" style="fill:#000000;font-family:HFHLDE+Palatino-Italic;font-size:8.97px;font-style:ITALIC;font-weight:normal;">et al</text>
  <text svg_rhmargin="261.686" x="190.991,193.233,196.364,199.348,203.831,208.312,211.298,214.433,219.419,222.803,227.699,235.178,238.102,243.32,246.436,249.983,254.467,257.391,261.68600000000004" y="436.49" style="fill:#000000;font-family:HFHEEM+Palatino-Roman;font-size:8.97px;font-style:NORMAL;font-weight:normal;">. [19] growth rate </text>
  <text svg_rhmargin="270.172" x="263.178,270.171" y="436.49" style="fill:#000000;font-family:HFHHHM+MTSY;font-size:8.97px;font-style:NORMAL;font-weight:normal;">= </text>
  <text svg_rhmargin="276.148" x="271.665,276.148" y="436.49" style="fill:#000000;font-family:HFHEEM+Palatino-Roman;font-size:8.97px;font-style:NORMAL;font-weight:normal;">7 </text>
  <text svg_rhmargin="284.671" x="277.641,284.67" y="436.49" style="fill:#000000;font-family:HFHHHM+MTSY;font-size:8.97px;font-style:NORMAL;font-weight:normal;">× </text>
  <text x="286.165,290.647" y="436.49" svg_rhmargin="295.13" style="fill:#000000;font-family:HFHEEM+Palatino-Roman;font-size:8.97px;font-style:NORMAL;font-weight:normal;">10</text>
  <text svg_rhmargin="298.615" x="295.128,298.615" y="436.49" style="fill:#000000;font-family:HFHEEM+Palatino-Roman;font-size:6.97px;font-style:NORMAL;font-weight:normal;">4 </text>
  <text svg_rhmargin="307.639" x="300.609,307.638" y="436.49" style="fill:#000000;font-family:HFHHHM+MTSY;font-size:8.97px;font-style:NORMAL;font-weight:normal;">× </text>
  <text svg_rhmargin="320.338" x="309.132,313.615,315.855,320.338" y="436.49" style="fill:#000000;font-family:HFHEEM+Palatino-Roman;font-size:8.97px;font-style:NORMAL;font-weight:normal;">2.5 </text>
  <text svg_rhmargin="328.835" x="321.841,328.834" y="436.49" style="fill:#000000;font-family:HFHHHM+MTSY;font-size:8.97px;font-style:NORMAL;font-weight:normal;">= </text>
  <text svg_rhmargin="334.811" x="330.328,334.811" y="436.49" style="fill:#000000;font-family:HFHEEM+Palatino-Roman;font-size:8.97px;font-style:NORMAL;font-weight:normal;">2 </text>
  <text svg_rhmargin="343.334" x="336.304,343.33299999999997" y="436.49" style="fill:#000000;font-family:HFHHHM+MTSY;font-size:8.97px;font-style:NORMAL;font-weight:normal;">× </text>
  <text x="344.828,349.31" y="436.49" svg_rhmargin="353.793" style="fill:#000000;font-family:HFHEEM+Palatino-Roman;font-size:8.97px;font-style:NORMAL;font-weight:normal;">10</text>
  <text x="353.79" y="433.232" svg_rhmargin="357.277" style="fill:#000000;font-family:HFHEEM+Palatino-Roman;font-size:6.97px;font-style:NORMAL;font-weight:normal;">5</text>
  <text x="357.777,360.764,363.00600000000003,366.137,370.846,376.253,380.235,385.45300000000003,388.587,393.977,397.361,402.258,407.737,413.145,417.126,420.05,422.661,427.727,430.338,433.262" y="436.49" svg_rhmargin="438.247" style="fill:#000000;font-family:HFHEEM+Palatino-Roman;font-size:8.97px;font-style:NORMAL;font-weight:normal;">). Such productivity</text>
  <text x="55.547,59.529,64.424,69.831,72.44,77.91799999999999,81.153,86.112,90.407,93.637,96.247,101.465,105.446,108.83,113.123,117.607,121.408,125.703,131.181,134.425,139.383,143.678,147.659,152.143,157.549,161.351,165.646,168.885,173.781,176.767,180.0,182.989,187.472,190.458,193.691,198.174,203.653,209.131,211.74,214.663,217.273,222.168,227.387,231.87,234.479,237.702,241.683,244.292,246.901,254.819,259.302,262.225,266.52,269.505,272.491,277.387,280.771,284.749,289.044,294.522,297.747,301.549,305.844,310.327,313.313,315.922,319.903,324.19800000000004,327.436,330.046,334.941,338.743,342.545,346.84,350.642,353.886,356.497,361.71500000000003,364.938,368.737,373.632,381.55,385.845,389.083,392.467,396.762,401.747,404.356,409.252,414.471,418.273,421.499,424.488,428.783,431.024,436.01" y="448.442" svg_rhmargin="438.252" style="fill:#000000;font-family:HFHEEM+Palatino-Roman;font-size:8.97px;font-style:NORMAL;font-weight:normal;">could be increased because of (a) additional climate-forced sea-ice losses in some regions (e.g.</text>
  <text x="55.547,62.524,67.744,70.667,75.152,78.536,82.514,85.438,88.048,92.029,94.348,99.766,104.062,109.281,111.891,117.111,120.913,126.321,128.931,133.415,136.40099999999998,138.725,141.705,146.187,148.428,152.91,155.897,158.13899999999998,160.46,164.944,170.163,175.64100000000002,177.958,180.946,185.905,188.891,191.215,196.202,198.812,203.296,208.515,211.438,213.753,216.363,220.345,224.641,229.601,233.896,237.28,242.26500000000001,244.598,249.989,255.209,260.195,263.119,268.015,273.405,276.015,280.499,285.719,290.705,293.629,298.525,303.743,306.05,311.009,313.619,318.516,323.412,331.32899999999995,333.646,336.632,340.928,344.471,347.395,350.005,352.615,355.225,359.709,364.193,367.117,369.727,374.624,379.84200000000004,382.158,386.642,389.252,394.148,399.368,404.353,406.676,409.286,412.21,416.012,418.331,421.255,424.797,429.281,433.263" y="460.403" svg_rhmargin="438.248" style="fill:#000000;font-family:HFHEEM+Palatino-Roman;font-size:8.97px;font-style:NORMAL;font-weight:normal;">Antarctic Peninsula) [5,6], and (b) giant iceberg phytoplankton bloom fertilization along its track</text>
  <text svg_rhmargin="354.42" x="55.547,60.444,65.511,69.807,73.349,76.152,80.131,85.027,90.247,93.17,95.781,101.0,105.296,110.515,113.439,117.923,120.532,123.333,127.131,132.35,136.646,139.256,142.242,145.052,148.031,152.514,156.995,159.981,162.22299999999998,165.03,170.526,175.745,180.04,182.837,190.757,195.24,200.226,205.444,208.053,210.976,216.383,221.862,226.15699999999998,228.954,233.85,236.83599999999998,239.637,243.438,248.845,252.826,258.044,260.855,263.84,268.324,270.565,275.524,278.51,281.311,283.921,289.139,293.12,296.504,300.797,305.28,309.082,313.377,317.17900000000003,319.993,323.974,328.869,334.276,336.885,342.363,345.166,350.125,354.42" y="472.356" style="fill:#000000;font-family:HFHEEM+Palatino-Roman;font-size:8.97px;font-style:NORMAL;font-weight:normal;">over continental shelf [14]. The magnitude of such (a,b) increases could be </text>
  <text x="357.225" y="472.356" svg_rhmargin="364.255" style="fill:#000000;font-family:HFHHHM+MTSY;font-size:8.97px;font-style:NORMAL;font-weight:normal;">×</text>
  <text x="364.254,368.737,371.545,374.533,379.428,382.96999999999997,385.774,389.575,393.869,398.351,401.336,403.944,407.924,412.219,415.035,417.643,422.538,426.339,430.139,434.433" y="472.356" svg_rhmargin="438.235" style="fill:#000000;font-family:HFHEEM+Palatino-Roman;font-size:8.97px;font-style:NORMAL;font-weight:normal;">2 for sea-ice losses</text>
  <text svg_rhmargin="84.93" x="55.547,58.535,63.017,66.003,69.749,74.232,79.452,84.92999999999999" y="484.308" style="fill:#000000;font-family:HFHEEM+Palatino-Roman;font-size:8.97px;font-style:NORMAL;font-weight:normal;">[5] and </text>
  <text x="88.677" y="484.308" svg_rhmargin="95.707" style="fill:#000000;font-family:HFHHHM+MTSY;font-size:8.97px;font-style:NORMAL;font-weight:normal;">×</text>
  <text svg_rhmargin="375.78" x="95.707,100.19,104.673,109.157,113.64,117.391,120.377,125.273,128.815,132.554,137.539,140.148,144.631,149.85,152.773,156.519,159.128,163.109,167.404,172.363,176.658,180.041,185.026,188.781,191.769,196.064,199.606,202.529,205.138,207.748,210.357,214.84,219.323,222.246,224.855,229.751,234.969,238.707,241.695,246.178,250.659,253.646,255.88799999999998,259.64,265.137,270.356,275.764,279.56600000000003,283.307,290.785,295.08000000000004,298.823,303.119,306.921,309.845,312.455,320.374,324.858,327.782,332.077,335.828,338.752,343.971,348.456,351.379,355.116,358.04,363.259,367.55400000000003,371.297,375.78000000000003" y="484.308" style="fill:#000000;font-family:HFHEEM+Palatino-Roman;font-size:8.97px;font-style:NORMAL;font-weight:normal;">5–10 for giant iceberg fertilization [14]. Thus we estimate that the 2 </text>
  <text svg_rhmargin="384.313" x="377.283,384.312" y="484.308" style="fill:#000000;font-family:HFHHHM+MTSY;font-size:8.97px;font-style:NORMAL;font-weight:normal;">× </text>
  <text x="385.807,390.289" y="484.308" svg_rhmargin="394.772" style="fill:#000000;font-family:HFHEEM+Palatino-Roman;font-size:8.97px;font-style:NORMAL;font-weight:normal;">10</text>
  <text svg_rhmargin="398.254" x="394.767,398.254" y="484.307" style="fill:#000000;font-family:HFHEEM+Palatino-Roman;font-size:6.97px;font-style:NORMAL;font-weight:normal;">5 </text>
  <text x="400.248,403.172,408.068,413.288,418.507,422.803,426.605,430.345,435.242" y="484.307" svg_rhmargin="438.228" style="fill:#000000;font-family:HFHEEM+Palatino-Roman;font-size:8.97px;font-style:NORMAL;font-weight:normal;">tonnes of</text>
  <text x="55.547" y="496.268" svg_rhmargin="61.904" style="fill:#000000;font-family:HFHEEM+Palatino-Roman;font-size:8.97px;font-style:NORMAL;font-weight:normal;">C</text>
  <text svg_rhmargin="101.06" x="61.902,63.929,70.084,76.239,80.044,83.897,85.924,87.951,89.977,93.461,96.799,101.06" y="496.268" style="fill:#000000;font-family:HFHEEM+Palatino-Roman;font-size:6.97px;font-style:NORMAL;font-weight:normal;">immobilized </text>
  <text x="104.733,110.123,114.419,117.961,121.106,126.092,130.388,134.872,138.41400000000002,141.559,145.852,149.655,152.579,155.189,163.107,167.591,170.515,174.80999999999997,177.949,180.559,184.361,187.507,195.427,200.324,203.708,208.003,211.142,213.752,216.362,221.348,225.644,228.254,233.239,236.381,239.305,244.20000000000002,247.343,252.302,256.597,259.736,264.22,269.61,275.0,278.384,283.28,287.908,290.518,298.436,302.92,305.844,310.14,312.75,317.735,320.868,325.35" y="496.268" svg_rhmargin="329.833" style="fill:#000000;font-family:HFHEEM+Palatino-Roman;font-size:8.97px;font-style:NORMAL;font-weight:normal;">per year estimate is more likely to be approximately 10</text>
  <text svg_rhmargin="333.301" x="329.814,333.30100000000004" y="496.268" style="fill:#000000;font-family:HFHEEM+Palatino-Roman;font-size:6.97px;font-style:NORMAL;font-weight:normal;">6 </text>
  <text x="335.295,338.219,343.116,348.335,353.554,357.85,361.65200000000004,364.789,369.686,372.67199999999997,375.815" y="496.268" svg_rhmargin="382.172" style="fill:#000000;font-family:HFHEEM+Palatino-Roman;font-size:8.97px;font-style:NORMAL;font-weight:normal;">tonnes of C</text>
  <text svg_rhmargin="421.325" x="382.167,384.194,390.349,396.504,400.309,404.162,406.189,408.216,410.242,413.726,417.064,421.32500000000005" y="496.268" style="fill:#000000;font-family:HFHEEM+Palatino-Roman;font-size:6.97px;font-style:NORMAL;font-weight:normal;">immobilized </text>
  <text x="424.998,430.388,434.684" y="496.268" svg_rhmargin="438.226" style="fill:#000000;font-family:HFHEEM+Palatino-Roman;font-size:8.97px;font-style:NORMAL;font-weight:normal;">per</text>
  <text svg_rhmargin="152.444" x="55.547,60.533,64.828,69.311,72.85300000000001,75.628,78.614,82.595,87.079,89.688,93.669,99.076,101.685,106.168,109.091,111.7,116.596,121.81400000000001,124.588,127.197,130.999,133.768,139.183,143.478,147.459,152.44400000000002" y="508.22" style="fill:#000000;font-family:HFHEEM+Palatino-Roman;font-size:8.97px;font-style:NORMAL;font-weight:normal;">year (calculation is Peck </text>
  <text x="155.226,158.715,161.701,164.466,168.448" y="508.22" svg_rhmargin="170.941" style="fill:#000000;font-family:HFHLDE+Palatino-Italic;font-size:8.97px;font-style:ITALIC;font-weight:normal;">et al</text>
  <text svg_rhmargin="226.92" x="170.94,173.182,175.963,178.947,183.43,187.911,190.897,193.671,197.964,201.762,204.687,207.297,215.217,219.7,222.625,226.92" y="508.22" style="fill:#000000;font-family:HFHEEM+Palatino-Roman;font-size:8.97px;font-style:NORMAL;font-weight:normal;">. [18] estimate </text>
  <text svg_rhmargin="235.442" x="228.412,235.441" y="508.22" style="fill:#000000;font-family:HFHHHM+MTSY;font-size:8.97px;font-style:NORMAL;font-weight:normal;">× </text>
  <text svg_rhmargin="270.406" x="236.936,241.922,244.532,247.142,249.752,252.363,257.582,262.568,266.864,270.40599999999995" y="508.22" style="fill:#000000;font-family:HFHEEM+Palatino-Roman;font-size:8.97px;font-style:NORMAL;font-weight:normal;">Fillinger </text>
  <text x="273.171,276.66,279.646,282.42,286.402" y="508.22" svg_rhmargin="288.895" style="fill:#000000;font-family:HFHLDE+Palatino-Italic;font-size:8.97px;font-style:ITALIC;font-weight:normal;">et al</text>
  <text svg_rhmargin="358.527" x="288.894,291.136,293.916,296.901,301.384,305.865,308.851,311.625,316.611,319.995,324.892,332.371,335.295,340.51300000000003,343.277,346.824,351.308,354.232,358.52700000000004" y="508.22" style="fill:#000000;font-family:HFHEEM+Palatino-Roman;font-size:8.97px;font-style:NORMAL;font-weight:normal;">. [19] growth rate </text>
  <text svg_rhmargin="368.319" x="361.289,368.318" y="508.22" style="fill:#000000;font-family:HFHHHM+MTSY;font-size:8.97px;font-style:NORMAL;font-weight:normal;">× </text>
  <text svg_rhmargin="399.787" x="371.099,378.04,383.448,388.837,392.38,396.864,399.787" y="508.22" style="fill:#000000;font-family:HFHEEM+Palatino-Roman;font-size:8.97px;font-style:NORMAL;font-weight:normal;">Duprat </text>
  <text x="402.555,406.044,409.03,411.795,415.777" y="508.22" svg_rhmargin="418.27" style="fill:#000000;font-family:HFHLDE+Palatino-Italic;font-size:8.97px;font-style:ITALIC;font-weight:normal;">et al</text>
  <text x="418.27,420.512,423.292,426.277,430.759,435.24" y="508.22" svg_rhmargin="438.226" style="fill:#000000;font-family:HFHEEM+Palatino-Roman;font-size:8.97px;font-style:NORMAL;font-weight:normal;">. [14]</text>
  <text svg_rhmargin="131.99" x="55.547,58.157,62.138,66.433,71.391,75.686,79.07,84.05499999999999,85.802,88.79,93.085,96.627,99.55,102.159,104.768,107.378,111.861,116.344,119.267,121.876,126.772,131.99" y="520.172" style="fill:#000000;font-family:HFHEEM+Palatino-Roman;font-size:8.97px;font-style:NORMAL;font-weight:normal;">iceberg fertilization </text>
  <text svg_rhmargin="140.727" x="133.733,140.726" y="520.172" style="fill:#000000;font-family:HFHHHM+MTSY;font-size:8.97px;font-style:NORMAL;font-weight:normal;">= </text>
  <text svg_rhmargin="146.704" x="142.221,146.704" y="520.172" style="fill:#000000;font-family:HFHEEM+Palatino-Roman;font-size:8.97px;font-style:NORMAL;font-weight:normal;">7 </text>
  <text svg_rhmargin="155.227" x="148.197,155.226" y="520.172" style="fill:#000000;font-family:HFHHHM+MTSY;font-size:8.97px;font-style:NORMAL;font-weight:normal;">× </text>
  <text x="156.721,161.203" y="520.172" svg_rhmargin="165.686" style="fill:#000000;font-family:HFHEEM+Palatino-Roman;font-size:8.97px;font-style:NORMAL;font-weight:normal;">10</text>
  <text svg_rhmargin="169.168" x="165.681,169.168" y="520.172" style="fill:#000000;font-family:HFHEEM+Palatino-Roman;font-size:6.97px;font-style:NORMAL;font-weight:normal;">4 </text>
  <text svg_rhmargin="177.859" x="170.829,177.858" y="520.172" style="fill:#000000;font-family:HFHHHM+MTSY;font-size:8.97px;font-style:NORMAL;font-weight:normal;">× </text>
  <text svg_rhmargin="190.567" x="179.361,183.844,186.084,190.567" y="520.172" style="fill:#000000;font-family:HFHEEM+Palatino-Roman;font-size:8.97px;font-style:NORMAL;font-weight:normal;">2.5 </text>
  <text svg_rhmargin="199.091" x="192.061,199.09" y="520.172" style="fill:#000000;font-family:HFHHHM+MTSY;font-size:8.97px;font-style:NORMAL;font-weight:normal;">× </text>
  <text svg_rhmargin="205.067" x="200.584,205.067" y="520.172" style="fill:#000000;font-family:HFHEEM+Palatino-Roman;font-size:8.97px;font-style:NORMAL;font-weight:normal;">5 </text>
  <text svg_rhmargin="213.554" x="206.56,213.553" y="520.172" style="fill:#000000;font-family:HFHHHM+MTSY;font-size:8.97px;font-style:NORMAL;font-weight:normal;">= </text>
  <text x="215.048,219.53" y="520.172" svg_rhmargin="224.013" style="fill:#000000;font-family:HFHEEM+Palatino-Roman;font-size:8.97px;font-style:NORMAL;font-weight:normal;">10</text>
  <text x="224.01" y="516.923" svg_rhmargin="227.497" style="fill:#000000;font-family:HFHEEM+Palatino-Roman;font-size:6.97px;font-style:NORMAL;font-weight:normal;">6</text>
  <text x="228.006,230.248,231.993,234.982,239.877,243.419,245.16,249.454,253.936,257.916,263.134,264.882,269.364,273.847,278.329,282.812,284.314,289.299" y="520.172" svg_rhmargin="297.216" style="fill:#000000;font-family:HFHEEM+Palatino-Roman;font-size:8.97px;font-style:NORMAL;font-weight:normal;">, for each 5000 km</text>
  <text svg_rhmargin="300.703" x="297.216,300.70300000000003" y="520.172" style="fill:#000000;font-family:HFHEEM+Palatino-Roman;font-size:6.97px;font-style:NORMAL;font-weight:normal;">2 </text>
  <text x="302.94,305.549,309.53,313.825,318.784,323.078,326.462,331.448,334.43399999999997,336.182,340.665,344.46700000000004,346.209,350.692,352.437,356.416,361.311,366.53,370.331,374.626,378.168,383.234,387.717,390.64,393.249,398.315,402.61,404.354,409.573,413.868,418.853,423.336,426.259,428.868,433.934" y="520.172" svg_rhmargin="438.229" style="fill:#000000;font-family:HFHEEM+Palatino-Roman;font-size:8.97px;font-style:NORMAL;font-weight:normal;">iceberg) as a conservative negative</text>
  <text x="55.547,58.533,62.828,67.123,72.601,77.56,82.043,86.024,91.009,93.53,97.511,102.406,107.625,111.427,115.722,120.743,126.149,130.444,135.663,139.644,143.939,146.457,151.354,154.34,156.853,161.838,164.448,168.931,174.149,177.072,179.586,182.195,186.176,190.471,195.429,199.724,203.108,208.09300000000002,210.614,213.602,218.498,222.04,229.957,234.44,237.363,239.973,244.868,250.08599999999998,252.59,257.073,259.683,264.578,269.797,274.78200000000004,277.293,280.216,285.435,289.73,292.24,299.215,304.434,307.357,311.84,315.224,319.202,322.125,324.735,328.716,331.233,336.651,340.946,346.164,348.773,353.992,357.794,363.2,365.81,370.293,372.803,377.286,380.67,384.965,389.448,391.957,396.853,399.839,402.352,405.275,410.494,414.78900000000004,417.307,422.696,427.592,430.201,434.684" y="532.133" svg_rhmargin="438.226" style="fill:#000000;font-family:HFHEEM+Palatino-Roman;font-size:8.97px;font-style:NORMAL;font-weight:normal;">feedback consequence of giant iceberg formation along the Antarctic Peninsula area of the polar</text>
  <text x="55.547,58.931,63.224,68.21,70.821,75.717,80.936,84.73800000000001,86.975,91.458,94.068,98.964,104.184,108.479" y="544.085" svg_rhmargin="110.721" style="fill:#000000;font-family:HFHEEM+Palatino-Roman;font-size:8.97px;font-style:NORMAL;font-weight:normal;">regions alone.</text>
  <text x="55.548,59.075,64.639,68.16799999999999,73.755,82.782,88.43,93.38,96.937,99.122,104.198,107.456,112.519,114.71,118.265,123.913,128.976,131.167,136.513,142.802,146.832,151.893,155.45,157.635,163.283,168.344,173.908,178.858,182.413,184.978,189.64,194.70299999999997,196.894,202.456,205.119,210.669,215.732,217.923,222.18,227.255,230.713,236.277,241.617,247.266,249.456,254.523,260.812,265.874,270.292,273.848,277.879,280.067,285.413,288.593,290.777,296.34,298.905,303.98,309.551,313.108,315.293,317.858,321.99,327.057,332.62,337.682,340.94,346.505,348.69,351.868,357.209,360.667,369.313,374.263,377.818,380.383,385.724,391.371" y="573.6949999999999" svg_rhmargin="395.681" style="fill:#0092cf;font-family:HFHEKL+MyriadPro-Cond;font-size:13.95px;font-style:NORMAL;font-weight:normal;">(b) What are the offset negative blue carbon effects of giant iceberg formation?</text>
  <text x="55.548,60.256,68.174,72.659,75.269,77.878,80.687,83.297,87.279,91.575,96.534,100.83,104.214,109.2,113.00200000000001,115.807,119.785,124.269,129.487,132.298,137.517,142.001,144.611,149.678,153.97299999999998,156.78,159.39,164.609,168.591,171.975,176.271,184.189,188.485,193.704,196.628,201.112,203.721,206.522,211.508,214.892,219.788,227.267,230.191,235.409,238.211,243.107,246.093,248.903,253.862,258.158,263.378,266.301,271.521,274.131,278.11199999999997,280.908,284.886,289.783,297.701,305.619,311.027,316.246,318.856,321.78,324.39,328.686,332.488,335.292,339.775,344.994,350.47200000000004,353.275,356.199,361.418,366.825,370.627,373.432,376.356,381.575,385.87,388.677,394.066,398.963,401.887,406.183,411.402,414.326,416.936,421.42,424.029,426.829,429.816,434.713" y="591.6320000000001" svg_rhmargin="438.255" style="fill:#000000;font-family:HFHEEM+Palatino-Roman;font-size:8.97px;font-style:NORMAL;font-weight:normal;">Small icebergs can halve incremental growth of benthic communities and thus the potential for</text>
  <text x="55.548,59.529,64.012,67.554,72.512,77.408,82.626,85.238,89.04,91.963,96.859,100.401,104.884,109.869,114.164,116.406,119.015,123.498,127.30000000000001,129.915,135.134,139.617,145.006,150.395,154.689,159.908,164.203,169.681,172.294,177.253,181.548,184.471,191.949,196.244,200.539,205.75699999999998,208.37,212.853,217.336,221.819,226.302,228.921,233.404,238.622,244.10000000000002,246.713,251.197,255.68,260.163,264.646,267.255,269.865,275.083,277.695,283.347,288.334,293.812,298.107,301.649,304.272,309.754,314.237,319.22200000000004,321.833,327.051,331.346,335.83,339.37199999999996,341.977,347.966,352.862,355.785,361.004,365.299,368.84,373.323,375.942,379.326,383.619,387.42,391.715,396.198,399.582,403.563,408.781,411.394,415.196,418.119,422.602,425.525,428.134,433.03" y="603.5840000000001" svg_rhmargin="438.248" style="fill:#000000;font-family:HFHEEM+Palatino-Roman;font-size:8.97px;font-style:NORMAL;font-weight:normal;">carbon storage, as happened between 2007 and 2009 in Ryder Bay near Rothera research station</text>
  <text x="55.548,58.536,66.672,73.649,79.067,82.053,85.07,90.55,95.959,100.254,103.276,106.201,111.09599999999999,114.112,116.723,120.706,125.001,128.023,131.822,135.804,140.702,146.11,149.65200000000002,152.671,155.646,160.129,163.114,165.356,168.379,173.876,179.094,183.38899999999998,186.403,190.381,193.765,198.058,202.541,205.464,208.074,212.969,218.18699999999998,221.204,226.1,229.08599999999998,232.103,237.088,239.697,244.18,249.399,252.322,255.339,257.948,261.929,266.224,271.183,275.478,278.862,283.847,287.649,290.669,295.888,300.371,304.173,307.194,315.114,319.597,324.815,329.8,332.817,337.713,340.636,345.855,350.15,353.69199999999995,356.71,361.004,363.83,366.818,371.113,375.094,378.017,381.819,384.831,389.789,394.084,397.886,400.495,405.974,410.268,414.07,417.1,420.023,425.241,430.137,433.939" y="615.5360000000001" svg_rhmargin="438.234" style="fill:#000000;font-family:HFHEEM+Palatino-Roman;font-size:8.97px;font-style:NORMAL;font-weight:normal;">(WAP) due to ice scour [9]. The creation of giant icebergs has many other effects besides those</text>
  <text x="55.548,63.026,68.244,70.854,74.835,80.053,83.529,87.507,91.99,97.208,100.693,105.651,109.946,113.419,117.4,122.296,127.514,131.316,133.925,139.404,143.698,147.082,151.377,156.85500000000002,160.342,165.56,169.855,174.841,179.324,182.247,184.856,189.922,194.21699999999998,197.69,200.675,204.97,209.265,214.744,219.702,224.185,228.166,233.152,236.95399999999998,240.432,245.329,250.547,254.023,258.001,260.61,263.22,271.137,275.62,278.543,282.838,286.311,290.289,295.508,299.991,305.209,310.195,314.49,316.732,320.214,325.432,330.328,333.251,336.727,339.337,343.632,348.115,351.917,354.84,358.325,360.935,366.153,370.134,372.743,378.15,383.629,386.238,391.456,396.44100000000003,399.907,402.83,408.049,411.432,415.727,420.211,423.134,426.93600000000004,430.405,433.328" y="627.498" svg_rhmargin="438.224" style="fill:#000000;font-family:HFHEEM+Palatino-Roman;font-size:8.97px;font-style:NORMAL;font-weight:normal;">which can be considered negative feedbacks on climate change, not least including threats to</text>
  <text x="55.548,58.158,63.377,67.18,70.104,74.588,77.198,79.808,84.293,87.216,89.827,94.723,99.942,103.744,105.963,108.945,114.372,119.36,124.77,128.153,132.44799999999998,134.66" y="639.45" svg_rhmargin="139.143" style="fill:#000000;font-family:HFHEEM+Palatino-Roman;font-size:8.97px;font-style:NORMAL;font-weight:normal;">installations (ﬁgure 3</text>
  <text x="139.14" y="639.45" svg_rhmargin="143.291" style="fill:#000000;font-family:HFHLDE+Palatino-Italic;font-size:8.97px;font-style:ITALIC;font-weight:normal;">b</text>
  <text x="143.289,146.275,148.517,150.739,159.705,164.924,169.219,174.43699999999998,176.662,179.271,183.252,187.547,189.768,193.566,198.784,203.079,205.689,210.755,215.05,218.852,221.079,225.058,229.953,232.563,235.172,239.655,245.044,248.846,253.141,255.362,258.286,263.181,265.406,268.394,273.29,276.832,284.74899999999997,286.956,291.942,294.551,299.034,304.253,307.176,309.401,312.01,315.991,320.286,325.245,329.54,332.924,337.909,341.711,343.95300000000003,346.175,349.098,354.316,358.611,360.832,365.791,371.197,374.121,377.044,380.427,384.722,388.524,392.326,394.935,400.154,405.139,407.354,412.249,415.235,417.46,420.07,424.553,429.771,435.25" y="639.45" svg_rhmargin="438.236" style="fill:#000000;font-family:HFHEEM+Palatino-Roman;font-size:8.97px;font-style:NORMAL;font-weight:normal;">). When ice shelves collapse to form giant icebergs, the buttressing of land-</text>
  <text x="55.547,60.505,64.987,68.788,73.082,78.55999999999999,81.713,84.323,88.303,92.598,95.737,99.538,104.756,109.05,113.344,116.266,120.06800000000001,123.214,125.824,129.626,132.763,136.147,140.441,145.919,151.324,155.305,159.599,165.077,168.221,171.207,175.689,180.17,182.411,186.893,191.375,194.361,196.60299999999998,199.753,205.25,210.469,215.877,219.679,222.816,226.798,231.282,233.892,238.959,241.569,246.789,251.774,254.916,257.841,262.827,268.217,270.827,274.809,279.293,281.903,284.513,289.498,292.631,296.015,300.308,304.111,309.519,312.129,315.053,318.855,321.992,324.602,329.82,332.963,337.445,341.427,345.409,349.705,352.315,356.611,360.154,364.638,367.562,370.172,375.068,380.286,383.429,388.326,391.312,394.455,397.065,401.55,406.769,412.248,415.235,420.194,424.678,428.481,432.777" y="651.4110000000001" svg_rhmargin="438.255" style="fill:#000000;font-family:HFHEEM+Palatino-Roman;font-size:8.97px;font-style:NORMAL;font-weight:normal;">based ice sheets is reduced [28,29]. Thus calving typically results in acceleration of land-based</text>
  <text x="55.546,58.155,62.137,66.432,69.147,72.072,76.968,84.446,88.929,92.313,97.794,101.596,104.301,107.224,112.443,116.738,119.453,123.255,127.55,132.033,134.27499999999998,136.993,142.471,146.013,148.622,153.688,156.297,161.516,166.501,169.202,173.0,177.295,181.778,184.764,187.373,191.668,196.734,201.029,203.638,206.366,208.975,214.193,218.174,221.558,225.853,230.336,234.138,238.433,242.23499999999999,244.949,247.937,251.321,256.218,264.135,266.848,271.33,276.548,281.533,284.243,289.462,293.757,301.235,303.844,308.829,311.548,319.465,323.948,327.49,330.099,335.318,339.613,342.598,347.557,352.04,355.842,360.137,365.615,368.326,370.936,374.917,379.212,381.454,384.171,389.667,394.886,397.495,401.297,404.002,409.48,414.376,418.671,422.473,425.187,430.405,435.301" y="663.363" svg_rhmargin="438.224" style="fill:#000000;font-family:HFHEEM+Palatino-Roman;font-size:8.97px;font-style:NORMAL;font-weight:normal;">ice towards the sea, driving sea-level increases from any newly marine-based ice. This does not</text>
  <text x="55.546,60.765,65.248,70.314,74.609,76.47,80.953,86.171,88.037,92.933,97.891,102.957,105.566,110.462,115.869,119.671,121.521,127.002,129.611,132.995,137.29,141.271,144.194,146.059,151.451,156.347,160.148,162.758,165.681,168.29,173.356,177.65099999999998,179.503,184.399,187.941,189.808,195.027,199.322,204.307,208.79,211.713,214.322,219.388,223.683,225.536,229.517,234.413,239.631,243.433,247.728,252.749,258.156,262.45,267.669,271.65,275.945,277.815,282.712,287.93,289.795,294.754,297.363,302.77,307.065,308.917,312.895,317.379,320.92,325.879,330.774,335.992,337.858,341.66,344.583,349.478,353.02,357.503,362.488,366.783,368.645,373.604,379.011,381.934,383.79,387.771,392.254,397.47200000000004,399.338,403.82,407.801,411.782,416.077,418.686,422.981,426.523,431.006,433.929" y="675.315" svg_rhmargin="438.224" style="fill:#000000;font-family:HFHEEM+Palatino-Roman;font-size:8.97px;font-style:NORMAL;font-weight:normal;">have an obvious direct positive or negative consequence on blue carbon storage but can accelerate</text>
  <text x="55.546,61.026,65.321,70.308,72.918,77.402,81.384,83.994,88.478,91.402,94.012,98.909,104.128,106.37,108.511,115.963,120.259,127.737,129.88,134.776,140.166,144.462,149.67999999999998,151.824,159.303,163.787,166.711,171.007,174.549,176.695,181.177,184.561,188.854,193.338,197.14,199.288,202.671,206.965,210.767,216.175,218.785,221.708,223.852,226.462,231.67999999999998,233.824,238.30700000000002,240.449,244.247,247.171,250.555,255.451,260.671,265.656,267.799,272.281,274.891,279.851,284.146,289.626,294.52099999999996,296.664,299.65,303.034,307.33,312.782,317.078,321.06,323.984,326.594,331.661,334.271,337.195,342.181,345.167,347.302,351.284,356.503,360.988,366.207,371.193,375.489,384.456,387.443,390.827,395.723,403.64,405.776,413.255,418.475,421.085,424.009,428.30400000000003,430.444,433.368" y="687.277" svg_rhmargin="438.264" style="fill:#000000;font-family:HFHEEM+Palatino-Roman;font-size:8.97px;font-style:NORMAL;font-weight:normal;">deglaciation. New open water areas result in a strong albedo (reﬂectivity) change—from white to</text>
  <text x="55.546,60.505,63.114,68.521,72.816,75.058,77.639,83.136,88.354,90.964,94.766,97.354,99.963,103.765,106.344,110.827,113.41,118.802,123.697,127.499,130.108,133.031,135.64,140.706,145.00099999999998,147.583,150.569,154.863,159.158,164.637,169.595,174.078,178.06,183.04500000000002,185.638,190.534,195.75199999999998,198.337,202.318,204.927,207.537,215.454,219.937,222.86,227.155,229.736,233.715,238.933,243.417,248.635,253.62,257.915,260.497,265.456,269.751,273.732,278.215,283.622,287.424,291.719,294.318,299.214,302.2,304.775,307.698,312.917,317.212,319.793,323.177,327.47,331.272,336.679,339.288,342.211,344.82,350.039,355.024,357.608,361.901,366.528,369.451,372.992,377.475,380.058,385.276,389.571,394.055,396.978,399.563,404.046,409.004,412.806,417.702,421.243,426.202,430.497,435.975" y="699.229" svg_rhmargin="438.217" style="fill:#000000;font-family:HFHEEM+Palatino-Roman;font-size:8.97px;font-style:NORMAL;font-weight:normal;">blue. This is a positive feedback on climate change because of the resulting extra heat absorbed.</text>
  <text x="55.546,62.487,66.783,72.173,76.468,81.688,87.167,89.777,94.997,99.982,103.835,108.731,113.949,117.813,120.736,125.956,130.251,134.101,138.397,143.024,145.948,150.244,155.463,158.386,162.249,167.146,170.13199999999998,173.986,181.465,185.949,189.492,197.41,200.02,205.239,210.226,212.468,216.318,219.242,224.462,227.072,230.874,234.731,238.709,243.606,249.013,251.624,257.102,260.957,266.176,270.66,275.727,280.022,283.881,291.799,294.409,299.629,304.525,308.06699999999995,311.915,316.208,319.034,322.022,326.318,330.3,333.224,337.026,340.892,345.789,351.007,354.861,359.82,364.116,369.335,372.259,377.479,382.375,386.177,390.034,394.994,397.604,403.011,407.30600000000004,411.156,415.135,419.619,423.161,428.121,433.017" y="711.181" svg_rhmargin="438.235" style="fill:#000000;font-family:HFHEEM+Palatino-Roman;font-size:8.97px;font-style:NORMAL;font-weight:normal;">Depending on the extent of warming, this could have minor effects on benthos blue carbon</text>
  <text x="55.546,59.527,64.011,69.399,72.322,77.729,81.113,85.408,87.65,91.348,95.831,101.049,104.75,107.359,112.578,116.559,119.943,124.238,128.721,132.523,136.81799999999998,140.515,143.124,148.34199999999998,152.034,157.019,160.403,165.299,172.777,175.7,180.91799999999998,184.61,190.088,195.495,199.79,203.478,206.401,211.29600000000002,214.996,217.605,222.823,226.805,230.188,234.483,238.967,242.768,245.378,250.596,255.58100000000002,259.281,267.198,271.493,275.976,278.585,282.276,287.665,291.049,295.944,299.926,304.22,308.022,311.824,314.433,319.652,324.637,328.336,331.878,336.361,339.284,343.579,347.276,350.261,354.743,356.984,361.466,364.452,368.145,373.041,376.58299999999997,380.286,384.769,388.458,391.842,396.135,401.614,407.022,411.004,413.928,416.538,421.435,426.653,430.344,435.241" y="723.142" svg_rhmargin="438.227" style="fill:#000000;font-family:HFHEEM+Palatino-Roman;font-size:8.97px;font-style:NORMAL;font-weight:normal;">capture: an increase in growth due to increasing meal processing rate [6,9] or a reduction of</text>
  <text x="55.546,60.532,63.915,68.811,76.289,79.212,84.43,87.277,94.755,99.974,104.269,109.48700000000001,112.333,115.258,119.553,127.47,132.859,137.154,140.696,145.179,148.102,153.509,156.893,161.186,164.988,167.819,173.211,176.594,181.491,185.472,189.767,194.062,199.54000000000002,202.387,207.346,211.641,216.626,221.521,226.74,232.21800000000002,235.065,239.962,243.346,248.332,252.815,258.034,260.643,264.445,272.362,276.164,278.657,281.5,284.423,289.642,293.937,297.479,305.396,309.879,312.488,315.333,318.256,323.152,325.761,330.056,333.598,338.081,343.299,347.281,351.576,354.418,358.711,363.929,368.995,373.29,375.899,380.795,386.184,390.479,394.281,397.13,400.13,404.613,409.094,412.081,414.32300000000004,417.175,425.658,430.554,433.938" y="735.094" svg_rhmargin="438.233" style="fill:#000000;font-family:HFHEEM+Palatino-Roman;font-size:8.97px;font-style:NORMAL;font-weight:normal;">growth when temperatures proceed beyond organisms’ thermal tolerance envelopes [30]. More</text>
  <text x="55.546,60.442,65.831,70.126,75.34400000000001,77.803,85.281,89.764,92.687,96.982,100.524,102.985,107.467,110.076,113.878,118.773,121.24,126.461,130.944,134.74599999999998,137.199,139.808,145.026,149.007,152.391,156.686,161.169,164.971,169.266,174.744,177.213,182.605,187.5,190.423,194.718,199.937,202.86,205.469,209.952,212.561,215.01,217.996,222.892,226.434,228.895,233.881,238.364,242.166,244.628,248.923,253.549,257.531,262.749,267.232,272.451,277.436,281.731,284.186,288.669,293.887,299.365,301.825,304.748,309.967,315.374,319.17600000000004,321.629,327.983" y="747.047" svg_rhmargin="335.031" style="fill:#000000;font-family:HFHEEM+Palatino-Roman;font-size:8.97px;font-style:NORMAL;font-weight:normal;">open water also has increased potential for gas exchange and thus CO</text>
  <text svg_rhmargin="338.512" x="335.025,338.512" y="747.044" style="fill:#000000;font-family:HFHEEM+Palatino-Roman;font-size:6.97px;font-style:NORMAL;font-weight:normal;">2 </text>
  <text x="341.478,345.962,350.921,354.724,359.621,363.163,368.553,371.477,374.087,378.984,384.203,386.445,388.892,396.371,401.591,404.201,408.183,413.401,415.86,419.842,424.738,430.146,432.756" y="747.044" svg_rhmargin="438.234" style="fill:#000000;font-family:HFHEEM+Palatino-Roman;font-size:8.97px;font-style:NORMAL;font-weight:normal;">absorption, which could</text>
  <text x="55.548,58.931,63.225,68.704,74.112,78.094,82.389,85.636,90.595,94.891,100.111,103.035,108.254,110.864,114.845,118.091,122.069,126.553,130.096,135.055,139.952,145.17,148.421,151.031,158.949,166.867,171.764,176.723,179.333,181.943,184.553,189.038,193.522,196.446,199.056,203.952,209.17,212.412,216.896,222.116,227.59400000000002,230.846,234.644,238.94,243.962,249.37,253.666,257.468,260.392,263.935,268.419,271.343,273.953,278.85,284.06800000000004,287.318,290.242,295.462,298.846,303.742,309.15,314.136,319.35400000000004,322.596,327.492,331.474,335.77,340.254,345.47200000000004,348.733,353.215,357.197,359.807,365.286,367.897,373.322,377.304,381.788,384.712,387.322,392.219,397.437,400.688,403.65,408.132,412.614,415.601,417.843,421.101,426.599,431.819,434.43" y="759.005" svg_rhmargin="438.232" style="fill:#000000;font-family:HFHEEM+Palatino-Roman;font-size:8.97px;font-style:NORMAL;font-weight:normal;">reduce benthic carbon immobilization and sequestration through ocean acidiﬁcation [31]. This</text>
  <text x="55.547,60.442,64.423,68.405,73.811,77.353,81.155,83.924,89.142,94.038,96.961,99.726,104.622,109.841,112.45,117.435,120.19,125.149,129.444,133.425,137.908,143.315,147.117,151.41199999999998,154.191,159.087,162.07299999999998,164.838,167.447,172.666,176.647,180.031,184.326,188.809,192.611,196.906,200.708,203.476,206.086,211.304,214.069,216.992,222.211,226.506,229.267,234.656,239.874,244.86,248.661,251.271,256.166,258.776,263.671,268.657,271.266,275.247,279.73,282.339,285.103,287.595,291.576,296.472,300.274,303.197,305.69,308.462,313.358,316.344,319.109,322.91,327.896,333.114,336.037,341.256,345.551,349.352,351.962,356.445,359.054,364.272,369.257,372.021,376.504,381.723,387.201,389.967,397.887,402.371,404.98,410.198,413.121,417.604,420.214,425.432,428.041,433.26" y="770.957" svg_rhmargin="438.245" style="fill:#000000;font-family:HFHEEM+Palatino-Roman;font-size:8.97px;font-style:NORMAL;font-weight:normal;">occurs not only because of increases in the physiological ‘cost’ of synthesizing and maintaining</text>
 </g>
</svg>
