<?xml version="1.0" encoding="UTF-8"?>
<svg height="780.961" width="483.05695474" xmlns="http://www.w3.org/2000/svg">
 <g style="fill:none;">
  <text x="466.02,468.864" y="154.50199999999995" svg_rhmargin="472.208" style="fill:#ffffff;font-family:LGKHOC+MyriadPro-BoldCond;font-size:8.97px;font-style:NORMAL;font-weight:bold;">15</text>
  <text svg_rhmargin="467.532" transform="matrix(0.0,1.0,-1.0,0.0,639.044,-296.02)" x="467.532" y="171.512" style="fill:#124b94;font-family:LGKHFF+MyriadPro-Cond;font-size:0.0px;font-style:NORMAL;font-weight:normal;">r</text>
  <text svg_rhmargin="467.532" transform="matrix(0.0,1.0,-1.0,0.0,641.762,-293.302)" x="467.532" y="174.23" style="fill:#124b94;font-family:LGKHFF+MyriadPro-Cond;font-size:0.0px;font-style:NORMAL;font-weight:normal;">s</text>
  <text svg_rhmargin="467.532" transform="matrix(0.0,1.0,-1.0,0.0,644.929,-290.135)" x="467.532" y="177.397" style="fill:#124b94;font-family:LGKHFF+MyriadPro-Cond;font-size:0.0px;font-style:NORMAL;font-weight:normal;">t</text>
  <text svg_rhmargin="467.532" transform="matrix(0.0,1.0,-1.0,0.0,647.723,-287.341)" x="467.532" y="180.191" style="fill:#124b94;font-family:LGKHFF+MyriadPro-Cond;font-size:0.0px;font-style:NORMAL;font-weight:normal;">a</text>
  <text svg_rhmargin="467.532" transform="matrix(0.0,1.0,-1.0,0.0,651.712,-283.352)" x="467.532" y="184.18" style="fill:#124b94;font-family:LGKHFF+MyriadPro-Cond;font-size:0.0px;font-style:NORMAL;font-weight:normal;">.</text>
  <text svg_rhmargin="467.532" transform="matrix(0.0,1.0,-1.0,0.0,653.839,-281.225)" x="467.532" y="186.307" style="fill:#124b94;font-family:LGKHFF+MyriadPro-Cond;font-size:0.0px;font-style:NORMAL;font-weight:normal;">r</text>
  <text svg_rhmargin="467.532" transform="matrix(0.0,1.0,-1.0,0.0,656.404,-278.66)" x="467.532" y="188.872" style="fill:#124b94;font-family:LGKHFF+MyriadPro-Cond;font-size:0.0px;font-style:NORMAL;font-weight:normal;">o</text>
  <text svg_rhmargin="467.532" transform="matrix(0.0,1.0,-1.0,0.0,660.517,-274.547)" x="467.532" y="192.985" style="fill:#124b94;font-family:LGKHFF+MyriadPro-Cond;font-size:0.0px;font-style:NORMAL;font-weight:normal;">y</text>
  <text svg_rhmargin="467.532" transform="matrix(0.0,1.0,-1.0,0.0,664.207,-270.857)" x="467.532" y="196.675" style="fill:#124b94;font-family:LGKHFF+MyriadPro-Cond;font-size:0.0px;font-style:NORMAL;font-weight:normal;">a</text>
  <text svg_rhmargin="467.532" transform="matrix(0.0,1.0,-1.0,0.0,668.196,-266.868)" x="467.532" y="200.664" style="fill:#124b94;font-family:LGKHFF+MyriadPro-Cond;font-size:0.0px;font-style:NORMAL;font-weight:normal;">l</text>
  <text svg_rhmargin="467.532" transform="matrix(0.0,1.0,-1.0,0.0,670.289,-264.775)" x="467.532" y="202.757" style="fill:#124b94;font-family:LGKHFF+MyriadPro-Cond;font-size:0.0px;font-style:NORMAL;font-weight:normal;">s</text>
  <text svg_rhmargin="467.532" transform="matrix(0.0,1.0,-1.0,0.0,673.456,-261.608)" x="467.532" y="205.924" style="fill:#124b94;font-family:LGKHFF+MyriadPro-Cond;font-size:0.0px;font-style:NORMAL;font-weight:normal;">o</text>
  <text svg_rhmargin="467.532" transform="matrix(0.0,1.0,-1.0,0.0,677.653,-257.411)" x="467.532" y="210.121" style="fill:#124b94;font-family:LGKHFF+MyriadPro-Cond;font-size:0.0px;font-style:NORMAL;font-weight:normal;">c</text>
  <text svg_rhmargin="467.532" transform="matrix(0.0,1.0,-1.0,0.0,680.963,-254.101)" x="467.532" y="213.431" style="fill:#124b94;font-family:LGKHFF+MyriadPro-Cond;font-size:0.0px;font-style:NORMAL;font-weight:normal;">i</text>
  <text svg_rhmargin="467.532" transform="matrix(0.0,1.0,-1.0,0.0,682.979,-252.085)" x="467.532" y="215.447" style="fill:#124b94;font-family:LGKHFF+MyriadPro-Cond;font-size:0.0px;font-style:NORMAL;font-weight:normal;">e</text>
  <text svg_rhmargin="467.532" transform="matrix(0.0,1.0,-1.0,0.0,686.957,-248.107)" x="467.532" y="219.425" style="fill:#124b94;font-family:LGKHFF+MyriadPro-Cond;font-size:0.0px;font-style:NORMAL;font-weight:normal;">t</text>
  <text svg_rhmargin="467.532" transform="matrix(0.0,1.0,-1.0,0.0,689.865,-245.199)" x="467.532" y="222.333" style="fill:#124b94;font-family:LGKHFF+MyriadPro-Cond;font-size:0.0px;font-style:NORMAL;font-weight:normal;">y</text>
  <text svg_rhmargin="467.532" transform="matrix(0.0,1.0,-1.0,0.0,693.657,-241.407)" x="467.532" y="226.125" style="fill:#124b94;font-family:LGKHFF+MyriadPro-Cond;font-size:0.0px;font-style:NORMAL;font-weight:normal;">p</text>
  <text svg_rhmargin="467.532" transform="matrix(0.0,1.0,-1.0,0.0,698.029,-237.035)" x="467.532" y="230.497" style="fill:#124b94;font-family:LGKHFF+MyriadPro-Cond;font-size:0.0px;font-style:NORMAL;font-weight:normal;">u</text>
  <text svg_rhmargin="467.532" transform="matrix(0.0,1.0,-1.0,0.0,702.391,-232.673)" x="467.532" y="234.859" style="fill:#124b94;font-family:LGKHFF+MyriadPro-Cond;font-size:0.0px;font-style:NORMAL;font-weight:normal;">b</text>
  <text svg_rhmargin="467.532" transform="matrix(0.0,1.0,-1.0,0.0,706.763,-228.301)" x="467.532" y="239.231" style="fill:#124b94;font-family:LGKHFF+MyriadPro-Cond;font-size:0.0px;font-style:NORMAL;font-weight:normal;">l</text>
  <text svg_rhmargin="467.532" transform="matrix(0.0,1.0,-1.0,0.0,708.857,-226.207)" x="467.532" y="241.325" style="fill:#124b94;font-family:LGKHFF+MyriadPro-Cond;font-size:0.0px;font-style:NORMAL;font-weight:normal;">i</text>
  <text svg_rhmargin="467.532" transform="matrix(0.0,1.0,-1.0,0.0,710.873,-224.191)" x="467.532" y="243.341" style="fill:#124b94;font-family:LGKHFF+MyriadPro-Cond;font-size:0.0px;font-style:NORMAL;font-weight:normal;">s</text>
  <text svg_rhmargin="467.532" transform="matrix(0.0,1.0,-1.0,0.0,714.04,-221.024)" x="467.532" y="246.508" style="fill:#124b94;font-family:LGKHFF+MyriadPro-Cond;font-size:0.0px;font-style:NORMAL;font-weight:normal;">h</text>
  <text svg_rhmargin="467.532" transform="matrix(0.0,1.0,-1.0,0.0,718.478,-216.586)" x="467.532" y="250.946" style="fill:#124b94;font-family:LGKHFF+MyriadPro-Cond;font-size:0.0px;font-style:NORMAL;font-weight:normal;">i</text>
  <text svg_rhmargin="467.532" transform="matrix(0.0,1.0,-1.0,0.0,720.495,-214.569)" x="467.532" y="252.963" style="fill:#124b94;font-family:LGKHFF+MyriadPro-Cond;font-size:0.0px;font-style:NORMAL;font-weight:normal;">n</text>
  <text svg_rhmargin="467.532" transform="matrix(0.0,1.0,-1.0,0.0,724.933,-210.131)" x="467.532" y="257.401" style="fill:#124b94;font-family:LGKHFF+MyriadPro-Cond;font-size:0.0px;font-style:NORMAL;font-weight:normal;">g</text>
  <text svg_rhmargin="467.532" transform="matrix(0.0,1.0,-1.0,0.0,729.064,-206.0)" x="467.532" y="261.532" style="fill:#124b94;font-family:LGKHFF+MyriadPro-Cond;font-size:0.0px;font-style:NORMAL;font-weight:normal;">.</text>
  <text svg_rhmargin="467.532" transform="matrix(0.0,1.0,-1.0,0.0,731.187,-203.877)" x="467.532" y="263.655" style="fill:#124b94;font-family:LGKHFF+MyriadPro-Cond;font-size:0.0px;font-style:NORMAL;font-weight:normal;">o</text>
  <text svg_rhmargin="467.532" transform="matrix(0.0,1.0,-1.0,0.0,735.385,-199.679)" x="467.532" y="267.853" style="fill:#124b94;font-family:LGKHFF+MyriadPro-Cond;font-size:0.0px;font-style:NORMAL;font-weight:normal;">r</text>
  <text svg_rhmargin="467.532" transform="matrix(0.0,1.0,-1.0,0.0,737.949,-197.115)" x="467.532" y="270.417" style="fill:#124b94;font-family:LGKHFF+MyriadPro-Cond;font-size:0.0px;font-style:NORMAL;font-weight:normal;">g</text>
  <text svg_rhmargin="467.532" transform="matrix(0.0,1.0,-1.0,0.0,747.808,-187.256)" x="467.532" y="280.276" style="fill:#124b94;font-family:LGKHOD+MyriadPro-CondIt;font-size:0.0px;font-style:ITALIC;font-weight:normal;">P</text>
  <text svg_rhmargin="467.532" transform="matrix(0.0,1.0,-1.0,0.0,752.083,-182.981)" x="467.532" y="284.551" style="fill:#124b94;font-family:LGKHOD+MyriadPro-CondIt;font-size:0.0px;font-style:ITALIC;font-weight:normal;">h</text>
  <text svg_rhmargin="467.532" transform="matrix(0.0,1.0,-1.0,0.0,756.394,-178.67)" x="467.532" y="288.862" style="fill:#124b94;font-family:LGKHOD+MyriadPro-CondIt;font-size:0.0px;font-style:ITALIC;font-weight:normal;">i</text>
  <text svg_rhmargin="467.532" transform="matrix(0.0,1.0,-1.0,0.0,758.356,-176.708)" x="467.532" y="290.824" style="fill:#124b94;font-family:LGKHOD+MyriadPro-CondIt;font-size:0.0px;font-style:ITALIC;font-weight:normal;">l</text>
  <text svg_rhmargin="467.532" transform="matrix(0.0,1.0,-1.0,0.0,759.976,-175.088)" x="467.532" y="292.444" style="fill:#124b94;font-family:LGKHOD+MyriadPro-CondIt;font-size:0.0px;font-style:ITALIC;font-weight:normal;">.</text>
  <text svg_rhmargin="467.532" transform="matrix(0.0,1.0,-1.0,0.0,763.948,-171.116)" x="467.532" y="296.416" style="fill:#124b94;font-family:LGKHOD+MyriadPro-CondIt;font-size:0.0px;font-style:ITALIC;font-weight:normal;">T</text>
  <text svg_rhmargin="467.532" transform="matrix(0.0,1.0,-1.0,0.0,767.234,-167.83)" x="467.532" y="299.702" style="fill:#124b94;font-family:LGKHOD+MyriadPro-CondIt;font-size:0.0px;font-style:ITALIC;font-weight:normal;">r</text>
  <text svg_rhmargin="467.532" transform="matrix(0.0,1.0,-1.0,0.0,769.718,-165.346)" x="467.532" y="302.186" style="fill:#124b94;font-family:LGKHOD+MyriadPro-CondIt;font-size:0.0px;font-style:ITALIC;font-weight:normal;">a</text>
  <text svg_rhmargin="467.532" transform="matrix(0.0,1.0,-1.0,0.0,773.885,-161.179)" x="467.532" y="306.353" style="fill:#124b94;font-family:LGKHOD+MyriadPro-CondIt;font-size:0.0px;font-style:ITALIC;font-weight:normal;">n</text>
  <text svg_rhmargin="467.532" transform="matrix(0.0,1.0,-1.0,0.0,778.196,-156.868)" x="467.532" y="310.664" style="fill:#124b94;font-family:LGKHOD+MyriadPro-CondIt;font-size:0.0px;font-style:ITALIC;font-weight:normal;">s</text>
  <text svg_rhmargin="467.532" transform="matrix(0.0,1.0,-1.0,0.0,781.174,-153.89)" x="467.532" y="313.642" style="fill:#124b94;font-family:LGKHOD+MyriadPro-CondIt;font-size:0.0px;font-style:ITALIC;font-weight:normal;">.</text>
  <text svg_rhmargin="467.532" transform="matrix(0.0,1.0,-1.0,0.0,785.147,-149.917)" x="467.532" y="317.615" style="fill:#124b94;font-family:LGKHOD+MyriadPro-CondIt;font-size:0.0px;font-style:ITALIC;font-weight:normal;">R</text>
  <text svg_rhmargin="467.532" transform="matrix(0.0,1.0,-1.0,0.0,789.512,-145.552)" x="467.532" y="321.98" style="fill:#124b94;font-family:LGKHOD+MyriadPro-CondIt;font-size:0.0px;font-style:ITALIC;font-weight:normal;">.</text>
  <text svg_rhmargin="467.532" transform="matrix(0.0,1.0,-1.0,0.0,793.22,-141.844)" x="467.532" y="325.688" style="fill:#124b94;font-family:LGKHOD+MyriadPro-CondIt;font-size:0.0px;font-style:ITALIC;font-weight:normal;">S</text>
  <text svg_rhmargin="467.532" transform="matrix(0.0,1.0,-1.0,0.0,797.019,-138.045)" x="467.532" y="329.487" style="fill:#124b94;font-family:LGKHOD+MyriadPro-CondIt;font-size:0.0px;font-style:ITALIC;font-weight:normal;">o</text>
  <text svg_rhmargin="467.532" transform="matrix(0.0,1.0,-1.0,0.0,801.095,-133.969)" x="467.532" y="333.563" style="fill:#124b94;font-family:LGKHOD+MyriadPro-CondIt;font-size:0.0px;font-style:ITALIC;font-weight:normal;">c</text>
  <text svg_rhmargin="467.532" transform="matrix(0.0,1.0,-1.0,0.0,804.165,-130.899)" x="467.532" y="336.633" style="fill:#124b94;font-family:LGKHOD+MyriadPro-CondIt;font-size:0.0px;font-style:ITALIC;font-weight:normal;">.</text>
  <text svg_rhmargin="467.532" transform="matrix(0.0,1.0,-1.0,0.0,808.138,-126.926)" x="467.532" y="340.606" style="fill:#124b94;font-family:LGKHOD+MyriadPro-CondIt;font-size:0.0px;font-style:ITALIC;font-weight:normal;">A</text>
  <text svg_rhmargin="467.532" transform="matrix(0.0,1.0,-1.0,0.0,814.515,-120.549)" x="467.532" y="346.983" style="fill:#124b94;font-family:LGKHOC+MyriadPro-BoldCond;font-size:0.0px;font-style:NORMAL;font-weight:bold;">3</text>
  <text svg_rhmargin="467.532" transform="matrix(0.0,1.0,-1.0,0.0,818.474,-116.59)" x="467.532" y="350.942" style="fill:#124b94;font-family:LGKHOC+MyriadPro-BoldCond;font-size:0.0px;font-style:NORMAL;font-weight:bold;">7</text>
  <text svg_rhmargin="467.532" transform="matrix(0.0,1.0,-1.0,0.0,822.542,-112.522)" x="467.532" y="355.01" style="fill:#124b94;font-family:LGKHOC+MyriadPro-BoldCond;font-size:0.0px;font-style:NORMAL;font-weight:bold;">2</text>
  <text svg_rhmargin="467.532" transform="matrix(0.0,1.0,-1.0,0.0,826.665,-108.399)" x="467.532" y="359.133" style="fill:#124b94;font-family:LGKHFF+MyriadPro-Cond;font-size:0.0px;font-style:NORMAL;font-weight:normal;">:</text>
  <text svg_rhmargin="467.532" transform="matrix(0.0,1.0,-1.0,0.0,830.786,-104.278)" x="467.532" y="363.254" style="fill:#124b94;font-family:LGKHFF+MyriadPro-Cond;font-size:0.0px;font-style:NORMAL;font-weight:normal;">2</text>
  <text svg_rhmargin="467.532" transform="matrix(0.0,1.0,-1.0,0.0,834.468,-100.596)" x="467.532" y="366.936" style="fill:#124b94;font-family:LGKHFF+MyriadPro-Cond;font-size:0.0px;font-style:NORMAL;font-weight:normal;">0</text>
  <text svg_rhmargin="467.532" transform="matrix(0.0,1.0,-1.0,0.0,838.688,-96.376)" x="467.532" y="371.156" style="fill:#124b94;font-family:LGKHFF+MyriadPro-Cond;font-size:0.0px;font-style:NORMAL;font-weight:normal;">1</text>
  <text svg_rhmargin="467.532" transform="matrix(0.0,1.0,-1.0,0.0,841.626,-93.438)" x="467.532" y="374.094" style="fill:#124b94;font-family:LGKHFF+MyriadPro-Cond;font-size:0.0px;font-style:NORMAL;font-weight:normal;">3</text>
  <text svg_rhmargin="467.532" transform="matrix(0.0,1.0,-1.0,0.0,845.287,-89.777)" x="467.532" y="377.755" style="fill:#124b94;font-family:LGKHFF+MyriadPro-Cond;font-size:0.0px;font-style:NORMAL;font-weight:normal;">0</text>
  <text svg_rhmargin="467.532" transform="matrix(0.0,1.0,-1.0,0.0,849.508,-85.556)" x="467.532" y="381.976" style="fill:#124b94;font-family:LGKHFF+MyriadPro-Cond;font-size:0.0px;font-style:NORMAL;font-weight:normal;">2</text>
  <text svg_rhmargin="467.532" transform="matrix(0.0,1.0,-1.0,0.0,853.191,-81.873)" x="467.532" y="385.659" style="fill:#124b94;font-family:LGKHFF+MyriadPro-Cond;font-size:0.0px;font-style:NORMAL;font-weight:normal;">9</text>
  <text svg_rhmargin="467.532" transform="matrix(0.0,1.0,-1.0,0.0,857.411,-77.653)" x="467.532" y="389.879" style="fill:#124b94;font-family:LGKHFF+MyriadPro-Cond;font-size:0.0px;font-style:NORMAL;font-weight:normal;">6</text>
  <text svg_rhmargin="461.169" transform="matrix(0.0,1.0,-1.0,0.0,633.536,-288.802)" x="461.169" y="172.367" style="fill:#231f20;font-family:LGKHBG+Palatino-Roman;font-size:0.0px;font-style:NORMAL;font-weight:normal;">.</text>
  <text svg_rhmargin="461.169" transform="matrix(0.0,1.0,-1.0,0.0,637.481,-284.857)" x="461.169" y="176.312" style="fill:#231f20;font-family:LGKHBG+Palatino-Roman;font-size:0.0px;font-style:NORMAL;font-weight:normal;">.</text>
  <text svg_rhmargin="461.169" transform="matrix(0.0,1.0,-1.0,0.0,641.426,-280.912)" x="461.169" y="180.257" style="fill:#231f20;font-family:LGKHBG+Palatino-Roman;font-size:0.0px;font-style:NORMAL;font-weight:normal;">.</text>
  <text svg_rhmargin="461.169" transform="matrix(0.0,1.0,-1.0,0.0,645.372,-276.966)" x="461.169" y="184.203" style="fill:#231f20;font-family:LGKHBG+Palatino-Roman;font-size:0.0px;font-style:NORMAL;font-weight:normal;">.</text>
  <text svg_rhmargin="461.169" transform="matrix(0.0,1.0,-1.0,0.0,649.317,-273.021)" x="461.169" y="188.148" style="fill:#231f20;font-family:LGKHBG+Palatino-Roman;font-size:0.0px;font-style:NORMAL;font-weight:normal;">.</text>
  <text svg_rhmargin="461.169" transform="matrix(0.0,1.0,-1.0,0.0,653.262,-269.076)" x="461.169" y="192.093" style="fill:#231f20;font-family:LGKHBG+Palatino-Roman;font-size:0.0px;font-style:NORMAL;font-weight:normal;">.</text>
  <text svg_rhmargin="461.169" transform="matrix(0.0,1.0,-1.0,0.0,657.207,-265.131)" x="461.169" y="196.038" style="fill:#231f20;font-family:LGKHBG+Palatino-Roman;font-size:0.0px;font-style:NORMAL;font-weight:normal;">.</text>
  <text svg_rhmargin="461.169" transform="matrix(0.0,1.0,-1.0,0.0,661.152,-261.186)" x="461.169" y="199.983" style="fill:#231f20;font-family:LGKHBG+Palatino-Roman;font-size:0.0px;font-style:NORMAL;font-weight:normal;">.</text>
  <text svg_rhmargin="461.169" transform="matrix(0.0,1.0,-1.0,0.0,665.098,-257.24)" x="461.169" y="203.929" style="fill:#231f20;font-family:LGKHBG+Palatino-Roman;font-size:0.0px;font-style:NORMAL;font-weight:normal;">.</text>
  <text svg_rhmargin="461.169" transform="matrix(0.0,1.0,-1.0,0.0,669.043,-253.295)" x="461.169" y="207.874" style="fill:#231f20;font-family:LGKHBG+Palatino-Roman;font-size:0.0px;font-style:NORMAL;font-weight:normal;">.</text>
  <text svg_rhmargin="461.169" transform="matrix(0.0,1.0,-1.0,0.0,672.988,-249.35)" x="461.169" y="211.819" style="fill:#231f20;font-family:LGKHBG+Palatino-Roman;font-size:0.0px;font-style:NORMAL;font-weight:normal;">.</text>
  <text svg_rhmargin="461.169" transform="matrix(0.0,1.0,-1.0,0.0,676.933,-245.405)" x="461.169" y="215.764" style="fill:#231f20;font-family:LGKHBG+Palatino-Roman;font-size:0.0px;font-style:NORMAL;font-weight:normal;">.</text>
  <text svg_rhmargin="461.169" transform="matrix(0.0,1.0,-1.0,0.0,680.878,-241.46)" x="461.169" y="219.709" style="fill:#231f20;font-family:LGKHBG+Palatino-Roman;font-size:0.0px;font-style:NORMAL;font-weight:normal;">.</text>
  <text svg_rhmargin="461.169" transform="matrix(0.0,1.0,-1.0,0.0,684.823,-237.515)" x="461.169" y="223.654" style="fill:#231f20;font-family:LGKHBG+Palatino-Roman;font-size:0.0px;font-style:NORMAL;font-weight:normal;">.</text>
  <text svg_rhmargin="461.169" transform="matrix(0.0,1.0,-1.0,0.0,688.769,-233.569)" x="461.169" y="227.6" style="fill:#231f20;font-family:LGKHBG+Palatino-Roman;font-size:0.0px;font-style:NORMAL;font-weight:normal;">.</text>
  <text svg_rhmargin="461.169" transform="matrix(0.0,1.0,-1.0,0.0,692.714,-229.624)" x="461.169" y="231.545" style="fill:#231f20;font-family:LGKHBG+Palatino-Roman;font-size:0.0px;font-style:NORMAL;font-weight:normal;">.</text>
  <text svg_rhmargin="461.169" transform="matrix(0.0,1.0,-1.0,0.0,696.659,-225.679)" x="461.169" y="235.49" style="fill:#231f20;font-family:LGKHBG+Palatino-Roman;font-size:0.0px;font-style:NORMAL;font-weight:normal;">.</text>
  <text svg_rhmargin="461.169" transform="matrix(0.0,1.0,-1.0,0.0,700.604,-221.734)" x="461.169" y="239.435" style="fill:#231f20;font-family:LGKHBG+Palatino-Roman;font-size:0.0px;font-style:NORMAL;font-weight:normal;">.</text>
  <text svg_rhmargin="461.169" transform="matrix(0.0,1.0,-1.0,0.0,704.549,-217.789)" x="461.169" y="243.38" style="fill:#231f20;font-family:LGKHBG+Palatino-Roman;font-size:0.0px;font-style:NORMAL;font-weight:normal;">.</text>
  <text svg_rhmargin="461.169" transform="matrix(0.0,1.0,-1.0,0.0,708.495,-213.843)" x="461.169" y="247.326" style="fill:#231f20;font-family:LGKHBG+Palatino-Roman;font-size:0.0px;font-style:NORMAL;font-weight:normal;">.</text>
  <text svg_rhmargin="461.169" transform="matrix(0.0,1.0,-1.0,0.0,712.44,-209.898)" x="461.169" y="251.271" style="fill:#231f20;font-family:LGKHBG+Palatino-Roman;font-size:0.0px;font-style:NORMAL;font-weight:normal;">.</text>
  <text svg_rhmargin="461.169" transform="matrix(0.0,1.0,-1.0,0.0,716.385,-205.953)" x="461.169" y="255.216" style="fill:#231f20;font-family:LGKHBG+Palatino-Roman;font-size:0.0px;font-style:NORMAL;font-weight:normal;">.</text>
  <text svg_rhmargin="461.169" transform="matrix(0.0,1.0,-1.0,0.0,720.33,-202.008)" x="461.169" y="259.161" style="fill:#231f20;font-family:LGKHBG+Palatino-Roman;font-size:0.0px;font-style:NORMAL;font-weight:normal;">.</text>
  <text svg_rhmargin="461.169" transform="matrix(0.0,1.0,-1.0,0.0,724.275,-198.063)" x="461.169" y="263.106" style="fill:#231f20;font-family:LGKHBG+Palatino-Roman;font-size:0.0px;font-style:NORMAL;font-weight:normal;">.</text>
  <text svg_rhmargin="461.169" transform="matrix(0.0,1.0,-1.0,0.0,728.221,-194.117)" x="461.169" y="267.052" style="fill:#231f20;font-family:LGKHBG+Palatino-Roman;font-size:0.0px;font-style:NORMAL;font-weight:normal;">.</text>
  <text svg_rhmargin="461.169" transform="matrix(0.0,1.0,-1.0,0.0,732.166,-190.172)" x="461.169" y="270.997" style="fill:#231f20;font-family:LGKHBG+Palatino-Roman;font-size:0.0px;font-style:NORMAL;font-weight:normal;">.</text>
  <text svg_rhmargin="461.169" transform="matrix(0.0,1.0,-1.0,0.0,736.111,-186.227)" x="461.169" y="274.942" style="fill:#231f20;font-family:LGKHBG+Palatino-Roman;font-size:0.0px;font-style:NORMAL;font-weight:normal;">.</text>
  <text svg_rhmargin="461.169" transform="matrix(0.0,1.0,-1.0,0.0,740.056,-182.282)" x="461.169" y="278.887" style="fill:#231f20;font-family:LGKHBG+Palatino-Roman;font-size:0.0px;font-style:NORMAL;font-weight:normal;">.</text>
  <text svg_rhmargin="461.169" transform="matrix(0.0,1.0,-1.0,0.0,744.001,-178.337)" x="461.169" y="282.832" style="fill:#231f20;font-family:LGKHBG+Palatino-Roman;font-size:0.0px;font-style:NORMAL;font-weight:normal;">.</text>
  <text svg_rhmargin="461.169" transform="matrix(0.0,1.0,-1.0,0.0,747.947,-174.391)" x="461.169" y="286.778" style="fill:#231f20;font-family:LGKHBG+Palatino-Roman;font-size:0.0px;font-style:NORMAL;font-weight:normal;">.</text>
  <text svg_rhmargin="461.169" transform="matrix(0.0,1.0,-1.0,0.0,751.892,-170.446)" x="461.169" y="290.723" style="fill:#231f20;font-family:LGKHBG+Palatino-Roman;font-size:0.0px;font-style:NORMAL;font-weight:normal;">.</text>
  <text svg_rhmargin="461.169" transform="matrix(0.0,1.0,-1.0,0.0,755.837,-166.501)" x="461.169" y="294.668" style="fill:#231f20;font-family:LGKHBG+Palatino-Roman;font-size:0.0px;font-style:NORMAL;font-weight:normal;">.</text>
  <text svg_rhmargin="461.169" transform="matrix(0.0,1.0,-1.0,0.0,759.782,-162.556)" x="461.169" y="298.613" style="fill:#231f20;font-family:LGKHBG+Palatino-Roman;font-size:0.0px;font-style:NORMAL;font-weight:normal;">.</text>
  <text svg_rhmargin="461.169" transform="matrix(0.0,1.0,-1.0,0.0,763.727,-158.611)" x="461.169" y="302.558" style="fill:#231f20;font-family:LGKHBG+Palatino-Roman;font-size:0.0px;font-style:NORMAL;font-weight:normal;">.</text>
  <text svg_rhmargin="461.169" transform="matrix(0.0,1.0,-1.0,0.0,767.673,-154.665)" x="461.169" y="306.504" style="fill:#231f20;font-family:LGKHBG+Palatino-Roman;font-size:0.0px;font-style:NORMAL;font-weight:normal;">.</text>
  <text svg_rhmargin="461.169" transform="matrix(0.0,1.0,-1.0,0.0,771.618,-150.72)" x="461.169" y="310.449" style="fill:#231f20;font-family:LGKHBG+Palatino-Roman;font-size:0.0px;font-style:NORMAL;font-weight:normal;">.</text>
  <text svg_rhmargin="461.169" transform="matrix(0.0,1.0,-1.0,0.0,775.563,-146.775)" x="461.169" y="314.394" style="fill:#231f20;font-family:LGKHBG+Palatino-Roman;font-size:0.0px;font-style:NORMAL;font-weight:normal;">.</text>
  <text svg_rhmargin="461.169" transform="matrix(0.0,1.0,-1.0,0.0,779.508,-142.83)" x="461.169" y="318.339" style="fill:#231f20;font-family:LGKHBG+Palatino-Roman;font-size:0.0px;font-style:NORMAL;font-weight:normal;">.</text>
  <text svg_rhmargin="461.169" transform="matrix(0.0,1.0,-1.0,0.0,783.454,-138.884)" x="461.169" y="322.285" style="fill:#231f20;font-family:LGKHBG+Palatino-Roman;font-size:0.0px;font-style:NORMAL;font-weight:normal;">.</text>
  <text svg_rhmargin="461.169" transform="matrix(0.0,1.0,-1.0,0.0,787.399,-134.939)" x="461.169" y="326.23" style="fill:#231f20;font-family:LGKHBG+Palatino-Roman;font-size:0.0px;font-style:NORMAL;font-weight:normal;">.</text>
  <text svg_rhmargin="461.169" transform="matrix(0.0,1.0,-1.0,0.0,791.344,-130.994)" x="461.169" y="330.175" style="fill:#231f20;font-family:LGKHBG+Palatino-Roman;font-size:0.0px;font-style:NORMAL;font-weight:normal;">.</text>
  <text svg_rhmargin="461.169" transform="matrix(0.0,1.0,-1.0,0.0,795.289,-127.049)" x="461.169" y="334.12" style="fill:#231f20;font-family:LGKHBG+Palatino-Roman;font-size:0.0px;font-style:NORMAL;font-weight:normal;">.</text>
  <text svg_rhmargin="461.169" transform="matrix(0.0,1.0,-1.0,0.0,799.234,-123.104)" x="461.169" y="338.065" style="fill:#231f20;font-family:LGKHBG+Palatino-Roman;font-size:0.0px;font-style:NORMAL;font-weight:normal;">.</text>
  <text svg_rhmargin="461.169" transform="matrix(0.0,1.0,-1.0,0.0,803.18,-119.158)" x="461.169" y="342.011" style="fill:#231f20;font-family:LGKHBG+Palatino-Roman;font-size:0.0px;font-style:NORMAL;font-weight:normal;">.</text>
  <text svg_rhmargin="461.169" transform="matrix(0.0,1.0,-1.0,0.0,807.125,-115.213)" x="461.169" y="345.956" style="fill:#231f20;font-family:LGKHBG+Palatino-Roman;font-size:0.0px;font-style:NORMAL;font-weight:normal;">.</text>
  <text svg_rhmargin="461.169" transform="matrix(0.0,1.0,-1.0,0.0,811.07,-111.268)" x="461.169" y="349.901" style="fill:#231f20;font-family:LGKHBG+Palatino-Roman;font-size:0.0px;font-style:NORMAL;font-weight:normal;">.</text>
  <text svg_rhmargin="461.169" transform="matrix(0.0,1.0,-1.0,0.0,815.015,-107.323)" x="461.169" y="353.846" style="fill:#231f20;font-family:LGKHBG+Palatino-Roman;font-size:0.0px;font-style:NORMAL;font-weight:normal;">.</text>
  <text svg_rhmargin="461.169" transform="matrix(0.0,1.0,-1.0,0.0,818.961,-103.377)" x="461.169" y="357.792" style="fill:#231f20;font-family:LGKHBG+Palatino-Roman;font-size:0.0px;font-style:NORMAL;font-weight:normal;">.</text>
  <text svg_rhmargin="461.169" transform="matrix(0.0,1.0,-1.0,0.0,822.906,-99.432)" x="461.169" y="361.737" style="fill:#231f20;font-family:LGKHBG+Palatino-Roman;font-size:0.0px;font-style:NORMAL;font-weight:normal;">.</text>
  <text svg_rhmargin="461.169" transform="matrix(0.0,1.0,-1.0,0.0,826.851,-95.487)" x="461.169" y="365.682" style="fill:#231f20;font-family:LGKHBG+Palatino-Roman;font-size:0.0px;font-style:NORMAL;font-weight:normal;">.</text>
  <text svg_rhmargin="461.169" transform="matrix(0.0,1.0,-1.0,0.0,830.796,-91.542)" x="461.169" y="369.627" style="fill:#231f20;font-family:LGKHBG+Palatino-Roman;font-size:0.0px;font-style:NORMAL;font-weight:normal;">.</text>
  <text svg_rhmargin="461.169" transform="matrix(0.0,1.0,-1.0,0.0,834.741,-87.597)" x="461.169" y="373.572" style="fill:#231f20;font-family:LGKHBG+Palatino-Roman;font-size:0.0px;font-style:NORMAL;font-weight:normal;">.</text>
  <text svg_rhmargin="461.169" transform="matrix(0.0,1.0,-1.0,0.0,838.687,-83.651)" x="461.169" y="377.518" style="fill:#231f20;font-family:LGKHBG+Palatino-Roman;font-size:0.0px;font-style:NORMAL;font-weight:normal;">.</text>
  <text svg_rhmargin="461.169" transform="matrix(0.0,1.0,-1.0,0.0,842.632,-79.706)" x="461.169" y="381.463" style="fill:#231f20;font-family:LGKHBG+Palatino-Roman;font-size:0.0px;font-style:NORMAL;font-weight:normal;">.</text>
  <text svg_rhmargin="461.169" transform="matrix(0.0,1.0,-1.0,0.0,846.577,-75.761)" x="461.169" y="385.408" style="fill:#231f20;font-family:LGKHBG+Palatino-Roman;font-size:0.0px;font-style:NORMAL;font-weight:normal;">.</text>
  <text svg_rhmargin="461.169" transform="matrix(0.0,1.0,-1.0,0.0,850.522,-71.816)" x="461.169" y="389.353" style="fill:#231f20;font-family:LGKHBG+Palatino-Roman;font-size:0.0px;font-style:NORMAL;font-weight:normal;">.</text>
  <text svg_rhmargin="461.169" transform="matrix(0.0,1.0,-1.0,0.0,854.467,-67.871)" x="461.169" y="393.298" style="fill:#231f20;font-family:LGKHBG+Palatino-Roman;font-size:0.0px;font-style:NORMAL;font-weight:normal;">.</text>
  <text x="55.548,58.472,63.368,70.847,75.331,78.715,84.197,87.99900000000001,90.299,95.006,98.029,103.50699999999999,105.815,109.198,113.492,118.971,124.379,128.361,131.285,133.895,138.791,144.009,146.316,150.298,155.194,160.414,163.338,165.948,171.167,176.575,180.871,184.673,186.973,189.583,194.803,197.726,202.621,204.926,207.85,213.07,217.36499999999998,219.667,222.654,228.062,230.986,236.393,239.777,244.07199999999997,246.366,253.844,258.329,261.871,269.789,272.4,277.619,282.60400000000004,284.909,288.712,292.694,296.99,302.209,306.693,310.236,312.846,317.743,321.545,323.78700000000003,326.099,330.582,335.801,341.279,343.586,348.07,350.681,353.28999999999996,355.604,360.563,365.971,368.894,371.2,376.097,381.316,385.611,387.914,395.834,400.73,406.209,410.505,413.114,415.42,418.406,421.017,426.235,428.541,433.023" y="149.56100000000004" svg_rhmargin="438.241" style="fill:#231f20;font-family:LGKHBG+Palatino-Roman;font-size:8.97px;font-style:NORMAL;font-weight:normal;">towards SIE reduction continues into the future warming scenarios, and all but one model (in an</text>
  <text x="55.548,59.843,65.061,68.863,73.158,81.075,86.034,88.643,92.938,95.798,100.694,103.68,106.544,110.345,114.64,119.706,124.001,129.22,132.206,135.069,140.288,144.771,149.837,154.13199999999998,156.992,162.471,166.765,170.747,174.13,178.425,182.909,186.71,189.32,194.538,199.52300000000002,202.386,206.188,210.483,214.966,217.952,220.561,224.542,228.837,231.706,236.772,241.668,244.277,249.684,257.601,261.896,264.757,269.652,274.718,279.013,282.55499999999995,285.412,288.335,293.554,297.849,300.709,303.632,311.11,315.405,320.623,323.546,328.532,331.518,336.942,340.484,344.286,347.209,350.055,354.036,358.331,363.549,366.472,371.879,375.421,380.406,383.269,385.878,391.096,393.951,396.875,402.093,406.38800000000003,409.248,415.238,421.595,427.011,431.494,433.735" y="161.52200000000005" svg_rhmargin="438.218" style="fill:#231f20;font-family:LGKHBG+Palatino-Roman;font-size:8.97px;font-style:NORMAL;font-weight:normal;">ensemble of seven) have decreasing sea-ice volume over the twenty-ﬁrst century in the RCP4.5</text>
  <text x="55.548,59.35,63.331,67.626,72.844,77.327,80.869,83.478,88.37299999999999,90.625,93.609,98.092,102.573,105.562" y="173.47400000000005" svg_rhmargin="107.804" style="fill:#231f20;font-family:LGKHBG+Palatino-Roman;font-size:8.97px;font-style:NORMAL;font-weight:normal;">scenario [68].</text>
  <text x="67.5,74.477,77.401,80.325,83.867,86.478,91.437,96.845,99.768,102.379,107.598,112.583,114.735,117.659,122.879,127.174,130.977,135.272,137.43,142.138,145.161,150.639,152.802,157.761,160.372,164.856,168.658,172.954,176.756,178.921,183.403,188.623,194.101,196.264,199.188,202.572,206.868,212.087,217.566,221.368,223.516,226.126,229.928,232.093,237.572,240.182,243.009,248.436,252.418,257.826,260.436,263.359,265.512,270.408,277.887,280.497,285.716,290.701,292.854,295.778,300.673,302.835,305.759,310.978,315.273,317.431,320.042,324.526,327.91,332.896,337.19100000000003,339.349,344.569,349.977,357.895,362.854,367.15,370.69199999999995,372.847,377.744,380.73,382.892,388.282,391.666,396.563,400.545,404.84,408.643,412.446,416.741,420.543,422.709,425.633,430.852,435.336" y="185.43600000000004" svg_rhmargin="438.259" style="fill:#231f20;font-family:LGKHBG+Palatino-Roman;font-size:8.97px;font-style:NORMAL;font-weight:normal;">Attributing these SIE biases and trends is difﬁcult owing to the large number of processes that</text>
  <text x="55.548,58.158,63.377,68.83,74.238,78.533,83.753,87.735,92.03,95.178,98.102,103.321,107.617,115.535,117.777,120.935,126.415,131.042,135.527,143.445,146.055,151.274,155.758,158.682,161.292,166.189,171.40699999999998,174.55,179.447,182.433,185.585,188.195,193.092,198.311,203.297,206.284,209.208,213.504,217.046,224.963,228.107,233.515,238.734,241.721,246.618,250.001,253.98,258.276,263.754,266.907,273.265,281.748,284.77,290.187,294.67,297.828,301.81,306.707,311.926,314.85,318.234,323.131,325.73999999999995,328.882,332.356,337.765,342.985,346.78700000000003,349.933,353.736,358.955,363.851,371.33,375.132,378.287,381.211,386.431,390.915,393.838,396.989,400.788,403.398,408.384,413.603,416.213,421.639,425.621,430.105,435.324" y="197.38800000000003" svg_rhmargin="438.247" style="fill:#231f20;font-family:LGKHBG+Palatino-Roman;font-size:8.97px;font-style:NORMAL;font-weight:normal;">inﬂuence them. Examination of long-term unforced CMIP5 control runs shows that signiﬁcant</text>
  <text x="55.548,61.027,64.57,67.18,70.167,73.091,76.893,78.896,84.375,89.27,91.287,96.184,100.166,104.148,109.555,113.09700000000001,115.117,117.727,122.94500000000001,124.954,127.878,133.098,137.393,141.196,145.49099999999999,147.505,155.423,160.32,165.799,170.095,172.705,176.507,178.749,180.765,185.724,191.132,194.055,196.073,198.997,204.216,208.7,211.623,213.633,216.557,221.776,226.072,229.875,234.17,236.183,241.663,246.55800000000002,248.575,253.794,258.691,261.614,263.623,268.843,273.328,278.395,282.69,284.703,288.501,291.112,296.098,301.317,303.927,309.353,313.335,317.819,323.038,325.961,327.98,330.59,338.508,343.898,348.382,352.364,355.287,357.296,362.193,367.411,369.428,372.352,377.572,381.867,383.881,386.867,391.764,395.148,399.126,403.422,408.90000000000003,410.91,413.834,417.218,421.513,426.733,432.212,436.015" y="209.34000000000003" svg_rhmargin="438.257" style="fill:#231f20;font-family:LGKHBG+Palatino-Roman;font-size:8.97px;font-style:NORMAL;font-weight:normal;">drifts do occur in these models, but that these do not have signiﬁcant impact on the forced trends.</text>
  <text x="55.548,58.571,63.79,67.593,70.517,74.812,79.296,84.776,87.018,89.924,92.848,98.068,102.363,105.259,110.218,112.828,117.312,121.114,124.026,126.636,131.85399999999998,134.755,139.237,144.196,147.999,152.895,155.505,160.913,163.837,168.13199999999998,171.037,175.745,178.768,184.246,187.147,191.629,194.552,197.461,200.385,205.604,209.899,212.795,216.598,219.522,224.006,227.549,230.472,233.38,238.277,241.26299999999998,244.163,247.152,252.048,255.432,259.414,263.71,269.188,272.089,274.699,279.919,282.843,287.138,292.125,295.667,300.151,303.075,305.685,310.582,315.801,319.603,322.497,327.718,332.202,336.004,338.907,343.39,346.296,354.214,359.622,363.604,368.822,371.731,374.341,378.825,382.209,387.195,391.491,395.03299999999996,397.935,400.545,408.464,413.853,418.337,422.319,425.242,428.142,433.039" y="221.30100000000004" svg_rhmargin="438.257" style="fill:#231f20;font-family:LGKHBG+Palatino-Roman;font-size:8.97px;font-style:NORMAL;font-weight:normal;">Instead, the bias in absolute SIE at the start of forced integrations has a much larger impact on</text>
  <text x="55.548,58.472,63.368,66.292,70.777,73.386,76.717,81.424,84.447,89.926,92.168,95.506,99.99,105.209,110.687,114.021,116.945,122.164,124.774,128.576,131.911,136.394,141.783,147.173,151.469,155.953,159.496,163.298,166.633,169.558,174.453,177.783,182.743,187.03799999999998,190.375,194.668,198.471,201.395,205.879,210.838,213.448,216.058,219.861,225.08,229.376,234.854,238.196,243.263,247.559,251.102,256.087,259.427,264.449,269.857,272.467,276.449,281.435,284.045,289.03000000000003,292.361,296.845,299.832,302.756,307.052,310.594,313.928,316.852,322.072,326.367,329.704,333.506,336.43,340.914,344.457,347.38,350.712,355.609,358.59499999999997,361.936,365.915,370.811,376.03,378.954,382.338,387.235,389.844,393.175,396.65,402.059,407.278,411.081,413.32300000000004,416.661,425.625,430.845,435.329" y="233.25300000000004" svg_rhmargin="438.252" style="fill:#231f20;font-family:LGKHBG+Palatino-Roman;font-size:8.97px;font-style:NORMAL;font-weight:normal;">total SIE, and this appears to be established very quickly after the start of control runs. What</text>
  <text svg_rhmargin="360.553" x="55.548,59.53,64.014,69.422,73.224,77.52,81.322,83.541,86.465,91.684,94.295,98.09700000000001,100.298,102.908,108.127,110.737,113.661,116.271,120.755,123.36399999999999,125.561,130.458,133.284,136.271,140.073,144.369,147.292,149.499,152.109,155.911,158.121,163.529,168.748,173.734,178.954,183.85,191.329,196.548,198.79,200.986,205.468,208.078,211.002,216.221,221.118,226.526,231.512,236.73,238.928,241.852,247.071,251.367,254.751,259.046,261.249,263.859,267.661,269.871,274.354,276.558,280.537,285.433,288.976,292.36,296.653,299.263,303.747,306.671,309.281,314.178,319.396,321.594,326.49,329.476,331.684,336.168,339.552,344.448,349.856,355.075,360.553" y="245.20600000000002" style="fill:#231f20;font-family:LGKHBG+Palatino-Roman;font-size:8.97px;font-style:NORMAL;font-weight:normal;">causes this initial offset is unknown, although there is a correlation of around </text>
  <text svg_rhmargin="366.234" x="362.746,366.234" y="245.20600000000002" style="fill:#231f20;font-family:LGKINA+Palatino-Italic;font-size:8.97px;font-style:ITALIC;font-weight:normal;">r </text>
  <text svg_rhmargin="374.978" x="367.984,374.977" y="245.20600000000002" style="fill:#231f20;font-family:LGKIKB+MTSY;font-size:8.97px;font-style:NORMAL;font-weight:normal;">= </text>
  <text x="376.715,381.198,383.439,387.922,390.136,395.094,399.389,402.312,409.79,414.085,418.38,423.598,425.805,428.728,433.946" y="245.20600000000002" svg_rhmargin="438.241" style="fill:#231f20;font-family:LGKHBG+Palatino-Roman;font-size:8.97px;font-style:NORMAL;font-weight:normal;">0.4 between the</text>
  <text x="55.548,58.472,62.768,70.686,76.076,80.371,83.914,88.398,91.322,96.73,100.114,104.409,106.522,111.419,114.405,116.53,119.454,124.674,128.969,131.091,136.57,140.866,145.162,150.55100000000002,152.686,159.044,165.985,174.95100000000002,177.083,184.562,188.858,191.468,194.077,196.202,199.586,203.882,211.8,216.697,221.764,226.059,231.537,233.665,236.653,240.037,244.934,252.851,254.969,257.893,263.112,267.40700000000004,269.529,273.332,277.628,282.112,285.099,287.709,291.691,295.986,298.126,302.608,307.505,312.724,317.019,319.141,322.13,327.089,331.385,333.995,338.892,346.37,348.495,352.979,357.463,361.947,366.43,368.562,374.042,379.001,383.485,387.027,389.155,393.64,398.859,404.337,406.464,411.684,416.581,420.124,423.048,428.266,430.383,435.28" y="257.16700000000003" svg_rhmargin="438.266" style="fill:#231f20;font-family:LGKHBG+Palatino-Roman;font-size:8.97px;font-style:NORMAL;font-weight:normal;">temperature of the deep CDW well removed from the sea-ice zone (below 2000 dbar and north of</text>
  <text x="55.548,60.03" y="269.119" svg_rhmargin="64.513" style="fill:#231f20;font-family:LGKHBG+Palatino-Roman;font-size:8.97px;font-style:NORMAL;font-weight:normal;">50</text>
  <text x="64.512" y="265.85900000000004" svg_rhmargin="67.999" style="fill:#231f20;font-family:LGKIKB+MTSY;font-size:6.97px;font-style:NORMAL;font-weight:normal;">◦</text>
  <text x="68.499,73.206,76.19200000000001,78.202,82.685,87.903,93.381,95.391,98.314,103.533,107.828,109.823,117.741,122.036,126.519,131.737,133.746,141.206,144.227,148.935,154.431,156.441,161.148,164.17,169.648,171.89,173.887,181.365,183.975,186.898,192.11599999999999,194.116,201.594,206.078,209.619,217.537,221.832,225.374,227.376,235.296,240.191,245.67,249.965,252.574,256.37600000000003,258.379,263.599,268.082,273.148,275.757,280.976,285.961,287.969,290.579,294.874,298.675,302.47700000000003,304.489,308.287,312.582,317.065,319.071,321.681,325.662,329.957,332.199,334.214,341.261,344.184,349.403,353.698,357.23999999999995,359.242,363.04,365.963,371.37,376.848,379.457,383.752,387.55400000000003,389.557,394.04,396.649,400.451,405.346,407.363,412.259,417.217,421.019,425.314,428.856,433.922" y="269.11699999999996" svg_rhmargin="438.217" style="fill:#231f20;font-family:LGKHBG+Palatino-Roman;font-size:8.97px;font-style:NORMAL;font-weight:normal;">S) and the mean HIST SIE, with warmer models having less sea ice. Other studies also observe</text>
  <text x="55.548,58.472,63.691,66.301,70.10300000000001,72.917,75.527,78.137,83.356,88.341,91.16,96.119,100.415,103.339,110.818,115.114,119.409,124.62700000000001,127.456,132.352,136.334,140.63,145.114,150.332,153.161,156.086,160.381,168.3,173.689,177.985,181.528,186.012,188.936,194.343,197.727,202.02,205.822,208.627,213.109,218.328,223.806,226.627,231.335,234.358,239.836,242.656,245.628,250.111,254.592,257.578,259.82,262.636,267.119,272.338,277.81600000000003,280.636,283.559,288.777,293.072,296.456,300.75100000000003,303.567,306.176,309.978,312.8,317.283,320.1,325.491,330.387,334.189,336.798,339.721,342.33,347.396,351.69100000000003,354.507,357.89,362.184,364.793,369.276,372.199,374.808,379.704,384.922,388.724,393.943,396.552,401.94100000000003,404.76,409.718,414.013,416.936,424.414,428.709,433.004" y="281.06899999999996" svg_rhmargin="438.222" style="fill:#231f20;font-family:LGKHBG+Palatino-Roman;font-size:8.97px;font-style:NORMAL;font-weight:normal;">this link between ocean temperatures and SIE [66], and there is a positive relationship between</text>
  <text x="55.548,58.157,63.376,67.357,70.741,75.035,79.519,83.32,87.615,93.09299999999999,94.842,100.063,104.357,108.841,111.764,113.512,117.491,122.386,127.605,130.528,134.823,140.041,142.964,144.704,147.313,152.53099999999998,154.279,157.202,162.42,166.71499999999997,168.45,176.367,178.977,183.603,187.898,193.376,195.125,197.735,202.219,207.204,211.499,215.041,216.782,221.265,226.483,231.961,233.701,237.085,241.38,246.859,252.265,256.246,259.17,261.779,266.674,271.893,275.695,277.437,280.047,285.26500000000004,287.004,290.802,295.097,299.58,302.566,305.175,309.156,313.451,315.204,318.127,323.346,325.955,329.936,334.921,340.14,344.435,348.236,352.038,353.78,359.187,364.405,369.884,374.179,377.72099999999995,379.462,385.447,391.804,397.22,401.703,403.944,408.427,410.181,413.167,418.063,421.447,425.425,428.034,433.253" y="293.03" svg_rhmargin="438.238" style="fill:#231f20;font-family:LGKHBG+Palatino-Roman;font-size:8.97px;font-style:NORMAL;font-weight:normal;">increased heat content in the mixed layer and reductions in sea-ice thickness under RCP4.5 forcing</text>
  <text x="55.548,58.536,63.018,67.499,70.485,72.727,74.661,81.708,85.689,89.984,94.467,99.685,101.623,104.548,108.842,116.76,122.149,126.443,129.985,134.468,137.391,142.798,146.182,150.475,154.277,156.51899999999998,158.444,162.927,168.145,173.62300000000002,175.561,180.953,185.436,188.978,191.901,194.51,198.491,203.898,206.507,210.99,214.532,217.141,222.126,224.045,226.968,232.186,236.481,238.414,243.803,248.699,252.5,255.11,258.033,260.642,265.708,270.00300000000004,271.927,276.885,279.495,283.978,287.779,292.074,295.87600000000003,297.816,303.208,306.592,310.885,314.687,318.982,324.2,327.123,329.06,331.669,336.887,338.815,345.172,352.112,360.249,362.49100000000004,364.434,368.917,372.301,376.596,378.529,381.452,386.671,390.966,394.349,398.643,401.628,406.524,409.908,414.20300000000003,416.127,418.736,421.345,426.331,430.626,433.235" y="304.983" svg_rhmargin="438.22" style="fill:#231f20;font-family:LGKHBG+Palatino-Roman;font-size:8.97px;font-style:NORMAL;font-weight:normal;">[68]. Ocean temperatures, and particularly the positive biases present in CDW, are therefore likely</text>
  <text x="55.547,58.471,63.366,66.265,71.485,75.969,81.036,85.331,88.218,92.70100000000001,95.598,99.396,102.006,106.993,112.212,114.822,120.248,124.23,128.714,133.933,136.856,139.756,142.366,150.284,155.674,160.158,164.14,167.063,169.954,174.85,180.06799999999998,182.96,187.668,190.69,196.168,199.061,202.445,206.74,212.13,215.514,219.807,223.61,227.906,233.125,236.049,240.533,243.457,246.067,250.964,256.183,258.425,261.313,266.272,271.679,274.602,277.493,280.417,285.637,289.932,292.828,296.212,300.505,303.115,307.599,310.523,313.133,318.2,322.496,325.106,330.091,332.981,340.46,344.756,349.24,354.225,357.124,361.106,366.002,369.545,372.929,377.225,379.835,384.319,387.243,389.853,394.75,399.968,402.859,405.469,410.688,416.168,418.778,422.76,427.244,430.168,434.464" y="316.935" svg_rhmargin="438.266" style="fill:#231f20;font-family:LGKHBG+Palatino-Roman;font-size:8.97px;font-style:NORMAL;font-weight:normal;">to have a signiﬁcant impact on SIE representation, but the relatively weak correlation indicates</text>
  <text x="55.547,58.471,63.69,68.174,71.09700000000001,72.989,77.886,80.81,86.029,90.325,93.867,95.761,98.75,103.234,107.216,110.14,115.036,118.579,122.381,124.276,128.76,132.144,136.439,138.328,142.81,145.733,147.625,155.104,160.0,163.543,168.529,170.771,172.669,178.166,183.385,187.681,191.484,195.779,197.676,202.158,205.542,209.837,211.726,216.945,221.841,224.764,226.656,232.048,235.432,239.725,243.528,247.823,253.043,255.967,258.577,263.562,265.453,272.932,277.228,279.838,282.447,284.347,289.757,294.976,300.455,304.751,308.294,312.096,315.02,319.917,324.813,330.293,332.535,334.415,338.897,341.507,344.431,349.65,354.547,359.954,364.941,370.159,372.051,377.443,380.826,385.723,390.709,394.093,398.389,402.192,405.994,407.88,410.49,414.29200000000003,416.187,421.147,425.442,428.052,433.272" y="328.896" svg_rhmargin="438.257" style="fill:#231f20;font-family:LGKHBG+Palatino-Roman;font-size:8.97px;font-style:NORMAL;font-weight:normal;">that other factors are at work. These are not presently well understood, although progress is being</text>
  <text x="55.547,63.465,67.949,73.429,77.724,79.963,84.859,90.077,92.32,95.244,100.463,104.758,106.997,110.381,114.674,117.284,121.768,124.692,127.302,132.369,136.664,138.894,141.504,146.724,152.176,157.584,161.88,167.099,171.081,175.37599999999998,177.615,182.511,185.49699999999999,187.74,193.222,198.208,203.427,207.911,215.83,218.44,222.421,224.65,229.717,234.013,237.555,241.358,246.765,250.56699999999998,252.813,255.737,260.957,265.252,268.795,276.713,281.61,287.089,292.075,297.295,301.779,309.697,312.307,316.288,318.508,322.804,325.63,328.617,332.913,336.895,339.819,343.62100000000004,345.866,348.849,353.331,357.812,360.053,364.535,369.017,372.005" y="340.848" svg_rhmargin="374.247" style="fill:#231f20;font-family:LGKHBG+Palatino-Roman;font-size:8.97px;font-style:NORMAL;font-weight:normal;">made on the relative inﬂuence of dynamic versus thermodynamic effects [69,70].</text>
  <text x="67.498,70.521,73.444,76.371,78.981,82.783,85.713,91.102,95.999,99.802,103.604,106.214,111.174,113.784,118.07900000000001,121.011,123.935,129.154,133.638,136.561,139.479,142.403,147.622,151.917,154.84,159.737,164.696,168.499,172.794,176.337,181.404,185.7,191.178,194.115,199.506,204.403,208.205,210.816,213.739,216.35,221.416,225.71099999999998,228.634,233.343,236.365,241.84300000000002,244.762,247.687,251.071,255.364,260.584,266.062,268.99,276.908,281.392,286.377,289.303,294.262,298.557,301.48,306.96,312.367,316.66200000000003,319.585,322.509,327.404,330.33,332.941,338.16,341.084,344.626,347.237,352.456,356.259,358.869,362.85,365.772,370.992,375.476,378.4,383.808,387.35,391.835,394.44399999999996,397.361,402.427,406.912,410.454,413.064,417.548,422.508,425.118,427.728,430.338,433.262" y="352.8" svg_rhmargin="438.247" style="fill:#231f20;font-family:LGKHBG+Palatino-Roman;font-size:8.97px;font-style:NORMAL;font-weight:normal;">It is possible that the observed positive SIE trend may be due to intrinsic natural variability</text>
  <text x="55.546,58.469,63.688,68.171,71.09400000000001,73.733,81.653,86.136,89.938,94.923,98.72500000000001,101.367,105.85000000000001,108.486,113.968,118.263,122.244,125.628,129.921,134.404,138.206,142.50099999999998,145.145,150.623,156.03,160.325,162.96,165.883,170.77800000000002,173.417,177.398,180.007,182.616,190.533,195.017,197.94,202.23499999999999,204.87,207.858,212.754,216.138,220.119,222.728,227.947,232.932,235.17399999999998,237.81,242.517,245.126,253.044,258.432,261.042,266.027,268.656,273.615,278.098,281.9,286.195,291.673,294.322,299.218,304.43600000000004,307.075,309.998,315.217,319.512,322.138,327.356,332.763,340.68,345.639,349.934,353.476,356.117,361.013,363.99899999999997,366.629,372.986,381.468,384.49,389.906,394.389,397.034,401.329,406.547,410.349,414.644,422.561,427.52,430.129,434.424" y="364.762" svg_rhmargin="438.226" style="fill:#231f20;font-family:LGKHBG+Palatino-Roman;font-size:8.97px;font-style:NORMAL;font-weight:normal;">that masks a decrease due to climate forcing. Simply based on the number of CMIP5 ensembles</text>
  <text x="55.546,58.47,63.689,68.174,71.09700000000001,75.104,77.714,82.933,86.915,90.299,94.592,99.076,102.879,107.174,111.186,113.796,119.01400000000001,123.013,127.72,130.743,136.221,140.229,143.772,148.256,151.18,156.399,160.695,164.237,168.238,171.162,176.381,180.865,186.083,190.091,195.572,199.868,203.85,207.233,211.527,216.011,219.813,224.10799999999998,228.121,230.731,235.94899999999998,239.947,242.871,248.091,252.386,256.389,263.85,266.873,271.581,277.077,281.085,284.56,289.969,295.188,297.43,301.426,304.349,309.569,313.865,317.249,321.54400000000004,325.547,328.157,331.959,335.96,340.857,346.076,348.686,353.671,357.678,362.162,365.546,370.443,375.85,381.069,386.547,390.547,395.03000000000003,399.044,403.94,409.159,413.454,417.458,420.068,425.286,429.293,433.778" y="376.714" svg_rhmargin="438.261" style="fill:#231f20;font-family:LGKHBG+Palatino-Roman;font-size:8.97px;font-style:NORMAL;font-weight:normal;">that increase in SIE rather than decrease in the HIST run, there is only around a one in 10</text>
  <text x="55.546,59.528,64.747,69.232,74.451,78.433,82.72800000000001,86.839,89.763,94.982,99.466,102.389,106.486,109.41,114.629,118.924,123.017,127.914,132.873,136.676,140.972,144.514,149.581,153.877,159.35500000000002,163.462,166.387,169.771,174.064,179.283,184.761,188.859,191.47,195.272,199.372,203.85500000000002,207.958,211.342,215.638,219.44,224.848,227.458,230.381,234.478,239.374,242.35999999999999,246.467,249.077,254.296,257.22,260.763,263.373,268.592,272.395,275.005,278.986,283.078,288.145,292.629,296.172,298.782,303.266,308.226,310.836,313.446,316.056,318.98,323.96500000000003,328.052,332.534,335.144,337.755,342.239,346.041,348.651,353.871,358.856,362.961,365.885,371.104,375.399,379.501,383.483,386.093,388.703,396.622,401.106,404.03,406.64,410.621,414.722,417.646,421.03,425.326,430.545,436.024" y="388.675" svg_rhmargin="438.266" style="fill:#231f20;font-family:LGKHBG+Palatino-Roman;font-size:8.97px;font-style:NORMAL;font-weight:normal;">chance that the observed trend is a result of intrinsic variability aliasing the climatic trend.</text>
  <text x="55.546,63.007,67.904,75.383,79.678,84.745,89.041,91.921,94.16300000000001,96.061,101.047,103.657,108.724,113.02,118.238,120.139,123.063,128.282,132.577,134.475,137.085,142.304,146.788,150.77,154.752,160.16,163.702,168.187,172.169,177.15400000000002,179.054,186.533,189.143,192.067,197.285,199.186,206.665,211.884,214.494,218.476,223.694,225.596,228.52,233.739,238.034,239.922,247.84,252.737,258.216,262.512,265.122,268.92400000000004,270.82,274.203,278.497,283.886,287.27,292.167,297.646,303.054,307.036,311.331,313.228,321.148,326.045,329.847,332.77,334.671,339.153,342.956,348.346,352.642,356.624,359.547,363.34900000000005,365.254,370.15,373.13599999999997,375.037,377.961,383.18,387.475,389.363,394.072,397.094,402.574,404.81600000000003,406.713,409.324,412.247,414.147,417.95,422.246,426.542,434.46" y="400.627" svg_rhmargin="438.262" style="fill:#231f20;font-family:LGKHBG+Palatino-Roman;font-size:8.97px;font-style:NORMAL;font-weight:normal;">However, given the inaccuracy with which the models reproduce most aspects of the SIE, it seems</text>
  <text x="55.546,60.954,66.173,68.783,71.393,76.38,80.675,83.285,88.27,90.963,93.886,99.106,103.59,106.513,109.206,112.13,117.35,121.645,124.334,130.692,139.175,142.197,147.614,152.097,154.787,159.083,164.302,168.105,172.401,180.319,185.278,187.888,192.183,194.881,197.491,202.711,205.635,209.177,211.787,217.007,220.809,223.42,227.40099999999998,230.089,235.156,239.64,243.182,245.793,250.277,255.236,257.846,260.456,263.066,265.99,270.975,273.658,276.268,280.07,282.757,286.141,290.437,295.827,299.211,303.504,307.307,311.602,316.822,319.746,324.23,327.154,329.764,334.831,339.12600000000003,341.815,346.711,349.697,352.391,355.314,360.534,364.829,367.518,370.902,375.195,379.679,382.28799999999995,384.98,392.459,397.355,400.898,403.508,408.986,411.68,416.164,421.383,426.861,429.546,433.345" y="412.579" svg_rhmargin="438.241" style="fill:#231f20;font-family:LGKHBG+Palatino-Roman;font-size:8.97px;font-style:NORMAL;font-weight:normal;">unlikely that the CMIP5 ensemble intrinsic variability is representative of the real world and so</text>
  <text x="55.546,63.464,67.948,72.93299999999999,75.365,80.585,85.481,88.404,90.827,95.786,100.081,102.518,107.003,112.221,114.653,118.948,121.775,124.761,129.057,133.039,135.963,138.573,143.64,147.93499999999997,150.363,157.842,162.326,167.311,169.742,174.639,177.625,180.048,184.341,188.144,191.068,195.552,200.511,203.121,205.732,209.534,214.754,217.364,222.583,227.568,229.999,232.923,238.142,242.43699999999998,244.865,250.085,254.569,257.493,262.901,266.284,270.579,273.007,277.904,280.89,283.313,286.237,291.457,295.752,298.18,303.076,308.036,311.838,316.134,319.677,324.744,329.039,334.517,336.951,339.875,343.259,347.552,352.772,358.25,360.674,363.635,368.118,372.599,374.84,379.322,383.803,386.79,389.03200000000004,391.462,398.51,403.577,407.873,411.415,415.9,418.51,421.12,423.362,425.791,428.715,433.934" y="424.541" svg_rhmargin="438.229" style="fill:#231f20;font-family:LGKHBG+Palatino-Roman;font-size:8.97px;font-style:NORMAL;font-weight:normal;">may not be an effective way of establishing the nature of the observed trend [70,71]. Overall, the</text>
  <text x="55.545,61.903,70.386,73.409,78.826,83.309,86.44,91.148,94.171,99.649,102.775,106.159,110.455,114.257,119.665,122.275,125.199,129.001,132.129,137.609,142.50400000000002,145.628,150.847,155.744,158.667,161.792,165.59,170.809,175.706,183.184,186.317,190.799,196.017,199.142,201.752,209.671,215.06,218.444,223.341,228.408,232.703,240.622,244.917,250.137,253.06,256.176,261.072,266.139,270.435,273.977,277.104,283.459,291.942,294.964,300.381,304.864,307.995,310.966,315.448,319.929,322.91499999999996,326.041,330.523,335.744,341.22200000000004,344.357,352.276,356.761,361.981,366.966,370.09,374.988,377.974,381.099,384.024,389.244,393.53900000000004,396.66,399.271,404.492,409.972,412.583,417.651,420.262,425.742,431.151,435.636" y="436.493" svg_rhmargin="438.245" style="fill:#231f20;font-family:LGKHBG+Palatino-Roman;font-size:8.97px;font-style:NORMAL;font-weight:normal;">CMIP5 SIE results do not show an improvement over CMIP3 [70] and many of the individual</text>
  <text x="55.544,63.462,68.357,73.836,78.131,80.74,83.693,88.651,91.26,95.743,99.545,103.84,107.64200000000001,110.608,115.505,118.491,121.445,127.799,136.281,139.303,144.719,149.202,152.162,156.645,160.029,164.32399999999998,167.274,170.658,174.953,180.341,184.636,189.12,192.043,196.338,201.816,204.77,207.381,212.599,215.553,221.907,230.389,233.411,238.827,243.31,246.27,249.252,253.734,258.216,261.202,263.444,266.405,271.902,277.121,279.731,283.533,286.481,289.091,292.89300000000003,295.85,301.33,305.625,309.428,314.818,317.428,320.352,324.647,327.597,330.521,335.74,340.035,342.985,345.595,353.513,358.903,362.287,367.183,372.25,376.546,384.464,388.76,393.979,396.903,400.70500000000004,403.653,406.263,411.481,414.435,419.332,423.816,428.712,433.932" y="448.445" svg_rhmargin="438.227" style="fill:#231f20;font-family:LGKHBG+Palatino-Roman;font-size:8.97px;font-style:NORMAL;font-weight:normal;">model biases of CMIP3 are repeated in CMIP5 [66]. This is despite the improvements in ozone</text>
  <text x="55.544,58.531,63.428,66.812,70.79,73.4,78.619,83.604,85.405,89.888,95.107,100.585,102.397,106.882,109.806,117.724,122.62,126.423,131.813,137.032,141.328,144.87,147.481,151.462,153.258,157.237,162.456,166.752,174.67,177.28,181.083,184.007,187.55,192.53500000000003,194.344,196.954,202.172,203.983,210.341,218.824,221.847,227.264,231.748,233.98999999999998,235.798,238.408,246.326,251.716,254.326,259.312,261.922,267.142,272.127,273.927,276.851,282.071,286.555,289.478,291.28,296.177,299.101,304.32,308.616,312.15799999999996,313.97,316.959,321.443,325.425,328.349,333.246,336.788,340.59000000000003,342.386,346.87,350.254,354.54900000000004,356.356,360.839,363.762,365.573,370.965,373.575,378.059,383.04400000000004,384.853,387.464,392.682,394.483,399.965,403.507,406.117,411.184,413.794,419.014,423.999,425.799,428.723,433.943" y="460.406" svg_rhmargin="438.238" style="fill:#231f20;font-family:LGKHBG+Palatino-Roman;font-size:8.97px;font-style:NORMAL;font-weight:normal;">forcing and atmospheric chemistry in CMIP5, implying that other factors are at play in driving the</text>
  <text x="55.544,60.44,65.398,69.2,73.495,77.037,82.103,86.398,91.87599999999999,94.264,99.25,103.733,106.343,111.561,113.948,118.845,121.831,124.217,128.015,132.31,136.793,139.187,141.796,145.777,150.072,152.314,154.707,160.203,165.421,169.71599999999998,172.1,176.582,181.54,185.342,189.637,194.855,198.836,203.131,205.524,210.419,213.405,215.792,221.27,226.256,231.474,235.957,243.875,246.484,250.465,252.847,255.457,259.439,263.733,266.719,270.521,275.739,280.034,284.329,287.252,289.648,297.565,301.86,304.47,307.39300000000003,309.779,312.389,317.607,319.994,322.917,328.135,332.43,334.814,342.274,345.295,350.003,355.49899999999997,357.887,361.361,366.771,371.98900000000003,374.367,379.848,384.744,389.039,392.841,395.231,400.451,405.347,408.27,410.648,415.131,420.52,425.909,430.203,434.687" y="472.358" svg_rhmargin="438.229" style="fill:#231f20;font-family:LGKHBG+Palatino-Roman;font-size:8.97px;font-style:NORMAL;font-weight:normal;">observed gain of sea ice. The absence of dynamic ice-sheet melt in the HIST run does not appear</text>
  <text x="55.544,58.468,63.363,66.19,71.15,75.44500000000001,78.269,82.75200000000001,85.577,89.376,91.986,96.972,102.191,104.801,110.227,114.209,118.693,123.912,126.83500000000001,129.663,132.65,137.134,141.116,144.04,148.937,152.479,155.3,157.91,163.128,165.957,168.881,174.1,178.39499999999998,181.219,186.609,191.506,196.402,199.944,202.766,210.226,213.249,217.957,223.453,226.274,230.982,234.004,239.482,242.312,245.696,249.992,255.381,258.765,263.058,266.861,271.157,276.376,279.3,283.784,286.708,289.318,294.215,299.433,302.252,305.223,309.705,314.187,317.173,319.415,322.24,326.724,329.334,332.258,337.478,342.374,347.782,352.768,357.986,360.805,363.416,366.339,369.167,377.087,381.571,386.55600000000004,389.374,393.177,395.787,400.773,405.992,408.603,414.028,418.01,422.494,427.714,430.637,433.248" y="484.311" svg_rhmargin="438.233" style="fill:#231f20;font-family:LGKHBG+Palatino-Roman;font-size:8.97px;font-style:NORMAL;font-weight:normal;">to be a signiﬁcant factor in the poor HIST SIE representation [72], although it may signiﬁcantly</text>
  <text x="55.544,58.154,66.072,71.462,75.946,79.928,82.851,85.094,88.081,93.488,96.412,101.82,105.204,109.499,111.729,114.717,119.614,122.998,126.98,129.59,134.809,139.794,142.027,145.83,149.812,154.108,159.327,163.811,167.354,169.964,174.86,178.663" y="496.272" svg_rhmargin="180.905" style="fill:#231f20;font-family:LGKHBG+Palatino-Roman;font-size:8.97px;font-style:NORMAL;font-weight:normal;">impact future forcing scenarios.</text>
  <text x="55.548,59.078,64.645,68.17399999999999,73.761,79.782,85.353,88.911,93.989,97.247,101.666,105.224,107.792,112.004,114.191,119.758,125.101,128.659,132.106,137.449,146.097,148.285,156.051,161.001,164.447,169.515,172.974,175.158,178.289,183.633,187.093,195.742,200.692,204.25,206.818,212.161,217.81,220.0,225.075,230.725,236.29,238.475,242.507,248.06,253.626,259.193,264.536,267.202,272.28,275.739,277.923,282.135,284.703,287.961,292.175,297.727,300.393,305.343,308.901,311.469,316.812" y="537.8299999999999" svg_rhmargin="322.461" style="fill:#124b94;font-family:LGKHFF+MyriadPro-Cond;font-size:13.95px;font-style:NORMAL;font-weight:normal;">(b) Antarctic bottom water formation and subpolar circulation</text>
  <text x="55.548,62.524,66.32600000000001,71.533,76.752,81.647,84.57,88.865,94.34299999999999,99.549,102.159,107.37700000000001,112.59,117.073" y="555.767" svg_rhmargin="121.556" style="fill:#231f20;font-family:LGKHBG+Palatino-Roman;font-size:8.97px;font-style:NORMAL;font-weight:normal;">As noted in §4</text>
  <text x="121.556" y="555.767" svg_rhmargin="125.537" style="fill:#231f20;font-family:LGKINA+Palatino-Italic;font-size:8.97px;font-style:ITALIC;font-weight:normal;">a</text>
  <text x="125.534,127.77600000000001,132.986,135.91,141.13,145.42499999999998,150.634,158.095,161.118,165.826,171.322,176.518,183.495,190.472,195.951,204.917,210.126,213.51,217.806,223.195,226.579,230.873,234.675,238.971,244.19,247.114,251.598,254.522,257.132,262.029,267.247,272.443,277.339,282.406,286.702,290.24399999999997,295.45,298.374,303.594,307.889,313.098,320.577,325.796,330.693,333.303,337.598,342.798,347.507,352.403,357.811,360.735,365.954,370.25,373.792,379.01,384.215,391.264,395.245,399.541,404.025,409.243,414.457,419.524,424.008,427.551,430.161,434.456" y="555.767" svg_rhmargin="438.258" style="fill:#231f20;font-family:LGKHBG+Palatino-Roman;font-size:8.97px;font-style:NORMAL;font-weight:normal;">, the HIST AABW representation over the whole Southern Ocean varies</text>
  <text x="55.548,59.351,61.961,66.947,72.166,74.776,80.202,84.184,88.668,93.887,96.811,99.422,104.407,106.262,111.221,115.517,118.441,125.92,130.216,134.512,139.73,141.595,149.513,154.41,159.889,164.185,166.795,170.59699999999998,172.447,175.058,180.27599999999998,182.132,185.056,189.352,192.894,200.813,204.61499999999998,206.474,211.371,214.357,216.212,221.279,226.176,228.786,234.194,242.112,246.408,248.64999999999998,250.503,253.428,257.723,265.642,271.031,275.327,278.87,283.354,286.278,291.685,295.069,299.36400000000003,301.208,305.692,310.911,316.389,318.247,322.045,326.529,329.139,331.749,336.968,339.578,342.502,346.49,348.732,350.594,356.091,361.31,363.92,367.72200000000004,369.582,374.649,379.133,382.675,385.286,389.77,394.989,398.971,403.266,405.118,407.728,411.53000000000003,413.39,418.869,424.277,428.572,430.424,433.348" y="567.719" svg_rhmargin="438.244" style="fill:#231f20;font-family:LGKHBG+Palatino-Roman;font-size:8.97px;font-style:NORMAL;font-weight:normal;">signiﬁcantly between models in terms of volume, temperature and salinity. This variance is due to</text>
  <text x="55.548,58.471,63.69,67.985,70.241,75.72,78.329,81.155,86.583,90.564,95.97,98.58,101.503,106.488,108.738,111.349,116.56700000000001,118.827,123.31,127.291,131.272,136.679,140.22,144.704,147.627,151.922,154.531,159.51600000000002,161.776,165.16,169.453,174.842,178.225,182.52,186.322,190.617,195.835,198.758,201.368,206.586,211.57100000000003,213.831,216.754,221.973,226.268,228.524,232.505,237.401,245.318,250.707,253.316,257.611,262.23699999999997,264.497,268.478,273.696,278.179,280.788,286.00600000000003,288.267,293.164,296.15,298.411,301.021,306.24,309.163,313.458,316.999,321.482,325.464,328.387,330.996,335.891,341.11,344.91200000000003,347.167,352.126,356.421,359.344,366.822,371.117,375.412,380.63,382.891,390.368,394.852,397.775,402.07,405.61199999999997,407.874,415.794,420.278,424.079,427.881,432.176,435.978" y="579.671" svg_rhmargin="438.22" style="fill:#231f20;font-family:LGKHBG+Palatino-Roman;font-size:8.97px;font-style:NORMAL;font-weight:normal;">the difﬁculty in accurately representing the complex chain of interactions between water masses,</text>
  <text x="55.548,59.35,63.645,68.128,72.456,75.066,79.047,83.342,85.584,89.912,97.39,99.999,105.217,110.696,114.498,116.74000000000001,121.067,126.027,130.51,133.433,138.651,143.637,151.554,155.849,158.772,162.314,167.299,171.611,176.093,181.312,186.79000000000002,191.113,193.722,197.703,201.998,206.316,210.114,215.333,219.628,222.237,227.303,231.598" y="591.633" svg_rhmargin="235.4" style="fill:#231f20;font-family:LGKHBG+Palatino-Roman;font-size:8.97px;font-style:NORMAL;font-weight:normal;">sea ice, winds, bathymetry and ice shelves</text>
  <text x="235.401" y="591.633" svg_rhmargin="239.615" style="fill:#231f20;font-family:LGKIKA+RMTMI;font-size:8.97px;font-style:ITALIC;font-weight:normal;">/</text>
  <text x="239.613,243.416,248.635,252.931,257.227,260.151,263.95300000000003,268.296,271.22,276.439,280.923,283.846,288.159,292.137,297.034,304.952,309.911,312.521,317.741,322.036,326.354,329.279,334.174,338.504,343.985,347.528,350.138,355.205,359.5,363.809,370.786,377.763,383.242,392.208,396.527,399.515,404.412,407.954,415.873,420.357,423.281,425.891,430.787,436.007" y="591.633" svg_rhmargin="438.249" style="fill:#231f20;font-family:LGKHBG+Palatino-Roman;font-size:8.97px;font-style:NORMAL;font-weight:normal;">sheets that combine to drive AABW formation.</text>
  <text x="55.548,60.256,62.866,70.785,76.174,78.784,81.395,85.197,88.121,90.731,94.713,99.197,101.807,104.418,108.405,110.647,113.535,120.511,127.488,132.968,141.934,144.812,147.801,152.697,156.24,164.158,168.642,171.566,174.176,179.073,184.291,187.173,190.097,194.581,199.567,203.863,207.665,210.55,215.942,218.552,223.036,227.018,231.313,234.191,239.088,244.155,248.45,251.992,254.885,257.809,263.029,267.324,270.202,274.184,279.08,284.3,287.224,289.834,295.053,299.349,304.568,307.492,311.976,314.585,317.466,321.265,326.484,330.78,333.39,338.457,342.753,346.555,349.44,354.919,360.327,363.869,366.479,371.699,376.684,379.565,386.54,391.948,395.75,398.674,402.217,406.701,409.31,412.191,419.67,422.28,427.499,430.423,434.719" y="603.585" svg_rhmargin="438.261" style="fill:#231f20;font-family:LGKHBG+Palatino-Roman;font-size:8.97px;font-style:NORMAL;font-weight:normal;">Simplistically, AABW formation takes place over the continental shelves during Austral winter</text>
  <text x="55.548,58.157,63.375,67.049,70.433,74.726,77.335,81.819,84.742,87.351,92.417,96.712,99.321,104.306,107.979,111.781,119.698,124.181,126.791,129.4,133.072,136.456,140.751,145.737,148.346,153.241,158.46,162.262,165.93,170.826,173.81199999999998,177.487,180.097,185.315,188.238,192.533,197.752,201.553,205.84799999999998,209.518,213.316,217.611,222.094,225.08,227.689,231.671,235.96599999999998,239.644,242.63,247.526,251.068,258.985,263.468,266.391,269.0,273.896,279.11400000000003,282.779,287.764,292.983,297.879,305.356,310.574,314.24,318.723,322.52500000000003,326.202,331.59,336.486,339.095,344.081,349.299,354.284,358.768,361.01,364.681,371.62,375.915,381.133,384.935,389.23,392.909,396.711,401.929,406.224,408.833,411.819,415.494,422.972,427.456,430.379,434.673" y="615.537" svg_rhmargin="438.215" style="fill:#231f20;font-family:LGKHBG+Palatino-Roman;font-size:8.97px;font-style:NORMAL;font-weight:normal;">in relatively small regions of intense sea-ice formation known as polynya. Dense shelf water</text>
  <text x="55.548,58.534,63.429,66.971,74.889,79.183,84.661,88.283,90.892,96.11,99.73,102.653,107.871,110.481,114.283,117.906,125.385,129.868,134.853,138.481,142.776,145.385,148.308,153.527,157.821,161.363,164.986,168.784,174.173,177.557,181.851,186.335,191.813,195.61499999999998,199.238,204.134,209.2,213.495,217.037,220.659,223.582,228.8,233.095,236.72,240.522,245.741,250.036,252.645,257.711,262.006,265.807,268.04900000000004,271.685,276.168,279.97,283.593,286.202,291.42,295.05,297.973,303.191,307.486,311.102,317.092,321.987,325.789,329.591,333.223,337.706,342.925,348.403,352.033,360.169,364.464,369.942,375.421,379.716,382.325,384.93399999999997,388.562,393.269,397.564,402.047,405.849,408.091,411.727,416.623,420.16499999999996,423.787,429.215,431.824,434.433" y="627.498" svg_rhmargin="438.235" style="fill:#231f20;font-family:LGKHBG+Palatino-Roman;font-size:8.97px;font-style:NORMAL;font-weight:normal;">formed in this way either spreads over the shelves, as in the Ross and Weddell Seas, or ﬁlls</text>
  <text x="55.548,60.506,64.99,67.913,73.131,78.116,86.034,90.329,93.252,96.793,99.403,103.384,105.316,110.794,115.089,120.478,123.862,128.157,131.959,135.761,138.37,143.265,148.484,152.286,154.528,156.471,160.954,164.756,166.696,169.306,174.524,176.461,181.939,186.422,190.224,193.147,195.084,202.06,207.278,210.201,214.685,218.069,222.047,224.97,227.579,231.56,236.043,238.285,240.229,245.188,249.483,252.469,257.365,260.749,265.04400000000004,266.977,270.955,275.438,279.24,283.221,287.704,293.183,295.792,301.01,305.995,307.941,312.836,317.902,322.197,325.739,327.678,330.601,335.82,340.115,342.048,345.85,351.068,355.363,357.972,360.95799999999997,362.905,367.864,371.248,375.541,380.024,385.009,386.945,391.428,396.647,402.125,404.063,407.447,411.742,416.225,420.206,425.424,428.034,433.252" y="639.45" svg_rhmargin="438.237" style="fill:#231f20;font-family:LGKHBG+Palatino-Roman;font-size:8.97px;font-style:NORMAL;font-weight:normal;">bathymetric depressions, as in East Antarctica, before cascading over the shelf break and reaching</text>
  <text x="55.548,60.031,64.99,69.975,73.777,77.578,82.062,84.67099999999999,86.535,92.016,96.311,101.7,104.623,109.841,113.643,115.885,117.729,122.401,126.696,131.914,133.77,138.666,141.652,143.508,147.991,152.47400000000002,154.327,160.684,169.167,172.188,177.604,182.08700000000002,183.941,191.858,196.754,202.232,206.527,209.136,212.938,214.78,218.581,223.988,227.969,231.95,236.245,240.047,243.849,246.835,252.241,254.851,257.46,262.445,264.309,267.295,272.191,275.732,283.649,285.498,290.976,295.271,300.489,304.291,308.586,310.439,314.237,319.455,323.75,326.359,329.34499999999997,331.201,338.679,343.162,346.085,350.38,353.92199999999997,355.772,358.382,363.6,365.447,372.422,377.829,381.631,384.554,388.096,392.579,395.188,397.043,404.521,407.13,412.349,415.272,419.567,423.109,424.949,429.908,435.315" y="651.412" svg_rhmargin="438.238" style="fill:#231f20;font-family:LGKHBG+Palatino-Roman;font-size:8.97px;font-style:NORMAL;font-weight:normal;">abyssal depths. Ten of 15 CMIP5 models successfully form dense shelf water in Austral winter but</text>
  <text x="55.548,60.766,65.662,70.881,75.176,77.648,82.544,85.53,87.998,90.921,96.14,100.435,104.236,108.531,111.004,118.922,123.817,129.296,133.591,136.2,140.00199999999998,142.464,147.853,151.237,156.132,161.611,167.017,170.999,175.293,180.77100000000002,183.24,190.216,197.192,202.671,211.637,214.101,217.089,220.473,225.37,233.287,235.757,239.555,244.773,249.068,251.677,254.66299999999998,257.132,260.933,265.829,271.236,274.62,278.601,282.896,286.69800000000004,289.177,292.168,296.65,301.131,304.119,306.36100000000005,308.826,314.325,319.545,322.156,325.958,328.429,331.04,334.84200000000004,337.304,342.694,346.078,350.976,355.936,360.421,365.381,367.992,372.97700000000003,375.444,380.924,386.333,390.62800000000004,393.092,396.017,400.912,403.379,407.183,412.573,417.982,421.525,424.136,429.034,434.442" y="663.364" svg_rhmargin="438.244" style="fill:#231f20;font-family:LGKHBG+Palatino-Roman;font-size:8.97px;font-style:NORMAL;font-weight:normal;">none of these models produced AABW from shelf sources [50]. This is probably due to spurious</text>
  <text x="55.548,60.766,65.662,69.204,71.813,76.296,81.192,86.41,89.333,93.817,96.42599999999999,98.533,106.453,109.062,113.689,116.298,121.517,126.502,128.609,133.091,136.893,139.014,144.495,148.79,154.008,157.81,162.105,164.218,171.696,176.179,179.102,183.397,186.939,189.05,196.97,201.865,206.931,211.226,215.028,217.14,222.621,227.516,234.994,240.212,242.33,245.253,250.471,254.766,256.871,260.672,263.282,268.177,273.566,277.861,280.103,282.217,285.601,289.894,293.696,299.102,301.712,304.635,307.244,312.462,317.447,319.564,322.174,327.392,329.5,332.423,337.642,341.937,344.05,347.852,353.07,357.365,359.974,362.96,365.077,372.556,377.039,379.962,384.257,387.799,389.909,397.827,400.436,405.063,407.672,412.89,417.875,419.983,427.461,430.07,432.993" y="675.316" svg_rhmargin="438.211" style="fill:#231f20;font-family:LGKHBG+Palatino-Roman;font-size:8.97px;font-style:NORMAL;font-weight:normal;">horizontal mixing as dense water moves down the slope, resulting in the shelf water mixing with</text>
  <text x="55.548,58.158,63.377,66.301,70.597,74.14,82.058,86.354,91.833,94.443,98.927,101.851,106.147,109.134,114.613,118.909,124.299,127.223,132.441,135.368,142.847,147.331,150.255,154.551,158.093,161.031,168.949,173.433,177.236,181.038,185.334,189.137,191.379,194.33,197.353,202.572,205.496,209.792,213.176,217.469,221.271,224.195,226.805,232.025,237.011,239.621,243.608,245.85,248.793,254.013,258.91,266.388,270.684,275.751,280.047,282.927,285.16900000000004,288.102,291.026,296.246,300.541,303.482,306.468,311.365,316.772,320.31399999999996,323.244,325.854,329.656,334.553,339.943,344.929,348.911,354.13,358.614,361.22299999999996,364.167,368.145,373.042,377.938,381.322,386.802,389.412,394.631,399.115,402.039,406.334,409.266,417.184,422.081,427.56,431.856,434.466" y="687.277" svg_rhmargin="438.268" style="fill:#231f20;font-family:LGKHBG+Palatino-Roman;font-size:8.97px;font-style:NORMAL;font-weight:normal;">intermediate-depth water masses. Interestingly, however, the four isopycnal coordinate models</text>
  <text svg_rhmargin="317.67" x="55.548,58.472,62.768,66.57,69.494,73.79,79.268,81.674,87.154,89.764,95.24199999999999,97.648,102.868,107.765,110.688,113.093,118.482,122.778,126.321,129.307,134.204,137.747,145.66400000000002,148.052,151.85,154.46,159.446,164.666,167.276,172.701,176.683,181.167,186.387,189.311,191.921,196.906,199.31,204.269,208.565,211.489,214.413,218.709,222.251,224.658,229.14,232.063,234.468,237.457,242.353,245.896,253.814,256.424,261.643,266.628,269.024,276.0,282.977,288.457,297.423,299.824,302.748,307.967,312.452,317.67" y="699.229" style="fill:#231f20;font-family:LGKHBG+Palatino-Roman;font-size:8.97px;font-style:NORMAL;font-weight:normal;">tested did not perform signiﬁcantly better at forming AABW than </text>
  <text x="320.076" y="699.229" svg_rhmargin="326.057" style="fill:#231f20;font-family:LGKINA+Palatino-Italic;font-size:8.97px;font-style:ITALIC;font-weight:normal;">Z</text>
  <text x="326.061,329.047,331.658,335.953,341.02,345.316,347.92499999999995,350.32,358.238,363.135,368.614,372.91,375.52,379.323,381.565,383.967,386.577,394.495,399.885,402.495,407.481,410.091,415.31,420.295,422.691,425.615,430.834,435.318" y="699.229" svg_rhmargin="438.241" style="fill:#231f20;font-family:LGKHBG+Palatino-Roman;font-size:8.97px;font-style:NORMAL;font-weight:normal;">-level models, implying that</text>
  <text x="55.548,58.472,63.691,67.986,70.864,76.254,79.638,84.535,89.494,92.104,96.4,104.31700000000001,107.182,109.792,113.59400000000001,116.47,119.08,121.691,126.677,130.973,133.583,138.568,141.449,144.373,149.268,152.14,157.1,161.39499999999998,164.273,168.756,171.626,175.01,179.306,183.109,188.516,191.126,194.049,196.931,201.828,204.814,207.687,215.607,220.504,223.888,228.183,231.052,233.976,239.195,243.679,248.897,251.771,256.667,261.886,266.18100000000004,269.06,276.978,281.874,287.354,291.65,294.25899999999996,297.131,302.612,306.908,312.333,316.315,318.925,323.221,328.44,332.422,336.41,338.65200000000004,341.539,348.514,351.898,356.795,362.202,367.422,372.90000000000003,375.765,380.985,385.469,388.079,391.065,393.948,396.872,402.091,406.386,409.255,417.174,422.07,427.55,431.845,434.455" y="711.182" svg_rhmargin="438.257" style="fill:#231f20;font-family:LGKHBG+Palatino-Roman;font-size:8.97px;font-style:NORMAL;font-weight:normal;">the problem is likely to be a result of more than one model deﬁciency. Around half the models</text>
  <text x="55.548,59.843,64.47,68.953,76.87,79.479,84.698,88.993,94.47099999999999,98.785,102.587,105.51,108.119,110.728,113.33699999999999,117.649,122.868,127.351,132.417,136.712,141.021,144.405,148.698,151.307,155.791,158.714,161.323,166.389,170.684,173.293,178.27800000000002,182.59,185.974,190.267,194.751,197.36,199.969,203.771,206.694,209.303,213.284,217.592,224.568,231.544,237.023,245.989,250.298,255.69,259.074,263.97,269.359,273.654,277.196,280.119,282.728,287.023,290.825,293.067,297.376,302.335,307.741,310.664,314.968,317.891,323.11,327.405,331.206,335.50100000000003,339.82,347.298,351.592,354.976,359.271,363.58,368.969,372.353,377.249,382.727,388.134,392.115,396.41,401.88800000000003,406.193,409.116,414.335,417.719,422.614,428.021,433.006" y="723.143" svg_rhmargin="438.224" style="fill:#231f20;font-family:LGKHBG+Palatino-Roman;font-size:8.97px;font-style:NORMAL;font-weight:normal;">examined still have relatively realistic AABW properties, but these were produced through</text>
  <text x="55.548,60.938,66.157,71.143,74.946,77.556,81.538,86.022,88.632,91.242,96.227,99.298,104.705,109.925,113.309,117.602,122.086,124.696,127.306,131.109,134.033,136.643,140.624,143.681,148.577,153.967,158.263,163.482,166.469,171.365,175.347,179.643,184.127,189.345,192.408,197.889,202.185,206.48,211.869,214.931,218.913,223.81,229.029,234.096,238.392,242.374,245.298,247.908,252.804,258.022,261.094,266.313,271.21,274.752,277.676,282.894,285.948,290.844,293.83,296.892,299.816,305.035,309.33000000000004,312.398,316.2,321.42,325.716,328.326,331.312,334.374,339.333,342.717,347.01,351.494,356.48,358.72200000000004,361.79,366.687,369.673,372.597,376.893,382.111,385.174,388.098,392.993,396.053,399.04,404.448,407.058,409.667,412.728,418.209,422.505,427.895,430.819,436.038" y="735.095" svg_rhmargin="438.28" style="fill:#231f20;font-family:LGKHBG+Palatino-Roman;font-size:8.97px;font-style:NORMAL;font-weight:normal;">physically unrealistic open-ocean deep convection north of the shelf break, often to full depth.</text>
  <text x="55.548,61.044,66.263,68.872,72.674,75.325,80.221,84.202,88.183,93.59,97.132,100.93400000000001,103.585,106.194,110.677,114.061,119.047,123.342,125.951,130.936,133.592,136.203,141.421,144.069,146.992,152.21,156.505,159.158,167.295,171.588,177.066,182.545,186.839,189.449,192.05800000000002,194.714,199.197,204.415,209.893,212.552,218.537,223.432,227.234,231.036,233.696,240.537,245.522,248.906,253.201,257.002,259.244,261.898,266.38,271.599,277.077,279.735,282.344,286.146,288.797,293.28000000000003,295.935,301.326,304.71,309.607,313.588,317.883,321.684,325.48600000000005,328.146,331.069,336.288,340.771,343.694,346.342,348.952,352.754,355.405,360.472,364.767,368.309,373.29400000000004,375.95,379.496,383.979,387.363,391.658,394.267,399.252,401.899,406.795,411.753,415.555,419.85,423.392,428.458,432.753" y="747.047" svg_rhmargin="438.231" style="fill:#231f20;font-family:LGKHBG+Palatino-Roman;font-size:8.97px;font-style:NORMAL;font-weight:normal;">This occurs largely in the Weddell and Ross Gyres, and is a process that is very rarely observed</text>
  <text x="55.548,58.158,63.376000000000005,66.267,69.191,74.411,78.706,81.593,86.301,91.198,96.605,99.529,104.749,109.044,112.587,117.805,120.687,127.736,131.718,136.013,140.498,145.717,147.959,150.865,156.363,161.582,165.87699999999998,168.764,171.753,176.649,180.192,188.11,192.594,195.518,198.128,203.025,208.243,211.116,216.013,218.999,221.89,224.814,230.033,234.329,238.132,242.427,245.323,250.802,255.098,259.394,264.783,267.674,271.656,276.553,281.772,286.839,291.135,295.117,298.041,300.651,305.547,310.76500000000004,313.666,317.648,321.943,324.553,327.164,330.966,333.86,338.344,343.734,349.123,353.419,357.903,361.446,365.24800000000005,368.133,371.058,375.953,378.843,381.453,384.063,389.283,394.269,398.565,404.043,406.926,409.851,414.746,417.636,422.533,427.6,431.896,435.28" y="759.008" svg_rhmargin="438.266" style="fill:#231f20;font-family:LGKHBG+Palatino-Roman;font-size:8.97px;font-style:NORMAL;font-weight:normal;">in the Southern Ocean. The formation of these deep convection cells appears to linked to over-</text>
  <text x="55.548,60.614,63.223,68.209,73.104,76.488,81.384,86.791,90.593,92.542,96.34,100.635,105.118,108.104,110.713,114.694,118.989,120.949,124.751,129.046,133.529,137.331,142.226,147.445,151.928,154.537,156.509,160.49,165.475,169.456,172.066,176.36,180.162,182.12,189.598,194.817,199.112,202.496,206.791,208.742,212.54,217.947,225.864,233.781,238.076,241.618,243.575,248.283,251.304,256.782,258.738,261.348,265.15000000000003,267.108,270.031,274.926,279.82099999999997,281.776,284.385,289.281,295.932,298.17400000000004,300.135,303.519,307.814,311.616,317.023,319.632,322.555,325.164,330.383,335.368,337.313,339.922,345.14000000000004,347.095,350.897,353.82,357.204,362.1,367.319,372.304,376.599,380.14099999999996,382.098,385.021,390.24,394.723,399.94100000000003,401.896,406.792,411.75,415.552,419.847,423.388,428.454,432.749" y="770.961" svg_rhmargin="438.227" style="fill:#231f20;font-family:LGKHBG+Palatino-Roman;font-size:8.97px;font-style:NORMAL;font-weight:normal;">vigorous sea-ice seasonal cycles where summer SIE is too low, resulting in stronger than observed</text>
 </g>
</svg>
