<?xml version="1.0" encoding="UTF-8"?>
<svg height="781.616" width="482.81177503" xmlns="http://www.w3.org/2000/svg">
 <g style="fill:none;">
  <text x="465.777,468.621" y="154.50199999999995" svg_rhmargin="472.441" style="fill:#ffffff;font-family:LGKHOC+MyriadPro-BoldCond;font-size:8.97px;font-style:NORMAL;font-weight:bold;">19</text>
  <text svg_rhmargin="467.532" transform="matrix(0.0,1.0,-1.0,0.0,639.044,-296.02)" x="467.532" y="171.512" style="fill:#124b94;font-family:LGKHFF+MyriadPro-Cond;font-size:0.0px;font-style:NORMAL;font-weight:normal;">r</text>
  <text svg_rhmargin="467.532" transform="matrix(0.0,1.0,-1.0,0.0,641.762,-293.302)" x="467.532" y="174.23" style="fill:#124b94;font-family:LGKHFF+MyriadPro-Cond;font-size:0.0px;font-style:NORMAL;font-weight:normal;">s</text>
  <text svg_rhmargin="467.532" transform="matrix(0.0,1.0,-1.0,0.0,644.929,-290.135)" x="467.532" y="177.397" style="fill:#124b94;font-family:LGKHFF+MyriadPro-Cond;font-size:0.0px;font-style:NORMAL;font-weight:normal;">t</text>
  <text svg_rhmargin="467.532" transform="matrix(0.0,1.0,-1.0,0.0,647.723,-287.341)" x="467.532" y="180.191" style="fill:#124b94;font-family:LGKHFF+MyriadPro-Cond;font-size:0.0px;font-style:NORMAL;font-weight:normal;">a</text>
  <text svg_rhmargin="467.532" transform="matrix(0.0,1.0,-1.0,0.0,651.712,-283.352)" x="467.532" y="184.18" style="fill:#124b94;font-family:LGKHFF+MyriadPro-Cond;font-size:0.0px;font-style:NORMAL;font-weight:normal;">.</text>
  <text svg_rhmargin="467.532" transform="matrix(0.0,1.0,-1.0,0.0,653.839,-281.225)" x="467.532" y="186.307" style="fill:#124b94;font-family:LGKHFF+MyriadPro-Cond;font-size:0.0px;font-style:NORMAL;font-weight:normal;">r</text>
  <text svg_rhmargin="467.532" transform="matrix(0.0,1.0,-1.0,0.0,656.404,-278.66)" x="467.532" y="188.872" style="fill:#124b94;font-family:LGKHFF+MyriadPro-Cond;font-size:0.0px;font-style:NORMAL;font-weight:normal;">o</text>
  <text svg_rhmargin="467.532" transform="matrix(0.0,1.0,-1.0,0.0,660.517,-274.547)" x="467.532" y="192.985" style="fill:#124b94;font-family:LGKHFF+MyriadPro-Cond;font-size:0.0px;font-style:NORMAL;font-weight:normal;">y</text>
  <text svg_rhmargin="467.532" transform="matrix(0.0,1.0,-1.0,0.0,664.207,-270.857)" x="467.532" y="196.675" style="fill:#124b94;font-family:LGKHFF+MyriadPro-Cond;font-size:0.0px;font-style:NORMAL;font-weight:normal;">a</text>
  <text svg_rhmargin="467.532" transform="matrix(0.0,1.0,-1.0,0.0,668.196,-266.868)" x="467.532" y="200.664" style="fill:#124b94;font-family:LGKHFF+MyriadPro-Cond;font-size:0.0px;font-style:NORMAL;font-weight:normal;">l</text>
  <text svg_rhmargin="467.532" transform="matrix(0.0,1.0,-1.0,0.0,670.289,-264.775)" x="467.532" y="202.757" style="fill:#124b94;font-family:LGKHFF+MyriadPro-Cond;font-size:0.0px;font-style:NORMAL;font-weight:normal;">s</text>
  <text svg_rhmargin="467.532" transform="matrix(0.0,1.0,-1.0,0.0,673.456,-261.608)" x="467.532" y="205.924" style="fill:#124b94;font-family:LGKHFF+MyriadPro-Cond;font-size:0.0px;font-style:NORMAL;font-weight:normal;">o</text>
  <text svg_rhmargin="467.532" transform="matrix(0.0,1.0,-1.0,0.0,677.653,-257.411)" x="467.532" y="210.121" style="fill:#124b94;font-family:LGKHFF+MyriadPro-Cond;font-size:0.0px;font-style:NORMAL;font-weight:normal;">c</text>
  <text svg_rhmargin="467.532" transform="matrix(0.0,1.0,-1.0,0.0,680.963,-254.101)" x="467.532" y="213.431" style="fill:#124b94;font-family:LGKHFF+MyriadPro-Cond;font-size:0.0px;font-style:NORMAL;font-weight:normal;">i</text>
  <text svg_rhmargin="467.532" transform="matrix(0.0,1.0,-1.0,0.0,682.979,-252.085)" x="467.532" y="215.447" style="fill:#124b94;font-family:LGKHFF+MyriadPro-Cond;font-size:0.0px;font-style:NORMAL;font-weight:normal;">e</text>
  <text svg_rhmargin="467.532" transform="matrix(0.0,1.0,-1.0,0.0,686.957,-248.107)" x="467.532" y="219.425" style="fill:#124b94;font-family:LGKHFF+MyriadPro-Cond;font-size:0.0px;font-style:NORMAL;font-weight:normal;">t</text>
  <text svg_rhmargin="467.532" transform="matrix(0.0,1.0,-1.0,0.0,689.865,-245.199)" x="467.532" y="222.333" style="fill:#124b94;font-family:LGKHFF+MyriadPro-Cond;font-size:0.0px;font-style:NORMAL;font-weight:normal;">y</text>
  <text svg_rhmargin="467.532" transform="matrix(0.0,1.0,-1.0,0.0,693.657,-241.407)" x="467.532" y="226.125" style="fill:#124b94;font-family:LGKHFF+MyriadPro-Cond;font-size:0.0px;font-style:NORMAL;font-weight:normal;">p</text>
  <text svg_rhmargin="467.532" transform="matrix(0.0,1.0,-1.0,0.0,698.029,-237.035)" x="467.532" y="230.497" style="fill:#124b94;font-family:LGKHFF+MyriadPro-Cond;font-size:0.0px;font-style:NORMAL;font-weight:normal;">u</text>
  <text svg_rhmargin="467.532" transform="matrix(0.0,1.0,-1.0,0.0,702.391,-232.673)" x="467.532" y="234.859" style="fill:#124b94;font-family:LGKHFF+MyriadPro-Cond;font-size:0.0px;font-style:NORMAL;font-weight:normal;">b</text>
  <text svg_rhmargin="467.532" transform="matrix(0.0,1.0,-1.0,0.0,706.763,-228.301)" x="467.532" y="239.231" style="fill:#124b94;font-family:LGKHFF+MyriadPro-Cond;font-size:0.0px;font-style:NORMAL;font-weight:normal;">l</text>
  <text svg_rhmargin="467.532" transform="matrix(0.0,1.0,-1.0,0.0,708.857,-226.207)" x="467.532" y="241.325" style="fill:#124b94;font-family:LGKHFF+MyriadPro-Cond;font-size:0.0px;font-style:NORMAL;font-weight:normal;">i</text>
  <text svg_rhmargin="467.532" transform="matrix(0.0,1.0,-1.0,0.0,710.873,-224.191)" x="467.532" y="243.341" style="fill:#124b94;font-family:LGKHFF+MyriadPro-Cond;font-size:0.0px;font-style:NORMAL;font-weight:normal;">s</text>
  <text svg_rhmargin="467.532" transform="matrix(0.0,1.0,-1.0,0.0,714.04,-221.024)" x="467.532" y="246.508" style="fill:#124b94;font-family:LGKHFF+MyriadPro-Cond;font-size:0.0px;font-style:NORMAL;font-weight:normal;">h</text>
  <text svg_rhmargin="467.532" transform="matrix(0.0,1.0,-1.0,0.0,718.478,-216.586)" x="467.532" y="250.946" style="fill:#124b94;font-family:LGKHFF+MyriadPro-Cond;font-size:0.0px;font-style:NORMAL;font-weight:normal;">i</text>
  <text svg_rhmargin="467.532" transform="matrix(0.0,1.0,-1.0,0.0,720.495,-214.569)" x="467.532" y="252.963" style="fill:#124b94;font-family:LGKHFF+MyriadPro-Cond;font-size:0.0px;font-style:NORMAL;font-weight:normal;">n</text>
  <text svg_rhmargin="467.532" transform="matrix(0.0,1.0,-1.0,0.0,724.933,-210.131)" x="467.532" y="257.401" style="fill:#124b94;font-family:LGKHFF+MyriadPro-Cond;font-size:0.0px;font-style:NORMAL;font-weight:normal;">g</text>
  <text svg_rhmargin="467.532" transform="matrix(0.0,1.0,-1.0,0.0,729.064,-206.0)" x="467.532" y="261.532" style="fill:#124b94;font-family:LGKHFF+MyriadPro-Cond;font-size:0.0px;font-style:NORMAL;font-weight:normal;">.</text>
  <text svg_rhmargin="467.532" transform="matrix(0.0,1.0,-1.0,0.0,731.187,-203.877)" x="467.532" y="263.655" style="fill:#124b94;font-family:LGKHFF+MyriadPro-Cond;font-size:0.0px;font-style:NORMAL;font-weight:normal;">o</text>
  <text svg_rhmargin="467.532" transform="matrix(0.0,1.0,-1.0,0.0,735.385,-199.679)" x="467.532" y="267.853" style="fill:#124b94;font-family:LGKHFF+MyriadPro-Cond;font-size:0.0px;font-style:NORMAL;font-weight:normal;">r</text>
  <text svg_rhmargin="467.532" transform="matrix(0.0,1.0,-1.0,0.0,737.949,-197.115)" x="467.532" y="270.417" style="fill:#124b94;font-family:LGKHFF+MyriadPro-Cond;font-size:0.0px;font-style:NORMAL;font-weight:normal;">g</text>
  <text svg_rhmargin="467.532" transform="matrix(0.0,1.0,-1.0,0.0,747.808,-187.256)" x="467.532" y="280.276" style="fill:#124b94;font-family:LGKHOD+MyriadPro-CondIt;font-size:0.0px;font-style:ITALIC;font-weight:normal;">P</text>
  <text svg_rhmargin="467.532" transform="matrix(0.0,1.0,-1.0,0.0,752.083,-182.981)" x="467.532" y="284.551" style="fill:#124b94;font-family:LGKHOD+MyriadPro-CondIt;font-size:0.0px;font-style:ITALIC;font-weight:normal;">h</text>
  <text svg_rhmargin="467.532" transform="matrix(0.0,1.0,-1.0,0.0,756.394,-178.67)" x="467.532" y="288.862" style="fill:#124b94;font-family:LGKHOD+MyriadPro-CondIt;font-size:0.0px;font-style:ITALIC;font-weight:normal;">i</text>
  <text svg_rhmargin="467.532" transform="matrix(0.0,1.0,-1.0,0.0,758.356,-176.708)" x="467.532" y="290.824" style="fill:#124b94;font-family:LGKHOD+MyriadPro-CondIt;font-size:0.0px;font-style:ITALIC;font-weight:normal;">l</text>
  <text svg_rhmargin="467.532" transform="matrix(0.0,1.0,-1.0,0.0,759.976,-175.088)" x="467.532" y="292.444" style="fill:#124b94;font-family:LGKHOD+MyriadPro-CondIt;font-size:0.0px;font-style:ITALIC;font-weight:normal;">.</text>
  <text svg_rhmargin="467.532" transform="matrix(0.0,1.0,-1.0,0.0,763.948,-171.116)" x="467.532" y="296.416" style="fill:#124b94;font-family:LGKHOD+MyriadPro-CondIt;font-size:0.0px;font-style:ITALIC;font-weight:normal;">T</text>
  <text svg_rhmargin="467.532" transform="matrix(0.0,1.0,-1.0,0.0,767.234,-167.83)" x="467.532" y="299.702" style="fill:#124b94;font-family:LGKHOD+MyriadPro-CondIt;font-size:0.0px;font-style:ITALIC;font-weight:normal;">r</text>
  <text svg_rhmargin="467.532" transform="matrix(0.0,1.0,-1.0,0.0,769.718,-165.346)" x="467.532" y="302.186" style="fill:#124b94;font-family:LGKHOD+MyriadPro-CondIt;font-size:0.0px;font-style:ITALIC;font-weight:normal;">a</text>
  <text svg_rhmargin="467.532" transform="matrix(0.0,1.0,-1.0,0.0,773.885,-161.179)" x="467.532" y="306.353" style="fill:#124b94;font-family:LGKHOD+MyriadPro-CondIt;font-size:0.0px;font-style:ITALIC;font-weight:normal;">n</text>
  <text svg_rhmargin="467.532" transform="matrix(0.0,1.0,-1.0,0.0,778.196,-156.868)" x="467.532" y="310.664" style="fill:#124b94;font-family:LGKHOD+MyriadPro-CondIt;font-size:0.0px;font-style:ITALIC;font-weight:normal;">s</text>
  <text svg_rhmargin="467.532" transform="matrix(0.0,1.0,-1.0,0.0,781.174,-153.89)" x="467.532" y="313.642" style="fill:#124b94;font-family:LGKHOD+MyriadPro-CondIt;font-size:0.0px;font-style:ITALIC;font-weight:normal;">.</text>
  <text svg_rhmargin="467.532" transform="matrix(0.0,1.0,-1.0,0.0,785.147,-149.917)" x="467.532" y="317.615" style="fill:#124b94;font-family:LGKHOD+MyriadPro-CondIt;font-size:0.0px;font-style:ITALIC;font-weight:normal;">R</text>
  <text svg_rhmargin="467.532" transform="matrix(0.0,1.0,-1.0,0.0,789.512,-145.552)" x="467.532" y="321.98" style="fill:#124b94;font-family:LGKHOD+MyriadPro-CondIt;font-size:0.0px;font-style:ITALIC;font-weight:normal;">.</text>
  <text svg_rhmargin="467.532" transform="matrix(0.0,1.0,-1.0,0.0,793.22,-141.844)" x="467.532" y="325.688" style="fill:#124b94;font-family:LGKHOD+MyriadPro-CondIt;font-size:0.0px;font-style:ITALIC;font-weight:normal;">S</text>
  <text svg_rhmargin="467.532" transform="matrix(0.0,1.0,-1.0,0.0,797.019,-138.045)" x="467.532" y="329.487" style="fill:#124b94;font-family:LGKHOD+MyriadPro-CondIt;font-size:0.0px;font-style:ITALIC;font-weight:normal;">o</text>
  <text svg_rhmargin="467.532" transform="matrix(0.0,1.0,-1.0,0.0,801.095,-133.969)" x="467.532" y="333.563" style="fill:#124b94;font-family:LGKHOD+MyriadPro-CondIt;font-size:0.0px;font-style:ITALIC;font-weight:normal;">c</text>
  <text svg_rhmargin="467.532" transform="matrix(0.0,1.0,-1.0,0.0,804.165,-130.899)" x="467.532" y="336.633" style="fill:#124b94;font-family:LGKHOD+MyriadPro-CondIt;font-size:0.0px;font-style:ITALIC;font-weight:normal;">.</text>
  <text svg_rhmargin="467.532" transform="matrix(0.0,1.0,-1.0,0.0,808.138,-126.926)" x="467.532" y="340.606" style="fill:#124b94;font-family:LGKHOD+MyriadPro-CondIt;font-size:0.0px;font-style:ITALIC;font-weight:normal;">A</text>
  <text svg_rhmargin="467.532" transform="matrix(0.0,1.0,-1.0,0.0,814.515,-120.549)" x="467.532" y="346.983" style="fill:#124b94;font-family:LGKHOC+MyriadPro-BoldCond;font-size:0.0px;font-style:NORMAL;font-weight:bold;">3</text>
  <text svg_rhmargin="467.532" transform="matrix(0.0,1.0,-1.0,0.0,818.474,-116.59)" x="467.532" y="350.942" style="fill:#124b94;font-family:LGKHOC+MyriadPro-BoldCond;font-size:0.0px;font-style:NORMAL;font-weight:bold;">7</text>
  <text svg_rhmargin="467.532" transform="matrix(0.0,1.0,-1.0,0.0,822.542,-112.522)" x="467.532" y="355.01" style="fill:#124b94;font-family:LGKHOC+MyriadPro-BoldCond;font-size:0.0px;font-style:NORMAL;font-weight:bold;">2</text>
  <text svg_rhmargin="467.532" transform="matrix(0.0,1.0,-1.0,0.0,826.665,-108.399)" x="467.532" y="359.133" style="fill:#124b94;font-family:LGKHFF+MyriadPro-Cond;font-size:0.0px;font-style:NORMAL;font-weight:normal;">:</text>
  <text svg_rhmargin="467.532" transform="matrix(0.0,1.0,-1.0,0.0,830.786,-104.278)" x="467.532" y="363.254" style="fill:#124b94;font-family:LGKHFF+MyriadPro-Cond;font-size:0.0px;font-style:NORMAL;font-weight:normal;">2</text>
  <text svg_rhmargin="467.532" transform="matrix(0.0,1.0,-1.0,0.0,834.468,-100.596)" x="467.532" y="366.936" style="fill:#124b94;font-family:LGKHFF+MyriadPro-Cond;font-size:0.0px;font-style:NORMAL;font-weight:normal;">0</text>
  <text svg_rhmargin="467.532" transform="matrix(0.0,1.0,-1.0,0.0,838.688,-96.376)" x="467.532" y="371.156" style="fill:#124b94;font-family:LGKHFF+MyriadPro-Cond;font-size:0.0px;font-style:NORMAL;font-weight:normal;">1</text>
  <text svg_rhmargin="467.532" transform="matrix(0.0,1.0,-1.0,0.0,841.626,-93.438)" x="467.532" y="374.094" style="fill:#124b94;font-family:LGKHFF+MyriadPro-Cond;font-size:0.0px;font-style:NORMAL;font-weight:normal;">3</text>
  <text svg_rhmargin="467.532" transform="matrix(0.0,1.0,-1.0,0.0,845.287,-89.777)" x="467.532" y="377.755" style="fill:#124b94;font-family:LGKHFF+MyriadPro-Cond;font-size:0.0px;font-style:NORMAL;font-weight:normal;">0</text>
  <text svg_rhmargin="467.532" transform="matrix(0.0,1.0,-1.0,0.0,849.508,-85.556)" x="467.532" y="381.976" style="fill:#124b94;font-family:LGKHFF+MyriadPro-Cond;font-size:0.0px;font-style:NORMAL;font-weight:normal;">2</text>
  <text svg_rhmargin="467.532" transform="matrix(0.0,1.0,-1.0,0.0,853.191,-81.873)" x="467.532" y="385.659" style="fill:#124b94;font-family:LGKHFF+MyriadPro-Cond;font-size:0.0px;font-style:NORMAL;font-weight:normal;">9</text>
  <text svg_rhmargin="467.532" transform="matrix(0.0,1.0,-1.0,0.0,857.411,-77.653)" x="467.532" y="389.879" style="fill:#124b94;font-family:LGKHFF+MyriadPro-Cond;font-size:0.0px;font-style:NORMAL;font-weight:normal;">6</text>
  <text svg_rhmargin="461.169" transform="matrix(0.0,1.0,-1.0,0.0,633.536,-288.802)" x="461.169" y="172.367" style="fill:#231f20;font-family:LGKHBG+Palatino-Roman;font-size:0.0px;font-style:NORMAL;font-weight:normal;">.</text>
  <text svg_rhmargin="461.169" transform="matrix(0.0,1.0,-1.0,0.0,637.481,-284.857)" x="461.169" y="176.312" style="fill:#231f20;font-family:LGKHBG+Palatino-Roman;font-size:0.0px;font-style:NORMAL;font-weight:normal;">.</text>
  <text svg_rhmargin="461.169" transform="matrix(0.0,1.0,-1.0,0.0,641.426,-280.912)" x="461.169" y="180.257" style="fill:#231f20;font-family:LGKHBG+Palatino-Roman;font-size:0.0px;font-style:NORMAL;font-weight:normal;">.</text>
  <text svg_rhmargin="461.169" transform="matrix(0.0,1.0,-1.0,0.0,645.372,-276.966)" x="461.169" y="184.203" style="fill:#231f20;font-family:LGKHBG+Palatino-Roman;font-size:0.0px;font-style:NORMAL;font-weight:normal;">.</text>
  <text svg_rhmargin="461.169" transform="matrix(0.0,1.0,-1.0,0.0,649.317,-273.021)" x="461.169" y="188.148" style="fill:#231f20;font-family:LGKHBG+Palatino-Roman;font-size:0.0px;font-style:NORMAL;font-weight:normal;">.</text>
  <text svg_rhmargin="461.169" transform="matrix(0.0,1.0,-1.0,0.0,653.262,-269.076)" x="461.169" y="192.093" style="fill:#231f20;font-family:LGKHBG+Palatino-Roman;font-size:0.0px;font-style:NORMAL;font-weight:normal;">.</text>
  <text svg_rhmargin="461.169" transform="matrix(0.0,1.0,-1.0,0.0,657.207,-265.131)" x="461.169" y="196.038" style="fill:#231f20;font-family:LGKHBG+Palatino-Roman;font-size:0.0px;font-style:NORMAL;font-weight:normal;">.</text>
  <text svg_rhmargin="461.169" transform="matrix(0.0,1.0,-1.0,0.0,661.152,-261.186)" x="461.169" y="199.983" style="fill:#231f20;font-family:LGKHBG+Palatino-Roman;font-size:0.0px;font-style:NORMAL;font-weight:normal;">.</text>
  <text svg_rhmargin="461.169" transform="matrix(0.0,1.0,-1.0,0.0,665.098,-257.24)" x="461.169" y="203.929" style="fill:#231f20;font-family:LGKHBG+Palatino-Roman;font-size:0.0px;font-style:NORMAL;font-weight:normal;">.</text>
  <text svg_rhmargin="461.169" transform="matrix(0.0,1.0,-1.0,0.0,669.043,-253.295)" x="461.169" y="207.874" style="fill:#231f20;font-family:LGKHBG+Palatino-Roman;font-size:0.0px;font-style:NORMAL;font-weight:normal;">.</text>
  <text svg_rhmargin="461.169" transform="matrix(0.0,1.0,-1.0,0.0,672.988,-249.35)" x="461.169" y="211.819" style="fill:#231f20;font-family:LGKHBG+Palatino-Roman;font-size:0.0px;font-style:NORMAL;font-weight:normal;">.</text>
  <text svg_rhmargin="461.169" transform="matrix(0.0,1.0,-1.0,0.0,676.933,-245.405)" x="461.169" y="215.764" style="fill:#231f20;font-family:LGKHBG+Palatino-Roman;font-size:0.0px;font-style:NORMAL;font-weight:normal;">.</text>
  <text svg_rhmargin="461.169" transform="matrix(0.0,1.0,-1.0,0.0,680.878,-241.46)" x="461.169" y="219.709" style="fill:#231f20;font-family:LGKHBG+Palatino-Roman;font-size:0.0px;font-style:NORMAL;font-weight:normal;">.</text>
  <text svg_rhmargin="461.169" transform="matrix(0.0,1.0,-1.0,0.0,684.823,-237.515)" x="461.169" y="223.654" style="fill:#231f20;font-family:LGKHBG+Palatino-Roman;font-size:0.0px;font-style:NORMAL;font-weight:normal;">.</text>
  <text svg_rhmargin="461.169" transform="matrix(0.0,1.0,-1.0,0.0,688.769,-233.569)" x="461.169" y="227.6" style="fill:#231f20;font-family:LGKHBG+Palatino-Roman;font-size:0.0px;font-style:NORMAL;font-weight:normal;">.</text>
  <text svg_rhmargin="461.169" transform="matrix(0.0,1.0,-1.0,0.0,692.714,-229.624)" x="461.169" y="231.545" style="fill:#231f20;font-family:LGKHBG+Palatino-Roman;font-size:0.0px;font-style:NORMAL;font-weight:normal;">.</text>
  <text svg_rhmargin="461.169" transform="matrix(0.0,1.0,-1.0,0.0,696.659,-225.679)" x="461.169" y="235.49" style="fill:#231f20;font-family:LGKHBG+Palatino-Roman;font-size:0.0px;font-style:NORMAL;font-weight:normal;">.</text>
  <text svg_rhmargin="461.169" transform="matrix(0.0,1.0,-1.0,0.0,700.604,-221.734)" x="461.169" y="239.435" style="fill:#231f20;font-family:LGKHBG+Palatino-Roman;font-size:0.0px;font-style:NORMAL;font-weight:normal;">.</text>
  <text svg_rhmargin="461.169" transform="matrix(0.0,1.0,-1.0,0.0,704.549,-217.789)" x="461.169" y="243.38" style="fill:#231f20;font-family:LGKHBG+Palatino-Roman;font-size:0.0px;font-style:NORMAL;font-weight:normal;">.</text>
  <text svg_rhmargin="461.169" transform="matrix(0.0,1.0,-1.0,0.0,708.495,-213.843)" x="461.169" y="247.326" style="fill:#231f20;font-family:LGKHBG+Palatino-Roman;font-size:0.0px;font-style:NORMAL;font-weight:normal;">.</text>
  <text svg_rhmargin="461.169" transform="matrix(0.0,1.0,-1.0,0.0,712.44,-209.898)" x="461.169" y="251.271" style="fill:#231f20;font-family:LGKHBG+Palatino-Roman;font-size:0.0px;font-style:NORMAL;font-weight:normal;">.</text>
  <text svg_rhmargin="461.169" transform="matrix(0.0,1.0,-1.0,0.0,716.385,-205.953)" x="461.169" y="255.216" style="fill:#231f20;font-family:LGKHBG+Palatino-Roman;font-size:0.0px;font-style:NORMAL;font-weight:normal;">.</text>
  <text svg_rhmargin="461.169" transform="matrix(0.0,1.0,-1.0,0.0,720.33,-202.008)" x="461.169" y="259.161" style="fill:#231f20;font-family:LGKHBG+Palatino-Roman;font-size:0.0px;font-style:NORMAL;font-weight:normal;">.</text>
  <text svg_rhmargin="461.169" transform="matrix(0.0,1.0,-1.0,0.0,724.275,-198.063)" x="461.169" y="263.106" style="fill:#231f20;font-family:LGKHBG+Palatino-Roman;font-size:0.0px;font-style:NORMAL;font-weight:normal;">.</text>
  <text svg_rhmargin="461.169" transform="matrix(0.0,1.0,-1.0,0.0,728.221,-194.117)" x="461.169" y="267.052" style="fill:#231f20;font-family:LGKHBG+Palatino-Roman;font-size:0.0px;font-style:NORMAL;font-weight:normal;">.</text>
  <text svg_rhmargin="461.169" transform="matrix(0.0,1.0,-1.0,0.0,732.166,-190.172)" x="461.169" y="270.997" style="fill:#231f20;font-family:LGKHBG+Palatino-Roman;font-size:0.0px;font-style:NORMAL;font-weight:normal;">.</text>
  <text svg_rhmargin="461.169" transform="matrix(0.0,1.0,-1.0,0.0,736.111,-186.227)" x="461.169" y="274.942" style="fill:#231f20;font-family:LGKHBG+Palatino-Roman;font-size:0.0px;font-style:NORMAL;font-weight:normal;">.</text>
  <text svg_rhmargin="461.169" transform="matrix(0.0,1.0,-1.0,0.0,740.056,-182.282)" x="461.169" y="278.887" style="fill:#231f20;font-family:LGKHBG+Palatino-Roman;font-size:0.0px;font-style:NORMAL;font-weight:normal;">.</text>
  <text svg_rhmargin="461.169" transform="matrix(0.0,1.0,-1.0,0.0,744.001,-178.337)" x="461.169" y="282.832" style="fill:#231f20;font-family:LGKHBG+Palatino-Roman;font-size:0.0px;font-style:NORMAL;font-weight:normal;">.</text>
  <text svg_rhmargin="461.169" transform="matrix(0.0,1.0,-1.0,0.0,747.947,-174.391)" x="461.169" y="286.778" style="fill:#231f20;font-family:LGKHBG+Palatino-Roman;font-size:0.0px;font-style:NORMAL;font-weight:normal;">.</text>
  <text svg_rhmargin="461.169" transform="matrix(0.0,1.0,-1.0,0.0,751.892,-170.446)" x="461.169" y="290.723" style="fill:#231f20;font-family:LGKHBG+Palatino-Roman;font-size:0.0px;font-style:NORMAL;font-weight:normal;">.</text>
  <text svg_rhmargin="461.169" transform="matrix(0.0,1.0,-1.0,0.0,755.837,-166.501)" x="461.169" y="294.668" style="fill:#231f20;font-family:LGKHBG+Palatino-Roman;font-size:0.0px;font-style:NORMAL;font-weight:normal;">.</text>
  <text svg_rhmargin="461.169" transform="matrix(0.0,1.0,-1.0,0.0,759.782,-162.556)" x="461.169" y="298.613" style="fill:#231f20;font-family:LGKHBG+Palatino-Roman;font-size:0.0px;font-style:NORMAL;font-weight:normal;">.</text>
  <text svg_rhmargin="461.169" transform="matrix(0.0,1.0,-1.0,0.0,763.727,-158.611)" x="461.169" y="302.558" style="fill:#231f20;font-family:LGKHBG+Palatino-Roman;font-size:0.0px;font-style:NORMAL;font-weight:normal;">.</text>
  <text svg_rhmargin="461.169" transform="matrix(0.0,1.0,-1.0,0.0,767.673,-154.665)" x="461.169" y="306.504" style="fill:#231f20;font-family:LGKHBG+Palatino-Roman;font-size:0.0px;font-style:NORMAL;font-weight:normal;">.</text>
  <text svg_rhmargin="461.169" transform="matrix(0.0,1.0,-1.0,0.0,771.618,-150.72)" x="461.169" y="310.449" style="fill:#231f20;font-family:LGKHBG+Palatino-Roman;font-size:0.0px;font-style:NORMAL;font-weight:normal;">.</text>
  <text svg_rhmargin="461.169" transform="matrix(0.0,1.0,-1.0,0.0,775.563,-146.775)" x="461.169" y="314.394" style="fill:#231f20;font-family:LGKHBG+Palatino-Roman;font-size:0.0px;font-style:NORMAL;font-weight:normal;">.</text>
  <text svg_rhmargin="461.169" transform="matrix(0.0,1.0,-1.0,0.0,779.508,-142.83)" x="461.169" y="318.339" style="fill:#231f20;font-family:LGKHBG+Palatino-Roman;font-size:0.0px;font-style:NORMAL;font-weight:normal;">.</text>
  <text svg_rhmargin="461.169" transform="matrix(0.0,1.0,-1.0,0.0,783.454,-138.884)" x="461.169" y="322.285" style="fill:#231f20;font-family:LGKHBG+Palatino-Roman;font-size:0.0px;font-style:NORMAL;font-weight:normal;">.</text>
  <text svg_rhmargin="461.169" transform="matrix(0.0,1.0,-1.0,0.0,787.399,-134.939)" x="461.169" y="326.23" style="fill:#231f20;font-family:LGKHBG+Palatino-Roman;font-size:0.0px;font-style:NORMAL;font-weight:normal;">.</text>
  <text svg_rhmargin="461.169" transform="matrix(0.0,1.0,-1.0,0.0,791.344,-130.994)" x="461.169" y="330.175" style="fill:#231f20;font-family:LGKHBG+Palatino-Roman;font-size:0.0px;font-style:NORMAL;font-weight:normal;">.</text>
  <text svg_rhmargin="461.169" transform="matrix(0.0,1.0,-1.0,0.0,795.289,-127.049)" x="461.169" y="334.12" style="fill:#231f20;font-family:LGKHBG+Palatino-Roman;font-size:0.0px;font-style:NORMAL;font-weight:normal;">.</text>
  <text svg_rhmargin="461.169" transform="matrix(0.0,1.0,-1.0,0.0,799.234,-123.104)" x="461.169" y="338.065" style="fill:#231f20;font-family:LGKHBG+Palatino-Roman;font-size:0.0px;font-style:NORMAL;font-weight:normal;">.</text>
  <text svg_rhmargin="461.169" transform="matrix(0.0,1.0,-1.0,0.0,803.18,-119.158)" x="461.169" y="342.011" style="fill:#231f20;font-family:LGKHBG+Palatino-Roman;font-size:0.0px;font-style:NORMAL;font-weight:normal;">.</text>
  <text svg_rhmargin="461.169" transform="matrix(0.0,1.0,-1.0,0.0,807.125,-115.213)" x="461.169" y="345.956" style="fill:#231f20;font-family:LGKHBG+Palatino-Roman;font-size:0.0px;font-style:NORMAL;font-weight:normal;">.</text>
  <text svg_rhmargin="461.169" transform="matrix(0.0,1.0,-1.0,0.0,811.07,-111.268)" x="461.169" y="349.901" style="fill:#231f20;font-family:LGKHBG+Palatino-Roman;font-size:0.0px;font-style:NORMAL;font-weight:normal;">.</text>
  <text svg_rhmargin="461.169" transform="matrix(0.0,1.0,-1.0,0.0,815.015,-107.323)" x="461.169" y="353.846" style="fill:#231f20;font-family:LGKHBG+Palatino-Roman;font-size:0.0px;font-style:NORMAL;font-weight:normal;">.</text>
  <text svg_rhmargin="461.169" transform="matrix(0.0,1.0,-1.0,0.0,818.961,-103.377)" x="461.169" y="357.792" style="fill:#231f20;font-family:LGKHBG+Palatino-Roman;font-size:0.0px;font-style:NORMAL;font-weight:normal;">.</text>
  <text svg_rhmargin="461.169" transform="matrix(0.0,1.0,-1.0,0.0,822.906,-99.432)" x="461.169" y="361.737" style="fill:#231f20;font-family:LGKHBG+Palatino-Roman;font-size:0.0px;font-style:NORMAL;font-weight:normal;">.</text>
  <text svg_rhmargin="461.169" transform="matrix(0.0,1.0,-1.0,0.0,826.851,-95.487)" x="461.169" y="365.682" style="fill:#231f20;font-family:LGKHBG+Palatino-Roman;font-size:0.0px;font-style:NORMAL;font-weight:normal;">.</text>
  <text svg_rhmargin="461.169" transform="matrix(0.0,1.0,-1.0,0.0,830.796,-91.542)" x="461.169" y="369.627" style="fill:#231f20;font-family:LGKHBG+Palatino-Roman;font-size:0.0px;font-style:NORMAL;font-weight:normal;">.</text>
  <text svg_rhmargin="461.169" transform="matrix(0.0,1.0,-1.0,0.0,834.741,-87.597)" x="461.169" y="373.572" style="fill:#231f20;font-family:LGKHBG+Palatino-Roman;font-size:0.0px;font-style:NORMAL;font-weight:normal;">.</text>
  <text svg_rhmargin="461.169" transform="matrix(0.0,1.0,-1.0,0.0,838.687,-83.651)" x="461.169" y="377.518" style="fill:#231f20;font-family:LGKHBG+Palatino-Roman;font-size:0.0px;font-style:NORMAL;font-weight:normal;">.</text>
  <text svg_rhmargin="461.169" transform="matrix(0.0,1.0,-1.0,0.0,842.632,-79.706)" x="461.169" y="381.463" style="fill:#231f20;font-family:LGKHBG+Palatino-Roman;font-size:0.0px;font-style:NORMAL;font-weight:normal;">.</text>
  <text svg_rhmargin="461.169" transform="matrix(0.0,1.0,-1.0,0.0,846.577,-75.761)" x="461.169" y="385.408" style="fill:#231f20;font-family:LGKHBG+Palatino-Roman;font-size:0.0px;font-style:NORMAL;font-weight:normal;">.</text>
  <text svg_rhmargin="461.169" transform="matrix(0.0,1.0,-1.0,0.0,850.522,-71.816)" x="461.169" y="389.353" style="fill:#231f20;font-family:LGKHBG+Palatino-Roman;font-size:0.0px;font-style:NORMAL;font-weight:normal;">.</text>
  <text svg_rhmargin="461.169" transform="matrix(0.0,1.0,-1.0,0.0,854.467,-67.871)" x="461.169" y="393.298" style="fill:#231f20;font-family:LGKHBG+Palatino-Roman;font-size:0.0px;font-style:NORMAL;font-weight:normal;">.</text>
  <text x="55.548,58.471,63.689,67.073,71.969,77.376,82.361,87.57900000000001,91.703,94.626,99.845,104.14,107.941,112.236,114.47800000000001,118.627,121.55,126.768,131.063,135.192,142.67,145.279,150.758,155.053,158.595,162.73,166.711,169.32,171.929,179.847,184.33,187.253,191.548,193.79,197.938,204.914,208.71599999999998,212.852,220.769,225.665,231.143,235.438,238.047,241.849,245.976,248.586,253.804,257.785,261.169,265.464,269.947,273.749,278.04400000000004,282.191,284.8,290.01800000000003,294.151,298.132,303.028,310.945,316.334,318.943,323.238,327.865,330.474,333.397,338.382,342.514,346.996,352.215,357.693,361.827,365.211,369.504,373.306,378.201,380.81,386.217,389.14,391.749,396.645,401.863,405.996,408.605,413.824,416.747,421.642,425.774,428.697,433.916" y="149.56100000000004" svg_rhmargin="438.211" style="fill:#231f20;font-family:LGKHBG+Palatino-Roman;font-size:8.97px;font-style:NORMAL;font-weight:normal;">through these, the wider climate. As models increase in complexity and resolution into the</text>
  <text x="55.548,58.535,63.942,66.866,72.274,75.658,79.954,82.196,85.606,88.53,93.749,98.044,101.462,105.946,111.426,116.905,119.515,122.439,125.049,129.946,135.164,138.568,143.464,146.45,149.873,154.169,159.648,165.127,170.114,173.1,178.49,182.786,186.328,194.247,196.857,199.781,202.705,205.315,210.534,215.519,218.913,226.831,231.728,237.207,241.503,244.113,247.916,250.158,253.577,259.058,264.045,269.264,273.748,281.666,284.276,288.257,291.675,294.285,298.267,302.562,305.98,309.778,314.997,319.293,323.589,326.513,330.315,333.731,338.213,343.432,348.91,352.333,354.943,358.925,363.22,366.638,370.436,375.656,379.951,382.561,387.628,391.924,395.726,399.151,403.633,408.853,414.331,417.745,425.663,430.56,433.943" y="161.52200000000005" svg_rhmargin="438.238" style="fill:#231f20;font-family:LGKHBG+Palatino-Roman;font-size:8.97px;font-style:NORMAL;font-weight:normal;">future, the addition of eddy-permitting models, dynamic ice sheets and ice shelves and more</text>
  <text x="55.548,59.53,64.427,72.345,77.734,80.345,84.64,89.266,91.76,96.719,99.329,104.226,109.212,113.508,118.404,122.386,127.606,131.901,139.82,142.43,146.232,149.156,152.699,157.68400000000003,160.169,163.093,167.988,170.473,173.397,178.616,181.226,185.028,187.517,192.909,195.519,199.501,202.425,207.832,211.216,215.511,217.993,225.472,228.082,230.692,233.30100000000002,235.786,239.768,244.665,252.583,257.973,260.583,263.193,267.175,271.659,274.583,278.87800000000004,281.369,284.293,289.512,292.122,297.341,302.328,306.13,308.618,311.605,317.013,320.555,323.479,328.699,332.994,335.874,338.11600000000004,340.591,346.088,351.307,355.603,359.406,363.701,366.192,370.674,376.153,381.633,384.243,387.167,389.777,394.673,399.893,403.695,406.174,408.785,414.004,417.986,421.37,425.663,430.147,433.95" y="173.47400000000005" svg_rhmargin="438.245" style="fill:#231f20;font-family:LGKHBG+Palatino-Roman;font-size:8.97px;font-style:NORMAL;font-weight:normal;">complex biogeochemistry to this picture will complicate things further. These additions increase</text>
  <text x="55.548,58.472,63.691,67.986,70.846,76.236,81.133,84.057,88.352,93.572,96.496,99.106,103.59,106.199,109.062,112.049,116.945,120.487,123.354,125.964,131.183,134.107,138.403,141.787,144.774,152.692,157.588,163.068,167.364,169.973,172.827,177.894,182.378,185.92,188.53,193.015,197.974,200.584,203.194,205.804,208.728,213.71300000000002,216.568,219.178,224.396,227.26,230.184,235.403,239.69799999999998,242.558,247.267,252.163,257.571,260.495,265.714,270.01,273.553,278.771,281.635,288.683,292.665,296.961,301.445,306.663,309.537,312.461,317.356,320.22,322.83,330.748,336.138,340.622,344.604,347.527,350.391,354.373,356.983,359.593,367.511,371.996,374.92,379.21500000000003,382.075,386.557,391.776,397.254,400.12,403.922,408.218,412.701,415.571,418.181,422.477,427.544,431.84,434.45" y="185.43600000000004" svg_rhmargin="438.252" style="fill:#231f20;font-family:LGKHBG+Palatino-Roman;font-size:8.97px;font-style:NORMAL;font-weight:normal;">the potential for inter-model variability in the Southern Ocean to impact climate and sea levels</text>
  <text x="55.548,58.158,63.376000000000005,67.581,72.8,75.41,80.397,85.616,88.226,93.211,97.406,102.625,107.522,112.741,115.351,117.961,123.181,127.476,131.961,135.50300000000001,139.7,147.179,151.663,156.65,160.452,164.65,169.547,174.765,178.97,182.948,187.244,192.463,195.387,199.683,204.902,210.122,212.732,217.216,219.82500000000002,224.029,226.952,229.563,237.481,241.77599999999998,245.977,249.78,253.762,258.246,260.856,265.152,268.955,271.197,275.408,278.018,283.237,287.219,290.603,294.896,299.38,303.183,305.793,311.012,315.997,320.201,325.098,330.165,334.46,338.003,342.487,345.097,347.70599999999996,351.91,357.318,362.537,366.519,370.815,374.357,377.281,381.765,384.375,389.595,392.519,397.504,401.69,404.3,409.51800000000003,413.722,418.709,421.319,426.215,431.175,435.659" y="197.38800000000003" svg_rhmargin="438.268" style="fill:#231f20;font-family:LGKHBG+Palatino-Roman;font-size:8.97px;font-style:NORMAL;font-weight:normal;">in highly nonlinear ways on centennial time scales, increasing overall uncertainty in global</text>
  <text x="55.548,59.53,62.14,64.75,72.668,77.153,80.076,84.371,86.179,89.563,93.859,97.661,103.051,107.948,113.167,116.97,121.265,123.072,125.997,130.892,132.693,137.175,142.395,145.319,150.538,153.922,158.819,164.208,169.105,174.091,178.387,183.606,186.216,190.197,191.994,194.983,199.879,203.263,207.245,209.855,215.075,220.061,222.303,224.102,229.601,234.82,237.431,241.233,243.037,248.258,250.868,255.854,261.073,263.683,266.293,271.28,276.499,279.423,283.225,285.021,287.945,293.164,297.459,299.257,304.477,308.773,313.068,318.546,320.359,323.346,328.242,331.784,333.588,341.067,343.677,349.156,353.452,356.99399999999997,358.798,363.282,368.501,373.979,375.783,383.703,388.6,391.984,396.279,398.086,403.495,408.715,411.325,414.312,419.208,422.751,430.669,433.279" y="209.34000000000003" svg_rhmargin="438.264" style="fill:#231f20;font-family:LGKHBG+Palatino-Roman;font-size:8.97px;font-style:NORMAL;font-weight:normal;">climate response to anthropogenic forcing. This highlights the need for wider and more uniformly</text>
  <text x="55.548,58.535,63.431,66.974,74.892,79.376,82.3,85.224,89.52,94.99799999999999,98.142,106.062,110.358,113.282,117.766,123.245,127.729,130.653,135.136,138.285,142.768,147.835,152.319,154.929,157.539,162.023,166.982,169.593,172.203,174.813,177.737,181.724,183.96599999999998,187.125,191.609,195.411,198.566,206.045,210.34,212.951,215.56,218.711,223.195,226.99699999999999,230.152,238.07,242.966,248.446,252.742,255.351,258.502,262.3,266.596,269.52,272.506,277.914,283.303,286.455,291.845,296.329,299.872,304.356,312.274,316.57,319.494,323.79,327.332,331.134,334.28,337.267,341.563,343.805,348.792,351.034,354.192,358.485,363.964,369.444,374.42900000000003,377.58,382.539,387.436,390.046,395.454,399.25600000000003,402.411,407.892,410.502,413.328,416.315,421.722,425.525,428.135,433.032" y="221.30100000000004" svg_rhmargin="438.25" style="fill:#231f20;font-family:LGKHBG+Palatino-Roman;font-size:8.97px;font-style:NORMAL;font-weight:normal;">formatted metadata availability, as well as model set-up parameters (e.g. eddy bolus diffusion</text>
  <text x="55.548,59.529,64.425,68.72,71.546,76.971,80.952,83.561,87.856,93.074,95.997,99.799,102.78500000000001,104.803,107.728,112.62299999999999,114.631,119.591,123.886,125.89,130.787,136.194,139.117,144.505,149.912,152.835,154.836,159.319,163.12099999999998,165.133,172.611,176.906,179.515,182.124,184.132,188.615,192.417,194.42,199.808,205.027,210.012,213.814,216.423,220.404,224.887,227.496,229.513,234.579,239.062,242.604,245.213,249.697,254.655,257.264,261.559,265.36100000000005,267.364,269.974,275.192,277.201,282.098,285.481,290.963,295.258,298.79999999999995,300.801,303.724,308.61899999999997,310.628,313.613,318.097,322.078,324.687,327.296,329.905,332.828,337.312,340.235,344.53000000000003,346.534,354.454,358.749,361.672,366.156,369.141,373.625,378.843,383.326,385.935,390.921,394.723,397.332,401.134,403.137,408.032,411.018,413.027,420.945,425.84,431.319,435.614" y="233.25300000000004" svg_rhmargin="438.223" style="fill:#231f20;font-family:LGKHBG+Palatino-Roman;font-size:8.97px;font-style:NORMAL;font-weight:normal;">coefﬁcients) to be output as well as physical variables in order to facilitate meta-analysis of model</text>
  <text x="55.548,59.351,63.646,66.57,69.557,74.965,80.354,82.597,86.579,91.798,96.695,99.305,103.287,107.583,111.385,113.631,118.115,123.334,128.812,131.056,133.98,139.199,143.495,146.105,149.647,151.883,154.493,162.411,167.801,172.285,176.267,179.19,181.434,186.33,191.548,193.782,196.706,201.925,206.22,208.459,211.843,216.136,221.526,224.91,229.206,233.008,237.304,242.523,245.447,249.932,252.855,255.466,260.362,265.58000000000004,267.814,272.711,275.697,277.94,280.864,286.083,290.37800000000004,292.617,296.599,299.209,301.819,309.737,314.221,317.145,321.44,323.679,327.477,332.464,336.266,339.19,343.486,351.404" y="245.20600000000002" svg_rhmargin="353.646" style="fill:#231f20;font-family:LGKHBG+Palatino-Roman;font-size:8.97px;font-style:NORMAL;font-weight:normal;">set-up choices and their impact on the representation of the climate system.</text>
  <text svg_rhmargin="111.569" x="55.548,59.355,62.064,65.236,68.866,72.241,77.317,79.027,82.28,85.856,89.432,92.685,98.242,101.495,105.069,107.355,109.83,111.569" y="261.64700000000005" style="fill:#124b94;font-family:LGKHFF+MyriadPro-Cond;font-size:8.97px;font-style:NORMAL;font-weight:normal;">Acknowledgements. </text>
  <text x="115.544,120.43,125.068,128.886,130.576,134.564,139.37,141.968,146.607,150.958,154.106,155.783,158.384,163.023,167.008,171.646,176.078,179.457,181.154,183.808,187.625,191.611,196.249,198.903,203.773,207.758,212.548,215.146,217.466,220.845,223.443,227.26100000000002,228.951,233.136,237.121,239.44,241.759,245.577,249.395,251.388,253.066,257.224,261.581,268.619,270.303,275.171,278.32,282.305,285.843,289.661,294.092,296.412,299.418,304.288,306.607,310.425,312.107,316.094,320.733,325.603,327.294,329.948,334.299,338.938,343.577,345.265,349.433,354.239,357.387,362.026,365.843,368.99100000000004,370.685,373.339,377.691,380.839,382.524,386.952,389.272,393.91,398.78,401.099,405.53,407.219,411.207,413.526,415.845,420.197,426.844,429.163,433.802" y="261.64700000000005" svg_rhmargin="438.233" style="fill:#231f20;font-family:LGKHBG+Palatino-Roman;font-size:7.97px;font-style:NORMAL;font-weight:normal;">The author thanks Jean-Baptiste Sallée, Tom Bracegirdle and John Turner for kindly allowing</text>
  <text x="55.548,62.586,66.404,68.814,71.412,75.76400000000001,78.18,81.186,85.004,89.794,92.8,97.152,102.022,106.828,110.367,114.185,116.594,120.582,125.22,130.09,132.502,139.539,143.891,148.761,151.08,153.734,158.16500000000002,160.574,163.172,167.811,171.629,173.948,177.096,179.51,184.335,188.766,193.572,196.578,200.394,203.773,206.181,210.817,214.635,217.641,221.459,223.878,227.866,232.504,237.374,239.786,242.44,246.792,249.94,252.354,254.955,259.594,263.412,265.731,268.879,271.284,275.923,279.741,282.06,286.85,289.504,294.31,296.629,299.053,302.59,306.942,313.98,321.017,324.835,329.473,332.072,335.451,337.444,339.852,343.837,346.156,350.508,355.147,359.578,361.987,368.638,370.957,373.555,378.194,380.603,383.201,389.848,394.2,396.598,400.585,405.224,409.575,414.214,418.645,425.683,430.035,434.841" y="272.6" svg_rhmargin="438.22" style="fill:#231f20;font-family:LGKHBG+Palatino-Roman;font-size:7.97px;font-style:NORMAL;font-weight:normal;">me to reproduce and modify their ﬁgures here and for their helpful comments, along with two anonymous</text>
  <text x="55.548,58.554,62.371,66.874,69.195,73.013,79.661,83.479,86.628,90.008,92.00099999999999,94.131,96.81700000000001,98.937,102.924,106.464,110.896,115.535,119.888,126.535,128.856,132.674,137.545,141.977,145.79500000000002,147.917,150.516,155.155,158.973,161.095,168.341,172.694,175.843,178.163,183.03300000000002,185.147,190.798,193.119,195.439,202.477,206.463,209.062,212.88000000000002,214.984,220.313,224.131,227.511,231.33,235.315,238.322,241.859,246.49800000000002,248.627,253.443,256.449,260.805,265.238,268.387,272.372,279.411,286.449,290.268,292.484,295.863,297.984,305.229,309.586,312.735,317.167,319.487,324.126,328.55699999999996,330.67,336.754,339.76,344.117,348.924,353.714,355.827,360.179,364.818,366.938,372.59,376.943,381.749,386.54,388.86,392.679,397.549,399.663,407.205,411.557,416.428,420.246,422.567,424.887,427.207,431.846,436.278" y="283.562" svg_rhmargin="438.271" style="fill:#231f20;font-family:LGKHBG+Palatino-Roman;font-size:7.97px;font-style:NORMAL;font-weight:normal;">reviewers. I acknowledge the World Climate Research Programme’s Working Group on Coupled Modelling,</text>
  <text x="55.548,62.196,66.835,69.156,72.695,77.33399999999999,79.229,81.551,84.93,86.816,89.823,93.641,97.021,101.812,106.165,110.804,114.184,116.504,120.913,123.233,127.051,128.948,131.603,135.955,139.103,140.987,146.639,154.18,156.867,160.655,162.648,164.535,168.52,173.16,178.03,179.928,182.614,184.509,187.108,191.748,195.733,200.373,204.804,206.691,209.292,213.932,217.75,219.647,223.186,225.507,227.827,234.865,238.851,241.45,245.268,247.147,254.185,258.538,263.408,267.227,269.547,271.867,274.187,278.827,283.258,285.144,289.573,292.579,296.935,301.742,306.533,309.91200000000003,311.807,314.462,318.814,321.96200000000005,323.846,328.636,331.643,335.995,340.866,345.673,349.212,351.532,356.172,360.603,362.499,366.486,371.126,375.996,377.885,384.924,388.909,393.342,395.662,400.301,404.73199999999997,406.629,410.614,415.118,419.104,421.424,423.744,427.73,432.138,434.459" y="294.524" svg_rhmargin="438.277" style="fill:#231f20;font-family:LGKHBG+Palatino-Roman;font-size:7.97px;font-style:NORMAL;font-weight:normal;">which is responsible for CMIP, and I thank the climate modelling groups for producing and making available</text>
  <text x="55.548,58.146,62.785,66.603,68.922,72.07,76.059,83.098,87.449,92.319,96.137,98.456,102.446,106.798,111.603,114.202,118.992,123.798,126.396,128.389,132.381,136.809,141.161,144.309,148.298,153.949,161.488,164.174,167.963,169.956,173.948,176.549,181.188,185.006,188.992,195.192,199.376,203.365,209.534,213.351,218.141,222.126,225.275,227.873,234.91,238.728,243.367,245.965,249.964,254.315,256.969,260.958,265.827,270.466,274.284,277.29,281.721,286.153,288.368,291.747,295.749,300.564,303.57,307.927,312.358,315.506,319.492,326.53000000000003,330.517,333.171,337.522,340.67,344.651,350.303,352.622,354.942,361.979,365.964,368.563,372.381,376.357,383.899,388.25,393.12,396.938,399.257,403.247,409.416,411.735,415.72,420.151,424.79,429.142,432.521,434.84" y="305.478" svg_rhmargin="438.219" style="fill:#231f20;font-family:LGKHBG+Palatino-Roman;font-size:7.97px;font-style:NORMAL;font-weight:normal;">their model output. For CMIP, the US Department of Energy’s Program for Climate Model Diagnosis</text>
  <text x="55.548,59.534,64.173,69.043,72.967,75.649,80.288,82.887,86.706,89.712,93.252,97.604,104.642,109.433,113.419,116.568,118.888,122.268,126.621,131.26,135.18,139.971,142.977,147.329,151.833,154.153,159.024,162.842,166.221,170.133,173.672,178.025,182.377,185.384,190.254,192.574,197.214,201.199,203.798,206.119,210.758,215.18900000000002,219.101,222.476,227.283,232.074,236.865,241.217,244.366,246.96400000000003,250.883,254.868,259.508,264.378,268.301,270.624,274.442,279.312,283.236,288.106,291.925,296.428,300.247,302.567,306.92,311.71,318.749,322.567,327.207,329.805,333.732,338.088,340.742,344.649,348.025,352.377,355.032,357.631,364.279,368.265,371.271,375.089,379.002,381.325,385.964,388.619,391.768,395.754,399.134,401.733,404.82,409.626,413.166,415.765,420.572,423.578,427.39599999999996,431.309,433.629" y="316.44" svg_rhmargin="438.268" style="fill:#231f20;font-family:LGKHBG+Palatino-Roman;font-size:7.97px;font-style:NORMAL;font-weight:normal;">and Intercomparison provides coordinating support and led development of software infrastructure in</text>
  <text x="55.548,60.34,64.326,67.476,70.076,74.716,78.536,81.685,85.066,89.706,92.027,96.81700000000001,98.814,105.465,107.786,110.386,115.02499999999999,117.01,119.609,124.25,128.068,130.064,136.147,138.467,142.821,147.23,151.216,153.535,155.51,161.774,164.781,169.209,173.196,177.836,180.157,184.143,188.13,190.73,193.051,197.404,202.043,204.019,206.674,211.027,214.17499999999998,216.166,221.038,225.024,228.174,230.774,235.413,237.398,241.583,246.016,249.397,251.997,255.816,262.854,264.853,269.038,272.578,274.899,278.718,283.358,286.899,290.717,292.713,297.528,301.882,305.031,307.631,311.618,313.939" y="327.402" svg_rhmargin="317.318" style="fill:#231f20;font-family:LGKHBG+Palatino-Roman;font-size:7.97px;font-style:NORMAL;font-weight:normal;">partnership with the Global Organization for Earth System Science Portals</text>
  <text x="55.548,62.061,67.841,71.469,77.249,80.976,86.764,93.213,97.93,103.71" y="360.143" svg_rhmargin="108.317" style="fill:#124b94;font-family:LGKHFF+MyriadPro-Cond;font-size:15.94px;font-style:NORMAL;font-weight:normal;">References</text>
  <text svg_rhmargin="108.949" x="60.03,64.513,66.75500000000001,70.444,75.152,79.635,84.593,87.203,92.421,96.71600000000001,102.592,108.949" y="377.081" style="fill:#231f20;font-family:LGKHBG+Palatino-Roman;font-size:8.97px;font-style:NORMAL;font-weight:normal;">1. Sabine C </text>
  <text svg_rhmargin="135.88" x="114.815,118.304,121.29,127.161,131.143,133.638,135.88" y="377.081" style="fill:#231f20;font-family:LGKINA+Palatino-Italic;font-size:8.97px;font-style:ITALIC;font-weight:normal;">et al. </text>
  <text x="141.752,146.237,150.721,155.205,159.68800000000002,165.564,171.061,176.28,180.575,186.442,191.338,195.32,199.616,204.1,209.32,211.93,215.911,221.785,225.587,228.198,233.417,238.40200000000002,244.28,247.266,252.163,255.705,261.577,266.059,271.278,274.202,279.422,282.806,287.702,293.092,297.988,302.975,307.27,312.49,315.1,319.081,324.937,331.291" y="377.081" svg_rhmargin="338.339" style="fill:#231f20;font-family:LGKHBG+Palatino-Roman;font-size:8.97px;font-style:NORMAL;font-weight:normal;">2004 The oceanic sink for anthropogenic CO</text>
  <text x="338.319" y="378.611" svg_rhmargin="341.806" style="fill:#231f20;font-family:LGKHBG+Palatino-Roman;font-size:6.97px;font-style:NORMAL;font-weight:normal;">2</text>
  <text svg_rhmargin="344.548" x="342.306,344.548" y="377.081" style="fill:#231f20;font-family:LGKHBG+Palatino-Roman;font-size:8.97px;font-style:NORMAL;font-weight:normal;">. </text>
  <text svg_rhmargin="377.157" x="350.424,355.409,359.057,361.549,365.036,370.02,373.669,377.157" y="377.081" style="fill:#231f20;font-family:LGKINA+Palatino-Italic;font-size:8.97px;font-style:ITALIC;font-weight:normal;">Science </text>
  <text x="383.032,387.515,391.997" y="377.081" svg_rhmargin="396.48" style="fill:#231f20;font-family:LGMNJC+Palatino-Bold;font-size:8.97px;font-style:NORMAL;font-weight:bold;">305</text>
  <text x="396.479,398.721,404.606,409.089,413.571,418.053,422.536,427.018,431.5,435.982" y="377.081" svg_rhmargin="438.224" style="fill:#231f20;font-family:LGKHBG+Palatino-Roman;font-size:8.97px;font-style:NORMAL;font-weight:normal;">, 367–371.</text>
  <text x="70.443,73.431,78.908,83.803,86.411,88.652,93.134,97.617,99.857,104.34,108.822,113.304,117.786,123.219,127.02,131.0,133.609,137.903,143.12,147.1,151.394,153.635,158.117,162.6,167.082,171.564,176.046,180.529,185.013" y="388.043" svg_rhmargin="187.999" style="fill:#231f20;font-family:LGKHBG+Palatino-Roman;font-size:8.97px;font-style:NORMAL;font-weight:normal;">(doi:10.1126/science.1097403)</text>
  <text svg_rhmargin="120.635" x="60.029,64.513,66.75500000000001,70.444,75.922,80.217,83.914,90.962,96.368,100.663,104.047,108.342,112.039,118.393,120.635" y="398.997" style="fill:#231f20;font-family:LGKHBG+Palatino-Roman;font-size:8.97px;font-style:NORMAL;font-weight:normal;">2. Le Quere C. </text>
  <text svg_rhmargin="143.233" x="124.345,127.835,130.821,134.513,138.496,140.991,143.233" y="398.997" style="fill:#231f20;font-family:LGKINA+Palatino-Italic;font-size:8.97px;font-style:ITALIC;font-weight:normal;">et al. </text>
  <text x="146.936,151.42,155.904,160.389,164.872,168.578,173.287,177.771,180.695,186.102,189.645,194.129,197.053,199.663,204.56,209.778,213.47,218.366,221.352,225.044,227.968,233.188,237.48299999999998,241.179,245.888,250.784,256.192,259.116,264.335,268.631,272.174,277.392,281.092,288.141,292.123,296.419,300.903,306.12100000000004,309.822,316.176" y="398.997" svg_rhmargin="323.224" style="fill:#231f20;font-family:LGKHBG+Palatino-Roman;font-size:8.97px;font-style:NORMAL;font-weight:normal;">2007 Saturation of the Southern Ocean CO</text>
  <text svg_rhmargin="326.704" x="323.217,326.704" y="398.996" style="fill:#231f20;font-family:LGKHBG+Palatino-Roman;font-size:6.97px;font-style:NORMAL;font-weight:normal;">2 </text>
  <text x="330.903,334.706,337.316,342.535,347.52000000000004,351.22,356.699,362.107,366.40200000000004,370.099,373.023,377.918,381.618,385.002,389.295,393.277,397.573,402.792,405.715,409.416,413.398,416.008,418.619,426.537,431.021,433.945" y="398.996" svg_rhmargin="438.24" style="fill:#231f20;font-family:LGKHBG+Palatino-Roman;font-size:8.97px;font-style:NORMAL;font-weight:normal;">sink due to recent climate</text>
  <text svg_rhmargin="100.866" x="70.443,74.424,79.642,84.125,89.344,94.329,98.624,100.866" y="409.958" style="fill:#231f20;font-family:LGKHBG+Palatino-Roman;font-size:8.97px;font-style:NORMAL;font-weight:normal;">change. </text>
  <text svg_rhmargin="129.842" x="103.104,108.09,111.739,114.232,117.72,122.705,126.354,129.842" y="409.958" style="fill:#231f20;font-family:LGKINA+Palatino-Italic;font-size:8.97px;font-style:ITALIC;font-weight:normal;">Science </text>
  <text x="132.086,136.568,141.05" y="409.958" svg_rhmargin="145.533" style="fill:#231f20;font-family:LGMNJC+Palatino-Bold;font-size:8.97px;font-style:NORMAL;font-weight:bold;">316</text>
  <text x="145.533,147.77499999999998,150.024,154.506,158.988,163.471,167.953,172.435,176.918,181.4,185.882,190.365,192.607,194.856,197.838,203.316,208.21,210.819,213.059,217.542,222.024,224.265,228.747,233.229,237.712,242.194,247.627,251.428,255.408,258.016,262.31,267.528,271.508,275.802,278.042,282.525,287.007,291.489,295.972,300.454,304.936,309.42" y="409.958" svg_rhmargin="312.406" style="fill:#231f20;font-family:LGKHBG+Palatino-Roman;font-size:8.97px;font-style:NORMAL;font-weight:normal;">, 1735–1738. (doi:10.1126/science.1136188)</text>
  <text svg_rhmargin="411.82" x="60.03,64.514,66.756,70.445,76.436,79.046,84.265,87.189,92.086,97.493,100.10199999999999,103.451,108.16,110.402,113.757,121.218,126.626,131.612,136.832,141.127,144.929,148.274,154.632,156.874,160.229,167.278,169.888,174.847,179.143,182.686,186.488,189.841,196.782,199.024,202.38,206.864,211.348,215.832,220.315,223.671,229.168,234.388,238.683,242.029,249.004,254.223,257.147,261.631,265.015,268.994,271.918,274.528,278.509,281.854,288.209,290.819,294.203,298.185,303.592,311.51,316.9,321.797,324.407,328.891,332.433,335.785,342.14,347.547,351.09,354.474,358.767,363.986,366.909,370.25,374.053,379.039,382.842,385.766,390.061,397.98,400.22200000000004,403.577,406.602,411.82" y="420.921" style="fill:#231f20;font-family:LGKHBG+Palatino-Roman;font-size:8.97px;font-style:NORMAL;font-weight:normal;">3. Rintoul S, Hughes C, Olbers D. 2001 The Antarctic Circumpolar Current system. In </text>
  <text x="415.163,422.138,425.786,429.273,433.254" y="420.921" svg_rhmargin="438.239" style="fill:#231f20;font-family:LGKINA+Palatino-Italic;font-size:8.97px;font-style:ITALIC;font-weight:normal;">Ocean</text>
  <text svg_rhmargin="154.102" x="70.443,74.091,76.583,79.913,83.558,88.542,91.034,95.014,97.999,100.491,104.471,109.456,112.022,116.001,120.985,125.468,128.042,131.69,134.182,136.674,143.649,147.629,150.614,154.102" y="431.874" style="fill:#231f20;font-family:LGKINA+Palatino-Italic;font-size:8.97px;font-style:ITALIC;font-weight:normal;">circulation and climate </text>
  <text x="156.674,159.66,163.955,169.433,173.23499999999999,175.797,182.638,185.193,189.9,192.509,196.804,202.283,204.892,209.187,212.067,214.309,216.873,219.85899999999998,222.426,228.783,234.001,239.408,242.792,246.773,251.992,254.23399999999998,256.789,259.775,262.341,269.183,274.078,279.485,282.094,287.573,290.559,292.80100000000004,295.356,299.337,304.555,306.797,309.361,313.844,316.086,320.569,322.81100000000004,325.375,330.764,336.153,338.39500000000004,340.959,345.442,349.925,354.409,358.892,363.375,367.858,372.341,374.583,377.156,381.864,386.347,391.565,394.123,401.063,403.672,407.967,412.952,417.848,420.09000000000003,422.654,429.011,435.987" y="431.874" svg_rhmargin="438.229" style="fill:#231f20;font-family:LGKHBG+Palatino-Roman;font-size:8.97px;font-style:NORMAL;font-weight:normal;">(eds G Siedler, J Church, J Gould), ch. 4.6, pp. 271–302. San Diego, CA:</text>
  <text x="70.443,77.417,81.398,85.88,91.358,95.652,103.568,106.176,110.157,112.395,117.81,121.194,125.488,129.289,133.09" y="442.836" svg_rhmargin="135.332" style="fill:#231f20;font-family:LGKHBG+Palatino-Roman;font-size:8.97px;font-style:NORMAL;font-weight:normal;">Academic Press.</text>
  <text x="60.03,64.514,66.756,70.445,77.494,80.104,85.063,89.359,92.902,96.70400000000001,100.984,107.925,110.167,114.441,119.92,124.817,128.2,133.097,140.576,144.379,149.365,151.97400000000002,156.25,163.191,165.433,169.716,175.188,180.085,182.695,187.681,191.977,195.519,199.807,206.162,208.404,212.686,220.822,225.719,228.329,231.155,234.141,238.427,241.414,244.401,251.449,253.691,257.965,262.449,266.933,271.417,275.9,280.184,285.681,290.9,295.195,299.469,304.95,309.936,315.155,319.639,327.558,330.168,334.15,338.634,341.243,345.528,350.487,354.971,357.582,362.066,367.285,371.267,375.563,377.805,382.088,385.012,388.554,393.038,398.258,402.06,407.45,412.347,415.889,418.812,423.08,427.563,432.782" y="453.799" svg_rhmargin="438.26" style="fill:#231f20;font-family:LGKHBG+Palatino-Roman;font-size:8.97px;font-style:NORMAL;font-weight:normal;">4. Olbers D, Borowski D, Volker C, Wolff J-O. 2004 The dynamical balance, transport and</text>
  <text svg_rhmargin="274.954" x="70.443,74.425,77.035,80.419,84.397,89.805,92.415,96.899,99.823,102.433,107.329,112.547,116.879,121.775,124.76100000000001,129.093,132.017,137.236,141.53099999999998,145.867,152.844,158.063,160.987,165.471,168.855,172.833,175.757,178.368,182.349,186.675,193.029,195.64,199.023,203.005,208.413,216.331,221.721,226.618,229.228,233.712,237.254,241.587,247.941,253.349,256.892,260.276,264.569,269.788,272.712,274.954" y="464.752" style="fill:#231f20;font-family:LGKHBG+Palatino-Roman;font-size:8.97px;font-style:NORMAL;font-weight:normal;">circulation of the Antarctic Circumpolar Current. </text>
  <text svg_rhmargin="327.611" x="279.276,285.75,290.735,293.721,297.702,301.032,304.677,307.663,309.90500000000003,314.242,319.227,322.876,325.369,327.61100000000005" y="464.752" style="fill:#231f20;font-family:LGKINA+Palatino-Italic;font-size:8.97px;font-style:ITALIC;font-weight:normal;">Antarct. Sci. </text>
  <text x="331.946,336.428" y="464.752" svg_rhmargin="340.911" style="fill:#231f20;font-family:LGMNJC+Palatino-Bold;font-size:8.97px;font-style:NORMAL;font-weight:bold;">16</text>
  <text x="340.91,343.15200000000004,347.489,351.971,356.454,360.936,365.418,369.901,374.383,378.865,381.107,385.454,388.431,393.91,398.806,401.415,403.656,408.14,412.623,414.864,419.348,423.831,428.314,432.797" y="464.752" svg_rhmargin="438.231" style="fill:#231f20;font-family:LGKHBG+Palatino-Roman;font-size:8.97px;font-style:NORMAL;font-weight:normal;">, 439–470. (doi:10.1017/</text>
  <text x="70.443,75.149,79.631,84.114,88.596,93.078,97.561,102.043,106.525,111.007,115.49,119.972,124.454,128.937,133.419,137.901,142.383,146.861" y="475.714" svg_rhmargin="149.847" style="fill:#09004c;font-family:LGKHBG+Palatino-Roman;font-size:8.97px;font-style:NORMAL;font-weight:normal;">S0954102004002251)</text>
  <text svg_rhmargin="408.151" x="60.029,64.512,66.754,70.443,75.151,79.634,82.243,84.852,89.147,93.44200000000001,95.781,98.767,104.245,106.48700000000001,108.817,113.524,118.913,123.208,127.503,131.045,133.38,139.89,142.13199999999998,144.471,150.461,153.07,158.288,161.211,166.107,171.514,174.12300000000002,176.455,181.162,183.404,185.743,194.213,196.823,198.921,201.747,204.733,209.028,211.637,215.439,217.776,222.483,224.725,227.055,231.538,236.021,240.505,244.988,247.327,252.035,256.93,262.337,265.26,270.478,274.773,278.315,283.533,285.867,292.914,296.895,301.19,305.673,310.891,313.234,316.157,321.375,325.67,329.212,337.129,342.025,346.006,348.615,351.224,356.443,360.738,363.058,368.125,372.42,377.638,380.561,383.171,385.78,390.263,393.186,395.795,400.691,405.909,408.151" y="486.677" style="fill:#231f20;font-family:LGKHBG+Palatino-Roman;font-size:8.97px;font-style:NORMAL;font-weight:normal;">5. Sallée JB, Speer K, Rintoul S, Wijffels S. 2010 Southern Ocean thermocline ventilation. </text>
  <text x="410.5,413.488,415.73,418.06,423.54,428.025,432.51,436.0" y="486.677" svg_rhmargin="438.242" style="fill:#231f20;font-family:LGKINA+Palatino-Italic;font-size:8.97px;font-style:ITALIC;font-weight:normal;">J. Phys.</text>
  <text svg_rhmargin="107.047" x="70.442,77.417,81.065,84.552,88.532,93.517,97.497,101.979,104.805,107.04700000000001" y="497.63" style="fill:#231f20;font-family:LGKINA+Palatino-Italic;font-size:8.97px;font-style:ITALIC;font-weight:normal;">Oceanogr. </text>
  <text x="109.296,113.778" y="497.63" svg_rhmargin="118.261" style="fill:#231f20;font-family:LGMNJC+Palatino-Bold;font-size:8.97px;font-style:NORMAL;font-weight:bold;">40</text>
  <text x="118.26,120.50200000000001,122.743,127.225,131.707,136.19,140.672,145.154,149.636,154.119,156.361,158.61,161.594,167.073,171.968,174.577,176.819,181.302,185.785,188.027,192.51,196.993,201.477,205.96,211.393,215.877,220.36,224.843,229.326,232.312,237.728,244.775,249.259,253.742,258.225,262.708,264.95,269.423" y="497.63" svg_rhmargin="272.409" style="fill:#231f20;font-family:LGKHBG+Palatino-Roman;font-size:8.97px;font-style:NORMAL;font-weight:normal;">, 509–529. (doi:10.1175/2009JPO4291.1)</text>
  <text x="60.029,64.513,66.75500000000001,70.444,78.927,83.412,86.954,90.757,95.976,100.46,103.07,105.67899999999999,109.2,112.187,114.429,117.956,123.946,128.43,133.909,138.896,143.791,147.311,152.144,154.386,157.904,162.388,166.872,171.356,175.839,179.366,185.357,189.653,193.455,196.065,201.545,206.952,211.437,214.047,217.033,224.952,229.247,233.732,238.95,242.471,246.274,251.17,253.78,259.188,262.112,264.722,269.619,274.838,278.64000000000004,282.155,285.144,290.04,293.582,297.106,300.03,305.249,309.54400000000004,313.062,320.038,325.258,328.182,332.666,336.05,340.028,342.952,345.562,349.543,353.059,359.413,362.024,365.407,369.389,374.797,382.715,388.105,393.002,395.612,400.096,403.638,407.151,413.506,418.913,422.456,425.84,430.133,435.353" y="508.592" svg_rhmargin="438.276" style="fill:#231f20;font-family:LGKHBG+Palatino-Roman;font-size:8.97px;font-style:NORMAL;font-weight:normal;">6. Marshall J, Radko T. 2003 Residual-mean solutions for the Antarctic Circumpolar Current</text>
  <text svg_rhmargin="244.52" x="70.442,74.926,80.145,85.62299999999999,89.811,92.421,95.345,99.147,103.328,107.812,111.614,115.417,120.314,124.296,126.906,131.39,134.314,138.61,144.08800000000002,148.294,153.191,158.258,162.554,166.096,169.02,174.428,177.97,183.19,185.8,191.019,196.00400000000002,200.172,204.154,206.764,210.148,214.126,219.534,222.144,226.628,229.552,232.162,237.059,242.278,244.51999999999998" y="519.5550000000001" style="fill:#231f20;font-family:LGKHBG+Palatino-Roman;font-size:8.97px;font-style:NORMAL;font-weight:normal;">and its associated overturning circulation. </text>
  <text svg_rhmargin="319.085" x="248.693,251.68,253.922,258.106,263.585,268.069,272.553,276.042,278.284,282.468,289.443,293.094,296.582,300.564,305.551,309.532,314.017,316.843,319.08500000000004" y="519.5550000000001" style="fill:#231f20;font-family:LGKINA+Palatino-Italic;font-size:8.97px;font-style:ITALIC;font-weight:normal;">J. Phys. Oceanogr. </text>
  <text x="323.269,327.751" y="519.5550000000001" svg_rhmargin="332.234" style="fill:#231f20;font-family:LGMNJC+Palatino-Bold;font-size:8.97px;font-style:NORMAL;font-weight:bold;">33</text>
  <text x="332.234,334.476,338.669,343.151,347.633,352.116,356.598,361.08,365.563,370.045,374.527,379.01,381.252,385.454,388.431,393.91,398.806,401.415,403.656,408.14,412.623,414.864,419.348,423.831,428.314,432.797" y="519.5550000000001" svg_rhmargin="438.231" style="fill:#231f20;font-family:LGKHBG+Palatino-Roman;font-size:8.97px;font-style:NORMAL;font-weight:normal;">, 2341–2354. (doi:10.1175/</text>
  <text x="70.443,74.925,79.407,83.889,88.372,91.357,95.839,100.321,104.804,109.286,112.271,116.753,121.235,125.718,130.2,133.185,137.667,142.15,146.632,152.065,156.547,161.029,165.511,169.994,172.234,178.223,182.93,187.914,192.747,199.722,206.078,211.511,215.993,218.234,222.716,224.957,231.313,238.36,240.601,245.088" y="530.508" svg_rhmargin="248.074" style="fill:#09004c;font-family:LGKHBG+Palatino-Roman;font-size:8.97px;font-style:NORMAL;font-weight:normal;">1520-0485(2003)033&lt;2341:RSFTAC&gt;2.0.CO;2)</text>
  <text x="60.03,64.514,66.756,70.445,77.288,81.772,85.314,89.798,94.758,99.242,102.166,107.06099999999999,111.588,118.563,120.805,125.331,130.039,132.963,137.258,142.325,146.621,151.84,155.642,160.166,167.107,169.349,173.874,182.011,186.493,189.417,193.219,198.116,203.334,207.872,214.849,217.09099999999998,221.617,227.607,232.504,236.8,239.724,244.943,249.239,252.781,257.312,265.448,267.69,272.225,276.709,281.193,285.677,290.16,294.687,299.395,304.614,309.511,313.054,315.978,318.964,322.946,325.556,328.94,332.919,338.326,340.936,343.86,346.47,351.69,356.675,361.185,366.082,369.068,373.596,376.52,381.74,386.035,390.56,395.457,400.523,404.819,408.362,411.286,416.693,420.236,425.455,428.066,433.285" y="541.47" svg_rhmargin="438.27" style="fill:#231f20;font-family:LGKHBG+Palatino-Roman;font-size:8.97px;font-style:NORMAL;font-weight:normal;">7. Garabato A, Stevens D, Watson A, Roether W. 2007 Short-circuiting of the overturning</text>
  <text svg_rhmargin="270.704" x="70.443,74.425,77.035,80.419,84.397,89.805,92.415,96.899,99.823,102.433,107.329,112.547,116.041,118.651,123.869,127.363,130.287,135.506,139.801,143.292,150.269,155.488,158.412,162.896,166.28,170.258,173.182,175.792,179.773,183.271,189.626,192.236,195.62,199.602,205.009,212.928,218.317,223.214,225.824,230.308,233.85,237.337,243.691,249.099,252.642,256.026,260.319,265.538,268.462,270.704" y="552.433" style="fill:#231f20;font-family:LGKHBG+Palatino-Roman;font-size:8.97px;font-style:NORMAL;font-weight:normal;">circulation in the Antarctic Circumpolar Current. </text>
  <text svg_rhmargin="299.938" x="274.191,281.167,285.148,288.134,293.12,296.45,299.938" y="552.433" style="fill:#231f20;font-family:LGKINA+Palatino-Italic;font-size:8.97px;font-style:ITALIC;font-weight:normal;">Nature </text>
  <text x="303.434,307.916,312.398" y="552.433" svg_rhmargin="316.881" style="fill:#231f20;font-family:LGMNJC+Palatino-Bold;font-size:8.97px;font-style:NORMAL;font-weight:bold;">447</text>
  <text x="316.88,319.122,322.622,327.104,331.586,336.069,340.551,345.033,349.515,353.998,356.24,359.749,362.728,368.206,373.102,375.711,377.952,382.436,386.919,389.16,393.644,398.127,402.61,407.093,412.527,417.745,422.229,425.152,430.558,433.942" y="552.433" svg_rhmargin="438.237" style="fill:#231f20;font-family:LGKHBG+Palatino-Roman;font-size:8.97px;font-style:NORMAL;font-weight:normal;">, 194–197. (doi:10.1038/nature</text>
  <text x="70.443,74.925,79.407,83.889,88.372,92.852" y="563.386" svg_rhmargin="95.838" style="fill:#09004c;font-family:LGKHBG+Palatino-Roman;font-size:8.97px;font-style:NORMAL;font-weight:normal;">05832)</text>
  <text x="60.029,64.512,66.754,70.443,76.433,79.042,84.261,87.184,92.079,97.486,100.095,101.924,106.631,112.621,114.863,116.698,125.176,129.471,132.855,137.15,142.628,145.238,148.161,153.379,155.217,163.696,165.938,167.773,172.48,176.461,181.68,186.575,192.0,196.295,198.904,204.382,206.213,213.26,215.50199999999998,217.337,224.789,229.084,236.562,244.48,248.963,254.18099999999998,256.01,261.491,263.733,265.56,270.043,274.526,279.009,283.492,285.327,290.823,296.042,300.337,302.171,306.879,311.774,317.181,320.104,325.322,329.617,333.159,338.377,340.198,347.245,351.226,355.521,360.004,365.22200000000004,367.061,371.957,376.915,380.717,385.012,388.553,393.619,396.229,401.447,406.432,408.261,412.059,417.044,420.846,423.769,428.064,435.981" y="574.348" svg_rhmargin="438.223" style="fill:#231f20;font-family:LGKHBG+Palatino-Roman;font-size:8.97px;font-style:NORMAL;font-weight:normal;">8. Rintoul SR, Meredith M, Schoﬁeld O, Newman L. 2012 The Southern Ocean observing system.</text>
  <text svg_rhmargin="122.894" x="70.442,77.417,81.065,84.552,88.532,93.517,97.497,101.979,105.466,109.446,113.929,118.411,122.894" y="585.311" style="fill:#231f20;font-family:LGKINA+Palatino-Italic;font-size:8.97px;font-style:ITALIC;font-weight:normal;">Oceanography </text>
  <text x="125.146,129.628" y="585.311" svg_rhmargin="134.111" style="fill:#231f20;font-family:LGMNJC+Palatino-Bold;font-size:8.97px;font-style:NORMAL;font-weight:bold;">25</text>
  <text x="134.11,136.352,138.602,143.084,147.566,152.048,156.531,161.013,163.255,165.495,168.479,173.958,178.854,181.463,183.704,188.188,192.671,194.912,199.396,203.879,208.362,212.845,218.279,223.174,227.156,231.45,235.934,241.152,246.048,251.033,253.275,257.758,262.241,266.724,271.208,273.449,277.932,282.402" y="585.311" svg_rhmargin="285.388" style="fill:#231f20;font-family:LGKHBG+Palatino-Roman;font-size:8.97px;font-style:NORMAL;font-weight:normal;">, 68–69. (doi:10.5670/oceanog.2012.76)</text>
  <text svg_rhmargin="418.012" x="60.029,64.512,66.754,70.443,75.115,79.597,84.583,87.192,92.087,95.629,98.162,104.672,106.914,109.451,114.158,117.081,121.977,127.384,130.21,133.198,137.493,141.035,143.559,149.549,151.791,154.328,162.81,167.105,171.4,176.618,179.227,181.767,188.607,190.849,193.386,197.869,202.353,206.836,211.31900000000002,213.856,220.832,226.04999999999998,228.58,233.476,238.542,242.837,246.379,251.445,254.054,258.349,265.827,268.357,273.254,276.24,278.771,285.125,293.607,296.629,302.045,306.528,309.064,313.548,318.766,324.244,326.777,329.7,334.918,339.213,341.741,346.036,350.662,356.051,360.346,363.888,366.497,374.414,378.709,383.927,386.85,389.382,394.86,399.155,402.957,405.566,410.551,415.77,418.012" y="596.264" style="fill:#231f20;font-family:LGKHBG+Palatino-Roman;font-size:8.97px;font-style:NORMAL;font-weight:normal;">9. Taylor K, Stouffer R, Meehl G. 2012 An overview of CMIP5 and the experiment design. </text>
  <text x="420.545,426.024,431.01,433.504,435.997" y="596.264" svg_rhmargin="438.239" style="fill:#231f20;font-family:LGKINA+Palatino-Italic;font-size:8.97px;font-style:ITALIC;font-weight:normal;">Bull.</text>
  <text svg_rhmargin="139.909" x="70.442,76.915,83.889,86.131,88.372,96.832,100.32,103.304,106.791,110.772,114.102,118.08,120.572,122.81400000000001,125.054,130.039,134.019,137.667,139.909" y="607.226" style="fill:#231f20;font-family:LGKINA+Palatino-Italic;font-size:8.97px;font-style:ITALIC;font-weight:normal;">Am. Meteorol. Soc. </text>
  <text x="142.165,146.647" y="607.226" svg_rhmargin="151.13" style="fill:#231f20;font-family:LGMNJC+Palatino-Bold;font-size:8.97px;font-style:NORMAL;font-weight:bold;">93</text>
  <text x="151.129,153.37099999999998,155.612,160.094,164.576,169.059,173.541,178.023,182.506,186.988,189.23,191.479,194.462,199.941,204.836,207.446,209.687,214.17,218.654,220.895,225.378,229.862,234.345,238.828,244.262,249.74,256.716,265.198,269.906,272.891,279.831,282.817,287.3,291.784,294.769,299.253,303.736,308.219,312.702,317.185,319.427,323.9" y="607.226" svg_rhmargin="326.886" style="fill:#231f20;font-family:LGKHBG+Palatino-Roman;font-size:8.97px;font-style:NORMAL;font-weight:normal;">, 485–498. (doi:10.1175/BAMS-D-11-00094.1)</text>
  <text x="55.547,60.03,64.513,66.75500000000001,70.444,78.927,83.221,87.516,92.735,95.344,97.136,103.976,106.218,108.008,114.363,119.258,124.324,128.619,133.604,135.396,141.751,143.993,145.783,152.722,157.017,159.626,167.104,172.0,175.541,178.464,183.682,185.466,190.299,192.541,194.331,199.81,204.293,207.216,209.825,212.81099999999998,214.595,223.074,225.316,227.106,235.585,239.566,245.713,250.779,255.262,260.481,264.776,269.761,271.562,277.043,279.285,281.066,289.545,292.154,295.077,299.058,304.276,308.571,311.18,313.789,315.581,318.57,320.812,322.602,327.309,330.232,335.128,340.535,343.361,346.347,350.642,354.18399999999997,355.96,361.945,364.187,365.987,370.658,375.141,380.127,382.736,387.632,391.174,392.959,399.469,401.711,403.501,407.984,412.468,416.951,421.434,423.224,428.72,433.939" y="618.189" svg_rhmargin="438.234" style="fill:#231f20;font-family:LGKHBG+Palatino-Roman;font-size:8.97px;font-style:NORMAL;font-weight:normal;">10. Meehl G, Covey C, Delworth T, Latif M, McAvaney B, Mitchell J, Stouffer R, Taylor K. 2007 The</text>
  <text svg_rhmargin="363.127" x="70.442,79.408,85.765,91.755,97.17,99.603,105.96,114.442,117.464,122.88,127.363,129.792,137.709,143.116,145.725,148.648,151.258,154.243,162.161,167.056,172.535,176.83,179.43900000000002,181.843,187.324,191.807,194.73,199.214,203.015,207.31,210.233,212.475,214.896,219.379,221.808,227.026,231.321,238.799,241.222,245.515,249.057,253.54,255.96,258.569,263.78700000000003,266.21,270.192,272.801,275.41,283.327,287.81,290.734,295.029,297.448,301.426,306.644,311.128,316.346,321.331,325.62600000000003,328.045,331.429,335.724,339.526,343.821,348.304,351.688,355.666,360.885,363.127" y="629.142" style="fill:#231f20;font-family:LGKHBG+Palatino-Roman;font-size:8.97px;font-style:NORMAL;font-weight:normal;">WCRP CMIP3 multi-model dataset: a new era in climate change research. </text>
  <text x="365.562,371.041,376.027,378.521,381.014,383.25600000000003,385.676,392.151,399.128,401.37,403.79,412.251,415.74,418.726,422.215,426.197,429.527,433.506,435.999" y="629.142" svg_rhmargin="438.241" style="fill:#231f20;font-family:LGKINA+Palatino-Italic;font-size:8.97px;font-style:ITALIC;font-weight:normal;">Bull. Am. Meteorol.</text>
  <text svg_rhmargin="85.291" x="70.442,75.424,79.403,83.049,85.29100000000001" y="640.104" style="fill:#231f20;font-family:LGKINA+Palatino-Italic;font-size:8.97px;font-style:ITALIC;font-weight:normal;">Soc. </text>
  <text x="87.542,92.025" y="640.104" svg_rhmargin="96.508" style="fill:#231f20;font-family:LGMNJC+Palatino-Bold;font-size:8.97px;font-style:NORMAL;font-weight:bold;">88</text>
  <text x="96.507,98.74900000000001,100.989,105.472,109.954,114.436,118.919,123.401,127.883,132.365,136.848,141.33,143.572,145.83,148.814,154.293,159.188,161.798,164.039,168.522,173.006,175.247,179.73,184.214,188.697,193.18,198.614,204.092,211.068,219.55,224.258,227.243,231.727,236.21,239.196,243.679,246.665,251.148,255.631,260.114,264.59" y="640.104" svg_rhmargin="267.576" style="fill:#231f20;font-family:LGKHBG+Palatino-Roman;font-size:8.97px;font-style:NORMAL;font-weight:normal;">, 1383–1394. (doi:10.1175/BAMS-88-9-1383)</text>
  <text x="55.547,60.03,64.513,66.75500000000001,70.444,75.152,80.047,82.657,87.552,95.47,100.365,105.583,109.041,113.749,115.991,119.455,126.502,129.112,134.32999999999998,137.787,144.727,146.969,150.433,158.911,163.395,168.613,173.831,176.441,181.659,186.644,190.11,198.592,200.834,204.298,210.656,215.874,220.169,225.387,228.854,234.834,237.076,240.532,249.014,253.497,256.881,261.903,267.31,269.919,273.721,277.182,285.66,287.90200000000004,291.367,297.514,302.58,306.875,310.417,315.402,318.325,321.792,328.299,330.541,334.005,339.01,341.619,346.604,351.823,356.718,360.26,363.72,372.202,374.444,377.909,386.391,389.0,391.609,394.218,398.513,402.05499999999995,405.515,412.97499999999997,416.442,419.427,423.722,429.201,433.003,435.988" y="651.067" svg_rhmargin="438.23" style="fill:#231f20;font-family:LGKHBG+Palatino-Roman;font-size:8.97px;font-style:NORMAL;font-weight:normal;">11. Solomon S, Qin D, Manning M, Chen Z, Marquis M, Averyt K, Tignor M, Miller H (eds).</text>
  <text svg_rhmargin="88.372" x="70.442,74.924,79.406,83.889,88.372" y="662.02" style="fill:#231f20;font-family:LGKHBG+Palatino-Roman;font-size:8.97px;font-style:NORMAL;font-weight:normal;">2007 </text>
  <text x="91.566,97.546,100.039,102.532,109.507,113.488,116.474,119.962,123.152,126.797,131.281,135.262,140.247,144.73,148.218,151.417,155.9,160.384,164.867,169.35,171.59199999999998,174.795,177.781,182.264,185.752,188.943,193.426,197.909,202.392,205.88,208.373,212.022,216.003,218.49599999999998,221.691,225.179,228.829,231.321,234.809,239.795,243.444,246.932,250.122,254.274,258.255,261.743,264.235,267.723,269.96500000000003,273.159,281.44,285.421,288.909,292.89,295.383,300.368,304.851,308.045,314.519,317.849,321.83,326.815,331.298,334.492,337.478,340.675,344.325,348.306,353.291,356.277,359.765,362.258,366.409,371.394,374.38,376.873,380.854,385.839,389.026,392.012,395.993,399.185,402.171,406.654,410.142,413.332,418.318,422.299,427.285,430.772,433.758" y="662.02" svg_rhmargin="438.241" style="fill:#231f20;font-family:LGKINA+Palatino-Italic;font-size:8.97px;font-style:ITALIC;font-weight:normal;">Climate change 2007: the physical science basis: Working Group I contribution to the Fourth</text>
  <text x="70.442,76.917,80.407,83.897,87.386,90.876,94.366,101.343,104.833,109.82,112.806,115.023,121.005,124.495,128.98,132.963,136.452,139.438,141.673,145.651,148.144,150.394,153.383,157.868,161.356,163.592,166.579,172.06,178.042" y="672.982" svg_rhmargin="184.023" style="fill:#231f20;font-family:LGKINA+Palatino-Italic;font-size:8.97px;font-style:ITALIC;font-weight:normal;">Assessment Report of the IPCC</text>
  <text x="184.034,186.27599999999998,188.508,195.96,200.255,207.733,209.975,215.133,220.029,223.571,228.556,230.798,233.029,240.481,245.8,248.042,250.283,256.64,261.123,269.04,273.999,277.54,280.15,285.628,290.613,294.908,297.138,304.113,309.332,311.941,317.007,321.302,324.844,328.645,331.255,334.178,339.163,341.405,346.823,350.207,354.5,358.302,362.103" y="672.982" svg_rhmargin="364.345" style="fill:#231f20;font-family:LGKHBG+Palatino-Roman;font-size:8.97px;font-style:NORMAL;font-weight:normal;">. New York, NY: Cambridge University Press.</text>
  <text x="55.547,60.03,64.513,66.75500000000001,70.444,78.927,83.41,86.952,90.753,95.972,100.455,103.064,105.67299999999999,109.419,116.26,118.50200000000001,122.245,126.728,131.211,135.695,140.178,143.929,148.619,152.003,156.298,161.516,166.994,170.733,173.343,178.56099999999998,182.307,185.23,190.449,194.744,198.486,202.288,207.184,212.591,215.514,220.732,225.027,228.569,233.78699999999998,237.523,242.007,247.225,252.443,257.85,260.459,264.943,268.48499999999996,272.223,280.143,285.039,290.518,294.813,298.555,301.544,304.927,309.824,317.741,321.479,326.375,331.333,335.135,339.43,342.972,348.038,352.521,355.444,358.053,362.949,368.167,371.969,375.701,380.183,385.402,390.88,394.627,398.011,402.304,406.788,412.006,416.489,419.098,424.084,427.885,432.18,435.982" y="683.9449999999999" svg_rhmargin="438.224" style="fill:#231f20;font-family:LGKHBG+Palatino-Roman;font-size:8.97px;font-style:NORMAL;font-weight:normal;">12. Marshall G. 2003 Trend in the southern annular mode from observations and reanalyses.</text>
  <text svg_rhmargin="98.103" x="70.442,73.429,75.671,77.912,83.894,86.388,88.883,95.861,98.10300000000001" y="694.898" style="fill:#231f20;font-family:LGKINA+Palatino-Italic;font-size:8.97px;font-style:ITALIC;font-weight:normal;">J. Clim. </text>
  <text x="100.331,104.814" y="694.898" svg_rhmargin="109.297" style="fill:#231f20;font-family:LGMNJC+Palatino-Bold;font-size:8.97px;font-style:NORMAL;font-weight:bold;">16</text>
  <text x="109.296,111.53800000000001,113.787,118.269,122.752,127.234,131.716,136.199,140.681,145.163,149.645,154.128,156.36999999999998,158.619,161.603,167.082,171.977,174.586,176.828,181.311,185.794,188.036,192.519,197.002,201.486,205.969,211.402,215.886,220.369,224.852,229.335,232.321,236.804,241.287,245.771,250.254,253.24,257.723,262.206,266.689,271.173,274.158,278.642,283.125,287.608,293.042,297.525,302.008,306.491,310.974,313.216,318.712,321.734,327.23,331.938,338.914,347.396,352.83,357.313,359.554,364.038,366.279,372.636,379.684,381.926,386.388" y="694.898" svg_rhmargin="389.374" style="fill:#231f20;font-family:LGKHBG+Palatino-Roman;font-size:8.97px;font-style:NORMAL;font-weight:normal;">, 4134–4143. (doi:10.1175/1520-0442(2003)016&lt;4134:TITSAM&gt;2.0.CO;2)</text>
  <text x="55.548,60.032,64.516,66.75800000000001,70.447,77.424,80.966,85.926,88.536,93.02,96.823,99.747,104.042,107.584,109.307,112.294,114.536,116.264,124.747,129.042,133.338,138.558,141.167,142.896,149.736,151.97799999999998,153.705,158.19,162.674,167.158,171.641,173.368,179.726,184.623,189.842,192.766,196.308,198.919,203.878,209.286,212.209,214.82,219.716,224.935,228.737,230.444,235.34,238.326,240.056,244.35,248.977,251.901,256.197,259.739,264.959,269.443,272.05199999999996,273.772,276.76,281.657,285.041,289.023,291.633,296.852,301.838,305.64000000000004,307.355,310.28,315.17499999999995,316.896,320.694,325.59,330.998,333.922,339.141,343.437,346.98,352.19800000000004,353.919,358.403,363.622,368.842,374.249,376.859,381.343,384.885,386.609,394.529,399.425,404.905,409.2,410.916,413.841,417.225,421.518,426.738,432.217,436.02" y="705.86" svg_rhmargin="438.262" style="fill:#231f20;font-family:LGKHBG+Palatino-Roman;font-size:8.97px;font-style:NORMAL;font-weight:normal;">13. Arblaster J, Meehl G. 2006 Contributions of external forcings to southern annular mode trends.</text>
  <text svg_rhmargin="98.103" x="70.443,73.43,75.67200000000001,77.912,83.895,86.389,88.884,95.861,98.10300000000001" y="716.814" style="fill:#231f20;font-family:LGKINA+Palatino-Italic;font-size:8.97px;font-style:ITALIC;font-weight:normal;">J. Clim. </text>
  <text x="100.332,104.814" y="716.814" svg_rhmargin="109.297" style="fill:#231f20;font-family:LGMNJC+Palatino-Bold;font-size:8.97px;font-style:NORMAL;font-weight:bold;">19</text>
  <text x="109.297,111.539,113.788,118.27,122.753,127.235,131.717,136.199,140.682,145.164,149.646,154.129,156.37099999999998,158.62,161.604,167.082,171.978,174.587,176.829,181.312,185.795,188.037,192.52,197.003,201.487,205.97,211.403,214.389,220.746,226.225,229.247,233.73,238.213,242.696,247.179,249.421,253.9" y="716.814" svg_rhmargin="256.886" style="fill:#231f20;font-family:LGKHBG+Palatino-Roman;font-size:8.97px;font-style:NORMAL;font-weight:normal;">, 2896–2905. (doi:10.1175/JCLI3774.1)</text>
  <text x="55.549,60.032,64.515,66.757,70.446,75.154,79.637,82.246,84.855,89.15,93.44500000000001,97.853,100.839,103.825,109.303,111.545,115.945,120.653,126.041,130.336,134.631,138.173,142.578,149.088,151.32999999999998,155.739,164.221,169.117,172.659,176.043,180.938,188.416,192.819,198.808,201.04999999999998,205.469,209.952,214.435,218.918,223.401,227.81,233.8,238.095,241.896,247.285,252.181,257.399,261.201,265.49600000000004,269.913,274.808,277.794,282.198,285.121,290.339,294.634,299.042,306.018,311.236,314.159,318.642,322.026,326.005,328.928,331.537,335.518,339.916,346.271,348.88,352.264,356.245,361.651,369.569,374.958,379.853,382.462,386.946,390.488,394.884,401.238,406.645,410.187,413.57,417.864,423.082,426.005,430.408,433.332" y="727.776" svg_rhmargin="438.228" style="fill:#231f20;font-family:LGKHBG+Palatino-Roman;font-size:8.97px;font-style:NORMAL;font-weight:normal;">14. Sallée J-B, Speer K, Morrow R. 2008 Response of the Antarctic Circumpolar Current to</text>
  <text svg_rhmargin="163.877" x="70.443,74.928,77.852,85.77,90.666,94.469,99.859,105.078,109.374,112.916,115.527,119.508,121.746,126.813,131.297,134.839,137.449,141.934,146.893,149.503,152.113,154.723,157.647,161.635,163.87699999999998" y="738.738" style="fill:#231f20;font-family:LGKHBG+Palatino-Roman;font-size:8.97px;font-style:NORMAL;font-weight:normal;">atmospheric variability. </text>
  <text svg_rhmargin="193.769" x="166.108,169.095,171.337,173.578,179.56,182.055,184.549,191.527,193.76899999999998" y="738.738" style="fill:#231f20;font-family:LGKINA+Palatino-Italic;font-size:8.97px;font-style:ITALIC;font-weight:normal;">J. Clim. </text>
  <text x="195.997,200.48" y="738.738" svg_rhmargin="204.963" style="fill:#231f20;font-family:LGMNJC+Palatino-Bold;font-size:8.97px;font-style:NORMAL;font-weight:bold;">21</text>
  <text x="204.962,207.20399999999998,209.453,213.935,218.418,222.9,227.382,231.865,236.347,240.829,245.312,249.794,252.036,254.285,257.266,262.744,267.64,270.249,272.491,276.974,281.457,283.699,288.182,292.665,297.148,301.631,307.065,311.548,316.031,320.515,324.998,327.984,334.341,339.819,342.841,347.324,351.807,356.291,360.774,363.016,367.489" y="738.738" svg_rhmargin="370.475" style="fill:#231f20;font-family:LGKHBG+Palatino-Roman;font-size:8.97px;font-style:NORMAL;font-weight:normal;">, 3020–3039. (doi:10.1175/2007JCLI1702.1)</text>
  <text x="55.548,60.032,64.516,66.75800000000001,70.447,75.926,80.411,85.63,90.616,94.418,98.411,105.872,108.114,112.118,117.599,120.209,125.428,130.908,135.804,138.63,141.61599999999999,145.605,153.057,155.29899999999998,159.294,163.778,168.262,172.747,177.23000000000002,181.234,187.592,192.489,200.407,205.797,210.281,213.823,216.434,220.236,222.846,227.743,232.96099999999998,236.959,241.856,244.84199999999998,248.84,253.736,258.696,262.498,266.794,270.337,275.404,279.7,285.178,289.177,292.102,296.398,304.316,309.706,314.001,317.544,322.028,324.952,330.36,333.744,338.03900000000004,342.024,346.508,351.728,357.206,361.205,365.003,369.487,372.097,374.708,379.927,382.537,385.461,390.446,394.443,398.422,403.641,408.125,413.345,418.331,422.627,426.42900000000003,430.43,433.04" y="749.692" svg_rhmargin="438.258" style="fill:#231f20;font-family:LGKHBG+Palatino-Roman;font-size:8.97px;font-style:NORMAL;font-weight:normal;">15. Banks H, Bindoff N. 2003 Comparision of observed temperature and salinity changes in</text>
  <text x="70.443,73.367,78.586,82.881,87.775,90.797,96.017,101.496,106.392,109.379,114.796,119.28,123.262,125.872,131.298,135.279,140.172,147.651,150.261,153.185,158.403,163.3,166.684,170.98,174.783,180.19,182.801,185.725,189.527,194.427,197.414,200.798,205.694,213.611,218.502,221.426,226.645,230.94,235.834,239.816,244.713,250.12,255.51,258.12,262.416,267.894,272.802,276.784,279.394,282.004,289.922,294.406,297.33,301.625,306.519,314.439,319.336,324.815,329.111,331.71999999999997,336.616,344.077,348.562,354.041,360.399,368.882,373.366,375.608,380.521,385.913,389.297,394.193,398.175,402.471,406.274,410.076,414.372,418.17400000000004,423.084,427.566,432.786" y="760.654" svg_rhmargin="438.264" style="fill:#231f20;font-family:LGKHBG+Palatino-Roman;font-size:8.97px;font-style:NORMAL;font-weight:normal;">the Indo-Paciﬁc with results from the coupled climate model HadCM3: processes and</text>
  <text svg_rhmargin="121.928" x="70.443,78.36,82.655,86.636,91.854,96.338,101.556,104.165,107.967,115.884,119.686,121.92800000000001" y="771.616" style="fill:#231f20;font-family:LGKHBG+Palatino-Roman;font-size:8.97px;font-style:NORMAL;font-weight:normal;">mechanisms. </text>
  <text svg_rhmargin="151.827" x="124.175,127.162,129.404,131.636,137.618,140.112,142.607,149.585,151.827" y="771.616" style="fill:#231f20;font-family:LGKINA+Palatino-Italic;font-size:8.97px;font-style:ITALIC;font-weight:normal;">J. Clim. </text>
  <text x="154.064,158.546" y="771.616" svg_rhmargin="163.029" style="fill:#231f20;font-family:LGMNJC+Palatino-Bold;font-size:8.97px;font-style:NORMAL;font-weight:bold;">16</text>
  <text x="163.029,165.271,167.511,171.993,176.476,180.958,185.44,189.923,194.405,198.887,201.129,203.378,206.361,211.839,216.735,219.344,221.586,226.069,230.552,232.794,237.277,241.76,246.243,250.726,256.16,260.643,265.126,269.61,274.093,277.079,281.562,286.045,290.528,295.012,297.997,302.481,306.964,311.447,315.93,318.916,323.399,327.882,332.366,337.799,342.282,346.766,351.249,355.732,357.974,364.331,371.378,378.426,383.259,390.235,394.942,400.376,404.859,407.101,411.584,413.825,420.183,427.23,429.472,433.926" y="771.616" svg_rhmargin="436.912" style="fill:#231f20;font-family:LGKHBG+Palatino-Roman;font-size:8.97px;font-style:NORMAL;font-weight:normal;">, 156–166. (doi:10.1175/1520-0442(2003)016&lt;0156:COOTAS&gt;2.0.CO;2)</text>
 </g>
</svg>
