<?xml version="1.0" encoding="UTF-8"?>
<svg height="781.509" width="1248.9986572265625" xmlns="http://www.w3.org/2000/svg">
 <g style="fill:none;">
  <text x="51.024,55.444,59.694,66.621,69.299" y="771.509" svg_rhmargin="73.719" style="fill:#171615;font-family:MPGBTK+FrutigerLTPro-BoldCn;font-size:8.5px;font-style:NORMAL;font-weight:bold;">4SM-2</text>
  <text svg_rhmargin="555.023" x="51.024,55.903,60.629,65.193,70.072,73.379,77.943,81.25,83.46,87.88,90.08999999999999,349.042,353.607,356.913,360.067,364.631,369.357,374.236,377.543,382.269,386.833,391.559,393.922,398.648,403.527,405.737,410.302,415.028,419.907,422.117,424.633,431.722,436.601,438.964,443.528,450.617,455.182,459.908,463.214,465.577,470.303,475.182,477.392,480.699,485.425,489.989,492.199,497.869,500.232,505.111,509.99,514.554,516.917,519.127,524.168,528.732,532.353,537.232,542.111,546.837,550.458,555.023" y="444.519" style="fill:#4c8ecf;font-family:XUSYQO+FrutigerLTPro-BlackCn;font-size:8.5px;font-style:NORMAL;font-weight:bold;">Chapter 4 Strengthening and Implementing the Global Response </text>
  <path d=" M 24.84950065612793 339.59051513671875 C 24.84950065612793 339.59051513671875 36.84950256347656 339.59051513671875 36.84950256347656 351.59051513671875 L 36.84950256347656 426.51953125 C 36.84950256347656 426.51953125 36.84950256347656 438.51953125 24.84950065612793 438.51953125 L -15.000497817993164 438.51953125 L -15.000497817993164 339.59051513671875 Z " style="fill:none;stroke:#000000;stroke-width:1.0;"/>
  <path d=" M 1199.148681640625 438.51971435546875 C 1199.148681640625 438.51971435546875 1187.148681640625 438.51971435546875 1187.148681640625 426.51971435546875 L 1187.148681640625 351.5906982421875 C 1187.148681640625 351.5906982421875 1187.148681640625 339.5906982421875 1199.148681640625 339.5906982421875 L 1238.9986572265625 339.5906982421875 L 1238.9986572265625 438.51971435546875 Z " style="fill:none;stroke:#000000;stroke-width:1.0;"/>
  <text svg_rhmargin="29.793" x="1193.497,1197.657,1201.953,14.521,18.681,22.977,29.793" y="109.043" style="fill:#ffffff;font-family:XUSYQO+FrutigerLTPro-BlackCn;font-size:8.0px;font-style:NORMAL;font-weight:bold;">4SM4SM </text>
  <text x="51.024,56.224,58.824,63.824,71.974,74.574,79.774,82.374,102.044,107.604,112.604,117.794,122.054,127.244,135.024,140.024,143.544,148.544,151.144,153.924,159.114,164.484,167.084,171.344,176.344,179.864,185.234,188.653,192.723,195.323,198.653,204.023,207.543,210.143,215.143,220.143,224.403,227.923,233.293,236.712,241.712,244.312" y="109.043" svg_rhmargin="246.912" style="fill:#192a53;font-family:MPGBTK+FrutigerLTPro-BoldCn;font-size:10.0px;font-style:NORMAL;font-weight:bold;">4.SM.1 Benchmark Indicators for Sectoral </text>
  <text y="119.043" svg_rhmargin="249.793" x="102.044,107.604,112.794,117.794,122.984,128.354,133.354,137.424,140.024,142.624,147.814,150.414,155.414,163.194,165.794,169.864,173.934,176.534,181.904,187.094,191.164,193.764,198.764,202.834,205.434,210.624,214.043,219.043,223.113,228.113,233.303,236.823,241.823,247.193" style="fill:#192a53;font-family:MPGBTK+FrutigerLTPro-BoldCn;font-size:10.0px;font-style:NORMAL;font-weight:bold;">Changes in Emissions as Presented </text>
  <text y="129.043" svg_rhmargin="149.513" x="102.044,104.644,109.834,111.884,115.944,120.944,126.314,128.914,133.914,136.513,141.713,144.313" style="fill:#192a53;font-family:MPGBTK+FrutigerLTPro-BoldCn;font-size:10.0px;font-style:NORMAL;font-weight:bold;">in Table 4.1</text>
  <text y="129.043" style="fill:#171615;font-family:MPGBTK+FrutigerLTPro-Condensed;font-size:9.0px;font-style:NORMAL;font-weight:normal;" svg_rhmargin="151.677" x=""/>
  <text x="151.676,154.637,159.637,164.637,168.896,172.417,175.017,180.387,185.577,188.177,193.377,195.977,201.177,203.777,208.977" y="129.043" svg_rhmargin="211.937" style="fill:#192a53;font-family:MPGBTK+FrutigerLTPro-BoldCn;font-size:10.0px;font-style:NORMAL;font-weight:bold;">(Section 4.2.1)</text>
  <text y="129.043" svg_rhmargin="291.027" x="213.015,215.175,217.335,219.495,221.655,223.815,225.975,228.135,230.295,232.455,234.615,236.775,238.935,241.095,243.255,245.415,247.575,249.735,251.895,254.055,256.215,258.375,260.535,262.695,264.855,267.01500000000004,268.725,273.045,277.041,284.043,286.707" style="fill:#171615;font-family:MPGBTK+FrutigerLTPro-Condensed;font-size:9.0px;font-style:NORMAL;font-weight:normal;">......................... 4SM-3</text>
  <text x="51.024,56.224,58.824,63.824,71.974,74.574,79.774,82.374,102.044,107.044,112.234,117.234,122.604,125.204,127.804,132.994,138.364,140.964,146.524,151.894,157.084,162.454,165.054,168.574,171.174,176.544,181.734,185.804,188.404,193.404,198.594,203.964,206.564,212.124,217.494,222.684,226.754,230.274,233.692,238.692,241.292,246.482,250.002,254.072" y="161.043" svg_rhmargin="256.672" style="fill:#192a53;font-family:MPGBTK+FrutigerLTPro-BoldCn;font-size:10.0px;font-style:NORMAL;font-weight:bold;">4.SM.2 Enabling Conditions and Constraints </text>
  <text y="171.043" svg_rhmargin="250.983" x="102.044,107.414,110.744,113.344,119.824,124.634,129.634,133.053,138.053,141.474,145.734,150.924,153.524,158.714,164.084,166.133,172.243,177.613,182.613,187.983,191.503,196.503,200.023,202.623,207.993,213.183,215.783,222.263,227.633,231.153,233.753,239.123,244.313,248.383" style="fill:#192a53;font-family:MPGBTK+FrutigerLTPro-BoldCn;font-size:10.0px;font-style:NORMAL;font-weight:bold;">of Overarching Adaptation Options </text>
  <text y="181.043" svg_rhmargin="221.974" x="102.044,107.044,111.114,113.714,120.014,122.614,126.684,130.944,136.134,140.204,144.274,149.274,154.644,157.244,159.844,165.034,167.634,172.634,177.634,181.894,185.414,188.014,193.384,198.574,201.174,206.374,208.974,214.174,216.774" style="fill:#192a53;font-family:MPGBTK+FrutigerLTPro-BoldCn;font-size:10.0px;font-style:NORMAL;font-weight:bold;">as Discussed in Section 4.3.5</text>
  <text y="181.043" svg_rhmargin="291.024" x="223.821,225.981,228.141,230.301,232.461,234.621,236.781,238.941,241.101,243.261,245.421,247.581,249.741,251.901,254.061,256.221,258.381,260.541,262.701,264.861,267.021,268.722,273.042,277.038,284.04,286.704" style="fill:#171615;font-family:MPGBTK+FrutigerLTPro-Condensed;font-size:9.0px;font-style:NORMAL;font-weight:normal;">.................... 4SM-4</text>
  <text x="51.024,56.224,58.824,63.824,71.974,74.574,79.774,82.374,102.044,107.604,112.604,116.124,121.494,126.864,132.054,134.654,140.954,143.554,148.924,153.554,156.154,161.524,166.524,169.124,174.684,179.684,187.464,192.834,197.644,202.644,205.244,207.844,213.404,218.774,222.844,226.364,230.062,232.294" y="213.043" svg_rhmargin="234.894" style="fill:#192a53;font-family:MPGBTK+FrutigerLTPro-BoldCn;font-size:10.0px;font-style:NORMAL;font-weight:bold;">4.SM.3 Carbon Dioxide Removal Costs, </text>
  <text y="223.043" svg_rhmargin="230.073" x="102.044,108.344,113.344,118.714,121.314,126.684,131.314,139.094,144.094,149.284,152.804,155.404,160.404,165.594,170.964,173.564,178.564,181.164,186.534,191.534,194.134,199.134,202.464,205.794,210.794,215.054,218.574,222.644,224.873,227.473" style="fill:#192a53;font-family:MPGBTK+FrutigerLTPro-BoldCn;font-size:10.0px;font-style:NORMAL;font-weight:bold;">Deployment and Side Effects: </text>
  <text y="233.043" svg_rhmargin="228.883" x="102.044,106.484,109.084,112.604,117.604,121.024,126.024,129.544,134.734,138.153,143.153,145.753,151.313,156.313,160.383,162.983,167.053,169.653,172.983,178.353,181.873,184.473,189.103,191.703,197.073,202.263,205.683,210.683,213.283,218.483,221.083,226.283" style="fill:#192a53;font-family:MPGBTK+FrutigerLTPro-BoldCn;font-size:10.0px;font-style:NORMAL;font-weight:bold;">Literature Basis for Figure 4.2 </text>
  <text y="243.043" svg_rhmargin="162.304" x="102.044,105.004,110.004,115.004,119.264,122.784,125.384,130.754,135.944,138.544,143.744,146.344,151.544,154.144,159.344" style="fill:#192a53;font-family:MPGBTK+FrutigerLTPro-BoldCn;font-size:10.0px;font-style:NORMAL;font-weight:bold;">(Section 4.3.7)</text>
  <text y="243.043" svg_rhmargin="291.024" x="163.341,165.501,167.661,169.821,171.981,174.141,176.301,178.461,180.621,182.781,184.941,187.101,189.261,191.421,193.581,195.741,197.901,200.061,202.221,204.381,206.541,208.701,210.861,213.021,215.181,217.341,219.501,221.661,223.821,225.981,228.141,230.301,232.461,234.621,236.781,238.941,241.101,243.261,245.421,247.581,249.741,251.901,254.061,256.221,258.381,260.541,262.701,264.861,267.021,268.722,273.042,277.038,284.04,286.704" style="fill:#171615;font-family:MPGBTK+FrutigerLTPro-Condensed;font-size:9.0px;font-style:NORMAL;font-weight:normal;">................................................ 4SM-7</text>
  <text x="51.024,56.224,58.824,63.824,71.974,74.574,79.774,82.374,102.044,108.524,113.714,116.314,121.684,126.684,131.874,136.134,141.134,143.734,148.734,153.924,159.294,161.343,167.453,171.523,175.593,180.593,184.663,188.733,196.513,201.513,206.703,210.223,212.823,216.153,221.523,225.043,227.643" y="275.043" svg_rhmargin="230.243" style="fill:#192a53;font-family:MPGBTK+FrutigerLTPro-BoldCn;font-size:10.0px;font-style:NORMAL;font-weight:bold;">4.SM.4 Guidance and Assessment for </text>
  <text y="285.043" svg_rhmargin="195.414" x="102.044,106.494,111.494,116.494,120.564,123.164,128.534,131.134,133.734,136.334,139.854,144.484,146.534,152.644,156.714,160.784,165.784,169.854,173.924,181.704,186.704,191.894" style="fill:#192a53;font-family:MPGBTK+FrutigerLTPro-BoldCn;font-size:10.0px;font-style:NORMAL;font-weight:bold;">Feasibility Assessment</text>
  <text y="285.043" svg_rhmargin="291.024" x="195.741,197.901,200.061,202.221,204.381,206.541,208.701,210.861,213.021,215.181,217.341,219.501,221.661,223.821,225.981,228.141,230.301,232.461,234.621,236.781,238.941,241.101,243.261,245.421,247.581,249.741,251.901,254.061,256.221,258.381,260.541,262.701,264.861,267.021,268.721,273.042,277.038,284.04,286.704" style="fill:#171615;font-family:MPGBTK+FrutigerLTPro-Condensed;font-size:9.0px;font-style:NORMAL;font-weight:normal;">................................. 4SM-8</text>
  <text y="301.045" svg_rhmargin="270.943" x="63.018,67.338,69.498,73.494,80.496,82.656,86.976,89.136,93.456,95.616,102.042,107.55,111.888,113.886,118.215,122.382,126.72,130.221,134.217,136.377,138.879,143.217,145.881,148.041,151.541,155.537,159.704,163.034,165.032,169.361,171.359,173.357,175.355,178.019,181.682,183.346,188.512,191.842,195.172,199.168,202.498,205.828,212.326,216.322,220.66,223.324,225.484,229.651,232.981,235.141,239.47,242.134,246.13,249.46,253.456,257.794,260.458,264.454,268.783" style="fill:#171615;font-family:MPGBTK+FrutigerLTPro-Condensed;font-size:9.0px;font-style:NORMAL;font-weight:normal;">4.SM.4.1 Guidance for Feasibility Assessment as Presented </text>
  <text y="311.044" svg_rhmargin="291.015" x="102.042,104.04,108.378,110.538,114.534,118.53,122.031,124.695,126.693,131.031,135.369,137.529,141.849,144.009,148.329,150.489,154.809,156.852,159.012,161.172,163.332,165.492,167.652,169.812,171.972,174.132,176.292,178.452,180.612,182.772,184.932,187.092,189.252,191.412,193.572,195.732,197.892,200.052,202.212,204.372,206.532,208.692,210.852,213.012,215.172,217.332,219.492,221.652,223.812,225.972,228.132,230.292,232.452,234.612,236.772,238.932,241.092,243.252,245.412,247.572,249.732,251.892,254.052,256.212,258.372,260.532,262.692,264.852,267.012,268.712,273.033,277.029,284.031,286.695" style="fill:#171615;font-family:MPGBTK+FrutigerLTPro-Condensed;font-size:9.0px;font-style:NORMAL;font-weight:normal;">in Section 4.5.1 ................................................... 4SM-8</text>
  <text y="327.046" svg_rhmargin="226.133" x="63.009,67.329,69.489,73.485,80.487,82.647,86.967,89.127,93.447,95.607,102.033,105.534,109.53,113.697,117.027,119.025,123.354,125.352,127.35,129.348,132.012,135.674,137.339,142.505,145.835,149.165,153.161,156.491,159.821,166.319,170.315,174.653,177.317,179.477,183.815,186.317,188.477,195.479,197.477,200.141,202.139,206.468,210.635,213.299,215.297,219.635,223.973" style="fill:#171615;font-family:MPGBTK+FrutigerLTPro-Condensed;font-size:9.0px;font-style:NORMAL;font-weight:normal;">4.SM.4.2 Feasibility Assessment of Mitigation </text>
  <text y="337.045" svg_rhmargin="291.006" x="102.033,107.541,111.87,114.534,116.532,120.87,125.208,128.538,130.698,134.865,138.195,140.355,144.684,147.348,151.344,154.674,158.67,163.008,165.672,169.668,173.997,176.157,178.155,182.493,184.653,188.649,192.645,196.146,198.81,200.808,205.146,209.484,211.644,215.964,218.124,222.444,224.604,228.924,230.283,232.443,234.603,236.763,238.923,241.083,243.243,245.403,247.563,249.723,251.883,254.043,256.203,258.363,260.523,262.683,264.843,267.00300000000004,268.703,273.023,277.02,284.022,286.686" style="fill:#171615;font-family:MPGBTK+FrutigerLTPro-Condensed;font-size:9.0px;font-style:NORMAL;font-weight:normal;">Options as Presented in Section 4.5.2 ................. 4SM-9</text>
  <text y="353.047" svg_rhmargin="228.293" x="63.0,67.32,69.48,73.476,80.478,82.638,86.958,89.118,93.438,95.598,102.023,105.524,109.521,113.688,117.018,119.016,123.345,125.343,127.341,129.339,132.003,135.665,137.33,142.496,145.826,149.156,153.152,156.482,159.813,166.311,170.307,174.645,177.309,179.468,183.806,186.308,187.973,193.139,197.468,201.635,205.964,208.628,212.795,215.459,217.457,221.795,226.133" style="fill:#171615;font-family:MPGBTK+FrutigerLTPro-Condensed;font-size:9.0px;font-style:NORMAL;font-weight:normal;">4.SM.4.3 Feasibility Assessment of Adaptation </text>
  <text y="363.046" svg_rhmargin="290.997" x="102.023,107.532,111.861,114.525,116.523,120.861,125.199,128.529,130.689,134.855,138.186,140.346,144.674,147.339,151.335,154.665,158.661,162.999,165.663,169.659,173.988,176.148,178.146,182.484,184.644,188.64,192.636,196.137,198.801,200.799,205.137,209.475,211.635,215.955,218.115,222.435,224.595,228.915,230.274,232.434,234.594,236.754,238.914,241.074,243.234,245.394,247.554,249.714,251.874,254.034,256.194,258.354,260.514,262.67400000000004,264.375,268.695,272.691,279.693,282.357,286.677" style="fill:#171615;font-family:MPGBTK+FrutigerLTPro-Condensed;font-size:9.0px;font-style:NORMAL;font-weight:normal;">Options as Presented in Section 4.5.3 ............... 4SM-24</text>
  <text x="51.024,56.224,58.824,63.824,71.974,74.574,79.774,82.374,102.044,108.154,113.524,118.524,123.894,127.414,132.414,135.934,138.534,143.904,149.094,151.694,156.694,161.884,167.254,169.854,178.004,180.604,184.124,186.724,192.094,197.094,200.614,203.214,208.584,213.774,216.374,221.374,226.004,231.194,236.194,239.612,244.982,247.582,252.582,256.652" y="395.043" svg_rhmargin="259.252" style="fill:#192a53;font-family:MPGBTK+FrutigerLTPro-BoldCn;font-size:10.0px;font-style:NORMAL;font-weight:bold;">4.SM.5 Adaptation and Mitigation Synergies </text>
  <text y="405.043" svg_rhmargin="229.844" x="102.044,107.044,112.234,117.604,119.654,123.614,127.034,132.034,137.404,142.404,145.554,150.924,154.254,157.584,161.654,164.254,169.254,173.324,175.924,182.224,184.824,188.894,193.154,198.344,202.414,206.484,211.484,216.854,219.454,222.054,227.244" style="fill:#192a53;font-family:MPGBTK+FrutigerLTPro-BoldCn;font-size:10.0px;font-style:NORMAL;font-weight:bold;">and Trade-offs as Discussed in </text>
  <text y="415.043" svg_rhmargin="156.384" x="102.044,107.044,112.044,116.304,119.824,122.424,127.794,132.984,135.584,140.784,143.384,148.584,151.184" style="fill:#192a53;font-family:MPGBTK+FrutigerLTPro-BoldCn;font-size:10.0px;font-style:NORMAL;font-weight:bold;">Section 4.5.4</text>
  <text y="415.043" svg_rhmargin="291.026" x="156.863,159.023,161.183,163.343,165.503,167.663,169.823,171.983,174.143,176.303,178.463,180.623,182.783,184.943,187.103,189.263,191.423,193.583,195.743,197.903,200.063,202.223,204.383,206.543,208.703,210.863,213.023,215.184,217.344,219.504,221.664,223.824,225.984,228.144,230.304,232.464,234.624,236.784,238.944,241.104,243.264,245.424,247.584,249.744,251.904,254.064,256.224,258.384,260.544,262.704,264.404,268.724,272.72,279.722,282.386,286.706" style="fill:#171615;font-family:MPGBTK+FrutigerLTPro-Condensed;font-size:9.0px;font-style:NORMAL;font-weight:normal;">................................................. 4SM-41</text>
  <text y="431.045" svg_rhmargin="225.514" x="63.02,67.34,69.5,73.496,80.498,82.658,86.978,89.138,93.458,95.618,102.044,109.046,111.044,113.708,115.706,120.035,124.202,126.866,128.864,133.202,137.54,139.7,145.208,149.537,152.201,154.199,158.537,162.875,166.205,168.365,174.53,176.528,179.192,183.53,185.194,190.36,194.689,198.856,203.185,205.849,210.016,212.68,214.678,219.016,223.354" style="fill:#171615;font-family:MPGBTK+FrutigerLTPro-Condensed;font-size:9.0px;font-style:NORMAL;font-weight:normal;">4.SM.5.1 Mitigation Options with Adaptation </text>
  <text y="441.044" svg_rhmargin="291.017" x="102.044,106.04,109.703,114.041,118.037,120.701,125.03,127.028,131.024,134.354,136.513,140.68,145.018,149.347,151.012,154.342,157.006,161.173,165.502,169.498,172.162,176.5,179.002,181.504,184.834,184.933,187.093,189.253,191.413,193.573,195.733,197.893,200.053,202.213,204.373,206.533,208.693,210.854,213.014,215.174,217.334,219.494,221.654,223.814,225.974,228.134,230.294,232.454,234.614,236.774,238.934,241.094,243.254,245.414,247.574,249.734,251.894,254.054,256.214,258.374,260.534,262.694,264.395,268.715,272.711,279.713,282.377,286.697" style="fill:#171615;font-family:MPGBTK+FrutigerLTPro-Condensed;font-size:9.0px;font-style:NORMAL;font-weight:normal;">Synergies and Trade-offs .................................... 4SM-41</text>
  <text y="457.046" svg_rhmargin="260.471" x="63.011,67.331,69.491,73.487,80.489,82.649,86.969,89.129,93.449,95.609,102.035,107.201,111.53,115.697,120.026,122.69,126.857,129.521,131.519,135.857,140.195,142.355,147.863,152.192,154.856,156.854,161.192,165.53,168.86,171.02,177.185,179.183,181.847,186.185,188.345,195.347,197.345,200.009,202.007,206.336,210.503,213.167,215.165,219.503,223.841,226.001,229.997,233.66,237.998,241.994,244.658,248.987,250.985,254.981,258.311" style="fill:#171615;font-family:MPGBTK+FrutigerLTPro-Condensed;font-size:9.0px;font-style:NORMAL;font-weight:normal;">4.SM.5.2 Adaptation Options with Mitigation Synergies </text>
  <text y="467.045" svg_rhmargin="291.008" x="102.035,106.202,110.54,114.869,116.534,119.864,122.528,126.695,131.024,135.02,137.684,143.192,145.694,148.196,151.526,152.525,154.685,156.845,159.005,161.165,163.325,165.485,167.645,169.805,171.965,174.125,176.285,178.445,180.605,182.765,184.925,187.085,189.245,191.405,193.565,195.725,197.885,200.045,202.205,204.365,206.525,208.685,210.845,213.005,215.165,217.325,219.485,221.645,223.805,225.965,228.126,230.286,232.446,234.606,236.766,238.926,241.086,243.246,245.406,247.566,249.726,251.886,254.046,256.206,258.366,260.526,262.68600000000004,264.386,268.706,272.702,279.704,282.368,286.688" style="fill:#171615;font-family:MPGBTK+FrutigerLTPro-Condensed;font-size:9.0px;font-style:NORMAL;font-weight:normal;">and Trade-Offs ................................................... 4SM-45</text>
  <text svg_rhmargin="99.454" x="51.024,56.584,61.584,64.914,69.914,73.334,78.334,83.524,87.784,92.784,96.854,99.454" y="513.043" style="fill:#192a53;font-family:MPGBTK+FrutigerLTPro-BoldCn;font-size:10.0px;font-style:NORMAL;font-weight:bold;">References </text>
  <text y="513.043" svg_rhmargin="291.02" x="102.857,105.017,107.177,109.337,111.497,113.657,115.817,117.977,120.137,122.297,124.457,126.617,128.777,130.937,133.097,135.257,137.417,139.577,141.737,143.897,146.057,148.217,150.377,152.537,154.697,156.857,159.017,161.177,163.337,165.497,167.657,169.817,171.977,174.137,176.297,178.457,180.617,182.777,184.937,187.097,189.257,191.417,193.577,195.737,197.897,200.057,202.217,204.377,206.537,208.697,210.857,213.017,215.177,217.337,219.497,221.658,223.818,225.978,228.138,230.298,232.458,234.618,236.778,238.938,241.098,243.258,245.418,247.578,249.738,251.898,254.058,256.218,258.378,260.538,262.69800000000004,264.398,268.718,272.714,279.716,282.38,286.7" style="fill:#171615;font-family:MPGBTK+FrutigerLTPro-Condensed;font-size:9.0px;font-style:NORMAL;font-weight:normal;">.......................................................................... 4SM-49</text>
  <text x="51.024,58.332,67.332,76.998,81.678,90.678,95.358,105.024,111.018,115.698,125.706,135.372,144.714,151.05,160.05,169.392,175.728" y="80.0" svg_rhmargin="183.054" style="fill:#192a53;font-family:MPGBTK+FrutigerLTPro-BoldCn;font-size:18.0px;font-style:NORMAL;font-weight:bold;">Table of Contents</text>
 </g>
</svg>
