<?xml version="1.0" encoding="UTF-8"?>
<svg height="781.509" width="1248.9986572265625" xmlns="http://www.w3.org/2000/svg">
 <g style="fill:none;">
  <text x="51.024,55.444,59.694,66.621,69.299,73.719" y="771.509" svg_rhmargin="78.139" style="fill:#171615;font-family:MPGBTK+FrutigerLTPro-BoldCn;font-size:8.5px;font-style:NORMAL;font-weight:bold;">4SM-16</text>
  <text svg_rhmargin="555.023" x="51.024,55.903,60.629,65.193,70.072,73.379,77.943,81.25,83.46,87.88,90.08999999999999,349.042,353.607,356.913,360.067,364.631,369.357,374.236,377.543,382.269,386.833,391.559,393.922,398.648,403.527,405.737,410.302,415.028,419.907,422.117,424.633,431.722,436.601,438.964,443.528,450.617,455.182,459.908,463.214,465.577,470.303,475.182,477.392,480.699,485.425,489.989,492.199,497.869,500.232,505.111,509.99,514.554,516.917,519.127,524.168,528.732,532.353,537.232,542.111,546.837,550.458,555.023" y="444.519" style="fill:#4c8ecf;font-family:XUSYQO+FrutigerLTPro-BlackCn;font-size:8.5px;font-style:NORMAL;font-weight:bold;">Chapter 4 Strengthening and Implementing the Global Response </text>
  <path d=" M 24.84950065612793 339.59051513671875 C 24.84950065612793 339.59051513671875 36.84950256347656 339.59051513671875 36.84950256347656 351.59051513671875 L 36.84950256347656 426.51953125 C 36.84950256347656 426.51953125 36.84950256347656 438.51953125 24.84950065612793 438.51953125 L -15.000497817993164 438.51953125 L -15.000497817993164 339.59051513671875 Z " style="fill:none;stroke:#000000;stroke-width:1.0;"/>
  <path d=" M 1199.148681640625 438.51971435546875 C 1199.148681640625 438.51971435546875 1187.148681640625 438.51971435546875 1187.148681640625 426.51971435546875 L 1187.148681640625 351.5906982421875 C 1187.148681640625 351.5906982421875 1187.148681640625 339.5906982421875 1199.148681640625 339.5906982421875 L 1238.9986572265625 339.5906982421875 L 1238.9986572265625 438.51971435546875 Z " style="fill:none;stroke:#000000;stroke-width:1.0;"/>
  <text svg_rhmargin="29.793" x="1193.497,1197.657,1201.953,14.521,18.681,22.977,29.793" y="89.70000000000005" style="fill:#ffffff;font-family:XUSYQO+FrutigerLTPro-BlackCn;font-size:8.0px;font-style:NORMAL;font-weight:bold;">4SM4SM </text>
  <path d=" M 164.55099487304688 720.2999877929688 L 294.94500732421875 720.2999877929688 L 294.94500732421875 706.2999877929688 L 164.55099487304688 706.2999877929688 Z M 294.94500732421875 720.2999877929688 L 425.3389892578125 720.2999877929688 L 425.3389892578125 706.2999877929688 L 294.94500732421875 706.2999877929688 Z M 425.3389892578125 720.2999877929688 L 555.7329711914062 720.2999877929688 L 555.7329711914062 706.2999877929688 L 425.3389892578125 706.2999877929688 Z M 51.290000915527344 679.0499877929688 L 107.98300170898438 679.0499877929688 L 107.98300170898438 563.0499877929688 L 51.290000915527344 563.0499877929688 Z " style="fill:none;stroke:#000000;stroke-width:1.0;"/>
  <path d=" M 164.55099487304688 679.0499877929688 L 178.7239990234375 679.0499877929688 L 178.7239990234375 638.7999877929688 L 164.55099487304688 638.7999877929688 Z M 294.94500732421875 679.0499877929688 L 309.1180114746094 679.0499877929688 L 309.1180114746094 638.7999877929688 L 294.94500732421875 638.7999877929688 Z M 425.3389892578125 679.0499877929688 L 439.5119934082031 679.0499877929688 L 439.5119934082031 638.7999877929688 L 425.3389892578125 638.7999877929688 Z M 164.55099487304688 638.7999877929688 L 178.7239990234375 638.7999877929688 L 178.7239990234375 616.5499877929688 L 164.55099487304688 616.5499877929688 Z M 425.3389892578125 638.7999877929688 L 439.5119934082031 638.7999877929688 L 439.5119934082031 616.5499877929688 L 425.3389892578125 616.5499877929688 Z M 425.3389892578125 616.5499877929688 L 439.5119934082031 616.5499877929688 L 439.5119934082031 585.2999877929688 L 425.3389892578125 585.2999877929688 Z M 164.55099487304688 585.2999877929688 L 178.7239990234375 585.2999877929688 L 178.7239990234375 563.0499877929688 L 164.55099487304688 563.0499877929688 Z M 294.94500732421875 585.2999877929688 L 309.1180114746094 585.2999877929688 L 309.1180114746094 563.0499877929688 L 294.94500732421875 563.0499877929688 Z " style="fill:none;stroke:#000000;stroke-width:1.0;"/>
  <path d=" M 294.94500732421875 638.7999877929688 L 309.1180114746094 638.7999877929688 L 309.1180114746094 616.5499877929688 L 294.94500732421875 616.5499877929688 Z M 294.94500732421875 616.5499877929688 L 309.1180114746094 616.5499877929688 L 309.1180114746094 585.2999877929688 L 294.94500732421875 585.2999877929688 Z " style="fill:none;stroke:#000000;stroke-width:1.0;"/>
  <path d=" M 425.3389892578125 585.2999877929688 L 439.5119934082031 585.2999877929688 L 439.5119934082031 563.0499877929688 L 425.3389892578125 563.0499877929688 Z " style="fill:none;stroke:#000000;stroke-width:1.0;"/>
  <text x="180.685,184.237,188.237,192.389,196.685,198.765,203.653,206.909,210.909,212.989,216.989,221.141,225.437,227.517,232.405,235.221,239.517,243.517,247.669,249.749,253.901,255.981,259.981,264.133,268.285,270.365,274.517,278.813,321.717,325.717,327.797,331.797,335.205,338.021,340.837,342.917,346.325,348.405,352.853,356.853,359.589,362.845,364.925,368.925,373.077,377.373,379.453,383.901,388.053,391.309,395.309,398.565,462.229,466.229,470.381,474.381,477.197,479.277,483.429,487.725,489.805,493.805,497.213,501.365,505.365,511.589,515.589" y="89.70000000000005" svg_rhmargin="518.845" style="fill:#171615;font-family:MPGBTK+FrutigerLTPro-BoldCn;font-size:8.0px;font-style:NORMAL;font-weight:bold;">Land Use and Urban Planning Electric Cars and Buses Sharing Schemes</text>
  <text x="124.539,127.78,130.762,132.316,135.683,138.791,142.165,144.888,147.996,220.544,224.177,227.551,230.918,234.292,236.882,238.954,349.19,354.636,357.744,361.111,362.665,366.039,371.09299999999996,480.755,483.604,485.158,490.212,491.766,493.838,496.946" y="103.32500000000005" svg_rhmargin="500.313" style="fill:#171615;font-family:MPGBTK+FrutigerLTPro-Condensed;font-size:7.0px;font-style:NORMAL;font-weight:normal;">Evidence Robust Medium Limited</text>
  <text x="121.627,125.645,129.012,131.084,134.192,137.3,142.354,145.462,148.836,150.90800000000002,218.794,224.24,227.348,230.715,232.269,235.643,240.697,353.985,358.003,359.557,362.924,366.298,479.586,485.032,488.14,491.507,493.061,496.435" y="116.947" svg_rhmargin="501.489" style="fill:#171615;font-family:MPGBTK+FrutigerLTPro-Condensed;font-size:7.0px;font-style:NORMAL;font-weight:normal;">Agreement Medium High Medium</text>
  <text svg_rhmargin="97.337" x="61.938,66.474,69.974,73.733,77.492,81.125,84.366,87.215,89.035,92.017,95.517,97.33699999999999" y="130.19799999999998" style="fill:#171615;font-family:MPGBTK+FrutigerLTPro-BoldCn;font-size:7.0px;font-style:NORMAL;font-weight:bold;">Geophysical </text>
  <text x="111.981,115.348,118.722,121.571,124.161,125.715,128.438,131.679,133.233,134.913" y="130.19799999999998" svg_rhmargin="136.593" style="fill:#171615;font-family:MPGBTK+FrutigerLTPro-Condensed;font-size:7.0px;font-style:NORMAL;font-weight:normal;">Physical </text>
  <text x="111.981,113.927,117.035,120.276,122.866,124.42,127.787,129.341,130.895,132.449,134.521,137.37" y="139.20000000000005" svg_rhmargin="139.05" style="fill:#171615;font-family:MPGBTK+FrutigerLTPro-Condensed;font-size:7.0px;font-style:NORMAL;font-weight:normal;">feasibility </text>
  <text x="111.981,113.927,117.294,120.668,123.517,126.107,127.661,130.384,133.625,135.179" y="148.202" svg_rhmargin="136.859" style="fill:#171615;font-family:MPGBTK+FrutigerLTPro-Condensed;font-size:7.0px;font-style:NORMAL;font-weight:normal;">(physical </text>
  <text svg_rhmargin="140.233" x="111.981,115.348,118.722,120.794,123.902,127.276,129.348,130.902,134.143,135.697,138.287,140.233" y="139.207" style="fill:#171615;font-family:MPGBTK+FrutigerLTPro-Condensed;font-size:7.0px;font-style:NORMAL;font-weight:normal;">potentials) </text>
  <text x="182.723,186.741,189.331,190.885,193.993,197.367,199.047,202.155,204.227,205.907,209.148,210.316,211.996,213.417,215.097,218.457,221.817,225.177,228.537,229.958,231.638" y="139.207" svg_rhmargin="233.318" style="fill:#171615;font-family:MPGBTK+FrutigerLTPro-Condensed;font-size:7.0px;font-style:NORMAL;font-weight:normal;">Hsieh et al., 2017; </text>
  <text svg_rhmargin="246.814" x="182.723,188.295,189.849,192.957,195.029,198.403,200.475,203.849,208.644,210.198,212.921,215.644,217.324,220.432,222.504,224.184,227.425,228.593,230.273,231.694,233.374,236.734,240.094,243.454,246.81400000000002" y="139.207" style="fill:#171615;font-family:MPGBTK+FrutigerLTPro-Condensed;font-size:7.0px;font-style:NORMAL;font-weight:normal;">Wiktorowicz et al., 2018 </text>
  <text x="313.119,317.403,318.957,322.198,324.921,328.029,331.396,333.468,336.842,340.216,343.324,345.004,348.245,351.619,354.986,356.666,360.95,364.058,368.853,373.907,377.148,380.522,381.942,383.622,386.982,390.342,393.702,397.062,398.483" y="139.207" svg_rhmargin="400.163" style="fill:#171615;font-family:MPGBTK+FrutigerLTPro-Condensed;font-size:7.0px;font-style:NORMAL;font-weight:normal;">Glazebrook and Newman, 2018; </text>
  <text svg_rhmargin="391.483" x="313.119,316.493,319.601,322.975,327.77,331.144,333.216,335.288,338.662,341.511,343.191,346.432,349.806,353.173,354.853,357.961,360.684,364.058,365.612,367.166,368.72,371.828,373.262,374.683,376.363,379.723,383.083,386.443,389.803,391.483" y="139.207" style="fill:#171615;font-family:MPGBTK+FrutigerLTPro-Condensed;font-size:7.0px;font-style:NORMAL;font-weight:normal;">Kenworthy and Schiller, 2018 </text>
  <text x="443.515,446.889,449.997,453.371,455.443,457.123,460.364,463.738,467.105,468.785,472.803,476.177,480.972,482.526,484.08,487.454,490.821,492.241,493.921,497.281,500.641,504.001,507.361,508.782" y="139.207" svg_rhmargin="510.462" style="fill:#171615;font-family:MPGBTK+FrutigerLTPro-Condensed;font-size:7.0px;font-style:NORMAL;font-weight:normal;">Kent and Dowling, 2016; </text>
  <text x="443.515,447.799,450.907,455.702,460.756,463.997,467.371,469.051,472.159,474.231,475.911,479.152,480.32,482.0,483.421,485.101,488.461,491.821,495.181" y="148.20899999999995" svg_rhmargin="498.541" style="fill:#171615;font-family:MPGBTK+FrutigerLTPro-Condensed;font-size:7.0px;font-style:NORMAL;font-weight:normal;">Newman et al., 2017</text>
  <text x="111.988,114.837,116.391,121.445,122.999,125.071,128.179,131.546,133.226,136.6,139.19,142.298" y="170.462" svg_rhmargin="143.978" style="fill:#171615;font-family:MPGBTK+FrutigerLTPro-Condensed;font-size:7.0px;font-style:NORMAL;font-weight:normal;">Limited use </text>
  <text svg_rhmargin="130.524" x="111.988,115.362,117.308,118.988,120.542,123.783,127.157,130.524" y="174.96299999999997" style="fill:#171615;font-family:MPGBTK+FrutigerLTPro-Condensed;font-size:7.0px;font-style:NORMAL;font-weight:normal;">of land </text>
  <text svg_rhmargin="228.544" x="182.73,186.748,189.338,190.892,194.0,197.374,199.054,202.162,204.234,205.914,209.155,210.323,212.003,213.424,215.104,218.464,221.824,225.184,228.544" y="170.462" style="fill:#171615;font-family:MPGBTK+FrutigerLTPro-Condensed;font-size:7.0px;font-style:NORMAL;font-weight:normal;">Hsieh et al., 2017 </text>
  <text x="313.126,317.41,318.964,322.205,324.928,328.036,331.403,333.475,336.849,340.223,343.331,345.011,348.252,351.626,354.993,356.673,360.957,364.065,368.86,373.914,377.155,380.529,381.949,383.629,386.989,390.349,393.709,397.069,398.49" y="170.462" svg_rhmargin="400.17" style="fill:#171615;font-family:MPGBTK+FrutigerLTPro-Condensed;font-size:7.0px;font-style:NORMAL;font-weight:normal;">Glazebrook and Newman, 2018; </text>
  <text svg_rhmargin="389.81" x="313.126,316.5,319.608,322.982,327.777,331.151,333.223,335.295,338.669,341.518,343.198,346.439,349.813,353.18,354.86,357.968,360.691,364.065,365.619,367.173,368.727,371.835,373.269,374.69,376.37,379.73,383.09,386.45,389.81" y="170.462" style="fill:#171615;font-family:MPGBTK+FrutigerLTPro-Condensed;font-size:7.0px;font-style:NORMAL;font-weight:normal;">Kenworthy and Schiller, 2018 </text>
  <text x="443.522,446.896,450.004,453.378,455.45,457.13,460.371,463.745,467.112,468.792,472.81,476.184,480.979,482.533,484.087,487.461,490.828,492.248,493.928,497.288,500.648,504.008,507.368,508.789,510.469,514.753,517.861,522.656,527.71,530.951,534.325,536.005,539.113,541.185" y="170.462" svg_rhmargin="542.865" style="fill:#171615;font-family:MPGBTK+FrutigerLTPro-Condensed;font-size:7.0px;font-style:NORMAL;font-weight:normal;">Kent and Dowling, 2016; Newman et </text>
  <text x="443.522,446.763,447.932,449.612,451.033,452.713,456.073,459.433,462.793,466.153,467.574,469.254,473.272,476.513,481.567,483.121,484.675,486.747,490.121,493.495,495.175,498.416,501.79,505.157,506.451,512.023,513.577,516.3,519.674,524.728,527.969,531.343,532.764,534.444,537.804,541.164,544.524" y="179.46400000000006" svg_rhmargin="547.884" style="fill:#171615;font-family:MPGBTK+FrutigerLTPro-Condensed;font-size:7.0px;font-style:NORMAL;font-weight:normal;">al., 2017; Hamilton and Wichman, 2018</text>
  <text x="111.995,114.844,116.398,121.452,123.006,125.078,128.186,131.553,133.233,136.607,139.197,142.305,143.985,147.359,149.305" y="192.71500000000003" svg_rhmargin="150.985" style="fill:#171615;font-family:MPGBTK+FrutigerLTPro-Condensed;font-size:7.0px;font-style:NORMAL;font-weight:normal;">Limited use of </text>
  <text x="111.995,114.585,117.308,120.549,122.621,125.344,128.452,130.132,132.078,135.445,138.553,141.927" y="201.71699999999998" svg_rhmargin="143.873" style="fill:#171615;font-family:MPGBTK+FrutigerLTPro-Condensed;font-size:7.0px;font-style:NORMAL;font-weight:normal;">scarce (geo)</text>
  <text svg_rhmargin="159.938" x="111.995,115.362,118.736,121.585,124.175,125.729,128.452,131.693,133.247,134.927,136.999,140.107,142.697,146.071,149.445,151.517,154.24,157.348,159.93800000000002" y="201.71699999999998" style="fill:#171615;font-family:MPGBTK+FrutigerLTPro-Condensed;font-size:7.0px;font-style:NORMAL;font-weight:normal;">physical resources </text>
  <text svg_rhmargin="260.464" x="168.604,171.453,174.69400000000002,182.737,185.586,188.96,192.334,197.388,199.978,203.352,206.726,208.406,211.647,215.021,218.388,220.068,224.352,227.46,232.255,237.309,240.55,243.924,245.344,247.024,250.384,253.744,257.104,260.464" y="197.216" style="fill:#171615;font-family:MPGBTK+FrutigerLTPro-Condensed;font-size:7.0px;font-style:NORMAL;font-weight:normal;">LE Thomson and Newman, 2018 </text>
  <text x="313.133,317.417,320.525,325.32,330.374,333.615,336.989,338.669,341.777,343.849,345.529,348.77,349.938,351.618,353.039,354.719,358.079,361.439,364.799,368.159,369.58,371.26" y="197.216" svg_rhmargin="372.94" style="fill:#171615;font-family:MPGBTK+FrutigerLTPro-Condensed;font-size:7.0px;font-style:NORMAL;font-weight:normal;">Newman et al., 2017; </text>
  <text svg_rhmargin="389.817" x="313.133,316.507,319.615,322.989,327.784,331.158,333.23,335.302,338.676,341.525,343.205,346.446,349.82,353.187,354.867,357.975,360.698,364.072,365.626,367.18,368.734,371.842,373.276,374.697,376.377,379.737,383.097,386.457,389.817" y="192.71500000000003" style="fill:#171615;font-family:MPGBTK+FrutigerLTPro-Condensed;font-size:7.0px;font-style:NORMAL;font-weight:normal;">Kenworthy and Schiller, 2018 </text>
  <text x="443.529,447.813,450.921,455.716,460.77,464.011,467.385,469.065,472.306,475.68,479.047,480.727,484.1,487.208,490.582,495.377,498.751,500.823,502.895,506.269,509.118,510.539,512.219,515.579,518.939,522.299,525.659,527.08" y="192.71500000000003" svg_rhmargin="528.76" style="fill:#171615;font-family:MPGBTK+FrutigerLTPro-Condensed;font-size:7.0px;font-style:NORMAL;font-weight:normal;">Newman and Kenworthy, 2015; </text>
  <text x="443.529,447.813,450.921,455.716,460.77,464.011,467.385,469.065,472.173,474.245,475.925,479.166,480.334,482.014,483.435,485.115,488.475,491.835,495.195,498.555,499.976,501.656" y="201.71699999999998" svg_rhmargin="503.336" style="fill:#171615;font-family:MPGBTK+FrutigerLTPro-Condensed;font-size:7.0px;font-style:NORMAL;font-weight:normal;">Newman et al., 2017; </text>
  <text x="443.529,447.813,449.367,452.608,455.331,458.439,461.806,463.878,467.252,470.626,473.734,475.414,478.655,482.029,485.396,487.076,491.36,494.468,499.263,504.317,507.558,510.932,512.352,514.032,517.392,520.752,524.112" y="210.71900000000005" svg_rhmargin="527.472" style="fill:#171615;font-family:MPGBTK+FrutigerLTPro-Condensed;font-size:7.0px;font-style:NORMAL;font-weight:normal;">Glazebrook and Newman, 2018</text>
  <text svg_rhmargin="148.801" x="112.002,116.286,117.84,121.214,124.581,127.822,129.376,131.056,133.646,137.013,139.085,142.193,145.434,148.801" y="223.97000000000003" style="fill:#171615;font-family:MPGBTK+FrutigerLTPro-Condensed;font-size:7.0px;font-style:NORMAL;font-weight:normal;">Global spread </text>
  <text x="182.744,185.726,188.967,191.69,195.064,198.172,200.895,204.269,206.341,208.93,212.304,214.376,216.448,219.556,222.146,223.826,226.934,229.006,230.686,233.927,235.096,236.776,238.197,239.877,243.237,246.597,249.957,253.317,254.738,256.418" y="223.97000000000003" svg_rhmargin="258.098" style="fill:#171615;font-family:MPGBTK+FrutigerLTPro-Condensed;font-size:7.0px;font-style:NORMAL;font-weight:normal;">Pacheco-Torres et al., 2017; </text>
  <text svg_rhmargin="266.687" x="182.744,187.028,188.582,191.823,194.546,197.654,201.021,203.093,206.467,209.841,212.949,214.629,217.87,221.244,224.611,226.291,230.575,233.683,238.478,243.532,246.773,250.147,251.567,253.247,256.607,259.967,263.327,266.687" y="223.97000000000003" style="fill:#171615;font-family:MPGBTK+FrutigerLTPro-Condensed;font-size:7.0px;font-style:NORMAL;font-weight:normal;">Glazebrook and Newman, 2018 </text>
  <text x="313.14,317.158,320.532,323.773,325.845,327.525,330.633,332.705,334.385,337.626,338.794,340.474,341.895,343.575,346.935,350.295,353.655,357.015,358.436,360.116,363.476,366.836,370.196,373.556,374.977" y="223.97000000000003" svg_rhmargin="376.657" style="fill:#171615;font-family:MPGBTK+FrutigerLTPro-Condensed;font-size:7.0px;font-style:NORMAL;font-weight:normal;">Dhar et al., 2017, 2018; </text>
  <text svg_rhmargin="368.166" x="313.14,317.424,320.532,325.327,330.381,333.622,336.996,338.676,341.784,343.856,345.536,348.777,349.945,351.625,353.046,354.726,358.086,361.446,364.806,368.166" y="223.97000000000003" style="fill:#171615;font-family:MPGBTK+FrutigerLTPro-Condensed;font-size:7.0px;font-style:NORMAL;font-weight:normal;">Newman et al., 2017 </text>
  <text x="443.536,446.385,449.493,450.788,454.407,455.961,459.335,462.443,464.123,467.231,469.303,470.983,474.224,475.392,477.072,478.493,480.173,483.533,486.893,490.253,493.613,495.034,496.714" y="223.97000000000003" svg_rhmargin="498.394" style="fill:#171615;font-family:MPGBTK+FrutigerLTPro-Condensed;font-size:7.0px;font-style:NORMAL;font-weight:normal;">Le Vine et al., 2014; </text>
  <text x="443.536,446.91,450.018,453.392,455.464,457.144,460.385,463.759,467.126,468.806,472.824,476.198,480.993,482.547,484.101,487.475,490.842,492.262,493.942,497.302,500.662,504.022" y="232.97199999999998" svg_rhmargin="507.382" style="fill:#171615;font-family:MPGBTK+FrutigerLTPro-Condensed;font-size:7.0px;font-style:NORMAL;font-weight:normal;">Kent and Dowling, 2016</text>
  <text x="51.024,53.976,57.68,61.528,63.304,66.856,68.776,72.616,74.536,78.088,84.312,86.232,90.072,93.912,95.832,98.056,101.168,105.024,108.88,111.248,113.024,116.88,120.736,124.288,128.136" y="65.024" svg_rhmargin="130.36" style="fill:#192a53;font-family:MPGBTK+FrutigerLTPro-CondensedIta;font-size:8.0px;font-style:NORMAL;font-weight:normal;">Table 4.SM.10 (continued)</text>
  <text x="51.024,54.272,58.272,62.568,64.648,68.648,70.728,74.888,76.968,80.968,87.488,89.568,93.728,97.888,99.968" y="269.12" svg_rhmargin="101.744" style="fill:#192a53;font-family:MPGBTK+FrutigerLTPro-BoldCn;font-size:8.0px;font-style:NORMAL;font-weight:bold;">Table 4.SM.11 |</text>
  <text y="269.12" svg_rhmargin="557.231" x="107.72,110.832,114.384,118.088,121.048,122.824,126.672,128.448,130.224,132.0,134.368,137.624,139.54399999999998,140.635,144.339,147.299,150.259,153.811,156.771,159.731,165.507,169.059,172.915,175.283,177.20299999999997,178.293,182.149,184.373,186.29299999999998,187.385,191.241,193.609,197.457,201.161,205.017,206.93699999999998,208.028,211.732,215.588,219.436,221.356,222.448,224.224,228.08,230.304,232.672,236.376,239.336,241.704,244.072,247.928,251.04,253.408,257.264,259.632,263.184,265.10400000000004,266.195,269.155,272.411,275.371,277.739,281.291,287.067,288.987,290.079,292.447,294.815,298.519,302.375,305.335,307.111,309.479,311.255,315.111,318.967,320.887,321.977,327.753,329.529,331.897,333.673,337.521,341.225,343.593,345.369,349.225,353.081,355.00100000000003,356.092,359.948,363.796,366.164,367.94,371.796,375.652,378.612,380.236,382.156,383.248,387.096,390.952,394.8,396.576,398.352,401.464,403.384,404.475,406.843,409.211,412.915,416.771,419.731,423.579,427.435,429.803,432.171,433.794,435.714,436.806,440.662,444.518,448.374,450.742,456.518,460.374,462.742,466.598,468.966,470.742,473.702,477.254,481.102,483.022,484.112,486.48,488.848,492.552,496.408,499.368,503.216,507.072,509.44,511.808,513.432,515.352,516.443,520.147,524.003,527.851,529.771,530.863,534.567,537.975,539.751,543.455,545.823,547.599,551.455,555.311" style="fill:#171615;font-family:MPGBTK+FrutigerLTPro-Condensed;font-size:8.0px;font-style:NORMAL;font-weight:normal;">Feasibility assessment of urban and infrastructure system transition mitigation options: public transport, non-motorised transport, and aviation </text>
  <text y="279.12" svg_rhmargin="245.966" x="107.72,111.424,115.28,119.128,121.048,124.008,127.864,129.64,133.488,137.336,139.112,142.968,146.816,148.439,150.359,153.471,157.327,159.695,161.615,167.391,170.943,173.311,177.167,181.023,184.871,188.727,190.503,194.359,198.207,201.463,203.086,205.006,207.966,211.518,215.07,216.99,220.83,222.75,226.302,232.526,234.446,238.286,240.206,244.046" style="fill:#171615;font-family:MPGBTK+FrutigerLTPro-Condensed;font-size:8.0px;font-style:NORMAL;font-weight:normal;">and shipping. For methodology, see 4.SM.4.1.</text>
  <path d=" M 164.41000366210938 511.2449951171875 L 294.80401611328125 511.2449951171875 L 294.80401611328125 497.2449951171875 L 164.41000366210938 497.2449951171875 Z M 294.8030090332031 511.2449951171875 L 425.197021484375 511.2449951171875 L 425.197021484375 497.2449951171875 L 294.8030090332031 497.2449951171875 Z M 425.1969909667969 511.2449951171875 L 555.5910034179688 511.2449951171875 L 555.5910034179688 497.2449951171875 L 425.1969909667969 497.2449951171875 Z M 51.14899826049805 469.9949951171875 L 107.84199523925781 469.9949951171875 L 107.84199523925781 340.2449951171875 L 51.14899826049805 340.2449951171875 Z M 51.14899826049805 340.2449951171875 L 107.84199523925781 340.2449951171875 L 107.84199523925781 223.65298461914062 L 51.14899826049805 223.65298461914062 Z M 51.14899826049805 223.6540069580078 L 107.84199523925781 223.6540069580078 L 107.84199523925781 89.65400695800781 L 51.14899826049805 89.65400695800781 Z " style="fill:none;stroke:#171615;stroke-width:0.25;"/>
  <path d=" M 164.41000366210938 469.9949951171875 L 178.5830078125 469.9949951171875 L 178.5830078125 420.7449951171875 L 164.41000366210938 420.7449951171875 Z M 294.8030090332031 469.9949951171875 L 308.97601318359375 469.9949951171875 L 308.97601318359375 420.7449951171875 L 294.8030090332031 420.7449951171875 Z M 164.41000366210938 420.7449951171875 L 178.5830078125 420.7449951171875 L 178.5830078125 380.4949951171875 L 164.41000366210938 380.4949951171875 Z M 294.8030090332031 420.7449951171875 L 308.97601318359375 420.7449951171875 L 308.97601318359375 380.4949951171875 L 294.8030090332031 380.4949951171875 Z M 164.41000366210938 380.4949951171875 L 178.5830078125 380.4949951171875 L 178.5830078125 340.2449951171875 L 164.41000366210938 340.2449951171875 Z M 164.41000366210938 340.2449951171875 L 178.5830078125 340.2449951171875 L 178.5830078125 308.9949951171875 L 164.41000366210938 308.9949951171875 Z M 294.8030090332031 340.2449951171875 L 308.97601318359375 340.2449951171875 L 308.97601318359375 308.9949951171875 L 294.8030090332031 308.9949951171875 Z M 425.1969909667969 340.2449951171875 L 439.3699951171875 340.2449951171875 L 439.3699951171875 308.9949951171875 L 425.1969909667969 308.9949951171875 Z M 164.41000366210938 308.9949951171875 L 178.5830078125 308.9949951171875 L 178.5830078125 277.7449951171875 L 164.41000366210938 277.7449951171875 Z M 294.8030090332031 308.9949951171875 L 308.97601318359375 308.9949951171875 L 308.97601318359375 277.7449951171875 L 294.8030090332031 277.7449951171875 Z M 294.8030090332031 277.7449951171875 L 308.97601318359375 277.7449951171875 L 308.97601318359375 246.4949951171875 L 294.8030090332031 246.4949951171875 Z M 164.41000366210938 246.4949951171875 L 178.5830078125 246.4949951171875 L 178.5830078125 223.6529998779297 L 164.41000366210938 223.6529998779297 Z M 294.8030090332031 246.4949951171875 L 308.97601318359375 246.4949951171875 L 308.97601318359375 223.6529998779297 L 294.8030090332031 223.6529998779297 Z M 164.41000366210938 223.6540069580078 L 178.5830078125 223.6540069580078 L 178.5830078125 174.4040069580078 L 164.41000366210938 174.4040069580078 Z M 294.8030090332031 223.6540069580078 L 308.97601318359375 223.6540069580078 L 308.97601318359375 174.4040069580078 L 294.8030090332031 174.4040069580078 Z M 164.41000366210938 174.4040069580078 L 178.5830078125 174.4040069580078 L 178.5830078125 143.1540069580078 L 164.41000366210938 143.1540069580078 Z M 294.8030090332031 174.4040069580078 L 308.97601318359375 174.4040069580078 L 308.97601318359375 143.1540069580078 L 294.8030090332031 143.1540069580078 Z M 164.41000366210938 143.1540069580078 L 178.5830078125 143.1540069580078 L 178.5830078125 120.90400695800781 L 164.41000366210938 120.90400695800781 Z M 294.8030090332031 120.90399932861328 L 308.97601318359375 120.90399932861328 L 308.97601318359375 89.65399932861328 L 294.8030090332031 89.65399932861328 Z M 425.1969909667969 120.90399932861328 L 439.3699951171875 120.90399932861328 L 439.3699951171875 89.65399932861328 L 425.1969909667969 89.65399932861328 Z " style="fill:none;stroke:#171615;stroke-width:0.25;"/>
  <path d=" M 425.1969909667969 469.9949951171875 L 439.3699951171875 469.9949951171875 L 439.3699951171875 420.7449951171875 L 425.1969909667969 420.7449951171875 Z M 425.1969909667969 308.9949951171875 L 439.3699951171875 308.9949951171875 L 439.3699951171875 277.7449951171875 L 425.1969909667969 277.7449951171875 Z M 425.1969909667969 174.4040069580078 L 439.3699951171875 174.4040069580078 L 439.3699951171875 143.1540069580078 L 425.1969909667969 143.1540069580078 Z M 425.1969909667969 143.1540069580078 L 439.3699951171875 143.1540069580078 L 439.3699951171875 120.90400695800781 L 425.1969909667969 120.90400695800781 Z " style="fill:none;stroke:#171615;stroke-width:0.25;"/>
  <path d=" M 294.8030090332031 380.4949951171875 L 308.97601318359375 380.4949951171875 L 308.97601318359375 340.2449951171875 L 294.8030090332031 340.2449951171875 Z M 425.1969909667969 380.4949951171875 L 439.3699951171875 380.4949951171875 L 439.3699951171875 340.2449951171875 L 425.1969909667969 340.2449951171875 Z M 164.41000366210938 277.7449951171875 L 178.5830078125 277.7449951171875 L 178.5830078125 246.4949951171875 L 164.41000366210938 246.4949951171875 Z M 425.1969909667969 223.6540069580078 L 439.3699951171875 223.6540069580078 L 439.3699951171875 174.4040069580078 L 425.1969909667969 174.4040069580078 Z M 294.8030090332031 143.1540069580078 L 308.97601318359375 143.1540069580078 L 308.97601318359375 120.90400695800781 L 294.8030090332031 120.90400695800781 Z " style="fill:none;stroke:#171615;stroke-width:0.25;"/>
  <text x="202.935,207.087,211.239,215.535,217.615,219.695,223.103,224.743,227.911,230.647,234.647,238.799,242.055,246.351,250.647,253.463,256.279,318.295,323.479,327.775,331.927,334.447,340.671,344.967,347.783,352.079,354.895,356.975,360.231,364.231,368.527,370.167,373.335,376.071,380.071,384.223,387.479,391.775,396.071,398.887,401.703,453.471,458.079,461.927,464.007,468.007,470.823,472.903,477.199,481.351,483.431,487.431,491.583,495.879,497.959,501.959,506.111,508.191,512.487,516.783,518.863,523.015" y="298.755" svg_rhmargin="527.311" style="fill:#171615;font-family:MPGBTK+FrutigerLTPro-BoldCn;font-size:8.0px;font-style:NORMAL;font-weight:bold;">Public Transport Non-motorised Transport Aviation and Shipping</text>
  <text x="124.397,127.638,130.62,132.174,135.541,138.649,142.023,144.746,147.854,220.402,224.035,227.409,230.776,234.15,236.74,238.812,350.798,354.431,357.805,361.172,364.546,367.136,369.208,479.444,484.89,487.998,491.365,492.919,496.293" y="312.38" svg_rhmargin="501.347" style="fill:#171615;font-family:MPGBTK+FrutigerLTPro-Condensed;font-size:7.0px;font-style:NORMAL;font-weight:normal;">Evidence Robust Robust Medium</text>
  <text x="121.485,125.503,128.87,130.942,134.05,137.158,142.212,145.32,148.694,150.766,218.652,224.098,227.206,230.573,232.127,235.501,240.555,353.843,357.861,359.415,362.782,366.156,479.444,484.89,487.998,491.365,492.919,496.293" y="326.002" svg_rhmargin="501.347" style="fill:#171615;font-family:MPGBTK+FrutigerLTPro-Condensed;font-size:7.0px;font-style:NORMAL;font-weight:normal;">Agreement Medium High Medium</text>
  <text svg_rhmargin="93.436" x="65.555,69.055,72.037,75.796,79.429,83.188,88.634,90.454,93.43599999999999" y="357.25" style="fill:#171615;font-family:MPGBTK+FrutigerLTPro-BoldCn;font-size:7.0px;font-style:NORMAL;font-weight:bold;">Economic </text>
  <text svg_rhmargin="159.915" x="111.839,115.598,118.972,121.562,123.634,125.706,128.814,130.76,132.706,135.814,138.537,140.609,142.163,145.145,148.253,151.627,154.735,157.325,159.915" y="339.253" style="fill:#171615;font-family:MPGBTK+FrutigerLTPro-Condensed;font-size:7.0px;font-style:NORMAL;font-weight:normal;">Cost-effectiveness </text>
  <text x="182.581,186.795,189.966,193.27,194.754,196.238,199.276,202.447,204.057,207.228,210.532,213.829,215.439,219.128,222.432,225.47,227.99,229.992,233.03,234.395,235.746,237.356,240.646,243.936,247.226,250.516,251.867,253.477,257.04,260.344,263.648,265.594" y="339.253" svg_rhmargin="267.274" style="fill:#171615;font-family:MPGBTK+FrutigerLTPro-Condensed;font-size:7.0px;font-style:NORMAL;font-weight:normal;">Nahlika and Chester, 2014; Bouf </text>
  <text x="182.581,185.752,189.056,192.353,193.963,196.56,199.731,201.215,204.127,206.129,209.167,210.777,214.725,216.335,219.506,221.508,224.161,225.645,228.683,230.048,231.399,233.009,236.299,239.589,242.879,246.169,247.52,249.13,251.909,254.947,257.985,259.595,262.766,266.07,269.437" y="348.255" svg_rhmargin="271.117" style="fill:#171615;font-family:MPGBTK+FrutigerLTPro-Condensed;font-size:7.0px;font-style:NORMAL;font-weight:normal;">and Faivre D’arcier, 2015; Lee and </text>
  <text x="182.581,185.752,187.754,189.238,191.891,194.929,197.449,200.753,204.057,205.408,207.018,210.308,213.598,216.888,220.178,221.529,223.139,225.918,227.402,230.706,232.316,235.487,238.791,242.088,243.698,247.646,250.95,252.301,253.911,257.201,260.491,263.781,267.071,268.492" y="357.257" svg_rhmargin="270.172" style="fill:#171615;font-family:MPGBTK+FrutigerLTPro-Condensed;font-size:7.0px;font-style:NORMAL;font-weight:normal;">Erickson, 2017; Lin and Du, 2017; </text>
  <text x="182.581,186.795,188.279,191.45,194.103,197.141,200.438,202.44,205.744,209.048,212.086,213.696,216.867,220.171,223.468,225.078,229.292,232.33,237.055,242.039,245.21,248.514,249.865,251.475,254.765,258.055,261.345,264.635,266.056" y="366.259" svg_rhmargin="267.736" style="fill:#171615;font-family:MPGBTK+FrutigerLTPro-Condensed;font-size:7.0px;font-style:NORMAL;font-weight:normal;">Glazebrook and Newman, 2018; </text>
  <text svg_rhmargin="257.376" x="182.581,185.885,188.923,192.227,196.952,200.256,202.258,204.26,207.564,210.343,211.953,215.124,218.428,221.725,223.335,226.373,229.026,232.33,233.814,235.298,236.782,239.82,241.185,242.536,244.146,247.436,250.726,254.016,257.376" y="339.26" style="fill:#171615;font-family:MPGBTK+FrutigerLTPro-Condensed;font-size:7.0px;font-style:NORMAL;font-weight:normal;">Kenworthy and Schiller, 2018 </text>
  <text x="312.977,316.925,319.963,323.001,326.305,327.789,331.093,334.264,337.568,339.178,342.349,345.653,348.95,350.56,354.249,357.42,360.724,362.208,365.638,368.676,370.16,373.457,374.808,376.418,379.708,382.998,386.288,389.578,390.929,392.539,396.753,400.057,402.577,405.097,406.581,408.065,411.369,414.736" y="339.26" svg_rhmargin="416.416" style="fill:#171615;font-family:MPGBTK+FrutigerLTPro-Condensed;font-size:7.0px;font-style:NORMAL;font-weight:normal;">Deenihan and Caulfield, 2014; Gössling </text>
  <text x="312.977,316.148,319.452,322.749,324.359,328.048,331.352,334.656,335.755,337.106,338.716,342.006,345.296,348.586,351.876,353.227,354.837,360.213,363.384,366.037,369.985,373.289,376.593,379.764,381.248,384.545,386.155,390.369,391.853,395.15,397.67,400.974,404.348" y="348.262" svg_rhmargin="406.028" style="fill:#171615;font-family:MPGBTK+FrutigerLTPro-Condensed;font-size:7.0px;font-style:NORMAL;font-weight:normal;">and Choi, 2015; MacDonald Gibson </text>
  <text x="312.977,316.015,318.017,319.627,322.798,323.897,325.507,326.858,328.468,331.758,335.048,338.338,341.628,342.979,344.203,347.115,348.466,350.076,353.639,355.641,358.945,363.67,366.974,368.584,371.622,373.624,375.234,378.405,379.504,381.114,382.465,384.075,387.365,390.655,393.945,397.235,398.656" y="357.264" svg_rhmargin="400.336" style="fill:#171615;font-family:MPGBTK+FrutigerLTPro-Condensed;font-size:7.0px;font-style:NORMAL;font-weight:normal;">et al., 2015; V. Brown et al., 2016; </text>
  <text x="312.977,318.353,321.524,323.526,326.697,330.001,331.611,334.782,338.086,341.383,342.993,347.207,350.245,354.97,359.954,363.125,366.429,367.78,369.39,372.68,375.97,379.26,382.55,383.901,385.511,389.074,392.245,393.729,396.767,398.377,401.548,404.852,408.219" y="366.266" svg_rhmargin="409.899" style="fill:#171615;font-family:MPGBTK+FrutigerLTPro-Condensed;font-size:7.0px;font-style:NORMAL;font-weight:normal;">Matan and Newman, 2016; Rajé and </text>
  <text svg_rhmargin="399.875" x="312.977,316.015,319.186,321.062,322.938,324.94,327.978,330.757,332.108,333.718,337.008,340.298,343.588,346.878,348.229,349.839,352.618,354.102,356.104,361.088,364.259,367.563,368.914,370.524,373.814,377.104,380.394,383.684,385.035,386.645,389.935,393.225,396.515,399.875" y="352.77" style="fill:#171615;font-family:MPGBTK+FrutigerLTPro-Condensed;font-size:7.0px;font-style:NORMAL;font-weight:normal;">Saffrey, 2016; Litman, 2017, 2018 </text>
  <text x="443.373,447.062,450.366,452.368,455.665,458.703,460.705,462.707,464.317,467.355,469.357,470.967,474.138,475.237,476.847,478.198,479.808,483.098,486.388,489.678,492.968,494.319,495.929,499.877,502.915,505.435,507.955,510.993,514.297,516.817,518.427,521.465,523.467,525.077,528.248,529.347,530.957,532.378" y="352.77" svg_rhmargin="534.058" style="fill:#171615;font-family:MPGBTK+FrutigerLTPro-Condensed;font-size:7.0px;font-style:NORMAL;font-weight:normal;">Corbett et al., 2009; Dessens et al., </text>
  <text x="443.373,446.663,449.953,453.243,456.533,457.884,459.494,463.183,466.354,471.338,474.376,476.896,478.506,481.544,483.546,485.156,488.327,489.426,491.036,492.387,493.997,497.287,500.577,503.867,507.157,510.328,511.679,513.289" y="361.772" svg_rhmargin="516.656" style="fill:#171615;font-family:MPGBTK+FrutigerLTPro-Condensed;font-size:7.0px;font-style:NORMAL;font-weight:normal;">2014; Cames et al., 2015a, b</text>
  <text x="111.846,115.864,119.231,121.821,124.929,128.303,131.026,134.134,135.814,139.188,141.134" y="393.02" svg_rhmargin="142.814" style="fill:#171615;font-family:MPGBTK+FrutigerLTPro-Condensed;font-size:7.0px;font-style:NORMAL;font-weight:normal;">Absence of </text>
  <text x="111.846,115.213,116.767,119.357,121.429,123.501,125.055,128.422,131.796,133.868,135.422,138.796,142.17,145.411,146.965" y="402.022" svg_rhmargin="148.645" style="fill:#171615;font-family:MPGBTK+FrutigerLTPro-Condensed;font-size:7.0px;font-style:NORMAL;font-weight:normal;">distributional </text>
  <text svg_rhmargin="129.339" x="111.846,114.954,116.9,118.846,121.954,124.677,126.749,129.339" y="397.521" style="fill:#171615;font-family:MPGBTK+FrutigerLTPro-Condensed;font-size:7.0px;font-style:NORMAL;font-weight:normal;">effects </text>
  <text x="182.588,185.892,188.93,192.234,196.959,200.263,202.265,204.267,207.571,210.35,211.96,215.131,218.435,221.732,223.342,226.38,229.033,232.337,233.821,235.305,236.789,239.827,241.192,242.543,244.153,247.443,250.733,254.023,257.313,258.664,260.274,263.053,264.537,267.841,271.145,274.057,276.577,279.615,281.099,282.709,285.747,287.819" y="397.521" svg_rhmargin="289.499" style="fill:#171615;font-family:MPGBTK+FrutigerLTPro-Condensed;font-size:7.0px;font-style:NORMAL;font-weight:normal;">Kenworthy and Schiller, 2018; Linovski et </text>
  <text svg_rhmargin="278.754" x="182.588,185.759,186.858,188.468,189.819,191.429,194.719,198.009,201.299,204.589,205.94,207.165,210.154,213.325,216.629,219.926,222.964,226.135,227.745,230.916,234.22,237.517,239.127,243.341,246.379,251.104,256.088,259.259,262.563,263.914,265.524,268.814,272.104,275.394,278.754" y="388.526" style="fill:#171615;font-family:MPGBTK+FrutigerLTPro-Condensed;font-size:7.0px;font-style:NORMAL;font-weight:normal;">al., 2018; Yangka and Newman, 2018 </text>
  <text x="312.984,317.128,320.096,324.751,329.665,332.766,336.0,337.54,340.641,343.875,347.102,348.642,351.876,354.844,358.078,362.733,365.967,367.899,369.831,373.065,375.775,377.056,378.596,381.816,385.036,388.256,391.476,392.897" y="388.526" svg_rhmargin="394.577" style="fill:#171615;font-family:MPGBTK+FrutigerLTPro-Condensed;font-size:7.0px;font-style:NORMAL;font-weight:normal;">Newman and Kenworthy, 2015; </text>
  <text x="312.984,318.29,321.391,323.323,326.424,329.658,331.198,334.299,337.533,340.76,342.3,346.444,349.412,354.067,358.981,362.082,365.316,366.598,368.138,371.358,374.578,377.798,381.018,382.439" y="397.528" svg_rhmargin="384.119" style="fill:#171615;font-family:MPGBTK+FrutigerLTPro-Condensed;font-size:7.0px;font-style:NORMAL;font-weight:normal;">Matan and Newman, 2016; </text>
  <text x="312.984,315.049,318.017,321.251,323.701,326.669,329.903,331.443,334.411,336.343,337.883,340.984,342.013,343.553,344.834,346.374,349.594,352.814,356.034,359.254,360.535,362.075,364.784,368.018,371.253,376.167,379.268,382.502,385.736,387.276,390.377,393.611,396.978" y="406.53" svg_rhmargin="398.658" style="fill:#171615;font-family:MPGBTK+FrutigerLTPro-Condensed;font-size:7.0px;font-style:NORMAL;font-weight:normal;">Jensen et al., 2017; Lohmann and </text>
  <text svg_rhmargin="388.284" x="312.984,317.128,320.229,322.679,325.906,329.007,330.939,332.353,335.587,336.616,337.897,339.437,342.657,345.877,349.097,352.317,353.598,355.138,357.848,359.262,361.194,366.108,369.209,372.443,373.724,375.264,378.484,381.704,384.924,388.284" y="402.029" style="fill:#171615;font-family:MPGBTK+FrutigerLTPro-Condensed;font-size:7.0px;font-style:NORMAL;font-weight:normal;">Gasparini, 2017; Litman, 2018 </text>
  <text x="429.247,432.096,435.337,443.38,447.069,450.24,455.224,458.262,460.782,462.392,465.43,467.432,469.042,472.213,473.312,474.922,476.273,477.883,481.173,484.463,487.753,491.043" y="402.029" svg_rhmargin="494.284" style="fill:#171615;font-family:MPGBTK+FrutigerLTPro-Condensed;font-size:7.0px;font-style:NORMAL;font-weight:normal;">LE Cames et al., 2015a</text>
  <text x="111.853,115.094,120.148,123.515,125.069,128.443,131.292,136.346,139.454,142.828,144.9" y="428.776" svg_rhmargin="146.58" style="fill:#171615;font-family:MPGBTK+FrutigerLTPro-Condensed;font-size:7.0px;font-style:NORMAL;font-weight:normal;">Employment </text>
  <text x="111.853,115.094,118.468,121.835,123.515,126.882,128.954,132.328,135.695,139.069,141.792,143.864,145.418,148.4,149.954,152.026,154.875" y="437.778" svg_rhmargin="156.555" style="fill:#171615;font-family:MPGBTK+FrutigerLTPro-Condensed;font-size:7.0px;font-style:NORMAL;font-weight:normal;">and productivity </text>
  <text x="111.853,114.961,118.335,121.709,124.95,128.324,131.047,134.155,139.209,142.317,145.691,147.763" y="446.78" svg_rhmargin="149.443" style="fill:#171615;font-family:MPGBTK+FrutigerLTPro-Condensed;font-size:7.0px;font-style:NORMAL;font-weight:normal;">enhancement </text>
  <text svg_rhmargin="135.569" x="111.853,115.22,118.594,120.666,123.774,127.148,129.22,130.774,134.015,135.569" y="437.785" style="fill:#171615;font-family:MPGBTK+FrutigerLTPro-Condensed;font-size:7.0px;font-style:NORMAL;font-weight:normal;">potential </text>
  <text x="182.595,186.543,189.714,192.367,193.851,196.889,200.186,201.67,204.974,208.012,209.622,212.66,214.662,216.272,219.443,220.542,222.152,223.503,225.113,228.403,231.693,234.983,238.273,239.624,241.234,245.448,248.619,251.923,253.533,256.704,260.008,263.305,264.915,269.129,272.167,276.892,281.876,285.047,288.351,289.772" y="437.785" svg_rhmargin="291.452" style="fill:#171615;font-family:MPGBTK+FrutigerLTPro-Condensed;font-size:7.0px;font-style:NORMAL;font-weight:normal;">Hazledine et al., 2017; Gao and Newman, </text>
  <text svg_rhmargin="273.511" x="182.595,185.885,189.175,192.465,195.755,197.106,198.716,202.02,205.058,208.362,213.087,216.391,218.393,220.395,223.699,226.478,228.088,231.259,234.563,237.86,239.47,242.508,245.161,248.465,249.949,251.433,252.917,255.955,257.32,258.671,260.281,263.571,266.861,270.151,273.511" y="437.785" style="fill:#171615;font-family:MPGBTK+FrutigerLTPro-Condensed;font-size:7.0px;font-style:NORMAL;font-weight:normal;">2018; Kenworthy and Schiller, 2018 </text>
  <text x="312.991,318.367,321.538,323.54,326.711,330.015,331.625,334.796,338.1,341.397,343.007,347.221,350.259,354.984,359.968,363.139,366.443,367.794,369.404,372.694,375.984,379.274,382.564,383.915,385.525,388.304,389.788,391.79,396.774,399.945,403.249,404.67" y="437.785" svg_rhmargin="406.35" style="fill:#171615;font-family:MPGBTK+FrutigerLTPro-Condensed;font-size:7.0px;font-style:NORMAL;font-weight:normal;">Matan and Newman, 2016; Litman, </text>
  <text svg_rhmargin="416.997" x="312.991,316.281,319.571,322.861,326.151,327.502,329.112,332.402,335.692,338.982,342.272,343.623,345.233,348.796,352.1,355.404,358.575,361.879,363.363,364.973,368.144,371.448,374.745,376.355,379.134,382.305,387.03,389.032,392.07,395.374,398.027,400.806,402.157,403.767,407.057,410.347,413.637,416.997" y="437.785" style="fill:#171615;font-family:MPGBTK+FrutigerLTPro-Condensed;font-size:7.0px;font-style:NORMAL;font-weight:normal;">2017, 2018; Rohani and Lawrence, 2017 </text>
  <text x="443.387,447.076,450.247,455.231,458.269,460.789,462.399,465.437,467.439,469.049,472.22,473.319,474.929,476.28,477.89,481.18,484.47,487.76,491.05,494.221,495.572,497.182,501.396,504.434,507.738,510.391,512.911,516.215,517.825,520.996,524.3,527.597,529.207,533.155,534.639,537.943,540.988,542.409" y="437.785" svg_rhmargin="544.089" style="fill:#171615;font-family:MPGBTK+FrutigerLTPro-Condensed;font-size:7.0px;font-style:NORMAL;font-weight:normal;">Cames et al., 2015a; Gencsü and Hino, </text>
  <text x="443.387,446.677,449.967,453.257" y="446.787" svg_rhmargin="456.617" style="fill:#171615;font-family:MPGBTK+FrutigerLTPro-Condensed;font-size:7.0px;font-style:NORMAL;font-weight:normal;">2015</text>
  <text svg_rhmargin="99.379" x="59.64,62.412,65.912,68.894,72.527,76.16,79.919,81.739,85.498,89.257,91.077,94.059,97.559,99.37899999999999" y="473.534" style="fill:#171615;font-family:MPGBTK+FrutigerLTPro-BoldCn;font-size:7.0px;font-style:NORMAL;font-weight:bold;">Technological </text>
  <text x="111.853,114.443,117.551,120.274,123.648,127.022,128.576,131.299,134.54,136.094" y="473.534" svg_rhmargin="137.774" style="fill:#171615;font-family:MPGBTK+FrutigerLTPro-Condensed;font-size:7.0px;font-style:NORMAL;font-weight:normal;">Technical </text>
  <text svg_rhmargin="139.832" x="111.853,114.443,117.166,120.407,121.961,125.202,128.569,130.123,131.677,133.231,135.303,138.152,139.832" y="473.534" style="fill:#171615;font-family:MPGBTK+FrutigerLTPro-Condensed;font-size:7.0px;font-style:NORMAL;font-weight:normal;">scalability </text>
  <text x="182.595,185.899,188.937,192.241,196.966,200.27,202.272,204.274,207.578,210.357,211.967,215.138,218.442,221.739,223.349,226.387,229.04,232.344,233.828,235.312,236.796,239.834,241.199,242.55,244.16,247.45,250.74,254.03,257.32,258.671,259.896,262.885,266.056,269.36,272.657,275.695,278.866,280.476,283.647,286.951,290.318" y="473.534" svg_rhmargin="291.998" style="fill:#171615;font-family:MPGBTK+FrutigerLTPro-Condensed;font-size:7.0px;font-style:NORMAL;font-weight:normal;">Kenworthy and Schiller, 2018; Yangka and </text>
  <text svg_rhmargin="278.215" x="182.595,186.809,189.847,194.572,199.556,202.727,206.031,207.382,208.992,212.282,215.572,218.862,222.152,223.503,225.113,228.676,230.027,231.637,234.808,238.112,241.283,244.587,247.884,249.494,252.532,254.534,256.144,259.315,260.414,262.024,263.375,264.985,268.275,271.565,274.855,278.21500000000003" y="469.033" style="fill:#171615;font-family:MPGBTK+FrutigerLTPro-Condensed;font-size:7.0px;font-style:NORMAL;font-weight:normal;">Newman, 2018; R. Zhang et al., 2018 </text>
  <text x="312.991,317.205,320.243,324.968,329.952,333.123,336.427,338.037,341.208,344.512,347.809,349.419,352.723,355.761,359.065,363.79,367.094,369.096,371.098,374.402,377.181,378.532,380.142,383.432,386.722,390.012,393.302,394.723" y="469.033" svg_rhmargin="396.403" style="fill:#171615;font-family:MPGBTK+FrutigerLTPro-Condensed;font-size:7.0px;font-style:NORMAL;font-weight:normal;">Newman and Kenworthy, 2015; </text>
  <text x="312.991,318.367,321.538,323.54,326.711,330.015,331.625,334.796,338.1,341.397,343.007,347.221,350.259,354.984,359.968,363.139,366.443,367.794,369.404,372.694,375.984,379.274,382.564,383.915,385.525,389.088,392.126,393.61,396.13,397.74,400.778,402.85" y="478.035" svg_rhmargin="404.53" style="fill:#171615;font-family:MPGBTK+FrutigerLTPro-Condensed;font-size:7.0px;font-style:NORMAL;font-weight:normal;">Matan and Newman, 2016; Reis et </text>
  <text svg_rhmargin="394.744" x="312.991,316.162,317.261,318.871,320.222,321.832,325.122,328.412,331.702,334.992,336.343,337.953,340.991,342.993,346.031,348.943,351.981,355.285,357.805,361.109,364.413,366.023,369.061,371.063,372.673,375.844,376.943,378.553,379.904,381.514,384.804,388.094,391.384,394.744" y="473.534" style="fill:#171615;font-family:MPGBTK+FrutigerLTPro-Condensed;font-size:7.0px;font-style:NORMAL;font-weight:normal;">al., 2016; Stevenson et al., 2016 </text>
  <text x="443.387,447.335,450.373,452.893,455.413,458.451,461.755,464.275,465.885,468.923,470.925,472.535,475.706,476.805,478.415,479.766,481.376,484.666,487.956,491.246,494.536,495.887,497.497,501.711,504.749,508.053,510.706,513.226,516.53,518.14,521.311,524.615,527.912,529.522,533.47,534.954,538.258,541.304,542.724" y="473.534" svg_rhmargin="544.404" style="fill:#171615;font-family:MPGBTK+FrutigerLTPro-Condensed;font-size:7.0px;font-style:NORMAL;font-weight:normal;">Dessens et al., 2014; Gencsü and Hino, </text>
  <text x="443.387,446.677,449.967,453.257" y="482.536" svg_rhmargin="456.617" style="fill:#171615;font-family:MPGBTK+FrutigerLTPro-Condensed;font-size:7.0px;font-style:NORMAL;font-weight:normal;">2015</text>
  <text svg_rhmargin="134.54" x="111.86,117.306,120.547,122.619,125.993,128.065,129.619,131.691,134.54" y="504.782" style="fill:#171615;font-family:MPGBTK+FrutigerLTPro-Condensed;font-size:7.0px;font-style:NORMAL;font-weight:normal;">Maturity </text>
  <text x="182.602,186.816,189.854,194.579,199.563,202.734,206.038,207.648,210.686,212.688,214.298,217.469,218.568,220.178,221.529,223.139,226.429,229.719,233.009,236.299,237.65,239.26,242.564,245.602,248.906,253.631,256.935,258.937,260.939,264.243,267.092" y="504.782" svg_rhmargin="268.772" style="fill:#171615;font-family:MPGBTK+FrutigerLTPro-Condensed;font-size:7.0px;font-style:NORMAL;font-weight:normal;">Newman et al., 2017; Kenworthy </text>
  <text svg_rhmargin="228.025" x="182.602,185.773,189.077,192.374,193.984,197.022,199.675,202.979,204.463,205.947,207.431,210.469,211.834,213.185,214.795,218.085,221.375,224.665,228.025" y="500.281" style="fill:#171615;font-family:MPGBTK+FrutigerLTPro-Condensed;font-size:7.0px;font-style:NORMAL;font-weight:normal;">and Schiller, 2018 </text>
  <text x="312.998,317.282,320.39,325.185,330.239,333.48,336.854,338.534,341.642,343.714,345.394,348.635,349.804,351.484,352.905,354.585,357.945,361.305,364.665,368.025,369.445,371.125,374.485,377.845,381.205,384.565,385.986,387.666,393.112,396.353,398.425,401.666,405.04" y="500.281" svg_rhmargin="406.72" style="fill:#171615;font-family:MPGBTK+FrutigerLTPro-Condensed;font-size:7.0px;font-style:NORMAL;font-weight:normal;">Newman et al., 2015, 2017; Matan </text>
  <text x="312.998,316.239,319.613,322.98,324.66,328.944,332.052,336.847,341.901,345.142,348.516,349.937,351.617,354.977,358.337,361.697,365.057,366.478,368.158,371.266,373.338,376.446,379.428,382.536,385.91,388.5,391.874,395.247,396.927,400.035,402.107" y="509.283" svg_rhmargin="403.787" style="fill:#171615;font-family:MPGBTK+FrutigerLTPro-Condensed;font-size:7.0px;font-style:NORMAL;font-weight:normal;">and Newman, 2016; Stevenson et </text>
  <text svg_rhmargin="387.659" x="312.998,316.239,317.408,319.088,320.509,322.189,325.549,328.909,332.269,335.629,337.05,338.73,340.935,344.043,347.417,350.007,353.115,356.489,358.169,361.277,363.349,365.029,368.27,369.438,371.118,372.539,374.219,377.579,380.939,384.299,387.659" y="509.283" style="fill:#171615;font-family:MPGBTK+FrutigerLTPro-Condensed;font-size:7.0px;font-style:NORMAL;font-weight:normal;">al., 2016; Jensen et al., 2017 </text>
  <text x="443.394,447.153,450.527,452.599,455.966,459.074,461.146,463.218,464.898,468.006,470.078,471.758,474.999,476.168,477.848,479.269,480.949,484.309,487.669,491.029,494.388,495.809,497.489,501.248,504.489,509.543,512.651,515.241,516.921,520.029,522.101,523.781,527.022,528.19,529.87,531.291,532.971,536.331,539.691,543.051,546.411" y="509.283" svg_rhmargin="549.778" style="fill:#171615;font-family:MPGBTK+FrutigerLTPro-Condensed;font-size:7.0px;font-style:NORMAL;font-weight:normal;">Corbett et al., 2009; Cames et al., 2015b</text>
  <text svg_rhmargin="137.256" x="111.867,114.975,116.529,121.583,124.95,126.504,128.058,130.781,132.335,134.407,137.256" y="536.03" style="fill:#171615;font-family:MPGBTK+FrutigerLTPro-Condensed;font-size:7.0px;font-style:NORMAL;font-weight:normal;">Simplicity </text>
  <text x="182.609,186.893,190.001,194.796,199.85,203.091,206.465,208.145,211.253,213.325,215.005,218.246,219.415,221.095,222.516,224.196,227.556,230.916,234.276,237.636,239.057,240.737,244.111,247.219,250.593,255.388,258.762,260.834,262.906,266.28,269.129" y="536.03" svg_rhmargin="270.809" style="fill:#171615;font-family:MPGBTK+FrutigerLTPro-Condensed;font-size:7.0px;font-style:NORMAL;font-weight:normal;">Newman et al., 2017; Kenworthy </text>
  <text svg_rhmargin="229.222" x="182.609,185.85,189.224,192.591,194.271,197.379,200.102,203.476,205.03,206.584,208.138,211.246,212.681,214.102,215.782,219.142,222.502,225.862,229.222" y="531.529" style="fill:#171615;font-family:MPGBTK+FrutigerLTPro-Condensed;font-size:7.0px;font-style:NORMAL;font-weight:normal;">and Schiller, 2018 </text>
  <text x="313.005,318.451,321.692,323.764,327.005,330.379,332.059,335.3,338.674,342.041,343.721,348.005,351.113,355.908,360.962,364.203,367.577,368.998,370.678,374.038,377.398,380.758,384.118,385.539,387.219,390.852,394.092,395.646,398.754" y="531.529" svg_rhmargin="400.434" style="fill:#171615;font-family:MPGBTK+FrutigerLTPro-Condensed;font-size:7.0px;font-style:NORMAL;font-weight:normal;">Matan and Newman, 2016; Rajé </text>
  <text x="313.005,316.246,319.62,322.987,324.667,327.775,331.016,332.962,334.908,336.98,340.088,342.937,344.358,346.038,349.398,352.758,356.118,359.478,360.899,362.579,365.687,367.759,370.867,373.849,376.957,380.331,382.921,386.295,389.669,391.349,394.457,396.529" y="540.531" svg_rhmargin="398.209" style="fill:#171615;font-family:MPGBTK+FrutigerLTPro-Condensed;font-size:7.0px;font-style:NORMAL;font-weight:normal;">and Saffrey, 2016; Stevenson et </text>
  <text svg_rhmargin="389.962" x="313.005,316.246,317.415,319.095,320.516,322.196,325.556,328.916,332.276,335.636,337.057,338.737,341.586,343.14,345.212,350.266,353.507,356.881,358.301,359.981,363.341,366.701,370.061,373.421,374.842,376.522,379.882,383.242,386.602,389.962" y="540.531" style="fill:#171615;font-family:MPGBTK+FrutigerLTPro-Condensed;font-size:7.0px;font-style:NORMAL;font-weight:normal;">al., 2016; Litman, 2017, 2018 </text>
  <text x="429.268,432.117,435.358,443.401,447.419,450.527,453.117,455.707,458.815,462.189,464.779,466.459,469.567,471.639,473.319,476.56,477.729,479.409,480.83,482.51,485.87,489.23,492.59,495.949" y="540.531" svg_rhmargin="497.629" style="fill:#171615;font-family:MPGBTK+FrutigerLTPro-Condensed;font-size:7.0px;font-style:NORMAL;font-weight:normal;">LE Dessens et al., 2014 </text>
  <text svg_rhmargin="153.846" x="111.874,115.892,119.259,121.849,124.957,128.331,131.054,134.162,135.842,139.216,141.162,142.842,144.914,146.468,149.058,152.166,153.846" y="563.078" style="fill:#171615;font-family:MPGBTK+FrutigerLTPro-Condensed;font-size:7.0px;font-style:NORMAL;font-weight:normal;">Absence of risk </text>
  <text x="182.616,188.062,191.436,194.81,198.051,203.105,206.213,209.58,211.26,214.368,216.44,218.12,221.361,222.53,224.21,225.631,227.311,230.671,234.031,237.391,240.751,242.172,243.852,247.226,250.334,253.708,258.503,261.877,263.949,266.021,269.395,272.244" y="563.078" svg_rhmargin="273.924" style="fill:#171615;font-family:MPGBTK+FrutigerLTPro-Condensed;font-size:7.0px;font-style:NORMAL;font-weight:normal;">Mohamed et al., 2017; Kenworthy </text>
  <text svg_rhmargin="229.229" x="182.616,185.857,189.231,192.598,194.278,197.386,200.109,203.483,205.037,206.591,208.145,211.253,212.688,214.109,215.789,219.149,222.509,225.869,229.229" y="563.078" style="fill:#171615;font-family:MPGBTK+FrutigerLTPro-Condensed;font-size:7.0px;font-style:NORMAL;font-weight:normal;">and Schiller, 2018 </text>
  <text x="313.012,318.458,321.699,323.771,327.012,330.386,332.066,335.307,338.681,342.048,343.728,348.012,351.12,355.915,360.969,364.21,367.584,369.005,370.685,374.045,377.405,380.765,384.125,385.546,387.225,390.333,392.405,395.513,398.495,401.603,404.977,407.567,410.941,414.315,415.995,419.103,421.175" y="563.078" svg_rhmargin="422.855" style="fill:#171615;font-family:MPGBTK+FrutigerLTPro-Condensed;font-size:7.0px;font-style:NORMAL;font-weight:normal;">Matan and Newman, 2016; Stevenson et </text>
  <text svg_rhmargin="418.158" x="313.012,316.253,317.422,319.102,320.523,322.203,325.563,328.923,332.283,335.643,337.064,338.744,341.593,344.967,348.341,353.395,356.636,360.01,363.384,365.064,368.305,371.679,375.046,376.726,381.01,384.251,386.841,390.208,393.449,395.521,397.075,400.449,401.617,403.038,404.718,408.078,411.438,414.798,418.158" y="567.579" style="fill:#171615;font-family:MPGBTK+FrutigerLTPro-Condensed;font-size:7.0px;font-style:NORMAL;font-weight:normal;">al., 2016; Lohmann and Gasparini, 2017 </text>
  <text x="429.275,432.124,435.365,443.408,447.426,450.534,453.124,455.714,458.822,462.196,464.786,466.466,469.574,471.646,473.326,476.567,477.736,479.416,480.837,482.517,485.877,489.237,492.596" y="567.579" svg_rhmargin="495.956" style="fill:#171615;font-family:MPGBTK+FrutigerLTPro-Condensed;font-size:7.0px;font-style:NORMAL;font-weight:normal;">LE Dessens et al., 2014</text>
  <text svg_rhmargin="95.291" x="63.77,65.716,69.349,72.198,74.662,78.295,80.759,82.579,86.338,89.971,93.471,95.291" y="599.1279999999999" style="fill:#171615;font-family:MPGBTK+FrutigerLTPro-BoldCn;font-size:7.0px;font-style:NORMAL;font-weight:bold;">Instutional </text>
  <text x="111.874,114.982,118.356,119.91,121.464,123.536,125.09,127.813,131.054,132.608" y="599.1279999999999" svg_rhmargin="134.288" style="fill:#171615;font-family:MPGBTK+FrutigerLTPro-Condensed;font-size:7.0px;font-style:NORMAL;font-weight:normal;">Political </text>
  <text svg_rhmargin="145.299" x="111.874,115.115,117.838,120.561,123.669,127.036,129.108,132.349,135.716,137.27,138.824,140.378,142.45,145.29899999999998" y="585.6320000000001" style="fill:#171615;font-family:MPGBTK+FrutigerLTPro-Condensed;font-size:7.0px;font-style:NORMAL;font-weight:normal;">acceptability </text>
  <text x="182.616,188.062,191.436,194.81,198.051,203.105,206.213,209.58,211.26,214.368,216.44,218.12,221.361,222.53,224.21,225.631,227.311,230.671,234.031,237.391,240.751,242.172,243.467,249.039,250.593,252.147,255.388,258.237,261.478,263.158,266.266,268.338" y="585.6320000000001" svg_rhmargin="270.018" style="fill:#171615;font-family:MPGBTK+FrutigerLTPro-Condensed;font-size:7.0px;font-style:NORMAL;font-weight:normal;">Mohamed et al., 2017; Wijaya et </text>
  <text x="182.616,185.857,187.026,188.706,190.127,191.807,195.167,198.527,201.887,205.247,206.668,208.348,212.632,215.873,219.247,220.927,224.168,227.542,230.909,232.589,236.873,239.981,244.776,249.83,253.071,256.445,257.866,259.546,262.906,266.266,269.625,272.985,274.406" y="594.634" svg_rhmargin="276.086" style="fill:#171615;font-family:MPGBTK+FrutigerLTPro-Condensed;font-size:7.0px;font-style:NORMAL;font-weight:normal;">al., 2017; Gao and Newman, 2018; </text>
  <text x="182.616,186.9,188.454,191.695,194.418,197.526,200.893,202.965,206.339,209.713,212.821,214.501,217.742,221.116,224.483,226.163,230.447,233.555,238.35,243.404,246.645,250.019,251.439,253.119,256.479,259.839,263.199,266.559,267.98" y="603.636" svg_rhmargin="269.66" style="fill:#171615;font-family:MPGBTK+FrutigerLTPro-Condensed;font-size:7.0px;font-style:NORMAL;font-weight:normal;">Glazebrook and Newman, 2018; </text>
  <text x="182.616,185.99,189.098,192.472,197.267,200.641,202.713,204.785,208.159,211.008,212.688,215.929,219.303,222.67,224.35,227.458,230.181,233.555,235.109,236.663,238.217,241.325,242.759,244.18,245.86,249.22,252.58,255.94,259.3,260.721,262.401,265.509,268.883,272.124,274.196,279.25,282.491,283.912" y="612.638" svg_rhmargin="285.592" style="fill:#171615;font-family:MPGBTK+FrutigerLTPro-Condensed;font-size:7.0px;font-style:NORMAL;font-weight:normal;">Kenworthy and Schiller, 2018; Sharma, </text>
  <text svg_rhmargin="271.901" x="182.616,185.976,189.336,192.696,196.056,197.477,198.772,201.831,205.072,208.446,211.813,214.921,218.162,219.842,223.083,226.457,229.824,231.504,235.788,238.896,243.691,248.745,251.986,255.36,256.781,258.461,261.821,265.181,268.541,271.901" y="590.14" style="fill:#171615;font-family:MPGBTK+FrutigerLTPro-Condensed;font-size:7.0px;font-style:NORMAL;font-weight:normal;">2018; Yangka and Newman, 2018 </text>
  <text x="313.012,317.296,320.404,325.199,330.253,333.494,336.868,338.548,341.789,345.163,348.53,350.21,353.584,356.692,360.066,364.861,368.235,370.307,372.379,375.753,378.602,380.023,381.703,385.063,388.423,391.783,395.142,396.563,398.243,402.527,404.081,405.635,408.743,411.333" y="590.14" svg_rhmargin="413.405" style="fill:#171615;font-family:MPGBTK+FrutigerLTPro-Condensed;font-size:7.0px;font-style:NORMAL;font-weight:normal;">Newman and Kenworthy, 2015; Giles-</text>
  <text x="313.012,316.771,320.145,322.217,324.289,325.843,327.523,330.631,332.703,334.383,337.624,338.793,340.473,341.894,343.574,346.934,350.293,353.653,357.013,358.434,360.114,365.56,368.801,370.873,374.114,377.488,379.168,382.409,385.783,389.15,390.83,395.114,398.222,403.017,408.071,411.312,414.686,416.107" y="599.142" svg_rhmargin="417.787" style="fill:#171615;font-family:MPGBTK+FrutigerLTPro-Condensed;font-size:7.0px;font-style:NORMAL;font-weight:normal;">Corti et al., 2016; Matan and Newman, </text>
  <text x="313.012,316.372,319.732,323.092,326.452,327.873,329.553,331.758,334.866,338.24,340.83,343.938,347.312,348.992,352.1,354.172,355.852,359.093,360.261,361.941,363.362,365.042,368.402,371.762,375.122,378.482,379.903,381.583,384.432,385.986,388.058,393.112,396.353,399.727,401.148" y="608.144" svg_rhmargin="402.828" style="fill:#171615;font-family:MPGBTK+FrutigerLTPro-Condensed;font-size:7.0px;font-style:NORMAL;font-weight:normal;">2016; Jensen et al., 2017; Litman, </text>
  <text svg_rhmargin="403.185" x="313.012,316.372,319.732,323.092,326.452,327.873,329.553,332.913,336.273,339.633,342.993,344.414,346.094,351.54,354.263,358.022,361.396,363.986,366.834,369.942,372.014,373.694,376.802,378.874,380.554,383.795,384.964,386.644,388.065,389.745,393.105,396.465,399.825,403.185" y="599.149" style="fill:#171615;font-family:MPGBTK+FrutigerLTPro-Condensed;font-size:7.0px;font-style:NORMAL;font-weight:normal;">2017, 2018; McCosker et al., 2018 </text>
  <text x="443.408,446.516,451.57,454.811,456.365,459.473,461.153,464.261,466.333,468.013,471.254,472.423,474.103,475.524,477.204,480.564,483.923,487.283,490.643,492.064,493.744,497.377,500.751,505.546,508.136,510.208,513.057,516.298,518.37,521.478,523.032,526.406,527.827,529.507,532.867,536.227,539.587,542.947,544.368" y="599.149" svg_rhmargin="546.048" style="fill:#171615;font-family:MPGBTK+FrutigerLTPro-Condensed;font-size:7.0px;font-style:NORMAL;font-weight:normal;">Smale et al., 2012; Bows-Larkin, 2015; </text>
  <text x="443.408,446.516,448.07,450.919,454.293,456.365,458.955,462.063,465.304,466.725,468.405,471.765,475.125,478.485,481.845,483.266,484.945,488.053,491.427,492.596,494.017,495.697,499.057,502.417,505.777,509.137,510.558,512.238,515.479,518.853,522.094,525.469,528.836,530.256,531.936,535.296,538.656,542.016" y="608.1510000000001" svg_rhmargin="545.376" style="fill:#171615;font-family:MPGBTK+FrutigerLTPro-Condensed;font-size:7.0px;font-style:NORMAL;font-weight:normal;">Sikorska, 2015; Shi, 2016; Zhang, 2016</text>
  <text x="111.881,114.73,117.838,121.205,124.446,126.0,127.68,130.921,134.295,137.662,139.342,142.583,145.95,151.004,152.558,155.932" y="634.898" svg_rhmargin="158.004" style="fill:#171615;font-family:MPGBTK+FrutigerLTPro-Condensed;font-size:7.0px;font-style:NORMAL;font-weight:normal;">Legal and admin-</text>
  <text x="111.881,113.435,116.025,118.097,120.169,123.41,125.482,127.036,130.018,133.126" y="643.9" svg_rhmargin="134.806" style="fill:#171615;font-family:MPGBTK+FrutigerLTPro-Condensed;font-size:7.0px;font-style:NORMAL;font-weight:normal;">istrative </text>
  <text svg_rhmargin="145.306" x="111.881,115.122,117.845,120.568,123.676,127.043,129.115,132.356,135.723,137.277,138.831,140.385,142.457,145.30599999999998" y="639.399" style="fill:#171615;font-family:MPGBTK+FrutigerLTPro-Condensed;font-size:7.0px;font-style:NORMAL;font-weight:normal;">acceptability </text>
  <text x="182.623,185.997,189.105,192.479,197.274,200.648,202.72,204.792,208.166,211.015,212.695,215.936,219.31,222.677,224.357,227.465,230.188,233.562,235.116,236.67,238.224,241.332,242.766,244.187,245.867,249.227,252.587,255.947,259.307,260.728" y="639.399" svg_rhmargin="262.408" style="fill:#171615;font-family:MPGBTK+FrutigerLTPro-Condensed;font-size:7.0px;font-style:NORMAL;font-weight:normal;">Kenworthy and Schiller, 2018; </text>
  <text svg_rhmargin="255.752" x="182.623,185.682,188.923,192.297,195.664,198.772,202.013,203.693,206.934,210.308,213.675,215.355,219.639,222.747,227.542,232.596,235.837,239.211,240.632,242.312,245.672,249.032,252.392,255.752" y="639.399" style="fill:#171615;font-family:MPGBTK+FrutigerLTPro-Condensed;font-size:7.0px;font-style:NORMAL;font-weight:normal;">Yangka and Newman, 2018 </text>
  <text x="313.019,315.868,319.242,322.616,327.67,330.911,334.285,337.659,339.339,342.58,345.954,349.321,351.001,355.285,358.526,361.116,364.483,367.724,369.796,371.35,374.724,375.892,377.313,378.993,382.353,385.713,389.073,392.433,393.855" y="639.399" svg_rhmargin="395.535" style="fill:#171615;font-family:MPGBTK+FrutigerLTPro-Condensed;font-size:7.0px;font-style:NORMAL;font-weight:normal;">Lohmann and Gasparini, 2017; </text>
  <text svg_rhmargin="347.704" x="313.019,315.868,317.422,319.494,324.548,327.789,331.163,332.584,334.264,337.624,340.984,344.344,347.704" y="639.399" style="fill:#171615;font-family:MPGBTK+FrutigerLTPro-Condensed;font-size:7.0px;font-style:NORMAL;font-weight:normal;">Litman, 2018 </text>
  <text x="443.415,446.523,451.577,454.818,456.372,459.48,461.16,464.268,466.34,468.02,471.261,472.43,474.11,475.531,477.211,480.57,483.93,487.29,490.65,492.071,493.751,497.384,500.758,505.553,508.143,510.215,513.064,516.305,518.378,521.485,523.039,526.414,527.834,529.514,532.874,536.234,539.594,542.954,544.375" y="639.399" svg_rhmargin="546.055" style="fill:#171615;font-family:MPGBTK+FrutigerLTPro-Condensed;font-size:7.0px;font-style:NORMAL;font-weight:normal;">Smale et al., 2012; Bows-Larkin, 2015; </text>
  <text x="443.415,446.523,448.077,450.926,454.3,456.372,458.962,462.07,465.311,466.732,468.412,471.772,475.132,478.492,481.852,483.272,484.952,488.06,491.434,492.603,494.024,495.704,499.064,502.424,505.784,509.144,510.565,512.245,515.486,518.86,522.101,525.475,528.842,530.263,531.943,535.303,538.663,542.023" y="648.4010000000001" svg_rhmargin="545.383" style="fill:#171615;font-family:MPGBTK+FrutigerLTPro-Condensed;font-size:7.0px;font-style:NORMAL;font-weight:normal;">Sikorska, 2015; Shi, 2016; Zhang, 2016</text>
  <text x="111.888,113.582,116.956,119.546,121.618,123.172,125.244,128.618,130.69,132.244,135.618,138.992,142.233,143.787" y="666.153" svg_rhmargin="145.467" style="fill:#171615;font-family:MPGBTK+FrutigerLTPro-Condensed;font-size:7.0px;font-style:NORMAL;font-weight:normal;">Institutional </text>
  <text svg_rhmargin="133.658" x="111.888,114.611,117.852,121.219,124.46,127.183,128.737,130.809,133.658" y="666.153" style="fill:#171615;font-family:MPGBTK+FrutigerLTPro-Condensed;font-size:7.0px;font-style:NORMAL;font-weight:normal;">capacity </text>
  <text x="182.63,186.914,190.022,194.817,199.871,203.112,206.486,208.166,211.274,213.346,215.026,218.267,219.436,221.116,222.537,224.217,227.577,230.937,234.297,237.657,239.078,240.758,244.132,247.24,250.614,255.409,258.783,260.855,262.927,266.301,269.15" y="666.153" svg_rhmargin="270.83" style="fill:#171615;font-family:MPGBTK+FrutigerLTPro-Condensed;font-size:7.0px;font-style:NORMAL;font-weight:normal;">Newman et al., 2017; Kenworthy </text>
  <text svg_rhmargin="268.974" x="182.63,185.871,189.245,192.612,194.292,197.4,200.123,203.497,205.051,206.605,208.159,211.267,212.702,214.123,215.803,219.163,222.523,225.883,229.243,230.664,232.344,235.452,238.826,242.067,244.139,249.193,252.434,253.854,255.534,258.894,262.254,265.614,268.974" y="670.654" style="fill:#171615;font-family:MPGBTK+FrutigerLTPro-Condensed;font-size:7.0px;font-style:NORMAL;font-weight:normal;">and Schiller, 2018; Sharma, 2018 </text>
  <text svg_rhmargin="392.867" x="313.026,316.659,319.767,321.321,323.911,325.591,328.699,330.771,332.451,335.692,336.861,338.541,339.962,341.642,345.001,348.361,351.721,355.081,356.502,358.182,361.031,362.585,364.657,369.711,372.952,376.326,377.747,379.427,382.787,386.147,389.507,392.867" y="666.153" style="fill:#171615;font-family:MPGBTK+FrutigerLTPro-Condensed;font-size:7.0px;font-style:NORMAL;font-weight:normal;">Reis et al., 2016; Litman, 2018 </text>
  <text x="443.422,446.53,451.584,454.825,456.379,459.487,461.167,464.275,466.347,468.027,471.268,472.437,474.117,475.538,477.217,480.577,483.937,487.297,490.657,492.078,493.758,497.391,500.765,505.56,508.15,510.222,513.071,516.312,518.384,521.492,523.046,526.42,527.841,529.521,532.881,536.241,539.601,542.961,544.382" y="666.153" svg_rhmargin="546.062" style="fill:#171615;font-family:MPGBTK+FrutigerLTPro-Condensed;font-size:7.0px;font-style:NORMAL;font-weight:normal;">Smale et al., 2012; Bows-Larkin, 2015; </text>
  <text x="443.422,446.53,448.084,450.933,454.307,456.379,458.969,462.077,465.318,466.739,468.419,471.779,475.139,478.499,481.858,483.279,484.959,488.067,491.441,492.61,494.031,495.711,499.071,502.431,505.791,509.151,510.572,512.252,515.493,518.867,522.108,525.482,528.849,530.27,531.95,535.31,538.67,542.03" y="675.155" svg_rhmargin="545.39" style="fill:#171615;font-family:MPGBTK+FrutigerLTPro-Condensed;font-size:7.0px;font-style:NORMAL;font-weight:normal;">Sikorska, 2015; Shi, 2016; Zhang, 2016</text>
  <text x="111.895,114.485,116.557,119.798,123.172,125.762,129.129,132.37,134.442,137.55,140.924,143.647,146.496,148.176,151.417,154.791,158.158" y="688.406" svg_rhmargin="159.838" style="fill:#171615;font-family:MPGBTK+FrutigerLTPro-Condensed;font-size:7.0px;font-style:NORMAL;font-weight:normal;">Transparency and </text>
  <text x="111.895,115.136,117.859,120.582,123.956,127.33,130.704,132.776,136.017,139.384,140.938,142.492,144.046,146.118,148.967" y="697.408" svg_rhmargin="150.647" style="fill:#171615;font-family:MPGBTK+FrutigerLTPro-Condensed;font-size:7.0px;font-style:NORMAL;font-weight:normal;">accountability </text>
  <text svg_rhmargin="135.611" x="111.895,115.262,118.636,120.708,123.816,127.19,129.262,130.816,134.057,135.611" y="697.408" style="fill:#171615;font-family:MPGBTK+FrutigerLTPro-Condensed;font-size:7.0px;font-style:NORMAL;font-weight:normal;">potential </text>
  <text svg_rhmargin="174.594" x="168.504,171.353,174.59400000000002" y="692.907" style="fill:#171615;font-family:MPGBTK+FrutigerLTPro-Condensed;font-size:7.0px;font-style:NORMAL;font-weight:normal;">LE </text>
  <text x="182.637,186.27,189.644,193.018,194.964,196.644,199.885,203.259,206.626,208.306,210.973,214.214,215.768,218.75,220.822,223.93,225.61,229.628,231.308,234.549,236.621,239.344,240.898,244.006,245.44,246.861,248.541,251.901,255.261,258.621,261.981,263.402" y="692.907" svg_rhmargin="265.082" style="fill:#171615;font-family:MPGBTK+FrutigerLTPro-Condensed;font-size:7.0px;font-style:NORMAL;font-weight:normal;">Bouf and Faivre D’arcier, 2015; </text>
  <text svg_rhmargin="259.321" x="182.637,186.011,189.119,192.493,197.288,200.662,202.734,204.806,208.18,211.029,212.709,215.95,219.324,222.691,224.371,227.479,230.202,233.576,235.13,236.684,238.238,241.346,242.78,244.201,245.881,249.241,252.601,255.961,259.321" y="692.907" style="fill:#171615;font-family:MPGBTK+FrutigerLTPro-Condensed;font-size:7.0px;font-style:NORMAL;font-weight:normal;">Kenworthy and Schiller, 2018 </text>
  <text x="313.033,317.317,320.425,325.22,330.274,333.515,336.889,338.569,341.81,345.184,348.551,350.231,353.605,356.713,360.087,364.882,368.256,370.328,372.4,375.774,378.623,380.044,381.724,385.083,388.443,391.803,395.163,396.584,398.264,403.71,406.951,409.023,412.264,415.638" y="692.907" svg_rhmargin="417.318" style="fill:#171615;font-family:MPGBTK+FrutigerLTPro-Condensed;font-size:7.0px;font-style:NORMAL;font-weight:normal;">Newman and Kenworthy, 2015; Matan </text>
  <text svg_rhmargin="394.197" x="313.033,316.274,319.648,323.015,324.695,328.979,332.087,336.882,341.936,345.177,348.551,349.972,351.652,355.012,358.372,361.732,365.091,366.512,368.192,371.041,374.282,377.656,379.077,380.757,384.117,387.477,390.837,394.197" y="692.907" style="fill:#171615;font-family:MPGBTK+FrutigerLTPro-Condensed;font-size:7.0px;font-style:NORMAL;font-weight:normal;">and Newman, 2016; Lah, 2017 </text>
  <text x="443.429,446.537,451.591,454.832,456.386,459.494,461.174,464.282,466.354,468.034,471.275,472.444,474.124,475.544,477.224,480.584,483.944,487.304,490.664,492.085,493.765,497.398,500.772,505.567,508.157,510.229,513.078,516.319,518.391,521.499,523.053,526.427,527.848,529.528,532.888,536.248,539.608,542.968,544.389" y="692.907" svg_rhmargin="546.069" style="fill:#171615;font-family:MPGBTK+FrutigerLTPro-Condensed;font-size:7.0px;font-style:NORMAL;font-weight:normal;">Smale et al., 2012; Bows-Larkin, 2015; </text>
  <text x="443.429,446.537,448.091,450.94,454.314,456.386,458.976,462.084,465.325,466.746,468.426,471.786,475.146,478.505,481.865,483.286,484.966,488.074,491.448,492.617,494.038,495.718,499.078,502.438,505.798,509.158,510.579,512.259,515.5,518.874,522.115,525.489,528.856,530.277,531.957,535.317,538.677,542.037" y="701.909" svg_rhmargin="545.397" style="fill:#171615;font-family:MPGBTK+FrutigerLTPro-Condensed;font-size:7.0px;font-style:NORMAL;font-weight:normal;">Sikorska, 2015; Shi, 2016; Zhang, 2016</text>
 </g>
</svg>
