<?xml version="1.0" encoding="UTF-8"?>
<svg height="781.509" width="636.9986572265625" xmlns="http://www.w3.org/2000/svg">
 <g style="fill:none;">
  <text x="533.862,538.282,542.532,549.459,552.137,556.557" y="771.509" svg_rhmargin="560.977" style="fill:#171615;font-family:MPGBTK+FrutigerLTPro-BoldCn;font-size:8.5px;font-style:NORMAL;font-weight:bold;">4SM-41</text>
  <text svg_rhmargin="560.692" x="56.693,61.257,64.564,67.717,72.282,77.008,81.887,85.193,89.919,94.484,99.21,101.573,106.299,111.178,113.388,117.952,122.678,127.557,129.767,132.283,139.372,144.251,146.614,151.179,158.268,162.832,167.558,170.865,173.228,177.954,182.833,185.043,188.349,193.075,197.64,199.85,205.519,207.882,212.761,217.64,222.205,224.568,226.778,231.818,236.383,240.004,244.883,249.762,254.488,258.109,262.673,264.883,523.836,528.715,533.441,538.005,542.885,546.191,550.756,554.062,556.272,560.692" y="444.519" style="fill:#4c8ecf;font-family:XUSYQO+FrutigerLTPro-BlackCn;font-size:8.5px;font-style:NORMAL;font-weight:bold;">Strengthening and Implementing the Global Response Chapter 4 </text>
  <path d=" M -587.1505737304688 339.59051513671875 C -587.1505737304688 339.59051513671875 -575.1505737304688 339.59051513671875 -575.1505737304688 351.59051513671875 L -575.1505737304688 426.51953125 C -575.1505737304688 426.51953125 -575.1505737304688 438.51953125 -587.1505737304688 438.51953125 L -627.0005493164062 438.51953125 L -627.0005493164062 339.59051513671875 Z " style="fill:none;stroke:#000000;stroke-width:1.0;"/>
  <path d=" M 587.148681640625 438.51971435546875 C 587.148681640625 438.51971435546875 575.148681640625 438.51971435546875 575.148681640625 426.51971435546875 L 575.148681640625 351.5906982421875 C 575.148681640625 351.5906982421875 575.148681640625 339.5906982421875 587.148681640625 339.5906982421875 L 626.9986572265625 339.5906982421875 L 626.9986572265625 438.51971435546875 Z " style="fill:none;stroke:#000000;stroke-width:1.0;"/>
  <text svg_rhmargin="-582.207" x="581.497,585.657,589.953,-597.479,-593.319,-589.023,-582.207" y="65.024" style="fill:#ffffff;font-family:XUSYQO+FrutigerLTPro-BlackCn;font-size:8.0px;font-style:NORMAL;font-weight:bold;">4SM4SM </text>
  <text svg_rhmargin="137.949" x="56.693,59.645,63.349,67.197,68.973,72.525,74.445,78.285,80.205,83.757,89.981,91.901,95.741,99.581,101.501,103.725,106.837,110.693,114.549,116.917,118.693,122.549,126.405,129.957,133.805,136.029,137.94899999999998" y="93.99099999999999" style="fill:#192a53;font-family:MPGBTK+FrutigerLTPro-CondensedIta;font-size:8.0px;font-style:NORMAL;font-weight:normal;">Table 4.SM.23 (continued) </text>
  <path d=" M 170.20399475097656 721.0089721679688 L 267.9989929199219 721.0089721679688 L 267.9989929199219 697.0089721679688 L 170.20399475097656 697.0089721679688 Z M 267.9989929199219 721.0089721679688 L 365.79400634765625 721.0089721679688 L 365.79400634765625 697.0089721679688 L 267.9989929199219 697.0089721679688 Z M 365.79400634765625 721.0089721679688 L 463.5889892578125 721.0089721679688 L 463.5889892578125 697.0089721679688 L 365.79400634765625 697.0089721679688 Z M 463.5899963378906 721.0089721679688 L 561.385009765625 721.0089721679688 L 561.385009765625 697.0089721679688 L 463.5899963378906 697.0089721679688 Z M 56.81800079345703 669.7589721679688 L 113.51100158691406 669.7589721679688 L 113.51100158691406 506.50897216796875 L 56.81800079345703 506.50897216796875 Z " style="fill:none;stroke:#000000;stroke-width:1.0;"/>
  <path d=" M 463.5899963378906 669.7589721679688 L 477.76300048828125 669.7589721679688 L 477.76300048828125 637.5089721679688 L 463.5899963378906 637.5089721679688 Z " style="fill:none;stroke:#000000;stroke-width:1.0;"/>
  <path d=" M 170.20399475097656 595.7589721679688 L 184.3769989013672 595.7589721679688 L 184.3769989013672 506.50897216796875 L 170.20399475097656 506.50897216796875 Z M 365.79400634765625 595.7589721679688 L 379.9670104980469 595.7589721679688 L 379.9670104980469 506.50897216796875 L 365.79400634765625 506.50897216796875 Z " style="fill:none;stroke:#000000;stroke-width:1.0;"/>
  <path d=" M 463.5899963378906 595.7589721679688 L 477.76300048828125 595.7589721679688 L 477.76300048828125 506.50897216796875 L 463.5899963378906 506.50897216796875 Z " style="fill:none;stroke:#000000;stroke-width:1.0;"/>
  <text svg_rhmargin="258.53" x="179.674,183.674,187.97,192.122,195.53,199.53,202.346,204.426,208.722,212.874,214.954,218.954,223.106,227.402,229.482,233.034,237.034,241.034,243.85,248.002,250.082,254.234,258.53000000000003" y="88.99099999999999" style="fill:#171615;font-family:MPGBTK+FrutigerLTPro-BoldCn;font-size:8.0px;font-style:NORMAL;font-weight:bold;">Education and Learning </text>
  <text x="286.874,290.73,295.026,299.322,303.474,305.554,309.554,312.37,314.45,318.746,322.898,324.978,329.866,333.866,337.866,339.946,342.762,346.914" y="88.99099999999999" svg_rhmargin="348.994" style="fill:#171615;font-family:MPGBTK+FrutigerLTPro-BoldCn;font-size:8.0px;font-style:NORMAL;font-weight:bold;">Population Health </text>
  <text svg_rhmargin="348.162" x="285.618,289.618,293.77,298.066,300.146,305.034,309.034,313.034,315.114,317.93,322.082,324.162,328.162,331.866,335.122,337.938,341.938,348.162" y="93.99099999999999" style="fill:#171615;font-family:MPGBTK+FrutigerLTPro-BoldCn;font-size:8.0px;font-style:NORMAL;font-weight:bold;">and Health System </text>
  <text x="384.45,388.45,392.746,396.154,398.234,402.234,404.314,406.394,410.394,414.394,417.058,421.058,423.874,427.578,429.658,434.842,438.842,441.658,444.914,483.242,488.13,492.282,498.506,502.506,506.658,508.738,515.258,517.338,521.634,524.37,528.37,531.186,533.266,537.562" y="93.99099999999999" svg_rhmargin="541.714" style="fill:#171615;font-family:MPGBTK+FrutigerLTPro-BoldCn;font-size:8.0px;font-style:NORMAL;font-weight:bold;">Social Safety Nets Human Migration</text>
  <text x="130.129,133.37,136.352,137.906,141.273,144.381,147.755,150.478,153.586,208.151,213.597,216.705,220.072,221.626,225.0,230.054,305.948,311.394,314.502,317.869,319.423,322.797,327.851,403.745,409.191,412.299,415.666,417.22,420.594,425.64799999999997,501.542,506.988,510.096,513.463,515.017,518.391" y="112.61599999999999" svg_rhmargin="523.445" style="fill:#171615;font-family:MPGBTK+FrutigerLTPro-Condensed;font-size:7.0px;font-style:NORMAL;font-weight:normal;">Evidence Medium Medium Medium Medium</text>
  <text x="127.224,131.242,134.609,136.681,139.789,142.897,147.951,151.059,154.433,156.505,212.953,216.971,218.525,221.892,225.266,310.75,314.768,316.322,319.689,323.06300000000005,403.752,409.198,412.306,415.673,417.227,420.601,425.655,506.988,509.837,513.211" y="126.23800000000006" svg_rhmargin="518.006" style="fill:#171615;font-family:MPGBTK+FrutigerLTPro-Condensed;font-size:7.0px;font-style:NORMAL;font-weight:normal;">Agreement High High Medium Low</text>
  <text svg_rhmargin="102.871" x="67.472,72.008,75.508,79.267,83.026,86.659,89.9,92.749,94.569,97.551,101.051,102.871" y="148.98800000000006" style="fill:#171615;font-family:MPGBTK+FrutigerLTPro-BoldCn;font-size:7.0px;font-style:NORMAL;font-weight:bold;">Geophysical </text>
  <text svg_rhmargin="165.836" x="117.515,120.882,124.256,127.105,129.695,131.249,133.972,137.213,138.767,140.447,142.393,145.501,148.742,151.332,152.886,156.253,157.807,159.361,160.915,162.987,165.83599999999998" y="149.36599999999999" style="fill:#171615;font-family:MPGBTK+FrutigerLTPro-Condensed;font-size:7.0px;font-style:NORMAL;font-weight:normal;">Physical feasibility </text>
  <text svg_rhmargin="377.618" x="172.546,177.442,182.03400000000002,270.339,275.234,279.82599999999996,368.13,373.026,377.618" y="139.49099999999999" style="fill:#171615;font-family:MPGBTK+FrutigerLTPro-Condensed;font-size:8.0px;font-style:NORMAL;font-weight:normal;">NA NA NA </text>
  <text x="481.763,485.977,487.461,490.373,493.411,496.715,498.325,501.496,504.8,508.097,509.707,513.27,516.441,518.443,521.74,524.26,525.744,528.782,531.561,532.982" y="139.49099999999999" svg_rhmargin="534.662" style="fill:#171615;font-family:MPGBTK+FrutigerLTPro-Condensed;font-size:7.0px;font-style:NORMAL;font-weight:normal;">Niven and Bardsley, </text>
  <text x="481.763,485.053,488.343,491.633,494.923,496.273,497.883,501.831,503.315,506.619,509.923,511.533,514.571,516.573,518.183,521.354,522.453,524.063,525.414,527.024,530.314,533.604,536.894,540.184,541.605" y="148.99" svg_rhmargin="543.285" style="fill:#171615;font-family:MPGBTK+FrutigerLTPro-Condensed;font-size:7.0px;font-style:NORMAL;font-weight:normal;">2013; Hino et al., 2017; </text>
  <text x="481.763,487.139,490.31,492.312,494.314,497.618,500.656,505.381,507.901,509.511,512.682,515.986,519.283,520.893,523.931,527.235,529.237,531.239,533.5,534.851,536.461,539.751,543.041,546.331" y="158.48900000000003" svg_rhmargin="549.691" style="fill:#171615;font-family:MPGBTK+FrutigerLTPro-Condensed;font-size:7.0px;font-style:NORMAL;font-weight:normal;">Matthews and Potts, 2018</text>
  <text x="117.511,120.36,123.601,126.975,130.342,132.022,135.396,137.986,141.094,142.774,145.497,148.871,152.112,155.486,158.853,161.961" y="176.486" svg_rhmargin="163.641" style="fill:#171615;font-family:MPGBTK+FrutigerLTPro-Condensed;font-size:7.0px;font-style:NORMAL;font-weight:normal;">Land use change </text>
  <text x="117.511,120.619,123.993,127.367,130.608,133.982,136.705,139.813,144.867,147.975,151.349,153.421" y="185.985" svg_rhmargin="155.101" style="fill:#171615;font-family:MPGBTK+FrutigerLTPro-Condensed;font-size:7.0px;font-style:NORMAL;font-weight:normal;">enhancement </text>
  <text svg_rhmargin="141.227" x="117.511,120.878,124.252,126.324,129.432,132.806,134.878,136.432,139.673,141.227" y="186.36599999999999" style="fill:#171615;font-family:MPGBTK+FrutigerLTPro-Condensed;font-size:7.0px;font-style:NORMAL;font-weight:normal;">potential </text>
  <text svg_rhmargin="474.147" x="172.546,177.442,182.03400000000002,270.339,275.234,279.82599999999996,368.13,373.026,377.618,467.186,470.443,474.147" y="185.99099999999999" style="fill:#171615;font-family:MPGBTK+FrutigerLTPro-Condensed;font-size:8.0px;font-style:NORMAL;font-weight:normal;">NA NA NA LE </text>
  <text x="481.763,487.139,490.31,492.312,494.314,497.618,500.656,505.381,507.901,509.511,512.682,515.986,519.283,520.893,523.931,527.235,529.237,531.239,533.5,534.851,536.461,539.751,543.041,546.331" y="185.99099999999999" svg_rhmargin="549.691" style="fill:#171615;font-family:MPGBTK+FrutigerLTPro-Condensed;font-size:7.0px;font-style:NORMAL;font-weight:normal;">Matthews and Potts, 2018</text>
  <text x="117.511,121.529,124.77,127.493,130.734,132.806,136.173,137.853,139.925,141.479,144.069,147.177,148.857,150.929,154.037,157.404,160.778,163.501" y="246.74400000000003" svg_rhmargin="165.573" style="fill:#171615;font-family:MPGBTK+FrutigerLTPro-Condensed;font-size:7.0px;font-style:NORMAL;font-weight:normal;">Hazard risk reduc-</text>
  <text svg_rhmargin="153.281" x="117.511,119.583,121.137,124.511,127.885,129.565,132.932,136.306,138.378,141.486,144.86,146.932,148.486,151.727,153.281" y="213.49400000000003" style="fill:#171615;font-family:MPGBTK+FrutigerLTPro-Condensed;font-size:7.0px;font-style:NORMAL;font-weight:normal;">tion potential </text>
  <text x="188.379,193.622,196.793,201.777,204.297,205.781,208.819,210.821,212.431,215.469,217.471,219.081,222.252,223.351,224.961,226.312,227.922,231.212,234.502,237.792,241.082,242.503" y="213.49400000000003" svg_rhmargin="244.183" style="fill:#171615;font-family:MPGBTK+FrutigerLTPro-Condensed;font-size:7.0px;font-style:NORMAL;font-weight:normal;">Wamsler et al., 2012; </text>
  <text x="188.379,190.976,192.978,196.149,199.453,202.231,205.269,208.573,211.87,214.908,216.91,220.207,221.817,224.855,226.857,228.467,231.638,232.737,234.347,235.698,237.308,240.598,243.888,247.178,250.468,251.889" y="222.99300000000005" svg_rhmargin="253.569" style="fill:#171615;font-family:MPGBTK+FrutigerLTPro-Condensed;font-size:7.0px;font-style:NORMAL;font-weight:normal;">Frankenberg et al., 2013; </text>
  <text x="188.379,191.942,193.552,197.241,198.851,200.202,201.812,205.102,208.392,211.682,214.972,216.323,217.933,220.971,222.973,224.975,226.459,229.497,232.017,234.537,237.841,239.325,242.622,244.232,247.27,249.341" y="232.49199999999996" svg_rhmargin="251.021" style="fill:#171615;font-family:MPGBTK+FrutigerLTPro-Condensed;font-size:7.0px;font-style:NORMAL;font-weight:normal;">K.C., 2013; Striessnig et </text>
  <text x="188.379,191.55,192.649,194.259,195.61,197.22,200.51,203.8,207.09,210.38,211.731,213.341,218.717,222.021,224.023,226.025,229.196,231.198,234.369,237.407,239.017,242.188,245.492,248.858" y="241.99099999999999" svg_rhmargin="250.538" style="fill:#171615;font-family:MPGBTK+FrutigerLTPro-Condensed;font-size:7.0px;font-style:NORMAL;font-weight:normal;">al., 2013; Muttarak and </text>
  <text x="188.379,191.158,194.462,196.464,199.117,200.467,202.077,205.367,208.657,211.947,215.237,216.588,218.198,221.236,224.54,227.711,229.713,232.751,235.404,237.014,240.052,242.124" y="251.49" svg_rhmargin="243.804" style="fill:#171615;font-family:MPGBTK+FrutigerLTPro-Condensed;font-size:7.0px;font-style:NORMAL;font-weight:normal;">Lutz, 2014; Suarez et </text>
  <text x="188.379,191.55,192.649,194.259,195.61,197.22,200.51,203.8,207.09,210.38,211.731,213.341,217.289,220.46,222.462,224.464,227.502,230.414,233.452,234.936,238.233,239.843,243.014,246.318,249.685" y="260.98900000000003" svg_rhmargin="251.365" style="fill:#171615;font-family:MPGBTK+FrutigerLTPro-Condensed;font-size:7.0px;font-style:NORMAL;font-weight:normal;">al., 2014; Harteveld and </text>
  <text x="188.379,191.417,194.721,197.892,199.894,202.932,205.585,206.936,208.546,211.836,215.126,218.416,221.706,223.057,224.667,228.615,231.919,233.795,235.671,240.655,243.826,247.13,250.503" y="270.48800000000006" svg_rhmargin="252.183" style="fill:#171615;font-family:MPGBTK+FrutigerLTPro-Condensed;font-size:7.0px;font-style:NORMAL;font-weight:normal;">Suarez, 2015; Hoffmann </text>
  <text x="188.379,191.55,194.854,198.151,199.761,205.137,208.441,210.443,212.445,215.616,217.618,220.789,223.827,225.178,226.788,230.078,233.368,236.658,239.948,241.299,242.909,245.688,248.992,250.994,253.717" y="279.98699999999997" svg_rhmargin="255.397" style="fill:#171615;font-family:MPGBTK+FrutigerLTPro-Condensed;font-size:7.0px;font-style:NORMAL;font-weight:normal;">and Muttarak, 2017; Lutz </text>
  <text svg_rhmargin="240.018" x="188.379,191.55,194.854,198.151,199.761,205.137,208.441,210.443,212.445,215.616,217.618,220.789,223.827,225.178,226.788,230.078,233.368,236.658,240.018" y="251.86599999999999" style="fill:#171615;font-family:MPGBTK+FrutigerLTPro-Condensed;font-size:7.0px;font-style:NORMAL;font-weight:normal;">and Muttarak, 2017 </text>
  <text svg_rhmargin="279.83" x="270.342,275.238,279.83" y="246.74099999999999" style="fill:#171615;font-family:MPGBTK+FrutigerLTPro-Condensed;font-size:8.0px;font-style:NORMAL;font-weight:normal;">NA </text>
  <text x="383.968,386.103,389.407,392.711,395.749,398.269,399.879,402.917,404.919,406.529,409.7,410.798,412.408,413.759,415.369,418.659,421.949,425.239,428.529,429.95" y="246.74099999999999" svg_rhmargin="431.63" style="fill:#171615;font-family:MPGBTK+FrutigerLTPro-Condensed;font-size:7.0px;font-style:NORMAL;font-weight:normal;">Jones et al., 2010; </text>
  <text svg_rhmargin="431.372" x="383.968,387.916,391.087,393.999,395.483,398.521,401.041,402.651,405.689,407.691,409.301,412.472,413.571,415.181,416.531,418.141,421.431,424.721,428.012,431.372" y="227.74300000000005" style="fill:#171615;font-family:MPGBTK+FrutigerLTPro-Condensed;font-size:7.0px;font-style:NORMAL;font-weight:normal;">Davies et al., 2013 </text>
  <text x="481.765,485.328,486.812,488.814,491.852,493.462,496.633,499.937,503.234,504.844,508.407,511.578,514.098,519.082,522.386,524.906,527.426,530.464,533.768,535.189" y="227.74300000000005" svg_rhmargin="536.869" style="fill:#171615;font-family:MPGBTK+FrutigerLTPro-Condensed;font-size:7.0px;font-style:NORMAL;font-weight:normal;">Birk and Rasmussen, </text>
  <text x="481.765,485.055,488.345,491.635,494.925,496.275,497.885,501.574,504.745,506.747,508.749,511.92,515.224,518.262,521.566,523.176,526.347,529.651,532.948,534.558,537.596,540.634,542.636,543.735,545.156" y="237.24199999999996" svg_rhmargin="546.836" style="fill:#171615;font-family:MPGBTK+FrutigerLTPro-Condensed;font-size:7.0px;font-style:NORMAL;font-weight:normal;">2014; Cattaneo and Peri, </text>
  <text x="481.765,485.055,488.345,491.635,494.925,496.275,497.885,502.099,504.101,507.139,509.792,512.83,516.127,519.431,522.469,524.471,526.081,529.119,531.121,532.731,535.902,537.001,538.611,540.032" y="246.74099999999999" svg_rhmargin="541.712" style="fill:#171615;font-family:MPGBTK+FrutigerLTPro-Condensed;font-size:7.0px;font-style:NORMAL;font-weight:normal;">2016; Grecequet et al., </text>
  <text x="481.765,485.055,488.345,491.635,494.925,496.275,497.501,500.013,503.184,506.481,509.778,512.816,514.3,515.784,517.394,520.432,522.434,524.044,527.215,528.313,529.923,531.274,532.884,536.174,539.464,542.754,546.044,547.465" y="256.24" svg_rhmargin="549.145" style="fill:#171615;font-family:MPGBTK+FrutigerLTPro-Condensed;font-size:7.0px;font-style:NORMAL;font-weight:normal;">2017; Tadgell et al., 2017; </text>
  <text x="481.765,485.454,487.456,490.76,493.413,496.451,499.363,500.847,503.5,505.11,508.281,511.585,514.882,516.492,520.706,522.708,524.192,527.496,530.408,531.892,534.545,536.155,538.934,542.238,545.15,547.152,550.19,553.494,554.915" y="265.73900000000003" svg_rhmargin="556.595" style="fill:#171615;font-family:MPGBTK+FrutigerLTPro-Condensed;font-size:7.0px;font-style:NORMAL;font-weight:normal;">Crnčević and Orlović Lovren, </text>
  <text x="481.765,485.055,488.345,491.635,494.925,496.275,497.501,502.876,506.18,508.182,509.666,512.963,514.573,518.136,521.307,524.611,527.649,529.0,530.61,533.9,537.19,540.48" y="275.23800000000006" svg_rhmargin="543.84" style="fill:#171615;font-family:MPGBTK+FrutigerLTPro-Condensed;font-size:7.0px;font-style:NORMAL;font-weight:normal;">2018; World Bank, 2018</text>
  <text x="56.693,62.813,65.813,71.693,81.353,84.353,90.473,93.593,113.381,120.593,126.917,132.797,139.121,143.225,149.105,153.209,156.209,162.533,168.641,171.641,177.521,183.629,189.953,192.953,202.613,205.613,209.717,212.717,219.041,224.921,229.025,232.025,238.349,244.457,247.457,253.337,258.773,264.881,270.761,274.744,281.068,284.068,289.948,294.712,297.712,303.592,309.7,316.024,318.364,322.996,326.98,332.86,339.184,345.064,348.724,355.048,358.924,362.8,367.564,370.564,376.444,381.208,384.208,391.648,394.648,399.412,404.404,410.512,415.276,420.04,425.92,432.244,435.244,438.244,444.352,447.352,453.232,459.112,464.104,468.208,471.208,477.532,483.64,486.64,492.76,495.76,501.88,504.88" y="344.0" svg_rhmargin="511.12" style="fill:#192a53;font-family:MPGBTK+FrutigerLTPro-BoldCn;font-size:12.0px;font-style:NORMAL;font-weight:bold;">4.SM.5 Adaptation and Mitigation Synergies and Trade-offs as Discussed in Section 4.5.4</text>
  <text x="56.693,61.893,64.493,69.493,77.643,80.243,85.443,88.043,93.243,95.84299999999999,113.383,121.533,124.133,127.653,130.253,135.623,140.623,144.143,146.743,152.113,157.303,159.903,166.383,171.753,175.273,177.873,183.243,188.433,192.503,195.103,202.513,205.113,208.633,213.823,215.871,221.981,227.351,232.351,237.721,241.241,246.241,249.761,252.361,257.731,262.921,265.521,270.521,275.151,280.341,285.341,288.761,294.131,296.731,301.731,305.801,308.401,313.401,318.591,323.961,326.011,329.971,333.391,338.391,343.761,348.761,351.911,357.281,360.611,363.941" y="416.0" svg_rhmargin="368.011" style="fill:#192a53;font-family:MPGBTK+FrutigerLTPro-BoldCn;font-size:10.0px;font-style:NORMAL;font-weight:bold;">4.SM.5.1 Mitigation Options with Adaptation Synergies and Trade-offs</text>
  <text x="56.693,59.941,63.941,68.237,70.317,74.317,76.397,80.557,82.637,86.637,93.157,95.237,99.397,103.557,105.637" y="438.346" svg_rhmargin="107.413" style="fill:#192a53;font-family:MPGBTK+FrutigerLTPro-BoldCn;font-size:8.0px;font-style:NORMAL;font-weight:bold;">Table 4.SM.24 |</text>
  <text y="438.346" svg_rhmargin="326.912" x="113.389,119.613,121.389,123.757,125.533,129.381,133.085,135.453,137.229,141.085,144.941,146.861,150.717,154.565,156.933,158.709,162.565,166.421,169.381,171.301,176.781,178.557,180.925,184.781,186.701,190.405,194.253,197.957,201.805,204.173,207.877,210.245,212.021,215.877,219.733,221.653,224.613,227.869,231.725,235.277,237.645,241.493,243.269,246.821,249.781,251.701,255.405,259.261,263.109,265.029,267.397,269.765,273.469,277.317,280.869,283.237,287.093,289.317,291.541,294.501,296.421,298.197,302.045,305.597,309.453,311.821,313.592,317.592,321.144,324.992" style="fill:#171615;font-family:MPGBTK+FrutigerLTPro-Condensed;font-size:8.0px;font-style:NORMAL;font-weight:normal;">Mitigation options with adaptation synergies and trade-offs identified.</text>
  <text x="56.693,64.084,66.193,69.005,71.114,75.683,80.082,82.894,85.003,89.582,94.161,96.441,97.315,101.894,106.463,109.275,111.384,115.963,120.542,124.057,126.337,127.207,134.066,138.464,142.331,144.611,145.485,149.883,152.524,155.165,159.383,163.079,165.891,168.171,169.045,171.857,176.436,180.654,182.934,183.803,186.444,190.662,195.06,198.575,200.684,205.254,207.363,209.472,211.581,214.393,218.259,220.539,221.409,225.988,228.629,230.909,231.783,236.181,240.751,245.149,249.719,252.531,256.929,259.741,261.85,266.429,271.008,273.28799999999995,274.162,278.741,283.311,286.123,288.232,292.811,297.39,300.552,302.481" y="368.0" svg_rhmargin="304.761" style="fill:#171615;font-family:MPGBTK+FrutigerLTPro-Condensed;font-size:9.5px;font-style:NORMAL;font-weight:normal;">Mitigation options may affect the feasibility of adaptation options, </text>
  <text x="56.693,61.091,65.67,70.24,72.52,74.667,77.479,82.058,86.276,88.556,90.703,95.282,98.094,102.673,106.891,109.703,111.983,114.13,120.466,124.865,128.731,131.011,133.158,137.557,140.369,144.948,149.527,154.106,158.675,160.604,162.88400000000001,164.51,168.016,172.414,176.984,179.093,183.311,185.591,187.738,192.298,194.578,198.796,206.187,208.467,213.027,217.587,219.867,222.014,226.583,229.395,233.974,238.021,240.13,244.7,248.918,252.433,254.713,256.86,261.078,265.125,269.523,276.382,280.952,283.061,287.279,290.794,293.07399999999996,295.221,299.8,302.441" y="379.999" svg_rhmargin="304.721" style="fill:#171615;font-family:MPGBTK+FrutigerLTPro-Condensed;font-size:9.5px;font-style:NORMAL;font-weight:normal;">and the other way around. Table 4.SM.24 provides examples of </text>
  <text svg_rhmargin="302.467" x="56.693,61.262,65.841,69.356,72.871,74.98,79.55,81.659,85.877,88.157,89.487,94.056,98.635,102.15,104.259,107.071,109.18,113.227,117.445,119.725,121.055,123.164,130.023,134.593,138.991,142.687,145.499,149.014,151.294,152.624,155.265,158.78,162.646,167.225,171.443,174.255,178.825,180.934,185.152,188.667,191.308,193.588,194.918,199.316,203.895,208.465,210.745,212.075,216.654,220.872,225.441,229.84,232.652,234.761,238.808,243.026,245.306,246.636,248.745,255.604,260.173,264.572,268.267,271.079,274.594,276.87399999999997,278.204,280.845,283.657,286.469,290.868,295.437,299.655,302.467" y="368.0" style="fill:#171615;font-family:MPGBTK+FrutigerLTPro-Condensed;font-size:9.5px;font-style:NORMAL;font-weight:normal;">possible positive impacts (synergies) and negative impacts (trade- </text>
  <text x="315.216,319.795,322.436,325.077,328.592,331.233,333.513,336.914,341.493,344.134,346.414,349.815,356.674,358.783,361.595,363.704,368.274,372.672,375.484,377.593,382.172,386.751,389.03099999999995,392.432,397.011,401.581,404.393,406.502,411.081,415.66,419.175,421.455,424.856,427.497,432.076,434.888,437.16799999999995,440.569,444.968,449.537,453.936,458.505,461.317,465.716,468.528,470.637,475.216,479.795,481.723,484.003,486.885,490.391,494.789,499.359,501.468,505.686,507.96599999999995,511.367,515.927,518.207,522.425,529.816,532.096,536.656,541.216,543.496,546.897,549.006,551.115,554.63,557.442,560.957" y="368.0" svg_rhmargin="563.237" style="fill:#171615;font-family:MPGBTK+FrutigerLTPro-Condensed;font-size:9.5px;font-style:NORMAL;font-weight:normal;">offs) of mitigation options for adaptation. Table 4.SM.25 lists </text>
  <text x="315.216,319.434,323.481,327.88,334.739,339.308,341.417,345.635,349.15,351.42999999999995,354.081,358.66,361.301,363.58099999999996,366.231,369.746,373.613,378.192,382.41,385.222,389.791,391.9,396.118,399.633,401.91299999999995,404.564,408.962,413.541,418.111,420.39099999999996,423.041,425.853,428.665,433.064,437.633,441.851,444.663,449.242,451.883,454.524,458.039,460.31899999999996,462.97,467.549,470.19,472.46999999999997,475.12,479.519,484.088,488.487,493.056,495.868,500.267,503.079,505.188,509.767,514.346,516.626,519.276,523.855,528.425,531.237,533.346,537.925,542.504,546.019,548.299,550.949,553.59,558.169,560.981" y="379.999" svg_rhmargin="563.261" style="fill:#171615;font-family:MPGBTK+FrutigerLTPro-Condensed;font-size:9.5px;font-style:NORMAL;font-weight:normal;">examples of synergies and trade-offs of adaptation options for </text>
  <text x="315.216,322.075,324.184,326.996,329.105,333.675,338.073,340.885,342.994,347.573,352.152" y="391.997" svg_rhmargin="354.432" style="fill:#171615;font-family:MPGBTK+FrutigerLTPro-Condensed;font-size:9.5px;font-style:NORMAL;font-weight:normal;">mitigation.</text>
  <path d=" M 56.81800079345703 350.52099609375 L 113.51100158691406 350.52099609375 L 113.51100158691406 326.52099609375 L 56.81800079345703 326.52099609375 Z M 113.51100158691406 350.52099609375 L 180.70001220703125 350.52099609375 L 180.70001220703125 326.52099609375 L 113.51100158691406 326.52099609375 Z M 180.6999969482422 350.52099609375 L 370.7760009765625 350.52099609375 L 370.7760009765625 326.52099609375 L 180.6999969482422 326.52099609375 Z M 370.7760009765625 350.52099609375 L 560.8519897460938 350.52099609375 L 560.8519897460938 326.52099609375 L 370.7760009765625 326.52099609375 Z M 56.81800079345703 326.52099609375 L 113.51100158691406 326.52099609375 L 113.51100158691406 164.10198974609375 L 56.81800079345703 164.10198974609375 Z M 56.81800079345703 164.1009979248047 L 113.51100158691406 164.1009979248047 L 113.51100158691406 65.60099792480469 L 56.81800079345703 65.60099792480469 Z " style="fill:none;stroke:#171615;stroke-width:0.25;"/>
  <text svg_rhmargin="97.164" x="73.164,77.164,80.868,84.124,86.94,90.94,97.164" y="459.479" style="fill:#171615;font-family:MPGBTK+FrutigerLTPro-BoldCn;font-size:8.0px;font-style:NORMAL;font-weight:bold;">System </text>
  <text x="129.54,136.06,138.14,140.956,143.036,147.332,151.332,154.148,156.228,160.524,164.676" y="459.479" svg_rhmargin="166.756" style="fill:#171615;font-family:MPGBTK+FrutigerLTPro-BoldCn;font-size:8.0px;font-style:NORMAL;font-weight:bold;">Mitigation </text>
  <text svg_rhmargin="158.516" x="135.692,140.876,145.172,147.988,150.068,154.364,158.516" y="464.479" style="fill:#171615;font-family:MPGBTK+FrutigerLTPro-BoldCn;font-size:8.0px;font-style:NORMAL;font-weight:bold;">Option </text>
  <text x="259.628,263.628,267.332,271.484,275.484,278.22,282.516,284.596,288.596,291.852,449.012,452.18,454.916,458.916,463.212,467.212,469.732,474.028,476.692,479.356" y="464.479" svg_rhmargin="482.612" style="fill:#171615;font-family:MPGBTK+FrutigerLTPro-BoldCn;font-size:8.0px;font-style:NORMAL;font-weight:bold;">Synergies Trade-offs</text>
  <text x="64.066,67.566,71.2,74.7,77.093,80.853,84.093,85.913,88.762,92.003,94.852,97.316,100.816,106.262" y="552.814" svg_rhmargin="108.082" style="fill:#171615;font-family:MPGBTK+FrutigerLTPro-BoldCn;font-size:7.0px;font-style:NORMAL;font-weight:bold;">Energy system </text>
  <text svg_rhmargin="100.76" x="69.576,72.039,74.433,77.933,81.566,84.415,86.235,88.699,90.519,94.278,97.911,100.76" y="482.73" style="fill:#171615;font-family:MPGBTK+FrutigerLTPro-BoldCn;font-size:7.0px;font-style:NORMAL;font-weight:bold;">transitions </text>
  <text x="124.176,129.748,131.302,134.676,138.043,139.723,142.831,146.204,149.313,151.385,154.752,157.601,159.281,161.227,164.6,167.974" y="482.73" svg_rhmargin="170.046" style="fill:#171615;font-family:MPGBTK+FrutigerLTPro-Condensed;font-size:7.0px;font-style:NORMAL;font-weight:normal;">Wind energy (on-</text>
  <text svg_rhmargin="173.945" x="120.284,122.874,126.248,129.622,131.694,134.802,136.482,139.723,143.096,146.464,148.143,151.517,153.463,155.409,157.481,160.071,163.445,166.819,168.891,171.999,173.945" y="482.73" style="fill:#171615;font-family:MPGBTK+FrutigerLTPro-Condensed;font-size:7.0px;font-style:NORMAL;font-weight:normal;">shore and off-shore) </text>
  <text x="184.712,188.345,191.453,194.043,195.597,197.151,198.705,201.813,205.187,207.91,211.018,212.698,215.421,218.662,222.036,223.715,227.083,230.191,231.87,233.424,236.798,239.521,241.594,244.702,247.943,250.533,253.641,257.008,258.688,262.055,264.904,266.583,271.379,272.932,276.306,279.673,281.092,282.772,285.362,288.736,290.29,293.531,295.603,297.283,300.524,303.898,307.265,308.945,312.312,313.866,317.24,320.348,323.722,326.83,328.902,332.269,335.118,336.798,340.165,343.539,346.647,348.327,350.399,353.773" y="482.73" svg_rhmargin="355.453" style="fill:#171615;font-family:MPGBTK+FrutigerLTPro-Condensed;font-size:7.0px;font-style:NORMAL;font-weight:normal;">Resilience can be increased by wind, solar and bioenergy due to </text>
  <text x="184.712,188.079,189.633,192.223,194.295,196.367,197.921,201.288,204.662,206.734,209.842,213.209,214.889,218.256,220.328,221.882,225.249,227.839,229.519,231.465,234.445,237.686,239.758,242.866,244.42,247.794,250.384,253.758,257.132,258.812,262.053,265.427,268.794,270.474,274.492,276.046,277.6,279.154,282.395,283.949,285.117,286.538,288.218,291.578,294.938,298.298,301.658,303.604,305.025,306.705,310.072,311.626,314.608,317.716,321.09,322.77,324.842,328.216,331.457,333.529,335.208,338.316,341.69,344.798,346.87,350.237,353.086" y="491.732" svg_rhmargin="354.766" style="fill:#171615;font-family:MPGBTK+FrutigerLTPro-Condensed;font-size:7.0px;font-style:NORMAL;font-weight:normal;">distributed grids (Parkinson and Djilali, 2015), given that energy </text>
  <text x="184.712,187.302,190.41,193.133,196.507,198.579,200.133,202.205,205.054,206.734,209.324,211.396,214.637,218.011,221.378,224.619,226.691,230.058,232.648,234.328,237.569,239.641,242.749,244.429,245.983,249.357,251.036,254.404,255.958,259.199,261.922,265.03,266.71,268.656,272.674,274.228,279.281,282.389,283.943,287.31,290.551,292.231,295.598,297.67,300.911,304.278,307.652,309.332,312.44,314.512,316.192,319.433,320.599,322.279,323.7,325.38,328.74,332.1,335.46,338.82,340.766,342.187,343.482,346.331,349.705,352.813" y="500.734" svg_rhmargin="354.493" style="fill:#171615;font-family:MPGBTK+FrutigerLTPro-Condensed;font-size:7.0px;font-style:NORMAL;font-weight:normal;">security standards are in place (Almeida Prado et al., 2016). The </text>
  <text x="184.712,188.086,190.676,193.784,195.464,198.837,200.783,202.463,204.535,207.643,210.233,211.787,215.154,218.262,221.636,223.708,225.262,228.503,230.057,231.737,235.104,238.345,240.417,242.49,245.598,247.67,249.224,252.332,254.922,256.602,259.324,262.565,265.939,267.619,269.173,272.547,275.27,277.342,280.45,283.691,286.281,289.389,291.069,293.141,296.249,298.839,300.393,301.947,303.501,306.609,309.983,312.706,315.552,316.973,318.653,321.761,324.351,327.718,330.826,333.549,335.103,338.344,339.898,341.452,344.301,345.981,349.222,351.168,353.24,356.348,358.42" y="509.736" svg_rhmargin="360.1" style="fill:#171615;font-family:MPGBTK+FrutigerLTPro-Condensed;font-size:7.0px;font-style:NORMAL;font-weight:normal;">use of residential batteries can increase resilience, especially after </text>
  <text x="184.712,187.82,190.802,192.874,194.946,198.054,203.108,206.216,207.896,212.691,215.799,219.04,221.112,224.486,227.594,229.666,231.346,234.454,237.436,240.544,243.918,245.99,248.58,250.26,252.206,256.49,259.73,262.453,264.007,265.687,268.928,272.302,275.669,276.962,280.021,283.395,286.769,290.143,293.51,295.19,297.395,298.83,300.51,301.931,303.611,306.971,310.331,313.691,317.051,318.472,320.152,323.001,324.555,327.929,329.609,332.717,334.789,336.469,339.71,340.878,342.558,343.979,345.659,349.019,352.379,355.739,359.099,361.045" y="518.738" svg_rhmargin="362.725" style="fill:#171615;font-family:MPGBTK+FrutigerLTPro-Condensed;font-size:7.0px;font-style:NORMAL;font-weight:normal;">extreme weather events (Qazi and Young Jr., 2014; Liu et al., 2017).</text>
  <text x="184.712,188.73,190.41,193.0,196.374,197.928,199.874,201.946,203.626,205.572,207.644,211.018,216.072,217.751,220.475,223.848,227.089,228.643,230.715,234.083,237.191,240.564,243.673,245.745,248.986,251.058,254.166,257.533,259.212,261.284,264.658,266.338,269.712,272.953,275.025,278.399,280.471,283.712,285.266,286.946,290.313,293.554,296.144,298.216,301.583,304.691,308.065,311.173,313.245,316.486,318.558,321.666,325.033,326.713,329.821,331.375,334.483,337.206,339.278,341.35,342.904,345.627,347.181,349.253,352.102" y="533.4100000000001" svg_rhmargin="353.782" style="fill:#171615;font-family:MPGBTK+FrutigerLTPro-Condensed;font-size:7.0px;font-style:NORMAL;font-weight:normal;">A shift from coal-generated to natural gas-generated electricity </text>
  <text svg_rhmargin="341.46" x="184.712,187.435,190.809,194.183,195.737,199.104,200.784,204.151,207.259,209.982,212.054,215.162,218.403,220.993,224.101,225.781,230.449,233.69,235.762,238.87,240.942,242.622,245.345,248.719,252.093,254.683,258.057,263.111,266.478,268.55,270.104,273.478,276.852,278.532,280.478,284.496,287.604,291.888,295.262,298.636,301.485,304.593,306.665,308.345,311.453,313.525,315.205,318.446,319.613,321.293,322.714,324.394,327.754,331.114,334.474,337.834,339.78,341.46" y="508.077" style="fill:#171615;font-family:MPGBTK+FrutigerLTPro-Condensed;font-size:7.0px;font-style:NORMAL;font-weight:normal;">could decrease water consumption (DeNooyer et al., 2016). </text>
  <text x="374.79,378.423,381.531,384.905,388.013,392.682,395.923,399.29,400.844,403.952,405.632,408.74,412.113,415.221,417.293,420.66,423.509,425.189,426.743,430.117,432.063,434.135,437.376,439.966,442.038,444.11,447.484,450.207,452.279,455.653,457.725,460.833,462.513,464.585,467.959,471.2,473.272,474.952,478.319,481.693,484.801,487.391,489.071,492.445,495.819,497.891,499.571,501.517,504.891,506.445,507.999,511.373,516.168" y="508.077" svg_rhmargin="517.848" style="fill:#171615;font-family:MPGBTK+FrutigerLTPro-Condensed;font-size:7.0px;font-style:NORMAL;font-weight:normal;">Renewable energy infrastructure that does not follow </text>
  <text x="374.79,377.38,380.488,383.211,386.585,388.656,390.21,392.282,395.131,396.811,399.401,401.473,404.714,408.088,411.455,414.696,416.768,420.135,422.725,424.405,427.128,430.369,433.743,435.423,436.977,440.351,443.074,445.146,448.254,451.495,454.085,457.193,458.873,461.855,465.229,466.783,470.157,473.265,475.337,478.578,481.945,483.499,485.053,486.607,488.679,491.528,493.208,495.154,498.003,501.111,503.96,505.378,507.058,510.418,513.778,517.138,520.498,522.444" y="517.079" svg_rhmargin="524.124" style="fill:#171615;font-family:MPGBTK+FrutigerLTPro-Condensed;font-size:7.0px;font-style:NORMAL;font-weight:normal;">security standards can increase vulnerability (Ley, 2017).</text>
  <text x="123.077,126.185,129.559,131.113,134.354,136.426,138.106,141.473,144.847,148.221,150.293,153.667,156.648,160.022,161.576,163.648,166.889,168.443,171.167" y="504.997" svg_rhmargin="172.847" style="fill:#171615;font-family:MPGBTK+FrutigerLTPro-Condensed;font-size:7.0px;font-style:NORMAL;font-weight:normal;">Solar photovoltaic </text>
  <text x="141.613,143.559,146.926,150.685" y="513.999" svg_rhmargin="152.631" style="fill:#171615;font-family:MPGBTK+FrutigerLTPro-Condensed;font-size:7.0px;font-style:NORMAL;font-weight:normal;">(PV)</text>
  <text x="133.906,137.539,139.093,142.467,145.575,148.949,152.057,154.129,157.496" y="527.25" svg_rhmargin="160.345" style="fill:#171615;font-family:MPGBTK+FrutigerLTPro-Condensed;font-size:7.0px;font-style:NORMAL;font-weight:normal;">Bioenergy</text>
  <text x="123.616,126.857,128.411,131.519,134.242,136.314,138.386,139.94,142.663,144.217,146.289,149.138,150.818,153.408,155.48,158.854,160.926,164.167,167.534" y="541.46" svg_rhmargin="170.642" style="fill:#171615;font-family:MPGBTK+FrutigerLTPro-Condensed;font-size:7.0px;font-style:NORMAL;font-weight:normal;">Electricity storage</text>
  <text svg_rhmargin="192.251" x="123.938,127.046,130.42,135.215,138.323,140.395,142.075,144.665,147.773,150.496,152.568,155.942,158.014,159.694,163.453,167.212,170.32,184.726,189.01,192.251" y="555.67" style="fill:#171615;font-family:MPGBTK+FrutigerLTPro-Condensed;font-size:7.0px;font-style:NORMAL;font-weight:normal;">Power sector CCS NE </text>
  <text x="374.804,377.912,381.286,386.34,389.448,391.128,393.199,396.307,399.681,402.789,407.458,410.699,414.066,415.62,418.728,420.408,423.516,426.89,429.998,432.07,435.437,438.286,439.966,442.038,445.146,447.869,451.243,454.617,457.991,459.545,462.919,466.286,467.84,470.948,473.277,474.698,476.378,479.101,482.342,484.414,487.781,491.155,494.529,496.209,499.576,501.13,504.504,507.486,509.04,512.407,515.515,517.195,519.918,523.159,526.526,528.598,531.972,534.044,537.152" y="555.67" svg_rhmargin="538.832" style="fill:#171615;font-family:MPGBTK+FrutigerLTPro-Condensed;font-size:7.0px;font-style:NORMAL;font-weight:normal;">Some renewable energy technologies, carbon dioxide capture </text>
  <text x="374.804,378.045,381.419,384.786,386.466,389.056,391.128,394.501,396.573,399.814,403.181,406.289,407.969,409.915,413.674,417.434,420.542,422.488,423.908,425.588,428.829,432.203,435.57,437.25,439.973,443.347,446.721,449.444,452.552,455.926,457.998,460.07,463.311,465.383,466.937,470.311,473.678,475.358,477.948,481.322,482.876,486.117,488.189,489.869,493.236,496.61,501.405,504.513,506.585,508.265,510.337,513.445,516.168,519.542,522.916,526.29,527.844,531.218,534.585,536.139,539.247,541.837" y="564.672" svg_rhmargin="543.517" style="fill:#171615;font-family:MPGBTK+FrutigerLTPro-Condensed;font-size:7.0px;font-style:NORMAL;font-weight:normal;">and storage (CCS), and concentrating solar power technologies </text>
  <text x="374.804,378.178,381.419,384.401,387.509,389.189,391.779,395.152,398.52,401.109,403.181,406.422,409.796,411.868,413.422,416.663,418.217,419.897,424.566,427.807,429.879,432.987,435.059,436.739,440.106,443.214,448.268,451.509,454.883,458.25,459.93,463.171,465.761,468.351,471.725,474.448,476.002,479.243,481.315,484.423,487.79,489.47,494.265,495.819,497.891,501.265,502.945,505.017,508.391,511.499,513.053,515.125,516.805,520.179,523.546,526.654,528.726,531.967,534.039,535.593,538.967,542.341" y="573.674" svg_rhmargin="544.021" style="fill:#171615;font-family:MPGBTK+FrutigerLTPro-Condensed;font-size:7.0px;font-style:NORMAL;font-weight:normal;">have substantial water demand associated with their operation </text>
  <text x="374.804,376.75,379.417,381.489,383.043,385.766,388.615,391.988,393.668,396.776,398.848,400.528,403.769,404.938,406.618,408.039,409.719,413.079,416.439,419.799,423.159,425.105,426.526,428.206,429.9,433.274,434.954,438.321,441.562,443.634,445.706,447.26,449.983,453.357,454.911,458.152,459.586,461.007,462.687,464.241,467.615,472.41,475.518,477.59,479.27,482.637,486.011,490.806,493.914,495.986,497.666,501.033,502.587,505.828,509.202,511.274,512.954,516.062,518.008,521.508,524.231,525.785,528.893,532.267,534.99,537.839" y="582.6759999999999" svg_rhmargin="539.519" style="fill:#171615;font-family:MPGBTK+FrutigerLTPro-Condensed;font-size:7.0px;font-style:NORMAL;font-weight:normal;">(Fricko et al., 2016). In particular, lower power plant efficiency </text>
  <text x="374.804,378.171,381.545,384.653,386.333,388.405,391.779,393.458,397.217,400.977,404.085,405.764,407.318,410.692,413.415,415.487,418.595,421.836,424.426,427.534,430.124,431.804,433.876,437.25,440.358,442.038,445.02,448.394,449.948,453.322,456.43,458.502,461.743,465.11,466.664,468.218,469.772,471.844,474.693,476.373,478.445,481.819,483.499,488.165,491.406,493.478,496.586,498.658,500.338,503.061,506.435,509.809,512.399,514.471,516.544,519.785,521.339,524.713,526.785,529.375,531.055,532.609,535.983" y="591.678" svg_rhmargin="537.663" style="fill:#171615;font-family:MPGBTK+FrutigerLTPro-Condensed;font-size:7.0px;font-style:NORMAL;font-weight:normal;">due to CCS increases the vulnerability to water constraints in </text>
  <text x="374.804,379.858,383.232,385.822,387.893,389.573,391.645,394.753,398.12,399.674,403.048,406.422,409.012,410.692,412.638,418.084,420.807,424.566,427.94,429.494,431.048,434.422,439.476,441.156,444.264,446.336,448.016,451.257,452.424,454.104,455.525,457.205,460.565,463.925,467.285,470.645,472.066,473.746,476.602,479.843,483.217,484.512,488.271,489.825,491.379,494.487,496.559,498.239,501.347,503.419,505.099,508.34,509.508,511.188,512.609,514.289,517.649,521.009,524.369,527.729,529.675" y="600.6800000000001" svg_rhmargin="531.355" style="fill:#171615;font-family:MPGBTK+FrutigerLTPro-Condensed;font-size:7.0px;font-style:NORMAL;font-weight:normal;">most regions (McCollum et al., 2013; van Vliet et al., 2016).</text>
  <text svg_rhmargin="167.093" x="127.179,131.463,134.837,137.56,139.114,142.222,145.463,147.535,149.215,152.323,155.697,158.805,160.877,164.244,167.093" y="618.432" style="fill:#171615;font-family:MPGBTK+FrutigerLTPro-Condensed;font-size:7.0px;font-style:NORMAL;font-weight:normal;">Nuclear energy </text>
  <text x="184.733,186.427,189.801,192.524,194.596,197.704,200.945,203.535,206.643,210.01,211.69,214.28,217.521,219.467,222.575,224.647,227.496,229.176,232.417,235.791,239.158,240.838,244.205,246.277,249.651,251.723,254.831,257.554,259.626,261.18,264.553,267.927,269.607,272.197,274.269,277.51,280.884,284.251,287.492,289.564,292.931,295.521,297.201,299.924,303.165,306.539,308.219,309.773,314.827,318.194,320.266,323.64,326.622,329.73,331.41,333.482,336.856,339.964,341.644,344.367,345.921,347.475,352.529,355.77,357.842,360.944" y="618.432" svg_rhmargin="362.624" style="fill:#171615;font-family:MPGBTK+FrutigerLTPro-Condensed;font-size:7.0px;font-style:NORMAL;font-weight:normal;">Increased safety and protection standards can improve the climate </text>
  <text svg_rhmargin="279.51" x="184.733,186.805,188.359,190.949,194.057,195.737,199.104,201.176,204.55,208.05,209.604,212.712,215.302,216.982,218.928,222.036,224.759,228.133,231.507,234.615,236.169,239.536,242.644,244.716,246.396,249.504,251.576,253.256,256.497,257.663,259.343,260.764,262.444,265.804,269.164,272.524,275.884,277.83,279.51" y="613.931" style="fill:#171615;font-family:MPGBTK+FrutigerLTPro-Condensed;font-size:7.0px;font-style:NORMAL;font-weight:normal;">risk profiles (Schneider et al., 2017). </text>
  <text x="374.811,376.505,379.879,382.602,384.674,387.782,391.023,393.613,396.721,400.088,401.768,404.358,407.599,409.545,412.653,414.725,417.574,419.254,422.495,425.868,429.236,430.915,434.283,436.354,439.728,441.8,444.908,447.631,449.703,451.257,454.631,458.005,459.685,462.275,464.347,467.588,470.962,474.329,477.57,479.642,483.009,485.599,487.279,492.074,493.628,495.182,496.736,498.416,499.97,503.344,506.067,508.139,511.247,514.488,517.078,520.186" y="613.931" svg_rhmargin="521.866" style="fill:#171615;font-family:MPGBTK+FrutigerLTPro-Condensed;font-size:7.0px;font-style:NORMAL;font-weight:normal;">Increased safety and protection standards will increase </text>
  <text x="374.811,377.534,380.908,383.498,385.57,387.901,389.322,391.001,396.055,399.296,402.404,403.958,407.332,410.699,412.379,414.969,418.343,423.397,426.505,428.185,431.293,432.847,435.955,438.678,440.75,442.822,444.376,447.099,448.653,450.725,453.574,455.254,457.844,460.693,463.283,465.355,468.463,473.517,476.107,477.787,479.341,482.449,485.039,487.629,489.309,491.381,494.489,496.043,497.597,500.838,504.205,505.759,508.867" y="622.933" svg_rhmargin="510.547" style="fill:#171615;font-family:MPGBTK+FrutigerLTPro-Condensed;font-size:7.0px;font-style:NORMAL;font-weight:normal;">costs, making some electricity systems less reliable </text>
  <text x="374.811,376.757,378.892,382.133,384.856,388.23,391.597,394.187,397.561,400.935,402.615,405.855,409.229,412.596,414.276,418.294,421.402,422.956,426.33,429.053,431.776,435.15,436.318,437.739,439.419,442.779,446.139,449.499,452.859,454.28,455.96,458.809,462.183,465.165,466.719,470.093,472.683,474.363,477.471,479.543,481.223,484.464,485.632,487.312,488.733,490.413,493.773,497.133,500.493,503.853,505.799" y="631.935" svg_rhmargin="507.479" style="fill:#171615;font-family:MPGBTK+FrutigerLTPro-Condensed;font-size:7.0px;font-style:NORMAL;font-weight:normal;">(Jacobson and Delucchi, 2009; Lovins et al., 2018).</text>
  <text x="71.844,74.952,78.452,82.085,85.844,87.664,91.164,94.797,98.556" y="678.807" svg_rhmargin="100.376" style="fill:#171615;font-family:MPGBTK+FrutigerLTPro-BoldCn;font-size:7.0px;font-style:NORMAL;font-weight:bold;">Land and </text>
  <text x="69.905,73.405,76.387,80.146,82.995,86.236,89.085,91.549,95.049,100.495" y="687.809" svg_rhmargin="102.315" style="fill:#171615;font-family:MPGBTK+FrutigerLTPro-BoldCn;font-size:7.0px;font-style:NORMAL;font-weight:bold;">ecosystem </text>
  <text svg_rhmargin="100.796" x="69.611,72.075,74.469,77.969,81.602,84.451,86.271,88.735,90.555,94.314,97.947,100.796" y="649.687" style="fill:#171615;font-family:MPGBTK+FrutigerLTPro-BoldCn;font-size:7.0px;font-style:NORMAL;font-weight:bold;">transitions </text>
  <text x="128.936,132.569,135.677,139.044,142.418,145.141,148.249,151.616,153.296,155.242,158.616,161.99,165.357,167.037" y="649.687" svg_rhmargin="168.717" style="fill:#171615;font-family:MPGBTK+FrutigerLTPro-Condensed;font-size:7.0px;font-style:NORMAL;font-weight:normal;">Reduced food </text>
  <text x="118.639,123.308,126.549,129.139,131.211,134.452,137.819,140.927,142.607,145.848,149.222,152.589,154.269,157.377,159.323,162.823,165.546,167.1,170.208,173.582,175.654" y="658.689" svg_rhmargin="177.334" style="fill:#171615;font-family:MPGBTK+FrutigerLTPro-Condensed;font-size:7.0px;font-style:NORMAL;font-weight:normal;">wastage and efficient </text>
  <text svg_rhmargin="168.339" x="125.947,127.893,131.267,134.641,138.008,139.688,143.055,145.127,148.501,151.868,155.242,157.965,160.037,161.591,164.965,168.339" y="645.193" style="fill:#171615;font-family:MPGBTK+FrutigerLTPro-Condensed;font-size:7.0px;font-style:NORMAL;font-weight:normal;">food production </text>
  <text x="184.74,188.303,191.341,194.638,197.942,200.595,202.079,205.383,208.68,210.29,212.166,215.47,218.774,222.071,223.681,225.165,228.469,230.989,233.509,235.119,238.29,241.594,244.891,246.501,251.1,254.271,256.791,258.793,261.831,263.441,266.094,269.265,272.569,274.179,277.476,280.514,283.167,285.169,288.207,291.378,293.898,296.936,298.546,301.843,303.845,306.883,309.403,311.923,315.227,317.229,320.267,321.876,325.18,327.056,328.666,331.963,335.001,336.877,340.181,342.183,345.221,347.741,349.743,352.914,354.916,356.4,359.704,363.072" y="645.193" svg_rhmargin="364.752" style="fill:#171615;font-family:MPGBTK+FrutigerLTPro-Condensed;font-size:7.0px;font-style:NORMAL;font-weight:normal;">Reducing food loss and waste can decrease pressure of deforestation </text>
  <text x="184.74,186.686,189.283,193.175,197.074,198.495,200.175,203.535,206.895,210.255,213.615,216.856,218.802,220.223,221.903,225.27,227.342,230.45,233.04,235.63,239.004,241.076,244.184,245.864,249.238,252.612,254.292,255.846,259.087,262.461,265.828,267.508,270.882,273.472,276.58,278.26,280.206,283.58,285.652,287.332,290.573,293.94,296.012,297.565,300.288,303.662,305.216,307.288,310.662,312.734,315.842,317.522,319.468,322.189,325.563,327.117,330.225,333.074,334.754,337.862,339.934,341.614,344.855,346.023,347.703,349.125,350.805,354.165,357.525,360.884,364.244,365.669" y="654.1949999999999" svg_rhmargin="367.349" style="fill:#171615;font-family:MPGBTK+FrutigerLTPro-Condensed;font-size:7.0px;font-style:NORMAL;font-weight:normal;">(FAO, 2013a), pressure on land use for agriculture (Foley et al., 2011; </text>
  <text x="184.74,188.758,190.312,193.035,194.715,197.823,199.895,201.575,204.816,205.984,207.664,209.085,210.765,214.125,217.485,220.845,224.205,226.151,227.572,229.252,232.493,235.867,239.234,240.914,244.281,246.353,249.727,252.709,254.263,257.63,260.738,262.418,263.972,267.346,270.72,274.087,276.159,278.231,281.339,283.411,288.465,290.145,292.091,295.465,298.839,302.206,303.886,306.476,309.584,312.307,315.681,317.753,319.307,321.379,324.228,325.908,327.854,331.487,334.728,336.282,339.005,342.113,343.667,345.221" y="663.197" svg_rhmargin="346.901" style="fill:#171615;font-family:MPGBTK+FrutigerLTPro-Condensed;font-size:7.0px;font-style:NORMAL;font-weight:normal;">Hiç et al., 2016), and provide long-term food security (Bajželj </text>
  <text svg_rhmargin="217.856" x="184.74,187.848,189.92,191.6,194.841,196.009,197.689,199.11,200.79,204.15,207.51,210.87,214.23,216.176,217.856" y="658.696" style="fill:#171615;font-family:MPGBTK+FrutigerLTPro-Condensed;font-size:7.0px;font-style:NORMAL;font-weight:normal;">et al., 2014). </text>
  <text x="374.818,379.102" y="658.696" svg_rhmargin="383.12" style="fill:#171615;font-family:MPGBTK+FrutigerLTPro-Condensed;font-size:7.0px;font-style:NORMAL;font-weight:normal;">NA</text>
  <text svg_rhmargin="164.51" x="129.79,133.808,135.362,138.47,140.542,143.783,145.855,148.704,150.384,152.974,156.348,157.902,159.848,161.92,164.51" y="685.45" style="fill:#171615;font-family:MPGBTK+FrutigerLTPro-Condensed;font-size:7.0px;font-style:NORMAL;font-weight:normal;">Dietary shifts </text>
  <text x="184.747,187.855,191.229,192.783,194.729,196.801,198.481,200.427,202.499,205.873,210.927,212.607,215.848,219.222,220.776,225.83,229.071,230.625,232.697,234.377,236.449,239.823,241.503,244.87,246.424,249.665,253.039,255.111,257.183,259.255,262.363,263.917,267.158,269.229,272.337,275.704,277.384,280.751,282.305,285.413,287.485,290.075,291.755,294.478,297.719,301.093,302.773,305.363,306.917,310.284,313.658,315.212,318.712,321.435,324.676,328.05,330.122,331.676,334.525" y="685.45" svg_rhmargin="336.205" style="fill:#171615;font-family:MPGBTK+FrutigerLTPro-Condensed;font-size:7.0px;font-style:NORMAL;font-weight:normal;">Shift from animal- to plant-related diets can significantly </text>
  <text x="184.747,188.114,191.222,193.945,196.017,199.125,202.366,204.956,208.064,209.744,211.298,214.539,217.913,221.28,222.96,226.334,228.924,232.032,233.712,236.953,240.327,243.694,245.374,248.741,250.295,253.669,257.036,258.59,261.572,264.68,266.751,269.341,270.895,272.967,275.816,277.496,279.05,282.424,285.014,287.604,289.284,292.651,296.025,299.133,300.813,302.885,306.259,307.939,311.18,312.86,316.227,319.335,322.058,324.13,327.238,330.479,333.069,336.177" y="694.452" svg_rhmargin="337.857" style="fill:#171615;font-family:MPGBTK+FrutigerLTPro-Condensed;font-size:7.0px;font-style:NORMAL;font-weight:normal;">decrease land use and biodiversity loss due to a decrease </text>
  <text x="184.747,186.301,189.675,191.355,194.722,196.794,199.902,202.492,205.082,208.456,210.528,213.636,215.316,218.69,222.064,223.744,225.298,228.539,231.913,235.28,236.96,240.333,242.923,246.031,247.711,251.078,253.927,255.607,257.161,258.715,261.697,264.805,267.395,269.467,272.841,275.564,278.672,280.352,283.719,285.791,289.165,292.532,295.906,298.629,300.701,302.255,305.629,309.003,310.683,312.629,316.913,320.021,324.816,328.183,331.557,333.111,336.478" y="703.454" svg_rhmargin="338.158" style="fill:#171615;font-family:MPGBTK+FrutigerLTPro-Condensed;font-size:7.0px;font-style:NORMAL;font-weight:normal;">in pressure on land use by livestock production (Newbold </text>
  <text x="184.747,187.855,189.927,191.607,194.848,196.016,197.696,199.117,200.797,204.157,207.517,210.877,214.237,215.658,217.338,220.971,224.212,229.266,232.507,235.881,238.989,242.363,244.435,246.507,249.356,251.036,254.144,256.216,257.896,261.137,262.305,263.985,265.406,267.086,270.446,273.806,277.166,280.526,281.946,283.626,286.734,290.101,293.342,295.414,298.788,301.77,304.878,307.986,309.666,312.774,314.846,316.526,319.767,320.935,322.615,324.036,325.716,329.076,332.436,335.796,339.156,341.102" y="712.456" svg_rhmargin="342.782" style="fill:#171615;font-family:MPGBTK+FrutigerLTPro-Condensed;font-size:7.0px;font-style:NORMAL;font-weight:normal;">et al., 2015; Ramankutty et al., 2018; Sparovek et al., 2018) </text>
  <text x="184.747,187.988,189.542,192.916,196.29,199.657,201.337,206.132,207.686,209.758,213.132,214.812,218.186,221.294,224.535,226.089,228.161,231.535,233.215,236.582,239.69,243.064,246.172,249.672,251.744,254.334,256.014,257.96,260.807,262.361,263.915,268.969,272.21,275.584,277.264,280.505,283.879,287.246,288.926,292.685,294.239,297.48,299.552,302.66,304.08,305.76,309.12,312.48,315.84,319.2,320.621,321.916,327.362,330.47,333.06,335.132,338.505,341.879,344.987,348.095" y="721.458" svg_rhmargin="349.775" style="fill:#171615;font-family:MPGBTK+FrutigerLTPro-Condensed;font-size:7.0px;font-style:NORMAL;font-weight:normal;">along with health benefits (Tilman and Clark, 2014; Westhoek </text>
  <text svg_rhmargin="325.157" x="184.747,187.855,189.927,191.607,194.848,196.016,197.696,199.117,200.797,204.157,207.517,210.877,214.237,215.658,217.338,221.356,224.597,226.151,227.705,230.295,232.367,234.439,237.813,242.867,244.547,247.655,249.727,251.407,254.648,255.816,257.496,258.917,260.597,263.957,267.317,270.677,274.037,275.457,277.137,280.245,283.619,286.993,290.36,292.04,295.148,297.22,298.9,302.141,303.31,304.99,306.411,308.091,311.451,314.811,318.171,321.53,323.477,325.157" y="694.4590000000001" style="fill:#171615;font-family:MPGBTK+FrutigerLTPro-Condensed;font-size:7.0px;font-style:NORMAL;font-weight:normal;">et al., 2014; Hallström et al., 2017; Song et al., 2017). </text>
  <text x="374.825,377.933,381.307,382.861,384.807,386.879,388.559,390.505,392.577,395.951,401.005,402.685,405.926,409.299,410.853,415.907,419.148,420.702,422.774,424.454,426.526,429.9,431.58,434.947,436.501,439.742,443.116,445.188,447.26,449.332,452.44,453.994,457.235,459.307,462.415,465.782,467.462,470.829,472.383,475.491,477.563,480.153,481.833,486.628,488.182,489.736,491.29,492.97,495.042,498.15,501.517,504.891,506.445,508.517,511.625" y="694.4590000000001" svg_rhmargin="513.305" style="fill:#171615;font-family:MPGBTK+FrutigerLTPro-Condensed;font-size:7.0px;font-style:NORMAL;font-weight:normal;">Shift from animal- to plant-related diets will require </text>
  <text x="374.825,376.379,381.433,384.8,386.872,390.246,393.228,396.336,401.389,404.497,407.871,409.943,411.623,414.997,416.943,418.623,423.677,425.231,428.213,431.321,434.688,436.368,439.091,441.163,444.537,447.904,449.976,451.53,453.084,456.066,459.174,461.764,463.836,467.21,469.933,473.041,474.721,477.311,480.16,482.75,484.822,487.93,492.984,495.313,496.733,498.413,503.208,506.582,508.136,510.859,514.233" y="703.461" svg_rhmargin="515.913" style="fill:#171615;font-family:MPGBTK+FrutigerLTPro-Condensed;font-size:7.0px;font-style:NORMAL;font-weight:normal;">improvement of mixed crop-livestock systems, which </text>
  <text x="374.825,378.066,380.138,383.246,384.926,389.98,393.354,395.426,398.534,400.214,403.581,405.134,407.081,410.581,413.303,416.677,418.231,420.303,421.983,424.055,427.429,429.109,434.163,437.404,440.778,444.019,447.386,450.494,452.174,456.969,460.077,461.631,463.185,464.865,468.106,471.48,474.847,476.527,479.901,483.009,486.117,489.484,491.164,494.538,496.092,499.459,502.833,505.941,508.013" y="712.463" svg_rhmargin="509.693" style="fill:#171615;font-family:MPGBTK+FrutigerLTPro-Condensed;font-size:7.0px;font-style:NORMAL;font-weight:normal;">are more difficult to manage well and need higher </text>
  <text x="374.825,377.548,380.789,384.156,385.71,387.782,391.023,392.577,394.257,396.328,399.702,401.382,404.749,407.857,409.537,412.645,415.235,417.307,420.548,423.915,425.469,427.023,429.613,432.987,436.095,439.462,441.142,443.088,446.721,449.962,455.016,458.257,461.631,464.739,468.113,470.185,472.257,475.106,476.786,479.894,481.966,483.646,486.887,488.054,489.734,491.155,492.835,496.195,499.555,502.914,506.274,508.22" y="721.465" svg_rhmargin="509.9" style="fill:#171615;font-family:MPGBTK+FrutigerLTPro-Condensed;font-size:7.0px;font-style:NORMAL;font-weight:normal;">capital to be established (Ramankutty et al., 2018).</text>
 </g>
</svg>
