<?xml version="1.0" encoding="UTF-8"?>
<svg height="734.732" width="4083.717" xmlns="http://www.w3.org/2000/svg">
 <g id="page" xmlns:svgx="http://www.xml-cml.org/schema/svgx">
  <g begin="text">
   <text y="724.732" x="36.0,40.35,43.965,50.22,53.835,56.288,59.903,62.205,65.745,69.503,71.955,75.713,78.195" svgx:width="0.58,0.48,0.83,0.48,0.33,0.48,0.31,0.47,0.5,0.33,0.5,0.33,0.21" style="fill:rgb(0,0,0);font-family:MyriadPro;font-size:7.5px;stroke:none;">Cámara-Leret </text>
   <text y="724.732" x="79.785,83.182,85.53,86.895,90.81" svgx:width="0.45,0.31,0.18,0.52,0.23" style="fill:rgb(0,0,0);font-family:MyriadPro-Italic;font-size:7.5px;stroke:none;">et al</text>
   <text y="724.732" x="92.527,94.08,95.632" svgx:width="0.21,0.21,0.21" style="fill:rgb(0,0,0);font-family:MyriadPro;font-size:7.5px;stroke:none;">., </text>
   <text y="724.732" x="97.222,100.717,103.89,105.607,107.19,108.555,112.815,116.752,120.165" svgx:width="0.47,0.42,0.23,0.21,0.18,0.57,0.52,0.46,0.21" style="fill:rgb(0,0,0);font-family:MyriadPro-Italic;font-size:7.5px;stroke:none;">Sci. Adv.</text>
   <text y="724.732" x="121.747,123.337,127.185,131.032,134.88,138.727,140.28" svgx:width="0.21,0.51,0.51,0.51,0.51,0.21,0.21" style="fill:rgb(0,0,0);font-family:MyriadPro;font-size:7.5px;stroke:none;"> 2019; </text>
   <text y="724.732" x="141.87,146.033" svgx:width="0.56,0.2" style="fill:rgb(0,0,0);font-family:MyriadPro-Bold;font-size:7.5px;stroke:none;">5 </text>
   <text y="724.732" x="147.548,149.1,150.69,154.448,158.063,161.678,164.888,168.735,172.583,176.43,180.278,181.868,183.458,185.048,186.638,188.228,192.075,195.923,197.513,202.448,206.565,210.173,213.93,220.185,224.453,228.21,230.663,232.253,236.1,239.948,243.795" svgx:width="0.21,0.21,0.5,0.48,0.48,0.43,0.51,0.51,0.51,0.51,0.21,0.21,0.21,0.21,0.21,0.51,0.51,0.21,0.66,0.55,0.48,0.5,0.83,0.57,0.5,0.33,0.21,0.51,0.51,0.51,0.51" style="fill:rgb(0,0,0);font-family:MyriadPro;font-size:7.5px;stroke:none;">: eaaz1455 27 November 2019</text>
  </g>
  <path style="fill:none;stroke:rgb(0,0,0);stroke-width:1.0;" d="M36.000 45.410 L558.000 45.410 "/>
  <g begin="text">
   <text y="39.161" x="36.0,41.39,43.073,51.103,53.743,55.382,60.772,62.444,71.332,79.362,84.752,86.424,88.73400000000001,90.406,98.788,107.764,115.552,123.934,132.822,140.852,146.242,147.914" svgx:width="0.49,0.55,0.58,0.24,0.55,0.49,0.55,0.66,0.58,0.49,0.55,0.21,0.55,0.61,0.67,0.56,0.61,0.66,0.58,0.49,0.55,0.49" style="fill:rgb(0,0,0);font-family:MyriadPro;font-size:11.0px;stroke:none;">S CI E NCE ADVANCE S</text>
   <text y="39.161" x="154.987" svgx:width="0.21" style="fill:rgb(177,5,8);font-family:MyriadPro;font-size:11.0px;stroke:none;"> </text>
   <text y="38.16" x="158.969" svgx:width="0.21" style="fill:rgb(0,0,0);font-family:MyriadPro-Light;font-size:11.0px;stroke:none;">|</text>
   <text y="39.161" x="162.951,165.261,166.933,174.501,179.891,181.563,186.95299999999997,188.636,194.02599999999998,195.698,204.08,211.648,219.678,228.5,230.81,232.482,240.864,248.432,255.549,258.189,259.828,267.858,273.028,274.7" svgx:width="0.21,0.55,0.54,0.49,0.55,0.49,0.55,0.49,0.55,0.61,0.54,0.58,0.65,0.21,0.55,0.61,0.54,0.5,0.24,0.55,0.58,0.47,0.55,0.49" style="fill:rgb(177,5,8);font-family:MyriadPro;font-size:11.0px;stroke:none;"> RE S E ARCH ARTI CL E</text>
  </g>
  <g begin="text">
   <text y="724.732" x="539.76,543.923,545.438,549.765,552.323,553.838" svgx:width="0.56,0.2,0.58,0.34,0.2,0.56" style="fill:rgb(0,0,0);font-family:MyriadPro-Bold;font-size:7.5px;stroke:none;">5 of 8</text>
   <text y="649.399" x="36.0,43.614,49.518,54.45,59.256,64.593,67.158,73.062,77.661,82.521,84.338,90.242,96.452,102.716,104.219,111.833,116.639,121.571,127.772,134.225,140.489" svgx:width="0.85,0.66,0.55,0.53,0.59,0.28,0.66,0.51,0.54,0.2,0.66,0.69,0.7,0.2,0.85,0.53,0.55,0.69,0.72,0.7,0.54" style="fill:rgb(177,5,8);font-family:MyriadPro-Bold;font-size:9.0px;stroke:none;">MATERIALS AND METHODS</text>
   <text y="660.399" x="36.0,41.13,44.617,50.155,55.817,60.785,62.704,67.72,71.33,76.346" svgx:width="0.54,0.37,0.58,0.6,0.52,0.2,0.53,0.38,0.53,0.53" style="fill:rgb(0,0,0);font-family:MyriadPro-Bold;font-size:9.5px;stroke:none;">Study area</text>
   <text y="671.4" x="36.0,43.097,48.141,51.665,53.808,57.294,60.192,65.236,70.252,74.613,76.754,80.925,84.449,88.487,92.657,94.799,99.644,102.456,104.599,108.38,115.438,119.476,125.983,128.125,134.918,139.962,142.508,147.705,151.742,155.913,159.722,161.865,165.351,170.329,174.5,179.696,183.183,185.325,189.495,191.638,194.041,198.212,201.109,203.655,206.553,211.597,216.613,219.159,224.356,228.526,230.93,233.072,236.596,240.767,245.963,250.409,254.447,256.589,261.434,264.246,266.388,271.898,276.458,278.624,283.184,287.744,291.003" svgx:width="0.75,0.53,0.37,0.23,0.37,0.31,0.53,0.53,0.46,0.23,0.44,0.37,0.43,0.44,0.23,0.51,0.3,0.23,0.4,0.74,0.43,0.69,0.23,0.71,0.53,0.27,0.55,0.43,0.44,0.4,0.23,0.37,0.52,0.44,0.55,0.37,0.23,0.44,0.23,0.25,0.44,0.31,0.27,0.31,0.53,0.53,0.27,0.55,0.44,0.25,0.23,0.37,0.44,0.55,0.47,0.43,0.23,0.51,0.3,0.23,0.58,0.48,0.23,0.48,0.48,0.34,0.23" style="fill:rgb(0,0,0);font-family:MinionPro;font-size:9.5px;stroke:none;">Our study area of “New Guinea” spans a latitudinal range of −0.08° </text>
   <text y="682.401" x="36.0,39.135,44.218,46.403000000000006,47.182,52.929,57.727,62.524,64.928,69.725,74.523,78.019,82.759,84.944,85.723,90.131,95.565,100.819,103.004,103.783,108.19,110.375,111.154,113.795,118.878,124.312,128.995,131.779,134.914,140.196,145.449,148.233,153.667,158.075,160.716,162.901,163.68,167.442,171.85,177.284,181.967,186.242,188.427,189.206,194.289,197.338,199.523,200.302,205.1,209.897,214.695,217.098,221.896,226.693,230.189,232.374,233.154,236.288,241.371,243.556,244.335,249.133,253.93,258.728,261.131,265.928,270.726,274.222,279.855,282.259,284.625,288.102,290.999" svgx:width="0.31,0.51,0.23,0.55,0.58,0.48,0.48,0.23,0.48,0.48,0.34,0.47,0.23,0.55,0.44,0.55,0.53,0.23,0.55,0.44,0.23,0.55,0.25,0.51,0.55,0.47,0.27,0.31,0.53,0.53,0.27,0.55,0.44,0.25,0.23,0.55,0.37,0.44,0.55,0.47,0.43,0.23,0.55,0.51,0.3,0.23,0.55,0.48,0.48,0.48,0.23,0.48,0.48,0.34,0.23,0.55,0.31,0.51,0.23,0.55,0.48,0.48,0.48,0.23,0.48,0.48,0.34,0.57,0.23,0.23,0.34,0.31,0.23" style="fill:rgb(0,0,0);font-family:MinionPro;font-size:9.5px;stroke:none;">to −10.66°S and a longitudinal range of 129.42° to 150.21°E. It </text>
   <text y="693.402" x="36.0,38.784,44.218,48.236,50.64,55.684,60.7,64.738,68.224,70.01,72.908,77.981,82.018,83.804,91.585,95.755,98.301,103.498,105.284,107.83,111.316,113.72,117.89,123.087,128.103,129.889,134.734,137.546,139.332,146.39,150.428,156.935,158.721,165.514,170.558,173.104,178.301,182.338,186.509,188.295,192.465,197.662,202.678,204.464,207.361,212.434,216.472,218.258,221.744,229.525,233.695,236.099,238.502,242.54,246.064,247.85,250.396,253.883,256.286,260.457,265.653,270.669,274.156,275.942,278.839,283.912,288.083,290.98" svgx:width="0.27,0.55,0.42,0.25,0.53,0.53,0.43,0.37,0.23,0.31,0.53,0.43,0.23,0.82,0.44,0.27,0.55,0.23,0.27,0.37,0.25,0.44,0.55,0.53,0.23,0.51,0.3,0.23,0.74,0.43,0.69,0.23,0.71,0.53,0.27,0.55,0.43,0.44,0.23,0.44,0.55,0.53,0.23,0.31,0.53,0.43,0.23,0.37,0.82,0.44,0.25,0.25,0.43,0.37,0.23,0.27,0.37,0.25,0.44,0.55,0.53,0.37,0.23,0.31,0.53,0.44,0.31,0.23" style="fill:rgb(0,0,0);font-family:MinionPro;font-size:9.5px;stroke:none;">includes the main island of New Guinea and the smaller islands that </text>
   <text y="704.403" x="36.0,42.641,46.811,50.469,54.639,56.824000000000005,57.565,61.717,66.695,72.024,77.354,81.524,85.676,88.706,92.877,98.026,100.211,100.952,103.982,108.96,111.145,111.886,119.8,124.103,126.782,132.112,134.648,138.952,144.281,149.43,151.615,152.356,159.548,163.718,170.359,172.544,173.285,180.21,185.388,188.067,193.396,197.567,201.87,204.055,204.796,209.945,215.123,218.78,221.459,226.789,231.368,233.553,234.294,237.324,242.53,246.701,248.886,249.627,252.163,256.467,260.086,263.117,265.302,266.043,270.622,273.158,277.462,281.613,284.292,288.595,290.999" svgx:width="0.69,0.43,0.37,0.43,0.23,0.55,0.42,0.51,0.55,0.55,0.43,0.42,0.31,0.43,0.53,0.23,0.55,0.31,0.51,0.23,0.55,0.82,0.44,0.27,0.55,0.25,0.44,0.55,0.53,0.23,0.55,0.74,0.43,0.69,0.23,0.55,0.71,0.53,0.27,0.55,0.43,0.44,0.23,0.55,0.53,0.53,0.37,0.27,0.55,0.47,0.23,0.55,0.31,0.53,0.43,0.23,0.55,0.25,0.44,0.37,0.31,0.23,0.55,0.47,0.25,0.44,0.42,0.27,0.44,0.25,0.23" style="fill:rgb(0,0,0);font-family:MinionPro;font-size:9.5px;stroke:none;">were connected to mainland New Guinea during the last glacial </text>
   <text y="649.35" x="302.997,310.635,314.664,319.005,321.409,329.047,333.949,341.587,343.61,345.206,354.288,358.183,359.779,364.653,368.548,370.809,373.212,380.85,383.254,386.009,389.904,394.777,396.373,398.777,401.532,403.128,407.811,412.029,413.625,416.969,420.864,423.125,427.02,430.896,433.651,436.055,441.108,445.412,447.008,451.036,454.418,458.313,462.341,465.685,467.281,473.646,476.049,478.805,483.735,485.331,489.359,490.955,495.829,499.724,504.559,507.314,512.245,513.841,518.543,521.213,522.809,530.048,535.415,539.833,544.25,548.668,550.26,558.04" svgx:width="0.82,0.44,0.47,0.27,0.82,0.53,0.82,0.23,0.23,0.97,0.43,0.23,0.53,0.43,0.25,0.27,0.82,0.27,0.31,0.43,0.53,0.23,0.27,0.31,0.23,0.51,0.46,0.23,0.37,0.43,0.25,0.43,0.42,0.31,0.27,0.55,0.47,0.23,0.44,0.37,0.43,0.44,0.37,0.23,0.69,0.27,0.31,0.53,0.23,0.44,0.23,0.53,0.43,0.52,0.31,0.53,0.23,0.51,0.3,0.23,0.78,0.58,0.48,0.48,0.48,0.23,0.82,0.23" style="fill:rgb(0,0,0);font-family:MinionPro;font-size:9.5px;stroke:none;">maximum. We delimited it by selecting areas with a depth of ≥−120 m </text>
   <text y="660.352" x="302.997,305.753,309.22,314.008,321.732,323.432,326.273,331.289,335.269,336.97,343.705,347.686,352.825,356.806,360.273,364.387,366.733,368.434,373.962,378.076,380.917,385.932,390.236,397.96,401.94,404.781,408.248,410.737,414.699,416.399,422.66,427.676,431.789,435.257,438.097,439.797,444.585,447.34,449.041,451.881,456.897,460.878,462.578,469.618,473.579,477.56,481.673,486.813,490.242,491.943,495.173,501.623,508.074,514.524,516.633,521.022,525.003,529.772,533.733,538.521,540.63,545.77,549.75,552.591,555.821" svgx:width="0.3,0.37,0.51,0.82,0.23,0.31,0.53,0.43,0.23,0.71,0.43,0.55,0.43,0.37,0.44,0.25,0.23,0.59,0.44,0.31,0.53,0.46,0.82,0.43,0.31,0.37,0.27,0.42,0.23,0.67,0.53,0.44,0.37,0.31,0.23,0.51,0.3,0.23,0.31,0.53,0.43,0.23,0.75,0.42,0.43,0.44,0.55,0.37,0.23,0.35,0.69,0.69,0.69,0.23,0.47,0.43,0.51,0.42,0.51,0.23,0.55,0.43,0.31,0.35,0.23" style="fill:rgb(0,0,0);font-family:MinionPro;font-size:9.5px;stroke:none;">from the General Bathymetric Chart of the Oceans (www.gebco.net).</text>
   <text y="682.354" x="302.997,308.128,313.809,318.824,323.109,325.712,330.728,334.851,336.77,342.432,345.035,349.158,352.644,356.254,358.857,364.538,370.077,373.563,376.166,381.648,387.215" svgx:width="0.54,0.6,0.53,0.45,0.27,0.53,0.43,0.2,0.6,0.27,0.43,0.37,0.38,0.27,0.6,0.58,0.37,0.27,0.58,0.59,0.43" style="fill:rgb(0,0,0);font-family:MyriadPro-Bold;font-size:9.5px;stroke:none;">Species distributions</text>
   <text y="693.354" x="302.997,310.426,314.616,318.293,323.271,327.593,331.27,333.968,339.164,347.097,349.923,353.561,358.691,362.881,367.051,369.749,377.682,381.871,387.22,390.046,393.723,397.912,402.083,407.08,410.756,415.924,419.563,422.389,429.048,433.238,436.914,441.104,443.935,449.103,454.1,460.759,466.108,468.663,473.66,477.983,483.151,487.34,492.508,495.335,498.299,501.975,506.972,514.905,517.731,520.78,526.005,530.195,533.026,538.023,543.371,545.927,548.625,553.973,558.011" svgx:width="0.77,0.43,0.37,0.51,0.44,0.37,0.27,0.53,0.82,0.23,0.37,0.52,0.43,0.42,0.27,0.82,0.43,0.55,0.23,0.37,0.43,0.42,0.51,0.37,0.53,0.37,0.23,0.69,0.43,0.37,0.43,0.23,0.53,0.51,0.69,0.55,0.25,0.51,0.44,0.53,0.43,0.53,0.23,0.3,0.37,0.51,0.82,0.23,0.31,0.53,0.43,0.23,0.51,0.55,0.25,0.27,0.55,0.43,0.23" style="fill:rgb(0,0,0);font-family:MinionPro;font-size:9.5px;stroke:none;">Herbarium specimen records were downloaded from the online </text>
   <text y="704.355" x="302.997,308.165,312.488,315.385,319.556,324.382,328.552,332.039,336.077,339.563,341.748,342.423,349.215,351.619,356.464,361.29,365.46,367.864,370.049,370.723,376.309,378.855,383.7,388.716,391.262,395.66,399.698,403.223,406.709,409.255,412.152,416.513,418.698,419.372,422.612,427.809,430.621,435.466,438.99,446.771,450.941,453.839,456.384,461.229,466.426,468.611,469.285,474.311,478.482,482.5,485.046,487.449,489.995,492.893,497.253,499.438,500.113,503.4,509.907,516.415,522.922,525.089,529.534,534.36,536.906,539.719,541.885,546.729,550.254,554.7,557.987" svgx:width="0.53,0.44,0.31,0.44,0.51,0.44,0.37,0.43,0.37,0.23,0.55,0.71,0.25,0.51,0.51,0.44,0.25,0.23,0.55,0.59,0.27,0.51,0.53,0.27,0.46,0.43,0.37,0.37,0.27,0.31,0.46,0.23,0.55,0.34,0.55,0.3,0.51,0.37,0.82,0.44,0.31,0.27,0.51,0.55,0.23,0.55,0.53,0.44,0.42,0.27,0.25,0.27,0.31,0.46,0.23,0.55,0.35,0.69,0.69,0.69,0.23,0.47,0.51,0.27,0.3,0.23,0.51,0.37,0.47,0.35,0.23" style="fill:rgb(0,0,0);font-family:MinionPro;font-size:9.5px;stroke:none;">databases Global Biodiversity Information Facility (www.gbif.org) </text>
  </g>
  <rect style="stroke:blue;stroke-width:0.3;" x="73.717" y="106.295" height="506.173" width="446.544" title="5"/>
  <text y="106.295" class="image" id="image.5.1" width="446" height="506" x="73.717">image.5.1.74_520.106_612</text>
  <rect style="stroke:blue;stroke-width:0.3;" x="73.717" y="106.295" height="506.173" width="446.544" title="5"/>
  <text y="106.295" class="image" id="image.5.2" width="446" height="506" x="73.717">image.5.2.74_520.106_612</text>
  <g begin="text">
   <text y="579.579" x="36.0,39.952,42.007,46.395,48.345,49.905,54.068,56.018,57.578,62.04,66.368,70.763,75.15,78.0,82.372,86.332,90.727,94.11,98.07,99.63,101.685,106.08,107.64,110.392,114.72,119.205,120.765,124.927,129.09,135.69,137.25,140.632,144.96,149.355,152.61,156.57,159.42,163.395,167.355,170.108,172.163,176.49,180.885,182.445,186.93,189.78,191.835,196.163,199.013,201.068,203.82,205.875,209.835,213.09,214.65,217.208,221.535,224.385,225.945,230.108,234.27,238.433,242.595,244.155,246.713,251.04,253.89,255.45,259.41,263.805,268.275,272.235,278.685,280.74,284.123,285.683,289.643,294.038,298.508,300.068,304.44,307.695,311.655,314.212,318.585,320.647,322.207,326.692,328.755,332.715,337.11,339.862,343.117" svgx:width="0.53,0.27,0.58,0.26,0.2,0.56,0.26,0.2,0.6,0.58,0.59,0.58,0.38,0.58,0.53,0.59,0.45,0.53,0.2,0.27,0.59,0.2,0.37,0.58,0.6,0.2,0.56,0.56,0.88,0.2,0.45,0.58,0.59,0.43,0.53,0.38,0.53,0.53,0.37,0.27,0.58,0.59,0.2,0.6,0.38,0.27,0.58,0.38,0.27,0.37,0.27,0.53,0.43,0.2,0.34,0.58,0.38,0.2,0.56,0.56,0.56,0.56,0.2,0.34,0.58,0.38,0.2,0.53,0.59,0.6,0.53,0.86,0.27,0.45,0.2,0.53,0.59,0.6,0.2,0.58,0.43,0.53,0.34,0.58,0.28,0.2,0.6,0.28,0.53,0.59,0.37,0.43,0.26" style="fill:rgb(0,0,0);font-family:MyriadPro-Bold;font-size:7.5px;stroke:none;">Fig. 5. Congruence in top 10% conservation priorities for 2070 for endemic and useful plants.</text>
   <text y="579.579" x="345.067,346.706,352.736,356.351,360.619,362.261,366.379,368.569,370.207,373.822,378.052,384.307,386.062,390.225,391.98,394.95,397.432,399.885,403.5,405.982,407.737,411.345,415.102,416.745,420.877,425.04,426.795,429.277,432.247,433.886" svgx:width="0.21,0.8,0.48,0.57,0.21,0.55,0.29,0.21,0.48,0.56,0.83,0.23,0.56,0.23,0.4,0.33,0.33,0.48,0.33,0.23,0.48,0.5,0.21,0.55,0.56,0.23,0.33,0.4,0.21,0.28" style="fill:rgb(0,0,0);font-family:MyriadPro;font-size:7.5px;stroke:none;"> Map of administrative units (</text>
   <text y="579.579" x="436.016" svgx:width="0.66" style="fill:rgb(0,0,0);font-family:MyriadPro-Bold;font-size:7.5px;stroke:none;">A</text>
   <text y="579.579" x="440.936,443.066,444.709,450.229,454.391,458.149,460.601,464.359,466.001,470.164,474.296,480.551,484.819,488.576,491.029,493.999,495.641,497.396,501.559,505.789,507.544,510.904,514.519,517.001,520.759,522.401,526.016,530.246,536.501,538.256,542.419,544.174,547.144,549.626,552.079,555.694" svgx:width="0.28,0.21,0.74,0.56,0.5,0.33,0.5,0.21,0.56,0.55,0.83,0.57,0.5,0.33,0.4,0.21,0.23,0.56,0.56,0.23,0.45,0.48,0.33,0.5,0.21,0.48,0.56,0.83,0.23,0.56,0.23,0.4,0.33,0.33,0.48,0.31" style="fill:rgb(0,0,0);font-family:MyriadPro;font-size:7.5px;stroke:none;">) where numbers indicate administra-</text>
   <text y="589.577" x="36.0,38.482,40.237,43.845,47.603,49.256,53.389,57.551,59.306,61.789,64.759,66.412,70.529,72.719,74.373,76.166,80.328,84.558,88.676,92.838,96.596,99.566,101.321,104.936,109.098,110.752,115.687,119.444,124.964,126.617,131.462,135.595,137.35,141.512,145.27,148.885,150.539,154.154,158.316,162.546,164.2,168.19,171.805,176.072,180.205,183.82,185.474,190.409,194.166,199.686,201.339,206.184,210.317,212.072,216.234,219.992,223.607,225.26,228.62,232.738,236.9,239.383,242.998,244.753,248.915,250.67,254.833,259.025,260.679,263.162,267.324,271.082,272.735,275.218,279.335,283.603,285.257,289.104,292.952,298.892,300.545,303.515,307.633,309.403,313.535,316.018,317.773,321.89,326.053,329.023,330.575,332.229,336.077,337.629,339.283,342.98,347.098,349.55,353.668,357.83,362.023,363.575,365.229,369.077,370.629,372.283,378.313,381.928,386.09,390.208,393.725,399.245,402.86,405.313,407.068,408.62,410.274,414.122,415.674,417.328,421.393,423.148,426.763,430.28,431.934,436.869,441.002,447.257,449.447,453.564,456.017,457.569,459.223,463.07,464.623,466.277,471.212,474.827,479.094,480.849,483.302,487.059,488.612,490.265,494.113,495.665,497.319,503.349,505.104,511.359,513.114,516.632,520.247,521.799,523.453,527.3,528.853,530.506,534.496,538.111,542.274,544.029,547.644,549.399,550.951,552.605,556.453,558.005" svgx:width="0.33,0.23,0.48,0.5,0.21,0.55,0.56,0.23,0.33,0.4,0.21,0.55,0.29,0.21,0.24,0.56,0.56,0.55,0.56,0.5,0.4,0.23,0.48,0.56,0.21,0.66,0.5,0.74,0.21,0.65,0.55,0.23,0.56,0.5,0.48,0.21,0.48,0.56,0.56,0.21,0.53,0.48,0.57,0.55,0.48,0.21,0.66,0.5,0.74,0.21,0.65,0.55,0.23,0.56,0.5,0.48,0.21,0.45,0.55,0.56,0.33,0.48,0.23,0.56,0.23,0.56,0.56,0.21,0.33,0.56,0.5,0.21,0.33,0.55,0.57,0.21,0.51,0.51,0.79,0.21,0.4,0.55,0.24,0.55,0.33,0.23,0.55,0.56,0.4,0.21,0.21,0.51,0.21,0.21,0.49,0.55,0.33,0.55,0.56,0.56,0.21,0.21,0.51,0.21,0.21,0.8,0.48,0.56,0.55,0.47,0.74,0.48,0.33,0.23,0.21,0.21,0.51,0.21,0.21,0.54,0.23,0.48,0.47,0.21,0.66,0.55,0.83,0.29,0.55,0.33,0.21,0.21,0.51,0.21,0.21,0.66,0.48,0.57,0.23,0.33,0.5,0.21,0.21,0.51,0.21,0.21,0.8,0.23,0.83,0.23,0.47,0.48,0.21,0.21,0.51,0.21,0.21,0.53,0.48,0.56,0.23,0.48,0.23,0.21,0.21,0.51,0.21,0.21" style="fill:rgb(0,0,0);font-family:MyriadPro;font-size:7.5px;stroke:none;">tive units of Indonesian New Guinea and Papua New Guinea containing the top 10% solutions: 1, Sorong; 2, Manokwari; 3, Biak Numfor; 4, Nabire; 5, Mimika; 6, Paniai; 7, </text>
   <text y="599.574" x="36.0,39.99,44.123,48.285,51.645,55.26,58.778,60.758,63.533,67.148,70.68,74.295,75.848,77.828,81.675,83.228,85.208,91.553,95.168,97.62,101.738,106.005,109.763,113.925,115.478,117.458,121.305,122.858,124.838,128.535,132.15,134.603,140.858,142.613,144.165,146.145,149.993,153.84,155.393,157.373,160.148,163.763,167.295,170.91,176.43,178.185,180.008,183.623,187.155,190.77,192.323,194.303,198.15,201.998,203.55,205.53,208.305,211.92,215.453,219.068,223.335,227.468,229.92,233.535,235.088,237.068,240.915,244.763,246.315,248.295,252.353,255.968,260.13,264.263,267.78,269.535,275.79,279.908,281.46,283.44,287.288,291.135,292.688,294.668,298.658,302.415,306.608,310.74,314.903,319.035,323.198,327.39,331.005,335.168,337.148,341.213,342.968,347.13,349.613,353.228,357.39,361.583,363.135,365.115,368.963,372.81,374.363,376.343,380.408,384.525,388.133,391.89,396.053,398.033,403.028,404.783,408.975,413.093,416.85,418.62,420.173,422.153,426.0,429.848,431.4,433.38,437.078,440.693,444.855,449.085,452.7,456.833,460.995,462.548,464.528,468.375,472.223,473.775,475.755,482.1,485.858,488.828,491.31,495.068,497.52,501.683,503.235,505.215,509.063,512.91,514.463,516.443,521.333,525.09,526.86,530.475,532.028,534.008,537.855,541.703,543.255,545.235,548.925,552.54,555.51,557.993" svgx:width="0.53,0.55,0.56,0.45,0.48,0.47,0.21,0.37,0.48,0.47,0.48,0.21,0.21,0.51,0.21,0.21,0.85,0.48,0.33,0.55,0.57,0.5,0.56,0.21,0.21,0.51,0.21,0.21,0.49,0.48,0.33,0.83,0.23,0.21,0.21,0.51,0.51,0.21,0.21,0.37,0.48,0.47,0.48,0.74,0.23,0.24,0.48,0.47,0.48,0.21,0.21,0.51,0.51,0.21,0.21,0.37,0.48,0.47,0.48,0.57,0.55,0.33,0.48,0.21,0.21,0.51,0.51,0.21,0.21,0.54,0.48,0.56,0.55,0.47,0.23,0.83,0.55,0.21,0.21,0.51,0.51,0.21,0.21,0.53,0.5,0.56,0.55,0.56,0.55,0.56,0.56,0.48,0.56,0.21,0.54,0.23,0.56,0.33,0.48,0.56,0.56,0.21,0.21,0.51,0.51,0.21,0.21,0.54,0.55,0.48,0.5,0.56,0.21,0.67,0.23,0.56,0.55,0.5,0.24,0.21,0.21,0.51,0.51,0.21,0.21,0.49,0.48,0.56,0.56,0.48,0.55,0.56,0.21,0.21,0.51,0.51,0.21,0.21,0.85,0.5,0.4,0.33,0.5,0.33,0.56,0.21,0.21,0.51,0.51,0.21,0.21,0.65,0.5,0.24,0.48,0.21,0.21,0.51,0.51,0.21,0.21,0.49,0.48,0.4,0.33,0.21" style="fill:rgb(0,0,0);font-family:MyriadPro;font-size:7.5px;stroke:none;">Puncak Jaya; 8, Waropen; 9, Sarmi; 10, Jayawijaya; 11, Jayapura; 12, Yahukimo; 13, Pegunungan Bintang; 14, Boven Digoel; 15, Sandaun; 16, Western; 17, Hela; 18, East </text>
   <text y="609.572" x="36.0,39.697,43.455,47.722,49.477,52.995,54.548,56.04,59.888,63.735,65.287,66.78,70.47,74.632,78.825,82.44,83.992,85.485,89.332,93.18,94.732,96.225,99.923,104.04,108.173,110.655,114.817,118.575,121.027,125.19,126.682,131.572,133.327,137.52,141.683,143.453,147.068,151.23,155.46,158.43,159.983,161.475,165.323,169.17,170.723,172.215,178.56,182.318,185.288,187.77,191.528,193.98,198.143,199.635,204.525,206.28,210.473,214.635,216.405,220.02,224.183,228.413,231.383,232.935,234.428,238.275,242.123,243.675,245.168,247.943,249.698,255.218,258.833,262.35,265.965,267.518,269.01,272.858,276.705,278.258,279.75,284.1,288.263,290.018,296.273,300.54,304.673,306.225,307.718,311.565,315.413,316.965,318.458,324.488,328.103,332.333,335.948,340.11,344.303,345.855,347.348,351.195,355.043,356.595,358.087,361.777,365.392,368.362,370.845,374.603,377.055,381.218,382.71,387.6,389.355,393.548,397.71,399.48,403.095,407.258,411.488,414.458,416.01,417.503,421.35,425.198,426.75,428.243,434.273,438.39,440.843,444.96,449.228,452.985,454.538,456.03,459.878,463.725,465.277,466.77,471.12,474.878,479.04,481.523,483.975,487.59,489.36,490.913,492.405,496.253,500.1,501.652,503.145,509.175,510.93,512.7,516.862,520.62,522.112,526.177,529.792,533.325,534.877,536.37,542.4,546.015,550.282,551.775,555.892,558.082" svgx:width="0.49,0.5,0.57,0.23,0.47,0.21,0.21,0.51,0.51,0.21,0.21,0.49,0.56,0.56,0.48,0.21,0.21,0.51,0.51,0.21,0.21,0.49,0.55,0.55,0.33,0.56,0.5,0.33,0.56,0.21,0.65,0.23,0.56,0.56,0.24,0.48,0.56,0.56,0.4,0.21,0.21,0.51,0.51,0.21,0.21,0.85,0.5,0.4,0.33,0.5,0.33,0.56,0.21,0.65,0.23,0.56,0.56,0.24,0.48,0.56,0.56,0.4,0.21,0.21,0.51,0.51,0.21,0.21,0.37,0.23,0.74,0.48,0.47,0.48,0.21,0.21,0.51,0.51,0.21,0.21,0.58,0.56,0.23,0.83,0.57,0.55,0.21,0.21,0.51,0.51,0.21,0.21,0.8,0.48,0.56,0.48,0.56,0.56,0.21,0.21,0.51,0.51,0.21,0.21,0.49,0.48,0.4,0.33,0.5,0.33,0.56,0.21,0.65,0.23,0.56,0.56,0.24,0.48,0.56,0.56,0.4,0.21,0.21,0.51,0.51,0.21,0.21,0.8,0.55,0.33,0.55,0.57,0.5,0.21,0.21,0.51,0.51,0.21,0.21,0.58,0.5,0.56,0.33,0.33,0.48,0.24,0.21,0.21,0.51,0.51,0.21,0.21,0.8,0.23,0.24,0.56,0.5,0.21,0.54,0.48,0.47,0.21,0.21,0.8,0.48,0.57,0.21,0.55,0.29,0.21" style="fill:rgb(0,0,0);font-family:MyriadPro;font-size:7.5px;stroke:none;">Sepik; 19, Enga; 20, Southern Highlands; 21, Western Highlands; 22, Jiwaka; 23, Chimbu; 24, Madang; 25, Eastern Highlands; 26, Morobe; 27, Central; 28, Milne Bay. Map of </text>
   <text y="619.569" x="36.0,37.77,41.385,45.548,49.74,53.873,57.488,61.68,65.438,68.408,69.998" svgx:width="0.24,0.48,0.56,0.56,0.55,0.48,0.56,0.5,0.4,0.21,0.28" style="fill:rgb(0,0,0);font-family:MyriadPro;font-size:7.5px;stroke:none;">languages (</text>
   <text y="619.569" x="72.128" svgx:width="0.6" style="fill:rgb(0,0,0);font-family:MyriadPro-Bold;font-size:7.5px;stroke:none;">B</text>
   <text y="619.569" x="76.658,78.787,80.377,82.86,87.022,90.637,93.12,94.71,96.465,100.627,103.11,106.867,109.32,112.29,116.047,119.407,121.89,123.48,129.0,130.755,133.237,137.4,138.99,141.472,145.635,149.392,150.982,153.465,157.582,161.85,163.44,167.287,171.135,177.075,178.665,181.635,185.753,187.523,191.655,194.138,195.893,200.01,204.173,207.143,208.695,210.285,214.515,218.633,221.115,222.705,226.065,230.182,231.952,236.07,238.523,240.113,241.868,246.03,250.26,252.015,255.375,258.99,261.473,265.23,268.2,269.79,271.56,275.175,279.338,283.53,287.663,291.278,295.47,299.228,300.818,304.575,308.738,312.968,316.583,320.745,324.938,328.695,331.148,337.403,341.16,345.323,347.805,349.395,352.755,354.525,358.14,361.11,364.08" svgx:width="0.28,0.21,0.33,0.56,0.48,0.33,0.21,0.23,0.56,0.33,0.5,0.33,0.4,0.5,0.45,0.33,0.21,0.74,0.23,0.33,0.56,0.21,0.33,0.56,0.5,0.21,0.33,0.55,0.57,0.21,0.51,0.51,0.79,0.21,0.4,0.55,0.24,0.55,0.33,0.23,0.55,0.56,0.4,0.21,0.21,0.56,0.55,0.33,0.21,0.45,0.55,0.24,0.55,0.33,0.21,0.23,0.56,0.56,0.23,0.45,0.48,0.33,0.5,0.4,0.21,0.24,0.48,0.56,0.56,0.55,0.48,0.56,0.5,0.21,0.5,0.56,0.56,0.48,0.56,0.56,0.5,0.33,0.83,0.5,0.56,0.33,0.21,0.45,0.24,0.48,0.4,0.4,0.21" style="fill:rgb(0,0,0);font-family:MyriadPro;font-size:7.5px;stroke:none;">) that intersect with the top 10% solutions; dot color indicates language endangerment class.</text>
  </g>
 </g>
</svg>
