<?xml version="1.0" encoding="UTF-8"?>
<svg height="663.905" width="530.533" xmlns="http://www.w3.org/2000/svg">
 <g id="page" xmlns:svgx="http://www.xml-cml.org/schema/svgx">
  <g begin="text">
   <text y="62.979" x="76.535,79.189,83.62,86.274,88.26650000000001,91.057,93.711,95.7035,97.696,102.565,106.997,110.982,113.197,116.154,119.693,124.124,126.1165,128.907,134.223,137.323,140.423,142.4155,145.205,150.075,154.507,158.197,160.412,162.628,165.89569999999998,167.864,174.065,177.165,180.704,182.92,185.574" svgx:width="0.33,0.56,0.33,0.25,0.55,0.33,0.25,0.55,0.61,0.56,0.5,0.28,0.39,0.44,0.56,0.25,0.55,0.67,0.39,0.39,0.25,0.55,0.61,0.56,0.46,0.28,0.28,0.41,0.55,0.78,0.39,0.44,0.28,0.33,0.5" style="fill:rgb(0,0,0);font-family:URWPalladioL-Ital;font-size:7.97px;stroke:none;">Int. J. Environ. Res. Public Health</text>
   <text y="62.979" x="191.551,195.536,199.521,203.506" svgx:width="0.5,0.5,0.5,0.5" style="fill:rgb(0,0,0);font-family:URWPalladioL-Bold;font-size:7.97px;stroke:none;">2019</text>
   <text y="62.979" x="207.491" svgx:width="0.25" style="fill:rgb(0,0,0);font-family:URWPalladioL-Roma;font-size:7.97px;stroke:none;">,</text>
   <text y="62.979" x="211.476,215.461" svgx:width="0.5,0.5" style="fill:rgb(0,0,0);font-family:URWPalladioL-Ital;font-size:7.97px;stroke:none;">16</text>
   <text y="62.979" x="219.446,221.4385,223.431,227.416,231.401,235.386,239.371,491.808,495.793,499.778,501.771,506.123,508.7531,510.769,514.754" svgx:width="0.25,0.55,0.5,0.5,0.5,0.5,0.55,0.5,0.5,0.55,0.55,0.33,0.55,0.5,0.5" style="fill:rgb(0,0,0);font-family:URWPalladioL-Roma;font-size:7.97px;stroke:none;">, 3232 13 of 22</text>
   <text y="97.848" x="76.535,82.374,87.851,93.69,97.031,101.485,106.963,115.822,124.68,130.73,136.569,139.488,143.942,148.958,154.506,157.426,162.2068,164.709,170.839,173.758,178.012,182.818,187.834,192.087,196.893,201.0762,203.635,208.651,214.49,220.56560000000002,223.097,231.956,236.761,242.6,245.871,250.887,253.7754,256.294,262.133,266.939,271.955,274.874,278.135,283.91179999999997,286.462,289.381,295.15779999999995,297.698,303.727,308.743,312.706,315.977,318.896,323.35,329.4,332.319,337.336,341.32,343.786,352.153,356.959,360.741,365.5218,368.024,374.074,379.913,386.043,390.848,394.811,399.065,402.335,408.385,414.514,417.434,422.239,428.369,430.85900000000004,433.365,436.706,441.722,445.9052,448.454,456.821,461.626,465.408,470.1888,472.702,475.621,484.48,490.509,495.525,499.98,503.25,507.4332,509.982,512.901" svgx:width="0.58,0.55,0.58,0.33,0.44,0.55,0.88,0.88,0.6,0.58,0.29,0.44,0.5,0.55,0.29,0.48,0.55,0.61,0.29,0.42,0.48,0.5,0.42,0.48,0.42,0.55,0.5,0.58,0.61,0.55,0.88,0.48,0.58,0.33,0.5,0.29,0.55,0.58,0.48,0.5,0.29,0.33,0.58,0.55,0.29,0.58,0.55,0.6,0.5,0.4,0.33,0.29,0.44,0.6,0.29,0.5,0.4,0.55,0.83,0.48,0.4,0.48,0.55,0.6,0.58,0.61,0.48,0.4,0.42,0.33,0.6,0.61,0.29,0.48,0.61,0.25,0.55,0.33,0.5,0.42,0.55,0.83,0.48,0.4,0.48,0.55,0.29,0.88,0.6,0.5,0.44,0.33,0.42,0.55,0.29,0.58" style="fill:rgb(0,0,0);font-family:URWPalladioL-Roma;font-size:9.96px;stroke:none;">non-communicable diseases and mental health in particular were understudied, (as were impacts in</text>
   <text y="111.358" x="76.535,79.492,85.04,93.515,96.8018,99.755,104.836,110.75,116.8256,119.804,128.777,131.734,137.943,144.152,147.109,151.977,155.36,158.318,164.232,168.744,174.292,183.265,188.04579999999999,190.988,195.5,201.048,207.176,213.09,216.403,220.417,223.374,228.241,232.55,235.8368,238.779,243.86,249.774,255.8496,258.839,262.67,267.537,272.049,277.597,286.57,295.543,300.411,306.325,312.4006,315.389,319.22,324.088,328.396,333.264,338.345,342.186,346.698,352.47479999999996,355.457,359.969,365.05,371.158,376.238,380.75,383.707,387.02,392.67,396.054,401.674,407.801,410.758,413.715,419.924,422.881,428.796,434.3736,437.301,443.408,448.489,452.503,455.816,458.773,463.285,469.412,472.37,477.45,481.464,484.422,489.99960000000004,492.927,495.884,501.6608,504.644,507.956,513.871" svgx:width="0.29,0.55,0.83,0.33,0.55,0.5,0.58,0.61,0.55,0.88,0.29,0.61,0.61,0.29,0.48,0.33,0.29,0.58,0.44,0.55,0.88,0.48,0.55,0.44,0.55,0.6,0.58,0.33,0.4,0.29,0.48,0.42,0.33,0.55,0.5,0.58,0.61,0.55,0.4,0.48,0.44,0.55,0.88,0.88,0.48,0.58,0.61,0.55,0.4,0.48,0.42,0.48,0.5,0.4,0.44,0.58,0.55,0.44,0.5,0.6,0.5,0.44,0.29,0.33,0.56,0.33,0.55,0.6,0.29,0.29,0.61,0.29,0.58,0.56,0.55,0.6,0.5,0.4,0.33,0.29,0.44,0.6,0.29,0.5,0.4,0.29,0.56,0.55,0.29,0.58,0.55,0.33,0.58,0.48" style="fill:rgb(0,0,0);font-family:URWPalladioL-Roma;font-size:9.96px;stroke:none;">low- and middle-income countries) and recommend research capacity-building particularly in the</text>
   <text y="124.867" x="76.535,82.074,84.973,90.413,95.922,100.904,103.7924,106.293,111.524,116.963,122.971,126.218,131.9948,134.507" svgx:width="0.56,0.29,0.55,0.55,0.5,0.29,0.55,0.52,0.55,0.6,0.33,0.58,0.55,0.33" style="fill:rgb(0,0,0);font-family:URWPalladioL-Roma;font-size:9.96px;stroke:none;">global South [</text>
   <text y="124.867" x="137.825,142.806,147.788" svgx:width="0.5,0.5,0.5" style="fill:rgb(8,117,183);font-family:URWPalladioL-Roma;font-size:9.96px;stroke:none;">132</text>
   <text y="124.867" x="152.769,156.086" svgx:width="0.33,0.25" style="fill:rgb(0,0,0);font-family:URWPalladioL-Roma;font-size:9.96px;stroke:none;">].</text>
   <text y="148.08" x="76.535,81.516,84.006,87.494,95.793,99.11,103.534,107.957,114.044,118.468,122.891,126.209,131.748" svgx:width="0.5,0.25,0.55,0.83,0.33,0.44,0.44,0.61,0.44,0.44,0.33,0.56,0.61" style="fill:rgb(0,0,0);font-family:URWPalladioL-Bold;font-size:9.96px;stroke:none;">3. Discussion</text>
   <text y="167.567" x="97.795,101.22,106.9968,109.715,113.028,118.942,121.899,126.0822,128.789,132.63,137.497,143.239,146.196,151.063,158.614,161.104,163.766,172.241,177.0218,179.689,183.073,188.622,194.749,200.663,206.73860000000002,209.453,214.321,220.062,223.02,229.228,234.096,240.01,244.522,249.3028,251.971,257.519,260.80580000000003,263.484,269.591,273.432,278.981,284.631,288.462,293.329,297.638,301.8212,304.528,307.485,313.2618,315.98,319.293,324.16,328.174,337.147,341.3302,344.037,349.585,352.8718,355.55,360.062,363.019,365.976,374.949,380.03,383.343,388.1238,390.802,395.314,401.228,406.309,412.223,417.873,422.741,426.125,429.956,434.823,437.78,442.861,446.174,451.041,457.1166,459.831,465.939,472.066,477.686,480.643,483.6,487.98240000000004,490.693,496.607,501.475,506.556,509.513,512.825" svgx:width="0.34,0.58,0.55,0.33,0.58,0.29,0.42,0.55,0.4,0.48,0.56,0.29,0.48,0.83,0.25,0.55,0.83,0.48,0.55,0.33,0.55,0.6,0.58,0.61,0.55,0.48,0.56,0.29,0.61,0.48,0.58,0.44,0.48,0.55,0.55,0.33,0.55,0.6,0.4,0.55,0.56,0.4,0.48,0.42,0.42,0.55,0.29,0.58,0.55,0.33,0.48,0.4,0.88,0.42,0.55,0.55,0.33,0.55,0.44,0.29,0.29,0.88,0.5,0.33,0.48,0.55,0.44,0.58,0.5,0.58,0.56,0.48,0.33,0.4,0.48,0.29,0.5,0.33,0.48,0.61,0.55,0.6,0.6,0.55,0.29,0.29,0.44,0.55,0.58,0.48,0.5,0.29,0.33,0.58" style="fill:rgb(0,0,0);font-family:URWPalladioL-Roma;font-size:9.96px;stroke:none;">In this review, we found evidence of progress in terms of climate change-related public health</text>
   <text y="181.077" x="76.535,81.556,86.015,89.289,92.211,97.885,100.807,104.081,107.003,111.814,115.99719999999999,118.562,123.583,129.428,135.5036,138.054,143.075,147.534,150.808,153.73,159.404,164.1848,166.705,172.76,177.018,181.7988,184.319,189.802,193.0888,195.647,199.905,205.94,210.75,215.209,218.131,224.207,228.58939999999998,231.156,235.615,238.537,241.46,250.327,255.348,258.622,263.4028,265.923,270.944,276.788,282.8636,285.415,291.259,296.07,301.091,304.013,307.287,313.06379999999996,315.622,318.896,324.379,329.862,332.784,336.9672,339.533,342.455,348.23179999999996,350.79,355.6,360.622,365.08,370.85679999999996,373.425,378.898,382.18480000000005,384.743,388.017,393.861,398.6418,401.162,404.436,409.246,415.02279999999996,417.581,422.392,426.65,430.908,435.718,441.562,444.836,447.759,452.78,455.66839999999996,458.192,462.45,467.261,471.227,476.901,479.824,484.282,489.093,493.2762,495.841,500.862,504.648,509.458,514.48" svgx:width="0.5,0.44,0.33,0.29,0.56,0.29,0.33,0.29,0.48,0.42,0.55,0.5,0.58,0.61,0.55,0.5,0.44,0.33,0.29,0.56,0.48,0.55,0.6,0.42,0.48,0.55,0.55,0.33,0.55,0.42,0.6,0.48,0.44,0.29,0.61,0.44,0.55,0.44,0.29,0.29,0.88,0.5,0.33,0.48,0.55,0.5,0.58,0.61,0.55,0.58,0.48,0.5,0.29,0.33,0.58,0.55,0.33,0.55,0.55,0.29,0.42,0.55,0.29,0.58,0.55,0.48,0.5,0.44,0.58,0.55,0.55,0.33,0.55,0.33,0.58,0.48,0.55,0.33,0.48,0.58,0.55,0.48,0.42,0.42,0.48,0.58,0.33,0.29,0.5,0.29,0.55,0.42,0.48,0.4,0.56,0.29,0.44,0.48,0.42,0.55,0.5,0.4,0.48,0.5,0.42" style="fill:rgb(0,0,0);font-family:URWPalladioL-Roma;font-size:9.96px;stroke:none;">activities and active use of speciﬁc climate and health tools in each of the ten essential services areas</text>
   <text y="194.586" x="76.207,79.591,83.9,90.027,99.0,107.973,113.054,117.068,120.025,125.106,129.973,136.04860000000002,139.363,142.32,148.0968,151.415,156.73,161.81,167.43,170.387" svgx:width="0.33,0.42,0.6,0.88,0.88,0.5,0.4,0.29,0.5,0.48,0.61,0.55,0.29,0.58,0.55,0.61,0.5,0.55,0.29,0.48" style="fill:rgb(0,0,0);font-family:URWPalladioL-Roma;font-size:9.96px;stroke:none;">(summarized in Table</text>
   <text y="194.586" x="178.435" svgx:width="0.5" style="fill:rgb(8,117,183);font-family:URWPalladioL-Roma;font-size:9.96px;stroke:none;">1</text>
   <text y="194.586" x="183.516,186.9,189.39000000000001,195.009,203.454,209.002,212.315,217.396,223.015,225.972,230.515,233.005,236.409,239.721,245.636,250.4168,253.694,258.561,264.303,267.26,273.469,278.336,284.251,288.762,293.5428,296.811,302.359,305.6458,308.924,317.897,323.445,327.754,331.04080000000005,334.247,338.556,344.683,350.303,354.611,357.924,363.005,368.919,372.232,375.189,380.27,383.1584,386.418,392.515,396.356,401.905,407.555,411.386,416.253,420.562,424.7452,428.051,436.526,441.607,445.7902,449.106,454.187,460.295,466.402,471.483,475.314,480.181,486.096,489.38280000000003,492.589,495.546,501.3228,504.641,507.954,513.868" svgx:width="0.33,0.25,0.55,0.83,0.55,0.33,0.5,0.55,0.29,0.56,0.25,0.55,0.33,0.58,0.48,0.55,0.48,0.56,0.29,0.61,0.48,0.58,0.44,0.48,0.55,0.55,0.33,0.55,0.88,0.55,0.42,0.33,0.55,0.42,0.6,0.55,0.42,0.33,0.5,0.58,0.33,0.29,0.5,0.29,0.55,0.6,0.4,0.55,0.56,0.4,0.48,0.42,0.42,0.55,0.83,0.5,0.42,0.55,0.5,0.6,0.6,0.5,0.4,0.48,0.58,0.33,0.55,0.29,0.58,0.55,0.33,0.58,0.48" style="fill:rgb(0,0,0);font-family:URWPalladioL-Roma;font-size:9.96px;stroke:none;">). Notably, the evidence of most substantial progress was apparent in the</text>
   <text y="208.095" x="76.535,81.566,85.832,90.099,94.919,99.185,103.451,112.336,117.156,123.012,126.2988,128.778,132.129,138.196,144.053,148.52,151.8,154.729,160.223,166.079,170.2622,172.83,178.324,181.6108,184.161,193.046,198.539,204.396,207.324,210.604,216.098,220.073,223.001,228.857,234.4346,236.937,242.793,247.613,252.644,255.562,258.842,264.61879999999996,267.184,271.45,274.731,279.762,283.042,289.11,293.2932,295.861,299.655,304.475,307.403,312.434,315.714,320.534,326.6096,329.167,332.448,337.926,340.427,344.895,347.823,350.751,359.636,364.667,367.947,372.7278,375.252,379.72,385.576,390.607,396.463,402.058,406.8388,409.363,415.219,420.25,425.282,430.313,434.106,440.254,444.521,447.011,449.521,454.553,460.409,466.4846,469.042,475.19,478.118,483.149,488.744,494.6,500.094,504.361,507.289,513.145" svgx:width="0.5,0.42,0.42,0.48,0.42,0.42,0.88,0.48,0.58,0.33,0.55,0.33,0.6,0.58,0.44,0.33,0.29,0.55,0.58,0.42,0.55,0.55,0.33,0.55,0.88,0.55,0.58,0.29,0.33,0.55,0.4,0.29,0.58,0.56,0.55,0.58,0.48,0.5,0.29,0.33,0.58,0.55,0.42,0.33,0.5,0.33,0.6,0.42,0.55,0.4,0.48,0.29,0.5,0.33,0.48,0.61,0.55,0.33,0.55,0.55,0.44,0.29,0.29,0.88,0.5,0.33,0.48,0.55,0.44,0.58,0.5,0.58,0.56,0.48,0.55,0.58,0.5,0.5,0.5,0.4,0.61,0.42,0.25,0.55,0.5,0.58,0.61,0.55,0.61,0.29,0.5,0.56,0.58,0.55,0.42,0.29,0.58,0.56" style="fill:rgb(0,0,0);font-family:URWPalladioL-Roma;font-size:9.96px;stroke:none;">assessment functions of monitoring health status related to climate change hazards, and diagnosing</text>
   <text y="221.605" x="76.535,81.571,87.433,93.5086,96.085,101.121,105.392,109.662,114.487,118.758,123.028,125.959,131.821,137.3986,139.919,145.973,152.046,157.616,160.547,163.478,167.8604,170.448,176.31,181.135,186.171,189.102,192.385,198.1618,200.745,205.217,211.079,216.115,219.046,221.977,226.802,232.664,238.264,243.089,247.2722,249.857,253.211,257.008,262.508,273.9,278.372,281.303,284.234,293.127,298.163,301.447,306.2278,308.769,313.241,319.103,324.14,330.002,335.602,340.426,342.916,346.449,349.844,355.6208,358.204,361.487,367.349,372.174,376.444,381.2248,383.767,388.803,392.6,397.425,402.461,406.731,409.221,411.747,415.031,420.893,425.67379999999997,428.215,434.269,440.342,445.912,448.843,451.774,456.1564,458.744,464.606,469.431,474.467,477.398,480.681,486.45779999999996,489.041,495.135,499.96,502.891,508.9666,511.543,514.474" svgx:width="0.5,0.58,0.61,0.55,0.5,0.42,0.42,0.48,0.42,0.42,0.29,0.58,0.56,0.55,0.6,0.6,0.55,0.29,0.29,0.44,0.55,0.58,0.48,0.5,0.29,0.33,0.58,0.55,0.44,0.58,0.5,0.29,0.29,0.48,0.58,0.56,0.48,0.42,0.55,0.33,0.4,0.55,0.88,0.44,0.29,0.29,0.88,0.5,0.33,0.48,0.55,0.44,0.58,0.5,0.58,0.56,0.48,0.25,0.55,0.34,0.58,0.55,0.33,0.58,0.48,0.42,0.48,0.55,0.5,0.4,0.48,0.5,0.42,0.25,0.55,0.33,0.58,0.48,0.55,0.6,0.6,0.55,0.29,0.29,0.44,0.55,0.58,0.48,0.5,0.29,0.33,0.58,0.55,0.61,0.48,0.29,0.61,0.55,0.29,0.42" style="fill:rgb(0,0,0);font-family:URWPalladioL-Roma;font-size:9.96px;stroke:none;">and assessing public health challenges fromclimate change. In these areas, the public health ﬁeld is</text>
   <text y="235.114" x="76.535" svgx:width="0.48" style="fill:rgb(0,0,0);font-family:URWPalladioL-Roma;font-size:9.96px;stroke:none;">e</text>
   <text y="235.114" x="81.255" svgx:width="0.61" style="fill:rgb(0,0,0);font-family:Rpxr;font-size:9.96px;stroke:none;">ﬀ</text>
   <text y="235.114" x="87.246,91.966,96.34,99.552,102.42,107.987,112.706,115.573,121.1506,123.535,129.555,134.274,140.196,143.063,148.443,153.921,156.789,162.523,168.1006,170.494,175.421,181.155,187.2306,189.658,192.525,198.26,202.635,206.349,211.069,215.995,220.173,223.04,228.775,234.253,237.12,242.6976,245.081,248.796,253.516,259.477,265.211,268.078,273.813,279.3906,281.774,286.701,292.267,297.194,300.061,302.928,307.855,313.304,316.171,320.9518,323.383,326.595,331.965,337.345,340.212,344.3952,346.883,351.809,357.544,363.6196,366.047,374.747,379.467,382.679,388.413,393.793,399.813,403.991,406.481,409.942,418.879,423.6598,426.081,431.461,436.91,441.087,445.807,449.699,455.266,459.985,466.0606,468.498,473.478,475.908,480.086,485.82,488.687,491.968,495.25480000000005,497.663,500.944,504.659,510.039" svgx:width="0.48,0.44,0.33,0.29,0.56,0.48,0.29,0.56,0.55,0.61,0.48,0.6,0.29,0.55,0.56,0.29,0.58,0.56,0.55,0.5,0.58,0.61,0.55,0.29,0.58,0.44,0.4,0.48,0.5,0.42,0.29,0.58,0.56,0.29,0.56,0.55,0.4,0.48,0.61,0.58,0.29,0.58,0.56,0.55,0.5,0.56,0.5,0.29,0.29,0.5,0.55,0.29,0.48,0.55,0.33,0.55,0.55,0.29,0.42,0.55,0.5,0.58,0.61,0.55,0.88,0.48,0.33,0.58,0.55,0.61,0.42,0.25,0.55,1.0,0.48,0.55,0.55,0.55,0.42,0.48,0.4,0.56,0.48,0.61,0.55,0.5,0.55,0.42,0.58,0.29,0.33,0.33,0.55,0.33,0.4,0.55,0.88" style="fill:rgb(0,0,0);font-family:URWPalladioL-Roma;font-size:9.96px;stroke:none;">ectively deploying and increasingly reﬁning available tools and methods. We observed a shift from</text>
   <text y="248.624" x="76.236,82.14,86.845,90.548,94.91,99.615,102.474,108.024,112.729,118.8046,121.216,126.933,131.638,136.344,142.4196,144.831,148.102,153.465,157.449,159.831,164.536,170.253,175.97,180.882,186.599,190.96,195.665,201.7406,204.153,208.514,211.373,214.231,222.905,227.817,231.019,235.724,238.995,244.712,249.418,254.329,257.188,260.39,266.16679999999997,268.592,274.594,279.506,282.708,287.68800000000005,290.105,295.017,300.734,306.8096,309.221,315.223,320.134,323.337,328.317,330.733,336.451,341.362,345.242,353.916,359.279,364.997,367.855,372.767,377.678,380.881,383.739,389.102,394.87879999999996,397.305,400.576,405.487,409.849,413.542,418.906,423.071,427.2542,429.721,435.723,440.635,443.837,448.817,451.234,455.399,460.762,466.686,470.389,474.75,479.456,483.621,486.111,488.562,493.473,497.6562,500.123,508.316,513.021,515.88" svgx:width="0.6,0.48,0.4,0.44,0.48,0.29,0.56,0.48,0.61,0.55,0.58,0.48,0.48,0.61,0.55,0.33,0.55,0.4,0.55,0.48,0.58,0.58,0.5,0.58,0.44,0.48,0.61,0.55,0.44,0.29,0.29,0.88,0.5,0.33,0.48,0.33,0.58,0.48,0.5,0.29,0.33,0.58,0.55,0.61,0.5,0.33,0.5,0.55,0.5,0.58,0.61,0.55,0.61,0.5,0.33,0.5,0.55,0.58,0.5,0.4,0.88,0.55,0.58,0.29,0.5,0.5,0.33,0.29,0.55,0.58,0.55,0.33,0.5,0.44,0.4,0.55,0.42,0.42,0.55,0.61,0.5,0.33,0.5,0.55,0.42,0.55,0.6,0.4,0.44,0.48,0.42,0.25,0.55,0.5,0.42,0.55,0.83,0.48,0.29,0.29" style="fill:rgb(0,0,0);font-family:URWPalladioL-Roma;font-size:9.96px;stroke:none;">perceived need for enhanced climate-health data and data harmonization (across data sources, as well</text>
   <text y="262.133" x="76.535,81.531,85.7142,88.256,92.493,98.498,103.495,106.752,109.66,114.656,117.564,120.472,126.0496,128.506,133.502,139.318,145.39360000000002,147.911,151.169,155.955,164.779,170.784,176.24,180.187,185.183,188.091,190.999,196.555,199.8418,202.37,205.278,211.0548,213.572,218.568,223.564,228.561,233.557,236.047,238.543,241.801,247.279,249.745,255.56,260.557,266.202,269.11,274.926,280.5036,282.96,286.737,291.523,294.431,299.427,302.685,305.583,311.229,316.015,318.923,324.5006,326.967,330.734,336.19,341.716,347.741,351.978,355.26480000000004,357.724,363.539,368.535,371.793,374.701,380.157,385.972,390.969,393.8574,396.364,401.361,407.176,413.2516,415.76,418.668,424.483,427.741,432.527,436.474,442.29,447.286,450.544,453.452,458.907,464.723,469.719,472.6074,475.115,478.023,483.839,486.746,490.004,492.912,497.908,501.166,504.073,509.719,514.505" svgx:width="0.5,0.42,0.55,0.42,0.6,0.5,0.33,0.29,0.5,0.29,0.29,0.56,0.55,0.5,0.58,0.61,0.55,0.33,0.48,0.88,0.6,0.55,0.4,0.5,0.29,0.29,0.56,0.33,0.55,0.29,0.58,0.55,0.5,0.5,0.5,0.5,0.25,0.55,0.33,0.55,0.55,0.58,0.5,0.56,0.29,0.58,0.56,0.55,0.4,0.48,0.29,0.5,0.33,0.29,0.56,0.48,0.29,0.56,0.55,0.4,0.55,0.55,0.6,0.42,0.33,0.55,0.58,0.5,0.33,0.29,0.55,0.58,0.5,0.29,0.55,0.5,0.58,0.61,0.55,0.29,0.58,0.33,0.48,0.4,0.58,0.5,0.33,0.29,0.55,0.58,0.5,0.29,0.55,0.29,0.58,0.29,0.33,0.29,0.5,0.33,0.29,0.56,0.48,0.42" style="fill:rgb(0,0,0);font-family:URWPalladioL-Roma;font-size:9.96px;stroke:none;">as spatially and temporally) in 2008, to having relatively robust national and international initiatives</text>
   <text y="275.642" x="76.535,81.417,87.099,93.1746,95.486,98.669,103.999,109.33,112.171,116.3542,118.722,121.905,127.383,129.657,133.797,139.684,145.552,151.42,156.751,160.607,163.8938,166.211,172.177,176.853,182.37,187.046,189.887,195.218,201.086,209.707,214.384,220.066,223.3528,225.66,230.991,234.2778,236.664,242.629,247.511,250.694,255.67399999999998,257.987,261.238,264.079,269.761,272.944,277.621,281.477,287.16,292.041,295.224,298.065,303.396,309.078,313.96,316.84839999999997,319.223,324.104,329.786,335.8616,338.173,341.014,346.345,350.68,355.562,358.4504,360.814,365.149,367.99,370.832,379.453,384.334,387.517,392.2978,394.615,398.755,403.431,407.288,412.804,415.645,419.98,424.657,428.797,431.28700000000003,433.668,442.289,448.177,451.018,454.201,457.042,462.91,465.751,470.5318,472.849,478.531,483.208,488.089,490.93,494.113,499.8898,502.207,507.089,512.771" svgx:width="0.5,0.58,0.61,0.55,0.33,0.55,0.55,0.29,0.42,0.55,0.33,0.55,0.55,0.42,0.6,0.6,0.6,0.55,0.4,0.33,0.55,0.61,0.48,0.56,0.48,0.29,0.55,0.6,0.88,0.48,0.58,0.33,0.55,0.55,0.33,0.55,0.61,0.5,0.33,0.5,0.55,0.33,0.29,0.58,0.33,0.48,0.4,0.58,0.5,0.33,0.29,0.55,0.58,0.5,0.29,0.55,0.5,0.58,0.61,0.55,0.29,0.55,0.44,0.5,0.29,0.55,0.44,0.29,0.29,0.88,0.5,0.33,0.48,0.55,0.42,0.48,0.4,0.56,0.29,0.44,0.48,0.42,0.25,0.55,0.88,0.6,0.29,0.33,0.29,0.6,0.29,0.48,0.55,0.58,0.48,0.5,0.29,0.33,0.58,0.55,0.5,0.58,0.61" style="fill:rgb(0,0,0);font-family:URWPalladioL-Roma;font-size:9.96px;stroke:none;">and tools to support development of data (international and local climate services, multiple health and</text>
   <text y="289.152" x="76.535,80.87,83.711,86.552,95.173,100.055,103.238,107.914,111.166,114.846,119.523,122.364,127.246,130.429,135.105,141.1806,143.521,149.038,154.925,157.766,163.448,168.125,171.981,176.863,182.262,185.103,187.945,190.786,193.969,199.54659999999998,201.857,204.698,210.381,216.346,219.187,223.522,228.199,232.339,234.829,237.249,241.926,247.608,253.291,258.172,263.855,268.19,272.866,278.9416,281.282,286.711,289.552,294.883,300.282,305.163,308.004,310.494,312.915,318.598,323.479,326.662,329.503,334.834,340.516,345.398,348.2864,350.7,355.581,361.264,367.3396,369.689,372.53,377.861,382.196,387.078,389.96639999999996,392.37,396.509,402.396,406.253,411.769,416.446,419.287,422.128,424.969,429.851,435.533,439.868,444.6488,447.005,451.887,457.569,463.6446,465.995,474.616,479.947,485.629,488.47,491.653,496.984,500.84,503.681,509.364,514.792,518.043" svgx:width="0.44,0.29,0.29,0.88,0.5,0.33,0.48,0.33,0.4,0.48,0.29,0.5,0.33,0.48,0.61,0.55,0.56,0.6,0.29,0.58,0.48,0.4,0.5,0.55,0.29,0.29,0.29,0.33,0.56,0.55,0.29,0.58,0.61,0.29,0.44,0.48,0.42,0.25,0.55,0.48,0.58,0.58,0.5,0.58,0.44,0.48,0.61,0.55,0.56,0.29,0.55,0.55,0.5,0.29,0.25,0.55,0.58,0.5,0.33,0.29,0.55,0.58,0.5,0.29,0.55,0.5,0.58,0.61,0.55,0.29,0.55,0.44,0.5,0.29,0.55,0.42,0.6,0.4,0.56,0.48,0.29,0.29,0.29,0.5,0.58,0.44,0.48,0.55,0.5,0.58,0.61,0.55,0.88,0.55,0.58,0.29,0.33,0.55,0.4,0.29,0.58,0.56,0.33,0.25" style="fill:rgb(0,0,0);font-family:URWPalladioL-Roma;font-size:9.96px;stroke:none;">climate-related vulnerability indices, enhanced global, national and local surveillance and monitoring).</text>
   <text y="302.661" x="76.535,83.323,86.28,90.589,96.1666,99.978,105.059,109.368,113.677,118.544,122.853,127.161,136.134,141.002,146.916,150.2028,153.968,157.352,161.366,166.447,175.42,180.288,188.762,194.311,198.325,203.975,208.1582,212.023,218.151,222.459,227.327,233.4026,237.285,240.242,246.0188,249.896,253.209,259.123,263.9038,267.73,272.242,275.199,278.156,287.129,292.21,295.523,300.3038,304.13,309.211,315.125,321.2006,325.074,330.988,335.855,340.936,343.893,347.206,352.9828,356.86,363.008,367.875,370.832,376.9076,380.791,385.872,389.703,394.4838,398.31,404.224,409.773,418.0398,421.987,424.944,430.858,435.37,439.211,444.079,449.16,453.469,456.426,462.34,467.99,470.947,476.5246,480.336,483.294,486.606,491.474,495.488,500.569,503.882,506.839,512.58,517.448" svgx:width="0.67,0.29,0.42,0.56,0.55,0.5,0.42,0.42,0.48,0.42,0.42,0.88,0.48,0.58,0.33,0.55,0.33,0.4,0.5,0.88,0.48,0.83,0.55,0.4,0.56,0.42,0.55,0.6,0.42,0.48,0.61,0.55,0.29,0.58,0.55,0.33,0.58,0.48,0.55,0.44,0.29,0.29,0.88,0.5,0.33,0.48,0.55,0.5,0.58,0.61,0.55,0.58,0.48,0.5,0.29,0.33,0.58,0.55,0.61,0.48,0.29,0.61,0.55,0.5,0.4,0.48,0.55,0.58,0.55,0.83,0.55,0.29,0.58,0.44,0.4,0.48,0.5,0.42,0.29,0.58,0.56,0.29,0.56,0.55,0.29,0.33,0.48,0.4,0.5,0.33,0.29,0.56,0.48,0.25" style="fill:rgb(0,0,0);font-family:URWPalladioL-Roma;font-size:9.96px;stroke:none;">Risk assessment frameworks used in the climate and health ﬁeld are now increasingly iterative,</text>
   <text y="316.171" x="76.535,80.468,85.437,88.922,91.981,96.95,101.564,104.978,108.037,114.053,119.6306,123.625,129.854,135.87,140.484,145.443,149.558,152.972,158.155,161.214,167.23,170.644,176.2216,180.216,185.399,191.415,197.4906,201.536,204.95,210.966,215.7468,219.746,224.359,230.009,239.084,245.293,248.352,253.321,258.666,261.725,265.139,270.7166,274.701,279.884,285.9,291.9756,296.021,302.331,308.083,314.099,319.281,328.356,331.415,335.79740000000004,339.839,345.855,351.037,354.452,360.681,364.624,369.4048,373.403,379.053,382.3398,386.35,390.963,394.022,397.081,406.155,411.338,414.752,419.5328,423.532,428.145,434.161,439.344,445.36,451.111,456.08,458.57,466.13,474.138,483.213,488.863,494.878,500.4556,504.441,507.855,513.871" svgx:width="0.4,0.48,0.33,0.29,0.48,0.44,0.33,0.29,0.58,0.56,0.55,0.6,0.58,0.44,0.48,0.4,0.33,0.5,0.29,0.58,0.33,0.56,0.55,0.5,0.58,0.61,0.55,0.33,0.58,0.48,0.55,0.44,0.55,0.88,0.6,0.29,0.48,0.52,0.29,0.33,0.56,0.55,0.5,0.58,0.61,0.55,0.61,0.56,0.58,0.5,0.88,0.29,0.44,0.55,0.58,0.5,0.33,0.6,0.4,0.48,0.55,0.55,0.33,0.55,0.44,0.29,0.29,0.88,0.5,0.33,0.48,0.55,0.44,0.58,0.5,0.58,0.56,0.48,0.25,0.55,0.78,0.88,0.55,0.58,0.56,0.55,0.33,0.58,0.48" style="fill:rgb(0,0,0);font-family:URWPalladioL-Roma;font-size:9.96px;stroke:none;">reflecting uncertainty and the complexity and dynamic nature of climate change. Among the</text>
   <text y="329.68" x="76.535,81.718,86.128,90.538,95.507,99.917,104.328,113.402,118.371,124.387,127.6738,130.972,135.585,141.601,146.784,149.843,152.901,157.87,163.886,169.638,174.607,178.7902,182.198,187.95,193.6,196.658,202.674,208.2516,211.596,215.082,220.732,224.847,233.424,238.606,242.539,248.6146,252.03,257.213,261.145,265.9258,269.285,277.862,283.512,287.627,293.379,296.438,302.453,308.0306,311.386,317.036,323.265,326.5518,329.85,333.335,336.394,342.41,347.592,353.608,358.222,361.28,366.463,369.3514,372.692,377.102,383.332,387.742,391.156,396.339,399.398,405.413,410.596,416.317,419.376,422.434,425.493,428.908,434.48560000000003,437.83,443.012,449.028,455.10360000000003,458.519,462.929,467.543,472.726,475.784,478.843,484.859,490.61,494.096,500.325,506.301,509.705,515.355" svgx:width="0.5,0.42,0.42,0.48,0.42,0.42,0.88,0.48,0.58,0.33,0.55,0.44,0.58,0.5,0.29,0.29,0.48,0.58,0.56,0.48,0.42,0.55,0.56,0.55,0.29,0.58,0.56,0.55,0.33,0.55,0.4,0.83,0.5,0.4,0.61,0.55,0.5,0.4,0.48,0.55,0.83,0.55,0.4,0.56,0.29,0.58,0.56,0.55,0.55,0.6,0.33,0.55,0.33,0.29,0.58,0.5,0.58,0.44,0.29,0.5,0.29,0.55,0.42,0.6,0.42,0.33,0.5,0.29,0.58,0.5,0.55,0.29,0.29,0.29,0.33,0.56,0.55,0.5,0.58,0.61,0.55,0.42,0.44,0.5,0.29,0.29,0.58,0.56,0.33,0.6,0.6,0.55,0.55,0.33" style="fill:rgb(0,0,0);font-family:URWPalladioL-Roma;font-size:9.96px;stroke:none;">assessment challenges going forward are working out financial sustainability and scaling-up of</text>
   <text y="343.189" x="76.236,82.323,86.179,91.718,100.614,103.613,107.937,110.936,116.834,122.4116,124.993,130.074,136.161,142.238,146.094,151.633,156.714,161.237,167.135,172.006,176.33,178.82000000000002,181.441,184.858,190.965,195.0,198.348,204.245,209.117,213.101,215.663,221.849,226.93,230.278,235.25799999999998,237.879,243.777,248.858,252.893,261.789,267.329,273.226,276.225,281.306,286.387,289.734,292.733,298.272,304.04879999999997,306.681,311.762,317.66,323.73560000000003,326.367,330.223,335.094,338.511,341.51,347.408,350.407,356.305,361.8826,364.454,369.993,373.2798,375.931,384.828,389.699,393.047,398.945,404.484,410.671,414.995" svgx:width="0.6,0.4,0.55,0.88,0.29,0.42,0.29,0.58,0.56,0.55,0.5,0.6,0.6,0.4,0.55,0.5,0.44,0.58,0.48,0.42,0.25,0.55,0.33,0.6,0.4,0.33,0.58,0.48,0.4,0.55,0.61,0.5,0.33,0.5,0.55,0.58,0.5,0.4,0.88,0.55,0.58,0.29,0.5,0.5,0.33,0.29,0.55,0.58,0.55,0.5,0.58,0.61,0.55,0.4,0.48,0.33,0.29,0.58,0.29,0.58,0.56,0.55,0.55,0.33,0.55,0.88,0.48,0.33,0.58,0.55,0.61,0.42,0.25" style="fill:rgb(0,0,0);font-family:URWPalladioL-Roma;font-size:9.96px;stroke:none;">promising approaches, further data harmonization and refining of methods.</text>
   <text y="356.699" x="97.795,103.891,107.695,113.206,118.817,122.622,127.456,131.735,135.9182,138.517,146.933,151.98,156.1632,158.761,163.807,166.744,171.023,176.501,179.036,187.948,192.994,199.16,203.9408,206.487,209.424,215.20080000000002,217.8,221.09,226.964,231.7448,234.301,240.366,245.876,248.813,251.75,256.231,261.8086,264.345,270.511,275.345,281.048,285.882,288.818,294.329,300.394,309.305,314.14,320.013,323.2998,325.796,329.157,335.242,341.116,345.597,348.887,351.824,357.334,363.1108,365.71,370.191,375.701,384.613,390.678,395.724,399.529,404.363,410.4386,413.032,416.322,421.8,424.335,429.381,434.427,439.473,444.52,447.01,449.545,454.591,457.528,460.818,466.692,472.202,478.288,483.899,489.6758,492.275,495.212,498.4988,500.995,509.412,514.458" svgx:width="0.6,0.4,0.55,0.56,0.4,0.48,0.42,0.42,0.55,0.83,0.5,0.42,0.55,0.5,0.29,0.42,0.55,0.55,0.88,0.5,0.61,0.48,0.55,0.29,0.58,0.55,0.33,0.58,0.48,0.55,0.6,0.55,0.29,0.29,0.44,0.56,0.55,0.61,0.48,0.56,0.48,0.29,0.55,0.6,0.88,0.48,0.58,0.33,0.55,0.33,0.6,0.58,0.44,0.33,0.29,0.55,0.58,0.55,0.44,0.55,0.88,0.6,0.5,0.4,0.48,0.61,0.55,0.33,0.55,0.55,0.5,0.5,0.5,0.5,0.25,0.55,0.5,0.29,0.33,0.58,0.55,0.6,0.56,0.58,0.55,0.29,0.33,0.55,0.83,0.5,0.42" style="fill:rgb(0,0,0);font-family:URWPalladioL-Roma;font-size:9.96px;stroke:none;">Progress was also made in the policy development function compared to 2008, although it was</text>
   <text y="370.208" x="76.535,85.508,91.056,94.887,99.6678,102.407,111.38,114.337,119.581,124.448,130.657,133.14700000000002,137.14,140.565,146.3418,149.121,152.434,157.301,161.315,170.288,174.4712,177.249,182.797,186.0838,188.823,197.796,200.753,204.066,207.023,212.673,217.754,221.067,224.024,229.572,235.3488,238.129,244.236,249.784,252.741,255.699,260.21,264.753,267.243,269.976,274.488,280.036,283.42,289.04,293.907,299.821,304.689,310.837,314.15,318.3332,321.1,324.413,329.891,332.614,338.528,343.395,348.476,351.433,354.746,360.52279999999996,363.302,369.217,374.298,380.039,384.8198,387.549,392.63,395.942,399.255,403.269,408.35,412.862,416.175,421.042,427.1176,429.893,434.202,440.329,445.949,450.257,453.57,458.651,464.565,467.878,470.835,475.916,478.8044,481.515,485.357,490.224,494.533,499.4,504.481,508.312,512.824" svgx:width="0.88,0.55,0.4,0.48,0.55,0.88,0.29,0.52,0.48,0.61,0.25,0.55,0.34,0.58,0.55,0.33,0.48,0.4,0.88,0.42,0.55,0.55,0.33,0.55,0.88,0.29,0.33,0.29,0.56,0.5,0.33,0.29,0.55,0.58,0.55,0.6,0.55,0.29,0.29,0.44,0.56,0.25,0.55,0.44,0.55,0.33,0.55,0.48,0.58,0.48,0.61,0.33,0.42,0.55,0.33,0.55,0.55,0.58,0.48,0.5,0.29,0.33,0.58,0.55,0.58,0.5,0.56,0.48,0.55,0.5,0.33,0.33,0.4,0.5,0.44,0.33,0.48,0.61,0.55,0.42,0.6,0.55,0.42,0.33,0.5,0.58,0.33,0.29,0.5,0.29,0.55,0.4,0.48,0.42,0.48,0.5,0.4,0.44,0.58" style="fill:rgb(0,0,0);font-family:URWPalladioL-Roma;font-size:9.96px;stroke:none;">more mixed. In terms of mitigation policy, co-beneﬁts to health have attracted substantial research</text>
   <text y="383.718" x="76.535,81.536,84.797,88.058,92.849,98.67,101.931,104.842,110.303,116.125,118.615,121.126,127.137,132.139,136.09,139.35,142.261,146.702,152.734,155.644,160.646,164.597,167.507,173.0846,175.569,179.34,184.131,187.042,192.043,195.304,200.095,206.1706,208.707,211.968,217.446,219.93,224.931,227.842,231.82600000000002,234.294,240.305,245.766,248.677,251.588,257.619,260.88,263.791,269.252,275.0288,277.574,282.575,288.397,294.4726,297.009,302.01,306.451,309.712,312.623,318.274,323.0548,325.566,328.827,332.778,337.779,343.6,347.841,353.853,359.314,363.265,366.526,369.016,372.547,380.869,386.331,394.673,399.464,405.115,409.907,413.117,415.607,418.129,421.389,427.211,430.121,434.3042,436.863,442.685,447.686,451.8692,454.427,460.249,465.71,468.9968,471.472,477.033,481.824,485.11080000000004,487.586,492.027,497.028,500.979,504.93,507.84,512.632" svgx:width="0.5,0.33,0.33,0.48,0.58,0.33,0.29,0.55,0.58,0.25,0.55,0.6,0.5,0.4,0.33,0.29,0.44,0.6,0.29,0.5,0.4,0.29,0.56,0.55,0.4,0.48,0.29,0.5,0.33,0.48,0.61,0.55,0.33,0.55,0.55,0.5,0.29,0.4,0.55,0.6,0.55,0.29,0.29,0.6,0.33,0.29,0.55,0.58,0.55,0.5,0.58,0.61,0.55,0.5,0.44,0.33,0.29,0.56,0.48,0.55,0.33,0.4,0.5,0.58,0.42,0.6,0.55,0.4,0.33,0.25,0.55,0.83,0.55,0.83,0.48,0.56,0.48,0.4,0.25,0.55,0.33,0.58,0.29,0.42,0.55,0.58,0.5,0.42,0.55,0.58,0.55,0.33,0.55,0.56,0.48,0.33,0.55,0.44,0.5,0.4,0.4,0.29,0.48,0.61" style="fill:rgb(0,0,0);font-family:URWPalladioL-Roma;font-size:9.96px;stroke:none;">attention, particularly related to air pollution and active transport. However, this has not yet carried</text>
   <text y="397.227" x="76.535,81.866,87.382,92.059,96.04299999999999,98.171,103.052,107.2352,109.457,112.708,118.596,121.437,124.278,129.8556,131.962,136.843,141.0262,143.248,148.93,153.607,158.284,164.249,168.926,175.0016,177.146,179.987,185.7638,187.925,193.793,197.649,202.531,206.866,210.049,212.89,217.225,222.0058,224.167,227.008,232.69,235.873,241.351,243.459,247.794,253.125,261.746,270.367,276.254,281.936,284.777,289.112,293.994,297.177,300.018,305.349,311.12579999999997,313.286,318.617,321.90380000000005,324.134,329.816,334.492,339.374,342.215,345.398,351.1748,353.336,358.735,363.412,369.094,373.77,379.677,382.86,387.0432,389.265,392.448,397.926,400.034,403.217,408.899,413.6798,415.831,421.23,424.911,430.242,435.123,441.089,445.765,449.74899999999997,451.877,459.327,467.45,477.164,480.835,485.512,491.477,497.365,501.7,504.883,507.724,513.054" svgx:width="0.55,0.56,0.48,0.4,0.55,0.5,0.42,0.55,0.33,0.6,0.29,0.29,0.56,0.55,0.5,0.42,0.55,0.58,0.48,0.48,0.61,0.48,0.61,0.55,0.29,0.58,0.55,0.6,0.4,0.5,0.44,0.33,0.29,0.44,0.48,0.55,0.29,0.58,0.33,0.55,0.55,0.44,0.55,0.88,0.88,0.6,0.58,0.29,0.44,0.5,0.33,0.29,0.55,0.58,0.55,0.55,0.33,0.55,0.58,0.48,0.5,0.29,0.33,0.58,0.55,0.55,0.48,0.58,0.48,0.61,0.33,0.42,0.55,0.33,0.55,0.55,0.33,0.58,0.48,0.55,0.55,0.4,0.55,0.5,0.61,0.48,0.4,0.55,0.76,0.83,0.76,0.4,0.48,0.61,0.6,0.44,0.33,0.29,0.55,0.58" style="fill:rgb(0,0,0);font-family:URWPalladioL-Roma;font-size:9.96px;stroke:none;">over as fully as needed in practice into communication of health beneﬁts to the broader GHGreduction</text>
   <text y="410.736" x="76.236,82.104,87.435,90.276,93.117,97.452,103.0296,104.93,110.896,115.573,120.972,125.853,129.036,133.8168,135.753,141.084,145.068,146.991,152.859,158.19,161.031,163.872,168.207,173.78459999999998,175.676,180.011,185.693,191.024,193.865,198.2,202.876,207.016,209.506,212.796,219.318,223.995,229.423,234.305,237.985,243.951,246.792,252.474,258.0516,259.943,264.825,270.79,275.672,281.54,284.723,289.604,292.787,295.628,300.959,306.641,309.13100000000003,311.22,314.403,320.085,324.8658,326.803,332.67,338.558,343.957,346.798,349.639,354.0214,356.024,361.707,366.383,371.265,374.106,377.289,383.06579999999997,385.012,390.919,395.595,398.436,404.5116,406.452,409.293,413.4762,415.473,418.314,423.997,428.332,432.012,436.689,441.571,445.71,448.552,454.234,459.662,462.503,468.0806,469.972,472.813,478.496,482.831,485.672,491.559,497.524,502.201,508.27660000000003,510.217,513.058" svgx:width="0.6,0.55,0.29,0.29,0.44,0.56,0.55,0.61,0.48,0.55,0.5,0.33,0.48,0.55,0.55,0.4,0.55,0.6,0.55,0.29,0.29,0.44,0.56,0.55,0.44,0.58,0.55,0.29,0.44,0.48,0.42,0.25,0.55,0.67,0.48,0.56,0.5,0.4,0.61,0.29,0.58,0.56,0.55,0.5,0.61,0.5,0.6,0.33,0.5,0.33,0.29,0.55,0.58,0.25,0.55,0.33,0.58,0.48,0.55,0.6,0.6,0.55,0.29,0.29,0.44,0.55,0.58,0.48,0.5,0.29,0.33,0.58,0.55,0.61,0.48,0.29,0.61,0.55,0.29,0.42,0.55,0.29,0.58,0.44,0.4,0.48,0.5,0.42,0.29,0.58,0.56,0.29,0.56,0.55,0.29,0.58,0.44,0.29,0.6,0.61,0.48,0.61,0.55,0.29,0.58" style="fill:rgb(0,0,0);font-family:URWPalladioL-Roma;font-size:9.96px;stroke:none;">policy debate or policy choices. Regarding adaptation, the public health ﬁeld is increasingly included in</text>
   <text y="424.246" x="76.535,81.934,85.615,90.946,95.827,101.793,106.469,110.45299999999999,112.279,116.614,119.455,122.296,130.917,135.799,138.981,143.7618,145.62,149.291,153.968,158.108,160.949,163.79,166.631,171.308,176.99,181.325,186.1058,187.964,193.832,196.673,201.555,207.237,212.919,215.76,221.443,227.0206,228.824" svgx:width="0.55,0.4,0.55,0.5,0.61,0.48,0.4,0.55,0.44,0.29,0.29,0.88,0.5,0.33,0.48,0.55,0.4,0.48,0.42,0.29,0.29,0.29,0.48,0.58,0.44,0.48,0.55,0.6,0.29,0.5,0.58,0.58,0.29,0.58,0.56,0.55,0.48" style="fill:rgb(0,0,0);font-family:URWPalladioL-Roma;font-size:9.96px;stroke:none;">broader climate resilience planning e</text>
   <text y="424.246" x="233.504" svgx:width="0.61" style="fill:rgb(0,0,0);font-family:Rpxr;font-size:9.96px;stroke:none;">ﬀ</text>
   <text y="424.246" x="239.44,244.771,248.627,251.81,255.95,258.44,260.451,265.85,271.737,275.02380000000005,276.882,280.065,285.748,290.424,294.105,298.8858,300.734,304.415,309.092,317.713,322.594,325.436,331.118,335.3012,337.21,342.19,344.054,348.194,354.081,357.938,363.806,367.662,370.503,374.643,377.484,383.166,388.7436,390.547,394.687,400.369,405.7,409.557,412.739,417.621,423.05,427.8308,429.689,435.019,438.30580000000003,440.233,444.91,450.416,455.308,458.139,464.026,468.908,472.091,474.932,480.263,486.03979999999996,487.908,492.047,495.23,501.117,507.083,509.924,514.6" svgx:width="0.55,0.4,0.33,0.42,0.25,0.55,0.55,0.6,0.33,0.55,0.33,0.58,0.48,0.4,0.48,0.55,0.4,0.48,0.88,0.5,0.29,0.58,0.42,0.55,0.5,0.55,0.42,0.6,0.4,0.6,0.4,0.29,0.42,0.29,0.58,0.56,0.55,0.42,0.58,0.55,0.4,0.33,0.5,0.56,0.48,0.55,0.55,0.33,0.55,0.48,0.56,0.5,0.29,0.6,0.5,0.33,0.29,0.55,0.58,0.55,0.42,0.33,0.6,0.61,0.29,0.48,0.42" style="fill:rgb(0,0,0);font-family:URWPalladioL-Roma;font-size:9.96px;stroke:none;">orts, but there remains a surprising shortage of evaluation studies</text>
   <text y="437.755" x="76.535,82.083,87.85979999999999,90.66,95.741,101.95,107.031,113.138,116.451,121.532,124.844,127.802,133.35,139.1268,141.927" svgx:width="0.55,0.58,0.55,0.5,0.61,0.5,0.6,0.33,0.5,0.33,0.29,0.55,0.58,0.55,0.48" style="fill:rgb(0,0,0);font-family:URWPalladioL-Roma;font-size:9.96px;stroke:none;">on adaptation e</text>
   <text y="437.755" x="146.79" svgx:width="0.61" style="fill:rgb(0,0,0);font-family:Rpxr;font-size:9.96px;stroke:none;">ﬀ</text>
   <text y="437.755" x="152.968,157.836,162.347,165.66,168.617,174.359,179.226,185.14,190.008,194.317,198.5002,201.288,204.671,208.98,215.108,220.758,226.408,231.275,235.584,238.897,241.854,247.768,253.3456,256.08,259.037,264.81379999999996,267.604,273.711,278.792,282.806,286.0928,288.781,294.888,298.902,303.983,308.495,311.808,314.765,318.078,321.035,326.583,332.497,337.365,341.379,345.687,348.4758,351.175,354.132,357.089,366.062,369.019,372.332,377.199,383.2746,386.071,389.383,392.341,401.313,406.0938,408.833,412.146,417.624,420.357,426.566,432.114,436.626,442.753,451.726,456.594,462.508,465.7948,468.483,474.032,478.01599999999996,480.708,485.576,491.317,496.398,499.355,505.483,510.564,513.876" svgx:width="0.48,0.44,0.33,0.29,0.56,0.48,0.58,0.48,0.42,0.42,0.55,0.33,0.42,0.6,0.56,0.56,0.48,0.42,0.33,0.29,0.58,0.56,0.55,0.29,0.58,0.55,0.6,0.5,0.4,0.33,0.55,0.6,0.4,0.5,0.44,0.33,0.29,0.33,0.29,0.55,0.58,0.48,0.4,0.42,0.28,0.55,0.29,0.29,0.88,0.29,0.33,0.48,0.61,0.55,0.33,0.29,0.88,0.48,0.55,0.33,0.55,0.55,0.61,0.55,0.44,0.6,0.88,0.48,0.58,0.33,0.55,0.55,0.4,0.55,0.48,0.56,0.5,0.29,0.6,0.5,0.33,0.48" style="fill:rgb(0,0,0);font-family:URWPalladioL-Roma;font-size:9.96px;stroke:none;">ectiveness (suggesting in part practitioners’ limited time to document or evaluate</text>
   <text y="451.264" x="76.535,79.848,85.762,90.63,93.587,97.571,101.066,109.541,115.089,119.103,124.753,128.137,130.627,137.1,146.713,151.58,156.661,162.575,171.05,176.965,179.922,182.879,187.746,190.23600000000002,193.996,199.544,205.672,209.656,213.151,216.992,221.86,227.601,230.558,235.426,243.69279999999998,247.366,251.675,257.802,263.452,269.102,273.97,278.278,281.591,285.7742,289.365,298.338,303.886,310.095,314.963,319.271,322.55780000000004,326.049,331.13,335.642,341.556,344.513,349.381,355.122,359.99,368.963,373.83,379.744,383.057,387.2402,390.841,393.798,399.5748,403.178,409.285,414.366,418.38,421.692,427.607,432.474,436.488,440.797,446.711,449.668,455.775,460.084,462.574,466.333,474.808,477.766,481.078,486.85479999999995,490.458,496.565,502.693,508.312,511.269,514.226" svgx:width="0.33,0.58,0.48,0.29,0.4,0.55,0.83,0.55,0.4,0.56,0.33,0.25,0.55,0.95,0.48,0.5,0.58,0.83,0.58,0.29,0.29,0.48,0.25,0.55,0.55,0.6,0.4,0.55,0.4,0.48,0.56,0.29,0.48,0.83,0.55,0.42,0.6,0.56,0.56,0.48,0.42,0.33,0.42,0.55,0.88,0.55,0.61,0.48,0.42,0.33,0.55,0.5,0.44,0.58,0.29,0.48,0.56,0.48,0.88,0.48,0.58,0.33,0.42,0.55,0.29,0.58,0.55,0.6,0.5,0.4,0.33,0.58,0.48,0.4,0.42,0.58,0.29,0.6,0.42,0.25,0.55,0.83,0.29,0.33,0.58,0.55,0.6,0.6,0.55,0.29,0.29,0.44" style="fill:rgb(0,0,0);font-family:URWPalladioL-Roma;font-size:9.96px;stroke:none;">their work). Meanwhile, our review suggests modest achievements in partnerships, with public</text>
   <text y="464.774" x="76.535,82.449,87.317,92.398,95.355,98.668,104.4448,107.976,114.083,117.04,122.121,127.771,130.728,136.642,142.21959999999999,145.676,150.65599999999998,154.151,159.801,163.642,169.191,177.666,180.623,186.537,192.1146,195.571,199.412,204.961,207.918,212.6988,216.169,219.126,224.9028,228.434,234.542,238.373,243.921,249.662,252.62,258.828,261.786,267.7,273.2776,276.744,282.658,287.525,292.393,298.602,303.469,309.5446,313.072,319.281,324.362,327.675,332.65500000000003,336.15,341.231,347.145,353.2206,356.738,359.695,365.609,371.818,374.775,379.287,384.368,387.681,393.229,397.243,401.4262,404.946,408.33,413.197,415.738,421.388,423.928,426.418,430.086,435.635,441.41179999999997,444.943,450.684,456.812,459.769,465.683,470.551,474.565,479.646,485.255,488.212,491.169,494.126,497.439,503.089,506.3758,509.867,512.824" svgx:width="0.58,0.48,0.5,0.29,0.33,0.58,0.55,0.6,0.29,0.5,0.56,0.29,0.58,0.56,0.55,0.5,0.55,0.56,0.4,0.55,0.83,0.29,0.58,0.56,0.55,0.4,0.55,0.29,0.48,0.55,0.29,0.58,0.55,0.6,0.4,0.55,0.56,0.29,0.61,0.29,0.58,0.56,0.55,0.58,0.48,0.48,0.61,0.48,0.61,0.55,0.61,0.5,0.33,0.5,0.55,0.5,0.58,0.61,0.55,0.29,0.58,0.61,0.29,0.44,0.5,0.33,0.55,0.4,0.42,0.55,0.33,0.48,0.25,0.56,0.25,0.25,0.55,0.55,0.58,0.55,0.56,0.6,0.29,0.58,0.48,0.4,0.5,0.55,0.29,0.29,0.29,0.33,0.56,0.33,0.55,0.29,0.58" style="fill:rgb(0,0,0);font-family:URWPalladioL-Roma;font-size:9.96px;stroke:none;">health playing a growing role in providing needed data and indicators (e.g., on vulnerability) in</text>
   <text y="478.283" x="76.535,85.508,91.636,94.593,97.905,100.862,104.246,110.455,113.412,117.721,122.233,125.19,131.297,134.254,137.211,143.126,148.207,152.22,157.7976,161.031,164.344,169.211,174.292,183.265,187.574,190.06400000000002,195.622,201.76,207.887,213.507,216.464,219.421,223.80339999999998,227.093,233.007,237.875,242.956,245.913,249.225,255.0018,258.3,261.257,265.4402,268.726,274.833,280.382,283.339,287.647,292.515,298.5906,301.884,305.197,310.675,313.916,317.229,322.31,327.96,332.7408,335.987,340.96700000000004,344.229,348.537,354.665,360.284,364.593,367.906,372.987,378.901,382.214,385.171,390.252,393.209,396.166,401.7436,404.976,410.626,414.467,419.335,424.416,427.729,432.596,436.58,439.77,442.727,447.595,452.676,458.885,463.752,467.766,472.075,477.989,480.946,486.922,490.214,493.171,498.9478,502.245,505.558,511.472,514.43" svgx:width="0.88,0.6,0.29,0.33,0.29,0.33,0.61,0.29,0.42,0.44,0.29,0.6,0.29,0.29,0.58,0.5,0.4,0.56,0.55,0.33,0.48,0.5,0.88,0.42,0.25,0.55,0.6,0.6,0.55,0.29,0.29,0.44,0.55,0.58,0.48,0.5,0.29,0.33,0.58,0.55,0.29,0.42,0.55,0.6,0.55,0.29,0.42,0.48,0.61,0.55,0.33,0.55,0.55,0.33,0.5,0.56,0.48,0.55,0.5,0.55,0.42,0.6,0.55,0.42,0.33,0.5,0.58,0.33,0.29,0.5,0.29,0.29,0.56,0.55,0.56,0.4,0.48,0.5,0.33,0.48,0.4,0.55,0.29,0.48,0.5,0.61,0.48,0.4,0.42,0.58,0.29,0.6,0.55,0.29,0.58,0.55,0.33,0.58,0.29,0.42" style="fill:rgb(0,0,0);font-family:URWPalladioL-Roma;font-size:9.96px;stroke:none;">multi-disciplinary teams. Public health is poised to take a substantially greater leadership in this</text>
   <text y="491.793" x="76.535,82.665,88.142,97.001,102.017,104.937,110.775,113.265,116.765,125.112,130.589,138.956,143.762,149.43,154.235,157.456,159.946,162.442,166.896,172.374,181.233,187.262,192.278,196.241,201.257,204.528,207.447,213.115,217.921,220.84,226.4176,228.896,231.816,236.621,240.875,245.0582,247.596,253.626,257.408,262.886,268.464,272.246,277.051,281.305,285.4882,288.037,292.291,297.096,301.901,310.76,314.9432,317.482,320.752,326.23,328.708,334.547,339.563,345.231,350.0118,352.505,358.052,362.858,367.663,373.4398,375.98,384.839,389.855,395.985,400.7658,403.258,406.178,411.9548,414.494,418.949,424.426,433.285,442.143,448.193,454.032,456.951,461.406,466.422,469.692,472.612,478.45,484.0276,486.496,490.951,493.87,496.79,505.648,510.664,513.935" svgx:width="0.61,0.55,0.88,0.5,0.29,0.58,0.25,0.55,0.83,0.55,0.83,0.48,0.56,0.48,0.4,0.25,0.55,0.44,0.55,0.88,0.6,0.5,0.4,0.5,0.33,0.29,0.56,0.48,0.29,0.56,0.55,0.29,0.48,0.42,0.42,0.55,0.6,0.4,0.55,0.56,0.4,0.48,0.42,0.42,0.55,0.42,0.48,0.48,0.88,0.42,0.55,0.33,0.55,0.55,0.58,0.5,0.56,0.48,0.55,0.55,0.48,0.48,0.58,0.55,0.88,0.5,0.61,0.48,0.55,0.29,0.58,0.55,0.44,0.55,0.88,0.88,0.6,0.58,0.29,0.44,0.5,0.33,0.29,0.58,0.56,0.55,0.44,0.29,0.29,0.88,0.5,0.33,0.48" style="fill:rgb(0,0,0);font-family:URWPalladioL-Roma;font-size:9.96px;stroke:none;">domain. However, comparatively less progress seems to have been made in communicating climate</text>
   <text y="505.302" x="76.535,81.616,87.53,93.6056,97.346,103.261,108.128,113.209,116.166,119.479,125.2558,128.99,137.963,142.831,147.14,151.448,156.529,162.179,165.136,171.05,176.7,179.19,186.07,193.274,196.231,199.189,208.161,213.242,216.555,221.3358,225.03,230.944,235.812,240.893,243.85,247.163,252.93980000000002,256.674,259.631,262.588,265.901,270.769,274.783,279.864,284.375,289.9526,293.633,297.464,302.331,311.304,316.385,319.342,325.257,329.4402,333.173,336.13,341.678,349.238,351.728,355.661,360.528,366.27,371.137,376.9138,380.649,385.73,394.703,400.251,406.165,411.74260000000004,415.423,418.735,424.65,429.4308,433.114,436.427,440.37,446.497,450.806,454.119,458.986,465.0616,468.793,474.707,479.574,484.655,487.612,490.925,496.7018,500.447,504.959,510.04,513.871" svgx:width="0.5,0.58,0.61,0.55,0.58,0.48,0.5,0.29,0.33,0.58,0.55,0.88,0.48,0.42,0.42,0.5,0.56,0.29,0.58,0.56,0.25,0.55,0.71,0.29,0.29,0.88,0.5,0.33,0.48,0.55,0.58,0.48,0.5,0.29,0.33,0.58,0.55,0.29,0.29,0.33,0.48,0.4,0.5,0.44,0.56,0.55,0.4,0.48,0.88,0.5,0.29,0.58,0.42,0.55,0.29,0.55,0.83,0.25,0.55,0.48,0.56,0.48,0.58,0.55,0.5,0.88,0.55,0.58,0.56,0.55,0.33,0.58,0.48,0.55,0.33,0.4,0.6,0.42,0.33,0.48,0.61,0.55,0.58,0.48,0.5,0.29,0.33,0.58,0.55,0.44,0.5,0.4,0.48" style="fill:rgb(0,0,0);font-family:URWPalladioL-Roma;font-size:9.96px;stroke:none;">and health messaging. Climate health literacy remains low, even among the trusted health care</text>
   <text y="518.811" x="76.236,82.224,85.979,91.419,94.737,99.509,103.733,107.957,110.856,116.296,122.094,127.075,129.9634,132.465,138.452,143.892,149.88,155.887,158.786,163.767,167.015,169.914,175.354,181.152" svgx:width="0.6,0.4,0.55,0.33,0.48,0.42,0.42,0.29,0.55,0.58,0.5,0.29,0.55,0.6,0.55,0.6,0.6,0.29,0.5,0.33,0.29,0.55,0.58,0.25" style="fill:rgb(0,0,0);font-family:URWPalladioL-Roma;font-size:9.96px;stroke:none;">professional population.</text>
   <text y="532.321" x="97.795,103.351,106.259,112.074,117.071,119.978,122.886,127.333,129.823,132.319,138.325,142.092,147.548,153.103,156.871,161.657,165.894,170.0772,172.609,176.846,179.753,185.569,190.006,194.7868,197.28,202.276,207.273,212.269,217.249,219.743,222.651,228.42780000000002,230.945,234.202,240.018,244.7988,247.293,252.289,256.526,260.762,266.788,270.735,275.731,281.547,285.984,290.7648,293.248,296.576,302.601,308.417,312.853,316.111,319.019,324.475,330.2518,332.768,341.102,346.098,350.2812,352.813,357.81,360.717,364.954,370.432,372.898,381.722,384.629,389.786,394.572,400.677,403.16700000000003,406.653,410.02,415.79679999999996,418.324,421.582,427.397,432.1778,434.662,439.658,443.425,448.212,453.208,457.3912,459.923,465.379,468.66580000000005,471.194,479.528,484.984,488.931,494.5086,496.965,500.292,505.748,509.515,513.952" svgx:width="0.56,0.29,0.58,0.5,0.29,0.29,0.56,0.25,0.55,0.6,0.4,0.55,0.56,0.4,0.48,0.42,0.42,0.55,0.42,0.29,0.58,0.44,0.48,0.55,0.5,0.5,0.5,0.5,0.55,0.29,0.58,0.55,0.33,0.58,0.48,0.55,0.5,0.42,0.42,0.6,0.4,0.5,0.58,0.44,0.48,0.55,0.33,0.6,0.58,0.44,0.33,0.29,0.55,0.58,0.55,0.83,0.5,0.42,0.55,0.5,0.29,0.42,0.55,0.55,0.88,0.29,0.52,0.48,0.61,0.25,0.55,0.34,0.58,0.55,0.33,0.58,0.48,0.55,0.5,0.4,0.48,0.5,0.42,0.55,0.55,0.33,0.55,0.83,0.55,0.4,0.56,0.55,0.33,0.55,0.4,0.44,0.48" style="fill:rgb(0,0,0);font-family:URWPalladioL-Roma;font-size:9.96px;stroke:none;">Finally, progress since 2008 in the assurance function was also mixed. In the areas of work force</text>
   <text y="545.83" x="76.535,82.628,87.405,93.04,97.816,100.718,106.163,112.157,120.963,125.74,131.544,134.8308,137.278,142.264,148.068,154.14360000000002,156.645,159.547,165.351,168.602,173.379,177.318,182.952,187.729,193.533,196.784,199.686,205.131,210.9078,213.418,218.195,223.83,228.816,231.718,237.731,242.718,245.969,248.871,254.316,260.0928,262.603,265.924,271.369,275.353,277.791,282.219,285.121,288.023,296.829,301.815,305.066,309.8468,312.326,317.312,323.116,329.1916,331.693,337.497,342.274,347.26,350.162,353.413,359.1898,361.7,365.46,370.237,373.139,378.125,381.376,386.153,392.22860000000003,394.729,400.723,404.482,409.927,415.472,419.411,424.398,433.203,437.432,439.922,442.408,448.402,452.161,457.606,463.151,466.911,471.687,475.916,480.0992,482.627,488.072,493.707,498.484,502.46799999999996,504.906,508.157,513.961" svgx:width="0.61,0.48,0.56,0.48,0.29,0.55,0.6,0.88,0.48,0.58,0.33,0.55,0.5,0.58,0.61,0.55,0.29,0.58,0.33,0.48,0.4,0.56,0.48,0.58,0.33,0.29,0.55,0.58,0.55,0.48,0.56,0.5,0.29,0.6,0.5,0.33,0.29,0.55,0.58,0.55,0.33,0.55,0.4,0.55,0.44,0.29,0.29,0.88,0.5,0.33,0.48,0.55,0.5,0.58,0.61,0.55,0.58,0.48,0.5,0.29,0.33,0.58,0.55,0.4,0.48,0.29,0.5,0.33,0.48,0.61,0.55,0.6,0.4,0.55,0.56,0.4,0.5,0.88,0.42,0.25,0.55,0.6,0.4,0.55,0.56,0.4,0.48,0.42,0.42,0.55,0.55,0.56,0.48,0.4,0.55,0.33,0.58,0.48" style="fill:rgb(0,0,0);font-family:URWPalladioL-Roma;font-size:9.96px;stroke:none;">development and intervention evaluation for climate and health related programs, progress over the</text>
   <text y="559.34" x="76.535,82.744,87.611,92.123,97.204,103.413,108.1938,110.953,116.867,121.948,126.13119999999999,128.919,134.539,139.406,144.274,150.0508,152.861,159.07,162.027,166.335,171.416,177.523,183.631,189.179,192.136,198.05,201.363,204.32,210.234,215.884,218.842,224.4196,227.154,230.111,233.068,242.041,244.998,248.311,253.178,259.387,261.877,265.952,273.858,279.772,284.284,289.151,293.165,296.478,301.559,304.516,310.43,313.743,319.3206,322.055,325.886,330.754,336.404,341.485,345.326,351.535,354.492,360.406,365.9836,368.719,377.692,382.773,388.687,394.896,399.977,403.289,408.157,412.3402,415.138,420.219,426.133,432.2086,435.004,438.846,443.713,448.022,453.57,459.698,463.529,468.041,472.908,477.0912,479.889,484.198,489.065,493.933,502.906,507.0892,509.877,513.19" svgx:width="0.61,0.48,0.44,0.5,0.61,0.48,0.55,0.58,0.5,0.42,0.55,0.55,0.48,0.48,0.58,0.55,0.61,0.29,0.42,0.5,0.6,0.6,0.55,0.29,0.58,0.33,0.29,0.58,0.56,0.29,0.56,0.55,0.29,0.29,0.88,0.29,0.33,0.48,0.61,0.25,0.55,0.78,0.58,0.44,0.48,0.4,0.33,0.5,0.29,0.58,0.33,0.56,0.55,0.4,0.48,0.56,0.5,0.4,0.61,0.29,0.58,0.56,0.55,0.88,0.5,0.58,0.61,0.5,0.33,0.48,0.42,0.55,0.5,0.58,0.61,0.55,0.4,0.48,0.42,0.55,0.6,0.4,0.44,0.48,0.42,0.55,0.42,0.48,0.48,0.88,0.42,0.55,0.33,0.55" style="fill:rgb(0,0,0);font-family:URWPalladioL-Roma;font-size:9.96px;stroke:none;">decade has been disappointingly limited. Uncertainty regarding mandates and resources seems to</text>
   <text y="572.849" x="76.236,82.343,86.174,91.042,95.35,100.218,106.132,109.4188,111.945,118.052,122.066,127.147,131.659,134.972,137.929,142.44,147.521,150.40939999999998,152.968,158.517,164.136,168.445,171.757,176.838,181.35,184.307,189.175,193.3582,195.983,199.296,204.774,207.334,216.307,221.855,225.686,230.4668,233.054,241.529,244.486,250.695,255.562,259.871,265.978,269.809,274.677,279.758,285.8336,288.456,294.563,300.691,306.31,309.268,312.225,316.60740000000004,319.236,325.151,330.018,335.099,338.056,341.369,347.1458,349.773,358.248,363.796,367.81,373.46,376.844,382.392,386.233,390.745,395.5258,398.102,401.415,405.429,410.51,413.467,419.381,422.338,428.253,433.8306,436.392,441.941,447.71779999999995,450.355,454.867,457.824,460.781,469.754,474.835,478.147,482.9278,485.504,490.016,495.931,501.011,506.926,512.576,517.443" svgx:width="0.6,0.4,0.48,0.42,0.48,0.58,0.33,0.55,0.6,0.4,0.5,0.44,0.33,0.29,0.44,0.5,0.29,0.55,0.55,0.55,0.42,0.33,0.5,0.44,0.29,0.48,0.42,0.55,0.33,0.55,0.55,0.88,0.55,0.4,0.48,0.55,0.83,0.29,0.61,0.48,0.42,0.6,0.4,0.48,0.5,0.61,0.55,0.6,0.6,0.55,0.29,0.29,0.44,0.55,0.58,0.48,0.5,0.29,0.33,0.58,0.55,0.83,0.55,0.4,0.56,0.33,0.55,0.4,0.44,0.48,0.55,0.33,0.4,0.5,0.29,0.58,0.29,0.58,0.56,0.55,0.55,0.58,0.55,0.44,0.29,0.29,0.88,0.5,0.33,0.48,0.55,0.44,0.58,0.5,0.58,0.56,0.48,0.25" style="fill:rgb(0,0,0);font-family:URWPalladioL-Roma;font-size:9.96px;stroke:none;">present practical obstacles to more widespread public health workforce training on climate change,</text>
   <text y="586.358" x="76.535,81.417,87.099,93.1746,95.408,99.742,103.599,106.44,109.623,112.464,116.799,121.681,124.5694,126.855,132.743,138.425,144.39,149.067,152.923,157.063,160.246,165.128,170.81,176.775,179.616,185.299,190.8766,193.07,198.401,201.6878,203.996,209.395,214.071,218.211,221.4978,223.727,229.595,233.452,238.333,242.668,245.851,248.692,253.027,257.8078,260.047,262.888,268.57,271.753,276.43,280.286,285.803,290.479,296.162,299.344,302.186,307.516,313.199,317.338,319.82800000000003,323.216,331.339,336.67,344.812,349.489,355.005,359.682,362.796,365.286,367.61,370.451,376.2278,378.476,381.649,387.332,392.1128,394.352,399.233,402.914,407.591,412.571,414.806,420.137,423.4238,425.731,430.408,436.09,439.341,444.672,448.353,452.688,455.529,461.211,466.78860000000003,468.973,472.654,477.33,482.759,488.646,491.487,496.369,499.552,502.393,507.724,513.406,517.545" svgx:width="0.5,0.58,0.61,0.55,0.44,0.4,0.29,0.33,0.29,0.44,0.5,0.29,0.55,0.6,0.58,0.61,0.48,0.4,0.42,0.33,0.5,0.58,0.61,0.29,0.58,0.56,0.55,0.55,0.33,0.55,0.55,0.48,0.42,0.33,0.55,0.6,0.4,0.5,0.44,0.33,0.29,0.44,0.48,0.55,0.29,0.58,0.33,0.48,0.4,0.56,0.48,0.58,0.33,0.29,0.55,0.58,0.42,0.25,0.55,0.83,0.55,0.83,0.48,0.56,0.48,0.4,0.25,0.55,0.29,0.58,0.55,0.33,0.58,0.48,0.55,0.5,0.4,0.48,0.5,0.55,0.55,0.33,0.55,0.48,0.58,0.33,0.55,0.4,0.44,0.29,0.58,0.56,0.55,0.4,0.48,0.56,0.6,0.29,0.5,0.33,0.29,0.55,0.58,0.42,0.25" style="fill:rgb(0,0,0);font-family:URWPalladioL-Roma;font-size:9.96px;stroke:none;">and critical understanding of best practice interventions. However, in the area of enforcing regulations,</text>
   <text y="599.868" x="76.535,79.796,85.617,90.408,94.179,98.9598,101.471,109.813,114.814,118.99719999999999,121.546,127.367,132.829,136.09,141.091,146.622,149.533,154.3138,156.825,160.155,165.617,169.568,177.91,182.911,186.682,192.7576,195.294,204.126,209.588,215.239,220.03,228.862,233.653,239.475,242.7618,245.226,248.137,253.9138,256.459,262.471,267.472,271.423,274.684,277.594,282.035,288.067,290.977,295.979,299.96299999999997,302.42,310.762,313.673,316.934,322.7108,325.256,331.077,335.868,340.87,344.15680000000003,346.631,351.632,357.454,363.5296,366.056,371.517,374.778,380.599,385.391,389.375,391.842,396.633,401.634,405.585,408.496,414.0736,416.548,424.89,429.891,433.842,439.664,442.574,448.396,453.97360000000003,456.458,460.699,466.26,470.501,473.762,478.553,487.385,491.5682,494.127,499.658,504.45,507.36,513.182" svgx:width="0.33,0.58,0.48,0.4,0.48,0.55,0.83,0.5,0.42,0.55,0.58,0.55,0.33,0.5,0.55,0.29,0.48,0.55,0.33,0.55,0.4,0.83,0.5,0.4,0.61,0.55,0.88,0.55,0.56,0.48,0.88,0.48,0.58,0.33,0.55,0.29,0.58,0.55,0.6,0.5,0.4,0.33,0.29,0.44,0.6,0.29,0.5,0.4,0.55,0.83,0.29,0.33,0.58,0.55,0.58,0.48,0.5,0.33,0.55,0.5,0.58,0.61,0.55,0.55,0.33,0.58,0.48,0.4,0.55,0.48,0.5,0.4,0.29,0.56,0.55,0.83,0.5,0.4,0.58,0.29,0.58,0.56,0.55,0.42,0.56,0.42,0.33,0.48,0.88,0.42,0.55,0.55,0.48,0.29,0.58,0.56" style="fill:rgb(0,0,0);font-family:URWPalladioL-Roma;font-size:9.96px;stroke:none;">there was notable forward movement in particular with heat and other early warning systems being</text>
   <text y="613.377" x="76.535,82.744,87.611,93.353,98.22,101.177,106.726,112.833,117.701,123.77659999999999,127.487,132.567,138.482,144.5576,148.257,153.806,159.547,164.415,168.429,172.737,177.605,182.472,188.24880000000002,191.963,197.583,203.1606,206.8,212.907,219.035,224.654,227.611,230.568,234.9504,238.657,244.571,249.439,254.52,257.477,260.79,266.5668,270.281,275.362,281.489,284.802,290.716,296.265,300.279,303.236,306.548,309.506,314.373,318.682,321.172,327.949,337.562,343.111,346.952,351.82,357.368,363.109,367.977,371.249,373.73900000000003,377.631,380.588,386.3648,390.079,393.392,399.306,404.0868,407.74,412.821,416.662,421.53,426.51,430.178,435.726,439.0128,442.687,445.644,448.601,454.515,460.165,463.122,469.036,474.6136,478.263,481.576,487.05400000000003,490.691,496.605,501.473,506.554,509.511,512.824" svgx:width="0.61,0.48,0.56,0.48,0.29,0.55,0.6,0.48,0.61,0.55,0.5,0.58,0.61,0.55,0.55,0.56,0.48,0.4,0.42,0.48,0.48,0.58,0.55,0.55,0.56,0.55,0.6,0.6,0.55,0.29,0.29,0.44,0.55,0.58,0.48,0.5,0.29,0.33,0.58,0.55,0.5,0.6,0.33,0.58,0.55,0.4,0.29,0.33,0.29,0.48,0.42,0.25,0.55,0.95,0.55,0.4,0.48,0.55,0.56,0.48,0.4,0.25,0.55,0.29,0.58,0.55,0.33,0.58,0.48,0.55,0.5,0.4,0.48,0.5,0.55,0.55,0.33,0.55,0.29,0.29,0.58,0.56,0.29,0.58,0.56,0.55,0.33,0.55,0.55,0.58,0.48,0.5,0.29,0.33,0.58" style="fill:rgb(0,0,0);font-family:URWPalladioL-Roma;font-size:9.96px;stroke:none;">developed and overseen by public health authorities. Moreover, in the area of linking to health</text>
   <text y="626.887" x="76.535,80.958,85.94,89.696,94.468,96.958,99.459,102.707,108.505,113.277,117.033,121.8138,124.296,127.195,131.3782,133.92,138.692,144.321,147.22,153.307,158.079,163.877,168.3,173.0808,175.563,181.003,184.28979999999999,186.821,192.36,196.116,200.888,205.869,209.117,213.889,217.87300000000002,220.315,226.113,231.553,235.777,241.765,244.664,247.912,252.893,255.7814,258.293,263.274,269.072,275.1476,277.65,283.448,288.22,293.202,296.101,299.348,305.1248,307.647,312.071,317.052,320.808,325.5888,328.071,332.295,337.834,342.058,345.306,350.078,361.376,365.799,368.698,371.597,380.394,385.376,388.623,393.4038,395.896,399.831,402.72,406.945,412.484,415.801,420.783,429.091,434.073,437.829,442.601,448.399,453.171,457.395,461.5782,464.12,469.101,474.9,480.9756,483.487,488.259,493.4,496.648,500.404,505.176,513.973" svgx:width="0.44,0.5,0.4,0.48,0.25,0.55,0.33,0.58,0.48,0.4,0.48,0.55,0.29,0.42,0.55,0.48,0.56,0.29,0.61,0.48,0.58,0.44,0.48,0.55,0.55,0.33,0.55,0.56,0.4,0.48,0.5,0.33,0.48,0.4,0.55,0.58,0.55,0.42,0.6,0.29,0.33,0.5,0.29,0.55,0.5,0.58,0.61,0.55,0.58,0.48,0.5,0.29,0.33,0.58,0.55,0.44,0.5,0.4,0.48,0.55,0.42,0.56,0.42,0.33,0.48,0.88,0.44,0.29,0.29,0.88,0.5,0.33,0.48,0.55,0.4,0.29,0.42,0.56,0.33,0.5,0.83,0.5,0.4,0.48,0.58,0.48,0.42,0.42,0.55,0.5,0.58,0.61,0.55,0.48,0.52,0.33,0.4,0.48,0.88,0.48" style="fill:rgb(0,0,0);font-family:URWPalladioL-Roma;font-size:9.96px;stroke:none;">care, there is evidence of greater hospital and health care systemclimate risk-awareness and extreme</text>
   <text y="640.396" x="76.117,84.592,89.46,94.54,97.853,103.767,108.635,112.619,115.84,121.947,125.778,130.645,136.753,141.834,145.665,150.532,156.741,162.655,167.523,171.831,176.14,178.63,182.044,187.125,191.3082,194.625,203.1,207.967,210.924,213.8124,217.072,222.153,226.3362,229.652,232.61,238.524,243.036,246.867,251.734,256.815,261.124,265.991,272.0666,275.391,281.305,286.173,291.254,294.211,297.523,303.2998,306.628,311.14,316.221,320.052,324.8328,328.111,332.419,338.069,342.378,345.691,350.558,359.3228,362.722,367.803,371.116,374.428,379.296,385.21,388.523,391.48,397.028,402.8048,406.123,409.436,414.984,423.459,428.54,432.381,438.4566,441.771,445.612,450.48,456.689,462.816,467.328,470.285,476.199,481.77660000000003,485.04,487.997,491.31,495.4932,498.799,504.348,512.823" svgx:width="0.83,0.48,0.5,0.33,0.58,0.48,0.4,0.55,0.6,0.4,0.48,0.6,0.5,0.4,0.48,0.61,0.58,0.48,0.42,0.42,0.25,0.55,0.5,0.42,0.55,0.83,0.48,0.29,0.29,0.55,0.5,0.42,0.55,0.29,0.58,0.44,0.4,0.48,0.5,0.42,0.48,0.61,0.55,0.58,0.48,0.5,0.29,0.33,0.58,0.55,0.44,0.5,0.4,0.48,0.55,0.42,0.56,0.42,0.33,0.48,0.88,0.55,0.5,0.33,0.33,0.48,0.58,0.33,0.29,0.55,0.58,0.55,0.33,0.55,0.83,0.5,0.4,0.61,0.55,0.4,0.48,0.61,0.6,0.44,0.29,0.58,0.56,0.55,0.29,0.33,0.42,0.55,0.55,0.83,0.58" style="fill:rgb(0,0,0);font-family:URWPalladioL-Roma;font-size:9.96px;stroke:none;">weather preparedness, as well as increased health care system attention toward reducing its own</text>
   <text y="653.905" x="76.535,84.136,92.425,99.99459999999999,102.517,107.29,116.087,118.986,123.21,127.434,130.333,135.773,141.571,145.795" svgx:width="0.76,0.83,0.76,0.55,0.48,0.88,0.29,0.42,0.42,0.29,0.55,0.58,0.42,0.25" style="fill:rgb(0,0,0);font-family:URWPalladioL-Roma;font-size:9.96px;stroke:none;">GHG emissions.</text>
  </g>
 </g>
</svg>
