<?xml version="1.0" encoding="UTF-8"?>
<svg height="753.287" width="631.7086181640625" xmlns="http://www.w3.org/2000/svg">
 <g style="fill:none;">
  <text svg_rhmargin="560.977" x="547.717,552.137,556.557,560.977" y="340.204" style="fill:#171615;font-family:FTXBHJ+FrutigerLTPro-BoldCn;font-size:8.5px;font-style:NORMAL;font-weight:bold;">205 </text>
  <path d=" M 594.7086181640625 543.1182250976562 C 594.7086181640625 543.1182250976562 582.7086181640625 543.1182250976562 582.7086181640625 531.1182250976562 L 582.7086181640625 456.189208984375 C 582.7086181640625 456.189208984375 582.7086181640625 444.189208984375 594.7086181640625 444.189208984375 L 621.7086181640625 444.189208984375 L 621.7086181640625 543.1182250976562 Z " style="fill:none;stroke:#000000;stroke-width:1.0;"/>
  <text x="588.709" y="340.204" svg_rhmargin="594.949" style="fill:#ffffff;font-family:NHMVBY+FrutigerLTPro-BlackCn;font-size:12.0px;font-style:NORMAL;font-weight:bold;">3</text>
  <text x="54.567,57.083,64.172,69.051,73.615,77.389,80.696,84.317,86.527,91.406,94.551,96.761,101.181,103.391,107.811,111.211,116.09,118.3,123.179,126.324,128.534,134.203,136.566,141.445,146.324,150.889,153.252,155.147,162.075,166.639,169.946,177.035,179.398,184.124,189.003,191.213,196.092,200.818,203.028,208.697,213.262,216.568,221.294,224.448,229.012,231.375,233.585,238.15,242.876,247.755,249.965,255.32,260.046,267.135,271.699,276.425,278.635,283.2,287.611,291.232,294.539,299.103,306.192,309.813,312.02299999999997,523.716,528.595,533.321,537.885,542.764,546.071,550.635,553.942,556.152" y="38.083999999999946" svg_rhmargin="560.572" style="fill:#4c8ecf;font-family:NHMVBY+FrutigerLTPro-BlackCn;font-size:8.5px;font-style:NORMAL;font-weight:bold;">Impacts of 1.5°C of Global Warming on Natural and Human Systems Chapter 3</text>
  <text x="56.693,60.996,63.01,66.43,70.914,73.194,74.23,78.704,81.421,83.435,87.387,89.401,93.885,98.36,100.64,101.675,108.439,112.923,115.64,119.763,122.043,123.079,125.093,129.577,132.294,136.417,140.901,144.321,148.444,150.724,151.759,155.179,157.896,162.38,165.097,171.861,175.281,177.561,178.597,182.9,187.384,191.859,194.139,195.174,199.649,202.366,206.489,210.792,213.509,217.632,220.349,222.629,223.665,226.382,230.685,233.402,237.525,240.945,243.225,244.261,248.745,251.291,253.571,254.606,256.62,261.104,265.588,270.072,274.547,278.85,281.567,283.581,288.065,292.549,294.82899999999995,295.865,297.879,302.458" y="68.0" svg_rhmargin="304.738" style="fill:#171615;font-family:FTXBHJ+FrutigerLTPro-Condensed;font-size:9.5px;font-style:NORMAL;font-weight:normal;">also driving more intense storms and greater rates of inundation in </text>
  <text x="56.693,60.113,64.597,71.361,75.484,77.764,78.343,81.06,85.183,89.658,91.672,96.156,100.64,103.708,105.542,107.822,108.401,114.814,119.298,121.312,124.912,129.396,131.229,133.50900000000001,134.088,136.805,141.289,145.764,149.887,152.604,157.088,161.211,163.928,166.208,166.787,173.2,175.214,177.931,182.415,184.695,185.274,188.694,192.817,197.121,199.401,199.98,201.994,206.117,210.069,214.192,216.206,218.486,219.066,221.783,223.797,227.217,230.987,232.821,235.101,235.68,239.984,242.701,246.824,249.104,249.683,253.987,256.001,258.718,262.841,267.144,271.619,275.39,277.66999999999996,278.25,282.724,285.441,287.455,291.407,293.421,297.905,302.475" y="79.99800000000005" svg_rhmargin="304.755" style="fill:#171615;font-family:FTXBHJ+FrutigerLTPro-Condensed;font-size:9.5px;font-style:NORMAL;font-weight:normal;">some regions, which, together with sea level rise, are already driving </text>
  <text x="56.693,60.113,62.127,66.601,71.085,73.099,77.754,81.355,85.658,90.142,92.859,95.139,96.27,98.284,105.048,109.522,113.826,117.426,120.143,123.563,125.843,126.974,129.691,134.175,136.455,137.585,141.005,145.128,149.612,153.032,155.046,157.763,159.777,163.729,167.852,170.132,171.263,174.863,179.347,183.651,187.071,189.788,194.091,196.105,198.385,199.516,203.819,208.303,212.778,215.058,216.188,218.202,222.686,229.099,231.816,233.83,237.601,239.615,244.099,248.574,250.854,251.984,256.288,259.005,263.128,267.431,270.851,273.131,274.262,276.808,280.931,285.054,288.654,291.371,293.385,297.869,302.448" y="91.99699999999996" svg_rhmargin="304.728" style="fill:#171615;font-family:FTXBHJ+FrutigerLTPro-Condensed;font-size:9.5px;font-style:NORMAL;font-weight:normal;">significant impacts to sensitive coastal and low-lying areas (Section </text>
  <text x="56.693,61.158,63.343,67.808,69.993,74.458,77.004,78.932" y="103.995" svg_rhmargin="81.212" style="fill:#171615;font-family:FTXBHJ+FrutigerLTPro-Condensed;font-size:9.5px;font-style:NORMAL;font-weight:normal;">3.3.6). </text>
  <text x="56.693,58.897,63.381,66.981,69.698,73.821,78.125,81.545,83.559,88.043,92.517,94.797,97.571,99.585,103.889,108.373,112.847,117.502,120.922,125.045,129.349,131.629,134.403,137.12,141.243,148.007,152.481,156.604,159.321,163.625,166.342,170.826,173.543,177.666,179.946,182.72,187.194,189.911,194.215,198.689,200.703,204.826,209.31,212.027,215.447,217.727,220.501,224.985,229.289,233.241,237.364,239.644,242.418,245.135,249.619,253.742,256.022,258.796,263.27,267.754,270.471,274.594,279.078,281.795,283.809,288.113,290.127,292.407,295.181,297.898,302.477" y="127.99199999999996" svg_rhmargin="304.757" style="fill:#171615;font-family:FTXBHJ+FrutigerLTPro-Condensed;font-size:9.5px;font-style:NORMAL;font-weight:normal;">Increasing land–sea temperature gradients have the potential to </text>
  <text x="56.693,60.113,62.83,65.547,69.67,74.154,78.628,81.345,85.829,89.952,94.436,96.71600000000001,97.708,102.192,106.667,113.079,117.202,119.216,121.23,123.244,127.728,132.203,134.483,135.475,138.895,142.667,146.087,148.804,152.927,159.691,163.111,165.391,166.383,170.686,174.106,177.526,182.01,185.611,187.625,191.928,194.645,198.768,203.243,205.523,206.515,212.928,214.942,217.659,222.143,224.423,225.416,228.133,232.617,236.74,239.02,240.012,244.135,248.439,251.859,254.576,258.699,261.416,265.9,268.17999999999995,269.173,273.647,278.131,282.615,287.099,291.574,295.877,298.594,302.461" y="139.99099999999999" svg_rhmargin="304.741" style="fill:#171615;font-family:FTXBHJ+FrutigerLTPro-Condensed;font-size:9.5px;font-style:NORMAL;font-weight:normal;">strengthen upwelling systems associated with the eastern boundary </text>
  <text x="56.693,60.293,64.777,67.494,70.211,74.334,78.818,81.535,84.955,87.235,90.931,93.477,98.312,102.435,106.919,111.394,115.878,120.001,122.015,126.318,128.152,130.432,134.127,139.134,143.437,147.921,152.225,154.942,158.713,160.547,162.827,166.522,171.88,176.364,183.128,187.603,192.087,194.101,198.575,201.292,203.572,207.268,211.571,216.055,220.53,222.81,226.505,231.512,235.815,237.829,239.843,242.389,246.873,249.59,254.074,256.088,260.392,264.876,267.15599999999995,270.851,275.858,280.342,283.059,285.776,289.899,294.383,297.1,300.52,302.448" y="151.98900000000003" svg_rhmargin="304.728" style="fill:#171615;font-family:FTXBHJ+FrutigerLTPro-Condensed;font-size:9.5px;font-style:NORMAL;font-weight:normal;">currents (Benguela, Canary, Humboldt and Californian Currents; </text>
  <text x="56.693,61.528,65.832,69.955,74.439,78.923,80.756,83.483,87.948,92.413,96.878,101.343,103.889,105.722,108.449,114.168,118.642,122.062,126.185,128.902,132.854,136.977,141.452,144.178,146.895,149.612,153.735,158.219,162.694,166.114,168.84,172.26,176.744,181.219,185.693,190.177,192.894,195.611,198.338,201.055,205.539,209.662,212.388,215.989,220.473,224.957,228.557,230.571,235.055,238.475,240.489,244.973,249.457,252.184,254.901,259.385,263.688,266.405,269.132,273.435,276.162,280.636,284.759,289.243,293.366,296.083,300.387,302.495" y="163.98800000000006" svg_rhmargin="304.775" style="fill:#171615;font-family:FTXBHJ+FrutigerLTPro-Condensed;font-size:9.5px;font-style:NORMAL;font-weight:normal;">Bakun, 1990). Observed trends support the conclusion that a general </text>
  <text x="56.693,60.113,62.83,65.547,69.67,74.154,78.628,81.345,85.829,89.952,94.436,96.45,100.934,105.409,107.47,111.954,114.5,116.562,118.576,123.06,127.544,132.018,135.438,139.922,144.406,147.123,151.246,153.308,159.72,161.734,166.218,170.693,174.113,176.174,180.658,184.962,188.382,190.443,194.927,198.528,202.128,206.612,209.329,212.046,216.169,220.644,222.705,225.251,229.374,233.146,237.62,241.743,248.507,252.811,257.295,259.356,263.479,266.196,268.258,272.561,274.052,276.237,278.07,280.132,284.597,289.062,293.527,297.992,300.538,302.466" y="175.986" svg_rhmargin="304.746" style="fill:#171615;font-family:FTXBHJ+FrutigerLTPro-Condensed;font-size:9.5px;font-style:NORMAL;font-weight:normal;">strengthening of longshore winds has occurred (Sydeman et al., 2014), </text>
  <text x="56.693,61.167,65.651,68.368,69.774,72.491,76.975,81.098,82.504,84.518,91.282,95.757,97.771,99.785,103.385,107.689,110.406,112.42,116.904,121.388,124.808,126.214,130.698,133.244,134.65,137.367,140.084,144.207,148.691,153.165,156.585,157.991,162.466,166.589,169.306,173.429,177.029,179.746,183.869,188.344,189.75,191.764,196.248,197.654,202.138,206.612,213.025,217.148,219.162,221.176,223.19,227.674,232.148,233.554,237.155,241.639,244.356,247.073,251.196,255.68,258.397,261.817,263.223,265.94,270.424,274.547,281.311,284.731,288.854,290.868,294.82,298.943,302.458" y="187.985" svg_rhmargin="304.738" style="fill:#171615;font-family:FTXBHJ+FrutigerLTPro-Condensed;font-size:9.5px;font-style:NORMAL;font-weight:normal;">but the implications of trends detected in upwelling currents themselves </text>
  <text x="56.693,60.996,63.713,67.836,69.613,74.097,78.581,82.181,84.195,88.318,92.622,95.339,97.115,99.661,103.433,105.447,109.931,113.531,118.015,120.732,125.739,130.223,132.94,137.243,139.02,143.143,145.86,147.636,151.94,153.431,155.616,157.449,159.225,163.69,168.155,172.62,177.085,179.631,181.464,183.24,187.715,190.432,194.916,196.93,201.053,204.653,207.37,209.384,213.868,218.352,221.772,223.549,228.033,230.579,232.355,235.072,239.556,243.679,245.456,248.876,252.476,256.78,258.794,262.917,264.693,269.177,271.723,273.5,277.1,281.584,285.888,290.372,294.846,298.969,302.484" y="199.98299999999995" svg_rhmargin="304.764" style="fill:#171615;font-family:FTXBHJ+FrutigerLTPro-Condensed;font-size:9.5px;font-style:NORMAL;font-weight:normal;">are unclear (Lluch-Cota et al., 2014). Projections of the scale of changes </text>
  <text x="56.693,61.167,65.29,68.007,74.42,78.543,82.666,87.15,89.43,90.385,94.85,98.555,103.561,105.84100000000001,106.796,111.099,115.583,120.058,122.33800000000001,123.293,127.758,129.943,134.408,138.113,143.119,145.399,146.359,150.843,153.389,155.669,156.623,161.098,163.112,167.596,172.07,176.374,178.388,180.668,181.623,187.864,192.168,194.885,201.649,203.663,208.147,212.621,214.901,215.861,220.164,224.648,229.123,231.403,232.362,236.837,240.96,243.677,250.089,254.212,258.335,262.819,265.099,266.059,270.524,272.709,277.174,280.879,285.885,288.16499999999996,289.12,293.423,297.907,302.477" y="211.98199999999997" svg_rhmargin="304.757" style="fill:#171615;font-family:FTXBHJ+FrutigerLTPro-Condensed;font-size:9.5px;font-style:NORMAL;font-weight:normal;">between 1°C and 1.5°C of global warming and between 1.5°C and </text>
  <text x="56.693,61.158,64.863,69.869,71.627,75.93,78.647,82.77,84.528,89.012,93.496,95.51,99.281,101.039,103.053,107.537,110.083,114.567,117.284,124.048,128.171,132.645,134.403,138.877,142.649,144.406,147.123,151.607,155.73,157.488,161.088,165.572,169.876,174.36,178.834,182.957,186.377,188.135,192.609,197.093,199.81,201.824,206.308,210.783,212.54,215.257,219.741,223.864,225.622,230.096,234.4,237.82,240.537,242.294,244.308,248.792,252.393,255.11,259.233,263.536,266.956,271.079,272.837,274.851,279.335,281.092,286.811,294.107,298.23,302.448" y="223.98000000000002" svg_rhmargin="304.728" style="fill:#171615;font-family:FTXBHJ+FrutigerLTPro-Condensed;font-size:9.5px;font-style:NORMAL;font-weight:normal;">2°C are only informed by the changes during the past increase in GMST </text>
  <text x="56.693,61.177,63.723,66.003,66.829,71.294,73.479,77.944,81.649,86.656,88.936,89.762" y="235.97900000000004" svg_rhmargin="92.403" style="fill:#171615;font-family:FTXBHJ+FrutigerLTPro-Condensed;font-size:9.5px;font-style:NORMAL;font-weight:normal;">of 0.5°C (</text>
  <text x="92.308,94.322,98.806,105.219,107.499,108.325,111.926,116.41,120.894,125.549,130.023,134.146,138.63,142.231" y="235.97900000000004" svg_rhmargin="146.449" style="fill:#171615;font-family:FTXBHJ+FrutigerLTPro-CondensedIta;font-size:9.5px;font-style:NORMAL;font-weight:normal;">low confidence</text>
  <text x="146.354,148.9,150.733,153.013,153.84,159.198,163.682,170.094,174.217,178.169,182.292,184.145,185.978,188.258,189.085,193.208,197.16,199.174,203.648,207.771,212.255,215.856,219.979,222.25900000000001,223.085,225.631,228.348,232.832,239.596,241.876,242.703,248.422,253.428,260.724,263.00399999999996,263.831,268.305,271.022,275.506,277.52,281.643,285.244,287.961,289.975,294.459,298.943,302.458" y="235.97900000000004" svg_rhmargin="304.738" style="fill:#171615;font-family:FTXBHJ+FrutigerLTPro-Condensed;font-size:9.5px;font-style:NORMAL;font-weight:normal;">). However, evidence from GCM projections </text>
  <text x="56.693,61.177,63.723,66.079,68.625,73.109,75.826,80.31,83.027,87.15,89.506,93.106,95.12,97.134,103.898,108.202,110.919,115.042,117.398,120.998,125.482,129.786,134.27,138.744,142.867,145.223,147.237,151.721,156.196,158.21,161.81,166.114,168.831,172.954,176.374,178.73,181.447,185.931,190.234,192.951,195.307,199.611,201.967,206.441,210.564,215.048,219.171,221.888,226.192,228.206,230.562,233.982,236.699,239.416,243.539,248.023,252.497,255.214,259.698,263.821,268.305,270.319,274.803,279.278,281.634,286.118,288.664,291.02,293.737,298.221,302.438" y="247.97699999999998" svg_rhmargin="304.718" style="fill:#171615;font-family:FTXBHJ+FrutigerLTPro-Condensed;font-size:9.5px;font-style:NORMAL;font-weight:normal;">of future climate change indicates that a general strengthening of the </text>
  <text x="56.693,61.528,65.651,70.135,74.61,79.094,83.217,85.231,89.534,91.368,93.648,94.493,99.5,103.803,108.287,112.591,115.308,119.079,121.359,122.205,126.508,130.992,135.467,137.747,138.592,143.95,148.434,155.198,159.673,164.157,166.171,170.645,173.362,175.642,176.488,180.972,185.446,191.859,195.982,197.996,200.01,202.024,206.508,210.982,213.262,214.108,217.528,221.299,224.719,227.436,231.559,238.323,241.743,244.023,244.869,249.353,253.837,258.311,262.434,265.151,267.431,268.277,272.4,276.884,281.368,285.671,290.155,293.756,297.879,302.447" y="259.976" svg_rhmargin="304.727" style="fill:#171615;font-family:FTXBHJ+FrutigerLTPro-Condensed;font-size:9.5px;font-style:NORMAL;font-weight:normal;">Benguela, Canary and Humboldt upwelling systems under enhanced </text>
  <text x="56.693,60.996,65.48,68.197,72.681,75.398,79.882,84.357,88.841,93.315,97.438,101.922,103.936,107.537,109.81700000000001,111.546,114.092,118.576,121.293,124.893,126.907,131.391,135.866,138.14600000000002,139.875,142.421,147.256,149.089,151.369,152.58,159.696,163.999,168.483,172.958,175.238,176.967,181.09,183.807,186.087,187.816,192.119,193.611,195.796,197.629,199.909,201.638,206.103,210.568,215.033,219.498,222.044,224.324,226.053,228.067" y="271.97400000000005" svg_rhmargin="231.582" style="fill:#171615;font-family:FTXBHJ+FrutigerLTPro-Condensed;font-size:9.5px;font-style:NORMAL;font-weight:normal;">anthropogenic forcing (D. Wang et al., 2015) is</text>
  <text style="fill:#171615;font-family:FTXBHJ+FrutigerLTPro-CondensedIta;font-size:9.5px;font-style:NORMAL;font-weight:normal;" svg_rhmargin="233.767" y="271.97400000000005" x=""/>
  <text x="235.521,239.995,242.712,247.196,249.21,253.333,256.934,259.651,263.774,268.248,270.52799999999996,272.257,274.974,279.458,281.738,283.467,287.951,291.552,295.152,299.636,302.448" y="271.97400000000005" svg_rhmargin="304.728" style="fill:#171615;font-family:FTXBHJ+FrutigerLTPro-Condensed;font-size:9.5px;font-style:NORMAL;font-weight:normal;">projected to occur </text>
  <text x="56.693" y="283.97299999999996" svg_rhmargin="59.334" style="fill:#171615;font-family:FTXBHJ+FrutigerLTPro-Condensed;font-size:9.5px;font-style:NORMAL;font-weight:normal;">(</text>
  <text x="59.239,66.003,70.126,74.6,76.614,81.098,87.862,90.142,91.254,94.854,99.338,103.822,108.477,112.952,117.075,121.559,125.159" y="283.97299999999996" svg_rhmargin="129.377" style="fill:#171615;font-family:FTXBHJ+FrutigerLTPro-CondensedIta;font-size:9.5px;font-style:NORMAL;font-weight:normal;">medium confidence</text>
  <text x="129.282,131.828,133.661,135.941,136.529,140.301,144.785,146.798,150.218,152.498,153.61,157.03,159.747,162.464,166.587,171.071,175.545,178.262,182.746,186.869,191.353,193.367,197.851,202.326,204.606,205.717,207.731,211.151,213.431,214.543,219.017,221.734,226.218,228.232,232.355,235.956,238.673,242.796,247.27,249.55,250.662,253.379,257.863,260.143,261.254,265.729,269.852,272.13199999999995,273.243,276.663,279.38,282.097,286.581,291.065,295.54,299.663,302.475" y="283.97299999999996" svg_rhmargin="304.755" style="fill:#171615;font-family:FTXBHJ+FrutigerLTPro-Condensed;font-size:9.5px;font-style:NORMAL;font-weight:normal;">). This strengthening is projected to be stronger </text>
  <text x="56.693,60.996,63.713,65.993,66.658,71.142,73.156,77.631,82.115,86.238,88.955,91.235,91.9,93.914,98.217,100.934,102.948,105.665,110.149,114.624,118.747,121.815,123.649,125.929,126.594,128.798,133.282,135.562,136.227,138.773,143.076,146.677,149.394,151.227,153.507,154.172,158.295,162.247,164.261,168.736,172.859,177.343,180.943,185.066,187.346,188.011,190.557,193.274,197.758,204.522,206.802,207.467,210.184,214.307,218.782,220.796,225.28,229.764,234.067,236.081,238.361,239.026,242.627,244.641,246.655,253.419,257.722,260.439,264.562,266.842,267.507,274.271,278.755,283.23,287.353,289.367,291.381,293.395,297.879,302.448" y="295.971" svg_rhmargin="304.728" style="fill:#171615;font-family:FTXBHJ+FrutigerLTPro-Condensed;font-size:9.5px;font-style:NORMAL;font-weight:normal;">at higher latitudes. In fact, evidence from regional climate modelling </text>
  <text x="56.693,58.707,62.127,64.407,65.427,68.847,73.331,77.806,82.28,86.764,89.481,92.198,94.212,98.164,102.287,104.56700000000001,105.588,110.072,112.618,114.898,115.918,120.221,124.705,126.985,128.006,130.02,134.504,138.104,140.821,144.944,149.248,152.668,156.791,159.071,160.091,162.105,166.589,168.869,169.889,171.903,176.387,180.871,185.346,188.063,191.483,195.967,200.451,203.168,207.291,209.571,210.591,217.003,219.017,223.501,227.976,231.396,233.676,234.696,239.0,241.717,243.997,245.017,249.501,251.515,255.989,260.473,264.596,267.313,269.59299999999996,270.615,272.629,276.932,279.649,281.663,284.38,288.864,293.339,297.462,300.53,302.459" y="307.97" svg_rhmargin="304.739" style="fill:#171615;font-family:FTXBHJ+FrutigerLTPro-Condensed;font-size:9.5px;font-style:NORMAL;font-weight:normal;">is supportive of an increase in long-shore winds at higher latitudes, </text>
  <text x="56.693,63.105,67.589,71.712,74.429,78.552,82.856,86.276,88.556,91.064,93.078,97.562,102.046,106.52,109.237,112.657,117.141,121.625,124.342,128.465,130.745,133.253,139.666,141.68,146.164,150.638,154.058,156.338,158.846,165.61,169.914,173.685,175.965,178.473,182.948,187.071,190.671,193.388,197.511,201.815,205.235,209.358,211.638,214.146,218.449,221.166,223.446,225.954,227.968,232.452,238.865,242.988,245.705,247.985,250.493,252.507,256.81,259.527,261.541,264.258,268.742,273.217,277.34,280.76,283.03999999999996,285.548,289.851,293.271,295.551,298.059,302.458" y="319.968" svg_rhmargin="304.738" style="fill:#171615;font-family:FTXBHJ+FrutigerLTPro-Condensed;font-size:9.5px;font-style:NORMAL;font-weight:normal;">whereas long-shore winds may decrease at lower latitudes as a </text>
  <text x="56.693,60.293,64.777,69.261,72.681,76.804,81.279,85.763,89.886,94.37,97.97,102.093,104.373,105.428,109.912,112.458,114.738,115.788,118.505,122.989,127.112,129.392,130.441,134.916,139.4,141.414,145.537,151.778,156.082,158.799,163.273,165.553,166.603,171.078,173.092,176.512,180.986,183.0,187.304,190.904,195.027,201.791,205.914,210.398,213.115,215.395,216.45,220.934,223.48,225.76,226.814,229.531,234.015,238.138,240.418,241.473,244.893,249.377,253.851,256.568,259.285,263.769,268.244,270.258,273.858,278.162,280.176,282.45599999999996,283.51,287.994,290.008,294.483,298.967,302.482" y="331.967" svg_rhmargin="304.762" style="fill:#171615;font-family:FTXBHJ+FrutigerLTPro-Condensed;font-size:9.5px;font-style:NORMAL;font-weight:normal;">consequence of the poleward displacement of the subtropical highs </text>
  <text x="56.693,61.177,65.661,70.135,74.258,76.975,79.255,81.013,84.613,86.627,88.641,95.405,99.709,102.426,106.549,108.82900000000001,110.586,114.187,118.671,122.974,127.458,131.933,136.056,138.336,140.093,142.639,147.646,152.13,154.847,156.861,160.281,162.998,167.121,171.605,175.025,179.148,183.632,185.912,187.669,191.792,194.509,196.789,198.547,202.85,204.342,206.527,208.36,210.64000000000001,212.398,216.863,221.328,225.793,230.258,232.091,234.371,236.129,240.432,244.916,249.391,253.514,255.528,260.002,262.719,266.842,270.443,274.927,277.644,279.924,281.681,285.804,288.521,290.801,292.559,296.862,298.354,300.539,302.467" y="343.965" svg_rhmargin="304.747" style="fill:#171615;font-family:FTXBHJ+FrutigerLTPro-Condensed;font-size:9.5px;font-style:NORMAL;font-weight:normal;">under climate change (Christensen et al., 2007; Engelbrecht et al., </text>
  <text x="56.693,61.158,65.623,70.088,74.553,77.099,79.026" y="355.964" svg_rhmargin="81.306" style="fill:#171615;font-family:FTXBHJ+FrutigerLTPro-Condensed;font-size:9.5px;font-style:NORMAL;font-weight:normal;">2009). </text>
  <text x="56.693,58.897,61.614,63.894,65.585,67.599,71.019,73.299,74.99,81.754,86.238,88.955,93.078,95.358,97.049,99.063,101.077,104.848,108.971,110.985,114.757,117.037,118.728,121.559,126.043,130.346,134.83,137.11,138.801,143.285,147.769" y="379.961" svg_rhmargin="150.581" style="fill:#171615;font-family:FTXBHJ+FrutigerLTPro-CondensedIta;font-size:9.5px;font-style:NORMAL;font-weight:normal;">It is more likely than not</text>
  <text y="379.961" svg_rhmargin="304.755" x="154.457,157.174,161.658,165.962,168.679,170.959,172.65,175.367,179.851,183.974,186.254,187.42,192.778,195.495,197.509,201.813,206.297,209.014,211.028,214.628,216.908,218.599,225.895,230.018,232.735,234.749,239.224,241.238,245.722,250.206,254.509,256.523,258.803,260.494,266.213,270.165,274.288,277.005,279.722,284.206,286.923,291.407,293.421,297.905,302.475" style="fill:#171615;font-family:FTXBHJ+FrutigerLTPro-Condensed;font-size:9.5px;font-style:NORMAL;font-weight:normal;">that the Atlantic Meridional Overturning </text>
  <text x="56.693,61.699,63.713,66.43,70.031,74.515,76.529,80.832,83.549,85.563,90.047,94.531,96.811,98.835,101.381,106.739,114.035,119.754,124.76,127.306,129.58599999999998,131.61,136.094,140.397,143.817,146.097,148.121,152.595,156.718,160.841,165.325,167.605,169.629,176.041,180.164,184.468,188.239,192.362,196.846,198.86,203.344,207.819,210.099,212.122,214.136,218.62,220.9,222.924,225.641,229.764,233.364,237.487,241.971,244.688,246.968,248.992,253.466,257.589,261.19,265.493,269.968,274.091,277.159,278.993,281.27299999999997,283.296,287.771,289.785,293.737,297.86,302.439" y="391.959" svg_rhmargin="304.719" style="fill:#171615;font-family:FTXBHJ+FrutigerLTPro-Condensed;font-size:9.5px;font-style:NORMAL;font-weight:normal;">Circulation (AMOC) has been weakening in recent decades, given </text>
  <text x="56.693,59.41,63.894,68.017,70.297,71.408,75.883,80.006,82.723,86.846,90.446,93.163,95.177,99.661,104.145,106.425,107.537,112.021,114.567,116.847,117.958,120.675,125.159,129.282,131.562,132.674,136.274,140.758,145.242,147.256,149.27,153.754,158.229,160.50900000000001,161.62,166.104,168.65,170.93,172.042,175.462,179.946,182.663,185.209,189.512,193.113,197.236,199.516,200.627,206.869,211.172,213.889,218.012,220.729,224.149,226.429,227.541,229.555,234.039,236.319,237.43,240.147,244.631,248.754,251.034,252.146,257.865,262.349,265.066,267.783,272.267,274.54699999999997,275.138,280.496,283.213,285.227,289.53,294.014,296.731,298.745,302.441" y="403.958" svg_rhmargin="304.721" style="fill:#171615;font-family:FTXBHJ+FrutigerLTPro-Condensed;font-size:9.5px;font-style:NORMAL;font-weight:normal;">the detection of the cooling of surface waters in the North Atlantic </text>
  <text x="56.693,60.996,65.48,69.955,72.235,73.223,77.346,81.298,83.312,87.786,91.909,96.393,99.994,104.117,106.397,107.385,110.102,114.586,118.889,121.606,123.886,124.874,127.591,132.075,136.198,138.478,139.466,145.185,149.669,151.683,154.229,156.50900000000001,157.497,161.62,164.337,167.054,171.177,175.481,182.245,184.525,185.513,189.997,194.3,197.72,200.0,200.988,204.408,206.422,210.906,217.319,221.442,225.916,228.196,229.184,232.604,234.618,239.102,242.703,246.826,249.106,250.094,252.811,257.295,261.418,263.698,264.686,266.7,271.003,273.72,277.843,280.123,281.111,285.576,290.041,294.506,298.971,302.485" y="415.956" svg_rhmargin="304.765" style="fill:#171615;font-family:FTXBHJ+FrutigerLTPro-Condensed;font-size:9.5px;font-style:NORMAL;font-weight:normal;">and evidence that the Gulf Stream has slowed since the late 1950s </text>
  <text x="56.693,59.239,64.074,68.378,72.862,79.626,83.046,85.763,90.247,92.964,95.51,97.79,99.481,103.604,106.321,108.601,110.292,114.595,116.087,118.272,120.105,122.385,124.076,128.541,133.006,137.471,141.936,146.411,148.244,150.524,152.215,156.338,159.055,163.539,167.31,171.794,175.214,178.814,181.094,182.785,187.089,191.573,196.047,198.327,200.018,204.854,207.571,211.342,215.817,219.94,224.424,226.257,228.537,230.228,234.693,239.158,243.623,248.088,249.922,252.202,253.893,258.899,263.203,267.326,270.746,275.049,277.766,280.046,281.737,285.86,288.577,290.85699999999997,292.548,296.852,298.343,300.528,302.457" y="427.955" svg_rhmargin="304.737" style="fill:#171615;font-family:FTXBHJ+FrutigerLTPro-Condensed;font-size:9.5px;font-style:NORMAL;font-weight:normal;">(Rahmstorf et al., 2015b; Srokosz and Bryden, 2015; Caesar et al., </text>
  <text svg_rhmargin="128.504" x="56.693,61.158,65.623,70.088,74.553,77.099,78.932,81.213,84.985,89.469,93.592,96.309,100.432,102.712,103.234,105.248,108.668,110.94800000000001,111.471,115.955,120.439,122.453,126.224,128.504" y="439.953" style="fill:#171615;font-family:FTXBHJ+FrutigerLTPro-Condensed;font-size:9.5px;font-style:NORMAL;font-weight:normal;">2018). There is only </text>
  <text x="129.027,131.041,133.055,139.819,141.833,144.55,148.673,153.147,155.427,155.95,160.073,164.025,166.039,170.513,174.636,179.12,182.721" y="439.953" svg_rhmargin="186.939" style="fill:#171615;font-family:FTXBHJ+FrutigerLTPro-CondensedIta;font-size:9.5px;font-style:NORMAL;font-weight:normal;">limited evidence</text>
  <text y="439.953" svg_rhmargin="304.729" x="189.646,191.66,193.674,198.158,202.281,204.295,208.779,213.254,215.534,216.056,218.773,223.257,227.38,229.66,230.183,233.783,238.267,240.984,243.701,247.824,252.308,255.025,257.305,257.828,262.131,266.615,271.099,277.863,282.167,284.181,288.665,293.149,296.569,298.583,302.449" style="fill:#171615;font-family:FTXBHJ+FrutigerLTPro-Condensed;font-size:9.5px;font-style:NORMAL;font-weight:normal;">linking the current anomalously </text>
  <text x="56.693,63.105,67.228,71.532,75.655,77.498,80.918,83.635,87.938,90.655,94.778,96.621,101.105,103.651,104.971,110.329,117.625,123.344,128.35,130.193,132.91,137.394,139.237,143.541,148.025,150.742,155.226,157.943,162.427,166.901,171.385,175.86,179.983,184.467,186.481,190.081,191.924,198.166,202.469,205.186,211.95,213.964,218.448,222.923,224.766,227.312,232.318,236.622,240.745,244.165,248.468,251.185,253.028,257.151,259.868,261.711,266.015,267.506,269.691,271.525,273.368,277.833,282.298,286.763,291.228,293.774,295.607,297.45,299.654,302.465" y="451.952" svg_rhmargin="304.745" style="fill:#171615;font-family:FTXBHJ+FrutigerLTPro-Condensed;font-size:9.5px;font-style:NORMAL;font-weight:normal;">weak state of AMOC to anthropogenic warming (Caesar et al., 2018). It </text>
  <text x="56.693,58.707,62.127" y="463.95" svg_rhmargin="64.407" style="fill:#171615;font-family:FTXBHJ+FrutigerLTPro-Condensed;font-size:9.5px;font-style:NORMAL;font-weight:normal;">is </text>
  <text x="63.97,67.922,72.045,74.762,78.533,80.376,82.39,84.404,88.175,92.298,94.312" y="463.95" svg_rhmargin="98.179" style="fill:#171615;font-family:FTXBHJ+FrutigerLTPro-CondensedIta;font-size:9.5px;font-style:NORMAL;font-weight:normal;">very likely</text>
  <text y="463.95" svg_rhmargin="304.781" x="99.926,102.643,107.127,111.431,114.148,115.991,118.708,123.192,127.315,128.632,133.99,141.286,147.005,152.011,153.854,160.267,162.281,164.295,166.309,168.152,174.564,178.687,182.991,186.762,190.885,195.369,197.212,201.696,205.648,209.771,212.488,214.331,217.048,221.532,225.655,227.498,231.963,236.428,239.848,242.565,244.408,248.009,252.132,256.616,259.333,263.817,266.534,270.305,272.139,273.454,277.226,281.71,285.833,287.671,292.146,296.269,299.689,302.501" style="fill:#171615;font-family:FTXBHJ+FrutigerLTPro-Condensed;font-size:9.5px;font-style:NORMAL;font-weight:normal;">that the AMOC will weaken over the 21st century. The best </text>
  <text x="56.693,60.816,64.236,66.953,68.967,75.731,80.034,82.751,86.874,90.294,92.574,93.382,97.685,102.169,106.644,108.924,109.731,112.448,116.752,121.236,125.71,129.833,133.253,135.533,136.341,138.887,143.371,146.088,148.368,149.175,151.892,156.376,160.499,162.779,163.587,166.304,170.427,174.901,179.385,182.986,185.703,187.717,192.201,196.685,198.965,199.772,204.247,208.55,211.97,216.093,220.568,222.848,223.655,228.139,232.623,234.903,235.711,240.717,248.013,250.217,254.692,259.157,261.43699999999995,262.244,265.664,267.678,274.442,278.926,280.94,285.244,287.961,289.975,294.459,298.943,302.458" y="475.949" svg_rhmargin="304.738" style="fill:#171615;font-family:FTXBHJ+FrutigerLTPro-Condensed;font-size:9.5px;font-style:NORMAL;font-weight:normal;">estimates and ranges for the reduction based on CMIP5 simulations </text>
  <text x="56.693,60.996,63.713,67.836,70.116,70.891,75.356,79.821,87.459,89.739,90.518,93.064,97.529,102.184,104.464,105.243,109.708,114.173,121.811,124.357,126.637,127.416,129.43,133.914,136.194,136.973,141.808,146.815,151.289,155.754,157.939,162.404,164.684,165.463,169.767,174.251,178.725,181.005,181.784,186.249,190.714,198.352,200.632,201.411,203.957,208.422,212.887,217.542,219.822,220.601,225.066,229.531,237.169,239.715,241.995,242.774,244.788,249.272,251.552,252.331,257.167,262.173,266.648,271.113,273.298,277.763,280.04299999999995,280.822,283.368,288.726,293.561,298.026,300.572,302.501" y="487.947" svg_rhmargin="304.781" style="fill:#171615;font-family:FTXBHJ+FrutigerLTPro-Condensed;font-size:9.5px;font-style:NORMAL;font-weight:normal;">are 11% (1– 24%) in RCP2.6 and 34% (12– 54%) in RCP8.5 (AR5). </text>
  <text svg_rhmargin="87.254" x="56.693,60.464,64.948,69.071,71.788,75.911,78.191,79.54,81.554,84.974,87.254" y="499.946" style="fill:#171615;font-family:FTXBHJ+FrutigerLTPro-Condensed;font-size:9.5px;font-style:NORMAL;font-weight:normal;">There is </text>
  <text x="88.603,93.087,97.571,99.851,101.2,105.323,109.275,111.289,115.764,119.887,124.371,127.971" y="499.946" svg_rhmargin="132.189" style="fill:#171615;font-family:FTXBHJ+FrutigerLTPro-CondensedIta;font-size:9.5px;font-style:NORMAL;font-weight:normal;">no evidence</text>
  <text y="499.946" svg_rhmargin="304.708" x="135.723,137.737,142.221,146.696,148.71,152.31,156.614,159.331,161.345,165.829,170.303,172.583,173.932,177.352,179.366,183.841,188.325,190.339,194.994,198.594,202.898,207.382,210.099,212.113,215.884,218.164,219.513,223.988,226.002,228.548,231.094,235.217,237.934,242.057,246.541,249.258,251.538,252.887,257.19,263.954,268.429,270.443,272.457,275.174,279.658,284.132,288.255,291.675,293.955,295.304,299.788,302.428" style="fill:#171615;font-family:FTXBHJ+FrutigerLTPro-Condensed;font-size:9.5px;font-style:NORMAL;font-weight:normal;">indicating significantly different amplitudes of </text>
  <text x="56.693,62.051,69.347,75.066,80.072,82.257,88.67,92.793,97.096,100.868,104.991,109.475,111.489,115.973,120.447,122.632,125.178,129.662,132.379,134.564,139.029,141.214,145.679,149.384,154.391,156.576,160.528,164.651,167.368,170.788,175.272,178.692,180.877,185.342,189.047,194.053,196.238,200.722,203.268,205.453,209.928,211.942,216.426,220.9,225.204,227.218,229.403,235.644,239.948,242.665,249.429,251.443,255.927,260.401" y="511.944" svg_rhmargin="262.681" style="fill:#171615;font-family:FTXBHJ+FrutigerLTPro-Condensed;font-size:9.5px;font-style:NORMAL;font-weight:normal;">AMOC weakening for 1.5°C versus 2°C of global warming.</text>
  <text x="56.693,61.793,64.293,69.393,71.893,76.993,79.59299999999999,92.693,97.593,102.493,107.393,109.893,112.573,116.733" y="536.0" svg_rhmargin="121.733" style="fill:#192a53;font-family:FTXBHJ+FrutigerLTPro-BoldCn;font-size:10.0px;font-style:NORMAL;font-weight:bold;">3.3.8 Sea Ice</text>
  <text x="56.693,60.816,65.3,72.064,78.828,82.951,85.668,87.94800000000001,89.487,92.907,97.03,101.333,103.613,105.152,107.166,110.767,114.89,117.17,118.709,120.723,125.207,127.487,129.026,131.743,136.227,140.35,142.63,143.644,149.002,151.719,155.319,158.036,160.05,163.651,165.931,167.47,171.954,176.257,179.677,181.957,183.496,187.971,192.094,196.217,200.701,202.981,204.52,207.237,211.36,214.077,216.794,220.917,225.22,227.937,229.951,234.435,238.91,241.19,242.729,245.446,249.749,254.224,256.238,260.712,262.726,266.498,268.77799999999996,270.317,272.331,276.815,279.09499999999997,280.634,283.351,287.474,291.074,295.197,299.681,302.492" y="560.0" svg_rhmargin="304.772" style="fill:#171615;font-family:FTXBHJ+FrutigerLTPro-Condensed;font-size:9.5px;font-style:NORMAL;font-weight:normal;">Summer sea ice in the Arctic has been retreating rapidly in recent </text>
  <text x="56.693,61.167,65.29,68.891,73.194,77.669,81.792,84.86,86.694,88.974,89.971,95.329,99.813,102.53,104.544,109.028,113.503,115.783,116.78,119.497,123.981,128.104,130.38400000000001,131.382,135.856,139.979,142.696,144.71,149.194,153.669,155.949,156.946,161.411,165.876,170.341,174.806,177.086,178.084,180.801,185.285,187.565,188.562,193.027,197.492,201.957,206.422,208.256,210.536,211.533,214.079,218.563,221.28,223.56,224.558,228.681,232.633,236.936,243.7,248.175,250.189,253.96,255.794,258.074,259.071,261.788,266.272,270.395,272.67499999999995,273.673,280.437,284.921,289.405,292.122,296.606,298.62,302.486" y="571.999" svg_rhmargin="304.766" style="fill:#171615;font-family:FTXBHJ+FrutigerLTPro-Condensed;font-size:9.5px;font-style:NORMAL;font-weight:normal;">decades. During the period 1997 to 2014, for example, the monthly </text>
  <text x="56.693,63.457,67.58,71.883,76.367,78.182,81.602,85.725,90.028,91.843,93.857,97.457,101.58,103.395,107.518,111.47,114.187,118.31,122.794,125.511,127.325,131.8,136.284,139.001,141.015,145.499,149.973,151.788,155.911,160.034,164.508,167.225,171.348,178.112,182.587,186.71,189.427,191.241,193.787,197.207,201.691,208.455,215.219,219.342,222.059,224.605,226.42,230.894,235.017,238.618,241.335,245.458,249.761,253.181,257.304,261.779,263.593,268.077,272.561,274.376,278.679,282.631,286.754,289.471,293.775,298.249,302.467" y="583.9970000000001" svg_rhmargin="304.747" style="fill:#171615;font-family:FTXBHJ+FrutigerLTPro-Condensed;font-size:9.5px;font-style:NORMAL;font-weight:normal;">mean sea ice extent during September (summer) decreased on average </text>
  <text x="56.693,61.167,64.939,66.947,71.412,75.877,80.342,82.527,86.992,91.457,95.922,97.931,102.054,108.818,111.459,113.469,117.943,122.066,124.783,126.792,130.564,134.687,138.99,141.707,143.717,146.263,150.386,154.509,157.226,159.943,164.066,167.666,171.789,173.798,178.102,182.586,187.06,189.07,193.193,195.91,198.627,203.111,207.234,211.186,214.957,216.791,218.799,223.264,227.729,232.194,236.659,239.205,241.038,242.525,246.297,250.781,252.795,256.215,258.223,260.237,263.657,265.665,269.969,274.443,278.927,283.411,286.128,288.138,290.684,295.168,299.652,302.463" y="595.996" svg_rhmargin="304.743" style="fill:#171615;font-family:FTXBHJ+FrutigerLTPro-Condensed;font-size:9.5px;font-style:NORMAL;font-weight:normal;">by 130,000 km² per year (Serreze and Stroeve, 2015). This is about four </text>
  <text x="56.693,59.41,61.424,68.188,72.311,75.731,78.011,79.084,83.388,86.808,89.08800000000001,90.161,92.707,97.011,100.431,103.148,105.428,106.501,110.805,114.225,116.505,117.578,120.295,124.779,128.902,131.182,132.256,136.379,140.502,144.976,147.693,151.816,158.58,163.055,167.178,169.895,172.175,173.248,176.668,180.791,185.095,187.375,188.448,190.462,194.063,198.186,200.466,201.539,203.553,208.037,211.457,214.877,217.157,218.231,222.705,227.189,229.906,231.92,236.404,240.879,243.159,244.232,246.949,251.433,255.556,257.836,258.91,263.384,267.507,270.224,272.238,276.722,281.197,283.477,284.55,289.015,293.48,297.945,302.505" y="607.994" svg_rhmargin="304.785" style="fill:#171615;font-family:FTXBHJ+FrutigerLTPro-Condensed;font-size:9.5px;font-style:NORMAL;font-weight:normal;">times as fast as the September sea ice loss during the period 1979 </text>
  <text x="56.693,59.41,63.894,66.17399999999999,67.086,71.551,76.016,80.481,84.946,86.779,89.059,89.971,94.094,98.217,102.521,104.801,105.713,107.727,111.327,115.45,117.73,118.642,121.359,125.843,127.857,131.458,135.581,140.065,144.188,147.608,151.028,153.308,154.22,158.704,163.007,166.427,168.707,169.619,173.923,175.937,179.357,183.841,186.121,187.033,191.507,195.63,199.231,201.948,206.071,210.374,213.794,217.917,222.392,224.672,225.584,229.004,233.488,237.962,241.382,244.099,248.403,252.887,255.604,257.618,261.921,263.935,265.949,269.721,271.554,273.83399999999995,274.746,281.159,283.173,285.89,290.374,292.654,293.566,297.869,302.448" y="619.9929999999999" svg_rhmargin="304.728" style="fill:#171615;font-family:FTXBHJ+FrutigerLTPro-Condensed;font-size:9.5px;font-style:NORMAL;font-weight:normal;">to 1996. Sea ice thickness has also decreased substantially, with an </text>
  <text x="56.693,60.816,64.236,66.953,68.967,75.731,80.034,82.751,86.874,91.349,93.629,94.265,98.74,102.863,106.463,109.18,113.303,117.607,121.027,125.15,127.43,128.066,130.08,134.564,136.844,137.481,139.495,143.095,147.218,149.498,150.135,152.852,157.336,159.35,162.95,167.073,171.557,175.68,179.1,182.52,184.8,185.437,189.921,192.467,194.747,195.383,202.147,206.631,209.348,213.471,215.751,216.388,219.105,223.589,227.892,232.376,234.656,235.293,239.758,244.223,251.861,254.141,254.777,256.791,261.275,263.55499999999995,264.192,266.909,271.393,275.516,277.796,278.432,282.033,286.156,290.64,293.357,296.074,300.377,302.485" y="631.991" svg_rhmargin="304.765" style="fill:#171615;font-family:FTXBHJ+FrutigerLTPro-Condensed;font-size:9.5px;font-style:NORMAL;font-weight:normal;">estimated decrease in ice thickness of more than 50% in the central </text>
  <text x="56.693,62.051,64.768,68.368,71.085,73.099,76.7,78.98,79.436,81.982,85.753,87.767,92.251,96.726,100.146,104.449,108.221,110.501,110.957,115.26,119.744,124.219,126.499,126.955,131.078,134.678,139.162,145.575,149.698,151.712,156.186,160.309,162.161,163.994,166.274,166.73,171.195,175.66,180.125,184.59,187.136,188.97,191.25,191.706,195.829,199.952,204.255,206.535,206.991,209.005,212.606,216.729,219.00900000000001,219.465,223.065,227.549,231.501,235.624,238.341,242.645,247.119,251.242,253.522,253.978,258.282,262.766,267.24,269.52,269.976,272.693,277.177,279.191,282.792,286.915,291.399,295.522,298.942,302.457" y="643.99" svg_rhmargin="304.737" style="fill:#171615;font-family:FTXBHJ+FrutigerLTPro-Condensed;font-size:9.5px;font-style:NORMAL;font-weight:normal;">Arctic (Lindsay and Schweiger, 2015). Sea ice coverage and thickness </text>
  <text x="56.693,60.996,63.01,66.43,70.914,73.194,75.835,80.31,84.433,88.033,90.75,94.873,99.177,102.597,106.72,109.0,111.641,113.655,118.139,120.419,123.06,128.066,135.362,137.566,142.041,146.506,148.786,151.427,154.847,156.861,163.625,168.109,170.123,174.426,177.143,179.157,183.641,188.125,191.545,193.825,196.466,200.95,203.496,205.776,208.417,211.134,215.618,219.741,222.02100000000002,224.662,227.379,231.502,235.103,239.226,243.71,246.427,248.707,251.348,255.822,260.126,263.546,266.263,268.096,270.376,273.017,277.321,281.805,286.279,288.55899999999997,291.2,295.504,298.221,302.439" y="655.988" svg_rhmargin="304.719" style="fill:#171615;font-family:FTXBHJ+FrutigerLTPro-Condensed;font-size:9.5px;font-style:NORMAL;font-weight:normal;">also decrease in CMIP5 simulations of the recent past, and are </text>
  <text x="56.693,61.167,63.884,68.368,70.382,74.505,78.106,80.823,84.946,89.42,91.7,93.315,96.032,100.516,102.796,104.411,108.886,113.009,116.609,119.326,123.449,127.753,131.173,135.296,137.576,139.191,141.205,145.689,147.969,149.584,152.301,156.785,160.908,163.188,164.803,167.349,171.833,174.55,179.034,181.751,185.874,188.154,189.769,192.315,197.321,201.805,203.819,205.833,207.847,212.331,215.751,218.031,219.646,223.769,226.486,228.766,230.381,234.685,236.175,238.36,240.194,242.474,244.089,248.554,253.019,257.484,261.949,264.495,266.328,268.60799999999995,270.223,275.581,280.065,286.478,290.601,294.553,298.676,300.528,302.457" y="667.987" svg_rhmargin="304.737" style="fill:#171615;font-family:FTXBHJ+FrutigerLTPro-Condensed;font-size:9.5px;font-style:NORMAL;font-weight:normal;">projected to decrease in the future (Collins et al., 2013). However, </text>
  <text x="56.693,59.41,63.894,68.017,70.297,72.035,78.799,83.283,87.758,91.881,93.895,95.909,100.032,104.506,106.786,108.525,111.945,116.068,120.371,122.651,124.39,126.404,130.004,134.127,136.407,138.146,140.16,144.644,148.064,151.484,153.764,155.502,157.516,162.0,164.28,166.019,172.783,177.267,180.687,183.404,185.684,187.422,192.429,199.725,201.929,206.403,210.868,213.148,214.887,221.651,226.135,230.609,234.732,236.746,240.166,242.446,244.185,246.199,249.619,251.899,253.637,260.401,264.885,268.486,272.97,275.25,276.988,280.408,287.172,291.476,293.49,295.504,299.627,302.439" y="679.985" svg_rhmargin="304.719" style="fill:#171615;font-family:FTXBHJ+FrutigerLTPro-Condensed;font-size:9.5px;font-style:NORMAL;font-weight:normal;">the modelled sea ice loss in most CMIP5 models is much smaller </text>
  <text x="56.693,59.41,63.894,68.197,72.681,74.961,75.617,80.101,84.575,87.995,92.118,94.835,98.787,102.91,107.385,109.665,110.32,112.334,116.818,120.238,123.658,127.781,130.85,132.683,134.963,135.619,140.625,145.109,151.873,156.348,160.651,163.368,167.491,171.966,174.246,174.901,177.618,182.102,184.382,185.038,189.522,193.996,197.416,201.539,204.256,208.037,212.341,215.058,217.072,221.556,226.04,229.107,230.941,233.221,233.876,236.593,241.077,245.2,247.48,248.136,251.556,253.57,260.334,264.818,266.832,271.135,273.852,275.866,280.35,284.834,288.254,290.534,291.19,295.493,298.21,302.427" y="691.984" svg_rhmargin="304.707" style="fill:#171615;font-family:FTXBHJ+FrutigerLTPro-Condensed;font-size:9.5px;font-style:NORMAL;font-weight:normal;">than observed losses. Compared to observations, the simulations are </text>
  <text svg_rhmargin="304.727" x="56.693,58.707,62.83,66.25,69.67,71.95,72.691,76.111,80.234,84.718,88.138,90.152,92.869,94.883,98.835,102.958,105.238,105.979,108.696,113.18,115.46000000000001,116.201,120.675,125.159,127.876,132.36,134.64000000000001,135.381,139.856,141.87,146.354,150.828,155.132,157.146,159.426,160.167,166.931,171.054,175.357,179.841,182.121,182.862,185.579,189.702,196.466,200.941,205.064,207.781,212.084,214.801,219.285,222.002,226.125,228.405,229.146,231.863,233.877,237.297,241.42,243.7,244.441,246.987,251.823,256.307,259.727,263.85,268.334,272.808,274.822,279.306,286.07,288.34999999999997,289.091,293.395,297.879,302.447,304.727" y="67.98599999999999" style="fill:#171615;font-family:FTXBHJ+FrutigerLTPro-Condensed;font-size:9.5px;font-style:NORMAL;font-weight:normal;">less sensitive to both global mean temperature rise (Rosenblum and </text>
  <text x="315.216,319.52,321.534,324.954,329.077,333.561,340.325,344.628,349.112,350.946,353.188,357.653,362.118,366.583,371.048,373.594,375.836,380.139,384.623,389.098,391.34,395.643,400.127,402.844,407.328,410.045,414.529,419.004,423.488,427.962,432.085,436.569,438.583,442.184,444.426,449.432" y="67.98599999999999" svg_rhmargin="455.246" style="fill:#171615;font-family:FTXBHJ+FrutigerLTPro-Condensed;font-size:9.5px;font-style:NORMAL;font-weight:normal;">Eisenman, 2017) and anthropogenic CO</text>
  <text x="455.133" y="71.16399999999999" svg_rhmargin="457.791" style="fill:#171615;font-family:FTXBHJ+FrutigerLTPro-Condensed;font-size:5.54px;font-style:NORMAL;font-weight:normal;">2</text>
  <text y="68.0" svg_rhmargin="563.271" x="459.978,464.101,470.865,472.879,476.299,479.719,481.733,486.217,490.701,494.121,496.363,498.909,504.628,509.112,511.829,515.429,517.671,521.975,526.459,530.933,533.175,537.298,540.015,542.732,547.216,551.339,555.291,559.063,560.991" style="fill:#171615;font-family:FTXBHJ+FrutigerLTPro-Condensed;font-size:9.5px;font-style:NORMAL;font-weight:normal;">emissions (Notz and Stroeve, </text>
  <text x="315.217,319.682,324.147,328.612,333.077,335.623,337.456,339.717,343.489,347.973,349.987,353.407,355.68699999999995,356.19,362.954,364.968,368.388,375.152,379.456,382.173,385.773,390.257,392.537,393.041,397.515,401.638,404.355,410.768,414.891,419.014,423.498,425.77799999999996,426.281,428.998,433.482,437.605,439.885,440.389,444.873,449.347,452.767,456.89,459.607,463.559,467.682,472.157,474.43699999999995,474.94,479.244,483.728,488.202,490.48199999999997,490.986,497.75,502.234,506.708,510.831,512.845,514.859,518.982,523.457,525.737,526.24,529.66,533.783,538.267,541.687,543.701,546.418,548.432,552.384,554.398,557.115,560.981" y="79.99800000000005" svg_rhmargin="563.261" style="fill:#171615;font-family:FTXBHJ+FrutigerLTPro-Condensed;font-size:9.5px;font-style:NORMAL;font-weight:normal;">2016). This mismatch between the observed and modelled sensitivity </text>
  <text x="315.217,319.701,322.247,323.672,329.03,331.747,335.347,338.064,340.078,343.679,345.626,349.046,353.169,357.473,359.42,361.434,365.035,369.158,371.105,373.119,379.883,384.358,386.372,388.386,392.509,395.929,397.876,400.593,405.077,409.381,412.098,414.045,416.762,421.246,425.369,427.317,434.081,438.565,440.579,443.296,445.31,448.027,454.791,459.275,463.749,467.872,469.886,472.603,479.367,483.49,487.794,492.278,494.225,496.942,501.065,504.485,508.96,513.444,517.928,521.348,525.471,528.891,530.838,535.322,537.868,539.816,542.362,546.846,549.563,554.047,556.764,560.982" y="91.99699999999996" svg_rhmargin="563.262" style="fill:#171615;font-family:FTXBHJ+FrutigerLTPro-Condensed;font-size:9.5px;font-style:NORMAL;font-weight:normal;">of Arctic sea ice implies that the multi-model-mean responses of future </text>
  <text x="315.217,318.637,322.76,327.063,329.552,331.566,335.167,339.29,341.779,345.902,349.854,354.338,356.352,360.836,363.553,365.567,370.051,374.535,377.024,381.498,384.215,388.699,393.174,397.477,401.952,403.966,407.737,410.226,414.71,419.194,423.669,427.792,430.509,434.632,438.052,440.769,442.783,449.547,453.85,456.567,460.69,464.11,466.599,469.316,473.8,477.923,480.412,483.832,487.955,492.259,494.748,496.762,500.362,504.485,506.974,508.988,513.472,516.892,520.312,522.801,525.347,529.831,532.548,535.037,539.341,541.83,546.304,548.318,552.27,556.393,560.972" y="103.995" svg_rhmargin="563.252" style="fill:#171615;font-family:FTXBHJ+FrutigerLTPro-Condensed;font-size:9.5px;font-style:NORMAL;font-weight:normal;">sea ice evolution probably underestimates the sea ice loss for a given </text>
  <text x="315.217,319.52,326.284,330.768,335.252,339.736,342.453,344.73299999999995,345.702,350.186,352.732,355.012,355.981,360.456,362.47,366.954,371.428,375.732,377.746,380.02599999999995,380.995,387.236,391.54,394.257,401.021,403.035,407.519,411.993,413.827,416.552,419.972,424.456,426.736,427.705,432.009,436.483,440.958,443.675,447.798,451.218,454.638,456.91799999999995,457.887,460.604,465.088,467.102,470.522,472.80199999999996,473.771,475.785,479.205,482.625,487.109,490.88,492.714,494.99399999999997,495.963,499.383,502.1,506.584,511.058,513.072,517.195,520.615,522.895,523.864,527.987,531.407,534.124,536.138,542.902,547.206,549.923,551.937,556.421,560.99" y="115.99400000000003" svg_rhmargin="563.27" style="fill:#171615;font-family:FTXBHJ+FrutigerLTPro-Condensed;font-size:9.5px;font-style:NORMAL;font-weight:normal;">amount of global warming. To address this issue, studies estimating </text>
  <text x="315.217,317.934,322.418,326.541,328.82099999999997,329.714,332.26,336.744,339.461,343.945,346.662,350.785,353.065,353.958,358.081,362.033,366.517,368.531,373.015,375.732,377.746,382.23,386.714,388.99399999999997,389.887,394.371,396.917,399.566,404.924,407.641,411.242,413.959,415.973,419.573,421.85299999999995,422.746,426.166,430.289,434.593,436.873,437.766,439.78,443.38,447.503,449.78299999999996,450.676,453.393,457.516,462.0,466.475,468.755,469.648,472.365,476.849,479.12899999999996,480.022,484.496,486.51,490.814,494.234,496.51399999999995,497.407,501.007,505.491,508.208,510.925,515.048,518.649,521.366,523.646,524.539,527.256,531.74,535.863,538.143,539.036,545.8,550.284,554.758,558.881,560.989" y="127.99199999999996" svg_rhmargin="563.269" style="fill:#171615;font-family:FTXBHJ+FrutigerLTPro-Condensed;font-size:9.5px;font-style:NORMAL;font-weight:normal;">the future evolution of Arctic sea ice tend to bias correct the model </text>
  <text x="315.217,318.637,320.651,327.415,331.899,333.913,338.216,340.933,342.947,347.431,351.915,355.335,357.61499999999995,359.867,364.341,368.645,372.065,376.188,380.662,382.94199999999995,385.194,389.678,394.162,396.44199999999995,398.693,401.41,405.894,410.017,412.29699999999997,414.549,419.033,423.507,426.927,431.05,433.767,437.719,441.842,446.317,448.597,450.848,454.971,458.923,463.407,465.421,469.905,472.622,474.636,479.12,483.604,485.88399999999996,488.136,492.62,495.166,497.44599999999997,499.178,504.536,507.253,510.854,513.571,515.585,519.185,521.4649999999999,523.717,527.137,531.26,535.563,537.843,540.095,542.109,545.709,549.832,552.112,554.364,556.378,560.957" y="139.99099999999999" svg_rhmargin="563.237" style="fill:#171615;font-family:FTXBHJ+FrutigerLTPro-Condensed;font-size:9.5px;font-style:NORMAL;font-weight:normal;">simulations based on the observed evolution of Arctic sea ice in </text>
  <text x="315.217,317.934,322.057,325.477,329.951,334.435,338.919,342.339,346.462,348.74199999999996,349.445,352.162,356.646,358.926,359.629,364.104,366.118,370.602,375.076,379.38,381.394,383.674,384.377,390.618,394.922,397.639,404.403,406.417,410.901,415.375,417.209,419.489,420.192,425.027,429.331,432.751,436.874,441.348,443.628,444.331,448.815,453.299,455.57899999999995,456.282,459.702,464.186,467.787,472.271,474.551,475.254,479.728,481.742,486.046,489.466,491.746,492.449,496.049,500.533,503.25,505.967,510.09,513.691,516.408,518.422,522.906,527.39,529.223,531.5029999999999,532.206,536.681,539.398,543.521,546.238,551.596,556.431,560.991" y="151.98900000000003" svg_rhmargin="563.271" style="fill:#171615;font-family:FTXBHJ+FrutigerLTPro-Condensed;font-size:9.5px;font-style:NORMAL;font-weight:normal;">response to global warming. Based on such bias correction, pre-AR5 </text>
  <text x="315.217,319.52,324.004,328.479,330.474,334.948,339.432,342.852,345.569,348.286,353.644,358.48,362.945,364.94,368.36,371.077,375.561,380.035,382.049,386.172,389.592,391.587,396.062,400.185,404.669,408.792,411.509,415.812,417.826,419.84,423.612,425.607,429.91,434.385,437.102,441.225,445.348,447.343,450.06,454.544,458.847,461.564,463.559,466.105,470.589,473.306,475.301,479.766,481.951,486.416,490.121,495.128,497.123,501.607,504.153,506.148,510.622,512.636,517.12,521.595,525.898,527.912,529.907,536.149,540.452,543.169,549.933,551.947,556.431,561.0" y="163.98800000000006" svg_rhmargin="563.28" style="fill:#171615;font-family:FTXBHJ+FrutigerLTPro-Condensed;font-size:9.5px;font-style:NORMAL;font-weight:normal;">and post-AR5 studies generally agree that for 1.5°C of global warming </text>
  <text x="315.217,317.934,322.057,324.071,328.374,331.091,333.105,337.057,341.18,343.204,345.921,350.405,352.428,356.903,359.62,363.743,366.46,368.474,372.958,377.432,381.916,385.336,388.053,390.77,392.784,397.088,399.102,401.125,403.139,407.262,411.214,415.337,417.351,420.42,422.253,424.277,426.994,431.478,435.601,437.101,442.459,445.176,448.776,451.493,453.507,457.108,459.131,464.85,468.451,472.574,476.877,481.361,483.385,489.797,491.811,493.825,495.839,497.863,504.627,508.93,510.944,515.428,518.145,522.449,524.463,528.947,530.97,535.274,537.297,540.717,544.84,549.144,551.167,553.181,556.782,560.999" y="175.986" svg_rhmargin="563.279" style="fill:#171615;font-family:FTXBHJ+FrutigerLTPro-Condensed;font-size:9.5px;font-style:NORMAL;font-weight:normal;">relative to pre-industrial levels, the Arctic Ocean will maintain a sea ice </text>
  <text x="315.217,318.817,323.301,327.253,331.376,334.093,336.335,339.052,343.536,346.253,350.737,355.221,359.696,364.18,368.664,373.148,375.865,378.107,381.527,386.011,392.775,399.539,403.662,406.379,408.621,410.635,415.119,417.361,424.125,428.609,432.029,434.746,436.988,440.759,444.882,449.186,451.903,455.323,457.565,460.111,465.117,469.601,471.615,473.629,475.643,480.127,483.547,485.789,489.912,492.629,494.871,499.175,500.666,502.851,504.685,506.927,511.392,515.857,520.322,524.787,526.62,528.862,534.581,539.065,541.782,545.383,547.625,551.928,556.412,560.982" y="187.985" svg_rhmargin="563.262" style="fill:#171615;font-family:FTXBHJ+FrutigerLTPro-Condensed;font-size:9.5px;font-style:NORMAL;font-weight:normal;">cover throughout summer in most years (Collins et al., 2013; Notz and </text>
  <text x="315.217,319.34,322.057,324.774,329.258,333.381,337.333,341.104,342.938,345.579,350.044,354.509,358.974,363.439,365.272,367.913,372.036,375.637,378.354,382.477,386.6,391.084,393.725,398.028,402.512,406.987,409.107,416.574,418.588,420.602,422.616,424.63,428.933,435.697,439.117,443.601,448.085,449.919,452.56,457.025,461.49,465.955,470.42,472.253,474.894,477.697,482.0,486.484,490.968,492.802,495.443,499.908,504.373,508.838,513.303,515.136,517.777,523.496,525.51,529.633,534.108,538.231,540.948,545.422,548.139,552.262,556.746,560.964" y="199.98299999999995" svg_rhmargin="563.244" style="fill:#171615;font-family:FTXBHJ+FrutigerLTPro-Condensed;font-size:9.5px;font-style:NORMAL;font-weight:normal;">Stroeve, 2016; Screen and Williamson, 2017; Jahn, 2018; Niederdrenk </text>
  <text x="315.217,319.52,324.004,328.479,330.75899999999996,332.032,337.751,342.235,344.952,348.552,350.386,352.666,353.939,358.404,362.869,367.334,371.799,373.632,375.912,377.185,381.308,383.322,387.797,394.561,399.045,403.529,408.003,410.28299999999996,411.556,415.679,418.396,420.676,421.949,426.253,427.744,429.929,431.762,434.042,435.315,439.78,444.245,448.71,453.175,455.721,457.554,459.83399999999995,461.107,464.708,469.192,471.909,474.18899999999996,475.462,479.927,483.632,488.638,490.91799999999995,492.191,496.675,499.221,501.501,502.774,507.249,509.263,513.747,518.221,522.525,524.539,526.819,528.092,534.333,538.637,541.354,548.118,550.132,554.616,559.09,561.019" y="211.98199999999997" svg_rhmargin="563.299" style="fill:#171615;font-family:FTXBHJ+FrutigerLTPro-Condensed;font-size:9.5px;font-style:NORMAL;font-weight:normal;">and Notz, 2018; Sigmond et al., 2018). For 2°C of global warming, </text>
  <text x="315.217,318.817,323.301,327.605,332.089,335.689,339.812,343.232,345.284,349.768,352.314,354.366,358.67,360.722,364.142,368.265,372.568,374.62,376.634,380.235,384.358,387.075,389.621,392.338,396.461,400.584,402.114,407.472,410.189,413.79,416.507,418.521,422.121,424.173,428.648,433.132,435.849,437.863,442.347,446.821,448.873,452.293,456.777,463.541,470.305,474.428,477.145,479.197,483.501,486.218,490.341,492.393,495.813,500.297,504.771,508.191,510.908,515.212,519.696,522.413,524.427,528.73,530.744,532.758,536.53,538.582,543.066,545.08,549.554,554.038,558.161,560.973" y="223.98000000000002" svg_rhmargin="563.253" style="fill:#171615;font-family:FTXBHJ+FrutigerLTPro-Condensed;font-size:9.5px;font-style:NORMAL;font-weight:normal;">chances of a sea ice-free Arctic during summer are substantially higher </text>
  <text x="315.217,317.763,321.886,325.486,328.203,332.326,336.449,340.933,343.21299999999997,345.237,349.54,354.024,358.499,360.779,362.277,369.744,371.758,373.772,375.786,377.8,382.103,388.867,392.287,396.771,401.255,403.089,405.36899999999997,407.392,411.857,416.322,420.787,425.252,427.086,429.366,431.389,434.192,438.495,442.979,447.463,449.297,451.577,453.6,458.065,462.53,466.995,471.46,473.294,475.57399999999996,477.597,483.316,485.33,489.453,493.928,498.051,500.768,505.242,507.959,512.082,516.566,520.689,522.9689999999999,524.993,529.296,533.78,538.255,540.535,542.558,548.277,552.761,555.478,559.079,561.007" y="235.97900000000004" svg_rhmargin="563.287" style="fill:#171615;font-family:FTXBHJ+FrutigerLTPro-Condensed;font-size:9.5px;font-style:NORMAL;font-weight:normal;">(Screen and Williamson, 2017; Jahn, 2018; Niederdrenk and Notz, </text>
  <text x="315.217,319.682,324.147,328.612,333.077,334.909,337.18899999999996,338.329,342.452,346.053,348.77,352.893,357.016,361.5,363.78,364.92,369.043,371.76,374.03999999999996,375.18,379.483,380.975,383.16,384.993,387.27299999999997,388.413,392.878,397.343,401.808,406.273,408.107,410.387,411.527,415.65,417.664,422.138,428.902,433.386,437.87,442.345,444.625,445.765,449.888,452.605,454.885,456.025,460.328,461.82,464.005,465.838,468.118,469.258,473.723,478.188,482.653,487.118,489.664,491.497,493.777,494.917,502.213,506.697,511.171,515.294,517.308,519.588,520.728,524.148,526.162,532.926,537.41,539.424,543.728,546.445,548.459,552.943,557.427,560.941" y="247.97699999999998" svg_rhmargin="563.221" style="fill:#171615;font-family:FTXBHJ+FrutigerLTPro-Condensed;font-size:9.5px;font-style:NORMAL;font-weight:normal;">2018; Screen et al., 2018; Sigmond et al., 2018). Model simulations </text>
  <text x="315.217,318.637,323.121,327.595,332.07,336.193,339.613,342.33,344.315,347.032,351.516,355.82,358.537,360.522,363.239,367.723,371.846,374.563,378.686,380.672,387.084,389.098,391.112,393.126,395.112,399.586,403.709,405.695,409.998,412.715,414.701,416.715,420.838,425.141,428.561,431.278,433.264,437.748,442.232,446.355,448.34,451.76,455.883,460.187,462.172,464.186,467.787,471.91,474.627,477.173,479.89,484.013,488.136,489.602,494.96,497.677,501.277,503.994,506.008" y="259.976" svg_rhmargin="509.703" style="fill:#171615;font-family:FTXBHJ+FrutigerLTPro-Condensed;font-size:9.5px;font-style:NORMAL;font-weight:normal;">suggest that there will be at least one sea ice-free Arctic</text>
  <text x="509.624" y="256.836" svg_rhmargin="512.282" style="fill:#171615;font-family:FTXBHJ+FrutigerLTPro-LightCn;font-size:5.54px;font-style:NORMAL;font-weight:normal;">5</text>
  <text y="260.0" svg_rhmargin="563.252" x="514.213,517.633,522.117,528.881,535.645,539.768,542.485,544.47,548.774,551.32,554.037,558.16,560.972" style="fill:#171615;font-family:FTXBHJ+FrutigerLTPro-Condensed;font-size:9.5px;font-style:NORMAL;font-weight:normal;">summer after </text>
  <text x="315.216,319.52,323.994,328.469,331.186,335.67,339.622,341.636,348.4,352.703,355.42,359.543,361.557,365.329,367.609,368.929,373.394,377.859,380.13899999999995,381.46,385.231,389.354,393.658,396.375,399.795,402.075,403.395,407.879,410.425,412.705,414.026,417.446,420.163,424.466,428.941,430.955,432.969,434.983,438.583,442.706,447.181,449.46099999999996,450.781,457.023,461.326,464.043,470.807,472.821,477.305,481.78,484.05999999999995,485.38,489.684,492.401,494.681,496.001,500.466,504.171,509.178,511.011,513.291,514.612,518.915,522.335,524.615,525.936,529.536,534.021,540.784,545.259,549.563,552.279,556.402,560.972" y="271.99800000000005" svg_rhmargin="563.252" style="fill:#171615;font-family:FTXBHJ+FrutigerLTPro-Condensed;font-size:9.5px;font-style:NORMAL;font-weight:normal;">approximately 10 years of stabilized warming at 2°C, as compared </text>
  <text x="315.216,317.933,322.417,324.69699999999995,325.41,329.894,334.378,338.501,340.78099999999995,341.493,344.913,349.036,353.34,355.61999999999995,356.332,358.346,361.947,366.07,368.787,371.333,374.05,378.173,382.296,384.57599999999996,385.288,388.708,393.192,399.956,406.72,410.843,413.56,415.84,416.553,420.856,423.402,426.119,430.242,432.959,435.239,435.952,440.417,444.882,449.347,451.62699999999995,452.339,456.111,460.234,464.537,467.254,470.674,472.95399999999995,473.667,478.151,480.697,482.977,483.689,487.109,489.826,494.13,498.604,500.618,502.632,504.646,508.247,512.37,516.844,519.124,519.837,526.077,530.381,533.098,539.862,541.876,546.36,550.834,553.1139999999999,553.827,558.13,560.942" y="283.99699999999996" svg_rhmargin="563.222" style="fill:#171615;font-family:FTXBHJ+FrutigerLTPro-Condensed;font-size:9.5px;font-style:NORMAL;font-weight:normal;">to one sea ice-free summer after 100 years of stabilized warming at </text>
  <text x="315.216,319.681,321.866,326.331,330.036,335.043,337.323,338.938,343.241,347.716,352.2,356.152,360.275,362.55499999999995,364.17,368.644,371.361,375.484,378.201,380.215,384.699,389.174,393.658,397.078,399.795,402.512,404.526,408.829,410.843,413.123,414.738,417.455,421.578,428.342,432.817,436.94,439.657,443.96,446.677,451.161,453.878,458.001,461.421,463.70099999999996,465.316,467.862,470.665,474.968,479.452,483.936,485.77,488.04999999999995,489.665,494.13,498.595,503.06,507.525,509.358,511.638,513.253,517.376,520.977,523.694,527.817,531.94,536.424,538.704,540.319,544.442,547.159,549.439,551.054,555.357,556.849,559.034,560.962" y="295.995" svg_rhmargin="563.242" style="fill:#171615;font-family:FTXBHJ+FrutigerLTPro-Condensed;font-size:9.5px;font-style:NORMAL;font-weight:normal;">1.5°C above pre-industrial temperatures (Jahn, 2018; Screen et al., </text>
  <text x="315.216,319.681,324.146,328.611,333.076,334.909,337.445,341.568,343.582,348.057,354.821,359.305,363.789,368.263,370.8,374.923,377.64,380.176,384.48,385.971,388.156,389.99,392.526,396.991,401.456,405.921,410.386,412.932,414.766,417.302,420.903,425.387,428.104,430.64,434.944,437.48,440.9,445.375,449.498,453.098,455.112,459.767,463.368,465.904,470.379,472.393,476.345,480.468,484.952,487.488,491.26,495.383,499.686,502.403,504.94,509.424,513.908,518.382,522.505,525.222,527.759,531.179,533.896,538.199,542.674,544.688,546.702,548.716,552.316,556.439,561.009" y="307.994" svg_rhmargin="563.289" style="fill:#171615;font-family:FTXBHJ+FrutigerLTPro-Condensed;font-size:9.5px;font-style:NORMAL;font-weight:normal;">2018; Sigmond et al., 2018). For a specific given year under stabilized </text>
  <text x="315.216,321.458,325.761,328.478,335.242,337.256,341.74,346.215,348.305,352.789,355.335,357.425,361.89,365.595,370.601,372.435,374.525,377.945,380.662,385.146,389.62,391.634,395.757,399.177,401.267,405.742,410.045,413.465,417.588,422.063,424.153,428.637,433.121,435.211,437.225,441.528,444.245,448.72,452.843,454.933,459.056,463.54,466.96,471.083,477.847,482.321,484.335,488.458,491.878,493.968,498.452,500.998,503.088,506.508,508.522,515.286,519.77,521.784,526.088,528.805,530.819,535.303,539.787,543.207,545.297,551.709,553.723,556.44,561.019" y="319.992" svg_rhmargin="563.299" style="fill:#171615;font-family:FTXBHJ+FrutigerLTPro-Condensed;font-size:9.5px;font-style:NORMAL;font-weight:normal;">warming of 2°C, studies based on large ensembles of simulations with </text>
  <text x="315.216,319.52,321.79999999999995,322.531,325.951,327.965,332.449,336.924,338.938,343.061,345.34099999999995,346.072,352.836,357.32,361.795,365.918,367.932,370.212,370.943,375.066,378.486,381.203,383.217,389.981,394.285,397.002,401.125,403.405,404.136,406.853,411.337,415.46,417.73999999999995,418.472,420.486,422.5,426.271,430.394,432.408,434.422,438.906,443.391,447.875,452.349,454.62899999999996,455.361,459.845,462.391,464.671,465.402,467.416,471.017,475.139,477.857,480.402,483.12,487.242,491.365,493.645,494.377,497.977,502.461,506.945,511.42,513.434,516.151,518.165,522.649,527.133,530.553,532.833,533.564,537.868,541.288,543.568,544.299,548.764,553.229,560.962" y="331.991" svg_rhmargin="563.242" style="fill:#171615;font-family:FTXBHJ+FrutigerLTPro-Condensed;font-size:9.5px;font-style:NORMAL;font-weight:normal;">a single model estimate the likelihood of ice-free conditions as 35% </text>
  <text x="315.216,321.629,323.643,326.36,330.844,335.328,339.812,342.529,344.80899999999997,345.711,350.015,352.29499999999996,353.197,357.672,359.686,363.989,367.409,369.68899999999996,370.592,374.192,378.676,381.393,384.111,388.233,391.834,394.551,396.565,401.049,405.533,407.813,408.716,413.2,415.746,418.02599999999995,418.928,421.645,426.129,430.252,432.532,433.435,437.919,442.403,446.877,451.0,453.717,455.731,459.503,461.517,466.001,470.475,472.755,473.658,480.422,484.906,489.38,493.503,495.517,497.79699999999997,498.7,501.246,505.368,509.672,514.156,518.63,522.753,525.47,528.89,533.374,537.858,540.1379999999999,541.041,545.164,547.881,550.161,551.063,555.367,556.857,559.042,560.971" y="343.989" svg_rhmargin="563.251" style="fill:#171615;font-family:FTXBHJ+FrutigerLTPro-Condensed;font-size:9.5px;font-style:NORMAL;font-weight:normal;">without a bias correction of the underlying model (Sanderson et al., </text>
  <text x="315.216,319.681,324.146,328.611,333.076,334.909,337.18899999999996,338.728,341.53,345.834,350.318,354.802,356.635,358.91499999999996,360.454,364.919,369.384,373.849,378.314,380.86,382.694,384.974,386.513,390.816,394.236,396.51599999999996,398.055,402.53,406.653,409.37,415.782,419.905,424.028,428.512,430.792,432.331,436.796,441.261,448.899,451.179,452.718,457.022,461.506,465.98,468.26,469.799,475.404,479.869,484.334,491.972,494.25199999999995,495.791,500.266,504.389,508.863,512.986,517.47,521.945,523.959,528.443,532.917,535.197,536.736,541.22,545.704,547.9839999999999,549.523,552.24,556.724,560.942" y="355.988" svg_rhmargin="563.222" style="fill:#171615;font-family:FTXBHJ+FrutigerLTPro-Condensed;font-size:9.5px;font-style:NORMAL;font-weight:normal;">2017; Jahn, 2018); as between 10% and &gt;99% depending on the </text>
  <text x="315.216,319.7,324.175,327.595,331.718,334.435,338.216,342.519,345.236,347.25,351.734,356.218,360.522,362.536,364.816,365.452,368.169,372.292,375.893,380.377,383.094,387.568,389.84799999999996,390.485,394.969,398.389,402.512,406.986,409.26599999999996,409.903,412.62,417.104,419.38399999999996,420.021,423.621,428.105,430.822,433.539,437.662,441.263,443.98,446.26,446.896,449.613,454.097,458.22,460.5,461.137,464.557,468.68,473.164,476.584,478.598,481.315,483.329,487.281,489.295,492.012,495.783,498.063,498.7,503.184,505.73,508.01,508.646,512.066,516.189,520.493,522.773,523.409,525.423,529.024,533.147,535.427,536.063,540.538,544.661,548.261,550.275,552.289,556.773,560.991" y="367.986" svg_rhmargin="563.271" style="fill:#171615;font-family:FTXBHJ+FrutigerLTPro-Condensed;font-size:9.5px;font-style:NORMAL;font-weight:normal;">observational record used to correct the sensitivity of sea ice decline </text>
  <text x="315.216,317.933,322.417,324.69699999999995,325.942,330.416,332.43,336.914,341.389,345.692,347.706,349.986,351.231,357.472,361.776,364.493,371.257,373.271,377.755,382.229,384.50899999999996,385.754,387.768,392.252,394.532,395.777,398.494,402.978,407.101,409.381,410.625,415.109,419.593,424.068,428.191,430.908,432.922,436.693,438.707,443.191,447.666,449.94599999999997,451.19,457.954,462.438,466.913,471.036,473.05,475.33,476.574,479.12,484.839,486.853,490.976,495.451,499.574,502.291,506.765,509.482,513.605,518.089,522.212,524.492,525.737,530.04,534.524,538.999,541.279,542.523,548.242,552.726,555.443,559.044,560.972" y="379.985" svg_rhmargin="563.252" style="fill:#171615;font-family:FTXBHJ+FrutigerLTPro-Condensed;font-size:9.5px;font-style:NORMAL;font-weight:normal;">to global warming in the underlying model (Niederdrenk and Notz, </text>
  <text x="315.216,319.681,324.146,328.611,333.076,335.622,337.456,339.736,340.239,344.543,349.027,353.501,355.78099999999995,356.28,360.584,364.004,366.284,366.782,371.247,375.712,383.35,385.63,386.134,390.608,394.912,398.332,402.455,406.929,409.20899999999995,409.708,414.192,418.676,420.95599999999996,421.46,425.763,428.04299999999995,428.542,433.016,435.733,440.217,443.818,447.941,452.415,456.899,459.616,463.739,466.01899999999995,466.518,469.235,473.719,475.99899999999997,476.498,480.098,484.582,487.299,490.016,494.139,497.74,500.457,502.73699999999997,503.24,505.786,510.27,512.987,515.2669999999999,515.766,520.241,522.255,526.558,529.978,534.101,537.521,539.8009999999999,540.305,542.319,546.803,549.083,549.581,552.298,556.782,561.0" y="391.983" svg_rhmargin="563.28" style="fill:#171615;font-family:FTXBHJ+FrutigerLTPro-Condensed;font-size:9.5px;font-style:NORMAL;font-weight:normal;">2018); and as 19% based on a procedure to correct for biases in the </text>
  <text x="315.216,318.817,320.831,322.845,329.609,333.912,336.629,341.113,343.127,347.611,352.086,354.1,357.7,362.004,364.018,366.29799999999994,366.972,370.392,374.515,378.819,381.099,381.773,383.787,387.388,391.511,393.791,394.465,398.066,402.55,406.502,410.625,413.342,417.645,422.12,426.243,428.52299999999997,429.197,431.211,435.695,437.97499999999997,438.65,441.367,445.851,449.974,452.25399999999996,452.928,457.412,461.896,466.371,470.494,473.211,475.225,478.996,481.01,485.494,489.969,492.24899999999997,492.923,499.687,504.171,508.646,512.769,514.783,517.063,517.737,520.284,524.406,526.42,530.895,537.659,542.143,546.627,551.101,553.381,554.056,558.179,560.991" y="403.982" svg_rhmargin="563.271" style="fill:#171615;font-family:FTXBHJ+FrutigerLTPro-Condensed;font-size:9.5px;font-style:NORMAL;font-weight:normal;">climatological sea ice coverage in the underlying model (Sigmond et </text>
  <text x="315.216,319.52,321.011,323.196,325.03,327.414,331.879,336.344,340.809,345.274,347.82,349.654,351.517,355.288,359.772,363.895,366.28,370.764,375.248,378.848,382.971,385.688,388.405,392.709,394.723,399.207,401.924,405.695,408.08,412.564,415.11,417.494,420.211,424.695,428.818,431.203,435.858,438.575,441.995,444.712,447.096,450.868,454.991,459.294,462.011,464.396,468.88,471.426,473.81,476.527,481.011,485.134,487.519,492.003,495.603,499.204,503.688,506.405,509.122,513.245,517.729,521.329,525.452,527.837,532.321,534.867,537.251,541.555,546.039,548.424,550.438,554.038,558.161" y="415.98" svg_rhmargin="560.973" style="fill:#171615;font-family:FTXBHJ+FrutigerLTPro-Condensed;font-size:9.5px;font-style:NORMAL;font-weight:normal;">al., 2018). The uncertainty of the first year of the occurrence of an ice-</text>
  <text x="315.216,317.762,320.479,324.602,328.725,331.005,331.568,336.926,339.643,343.243,345.96,347.974,351.575,353.85499999999996,354.938,360.657,364.257,368.38,372.684,377.168,379.448,380.531,384.834,387.551,389.565,392.985,394.999,399.483,403.958,406.238,407.321,409.867,412.584,417.068,423.832,426.11199999999997,427.195,429.209,433.693,436.41,440.533,443.25,447.734,452.037,454.051,456.33099999999996,457.414,461.195,465.499,468.216,470.23,474.533,479.008,481.022,483.036,485.05,487.767,491.538,493.818,494.901,496.915,500.336,502.616,503.699,507.822,511.242,513.958,515.972,522.736,527.04,529.757,533.88,538.354,540.634,541.717,544.434,548.918,551.198,552.281,556.756,560.974" y="427.979" svg_rhmargin="563.254" style="fill:#171615;font-family:FTXBHJ+FrutigerLTPro-Condensed;font-size:9.5px;font-style:NORMAL;font-weight:normal;">free Arctic Ocean arising from internal variability is estimated to be </text>
  <text x="315.216,319.52,323.994,328.478,332.962,335.679,337.864,342.329,346.794,348.979,352.751,356.874,361.177,363.894,367.314,369.499,372.045,377.764,382.248,384.965,388.566,390.398,392.583,397.048,401.513,405.978,410.443,412.277,414.462,417.264,421.568,426.052,430.536,432.721,436.844,439.561,441.746,446.049,447.54,449.725,451.559,453.744,458.209,462.674,467.139,471.604,474.15" y="439.978" svg_rhmargin="476.43" style="fill:#171615;font-family:FTXBHJ+FrutigerLTPro-Condensed;font-size:9.5px;font-style:NORMAL;font-weight:normal;">about 20 years (Notz, 2015; Jahn et al., 2016).</text>
  <text x="315.216,318.988,323.472,327.595,329.39,336.154,340.638,343.355,347.478,349.274,351.991,356.114,359.714,363.837,368.321,371.038,372.834,376.957,380.377,383.094,385.108,391.872,396.175,398.892,403.015,406.435,408.231,412.715,415.261,417.056,419.773,424.257,428.38,430.176,436.417,440.721,443.438,450.202,452.216,456.7,461.174,462.97,467.454,471.577,475.177,479.3,482.72,486.141,490.444,493.161,496.933,498.728,501.445,505.929,507.725,512.199,514.916,519.4,523.875,528.359,531.959,536.082,537.878,542.181,546.665,548.461,550.474,554.075,558.198" y="463.975" svg_rhmargin="561.01" style="fill:#171615;font-family:FTXBHJ+FrutigerLTPro-Condensed;font-size:9.5px;font-style:NORMAL;font-weight:normal;">The more recent estimates of the warming necessary to produce an ice-</text>
  <text x="315.216,317.762,320.479,324.602,328.725,330.298,335.656,338.373,341.973,344.69,346.704,350.305,352.398,358.117,361.718,365.841,370.144,374.628,376.722,381.197,385.681,388.398,390.412,394.896,399.37,401.465,404.885,409.369,416.133,422.897,427.02,429.737,431.831,436.134,438.851,442.974,445.068,447.082,451.566,457.979,462.102,464.819,466.913,469.63,474.114,478.418,482.902,484.996,487.713,492.197,496.32,498.414,502.898,507.382,511.505,514.925,517.02,521.495,523.508,527.461,531.583,536.068,538.161,540.175,544.659,546.232,551.59,556.425,560.985" y="475.973" svg_rhmargin="563.265" style="fill:#171615;font-family:FTXBHJ+FrutigerLTPro-Condensed;font-size:9.5px;font-style:NORMAL;font-weight:normal;">free Arctic Ocean during summer are lower than the ones given in AR5 </text>
  <text x="315.216,317.762,322.066,326.54,331.024,335.508,338.225,340.61,345.075,347.26,351.725,355.43,360.436,365.091,369.556,371.741,376.206,379.911,384.918,387.302,391.786,394.332,396.717,401.191,403.205,407.689,412.164,416.467,418.481,420.866,427.107,431.411,434.128,440.892,442.906,447.39,451.864,454.249,456.966,461.089,463.103,467.406,470.123,472.137,476.089,480.212,482.597,485.314,489.798,492.182,496.657,499.374,503.497,506.214,508.228,512.712,517.186,521.67,525.09,527.807,530.524,532.538,536.842,538.856,541.24,543.254,547.377,551.329,555.452,557.466,560.981" y="487.972" svg_rhmargin="563.261" style="fill:#171615;font-family:FTXBHJ+FrutigerLTPro-Condensed;font-size:9.5px;font-style:NORMAL;font-weight:normal;">(about 2.6°C–3.1°C of global warming relative to pre-industrial levels </text>
  <text x="315.216,319.7,322.417,324.602,329.067,331.252,335.717,339.422,344.429,349.084,353.549,355.734,360.199,363.904,368.91,371.095,373.812,377.935,379.949,384.253,386.97,388.984,392.936,397.059,399.244,401.961,406.445,408.63,413.104,415.821,419.944,423.364,427.487,431.971,434.688,437.405,441.88,446.183,449.955,452.14,455.74,460.224,464.708,469.183,471.197,473.914,475.928,480.412,484.896,488.316,490.862,492.695,494.88,501.292,505.776,507.79,511.391,515.875,518.06,524.472,528.595,531.312,535.435,537.62,541.04,543.054,549.818,551.832,553.846,558.149,560.961" y="499.97" svg_rhmargin="563.241" style="fill:#171615;font-family:FTXBHJ+FrutigerLTPro-Condensed;font-size:9.5px;font-style:NORMAL;font-weight:normal;">or 1.6°C–2.1°C relative to present-day conditions), which were similar </text>
  <text x="315.216,317.933,322.417,324.69699999999995,326.132,328.849,333.333,337.456,339.736,341.17,345.293,348.713,351.43,353.444,360.208,364.512,367.229,371.352,373.63199999999995,375.066,379.551,382.096,384.376,385.811,390.276,393.981,398.987,401.267,402.702,407.186,409.732,412.012,413.447,417.921,419.935,424.419,428.893,433.197,435.211,437.491,438.926,445.167,449.471,452.188,458.952,460.966,465.45,469.924,472.20399999999995,473.639,476.356,480.479,482.493,486.796,489.513,491.527,495.479,499.602,501.88199999999995,503.317,506.034,510.518,512.798,514.232,518.707,521.424,525.547,528.263,530.277,534.761,539.236,543.72,547.14,549.857,552.574,554.588,558.891,560.999" y="511.969" svg_rhmargin="563.279" style="fill:#171615;font-family:FTXBHJ+FrutigerLTPro-Condensed;font-size:9.5px;font-style:NORMAL;font-weight:normal;">to the estimate of 3°C of global warming relative to pre-industrial </text>
  <text x="315.216,317.23,321.353,325.305,329.428,331.442,334.862,337.142,338.586,341.132,345.616,348.333,350.613,352.057,356.522,360.227,365.234,367.51399999999995,368.958,371.675,375.798,377.812,382.115,384.832,386.846,390.798,394.921,397.20099999999996,398.645,401.362,405.846,408.126,409.57,414.045,416.762,420.885,424.305,428.428,432.912,435.629,438.346,442.82,447.124,450.895,453.17499999999995,454.619,458.22,462.704,467.188,471.662,473.676,476.393,478.407,482.891,487.375,490.796,493.341,495.621,497.065,501.54,505.311,507.59099999999995,509.035,516.331,520.635,525.119,527.133,530.553,533.27,537.393,539.407,543.891,546.1709999999999,547.615,551.918,556.402,560.972" y="523.967" svg_rhmargin="563.252" style="fill:#171615;font-family:FTXBHJ+FrutigerLTPro-Condensed;font-size:9.5px;font-style:NORMAL;font-weight:normal;">levels (or 2°C relative to present-day conditions) by Mahlstein and </text>
  <text x="315.216,320.052,324.536,329.02,331.737,334.454,336.468,338.928,341.474,345.939,350.404,354.869,359.334,361.88,364.341,368.815,373.119,376.539,380.662,385.136,387.597,392.081,396.565,399.025,403.5,405.514,409.817,413.237,415.954,419.555,424.039,426.756,429.473,433.596,437.197,439.914,444.036,448.511,450.971,455.978,463.274,465.478,469.952,474.417,476.878,483.642,488.126,492.6,496.723,498.737,501.806,503.639,506.1,510.936,515.419,518.839,522.962,527.446,531.921,533.935,538.419,545.183,547.643,551.947,556.431,561.0" y="535.966" svg_rhmargin="563.28" style="fill:#171615;font-family:FTXBHJ+FrutigerLTPro-Condensed;font-size:9.5px;font-style:NORMAL;font-weight:normal;">Knutti (2012) based on bias-corrected CMIP3 models. Rosenblum and </text>
  <text x="315.216,319.52,321.534,324.954,329.077,333.561,340.325,344.628,349.112,351.174,353.72,358.185,362.65,367.115,371.58,374.126,376.187,380.31,384.262,388.737,390.751,395.054,397.068,401.552,405.675,410.15,412.211,418.624,423.108,426.879,428.941,431.658,436.142,440.265,442.326,445.746,449.869,454.353,457.773,459.787,462.504,464.518,468.47,470.484,473.201,476.973,479.034,483.157,486.577,489.294,491.308,498.072,502.376,505.093,509.216,513.69,515.752,520.227,523.998,526.06,533.356,537.659,542.143,544.157,547.577,550.294,554.417,556.431,561.01" y="547.9639999999999" svg_rhmargin="563.29" style="fill:#171615;font-family:FTXBHJ+FrutigerLTPro-Condensed;font-size:9.5px;font-style:NORMAL;font-weight:normal;">Eisenman (2016) explained why the sensitivity estimated by Mahlstein </text>
  <text x="315.216,319.52,324.004,328.478,330.312,335.147,339.631,344.115,346.832,349.549,351.563,353.397,355.943,360.408,364.873,369.338,373.803,376.349,378.182,384.946,386.96,391.435,395.919,398.636,400.469,404.944,409.067,410.9,413.617,418.101,422.585,424.419,426.433,430.917,437.329,439.162,440.996,445.118,448.539,451.256,453.27,460.034,464.337,467.054,469.068,473.552,478.027,479.86,481.874,486.358,489.778,492.495,496.618,500.922,505.396,507.23,509.947,514.431,518.734,521.451,523.285,527.408,531.531,536.005,538.722,542.845,549.609,554.083,558.206,561.018" y="559.963" svg_rhmargin="563.298" style="fill:#171615;font-family:FTXBHJ+FrutigerLTPro-Condensed;font-size:9.5px;font-style:NORMAL;font-weight:normal;">and Knutti (2012) might be too low, estimating instead that September </text>
  <text x="315.216,318.636,322.759,327.063,329.34299999999996,331.661,333.675,337.275,341.398,343.678,345.996,348.01,352.494,354.774,357.092,359.809,364.293,368.416,370.69599999999997,372.496,377.854,380.571,384.171,386.888,388.902,392.503,394.78299999999996,397.101,403.513,407.997,412.481,414.495,418.97,421.25,423.568,428.042,430.056,433.476,437.78,442.254,446.729,450.852,455.155,457.872,460.152,462.47,466.774,469.491,471.77099999999996,474.089,478.554,482.259,487.265,489.54499999999996,491.863,496.347,498.893,501.17299999999994,503.491,507.966,509.98,514.464,518.938,523.242,525.256,527.536,529.854,536.096,540.4,543.117,549.881,551.895,556.379,560.947" y="571.961" svg_rhmargin="563.227" style="fill:#171615;font-family:FTXBHJ+FrutigerLTPro-Condensed;font-size:9.5px;font-style:NORMAL;font-weight:normal;">sea ice in the Arctic would disappear at 2°C of global warming </text>
  <text x="315.216,317.933,322.056,324.07,328.374,331.091,333.105,337.057,341.18,343.46,344.324,347.041,351.525,353.80499999999995,354.67,359.144,361.861,365.984,368.701,370.715,375.199,379.674,384.158,387.578,390.295,393.012,395.026,399.329,401.344,403.62399999999997,404.488,406.502,410.625,414.577,418.7,420.714,424.134,426.414,427.279,429.824,434.309,437.026,439.306,440.17,444.474,448.948,453.432,457.916,460.633,462.91299999999995,463.778,468.243,471.948,476.954,479.234,480.099,482.816,486.939,488.953,493.256,495.973,497.987,501.939,506.062,508.342,509.207,511.924,516.408,518.688,519.552,524.026,526.743,530.866,534.286,538.409,542.893,545.61,548.327,552.802,557.105,560.972" y="583.96" svg_rhmargin="563.252" style="fill:#171615;font-family:FTXBHJ+FrutigerLTPro-Condensed;font-size:9.5px;font-style:NORMAL;font-weight:normal;">relative to pre-industrial levels (or about 1°C relative to present-day </text>
  <text x="315.216,318.817,323.301,327.785,332.259,334.273,336.99,339.004,343.488,347.972,351.392,353.938,355.771,358.051,358.536,360.55,365.034,367.31399999999996,367.798,369.812,371.826,376.31,380.433,382.71299999999997,383.198,389.61,391.624,394.341,398.825,401.10499999999996,401.59,404.307,408.791,412.914,415.19399999999996,415.678,420.162,422.879,427.363,431.486,434.203,436.48299999999995,436.968,439.685,443.808,447.408,451.531,456.015,458.732,461.012,461.497,465.62,469.04,471.757,473.771,480.535,484.838,487.555,491.678,494.747,496.58,498.85999999999996,499.345,505.064,509.548,512.265,515.865,518.145,518.63,522.933,527.417,531.892,534.172,534.656,538.779,541.496,544.213,548.697,552.82,556.772,560.989" y="595.958" svg_rhmargin="563.269" style="fill:#171615;font-family:FTXBHJ+FrutigerLTPro-Condensed;font-size:9.5px;font-style:NORMAL;font-weight:normal;">conditions), in line with the other recent estimates. Notz and Stroeve </text>
  <text x="315.216,317.762,322.227,326.692,331.157,335.622,338.168,340.448,342.643,347.127,350.547,354.67,359.144,361.424,363.619,366.336,370.82,374.943,377.22299999999996,379.417,383.901,388.376,391.796,395.919,398.636,402.588,406.711,411.185,413.465,415.66,419.26,423.744,426.461,429.178,433.301,435.315,439.619,442.336,444.35,448.834,453.318,455.59799999999996,457.792,462.267,466.39,469.107,475.519,479.642,483.765,488.249,490.529,492.724,496.847,500.97,505.444,508.161,512.284,519.048,523.523,527.646,530.363,532.643,534.837,538.257,542.38,546.684,548.9639999999999,551.158,553.172,556.773,560.99" y="607.957" svg_rhmargin="563.27" style="fill:#171615;font-family:FTXBHJ+FrutigerLTPro-Condensed;font-size:9.5px;font-style:NORMAL;font-weight:normal;">(2016) used the observed correlation between September sea ice </text>
  <text x="315.216,319.339,323.291,326.008,330.131,334.615,337.332,339.308,343.612,348.096,352.57,354.546,358.147,362.631,369.395,373.879,375.893,380.196,382.913,384.927,388.879,393.002,394.978,399.985" y="619.955" svg_rhmargin="405.799" style="fill:#171615;font-family:FTXBHJ+FrutigerLTPro-Condensed;font-size:9.5px;font-style:NORMAL;font-weight:normal;">extent and cumulative CO</text>
  <text x="405.688" y="623.163" svg_rhmargin="408.346" style="fill:#171615;font-family:FTXBHJ+FrutigerLTPro-Condensed;font-size:5.54px;font-style:NORMAL;font-weight:normal;">2</text>
  <text y="620.0" svg_rhmargin="563.28" x="410.267,414.39,421.154,423.168,426.588,430.008,432.022,436.506,440.99,444.41,446.386,449.103,453.587,455.563,459.686,463.106,465.823,467.837,474.601,478.905,481.622,485.745,487.721,490.438,494.922,499.225,501.942,503.918,506.635,511.119,515.242,516.692,522.05,524.767,528.367,531.084,533.098,536.699,538.675,544.394,547.994,552.117,556.421,561.0" style="fill:#171615;font-family:FTXBHJ+FrutigerLTPro-Condensed;font-size:9.5px;font-style:NORMAL;font-weight:normal;">emissions to estimate that the Arctic Ocean </text>
  <text x="315.21,321.622,326.107,330.591,332.605,337.079,339.691,344.166,348.289,351.889,356.373,363.137,367.26,369.873,374.357,378.48,382.783,385.5,387.514,391.286,393.898,396.444,399.161,403.284,407.407,410.02,414.504,417.05,419.662,423.082,427.205,431.509,434.121,436.135,439.736,443.859,446.467,450.941,455.425,458.142,460.156,464.64,469.115,471.727,475.85,479.973,484.448,487.165,491.288,498.052,502.526,506.649,509.366,511.979,518.391,520.405,523.122,527.606,530.214,534.517,537.13,539.676,544.16,546.877,549.594,554.078,558.201,561.013" y="631.999" svg_rhmargin="563.293" style="fill:#171615;font-family:FTXBHJ+FrutigerLTPro-Condensed;font-size:9.5px;font-style:NORMAL;font-weight:normal;">would become nearly free of sea ice during September with a further </text>
  <text x="315.21,319.675,324.14,328.605,333.07,335.198,340.917,343.634,345.762,350.246,352.792,354.92,359.043,365.807,367.821,371.241,374.661,376.675,381.159,385.643,388.712,390.545,392.673,399.086,403.57,405.584,409.184,413.668,415.796,420.1,422.114,425.534,430.018,432.146,434.16,440.924,445.398,447.412,449.426,453.549,456.969,459.097,463.401,465.529,468.949,473.072,477.375,479.503,481.517,485.118,489.241,491.368,493.383,497.867,501.287,504.707,506.835,511.138,513.855,515.983,520.287,524.761,529.245,533.729,536.446,538.574,543.039,546.744,551.751,553.879,558.363,561.004" y="643.9970000000001" svg_rhmargin="563.284" style="fill:#171615;font-family:FTXBHJ+FrutigerLTPro-Condensed;font-size:9.5px;font-style:NORMAL;font-weight:normal;">1000 Gt of emissions, which also implies a sea ice loss at about 2°C of </text>
  <text x="315.21,319.684,321.698,326.182,330.657,334.96,336.974,339.074,345.315,349.619,352.336,359.1,361.114,365.598,370.073,371.905,374.005,378.128,382.612,389.376,393.499,395.598,400.082,402.628,404.728,407.445,411.929,416.052,418.151,422.635,427.119,430.72,434.842,437.56,440.277,444.58,446.594,451.078,453.795,457.567,459.666,461.68,466.164,468.264,470.981,475.465,479.588,483.008,487.131,489.23,493.714,498.198,504.962,509.437,513.56,516.277,519.697,521.796,525.216,527.933,532.056,538.82,542.24,544.339,546.885,549.602,554.086,560.945" y="655.996" svg_rhmargin="563.225" style="fill:#171615;font-family:FTXBHJ+FrutigerLTPro-Condensed;font-size:9.5px;font-style:NORMAL;font-weight:normal;">global warming. Some of the uncertainty in these numbers stems from </text>
  <text x="315.21,317.927,322.411,326.534,328.81399999999996,329.678,334.153,338.637,342.057,345.477,347.491,351.966,353.98,358.103,360.383,361.247,363.261,370.025,374.5,378.803,382.404,385.121,387.40099999999995,388.265,392.749,395.295,397.575,398.44,402.743,406.866,409.583,414.067,417.487,421.971,423.985,427.405,429.68499999999995,430.55,433.096,438.815,443.118,447.593,452.077,456.2,458.47999999999996,459.344,463.467,466.184,468.464,469.329,473.632,475.124,477.309,479.142,481.42199999999997,482.287,486.752,491.217,495.682,500.147,502.693,504.97299999999996,505.837,510.141,514.625,519.099,521.379,522.243,526.727,529.273,531.553,532.418,536.37,540.854,542.868,546.469,550.772,555.256,557.27,560.966" y="667.994" svg_rhmargin="563.246" style="fill:#171615;font-family:FTXBHJ+FrutigerLTPro-Condensed;font-size:9.5px;font-style:NORMAL;font-weight:normal;">the possible impact of aerosols (Gagne et al., 2017) and of volcanic </text>
  <text x="315.21,317.756,322.24,324.957,328.557,330.572,335.056,339.53,341.80999999999995,342.836,345.382,350.217,354.702,358.122,362.245,366.729,371.203,373.217,377.701,384.465,386.74499999999995,387.771,392.075,396.559,401.033,403.313,404.339,408.643,410.657,414.077,418.2,422.684,429.448,433.751,438.235,440.069,442.349,443.375,447.84,452.305,456.77,461.235,463.781,465.614,467.89399999999995,468.92,474.278,478.762,481.479,483.493,487.977,492.452,494.73199999999997,495.758,502.17,504.184,508.668,511.385,515.508,517.361,519.194,521.4739999999999,522.5,524.514,526.528,529.245,531.962,533.976,538.099,540.379,540.882,546.24,548.956,552.557,555.274,557.288,560.983" y="679.9929999999999" svg_rhmargin="563.263" style="fill:#171615;font-family:FTXBHJ+FrutigerLTPro-Condensed;font-size:9.5px;font-style:NORMAL;font-weight:normal;">forcing (Rosenblum and Eisenman, 2016). During winter, little Arctic </text>
  <text x="315.21,318.63,322.753,327.056,329.023,331.037,334.637,338.76,340.727,342.741,346.161,348.127,352.602,355.319,359.803,361.817,365.94,369.54,372.257,376.38,380.855,382.821,385.538,390.022,391.989,396.463,400.586,402.553,404.567,409.051,412.471,415.188,417.154,419.7,424.184,426.901,428.868,432.991,435.005,437.722,442.206,446.329,449.046,451.012,455.477,457.662,462.127,465.832,470.839,472.805,477.289,480.006,481.973,486.438,490.143,495.149,497.116,501.6,504.146,506.112,510.587,512.601,517.085,521.559,525.863,527.877,529.843,536.085,540.388,543.105,549.869,551.883,556.367,560.937" y="691.991" svg_rhmargin="563.217" style="fill:#171615;font-family:FTXBHJ+FrutigerLTPro-Condensed;font-size:9.5px;font-style:NORMAL;font-weight:normal;">sea ice is projected to be lost for either 1.5°C or 2°C of global warming </text>
  <text x="315.21,317.756,323.475,325.489,329.612,334.086,338.209,340.926,345.401,348.118,352.241,356.725,360.848,363.033,367.336,371.82,376.295,378.48,384.199,388.683,391.4,395.0,396.834,399.019,403.484,407.949,412.414,416.879,419.425,421.353" y="703.99" svg_rhmargin="423.633" style="fill:#171615;font-family:FTXBHJ+FrutigerLTPro-Condensed;font-size:9.5px;font-style:NORMAL;font-weight:normal;">(Niederdrenk and Notz, 2018). </text>
  <text x="56.693" y="730.623" svg_rhmargin="58.932" style="fill:#171615;font-family:FTXBHJ+FrutigerLTPro-LightCn;font-size:4.66px;font-style:NORMAL;font-weight:normal;">5</text>
  <text y="733.287" svg_rhmargin="316.596" x="68.692,70.468,73.428,76.836,78.468,80.54,82.764,86.172,89.58,91.212,92.844,95.66,97.292,100.996,104.404,108.108,111.812,115.22,118.924,120.556,122.628,126.34,128.564,130.196,132.42,136.124,139.532,141.164,144.572,148.276,151.684,154.644,156.276,159.828,161.46,163.092,167.092,170.5,174.204,177.916,180.14,182.364,183.996,187.548,190.364,191.996,197.18,200.884,204.292,207.996,209.628,211.852,215.556,218.964,220.596,223.412,226.82,230.372,232.004,233.636,236.596,240.004,241.636,245.044,248.156,250.38,253.788,257.492,259.716,261.348,262.98,265.796,267.428,269.06,272.468,275.284,278.1,279.732,281.956,285.66,289.212,292.916,294.548,298.388,302.228,306.068,307.7,311.108" style="fill:#171615;font-family:FTXBHJ+FrutigerLTPro-LightCn;font-size:8.0px;font-style:NORMAL;font-weight:normal;">Ice free is defined for the Special Report as when the sea ice extent is less than 106 km</text>
  <text x="316.569" y="730.623" svg_rhmargin="318.808" style="fill:#171615;font-family:FTXBHJ+FrutigerLTPro-LightCn;font-size:4.66px;font-style:NORMAL;font-weight:normal;">2</text>
  <text x="318.808,320.432,322.064,323.84,326.8,330.208,331.84,334.8,338.512,341.632,345.04,347.12,350.672,354.376,357.784,359.416,361.048,364.456,367.272,370.088,371.72,373.944,377.648,381.2,384.904,386.536,388.76,392.464,394.096,396.912,398.544,400.176,402.992,404.624,407.584,411.296,415.0,417.816,419.448,423.152,426.56,428.784,432.192,435.896,437.528,439.752,443.464,445.096,448.8,452.208,453.84,457.248,460.952,464.656,466.288,469.264,472.816,474.448,477.856,481.56,483.784,485.416,487.64,491.352,492.984,496.536,500.24,501.872,503.504,506.464,509.872,512.24,514.312,516.536,519.944,523.352,524.542,528.99,531.214,534.174,536.398,538.03,540.99,542.622,547.374,550.334,553.742,557.294,560.998" y="733.287" svg_rhmargin="562.918" style="fill:#171615;font-family:FTXBHJ+FrutigerLTPro-LightCn;font-size:8.0px;font-style:NORMAL;font-weight:normal;">. Ice coverage less than this is considered to be equivalent to an ice-free Arctic Ocean </text>
  <text x="68.696,70.768,74.48,76.704,78.624,82.328,84.408,87.96,90.92,93.144,94.776,97.736,101.288,102.92,104.84,108.544,112.248,114.472,118.176,121.888,124.704,128.112,130.928,132.848,134.48,138.184,140.104,143.656,145.288,146.92,148.84,151.064,154.472,157.432,160.84,164.544,166.768,168.688,171.504,173.728,177.432,181.136,182.768,186.176,188.694" y="743.287" svg_rhmargin="190.614" style="fill:#171615;font-family:FTXBHJ+FrutigerLTPro-LightCn;font-size:8.0px;font-style:NORMAL;font-weight:normal;">for practical purposes in all recent studies.</text>
 </g>
</svg>
