<?xml version="1.0" encoding="UTF-8"?>
<svg height="767.02" width="588.152" xmlns="http://www.w3.org/2000/svg">
 <g id="page" xmlns:svgx="http://www.xml-cml.org/schema/svgx">
  <g begin="text">
   <text y="94.621" x="186.86,193.186,197.749,200.522,205.912,210.166,212.856,223.426,230.37,235.87,238.36,240.661,246.569,250.504,254.758,259.63,262.529,265.946,270.3,274.554,278.53799999999995,280.742,287.686,290.176,292.421,299.365,304.864,310.154,313.053,316.789,321.958,326.24080000000004,328.477,337.294,339.784,342.026,348.143,352.706,357.78560000000004,360.111,367.683,370.173,372.413,379.048,383.611,391.91,397.3,401.949,407.548,412.1296,414.365,421.0,423.49,425.76,432.086,437.586,441.521,444.922,450.103,455.6806,457.961,464.905,467.395,469.639,474.621,479.602,484.583,489.564" svgx:width="0.63,0.46,0.27,0.54,0.43,0.27,0.83,0.7,0.55,0.25,0.55,0.59,0.4,0.43,0.49,0.29,0.33,0.44,0.43,0.4,0.55,0.7,0.25,0.55,0.7,0.55,0.53,0.29,0.38,0.51,0.43,0.55,0.88,0.25,0.55,0.61,0.46,0.51,0.55,0.76,0.25,0.55,0.67,0.46,0.83,0.54,0.46,0.56,0.46,0.55,0.67,0.25,0.55,0.63,0.55,0.4,0.33,0.52,0.56,0.55,0.7,0.25,0.55,0.5,0.5,0.5,0.5,0.25" style="fill:rgb(0,0,0);font-family:AdvOTb65e897d.B;font-size:9.96px;stroke:none;">TalhelmAF, Pregitzer K, Kubiske M, Zak D, Campany C, Burton A. 2013.</text>
  </g>
  <g begin="text">
   <text y="94.621" x="494.36,499.959,502.45,506.595,511.157,515.511,518.52,522.763,527.9422000000001,530.19,536.725" svgx:width="0.56,0.25,0.42,0.46,0.44,0.3,0.42,0.52,0.55,0.66,0.74" style="fill:rgb(0,0,0);font-family:AdvOT1ef757c0;font-size:9.96px;stroke:none;">Elevated CO</text>
  </g>
  <g begin="text">
   <text y="96.265" x="544.138" svgx:width="0.48" style="fill:rgb(0,0,0);font-family:AdvOT1ef757c0;font-size:6.64px;stroke:none;">2</text>
  </g>
  <g begin="text">
   <text y="94.621" x="549.921,554.275,559.664,564.8432,567.155" svgx:width="0.44,0.54,0.52,0.55,0.74" style="fill:rgb(0,0,0);font-family:AdvOT1ef757c0;font-size:9.96px;stroke:none;">and O</text>
  </g>
  <g begin="text">
   <text y="96.265" x="574.526" svgx:width="0.48" style="fill:rgb(0,0,0);font-family:AdvOT1ef757c0;font-size:6.64px;stroke:none;">3</text>
  </g>
  <g begin="text">
   <text y="107.603" x="198.822,203.176,205.666,208.743,212.887,216.4726,218.664,223.844,227.47,232.452,237.712,242.893,247.037,250.046,252.636,257.199,259.789,262.884,267.4656,269.573,273.927,279.317,284.4962,286.694,290.839,295.192,298.819,303.8,308.861,314.2394,316.457,320.084,323.092,328.074,331.7,336.054,340.617,344.8002,346.958,349.548,354.9264,357.106,364.533,369.514,373.141,376.149,381.439,385.584,389.21,394.5884,396.848,402.965,407.109,415.199,420.379,424.524,428.15,432.504,435.625,439.8082,441.917,447.098,452.079,455.706,459.85,463.574,466.583,470.209,472.4002,474.516,478.142,482.287,485.913,491.183,493.674,496.683,500.2686,502.465,505.364,508.99,513.972,524.292,531.136,534.763,539.943,544.088,549.4664,551.731,556.912,563.756,570.291,575.89" svgx:width="0.44,0.25,0.3,0.42,0.36,0.55,0.52,0.36,0.5,0.52,0.52,0.42,0.3,0.26,0.46,0.26,0.3,0.46,0.55,0.44,0.54,0.52,0.55,0.42,0.44,0.36,0.5,0.5,0.54,0.55,0.36,0.3,0.5,0.36,0.44,0.46,0.42,0.55,0.26,0.54,0.55,0.74,0.5,0.36,0.3,0.53,0.42,0.36,0.54,0.55,0.61,0.42,0.81,0.52,0.42,0.36,0.44,0.3,0.42,0.55,0.52,0.5,0.36,0.42,0.36,0.3,0.36,0.22,0.55,0.36,0.42,0.36,0.52,0.25,0.3,0.36,0.55,0.29,0.36,0.5,0.81,0.69,0.36,0.52,0.42,0.54,0.55,0.52,0.69,0.66,0.56,0.22" style="fill:rgb(0,0,0);font-family:AdvOT1ef757c0;font-size:9.96px;stroke:none;">alter productivity and carbon storage in Northern Temperate Forests: results fromAspen FACE.</text>
  </g>
  <g begin="text">
   <text y="120.529" x="198.822,202.14,207.529" svgx:width="0.33,0.54,0.22" style="fill:rgb(0,0,0);font-family:AdvOT1ef757c0;font-size:9.96px;stroke:none;">In:</text>
  </g>
  <g begin="text">
   <text y="120.529" x="212.769,219.304,227.085,231.02,234.647,237.336,241.072,246.047,251.3258,254.324,261.068,265.004,269.666,274.438,279.519,283.873,287.19,289.983,293.719,298.59,300.9804,303.986,310.93,316.22,318.91,323.658,328.9368,331.935,338.471,343.761,349.051,354.341,359.213,361.6034,364.647,373.364,377.299,381.314,384.323,387.013,392.303,396.447" svgx:width="0.66,0.78,0.4,0.36,0.27,0.38,0.49,0.53,0.55,0.68,0.4,0.47,0.48,0.51,0.44,0.33,0.27,0.38,0.49,0.24,0.55,0.7,0.53,0.27,0.47,0.53,0.55,0.66,0.53,0.53,0.53,0.49,0.24,0.55,0.88,0.4,0.4,0.3,0.27,0.53,0.42,0.23" style="fill:rgb(0,0,0);font-family:AdvOT7d6df7ab.I;font-size:9.96px;stroke:none;">American Geophysical Union Annual Meeting.</text>
  </g>
  <g begin="text">
   <text y="120.529" x="401.725,406.388,410.741,416.1194,419.187,424.367,427.994,432.347,437.737,441.977,444.567,448.194,452.338,457.851" svgx:width="0.47,0.44,0.54,0.55,0.52,0.36,0.44,0.54,0.42,0.26,0.36,0.42,0.5,0.22" style="fill:rgb(0,0,0);font-family:AdvOT1ef757c0;font-size:9.96px;stroke:none;">San Francisco.</text>
  </g>
  <g begin="text">
   <text y="135.496" x="186.86,193.186,196.157,200.411,204.147,208.501,212.755,218.33259999999999,221.385,226.775,232.165,234.655,237.656,242.637,247.619,252.6,257.668" svgx:width="0.63,0.29,0.43,0.38,0.44,0.43,0.56,0.55,0.54,0.54,0.25,0.55,0.5,0.5,0.5,0.5,0.25" style="fill:rgb(0,0,0);font-family:AdvOTb65e897d.B;font-size:9.96px;stroke:none;">Tieszen LL. 1991.</text>
  </g>
  <g begin="text">
   <text y="135.496" x="263.112,270.474,274.903,277.912,283.093,286.719,291.073,293.563,296.56,301.123,305.477,309.103,311.693,316.047,319.056,321.732,326.713,332.103,335.6886,338.796,341.386,346.7644,349.737,352.746,358.036,362.2192,365.214,369.359,373.712,377.339,382.32,387.381,392.75939999999997,395.772,398.362,401.988,406.97,409.978,414.96,420.14,424.3232,427.349,431.912,436.266,438.756,444.016,448.161,451.7466,454.788,459.769,462.6574,465.673,470.854,473.344,477.698,483.088,486.096,489.723,491.9142,494.983,497.573,505.663,510.844,513.334,515.924,520.069,524.519,527.528,530.118,535.1,540.489,544.0746,547.139,550.038,555.02" svgx:width="0.74,0.44,0.3,0.52,0.36,0.44,0.25,0.55,0.46,0.44,0.36,0.26,0.44,0.3,0.26,0.5,0.54,0.36,0.55,0.26,0.54,0.55,0.3,0.53,0.42,0.55,0.42,0.44,0.36,0.5,0.5,0.54,0.55,0.26,0.36,0.5,0.3,0.5,0.52,0.42,0.55,0.46,0.44,0.25,0.52,0.42,0.36,0.55,0.5,0.29,0.55,0.52,0.25,0.44,0.54,0.3,0.36,0.22,0.55,0.26,0.81,0.52,0.25,0.26,0.42,0.44,0.3,0.26,0.5,0.54,0.36,0.55,0.29,0.5,0.36" style="fill:rgb(0,0,0);font-family:AdvOT1ef757c0;font-size:9.96px;stroke:none;">Natural variations in the carbon isotope values of plants: implications for</text>
  </g>
  <g begin="text">
   <text y="148.421" x="198.822,203.176,206.873,211.017,216.307,220.661,224.805,229.787,232.277,237.259,241.908,246.471,248.6622,251.66,255.804,259.949,264.93,267.42,272.402,276.965,281.527,283.71819999999997,286.752,291.106,296.495,301.6742,304.723,309.904,314.258,316.748,320.893,325.874,330.018,334.26,339.241,341.732,346.713,351.276,355.839" svgx:width="0.44,0.36,0.42,0.53,0.44,0.42,0.5,0.25,0.5,0.46,0.46,0.22,0.55,0.42,0.42,0.5,0.25,0.5,0.46,0.46,0.22,0.55,0.44,0.54,0.52,0.55,0.52,0.44,0.25,0.42,0.5,0.42,0.42,0.5,0.25,0.5,0.46,0.46,0.22" style="fill:rgb(0,0,0);font-family:AdvOT1ef757c0;font-size:9.96px;stroke:none;">archaeology, ecology, and paleoecology.</text>
  </g>
  <g begin="text">
   <text y="148.421" x="361.02,364.128,368.791,374.173,377.799,383.089,387.961,390.3514,393.335,397.997,400.68620000000004,403.71,410.245,413.872,417.608,422.758,427.63,431.565,436.228,438.609,443.271,447.416,450.106,453.842,458.713,461.1034,464.2,468.763,472.499,475.189,479.124,484.496,488.232" svgx:width="0.31,0.47,0.53,0.36,0.53,0.49,0.24,0.55,0.47,0.27,0.55,0.66,0.36,0.38,0.51,0.49,0.4,0.47,0.24,0.47,0.42,0.27,0.38,0.49,0.24,0.55,0.46,0.38,0.27,0.4,0.53,0.38,0.4" style="fill:rgb(0,0,0);font-family:AdvOT7d6df7ab.I;font-size:9.96px;stroke:none;">Journal of Archaeological Science</text>
  </g>
  <g begin="text">
   <text y="148.421" x="495.155,500.136,505.117,508.534,513.516" svgx:width="0.5,0.5,0.34,0.5,0.34" style="fill:rgb(0,0,0);font-family:AdvOTb65e897d.B;font-size:9.96px;stroke:none;">18(3)</text>
  </g>
  <g begin="text">
   <text y="148.421" x="516.982,519.154,523.926,528.773" svgx:width="0.22,0.48,0.48,0.48" style="fill:rgb(0,0,0);font-family:AdvOT1ef757c0;font-size:9.96px;stroke:none;">:227</text>
  </g>
  <g begin="text">
   <text y="148.421" x="533.535" svgx:width="0.51" style="fill:rgb(0,0,0);font-family:AdvOT1ef757c0;font-size:9.96px;stroke:none;">–</text>
  </g>
  <g begin="text">
   <text y="148.421" x="538.637,543.409,548.182" svgx:width="0.48,0.48,0.48" style="fill:rgb(0,0,0);font-family:AdvOT1ef757c0;font-size:9.96px;stroke:none;">248</text>
  </g>
  <g begin="text">
   <text y="161.403" x="198.821,206.084,213.446,216.7328,219.797,224.569,229.341,231.589,236.361,241.133,245.905,250.677,253.885,258.657,263.506,268.278,273.05,276.577,281.349,286.121,290.893,295.665,299.165,303.937,308.71,312.127,316.899,321.671,326.443,331.215,336.072,339.599" svgx:width="0.73,0.74,0.33,0.55,0.48,0.48,0.22,0.48,0.48,0.48,0.48,0.32,0.48,0.48,0.48,0.48,0.35,0.48,0.48,0.48,0.48,0.34,0.48,0.48,0.34,0.48,0.48,0.48,0.48,0.48,0.35,0.52" style="fill:rgb(0,138,191);font-family:AdvOT1ef757c0;font-size:9.96px;stroke:none;">DOI 10.1016/0305-4403(91)90063-u</text>
  </g>
  <g begin="text">
   <text y="161.403" x="344.805" svgx:width="0.22" style="fill:rgb(0,0,0);font-family:AdvOT1ef757c0;font-size:9.96px;stroke:none;">.</text>
  </g>
  <g begin="text">
   <text y="176.313" x="186.859,193.185,196.156,201.546,206.936,209.625,213.9078,216.905,223.231,226.858,229.348,232.382,241.199,245.453,250.016,254.27,258.291,262.0758,264.981,269.962,276.497,278.987,282.045,287.952,292.515,297.387,301.95,307.549,310.43739999999997,313.508,322.325,324.815,327.795,332.841,337.822,342.803,347.785" svgx:width="0.63,0.29,0.54,0.54,0.27,0.43,0.55,0.63,0.36,0.25,0.55,0.88,0.43,0.46,0.43,0.4,0.38,0.55,0.5,0.66,0.25,0.55,0.59,0.46,0.49,0.46,0.56,0.29,0.55,0.88,0.25,0.55,0.5,0.5,0.5,0.5,0.25" style="fill:rgb(0,0,0);font-family:AdvOTb65e897d.B;font-size:9.96px;stroke:none;">Tipple BJ, Meyers SR, Pagani M. 2010.</text>
  </g>
  <g begin="text">
   <text y="176.313" x="353.252,359.788,364.141,367.768,372.749,377.73,383.1084,386.191,388.781,392.407,397.389,400.477,405.458,410.639,414.8222,417.768,421.394,425.819,428.827,431.418,436.398,439.368,444.349,447.2374,450.253,456.788,460.933,466.41,471.392,475.536,480.517,483.108,487.2912,490.278,496.813" svgx:width="0.66,0.44,0.36,0.5,0.5,0.54,0.55,0.26,0.36,0.5,0.3,0.5,0.52,0.42,0.55,0.36,0.44,0.3,0.26,0.5,0.55,0.5,0.29,0.55,0.66,0.42,0.54,0.5,0.42,0.5,0.26,0.42,0.55,0.66,0.74" style="fill:rgb(0,0,0);font-family:AdvOT1ef757c0;font-size:9.96px;stroke:none;">Carbon isotope ratio of Cenozoic CO</text>
  </g>
  <g begin="text">
   <text y="177.959" x="504.227" svgx:width="0.48" style="fill:rgb(0,0,0);font-family:AdvOT1ef757c0;font-size:6.64px;stroke:none;">2</text>
  </g>
  <g begin="text">
   <text y="176.315" x="507.798,509.9892,512.957,517.3394,520.327,524.472,529.453,537.618,542.799,547.153,550.779,555.133,558.141,560.732,565.295" svgx:width="0.22,0.55,0.44,0.55,0.42,0.5,0.81,0.52,0.44,0.36,0.44,0.3,0.26,0.46,0.42" style="fill:rgb(0,0,0);font-family:AdvOT1ef757c0;font-size:9.96px;stroke:none;">: a comparative</text>
  </g>
  <g begin="text">
   <text y="189.297" x="198.823,202.968,207.531,211.884,214.375,219.555,223.995,227.003,229.594,234.575,239.9534,242.986,247.968,250.85639999999998,253.872,258.225,262.788,267.142,269.732,272.223,276.662,281.643,284.134,288.3172,291.289,295.852,299.996,304.978,309.204,314.494,318.638,326.728,329.318,333.463,337.816,340.306,343.389,348.57,352.196,357.178,361.84,364.43,368.575,372.302" svgx:width="0.42,0.46,0.44,0.25,0.52,0.44,0.3,0.26,0.5,0.54,0.55,0.5,0.29,0.55,0.44,0.46,0.44,0.26,0.25,0.44,0.5,0.25,0.42,0.55,0.46,0.42,0.5,0.42,0.53,0.42,0.81,0.26,0.42,0.44,0.25,0.55,0.52,0.36,0.5,0.47,0.26,0.42,0.36,0.22" style="fill:rgb(0,0,0);font-family:AdvOT1ef757c0;font-size:9.96px;stroke:none;">evaluation of available geochemical proxies.</text>
  </g>
  <g begin="text">
   <text y="189.297" x="377.462,382.961,387.833,390.214,394.149,398.811,402.633,406.568,411.44,416.73,421.393,425.537,429.164,434.035,438.916,443.997" svgx:width="0.55,0.49,0.24,0.4,0.47,0.38,0.4,0.49,0.53,0.47,0.42,0.36,0.49,0.48,0.51,0.44" style="fill:rgb(0,0,0);font-family:AdvOT7d6df7ab.I;font-size:9.96px;stroke:none;">Paleoceanography</text>
  </g>
  <g begin="text">
   <text y="189.297" x="451.332,456.314,461.295,464.712,469.693" svgx:width="0.5,0.5,0.34,0.5,0.34" style="fill:rgb(0,0,0);font-family:AdvOTb65e897d.B;font-size:9.96px;stroke:none;">25(3)</text>
  </g>
  <g begin="text">
   <text y="202.223" x="198.823,206.086,213.448,216.7348,219.799,224.572,229.344,231.591,236.363,241.135,245.907,250.68,253.887,258.66,263.508,268.28,273.053,278.233,282.587,287.359,292.131,296.903,301.776,306.548" svgx:width="0.73,0.74,0.33,0.55,0.48,0.48,0.22,0.48,0.48,0.48,0.48,0.32,0.48,0.48,0.48,0.48,0.52,0.44,0.48,0.48,0.48,0.48,0.48,0.48" style="fill:rgb(0,138,191);font-family:AdvOT1ef757c0;font-size:9.96px;stroke:none;">DOI 10.1029/2009pa001851</text>
  </g>
  <g begin="text">
   <text y="202.223" x="311.301" svgx:width="0.22" style="fill:rgb(0,0,0);font-family:AdvOT1ef757c0;font-size:9.96px;stroke:none;">.</text>
  </g>
  <g begin="text">
   <text y="217.19" x="186.86,193.186,198.367,203.239,208.838,213.092,216.51,219.827,222.7154,225.184,231.72,234.21,236.693,245.51,248.409,254.008,259.607,264.788,268.932,273.076,275.9644,278.532,285.476,287.966,290.437,296.345,300.599,306.198,311.697,315.951,318.641,323.204,326.9888,329.442,333.068,335.558,338.003,344.538,349.101,353.245,358.635,361.5234,364.024,370.968,373.458,375.929,379.556,384.736,390.335,394.589,398.3738,400.817,409.634,415.96,418.45,420.942,425.924,430.905,435.886,440.867" svgx:width="0.63,0.52,0.49,0.56,0.43,0.33,0.33,0.29,0.55,0.66,0.25,0.55,0.88,0.29,0.56,0.56,0.52,0.42,0.42,0.29,0.55,0.7,0.25,0.55,0.59,0.43,0.56,0.55,0.43,0.27,0.46,0.38,0.55,0.36,0.25,0.55,0.66,0.46,0.42,0.54,0.29,0.55,0.7,0.25,0.55,0.36,0.52,0.56,0.43,0.38,0.55,0.88,0.63,0.25,0.55,0.5,0.5,0.5,0.5,0.25" style="fill:rgb(0,0,0);font-family:AdvOTb65e897d.B;font-size:9.96px;stroke:none;">Tognetti R, Minnocci A, Penuelas J, Rachi A, Jones MB. 2000.</text>
  </g>
  <g begin="text">
   <text y="217.19" x="445.832,452.367,457.349,465.504,470.685,475.038,478.665,483.018,486.027,488.617,493.18" svgx:width="0.66,0.5,0.81,0.52,0.44,0.36,0.44,0.3,0.26,0.46,0.42" style="fill:rgb(0,0,0);font-family:AdvOT1ef757c0;font-size:9.96px;stroke:none;">Comparative</text>
  </g>
  <g begin="text">
   <text y="217.19" x="499.86" svgx:width="0.53" style="fill:rgb(0,0,0);font-family:AdvOT1ef757c0;font-size:9.96px;stroke:none;">ﬁ</text>
  </g>
  <g begin="text">
   <text y="217.19" x="505.132,509.277,511.767,516.9462,519.419,526.222,530.576,533.585,537.729,541.3146,543.797,547.424,551.568,554.059,558.412,561.421,564.093,569.074,574.464" svgx:width="0.42,0.25,0.52,0.55,0.68,0.44,0.3,0.42,0.36,0.55,0.36,0.42,0.25,0.44,0.3,0.26,0.5,0.54,0.36" style="fill:rgb(0,0,0);font-family:AdvOT1ef757c0;font-size:9.96px;stroke:none;">eld water relations</text>
  </g>
  <g begin="text">
   <text y="230.116" x="198.822,203.803,206.6914,209.707,212.716,218.006,221.633,225.865,230.0482,233.008,241.825,245.969,251.15,253.74,256.749,260.893,264.52,268.27,272.624,278.014,282.158,286.512,291.8904,294.915,298.542,303.832,307.458,312.639,317.619,320.711,324.337,329.517,333.662,337.806,340.397,344.541,348.1266,351.268,355.412,360.394,363.92,368.902,373.046,377.19,382.371,385.997,389.624,392.214,397.604,402.18559999999997,405.295,409.649,412.637,415.67,420.05240000000003,422.984,428.373,432.727,435.736,441.012,444.638,448.992,451.482,454.504,461.04" svgx:width="0.5,0.29,0.55,0.3,0.53,0.36,0.42,0.42,0.55,0.88,0.42,0.52,0.26,0.3,0.42,0.36,0.36,0.44,0.54,0.42,0.44,0.54,0.55,0.36,0.53,0.36,0.52,0.5,0.55,0.36,0.52,0.42,0.42,0.26,0.42,0.36,0.55,0.42,0.5,0.35,0.5,0.42,0.42,0.52,0.36,0.36,0.26,0.54,0.46,0.55,0.44,0.3,0.55,0.44,0.55,0.54,0.44,0.3,0.52,0.36,0.44,0.25,0.55,0.66,0.74" style="fill:rgb(0,0,0);font-family:AdvOT1ef757c0;font-size:9.96px;stroke:none;">of three Mediterranean shrub species co-occurring at a natural CO</text>
  </g>
  <g begin="text">
   <text y="231.761" x="468.453" svgx:width="0.48" style="fill:rgb(0,0,0);font-family:AdvOT1ef757c0;font-size:6.64px;stroke:none;">2</text>
  </g>
  <g begin="text">
   <text y="230.117" x="474.973,479.536,483.68,489.146,492.155" svgx:width="0.46,0.42,0.54,0.3,0.22" style="fill:rgb(0,0,0);font-family:AdvOT1ef757c0;font-size:9.96px;stroke:none;">vent.</text>
  </g>
  <g begin="text">
   <text y="230.117" x="497.31,500.419,505.081,510.371,514.091,519.381,524.253,526.6434,529.625,534.287" svgx:width="0.31,0.47,0.53,0.36,0.53,0.49,0.24,0.55,0.47,0.27" style="fill:rgb(0,0,0);font-family:AdvOT7d6df7ab.I;font-size:9.96px;stroke:none;">Journal of</text>
  </g>
  <g begin="text">
   <text y="243.042" x="198.824,204.323,208.986,213.758,217.693,221.319,224.109,231.89,235.825,241.115,244.124,248.995,251.3854,254.439,260.138,264.8,267.809,272.68,277.971" svgx:width="0.55,0.47,0.48,0.4,0.36,0.27,0.78,0.4,0.53,0.3,0.49,0.24,0.55,0.57,0.47,0.3,0.49,0.53,0.44" style="fill:rgb(0,0,0);font-family:AdvOT7d6df7ab.I;font-size:9.96px;stroke:none;">Experimental Botany</text>
  </g>
  <g begin="text">
   <text y="243.042" x="285.394,290.375,295.356,298.774,303.755,308.808,313.789" svgx:width="0.5,0.5,0.34,0.5,0.5,0.5,0.34" style="fill:rgb(0,0,0);font-family:AdvOTb65e897d.B;font-size:9.96px;stroke:none;">51(347)</text>
  </g>
  <g begin="text">
   <text y="243.042" x="317.198,319.37,324.142,328.99,333.762" svgx:width="0.22,0.48,0.48,0.48,0.48" style="fill:rgb(0,0,0);font-family:AdvOT1ef757c0;font-size:9.96px;stroke:none;">:1135</text>
  </g>
  <g begin="text">
   <text y="243.042" x="338.514" svgx:width="0.51" style="fill:rgb(0,0,0);font-family:AdvOT1ef757c0;font-size:9.96px;stroke:none;">–</text>
  </g>
  <g begin="text">
   <text y="243.042" x="343.616,348.388,353.16,357.932" svgx:width="0.48,0.48,0.48,0.48" style="fill:rgb(0,0,0);font-family:AdvOT1ef757c0;font-size:9.96px;stroke:none;">1146</text>
  </g>
  <g begin="text">
   <text y="243.042" x="365.726,372.989,380.351,383.6378,386.702,391.475,396.247,398.494,403.266,408.038,412.81,417.583,420.791,423.281,427.426,432.088,437.158,442.139,445.148,448.356,453.128,457.9,460.072,464.937,469.709,474.481,476.653,481.425,486.197,490.969" svgx:width="0.73,0.74,0.33,0.55,0.48,0.48,0.22,0.48,0.48,0.48,0.48,0.32,0.25,0.42,0.47,0.5,0.5,0.3,0.32,0.48,0.48,0.22,0.48,0.48,0.48,0.22,0.48,0.48,0.48,0.48" style="fill:rgb(0,138,191);font-family:AdvOT1ef757c0;font-size:9.96px;stroke:none;">DOI 10.1093/jexbot/51.347.1135</text>
  </g>
  <g begin="text">
   <text y="243.042" x="495.779" svgx:width="0.22" style="fill:rgb(0,0,0);font-family:AdvOT1ef757c0;font-size:9.96px;stroke:none;">.</text>
  </g>
  <g begin="text">
   <text y="258.009" x="186.861,193.187,197.122,202.394,207.894,212.765,218.155,221.473,226.653,232.23059999999998,235.333,238.959,246.74,249.23000000000002,252.227,258.862,263.425,267.361,272.7394,275.811,282.755,289.699,292.189,295.256,300.237,305.218,310.2,315.181" svgx:width="0.63,0.4,0.52,0.55,0.49,0.54,0.33,0.52,0.56,0.55,0.36,0.78,0.25,0.55,0.67,0.46,0.4,0.54,0.55,0.7,0.7,0.25,0.55,0.5,0.5,0.5,0.5,0.25" style="fill:rgb(0,0,0);font-family:AdvOTb65e897d.B;font-size:9.96px;stroke:none;">Troughton JH, Card KA. 1975.</text>
  </g>
  <g begin="text">
   <text y="258.009" x="320.655,326.772,330.917,339.007,344.296,348.44,352.066,356.42,359.429,364.609,368.236,372.4192,375.42,379.564,382.463,385.454,389.598,393.743,396.752,400.3376,403.369,408.35,413.7284,416.749,419.757,425.047,429.2302,432.225,436.37,440.724,444.35,449.331,454.392,459.782,463.309,465.899,469.525,474.507,477.515,482.497,487.784,491.9672,494.927,498.553,502.907,505.916,508.506,513.486,516.527,521.508,524.3964000000001,527.412" svgx:width="0.61,0.42,0.81,0.52,0.42,0.36,0.44,0.3,0.52,0.36,0.42,0.55,0.42,0.29,0.29,0.42,0.42,0.3,0.36,0.55,0.5,0.54,0.55,0.3,0.53,0.42,0.55,0.42,0.44,0.36,0.5,0.5,0.54,0.35,0.26,0.36,0.5,0.3,0.5,0.52,0.42,0.55,0.36,0.44,0.3,0.26,0.5,0.55,0.5,0.29,0.55,0.66" style="fill:rgb(0,0,0);font-family:AdvOT1ef757c0;font-size:9.96px;stroke:none;">Temperature effects on the carbon-isotope ratio of C</text>
  </g>
  <g begin="text">
   <text y="259.654" x="533.934" svgx:width="0.48" style="fill:rgb(0,0,0);font-family:AdvOT1ef757c0;font-size:6.64px;stroke:none;">3</text>
  </g>
  <g begin="text">
   <text y="258.01" x="537.562,539.7532,542.721" svgx:width="0.22,0.55,0.66" style="fill:rgb(0,0,0);font-family:AdvOT1ef757c0;font-size:9.96px;stroke:none;">, C</text>
  </g>
  <g begin="text">
   <text y="259.654" x="549.241" svgx:width="0.48" style="fill:rgb(0,0,0);font-family:AdvOT1ef757c0;font-size:6.64px;stroke:none;">4</text>
  </g>
  <g begin="text">
   <text y="270.992" x="198.822,203.176,208.565,213.7442,216.794,223.329,226.955,231.309,234.935,238.562,243.836,246.327,250.68,254.825,258.969,263.323,268.713,272.352,276.706,280.85,283.44,288.621,292.148,300.237,304.382,307.39,311.867,316.848,321.829,324.32,326.91,330.537,338.6046,341.63,345.047,351.583,358.524,367.341,370.7274,373.774,378.955,381.445,385.799,391.189,394.198,397.824" svgx:width="0.44,0.54,0.52,0.55,0.66,0.36,0.44,0.36,0.36,0.52,0.25,0.44,0.42,0.42,0.44,0.54,0.35,0.44,0.42,0.26,0.52,0.35,0.81,0.42,0.3,0.44,0.5,0.5,0.25,0.26,0.36,0.81,0.55,0.34,0.66,0.69,0.88,0.34,0.55,0.52,0.25,0.44,0.54,0.3,0.36,0.22" style="fill:rgb(0,0,0);font-family:AdvOT1ef757c0;font-size:9.96px;stroke:none;">and Crassulacean-acid-metabolism (CAM) plants.</text>
  </g>
  <g begin="text">
   <text y="270.992" x="403.029,408.529,410.91,415.782,421.171,424.18" svgx:width="0.55,0.24,0.49,0.53,0.3,0.49" style="fill:rgb(0,0,0);font-family:AdvOT7d6df7ab.I;font-size:9.96px;stroke:none;">Planta</text>
  </g>
  <g begin="text">
   <text y="270.992" x="432.056,437.038,442.019,447.0,450.417,455.399" svgx:width="0.5,0.5,0.5,0.34,0.5,0.34" style="fill:rgb(0,0,0);font-family:AdvOTb65e897d.B;font-size:9.96px;stroke:none;">123(2)</text>
  </g>
  <g begin="text">
   <text y="270.992" x="458.872,461.044,465.816,470.588" svgx:width="0.22,0.48,0.48,0.48" style="fill:rgb(0,0,0);font-family:AdvOT1ef757c0;font-size:9.96px;stroke:none;">:185</text>
  </g>
  <g begin="text">
   <text y="270.992" x="475.37" svgx:width="0.51" style="fill:rgb(0,0,0);font-family:AdvOT1ef757c0;font-size:9.96px;stroke:none;">–</text>
  </g>
  <g begin="text">
   <text y="270.992" x="480.472,485.244,490.016" svgx:width="0.48,0.48,0.48" style="fill:rgb(0,0,0);font-family:AdvOT1ef757c0;font-size:9.96px;stroke:none;">190</text>
  </g>
  <g begin="text">
   <text y="283.918" x="198.823,206.086,213.448,216.7348,219.799,224.571,229.343,231.591,236.363,241.135,245.907,250.679,253.887,258.869,261.768,266.626,271.399,276.171,280.943,285.715,290.487,295.259" svgx:width="0.73,0.74,0.33,0.55,0.48,0.48,0.22,0.48,0.48,0.48,0.48,0.32,0.5,0.29,0.48,0.48,0.48,0.48,0.48,0.48,0.48,0.48" style="fill:rgb(0,138,191);font-family:AdvOT1ef757c0;font-size:9.96px;stroke:none;">DOI 10.1007/bf00383867</text>
  </g>
  <g begin="text">
   <text y="283.918" x="300.076" svgx:width="0.22" style="fill:rgb(0,0,0);font-family:AdvOT1ef757c0;font-size:9.96px;stroke:none;">.</text>
  </g>
  <g begin="text">
   <text y="298.884" x="186.861,193.187,197.122,202.622,208.12,211.019,216.618,221.49,225.744,229.728,232.725,239.36,248.177,250.667,253.701,259.4,264.999,268.316,271.215,276.814,281.69440000000003,284.768,288.504,295.657,298.147,301.153,306.652,310.587,315.15,320.825,324.969,329.223,333.8046,336.812,343.347,346.974,349.464,352.459,358.158,361.475,366.865,371.119,375.054,377.953,383.47,388.341,392.6238,395.602,403.174,411.991,414.481,417.485,424.02,428.653,433.216,438.815,443.069,447.053,450.026,455.934,459.56,462.05,465.049,470.031,475.012,479.993,485.061" svgx:width="0.63,0.4,0.55,0.54,0.29,0.56,0.49,0.43,0.4,0.55,0.67,0.88,0.25,0.55,0.57,0.56,0.33,0.29,0.56,0.49,0.55,0.38,0.72,0.25,0.55,0.55,0.4,0.46,0.56,0.42,0.43,0.46,0.55,0.66,0.36,0.25,0.55,0.57,0.33,0.54,0.43,0.4,0.29,0.54,0.49,0.43,0.55,0.76,0.88,0.25,0.55,0.66,0.46,0.46,0.56,0.43,0.4,0.55,0.59,0.36,0.25,0.55,0.5,0.5,0.5,0.5,0.25" style="fill:rgb(0,0,0);font-family:AdvOTb65e897d.B;font-size:9.96px;stroke:none;">Trudinger CM, Enting IG, Francey RJ, Etheridge DM, Rayner PJ. 1999.</text>
  </g>
  <g begin="text">
   <text y="298.884" x="490.507,495.797,500.778,506.168,510.803,514.33,517.338,521.483,525.109,533.1766,536.257,540.82,545.174,548.8,551.391,555.744,560.725,563.316,565.806,568.397,571.52" svgx:width="0.53,0.5,0.54,0.46,0.35,0.3,0.42,0.36,0.81,0.55,0.46,0.44,0.36,0.26,0.44,0.5,0.26,0.25,0.26,0.3,0.46" style="fill:rgb(0,0,0);font-family:AdvOT1ef757c0;font-size:9.96px;stroke:none;">Long-term variability</text>
  </g>
  <g begin="text">
   <text y="311.81" x="198.823,201.413,206.7914,209.822,212.83,218.121,222.3042,225.299,229.861,232.352,237.333,242.315,246.668,249.15800000000002,252.227,256.372,260.726,264.352,269.333,274.315,279.6934,282.728,286.872,291.435,295.653,298.144,302.3272,305.291,307.882,313.271,316.17,320.315,323.941,327.568,331.823,337.00219999999996,339.986,342.885,346.511,351.493,359.5606,362.606,366.9884,369.976,375.266,377.857,382.42,387.71,391.237,396.509,400.135,404.28,408.424,411.014,414.641,417.231,422.304,427.6824,430.694,437.23" svgx:width="0.26,0.54,0.55,0.3,0.53,0.42,0.55,0.46,0.25,0.5,0.5,0.44,0.25,0.55,0.42,0.44,0.36,0.5,0.5,0.54,0.55,0.42,0.46,0.42,0.25,0.42,0.55,0.26,0.54,0.29,0.42,0.36,0.36,0.42,0.52,0.55,0.29,0.36,0.5,0.81,0.55,0.44,0.55,0.53,0.26,0.46,0.53,0.35,0.52,0.36,0.42,0.42,0.26,0.36,0.26,0.5,0.54,0.55,0.66,0.74" style="fill:rgb(0,0,0);font-family:AdvOT1ef757c0;font-size:9.96px;stroke:none;">in the global carbon cycle inferred from a high-precision CO</text>
  </g>
  <g begin="text">
   <text y="313.455" x="444.586" svgx:width="0.48" style="fill:rgb(0,0,0);font-family:AdvOT1ef757c0;font-size:6.64px;stroke:none;">2</text>
  </g>
  <g begin="text">
   <text y="311.811" x="451.162,455.516,460.905" svgx:width="0.44,0.54,0.52" style="fill:rgb(0,0,0);font-family:AdvOT1ef757c0;font-size:9.96px;stroke:none;">and</text>
  </g>
  <g begin="text">
   <text y="311.811" x="469.134" svgx:width="0.5" style="fill:rgb(0,0,0);font-family:AdvPS3F4C13;font-size:9.96px;stroke:none;">d</text>
  </g>
  <g begin="text">
   <text y="307.389" x="474.123,477.702" svgx:width="0.48,0.48" style="fill:rgb(0,0,0);font-family:AdvOT1ef757c0;font-size:6.64px;stroke:none;">13</text>
  </g>
  <g begin="text">
   <text y="311.811" x="481.323,487.8966,490.847,493.437,497.582,501.726,505.253,509.397,514.379,518.116,522.2992,525.259,528.885,533.03,537.174,542.155,545.782,550.962" svgx:width="0.66,0.55,0.26,0.42,0.42,0.35,0.42,0.5,0.36,0.42,0.55,0.36,0.42,0.42,0.5,0.36,0.52,0.22" style="fill:rgb(0,0,0);font-family:AdvOT1ef757c0;font-size:9.96px;stroke:none;">C ice-core record.</text>
  </g>
  <g begin="text">
   <text y="324.737" x="198.823,204.731,208.744,211.125,213.506,218.796,222.0828,225.128,230.827,233.1178,236.127,242.354,247.435,251.37,259.151,261.922,265.658,270.53,272.9204,275.926,280.797,286.088,291.06800000000004,294.068,299.567,304.648,309.002,312.319,315.101,318.837,323.708,326.0984,329.104,337.821,341.757,344.765,348.776,353.439,357.065,361.728,364.109,368.771,372.916" svgx:width="0.59,0.4,0.24,0.24,0.53,0.33,0.55,0.57,0.23,0.55,0.63,0.51,0.4,0.78,0.27,0.38,0.49,0.24,0.55,0.49,0.53,0.5,0.55,0.55,0.51,0.44,0.33,0.27,0.38,0.49,0.24,0.55,0.88,0.4,0.3,0.4,0.47,0.36,0.47,0.24,0.47,0.42,0.44" style="fill:rgb(0,0,0);font-family:AdvOT7d6df7ab.I;font-size:9.96px;stroke:none;">Tellus B: Chemical and Physical Meteorology</text>
  </g>
  <g begin="text">
   <text y="324.737" x="380.353,385.334,390.315,393.733,398.714" svgx:width="0.5,0.5,0.34,0.5,0.34" style="fill:rgb(0,0,0);font-family:AdvOTb65e897d.B;font-size:9.96px;stroke:none;">51(2)</text>
  </g>
  <g begin="text">
   <text y="324.737" x="402.18,404.352,409.124,413.896" svgx:width="0.22,0.48,0.48,0.48" style="fill:rgb(0,0,0);font-family:AdvOT1ef757c0;font-size:9.96px;stroke:none;">:233</text>
  </g>
  <g begin="text">
   <text y="324.737" x="418.677" svgx:width="0.51" style="fill:rgb(0,0,0);font-family:AdvOT1ef757c0;font-size:9.96px;stroke:none;">–</text>
  </g>
  <g begin="text">
   <text y="324.737" x="423.779,428.551,433.323" svgx:width="0.48,0.48,0.48" style="fill:rgb(0,0,0);font-family:AdvOT1ef757c0;font-size:9.96px;stroke:none;">248</text>
  </g>
  <g begin="text">
   <text y="324.737" x="441.127,448.389,455.752,459.03880000000004,462.103,466.875,471.647,473.819,478.591,483.363,488.135,493.0,496.208,499.217,503.361,505.852,508.342,513.523,517.149,522.131,524.407,528.97,533.742,538.514,541.104,545.876,548.048,552.82,557.685,562.457,567.229" svgx:width="0.73,0.74,0.33,0.55,0.48,0.48,0.22,0.48,0.48,0.48,0.48,0.32,0.3,0.42,0.25,0.25,0.52,0.36,0.5,0.22,0.46,0.48,0.48,0.26,0.48,0.22,0.48,0.48,0.48,0.48,0.48" style="fill:rgb(0,138,191);font-family:AdvOT1ef757c0;font-size:9.96px;stroke:none;">DOI 10.3402/tellusb.v51i2.16276</text>
  </g>
  <g begin="text">
   <text y="324.737" x="572.03" svgx:width="0.22" style="fill:rgb(0,0,0);font-family:AdvOT1ef757c0;font-size:9.96px;stroke:none;">.</text>
  </g>
  <g begin="text">
   <text y="339.703" x="186.86,193.914,198.477,204.0546,207.156,212.546,216.8288,219.798,229.442,234.005,237.323,241.577,245.561,248.542,254.449,261.467,263.957,266.966,272.356,276.61,281.173,285.736,288.635,291.953,295.2398,298.317,303.298,312.942,315.432,318.442,324.768,329.022,332.34,336.981,342.58,346.724,351.905,357.404,361.339,364.6258,367.707,371.334,376.723,379.213,382.277,387.259,392.24,397.221,402.203" svgx:width="0.71,0.46,0.56,0.55,0.54,0.43,0.55,0.97,0.46,0.33,0.43,0.4,0.55,0.59,0.7,0.25,0.55,0.54,0.43,0.46,0.46,0.29,0.33,0.33,0.55,0.5,0.97,0.25,0.55,0.63,0.43,0.33,0.46,0.56,0.42,0.52,0.55,0.4,0.33,0.55,0.36,0.54,0.25,0.55,0.5,0.5,0.5,0.5,0.25" style="fill:rgb(0,0,0);font-family:AdvOTb65e897d.B;font-size:9.96px;stroke:none;">Van de Water PK, Leavitt SW, Betancourt JL. 2002.</text>
  </g>
  <g begin="text">
   <text y="339.703" x="407.678,412.968,417.113,421.466" svgx:width="0.53,0.42,0.44,0.29" style="fill:rgb(0,0,0);font-family:AdvOT1ef757c0;font-size:9.96px;stroke:none;">Leaf</text>
  </g>
  <g begin="text">
   <text y="339.703" x="427.407" svgx:width="0.5" style="fill:rgb(0,0,0);font-family:AdvPS3F4C13;font-size:9.96px;stroke:none;">d</text>
  </g>
  <g begin="text">
   <text y="335.282" x="432.397,435.976" svgx:width="0.48,0.48" style="fill:rgb(0,0,0);font-family:AdvOT1ef757c0;font-size:6.64px;stroke:none;">13</text>
  </g>
  <g begin="text">
   <text y="339.704" x="439.597,446.1706,449.121,453.684,458.037,461.664,464.254,468.608,473.589,476.276,478.767,481.357,484.366,488.94759999999997,491.923,498.727,501.317,504.326,509.6048,512.617,516.761,519.252,523.396,527.959,532.313,535.407,537.997,542.979,548.368" svgx:width="0.66,0.55,0.46,0.44,0.36,0.26,0.44,0.5,0.26,0.25,0.26,0.3,0.46,0.55,0.68,0.26,0.3,0.53,0.55,0.42,0.25,0.42,0.46,0.44,0.3,0.26,0.5,0.54,0.22" style="fill:rgb(0,0,0);font-family:AdvOT1ef757c0;font-size:9.96px;stroke:none;">C variability with elevation,</text>
  </g>
  <g begin="text">
   <text y="352.686" x="198.823,202.449,204.94,209.991,215.171,219.3542,222.292,226.646,230.343,235.524,239.668,243.813,246.821,249.0122,252.0,256.354,261.743,266.9222,269.971,275.152,278.778,283.01,287.155,289.745,294.926,297.516,300.525,304.878,307.887,310.477,315.551,320.9294,323.942,326.532,331.9104,334.941,337.949,343.239,347.4222,350.361,353.987,359.035,364.216,367.224,372.514,379.259,383.404,387.03,390.018,393.107,400.37,405.76,408.35,411.359,415.503,420.68219999999997,423.721,428.384,431.392,435.746,438.755,442.997,446.623" svgx:width="0.36,0.25,0.5,0.52,0.42,0.55,0.44,0.36,0.52,0.42,0.42,0.3,0.22,0.55,0.44,0.54,0.52,0.55,0.52,0.36,0.42,0.42,0.26,0.52,0.26,0.3,0.44,0.3,0.26,0.5,0.54,0.55,0.26,0.54,0.55,0.3,0.53,0.42,0.55,0.36,0.5,0.52,0.3,0.53,0.68,0.42,0.36,0.3,0.55,0.73,0.54,0.26,0.3,0.42,0.52,0.55,0.47,0.3,0.44,0.3,0.42,0.36,0.22" style="fill:rgb(0,0,0);font-family:AdvOT1ef757c0;font-size:9.96px;stroke:none;">slope aspect, and precipitation in the southwest United States.</text>
  </g>
  <g begin="text">
   <text y="352.686" x="451.785,458.729,462.664,466.4,471.063,473.444,478.204,482.348,485.038" svgx:width="0.7,0.4,0.38,0.47,0.24,0.47,0.42,0.27,0.49" style="fill:rgb(0,0,0);font-family:AdvOT7d6df7ab.I;font-size:9.96px;stroke:none;">Oecologia</text>
  </g>
  <g begin="text">
   <text y="352.686" x="492.943,497.925,502.906,507.887,511.304,516.357" svgx:width="0.5,0.5,0.5,0.34,0.5,0.34" style="fill:rgb(0,0,0);font-family:AdvOTb65e897d.B;font-size:9.96px;stroke:none;">132(3)</text>
  </g>
  <g begin="text">
   <text y="352.686" x="519.759,521.931,526.703,531.475" svgx:width="0.22,0.48,0.48,0.48" style="fill:rgb(0,0,0);font-family:AdvOT1ef757c0;font-size:9.96px;stroke:none;">:332</text>
  </g>
  <g begin="text">
   <text y="352.686" x="536.313" svgx:width="0.51" style="fill:rgb(0,0,0);font-family:AdvOT1ef757c0;font-size:9.96px;stroke:none;">–</text>
  </g>
  <g begin="text">
   <text y="352.686" x="541.414,546.187,550.959" svgx:width="0.48,0.48,0.48" style="fill:rgb(0,0,0);font-family:AdvOT1ef757c0;font-size:9.96px;stroke:none;">343</text>
  </g>
  <g begin="text">
   <text y="365.612" x="198.821,206.083,213.446,216.7328,219.797,224.569,229.341,231.589,236.361,241.133,245.905,250.677,253.885,257.511,262.283,267.055,271.828,276.715,281.487,285.014,289.786,294.558,299.33,302.857,307.629,312.401,317.25,322.022,325.549" svgx:width="0.73,0.74,0.33,0.55,0.48,0.48,0.22,0.48,0.48,0.48,0.48,0.32,0.36,0.48,0.48,0.48,0.48,0.48,0.35,0.48,0.48,0.48,0.35,0.48,0.48,0.48,0.48,0.35,0.47" style="fill:rgb(0,138,191);font-family:AdvOT1ef757c0;font-size:9.96px;stroke:none;">DOI 10.1007/s00442-002-0973-x</text>
  </g>
  <g begin="text">
   <text y="365.612" x="330.234" svgx:width="0.22" style="fill:rgb(0,0,0);font-family:AdvOT1ef757c0;font-size:9.96px;stroke:none;">.</text>
  </g>
  <g begin="text">
   <text y="380.579" x="186.858,196.502,201.145,206.744,211.6244,214.354,220.89,223.38,226.146,232.572,238.05,240.829,247.982,250.472,253.244,261.025,265.3078,268.041,275.403,277.89300000000003,280.626,290.27,294.913,300.512,305.3924,308.122,315.594,318.084,320.822,326.939,332.328,336.979,342.15819999999997,344.916,352.278,354.76800000000003,357.502,364.346,369.824,372.639,378.756,381.246,383.977,391.131,395.4138,398.15,401.777,404.267,407.051,412.032,417.013,421.995,426.976" svgx:width="0.97,0.46,0.56,0.49,0.55,0.66,0.25,0.55,0.64,0.55,0.55,0.72,0.25,0.55,0.78,0.43,0.55,0.74,0.25,0.55,0.97,0.46,0.56,0.49,0.55,0.75,0.25,0.55,0.61,0.54,0.46,0.52,0.55,0.74,0.25,0.55,0.69,0.55,0.55,0.61,0.25,0.55,0.72,0.43,0.55,0.36,0.25,0.55,0.5,0.5,0.5,0.5,0.25" style="fill:rgb(0,0,0);font-family:AdvOTb65e897d.B;font-size:9.96px;stroke:none;">Wang R, Yu G, He N, Wang Q, Zhao N, Xu Z, Ge J. 2015.</text>
  </g>
  <g begin="text">
   <text y="380.579" x="432.224,437.514,441.868,444.877,447.467,450.476,455.656,460.837,463.518,468.908,473.261,475.75100000000003,478.541,483.104,487.458,491.084,493.675,498.028,501.037,503.713,508.694,514.0724,516.809,521.79,524.6784,527.467,529.958,534.102,538.456,541.3444000000001,544.134,547.761,550.769,555.751,563.84,568.194,571.203,575.655" svgx:width="0.53,0.44,0.3,0.26,0.3,0.52,0.52,0.26,0.54,0.44,0.25,0.55,0.46,0.44,0.36,0.26,0.44,0.3,0.26,0.5,0.54,0.55,0.5,0.29,0.55,0.25,0.42,0.44,0.29,0.55,0.36,0.3,0.5,0.81,0.44,0.3,0.44,0.25" style="fill:rgb(0,0,0);font-family:AdvOT1ef757c0;font-size:9.96px;stroke:none;">Latitudinal variation of leaf stomatal</text>
  </g>
  <g begin="text">
   <text y="393.504" x="198.821,201.829,205.456,209.809,212.483,215.492,219.0776,221.725,224.624,228.25,233.231,241.2986,243.948,247.575,252.755,256.9,261.044,263.634,267.779,271.3646,274.108,277.117,282.09700000000004,284.709,288.854,293.835,301.924,310.014,315.195,320.584,323.175,326.183,330.7646,333.407,335.959,340.103,344.666,348.81,351.3,353.93,356.52,361.8984,364.475,367.374,372.355,375.981,380.126,383.864,386.872,390.499,392.6902,395.259,397.75,400.34,405.73,410.679,415.033,419.596,423.7792,426.326,433.13,435.72,438.729,444.0078,446.622,450.767,454.911,459.892,463.519,468.082,471.794,474.802,478.947,487.01460000000003,489.652,494.832,498.458,503.44,508.7,513.881,518.025,521.034,523.624,528.187,530.777,533.786,538.349" svgx:width="0.3,0.36,0.44,0.26,0.3,0.36,0.55,0.29,0.36,0.5,0.81,0.55,0.36,0.52,0.42,0.42,0.26,0.42,0.36,0.55,0.3,0.5,0.55,0.42,0.5,0.81,0.81,0.52,0.54,0.26,0.3,0.46,0.55,0.25,0.42,0.46,0.42,0.25,0.55,0.26,0.54,0.55,0.29,0.5,0.36,0.42,0.36,0.3,0.36,0.22,0.55,0.25,0.26,0.54,0.49,0.44,0.46,0.42,0.55,0.68,0.26,0.3,0.53,0.55,0.42,0.42,0.5,0.36,0.46,0.36,0.3,0.42,0.81,0.55,0.52,0.36,0.5,0.52,0.52,0.42,0.3,0.26,0.46,0.26,0.3,0.46,0.22" style="fill:rgb(0,0,0);font-family:AdvOT1ef757c0;font-size:9.96px;stroke:none;">traits from species to community level in forests: linkage with ecosystem productivity.</text>
  </g>
  <g begin="text">
   <text y="393.504" x="543.172,547.735,551.471,554.161,558.096,563.468,566.476" svgx:width="0.46,0.38,0.27,0.4,0.53,0.3,0.27" style="fill:rgb(0,0,0);font-family:AdvOT7d6df7ab.I;font-size:9.96px;stroke:none;">Scienti</text>
  </g>
  <g begin="text">
   <text y="393.504" x="569.194" svgx:width="0.52" style="fill:rgb(0,0,0);font-family:AdvOT7d6df7ab.I;font-size:9.96px;stroke:none;">ﬁ</text>
  </g>
  <g begin="text">
   <text y="393.504" x="574.353" svgx:width="0.38" style="fill:rgb(0,0,0);font-family:AdvOT7d6df7ab.I;font-size:9.96px;stroke:none;">c</text>
  </g>
  <g begin="text">
   <text y="406.43" x="198.821,204.728,208.741,213.513,218.176,221.802,224.811" svgx:width="0.59,0.4,0.48,0.47,0.36,0.3,0.33" style="fill:rgb(0,0,0);font-family:AdvOT7d6df7ab.I;font-size:9.96px;stroke:none;">Reports</text>
  </g>
  <g begin="text">
   <text y="406.43" x="231.135" svgx:width="0.5" style="fill:rgb(0,0,0);font-family:AdvOTb65e897d.B;font-size:9.96px;stroke:none;">5</text>
  </g>
  <g begin="text">
   <text y="406.43" x="236.125,238.296,243.068,247.916,252.688,257.46,262.233" svgx:width="0.22,0.48,0.48,0.48,0.48,0.48,0.22" style="fill:rgb(0,0,0);font-family:AdvOT1ef757c0;font-size:9.96px;stroke:none;">:14454.</text>
  </g>
  <g begin="text">
   <text y="421.396" x="186.858,196.502,200.756,206.247,210.23100000000002,213.163,219.698,222.18800000000002,225.182,230.163,234.726,237.416,241.67,245.477,250.558,255.1396,258.12,263.101,269.637,272.127,275.184,280.165,285.146,290.128,295.109" svgx:width="0.97,0.43,0.54,0.4,0.55,0.66,0.25,0.55,0.5,0.46,0.27,0.43,0.38,0.51,0.46,0.55,0.5,0.66,0.25,0.55,0.5,0.5,0.5,0.5,0.25" style="fill:rgb(0,0,0);font-family:AdvOTb65e897d.B;font-size:9.96px;stroke:none;">Wehr R, Saleska SR. 2015.</text>
  </g>
  <g begin="text">
   <text y="421.396" x="300.584,307.428,312.8064,315.89,318.48,326.57,331.751,335.377,340.358,344.921,349.066,354.24519999999995,357.331,359.922,363.548,368.529,371.538,376.519,381.7,384.374,388.5572,391.517,399.607,403.751,406.76,412.05,417.031,422.2102,425.248,428.148,433.129,436.7146,439.819,444.999,449.353,452.979,455.988,458.578,461.587,464.177,469.159,474.548,477.235,482.625,487.2066,490.217,495.607,499.752,502.74,505.751,509.896,514.04,519.021,522.648,527.294,530.921,533.929,538.074,546.164" svgx:width="0.69,0.54,0.55,0.26,0.81,0.52,0.36,0.5,0.46,0.42,0.52,0.55,0.26,0.36,0.5,0.3,0.5,0.52,0.26,0.42,0.55,0.81,0.42,0.3,0.53,0.5,0.52,0.55,0.29,0.5,0.36,0.55,0.52,0.44,0.36,0.3,0.26,0.3,0.26,0.5,0.54,0.26,0.54,0.46,0.55,0.54,0.42,0.3,0.55,0.42,0.42,0.5,0.36,0.46,0.36,0.3,0.42,0.81,0.35" style="fill:rgb(0,0,0);font-family:AdvOT1ef757c0;font-size:9.96px;stroke:none;">An improved isotopic method for partitioning net ecosystem-</text>
  </g>
  <g begin="text">
   <text y="434.379" x="198.821,203.174,206.248,214.337,219.319,222.945,228.126,233.416,237.56,241.283,245.4662,248.426,254.962" svgx:width="0.44,0.3,0.81,0.5,0.36,0.52,0.53,0.42,0.36,0.42,0.55,0.66,0.74" style="fill:rgb(0,0,0);font-family:AdvOT1ef757c0;font-size:9.96px;stroke:none;">atmosphere CO</text>
  </g>
  <g begin="text">
   <text y="436.025" x="262.318" svgx:width="0.48" style="fill:rgb(0,0,0);font-family:AdvOT1ef757c0;font-size:6.64px;stroke:none;">2</text>
  </g>
  <g begin="text">
   <text y="434.381" x="268.894,273.039,277.701,281.933,287.224,291.577,296.967,301.53,305.674" svgx:width="0.42,0.47,0.42,0.53,0.44,0.54,0.46,0.42,0.22" style="fill:rgb(0,0,0);font-family:AdvOT1ef757c0;font-size:9.96px;stroke:none;">exchange.</text>
  </g>
  <g begin="text">
   <text y="434.381" x="310.904,317.439,321.584,325.21,327.9,331.636,336.926,339.307,342.424,347.714,351.341,356.213,358.6034,361.586,366.458,371.748,376.728,379.785,384.966,389.628,393.254,397.19,400.507,403.495,406.6,415.318,419.253,422.262,426.197,430.859,434.486,439.255,441.636,446.298,450.443" svgx:width="0.66,0.42,0.36,0.27,0.38,0.53,0.24,0.3,0.53,0.36,0.49,0.24,0.55,0.49,0.53,0.5,0.55,0.52,0.47,0.36,0.4,0.33,0.3,0.55,0.88,0.4,0.3,0.4,0.47,0.36,0.47,0.24,0.47,0.42,0.44" style="fill:rgb(0,0,0);font-family:AdvOT7d6df7ab.I;font-size:9.96px;stroke:none;">Agricultural and Forest Meteorology</text>
  </g>
  <g begin="text">
   <text y="434.381" x="457.794,462.776,467.757" svgx:width="0.5,0.5,0.5" style="fill:rgb(0,0,0);font-family:AdvOTb65e897d.B;font-size:9.96px;stroke:none;">214</text>
  </g>
  <g begin="text">
   <text y="434.381" x="472.818" svgx:width="0.51" style="fill:rgb(0,0,0);font-family:AdvOTb65e897d.B;font-size:9.96px;stroke:none;">–</text>
  </g>
  <g begin="text">
   <text y="434.381" x="477.864,482.845,487.827" svgx:width="0.5,0.5,0.5" style="fill:rgb(0,0,0);font-family:AdvOTb65e897d.B;font-size:9.96px;stroke:none;">215</text>
  </g>
  <g begin="text">
   <text y="434.381" x="492.831,495.003,499.775,504.622" svgx:width="0.22,0.48,0.48,0.48" style="fill:rgb(0,0,0);font-family:AdvOT1ef757c0;font-size:9.96px;stroke:none;">:515</text>
  </g>
  <g begin="text">
   <text y="434.381" x="509.385" svgx:width="0.51" style="fill:rgb(0,0,0);font-family:AdvOT1ef757c0;font-size:9.96px;stroke:none;">–</text>
  </g>
  <g begin="text">
   <text y="434.381" x="514.486,519.259,524.031,528.803" svgx:width="0.48,0.48,0.48,0.22" style="fill:rgb(0,0,0);font-family:AdvOT1ef757c0;font-size:9.96px;stroke:none;">531.</text>
  </g>
  <g begin="text">
   <text y="449.291" x="186.859,196.503,200.757,204.774,210.373,214.627,218.562,222.816,228.206,230.8952,233.971,240.506,250.15,252.64000000000001,255.684,262.837,265.736,270.299,275.898,278.797,282.533,287.9114,291.003,297.33,300.956,303.446,306.48,311.462,316.443,321.424,326.405" svgx:width="0.97,0.43,0.4,0.56,0.43,0.4,0.43,0.54,0.27,0.55,0.66,0.97,0.25,0.55,0.72,0.29,0.46,0.56,0.29,0.38,0.54,0.55,0.63,0.36,0.25,0.55,0.5,0.5,0.5,0.5,0.25" style="fill:rgb(0,0,0);font-family:AdvOTb65e897d.B;font-size:9.96px;stroke:none;">Wernerehl RW, Givnish TJ. 2015.</text>
  </g>
  <g begin="text">
   <text y="449.291" x="331.879,337.996,342.14,344.631,348.985,351.993,354.669,359.232,363.4152,366.404,370.031,375.012,377.503,381.647,385.2326,388.287,393.268,396.15639999999996,399.229,402.855,407.837,410.427,412.91700000000003,415.896,423.986,428.967,431.558,435.184,438.289,443.47,447.096,451.241,453.43219999999997,456.431,461.821,467.002,470.01,473.722,476.313,480.457,485.847,488.835,491.864,495.491,500.671,505.852,511.032,513.523,518.086,520.2772,523.328,528.509,532.653,537.834,540.842,546.232,548.4232,551.391,555.745,561.134" svgx:width="0.61,0.42,0.25,0.44,0.3,0.26,0.46,0.42,0.55,0.36,0.5,0.25,0.42,0.36,0.55,0.5,0.29,0.55,0.36,0.5,0.26,0.25,0.55,0.81,0.5,0.26,0.36,0.3,0.52,0.36,0.42,0.22,0.55,0.54,0.52,0.3,0.36,0.26,0.42,0.54,0.3,0.55,0.36,0.52,0.52,0.52,0.25,0.46,0.22,0.55,0.52,0.42,0.52,0.3,0.53,0.22,0.55,0.44,0.54,0.52" style="fill:rgb(0,0,0);font-family:AdvOT1ef757c0;font-size:9.96px;stroke:none;">Relative roles of soil moisture, nutrient supply, depth, and</text>
  </g>
  <g begin="text">
   <text y="462.273" x="198.821,206.911,211.056,215.2,220.592,224.945,230.335,232.925,237.07,241.424,243.91400000000002,246.954,249.544,257.634,262.814,266.959,272.239,276.592,281.982,286.127,290.3102,293.329,295.919,301.2974,304.327,309.508,313.652,316.661,320.806,324.432,332.522,335.112,340.61,343.2,348.59,353.17159999999996,356.144,360.288,365.27,373.435,378.615,383.597,387.223,389.813,392.822,395.412,400.477,405.8554,408.868,413.221,418.611,423.79019999999997,426.783,430.409,433.418,437.044,442.316,446.461,449.469,454.65,458.276,462.4592,465.446,470.428,473.3164,476.331,485.975,488.566,492.192,496.336,501.318,506.832,510.458,513.049,518.4274,521.459,526.64,530.266,534.62,537.21,540.836,543.427,547.571,551.198" svgx:width="0.81,0.42,0.42,0.53,0.44,0.54,0.26,0.42,0.44,0.25,0.55,0.26,0.81,0.52,0.42,0.52,0.44,0.54,0.42,0.42,0.55,0.26,0.54,0.55,0.52,0.42,0.3,0.42,0.36,0.81,0.26,0.54,0.26,0.54,0.46,0.55,0.42,0.5,0.81,0.52,0.5,0.36,0.26,0.3,0.26,0.5,0.54,0.55,0.44,0.54,0.52,0.55,0.36,0.3,0.36,0.52,0.42,0.3,0.52,0.36,0.42,0.55,0.5,0.29,0.55,0.97,0.26,0.36,0.42,0.5,0.54,0.36,0.26,0.54,0.55,0.52,0.36,0.44,0.26,0.36,0.26,0.42,0.36,0.22" style="fill:rgb(0,0,0);font-family:AdvOT1ef757c0;font-size:9.96px;stroke:none;">mechanical impedance in determining composition and structure of Wisconsin prairies.</text>
  </g>
  <g begin="text">
   <text y="475.199" x="198.821,204.321,209.611,216.555,221.13660000000002,224.163,231.107,238.051" svgx:width="0.55,0.53,0.7,0.46,0.55,0.7,0.7,0.55" style="fill:rgb(0,0,0);font-family:AdvOT7d6df7ab.I;font-size:9.96px;stroke:none;">PLOS ONE</text>
  </g>
  <g begin="text">
   <text y="475.199" x="246.613,251.594,256.576,259.993,264.974" svgx:width="0.5,0.5,0.34,0.5,0.34" style="fill:rgb(0,0,0);font-family:AdvOTb65e897d.B;font-size:9.96px;stroke:none;">10(9)</text>
  </g>
  <g begin="text">
   <text y="475.199" x="268.44,270.612,274.756,279.529,284.301,289.073,293.951,298.723,303.496" svgx:width="0.22,0.42,0.48,0.48,0.48,0.48,0.48,0.48,0.48" style="fill:rgb(0,0,0);font-family:AdvOT1ef757c0;font-size:9.96px;stroke:none;">:e0137963</text>
  </g>
  <g begin="text">
   <text y="475.199" x="311.243,318.506,325.868,329.1548,332.22,336.992,341.764,344.011,348.783,353.556,358.328,363.1,366.308,368.798,373.78,379.047,382.673,388.063,392.417,394.907,397.079,402.26,407.337,412.726,416.871,419.043,423.815,428.587,433.359,438.131,442.996,447.768" svgx:width="0.73,0.74,0.33,0.55,0.48,0.48,0.22,0.48,0.48,0.48,0.48,0.32,0.25,0.5,0.52,0.36,0.54,0.44,0.25,0.22,0.52,0.5,0.54,0.42,0.22,0.48,0.48,0.48,0.48,0.48,0.48,0.48" style="fill:rgb(0,138,191);font-family:AdvOT1ef757c0;font-size:9.96px;stroke:none;">DOI 10.1371/journal.pone.0137963</text>
  </g>
  <g begin="text">
   <text y="475.199" x="452.522" svgx:width="0.22" style="fill:rgb(0,0,0);font-family:AdvOT1ef757c0;font-size:9.96px;stroke:none;">.</text>
  </g>
  <g begin="text">
   <text y="490.166" x="186.86,196.504,201.894,204.889,208.206,212.4888,215.207,218.833,228.477,235.219,237.709,240.434,247.488,252.051,257.55,262.422,267.93,273.5076,276.321,282.647,290.428,292.918,295.709,304.526,307.425,311.569,316.959,321.213,323.90220000000005,326.719,331.765,337.464,339.954,342.707,347.689,352.67,357.651,362.633" svgx:width="0.97,0.54,0.29,0.33,0.43,0.55,0.36,0.97,0.67,0.25,0.55,0.71,0.46,0.55,0.49,0.54,0.56,0.55,0.63,0.78,0.25,0.55,0.88,0.29,0.42,0.54,0.43,0.27,0.55,0.5,0.57,0.25,0.55,0.5,0.5,0.5,0.5,0.25" style="fill:rgb(0,0,0);font-family:AdvOTb65e897d.B;font-size:9.96px;stroke:none;">White JWC, Vaughn BH, Michel SE. 2015.</text>
  </g>
  <g begin="text">
   <text y="490.166" x="367.937,374.881,380.171,382.861,387.214,391.149,394.776,398.21,400.9,403.909,408.2914,411.079,415.741,418.4302,421.227,427.453,432.116,434.497,439.159,442.786,447.657,452.639,457.301,459.5918,462.442,465.759,471.05,474.367,477.376,480.066,483.074,488.463,491.472,495.45599999999996,498.158,502.82,505.5092,508.306,514.841,518.468,522.203,525.212,527.978,531.7628,534.497,539.369,544.659,549.639,552.412,558.948,561.329,566.188,568.878,574.168" svgx:width="0.7,0.53,0.27,0.44,0.4,0.36,0.33,0.27,0.3,0.44,0.55,0.47,0.27,0.55,0.63,0.47,0.24,0.47,0.36,0.49,0.5,0.47,0.23,0.55,0.33,0.53,0.33,0.3,0.27,0.3,0.53,0.3,0.4,0.55,0.47,0.27,0.55,0.66,0.36,0.38,0.3,0.27,0.38,0.55,0.49,0.53,0.5,0.55,0.66,0.24,0.48,0.27,0.53,0.4" style="fill:rgb(0,0,0);font-family:AdvOT7d6df7ab.I;font-size:9.96px;stroke:none;">University of Colorado, Institute of Arctic and Alpine</text>
  </g>
  <g begin="text">
   <text y="503.091" x="198.822,204.73,208.743,212.061,215.996,220.868,224.494,228.23,233.3096,236.353,239.67,242.988,249.932,254.494,260.402,266.938,273.6,279.508,282.716,285.0068,288.0,291.317,294.326,299.198,303.97,306.351,310.335,313.342,316.031,319.349,324.012,327.02,331.683,336.455,339.249,343.03380000000004,345.939,349.738,354.4,362.181,366.953,371.616,374.933,377.623,380.632,383.322,387.984,393.26279999999997,396.396,401.058,403.7472,406.714,411.586,414.595,422.375,427.124,430.441,435.213,440.294,444.229,447.856,450.546,454.3308,457.34,461.076,465.948,469.574,474.346,479.11,484.3888,487.387,492.369,495.058,499.721,504.383,507.073,512.055,516.039,519.078" svgx:width="0.59,0.4,0.33,0.4,0.49,0.36,0.38,0.51,0.55,0.33,0.33,0.7,0.46,0.59,0.66,0.66,0.59,0.32,0.23,0.55,0.33,0.3,0.49,0.48,0.24,0.4,0.55,0.27,0.33,0.47,0.3,0.47,0.48,0.27,0.38,0.55,0.38,0.47,0.78,0.48,0.47,0.33,0.27,0.3,0.27,0.47,0.53,0.55,0.47,0.27,0.55,0.49,0.3,0.78,0.47,0.33,0.48,0.51,0.4,0.36,0.27,0.38,0.55,0.38,0.49,0.36,0.48,0.47,0.53,0.55,0.5,0.27,0.47,0.47,0.27,0.5,0.4,0.55,0.33" style="fill:rgb(0,0,0);font-family:AdvOT7d6df7ab.I;font-size:9.96px;stroke:none;">Research (INSTAAR), stable isotopic composition of atmospheric carbon dioxide (</text>
  </g>
  <g begin="text">
   <text y="498.671" x="522.368,525.865" svgx:width="0.47,0.47" style="fill:rgb(0,0,0);font-family:AdvOT7d6df7ab.I;font-size:6.64px;stroke:none;">13</text>
  </g>
  <g begin="text">
   <text y="503.093" x="529.398,535.6728,538.64,543.511,548.802" svgx:width="0.63,0.55,0.49,0.53,0.5" style="fill:rgb(0,0,0);font-family:AdvOT7d6df7ab.I;font-size:9.96px;stroke:none;">C and</text>
  </g>
  <g begin="text">
   <text y="498.671" x="556.781,560.278" svgx:width="0.47,0.47" style="fill:rgb(0,0,0);font-family:AdvOT7d6df7ab.I;font-size:6.64px;stroke:none;">18</text>
  </g>
  <g begin="text">
   <text y="503.093" x="563.811,570.755" svgx:width="0.7,0.32" style="fill:rgb(0,0,0);font-family:AdvOT7d6df7ab.I;font-size:9.96px;stroke:none;">O)</text>
  </g>
  <g begin="text">
   <text y="516.075" x="198.823,201.513,205.139,209.802,217.5708,220.649,223.658,228.739,232.723,235.73,242.673,249.617,256.153,262.7266,265.72,271.219,275.782,281.764,287.0428,290.041,293.777,298.648,302.275,307.047,311.709,316.9878,320.031,323.767,328.121,331.857,334.317,338.301,341.234,344.97,349.633,354.295,359.068,363.003,366.629,371.621,374.63,377.32,381.674,385.65799999999996,388.63,392.774,395.155,399.818,404.59,409.549,411.9394,414.878,419.75,422.44,426.0256,429.108,432.425,437.297,445.151,449.924,452.305,454.995,460.285,464.4682,467.432,472.722,476.729,479.738,486.373,491.035,494.662,499.324,501.6148,504.678,509.34,514.003,518.665" svgx:width="0.27,0.36,0.47,0.78,0.55,0.3,0.51,0.4,0.55,0.7,0.7,0.66,0.66,0.55,0.55,0.46,0.59,0.53,0.55,0.38,0.49,0.36,0.48,0.47,0.53,0.55,0.38,0.44,0.38,0.24,0.4,0.55,0.38,0.47,0.47,0.48,0.4,0.36,0.49,0.3,0.27,0.44,0.4,0.55,0.42,0.24,0.47,0.48,0.49,0.24,0.55,0.49,0.27,0.36,0.55,0.33,0.49,0.78,0.48,0.24,0.27,0.53,0.42,0.55,0.53,0.4,0.3,0.67,0.47,0.36,0.47,0.23,0.55,0.47,0.47,0.47,0.47" style="fill:rgb(0,0,0);font-family:AdvOT7d6df7ab.I;font-size:9.96px;stroke:none;">from the NOAA ESRL carbon cycle cooperative global air sampling network, 1990</text>
  </g>
  <g begin="text">
   <text y="516.075" x="523.389" svgx:width="0.5" style="fill:rgb(0,0,0);font-family:AdvOT7d6df7ab.I;font-size:9.96px;stroke:none;">–</text>
  </g>
  <g begin="text">
   <text y="516.075" x="528.378,533.04,537.703,542.365" svgx:width="0.47,0.47,0.47,0.47" style="fill:rgb(0,0,0);font-family:AdvOT7d6df7ab.I;font-size:9.96px;stroke:none;">2014</text>
  </g>
  <g begin="text">
   <text y="529.001" x="198.823,205.767,209.991,213.618,217.244,219.834,224.815,230.1934,232.782,237.554,242.326,247.098,251.87,255.397,260.169,265.039,268.566,273.338,278.11" svgx:width="0.7,0.42,0.36,0.36,0.26,0.5,0.54,0.55,0.48,0.48,0.48,0.48,0.35,0.48,0.48,0.35,0.48,0.48,0.22" style="fill:rgb(0,0,0);font-family:AdvOT1ef757c0;font-size:9.96px;stroke:none;">Version 2015-10-26.</text>
  </g>
  <g begin="text">
   <text y="529.001" x="282.842,289.377,293.731,298.603,301.292,303.761,308.633,313.405,315.786,319.77,322.3,327.171" svgx:width="0.66,0.44,0.49,0.27,0.24,0.49,0.48,0.24,0.4,0.55,0.49,0.3" style="fill:rgb(0,0,0);font-family:AdvOT7d6df7ab.I;font-size:9.96px;stroke:none;">Available at</text>
  </g>
  <g begin="text">
   <text y="529.001" x="332.731,335.421,338.43,343.202,345.484,348.592,351.78,356.652,359.342,362.35,367.122,369.404,373.14,380.921,385.902,388.283,390.671,395.961,400.624,405.495,410.367,412.648,416.793,421.455,425.809,428.917,433.899,438.916,441.924,446.796,449.905,452.913,456.54,461.411,465.147,469.082,474.064,478.317,483.189,486.506,490.441,493.759,496.867,500.603,505.359,510.022,513.758,518.42,523.083" svgx:width="0.27,0.3,0.48,0.23,0.31,0.31,0.49,0.27,0.3,0.48,0.23,0.38,0.78,0.5,0.24,0.23,0.53,0.47,0.49,0.49,0.23,0.42,0.47,0.44,0.31,0.5,0.49,0.3,0.49,0.31,0.3,0.36,0.49,0.38,0.4,0.5,0.42,0.49,0.33,0.4,0.33,0.31,0.38,0.47,0.47,0.38,0.47,0.47,0.31" style="fill:rgb(0,138,191);font-family:AdvOT7d6df7ab.I;font-size:9.96px;stroke:none;">ftp://aftp.cmdl.noaa.gov/data/trace_gases/co2c13/</text>
  </g>
  <g begin="text">
   <text y="529.001" x="526.223" svgx:width="0.52" style="fill:rgb(0,138,191);font-family:AdvOT7d6df7ab.I;font-size:9.96px;stroke:none;">ﬂ</text>
  </g>
  <g begin="text">
   <text y="529.001" x="531.438,536.31,539.628,544.29,547.398,550.716,556.1,559.726,562.416,567.288,571.024,574.959" svgx:width="0.49,0.33,0.47,0.31,0.33,0.53,0.36,0.27,0.49,0.38,0.4,0.31" style="fill:rgb(0,138,191);font-family:AdvOT7d6df7ab.I;font-size:9.96px;stroke:none;">ask/surface/</text>
  </g>
  <g begin="text">
   <text y="541.926" x="198.822,204.73,210.229,216.85,223.794,232.512,238.011,242.992,246.387,251.677,255.303,257.993,262.865,266.601,270.536" svgx:width="0.59,0.55,0.66,0.7,0.88,0.55,0.5,0.33,0.53,0.36,0.27,0.49,0.38,0.4,0.5" style="fill:rgb(0,138,191);font-family:AdvOT7d6df7ab.I;font-size:9.96px;stroke:none;">README_surface_</text>
  </g>
  <g begin="text">
   <text y="541.926" x="275.584" svgx:width="0.52" style="fill:rgb(0,138,191);font-family:AdvOT7d6df7ab.I;font-size:9.96px;stroke:none;">ﬂ</text>
  </g>
  <g begin="text">
   <text y="541.926" x="280.799,285.671,288.989,293.651,298.632,302.368,307.031,311.693,315.429,320.2,324.863,327.144,332.225,335.234,343.015" svgx:width="0.49,0.33,0.47,0.5,0.38,0.47,0.47,0.38,0.47,0.47,0.23,0.51,0.3,0.78,0.24" style="fill:rgb(0,138,191);font-family:AdvOT7d6df7ab.I;font-size:9.96px;stroke:none;">ask_co2c13.html</text>
  </g>
  <g begin="text">
   <text y="541.926" x="345.429" svgx:width="0.22" style="fill:rgb(0,0,0);font-family:AdvOT1ef757c0;font-size:9.96px;stroke:none;">.</text>
  </g>
  <g begin="text">
   <text y="556.893" x="186.859,196.503,199.402,203.64,208.721,214.111,218.674,226.9408,230.002,237.783,240.273,243.268,248.25,253.303,258.284,263.265" svgx:width="0.97,0.29,0.42,0.51,0.54,0.46,0.83,0.55,0.78,0.25,0.55,0.5,0.5,0.5,0.5,0.25" style="fill:rgb(0,0,0);font-family:AdvOTb65e897d.B;font-size:9.96px;stroke:none;">Wickham H. 2016.</text>
  </g>
  <g begin="text">
   <text y="556.893" x="268.724,272.868,277.013,281.785,284.257,288.92,291.929,296.591,298.8818,301.888,305.823,308.204,312.14,316.284,321.156,326.55,329.538,332.502,336.647,340.273,345.145,350.02,355.101,357.791,361.527,364.8138,367.878,370.568,375.231,378.8166,381.882,386.863,391.735,394.744,399.62440000000004,402.631,407.503,412.793,417.664,420.046,424.399,427.802,430.492" svgx:width="0.42,0.42,0.48,0.24,0.47,0.3,0.47,0.23,0.55,0.4,0.24,0.4,0.42,0.49,0.53,0.3,0.55,0.42,0.36,0.49,0.48,0.51,0.27,0.38,0.33,0.55,0.27,0.47,0.36,0.55,0.5,0.49,0.3,0.49,0.55,0.49,0.53,0.49,0.24,0.44,0.33,0.27,0.33" style="fill:rgb(0,0,0);font-family:AdvOT7d6df7ab.I;font-size:9.96px;stroke:none;">ggplot2: elegant graphics for data analysis</text>
  </g>
  <g begin="text">
   <text y="556.893" x="433.813,436.00419999999997,439.028,446.391,450.535,457.30780000000004,460.288,466.514,471.495,475.122,479.994,482.1852,485.232,489.894,495.075,498.701,501.292,506.681,511.244,515.389,519.134,522.66,529.604,533.749,537.375,539.866,544.219,548.782" svgx:width="0.22,0.55,0.74,0.42,0.68,0.55,0.63,0.5,0.36,0.49,0.22,0.55,0.47,0.52,0.36,0.26,0.54,0.46,0.42,0.36,0.35,0.7,0.42,0.36,0.25,0.44,0.46,0.22" style="fill:rgb(0,0,0);font-family:AdvOT1ef757c0;font-size:9.96px;stroke:none;">. New York: Springer-Verlag.</text>
  </g>
  <g begin="text">
   <text y="571.86" x="186.86,196.504,201.77,206.951,212.34,219.085,223.648,227.583,232.9614,235.162,240.661,244.397,246.887,248.995,253.976,258.957,263.939,268.92" svgx:width="0.97,0.52,0.52,0.54,0.68,0.46,0.4,0.54,0.55,0.55,0.38,0.25,0.55,0.5,0.5,0.5,0.5,0.25" style="fill:rgb(0,0,0);font-family:AdvOTb65e897d.B;font-size:9.96px;stroke:none;">Woodward FI. 1987.</text>
  </g>
  <g begin="text">
   <text y="571.86" x="273.599,278.262,281.271,286.252,294.341,298.695,301.704,306.14,308.63,310.732,316.122,321.302,329.392,334.373,338.518,342.253,345.8386,347.979,352.333,355.959,360.1422,362.266,365.892,370.036,375.426,379.052,381.643,384.651,387.242,391.805,395.9882,398.152,401.16,406.14000000000004,408.243,410.833,416.223,420.367,423.994,428.138,432.492,436.249,440.393,443.9786,446.113,448.703,454.0814,456.261,462.796" svgx:width="0.47,0.3,0.5,0.81,0.44,0.3,0.44,0.25,0.55,0.54,0.52,0.81,0.5,0.42,0.36,0.36,0.55,0.44,0.36,0.42,0.55,0.36,0.42,0.54,0.36,0.26,0.3,0.26,0.46,0.42,0.55,0.3,0.5,0.55,0.26,0.54,0.42,0.36,0.42,0.44,0.36,0.42,0.36,0.55,0.26,0.54,0.55,0.66,0.74" style="fill:rgb(0,0,0);font-family:AdvOT1ef757c0;font-size:9.96px;stroke:none;">Stomatal numbers are sensitive to increases in CO</text>
  </g>
  <g begin="text">
   <text y="573.506" x="470.154" svgx:width="0.48" style="fill:rgb(0,0,0);font-family:AdvOT1ef757c0;font-size:6.64px;stroke:none;">2</text>
  </g>
  <g begin="text">
   <text y="571.862" x="475.88,478.779,482.406,487.387,497.594,502.774,506.401,510.633,514.159,516.75,522.139,527.32,532.501,536.127,539.136,542.762,545.352,549.706,552.196,554.399,556.89,561.035,565.597,569.82,572.31,575.937" svgx:width="0.29,0.36,0.5,0.81,0.52,0.36,0.42,0.35,0.26,0.54,0.52,0.52,0.36,0.3,0.36,0.26,0.44,0.25,0.55,0.25,0.42,0.46,0.42,0.25,0.36,0.22" style="fill:rgb(0,0,0);font-family:AdvOT1ef757c0;font-size:9.96px;stroke:none;">frompre-industrial levels.</text>
  </g>
  <g begin="text">
   <text y="584.788" x="198.823,205.767,210.639,213.733,219.023,222.65" svgx:width="0.7,0.49,0.3,0.53,0.36,0.4" style="fill:rgb(0,0,0);font-family:AdvOT7d6df7ab.I;font-size:9.96px;stroke:none;">Nature</text>
  </g>
  <g begin="text">
   <text y="584.788" x="229.608,234.589,239.57,244.552,247.969,252.95,257.931,262.913,267.989" svgx:width="0.5,0.5,0.5,0.34,0.5,0.5,0.5,0.5,0.34" style="fill:rgb(0,0,0);font-family:AdvOTb65e897d.B;font-size:9.96px;stroke:none;">327(6123)</text>
  </g>
  <g begin="text">
   <text y="584.788" x="271.39,273.562,278.334,283.106" svgx:width="0.22,0.48,0.48,0.48" style="fill:rgb(0,0,0);font-family:AdvOT1ef757c0;font-size:9.96px;stroke:none;">:617</text>
  </g>
  <g begin="text">
   <text y="584.788" x="287.944" svgx:width="0.51" style="fill:rgb(0,0,0);font-family:AdvOT1ef757c0;font-size:9.96px;stroke:none;">–</text>
  </g>
  <g begin="text">
   <text y="584.788" x="293.046,297.818,302.59" svgx:width="0.48,0.48,0.48" style="fill:rgb(0,0,0);font-family:AdvOT1ef757c0;font-size:9.96px;stroke:none;">618</text>
  </g>
  <g begin="text">
   <text y="584.788" x="310.337,317.599,324.962,328.2488,331.313,336.085,340.857,343.105,347.877,352.649,357.421,362.193,365.401,370.173,375.022,379.794,384.566,389.338,394.11,398.464" svgx:width="0.73,0.74,0.33,0.55,0.48,0.48,0.22,0.48,0.48,0.48,0.48,0.32,0.48,0.48,0.48,0.48,0.48,0.48,0.44,0.48" style="fill:rgb(0,138,191);font-family:AdvOT1ef757c0;font-size:9.96px;stroke:none;">DOI 10.1038/327617a0</text>
  </g>
  <g begin="text">
   <text y="584.788" x="403.256" svgx:width="0.22" style="fill:rgb(0,0,0);font-family:AdvOT1ef757c0;font-size:9.96px;stroke:none;">.</text>
  </g>
  <g begin="text">
   <text y="599.755" x="186.86,196.504,201.77,206.951,212.341,219.085,223.648,227.583,232.9614,236.068,241.568,245.304,247.794,250.751,257.078,261.64,265.994,270.424,274.986,279.3684,282.386,287.885,294.829,297.319,300.3,305.282,310.263,315.244,320.312" svgx:width="0.97,0.52,0.52,0.54,0.68,0.46,0.4,0.54,0.55,0.55,0.38,0.25,0.55,0.63,0.46,0.44,0.44,0.46,0.44,0.55,0.55,0.7,0.25,0.55,0.5,0.5,0.5,0.5,0.25" style="fill:rgb(0,0,0);font-family:AdvOTb65e897d.B;font-size:9.96px;stroke:none;">Woodward FI, Bazzaz FA. 1988.</text>
  </g>
  <g begin="text">
   <text y="599.755" x="325.757,331.874,337.164,341.3472,344.352,347.978,352.123,355.749,361.019,366.001,371.39,375.017,379.161,382.7466,385.793,390.775,393.66339999999997,396.735,400.362,403.37,408.352,416.441,420.795,423.804,428.157,430.647,433.698,438.879,443.023,448.413,452.04,454.63,457.736,462.31759999999997,465.276,468.285,473.26500000000004,476.275,482.81" svgx:width="0.61,0.53,0.42,0.55,0.36,0.42,0.36,0.52,0.5,0.54,0.36,0.42,0.36,0.55,0.5,0.29,0.55,0.36,0.3,0.5,0.81,0.44,0.3,0.44,0.25,0.55,0.52,0.42,0.54,0.36,0.26,0.3,0.46,0.55,0.3,0.5,0.55,0.66,0.74" style="fill:rgb(0,0,0);font-family:AdvOT1ef757c0;font-size:9.96px;stroke:none;">The responses of stomatal density to CO</text>
  </g>
  <g begin="text">
   <text y="601.398" x="490.224" svgx:width="0.48" style="fill:rgb(0,0,0);font-family:AdvOT1ef757c0;font-size:6.64px;stroke:none;">2</text>
  </g>
  <g begin="text">
   <text y="599.754" x="496.8,501.98,506.334,509.96,512.969,515.559,519.913,522.403,525.429,530.61,534.236,538.468,542.095,545.721,550.902,554.528,558.673" svgx:width="0.52,0.44,0.36,0.3,0.26,0.44,0.25,0.55,0.52,0.36,0.42,0.36,0.36,0.52,0.36,0.42,0.22" style="fill:rgb(0,0,0);font-family:AdvOT1ef757c0;font-size:9.96px;stroke:none;">partial pressure.</text>
  </g>
  <g begin="text">
   <text y="612.68" x="198.824,201.932,206.594,211.884,215.605,220.895,225.766,228.1564,231.138,235.801,238.4902,241.513,247.013,251.675,256.447,260.382,264.009,266.798,274.579,278.514,283.805,286.813,291.685,294.0754,297.128,302.827,307.49,310.498,315.37,320.66" svgx:width="0.31,0.47,0.53,0.36,0.53,0.49,0.24,0.55,0.47,0.27,0.55,0.55,0.47,0.48,0.4,0.36,0.27,0.78,0.4,0.53,0.3,0.49,0.24,0.55,0.57,0.47,0.3,0.49,0.53,0.44" style="fill:rgb(0,0,0);font-family:AdvOT7d6df7ab.I;font-size:9.96px;stroke:none;">Journal of Experimental Botany</text>
  </g>
  <g begin="text">
   <text y="612.68" x="328.083,333.065,338.046,341.463,346.444,351.497" svgx:width="0.5,0.5,0.34,0.5,0.5,0.34" style="fill:rgb(0,0,0);font-family:AdvOTb65e897d.B;font-size:9.96px;stroke:none;">39(12)</text>
  </g>
  <g begin="text">
   <text y="612.68" x="354.899,357.07,361.843,366.615,371.387" svgx:width="0.22,0.48,0.48,0.48,0.48" style="fill:rgb(0,0,0);font-family:AdvOT1ef757c0;font-size:9.96px;stroke:none;">:1771</text>
  </g>
  <g begin="text">
   <text y="612.68" x="376.215" svgx:width="0.51" style="fill:rgb(0,0,0);font-family:AdvOT1ef757c0;font-size:9.96px;stroke:none;">–</text>
  </g>
  <g begin="text">
   <text y="612.68" x="381.316,386.089,390.861,395.633,400.479" svgx:width="0.48,0.48,0.48,0.48,0.22" style="fill:rgb(0,0,0);font-family:AdvOT1ef757c0;font-size:9.96px;stroke:none;">1781.</text>
  </g>
  <g begin="text">
   <text y="627.647" x="186.86,193.286,198.467,204.152,208.406,211.723,216.286,221.885,224.77339999999998,227.849,234.175,236.66500000000002,239.64,246.793,251.974,255.909,261.41,266.59,272.1676,275.186,282.967,289.293,291.783,294.801,299.783,304.764,309.745,314.726" svgx:width="0.64,0.52,0.56,0.43,0.33,0.46,0.56,0.29,0.55,0.63,0.25,0.55,0.72,0.52,0.4,0.54,0.52,0.56,0.55,0.78,0.63,0.25,0.55,0.5,0.5,0.5,0.5,0.25" style="fill:rgb(0,0,0);font-family:AdvOTb65e897d.B;font-size:9.96px;stroke:none;">Yonetani T, Gordon HB. 2001.</text>
  </g>
  <g begin="text">
   <text y="627.647" x="320.259,324.921,327.511,335.679,340.859,343.35,347.704,350.712,354.857,360.0362,363.061,367.205,372.496,376.849,382.337,386.899,391.044,394.6296,397.7,400.29,405.6684,408.642,411.651,416.941,421.1242,424.119,427.018,430.644,434.789,439.87,445.152,449.296,454.686,458.83,463.41159999999996,466.411,471.392,474.2804,477.296,481.44,486.103,489.112,492.83,496.974,505.064,509.208,512.7936000000001,515.846,520.2,525.59,530.7692000000001,533.818,537.444,541.589,546.152,548.742,553.723,559.216,563.569" svgx:width="0.47,0.26,0.81,0.52,0.25,0.44,0.3,0.42,0.52,0.55,0.42,0.53,0.44,0.54,0.46,0.42,0.36,0.55,0.26,0.54,0.55,0.3,0.53,0.42,0.55,0.29,0.36,0.42,0.51,0.52,0.42,0.54,0.42,0.46,0.55,0.5,0.29,0.55,0.42,0.47,0.3,0.36,0.42,0.81,0.42,0.36,0.55,0.44,0.54,0.52,0.55,0.36,0.42,0.46,0.26,0.5,0.54,0.44,0.25" style="fill:rgb(0,0,0);font-family:AdvOT1ef757c0;font-size:9.96px;stroke:none;">Simulated changes in the frequency of extremes and regional</text>
  </g>
  <g begin="text">
   <text y="640.572" x="198.823,201.722,205.866,210.22,213.228,218.495,222.121,226.266,229.8516,232.895,237.876,240.7644,243.837,247.463,251.607,255.961,259.587,264.569,269.958,274.312,276.803,280.119,284.473,289.863,295.253,300.433,304.787,307.277,310.336,313.345,317.489,325.579,330.759,334.997,338.624,342.977,345.986,351.167,354.793,358.9762,361.983,366.337,371.726,376.9052,379.955,385.135,388.761,392.906,397.05,399.641,404.821,407.411,410.42,414.774,417.782,420.489,425.471,430.8494,433.869,440.614,445.904,450.048,455.4264,458.474,462.827,465.901,473.99,478.972,482.598,487.779,493.069,497.213,500.936,503.527,507.7102,510.688,517.223" svgx:width="0.29,0.42,0.44,0.3,0.52,0.36,0.42,0.36,0.55,0.5,0.29,0.55,0.36,0.42,0.44,0.36,0.5,0.54,0.44,0.25,0.32,0.44,0.54,0.54,0.52,0.44,0.25,0.55,0.3,0.42,0.81,0.52,0.42,0.36,0.44,0.3,0.52,0.36,0.42,0.55,0.44,0.54,0.52,0.55,0.52,0.36,0.42,0.42,0.26,0.52,0.26,0.3,0.44,0.3,0.26,0.5,0.54,0.55,0.68,0.53,0.42,0.54,0.55,0.44,0.3,0.81,0.5,0.36,0.52,0.53,0.42,0.36,0.26,0.42,0.55,0.66,0.74" style="fill:rgb(0,0,0);font-family:AdvOT1ef757c0;font-size:9.96px;stroke:none;">features of seasonal/annual temperature and precipitation when atmospheric CO</text>
  </g>
  <g begin="text">
   <text y="642.217" x="524.579" svgx:width="0.48" style="fill:rgb(0,0,0);font-family:AdvOT1ef757c0;font-size:6.64px;stroke:none;">2</text>
  </g>
  <g begin="text">
   <text y="640.573" x="531.156,533.746,537.3316,540.397,545.578,550.559,555.817,560.799,563.289,567.434,572.614" svgx:width="0.26,0.36,0.55,0.52,0.5,0.52,0.5,0.25,0.42,0.52,0.22" style="fill:rgb(0,0,0);font-family:AdvOT1ef757c0;font-size:9.96px;stroke:none;">is doubled.</text>
  </g>
  <g begin="text">
   <text y="653.556" x="198.823,201.932,206.594,211.884,215.604,220.895,225.766,228.1564,231.138,235.801,238.4902,241.513,247.74,250.121,252.811,260.675,265.547,268.556" svgx:width="0.31,0.47,0.53,0.36,0.53,0.49,0.24,0.55,0.47,0.27,0.55,0.63,0.24,0.27,0.78,0.49,0.3,0.4" style="fill:rgb(0,0,0);font-family:AdvOT7d6df7ab.I;font-size:9.96px;stroke:none;">Journal of Climate</text>
  </g>
  <g begin="text">
   <text y="653.556" x="275.472,280.518,285.499,288.916,293.897" svgx:width="0.5,0.5,0.34,0.5,0.34" style="fill:rgb(0,0,0);font-family:AdvOTb65e897d.B;font-size:9.96px;stroke:none;">14(8)</text>
  </g>
  <g begin="text">
   <text y="653.556" x="297.355,299.527,304.299,309.072,313.844" svgx:width="0.22,0.48,0.48,0.48,0.48" style="fill:rgb(0,0,0);font-family:AdvOT1ef757c0;font-size:9.96px;stroke:none;">:1765</text>
  </g>
  <g begin="text">
   <text y="653.556" x="318.671" svgx:width="0.51" style="fill:rgb(0,0,0);font-family:AdvOT1ef757c0;font-size:9.96px;stroke:none;">–</text>
  </g>
  <g begin="text">
   <text y="653.556" x="323.718,328.49,333.262,338.117" svgx:width="0.48,0.48,0.48,0.48" style="fill:rgb(0,0,0);font-family:AdvOT1ef757c0;font-size:9.96px;stroke:none;">1779</text>
  </g>
  <g begin="text">
   <text y="653.556" x="345.884,353.147,360.509,363.79580000000004,366.861,371.633,376.405,378.577,383.349,388.121,392.893,397.665,400.873,405.752,410.524,415.296,420.068,423.595,428.367,433.139,437.911,442.683,446.1,450.872,455.754,460.526,465.298,468.715,473.487,478.26,483.032,488.421,493.284,498.056,502.828,507.6,509.772,513.399,517.543,520.133,523.142,526.041,531.023,536.54,541.312,543.484,548.256,550.428,554.572,559.554,561.725" svgx:width="0.73,0.74,0.33,0.55,0.48,0.48,0.22,0.48,0.48,0.48,0.48,0.32,0.48,0.48,0.48,0.48,0.35,0.48,0.48,0.48,0.48,0.34,0.48,0.48,0.48,0.48,0.34,0.48,0.48,0.48,0.54,0.48,0.48,0.48,0.48,0.22,0.36,0.42,0.26,0.3,0.29,0.5,0.54,0.48,0.22,0.48,0.22,0.42,0.5,0.22,0.48" style="fill:rgb(0,138,191);font-family:AdvOT1ef757c0;font-size:9.96px;stroke:none;">DOI 10.1175/1520-0442(2001)014&lt;1765:scitfo&gt;2.0.co;2</text>
  </g>
  <g begin="text">
   <text y="653.556" x="566.589" svgx:width="0.22" style="fill:rgb(0,0,0);font-family:AdvOT1ef757c0;font-size:9.96px;stroke:none;">.</text>
  </g>
  <g begin="text">
   <text y="668.466" x="186.861,192.978,198.368,203.019,208.618,213.4984,216.511,222.937,230.09,232.58,235.616,241.524,246.087,250.959,255.522,261.12,264.0084,267.08,275.897,278.387,281.423,286.813,289.712,295.19,298.204,304.321,306.81100000000004,309.827,316.153,321.333,326.723,331.37,334.687,339.2686,342.255,347.236,356.053,358.543,361.587,369.159,373.413,380.048,385.229,390.828,394.145,399.32419999999996,402.406,408.942,411.432,414.425,419.406,424.388,429.369,434.35" svgx:width="0.61,0.54,0.46,0.56,0.49,0.55,0.64,0.72,0.25,0.55,0.59,0.46,0.49,0.46,0.56,0.29,0.55,0.88,0.25,0.55,0.54,0.29,0.55,0.55,0.61,0.25,0.55,0.63,0.52,0.54,0.46,0.33,0.46,0.55,0.5,0.88,0.25,0.55,0.76,0.43,0.67,0.52,0.56,0.33,0.52,0.55,0.66,0.25,0.55,0.5,0.5,0.5,0.5,0.25" style="fill:rgb(0,0,0);font-family:AdvOTb65e897d.B;font-size:9.96px;stroke:none;">Zhang YG, Pagani M, Liu Z, Bohaty SM, DeConto R. 2013.</text>
  </g>
  <g begin="text">
   <text y="668.466" x="439.88,446.7524,449.745,454.518,459.29,462.816,470.906,473.496,475.987,478.478,481.153,486.134,491.524,495.05,499.613,503.758,508.195,511.7806,514.771,520.062,522.652,526.278,529.287,534.268,537.895,542.4766,545.555,550.536" svgx:width="0.69,0.55,0.48,0.48,0.35,0.81,0.26,0.25,0.25,0.26,0.5,0.54,0.35,0.46,0.42,0.44,0.36,0.55,0.53,0.26,0.36,0.3,0.5,0.36,0.46,0.55,0.5,0.29" style="fill:rgb(0,0,0);font-family:AdvOT1ef757c0;font-size:9.96px;stroke:none;">A 40-million-year history of</text>
  </g>
  <g begin="text">
   <text y="681.448" x="198.823,203.177,206.251,214.34,219.321,222.948,228.128,233.419,237.563,241.286,243.876,248.0592,251.037,257.573" svgx:width="0.44,0.3,0.81,0.5,0.36,0.52,0.53,0.42,0.36,0.26,0.42,0.55,0.66,0.74" style="fill:rgb(0,0,0);font-family:AdvOT1ef757c0;font-size:9.96px;stroke:none;">atmospheric CO</text>
  </g>
  <g begin="text">
   <text y="683.093" x="264.926" svgx:width="0.48" style="fill:rgb(0,0,0);font-family:AdvOT1ef757c0;font-size:6.64px;stroke:none;">2</text>
  </g>
  <g begin="text">
   <text y="681.449" x="268.554" svgx:width="0.22" style="fill:rgb(0,0,0);font-family:AdvOT1ef757c0;font-size:9.96px;stroke:none;">.</text>
  </g>
  <g begin="text">
   <text y="681.449" x="273.713,279.212,284.293,286.983,289.364,294.027,297.344,302.007,306.877,311.958,314.648,318.384,323.256,325.64639999999997,328.704,334.611,338.238,343.109,348.4,351.717,356.589,360.325,363.333,366.12,370.783,376.073,379.3598,382.391,387.053,389.7422,392.766,395.775,400.856,404.84,407.846,413.754,418.417,422.77,427.642,430.0324,433.075,437.638,442.3,446.036,448.726,452.747,455.756,460.109,462.39979999999997,465.389,474.107,478.978,481.987,487.068,491.003,498.784,503.77,506.779,509.469,513.205,518.077,520.458,522.7488,525.767,531.266,536.347,540.701,544.018,546.708,550.444,555.417" svgx:width="0.55,0.51,0.27,0.24,0.47,0.33,0.47,0.48,0.51,0.27,0.38,0.49,0.24,0.55,0.59,0.36,0.49,0.53,0.33,0.49,0.38,0.3,0.27,0.47,0.53,0.33,0.55,0.47,0.27,0.55,0.3,0.51,0.4,0.55,0.59,0.47,0.44,0.49,0.24,0.55,0.46,0.47,0.38,0.27,0.4,0.3,0.44,0.23,0.55,0.88,0.49,0.3,0.51,0.4,0.78,0.49,0.3,0.27,0.38,0.49,0.24,0.23,0.55,0.55,0.51,0.44,0.33,0.27,0.38,0.49,0.24" style="fill:rgb(0,0,0);font-family:AdvOT7d6df7ab.I;font-size:9.96px;stroke:none;">Philosophical Transactions of the Royal Society: Mathematical, Physical</text>
  </g>
  <g begin="text">
   <text y="694.374" x="198.822,203.694,208.984,213.964,217.021,222.52,227.81,231.955,234.645,239.935,243.87,247.918,251.544,254.234,259.524,263.7072,266.683,271.246,274.982,277.672,281.607,286.979,290.715,294.65" svgx:width="0.49,0.53,0.5,0.55,0.55,0.53,0.42,0.27,0.53,0.4,0.4,0.36,0.27,0.53,0.42,0.55,0.46,0.38,0.27,0.4,0.53,0.38,0.4,0.33" style="fill:rgb(0,0,0);font-family:AdvOT7d6df7ab.I;font-size:9.96px;stroke:none;">and Engineering Sciences</text>
  </g>
  <g begin="text">
   <text y="694.374" x="300.983,305.964,310.945,315.926,319.344,324.325,329.385,334.366,339.348" svgx:width="0.5,0.5,0.5,0.34,0.5,0.5,0.5,0.5,0.34" style="fill:rgb(0,0,0);font-family:AdvOTb65e897d.B;font-size:9.96px;stroke:none;">371(2001)</text>
  </g>
  <g begin="text">
   <text y="694.374" x="342.765,344.937,349.709,354.481,359.253,364.025,368.797,373.662,378.434" svgx:width="0.22,0.48,0.48,0.48,0.48,0.48,0.48,0.48,0.48" style="fill:rgb(0,0,0);font-family:AdvOT1ef757c0;font-size:9.96px;stroke:none;">:20130096</text>
  </g>
  <g begin="text">
   <text y="694.374" x="386.192,393.454,400.817,404.10380000000004,407.168,411.94,416.712,418.96,423.732,428.504,433.276,438.048,441.256,444.882,448.509,451.517,455.871,458.043,462.815,467.715,472.487,477.259,479.431,484.203,488.975,493.747" svgx:width="0.73,0.74,0.33,0.55,0.48,0.48,0.22,0.48,0.48,0.48,0.48,0.32,0.36,0.36,0.3,0.44,0.22,0.48,0.48,0.48,0.48,0.22,0.48,0.48,0.48,0.48" style="fill:rgb(0,138,191);font-family:AdvOT1ef757c0;font-size:9.96px;stroke:none;">DOI 10.1098/rsta.2013.0096</text>
  </g>
  <g begin="text">
   <text y="694.374" x="498.557" svgx:width="0.22" style="fill:rgb(0,0,0);font-family:AdvOT1ef757c0;font-size:9.96px;stroke:none;">.</text>
  </g>
  <path style="fill:rgb(2,167,252);stroke:none;stroke-width:1.0;" d="M40.320 41.110 C41.370 41.130 42.150 40.920 42.630 40.470 C43.120 40.020 43.350 39.400 43.350 38.570 C43.350 37.730 43.120 37.110 42.630 36.660 C42.150 36.240 41.370 36.020 40.320 36.020 L36.710 36.020 L36.710 41.110 L40.320 41.110 ZM40.950 34.470 C42.340 34.470 43.410 34.820 44.130 35.540 C44.850 36.260 45.200 37.270 45.200 38.570 C45.200 39.870 44.850 40.880 44.130 41.600 C43.410 42.320 42.340 42.680 40.950 42.660 L36.710 42.660 L36.710 48.340 L34.870 48.340 L34.870 34.470 "/>
  <path style="fill:rgb(2,167,252);stroke:none;stroke-width:1.0;" d="M52.350 41.250 C52.190 40.900 52.000 40.590 51.740 40.330 C51.490 40.080 51.180 39.890 50.850 39.730 C50.500 39.600 50.110 39.520 49.700 39.520 C49.280 39.520 48.890 39.600 48.560 39.730 C48.210 39.890 47.920 40.100 47.660 40.350 C47.410 40.610 47.220 40.920 47.080 41.250 C46.950 41.600 46.850 41.970 46.830 42.350 L52.600 42.350 C52.580 41.970 52.480 41.600 52.350 41.250 ZM52.730 47.690 C51.980 48.260 51.040 48.550 49.900 48.550 C49.100 48.550 48.400 48.410 47.820 48.160 C47.220 47.910 46.730 47.540 46.330 47.070 C45.920 46.610 45.630 46.040 45.430 45.400 C45.220 44.760 45.100 44.040 45.080 43.290 C45.080 42.530 45.200 41.830 45.430 41.190 C45.660 40.550 45.990 40.000 46.420 39.540 C46.830 39.070 47.330 38.700 47.920 38.450 C48.480 38.200 49.120 38.060 49.800 38.060 C50.690 38.060 51.430 38.240 52.030 38.610 C52.620 38.980 53.080 39.460 53.450 40.020 C53.800 40.590 54.050 41.210 54.190 41.890 C54.330 42.570 54.370 43.210 54.350 43.810 L46.830 43.810 C46.810 44.260 46.870 44.670 46.990 45.050 C47.100 45.460 47.300 45.810 47.550 46.100 C47.800 46.410 48.130 46.670 48.540 46.840 C48.950 47.020 49.410 47.110 49.960 47.110 C50.660 47.110 51.240 46.960 51.680 46.630 C52.130 46.300 52.420 45.810 52.560 45.150 L54.190 45.150 C53.980 46.280 53.490 47.130 52.730 47.690 "/>
  <path style="fill:rgb(2,167,252);stroke:none;stroke-width:1.0;" d="M62.190 41.250 C62.030 40.900 61.840 40.590 61.580 40.330 C61.330 40.080 61.020 39.890 60.690 39.730 C60.340 39.600 59.950 39.520 59.540 39.520 C59.120 39.520 58.730 39.600 58.400 39.730 C58.050 39.890 57.760 40.100 57.510 40.350 C57.250 40.610 57.060 40.920 56.920 41.250 C56.790 41.600 56.690 41.970 56.670 42.350 L62.440 42.350 C62.420 41.970 62.320 41.600 62.190 41.250 L62.190 41.250 ZM62.580 47.690 C61.820 48.260 60.890 48.550 59.740 48.550 C58.940 48.550 58.240 48.410 57.660 48.160 C57.060 47.910 56.580 47.540 56.170 47.070 C55.760 46.610 55.470 46.040 55.270 45.400 C55.060 44.760 54.940 44.040 54.920 43.290 C54.920 42.530 55.040 41.830 55.270 41.190 C55.510 40.550 55.840 40.000 56.260 39.540 C56.670 39.070 57.180 38.700 57.760 38.450 C58.320 38.200 58.960 38.060 59.640 38.060 C60.540 38.060 61.270 38.240 61.880 38.610 C62.460 38.980 62.920 39.460 63.290 40.020 C63.640 40.590 63.900 41.210 64.030 41.890 C64.170 42.570 64.210 43.210 64.190 43.810 L56.670 43.810 C56.650 44.260 56.710 44.670 56.830 45.050 C56.940 45.460 57.140 45.810 57.390 46.100 C57.640 46.410 57.970 46.670 58.380 46.840 C58.790 47.020 59.250 47.110 59.800 47.110 C60.500 47.110 61.080 46.960 61.530 46.630 C61.970 46.300 62.260 45.810 62.400 45.150 L64.030 45.150 C63.820 46.280 63.330 47.130 62.580 47.690 "/>
  <path style="fill:rgb(2,167,252);stroke:none;stroke-width:1.0;" d="M66.520 38.290 L66.520 40.410 L66.560 40.410 C66.970 39.600 67.450 38.990 68.040 38.610 C68.620 38.220 69.360 38.040 70.250 38.060 L70.250 39.810 C69.590 39.810 69.030 39.910 68.560 40.080 C68.090 40.260 67.720 40.530 67.430 40.880 C67.140 41.230 66.950 41.650 66.810 42.140 C66.680 42.640 66.620 43.230 66.620 43.870 L66.620 48.330 L64.970 48.330 L64.970 38.290 "/>
  <path style="fill:rgb(2,167,252);stroke:none;stroke-width:1.0;" d="M71.850 47.580 C71.450 47.360 71.140 47.050 70.920 46.680 C70.710 46.320 70.590 45.910 70.530 45.420 C70.480 44.940 70.480 44.450 70.510 43.930 L69.660 43.930 C69.660 44.450 69.700 44.980 69.760 45.540 C69.820 46.100 69.970 46.610 70.220 47.070 C70.470 47.540 70.860 47.930 71.390 48.220 C71.910 48.510 72.650 48.670 73.580 48.670 C74.220 48.670 74.770 48.590 75.210 48.430 C75.640 48.280 75.990 48.060 76.280 47.810 C76.570 47.560 76.790 47.290 76.940 46.960 C77.080 46.630 77.190 46.300 77.270 45.950 C77.330 45.620 77.370 45.270 77.390 44.940 C77.390 44.610 77.390 44.300 77.390 44.020 L77.390 34.470 L76.530 34.470 L76.530 43.730 C76.530 44.220 76.530 44.700 76.520 45.190 C76.500 45.690 76.380 46.140 76.200 46.550 C76.030 46.960 75.720 47.290 75.310 47.540 C74.880 47.790 74.280 47.930 73.490 47.930 C72.810 47.930 72.260 47.810 71.850 47.580 "/>
  <path style="fill:rgb(168,168,168);stroke:none;stroke-width:1.0;" d="M450.140 749.370 L554.740 749.370 L554.230 749.880 L450.650 749.880 "/>
  <path style="fill:rgb(168,168,168);stroke:none;stroke-width:1.0;" d="M554.740 749.370 L554.740 757.020 L554.230 756.510 L554.230 749.880 "/>
  <path style="fill:rgb(168,168,168);stroke:none;stroke-width:1.0;" d="M554.740 757.020 L450.140 757.020 L450.650 756.510 L554.230 756.510 "/>
  <path style="fill:rgb(168,168,168);stroke:none;stroke-width:1.0;" d="M450.140 757.020 L450.140 749.370 L450.650 749.880 L450.650 756.510 "/>
  <g begin="text">
   <text y="756.567" x="33.846,39.817,42.704,47.654,50.075,55.457,58.224,63.173,66.0434,68.769,73.719,76.14,78.5619,81.241,84.129,89.078,93.884,98.533,103.482,106.369" svgx:width="0.67,0.32,0.55,0.27,0.6,0.55,0.55,0.32,0.55,0.55,0.27,0.27,0.55,0.32,0.55,0.55,0.55,0.55,0.32,0.27" style="fill:rgb(51,51,51);font-family:AdvTT5bc682ca.B;font-size:8.97px;stroke:none;">Stein et al. (2019),</text>
  </g>
  <g begin="text">
   <text y="756.567" x="111.515,117.355,122.304,127.254,130.706" svgx:width="0.67,0.55,0.55,0.38,0.55" style="fill:rgb(51,51,51);font-family:AdvTT3978f921.BI;font-size:8.97px;stroke:none;">PeerJ</text>
  </g>
  <g begin="text">
   <text y="756.567" x="135.667,138.0889,140.826,147.264,154.168,156.5899,159.252,163.957,168.907,171.328,176.277,181.226,185.501,190.45,192.871,198.287,203.236,208.185,211.638,214.058,216.479,221.429,226.378,231.328" svgx:width="0.27,0.55,0.72,0.77,0.27,0.55,0.55,0.55,0.27,0.55,0.55,0.55,0.55,0.27,0.6,0.55,0.55,0.38,0.27,0.27,0.55,0.55,0.55,0.55" style="fill:rgb(51,51,51);font-family:AdvTT5bc682ca.B;font-size:8.97px;stroke:none;">, DOI 10.7717/peerj.7378</text>
  </g>
  <g begin="text">
   <text y="756.567" x="555.876,560.826,565.775,568.196,573.145" svgx:width="0.55,0.55,0.27,0.55,0.55" style="fill:rgb(0,166,252);font-family:AdvTT5bc682ca.B;font-size:8.97px;stroke:none;">23/23</text>
  </g>
 </g>
</svg>
