<?xml version="1.0" encoding="UTF-8"?>
<svg height="740.545" width="4151.732" xmlns="http://www.w3.org/2000/svg">
 <g id="page" xmlns:svgx="http://www.xml-cml.org/schema/svgx">
  <g begin="text">
   <text y="63.553" x="141.732,146.713,151.067,158.738,163.092,168.151,172.5334,174.614,177.304,182.284,184.365,187.055,191.409,195.762,200.744,205.097,209.027,211.517,213.618,216.826,220.034,225.015,227.705,230.395,234.231,236.721,238.847,243.2,248.181,253.161,255.288,260.844,265.825,272.978,277.332,280.54,284.32480000000004,286.526" svgx:width="0.5,0.44,0.77,0.44,0.5,0.44,0.55,0.27,0.5,0.55,0.27,0.44,0.44,0.5,0.44,0.38,0.25,0.55,0.32,0.32,0.5,0.27,0.27,0.38,0.25,0.55,0.44,0.5,0.5,0.55,0.55,0.5,0.72,0.44,0.32,0.38,0.55,0.32" style="fill:rgb(0,0,0);font-family:AdvOTb0c9bf5d;font-size:9.96px;stroke:none;">damage to leaves, fruits, and ﬂowers (</text>
   <text y="63.553" x="289.701,296.336,300.689,303.987,308.341,316.012,320.993,324.201,326.89020000000005,329.045,333.399,336.08820000000003,338.173,342.526,345.216,347.707,350.197,352.346,357.327,362.308,367.289" svgx:width="0.67,0.44,0.32,0.44,0.77,0.5,0.32,0.27,0.55,0.44,0.27,0.55,0.44,0.27,0.25,0.25,0.55,0.5,0.5,0.5,0.5" style="fill:rgb(0,122,173);font-family:AdvOTb0c9bf5d;font-size:9.96px;stroke:none;">Caramori et al., 1986</text>
   <text y="63.553" x="372.302" svgx:width="0.27" style="fill:rgb(0,0,0);font-family:AdvOTb0c9bf5d;font-size:9.96px;stroke:none;">;</text>
   <text y="63.553" x="377.121,383.756,388.109,395.781,400.134,403.342,408.415,413.396,415.886,417.939,422.921,427.902,432.963" svgx:width="0.67,0.44,0.77,0.44,0.32,0.5,0.5,0.25,0.55,0.5,0.5,0.5,0.5" style="fill:rgb(0,122,173);font-family:AdvOTb0c9bf5d;font-size:9.96px;stroke:none;">Camargo, 1985</text>
   <text y="63.553" x="437.952" svgx:width="0.27" style="fill:rgb(0,0,0);font-family:AdvOTb0c9bf5d;font-size:9.96px;stroke:none;">;</text>
   <text y="63.553" x="442.714,449.867,454.221,461.892,466.246,468.936" svgx:width="0.72,0.44,0.77,0.44,0.27,0.44" style="fill:rgb(0,122,173);font-family:AdvOTb0c9bf5d;font-size:9.96px;stroke:none;">Damata</text>
   <text y="78.519" x="141.733,146.087,148.7762,151.257,155.611,158.301,160.792,163.282,165.771,170.752,175.734,180.715" svgx:width="0.44,0.27,0.55,0.44,0.27,0.25,0.25,0.55,0.5,0.5,0.5,0.5" style="fill:rgb(0,122,173);font-family:AdvOTb0c9bf5d;font-size:9.96px;stroke:none;">et al., 2007</text>
   <text y="78.519" x="185.727,188.935,191.6242,194.118,198.471,203.453,208.433,210.955,213.645,218.627,223.608,226.298,229.506,233.859,238.213,240.903,243.723,248.705,251.19500000000002,253.644,256.334,261.315,265.6974,268.158,275.311,278.001,282.982,287.96200000000005,290.495,298.166,302.52,307.5,309.996,314.978,318.186,322.539,326.893,331.873,334.431,337.121,342.102,346.4844,348.944,353.926,356.615,360.969,365.95,368.6392,371.168,373.858,376.548,380.383,384.219,389.2,393.554,397.3388,399.911,403.119,407.473,411.826,414.516,417.206,419.896,422.701,427.055,429.745,432.435,437.416,442.396,444.868,449.914,452.604,456.44,460.793,465.147,468.983" svgx:width="0.32,0.27,0.55,0.44,0.5,0.5,0.55,0.27,0.5,0.5,0.27,0.32,0.44,0.44,0.27,0.27,0.5,0.25,0.55,0.27,0.5,0.44,0.55,0.72,0.27,0.5,0.5,0.55,0.77,0.44,0.5,0.55,0.5,0.32,0.44,0.44,0.5,0.55,0.27,0.5,0.44,0.55,0.5,0.27,0.44,0.5,0.27,0.55,0.27,0.27,0.38,0.38,0.5,0.44,0.38,0.55,0.32,0.44,0.44,0.27,0.27,0.27,0.27,0.44,0.27,0.27,0.5,0.5,0.55,0.5,0.27,0.38,0.44,0.44,0.38,0.44" style="fill:rgb(0,0,0);font-family:AdvOTb0c9bf5d;font-size:9.96px;stroke:none;">); and indirectly, the wind may break the plant tissues facilitating disease</text>
   <text y="93.486" x="141.733,144.423,149.404,152.612,156.966,161.405,164.095,166.785,171.766,176.748,180.583,183.073,189.354,198.689,201.379,206.361,211.34099999999998,217.587,221.941,226.942,233.009,237.362,241.74439999999998,247.975,251.811,254.501,257.709,262.063,265.898,269.68280000000004,275.981,280.335,283.025,286.86,291.84000000000003,298.148,301.356,305.71,310.691,315.672,320.026,324.38,328.1648,334.488,337.178,341.531,345.885,349.0722,355.407,359.761,362.969,367.322,371.7044,377.97,382.324,387.305,392.285,398.493,403.475,407.828,412.81,417.259,419.949,424.303,426.992,429.682,434.664,439.0464,445.265,450.246,453.454,458.435,465.674,468.364" svgx:width="0.27,0.5,0.32,0.44,0.44,0.27,0.27,0.5,0.5,0.38,0.25,0.55,0.94,0.27,0.5,0.5,0.55,0.44,0.5,0.6,0.44,0.44,0.55,0.38,0.27,0.32,0.44,0.38,0.38,0.55,0.44,0.27,0.38,0.5,0.55,0.32,0.44,0.5,0.5,0.44,0.44,0.38,0.55,0.27,0.44,0.44,0.32,0.55,0.44,0.32,0.44,0.44,0.55,0.44,0.5,0.5,0.55,0.5,0.44,0.5,0.44,0.27,0.44,0.27,0.27,0.5,0.44,0.55,0.5,0.32,0.5,0.72,0.27,0.5" style="fill:rgb(0,0,0);font-family:AdvOTb0c9bf5d;font-size:9.96px;stroke:none;">infections. Wind coﬀee stress also reduces leaf area and vegetative growth</text>
   <text y="108.396" x="141.733" svgx:width="0.32" style="fill:rgb(0,0,0);font-family:AdvOTb0c9bf5d;font-size:9.96px;stroke:none;">(</text>
   <text y="108.396" x="144.965,151.6,155.954,159.162,163.515,171.187,176.259,179.467,182.1562,184.536,188.889,191.5782,194.003,198.357,201.047,203.537,206.02700000000002,208.46,213.441,218.422,223.404" svgx:width="0.67,0.44,0.32,0.44,0.77,0.5,0.32,0.27,0.55,0.44,0.27,0.55,0.44,0.27,0.25,0.25,0.55,0.5,0.5,0.5,0.5" style="fill:rgb(0,122,173);font-family:AdvOTb0c9bf5d;font-size:9.96px;stroke:none;">Caramori et al., 1986</text>
   <text y="108.396" x="228.417,231.625,234.115,236.523,243.677,248.658,251.3472,253.758,260.911,263.601,268.582,273.563,277.3478,279.836,282.526,287.507,291.861,295.069,299.508,303.862,307.697,312.0794,314.475,318.828,323.81,328.163,333.145,338.126,340.816,344.024,348.378,353.359,357.194,362.176,364.987,368.195,372.549,375.239,377.929,382.91,387.89000000000004,390.328,393.536,397.89,402.871,407.852,410.624,413.832,416.522,421.503,426.483,428.878,436.55,441.531,444.739,449.1214,451.555,458.708,463.062,465.752,470.106" svgx:width="0.32,0.25,0.55,0.72,0.5,0.27,0.55,0.72,0.27,0.5,0.5,0.38,0.55,0.27,0.5,0.44,0.32,0.44,0.44,0.38,0.44,0.55,0.44,0.5,0.44,0.5,0.5,0.27,0.32,0.44,0.5,0.38,0.5,0.27,0.32,0.44,0.27,0.27,0.5,0.5,0.55,0.32,0.44,0.5,0.5,0.27,0.32,0.27,0.5,0.5,0.55,0.77,0.5,0.32,0.44,0.55,0.72,0.44,0.27,0.44,0.32" style="fill:rgb(0,0,0);font-family:AdvOTb0c9bf5d;font-size:9.96px;stroke:none;">). Hot winds increase evapotranspiration requiring more water</text>
   <text y="123.363" x="141.734,144.942,148.15,153.131,160.8002,163.844,167.052,171.406,174.096,179.077,182.383,186.736,189.426,192.1152,195.139,200.12,203.3072,206.307,210.66,213.868,216.558,219.347,224.846,229.2,231.89,236.243,238.9322,241.967,244.657,247.865,251.073,253.763,258.744,263.098,265.788,268.477,273.601,278.581,281.538" svgx:width="0.32,0.32,0.5,0.77,0.55,0.32,0.44,0.27,0.5,0.32,0.44,0.27,0.27,0.55,0.5,0.32,0.55,0.44,0.32,0.27,0.27,0.55,0.44,0.27,0.44,0.27,0.55,0.27,0.32,0.32,0.27,0.5,0.44,0.27,0.27,0.5,0.5,0.55,0.32" style="fill:rgb(0,0,0);font-family:AdvOTb0c9bf5d;font-size:9.96px;stroke:none;">from rainfall or artiﬁcial irrigation (</text>
   <text y="123.363" x="284.77,291.923,296.277,305.18,309.533,312.223,314.913,319.267,321.757,324.795,329.776,334.758,339.739" svgx:width="0.72,0.44,0.88,0.44,0.27,0.27,0.44,0.25,0.55,0.5,0.5,0.5,0.5" style="fill:rgb(0,122,173);font-family:AdvOTb0c9bf5d;font-size:9.96px;stroke:none;">DaMatta, 2004</text>
   <text y="123.363" x="344.751,347.959" svgx:width="0.32,0.25" style="fill:rgb(0,0,0);font-family:AdvOTb0c9bf5d;font-size:9.96px;stroke:none;">).</text>
   <text y="158.74" x="141.732,147.71,150.699,156.676,159.665,165.642,168.632,173.651,181.613,184.841,189.38580000000002,193.437,200.036,206.635,215.841,219.069,225.046,228.274,231.502" svgx:width="0.5,0.25,0.5,0.25,0.5,0.25,0.55,0.67,0.27,0.38,0.55,0.55,0.55,0.77,0.27,0.5,0.27,0.27,0.44" style="fill:rgb(0,0,0);font-family:AdvOT864ae8b9.BI;font-size:11.96px;stroke:none;">4.1.2. Air humidity</text>
   <text y="181.134" x="141.732,144.94,149.92,151.823,156.177,161.158,166.14,168.829,171.609,174.299,179.28,184.26,186.179,188.869,193.849,195.76,198.45,203.431,206.121,210.475,213.1642,215.093,222.246,224.936,229.917,234.897,236.863,240.071,244.425,249.406,254.387,258.741,261.431,264.121,269.102,274.083,276.57300000000004,278.532,284.031,291.184,296.16400000000004,298.09,302.444,305.134,308.969,313.949,315.891,320.873,324.081,328.434,332.27,336.623,341.686,344.376,348.73,353.71000000000004,355.633,360.614,363.304,368.286,373.267,377.621,380.8082,382.788,385.996,390.35,393.04,397.393,400.083,402.773,407.754,412.13640000000004,414.083,419.064,424.045,431.716,434.492,439.473,442.163,444.853,449.833,451.726,454.416,459.396,461.307,463.997,468.979" svgx:width="0.32,0.5,0.55,0.44,0.5,0.5,0.27,0.27,0.27,0.5,0.5,0.55,0.27,0.5,0.55,0.27,0.5,0.27,0.44,0.27,0.55,0.72,0.27,0.5,0.5,0.55,0.32,0.44,0.5,0.5,0.44,0.27,0.27,0.5,0.5,0.25,0.55,0.55,0.72,0.5,0.55,0.44,0.27,0.38,0.5,0.55,0.5,0.32,0.44,0.38,0.44,0.5,0.27,0.44,0.5,0.55,0.5,0.27,0.5,0.5,0.44,0.32,0.55,0.32,0.44,0.27,0.44,0.27,0.27,0.5,0.44,0.55,0.5,0.5,0.77,0.27,0.5,0.27,0.27,0.5,0.55,0.27,0.5,0.55,0.27,0.5,0.44" style="fill:rgb(0,0,0);font-family:AdvOTb0c9bf5d;font-size:9.96px;stroke:none;">In addition to total wind reduction, SH3 also presented higher relative humidity in the</text>
   <text y="196.101" x="141.732,146.713,149.921,152.611,156.965,160.801,163.4902,166.337,171.318,175.672,178.88,181.57,186.551,191.622,194.11200000000002,196.837,200.673,205.654,210.635,215.617,219.97,223.88,226.57,229.26,234.241,239.221,242.022,244.712,249.693,254.046,256.7352,259.54,262.23,267.211,271.59340000000003,274.393,278.229,283.21,287.564,292.545,296.899,301.88,305.176,310.158,313.366,318.347,325.5,330.48,333.296,337.131,342.113,345.948,348.638,352.992,360.6612,363.512,368.494,371.702,376.055,379.891,384.245,389.308,391.998,396.351,401.331,404.104,411.775,416.757,419.965,424.3474,427.121,432.102,437.083,444.754,447.53,452.511,455.201,457.891,462.87100000000004,465.672,468.362" svgx:width="0.5,0.32,0.27,0.44,0.38,0.27,0.55,0.5,0.44,0.32,0.27,0.5,0.5,0.25,0.55,0.38,0.5,0.5,0.5,0.44,0.38,0.27,0.27,0.5,0.5,0.55,0.27,0.5,0.44,0.27,0.55,0.27,0.5,0.44,0.55,0.38,0.5,0.44,0.5,0.44,0.5,0.32,0.5,0.32,0.5,0.72,0.5,0.55,0.38,0.5,0.38,0.27,0.44,0.77,0.55,0.5,0.32,0.44,0.38,0.44,0.5,0.27,0.44,0.5,0.55,0.77,0.5,0.32,0.44,0.55,0.5,0.5,0.77,0.27,0.5,0.27,0.27,0.5,0.55,0.27,0.5" style="fill:rgb(0,0,0);font-family:AdvOTb0c9bf5d;font-size:9.96px;stroke:none;">driest period, suggesting that the shaded-grown system presented more humidity in</text>
   <text y="211.011" x="141.732,144.422,149.403,153.78539999999998,155.622,160.603,163.811,166.501,170.855,174.69,177.3792,179.262,184.244,188.597,191.805,194.495,199.558,204.53799999999998,206.362,211.343,214.53019999999998,216.339,219.029,224.01,228.39239999999998,230.229,235.21,239.564,243.917,247.125,249.615,251.488,258.641,261.331,264.51820000000004,266.398,271.379,276.361,284.032,286.807,291.789,294.479,297.169,302.149,303.985,308.352,314.361,318.715,323.068,325.758,329.5428,331.482,335.836,340.837,346.846,351.2,355.5824,357.447,362.429,366.782,371.764,376.117,378.807,383.161,385.851,388.541,393.522,398.502,400.42,405.401,408.609,413.591,420.744,423.434,428.41400000000004,430.297,434.651,439.632,444.612,446.454,450.808,455.789,460.143,465.124,470.105" svgx:width="0.27,0.5,0.44,0.55,0.5,0.32,0.27,0.44,0.38,0.27,0.55,0.5,0.44,0.32,0.27,0.5,0.5,0.55,0.5,0.32,0.55,0.27,0.5,0.44,0.55,0.5,0.44,0.44,0.32,0.25,0.55,0.72,0.27,0.32,0.55,0.5,0.5,0.77,0.27,0.5,0.27,0.27,0.5,0.55,0.44,0.6,0.44,0.44,0.27,0.38,0.55,0.44,0.5,0.6,0.44,0.44,0.55,0.5,0.44,0.5,0.44,0.27,0.44,0.27,0.27,0.5,0.5,0.55,0.5,0.32,0.5,0.72,0.27,0.5,0.55,0.44,0.5,0.5,0.55,0.44,0.5,0.44,0.5,0.5,0.32" style="fill:rgb(0,0,0);font-family:AdvOTb0c9bf5d;font-size:9.96px;stroke:none;">the driest period of the year. Air humidity aﬀects coﬀee vegetation growth and evapo-</text>
   <text y="225.977" x="141.732,144.422,147.63,151.984,156.965,160.801,165.883,168.573,171.781,176.135,178.825,181.515,186.496,191.476,193.152" svgx:width="0.27,0.32,0.44,0.5,0.38,0.5,0.27,0.32,0.44,0.27,0.27,0.5,0.5,0.55,0.32" style="fill:rgb(0,0,0);font-family:AdvOTb0c9bf5d;font-size:9.96px;stroke:none;">transpiration (</text>
   <text y="225.977" x="196.384,203.537,207.891,216.708,221.061,223.751,226.544,230.9264,232.496,236.85,239.5392,241.17,245.524,248.213,250.704,253.19400000000002,254.889,259.871,264.852,269.833" svgx:width="0.72,0.44,0.88,0.44,0.27,0.27,0.44,0.55,0.44,0.27,0.55,0.44,0.27,0.25,0.25,0.55,0.5,0.5,0.5,0.5" style="fill:rgb(0,122,173);font-family:AdvOTb0c9bf5d;font-size:9.96px;stroke:none;">DaMatta et al., 2007</text>
   <text y="225.977" x="274.846,278.054,280.544,282.16,288.177,293.159,297.512,300.72,305.074,308.282,313.263,316.572,320.925,323.415,325.076,330.057,333.265,338.246,343.228,348.209,353.19,355.8792,357.56,361.395,364.085,367.293,371.647,375.483,379.2678,380.974,385.328,389.681,394.663,398.498,402.852,407.832,409.547,414.528,419.50800000000004,421.112,423.802,428.784,437.609,442.591,447.572,455.243,458.019,463.0,465.69,468.38" svgx:width="0.32,0.25,0.55,0.6,0.5,0.44,0.32,0.44,0.32,0.5,0.32,0.44,0.25,0.55,0.5,0.32,0.5,0.5,0.5,0.5,0.27,0.55,0.38,0.27,0.32,0.44,0.38,0.38,0.55,0.44,0.44,0.5,0.38,0.44,0.5,0.55,0.5,0.5,0.55,0.27,0.5,0.72,0.5,0.5,0.77,0.27,0.5,0.27,0.27,0.5" style="fill:rgb(0,0,0);font-family:AdvOTb0c9bf5d;font-size:9.96px;stroke:none;">). Therefore, drought stress caused by lowhumidity</text>
   <text y="240.887" x="141.732,146.086,148.776,151.9632,153.865,156.555,160.3398,162.255,167.236,171.59,174.798,182.551,185.759,190.74,193.4292,195.307,197.997,202.977,204.888,209.242,214.242,220.251,224.605,228.98739999999998,230.853,235.834,240.815,245.797,248.486,253.468,257.303,262.285,267.266,269.956,275.016,279.369,283.205,285.895,289.6798,291.626,295.98,300.961,305.94100000000003,307.841,311.049,315.402,319.238,324.219,326.909,330.117,334.471,337.161,339.985,344.966,349.946,351.777" svgx:width="0.44,0.27,0.32,0.55,0.27,0.38,0.55,0.5,0.44,0.32,0.77,0.32,0.5,0.27,0.55,0.27,0.5,0.55,0.44,0.5,0.6,0.44,0.44,0.55,0.5,0.5,0.5,0.27,0.5,0.38,0.5,0.5,0.27,0.5,0.44,0.38,0.27,0.38,0.55,0.44,0.5,0.5,0.55,0.32,0.44,0.38,0.5,0.27,0.32,0.44,0.27,0.27,0.5,0.5,0.55,0.32" style="fill:rgb(0,0,0);font-family:AdvOTb0c9bf5d;font-size:9.96px;stroke:none;">air is harmful to coﬀee photosynthesis and respiration (</text>
   <text y="240.887" x="355.01,362.163,366.516,375.419,379.773,382.462,385.152,389.5344,391.406,395.76,400.741,405.721,407.563,414.198,418.552,426.329,430.683,433.372,438.354,443.335,445.825,447.702,452.683,457.664,462.646" svgx:width="0.72,0.44,0.88,0.44,0.27,0.27,0.44,0.55,0.44,0.5,0.5,0.55,0.67,0.44,0.77,0.44,0.27,0.5,0.5,0.25,0.55,0.5,0.5,0.5,0.5" style="fill:rgb(0,122,173);font-family:AdvOTb0c9bf5d;font-size:9.96px;stroke:none;">DaMatta and Ramalho, 2006</text>
   <text y="240.887" x="467.658,470.866" svgx:width="0.32,0.25" style="fill:rgb(0,0,0);font-family:AdvOTb0c9bf5d;font-size:9.96px;stroke:none;">),</text>
   <text y="255.854" x="141.731,146.085,149.92,154.902,159.255,163.609,166.393,170.746,173.436,176.126,181.106,183.06,185.75,190.73,192.698,195.388,200.369,204.7514,206.701,211.683,214.89,217.58,221.934,225.77,228.4592,230.455,235.436,239.79,242.998,245.688,250.751,255.731,257.667,262.648,265.83520000000004,267.815,270.505,275.486,279.8684,281.818,286.799,291.153,295.507,298.715,301.205,303.191,306.399,311.379,313.339,316.029,321.01,325.3924,327.342,331.178,336.159,340.513,345.494,349.848,354.82800000000003,356.823,360.658,365.012,369.993,374.347,382.108,386.461,390.297,392.78700000000003,394.75,399.732,402.94,407.921,412.902,417.883,422.865,425.55420000000004,427.575,431.411,434.101,437.309,441.662,445.498,449.2828,451.329,455.683,460.664,465.645,468.335" svgx:width="0.44,0.38,0.5,0.44,0.44,0.27,0.44,0.27,0.27,0.5,0.55,0.27,0.5,0.55,0.27,0.5,0.44,0.55,0.5,0.32,0.27,0.44,0.38,0.27,0.55,0.5,0.44,0.32,0.27,0.5,0.5,0.55,0.5,0.32,0.55,0.27,0.5,0.44,0.55,0.5,0.44,0.44,0.32,0.25,0.55,0.32,0.5,0.55,0.27,0.5,0.44,0.55,0.38,0.5,0.44,0.5,0.44,0.5,0.55,0.38,0.44,0.5,0.44,0.77,0.44,0.38,0.25,0.55,0.5,0.32,0.5,0.5,0.5,0.5,0.27,0.55,0.38,0.27,0.32,0.44,0.38,0.38,0.55,0.44,0.5,0.5,0.27,0.5" style="fill:rgb(0,0,0);font-family:AdvOTb0c9bf5d;font-size:9.96px;stroke:none;">especially in the driest period of the year. In the shaded schemes, drought stress could</text>
   <text y="270.821" x="141.731,146.712,151.09439999999998,152.616,155.824,160.178,165.159,170.141,174.494,178.848,183.828,185.441,188.131,193.111,194.626,198.979,203.98,209.989,214.411,218.7934,220.25,225.232,227.922,232.275,237.257,240.036,243.872,246.36200000000002,247.86,255.013,259.993,261.579,264.269,269.25,273.6324,275.128,280.11,282.8,287.781,292.135,295.3222,296.954,301.936,306.289,311.271,316.252,318.742,320.255,322.945,327.926,332.3084,333.861,338.842,343.824,351.495,354.185,359.166,361.856,364.644,369.624,371.164,374.372,378.726,383.707,386.397,390.232,392.922,397.276,400.484,404.952,411.415,414.105,419.08500000000004,420.656,426.155,433.309,438.28900000000004,439.818,444.172,449.153,454.13300000000004,455.692,461.191,468.344" svgx:width="0.5,0.44,0.55,0.32,0.44,0.5,0.5,0.44,0.44,0.5,0.55,0.27,0.5,0.55,0.44,0.5,0.6,0.44,0.44,0.55,0.5,0.27,0.44,0.5,0.27,0.38,0.25,0.55,0.72,0.5,0.55,0.27,0.5,0.44,0.55,0.5,0.27,0.5,0.44,0.32,0.55,0.5,0.44,0.5,0.5,0.25,0.55,0.27,0.5,0.44,0.55,0.5,0.5,0.77,0.27,0.5,0.27,0.27,0.5,0.55,0.32,0.44,0.5,0.27,0.38,0.27,0.44,0.32,0.44,0.5,0.27,0.5,0.55,0.55,0.72,0.5,0.55,0.44,0.5,0.5,0.55,0.55,0.72,0.5" style="fill:rgb(0,0,0);font-family:AdvOTb0c9bf5d;font-size:9.96px;stroke:none;">be reduced to coﬀee plants. On the other hand, the humidity registeredin SH2 and SH3</text>
   <text y="285.731" x="141.731,148.884,153.238,157.0228,158.966,163.947,168.928,171.6172,173.536,178.517,182.871,186.079,191.059,192.981,197.962,200.652,205.633,210.613,212.483,215.172,220.152,222.064,225.272,229.625,232.315,237.296,242.27599999999998,244.174,248.009,252.363,256.716,260.552,265.533,270.592,273.082,274.958,278.794,283.775,288.756,293.737,298.091,302.0,304.69,307.38,312.362,317.34200000000004,319.235,321.925,326.906,331.26,333.9492,335.902,338.592,343.573,347.9554,349.792,353.628,358.609,362.963,367.944,372.298,377.278,379.216,383.051,387.405,392.386,396.74,404.501,408.854,412.6388,414.535,419.516,424.49600000000004,426.384,431.365,436.346,439.03520000000003,440.954,444.162,448.515,451.205,455.041,459.4234,461.306,463.996,468.978" svgx:width="0.72,0.44,0.38,0.55,0.5,0.5,0.27,0.55,0.5,0.44,0.32,0.5,0.55,0.5,0.27,0.5,0.5,0.55,0.27,0.5,0.55,0.32,0.44,0.27,0.5,0.5,0.55,0.38,0.44,0.44,0.38,0.5,0.5,0.25,0.55,0.38,0.5,0.5,0.5,0.44,0.38,0.27,0.27,0.5,0.5,0.55,0.27,0.5,0.44,0.27,0.55,0.27,0.5,0.44,0.55,0.38,0.5,0.44,0.5,0.44,0.5,0.55,0.38,0.44,0.5,0.44,0.77,0.44,0.38,0.55,0.5,0.5,0.55,0.5,0.5,0.27,0.55,0.32,0.44,0.27,0.38,0.44,0.55,0.27,0.5,0.44" style="fill:rgb(0,0,0);font-family:AdvOTb0c9bf5d;font-size:9.96px;stroke:none;">was not very high in rainy season, suggesting that the shaded schemes do not raise the</text>
   <text y="300.698" x="141.731,146.713,151.694,159.365,162.055,167.129,169.819,172.509,177.48899999999998,180.338,184.174,186.864,191.845,196.826,199.558,205.057,209.411,213.765,218.746,221.436,224.22,229.2,232.043,234.733,239.713,242.531,245.221,250.202,254.5844,257.441,264.594,267.802,272.237,277.219,279.908,284.262,288.6444,291.456,295.81,300.811,306.877,311.231,315.6134,318.443,322.797,327.15,332.132,337.113,342.094,347.075,349.565,352.458,358.476,363.457,366.147,369.9318,372.868,375.557,379.34180000000003,382.221,386.575,390.411,395.392,399.746,404.099,406.883,411.237,413.926,416.616,421.596,424.458,427.148,434.819,439.878,444.859,448.067,450.757,455.111,460.092,462.7812,465.673,468.363" svgx:width="0.5,0.5,0.77,0.27,0.5,0.27,0.27,0.5,0.55,0.38,0.27,0.5,0.5,0.27,0.55,0.44,0.44,0.5,0.27,0.27,0.5,0.55,0.27,0.5,0.55,0.27,0.5,0.44,0.55,0.72,0.32,0.44,0.5,0.27,0.44,0.44,0.55,0.44,0.5,0.6,0.44,0.44,0.55,0.44,0.44,0.5,0.5,0.5,0.5,0.25,0.55,0.6,0.5,0.27,0.38,0.55,0.27,0.38,0.55,0.44,0.38,0.5,0.44,0.44,0.27,0.44,0.27,0.27,0.5,0.55,0.27,0.77,0.5,0.5,0.32,0.27,0.44,0.5,0.27,0.55,0.27,0.5" style="fill:rgb(0,0,0);font-family:AdvOTb0c9bf5d;font-size:9.96px;stroke:none;">humidity signiﬁcantly in the Arabica coﬀee canopy. This is especially important to</text>
   <text y="315.608" x="141.731,146.085,151.066,156.047,158.737,163.71699999999998,165.883,170.864,173.554,177.389,181.743,186.178,190.014,194.368,198.15279999999998,200.351" svgx:width="0.44,0.5,0.5,0.27,0.5,0.55,0.5,0.27,0.38,0.44,0.44,0.38,0.44,0.38,0.55,0.32" style="fill:rgb(0,0,0);font-family:AdvOTb0c9bf5d;font-size:9.96px;stroke:none;">avoid diseases (</text>
   <text y="315.608" x="203.583,209.082,211.772,216.126,221.107,225.461,228.6482,230.852,235.205,237.8942,240.036,244.39,247.08,249.57,252.06,254.209,259.19,264.172,269.153" svgx:width="0.55,0.27,0.44,0.5,0.44,0.32,0.55,0.44,0.27,0.55,0.44,0.27,0.25,0.25,0.55,0.5,0.5,0.5,0.5" style="fill:rgb(0,122,173);font-family:AdvOTb0c9bf5d;font-size:9.96px;stroke:none;">Staver et al., 2001</text>
   <text y="315.608" x="274.165,277.373,279.863,281.989,286.342,291.324,296.30400000000003,298.429,303.41,308.392,313.373,317.727,320.9142,323.09,325.78,330.762,335.115,339.469,342.1582,344.35,348.703,353.685,358.666,363.647,366.337,369.124,371.814,376.795,381.776,385.612,388.10200000000003,390.213,397.367,400.575,405.01,409.991,412.681,417.035,421.41740000000004,423.548,427.902,432.904,438.914,443.267,447.6494,449.799,454.78,457.47,461.824,466.805,469.495" svgx:width="0.32,0.25,0.55,0.44,0.5,0.5,0.55,0.5,0.5,0.5,0.44,0.32,0.55,0.27,0.5,0.44,0.44,0.27,0.55,0.44,0.5,0.5,0.5,0.27,0.27,0.27,0.5,0.5,0.38,0.25,0.55,0.72,0.32,0.44,0.5,0.27,0.44,0.44,0.55,0.44,0.5,0.6,0.44,0.44,0.55,0.5,0.27,0.44,0.5,0.27,0.38" style="fill:rgb(0,0,0);font-family:AdvOTb0c9bf5d;font-size:9.96px;stroke:none;">), and under ideal conditions, Arabica coﬀee plants</text>
   <text y="330.575" x="141.73,146.712,149.92,154.273,157.481,161.835,165.0222,167.525,170.215,175.197,182.3682,184.76,189.113,191.803,199.556,204.537,208.373,213.354,218.336,222.689,225.897,228.587,232.96939999999998,235.386,240.367,245.348,253.019,255.795,260.776,263.466,266.156,271.136,273.539,276.229,281.209,283.631,286.32,291.302,295.655,298.3442,300.808,307.961,312.943,317.296,320.504,324.88640000000004,327.284,331.637,336.696,342.706,347.059,351.44140000000004,353.817,358.798,362.006,364.696,369.678,372.367,377.349,381.1338,383.637" svgx:width="0.5,0.32,0.44,0.32,0.44,0.32,0.55,0.27,0.5,0.72,0.55,0.44,0.27,0.77,0.5,0.38,0.5,0.5,0.44,0.32,0.27,0.44,0.55,0.5,0.5,0.77,0.27,0.5,0.27,0.27,0.5,0.55,0.27,0.5,0.55,0.27,0.5,0.44,0.27,0.55,0.72,0.5,0.44,0.32,0.44,0.55,0.44,0.5,0.6,0.44,0.44,0.55,0.5,0.32,0.27,0.5,0.27,0.5,0.38,0.55,0.32" style="fill:rgb(0,0,0);font-family:AdvOTb0c9bf5d;font-size:9.96px;stroke:none;">prefer low atmospheric humidity to that where coﬀee origins (</text>
   <text y="330.575" x="386.869,394.022,398.376,407.278,411.632,414.322,417.012,421.3944,423.775,428.129,430.81820000000005,433.243,437.597,440.287,442.777,445.267,447.7,452.681,457.662,462.644" svgx:width="0.72,0.44,0.88,0.44,0.27,0.27,0.44,0.55,0.44,0.27,0.55,0.44,0.27,0.25,0.25,0.55,0.5,0.5,0.5,0.5" style="fill:rgb(0,122,173);font-family:AdvOTb0c9bf5d;font-size:9.96px;stroke:none;">DaMatta et al., 2007</text>
   <text y="330.575" x="467.656,470.864" svgx:width="0.32,0.25" style="fill:rgb(0,0,0);font-family:AdvOTb0c9bf5d;font-size:9.96px;stroke:none;">).</text>
   <text y="365.953" x="141.732,147.71,150.699,156.676,159.665,165.642,168.632,173.651,180.872,186.096,195.302,201.279,206.504,211.106,217.084,220.312,226.911,231.514" svgx:width="0.5,0.25,0.5,0.25,0.5,0.25,0.55,0.6,0.44,0.77,0.5,0.44,0.38,0.5,0.27,0.55,0.38,0.44" style="fill:rgb(0,0,0);font-family:AdvOT864ae8b9.BI;font-size:11.96px;stroke:none;">4.1.3. Temperature</text>
   <text y="388.346" x="141.732,148.885,151.575,154.265,159.246,164.228,169.209,174.273,179.253,183.23,190.384,193.073,198.055,203.035,207.041,210.877,215.858,220.212,224.565,229.545,233.573,237.927,242.908,247.88799999999998,251.885,256.238,258.928,262.1152,266.171,271.152,276.134,283.805,286.495,291.476,294.166,296.954,301.934,305.912,310.893,314.101,318.455,322.29,326.644,331.707,334.397,338.75,343.73,347.694,351.53,354.219,359.201,364.182,366.973,372.472,376.826,381.179,386.161,388.85020000000003,392.881,396.089,400.443,405.424,410.406,414.759,417.449,420.139,425.12,430.1,434.153,436.843,441.82300000000004,445.832,449.667,454.648,459.002,463.983,468.337" svgx:width="0.72,0.27,0.27,0.5,0.5,0.5,0.5,0.5,0.55,0.72,0.27,0.5,0.5,0.55,0.38,0.5,0.44,0.44,0.5,0.55,0.44,0.5,0.5,0.55,0.44,0.27,0.32,0.55,0.5,0.5,0.77,0.27,0.5,0.27,0.27,0.5,0.55,0.5,0.32,0.44,0.38,0.44,0.5,0.27,0.44,0.5,0.55,0.38,0.27,0.5,0.5,0.27,0.55,0.44,0.44,0.5,0.27,0.55,0.32,0.44,0.5,0.5,0.44,0.27,0.27,0.5,0.5,0.55,0.27,0.5,0.55,0.38,0.5,0.44,0.5,0.44,0.5" style="fill:rgb(0,0,0);font-family:AdvOTb0c9bf5d;font-size:9.96px;stroke:none;">Although wind speed and air humidity presented signiﬁcant reduction in shaded</text>
   <text y="403.313" x="141.733,144.423,147.631,151.985,156.338,159.028,166.699,171.053,176.145,178.835,182.67,185.16,188.901,193.255,197.09,202.072,206.425,210.779,213.562,217.916,220.606,223.296,228.27599999999998,232.044,237.543,244.697,249.678,252.168,255.968,260.322,265.303,272.974,277.956,282.387,285.595,288.285,293.266,298.24600000000004,302.002,304.692,309.672,313.454,316.662,321.644,324.334,327.02320000000003,330.802,334.638,339.619,344.59900000000005,348.321,352.156,357.137,360.973,363.741,368.094,375.766,378.25600000000003,381.995,384.685,389.666,394.0484,397.813,400.503,403.193,408.174,413.155,415.8442,419.639,422.847,427.2,432.182,437.163,441.517,444.207,446.897,451.878,456.858,460.684,465.665,468.355" svgx:width="0.27,0.32,0.44,0.44,0.27,0.77,0.44,0.5,0.27,0.38,0.25,0.55,0.44,0.38,0.5,0.44,0.44,0.27,0.44,0.27,0.27,0.5,0.55,0.55,0.72,0.5,0.25,0.55,0.44,0.5,0.77,0.5,0.44,0.32,0.27,0.5,0.5,0.55,0.27,0.5,0.55,0.32,0.5,0.27,0.27,0.55,0.38,0.5,0.5,0.55,0.38,0.5,0.38,0.27,0.44,0.77,0.25,0.55,0.27,0.5,0.44,0.55,0.27,0.27,0.5,0.5,0.27,0.55,0.32,0.44,0.5,0.5,0.44,0.27,0.27,0.5,0.5,0.55,0.5,0.27,0.5" style="fill:rgb(0,0,0);font-family:AdvOTb0c9bf5d;font-size:9.96px;stroke:none;">treatments, especially SH3, comparing to full sun system, the light reduction did</text>
   <text y="418.223" x="141.733,146.714,151.696,154.3852,157.891,162.872,167.225,171.579,174.787,179.141,183.494,187.427,191.80939999999998,195.25,197.94,202.921,207.30339999999998,210.784,213.474,217.827,225.58,230.562,234.915,238.123,242.477,245.253,250.234,253.442,257.8244,261.296,265.132,267.822,272.803,277.784,280.517,286.017,290.37,294.724,299.705,302.395,305.179,310.16,312.65000000000003,316.121,320.474,324.2588,327.8,332.781,337.834,341.67,346.023,349.231,354.213,358.566,363.546,367.087,369.777,374.757,378.255,383.237,386.445,390.798,395.78,398.469,403.451,408.432,412.21680000000003,415.842,419.678,422.368,427.349,432.33,435.02,439.374,443.21,445.7,449.234,456.387,461.368,465.722,469.02" svgx:width="0.5,0.5,0.27,0.55,0.5,0.44,0.44,0.32,0.44,0.44,0.38,0.44,0.55,0.27,0.5,0.44,0.55,0.27,0.44,0.77,0.5,0.44,0.32,0.44,0.27,0.5,0.32,0.44,0.55,0.38,0.27,0.5,0.5,0.27,0.55,0.44,0.44,0.5,0.27,0.27,0.5,0.25,0.55,0.44,0.38,0.55,0.5,0.5,0.38,0.44,0.32,0.5,0.44,0.5,0.55,0.27,0.5,0.55,0.5,0.32,0.44,0.5,0.27,0.5,0.5,0.38,0.55,0.38,0.27,0.5,0.5,0.27,0.44,0.38,0.25,0.55,0.72,0.5,0.44,0.32,0.44" style="fill:rgb(0,0,0);font-family:AdvOTb0c9bf5d;font-size:9.96px;stroke:none;">not decrease the temperature signiﬁcantly, as observed in previous studies, where</text>
   <text y="433.19" x="141.734,144.424,148.778,156.449,161.43,165.885,169.092,173.446,176.136,181.117,184.325,188.70739999999998,193.437,196.645,200.999,205.98,210.961,215.315,218.098,220.788,225.77,230.75,235.503,242.656,247.01,250.79479999999998,255.572,259.407,264.389,269.37,273.724,276.932,279.722,284.703,287.8902,292.591,295.281,300.261,305.006" svgx:width="0.27,0.44,0.77,0.5,0.44,0.32,0.44,0.27,0.5,0.32,0.44,0.55,0.32,0.44,0.5,0.5,0.44,0.27,0.27,0.5,0.5,0.55,0.72,0.44,0.38,0.55,0.38,0.5,0.5,0.44,0.32,0.27,0.5,0.32,0.55,0.27,0.5,0.55,0.5" style="fill:rgb(0,0,0);font-family:AdvOTb0c9bf5d;font-size:9.96px;stroke:none;">temperature reduction was superior to 2</text>
   <text y="429.562" code="1" x="314.702" svgx:width="0.5" style="fill:rgb(0,0,0);font-family:AdvP4C4E74;font-size:6.97px;stroke:none;">?</text>
   <text y="433.19" x="318.728,325.4012,330.066" svgx:width="0.67,0.55,0.32" style="fill:rgb(0,0,0);font-family:AdvOTb0c9bf5d;font-size:9.96px;stroke:none;">C (</text>
   <text y="433.19" x="333.298,339.933,344.287,347.495,350.702,355.056,360.037,364.391,368.17580000000004,373.039,377.392,382.374,387.35400000000004,392.087,397.587,402.008,406.989,409.679,414.66,417.35,419.84000000000003,424.571,429.553,434.534,439.515" svgx:width="0.67,0.44,0.32,0.32,0.44,0.5,0.44,0.38,0.55,0.44,0.5,0.5,0.55,0.55,0.44,0.5,0.27,0.5,0.27,0.25,0.55,0.5,0.5,0.5,0.5" style="fill:rgb(0,122,173);font-family:AdvOTb0c9bf5d;font-size:9.96px;stroke:none;">Barradas and Fanjul, 1986</text>
   <text y="433.19" x="444.529" svgx:width="0.27" style="fill:rgb(0,0,0);font-family:AdvOTb0c9bf5d;font-size:9.96px;stroke:none;">;</text>
   <text y="433.19" x="451.956,457.456,462.437,465.127,470.108" svgx:width="0.55,0.5,0.27,0.5,0.32" style="fill:rgb(0,122,173);font-family:AdvOTb0c9bf5d;font-size:9.96px;stroke:none;">Soto-</text>
   <text y="448.157" x="141.734,147.233,149.923,154.904,157.594,162.57399999999998,164.695,169.048,171.7372,173.879,178.233,180.923,183.413,185.90300000000002,187.995,192.977,197.958,202.939" svgx:width="0.55,0.27,0.5,0.27,0.5,0.55,0.44,0.27,0.55,0.44,0.27,0.25,0.25,0.55,0.5,0.5,0.5,0.5" style="fill:rgb(0,122,173);font-family:AdvOTb0c9bf5d;font-size:9.96px;stroke:none;">Pinto et al., 2000</text>
   <text y="448.157" x="207.951,211.159,213.649,215.775,221.792,226.774,231.1564,233.236,235.926,240.28,247.951,252.932,257.286,260.494,264.848,267.648,272.63,275.837,280.2194,282.274,287.256,291.609,296.591,301.04,306.021,308.711,313.692,316.8792,319.011,321.701,326.68100000000004,328.763,333.117,338.118,344.184,348.538,352.92040000000003,354.956,358.791,363.772,367.608,370.376,374.729,382.4,386.1848,388.347,392.183,394.873,399.854,404.835,407.525,411.879,416.85900000000004,419.018,423.999,428.353,431.561,435.9434,438.067,440.756,444.5408,446.684,449.892,454.246,456.936,461.289,463.979,468.333" svgx:width="0.32,0.25,0.55,0.6,0.5,0.44,0.55,0.27,0.44,0.77,0.5,0.44,0.32,0.44,0.27,0.5,0.32,0.44,0.55,0.5,0.44,0.5,0.44,0.5,0.27,0.5,0.32,0.55,0.27,0.5,0.55,0.44,0.5,0.6,0.44,0.44,0.55,0.38,0.5,0.38,0.27,0.44,0.77,0.38,0.55,0.38,0.27,0.5,0.5,0.27,0.44,0.5,0.55,0.5,0.44,0.32,0.44,0.55,0.27,0.38,0.55,0.32,0.44,0.27,0.44,0.27,0.44,0.5" style="fill:rgb(0,0,0);font-family:AdvOTb0c9bf5d;font-size:9.96px;stroke:none;">). The temperature behavior in coﬀee systems studied here is related</text>
   <text y="463.067" x="141.734,144.424,149.404,151.485,155.321,160.302,164.656,169.637,174.0194,176.147,181.128,185.482,190.463,194.817,199.798,202.488,207.469,210.65619999999998,212.826,217.807,222.789,225.997,228.686,233.668,238.648,240.775,243.465,248.446,252.8284,254.891,259.872,264.226,269.207,271.697,273.769,279.787,284.767,286.865,291.846,296.2,298.89,301.661,306.015,309.2022,311.299,316.281,321.262,326.243,330.597,333.805,337.718,340.408,344.762,349.743,354.723,356.823,359.513,362.203,364.693,366.801,372.3,374.99,379.972,383.807" svgx:width="0.27,0.5,0.55,0.38,0.5,0.44,0.5,0.44,0.55,0.5,0.44,0.5,0.44,0.5,0.27,0.5,0.32,0.55,0.5,0.5,0.32,0.27,0.5,0.5,0.55,0.27,0.5,0.44,0.55,0.5,0.44,0.5,0.25,0.55,0.6,0.5,0.55,0.5,0.44,0.27,0.27,0.44,0.32,0.55,0.5,0.5,0.5,0.44,0.32,0.38,0.27,0.44,0.5,0.5,0.55,0.27,0.27,0.25,0.55,0.55,0.27,0.5,0.38,0.25" style="fill:rgb(0,0,0);font-family:AdvOTb0c9bf5d;font-size:9.96px;stroke:none;">to shade behavior during the day. To better understand it, Figs.</text>
   <text y="463.067" x="388.404" svgx:width="0.5" style="fill:rgb(0,122,173);font-family:AdvOTb0c9bf5d;font-size:9.96px;stroke:none;">7</text>
   <text y="463.067" x="395.434,399.787,404.768" svgx:width="0.44,0.5,0.5" style="fill:rgb(0,0,0);font-family:AdvOTb0c9bf5d;font-size:9.96px;stroke:none;">and</text>
   <text y="463.067" x="411.875" svgx:width="0.5" style="fill:rgb(0,122,173);font-family:AdvOTb0c9bf5d;font-size:9.96px;stroke:none;">8</text>
   <text y="463.067" x="416.864,419.354,421.399,426.38,429.588,433.942,437.778,442.131,447.194,449.884,454.238,459.218,461.31,464.0,468.981" svgx:width="0.25,0.55,0.5,0.32,0.44,0.38,0.44,0.5,0.27,0.44,0.5,0.55,0.27,0.5,0.44" style="fill:rgb(0,0,0);font-family:AdvOTb0c9bf5d;font-size:9.96px;stroke:none;">, presented the</text>
   <text y="478.034" x="141.735,145.571,148.26,155.932,160.913,163.603,167.956,170.761,173.451,178.432,183.41199999999998,185.898,190.879,194.06619999999998,196.556,200.392,205.373,209.727,214.708,219.0904,221.557,226.538,230.968,235.949,240.303,245.284,247.974,252.955,256.1422,258.69,263.671,268.652,271.86,274.55,279.531,284.511,287.035,289.725,294.707,299.0894,301.549,306.53,310.884,315.86400000000003,318.33,321.538,326.51800000000003,328.988,333.969,336.459,338.965,343.947,348.927,351.381,356.362,358.85200000000003,361.358,366.34,371.32,373.774,378.755,381.245,383.751,388.105,393.086,398.06600000000003,400.532,405.513,410.493,413.004" svgx:width="0.38,0.27,0.77,0.5,0.27,0.44,0.27,0.27,0.5,0.5,0.55,0.5,0.32,0.55,0.38,0.5,0.44,0.5,0.44,0.55,0.5,0.44,0.5,0.44,0.5,0.27,0.5,0.32,0.55,0.5,0.5,0.32,0.27,0.5,0.5,0.55,0.27,0.5,0.44,0.55,0.5,0.44,0.5,0.55,0.32,0.5,0.55,0.5,0.25,0.55,0.5,0.5,0.55,0.5,0.25,0.55,0.5,0.5,0.55,0.5,0.25,0.55,0.44,0.5,0.5,0.55,0.5,0.5,0.55,0.5" style="fill:rgb(0,0,0);font-family:AdvOTb0c9bf5d;font-size:9.96px;stroke:none;">simulation of shade behavior during the day (9 h, 12 h, 15 h, and 17 h</text>
   <text y="478.034" x="420.436" svgx:width="0.75" style="fill:rgb(0,0,0);font-family:AdvPS44A44B;font-size:9.96px;stroke:none;">e</text>
   <text y="478.034" x="430.356,433.046,438.028,442.381,446.735,449.42420000000004,451.956,456.938,461.919,466.9,470.108" svgx:width="0.27,0.5,0.44,0.44,0.27,0.55,0.5,0.5,0.5,0.32,0.32" style="fill:rgb(0,0,0);font-family:AdvOTb0c9bf5d;font-size:9.96px;stroke:none;">local hour)</text>
   <text y="492.944" x="141.734,144.942,149.923,153.1102,157.607,161.961,164.651,167.3402,171.837,174.527,179.508,183.8904,188.334,191.024,194.232,198.585,202.939,205.629,213.3,217.654,222.746,225.436,229.271,231.761,236.238,239.446,244.427,247.61419999999998,252.111,254.801,261.955,266.935,271.444,276.425,280.779,283.469,287.822,291.658,294.34720000000004,298.826,303.807" svgx:width="0.32,0.5,0.32,0.55,0.44,0.27,0.27,0.55,0.27,0.5,0.44,0.55,0.27,0.32,0.44,0.44,0.27,0.77,0.44,0.5,0.27,0.38,0.25,0.55,0.32,0.5,0.32,0.55,0.27,0.72,0.5,0.55,0.5,0.44,0.27,0.44,0.38,0.27,0.55,0.5,0.5" style="fill:rgb(0,0,0);font-family:AdvOTb0c9bf5d;font-size:9.96px;stroke:none;">for all the treatments, for two dates: 21</text>
   <text y="488.523" x="308.806,311.683" svgx:width="0.38,0.27" style="fill:rgb(0,0,0);font-family:AdvOTb0c9bf5d;font-size:6.64px;stroke:none;">st</text>
   <text y="492.945" x="318.161,323.142,326.3292,330.86,334.486,339.468,344.449,348.83140000000003,353.253,356.461,363.614,366.304,371.285,373.975,378.424,381.6112,386.078,389.913,394.895,397.584,401.498,404.188,406.878,411.231,415.585,418.793,421.283,425.762,430.115,435.097,440.077,444.583,449.564" svgx:width="0.5,0.32,0.55,0.36,0.5,0.5,0.44,0.55,0.32,0.72,0.27,0.5,0.27,0.44,0.32,0.55,0.38,0.5,0.27,0.38,0.27,0.27,0.44,0.44,0.32,0.25,0.55,0.44,0.5,0.5,0.55,0.5,0.5" style="fill:rgb(0,0,0);font-family:AdvOTb0c9bf5d;font-size:9.96px;stroke:none;">of June (winter solstice), and 23</text>
   <text y="488.523" x="454.564,456.97" svgx:width="0.32,0.5" style="fill:rgb(0,0,0);font-family:AdvOTb0c9bf5d;font-size:6.64px;stroke:none;">rd</text>
   <text y="492.945" x="465.165,470.147" svgx:width="0.5,0.32" style="fill:rgb(0,0,0);font-family:AdvOTb0c9bf5d;font-size:9.96px;stroke:none;">of</text>
   <text y="507.912" x="141.733,147.233,151.587,156.568,159.258,163.611,171.383,176.364,180.718,183.90519999999998,186.009,189.217,194.199,198.552,201.76,206.741,211.095" svgx:width="0.55,0.44,0.5,0.27,0.44,0.77,0.5,0.44,0.32,0.55,0.32,0.5,0.44,0.32,0.5,0.44,0.27" style="fill:rgb(0,0,0);font-family:AdvOTb0c9bf5d;font-size:9.96px;stroke:none;">September (vernal</text>
   <text y="507.912" x="215.887" svgx:width="0.75" style="fill:rgb(0,0,0);font-family:AdvPS44A44B;font-size:9.96px;stroke:none;">e</text>
   <text y="507.912" x="225.411,230.911,235.892,239.1,241.79,246.771,251.83,255.038,259.392,264.373,269.354,272.126,277.107,282.089,287.07,290.278,292.76800000000003,294.86,304.195,308.5774,310.62,315.602,320.583,324.419,328.772,331.98,337.039,341.393,346.373,348.435,351.124,356.106,360.459,363.14820000000003,365.216,369.569,372.25820000000004,374.343,379.325,384.305,386.362,391.34200000000004,393.392,397.745,402.727,407.707,409.776,414.758,419.738,421.795,426.776,429.266,431.319,435.673,440.673,446.683,451.036,455.4184,457.454,461.29,466.271,470.107" svgx:width="0.55,0.5,0.32,0.27,0.5,0.5,0.32,0.44,0.5,0.5,0.27,0.5,0.5,0.5,0.32,0.25,0.55,0.94,0.44,0.55,0.5,0.5,0.38,0.44,0.32,0.5,0.44,0.5,0.55,0.27,0.5,0.44,0.27,0.55,0.44,0.27,0.55,0.5,0.5,0.55,0.5,0.55,0.44,0.5,0.5,0.55,0.5,0.5,0.55,0.5,0.25,0.55,0.44,0.5,0.6,0.44,0.44,0.55,0.38,0.5,0.38,0.32" style="fill:rgb(0,0,0);font-family:AdvOTb0c9bf5d;font-size:9.96px;stroke:none;">Spring-equinox). We observed that at 12 h and 15 h, coﬀee sys-</text>
   <text y="522.822" x="141.733,144.422,148.776,156.447,160.2318,162.935,168.434,175.587,180.56699999999998,183.174,187.528,192.585,197.565,200.124,205.624,212.777,217.75699999999998,220.42,225.401,228.091,233.071,235.67,240.651,245.632,248.3212,250.976,254.184,258.538,262.892,267.245,269.935,274.917,279.2994,281.93,285.766,290.747,295.101,300.082,304.4644,307.102,312.083,315.27020000000005,317.873,320.563,325.544,329.9264,332.556,335.246,338.454,342.808,347.161,350.997,353.487,356.14,361.121,365.475,370.456,373.146,378.127,383.107,385.733,390.714,395.695,398.385,403.365,406.028,410.41040000000004,412.944,416.78,421.134,423.824,427.117,430.325,434.161,439.142,443.496,448.477,453.536,460.689,463.379,468.36" svgx:width="0.27,0.44,0.77,0.38,0.55,0.55,0.72,0.5,0.55,0.44,0.5,0.5,0.55,0.55,0.72,0.5,0.55,0.5,0.27,0.5,0.55,0.5,0.5,0.27,0.55,0.32,0.44,0.44,0.44,0.27,0.5,0.44,0.55,0.38,0.5,0.44,0.5,0.44,0.55,0.5,0.32,0.55,0.27,0.5,0.44,0.55,0.27,0.32,0.44,0.44,0.38,0.25,0.55,0.5,0.44,0.5,0.27,0.5,0.5,0.55,0.5,0.5,0.27,0.5,0.55,0.44,0.55,0.38,0.44,0.27,0.32,0.32,0.38,0.5,0.44,0.5,0.5,0.72,0.27,0.5,0.5" style="fill:rgb(0,0,0);font-family:AdvOTb0c9bf5d;font-size:9.96px;stroke:none;">tems SH1 and SH2 did not receive shade of the trees, having only a self-shadowing</text>
   <text y="537.788" x="141.733,146.714,149.9012,152.957,157.311,162.312,168.322,172.675,177.0574,180.057,182.747,185.954,190.308,194.662,198.497,200.98700000000002,204.038,211.709,216.062,221.044,223.734,228.812,233.792,236.749,239.439,242.1282,245.139,250.121,252.85,261.071,265.424,270.405,273.095,275.78420000000006,278.815,281.505,286.485,289.53,293.883,296.573,299.263,303.617,308.598,313.579,317.933,320.623,325.0054,328.08,330.77,335.751,340.1334,343.104,345.794,350.147,357.818,362.8,367.153,370.361,374.715,377.516,382.497,385.705,390.058" svgx:width="0.5,0.32,0.55,0.44,0.5,0.6,0.44,0.44,0.55,0.27,0.32,0.44,0.44,0.38,0.25,0.55,0.77,0.44,0.5,0.27,0.5,0.5,0.55,0.27,0.27,0.55,0.5,0.27,0.82,0.44,0.5,0.27,0.27,0.55,0.27,0.5,0.55,0.44,0.27,0.27,0.44,0.5,0.5,0.44,0.27,0.44,0.55,0.27,0.5,0.44,0.55,0.27,0.44,0.77,0.5,0.44,0.32,0.44,0.27,0.5,0.32,0.44,0.25" style="fill:rgb(0,0,0);font-family:AdvOTb0c9bf5d;font-size:9.96px;stroke:none;">of coﬀee trees, making it diﬃcult to attenuate the temperature.</text>
   <text y="560.182" x="141.733,144.941,149.921,153.355,157.709,162.69,167.671,172.652,175.342,178.129,180.819,185.8,190.781,194.5658,198.028,203.009,206.19619999999998,209.706,214.688,217.377,222.359,227.339,230.739,234.575,239.556,243.91,248.891,253.27339999999998,256.761,259.451,263.804,268.785,273.139,275.829,278.319,281.762,285.597,290.579,294.932,299.91200000000003,303.419,307.772,311.5568,315.041,317.731,322.712,327.693,331.529,335.9114,339.305,344.286" svgx:width="0.32,0.5,0.55,0.44,0.5,0.5,0.5,0.27,0.27,0.27,0.5,0.5,0.38,0.55,0.5,0.32,0.55,0.5,0.27,0.5,0.5,0.55,0.38,0.5,0.44,0.5,0.44,0.55,0.27,0.44,0.5,0.44,0.27,0.25,0.55,0.38,0.5,0.44,0.5,0.55,0.44,0.38,0.55,0.27,0.5,0.5,0.38,0.44,0.55,0.5,0.32" style="fill:rgb(0,0,0);font-family:AdvOTb0c9bf5d;font-size:9.96px;stroke:none;">In conditions of high shade level, such as those of</text>
   <text y="560.182" x="350.985,357.62,361.974,365.182,368.39,372.743,377.725,382.078,385.8628,389.423,393.776,398.758,403.738,407.167,412.666,417.02,422.001,424.691,429.673,432.36220000000003,435.853,439.061,444.043,449.024,454.005,458.987" svgx:width="0.67,0.44,0.32,0.32,0.44,0.5,0.44,0.38,0.55,0.44,0.5,0.5,0.55,0.55,0.44,0.5,0.27,0.5,0.27,0.55,0.32,0.5,0.5,0.5,0.5,0.32" style="fill:rgb(0,122,173);font-family:AdvOTb0c9bf5d;font-size:9.96px;stroke:none;">Barradas and Fanjul (1986)</text>
   <text y="560.182" x="465.674,468.364" svgx:width="0.27,0.5" style="fill:rgb(0,0,0);font-family:AdvOTb0c9bf5d;font-size:9.96px;stroke:none;">in</text>
   <text y="575.149" x="141.733,150.549,154.903,159.884,162.652,167.006,171.987,174.477,178.129,182.483,187.464,192.444,196.1,198.79,203.76999999999998,207.382,214.017,217.303,221.656,226.01,228.7,231.39,233.88,237.542,240.232,245.213,249.59539999999998,253.246,255.936,260.289,267.961,272.942,277.296,280.503,284.857,287.658,292.639,295.847,300.2294,303.872,307.08,311.433,316.415,321.396,325.75,328.44,331.129,336.111,341.091,344.803,348.011,352.365,356.718,361.072,366.053,370.407,375.387,379.101,384.081,387.719,390.409,395.389,399.057" svgx:width="0.88,0.44,0.5,0.27,0.44,0.5,0.25,0.55,0.44,0.5,0.5,0.55,0.27,0.5,0.55,0.67,0.32,0.44,0.44,0.27,0.27,0.25,0.55,0.27,0.5,0.44,0.55,0.27,0.44,0.77,0.5,0.44,0.32,0.44,0.27,0.5,0.32,0.44,0.55,0.32,0.44,0.5,0.5,0.44,0.27,0.27,0.5,0.5,0.55,0.32,0.44,0.44,0.44,0.5,0.44,0.5,0.55,0.5,0.55,0.27,0.5,0.55,0.5" style="fill:rgb(0,0,0);font-family:AdvOTb0c9bf5d;font-size:9.96px;stroke:none;">Mexico, and in Brazil, the temperature reduction reached 4 to 5</text>
   <text y="571.521" code="1" x="407.679" svgx:width="0.5" style="fill:rgb(0,0,0);font-family:AdvP4C4E74;font-size:6.97px;stroke:none;">?</text>
   <text y="575.15" x="411.647,418.282,420.772,424.403,431.038,436.01800000000003,439.71,444.064,449.045,454.026,456.716,459.924,464.278,468.113,470.803" svgx:width="0.67,0.25,0.55,0.67,0.5,0.55,0.44,0.5,0.5,0.27,0.32,0.44,0.38,0.27,0.25" style="fill:rgb(0,0,0);font-family:AdvOTb0c9bf5d;font-size:9.96px;stroke:none;">C. By contrast,</text>
   <text y="590.116" x="141.733,148.887,153.2694,155.623,158.831,163.813,168.794,173.775,178.755,181.135,183.824,188.806,193.159,195.8482,198.255,200.945,205.92499999999998,208.29,210.979,215.961,220.3434,222.689,227.671,232.652,237.633,240.841,243.609,248.589,250.922,255.276,260.257,264.611,267.819,272.173,277.154,281.5364,283.974,288.956,293.309,295.999,300.38140000000004,302.74,307.721,310.9082,313.284,318.266,322.619,327.601,330.291,333.07,340.741,345.1234,347.47,352.451,356.805,360.013,362.703,367.684,372.665,375.15500000000003,377.573,380.263,385.244,389.62640000000005,391.973,396.954,399.644,404.626,409.607,413.96,417.1472,419.582,423.418,428.399,432.753,437.734,440.424,445.491,450.471,452.805,455.495,458.703,463.056,467.41,470.1" svgx:width="0.72,0.44,0.55,0.32,0.5,0.5,0.5,0.5,0.55,0.27,0.5,0.44,0.27,0.55,0.27,0.5,0.55,0.27,0.5,0.44,0.55,0.5,0.5,0.5,0.32,0.27,0.5,0.55,0.44,0.5,0.44,0.32,0.44,0.5,0.44,0.55,0.5,0.44,0.27,0.44,0.55,0.5,0.32,0.55,0.5,0.44,0.5,0.27,0.27,0.77,0.44,0.55,0.5,0.44,0.32,0.27,0.5,0.5,0.25,0.55,0.27,0.5,0.44,0.55,0.5,0.27,0.5,0.5,0.44,0.32,0.55,0.38,0.5,0.44,0.5,0.27,0.5,0.5,0.55,0.27,0.32,0.44,0.44,0.27,0.32" style="fill:rgb(0,0,0);font-family:AdvOTb0c9bf5d;font-size:9.96px;stroke:none;">we found that in the hourly average data of daytime period, the higher shading treat-</text>
   <text y="605.026" x="141.733,149.405,153.758,158.74,161.4292,165.658,168.866,174.365,181.518,186.498,190.716,195.069,200.051,205.03099999999998,209.254,214.753,221.906,226.888,230.0752,234.312,239.293,243.647,248.62699999999998,252.794,257.775,260.465,265.446,270.427,274.781,277.9682,282.217,289.888,294.242,299.223,302.003,309.674,314.655,322.32419999999996,326.551,329.241,333.594,341.265,346.247,350.6,353.808,358.162,360.962,365.944,369.152,373.5344,377.687,380.377,385.358,389.712,394.692,398.89,404.389,411.543,416.524,419.014,423.268,427.621,432.603,437.583,441.749,444.957,449.938,452.628,455.3172,459.55,463.386,468.367" svgx:width="0.77,0.44,0.5,0.27,0.55,0.32,0.55,0.72,0.5,0.55,0.44,0.5,0.5,0.55,0.55,0.72,0.5,0.32,0.55,0.5,0.44,0.5,0.55,0.5,0.27,0.5,0.5,0.44,0.32,0.55,0.77,0.44,0.5,0.27,0.77,0.5,0.77,0.55,0.27,0.44,0.77,0.5,0.44,0.32,0.44,0.27,0.5,0.32,0.44,0.55,0.27,0.5,0.44,0.5,0.55,0.55,0.72,0.5,0.25,0.55,0.44,0.5,0.5,0.55,0.32,0.5,0.27,0.27,0.55,0.38,0.5,0.5" style="fill:rgb(0,0,0);font-family:AdvOTb0c9bf5d;font-size:9.96px;stroke:none;">ment (SH3 and SH2) had higher maximum temperature than SH1, and full sun</text>
   <text y="619.993" x="141.733,145.569,150.55,154.386,157.076,161.43,169.101,173.027" svgx:width="0.38,0.5,0.38,0.27,0.44,0.77,0.38,0.25" style="fill:rgb(0,0,0);font-family:AdvOTb0c9bf5d;font-size:9.96px;stroke:none;">systems.</text>
   <text y="642.387" x="141.733,148.369,151.577,155.93,160.911,165.893,170.246,173.4332,177.053,181.407,184.0962,187.597,191.951,194.641,197.131,200.693,203.901,208.882,213.864,218.845,223.826" svgx:width="0.67,0.32,0.44,0.5,0.5,0.44,0.32,0.55,0.44,0.27,0.55,0.44,0.27,0.25,0.55,0.32,0.5,0.5,0.5,0.5,0.32" style="fill:rgb(0,122,173);font-family:AdvOTb0c9bf5d;font-size:9.96px;stroke:none;">Brenner et al. (1995)</text>
   <text y="642.387" x="230.571,233.779,238.133,243.114,248.095,251.303,253.993,257.7778,261.411,264.101,269.082,273.436,276.1252,279.666,284.647,289.628,294.61,298.963,302.15020000000004,305.744,310.725,313.933,318.914,321.604,325.958,330.312,333.001,337.355,342.33500000000004,345.939,350.293,353.5,358.482,363.46200000000005,366.972,371.326,376.307,381.288,386.269,388.959,391.746,394.436,399.417,404.398,408.18280000000004,411.759,416.74,421.72,425.251,432.404,435.094,440.075,445.057,450.038,453.246,457.6,461.953,467.033,470.869" svgx:width="0.32,0.44,0.5,0.5,0.32,0.27,0.38,0.55,0.27,0.5,0.44,0.27,0.55,0.5,0.5,0.5,0.44,0.32,0.55,0.5,0.32,0.5,0.27,0.44,0.44,0.27,0.44,0.5,0.55,0.44,0.32,0.5,0.5,0.55,0.44,0.5,0.5,0.5,0.27,0.27,0.27,0.5,0.5,0.38,0.55,0.5,0.5,0.55,0.72,0.27,0.5,0.5,0.5,0.32,0.44,0.44,0.5,0.38,0.25" style="fill:rgb(0,0,0);font-family:AdvOTb0c9bf5d;font-size:9.96px;stroke:none;">reports that under protected crop conditions by windbreaks,</text>
   <text y="657.354" x="141.733,148.887,153.868,158.222,161.43,165.8124,169.002,171.692,176.673,181.0554,184.252,187.46,191.813,196.795,199.485,203.924,206.614,209.304,214.285,219.265,222.462,225.152,230.134,234.487,237.177,242.158,246.512,251.493,255.968,260.3504,263.451,266.141,269.92580000000004,273.203,277.038,279.728,287.4,290.089,292.779,297.133,300.3202,303.59,306.28,311.26,314.475,319.456,324.438,329.419,332.627,337.608,340.298,344.748,349.102,351.792,356.146,361.12600000000003,364.307,368.661,371.868,376.85,381.831,385.667,388.157,391.406,396.387,399.077,404.059,407.267,412.326,416.679,419.3682,422.53,425.22,429.574,437.327,442.308,446.662,449.87,454.223,456.913,461.895,465.102,469.456" svgx:width="0.72,0.5,0.44,0.32,0.44,0.55,0.27,0.5,0.44,0.55,0.32,0.44,0.5,0.27,0.44,0.27,0.27,0.5,0.5,0.55,0.27,0.5,0.44,0.27,0.5,0.44,0.5,0.44,0.44,0.55,0.27,0.38,0.55,0.38,0.27,0.77,0.27,0.27,0.44,0.32,0.55,0.27,0.5,0.55,0.5,0.5,0.5,0.32,0.5,0.27,0.44,0.44,0.27,0.44,0.5,0.55,0.44,0.32,0.5,0.5,0.38,0.25,0.55,0.5,0.27,0.5,0.32,0.5,0.44,0.27,0.55,0.27,0.44,0.77,0.5,0.44,0.32,0.44,0.27,0.5,0.32,0.44,0.38" style="fill:rgb(0,0,0);font-family:AdvOTb0c9bf5d;font-size:9.96px;stroke:none;">where the radiation incidence is similar to unprotected crops, diurnal temperatures</text>
   <text y="672.264" x="141.733,146.087,149.295,153.67739999999998,157.324,162.305,164.995,169.976,174.958,179.311,182.4982,186.237,191.219,196.2,200.58239999999998,204.266,206.956,211.93599999999998,215.547,218.237,223.218,230.457,234.811,237.9982,241.682,249.353,254.335,259.316,263.67,271.341,275.695,280.799,283.4882,287.093,292.139,295.32620000000003,298.999,303.353,306.043,313.714,318.695,322.531,327.512,332.493,336.847,340.158,342.847,347.2294,350.872,355.226,357.916,361.124,363.61400000000003,367.313,374.466,379.447,382.137,386.491,391.471,395.148,399.502,404.483,408.837,413.914,418.895,423.249,427.03380000000004,430.751,433.441,438.423,442.8054,446.456,450.809,455.79,460.144,463.352,468.333" svgx:width="0.44,0.32,0.44,0.55,0.5,0.27,0.5,0.5,0.44,0.32,0.55,0.5,0.5,0.44,0.55,0.27,0.5,0.55,0.27,0.5,0.72,0.44,0.32,0.55,0.77,0.5,0.5,0.44,0.77,0.44,0.5,0.27,0.55,0.5,0.32,0.55,0.44,0.27,0.77,0.5,0.38,0.5,0.5,0.44,0.32,0.27,0.44,0.55,0.44,0.27,0.32,0.25,0.55,0.72,0.5,0.27,0.44,0.5,0.55,0.44,0.5,0.44,0.5,0.5,0.44,0.38,0.55,0.27,0.5,0.44,0.55,0.44,0.5,0.44,0.32,0.5,0.5" style="fill:rgb(0,0,0);font-family:AdvOTb0c9bf5d;font-size:9.96px;stroke:none;">are higher due to lower movement of atmospheric air, which changes the energy</text>
  </g>
  <g begin="text">
   <text y="710.646" x="42.52,45.758" svgx:width="0.5,0.5" style="fill:rgb(0,0,0);font-family:AdvOTe3b1fbf3.B;font-size:6.48px;stroke:none;">16</text>
   <text y="710.646" x="62.362,65.6,67.348,69.097,72.334,74.828,76.576,78.324,80.073,83.311,86.549,88.297,89.916,93.154,95.239,98.477,100.225,103.463,106.701,108.32,111.558,114.796,118.033,121.271,123.02,124.669,126.288,129.526,132.356,134.104,135.853,139.09,142.328,145.566,147.185,150.423,153.661,156.899,160.137,161.755,164.585,167.823,171.061,174.299,177.537" svgx:width="0.5,0.27,0.27,0.5,0.38,0.27,0.27,0.27,0.5,0.5,0.27,0.25,0.5,0.32,0.5,0.27,0.5,0.5,0.25,0.5,0.5,0.5,0.5,0.27,0.27,0.25,0.5,0.44,0.27,0.27,0.5,0.5,0.5,0.25,0.5,0.5,0.5,0.5,0.25,0.44,0.5,0.5,0.5,0.5,0.5" style="fill:rgb(0,122,173);font-family:AdvOTb0c9bf5d;font-size:6.48px;stroke:none;">https://doi.org/10.1016/j.heliyon.2019.e01263</text>
   <text y="720.623" x="62.362,65.6,68.838,72.075,75.313,77.398,80.636,83.874,87.112,90.35" svgx:width="0.5,0.5,0.5,0.5,0.32,0.5,0.5,0.5,0.5,0.27" style="fill:rgb(0,0,0);font-family:AdvOTb0c9bf5d;font-size:6.48px;stroke:none;">2405-8440/</text>
   <text y="720.623" code="1" x="92.069" svgx:width="0.79" style="fill:rgb(0,0,0);font-family:AdvPSSym;font-size:6.48px;stroke:none;">?</text>
   <text y="720.623" x="99.325,102.563,105.801,109.039,112.279,114.406,118.317,121.555,124.40620000000001,126.538,131.188,134.425,136.174,139.412,142.65,144.735,147.228,148.848,150.973,154.548,157.786,161.024,162.772,164.521,167.014,170.252,173.081,176.321,178.414,181.651,184.89100000000002,187.031,190.942,192.691,195.184,198.014,201.251,203.0,205.83,207.9036,210.105,214.016,215.765,219.003,220.623,222.748,226.659,229.897,231.645,234.1074,236.297,238.046,240.5084,242.704,245.534,248.774,250.868,254.105,257.343,260.173,263.413,265.551,268.381,271.211,274.041,276.871,279.364,281.8264,284.034,286.864,288.949,290.697,292.446,295.276,297.024,299.8752,302.006,305.244,308.481,311.719,314.549,316.6226,318.788,320.536,323.774,326.6252,328.709,333.022,337.3636,339.481,343.793,348.443,350.528,355.178,359.491,361.576,366.225,370.8906,373.044,374.792,376.54,379.37,382.2,385.438,387.931" svgx:width="0.5,0.5,0.5,0.5,0.55,0.6,0.5,0.44,0.55,0.72,0.5,0.27,0.5,0.5,0.32,0.38,0.25,0.55,0.55,0.5,0.5,0.27,0.27,0.38,0.5,0.44,0.5,0.55,0.5,0.5,0.55,0.6,0.27,0.38,0.44,0.5,0.27,0.44,0.32,0.55,0.6,0.27,0.5,0.25,0.55,0.6,0.5,0.27,0.38,0.55,0.27,0.38,0.55,0.44,0.5,0.55,0.5,0.5,0.44,0.5,0.55,0.44,0.44,0.44,0.44,0.38,0.38,0.55,0.44,0.32,0.27,0.27,0.44,0.27,0.44,0.55,0.5,0.5,0.5,0.44,0.32,0.55,0.27,0.5,0.44,0.55,0.67,0.67,0.55,0.67,0.72,0.32,0.72,0.67,0.32,0.72,0.72,0.55,0.27,0.27,0.44,0.44,0.5,0.38,0.44" style="fill:rgb(0,0,0);font-family:AdvOTb0c9bf5d;font-size:6.48px;stroke:none;">2019 The Authors. Published by Elsevier Ltd. This is an open access article under the CC BY-NC-ND license</text>
   <text y="730.545" x="62.362" svgx:width="0.32" style="fill:rgb(0,0,0);font-family:AdvOTb0c9bf5d;font-size:6.48px;stroke:none;">(</text>
   <text y="730.545" x="64.459,67.697,69.446,71.194,74.432,76.18,77.929,79.677,82.507,84.592,87.422,90.252,92.0,93.749,96.987,99.817,102.647,105.884,110.871,115.857,119.095,122.287,124.78,126.399,129.637,131.722,134.96,136.709,138.457,140.206,143.035,145.865,149.103,151.596,154.426,156.919,158.668,161.906,165.144,167.229,170.467,173.296,175.297,178.535,181.773,183.521,186.759,188.378,191.616" svgx:width="0.5,0.27,0.27,0.5,0.27,0.27,0.27,0.44,0.32,0.44,0.44,0.27,0.27,0.5,0.44,0.44,0.5,0.77,0.77,0.5,0.5,0.38,0.25,0.5,0.32,0.5,0.27,0.27,0.27,0.44,0.44,0.5,0.38,0.44,0.38,0.27,0.5,0.5,0.32,0.5,0.44,0.32,0.5,0.5,0.27,0.5,0.25,0.5,0.27" style="fill:rgb(0,122,173);font-family:AdvOTb0c9bf5d;font-size:6.48px;stroke:none;">http://creativecommons.org/licenses/by-nc-nd/4.0/</text>
   <text y="730.545" x="193.378,195.463" svgx:width="0.32,0.25" style="fill:rgb(0,0,0);font-family:AdvOTb0c9bf5d;font-size:6.48px;stroke:none;">).</text>
  </g>
  <rect style="stroke:blue;stroke-width:0.3;" x="141.732" y="75.748" height="19.389" width="56.013" title="16"/>
  <text y="75.748" class="image" id="image.16.1" width="56" height="19" x="141.732">image.16.1.142_198.76_95</text>
  <rect style="stroke:blue;stroke-width:0.3;" x="141.732" y="75.748" height="19.389" width="56.013" title="16"/>
  <text y="75.748" class="image" id="image.16.2" width="56" height="19" x="141.732">image.16.2.142_198.76_95</text>
  <g begin="text">
   <text y="37.871" x="422.929,426.84,429.333,431.082,432.83,435.66,437.409,440.2602,442.375,446.688" svgx:width="0.6,0.38,0.27,0.27,0.44,0.27,0.44,0.55,0.67,0.5" style="fill:rgb(0,0,0);font-family:AdvOT6bc95374.I;font-size:6.48px;stroke:none;">Article No</text>
   <text y="37.871" x="448.951" svgx:width="1.0" style="fill:rgb(0,0,0);font-family:AdvPS3FDD77;font-size:6.48px;stroke:none;">w</text>
   <text y="37.871" x="454.393,457.223,460.461,463.699,466.937,470.174" svgx:width="0.44,0.5,0.5,0.5,0.5,0.5" style="fill:rgb(0,0,0);font-family:AdvOT6bc95374.I;font-size:6.48px;stroke:none;">e01263</text>
  </g>
 </g>
</svg>
