<?xml version="1.0" encoding="UTF-8"?>
<svg height="787.776" width="587.8629794999999" xmlns="http://www.w3.org/2000/svg">
 <g style="fill:none;">
  <text x="172.516,176.827,178.889,183.947,188.447,193.505,198.374,200.637,205.506,210.474,212.535,216.74699999999999,219.006,223.317,225.936,228.834,233.334,236.232,238.509,242.064,246.087,250.398,252.459,254.52,259.488,264.456,266.686,271.555,276.70300000000003,278.988,283.488,290.985,293.046,296.601,300.156,302.217,307.086,312.054,315.609,317.881,325.378,330.247,333.145,337.645,339.879,342.777,347.745,352.056,357.024,359.268,363.858,368.448,373.03799999999995,375.313,378.211,380.272,387.769,392.269,395.824,398.104,402.415,407.473,412.342,416.653,421.153,423.39,426.288,431.256,435.756,438.016,442.039,446.908,449.806,452.704,457.204,462.172,465.07000000000005,467.384,471.695,476.006,480.506,483.404,487.715,492.683,497.183,499.417,503.728,511.225,516.283,518.344,522.844,527.812,530.71,532.981,537.85,542.998,545.227,547.288,551.788,556.099,560.599,562.66,566.2149999999999,568.472,570.533" y="110.72799999999995" svg_rhmargin="575.501" style="fill:#000000;font-family:IMLIID+AdvTTe45e47d2;font-size:9.0px;font-style:NORMAL;font-weight:normal;">albedo only after scaling BC emissions more than 100 times above the current average ambient BC levels in</text>
  <text x="172.516,175.414,180.382,184.882,187.313,192.749,195.647,199.67,202.568,204.629,208.652,211.068,213.597,217.998,222.309,227.277,232.33499999999998,234.766,239.266,242.164,244.631,248.942,251.003,252.776,254.549,256.99,261.58,266.17,270.76,275.35,277.879" y="122.69000000000005" svg_rhmargin="279.652" style="fill:#000000;font-family:IMLIID+AdvTTe45e47d2;font-size:9.0px;font-style:NORMAL;font-weight:normal;">the Arctic (Sand et al., 2013).</text>
  <text x="172.516,178.699,181.597,186.565,191.065,193.963,197.065,204.562,209.062,213.085,218.053,222.364,227.332,229.393,232.948,240.445,244.0,247.126,251.995,254.614,257.728,260.626,264.938,269.996,272.057,276.368,279.266,281.327,285.638,290.138,293.276,295.895,300.764,303.662,307.685,309.746,314.714,319.682,322.814,327.125,330.023,334.523,337.667,341.978,344.039,347.594,352.46299999999997,355.583,357.644,365.141,370.199,375.068,377.966,380.864,385.175,390.143,393.041,396.176,399.074,403.943,407.119,412.555,415.453,419.476,422.374,424.435,428.458,431.554,434.452,438.952,446.449,451.507,456.007,458.905,463.216,466.114,470.983,473.881,478.381,481.936,483.709,486.888,491.289,496.257,500.757,503.84,505.901,510.869,514.424,519.293,521.354,525.665,528.563,530.624,535.592,540.56,543.696,548.196,550.815,553.434,557.934,561.957,564.855,568.018,572.887" y="139.188" svg_rhmargin="575.506" style="fill:#000000;font-family:IMLIID+AdvTTe45e47d2;font-size:9.0px;font-style:NORMAL;font-weight:normal;">Other mechanisms of radiative forcing are also important to Arctic temperatures. The insulating effect of</text>
  <text x="172.516,174.577,179.447,184.415,189.383,195.944,200.255,204.566,209.066,211.296,215.607,220.665,224.22,229.089,231.987,237.045,239.943,242.004,246.873,251.84099999999998,254.157,259.215,263.42699999999996,265.667,269.69,271.751,276.62,281.489,286.547,290.10200000000003,292.426,299.923,304.234,308.44599999999997,310.682,314.993,322.49,327.548,329.609,331.67,334.289,338.501,340.787,346.223,349.121,353.144,356.042,358.103,362.12600000000003,364.429,370.99,375.301,378.199,385.696,387.757,392.725,397.69300000000004,399.976,402.505,407.653,412.522,416.644,418.912,423.412,426.31,428.55,432.861,434.922,436.695,438.468,440.797,445.387,449.977,454.567,459.157,461.686,463.459,465.743,470.054,475.022,480.08,482.298,487.734,490.632,494.655,497.553,499.614,503.637,505.939,509.962,512.023,516.892,521.761,526.819,530.3739999999999,532.699,537.01,539.908,544.408,546.645,551.703,556.014,558.912,561.81,563.871,567.894,572.763" y="151.20600000000002" svg_rhmargin="575.481" style="fill:#000000;font-family:IMLIID+AdvTTe45e47d2;font-size:9.0px;font-style:NORMAL;font-weight:normal;">longwave absorption by clouds may amplify Arctic warming (Cox et al., 2015), and Arctic clouds are particu-</text>
  <text x="172.516,174.577,178.889,181.786,183.848,188.06,190.205,193.76,198.26,203.228,206.783,208.844,211.742,213.803,218.114,222.614,224.788,227.686,232.555,234.71,236.771,241.739,245.762,248.66,253.16,257.471,261.026,265.526,269.081,271.278,273.339,278.307,280.462,284.485,286.546,291.415,296.284,301.342,303.481,307.504,312.373,317.341,322.399,326.899,331.867,335.422,339.733,342.631,344.692,349.561,354.529,356.718,361.686,366.555,370.578,372.639,377.139,379.2,381.38,383.909,389.057,394.205,400.109,402.638,404.796,407.415,410.313,415.182,422.67900000000003,424.809,429.867,434.736,436.797,438.858,443.727,446.625,448.686,453.555,458.523,460.696,465.754,470.623,475.123,477.308,480.206,485.07500000000005,487.229,490.127,495.095,499.595,501.743,505.298,508.196,512.507,517.565,519.626,521.687,523.748,526.646,530.858,533.038,537.907,540.5260000000001,542.733,548.169,551.067,555.09,557.988,560.049,564.072,566.262,570.573,572.634" y="163.22500000000002" svg_rhmargin="575.532" style="fill:#000000;font-family:IMLIID+AdvTTe45e47d2;font-size:9.0px;font-style:NORMAL;font-weight:normal;">larly sensitive to increases in cloud condensation nuclei (CCN) from pollution due to the stability of Arctic air</text>
  <text x="172.516,180.013,184.324,187.879,191.434,195.934,199.489,201.431,203.96,209.108,213.977,218.846,223.904,231.401,235.712,240.67999999999998,242.591,247.091,249.989,251.946,256.257,258.318,260.091,261.86400000000003,263.795,268.385,272.975,277.565,282.155,284.684,286.45700000000005,288.4,290.461,295.42900000000003,297.358,302.227,307.285,312.343,317.212,320.767,322.828,325.726,327.787,332.656,337.624,339.39700000000005,341.354,345.854,353.351,355.412,358.967,362.522,364.583,369.452,374.42,377.975,379.906,384.775,387.394,389.374,392.929,397.798,399.859,402.478,407.347,410.245,412.166,417.035,421.157,423.218,428.276,432.776,436.331,438.302,440.831,445.232" y="175.47000000000003" svg_rhmargin="451.415" style="fill:#000000;font-family:IMLIID+AdvTTe45e47d2;font-size:9.0px;font-style:NORMAL;font-weight:normal;">masses (Coopman et al., 2018). In opposition, emissions of sulfur oxides (SO</text>
  <text x="451.389" y="177.058" svg_rhmargin="454.975" style="fill:#000000;font-family:IMLIID+AdvTTe45e47d2;font-size:6.25px;font-style:NORMAL;font-weight:normal;">2</text>
  <text x="454.961,457.49,459.439,463.75,468.718,473.776,475.71,478.608,483.108,486.663,491.532,493.593,496.491,498.552,503.52,508.488,510.407,513.962,518.831,520.892,523.511,527.822,530.72,535.22,537.167,539.695,544.096" y="175.471" svg_rhmargin="550.279" style="fill:#000000;font-family:IMLIID+AdvTTe45e47d2;font-size:9.0px;font-style:NORMAL;font-weight:normal;">) and resulting sulfate (SO</text>
  <text x="550.318" y="177.058" svg_rhmargin="553.904" style="fill:#000000;font-family:IMLIID+AdvTTe45e47d2;font-size:6.25px;font-style:NORMAL;font-weight:normal;">4</text>
  <text x="553.89,556.419,558.368,563.336,567.836,572.804" y="175.471" svg_rhmargin="575.522" style="fill:#000000;font-family:IMLIID+AdvTTe45e47d2;font-size:9.0px;font-style:NORMAL;font-weight:normal;">) gen-</text>
  <text x="172.516,177.016,179.914,184.225,187.123,191.623,194.344,198.655,201.374,206.432,208.493,211.391,215.891,219.914,222.81199999999998,225.525,230.493,234.993,239.961,244.272,247.17,249.231,253.542,258.04200000000003,260.733,263.631,267.942,273.0,275.061,279.372,282.27,284.331,288.642,293.142,295.883,298.502,303.371,306.269,310.292,312.353,317.321,322.28900000000004,325.024,330.082,334.294,336.987,340.542,344.565,348.876,351.774,354.672,359.172,362.07,364.131,369.099,374.067,376.787,378.848,383.816,387.839,392.708,400.205,402.266,407.234,412.202,414.942,418.497,423.366,428.334,430.395,432.456,437.424,442.392,445.29,447.996,450.525,455.673,460.641,464.952,467.85,469.911,473.466,478.335,483.303,486.038,490.538,493.43600000000004,496.129,500.44,502.501,504.274,506.047,508.773,513.363,517.953,522.543,527.133,529.662,531.4350000000001,534.172,540.733,545.701,547.762,551.785,556.7529999999999,559.457,566.954,571.265" y="187.60299999999995" svg_rhmargin="575.477" style="fill:#000000;font-family:IMLIID+AdvTTe45e47d2;font-size:9.0px;font-style:NORMAL;font-weight:normal;">erate a direct negative radiative forcing by scattering incoming sunlight (Charlson et al., 1992), which may</text>
  <text x="172.516,177.385,180.004,182.623,186.178,190.678,193.576,196.045,200.356,202.848,206.403,208.464,213.432,218.4" y="199.56500000000005" svg_rhmargin="220.461" style="fill:#000000;font-family:IMLIID+AdvTTe45e47d2;font-size:9.0px;font-style:NORMAL;font-weight:normal;">offset a signi</text>
  <text x="220.422" y="199.56500000000005" svg_rhmargin="225.102" style="fill:#000000;font-family:IMLIIE+AdvTTe45e47d2+fb;font-size:9.0px;font-style:NORMAL;font-weight:normal;">ﬁ</text>
  <text x="225.127,229.15,233.461,238.429,241.327,243.779,248.837,253.148,256.046,258.944,261.468,266.337,268.956,271.446,274.344,279.312,283.812,286.243,291.112,296.26000000000005,298.772,303.74,308.24,312.551,315.449,317.51,322.478,327.446,329.898,334.398,337.017,339.635,344.135,348.159,351.057,353.54,355.601,360.569,363.064,365.962,370.93,375.43,377.861,383.297,386.195,390.218,393.116,395.177,399.20000000000005,401.73,404.259,409.038,413.349,418.317,423.285,425.712,430.212,433.11,435.576,439.887,441.948,443.721,445.494,447.993,452.583,457.173,461.763,466.353,468.882,470.65500000000003,473.165,477.377,481.688,485.243,488.141,490.202,494.414,496.187,498.677,502.988,507.956,510.413,512.474,517.442,521.465,524.363,528.863,533.174,536.729,541.229,543.693,545.754,550.722,553.218,557.529,560.427,567.924,572.793" y="199.56500000000005" svg_rhmargin="575.511" style="fill:#000000;font-family:IMLIID+AdvTTe45e47d2;font-size:9.0px;font-style:NORMAL;font-weight:normal;">cant part of the BC heating effect in the Arctic (Yang et al., 2018). Lastly, an increase in atmo-</text>
  <text x="172.515,176.07,181.128,186.096,190.596,193.494,195.555,199.578,201.43,206.488,210.799,213.697,216.595,218.656,222.679,227.548,229.609,233.92,236.818,241.318,244.87300000000002,246.785,249.683,254.651,258.962,261.86,263.737,267.292,271.792,274.69,279.001,283.501,285.394,289.705,293.26,295.146,300.294,305.442,311.346,313.231,319.792,321.853,323.914,325.97499999999997,327.801,330.699,335.199,340.167,345.22499999999997,347.134,350.032,354.90099999999995,356.772,358.833,363.801,367.824,370.723,375.223,379.534,383.089,387.589,389.486,393.509,395.57,400.439,405.308,410.366,412.221,416.532,418.593,423.651,428.151,433.209,438.078,439.944,445.002,449.214,451.113,455.613,460.581,464.604,469.473,474.342,477.24,481.551,486.519,488.58,493.548,498.516,500.381,503.0,507.869,510.767,518.264,522.575,525.473,527.534,532.403,537.371,539.274,544.143,546.7620000000001,548.628,552.183,559.68,563.991,566.052,568.113,572.613" y="211.58399999999995" svg_rhmargin="575.511" style="fill:#000000;font-family:IMLIID+AdvTTe45e47d2;font-size:9.0px;font-style:NORMAL;font-weight:normal;">spheric particulates that serve as CCN will tend to increase cloud albedo by encouraging formation of smaller</text>
  <text x="172.515,176.826,181.794,186.852,189.807,197.304,202.173,205.071,209.571,212.542,217.51,222.379,229.876,234.376,237.274,242.143,247.012,250.567,253.589,257.612,259.673,264.542,269.411,274.469,277.457,282.515,285.413,290.282,295.34,297.401,301.901,304.799,308.354,311.304,313.833,318.234,324.795,329.664,337.161,341.661,345.873,347.646,350.651,355.241,359.831,364.421,369.011,371.54,373.31300000000005,376.276,381.334,385.645,388.543,391.441,393.502,397.525,402.394,404.455,408.766,411.664,413.725,417.937,420.952,423.013,427.981,430.987,433.048,435.109,440.167,445.036,447.097,452.155,455.138,459.161,461.222,466.091,470.96,476.018,479.573,482.521,485.05,490.198,495.166,498.064,500.125,503.68,506.578,511.078,516.047,519.602,524.102,529.0699999999999,532.073,536.573,539.471,542.448,546.759,548.82,550.593,552.366,555.375,559.965,564.555,569.145,573.735" y="223.60199999999998" svg_rhmargin="575.508" style="fill:#000000;font-family:IMLIID+AdvTTe45e47d2;font-size:9.0px;font-style:NORMAL;font-weight:normal;">and more numerous cloud droplets (Twomey, 1977), particularly in liquid clouds (Christensen et al., 2014;</text>
  <text x="172.515,179.733,184.602,187.5,190.398,192.459,196.014,200.883,205.851,207.836,212.336,215.234,217.191,221.502,223.563,225.336,227.109,229.097,233.687,238.277,242.867,247.457,249.986,251.759,253.758,259.194,261.255,264.153,269.121,273.99,278.859,283.827,288.795,290.723,293.621,298.589,303.089,305.066,307.127" y="235.56399999999996" svg_rhmargin="312.095" style="fill:#000000;font-family:IMLIID+AdvTTe45e47d2;font-size:9.0px;font-style:NORMAL;font-weight:normal;">Morrison et al., 2012). Although the in</text>
  <text x="312.094" y="235.56399999999996" svg_rhmargin="316.774" style="fill:#000000;font-family:IMLIIE+AdvTTe45e47d2+fb;font-size:9.0px;font-style:NORMAL;font-weight:normal;">ﬂ</text>
  <text x="316.799,321.668,326.168,331.136,335.159,339.659,341.631,346.5,349.119,351.099,356.157,360.468,363.366,366.264,368.325,372.348,377.217,379.278,383.589,386.487,390.987,392.997,397.497,404.994,407.055,410.61,414.165,416.226,421.095,426.063,429.618,431.549,433.61,438.57800000000003,440.563,443.461,448.429,452.929,454.907,460.343,463.241,467.264,470.162,472.223,476.24600000000004,478.265,483.233,487.544,491.099,493.062,498.03,500.091,503.646,506.544,511.413,514.311,516.372,520.395,524.706,526.767,528.828,533.04,535.016,540.074,544.574,549.074,554.0419999999999,555.994,559.549,567.046,571.357,573.418" y="235.56399999999996" svg_rhmargin="575.479" style="fill:#000000;font-family:IMLIID+AdvTTe45e47d2;font-size:9.0px;font-style:NORMAL;font-weight:normal;">uence of particulate emissions in the Arctic has historically been small</text>
  <text x="172.515,176.826,181.794,186.852,189.637,191.698,196.567,200.59,204.901,206.962,209.023,212.866,217.366,222.424,225.184,228.082,232.582,234.643,238.954,241.852,243.913,248.224,252.724,255.516,258.414,263.283,266.061,273.558,278.427,281.325,285.825,288.626,293.684,298.553,303.611,308.48,310.541,315.41,320.279,323.834,326.612,328.673,333.542,340.103,344.603,347.50100000000003,350.31,352.371,356.682,359.58,361.641,364.539,369.408,374.466,378.966,382.521,385.29,387.819,393.624,398.493,403.461,408.42900000000003,411.199,415.699,418.59700000000004,421.404,425.715,427.776,429.549,431.322,434.104,438.694,443.284,447.874,452.464,454.237,457.066,461.845,466.345,469.243,473.743,476.641,480.196,482.975,487.475,490.37300000000005,493.123,497.434,499.495,501.268,503.041,505.88,510.47,515.06,519.65,524.24,526.769,528.542,531.336,533.397,538.365,542.388,545.286,549.786,554.097,557.652,562.152,565.707,568.471,570.531" y="247.58299999999997" svg_rhmargin="575.499" style="fill:#000000;font-family:IMLIID+AdvTTe45e47d2;font-size:9.0px;font-style:NORMAL;font-weight:normal;">and localized relative to more populous lower latitudes (Gong et al., 2018; Peters et al., 2011), increases in</text>
  <text x="172.515,176.07,181.038,183.099,188.157,193.215,195.276,200.244,205.212,207.609,212.109,219.606,221.667,225.222,228.777,230.838,235.707,240.675,244.23000000000002,246.729,250.752,255.621,260.49,262.551,267.609,270.03,273.585,278.454,283.512,287.067,289.965,294.276,299.244,302.142,304.203,308.514,310.575,312.636,316.848,319.297,322.195,326.506,328.567,332.122,336.622,339.084,344.232,349.38,355.284,357.057,359.494,363.994,368.962,373.93,378.241,383.209,387.232,391.732,394.191,398.214,400.275,405.144,410.013,415.07099999999997,417.493,420.112,424.981,427.879,435.376,439.687,442.585,444.646,449.515,454.483,456.25600000000003,458.71,463.021,467.989,473.04699999999997,475.491,477.552,482.52,487.578,492.447,496.47,500.97,503.442,507.753,510.188,514.211,516.272,518.333,525.83,530.141,533.039,535.1,539.123,541.597,544.495,548.995,552.55,557.608,562.477,567.445,571.0" y="259.601" svg_rhmargin="575.5" style="fill:#000000;font-family:IMLIID+AdvTTe45e47d2;font-size:9.0px;font-style:NORMAL;font-weight:normal;">shipping emissions could substantially raise CCN, enhance cloud formation, and induce a climatic response</text>
  <text x="172.515,175.044,182.262,187.131,191.631,193.692,195.753,200.253,203.151,204.924,207.327,211.917,216.507,221.097,225.687,227.46,229.891,237.478,241.789,246.757,251.725,254.156,258.656,261.55400000000003,264.021,268.332,270.393,272.166,273.939,276.324,280.914,285.504,290.094,294.684,296.45700000000005,298.946,303.725,308.036,313.004,317.97200000000004,320.376,324.876,327.774,330.185,334.496,336.557,338.33,340.103,342.544,347.134,351.724,356.314,360.904,363.433" y="271.563" svg_rhmargin="365.206" style="fill:#000000;font-family:IMLIID+AdvTTe45e47d2;font-size:9.0px;font-style:NORMAL;font-weight:normal;">(Mueller, 2018; Wang et al., 2013; Yang et al., 2018).</text>
  <text x="172.515,177.294,180.192,184.692,189.003,191.064,195.933,200.802,204.357,208.176,211.731,214.629,219.498,224.556,226.617,231.117,234.672,238.508,243.476,247.787,252.098,256.598,260.392,262.453,267.421,271.732,276.232,279.787,282.685,284.746,289.714,294.025,296.923,301.423,306.481,310.341,313.239,318.207,322.707,326.498,328.559,333.527,336.425,340.925,343.823,348.134,352.157,355.055,357.116,362.084,367.052,370.89,375.39,378.009,380.628,385.128,389.151,392.049,395.604,399.464,404.333,406.95200000000006,410.746,414.301,419.269,424.138,427.036,429.934,432.652,434.713,436.774,441.085,445.585,450.643,454.514,459.572,464.441,466.502,468.563,473.432,476.33,480.641,485.609,488.507,492.062,495.902,498.521,501.419,506.288,513.785,517.615,523.051,525.949,529.972,532.87,534.931,538.9540000000001,542.787,546.342,551.31,553.371,558.429,563.487,565.548,570.516" y="288.061" svg_rhmargin="575.484" style="fill:#000000;font-family:IMLIID+AdvTTe45e47d2;font-size:9.0px;font-style:NORMAL;font-weight:normal;">Previous studies have investigated the interacting effects of short-lived pollutants from Arctic shipping</text>
  <text x="172.515,176.07,180.093,184.593,189.561,193.872,196.77,198.831,203.7,207.255,211.748,218.309,220.37,223.268,228.236,232.725,240.222,242.283,246.405,250.905,255.963,260.449,264.76,269.728,274.786,279.272,283.295,288.164,293.132,296.03,298.928,303.239,306.794,309.692,311.753,316.721,321.689,326.215,329.113,333.613,337.168,342.037,344.098,346.996,350.551,352.324,356.83,362.635,366.19,368.251,373.219,378.187,382.682,386.706,391.673,396.173,403.671,405.732,409.755,414.066,416.12699999999995,420.668,423.566,426.464,430.775,435.743,439.298,444.356,449.225,452.123,455.021,459.504,463.815,468.783,473.841,478.326,481.224,485.535,490.594,492.655,496.966,499.864,501.925,506.236,510.736,515.235,517.854,522.723,525.621,529.644,531.705,536.673,541.641,546.19,553.687,558.556,563.614,568.114,570.175,573.73" y="300.08" svg_rhmargin="575.503" style="fill:#000000;font-family:IMLIID+AdvTTe45e47d2;font-size:9.0px;font-style:NORMAL;font-weight:normal;">scenarios with mixed and contrasting results. Using chemical transport and radiative forcing models,</text>
  <text x="172.515,178.419,182.73,184.791,188.346,193.215,196.113,200.613,205.581,208.857,213.357,216.255,219.572,223.883,225.944,227.71699999999998,231.024,233.553,238.143,242.733,247.323,251.913,254.442,257.784,260.403,265.272,270.141,275.109,280.167,283.467,290.028,294.339,297.237,304.734,306.795,311.763,316.731,320.034,324.903,329.871,334.929,339.429,342.327,345.66,348.558,355.119,359.98800000000006,363.292,366.847,371.905,376.216,379.114,381.175,385.486,387.547,389.608,393.82,397.138,401.638,405.76,410.818,412.879,414.94,418.963,421.024,423.922,427.243,431.743,439.24,441.301,444.856,448.411,450.472,455.341,460.309,463.585,467.139,471.163,475.663,480.63,484.941,487.84,489.901,494.77,498.325,501.683,504.212,508.991,513.491,516.389,520.889,523.787,527.342,530.654,535.154,538.052,541.37,545.681,547.742,549.515,551.288,554.58,559.17,563.76,568.35,572.94" y="312.098" svg_rhmargin="575.469" style="fill:#000000;font-family:IMLIID+AdvTTe45e47d2;font-size:9.0px;font-style:NORMAL;font-weight:normal;">Dalsøren et al. (2013) found warming under two spatially explicit emission scenarios (Peters et al., 2011)</text>
  <text x="172.515,177.573,182.073,184.971,191.532,196.032,200.532,205.5,209.027,213.617,218.207,222.797,227.387,230.968,235.279,240.247,245.305,248.883,253.473,258.063,262.653,267.243,269.016,272.582,279.143,284.111,286.172,288.233,292.733,296.28,300.591,305.46,310.428,312.489,316.989,320.544,323.442,327.753,332.253,337.311,340.209,343.79,348.29,351.18800000000005,354.732,359.043,361.104,362.877,366.468,368.997,373.587,378.177,382.767,387.357,389.886,393.455,398.324,401.879,406.379,411.437,414.999,419.31,422.879,426.434,428.495,435.992,441.05,443.111,447.611,451.17,455.76,458.478,463.536,468.405,472.527,476.115,480.138,482.199,484.26,491.757,496.068,498.966,503.466,507.014,514.511,519.38,524.438,528.938,530.999,534.567,537.465,542.3340000000001,545.906,550.964,555.464,562.961,567.83,572.798" y="324.06" svg_rhmargin="575.516" style="fill:#000000;font-family:IMLIID+AdvTTe45e47d2;font-size:9.0px;font-style:NORMAL;font-weight:normal;">between 2004 and 2030, while Fuglestvedt et al. (2014) used a simple 2-box climate model to demon-</text>
  <text x="172.515,176.07,178.968,181.866,186.177,189.075,193.575,196.837,201.337,206.305,211.273,215.584,220.552,224.575,229.075,234.13299999999998,237.431,242.867,245.765,249.788,252.686,254.747,258.77000000000004,262.036,268.597,272.908,275.806,283.303,285.364,290.332,295.3,298.547,301.166,304.064,308.933,316.43,319.751,323.306,328.274,333.143,336.041,338.939,341.657,343.718,345.779,350.09,354.59,359.64799999999997,362.896,366.451,371.419,373.48,378.538,383.596,385.657,390.625,395.593,398.84,403.898,408.767,410.828,412.889,417.758,420.656,424.967,429.935,432.833,436.38800000000003,439.717,444.586,449.554,452.452,454.513,456.57399999999996,459.844,464.434,469.024,473.614,478.204,479.97700000000003,483.259,485.32,490.288,493.521,497.544,502.413,507.381,510.279,513.177,517.488,521.043,523.941,525.714,529.068,534.873,536.934,538.995,543.963,548.463,553.4309999999999,556.679,561.179,564.077,567.337,571.648,573.709" y="336.079" svg_rhmargin="575.482" style="fill:#000000;font-family:IMLIID+AdvTTe45e47d2;font-size:9.0px;font-style:NORMAL;font-weight:normal;">strate enhanced Arctic warming from short-lived shipping pollutants until 2160. In contrast, Gilgen et al.</text>
  <text x="172.515,175.044,179.634,184.224,188.814,193.404,195.933,198.595,201.214,206.083,210.952,215.92,220.97799999999998,223.597,228.565,233.065,235.963,238.62,242.643,247.512,252.381,254.442,256.503,261.471,266.439,269.122,274.18,278.392,281.028,285.618,290.208,294.798,299.388,302.062,306.931,310.486,312.547,317.515,322.483,325.137,329.448,332.11,337.078,339.139,344.008,349.066,353.377,355.438,358.076,362.387,366.887,369.785,374.654,378.209,383.078,385.139,387.857,391.88,393.941,396.002,403.499,407.81,410.708,415.208,417.889,425.386,430.255,435.313,439.813,441.874,443.64700000000005,446.293,451.351,454.249,456.31,460.621,465.121,470.089,472.769,477.827,482.039,484.675,489.175,494.143,499.111,503.422,508.39,512.413,516.913,521.971,524.588,528.611,530.672,535.541,540.41,545.468,548.173,553.231,556.129,560.998,566.056,568.117,572.617" y="348.097" svg_rhmargin="575.515" style="fill:#000000;font-family:IMLIID+AdvTTe45e47d2;font-size:9.0px;font-style:NORMAL;font-weight:normal;">(2017) found net cooling by 2050 using a global aerosol-climate model, driven by enhanced cloud droplet</text>
  <text x="172.515,177.483,182.352,189.849,194.907,199.407,202.305,205.115,209.426,214.394,219.452,222.294,227.163,232.221,235.119,237.18,241.203,245.514,247.57500000000002,250.414,253.312,258.28,260.341,264.364,268.576,273.544,278.044,281.599,285.154,287.946,292.815,295.434,298.264,302.287,304.348,309.217,314.086,319.144,322.699,325.534,330.403,334.714,339.214,342.112,344.981,347.879,352.847,357.347,360.174,365.61,368.508,372.531,375.429,377.49,381.51300000000003,384.326,390.509,394.532,399.032,403.343,408.311,410.084,412.9,418.336,420.397,423.295,428.263,433.132,438.001,442.969,447.937,450.772,455.74,457.801,462.769,467.737,469.798,474.01,476.851,479.749,484.249,486.31,490.81,495.121,499.432,504.4,507.298,510.132,513.029,517.898,520.734,525.234,530.202,534.513,536.573,539.471,544.341,549.309,556.806,561.306,566.274,569.172,573.483" y="360.059" svg_rhmargin="575.544" style="fill:#000000;font-family:IMLIID+AdvTTe45e47d2;font-size:9.0px;font-style:NORMAL;font-weight:normal;">number and optical thickness of clouds over the Arctic Ocean. Although highly relevant to environmental</text>
  <text x="172.515,174.576,182.073,187.131,191.442,195.465,198.363,201.918,204.492,209.361,211.98,214.527,217.146,222.015,224.913,229.782,232.68,237.18,239.755,243.31,248.278,250.339,255.397,260.455,262.516,267.484,272.452,274.225,276.777,279.675,284.643,289.143,291.744,299.241,303.741,306.639,311.607,316.476,321.534,325.089,327.631,331.942,336.91,341.968,344.526,349.026,356.523,358.584,362.139,365.694,367.755,372.624,377.59200000000004,380.13,385.188,388.086,392.955,395.106,399.606,403.629,406.527,408.588,413.457,418.425,421.98,424.579,429.448,433.003,437.503,442.561,445.16,450.218,453.116,457.616,461.927,463.988,468.857,473.726,477.281,479.342,483.554,486.093,490.404,493.302,497.802,500.38,505.348,510.217,513.115,515.687,519.71,524.021,529.079,533.39,538.448,540.509,545.009,547.55,552.419,555.038,557.642,562.142,566.453,570.764,572.825" y="372.078" svg_rhmargin="575.543" style="fill:#000000;font-family:IMLIID+AdvTTe45e47d2;font-size:9.0px;font-style:NORMAL;font-weight:normal;">impacts of future shipping, the methods and emission projections used previously are not capable of eval-</text>
  <text x="172.515,177.384,181.695,184.593,186.654,191.622,196.59,199.615,204.673,208.885,213.853,218.164,225.661,227.722,231.745,234.766,237.385,241.885,246.385,251.443,256.501,260.812,264.835,269.047,272.60200000000003,275.643,277.704,282.672,285.678,288.576,293.544,298.044,301.042,306.1,311.068,315.28,318.835,320.896,324.919,329.23,331.291,334.322,338.345,340.406,342.467,349.964,354.275,357.173,361.673,364.711,369.022,373.99,379.048,382.059,387.027,391.896,399.393,403.704,408.672,411.71,416.021,420.044,422.942,425.003,429.314,431.375,434.273,436.334,440.834,444.389,446.16200000000003,449.186,456.773,461.273,464.323,469.381,474.25,476.311,478.372,483.43,486.434,491.303,496.271,499.303,502.201,507.169,511.669,515.224,519.724,522.717,527.217,531.528,534.426,536.487,538.548,543.048,545.946,549.023,552.578,555.476,560.345,565.403,567.464,571.964" y="384.096" svg_rhmargin="575.519" style="fill:#000000;font-family:IMLIID+AdvTTe45e47d2;font-size:9.0px;font-style:NORMAL;font-weight:normal;">uating dynamic feedbacks in the physical climate and human activities. We build on these earlier studies</text>
  <text x="172.515,177.573,181.785,184.762,189.631,193.186,195.247,200.215,205.183,208.176,212.487,215.49,218.109,222.978,225.039,227.1,231.31199999999998,234.255,238.278,243.147,248.016,253.074,255.135,259.635,264.693,267.706,272.107,276.418,279.316,282.214,287.182,290.157,293.712,297.924,301.479,304.377,308.877,316.374,319.412,326.909,331.778,336.836,341.336,343.397,346.342,348.871,353.272,357.673,364.891,367.42,370.437,373.056,377.925,380.823,384.846,389.346,394.404,397.424,402.482,406.694,409.67,413.225,418.283,422.594,425.492,427.553,431.864,433.925,435.986,440.198,443.177,447.488,452.456,457.514,460.526,463.424,467.924,475.421,480.479,485.348,488.246,492.557,494.618,496.679,500.89099999999996,503.841,508.341,512.463,517.521,519.582,521.643,525.666,527.727,530.625,533.662,538.72,541.618,546.487,548.638,553.138,557.161,560.059,562.12,566.989,571.957" y="396.058" svg_rhmargin="575.512" style="fill:#000000;font-family:IMLIID+AdvTTe45e47d2;font-size:9.0px;font-style:NORMAL;font-weight:normal;">by using a fully coupled Earth system model (ESM) forced by spatially and temporally explicit projections</text>
  <text x="172.515,177.384,180.003,182.607,185.505,188.403,192.714,197.682,201.237,203.955,209.391,212.289,216.312,219.21,221.271,225.29399999999998,227.906,231.461,236.429,238.49,243.548,248.606,250.667,255.635,260.603,263.226,267.726,275.223,277.284,280.839,284.394,286.455,291.324,296.292,299.847,302.459,307.517,312.017,314.915,321.476,325.976,330.476,335.444,338.007,342.596,347.186,351.776,356.366,358.984,363.295,368.263,373.32099999999997,375.935,380.525,385.115,389.705,394.295,396.06800000000004,398.67,404.475,409.443,411.504,413.565,417.777,422.277,424.863,429.921,432.819,437.319,441.63,443.691,448.56,453.429,456.984,459.616,463.171,466.069,470.938,475.996,478.057,482.557,486.112,487.88500000000005,490.515,493.413,498.381,500.442,503.997,506.616,511.017,515.418,522.636,525.212,528.767,530.828,538.325,543.194,545.255,549.566,552.464,556.964,560.519,563.141,566.039,571.007" y="408.077" svg_rhmargin="575.507" style="fill:#000000;font-family:IMLIID+AdvTTe45e47d2;font-size:9.0px;font-style:NORMAL;font-weight:normal;">of trans-Arctic shipping emissions between 2006 and 2099. Unlike previous studies, this ESM simulates the</text>
  <text x="172.515,177.573,182.541,186.753,190.308,192.369,196.392,200.703,202.764,205.682,207.743,212.711,215.609,220.109,223.007,227.318,231.341,234.239,236.3,241.169,246.137,249.692,252.625,257.494,260.11300000000006,263.057,267.368,269.429,274.487,278.987,284.045,288.914,290.687,293.616,297.639,299.7,304.569,309.438,314.496,318.051,319.824,322.814,327.683,331.706,336.206,340.517,345.485,349.04,350.81300000000005,353.769,358.08,363.048,368.106,371.004,374.559,379.059,383.37,386.311,388.372,392.395,396.895,398.668,401.619,405.93,410.898,415.956,418.854,421.752,426.72,431.22,434.161,438.661,446.158,448.219,451.774,455.329,457.39,462.259,467.22700000000003,470.162,475.22,478.118,482.987,485.138,489.638,493.661,496.559,498.62,503.489,508.457,512.012,514.95,519.45,526.947,532.005,534.066,538.935,543.147,547.647,552.705,555.657,559.968,562.029,564.09,568.959" y="420.096" svg_rhmargin="575.52" style="fill:#000000;font-family:IMLIID+AdvTTe45e47d2;font-size:9.0px;font-style:NORMAL;font-weight:normal;">physical interactions of albedo, clouds, oceans, and sea ice, and the emission projections employed allow</text>
  <text x="172.515,176.07,181.128,185.628,189.651" y="432.057" svg_rhmargin="191.712" style="fill:#000000;font-family:IMLIID+AdvTTe45e47d2;font-size:9.0px;font-style:NORMAL;font-weight:normal;">speci</text>
  <text x="191.677" y="432.057" svg_rhmargin="196.357" style="fill:#000000;font-family:IMLIIE+AdvTTe45e47d2+fb;font-size:9.0px;font-style:NORMAL;font-weight:normal;">ﬁ</text>
  <text x="196.383,200.406,203.016,206.571,211.539,213.6,218.658,223.716,225.777,230.745,235.713,238.279,241.177,246.046,250.915,253.813,258.313,261.868,264.472,267.37,272.23900000000003,274.847,279.158,283.469,286.367,290.579,293.16,299.721,301.782,304.68,309.648,312.266,315.821,320.321,324.632,328.187,333.056,338.024,342.335,344.39599999999996,346.963,351.274,356.242,361.3,363.915,368.973,373.473,377.496,381.807,386.865,391.176,393.23699999999997,395.834,399.857,404.825,409.136,414.104,419.072,423.572,427.127,429.681,431.742,436.71000000000004,439.32,442.875,447.375,451.686,454.287,456.348,460.371,464.871,467.439,470.994,475.86300000000006,478.438,481.336,486.304,490.615,493.51300000000003,496.127,499.682,504.65,506.711,511.769,516.827,518.888,523.856,528.824,531.39,534.288,539.157,544.026,546.924,551.424,554.9789999999999,557.64,561.195,566.253,570.564" y="432.057" svg_rhmargin="575.532" style="fill:#000000;font-family:IMLIID+AdvTTe45e47d2;font-size:9.0px;font-style:NORMAL;font-weight:normal;">c shipping routes to vary with seasonal and decadal changes in sea ice so that shipping routes span</text>
  <text x="172.515,180.012,184.881,186.942,189.84,191.901,196.959,199.02,203.52,206.928,214.425,218.736,221.634,223.695,228.663,233.163,236.579,241.637,245.948,248.846,253.814,260.375,264.686,268.898,272.45300000000003,275.812,278.341,282.841,284.614,289.582,291.355,293.12800000000004,296.562,299.46,304.428,308.928,312.38,316.403,321.272,325.583,329.138,332.036,336.347,338.40799999999996,341.805,347.709,352.578,355.476,358.374,363.342,367.842,370.74,375.708,379.11,383.511,388.011,392.322,395.721,400.5,405.369,410.238,413.136,417.636,421.063,425.374,430.342,435.4,438.808,443.866,445.927,448.825,453.325,457.348,460.24600000000004,463.697,466.595,469.493,473.804,478.772,482.327,484.388,487.286,490.841,494.256,499.125,503.436,507.936,510.834,514.269,517.167,522.135,526.635,530.03,535.934,540.803,543.701,546.599,551.567,554.975,559.754,564.623,566.684,571.184,573.713" y="444.076" svg_rhmargin="575.486" style="fill:#000000;font-family:IMLIID+AdvTTe45e47d2;font-size:9.0px;font-style:NORMAL;font-weight:normal;">multiple marine pathways (e.g., the coastal Northern Sea Route and direct transits over the North Pole).</text>
  <text x="172.515,178.698,183.567,186.465,190.827,193.725,198.225,201.78,206.649,208.71,211.608,215.163,219.514,222.412,227.38,232.249,235.804,240.151,243.049,247.549,252.607,255.505,260.005,263.56,268.06,273.028,275.92600000000004,280.291,284.602,288.965,296.462,301.331,304.229,308.729,313.06,315.958,320.458,324.769,326.83,328.891,332.446,335.344,337.405,341.428,345.83,350.141,355.109,360.167,364.483,367.381,372.25,377.308,382.177,385.732,388.63000000000005,393.057,397.557,401.112,404.01,406.071,413.568,417.879,420.777,425.277,429.625,434.494,437.11300000000006,441.474,445.497,447.558,449.619,457.116,461.427,464.325,468.825,473.167,476.065,480.565,484.12,489.178,494.047,499.015,502.57,507.07,510.625,515.008,517.906,522.775,527.083,529.702,534.571,537.469,542.338,545.236,549.736,554.126,557.024,559.922,564.233,569.201,572.756" y="456.095" svg_rhmargin="575.474" style="fill:#000000;font-family:IMLIID+AdvTTe45e47d2;font-size:9.0px;font-style:NORMAL;font-weight:normal;">Our results thus represent a more realistic and robust estimate of climate responses to future trans-</text>
  <text x="172.515,177.951,180.849,184.872,187.77,189.831,193.85399999999998,197.006,200.561,205.529,207.59,212.648,217.706,219.767,224.735,229.703" y="468.057" svg_rhmargin="231.476" style="fill:#000000;font-family:IMLIID+AdvTTe45e47d2;font-size:9.0px;font-style:NORMAL;font-weight:normal;">Arctic shipping.</text>
  <text x="172.516,178.589,181.339,184.818,194.091,199.811,203.815,210.228,216.52,223.043" y="500.491" svg_rhmargin="227.74" style="fill:#0a3a69;font-family:IMLFAI+AdvTTaf7f9f4f.B;font-size:11.0px;font-style:NORMAL;font-weight:normal;">2. Methods</text>
  <text x="172.516,177.484,179.734,184.702,186.952,190.432,195.301,198.676,203.356,208.603,212.446,215.254,221.059,224.434,228.457,231.733,234.163,238.186,240.607,245.386,250.633,253.063,258.4,263.737,266.167,271.414,276.661,279.103,283.882,291.568,293.998,297.841,301.684,304.114,309.262,314.509" y="515.005" svg_rhmargin="318.352" style="fill:#0a3a69;font-family:IMLFAI+AdvTTaf7f9f4f.B;font-size:9.0px;font-style:NORMAL;font-weight:normal;">2.1. Trans-Arctic Shipping Emissions</text>
  <text x="172.516,177.296,180.193,185.063,187.214,191.714,195.736,198.634,203.134,208.19199999999998,210.842,215.342,222.839,224.9,228.455,232.01,234.071,238.94,243.908,246.559,248.62,253.588,257.899,262.399,267.367,270.265,275.134,278.032,280.093,284.593,288.148,290.782,293.401,296.299,301.168,308.665,311.305,314.203,317.101,321.412,326.38,329.935,332.653,338.089,340.987,345.01,347.908,349.969,353.992,356.661,360.216,365.184,367.245,372.303,377.361,379.422,384.39,389.358,392.038,397.096,401.965,404.863,406.924,411.892,416.86,419.478,422.376,427.344,431.844,434.502,439.56,444.06,446.958,449.019,453.888,458.94599999999997,461.602,466.192,470.782,475.372" y="530.992" svg_rhmargin="479.962" style="fill:#000000;font-family:IMLIID+AdvTTe45e47d2;font-size:9.0px;font-style:NORMAL;font-weight:normal;">Projected emission inventories from trans-Arctic shipping during the period 2006</text>
  <text x="479.962" y="530.992" svg_rhmargin="484.462" style="fill:#000000;font-family:IMLIJF+AdvTTe45e47d2+20;font-size:9.0px;font-style:NORMAL;font-weight:normal;">–</text>
  <text x="484.44,489.03,493.62,498.21,502.79999999999995,505.474,512.035,516.535,519.433,523.933,526.565,531.623,536.123,539.021,541.082,545.393,549.893,554.951,557.577,560.196,563.094,567.963" y="530.992" svg_rhmargin="575.46" style="fill:#000000;font-family:IMLIID+AdvTTe45e47d2;font-size:9.0px;font-style:NORMAL;font-weight:normal;">2099 were derived from</text>
  <text x="172.516,176.071,178.132,185.629,190.498,192.559,196.87,199.768,204.268,209.326,211.918,216.229,221.098,225.31,229.621,234.589,239.089,242.644,245.312,249.335,254.204,261.701,266.759,271.628,274.526,279.026,284.084,286.699,291.758,295.96999999999997,298.606,302.629,307.498,314.995,320.053,322.114,327.082,329.143,334.111,339.079,341.694,346.095,350.496,357.714,360.432,365.49,368.388,373.257,375.408,379.908,383.931,386.829,391.329,396.387,399.012,402.567,407.067,411.378,413.979,416.04,420.063,424.563,427.189,432.247,434.308,437.863,440.761,443.659,445.72,450.778,455.647,458.545,460.606,465.475,470.44300000000004,473.111,479.672,481.733,484.631,489.599,492.217,497.275,500.173,505.042,507.193,511.693,515.716,518.614,523.114,528.172,530.826,535.227,540.096,542.994,547.863,552.921,557.421,560.139,565.575,569.13,571.191" y="543.011" svg_rhmargin="575.502" style="fill:#000000;font-family:IMLIID+AdvTTe45e47d2;font-size:9.0px;font-style:NORMAL;font-weight:normal;">simulated voyages computed by combining ESM-projected sea ice distribution with projected Europe-Asia</text>
  <text x="172.516,175.414,178.312,182.623,187.681,192.181,193.954,197.858,202.259,205.157,209.468,214.436,217.991,220.052,222.95,226.505,230.458,233.356,237.667,241.879,246.379,250.301,255.359,257.42,261.731,265.754,270.254,274.169,280.73,285.698,290.198,295.166,299.057,301.955,308.516,313.385,317.313,321.336,326.205,331.173,336.231,338.292,341.19,343.251,348.12,353.088,356.64300000000003,360.628,364.939,367.837,372.337,376.219,383.716,388.216,391.114,392.887,396.856,399.385,403.975,406.504,410.405,413.96,418.46,422.77099999999996,426.676,428.737,432.76,437.26,441.19,445.213,450.082,455.05,460.108,462.169,465.067,467.128,471.997,476.965,480.52,484.448,488.948,493.916,498.227,503.285,505.346,509.846,513.76,516.658,521.158,525.181,530.149,535.117,537.178,541.201,545.512,547.573,551.518,555.829,559.852,563.875,568.375,571.93" y="554.973" svg_rhmargin="575.485" style="fill:#000000;font-family:IMLIID+AdvTTe45e47d2;font-size:9.0px;font-style:NORMAL;font-weight:normal;">trade. Transits take place when two conditions are met: (1) sea ice conditions enable technical access</text>
  <text x="172.516,177.574,182.074,184.972,191.533,196.033,200.533,205.50099999999998,208.176,212.577,217.446,220.344,225.213,230.271,234.771,237.544,241.855,246.823,251.881,254.609,260.045,263.6,265.661,269.972,271.745,274.452,276.981,281.571,284.1,286.812,291.681,296.739,301.239,304.137,308.448,311.346,313.407,318.375,323.343,326.102,330.125,334.993,338.548,341.447,345.002,347.759,352.628,355.247,357.964,361.519,366.487,368.548,373.606,378.664,380.725,385.693,390.661,393.398,397.709,399.77,404.08099999999996,406.777,409.676,414.643,419.143,421.915,423.976,428.476,432.787,436.342,439.24,441.958,445.981,450.85,454.405,457.303,460.013,465.449,468.347,472.37,475.268,477.329,481.35200000000003,484.108,487.006,491.875,496.744,499.642,504.142,506.9,511.211,514.109,518.609,521.3,523.361,528.23,534.791,539.291,542.1890000000001,544.942,547.84,552.808,557.119,562.087,564.785,569.096,571.157" y="566.991" svg_rhmargin="575.468" style="fill:#000000;font-family:IMLIID+AdvTTe45e47d2;font-size:9.0px;font-style:NORMAL;font-weight:normal;">between Europe and Asia; (2) operating costs of shipping via the least-cost Arctic route are lower than via</text>
  <text x="172.516,175.414,180.382,184.882,187.312,191.713,196.582,201.082,204.92499999999998,207.326,212.474,216.785,221.753,226.064,228.125,230.571,233.469,238.338,243.207,246.105,250.605,252.378,254.837,259.148,264.017,266.078,268.13899999999995,270.541,275.599,280.099,282.997,287.308,289.369,291.43,294.985,297.414,301.725,304.623,309.123,311.587,316.555,318.616,322.927,327.427,332.39500000000004,334.775,336.836,341.80400000000003,344.243,347.798,352.667,357.725,362.783,367.652,370.55,373.448,375.509,380.477,385.445,387.898,389.959,394.927,397.546,402.415,405.313,412.81,417.121,420.019,422.08,426.949,431.917" y="579.01" svg_rhmargin="433.69" style="fill:#000000;font-family:IMLIID+AdvTTe45e47d2;font-size:9.0px;font-style:NORMAL;font-weight:normal;">the Suez Canal route. Full details are given in supporting information.</text>
  <text x="172.516,177.484,179.734,184.702,186.952,191.92,194.17,197.631,202.5,207.18,211.203,216.45,221.697,224.127,228.15,232.83,235.26000000000002,237.714,242.493,247.74,250.17,255.507,260.844,263.274,268.521,273.76800000000003,276.21,282.015,286.038,290.061,294.741,298.584" y="590.972" svg_rhmargin="302.427" style="fill:#0a3a69;font-family:IMLFAI+AdvTTaf7f9f4f.B;font-size:9.0px;font-style:NORMAL;font-weight:normal;">2.1.1. Technical Shipping Access</text>
  <text x="172.516,176.917,181.885,186.385,190.771,198.268,202.768,205.666,210.634,215.503,220.561,225.43,227.491,232.36,237.328,241.54,245.935,248.554,253.423,256.321,260.788,264.811,269.122,271.184,275.207,280.076,282.137,286.448,289.346,291.407,296.375,301.343,305.747,308.645,313.145,317.168,322.136,327.104,329.165,333.188,337.499,339.56,343.959,347.514,352.482,354.543,359.601,364.659,366.72,371.688,376.656,381.038,385.349,389.372,393.395,397.895,401.45,405.005,409.442,413.942,418.064,420.962,425.462,430.43,435.488,439.043,443.458,446.356,451.324,455.824,460.239,464.55,469.608,474.666,477.564,482.433,486.744,490.767,495.735,500.153,505.022,507.641,512.059,516.46,519.358,523.858,528.916,533.884,538.384,543.352,546.907,551.776,556.7439999999999,561.156,565.467,570.435" y="602.991" svg_rhmargin="575.493" style="fill:#000000;font-family:IMLIID+AdvTTe45e47d2;font-size:9.0px;font-style:NORMAL;font-weight:normal;">The methodology for calculating technical shipping access extends the approach of Stephenson and</text>
  <text x="172.516,176.917,184.414,186.475,189.373,194.34099999999998,198.311,200.84,205.43,210.02,214.61,219.2,221.729,223.502,227.509,234.727,239.596,244.564,247.462,252.43,254.491,258.70300000000003,262.66,267.718,270.616,275.485,277.636,282.136,286.159,289.057,293.557,298.615,302.629,306.184,310.684,314.995,319.014,321.075,325.098,329.598,333.584,337.607,342.476,347.444,351.467,355.967,360.935,363.833,366.731,371.042,373.94,376.001,380.87,385.838,389.825,394.136,399.104,404.162,408.137,411.035,416.003,418.064,422.087,426.299,431.267,435.767,439.322,442.877,446.86,451.918,456.229,459.127,463.438,467.44,471.751,474.649,479.149,483.144,488.013,493.071,495.969,500.28,502.341,507.309,511.809,516.8670000000001,520.846,523.465,526.363,531.232,538.7289999999999,542.73,547.32,551.9100000000001,555.882,560.283,564.684,571.902" y="615.009" svg_rhmargin="575.457" style="fill:#000000;font-family:IMLIID+AdvTTe45e47d2;font-size:9.0px;font-style:NORMAL;font-weight:normal;">Smith (2015). Monthly projected sea ice concentration and thickness data are obtained from 10 ESMs</text>
  <text x="172.516,176.071,181.039,185.908,192.469,197.43699999999998,199.956,202.854,207.723,210.331,213.886,215.947,223.444,228.313,230.374,234.685,237.583,242.083,244.631,251.192,255.692,257.753,259.81399999999996,262.376,265.274,270.242,274.742,277.286,282.155,287.213,290.768,295.268,298.166,302.477,306.977,312.03499999999997,314.591,318.614,320.675,322.736,330.233,334.544,337.442,342.311,344.372,349.241,354.209,358.421,360.194,362.782,365.68,368.578,373.078,378.046,383.104,384.877,387.445,391.756,396.724,401.782,404.339,407.894,412.394,416.705,420.26,425.129,430.097,434.408,436.469,438.98,443.291,450.788,455.846,457.907,459.968,462.866,467.735,472.793,477.293,479.857,484.726,487.345,489.948,494.538,499.128,502.026,506.994,509.712,513.735,518.235,523.203,526.101,530.97,533.868,538.08,540.634,544.945,549.913,554.971,557.528,562.028,566.339,569.237,571.298" y="626.971" svg_rhmargin="575.51" style="fill:#000000;font-family:IMLIID+AdvTTe45e47d2;font-size:9.0px;font-style:NORMAL;font-weight:normal;">shown to simulate well the observed climatology, trend, and seasonal amplitude of 20th-century and early</text>
  <text x="172.516,177.106,181.696,185.251,188.149,190.867,194.89,199.39,204.358,207.256,212.125,215.023,219.23499999999999,223.541,227.096,231.596,235.907,240.209,242.27,246.293,250.793,255.119,259.619,263.741,266.639,271.139,276.107,279.00500000000005,283.297,287.608,292.576,297.634,301.949,306.26,311.129,313.19,318.059,325.556,330.056,334.322,336.851,340.127,344.438,349.406,354.374,358.7,363.2,366.098,370.38,374.691,376.752,378.525,380.298,384.61,389.2,393.79,398.38,402.97,404.74300000000005,409.045,412.321,414.09400000000005,418.456,422.668,424.729,429.59799999999996,433.876,438.376,441.274,445.612,449.923,451.984,453.757,455.53000000000003,459.842,464.432,469.022,473.612,478.202,479.975,484.278,491.496,495.807,499.362,502.917,507.786,512.754,517.722,522.222,525.12,529.407,533.907,536.8050000000001,541.143,545.454,547.515,549.288,551.061,555.373,559.963,564.553,569.143,573.733" y="638.99" svg_rhmargin="575.506" style="fill:#000000;font-family:IMLIID+AdvTTe45e47d2;font-size:9.0px;font-style:NORMAL;font-weight:normal;">21st-century sea ice extent and volume (Jahn et al., 2012; J. Liu et al., 2013; Massonnet et al., 2012;</text>
  <text x="172.516,176.917,179.815,184.315,189.373,194.341,198.841,203.809,207.364,212.233,217.201,220.479,225.91500000000002,229.21,233.611,241.108,243.169,246.067,251.035,252.808,256.14,260.73,265.32,269.91,274.5,277.029,278.802,282.106,289.324,294.193,299.161,302.059,307.027,309.088,313.3,316.633,321.691,326.002,328.9,333.21099999999996,336.476,340.787,343.685,348.185,351.499,355.81,360.121,364.621,367.519,371.83,376.798,381.298,386.356,389.655,393.966,397.989,400.887,405.756,409.311,412.866,416.188,423.685,428.554,433.612,438.112,440.173,443.728,447.03,449.928,454.797,458.142,460.761,465.63,468.528,476.02500000000003,479.29,482.188,487.156,491.656,494.994,499.494,504.462,508.017,512.517,520.014,525.072,527.133,531.633,534.907,539.218,543.529,548.029,550.927,555.238,560.206,564.706,568.017,572.886" y="651.008" svg_rhmargin="575.505" style="fill:#000000;font-family:IMLIID+AdvTTe45e47d2;font-size:9.0px;font-style:NORMAL;font-weight:normal;">Stephenson &amp; Smith, 2015). Monthly data are averaged across models to form the ensemble average of</text>
  <text x="172.516,176.071,180.571,184.882,188.106,190.167,194.19,198.69,201.939,205.962,210.831,215.799,219.822,224.322,229.29,232.188,235.086,239.397,242.295,244.356,249.225,254.19299999999998,257.5,261.811,266.779,271.837,275.075,277.973,282.941,285.002,289.025,293.237,298.205,302.705,306.26,309.815,313.117,315.736,318.634,323.503,331.0,334.264,338.854,343.444,348.034,352.62399999999997,355.865,358.763,363.63199999999995,366.921,371.511,376.101,380.691,385.281,387.05400000000003,390.28,396.463,401.521,404.419,406.48,413.977,418.288,420.349,423.616,425.677,430.177,434.488,438.043,440.941,443.659,447.682,452.551,456.106,459.004,462.282,467.25,471.561,475.872,477.933,482.901,487.212,490.11,492.171,497.04,502.00800000000004,505.257,508.155,513.024,517.893,520.791,525.291,528.846,532.13,536.441,539.339,543.839,547.097,552.155,556.655,559.553,561.614,565.925,570.425" y="662.97" svg_rhmargin="575.483" style="fill:#000000;font-family:IMLIID+AdvTTe45e47d2;font-size:9.0px;font-style:NORMAL;font-weight:normal;">sea ice concentration and thickness from 2006 to 2099. Optimal least-cost navigation routes are derived</text>
  <text x="172.516,175.135,178.033,182.902,190.399,194.626,199.027,203.428,210.646,214.809,219.867,224.178,227.076,231.387,235.616,238.235,243.104,245.165,247.226,252.095,258.656,260.717,265.685,270.653,274.849,277.747,282.715,287.215,291.46,296.896,299.794,303.817,306.715,308.776,312.79900000000004,317.03,319.091,323.114,327.614,331.826,336.605,341.105,346.073,348.134,355.631,360.131,364.313,368.714,373.682,375.743,380.801,385.859,387.92,392.888,397.856,402.071,406.472,410.684,414.239,417.137,421.637,429.134,433.31,435.929,438.827,443.138,450.635,455.135,461.696,466.565,469.463,473.675,477.929,480.458,484.859,487.757,492.068,497.036,500.591,505.649,510.518,513.416,516.3140000000001,520.507,525.655,529.966,534.934,539.245,544.303,548.614,550.3870000000001,554.638,559.228,563.818,568.408,572.998" y="674.989" svg_rhmargin="575.527" style="fill:#000000;font-family:IMLIID+AdvTTe45e47d2;font-size:9.0px;font-style:NORMAL;font-weight:normal;">from ESM data following the Arctic Ice Regime Shipping System framework (Transport Canada, 1998)</text>
  <text x="172.516,177.574,182.074,185.629,189.652,192.55,194.611,199.669,204.169,209.227,212.485,214.546,219.51399999999998,222.804,227.862,232.362,235.26,239.571,241.632,243.693,247.012,252.07,256.282,259.598,263.999,266.897,271.397,276.455,281.423,285.923,290.891,294.446,299.315,304.283,307.561,312.061,314.959,318.22,322.531,324.592,326.365,329.673,332.202,336.792,341.382,345.972,350.562,353.091,354.86400000000003,358.19,362.969,367.28,369.341,372.239,378.8,380.861,384.416,388.916,392.206,396.607,401.476,404.374,409.243,414.301,418.801,421.519,426.955,430.51,432.571,436.882,440.17,443.068,447.937,452.806,455.704,460.204,463.759,467.043,471.354,474.252,478.752,482.067,486.09,490.959,498.456,503.514,508.383,511.281,515.781,520.8389999999999,524.135,529.004,532.559,534.62,539.588,544.5559999999999,547.833,552.144,555.43,557.49,561.99,566.301,569.856,572.754" y="687.0070000000001" svg_rhmargin="575.472" style="fill:#000000;font-family:IMLIID+AdvTTe45e47d2;font-size:9.0px;font-style:NORMAL;font-weight:normal;">described in detail by Stephenson et al. (2013). Pairwise Europe-Asia routes are computed using a least-</text>
  <text x="172.516,176.539,181.408,184.963,187.861,192.756,197.814,202.125,205.023,209.99099999999999,214.866,219.177,221.238,226.206,231.075,233.973,236.034,238.932,243.9,251.397,256.253,261.311,265.811,268.709,275.27,279.77,284.27,289.238,294.125,298.715,303.593,307.994,312.863,315.761,320.63,325.688,330.188,334.499,339.46700000000004,344.357,348.668,353.636,358.694,363.577,368.167,372.75699999999995,377.58,381.981,386.292,389.847,392.745,397.65,403.086,406.641,408.702,413.013,417.981,422.878,427.936,432.805,435.703,438.601,443.459,446.357,450.857,455.825,457.886,462.755,467.723,471.278,476.172,478.701,482.724,487.593,495.09,500.148,502.209,507.177,509.238,514.206,519.174,524.079,529.137,534.006,536.904,539.802,543.357,548.23,551.785,556.285,559.183,563.494,565.555,570.523" y="698.969" svg_rhmargin="575.491" style="fill:#000000;font-family:IMLIID+AdvTTe45e47d2;font-size:9.0px;font-style:NORMAL;font-weight:normal;">cost path algorithm between 4 European and 14 East Asian port regions (combining ports serving</text>
  <text svg_rhmargin="473.498" x="172.516,176.539,181.408,188.905,196.402,201.271,206.23899999999998,208.913,211.811,216.311,221.279,223.34,228.209,233.177,237.488,239.549,242.194,249.691,254.002,256.9,261.112,265.612,268.51,272.065,274.594,277.287,280.185,285.153,289.464,292.362,295.089,299.4,302.298,306.798,309.433,313.744,321.241,326.11,331.078,336.046,338.744,341.642,346.61,351.11,353.767,356.665,361.534,366.592,369.302,373.892,378.48199999999997,381.151,386.209,391.078,393.976,396.874,400.42900000000003,403.149,409.71,414.579,417.477,419.538,424.596,431.157,433.218,438.276,442.776,445.443,447.504,452.47200000000004,455.138,459.728,464.318,468.908,473.498" y="710.988" style="fill:#000000;font-family:IMLIID+AdvTTe45e47d2;font-size:9.0px;font-style:NORMAL;font-weight:normal;">common regional markets) that are among the top 50 ports worldwide in 2010 </text>
  <text x="476.163,478.971,485.244,489.267,494.046,496.854,500.787,503.505,506.034,510.714,515.394,518.202,520.952,524.975,529.655,534.335,536.297,540.32,545.0,546.962,550.985,555.764,558.572,561.262,565.942,570.721,572.683" y="710.988" svg_rhmargin="575.491" style="fill:#000000;font-family:IMLIJG+AdvTT7329fd89.I;font-size:9.0px;font-style:NORMAL;font-weight:normal;">twenty-foot equivalent unit</text>
  <text x="172.516,175.414,178.312,182.623" y="723.006" svg_rhmargin="185.242" style="fill:#000000;font-family:IMLIID+AdvTTe45e47d2;font-size:9.0px;font-style:NORMAL;font-weight:normal;">traf</text>
  <text x="185.215" y="723.006" svg_rhmargin="189.895" style="fill:#000000;font-family:IMLIIE+AdvTTe45e47d2+fb;font-size:9.0px;font-style:NORMAL;font-weight:normal;">ﬁ</text>
  <text x="189.92,193.94299999999998,198.084,200.613,205.761,210.63,215.598,218.496,222.807,224.868,229.836,234.336,237.234,239.295,242.85,247.161,250.059,252.12,256.989,261.957,266.061,268.122,273.09,275.988,280.488,283.386,288.354,292.665,295.563,297.624,302.493,307.461,311.772,313.833,315.60600000000005,319.751,324.341,328.931,333.521,338.111,340.64,342.413,346.511,351.29,356.159,361.028,363.926,368.426,372.533,377.591,381.902,384.8,389.768,393.323,397.479,401.79,404.688,409.188,413.296,417.607,419.668,421.729,426.598,433.159,437.659,442.717,446.802,449.7,454.56899999999996,458.708,463.019,467.33,470.228,474.44,478.552,481.45,486.31899999999996,490.457,497.954,500.015,504.983,507.044,514.541,516.602,520.445,524.945,529.009,531.907,534.805,539.116,544.084,547.639,549.7,552.5980000000001,556.733,559.631,561.692,569.189,573.689" y="723.006" svg_rhmargin="575.462" style="fill:#000000;font-family:IMLIID+AdvTTe45e47d2;font-size:9.0px;font-style:NORMAL;font-weight:normal;">c (Containerisation International, 2012). Route paths are allowed to vary to minimize transit time,</text>
  <text x="172.515,177.015,181.983,186.006,190.875,198.372,203.43,207.741,211.296,214.851,216.912,221.88,226.84799999999998,230.627,234.65,239.519,243.83,247.385,250.283,254.594,256.655,260.392,263.29,268.159,273.028,275.926,280.426,283.981,287.775,291.33,296.199,300.222,305.19,308.979,313.29,316.845,320.658,323.556,328.524,333.024,336.759,342.663,347.532,350.43,353.328,358.296,362.796,365.694,370.66200000000003,374.461,378.862,383.362,387.673,391.413,396.192,401.061,405.93,408.828,413.328,417.095,421.406,426.374,431.432,435.237,441.141,446.01,448.908,451.806,456.774,463.335,467.835,471.39,474.288,478.042,482.821,487.132,490.687,494.242,498.553,503.521,508.021,511.832,516.143,519.698,523.454,530.015,534.515,536.576,538.6370000000001,542.39,546.701,550.256,554.013,559.071,561.132,564.03,568.53,572.553" y="734.968" svg_rhmargin="575.451" style="fill:#000000;font-family:IMLIID+AdvTTe45e47d2;font-size:9.0px;font-style:NORMAL;font-weight:normal;">encompassing coastal routes such as the Northern Sea Route and Northwest Passage as well as direct</text>
  <text svg_rhmargin="280.754" x="172.515,175.413,178.311,182.622,187.59,191.145,193.206,196.104,199.65900000000002,202.79,207.659,211.97,216.47,219.368,222.52,225.418,230.386,234.886,238.054,243.958,248.827,251.725,254.623,259.591,262.772,267.551,272.42,274.481,278.981,280.754" y="66.28099999999995" style="fill:#000000;font-family:IMLIID+AdvTTe45e47d2;font-size:9.0px;font-style:NORMAL;font-weight:normal;">transits over the North Pole. </text>
  <path d=" M 35.94300079345703 720.9639892578125 L 575.4329833984375 720.9639892578125 L 575.4329833984375 721.5308837890625 L 35.94300079345703 721.5308837890625 Z " style="fill:none;stroke:#000000;stroke-width:1.0;"/>
  <path d=" M 51.189998626708984 744.5499877929688 L 51.840999603271484 746.4749755859375 L 52.43000030517578 744.8519897460938 C 52.96399688720703 744.9719848632812 53.503997802734375 745.0800170898438 54.04800033569336 745.1749877929688 L 52.75599670410156 748.3670043945312 L 50.89999771118164 748.3670043945312 L 49.209999084472656 743.9660034179688 C 49.86199951171875 744.1790161132812 50.52199935913086 744.3739624023438 51.189998626708984 744.5499877929688" style="fill:none;stroke:#000000;stroke-width:1.0;"/>
  <path d=" M 52.71799850463867 744.0579833984375 L 51.28799819946289 743.718994140625 C 50.45699691772461 743.5039672851562 49.63800048828125 743.2579956054688 48.83199691772461 742.9819946289062 L 47.90599822998047 740.5709838867188 L 49.83799743652344 740.5709838867188 L 50.446998596191406 742.385986328125 L 53.2339973449707 742.614990234375 L 53.974998474121094 740.5709838867188 L 55.91499710083008 740.5709838867188 L 54.37299728393555 744.3720092773438 C 53.81599807739258 744.2799682617188 53.263999938964844 744.1759643554688 52.71799850463867 744.0579833984375" style="fill:none;stroke:#000000;stroke-width:1.0;"/>
  <path d="M51.189 55.45 L51.84 53.525 L52.43 55.148 C52.963 55.028 53.503 54.919 54.048 54.825 L52.755 51.632 L50.899 51.632 L49.209 56.033 C49.862 55.82 50.522 55.626 51.19 55.45 M52.717 55.942 L51.287 56.281 C50.456 56.496 49.638 56.742 48.831 57.018 L47.905 59.429 L49.837 59.429 L50.446 57.614 L53.233 57.385 L53.974 59.429 L55.914 59.429 L54.372 55.627 C53.815 55.72 53.264 55.824 52.718 55.942 " style="fill:none;stroke:#000000;stroke-width:1.0;"/>
  <path d=" M 57.51900100708008 745.5999755859375 C 57.8640022277832 746.2859497070312 58.55699920654297 746.7359619140625 59.553001403808594 746.7449951171875 C 60.32099914550781 746.751953125 60.94700241088867 746.490966796875 61.553001403808594 746.0399780273438 L 62.66600036621094 747.531005859375 C 61.82500076293945 748.1699829101562 60.84000015258789 748.5390014648438 59.582000732421875 748.5289916992188 C 57.29199981689453 748.5079956054688 55.797000885009766 747.2789916992188 55.44499969482422 745.3889770507812 C 56.130001068115234 745.47900390625 56.82200241088867 745.5509643554688 57.51900100708008 745.5999755859375" style="fill:none;stroke:#000000;stroke-width:1.0;"/>
  <path d=" M 60.0359992980957 744.833984375 C 59.85099792480469 744.833984375 59.66600036621094 744.8299560546875 59.481998443603516 744.8269653320312 L 59.49300003051758 743.5260009765625 L 61.492000579833984 743.5029907226562 C 61.409000396728516 742.8670043945312 60.89699935913086 742.1900024414062 59.638999938964844 742.1799926757812 C 58.1349983215332 742.1659545898438 57.279998779296875 743.1270141601562 57.26799774169922 744.4519653320312 C 57.266998291015625 744.5449829101562 57.27199935913086 744.635009765625 57.279998779296875 744.7249755859375 C 56.6359977722168 744.6740112304688 55.99800109863281 744.60498046875 55.365997314453125 744.5199584960938 C 55.36499786376953 744.4949951171875 55.362998962402344 744.4719848632812 55.362998962402344 744.4469604492188 C 55.3859977722168 741.906982421875 57.12699890136719 740.3739624023438 59.53300094604492 740.39599609375 C 62.14099884033203 740.4190063476562 63.327999114990234 742.2439575195312 63.31399917602539 744.6809692382812 C 62.236000061035156 744.781982421875 61.14299774169922 744.833984375 60.0359992980957 744.833984375" style="fill:none;stroke:#000000;stroke-width:1.0;"/>
  <path d="M57.519 54.4 C57.864 53.714 58.557 53.264 59.553 53.255 C60.321 53.248 60.947 53.509 61.553 53.96 L62.666 52.468 C61.825 51.83 60.84 51.46 59.582 51.471 C57.292 51.492 55.797 52.721 55.445 54.611 C56.13 54.52 56.822 54.449 57.519 54.4 M60.035 55.166 C59.85 55.166 59.666 55.17 59.482 55.173 L59.493 56.473 L61.492 56.497 C61.409 57.132 60.897 57.809 59.639 57.82 C58.135 57.834 57.28 56.872 57.267 55.548 C57.267 55.455 57.272 55.364 57.28 55.275 C56.635 55.325 55.998 55.395 55.365 55.48 C55.364 55.505 55.363 55.528 55.363 55.553 C55.385 58.093 57.127 59.626 59.533 59.604 C62.141 59.58 63.328 57.756 63.314 55.319 C62.236 55.218 61.142 55.166 60.036 55.166 " style="fill:none;stroke:#000000;stroke-width:1.0;"/>
  <path d=" M 70.43699645996094 744.10302734375 L 70.43699645996094 748.3680419921875 L 68.60599517822266 748.3680419921875 L 68.60599517822266 744.6220092773438 C 69.2229995727539 744.4650268554688 69.83199310302734 744.2920532226562 70.43699645996094 744.10302734375" style="fill:none;stroke:#000000;stroke-width:1.0;"/>
  <path d=" M 68.60900115966797 743.7630004882812 C 68.58300018310547 742.8359985351562 68.09100341796875 742.1859741210938 67.14500427246094 742.177001953125 C 66.16500091552734 742.1680297851562 65.65699768066406 742.8560180664062 65.64900207519531 743.8359985351562 L 65.64400482177734 744.3820190429688 C 65.03500366210938 744.4810180664062 64.38700103759766 744.5670166015625 63.770999908447266 744.6339721679688 L 63.770999908447266 743.6710205078125 C 63.788002014160156 741.655029296875 64.95500183105469 740.375 67.16100311279297 740.39501953125 C 69.1780014038086 740.4140014648438 70.26900482177734 741.5079956054688 70.41899871826172 743.25 C 69.822998046875 743.43701171875 69.21900177001953 743.6079711914062 68.60900115966797 743.7630004882812" style="fill:none;stroke:#000000;stroke-width:1.0;"/>
  <path d=" M 65.64399719238281 745.239990234375 L 65.64399719238281 748.3679809570312 L 63.77099609375 748.3679809570312 L 63.77099609375 745.490966796875 C 64.38699340820312 745.4249877929688 65.03499603271484 745.3389892578125 65.64399719238281 745.239990234375" style="fill:none;stroke:#000000;stroke-width:1.0;"/>
  <path d=" M 57.02399826049805 732.093994140625 C 55.680999755859375 732.093994140625 54.650997161865234 733.0399780273438 54.650997161865234 734.5499877929688 C 54.650997161865234 736.0599975585938 55.680999755859375 737.0059814453125 57.02399826049805 737.0059814453125 C 58.365997314453125 737.0059814453125 59.39699935913086 736.0599975585938 59.39699935913086 734.5499877929688 C 59.39699935913086 733.0399780273438 58.365997314453125 732.093994140625 57.02399826049805 732.093994140625 M 57.02399826049805 738.760009765625 C 54.625 738.760009765625 52.76799774169922 737.0759887695312 52.76799774169922 734.5499877929688 C 52.76799774169922 732.0239868164062 54.625 730.3389892578125 57.02399826049805 730.3389892578125 C 59.422996520996094 730.3389892578125 61.28099822998047 732.0239868164062 61.28099822998047 734.5499877929688 C 61.28099822998047 737.0759887695312 59.422996520996094 738.760009765625 57.02399826049805 738.760009765625" style="fill:none;stroke:#000000;stroke-width:1.0;"/>
  <path d="M70.436 55.896 L70.436 51.631 L68.605 51.631 L68.605 55.377 C69.223 55.534 69.831 55.707 70.437 55.896 M68.609 56.236 C68.583 57.164 68.091 57.814 67.145 57.822 C66.165 57.831 65.657 57.143 65.649 56.164 L65.644 55.617 C65.035 55.518 64.387 55.432 63.771 55.366 L63.77 56.328 C63.788 58.344 64.955 59.625 67.161 59.604 C69.178 59.585 70.269 58.492 70.419 56.75 C69.823 56.562 69.219 56.392 68.609 56.236 M65.643 54.76 L65.643 51.632 L63.77 51.632 L63.77 54.509 C64.386 54.575 65.034 54.661 65.644 54.76 M57.023 67.906 C55.681 67.906 54.65 66.96 54.65 65.45 C54.65 63.94 55.681 62.994 57.024 62.994 C58.365 62.994 59.397 63.94 59.397 65.45 C59.397 66.96 58.365 67.906 57.024 67.906 M57.023 61.239 C54.625 61.239 52.767 62.924 52.767 65.45 C52.767 67.976 54.625 69.661 57.024 69.661 C59.422 69.661 61.281 67.976 61.281 65.45 C61.281 62.924 59.422 61.239 57.024 61.239 " style="fill:none;stroke:#000000;stroke-width:1.0;"/>
  <path d=" M 66.18000030517578 732.093994140625 C 64.83799743652344 732.093994140625 63.80900192260742 733.0399780273438 63.80900192260742 734.5499877929688 C 63.80900192260742 736.0599975585938 64.83799743652344 737.0059814453125 66.18000030517578 737.0059814453125 C 67.52200317382812 737.0059814453125 68.55400085449219 736.0599975585938 68.55400085449219 734.5499877929688 C 68.55400085449219 733.0399780273438 67.52200317382812 732.093994140625 66.18000030517578 732.093994140625 M 66.18000030517578 738.760009765625 C 63.78200149536133 738.760009765625 61.92499923706055 737.0759887695312 61.92499923706055 734.5499877929688 C 61.92499923706055 732.0239868164062 63.78200149536133 730.3389892578125 66.18000030517578 730.3389892578125 C 68.5790023803711 730.3389892578125 70.43699645996094 732.0239868164062 70.43699645996094 734.5499877929688 C 70.43699645996094 737.0759887695312 68.5790023803711 738.760009765625 66.18000030517578 738.760009765625" style="fill:none;stroke:#000000;stroke-width:1.0;"/>
  <path d=" M 49.11199951171875 727.2050170898438 L 48.9119987487793 727.7750244140625 L 48.7140007019043 727.2050170898438 L 49.11199951171875 727.2050170898438 M 49.222999572753906 726.8890380859375 L 48.60200119018555 726.8890380859375 L 48.48899841308594 726.56201171875 L 48.0880012512207 726.56201171875 L 48.722999572753906 728.1730346679688 L 49.10099792480469 728.1730346679688 L 49.73500061035156 726.56201171875 L 49.336997985839844 726.56201171875 L 49.222999572753906 726.8890380859375" style="fill:none;stroke:#000000;stroke-width:1.0;"/>
  <path d=" M 50.290000915527344 727.8480224609375 L 50.290000915527344 726.8860473632812 L 50.47600173950195 726.8860473632812 C 50.736000061035156 726.8860473632812 50.93199920654297 727.0580444335938 50.93199920654297 727.3680419921875 C 50.93199920654297 727.6780395507812 50.736000061035156 727.8480224609375 50.47600173950195 727.8480224609375 L 50.290000915527344 727.8480224609375 M 51.316001892089844 727.3680419921875 C 51.316001892089844 726.8670043945312 50.95500183105469 726.56201171875 50.44599914550781 726.56201171875 L 49.93300247192383 726.56201171875 L 49.93300247192383 728.1719970703125 L 50.44599914550781 728.1719970703125 C 50.95500183105469 728.1719970703125 51.316001892089844 727.8690185546875 51.316001892089844 727.3680419921875" style="fill:none;stroke:#000000;stroke-width:1.0;"/>
  <path d=" M 52.367000579833984 726.56201171875 L 51.98500061035156 726.56201171875 L 51.375 728.1719970703125 L 51.801002502441406 728.1719970703125 L 52.17399978637695 727.0220336914062 L 52.17900085449219 727.0220336914062 L 52.55099868774414 728.1719970703125 L 52.97600173950195 728.1719970703125 L 52.367000579833984 726.56201171875" style="fill:none;stroke:#000000;stroke-width:1.0;"/>
  <path d=" M 53.82899856567383 727.2050170898438 L 53.628997802734375 727.7750244140625 L 53.430999755859375 727.2050170898438 L 53.82899856567383 727.2050170898438 M 53.93899917602539 726.8890380859375 L 53.317996978759766 726.8890380859375 L 53.20499801635742 726.56201171875 L 52.80500030517578 726.56201171875 L 53.439998626708984 728.1730346679688 L 53.81699752807617 728.1730346679688 L 54.45199966430664 726.56201171875 L 54.05399703979492 726.56201171875 L 53.93899917602539 726.8890380859375" style="fill:none;stroke:#000000;stroke-width:1.0;"/>
  <path d=" M 56.12699890136719 726.56201171875 L 55.822998046875 726.56201171875 L 55.05500030517578 727.5530395507812 L 55.05299758911133 727.5530395507812 L 55.05299758911133 726.56201171875 L 54.69599914550781 726.56201171875 L 54.69599914550781 728.1719970703125 L 54.99699783325195 728.1719970703125 L 55.76799774169922 727.177001953125 L 55.77000045776367 727.177001953125 L 55.77000045776367 728.1719970703125 L 56.12699890136719 728.1719970703125 L 56.12699890136719 726.56201171875" style="fill:none;stroke:#000000;stroke-width:1.0;"/>
  <path d=" M 56.37300109863281 727.3679809570312 C 56.37300109863281 727.8800048828125 56.74800109863281 728.2069702148438 57.25600051879883 728.2069702148438 C 57.507999420166016 728.2069702148438 57.694000244140625 728.126953125 57.83399963378906 728.0269775390625 L 57.63999938964844 727.7139892578125 C 57.53700256347656 727.7839965820312 57.413002014160156 727.8399658203125 57.25600051879883 727.8399658203125 C 56.97500228881836 727.8399658203125 56.76700210571289 727.6589965820312 56.76700210571289 727.3679809570312 C 56.76700210571289 727.0759887695312 56.97500228881836 726.89599609375 57.25600051879883 726.89599609375 C 57.413002014160156 726.89599609375 57.53700256347656 726.9509887695312 57.63999938964844 727.02099609375 L 57.83399963378906 726.7069702148438 C 57.694000244140625 726.6079711914062 57.507999420166016 726.5279541015625 57.25600051879883 726.5279541015625 C 56.74800109863281 726.5279541015625 56.37300109863281 726.85498046875 56.37300109863281 727.3679809570312" style="fill:none;stroke:#000000;stroke-width:1.0;"/>
  <path d=" M 58.05699920654297 726.56201171875 L 58.41368865966797 726.56201171875 L 58.41368865966797 728.1724853515625 L 58.05699920654297 728.1724853515625 Z " style="fill:none;stroke:#000000;stroke-width:1.0;"/>
  <path d=" M 60.18299865722656 726.56201171875 L 59.878997802734375 726.56201171875 L 59.111000061035156 727.5530395507812 L 59.10799789428711 727.5530395507812 L 59.10799789428711 726.56201171875 L 58.75199890136719 726.56201171875 L 58.75199890136719 728.1719970703125 L 59.05299758911133 728.1719970703125 L 59.823997497558594 727.177001953125 L 59.82600021362305 727.177001953125 L 59.82600021362305 728.1719970703125 L 60.18299865722656 728.1719970703125 L 60.18299865722656 726.56201171875" style="fill:none;stroke:#000000;stroke-width:1.0;"/>
  <path d=" M 62.07099914550781 727.4110107421875 C 62.07099914550781 726.906005859375 61.823997497558594 726.5280151367188 61.28199768066406 726.5280151367188 C 60.78499984741211 726.5280151367188 60.42900085449219 726.8480224609375 60.42900085449219 727.3720092773438 C 60.42900085449219 727.8699951171875 60.75899887084961 728.20703125 61.30799865722656 728.20703125 C 61.569000244140625 728.20703125 61.77000045776367 728.1300048828125 61.94300079345703 727.9940185546875 L 61.709999084472656 727.6890258789062 C 61.586997985839844 727.7839965820312 61.45800018310547 727.8389892578125 61.29899978637695 727.8389892578125 C 60.99300003051758 727.8389892578125 60.821998596191406 727.6370239257812 60.821998596191406 727.3690185546875 C 60.821998596191406 727.0969848632812 60.99599838256836 726.8970336914062 61.30799865722656 726.8970336914062 C 61.569000244140625 726.8970336914062 61.67599868774414 727.0430297851562 61.694000244140625 727.1740112304688 L 61.28099822998047 727.1740112304688 L 61.28099822998047 727.4929809570312 L 62.06999969482422 727.4929809570312 C 62.07099914550781 727.467041015625 62.07099914550781 727.4400024414062 62.07099914550781 727.4110107421875" style="fill:none;stroke:#000000;stroke-width:1.0;"/>
  <path d=" M 64.07499694824219 726.89697265625 L 64.07499694824219 726.5619506835938 L 63.067996978759766 726.5619506835938 L 63.067996978759766 728.1729736328125 L 64.06399536132812 728.1729736328125 L 64.06399536132812 727.8399658203125 L 63.42399597167969 727.8399658203125 L 63.42399597167969 727.5859985351562 L 63.99899673461914 727.5859985351562 L 63.99899673461914 727.2630004882812 L 63.42399597167969 727.2630004882812 L 63.42399597167969 726.89697265625 L 64.07499694824219 726.89697265625" style="fill:none;stroke:#000000;stroke-width:1.0;"/>
  <path d=" M 65.22899627685547 727.2050170898438 L 65.02899932861328 727.7750244140625 L 64.83099365234375 727.2050170898438 L 65.22899627685547 727.2050170898438 M 65.33799743652344 726.8890380859375 L 64.7179946899414 726.8890380859375 L 64.60499572753906 726.56201171875 L 64.20499420166016 726.56201171875 L 64.83899688720703 728.1730346679688 L 65.21599578857422 728.1730346679688 L 65.85199737548828 726.56201171875 L 65.45399475097656 726.56201171875 L 65.33799743652344 726.8890380859375" style="fill:none;stroke:#000000;stroke-width:1.0;"/>
  <path d=" M 66.40599822998047 727.4710083007812 L 66.64099884033203 727.4710083007812 C 66.78299713134766 727.4710083007812 66.86299896240234 727.5260009765625 66.86299896240234 727.6589965820312 C 66.86299896240234 727.7789916992188 66.78299713134766 727.8480224609375 66.64099884033203 727.8480224609375 L 66.40599822998047 727.8480224609375 L 66.40599822998047 727.4710083007812 M 66.47799682617188 727.1730346679688 L 66.40599822998047 727.1730346679688 L 66.40599822998047 726.56201171875 L 66.04999542236328 726.56201171875 L 66.04999542236328 728.1730346679688 L 66.69400024414062 728.1730346679688 C 67.05500030517578 728.1730346679688 67.24099731445312 727.9490356445312 67.24099731445312 727.6699829101562 C 67.24099731445312 727.4340209960938 67.11399841308594 727.2470092773438 66.86599731445312 727.1909790039062 L 67.32699584960938 726.56201171875 L 66.87999725341797 726.56201171875 L 66.47799682617188 727.1730346679688" style="fill:none;stroke:#000000;stroke-width:1.0;"/>
  <path d=" M 68.60399627685547 727.8389892578125 L 68.17999267578125 727.8389892578125 L 68.17999267578125 726.56201171875 L 67.822998046875 726.56201171875 L 67.822998046875 727.8389892578125 L 67.39799499511719 727.8389892578125 L 67.39799499511719 728.1719970703125 L 68.60399627685547 728.1719970703125 L 68.60399627685547 727.8389892578125" style="fill:none;stroke:#000000;stroke-width:1.0;"/>
  <path d=" M 70.19499969482422 728.1729736328125 L 70.19499969482422 726.56298828125 L 69.83799743652344 726.56298828125 L 69.83799743652344 727.2379760742188 L 69.16999816894531 727.2379760742188 L 69.16999816894531 726.56298828125 L 68.81400299072266 726.56298828125 L 68.81400299072266 728.1729736328125 L 69.16999816894531 728.1729736328125 L 69.16999816894531 727.573974609375 L 69.83799743652344 727.573974609375 L 69.83799743652344 728.1729736328125 L 70.19499969482422 728.1729736328125" style="fill:none;stroke:#000000;stroke-width:1.0;"/>
  <path d=" M 48.9119987487793 725.0139770507812 L 49.11199951171875 724.4459838867188 L 48.71399688720703 724.4459838867188 L 48.9119987487793 725.0139770507812 M 48.722999572753906 725.4119873046875 L 48.08799743652344 723.8009643554688 L 48.48899841308594 723.8009643554688 L 48.60199737548828 724.1279907226562 L 49.222999572753906 724.1279907226562 L 49.33799743652344 723.8009643554688 L 49.736000061035156 723.8009643554688 L 49.10099792480469 725.4119873046875 L 48.722999572753906 725.4119873046875" style="fill:none;stroke:#000000;stroke-width:1.0;"/>
  <path d=" M 50.944000244140625 725.4110107421875 L 50.944000244140625 724.4150390625 L 50.94200134277344 724.4150390625 L 50.17100143432617 725.4110107421875 L 49.869998931884766 725.4110107421875 L 49.869998931884766 723.7999877929688 L 50.22600173950195 723.7999877929688 L 50.22600173950195 724.7930297851562 L 50.229000091552734 724.7930297851562 L 50.99700164794922 723.7999877929688 L 51.30099868774414 723.7999877929688 L 51.30099868774414 725.4110107421875 L 50.944000244140625 725.4110107421875" style="fill:none;stroke:#000000;stroke-width:1.0;"/>
  <path d=" M 52.0359992980957 725.0869750976562 L 52.0359992980957 724.1259765625 L 52.222999572753906 724.1259765625 C 52.481998443603516 724.1259765625 52.67799758911133 724.2959594726562 52.67799758911133 724.60595703125 C 52.67799758911133 724.9169921875 52.481998443603516 725.0869750976562 52.222999572753906 725.0869750976562 L 52.0359992980957 725.0869750976562 M 53.0620002746582 724.60595703125 C 53.0620002746582 724.10498046875 52.70100021362305 723.8009643554688 52.19300079345703 723.8009643554688 L 51.68000030517578 723.8009643554688 L 51.68000030517578 725.4109497070312 L 52.19300079345703 725.4109497070312 C 52.70100021362305 725.4109497070312 53.0620002746582 725.1069946289062 53.0620002746582 724.60595703125" style="fill:none;stroke:#000000;stroke-width:1.0;"/>
  <path d="M66.18 67.906 C64.837 67.906 63.809 66.96 63.809 65.45 C63.809 63.94 64.837 62.994 66.18 62.994 C67.522 62.994 68.554 63.94 68.554 65.45 C68.554 66.96 67.522 67.906 66.18 67.906 M66.18 61.239 C63.782 61.239 61.925 62.924 61.925 65.45 C61.925 67.976 63.782 69.661 66.18 69.661 C68.579 69.661 70.437 67.976 70.437 65.45 C70.437 62.924 68.579 61.239 66.18 61.239 M49.111 72.794 L48.911 72.224 L48.714 72.794 L49.111 72.794 M49.222 73.11 L48.602 73.11 L48.488 73.437 L48.088 73.437 L48.722 71.826 L49.1 71.826 L49.735 73.437 L49.336 73.437 L49.222 73.11 M50.29 72.151 L50.29 73.113 L50.476 73.113 C50.736 73.113 50.932 72.941 50.932 72.631 C50.932 72.321 50.736 72.151 50.476 72.151 L50.29 72.151 M51.316 72.631 C51.316 73.132 50.955 73.437 50.446 73.437 L49.933 73.437 L49.933 71.828 L50.445 71.828 C50.955 71.828 51.316 72.13 51.316 72.631 M52.367 73.437 L51.985 73.437 L51.375 71.828 L51.801 71.828 L52.173 72.977 L52.179 72.977 L52.55 71.828 L52.976 71.828 L52.367 73.437 M53.828 72.794 L53.628 72.224 L53.43 72.794 L53.828 72.794 M53.938 73.11 L53.317 73.11 L53.204 73.437 L52.805 73.437 L53.439 71.826 L53.816 71.826 L54.451 73.437 L54.053 73.437 L53.938 73.11 M56.126 73.437 L55.822 73.437 L55.055 72.446 L55.052 72.446 L55.052 73.437 L54.695 73.437 L54.695 71.828 L54.996 71.828 L55.767 72.822 L55.77 72.822 L55.77 71.828 L56.126 71.828 L56.126 73.437 M56.373 72.632 C56.373 72.119 56.748 71.793 57.256 71.793 C57.508 71.793 57.694 71.873 57.834 71.973 L57.639 72.286 C57.537 72.216 57.413 72.16 57.256 72.16 C56.975 72.16 56.767 72.341 56.767 72.632 C56.767 72.924 56.975 73.104 57.256 73.104 C57.413 73.104 57.537 73.049 57.64 72.979 L57.833 73.293 C57.694 73.392 57.508 73.472 57.256 73.472 C56.748 73.472 56.373 73.145 56.373 72.632 M60.182 73.437 L59.878 73.437 L59.111 72.446 L59.107 72.446 L59.107 73.437 L58.751 73.437 L58.751 71.828 L59.052 71.828 L59.823 72.822 L59.826 72.822 L59.826 71.828 L60.182 71.828 L60.182 73.437 M62.07 72.588 C62.071 73.093 61.823 73.471 61.281 73.471 C60.785 73.471 60.429 73.151 60.429 72.627 C60.429 72.13 60.759 71.792 61.308 71.792 C61.569 71.792 61.77 71.869 61.943 72.005 L61.709 72.31 C61.586 72.216 61.458 72.161 61.299 72.161 C60.993 72.161 60.822 72.362 60.822 72.63 C60.822 72.903 60.996 73.102 61.308 73.102 C61.569 73.102 61.676 72.956 61.694 72.825 L61.28 72.825 L61.28 72.507 L62.069 72.507 C62.071 72.532 62.071 72.559 62.071 72.588 M64.074 73.103 L64.074 73.438 L63.067 73.438 L63.067 71.827 L64.063 71.827 L64.063 72.16 L63.423 72.16 L63.423 72.414 L63.998 72.414 L63.998 72.736 L63.423 72.736 L63.423 73.103 L64.074 73.103 M65.228 72.794 L65.028 72.224 L64.83 72.794 L65.228 72.794 M65.337 73.11 L64.717 73.11 L64.604 73.437 L64.204 73.437 L64.838 71.826 L65.215 71.826 L65.851 73.437 L65.453 73.437 L65.337 73.11 M66.405 72.528 L66.64 72.528 C66.783 72.528 66.863 72.473 66.863 72.341 C66.863 72.221 66.783 72.151 66.641 72.151 L66.405 72.151 L66.405 72.528 M66.477 72.826 L66.405 72.826 L66.405 73.437 L66.049 73.437 L66.049 71.826 L66.694 71.826 C67.055 71.826 67.241 72.05 67.241 72.33 C67.241 72.565 67.114 72.752 66.866 72.809 L67.326 73.437 L66.879 73.437 L66.477 72.826 M68.603 72.161 L68.179 72.161 L68.179 73.437 L67.822 73.437 L67.822 72.161 L67.397 72.161 L67.397 71.828 L68.603 71.828 L68.603 72.161 M70.194 71.827 L70.194 73.437 L69.837 73.437 L69.837 72.762 L69.169 72.762 L69.169 73.437 L68.814 73.437 L68.814 71.827 L69.169 71.827 L69.169 72.426 L69.837 72.426 L69.837 71.827 L70.194 71.827 M48.911 74.986 L49.111 75.554 L48.713 75.554 L48.911 74.986 M48.722 74.588 L48.087 76.199 L48.488 76.199 L48.601 75.872 L49.222 75.872 L49.337 76.199 L49.736 76.199 L49.1 74.588 L48.722 74.588 M50.944 74.588 L50.944 75.584 L50.942 75.584 L50.171 74.588 L49.869 74.588 L49.869 76.2 L50.226 76.2 L50.226 75.206 L50.229 75.206 L50.997 76.2 L51.3 76.2 L51.3 74.588 L50.944 74.588 M52.035 74.913 L52.035 75.874 L52.222 75.874 C52.482 75.874 52.677 75.704 52.677 75.394 C52.677 75.083 52.482 74.913 52.223 74.913 L52.035 74.913 M53.062 75.394 C53.062 75.895 52.701 76.199 52.193 76.199 L51.68 76.199 L51.68 74.589 L52.193 74.589 C52.701 74.589 53.062 74.893 53.062 75.394 " style="fill:none;stroke:#000000;stroke-width:1.0;"/>
  <path d=" M 54.74399948120117 725.3280029296875 L 54.595001220703125 725.0139770507812 C 54.446998596191406 725.08203125 54.336997985839844 725.114990234375 54.23099899291992 725.114990234375 C 54.11800003051758 725.114990234375 54.08399963378906 725.0759887695312 54.08399963378906 725.02099609375 C 54.08399963378906 724.9719848632812 54.11399841308594 724.9400024414062 54.20499801635742 724.885009765625 L 54.47200012207031 724.7169799804688 C 54.66600036621094 724.5989990234375 54.77799987792969 724.4710083007812 54.77799987792969 724.2449951171875 C 54.77799987792969 723.9349975585938 54.56700134277344 723.7659912109375 54.19200134277344 723.7659912109375 C 53.97599792480469 723.7659912109375 53.77299880981445 723.8209838867188 53.59199905395508 723.927978515625 L 53.75199890136719 724.2479858398438 C 53.90699768066406 724.1519775390625 54.05799865722656 724.0999755859375 54.20499801635742 724.0999755859375 C 54.334999084472656 724.0999755859375 54.40299987792969 724.1439819335938 54.40299987792969 724.22900390625 C 54.40299987792969 724.302001953125 54.34199905395508 724.3460083007812 54.250999450683594 724.4019775390625 L 54.005001068115234 724.5560302734375 C 53.795997619628906 724.6799926757812 53.70800018310547 724.8350219726562 53.70800018310547 725.0170288085938 C 53.70800018310547 725.2769775390625 53.88100051879883 725.4459838867188 54.22200012207031 725.4459838867188 C 54.375999450683594 725.4459838867188 54.55299758911133 725.4110107421875 54.74399948120117 725.3280029296875" style="fill:none;stroke:#000000;stroke-width:1.0;"/>
  <path d=" M 55.75899887084961 724.8900146484375 C 55.75899887084961 725.030029296875 55.66299819946289 725.0870361328125 55.51499938964844 725.0870361328125 L 55.32600021362305 725.0870361328125 L 55.32600021362305 724.6749877929688 L 55.51499938964844 724.6749877929688 C 55.66299819946289 724.6749877929688 55.75899887084961 724.7460327148438 55.75899887084961 724.8900146484375 M 56.138999938964844 724.89599609375 C 56.138999938964844 724.5809936523438 55.952999114990234 724.3519897460938 55.54499816894531 724.3519897460938 L 55.32600021362305 724.3519897460938 L 55.32600021362305 723.801025390625 L 54.96999740600586 723.801025390625 L 54.96999740600586 725.4110107421875 L 55.54499816894531 725.4110107421875 C 55.952999114990234 725.4110107421875 56.138999938964844 725.18701171875 56.138999938964844 724.89599609375" style="fill:none;stroke:#000000;stroke-width:1.0;"/>
  <path d=" M 56.8380012512207 725.0139770507812 L 57.038002014160156 724.4459838867188 L 56.63999938964844 724.4459838867188 L 56.8380012512207 725.0139770507812 M 56.64900207519531 725.4119873046875 L 56.01499938964844 723.8009643554688 L 56.415000915527344 723.8009643554688 L 56.52799987792969 724.1279907226562 L 57.14900207519531 724.1279907226562 L 57.263999938964844 723.8009643554688 L 57.66200256347656 723.8009643554688 L 57.0260009765625 725.4119873046875 L 56.64900207519531 725.4119873046875" style="fill:none;stroke:#000000;stroke-width:1.0;"/>
  <path d="M54.743 74.671 L54.595 74.986 C54.447 74.917 54.336 74.885 54.231 74.885 C54.118 74.885 54.084 74.924 54.084 74.979 C54.084 75.028 54.114 75.059 54.204 75.114 L54.472 75.283 C54.666 75.401 54.778 75.528 54.778 75.755 C54.778 76.065 54.567 76.234 54.192 76.234 C53.975 76.234 53.773 76.179 53.592 76.072 L53.751 75.752 C53.906 75.848 54.058 75.9 54.204 75.9 C54.335 75.9 54.403 75.856 54.403 75.77 C54.403 75.697 54.342 75.653 54.251 75.598 L54.005 75.443 C53.795 75.32 53.708 75.164 53.708 74.982 C53.708 74.723 53.881 74.554 54.222 74.554 C54.376 74.554 54.552 74.588 54.744 74.671 M55.758 75.109 C55.759 74.969 55.663 74.912 55.515 74.912 L55.326 74.912 L55.326 75.325 L55.514 75.325 C55.663 75.325 55.759 75.253 55.759 75.109 M56.138 75.104 C56.139 75.419 55.953 75.648 55.545 75.648 L55.326 75.648 L55.326 76.198 L54.969 76.198 L54.969 74.588 L55.544 74.588 C55.953 74.588 56.139 74.812 56.139 75.104 M56.838 74.986 L57.038 75.554 L56.639 75.554 L56.838 74.986 M56.649 74.588 L56.014 76.199 L56.415 76.199 L56.527 75.872 L57.149 75.872 L57.263 76.199 L57.662 76.199 L57.026 74.588 L56.649 74.588 " style="fill:none;stroke:#000000;stroke-width:1.0;"/>
  <path d=" M 57.66400146484375 724.6069946289062 C 57.66400146484375 725.1199951171875 58.03900146484375 725.4459838867188 58.54800033569336 725.4459838867188 C 58.79800033569336 725.4459838867188 58.98400115966797 725.365966796875 59.125 725.2680053710938 L 58.932003021240234 724.9539794921875 C 58.8280029296875 725.0230102539062 58.704002380371094 725.0780029296875 58.54800033569336 725.0780029296875 C 58.2660026550293 725.0780029296875 58.057003021240234 724.8989868164062 58.057003021240234 724.6069946289062 C 58.057003021240234 724.31396484375 58.2660026550293 724.135009765625 58.54800033569336 724.135009765625 C 58.704002380371094 724.135009765625 58.8280029296875 724.1900024414062 58.932003021240234 724.2589721679688 L 59.125 723.9459838867188 C 58.98400115966797 723.8469848632812 58.79800033569336 723.7669677734375 58.54800033569336 723.7669677734375 C 58.03900146484375 723.7669677734375 57.66400146484375 724.093994140625 57.66400146484375 724.6069946289062" style="fill:none;stroke:#000000;stroke-width:1.0;"/>
  <path d=" M 59.33599853515625 725.4110107421875 L 59.33599853515625 723.7999877929688 L 60.34299850463867 723.7999877929688 L 60.34299850463867 724.134033203125 L 59.694000244140625 724.134033203125 L 59.694000244140625 724.5010375976562 L 60.26799774169922 724.5010375976562 L 60.26799774169922 724.8250122070312 L 59.694000244140625 724.8250122070312 L 59.694000244140625 725.0770263671875 L 60.33300018310547 725.0770263671875 L 60.33300018310547 725.4110107421875 L 59.33599853515625 725.4110107421875" style="fill:none;stroke:#000000;stroke-width:1.0;"/>
  <path d="M57.664 75.393 C57.664 74.88 58.039 74.554 58.548 74.554 C58.798 74.554 58.984 74.634 59.125 74.731 L58.932 75.046 C58.828 74.976 58.704 74.921 58.548 74.921 C58.266 74.921 58.057 75.101 58.057 75.393 C58.057 75.686 58.266 75.864 58.548 75.864 C58.704 75.864 58.828 75.809 58.932 75.741 L59.125 76.054 C58.984 76.153 58.798 76.233 58.548 76.233 C58.039 76.233 57.664 75.906 57.664 75.393 M59.335 74.588 L59.335 76.2 L60.342 76.2 L60.342 75.865 L59.694 75.865 L59.694 75.498 L60.267 75.498 L60.267 75.174 L59.694 75.174 L59.694 74.922 L60.333 74.922 L60.333 74.588 L59.335 74.588 " style="fill:none;stroke:#000000;stroke-width:1.0;"/>
  <path d=" M 62.04800033569336 725.3280029296875 L 61.900001525878906 725.0139770507812 C 61.750999450683594 725.08203125 61.64099884033203 725.114990234375 61.53499984741211 725.114990234375 C 61.422000885009766 725.114990234375 61.387001037597656 725.0759887695312 61.387001037597656 725.02099609375 C 61.387001037597656 724.9719848632812 61.41699981689453 724.9400024414062 61.51000213623047 724.885009765625 L 61.777000427246094 724.7169799804688 C 61.96900177001953 724.5989990234375 62.08300018310547 724.4710083007812 62.08300018310547 724.2449951171875 C 62.08300018310547 723.9349975585938 61.871002197265625 723.7659912109375 61.49700164794922 723.7659912109375 C 61.281002044677734 723.7659912109375 61.07699966430664 723.8209838867188 60.89500045776367 723.927978515625 L 61.05699920654297 724.2479858398438 C 61.21200180053711 724.1519775390625 61.36199951171875 724.0999755859375 61.51000213623047 724.0999755859375 C 61.63800048828125 724.0999755859375 61.70800018310547 724.1439819335938 61.70800018310547 724.22900390625 C 61.70800018310547 724.302001953125 61.645999908447266 724.3460083007812 61.55699920654297 724.4019775390625 L 61.31100082397461 724.5560302734375 C 61.099998474121094 724.6799926757812 61.012001037597656 724.8350219726562 61.012001037597656 725.0170288085938 C 61.012001037597656 725.2769775390625 61.1870002746582 725.4459838867188 61.527000427246094 725.4459838867188 C 61.68000030517578 725.4459838867188 61.858001708984375 725.4110107421875 62.04800033569336 725.3280029296875" style="fill:none;stroke:#000000;stroke-width:1.0;"/>
  <path d=" M 62.22800064086914 724.6069946289062 C 62.22800064086914 725.1199951171875 62.60300064086914 725.4459838867188 63.111000061035156 725.4459838867188 C 63.36199951171875 725.4459838867188 63.54899978637695 725.365966796875 63.68899917602539 725.2680053710938 L 63.496002197265625 724.9539794921875 C 63.39200210571289 725.0230102539062 63.268001556396484 725.0780029296875 63.111000061035156 725.0780029296875 C 62.83100128173828 725.0780029296875 62.62200164794922 724.8989868164062 62.62200164794922 724.6069946289062 C 62.62200164794922 724.31396484375 62.83100128173828 724.135009765625 63.111000061035156 724.135009765625 C 63.268001556396484 724.135009765625 63.39200210571289 724.1900024414062 63.496002197265625 724.2589721679688 L 63.68899917602539 723.9459838867188 C 63.54899978637695 723.8469848632812 63.36199951171875 723.7669677734375 63.111000061035156 723.7669677734375 C 62.60300064086914 723.7669677734375 62.22800064086914 724.093994140625 62.22800064086914 724.6069946289062" style="fill:none;stroke:#000000;stroke-width:1.0;"/>
  <path d=" M 63.9010009765625 723.801025390625 L 64.25700378417969 723.801025390625 L 64.25700378417969 725.41162109375 L 63.9010009765625 725.41162109375 Z " style="fill:none;stroke:#000000;stroke-width:1.0;"/>
  <path d=" M 64.58300018310547 725.4110107421875 L 64.58300018310547 723.7999877929688 L 65.59200286865234 723.7999877929688 L 65.59200286865234 724.134033203125 L 64.94100189208984 724.134033203125 L 64.94100189208984 724.5010375976562 L 65.51599884033203 724.5010375976562 L 65.51599884033203 724.8250122070312 L 64.94100189208984 724.8250122070312 L 64.94100189208984 725.0770263671875 L 65.58000183105469 725.0770263671875 L 65.58000183105469 725.4110107421875 L 64.58300018310547 725.4110107421875" style="fill:none;stroke:#000000;stroke-width:1.0;"/>
  <path d=" M 66.9219970703125 725.4110107421875 L 66.9219970703125 724.4150390625 L 66.9209976196289 724.4150390625 L 66.14999389648438 725.4110107421875 L 65.8479995727539 725.4110107421875 L 65.8479995727539 723.7999877929688 L 66.20499420166016 723.7999877929688 L 66.20499420166016 724.7930297851562 L 66.20800018310547 724.7930297851562 L 66.97599792480469 723.7999877929688 L 67.27999877929688 723.7999877929688 L 67.27999877929688 725.4110107421875 L 66.9219970703125 725.4110107421875" style="fill:none;stroke:#000000;stroke-width:1.0;"/>
  <path d="M62.048 74.671 L61.9 74.986 C61.751 74.917 61.641 74.885 61.535 74.885 C61.422 74.885 61.387 74.924 61.387 74.979 C61.387 75.028 61.417 75.059 61.51 75.114 L61.777 75.283 C61.969 75.401 62.083 75.528 62.083 75.755 C62.083 76.065 61.871 76.234 61.497 76.234 C61.281 76.234 61.077 76.179 60.895 76.072 L61.056 75.752 C61.212 75.848 61.362 75.9 61.51 75.9 C61.638 75.9 61.708 75.856 61.708 75.77 C61.708 75.697 61.646 75.653 61.557 75.598 L61.311 75.443 C61.1 75.32 61.012 75.164 61.012 74.982 C61.012 74.723 61.187 74.554 61.527 74.554 C61.68 74.554 61.858 74.588 62.048 74.671 M62.228 75.393 C62.228 74.88 62.603 74.554 63.111 74.554 C63.362 74.554 63.549 74.634 63.689 74.731 L63.496 75.046 C63.392 74.976 63.268 74.921 63.111 74.921 C62.831 74.921 62.622 75.101 62.622 75.393 C62.622 75.686 62.831 75.864 63.111 75.864 C63.268 75.864 63.392 75.809 63.496 75.741 L63.688 76.054 C63.549 76.153 63.362 76.233 63.111 76.233 C62.603 76.233 62.228 75.906 62.228 75.393 M64.583 74.588 L64.583 76.2 L65.592 76.2 L65.592 75.865 L64.941 75.865 L64.941 75.498 L65.515 75.498 L65.515 75.174 L64.941 75.174 L64.941 74.922 L65.58 74.922 L65.58 74.588 L64.583 74.588 M66.921 74.588 L66.921 75.584 L66.92 75.584 L66.149 74.588 L65.847 74.588 L65.847 76.2 L66.204 76.2 L66.204 75.206 L66.208 75.206 L66.975 76.2 L67.279 76.2 L67.279 74.588 L66.921 74.588 " style="fill:none;stroke:#000000;stroke-width:1.0;"/>
  <path d=" M 67.51599884033203 724.6069946289062 C 67.51599884033203 725.1199951171875 67.88999938964844 725.4459838867188 68.39900207519531 725.4459838867188 C 68.6500015258789 725.4459838867188 68.83599853515625 725.365966796875 68.97599792480469 725.2680053710938 L 68.78199768066406 724.9539794921875 C 68.67900085449219 725.0230102539062 68.55599975585938 725.0780029296875 68.39900207519531 725.0780029296875 C 68.11799621582031 725.0780029296875 67.90899658203125 724.8989868164062 67.90899658203125 724.6069946289062 C 67.90899658203125 724.31396484375 68.11799621582031 724.135009765625 68.39900207519531 724.135009765625 C 68.55599975585938 724.135009765625 68.67900085449219 724.1900024414062 68.78199768066406 724.2589721679688 L 68.97599792480469 723.9459838867188 C 68.83599853515625 723.8469848632812 68.6500015258789 723.7669677734375 68.39900207519531 723.7669677734375 C 67.88999938964844 723.7669677734375 67.51599884033203 724.093994140625 67.51599884033203 724.6069946289062" style="fill:none;stroke:#000000;stroke-width:1.0;"/>
  <path d=" M 69.18800354003906 725.4110107421875 L 69.18800354003906 723.7999877929688 L 70.19500732421875 723.7999877929688 L 70.19500732421875 724.134033203125 L 69.54400634765625 724.134033203125 L 69.54400634765625 724.5010375976562 L 70.11900329589844 724.5010375976562 L 70.11900329589844 724.8250122070312 L 69.54400634765625 724.8250122070312 L 69.54400634765625 725.0770263671875 L 70.1830062866211 725.0770263671875 L 70.1830062866211 725.4110107421875 L 69.18800354003906 725.4110107421875" style="fill:none;stroke:#000000;stroke-width:1.0;"/>
  <path d=" M 51.928001403808594 738.4959716796875 L 51.928001403808594 730.4469604492188 L 50.057003021240234 730.4469604492188 L 50.057003021240234 735.89599609375 L 49.03000259399414 734.9879760742188 L 47.90500259399414 736.156982421875 L 50.310001373291016 738.4959716796875 L 51.928001403808594 738.4959716796875" style="fill:none;stroke:#000000;stroke-width:1.0;"/>
  <text x="465.222,470.322,475.422,477.392,482.492,487.592,492.692,497.792,501.122,506.326,511.426,516.526,521.626,528.076,532.756,537.857,542.957,548.057,553.157,558.257" y="66.28099999999995" svg_rhmargin="563.357" style="fill:#0a3a69;font-family:IMLIID+AdvTTe45e47d2;font-size:10.0px;font-style:NORMAL;font-weight:normal;">10.1029/2018GL078969</text>
  <text x="176.768,186.246,193.526,201.534,209.836,217.998,225.278,231.256,235.036,241.294,248.574,252.354,256.251,264.413,271.693,277.671,284.951,292.231,297.481,303.739,311.90099999999995,315.721,322.861,330.141,335.237,340.333,347.613,352.863" y="67.01800000000003" svg_rhmargin="358.841" style="fill:#0a3a69;font-family:IMLFAI+AdvTTaf7f9f4f.B;font-size:14.0px;font-style:NORMAL;font-weight:normal;">Geophysical Research Letters</text>
  <path d=" M 36.0 42.12300109863281 L 575.489990234375 42.12300109863281 L 575.489990234375 42.68996047973633 L 36.0 42.68996047973633 Z " style="fill:none;stroke:#000000;stroke-width:1.0;"/>
  <text x="36.0,40.401,44.802,49.203,53.982,59.787,64.188,70.092,74.493,80.676,86.58,89.01,93.411,97.812,100.236,105.672,109.884,111.657,557.122,561.712,566.302,570.892" y="777.776" svg_rhmargin="575.482" style="fill:#0a3a69;font-family:IMLIID+AdvTTe45e47d2;font-size:9.0px;font-style:NORMAL;font-weight:normal;">STEPHENSON ET AL. 9899</text>
 </g>
</svg>
