<?xml version="1.0" encoding="UTF-8"?>
<svg height="754.0" width="554.2768" xmlns="http://www.w3.org/2000/svg">
 <g id="page" xmlns:svgx="http://www.xml-cml.org/schema/svgx">
  <g begin="text">
   <text y="66.161" x="51.024,57.104,59.39,61.677,65.377,68.59559999999999,71.887,79.381,84.496,86.6135,89.915,95.554,98.281,102.515,108.595,112.83,116.05,123.544,125.6615,128.919,134.999,139.233,143.468,147.168,150.38660000000002,153.694,159.3689,162.595,165.321,169.556,173.79,178.024,182.258,184.9684,188.277,192.951,196.652,199.379,205.899,209.6,212.372,215.092,218.31060000000002,221.612,223.898,228.133,230.419,234.12,238.354,242.588,246.288,250.52300000000002,253.757,257.458,261.692,265.927,269.178,272.879,276.579,278.866,283.1,286.8" svgx:width="0.72,0.27,0.27,0.44,0.38,0.55,0.88,0.6,0.25,0.55,0.67,0.32,0.5,0.72,0.5,0.55,0.88,0.25,0.55,0.72,0.5,0.5,0.44,0.38,0.55,0.67,0.55,0.32,0.5,0.5,0.5,0.5,0.32,0.55,0.55,0.44,0.32,0.77,0.44,0.32,0.32,0.38,0.55,0.27,0.5,0.27,0.44,0.5,0.5,0.44,0.5,0.55,0.44,0.5,0.5,0.55,0.44,0.44,0.27,0.5,0.44,0.27" style="fill:rgb(0,0,0);font-family:AdvOTf9433e2d;font-size:8.47px;stroke:none;">Niles MT, Brown M, Dynes R (2016) Farmer’s intended and actual</text>
   <text y="76.139" x="68.031,71.732,75.966,80.2,84.434,86.72,89.007,93.241,97.476,100.516,104.75,107.4604,110.494,114.195,116.481,118.768,125.288,128.989,131.275,135.0018,138.047,141.748,145.982,149.682,153.916,158.151,161.8778,164.919,171.44,173.726,176.013,178.299,182.533,186.234,188.52,190.806,195.041,199.276,202.337,206.037,210.271,214.506,217.53,221.231,225.465,229.166,233.4,235.686,239.387,241.673,243.96,248.194,252.429,255.514,258.775,261.061,263.788,267.488,269.775,273.475,277.71,279.996,283.697,286.957" svgx:width="0.44,0.5,0.5,0.5,0.27,0.27,0.5,0.5,0.55,0.5,0.32,0.55,0.44,0.27,0.27,0.77,0.44,0.27,0.44,0.55,0.44,0.5,0.44,0.5,0.5,0.44,0.55,0.77,0.27,0.27,0.27,0.5,0.44,0.27,0.27,0.5,0.5,0.55,0.44,0.5,0.5,0.55,0.44,0.5,0.44,0.5,0.27,0.44,0.27,0.27,0.5,0.5,0.55,0.38,0.27,0.32,0.44,0.27,0.44,0.5,0.27,0.44,0.38,0.25" style="fill:rgb(0,0,0);font-family:AdvOTf9433e2d;font-size:8.47px;stroke:none;">adoption of climate change mitigation and adaptation strategies.</text>
   <text y="86.06" x="68.031,73.671,75.957,78.244,84.7659,88.044,93.684,97.918,101.619,105.853,110.087,113.8138,117.07,121.305,125.539,129.773,132.059,136.293,140.527,144.793,149.045,153.279,157.513,161.747" svgx:width="0.67,0.27,0.27,0.77,0.55,0.67,0.5,0.44,0.5,0.5,0.44,0.55,0.5,0.5,0.5,0.27,0.5,0.5,0.5,0.5,0.5,0.5,0.5,0.25" style="fill:rgb(0,0,0);font-family:AdvOTf9433e2d;font-size:8.47px;stroke:none;">Clim Change 135:277–295.</text>
   <text y="86.06" x="167.129,171.363,173.65,175.936,180.17,183.431,185.717,188.003,190.29,194.524,198.758,201.044,203.162,207.396,210.122,214.356,216.643,220.877,225.111,227.228,231.462,235.696,239.93,244.165,246.451,249.711,253.945,258.179,262.414,266.648,270.882,273.608,277.843,282.077,286.311" svgx:width="0.5,0.27,0.27,0.5,0.38,0.27,0.27,0.27,0.5,0.5,0.27,0.25,0.5,0.32,0.5,0.27,0.5,0.5,0.25,0.5,0.5,0.5,0.5,0.27,0.38,0.5,0.5,0.5,0.5,0.5,0.32,0.5,0.5,0.5,0.32" style="fill:rgb(0,0,255);font-family:AdvOTf9433e2d;font-size:8.47px;stroke:none;">https://doi.org/10.1007/s10584-015-</text>
   <text y="96.038" x="68.03,72.264,76.498,80.733,84.967,87.693" svgx:width="0.5,0.5,0.5,0.5,0.32,0.5" style="fill:rgb(0,0,255);font-family:AdvOTf9433e2d;font-size:8.47px;stroke:none;">1558-0</text>
   <text y="106.016" x="51.023,57.103,59.389,61.676,65.91,68.637,74.276,77.977,82.211,85.912,89.172,92.873,96.573,100.80799999999999,102.954,105.681,107.7985,109.871,117.365,121.066,123.352,127.053,130.753,134.454,138.68900000000002,140.769,145.443,147.56050000000002,149.613,157.548,161.248,164.508,167.769,171.469,173.756,177.456,180.16639999999998,182.325,185.585,187.70250000000001,189.751,197.686,201.387,205.087,209.321,212.582,216.816,221.05,225.28500000000003,227.396,232.0545,234.142,236.869,241.103,245.337,249.572,253.806,256.51640000000003,258.634,264.714,267.001,269.728,272.454,276.155,278.882,282.582,286.816" svgx:width="0.72,0.27,0.27,0.5,0.32,0.67,0.44,0.5,0.44,0.38,0.44,0.44,0.5,0.55,0.32,0.25,0.55,0.88,0.44,0.27,0.44,0.44,0.44,0.5,0.55,0.55,0.25,0.55,0.94,0.44,0.38,0.38,0.44,0.27,0.44,0.32,0.55,0.38,0.25,0.55,0.94,0.44,0.44,0.5,0.38,0.5,0.5,0.5,0.55,0.55,0.55,0.32,0.5,0.5,0.5,0.5,0.32,0.55,0.72,0.27,0.32,0.32,0.44,0.32,0.44,0.5,0.27" style="fill:rgb(0,0,0);font-family:AdvOTf9433e2d;font-size:8.47px;stroke:none;">Otto-Banaszak I, Matczak P, Wesseler J, Wechsung F (2011) Different</text>
   <text y="115.938" x="68.03,72.264,75.965,78.692,82.392,86.093,90.327,92.613,94.9,99.134,103.368,106.58659999999999,111.174,115.408,118.11840000000001,122.626,126.326,130.56,134.261,138.495,140.781,144.482,146.768,149.055,153.289,157.524,162.027,164.314,168.549,173.082,176.783,179.07,181.356,187.876,191.577,193.863,197.5898,202.109,205.81,210.044,213.744,217.978,222.212,225.913,228.1999,232.666,236.3928,240.887,247.407,251.108,255.342,257.628,261.329,263.6159,268.156,274.676,278.91,283.145,286.845" svgx:width="0.5,0.44,0.32,0.44,0.44,0.5,0.27,0.27,0.5,0.5,0.38,0.55,0.5,0.32,0.55,0.44,0.5,0.44,0.5,0.27,0.44,0.27,0.27,0.5,0.5,0.55,0.27,0.5,0.55,0.44,0.27,0.27,0.77,0.44,0.27,0.44,0.55,0.44,0.5,0.44,0.5,0.5,0.44,0.27,0.55,0.44,0.55,0.77,0.44,0.5,0.27,0.44,0.27,0.55,0.77,0.5,0.5,0.44,0.27" style="fill:rgb(0,0,0);font-family:AdvOTf9433e2d;font-size:8.47px;stroke:none;">perceptions of adaptation to climate change: a mental model</text>
   <text y="125.916" x="68.03,71.731,75.965,80.199,82.926,87.16,90.861,94.561,98.796,102.726,106.427,110.661,114.895,117.181,119.468,123.168,127.403,131.356,133.643,137.87800000000001,141.787,144.074,148.308,152.0348,155.961,159.661,163.895,166.182,170.416,174.116,178.351,182.051,185.77779999999998,189.693,192.42,195.146,199.38,205.90189999999998,209.819,213.52,217.754,221.988,225.689,228.415,230.7019,234.651,236.937,241.171,243.457,247.158,249.885,254.119,256.405,260.106,266.186,269.446,271.56350000000003,275.526,281.166,284.867" svgx:width="0.44,0.5,0.5,0.32,0.5,0.44,0.44,0.5,0.55,0.44,0.5,0.5,0.27,0.27,0.44,0.5,0.55,0.27,0.5,0.55,0.27,0.5,0.44,0.55,0.44,0.5,0.27,0.5,0.44,0.5,0.44,0.44,0.55,0.32,0.32,0.5,0.77,0.55,0.44,0.5,0.5,0.44,0.32,0.27,0.55,0.27,0.5,0.27,0.44,0.32,0.5,0.27,0.44,0.72,0.38,0.25,0.55,0.67,0.44,0.5" style="fill:rgb(0,0,0);font-family:AdvOTf9433e2d;font-size:8.47px;stroke:none;">approach applied to the evidence from expert interviews. Reg</text>
   <text y="135.894" x="68.03,73.145,77.379,81.613,83.9,86.626,90.861,95.096,101.479,107.119,111.353,115.053,119.287,123.522,127.2488,133.624,137.858,142.092,144.379,148.613,152.847,157.095,161.346,165.581,169.815,174.049" svgx:width="0.6,0.5,0.5,0.27,0.32,0.5,0.5,0.55,0.67,0.5,0.44,0.5,0.5,0.44,0.55,0.5,0.5,0.27,0.5,0.5,0.5,0.5,0.5,0.5,0.5,0.25" style="fill:rgb(0,0,0);font-family:AdvOTf9433e2d;font-size:8.47px;stroke:none;">Environ Change 11:217–228.</text>
   <text y="135.894" x="182.55,186.784,189.07,191.357,195.591,198.851,201.138,203.424,205.71,209.945,214.179,216.465,218.582,222.816,225.543,229.777,232.063,236.298,240.532,242.649,246.883,251.117,255.351,259.585,261.872,265.132,269.366,273.6,277.834,282.068,286.302" svgx:width="0.5,0.27,0.27,0.5,0.38,0.27,0.27,0.27,0.5,0.5,0.27,0.25,0.5,0.32,0.5,0.27,0.5,0.5,0.25,0.5,0.5,0.5,0.5,0.27,0.38,0.5,0.5,0.5,0.5,0.5,0.32" style="fill:rgb(0,0,255);font-family:AdvOTf9433e2d;font-size:8.47px;stroke:none;">https://doi.org/10.1007/s10113-</text>
   <text y="145.872" x="68.03,72.264,76.498,80.733,83.459,87.693,91.928,96.162,100.396,103.122" svgx:width="0.5,0.5,0.5,0.32,0.5,0.5,0.5,0.5,0.32,0.5" style="fill:rgb(0,0,255);font-family:AdvOTf9433e2d;font-size:8.47px;stroke:none;">010-0144-2</text>
   <text y="155.793" x="51.023,55.697,59.398,62.125,66.36,69.051,73.725,78.84,80.95750000000001,83.621,91.115,94.816,97.543,100.803,105.037,108.738,111.024,113.3109,115.992,122.073,128.153,130.2705,132.943,136.203,139.904,144.138,148.372,152.60700000000003,155.281,160.395,162.51250000000002,165.145,171.225,175.46,181.54,185.775,188.446,194.527,202.021,204.1385,206.815,212.895,217.129,223.209,227.443,231.144,235.37900000000002,238.052,242.727,250.221,252.3385,255.003,262.497,266.198,270.432,274.666,278.9,282.601" svgx:width="0.55,0.44,0.32,0.5,0.55,0.55,0.6,0.25,0.55,0.88,0.44,0.32,0.38,0.5,0.44,0.27,0.27,0.55,0.72,0.72,0.25,0.55,0.38,0.44,0.5,0.5,0.5,0.55,0.6,0.25,0.55,0.72,0.5,0.72,0.5,0.55,0.72,0.88,0.25,0.55,0.72,0.5,0.72,0.5,0.44,0.5,0.55,0.55,0.88,0.25,0.55,0.88,0.44,0.5,0.5,0.5,0.44,0.77" style="fill:rgb(0,0,0);font-family:AdvOTf9433e2d;font-size:8.47px;stroke:none;">Park SE, Marshall NA, Jakku E, Dowd AM, Howden SM, Mendham</text>
   <text y="165.771" x="68.03,73.145,75.2625,78.349,83.023,85.31,89.01,95.531,97.817,102.051,106.286,109.417,115.5154,118.602,121.328,125.562,129.796,134.031,138.265,140.97539999999998,144.114,146.84,151.075,153.801,158.035,160.762,167.283,169.569,173.803,178.038,181.191,184.891,189.126,192.826,197.06,199.347,203.047,205.334,207.62,211.854,216.08900000000003,219.232,221.958,225.659,228.919,233.153,237.387,241.622,244.882,248.582,251.8006,255.005,257.291,261.526,264.586,268.286,270.573,272.859,279.38,283.08,285.367" svgx:width="0.6,0.25,0.55,0.55,0.27,0.44,0.77,0.27,0.5,0.5,0.55,0.72,0.55,0.32,0.5,0.5,0.5,0.5,0.32,0.55,0.32,0.5,0.32,0.5,0.32,0.77,0.27,0.5,0.5,0.55,0.44,0.5,0.44,0.5,0.27,0.44,0.27,0.27,0.5,0.5,0.55,0.32,0.44,0.38,0.5,0.5,0.5,0.38,0.44,0.38,0.55,0.27,0.5,0.55,0.44,0.27,0.27,0.77,0.44,0.27,0.44" style="fill:rgb(0,0,0);font-family:AdvOTf9433e2d;font-size:8.47px;stroke:none;">E, Fleming A (2012) Informing adaptation responses to climate</text>
   <text y="175.749" x="68.03,71.731,75.965,79.666,83.9,88.134,91.8608,94.222,96.509,100.743,103.47,107.704,111.938,116.172,120.407,122.796,125.082,129.316,133.017,137.251,139.978,142.264,145.965,149.1836,151.653,155.887,158.5974,160.95,163.237,165.963,169.664,173.898,177.158,179.885,184.119,186.846,193.366,197.067,199.353,201.64,205.874,210.108,212.2255,214.695,220.775,223.062,227.296,231.531,233.914,239.029,243.263,247.497,249.783,252.51,256.744,260.97900000000004,263.394,269.034,273.268,276.969,281.203,285.437" svgx:width="0.44,0.5,0.44,0.5,0.5,0.44,0.55,0.27,0.5,0.32,0.5,0.5,0.5,0.5,0.55,0.27,0.5,0.44,0.5,0.32,0.27,0.44,0.38,0.55,0.5,0.32,0.55,0.27,0.32,0.44,0.5,0.38,0.32,0.5,0.32,0.77,0.44,0.27,0.27,0.5,0.5,0.25,0.55,0.72,0.27,0.5,0.5,0.55,0.6,0.5,0.5,0.27,0.32,0.5,0.5,0.55,0.67,0.5,0.44,0.5,0.5,0.44" style="fill:rgb(0,0,0);font-family:AdvOTf9433e2d;font-size:8.47px;stroke:none;">change through theories of transformation. Glob Environ Change</text>
   <text y="185.727" x="68.03,72.264,76.498,78.785,83.019,87.253,91.501,95.753,99.987,104.221,108.455" svgx:width="0.5,0.5,0.27,0.5,0.5,0.5,0.5,0.5,0.5,0.5,0.25" style="fill:rgb(0,0,0);font-family:AdvOTf9433e2d;font-size:8.47px;stroke:none;">22:115–126.</text>
   <text y="185.727" x="113.384,117.618,119.905,122.191,126.425,129.686,131.972,134.258,136.545,140.779,145.013,147.299,149.416,153.651,156.377,160.611,162.898,167.132,171.366,173.483,177.717,181.951,186.185,190.419,192.706,194.992,197.109,201.343,203.63,207.864,211.565,215.799,220.033,223.733,227.967,231.668,233.785,238.019,242.253,246.487,250.721,252.839,257.073,261.307,263.424,267.658,271.892" svgx:width="0.5,0.27,0.27,0.5,0.38,0.27,0.27,0.27,0.5,0.5,0.27,0.25,0.5,0.32,0.5,0.27,0.5,0.5,0.25,0.5,0.5,0.5,0.5,0.27,0.27,0.25,0.5,0.27,0.5,0.44,0.5,0.5,0.44,0.5,0.44,0.25,0.5,0.5,0.5,0.5,0.25,0.5,0.5,0.25,0.5,0.5,0.5" style="fill:rgb(0,0,255);font-family:AdvOTf9433e2d;font-size:8.47px;stroke:none;">https://doi.org/10.1016/j.gloenvcha.2011.10.003</text>
   <text y="195.649" x="51.022,55.696,59.397,61.683,63.97,68.204,72.439,75.853,83.348,89.4464,92.861,95.587,99.822,104.056,108.29,112.524,115.23440000000001,118.656,124.736,128.97,132.671,134.957,137.243,139.53,143.23,145.517,147.803,152.037,155.7638,159.191,164.831,168.532,171.792,175.493,179.193,181.92,185.621,189.85600000000002,193.264,199.7859,203.185,208.3,212.534,216.235,218.521,222.755,226.456,228.742,231.029,235.263,239.49800000000002,242.927,250.422,254.122,256.409,260.643,264.877,269.111,272.371,274.4885,277.907,282.141,284.868" svgx:width="0.55,0.44,0.27,0.27,0.5,0.5,0.55,0.88,0.72,0.55,0.32,0.5,0.5,0.5,0.5,0.32,0.55,0.72,0.5,0.44,0.27,0.27,0.27,0.44,0.27,0.27,0.5,0.44,0.55,0.67,0.44,0.38,0.44,0.44,0.32,0.44,0.5,0.55,0.77,0.55,0.6,0.5,0.44,0.27,0.5,0.44,0.27,0.27,0.5,0.5,0.55,0.88,0.44,0.27,0.5,0.5,0.5,0.38,0.25,0.55,0.5,0.32,0.5" style="fill:rgb(0,0,0);font-family:AdvOTf9433e2d;font-size:8.47px;stroke:none;">Patton MQ (2002) Qualitative Research &amp; Evaluation Methods, 3rd</text>
   <text y="205.627" x="68.029,71.73,75.964,80.198,82.3155,85.15,89.825,95.905,101.985,107.067,109.925,114.599,118.834,123.068,125.354,127.64,131.341,135.042,137.328,139.614,143.849,148.083,151.343,153.4605,156.357,159.084,163.318,167.018,169.1355,171.948,177.063,181.297,185.531,189.765,193.025,196.726,200.96,205.19500000000002,208.061,214.141,217.842,222.076" svgx:width="0.44,0.5,0.5,0.25,0.55,0.55,0.72,0.72,0.6,0.55,0.55,0.5,0.5,0.27,0.27,0.44,0.44,0.27,0.27,0.5,0.5,0.38,0.25,0.55,0.32,0.5,0.44,0.25,0.55,0.6,0.5,0.5,0.5,0.38,0.44,0.5,0.5,0.55,0.72,0.44,0.5,0.38" style="fill:rgb(0,0,0);font-family:AdvOTf9433e2d;font-size:8.47px;stroke:none;">edn. SAGE Publications, Inc, Thousand Oaks</text>
   <text y="215.605" x="51.022,55.696,58.423,62.657,66.891,70.152,72.438,74.724,77.451,83.531,87.232,89.518,93.752,97.453,100.16340000000001,104.37,110.45,112.56750000000001,116.616,124.11,128.344,131.604,133.891,137.591,141.826,144.1129,148.25,154.331,161.825,163.9425,168.036,174.116,177.817,180.103,183.804,190.325,194.025,198.259,200.986,205.661,207.947,212.181,215.882,220.11700000000002,224.276,227.536,229.6535,233.744,239.824,243.524,245.811,250.045,253.745,256.4554,260.616,268.55,270.6675,274.732,279.407,283.641,286.367" svgx:width="0.55,0.32,0.5,0.5,0.38,0.27,0.27,0.32,0.72,0.44,0.27,0.5,0.44,0.32,0.55,0.72,0.25,0.55,0.88,0.5,0.38,0.27,0.44,0.5,0.27,0.55,0.72,0.88,0.25,0.55,0.72,0.44,0.27,0.44,0.77,0.44,0.5,0.32,0.55,0.27,0.5,0.44,0.5,0.55,0.38,0.25,0.55,0.72,0.44,0.27,0.5,0.44,0.32,0.55,0.94,0.25,0.55,0.55,0.5,0.32,0.32" style="fill:rgb(0,0,0);font-family:AdvOTf9433e2d;font-size:8.47px;stroke:none;">Pröbstl-Haider U, Mostegl NM, Kelemen-Finan J, Haider W, For-</text>
   <text y="225.583" x="68.029,74.55,78.251,82.485,86.185,88.89540000000001,91.387,97.467,99.5845,102.045,108.125,111.826,116.06,118.347,122.047,124.334,128.568,132.268,134.995,139.229,141.51590000000002,143.998,147.259,149.3765,151.822,159.317,163.551,166.811,170.512,173.2224,175.69,180.805,182.9225,185.384,191.464,195.165,199.399,202.126,205.826,208.5364,211.067,218.561,220.6785,223.086,228.2,230.927,234.628,238.862,243.096,247.33,249.616,256.1379,258.632,264.3069,266.739,269.466,273.7,277.934,282.168,286.402" svgx:width="0.77,0.44,0.5,0.44,0.32,0.55,0.72,0.25,0.55,0.72,0.44,0.5,0.27,0.44,0.27,0.5,0.44,0.32,0.5,0.27,0.55,0.38,0.25,0.55,0.88,0.5,0.38,0.44,0.32,0.55,0.6,0.25,0.55,0.72,0.44,0.5,0.32,0.44,0.32,0.55,0.88,0.25,0.55,0.6,0.32,0.44,0.5,0.5,0.5,0.27,0.77,0.55,0.67,0.55,0.32,0.5,0.5,0.5,0.5,0.32" style="fill:rgb(0,0,0);font-family:AdvOTf9433e2d;font-size:8.47px;stroke:none;">mayer H, Kantelhardt J, Moser T, Kapfer M, Trenholm R (2016)</text>
   <text y="235.504" x="68.029,72.704,76.404,79.131,85.652,89.352,92.079,95.355,98.06540000000001,101.762,105.996,108.723,112.423,115.15,118.85,121.577,125.278,129.512,133.213,136.913,140.13160000000002,143.941,146.668,150.902,153.61239999999998,157.321,160.047,164.282,166.568,170.802,173.529,177.2558,180.905,184.605,188.839,191.566,193.852,197.553,201.787,204.074,206.36,210.594,213.321,217.021,219.3079,223.084,225.37,229.071,233.305,237.54000000000002,241.225,245.459,248.72,252.4468,256.078,260.313,264.547,268.781,272.481,275.1914,278.869,281.155,285.389" svgx:width="0.55,0.44,0.32,0.77,0.44,0.32,0.38,0.32,0.55,0.5,0.32,0.44,0.32,0.44,0.32,0.44,0.5,0.44,0.44,0.38,0.55,0.32,0.5,0.32,0.55,0.32,0.5,0.27,0.5,0.32,0.44,0.55,0.44,0.5,0.32,0.27,0.44,0.5,0.27,0.27,0.5,0.32,0.44,0.27,0.55,0.27,0.44,0.5,0.5,0.55,0.5,0.38,0.44,0.55,0.5,0.5,0.5,0.44,0.32,0.55,0.27,0.5,0.44" style="fill:rgb(0,0,0);font-family:AdvOTf9433e2d;font-size:8.47px;stroke:none;">Farmers’ preferences for future agricultural land use under the</text>
   <text y="245.482" x="68.029,71.73,75.964,80.198,83.458,85.745,89.979,93.68,96.406,100.107,102.393,104.68,108.914,113.149,116.842,121.076,123.7864,127.443,131.144,133.43,135.717,142.237,145.938,148.224,151.9508,155.619,159.32,163.554,167.255,171.489,175.723,179.423,181.5405,185.156,190.271,194.505,198.739,201.026,203.753,207.987,212.222,215.884,223.379,227.079,231.313,235.014,239.248,242.9748,246.612,250.846,255.08,257.367,261.601,265.835,270.082,274.334,278.568,282.802,287.037" svgx:width="0.44,0.5,0.5,0.38,0.27,0.5,0.44,0.32,0.44,0.27,0.27,0.5,0.5,0.55,0.5,0.32,0.55,0.44,0.27,0.27,0.77,0.44,0.27,0.44,0.55,0.44,0.5,0.44,0.5,0.5,0.44,0.25,0.55,0.6,0.5,0.5,0.27,0.32,0.5,0.5,0.55,0.88,0.44,0.5,0.44,0.5,0.44,0.55,0.5,0.5,0.27,0.5,0.5,0.5,0.5,0.5,0.5,0.5,0.25" style="fill:rgb(0,0,0);font-family:AdvOTf9433e2d;font-size:8.47px;stroke:none;">consideration of climate change. Environ Manage 58:446–464.</text>
   <text y="255.461" x="68.029,72.264,74.55,76.836,81.07,84.331,86.617,88.904,91.19,95.424,99.658,101.945,104.062,108.296,111.022,115.257,117.543,121.777,126.011,128.128,132.362,136.596,140.831,145.065,147.351,150.611,154.845,159.08,163.314,167.548,171.782,174.509,178.743,182.977,187.211,189.938,194.172,198.406,202.64,206.874,209.601" svgx:width="0.5,0.27,0.27,0.5,0.38,0.27,0.27,0.27,0.5,0.5,0.27,0.25,0.5,0.32,0.5,0.27,0.5,0.5,0.25,0.5,0.5,0.5,0.5,0.27,0.38,0.5,0.5,0.5,0.5,0.5,0.32,0.5,0.5,0.5,0.32,0.5,0.5,0.5,0.5,0.32,0.5" style="fill:rgb(0,0,255);font-family:AdvOTf9433e2d;font-size:8.47px;stroke:none;">https://doi.org/10.1007/s00267-016-0720-4</text>
   <text y="265.382" x="51.022,56.662,58.948,62.208,66.442,70.143,74.378,77.328,80.588,82.7055,85.661,91.741,95.442,99.676,103.91,106.196,108.483,112.717,116.418,119.12840000000001,122.115,129.609,131.72650000000002,134.645,140.725,144.959,151.039,153.325,157.026,159.312,163.013,167.247,170.948,175.182,177.4689,180.452,186.533,188.6505,191.564,197.645,200.371,204.072,207.773,210.059,213.7858,216.736,222.8344,225.751,228.477,232.711,236.945,241.18,245.414,248.12439999999998,251.092,255.767,259.467,263.168,265.454,269.155,271.2725,274.223,277.924,282.158,286.392" svgx:width="0.67,0.27,0.38,0.5,0.44,0.5,0.55,0.38,0.25,0.55,0.72,0.44,0.5,0.5,0.27,0.27,0.5,0.44,0.32,0.55,0.88,0.25,0.55,0.72,0.5,0.72,0.27,0.44,0.27,0.44,0.5,0.44,0.5,0.27,0.55,0.72,0.25,0.55,0.72,0.32,0.44,0.44,0.27,0.44,0.55,0.72,0.55,0.32,0.5,0.5,0.5,0.5,0.32,0.55,0.55,0.44,0.44,0.27,0.44,0.25,0.55,0.44,0.5,0.5,0.32" style="fill:rgb(0,0,0);font-family:AdvOTf9433e2d;font-size:8.47px;stroke:none;">Risbey J, Kandlikar M, Dowlatabadi H, Graetz D (1999) Scale, con-</text>
   <text y="275.36" x="68.029,70.316,74.016,78.251,80.537,82.65450000000001,86.455,90.155,94.389,98.624,102.385,106.619,110.32,114.02,116.307,119.567,121.853,126.087,130.322,134.076,140.597,144.297,148.532,150.818,155.052,159.287,163.103,165.389,169.62400000000002,173.365,177.065,181.299,184.026,186.312,190.013,194.247,196.534,198.82,203.054,205.781,209.481,211.7679,215.6,219.301,223.535,227.236,231.47,233.756,237.457,239.743,242.03,246.264,250.49900000000002,254.322,256.609,260.844,264.584,268.285,270.571,272.857,279.378,283.078,285.365" svgx:width="0.27,0.44,0.5,0.27,0.25,0.55,0.44,0.5,0.5,0.55,0.5,0.44,0.44,0.27,0.38,0.27,0.5,0.5,0.55,0.77,0.44,0.5,0.27,0.5,0.5,0.55,0.27,0.5,0.55,0.44,0.5,0.32,0.27,0.44,0.5,0.27,0.27,0.5,0.32,0.44,0.27,0.55,0.44,0.5,0.44,0.5,0.27,0.44,0.27,0.27,0.5,0.5,0.55,0.27,0.5,0.55,0.44,0.27,0.27,0.77,0.44,0.27,0.44" style="fill:rgb(0,0,0);font-family:AdvOTf9433e2d;font-size:8.47px;stroke:none;">text, and decision making in agricultural adaptation to climate</text>
   <text y="285.338" x="68.029,72.264,75.964,78.691,80.977,84.678,88.912,91.198,93.485,95.771,98.058,102.293,107.204,110.905,115.139,119.374,124.212,127.912,132.146,135.847,140.081,144.315,148.016,150.1335,154.996,162.49,164.777,167.063,169.35,173.585,178.467,184.548,188.782,192.482,196.716,199.0029,203.923,208.597,210.884,213.61,217.311,219.597,223.298,227.532,229.819,233.519,236.73760000000001,241.68,247.76,250.047,254.281,258.516,263.393,269.033,273.267,276.968,281.202,285.436" svgx:width="0.5,0.44,0.32,0.27,0.44,0.5,0.27,0.27,0.27,0.27,0.5,0.55,0.44,0.5,0.5,0.55,0.44,0.5,0.44,0.5,0.5,0.44,0.25,0.55,0.88,0.27,0.27,0.27,0.5,0.55,0.72,0.5,0.44,0.5,0.27,0.55,0.55,0.27,0.32,0.44,0.27,0.44,0.5,0.27,0.44,0.38,0.55,0.72,0.27,0.5,0.5,0.55,0.67,0.5,0.44,0.5,0.5,0.44" style="fill:rgb(0,0,0);font-family:AdvOTf9433e2d;font-size:8.47px;stroke:none;">variability and change. Mitig Adapt Strategies Glob Change</text>
   <text y="295.316" x="68.029,72.264,74.55,78.784,83.018,87.248,91.5,95.734,99.968,104.202" svgx:width="0.5,0.27,0.5,0.5,0.5,0.5,0.5,0.5,0.5,0.25" style="fill:rgb(0,0,0);font-family:AdvOTf9433e2d;font-size:8.47px;stroke:none;">4:137–165.</text>
   <text y="295.316" x="109.132,113.366,115.652,117.938,122.173,125.433,127.719,130.006,132.292,136.526,140.76,143.047,145.164,149.398,152.125,156.359,158.645,162.879,167.113,169.23,173.464,177.699,181.933,186.167,188.453,194.533,196.82,201.054,205.288,209.522,213.756,217.99,222.224,226.6,230.834,235.068,239.302,243.536,247.77" svgx:width="0.5,0.27,0.27,0.5,0.38,0.27,0.27,0.27,0.5,0.5,0.27,0.25,0.5,0.32,0.5,0.27,0.5,0.5,0.25,0.5,0.5,0.5,0.5,0.27,0.72,0.27,0.5,0.5,0.5,0.5,0.5,0.5,0.5,0.5,0.5,0.5,0.5,0.5,0.5" style="fill:rgb(0,0,255);font-family:AdvOTf9433e2d;font-size:8.47px;stroke:none;">https://doi.org/10.1023/A:1009636607038</text>
   <text y="305.238" x="51.021,56.661,60.895,64.596,67.856,71.556,75.791,78.517,86.012,89.712,95.792,99.493,101.779,104.066,108.301,111.852,117.933,123.047,125.1645,128.691,134.771,137.497,141.732,145.966,149.666,153.9,156.187,159.9138,163.443,166.703,172.784,174.9015,178.41,183.525,187.759,191.993,196.227,199.928,202.214,204.5009,208.06,211.321,216.9959,220.476,223.203,227.437,231.671,235.906,240.14,242.85039999999998,246.385,254.32,258.554,262.254,264.5409,268.042,274.122,278.356,282.59,284.876" svgx:width="0.67,0.5,0.44,0.38,0.44,0.5,0.32,0.88,0.44,0.72,0.44,0.27,0.27,0.5,0.55,0.72,0.6,0.25,0.55,0.72,0.32,0.5,0.5,0.44,0.5,0.27,0.44,0.55,0.38,0.72,0.25,0.55,0.6,0.5,0.5,0.5,0.44,0.27,0.27,0.55,0.38,0.67,0.55,0.32,0.5,0.5,0.5,0.5,0.32,0.55,0.94,0.5,0.44,0.27,0.55,0.72,0.5,0.5,0.27,0.5" style="fill:rgb(0,0,0);font-family:AdvOTf9433e2d;font-size:8.47px;stroke:none;">Roesch-McNally GE, Arbuckle JG, Tyndall JC (2017) What would</text>
   <text y="315.216" x="68.029,70.755,74.456,77.183,83.703,87.404,90.131,93.3496,97.793,102.027,106.261,109.9878,114.347,120.427,124.661,128.362,132.596,134.882,138.583,140.869,143.156,147.39,151.625,156.017,158.303,162.537,164.823,168.524,172.758,175.045,177.331,181.565,185.799,189.01760000000002,193.491,197.725,201.959,206.193,209.894,212.6044,217.018,220.7448,225.069,230.709,234.943,237.669,241.90400000000002,246.272,251.912,255.613,257.899,260.1859,264.584,268.285,270.571,272.857,279.378,283.078,285.365" svgx:width="0.32,0.44,0.32,0.77,0.44,0.32,0.38,0.55,0.5,0.5,0.44,0.55,0.72,0.5,0.44,0.5,0.27,0.44,0.27,0.27,0.5,0.5,0.55,0.27,0.5,0.27,0.44,0.5,0.27,0.27,0.5,0.5,0.38,0.55,0.5,0.5,0.5,0.44,0.32,0.55,0.44,0.55,0.67,0.5,0.32,0.5,0.55,0.67,0.44,0.27,0.27,0.55,0.44,0.27,0.27,0.77,0.44,0.27,0.44" style="fill:rgb(0,0,0);font-family:AdvOTf9433e2d;font-size:8.47px;stroke:none;">farmers do? Adaptation intentions under a Corn Belt climate</text>
   <text y="325.194" x="68.029,71.729,75.963,79.664,83.898,88.132,91.8588,94.504,97.765,101.465,105.166,109.4,113.101,115.827,118.114,122.348,124.4655,127.159,133.24,137.474,140.201,142.487,146.2138,148.873,154.953,159.187,165.7089,168.432,174.512,178.213,180.499,184.733,188.434,191.6526,194.34,198.574,202.808,205.095,209.329,213.563,217.811,222.063,226.297,230.531,234.765" svgx:width="0.44,0.5,0.44,0.5,0.5,0.44,0.55,0.38,0.44,0.44,0.5,0.44,0.32,0.27,0.5,0.25,0.55,0.72,0.5,0.32,0.27,0.44,0.55,0.72,0.5,0.77,0.55,0.72,0.44,0.27,0.5,0.44,0.38,0.55,0.5,0.5,0.27,0.5,0.5,0.5,0.5,0.5,0.5,0.5,0.25" style="fill:rgb(0,0,0);font-family:AdvOTf9433e2d;font-size:8.47px;stroke:none;">change scenario. Agric Hum Values 34:333–346.</text>
   <text y="325.194" x="239.524,243.758,246.045,248.331,252.565,255.825,258.112,260.398,262.685,266.919,271.153,273.439,275.556,279.79,282.517,286.863" svgx:width="0.5,0.27,0.27,0.5,0.38,0.27,0.27,0.27,0.5,0.5,0.27,0.25,0.5,0.32,0.5,0.27" style="fill:rgb(0,0,255);font-family:AdvOTf9433e2d;font-size:8.47px;stroke:none;">https://doi.org/</text>
   <text y="335.172" x="68.029,72.263,76.497,78.614,82.848,87.082,91.316,95.55,97.837,101.097,105.331,109.565,113.799,118.033,122.267,124.994,129.228,133.462,137.696,140.423,144.657,148.891,153.126,157.36,160.086" svgx:width="0.5,0.5,0.25,0.5,0.5,0.5,0.5,0.27,0.38,0.5,0.5,0.5,0.5,0.5,0.32,0.5,0.5,0.5,0.32,0.5,0.5,0.5,0.5,0.32,0.5" style="fill:rgb(0,0,255);font-family:AdvOTf9433e2d;font-size:8.47px;stroke:none;">10.1007/s10460-016-9719-y</text>
   <text y="345.093" x="51.021,56.661,60.895,65.129,68.83,71.556,74.77459999999999,79.197,86.692,88.8095,93.2,98.84,103.074,105.801,108.087,110.374,113.59259999999999,117.975,124.055,126.17250000000001,130.56,138.055,141.755,145.456,149.69,152.4004,156.809,162.9074,167.24,169.967,174.201,178.435,182.669,186.903,189.61339999999998,193.999,199.114,203.348,207.0748,211.404,213.69,217.924,222.63,226.864,230.565,234.799,238.499,242.2258,246.554,250.788,253.4984,257.893,261.594,265.828,270.062,274.296,276.583,278.869,281.155,285.389" svgx:width="0.67,0.5,0.5,0.44,0.32,0.38,0.55,0.88,0.25,0.55,0.67,0.5,0.32,0.27,0.27,0.38,0.55,0.72,0.25,0.55,0.88,0.44,0.44,0.5,0.32,0.55,0.72,0.55,0.32,0.5,0.5,0.5,0.5,0.32,0.55,0.6,0.5,0.44,0.55,0.27,0.5,0.55,0.5,0.44,0.5,0.44,0.44,0.55,0.5,0.32,0.55,0.44,0.5,0.5,0.5,0.27,0.27,0.27,0.5,0.44" style="fill:rgb(0,0,0);font-family:AdvOTf9433e2d;font-size:8.47px;stroke:none;">Rogers M, Curtis A, Mazur N (2012) The inﬂuence of cognitive</text>
   <text y="355.071" x="68.029,72.263,74.989,79.224,82.924,86.625,89.885,93.145,96.846,100.0646,105.73,109.964,114.199,119.846,122.573,126.807,129.534,133.235,135.52190000000002,141.162,143.449,147.15,151.384,155.618,159.852,164.086,166.372,170.606,174.307,177.01739999999998,182.662,185.389,189.089,192.349,196.583,200.818,205.052,208.312,212.013,215.23160000000001,220.93,223.216,227.45100000000002,233.062,236.763,239.049,241.335,247.856,251.556,253.843,257.5698,263.165,266.866,271.1,274.801,279.035,283.269,286.97" svgx:width="0.5,0.32,0.5,0.44,0.44,0.38,0.38,0.44,0.38,0.55,0.5,0.5,0.55,0.32,0.5,0.32,0.44,0.27,0.55,0.27,0.44,0.5,0.5,0.5,0.5,0.27,0.5,0.44,0.32,0.55,0.32,0.44,0.38,0.5,0.5,0.5,0.38,0.44,0.38,0.55,0.27,0.5,0.55,0.44,0.27,0.27,0.77,0.44,0.27,0.44,0.55,0.44,0.5,0.44,0.5,0.5,0.44,0.25" style="fill:rgb(0,0,0);font-family:AdvOTf9433e2d;font-size:8.47px;stroke:none;">processes on rural landholder responses to climate change.</text>
   <text y="365.049" x="68.029,71.24759999999999,73.414,78.529,82.763,86.997,89.284,92.011,96.245,100.48,102.554,110.049,113.749,117.983,121.684,125.918,129.6448,131.751,135.985,140.219,144.453,146.74,150.974,155.208,159.474,163.669,167.903,172.137,176.372" svgx:width="0.38,0.55,0.6,0.5,0.5,0.27,0.32,0.5,0.5,0.55,0.88,0.44,0.5,0.44,0.5,0.44,0.55,0.5,0.5,0.5,0.27,0.5,0.5,0.5,0.5,0.5,0.5,0.5,0.25" style="fill:rgb(0,0,0);font-family:AdvOTf9433e2d;font-size:8.47px;stroke:none;">J Environ Manage 111:258–266.</text>
   <text y="365.049" x="180.62,184.854,187.141,189.427,193.661,196.921,199.208,201.494,203.781,208.015,212.249,214.535,216.652,220.886,223.613,227.847,230.134,234.368,238.602,240.719,244.953,249.187,253.421,257.655,259.942,262.228,264.345,266.632,270.332,274.566,278.8,285.321" svgx:width="0.5,0.27,0.27,0.5,0.38,0.27,0.27,0.27,0.5,0.5,0.27,0.25,0.5,0.32,0.5,0.27,0.5,0.5,0.25,0.5,0.5,0.5,0.5,0.27,0.27,0.25,0.27,0.44,0.5,0.5,0.77,0.44" style="fill:rgb(0,0,255);font-family:AdvOTf9433e2d;font-size:8.47px;stroke:none;">https://doi.org/10.1016/j.jenvma</text>
   <text y="374.971" x="68.029,72.263,74.38,78.614,82.848,87.082,91.316,93.433,97.667,101.901,104.018,108.253,112.487" svgx:width="0.5,0.25,0.5,0.5,0.5,0.5,0.25,0.5,0.5,0.25,0.5,0.5,0.5" style="fill:rgb(0,0,255);font-family:AdvOTf9433e2d;font-size:8.47px;stroke:none;">n.2012.07.015</text>
   <text y="384.949" x="51.021,56.661,60.895,65.129,68.83,71.556,74.77459999999999,79.368,85.007,92.9688,97.452,100.179,104.413,108.647,112.881,117.115,119.8254,124.381,130.021,134.255,138.489,142.723,145.01,147.296,149.582,153.817,157.5438,162.082,165.783,170.017,174.252,178.807,183.041,187.275,191.509,194.77,197.056,201.29,203.576,207.811,212.045,214.331,218.032,221.732,224.0189,228.583,232.817,235.544,239.778,243.479,247.179,250.44,253.7,257.4,260.61859999999996,265.207,267.494,271.72900000000004,276.262,278.989,282.69,286.39" svgx:width="0.67,0.5,0.5,0.44,0.32,0.38,0.55,0.67,0.94,0.55,0.32,0.5,0.5,0.5,0.5,0.32,0.55,0.67,0.5,0.5,0.5,0.27,0.27,0.27,0.5,0.44,0.55,0.44,0.5,0.5,0.55,0.5,0.5,0.5,0.38,0.27,0.5,0.27,0.5,0.5,0.27,0.44,0.44,0.27,0.55,0.5,0.32,0.5,0.44,0.44,0.38,0.38,0.44,0.38,0.55,0.27,0.5,0.55,0.32,0.44,0.44,0.32" style="fill:rgb(0,0,0);font-family:AdvOTf9433e2d;font-size:8.47px;stroke:none;">Rogers RW (1983) Cognitive and physiological processes in fear</text>
   <text y="394.927" x="68.029,71.729,75.963,80.197,83.898,87.599,89.885,93.1036,98.189,101.89,106.124,110.359,115.367,119.067,121.354,123.64,125.927,128.213,132.447,136.681,140.4078,145.414,149.115,153.349,157.05,161.284,165.518,169.219,171.5059,176.483,182.5814,187.594,190.321,194.022,198.256,200.542,203.803,207.503,211.738,216.734,219.021,223.255,226.956,231.19,233.916,238.151,243.21,247.444,250.15439999999998,255.172,259.406,262.133,266.367,268.654,272.354,276.055,278.341,280.628,284.862" svgx:width="0.44,0.5,0.5,0.44,0.44,0.27,0.38,0.55,0.44,0.5,0.5,0.55,0.44,0.27,0.27,0.27,0.27,0.5,0.5,0.44,0.55,0.44,0.5,0.44,0.5,0.5,0.44,0.27,0.55,0.72,0.55,0.32,0.44,0.5,0.27,0.38,0.44,0.5,0.55,0.27,0.5,0.44,0.5,0.32,0.5,0.55,0.5,0.32,0.55,0.5,0.32,0.5,0.27,0.44,0.44,0.27,0.27,0.5,0.5" style="fill:rgb(0,0,0);font-family:AdvOTf9433e2d;font-size:8.47px;stroke:none;">appeals and attitude change: A revised theory of protection</text>
   <text y="404.905" x="68.029,74.549,78.783,81.07,83.356,87.59,91.291,93.577,95.864,100.098,104.332,106.4495,110.718,113.445,117.679,119.9659,124.268,129.908,133.609,137.309,139.596,143.83,148.064,152.298,156.53300000000002,160.779,166.419,171.534,173.6515,177.9,182.575,186.275,188.562,190.848,195.08300000000003,199.386,204.501,209.583,213.843,216.57,220.271,224.505,227.765,229.882,232.5924,236.861,241.535,245.769,249.47,251.756,255.457,257.7439,262.033,266.707,269.967,274.201,277.902,282.136,286.37" svgx:width="0.77,0.5,0.27,0.27,0.5,0.44,0.27,0.27,0.5,0.5,0.25,0.55,0.32,0.5,0.27,0.55,0.67,0.44,0.44,0.27,0.5,0.5,0.5,0.5,0.55,0.67,0.6,0.25,0.55,0.55,0.44,0.27,0.27,0.5,0.55,0.6,0.6,0.55,0.32,0.44,0.5,0.38,0.25,0.32,0.55,0.55,0.5,0.44,0.27,0.44,0.27,0.55,0.55,0.38,0.5,0.44,0.5,0.5,0.32" style="fill:rgb(0,0,0);font-family:AdvOTf9433e2d;font-size:8.47px;stroke:none;">motivation. In: Cacioppo BL, Petty LL (eds.) Social Psycho-</text>
   <text y="414.826" x="68.029,72.263,76.497,80.731,83.991,86.278,90.512,92.798,97.032,101.266,105.5,107.7869,110.662,116.7604,119.563,124.237,128.471,132.705,135.432,139.133,142.833,147.067,151.301,155.536,159.77,161.88750000000002,164.747,170.827,175.062,177.348,179.634,182.361,186.595,189.322,193.556,195.67350000000002,198.536,203.651,207.885,212.119,216.353,220.587,224.822,226.9395,229.718,233.953,236.804,241.038,245.272,249.502,253.754,257.988,262.222" svgx:width="0.5,0.5,0.5,0.38,0.27,0.5,0.27,0.5,0.5,0.5,0.27,0.55,0.72,0.55,0.55,0.5,0.5,0.32,0.44,0.44,0.5,0.5,0.5,0.5,0.25,0.55,0.72,0.5,0.27,0.27,0.32,0.5,0.32,0.5,0.25,0.55,0.6,0.5,0.5,0.5,0.5,0.5,0.25,0.55,0.5,0.55,0.5,0.5,0.5,0.5,0.5,0.5,0.5" style="fill:rgb(0,0,0);font-family:AdvOTf9433e2d;font-size:8.47px;stroke:none;">physiology: A Sourcebook. Guilford, London, p 153–176</text>
   <text y="424.804" x="51.021,56.661,60.895,65.129,68.83,71.556,74.77459999999999,77.213,82.853,90.788,92.9055,95.298,99.972,102.699,106.4,110.634,112.92,115.207,118.907,122.608,125.335,131.415,135.649,139.883,144.11800000000002,146.548,151.2065,153.634,156.361,160.595,164.829,169.063,173.298,176.0084,178.409,183.083,185.81,190.044,192.331,196.031,199.732,202.018,204.305,208.539,212.774,215.202,221.723,225.957,228.243,230.53,234.764,238.465,240.751,243.037,247.271,251.506,253.924,256.211,260.445,264.145,268.379,271.106,275.34,277.4575,279.889,282.616,286.85" svgx:width="0.67,0.5,0.5,0.44,0.32,0.38,0.55,0.67,0.94,0.25,0.55,0.55,0.32,0.44,0.5,0.27,0.27,0.44,0.44,0.32,0.72,0.5,0.5,0.5,0.55,0.55,0.55,0.32,0.5,0.5,0.5,0.5,0.32,0.55,0.55,0.32,0.5,0.27,0.44,0.44,0.27,0.27,0.5,0.5,0.55,0.77,0.5,0.27,0.27,0.5,0.44,0.27,0.27,0.5,0.5,0.55,0.27,0.5,0.44,0.5,0.32,0.5,0.25,0.55,0.32,0.5,0.27" style="fill:rgb(0,0,0);font-family:AdvOTf9433e2d;font-size:8.47px;stroke:none;">Rogers RW, Prentice-Dunn S (1997) Protection motivation theory. In:</text>
   <text y="434.782" x="68.029,74.109,78.343,82.043,86.278,92.798,96.499,100.734,104.992,111.072,115.7305,120.016,122.742,126.443,130.677,132.794,135.5044,139.802,145.882,149.582,153.817,158.051,162.285,166.519,170.753,174.988,179.26,183.494,186.2044,190.486,196.566,200.266,203.967,206.253,208.54,212.775,217.018,222.658,226.359,230.593,234.293,238.527,240.814,245.048,249.282,251.9924,256.306,261.946,265.647,268.907,272.608,276.308,279.035,282.736,286.97" svgx:width="0.72,0.5,0.44,0.5,0.77,0.44,0.5,0.55,0.72,0.55,0.55,0.32,0.44,0.5,0.25,0.32,0.55,0.72,0.44,0.5,0.5,0.5,0.5,0.5,0.5,0.55,0.5,0.32,0.55,0.72,0.44,0.44,0.27,0.27,0.5,0.55,0.67,0.44,0.5,0.44,0.5,0.27,0.5,0.5,0.32,0.55,0.67,0.44,0.38,0.44,0.44,0.32,0.44,0.5,0.25" style="fill:rgb(0,0,0);font-family:AdvOTf9433e2d;font-size:8.47px;stroke:none;">Gochman DS (ed.) Handbook of Health Behaviour Research.</text>
   <text y="444.761" x="68.029,70.755,73.0419,75.512,80.186,83.887,86.614,89.874,94.108,98.342,102.043,104.32990000000001,106.806,110.507,114.741,118.976,121.433,126.108,130.342,134.042,136.329,140.029,142.3159,144.734,150.815,154.515,156.802,160.502,163.229,169.749,172.036,176.27,179.971,184.205,186.491,189.751,191.8685,194.398,199.072,201.359,205.059,209.293,213.527,220.04889999999997,222.517,227.192,229.919,233.619,236.879,240.14,242.2575,244.741,250.821,254.522,260.6204,263.053,269.133,273.367,276.094,280.328,282.4455,284.88" svgx:width="0.32,0.27,0.55,0.55,0.44,0.32,0.38,0.5,0.5,0.44,0.27,0.55,0.44,0.5,0.5,0.55,0.55,0.5,0.44,0.27,0.44,0.27,0.55,0.72,0.44,0.27,0.44,0.32,0.77,0.27,0.5,0.44,0.5,0.27,0.38,0.25,0.55,0.55,0.27,0.44,0.5,0.5,0.77,0.55,0.55,0.32,0.44,0.38,0.38,0.25,0.55,0.72,0.44,0.72,0.55,0.72,0.5,0.32,0.5,0.25,0.55,0.5" style="fill:rgb(0,0,0);font-family:AdvOTf9433e2d;font-size:8.47px;stroke:none;">I: Personal and Social Determinants. Plenum Press, New York, p</text>
   <text y="454.682" x="68.029,72.263,76.497,80.728,84.979,89.213,93.448" svgx:width="0.5,0.5,0.5,0.5,0.5,0.5,0.5" style="fill:rgb(0,0,0);font-family:AdvOTf9433e2d;font-size:8.47px;stroke:none;">113–132</text>
   <text y="464.66" x="51.02,55.556,59.128,63.362,67.348,70.92,73.528,76.788,80.784,85.019,86.963,94.333,99.973,102.0905,103.971,109.47,113.704,116.217,118.371,120.526,123.74459999999999,125.741,131.694,136.77599999999998,138.78,141.389,145.623,149.609,153.69,157.924,160.6344,162.535,168.034,172.268,174.326,176.481,180.562,183.171,186.871,188.98850000000002,190.881,194.453,196.607,198.761,205.168,208.74,210.894,214.6208,216.563,220.135,224.369,227.845,231.927,236.161,239.8878,241.735,245.307,249.389,253.62400000000002,255.625,258.233,261.805,264.413,270.819,273.427,275.581,279.153,283.235,286.936" svgx:width="0.55,0.44,0.5,0.5,0.44,0.32,0.38,0.5,0.5,0.55,0.88,0.67,0.25,0.55,0.67,0.5,0.32,0.27,0.27,0.38,0.55,0.72,0.6,0.55,0.32,0.5,0.5,0.5,0.5,0.32,0.55,0.67,0.5,0.27,0.27,0.5,0.32,0.44,0.25,0.55,0.44,0.27,0.27,0.77,0.44,0.27,0.44,0.55,0.44,0.5,0.44,0.5,0.5,0.44,0.55,0.44,0.5,0.5,0.55,0.32,0.44,0.32,0.77,0.32,0.27,0.44,0.5,0.44,0.27" style="fill:rgb(0,0,0);font-family:AdvOTf9433e2d;font-size:8.47px;stroke:none;">Sanderson MR, Curtis AL (2016) Culture, climate change and farm-level</text>
   <text y="474.638" x="68.028,72.109,74.718,78.952,82.938,87.172,91.158,97.111,100.812,102.894,106.466,109.1764,114.119,120.526,124.097,128.179,131.751,135.985,139.461,145.867,149.439,153.521,155.807,158.0939,162.875,166.576,170.811,175.631,181.584,185.665,188.926,190.994,193.603,197.175,199.329,201.483,205.184,209.419,214.239,217.811,221.383,224.501,228.2278,233.118,236.378,238.447,242.529,246.763,250.749,252.8665,257.779,260.9976,265.942,271.895,276.129,280.115,282.724,286.958" svgx:width="0.5,0.32,0.5,0.5,0.5,0.5,0.72,0.44,0.27,0.44,0.32,0.55,0.77,0.44,0.5,0.44,0.5,0.44,0.77,0.44,0.5,0.27,0.27,0.55,0.44,0.5,0.55,0.72,0.5,0.38,0.27,0.32,0.44,0.27,0.27,0.44,0.5,0.55,0.44,0.44,0.38,0.44,0.55,0.38,0.27,0.5,0.5,0.5,0.25,0.55,0.38,0.55,0.72,0.5,0.5,0.32,0.5,0.27" style="fill:rgb(0,0,0);font-family:AdvOTf9433e2d;font-size:8.47px;stroke:none;">groundwater management: an Australian case study. J Hydrol</text>
   <text y="484.616" x="68.028,72.109,76.344,80.329,82.616,86.622,90.704,94.843,98.925,103.159,107.145,111.379" svgx:width="0.5,0.5,0.5,0.27,0.5,0.5,0.5,0.5,0.5,0.5,0.5,0.25" style="fill:rgb(0,0,0);font-family:AdvOTf9433e2d;font-size:8.47px;stroke:none;">536:284–292.</text>
   <text y="484.616" x="116.103,120.337,122.623,124.909,129.144,132.404,134.69,136.977,139.263,143.497,147.731,150.018,152.135,156.369,159.096,163.33,165.616,169.85,174.084,176.201,180.435,184.67,188.904,193.138,195.424,197.711,199.828,202.114,206.348,210.582,214.816,217.543,221.777,224.064,226.181,230.415,234.649,238.883,243.117,245.234,249.468,253.702,255.819,260.053,264.288" svgx:width="0.5,0.27,0.27,0.5,0.38,0.27,0.27,0.27,0.5,0.5,0.27,0.25,0.5,0.32,0.5,0.27,0.5,0.5,0.25,0.5,0.5,0.5,0.5,0.27,0.27,0.25,0.27,0.5,0.5,0.5,0.32,0.5,0.27,0.25,0.5,0.5,0.5,0.5,0.25,0.5,0.5,0.25,0.5,0.5,0.5" style="fill:rgb(0,0,255);font-family:AdvOTf9433e2d;font-size:8.47px;stroke:none;">https://doi.org/10.1016/j.jhydrol.2016.02.032</text>
   <text y="494.538" x="51.019,55.694,59.394,63.629,70.149,72.435,74.722,78.422,82.657,86.357,89.084,93.318,97.019,99.72940000000001,103.063,105.79,107.90750000000001,111.227,119.162,121.889,126.123,130.357,134.0838,137.306,142.421,144.5385,147.851,152.525,154.812,158.512,162.746,165.473,169.174,171.8844,175.177,180.817,182.9345,186.232,192.312,195.572,199.273,203.507,207.208,211.442,215.676,218.403,222.103,226.337,230.571,234.272,236.98239999999998,240.318,246.398,248.5155,251.826,256.5,260.201,262.487,266.188,268.915,272.175,275.875,278.162,280.4489,283.744,287.004" svgx:width="0.55,0.44,0.5,0.77,0.27,0.27,0.44,0.5,0.44,0.32,0.5,0.44,0.32,0.55,0.32,0.25,0.55,0.94,0.32,0.5,0.5,0.44,0.55,0.6,0.25,0.55,0.55,0.27,0.44,0.5,0.32,0.44,0.32,0.55,0.67,0.25,0.55,0.72,0.38,0.44,0.5,0.44,0.5,0.5,0.32,0.44,0.5,0.5,0.44,0.32,0.55,0.72,0.25,0.55,0.55,0.44,0.27,0.44,0.32,0.38,0.44,0.27,0.27,0.55,0.38,0.25" style="fill:rgb(0,0,0);font-family:AdvOTf9433e2d;font-size:8.47px;stroke:none;">Schmitzberger I, Wrbka T, Steurer B, Aschenbrenner G, Peterseil J,</text>
   <text y="504.516" x="68.027,73.142,76.842,80.543,84.777,91.298,94.998,97.285,100.545,102.831,106.532,109.2424,113.948,120.028,126.1264,130.786,133.513,137.747,141.981,146.215,150.45,153.16039999999998,157.829,163.909,168.143,174.2414,178.862,181.589,185.289,188.016,194.537,196.823,201.057,205.292,209.987,213.247,215.534,219.768,222.054,225.755,228.9736,233.684,235.971,240.203,244.852,249.086,252.787,257.021,260.722,264.4488,269.117,273.351,275.637,279.872,284.106,286.392" svgx:width="0.6,0.44,0.44,0.5,0.77,0.44,0.27,0.38,0.27,0.44,0.32,0.55,0.72,0.72,0.55,0.32,0.5,0.5,0.5,0.5,0.32,0.55,0.72,0.5,0.72,0.55,0.32,0.44,0.32,0.77,0.27,0.5,0.5,0.55,0.38,0.27,0.5,0.27,0.44,0.38,0.55,0.27,0.5,0.55,0.5,0.44,0.5,0.44,0.44,0.55,0.5,0.27,0.5,0.5,0.27,0.32" style="fill:rgb(0,0,0);font-family:AdvOTf9433e2d;font-size:8.47px;stroke:none;">Zechmeister HG (2005) How farming styles inﬂuence biodi-</text>
   <text y="514.494" x="68.028,72.262,75.962,78.689,81.949,84.236,86.522,90.757,94.9,101.42,105.121,107.407,111.642,113.928,117.629,121.863,125.563,129.797,133.498,137.2248,141.332,143.618,147.853,151.99,158.07,162.304,165.564,167.851,170.578,172.864,176.565,180.8,184.929,188.629,192.863,195.59,197.877,201.577,205.811,208.098,210.384,214.618,217.345,221.046,223.3329,227.505,229.792,233.492,237.726,241.96,245.221,248.921,252.622,256.856,260.556,263.817,265.9345,270.081,276.162,280.396,283.122,285.409" svgx:width="0.5,0.44,0.32,0.38,0.27,0.27,0.5,0.55,0.77,0.44,0.27,0.5,0.27,0.44,0.5,0.44,0.5,0.44,0.44,0.55,0.27,0.5,0.55,0.72,0.5,0.38,0.27,0.32,0.27,0.44,0.5,0.55,0.44,0.5,0.32,0.27,0.44,0.5,0.27,0.27,0.5,0.32,0.44,0.27,0.55,0.27,0.44,0.5,0.5,0.38,0.44,0.44,0.5,0.44,0.38,0.25,0.55,0.72,0.5,0.32,0.27,0.44" style="fill:rgb(0,0,0);font-family:AdvOTf9433e2d;font-size:8.47px;stroke:none;">versity maintenance in Austrian agricultural landscapes. Agric</text>
   <text y="524.415" x="68.028,73.143,76.843,81.077,84.338,88.572,91.832,94.1189,100.74,105.854,110.088,114.323,116.609,119.336,123.57,127.80499999999999,134.472,138.706,142.94,147.174,149.46,153.695,157.929,162.137,166.389,170.623,174.857,179.092" svgx:width="0.6,0.44,0.5,0.38,0.5,0.38,0.27,0.55,0.6,0.5,0.5,0.27,0.32,0.5,0.5,0.55,0.5,0.5,0.5,0.27,0.5,0.5,0.5,0.5,0.5,0.5,0.5,0.25" style="fill:rgb(0,0,0);font-family:AdvOTf9433e2d;font-size:8.47px;stroke:none;">Ecosyst Environ 108:274–290.</text>
   <text y="524.415" x="187.819,192.053,194.339,196.626,200.86,204.12,206.407,208.693,210.979,215.214,219.448,221.734,223.851,228.085,230.812,235.046,237.332,241.567,245.801,247.918,252.152,256.386,260.62,264.854,267.14,269.427,271.544,275.245,279.479,283.179,286.88" svgx:width="0.5,0.27,0.27,0.5,0.38,0.27,0.27,0.27,0.5,0.5,0.27,0.25,0.5,0.32,0.5,0.27,0.5,0.5,0.25,0.5,0.5,0.5,0.5,0.27,0.27,0.25,0.44,0.5,0.44,0.44,0.25" style="fill:rgb(0,0,255);font-family:AdvOTf9433e2d;font-size:8.47px;stroke:none;">https://doi.org/10.1016/j.agee.</text>
   <text y="534.393" x="68.027,72.261,76.495,80.729,84.963,87.08,91.314,95.549,97.666,101.9,106.134" svgx:width="0.5,0.5,0.5,0.5,0.25,0.5,0.5,0.25,0.5,0.5,0.5" style="fill:rgb(0,0,255);font-family:AdvOTf9433e2d;font-size:8.47px;stroke:none;">2005.02.009</text>
   <text y="544.371" x="51.019,55.694,59.394,63.492,66.219,69.92,72.109,75.81,78.52040000000001,80.443,89.91,92.637,96.871,100.966,105.2,109.434,112.1444,114.062,120.142,123.842,126.421,128.707,132.408,136.642,138.78,142.481,146.716,148.645,152.879,157.113,160.814,162.932,165.218,167.505,171.096,173.382,175.669,179.903,183.455,186.1654,188.161,190.888,195.122,199.216,202.917,205.203,207.38,210.641,214.341,218.575,222.121,224.407,228.642,231.902,235.444,237.7309,239.696,243.397,245.683,249.918,251.772,259.706,263.407,267.533,273.613,277.313,279.495,282.755,286.456" svgx:width="0.55,0.44,0.5,0.32,0.44,0.27,0.44,0.32,0.55,0.88,0.32,0.5,0.5,0.5,0.5,0.32,0.55,0.72,0.44,0.32,0.27,0.44,0.5,0.27,0.44,0.5,0.55,0.5,0.5,0.44,0.27,0.27,0.27,0.44,0.27,0.27,0.5,0.44,0.32,0.55,0.32,0.5,0.5,0.44,0.27,0.27,0.38,0.44,0.5,0.44,0.27,0.5,0.38,0.44,0.27,0.55,0.44,0.27,0.5,0.55,0.94,0.44,0.5,0.72,0.44,0.27,0.38,0.44,0.32" style="fill:rgb(0,0,0);font-family:AdvOTf9433e2d;font-size:8.47px;stroke:none;">Schreier M(2014) Varianten qualitativer Inhaltsanalyse: ein Wegweiser</text>
   <text y="554.349" x="68.027,70.313,76.8349,79.592,85.672,87.959,91.554,95.788,98.075,101.646,105.88,108.1669,110.943,115.177,118.767,121.4774,124.266,129.906,133.606,137.84,140.423,142.71,145.413,150.005,152.291,155.992,160.226,164.348,168.049,170.335,172.513,176.213,180.336,182.45350000000002,185.268,189.943,194.056,196.782,201.017,207.53889999999998,210.27,216.35,220.475,224.175,226.4619,229.262,233.937,238.05,241.75,244.037,247.631,249.9179,252.733,256.967,261.201,263.487,267.721" svgx:width="0.27,0.77,0.55,0.72,0.27,0.44,0.5,0.27,0.44,0.5,0.27,0.55,0.5,0.44,0.32,0.55,0.67,0.44,0.5,0.32,0.27,0.32,0.55,0.27,0.44,0.5,0.5,0.44,0.27,0.27,0.44,0.5,0.25,0.55,0.55,0.5,0.32,0.5,0.77,0.55,0.72,0.5,0.44,0.27,0.55,0.55,0.5,0.44,0.27,0.44,0.27,0.55,0.5,0.5,0.27,0.5,0.5" style="fill:rgb(0,0,0);font-family:AdvOTf9433e2d;font-size:8.47px;stroke:none;">im Dickicht der Begrifﬂichkeiten. Forum Qual Sozial 15:27</text>
   <text y="66.168" x="306.137,310.811,314.512,318.746,322.98,327.214,331.448,335.149,337.875,340.1619,344.575,352.069,354.1865,358.521,366.015,368.302,370.588,372.874,376.575,379.2854,383.749,389.829,391.9465,396.279,400.953,404.654,408.888,415.408,417.695,421.93,426.326,431.44,433.5575,437.947,444.028,447.728,450.015,454.249,456.975,459.262,462.962,467.197,471.623,477.703,479.8205,484.152,490.233,494.467,498.701,500.987,504.688,506.9749,511.365,517.4634,521.853,524.58,528.814,533.048,537.282,541.516" svgx:width="0.55,0.44,0.5,0.5,0.5,0.5,0.44,0.32,0.27,0.55,0.88,0.25,0.55,0.88,0.27,0.27,0.27,0.44,0.32,0.55,0.72,0.25,0.55,0.55,0.44,0.5,0.77,0.27,0.5,0.55,0.6,0.25,0.55,0.72,0.44,0.27,0.5,0.32,0.27,0.44,0.5,0.55,0.72,0.25,0.55,0.72,0.5,0.5,0.27,0.44,0.27,0.55,0.72,0.55,0.32,0.5,0.5,0.5,0.5,0.32" style="fill:rgb(0,0,0);font-family:AdvOTf9433e2d;font-size:8.47px;stroke:none;">Schönhart M, Mitter H, Schmid E, Heinrich G, Gobiet A (2014)</text>
   <text y="76.146" x="323.144,325.871,330.105,332.391,336.092,340.326,343.053,346.753,349.04,352.74,356.975,361.582,365.283,369.517,373.217,375.504,379.738,382.998,385.285,388.5036,393.103,397.337,400.0474,404.611,408.312,410.598,412.885,419.405,423.106,425.392,429.1188,433.695,437.395,441.629,445.33,449.564,453.798,457.5248,462.041,464.327,470.848,475.082,478.783,482.483,484.77,487.98859999999996,492.598,496.299,500.533,504.76800000000003,509.323,513.024,517.258,520.958,525.193,527.479,531.18,533.466,535.752,539.987" svgx:width="0.32,0.5,0.27,0.44,0.5,0.32,0.44,0.27,0.44,0.5,0.55,0.44,0.5,0.44,0.27,0.5,0.38,0.27,0.38,0.55,0.5,0.32,0.55,0.44,0.27,0.27,0.77,0.44,0.27,0.44,0.55,0.44,0.5,0.44,0.5,0.5,0.44,0.55,0.27,0.77,0.5,0.44,0.44,0.27,0.38,0.55,0.44,0.5,0.5,0.55,0.44,0.5,0.44,0.5,0.27,0.44,0.27,0.27,0.5,0.5" style="fill:rgb(0,0,0);font-family:AdvOTf9433e2d;font-size:8.47px;stroke:none;">Integrated analysis of climate change impacts and adaptation</text>
   <text y="86.067" x="323.144,329.665,333.365,337.066,340.326,344.56,347.287,350.988,354.2066,357.103,359.39,363.625,366.457,372.537,376.771,380.032,382.318,385.045,387.331,391.032,395.267,398.149,401.849,406.083,408.81,411.096,414.797,419.031,421.318,423.604,427.838,430.565,434.265,436.3825,439.251,445.331,449.031,451.7414,454.614,457.83259999999996,460.68,466.76,470.994,473.721,476.008,479.7348,482.564,487.678,491.379,495.613,499.848,502.69,506.924,511.158,513.445,517.679,521.913,526.161,530.356,534.59,538.824" svgx:width="0.77,0.44,0.44,0.38,0.5,0.32,0.44,0.38,0.55,0.27,0.5,0.55,0.72,0.5,0.38,0.27,0.32,0.27,0.44,0.5,0.55,0.44,0.5,0.32,0.27,0.44,0.5,0.27,0.27,0.5,0.32,0.44,0.25,0.55,0.72,0.44,0.32,0.55,0.38,0.55,0.72,0.5,0.32,0.27,0.44,0.55,0.6,0.44,0.5,0.5,0.55,0.5,0.5,0.27,0.5,0.5,0.5,0.5,0.5,0.5,0.5" style="fill:rgb(0,0,0);font-family:AdvOTf9433e2d;font-size:8.47px;stroke:none;">measures in Austrian agriculture. Ger J Agric Econ 63:156–176</text>
   <text y="96.045" x="306.136,310.81,317.331,319.617,321.9039,324.845,330.484,332.6015,335.503,341.142,345.377,348.103,350.39,354.624,358.85900000000004,361.808,364.535,366.65250000000003,369.575,375.655,377.942,381.642,383.929,388.164,391.118,396.758,400.018,405.133,407.2505,410.168,418.102,421.803,426.037,430.271,433.972,436.2589,439.194,442.4126,445.373,448.1,452.334,456.568,460.802,465.036,467.7464,470.658,476.738,480.973,483.925,487.625,491.859,495.56,497.846,502.08,508.601,512.836,515.729,519.963,522.6734,525.651,529.351,533.585,537.286,541.52" svgx:width="0.55,0.77,0.27,0.27,0.55,0.67,0.25,0.55,0.67,0.5,0.32,0.27,0.5,0.5,0.55,0.32,0.25,0.55,0.72,0.27,0.44,0.27,0.5,0.55,0.67,0.38,0.6,0.25,0.55,0.94,0.44,0.5,0.5,0.44,0.27,0.55,0.38,0.55,0.32,0.5,0.5,0.5,0.5,0.32,0.55,0.72,0.5,0.55,0.44,0.5,0.44,0.27,0.5,0.77,0.5,0.55,0.5,0.32,0.55,0.44,0.5,0.44,0.5,0.32" style="fill:rgb(0,0,0);font-family:AdvOTf9433e2d;font-size:8.47px;stroke:none;">Smit B, Burton I, Klein RJT, Wandel J (2000) An anatomy of adap-</text>
   <text y="106.023" x="323.143,325.43,329.13,331.417,333.703,337.937,342.172,350.186,352.472,356.707,364.756,368.457,370.743,373.029,379.55,383.25,385.537,389.2638,397.241,400.941,405.175,408.876,413.11,417.344,421.0708,429.102,432.803,437.037,441.272,449.285,453.52,457.22,459.947,462.233,465.934,470.168,472.454,474.741,477.027,479.314,483.548,485.6655,493.732,499.372,501.659,503.945,510.4669,518.507,524.147,528.381,532.081,536.316,540.55" svgx:width="0.27,0.44,0.27,0.27,0.5,0.5,0.55,0.27,0.5,0.55,0.44,0.27,0.27,0.77,0.44,0.27,0.44,0.55,0.44,0.5,0.44,0.5,0.5,0.44,0.55,0.44,0.5,0.5,0.55,0.5,0.44,0.32,0.27,0.44,0.5,0.27,0.27,0.27,0.27,0.5,0.25,0.55,0.67,0.27,0.27,0.77,0.55,0.67,0.5,0.44,0.5,0.5,0.44" style="fill:rgb(0,0,0);font-family:AdvOTf9433e2d;font-size:8.47px;stroke:none;">tation to climate change and variability. Clim Change</text>
   <text y="115.945" x="323.143,327.377,331.611,333.898,338.132,342.366,346.614,350.866,355.1,359.334,363.568" svgx:width="0.5,0.5,0.27,0.5,0.5,0.5,0.5,0.5,0.5,0.5,0.25" style="fill:rgb(0,0,0);font-family:AdvOTf9433e2d;font-size:8.47px;stroke:none;">45:223–251.</text>
   <text y="115.945" x="368.497,372.731,375.018,377.304,381.538,384.799,387.085,389.371,391.658,395.892,400.126,402.412,404.529,408.763,411.49,415.724,418.011,422.245,426.479,428.596,432.83,437.064,441.298,445.532,447.819,453.899,456.185,460.419,464.654,468.888,473.122,477.356,481.59,485.824,490.058,494.292,498.526,502.76,506.995" svgx:width="0.5,0.27,0.27,0.5,0.38,0.27,0.27,0.27,0.5,0.5,0.27,0.25,0.5,0.32,0.5,0.27,0.5,0.5,0.25,0.5,0.5,0.5,0.5,0.27,0.72,0.27,0.5,0.5,0.5,0.5,0.5,0.5,0.5,0.5,0.5,0.5,0.5,0.5,0.5" style="fill:rgb(0,0,255);font-family:AdvOTf9433e2d;font-size:8.47px;stroke:none;">https://doi.org/10.1023/A:1005661622966</text>
   <text y="125.923" x="306.135,310.809,317.33,319.616,321.9029,326.261,331.901,334.0185,338.394,343.068,347.302,349.589,353.823,358.057,361.757,364.4674,368.894,376.389,384.3508,388.68,391.407,395.641,399.875,404.109,408.343,411.0534,415.44,421.52,425.754,429.455,433.689,435.975,439.676,441.962,444.249,448.483,452.718,457.166,461.4,465.634,467.921,470.207,474.441,478.675,481.8936,486.306,488.592,492.827,497.191,500.891,505.126,507.852,510.139,513.839,518.073,520.36,522.646,526.88,529.607,533.3338,537.726,540.013" svgx:width="0.55,0.77,0.27,0.27,0.55,0.67,0.25,0.55,0.55,0.5,0.27,0.5,0.5,0.44,0.32,0.55,0.88,0.94,0.55,0.32,0.5,0.5,0.5,0.5,0.32,0.55,0.72,0.5,0.44,0.5,0.27,0.44,0.27,0.27,0.5,0.5,0.55,0.5,0.5,0.27,0.27,0.5,0.5,0.38,0.55,0.27,0.5,0.55,0.44,0.5,0.32,0.27,0.44,0.5,0.27,0.27,0.5,0.32,0.44,0.55,0.27,0.5" style="fill:rgb(0,0,0);font-family:AdvOTf9433e2d;font-size:8.47px;stroke:none;">Smit B, Skinner MW (2002) Adaptation options in agriculture to</text>
   <text y="135.901" x="323.142,326.843,329.129,331.416,337.936,341.637,343.923,347.6498,350.185,353.885,358.119,361.82,366.054,370.288,373.989,376.2759,378.758,382.4848,384.994,387.28,391.515,395.749,399.983,402.269,406.503,410.737,414.971,417.0885,419.576,427.071,429.357,431.644,433.93,438.165,440.666,446.747,450.981,454.681,458.915,461.2019,463.741,468.415,470.701,473.428,477.129,479.415,483.116,487.35,489.636,493.337,496.55559999999997,499.117,505.197,507.484,511.718,515.953,518.506,524.146,528.38,532.081,536.315,540.549" svgx:width="0.44,0.27,0.27,0.77,0.44,0.27,0.44,0.55,0.44,0.5,0.44,0.5,0.5,0.44,0.27,0.55,0.44,0.55,0.27,0.5,0.5,0.5,0.27,0.5,0.5,0.5,0.25,0.55,0.88,0.27,0.27,0.27,0.5,0.55,0.72,0.5,0.44,0.5,0.27,0.55,0.55,0.27,0.32,0.44,0.27,0.44,0.5,0.27,0.44,0.38,0.55,0.72,0.27,0.5,0.5,0.55,0.67,0.5,0.44,0.5,0.5,0.44" style="fill:rgb(0,0,0);font-family:AdvOTf9433e2d;font-size:8.47px;stroke:none;">climate change: a typology. Mitig Adapt Strategies Glob Change</text>
   <text y="145.879" x="323.142,327.377,329.663,333.897,338.166,342.361,346.595,350.829,355.063" svgx:width="0.5,0.27,0.5,0.5,0.5,0.5,0.5,0.5,0.25" style="fill:rgb(0,0,0);font-family:AdvOTf9433e2d;font-size:8.47px;stroke:none;">7:85–114.</text>
   <text y="145.879" x="359.993,364.227,366.513,368.8,373.034,376.294,378.58,380.867,383.153,387.387,391.621,393.908,396.025,400.259,402.986,407.332,409.618,413.852,418.086,420.203,424.437,428.671,432.905,437.14,439.426,445.506,447.793,452.027,456.261,460.495,464.729,468.963,473.197,477.431,481.665,485.899,490.134,494.368,498.602" svgx:width="0.5,0.27,0.27,0.5,0.38,0.27,0.27,0.27,0.5,0.5,0.27,0.25,0.5,0.32,0.5,0.27,0.5,0.5,0.25,0.5,0.5,0.5,0.5,0.27,0.72,0.27,0.5,0.5,0.5,0.5,0.5,0.5,0.5,0.5,0.5,0.5,0.5,0.5,0.5" style="fill:rgb(0,0,255);font-family:AdvOTf9433e2d;font-size:8.47px;stroke:none;">https://doi.org/10.1023/A:1015862228270</text>
   <text y="155.8" x="306.135,310.809,315.043,317.77,320.057,323.757,327.991,332.226,335.615,343.11,349.19,351.3075,354.664,360.745,363.031,369.111,372.8378,376.264,379.525,381.6425,384.995,391.075,394.776,397.502,401.203,403.489,407.724,411.13,415.7885,419.181,421.908,426.142,430.376,434.61,438.844,441.5544,444.92,450.035,454.269,457.97,461.67,463.9569,467.37,471.604,475.305,478.032,481.732,485.433,489.667,491.953,494.24,498.474,502.708,505.9266,509.38,513.614,516.3244000000001,519.698,523.399,525.686,527.972,534.492,538.193,540.48" svgx:width="0.55,0.5,0.32,0.27,0.44,0.5,0.5,0.55,0.88,0.72,0.25,0.55,0.72,0.27,0.72,0.44,0.55,0.38,0.25,0.55,0.72,0.44,0.32,0.44,0.27,0.5,0.55,0.55,0.55,0.32,0.5,0.5,0.5,0.5,0.32,0.55,0.6,0.5,0.44,0.44,0.27,0.55,0.5,0.44,0.32,0.44,0.44,0.5,0.27,0.27,0.5,0.5,0.38,0.55,0.5,0.32,0.55,0.44,0.27,0.27,0.77,0.44,0.27,0.44" style="fill:rgb(0,0,0);font-family:AdvOTf9433e2d;font-size:8.47px;stroke:none;">Soriano MA, Diwa J, Herath S (2017) Local perceptions of climate</text>
   <text y="165.778" x="323.142,326.843,331.077,334.778,339.012,343.246,346.9728,353.02,356.721,360.955,365.19,371.218,374.919,379.153,382.853,387.087,389.374,393.074,395.361,397.647,401.881,406.116,412.207,416.441,420.141,423.842,428.076,431.2946,437.378,439.665,443.90000000000003,449.964,452.25,456.484,460.2108,466.235,468.961,471.688,475.922,480.156,483.857,488.09200000000004,494.184,499.824,502.11,505.811,509.5378,515.557,520.672,524.372,527.099,529.826,533.526,537.227,540.927" svgx:width="0.44,0.5,0.44,0.5,0.5,0.44,0.55,0.44,0.5,0.5,0.55,0.44,0.5,0.44,0.5,0.27,0.44,0.27,0.27,0.5,0.5,0.55,0.5,0.44,0.44,0.5,0.38,0.55,0.27,0.5,0.55,0.27,0.5,0.44,0.55,0.32,0.32,0.5,0.5,0.44,0.5,0.55,0.67,0.27,0.44,0.44,0.55,0.6,0.44,0.32,0.32,0.44,0.44,0.44,0.38" style="fill:rgb(0,0,0);font-family:AdvOTf9433e2d;font-size:8.47px;stroke:none;">change and adaptation needs in the Ifugao Rice Terraces</text>
   <text y="175.756" x="323.142,325.869,331.949,336.183,338.91,341.197,345.431,349.131,351.858,356.093,359.653,364.327,368.562,370.848,373.134,375.421,379.655,383.889,386.175,390.41,394.11,397.37,400.097,402.2145,405.801,409.01959999999997,412.605,420.099,422.3859,425.928,430.602,434.303,436.5899,440.158,444.392,448.626,450.912,455.146,459.38,463.614,467.823,472.074,476.309,480.543,484.777,489.011" svgx:width="0.32,0.72,0.5,0.32,0.27,0.5,0.44,0.32,0.5,0.55,0.55,0.5,0.27,0.27,0.27,0.5,0.5,0.27,0.5,0.44,0.38,0.32,0.25,0.55,0.38,0.55,0.88,0.27,0.55,0.55,0.44,0.27,0.55,0.5,0.5,0.27,0.5,0.5,0.5,0.5,0.5,0.5,0.5,0.5,0.5,0.25" style="fill:rgb(0,0,0);font-family:AdvOTf9433e2d;font-size:8.47px;stroke:none;">(Northern Philippines). J Mt Sci 14:1455–1472.</text>
   <text y="175.756" x="494.638,498.872,501.158,503.445,507.679,510.939,513.226,515.512,517.798,522.033,526.267,528.553,530.67,534.904,537.631,541.977" svgx:width="0.5,0.27,0.27,0.5,0.38,0.27,0.27,0.27,0.5,0.5,0.27,0.25,0.5,0.32,0.5,0.27" style="fill:rgb(0,0,255);font-family:AdvOTf9433e2d;font-size:8.47px;stroke:none;">https://doi.org/</text>
   <text y="185.726" x="323.15,327.384,331.618,333.735,337.969,342.203,346.437,350.671,352.958,356.218,360.452,364.686,368.92,373.154,377.388,380.115,384.349,388.583,392.817,395.544,399.778,404.012,408.246,412.48,415.207" svgx:width="0.5,0.5,0.25,0.5,0.5,0.5,0.5,0.27,0.38,0.5,0.5,0.5,0.5,0.5,0.32,0.5,0.5,0.5,0.32,0.5,0.5,0.5,0.5,0.32,0.5" style="fill:rgb(0,0,255);font-family:AdvOTf9433e2d;font-size:8.47px;stroke:none;">10.1007/s11629-016-4250-6</text>
   <text y="195.647" x="306.142,310.816,315.051,318.751,322.985,326.686,330.4128,332.561,338.641,340.7585,342.992,347.667,351.901,356.135,358.862,361.148,363.434,367.668,371.903,375.62980000000005,377.801,385.736,387.8535,390.047,394.722,397.008,401.242,405.476,409.177,413.411,417.646,419.868,425.9664,428.145,430.872,435.106,439.34,443.574,447.808,450.5184,452.693,457.808,462.042,465.7688,467.944,472.178,475.438,479.672,483.373,487.607,491.841,494.127,498.361,502.596,504.882,508.583,512.283,514.5699,516.813,521.047,523.333,526.594,528.88,532.581,536.815,540.515" svgx:width="0.55,0.5,0.44,0.5,0.44,0.44,0.55,0.72,0.25,0.55,0.55,0.5,0.5,0.32,0.27,0.27,0.5,0.5,0.44,0.55,0.94,0.25,0.55,0.55,0.27,0.5,0.5,0.44,0.5,0.5,0.55,0.72,0.55,0.32,0.5,0.5,0.5,0.5,0.32,0.55,0.6,0.5,0.44,0.55,0.5,0.38,0.5,0.44,0.5,0.5,0.27,0.5,0.5,0.27,0.44,0.44,0.27,0.55,0.5,0.27,0.38,0.27,0.44,0.5,0.44,0.44" style="fill:rgb(0,0,0);font-family:AdvOTf9433e2d;font-size:8.47px;stroke:none;">Spence A, Poortinga W, Pidgeon N (2012) The psychological distance</text>
   <text y="205.625" x="323.15,327.384,330.0944,334.998,338.699,340.985,343.272,349.792,353.493,355.779,359.5058,364.365,368.066,372.3,376.0,380.234,384.469,388.169,390.2865,395.206,400.846,403.132,406.393,410.628,415.502,421.582,425.816,429.517,431.8039,436.705,440.94,445.174,447.46,451.694,455.928,460.176,464.371,468.605,472.839,477.073" svgx:width="0.5,0.32,0.55,0.44,0.27,0.27,0.77,0.44,0.27,0.44,0.55,0.44,0.5,0.44,0.5,0.5,0.44,0.25,0.55,0.67,0.27,0.38,0.5,0.55,0.72,0.5,0.44,0.27,0.55,0.5,0.5,0.27,0.5,0.5,0.5,0.5,0.5,0.5,0.5,0.25" style="fill:rgb(0,0,0);font-family:AdvOTf9433e2d;font-size:8.47px;stroke:none;">of climate change. Risk Anal 32:957–972.</text>
   <text y="205.625" x="484.1,488.334,490.621,492.907,497.141,500.402,502.688,504.974,507.261,511.495,515.729,518.015,520.133,524.367,527.093,531.327,533.614,537.848,542.082" svgx:width="0.5,0.27,0.27,0.5,0.38,0.27,0.27,0.27,0.5,0.5,0.27,0.25,0.5,0.32,0.5,0.27,0.5,0.5,0.25" style="fill:rgb(0,0,255);font-family:AdvOTf9433e2d;font-size:8.47px;stroke:none;">https://doi.org/10.</text>
   <text y="215.604" x="323.15,327.384,331.618,335.852,340.086,342.372,344.659,346.776,351.01,355.244,359.478,363.712,366.439,370.673,374.907,379.141,383.375,385.492,389.726,393.961,398.195,402.429,404.546,408.78,413.014,417.248,421.482,425.716,427.833" svgx:width="0.5,0.5,0.5,0.5,0.27,0.27,0.25,0.5,0.5,0.5,0.5,0.32,0.5,0.5,0.5,0.5,0.25,0.5,0.5,0.5,0.5,0.25,0.5,0.5,0.5,0.5,0.5,0.25,0.5" style="fill:rgb(0,0,255);font-family:AdvOTf9433e2d;font-size:8.47px;stroke:none;">1111/j.1539-6924.2011.01695.x</text>
   <text y="225.582" x="306.142,310.816,313.103,316.803,319.53,323.765,326.665,331.339,337.0139,339.874,342.601,346.835,351.069,355.303,359.537,362.24739999999997,365.159,371.239,374.94,381.0384,383.868,387.569,391.803,396.037,398.323,401.05,405.284,409.518,416.039,419.739,423.973,426.26,429.96,432.2469,435.175,437.462,441.696,445.396,449.63,452.357,454.644,458.344,461.604,463.8909,466.81,469.096,473.33,479.41,483.111,485.838,490.07300000000004,493.002,496.72880000000004,499.578,503.279,507.513,511.747,515.448,518.174,521.875,526.109,528.3959,531.27,533.556,537.79,541.491" svgx:width="0.55,0.27,0.44,0.32,0.5,0.55,0.55,0.67,0.55,0.32,0.5,0.5,0.5,0.5,0.32,0.55,0.72,0.44,0.72,0.55,0.44,0.5,0.5,0.27,0.32,0.5,0.5,0.77,0.44,0.5,0.27,0.44,0.27,0.55,0.27,0.5,0.44,0.5,0.32,0.27,0.44,0.38,0.27,0.55,0.27,0.5,0.72,0.44,0.32,0.5,0.55,0.44,0.55,0.44,0.5,0.5,0.44,0.32,0.44,0.5,0.27,0.55,0.27,0.5,0.44,0.32" style="fill:rgb(0,0,0);font-family:AdvOTf9433e2d;font-size:8.47px;stroke:none;">Stern PC (2000) New environmental theories: toward a coherent the-</text>
   <text y="235.503" x="323.15,327.384,330.11,334.345,340.781,345.015,347.7254,354.218,357.918,362.152,366.386,368.673,371.4,375.634,379.868,386.388,390.089,394.323,396.609,400.31,402.596,404.883,409.118,415.673,418.933,421.22,425.454,429.688,432.0,436.649,440.349,444.05,448.284,450.5709,457.058,461.292,464.993,469.227,472.927,477.161,479.448,483.682,486.409,488.5265,494.985,498.2036,504.736,509.411,513.645,517.3718,523.786,526.512,529.773,533.033,537.267,540.968" svgx:width="0.5,0.32,0.5,0.55,0.5,0.32,0.55,0.44,0.5,0.5,0.27,0.32,0.5,0.5,0.77,0.44,0.5,0.27,0.44,0.27,0.27,0.5,0.55,0.38,0.27,0.5,0.5,0.27,0.55,0.44,0.44,0.5,0.27,0.55,0.5,0.44,0.5,0.44,0.5,0.27,0.5,0.32,0.25,0.55,0.38,0.55,0.55,0.5,0.44,0.55,0.32,0.38,0.38,0.5,0.44,0.38" style="fill:rgb(0,0,0);font-family:AdvOTf9433e2d;font-size:8.47px;stroke:none;">ory of environmentally signiﬁcant behavior. J Soc Issues</text>
   <text y="245.481" x="323.15,327.384,331.618,333.904,338.138,342.372,346.62,350.872,355.106,359.34,363.574" svgx:width="0.5,0.5,0.27,0.5,0.5,0.5,0.5,0.5,0.5,0.5,0.25" style="fill:rgb(0,0,0);font-family:AdvOTf9433e2d;font-size:8.47px;stroke:none;">56:407–424.</text>
   <text y="245.481" x="368.504,372.738,375.024,377.31,381.545,384.805,387.091,389.378,391.664,395.898,400.132,402.419,404.536,408.77,411.497,415.731,418.017,422.251,426.485,428.602,432.836,437.07,441.305,445.539,447.825,452.059,456.293,460.527,464.761,467.488,471.722,475.956,480.191,484.425,486.542,490.776,495.01,499.244,503.478" svgx:width="0.5,0.27,0.27,0.5,0.38,0.27,0.27,0.27,0.5,0.5,0.27,0.25,0.5,0.32,0.5,0.27,0.5,0.5,0.25,0.5,0.5,0.5,0.5,0.27,0.5,0.5,0.5,0.5,0.32,0.5,0.5,0.5,0.5,0.25,0.5,0.5,0.5,0.5,0.5" style="fill:rgb(0,0,255);font-family:AdvOTf9433e2d;font-size:8.47px;stroke:none;">https://doi.org/10.1111/0022-4537.00175</text>
   <text y="255.459" x="306.141,311.256,313.983,318.217,321.917,324.204,328.438,332.672,336.39880000000005,339.476,345.556,351.196,353.31350000000003,356.371,362.011,365.712,368.438,371.165,373.451,377.152,381.387,384.491,390.571,396.211,398.3285,401.442,406.557,410.791,414.492,418.726,421.453,425.153,431.25140000000005,434.324,439.406,442.488,445.214,449.448,453.682,457.917,462.151,464.8614,467.943,474.0414,477.128,480.388,484.622,488.322,490.609,494.843,497.57,501.804,505.064,509.298,512.999,517.233,521.467,523.753,527.987,532.221,534.508,538.209,541.909" svgx:width="0.6,0.32,0.5,0.44,0.27,0.5,0.5,0.44,0.55,0.72,0.67,0.25,0.55,0.67,0.44,0.32,0.32,0.27,0.44,0.5,0.55,0.72,0.67,0.25,0.55,0.6,0.5,0.44,0.5,0.32,0.44,0.72,0.55,0.6,0.55,0.32,0.5,0.5,0.5,0.5,0.32,0.55,0.72,0.55,0.38,0.5,0.44,0.27,0.5,0.32,0.5,0.38,0.5,0.44,0.5,0.5,0.27,0.5,0.5,0.27,0.44,0.44,0.27" style="fill:rgb(0,0,0);font-family:AdvOTf9433e2d;font-size:8.47px;stroke:none;">Truelove HB, Carrico AR, Thabrew L (2015) A socio-psychological</text>
   <text y="265.38" x="323.149,329.669,333.903,338.137,341.838,344.1249,347.357,350.083,354.318,357.0284,360.283,363.983,368.217,371.918,374.204,378.438,382.139,384.425,388.659,392.894,396.112,399.813,402.099,404.386,410.906,414.607,416.893,420.6198,423.835,427.536,431.77,435.471,439.705,443.939,447.66580000000005,450.878,454.578,458.812,462.513,466.747,469.034,472.734,475.021,477.307,481.541,485.775,488.0619,491.3,495.02680000000004,498.217,501.917,505.618,508.878,512.6048,515.792,519.052,521.338,525.572,529.806,534.041,537.278,541.512" svgx:width="0.77,0.5,0.5,0.44,0.27,0.55,0.32,0.5,0.32,0.55,0.44,0.5,0.44,0.27,0.5,0.44,0.27,0.5,0.5,0.55,0.44,0.27,0.27,0.77,0.44,0.27,0.44,0.55,0.44,0.5,0.44,0.5,0.5,0.44,0.55,0.44,0.5,0.44,0.5,0.27,0.44,0.27,0.27,0.5,0.5,0.27,0.55,0.44,0.55,0.44,0.44,0.38,0.44,0.55,0.38,0.27,0.5,0.5,0.5,0.55,0.5,0.32" style="fill:rgb(0,0,0);font-family:AdvOTf9433e2d;font-size:8.47px;stroke:none;">model for analyzing climate change adaptation: a case study of</text>
   <text y="275.359" x="323.149,327.823,330.55,332.8369,337.719,342.834,346.534,350.769,355.003,358.703,362.938,367.879,372.113,375.814,380.048,384.282,388.517,393.392,396.118,399.819,402.546,409.066,412.767,415.493,418.754,420.8715,425.82,431.9,434.186,438.42,442.65500000000003,447.59,452.704,456.939,461.173,463.459,466.186,470.42,474.65500000000003,479.565,485.205,489.439,493.139,497.373,501.607,505.33380000000005,510.179,514.413,518.647,520.934,525.168,529.454,533.649,537.883,542.117" svgx:width="0.55,0.32,0.27,0.55,0.6,0.44,0.5,0.5,0.44,0.5,0.55,0.5,0.44,0.5,0.5,0.5,0.55,0.32,0.44,0.32,0.77,0.44,0.32,0.38,0.25,0.55,0.72,0.27,0.5,0.5,0.55,0.6,0.5,0.5,0.27,0.32,0.5,0.5,0.55,0.67,0.5,0.44,0.5,0.5,0.44,0.55,0.5,0.5,0.27,0.5,0.5,0.5,0.5,0.5,0.25" style="fill:rgb(0,0,0);font-family:AdvOTf9433e2d;font-size:8.47px;stroke:none;">Sri Lankan paddy farmers. Glob Environ Change 31:85–97.</text>
   <text y="285.337" x="323.149,327.383,329.669,331.956,336.19,339.45,341.736,344.023,346.309,350.543,354.777,357.064,359.181,363.415,366.142,370.376,372.662,376.896,381.13,383.247,387.482,391.716,395.95,400.184,402.47,404.757,406.874,411.108,413.394,417.628,421.329,425.563,429.797,433.498,437.732,441.432,443.549,447.784,452.018,456.252,460.486,462.603,466.837,471.071,473.188,477.422,481.656" svgx:width="0.5,0.27,0.27,0.5,0.38,0.27,0.27,0.27,0.5,0.5,0.27,0.25,0.5,0.32,0.5,0.27,0.5,0.5,0.25,0.5,0.5,0.5,0.5,0.27,0.27,0.25,0.5,0.27,0.5,0.44,0.5,0.5,0.44,0.5,0.44,0.25,0.5,0.5,0.5,0.5,0.25,0.5,0.5,0.25,0.5,0.5,0.5" style="fill:rgb(0,0,255);font-family:AdvOTf9433e2d;font-size:8.47px;stroke:none;">https://doi.org/10.1016/j.gloenvcha.2014.12.010</text>
   <text y="295.315" x="306.141,314.076,317.776,322.011,325.711,328.4214,330.576,335.691,341.7894,343.899,346.626,350.86,355.094,359.328,363.562,366.2724,368.448,373.562,377.796,382.031,385.731,388.458,390.744,394.445,398.679,402.38,406.08,408.807,413.041,416.742,420.002,423.702,427.937,430.073,433.774,438.008,442.243,444.36,448.594,452.294,455.555,459.255,461.982,464.268,468.503,470.789,473.075,477.31,481.544,484.27,488.504,492.205,495.465,499.166,503.401,505.588,509.822,513.523,516.25,519.95,523.651,527.885,530.171,532.458,536.692,540.926" svgx:width="0.94,0.44,0.5,0.44,0.32,0.55,0.6,0.72,0.55,0.32,0.5,0.5,0.5,0.5,0.32,0.55,0.6,0.5,0.5,0.44,0.32,0.27,0.44,0.5,0.44,0.44,0.32,0.5,0.44,0.38,0.44,0.5,0.55,0.44,0.5,0.5,0.55,0.5,0.44,0.38,0.44,0.32,0.27,0.5,0.27,0.27,0.5,0.5,0.32,0.5,0.44,0.38,0.44,0.5,0.55,0.5,0.44,0.32,0.44,0.44,0.5,0.27,0.27,0.5,0.5,0.38" style="fill:rgb(0,0,0);font-family:AdvOTf9433e2d;font-size:8.47px;stroke:none;">Weber EU (2006) Experience-based and description-based perceptions</text>
   <text y="305.236" x="323.149,327.383,330.0934,333.354,335.64,339.874,344.108,348.342,351.069,353.356,357.056,359.783,366.30490000000003,369.581,372.307,374.594,377.854,382.088,384.3749,387.609,393.69,397.924,402.159,405.411,409.645,411.932,416.166,420.4,424.101,426.3879,429.619,435.699,439.4,442.127,448.647,450.934,455.168,459.403,462.671,466.906,471.14,474.84,478.05859999999996,481.38,485.614,489.848,492.1349,495.326,498.587,502.287,505.988,508.715,512.4418,515.679,519.913,523.1316,526.451,529.177,533.411,537.112,539.398,542.125" svgx:width="0.5,0.32,0.55,0.27,0.5,0.5,0.5,0.32,0.27,0.44,0.32,0.77,0.55,0.32,0.27,0.38,0.5,0.27,0.55,0.72,0.5,0.5,0.55,0.5,0.27,0.5,0.5,0.44,0.27,0.55,0.72,0.44,0.32,0.77,0.27,0.5,0.5,0.55,0.5,0.5,0.44,0.38,0.55,0.5,0.5,0.27,0.55,0.38,0.44,0.44,0.32,0.44,0.55,0.5,0.38,0.55,0.32,0.5,0.44,0.27,0.32,0.25" style="fill:rgb(0,0,0);font-family:AdvOTf9433e2d;font-size:8.47px;stroke:none;">of long-term risk: why global warming does not scare us (yet).</text>
   <text y="315.214" x="323.149,328.789,331.075,333.361,339.8829,344.578,350.218,354.452,358.153,362.387,366.621,370.3478,375.022,379.256,383.491,385.777,390.011,394.245,398.494,402.746,406.98,411.214,415.448" svgx:width="0.67,0.27,0.27,0.77,0.55,0.67,0.5,0.44,0.5,0.5,0.44,0.55,0.5,0.5,0.27,0.5,0.5,0.5,0.5,0.5,0.5,0.5,0.25" style="fill:rgb(0,0,0);font-family:AdvOTf9433e2d;font-size:8.47px;stroke:none;">Clim Change 77:103–120.</text>
   <text y="315.214" x="422.248,426.482,428.768,431.055,435.289,438.549,440.836,443.122,445.408,449.642,453.877,456.163,458.28,462.514,465.241,469.475,471.761,475.995,480.23,482.347,486.581,490.815,495.049,499.283,501.569,504.83,509.064,513.298,517.532,521.766,526.0,528.727,532.961,537.195,541.429" svgx:width="0.5,0.27,0.27,0.5,0.38,0.27,0.27,0.27,0.5,0.5,0.27,0.25,0.5,0.32,0.5,0.27,0.5,0.5,0.25,0.5,0.5,0.5,0.5,0.27,0.38,0.5,0.5,0.5,0.5,0.5,0.32,0.5,0.5,0.5,0.32" style="fill:rgb(0,0,255);font-family:AdvOTf9433e2d;font-size:8.47px;stroke:none;">https://doi.org/10.1007/s10584-006-</text>
   <text y="325.192" x="323.149,327.383,331.617,335.851,340.085,342.812" svgx:width="0.5,0.5,0.5,0.5,0.32,0.5" style="fill:rgb(0,0,255);font-family:AdvOTf9433e2d;font-size:8.47px;stroke:none;">9060-3</text>
   <text y="335.17" x="306.141,314.076,317.776,322.011,325.711,328.4214,333.978,339.093,345.19140000000004,350.646,353.372,357.607,361.841,366.075,370.309,373.0194,378.539,386.474,390.708,394.409,396.6959,402.237,405.497,409.731,413.431,417.666,421.366,424.58459999999997,430.129,434.363,438.064,440.79,444.491,448.192,452.426,454.712,456.999,461.233,465.467,468.68559999999997,474.236,478.471,481.1814,486.709,490.41,492.696,494.983,501.503,505.204,507.49,511.21680000000003,516.7,520.401,524.635,528.335,532.57,536.804,540.504" svgx:width="0.94,0.44,0.5,0.44,0.32,0.55,0.6,0.72,0.55,0.32,0.5,0.5,0.5,0.5,0.32,0.55,0.94,0.5,0.44,0.27,0.55,0.38,0.5,0.44,0.5,0.44,0.38,0.55,0.5,0.44,0.32,0.44,0.44,0.5,0.27,0.27,0.5,0.5,0.38,0.55,0.5,0.32,0.55,0.44,0.27,0.27,0.77,0.44,0.27,0.44,0.55,0.44,0.5,0.44,0.5,0.5,0.44,0.44" style="fill:rgb(0,0,0);font-family:AdvOTf9433e2d;font-size:8.47px;stroke:none;">Weber EU (2010) What shapes perceptions of climate change?</text>
   <text y="345.092" x="323.149,331.083,333.81,339.45,344.565,347.825,349.9425,352.459,358.099,360.385,362.671,369.1929,371.734,377.374,381.608,385.309,389.543,393.777,397.5038,399.967,404.201,406.488,410.722,414.956,419.187,423.438,427.673,431.907,436.141" svgx:width="0.94,0.32,0.67,0.6,0.38,0.25,0.55,0.67,0.27,0.27,0.77,0.55,0.67,0.5,0.44,0.5,0.5,0.44,0.55,0.5,0.27,0.5,0.5,0.5,0.5,0.5,0.5,0.5,0.25" style="fill:rgb(0,0,0);font-family:AdvOTf9433e2d;font-size:8.47px;stroke:none;">WIREs. Clim Change 1:332–342.</text>
   <text y="345.092" x="440.786,445.021,447.307,449.593,453.827,457.088,459.374,461.66,463.947,468.181,472.415,474.702,476.819,481.053,483.779,488.013,490.3,494.534,498.768,500.885,505.119,509.353,513.587,517.821,520.108,526.188,529.889,533.589,535.706,539.94" svgx:width="0.5,0.27,0.27,0.5,0.38,0.27,0.27,0.27,0.5,0.5,0.27,0.25,0.5,0.32,0.5,0.27,0.5,0.5,0.25,0.5,0.5,0.5,0.5,0.27,0.72,0.44,0.44,0.25,0.5,0.5" style="fill:rgb(0,0,255);font-family:AdvOTf9433e2d;font-size:8.47px;stroke:none;">https://doi.org/10.1002/wcc.41</text>
   <text y="355.07" x="306.141,314.076,317.776,320.063,324.297,327.557,329.844,333.544,335.831,340.06600000000003,343.105,349.185,355.28340000000003,358.242,360.968,365.203,369.437,373.671,377.905,380.61539999999997,383.64,389.721,393.955,396.681,400.382,404.083,406.369,408.655,411.916,414.202,416.488,420.2148,423.269,427.503,431.737,434.024,436.31,442.83,445.117,448.377,454.8989,457.908,461.609,465.843,470.077,474.311,476.5979,479.621,482.348,486.582,488.869,493.103,495.829,499.55580000000003,502.525,504.812,507.098,509.825,513.5518,516.585,520.286,524.52,528.22,532.454,534.741,537.9596,540.963" svgx:width="0.94,0.44,0.27,0.5,0.38,0.27,0.44,0.27,0.5,0.55,0.72,0.72,0.55,0.32,0.5,0.5,0.5,0.5,0.32,0.55,0.72,0.5,0.32,0.44,0.44,0.27,0.27,0.38,0.27,0.27,0.44,0.55,0.5,0.5,0.27,0.27,0.77,0.27,0.38,0.77,0.55,0.44,0.5,0.5,0.5,0.27,0.55,0.32,0.5,0.27,0.5,0.32,0.44,0.55,0.27,0.27,0.32,0.44,0.55,0.44,0.5,0.44,0.5,0.27,0.38,0.55,0.38" style="fill:rgb(0,0,0);font-family:AdvOTf9433e2d;font-size:8.47px;stroke:none;">Weinstein ND (1980) Unrealistic optimism about future life events J</text>
   <text y="365.048" x="323.149,327.823,331.524,334.25,337.4686,340.326,345.001,349.235,352.96180000000004,355.804,360.478,363.738,367.973,371.673,375.907,380.141,382.4279,385.284,389.518,393.752,396.039,400.273,404.507,408.698,412.95,417.184,421.418" svgx:width="0.55,0.44,0.32,0.38,0.55,0.55,0.5,0.44,0.55,0.55,0.38,0.5,0.44,0.5,0.5,0.27,0.55,0.5,0.5,0.27,0.5,0.5,0.5,0.5,0.5,0.5,0.5" style="fill:rgb(0,0,0);font-family:AdvOTf9433e2d;font-size:8.47px;stroke:none;">Pers Soc Psychol 39:806–820</text>
   <text y="374.969" x="306.14,314.075,317.776,320.062,324.296,327.556,329.843,333.543,335.83,340.065,344.522,350.602,356.7004,361.076,363.803,368.037,372.271,376.505,380.739,383.44939999999997,387.891,393.531,397.232,401.466,405.7,409.401,411.687,415.921,420.156,424.571,428.805,433.04,435.766,439.467,443.168,445.454,447.74,451.001,453.287,455.573,459.2998,463.746,467.98,472.214,474.501,476.787,483.308,485.594,488.854,495.3759,499.803,503.503,507.737,511.972,516.206,518.4929,522.877,525.163,527.45,529.736,533.97,537.671,540.931" svgx:width="0.94,0.44,0.27,0.5,0.38,0.27,0.44,0.27,0.5,0.55,0.72,0.72,0.55,0.32,0.5,0.5,0.5,0.5,0.32,0.55,0.67,0.44,0.5,0.5,0.44,0.27,0.5,0.5,0.55,0.5,0.5,0.32,0.44,0.44,0.27,0.27,0.38,0.27,0.27,0.44,0.55,0.5,0.5,0.27,0.27,0.77,0.27,0.38,0.77,0.55,0.44,0.5,0.5,0.5,0.27,0.55,0.27,0.27,0.27,0.5,0.44,0.38,0.38" style="fill:rgb(0,0,0);font-family:AdvOTf9433e2d;font-size:8.47px;stroke:none;">Weinstein ND (1983) Reducing unrealistic optimism about illness</text>
   <text y="384.947" x="323.148,326.408,330.642,333.902,337.603,341.304,345.538,347.824,350.111,354.345,356.631,358.917,361.204,363.49,367.724,369.8415,372.754,378.835,382.535,386.236,388.522,390.809,395.04400000000004,397.869,402.544,405.804,410.038,413.739,417.973,422.207,424.4939,427.35,431.584,433.87,438.104,442.316,446.568,450.802" svgx:width="0.38,0.5,0.38,0.44,0.44,0.5,0.27,0.27,0.5,0.27,0.27,0.27,0.27,0.5,0.25,0.55,0.72,0.44,0.44,0.27,0.27,0.5,0.55,0.55,0.38,0.5,0.44,0.5,0.5,0.27,0.55,0.5,0.27,0.5,0.5,0.5,0.5,0.5" style="fill:rgb(0,0,0);font-family:AdvOTf9433e2d;font-size:8.47px;stroke:none;">susceptibility. Health Psychol 2:11–20</text>
   <text y="394.925" x="306.139,314.074,317.775,320.061,324.295,327.556,329.842,333.543,335.829,340.064,344.577,350.658,356.75640000000004,361.245,363.972,368.206,372.44,376.674,380.909,383.6194,388.174,394.254,398.488,401.215,404.916,408.616,410.903,413.189,416.449,418.736,421.022,424.7488,429.22,433.454,437.688,439.974,442.261,448.781,451.067,454.328,460.8499,465.39,469.09,473.324,477.559,481.793,484.0799,488.577,491.838,496.072,499.332,503.033,506.733,510.967,513.254,515.54,519.774,522.061,524.347,526.633,528.92,533.155,537.73,540.017" svgx:width="0.94,0.44,0.27,0.5,0.38,0.27,0.44,0.27,0.5,0.55,0.72,0.72,0.55,0.32,0.5,0.5,0.5,0.5,0.32,0.55,0.72,0.5,0.32,0.44,0.44,0.27,0.27,0.38,0.27,0.27,0.44,0.55,0.5,0.5,0.27,0.27,0.77,0.27,0.38,0.77,0.55,0.44,0.5,0.5,0.5,0.27,0.55,0.38,0.5,0.38,0.44,0.44,0.5,0.27,0.27,0.5,0.27,0.27,0.27,0.27,0.5,0.55,0.27,0.5" style="fill:rgb(0,0,0);font-family:AdvOTf9433e2d;font-size:8.47px;stroke:none;">Weinstein ND (1987) Unrealistic optimism about susceptibility to</text>
   <text y="404.903" x="323.147,327.381,331.082,334.782,337.069,339.355,343.59000000000003,346.618,350.852,353.579,357.813,362.047,364.334,368.034,374.555,377.815,380.1019,383.129,386.829,391.064,395.298,398.998,401.285,405.519,408.779,411.065,415.3,419.534,422.7526,425.819,428.545,431.272,435.506,442.0279,445.094,448.8208,451.784,455.484,459.719,466.239,472.76,476.994,481.228,483.514,485.801,490.035,492.761,498.842,501.128,505.362,509.08880000000005,512.105,515.366,519.066,525.587,529.821,532.107,535.808,537.9254999999999,540.962" svgx:width="0.5,0.44,0.44,0.27,0.27,0.5,0.55,0.5,0.32,0.5,0.5,0.27,0.44,0.77,0.38,0.27,0.55,0.44,0.5,0.5,0.44,0.27,0.5,0.38,0.27,0.5,0.5,0.38,0.55,0.32,0.32,0.5,0.77,0.55,0.44,0.55,0.44,0.5,0.77,0.77,0.5,0.5,0.27,0.27,0.5,0.32,0.72,0.27,0.5,0.44,0.55,0.38,0.44,0.77,0.5,0.27,0.44,0.25,0.55,0.38" style="fill:rgb(0,0,0);font-family:AdvOTf9433e2d;font-size:8.47px;stroke:none;">health problems: conclusions from a community-wide sample. J</text>
   <text y="414.825" x="323.147,328.787,332.487,336.722,340.422,344.65700000000004,347.469,354.963,358.663,362.898,365.78,370.014,374.248,376.535,380.769,385.003,389.251,393.446,397.68,401.914" svgx:width="0.67,0.44,0.5,0.44,0.5,0.55,0.88,0.44,0.5,0.55,0.5,0.5,0.27,0.5,0.5,0.5,0.5,0.5,0.5,0.5" style="fill:rgb(0,0,0);font-family:AdvOTf9433e2d;font-size:8.47px;stroke:none;">Behav Med 10:481–500</text>
   <text y="424.803" x="306.139,314.073,317.774,320.06,323.321,327.021,331.255,334.956,337.6664,344.917,350.59189999999995,357.786,360.513,364.747,368.981,373.215,377.449,380.1594,387.38,392.054,396.288,399.989,402.275,405.976,408.262,410.989,415.223,417.95,421.21,424.911,429.145,433.379,437.613,441.847,443.9645,451.216,457.297,463.377,469.47540000000004,476.672,482.752,486.453,489.179,491.466,495.166,499.4,502.661,506.895,510.595,513.856,517.556,519.843,522.129,525.389,529.09,533.324,537.025,539.752,542.038" svgx:width="0.94,0.44,0.27,0.38,0.44,0.5,0.44,0.32,0.55,0.67,0.55,0.32,0.5,0.5,0.5,0.5,0.32,0.55,0.55,0.5,0.44,0.27,0.44,0.27,0.32,0.5,0.32,0.38,0.44,0.5,0.5,0.5,0.5,0.25,0.55,0.72,0.72,0.72,0.55,0.72,0.44,0.32,0.27,0.44,0.5,0.38,0.5,0.44,0.38,0.44,0.27,0.27,0.38,0.44,0.5,0.44,0.32,0.27,0.25" style="fill:rgb(0,0,0);font-family:AdvOTf9433e2d;font-size:8.47px;stroke:none;">Weischer C (2007) Sozialforschung. UKV Verlagsgesellschaft,</text>
   <text y="434.781" x="323.146,329.226,333.46,337.695,340.955,343.241,346.942,351.176" svgx:width="0.72,0.5,0.5,0.38,0.27,0.44,0.5,0.44" style="fill:rgb(0,0,0);font-family:AdvOTf9433e2d;font-size:8.47px;stroke:none;">Konstanz</text>
   <text y="444.759" x="306.139,314.073,317.774,320.06,322.347,326.047,328.7574,332.558,335.284,337.4015,341.175,347.255,349.982,353.682,357.916,360.6264,364.419,370.499,372.61650000000003,376.381,384.316,388.017,392.251,394.537,398.238,402.473,406.259,412.339,414.4565,418.221,422.895,425.182,428.442,432.143,436.377,440.077,442.7874,446.624,452.72240000000005,456.432,459.159,463.393,467.627,471.861,476.095,478.8054,482.624,488.704,492.938,495.225,498.925,501.652,504.912,509.146,512.847,517.081,521.315,525.549,529.784,533.591,537.825,541.525" svgx:width="0.94,0.44,0.27,0.27,0.44,0.32,0.55,0.32,0.25,0.55,0.72,0.32,0.44,0.5,0.32,0.55,0.72,0.25,0.55,0.94,0.44,0.5,0.27,0.44,0.5,0.55,0.72,0.25,0.55,0.55,0.27,0.38,0.44,0.5,0.44,0.32,0.55,0.72,0.55,0.32,0.5,0.5,0.5,0.5,0.32,0.55,0.72,0.5,0.27,0.44,0.32,0.38,0.5,0.44,0.5,0.5,0.5,0.5,0.55,0.5,0.44,0.32" style="fill:rgb(0,0,0);font-family:AdvOTf9433e2d;font-size:8.47px;stroke:none;">Weller I, Krapf H, Wehlau D, Fischer K (2010) Untersuchung der</text>
   <text y="454.68" x="323.146,331.081,334.781,339.016,341.742,345.976,349.677,353.911,360.432,364.666,368.9,373.135,375.19,379.424,383.125,386.3436,388.343,394.423,396.709,398.996,405.516,409.217,415.297,418.998,423.232,427.466,431.166,433.453,436.67159999999996,438.8,441.086,447.60790000000003,449.628,455.708,457.995,460.281,462.567,466.268,470.503,472.532,476.766,481.0,485.235,487.216,490.476,494.177,496.463,500.697,504.398,507.1084,509.156,513.83,518.064,520.351,524.585,528.286,532.521,534.555,537.281,541.515" svgx:width="0.94,0.44,0.5,0.32,0.5,0.44,0.5,0.77,0.5,0.5,0.5,0.55,0.5,0.44,0.38,0.55,0.72,0.27,0.27,0.77,0.44,0.72,0.44,0.5,0.5,0.44,0.27,0.38,0.55,0.27,0.77,0.55,0.72,0.27,0.27,0.27,0.44,0.5,0.55,0.5,0.5,0.5,0.55,0.38,0.44,0.27,0.5,0.44,0.32,0.55,0.55,0.5,0.27,0.5,0.44,0.5,0.55,0.32,0.5,0.32" style="fill:rgb(0,0,0);font-family:AdvOTf9433e2d;font-size:8.47px;stroke:none;">Wahrnehmung des Klimawandels im Alltag und seiner Folgen für</text>
   <text y="464.659" x="323.146,329.226,333.46,337.695,340.955,345.189,351.709,355.943,359.644,362.371,366.605,370.306,372.592,374.878,378.579,382.814,387.493,391.727,395.961,400.196,404.784,410.864,415.098,417.384,421.619,425.319,428.046,431.746,435.981,438.267,440.553,442.84,445.126,448.827,451.1139,455.807,458.094,462.329,466.919,471.153,474.854,477.5644,482.226,488.306,492.54,495.267,499.501,505.581,509.282,512.542,514.829,517.556,523.195,526.896,531.13,533.417,537.651,541.885" svgx:width="0.72,0.5,0.5,0.38,0.5,0.77,0.5,0.44,0.32,0.5,0.44,0.27,0.27,0.44,0.5,0.55,0.5,0.5,0.5,0.55,0.72,0.5,0.27,0.5,0.44,0.32,0.44,0.5,0.27,0.27,0.27,0.27,0.44,0.27,0.55,0.27,0.5,0.55,0.5,0.44,0.32,0.55,0.72,0.5,0.32,0.5,0.72,0.44,0.38,0.27,0.32,0.67,0.44,0.5,0.27,0.5,0.5,0.27" style="fill:rgb(0,0,0);font-family:AdvOTf9433e2d;font-size:8.47px;stroke:none;">Konsumverhalten und Vulnerabilität in der Nordwest-Region:</text>
   <text y="474.637" x="323.146,328.261,330.988,335.222,338.922,343.156,347.391,349.677,352.937,356.198,359.9248,362.775,366.475,368.762,372.996,376.696,379.4064,382.277,385.978,390.212,394.446,396.732,400.966,403.693,407.394,409.68,411.966,416.201,419.901,424.136,427.008,431.682,433.968,438.203,442.437,444.723,448.424,450.5415,453.37,457.071,459.797,462.084,465.784,469.485,472.212,476.446,480.146,484.38,488.081,490.808,492.9255,495.776,501.416,504.143,507.843,514.364,518.064" svgx:width="0.6,0.32,0.5,0.44,0.5,0.5,0.27,0.38,0.38,0.44,0.55,0.44,0.27,0.5,0.44,0.32,0.55,0.44,0.5,0.5,0.27,0.5,0.32,0.44,0.27,0.27,0.5,0.44,0.5,0.55,0.55,0.27,0.5,0.5,0.27,0.44,0.25,0.55,0.44,0.32,0.27,0.44,0.44,0.32,0.5,0.44,0.5,0.44,0.32,0.25,0.55,0.67,0.32,0.44,0.77,0.44,0.5" style="fill:rgb(0,0,0);font-family:AdvOTf9433e2d;font-size:8.47px;stroke:none;">Ergebnisse einer explorativen Studie, artec-paper. Bremen</text>
   <text y="484.615" x="306.139,314.073,318.307,320.594,322.88,329.401,333.101,335.828,339.088,343.32300000000004,345.54,350.622,352.853,355.58,359.814,364.048,368.282,372.517,375.2274,377.459,382.133,385.834,389.534,393.768,396.055,398.341,402.042,404.328,407.588,414.10990000000004,416.35,420.05,424.284,428.519,430.693,434.927,439.161,442.862,446.562,449.289,451.576,455.276,457.563,461.797,464.083,468.31800000000004,470.548,474.249,478.483,482.717,486.951,489.2379,491.412,495.112,497.399,499.685,506.206,509.906,512.193,515.9198,518.114,521.815,526.049,529.75,533.984,538.218,541.918" svgx:width="0.94,0.5,0.27,0.27,0.77,0.44,0.32,0.38,0.5,0.55,0.6,0.55,0.32,0.5,0.5,0.5,0.5,0.32,0.55,0.55,0.44,0.44,0.5,0.27,0.27,0.44,0.27,0.38,0.77,0.55,0.44,0.5,0.5,0.55,0.5,0.5,0.44,0.44,0.32,0.27,0.44,0.27,0.5,0.27,0.5,0.55,0.44,0.5,0.5,0.5,0.27,0.55,0.44,0.27,0.27,0.77,0.44,0.27,0.44,0.55,0.44,0.5,0.44,0.5,0.5,0.44,0.27" style="fill:rgb(0,0,0);font-family:AdvOTf9433e2d;font-size:8.47px;stroke:none;">Whitmarsh L (2011) Scepticism and uncertainty about climate change:</text>
   <text y="494.536" x="323.146,327.38,329.667,336.187,339.888,344.122,347.382,349.669,353.903,358.137,361.397,363.5145,367.197,371.431,375.132,377.418,381.119,383.845,390.366,392.652,396.886,400.587,404.821,407.107,410.3256,414.139,417.839,422.073,426.308,429.956,433.657,437.891,441.592,445.826,450.06,453.7868,457.453,461.687,465.921,469.621,472.3314,476.048,478.334,480.621,487.141,490.842,492.9595,496.627,502.707,504.994,509.228,513.463,517.15,522.265,526.499,530.733,533.019,535.746,539.98" svgx:width="0.5,0.27,0.77,0.44,0.5,0.38,0.27,0.5,0.5,0.38,0.25,0.55,0.5,0.44,0.27,0.44,0.32,0.77,0.27,0.5,0.44,0.5,0.27,0.38,0.55,0.44,0.5,0.5,0.55,0.44,0.5,0.44,0.5,0.5,0.44,0.55,0.5,0.5,0.44,0.32,0.55,0.27,0.27,0.77,0.44,0.25,0.55,0.72,0.27,0.5,0.5,0.55,0.6,0.5,0.5,0.27,0.32,0.5,0.5" style="fill:rgb(0,0,0);font-family:AdvOTf9433e2d;font-size:8.47px;stroke:none;">dimensions, determinants and change over time. Glob Environ</text>
   <text y="504.514" x="323.146,328.786,333.02,336.721,340.955,345.189,348.91580000000005,355.518,359.752,363.986,366.272,370.506,374.74,378.989,383.241,387.475,391.709,395.943" svgx:width="0.67,0.5,0.44,0.5,0.5,0.44,0.55,0.5,0.5,0.27,0.5,0.5,0.5,0.5,0.5,0.5,0.5,0.25" style="fill:rgb(0,0,0);font-family:AdvOTf9433e2d;font-size:8.47px;stroke:none;">Change 21:690–700.</text>
   <text y="504.514" x="404.67,408.904,411.191,413.477,417.711,420.972,423.258,425.544,427.831,432.065,436.299,438.585,440.702,444.937,447.663,451.897,454.184,458.418,462.652,464.769,469.003,473.237,477.471,481.705,483.992,486.278,488.395,492.629,494.916,499.15,502.851,507.085,511.319,515.019,519.253,522.954,525.071,529.305,533.539,537.773,542.007" svgx:width="0.5,0.27,0.27,0.5,0.38,0.27,0.27,0.27,0.5,0.5,0.27,0.25,0.5,0.32,0.5,0.27,0.5,0.5,0.25,0.5,0.5,0.5,0.5,0.27,0.27,0.25,0.5,0.27,0.5,0.44,0.5,0.5,0.44,0.5,0.44,0.25,0.5,0.5,0.5,0.5,0.25" style="fill:rgb(0,0,255);font-family:AdvOTf9433e2d;font-size:8.47px;stroke:none;">https://doi.org/10.1016/j.gloenvcha.2011.</text>
   <text y="514.492" x="323.146,327.38,331.614,333.731,337.965,342.2" svgx:width="0.5,0.5,0.25,0.5,0.5,0.5" style="fill:rgb(0,0,255);font-family:AdvOTf9433e2d;font-size:8.47px;stroke:none;">01.016</text>
   <text y="524.414" x="306.139,314.073,318.307,322.542,326.776,329.9946,335.392,341.032,347.112,349.22950000000003,354.611,360.691,362.977,366.678,368.964,372.224,375.925,380.16,385.508,391.589,397.669,399.7865,405.181,409.855,413.556,417.79,421.491,424.217,427.478,431.178,435.413,440.784,446.864,452.504,454.6215,459.946,466.026,468.752,471.039,474.299,476.586,480.82,483.643,487.343,490.07,493.33,496.591,500.825,505.06,510.402,516.5004,521.854,524.581,528.815,533.049,537.283,541.517" svgx:width="0.94,0.5,0.5,0.5,0.38,0.55,0.67,0.72,0.25,0.55,0.72,0.27,0.44,0.27,0.38,0.44,0.5,0.55,0.72,0.72,0.25,0.55,0.55,0.44,0.5,0.44,0.32,0.38,0.44,0.5,0.55,0.72,0.67,0.25,0.55,0.72,0.32,0.27,0.38,0.27,0.5,0.32,0.44,0.32,0.38,0.38,0.5,0.5,0.55,0.72,0.55,0.32,0.5,0.5,0.5,0.5,0.32" style="fill:rgb(0,0,0);font-family:AdvOTf9433e2d;font-size:8.47px;stroke:none;">Woods BA, Nielsen HØ, Pedersen AB, Kristofersson D (2017)</text>
   <text y="534.392" x="323.146,327.821,331.521,334.248,340.768,344.469,347.196,350.472,353.1824,355.461,359.695,363.395,366.122,369.823,373.523,377.758,380.044,382.33,386.564,390.799,394.01759999999996,396.337,400.571,403.2814,405.577,409.278,411.564,413.851,420.371,424.072,426.358,430.08480000000003,432.337,436.037,440.271,443.972,448.206,452.44,456.1668,458.415,462.116,466.35,470.58500000000004,472.815,475.102,479.336,483.037,485.323,488.0334,490.334,492.62,494.906,499.141,502.841,505.128,509.363,511.593,514.32,518.02,521.281,525.515,529.749,533.983,537.243,540.944" svgx:width="0.55,0.44,0.32,0.77,0.44,0.32,0.38,0.32,0.55,0.5,0.44,0.32,0.44,0.44,0.5,0.27,0.27,0.5,0.5,0.38,0.55,0.5,0.32,0.55,0.44,0.27,0.27,0.77,0.44,0.27,0.44,0.55,0.44,0.5,0.44,0.5,0.5,0.44,0.55,0.44,0.5,0.5,0.55,0.27,0.5,0.44,0.27,0.32,0.55,0.27,0.27,0.5,0.44,0.27,0.5,0.55,0.32,0.44,0.38,0.5,0.5,0.5,0.38,0.44,0.38" style="fill:rgb(0,0,0);font-family:AdvOTf9433e2d;font-size:8.47px;stroke:none;">Farmers’ perceptions of climate change and their likely responses</text>
   <text y="544.37" x="323.146,325.433,329.668,333.464,339.544,343.245,347.479,349.765,353.025,357.26,361.073,364.774,369.008,371.735,374.021,377.722,381.956,384.242,386.529,390.763,393.49,397.21680000000003,400.985,406.1,409.8,414.034,418.269,422.075,426.309,429.569,433.29580000000004,437.098,441.332,445.567,447.853,450.139,453.84,458.075,461.873,466.107,470.341,472.627,476.862,481.096,485.344,489.539,493.774,498.008,502.242" svgx:width="0.27,0.5,0.55,0.72,0.44,0.5,0.27,0.38,0.5,0.55,0.44,0.5,0.32,0.27,0.44,0.5,0.27,0.27,0.5,0.32,0.44,0.55,0.6,0.44,0.5,0.5,0.55,0.5,0.38,0.44,0.55,0.5,0.5,0.27,0.27,0.44,0.5,0.55,0.5,0.5,0.27,0.5,0.5,0.5,0.5,0.5,0.5,0.5,0.25" style="fill:rgb(0,0,0);font-family:AdvOTf9433e2d;font-size:8.47px;stroke:none;">in Danish agriculture Land use policy 65:109–120.</text>
   <text y="544.37" x="508.192,512.426,514.712,516.998,521.233,524.493,526.779,529.066,531.352,535.586,539.82,542.107" svgx:width="0.5,0.27,0.27,0.5,0.38,0.27,0.27,0.27,0.5,0.5,0.27,0.25" style="fill:rgb(0,0,255);font-family:AdvOTf9433e2d;font-size:8.47px;stroke:none;">https://doi.</text>
   <text y="554.348" x="323.146,327.38,330.107,334.341,336.627,340.862,345.096,347.213,351.447,355.681,359.915,364.149,366.436,368.722,370.839,373.125,376.826,381.06,385.294,389.528,392.789,396.489,400.723,404.957,407.244,409.361,413.595,417.829,422.063,426.297,428.414,432.648,436.882,438.999,443.234,447.468" svgx:width="0.5,0.32,0.5,0.27,0.5,0.5,0.25,0.5,0.5,0.5,0.5,0.27,0.27,0.25,0.27,0.44,0.5,0.5,0.5,0.38,0.44,0.5,0.5,0.27,0.25,0.5,0.5,0.5,0.5,0.25,0.5,0.5,0.25,0.5,0.5,0.5" style="fill:rgb(0,0,255);font-family:AdvOTf9433e2d;font-size:8.47px;stroke:none;">org/10.1016/j.landusepol.2017.04.007</text>
  </g>
  <path style="fill:rgb(0,0,0);stroke:none;stroke-width:1.0;" d="M544.250 46.380 L51.020 46.380 L51.020 45.350 L544.250 45.350 "/>
  <g begin="text">
   <text y="39.685" x="51.024,54.809,59.043,62.744,64.59,67.147,71.288,75.522,81.958,85.836,90.07,92.628,96.328,98.1914,101.027,107.285,110.985,115.219,118.92,123.239,127.117,133.553,137.431,141.666,144.207,147.118,149.405,153.368,157.331,161.294,165.257,167.5439,170.419,174.382,178.346,180.014,183.977,187.94,191.905,196.157,200.12,204.083,208.0639,532.345,536.308,540.271" svgx:width="0.45,0.5,0.44,0.22,0.3,0.49,0.5,0.76,0.46,0.5,0.3,0.44,0.22,0.55,0.74,0.44,0.5,0.44,0.51,0.46,0.76,0.46,0.5,0.3,0.55,0.27,0.47,0.47,0.47,0.47,0.27,0.55,0.47,0.47,0.2,0.47,0.47,0.47,0.5,0.47,0.47,0.47,0.55,0.47,0.47,0.47" style="fill:rgb(0,0,0);font-family:AdvOT5fcf1b24;font-size:8.47px;stroke:none;">Environmental Management (2019) 63:804–821 821</text>
  </g>
  <path style="fill:rgb(43,42,41);stroke:none;stroke-width:0.25;" d="M511.850 741.470 L511.850 741.040 L511.230 741.040 C511.300 740.690 511.360 740.370 511.420 740.040 L511.430 740.040 C511.570 740.040 511.670 739.930 511.670 739.810 C511.670 739.690 511.580 739.590 511.470 739.570 C511.490 739.240 511.510 738.900 511.510 738.590 C511.630 738.570 511.730 738.480 511.730 738.350 C511.730 738.230 511.630 738.120 511.490 738.120 C511.470 737.790 511.420 737.480 511.360 737.170 C511.450 737.150 511.520 737.060 511.520 736.950 C511.520 736.820 511.430 736.720 511.300 736.720 L511.240 736.740 C511.150 736.420 511.030 736.120 510.880 735.850 L511.000 735.660 C511.000 735.540 510.900 735.440 510.760 735.440 L510.660 735.470 C510.460 735.200 510.260 734.940 510.000 734.730 L510.040 734.600 C510.040 734.480 509.960 734.370 509.820 734.370 L509.640 734.460 C509.370 734.300 509.080 734.150 508.760 734.050 L508.760 733.990 C508.760 733.870 508.670 733.760 508.540 733.760 C508.430 733.760 508.340 733.840 508.310 733.930 C508.150 733.900 507.970 733.870 507.770 733.850 C507.660 733.420 507.400 733.030 506.680 733.110 C506.680 733.110 506.710 733.430 506.700 733.730 C506.510 733.540 506.120 733.400 505.710 733.550 L505.860 734.570 L505.450 735.150 L505.040 735.300 L504.770 736.110 L503.280 738.150 L503.260 738.230 L503.310 738.330 L504.260 739.440 L504.620 739.140 L504.610 739.590 L505.680 739.590 C505.680 739.050 506.310 738.120 506.730 737.970 L507.600 737.970 C506.850 739.110 505.510 739.630 505.400 741.040 L504.800 741.040 L504.800 741.470 L511.850 741.470 ZM510.780 741.050 L505.850 741.050 C505.890 740.480 506.240 740.070 506.630 739.680 C507.680 738.630 508.540 737.960 508.540 736.260 L508.100 736.260 C508.100 736.770 508.000 737.200 507.830 737.560 L506.710 737.570 L506.400 737.180 L506.070 737.470 L506.300 737.740 C505.890 738.030 505.460 738.650 505.330 739.170 L505.010 739.170 L505.010 738.440 L504.880 738.350 L504.310 738.840 L503.790 738.210 L505.160 736.300 L505.380 735.660 L506.180 735.390 L506.060 735.050 L506.310 734.670 L506.210 733.940 C506.430 734.050 506.600 734.200 506.600 734.570 L507.000 734.640 C507.120 734.110 507.120 733.570 507.120 733.570 C507.480 733.790 507.450 734.810 507.430 734.960 L507.860 735.030 C507.860 735.030 507.880 734.880 507.880 734.700 C507.880 734.580 507.880 734.460 507.860 734.320 C510.630 734.640 511.650 737.480 510.780 741.050 M506.270 736.090 L506.250 735.820 L505.550 735.900 L505.600 736.450 L506.270 736.090 ZM504.560 737.750 L504.290 737.740 C504.290 737.920 504.240 738.120 504.130 738.270 L504.450 738.390 C504.550 738.240 504.580 737.950 504.560 737.750 M511.840 742.800 M544.260 738.170 C544.260 737.930 544.030 737.710 543.750 737.710 C543.390 737.710 543.020 738.100 542.770 738.590 L542.750 738.590 L542.750 737.690 C542.360 737.840 541.940 737.930 541.470 738.020 L541.470 738.270 C541.940 738.360 541.970 738.360 541.970 738.870 L541.970 740.560 C541.970 741.070 541.930 741.110 541.410 741.160 L541.410 741.450 L543.450 741.450 L543.450 741.160 C542.810 741.110 542.750 741.070 542.750 740.560 L542.750 739.170 C542.910 738.710 543.170 738.480 543.360 738.480 C543.480 738.480 543.620 738.530 543.720 738.630 C543.880 738.810 544.260 738.510 544.260 738.170 M540.900 739.030 C540.900 738.330 540.320 737.710 539.580 737.710 C538.700 737.710 537.820 738.620 537.820 739.780 C537.820 740.740 538.430 741.540 539.490 741.540 C539.760 741.540 540.340 741.400 540.840 740.780 L540.640 740.520 C540.340 740.810 540.110 740.900 539.780 740.900 C539.200 740.900 538.610 740.480 538.580 739.500 C539.530 739.470 540.560 739.390 540.690 739.380 C540.850 739.350 540.900 739.260 540.900 739.030 M540.110 738.870 C540.110 739.020 540.080 739.070 539.910 739.070 L538.630 739.100 C538.720 738.450 539.080 738.080 539.420 738.080 C539.820 738.080 540.110 738.470 540.110 738.870 M537.550 737.900 L537.490 737.810 C537.130 737.860 536.740 737.900 536.360 737.920 C536.100 737.780 535.800 737.710 535.490 737.710 C534.770 737.710 533.910 738.230 533.910 739.200 C533.910 739.740 534.280 740.220 534.680 740.350 C534.550 740.520 534.240 740.780 533.890 740.930 C533.860 741.410 534.310 741.660 534.560 741.750 C533.860 742.280 533.700 742.530 533.700 742.860 C533.700 743.370 534.240 744.000 535.250 744.000 C536.410 744.000 537.420 743.190 537.420 742.230 C537.420 741.410 536.710 741.160 536.190 741.160 L535.290 741.160 C534.940 741.160 534.800 740.990 534.800 740.860 C534.800 740.720 534.950 740.520 535.130 740.450 C535.240 740.450 535.360 740.470 535.400 740.470 C536.150 740.470 536.970 739.980 536.970 739.070 C536.970 738.810 536.880 738.480 536.760 738.320 L537.190 738.360 C537.330 738.290 537.490 738.030 537.550 737.900 M536.160 739.120 C536.160 739.810 535.850 740.100 535.520 740.100 C535.070 740.100 534.740 739.650 534.740 739.020 C534.740 738.390 535.100 738.060 535.410 738.060 C535.880 738.060 536.160 738.540 536.160 739.120 M536.780 742.550 C536.780 743.040 536.360 743.530 535.610 743.530 C534.940 743.530 534.490 743.140 534.490 742.640 C534.490 742.280 534.770 741.810 535.410 741.810 C535.880 741.810 536.160 741.830 536.370 741.900 C536.590 741.990 536.780 742.230 536.780 742.550 M533.290 741.450 L533.290 741.160 C532.840 741.110 532.770 741.070 532.770 740.590 L532.770 738.860 C532.770 738.170 532.350 737.710 531.680 737.710 C531.250 737.710 530.680 738.120 530.490 738.290 L530.490 737.690 C530.100 737.840 529.680 737.930 529.230 738.020 L529.230 738.270 C529.680 738.330 529.710 738.360 529.710 738.870 L529.710 740.590 C529.710 741.070 529.630 741.110 529.130 741.160 L529.130 741.450 L530.950 741.450 L530.950 741.160 C530.530 741.110 530.490 741.070 530.490 740.590 L530.490 738.680 C530.710 738.470 531.040 738.260 531.320 738.260 C531.770 738.260 532.010 738.590 532.010 739.120 L532.010 740.590 C532.010 741.070 531.950 741.110 531.530 741.160 L531.530 741.450 L533.290 741.450 ZM528.260 736.390 C528.260 736.090 528.040 735.870 527.740 735.870 C527.460 735.870 527.230 736.090 527.230 736.390 C527.230 736.680 527.460 736.900 527.740 736.900 C528.040 736.900 528.260 736.680 528.260 736.390 M528.720 741.450 L528.720 741.160 C528.200 741.110 528.160 741.070 528.160 740.530 L528.160 737.690 C527.780 737.830 527.320 737.930 526.860 738.020 L526.860 738.270 C527.350 738.330 527.390 738.330 527.390 738.920 L527.390 740.530 C527.390 741.070 527.320 741.110 526.810 741.160 L526.810 741.450 L528.720 741.450 ZM526.420 738.170 C526.420 737.930 526.210 737.710 525.910 737.710 C525.570 737.710 525.200 738.100 524.930 738.590 L524.910 738.590 L524.910 737.690 C524.530 737.840 524.090 737.930 523.640 738.020 L523.640 738.270 C524.110 738.360 524.150 738.360 524.150 738.870 L524.150 740.560 C524.150 741.070 524.090 741.110 523.580 741.160 L523.580 741.450 L525.610 741.450 L525.610 741.160 C524.970 741.110 524.910 741.070 524.910 740.560 L524.910 739.170 C525.080 738.710 525.320 738.480 525.510 738.480 C525.660 738.480 525.780 738.510 525.870 738.630 C526.060 738.810 526.420 738.510 526.420 738.170 M523.030 739.290 C523.030 738.510 522.510 737.710 521.580 737.710 C521.480 737.710 521.370 737.720 521.270 737.780 L520.460 738.200 L520.460 737.630 C520.030 737.780 519.610 737.920 519.160 738.000 L519.160 738.260 C519.670 738.300 519.680 738.320 519.680 738.840 L519.680 742.810 C519.680 743.320 519.640 743.370 519.100 743.430 L519.100 743.710 L521.210 743.710 L521.210 743.430 C520.520 743.370 520.460 743.320 520.460 742.810 L520.460 741.430 C520.580 741.470 520.780 741.520 521.020 741.530 C522.130 741.400 523.030 740.540 523.030 739.290 M522.220 739.620 C522.220 740.740 521.660 741.070 521.220 741.070 C520.900 741.070 520.630 740.930 520.460 740.750 L520.460 738.540 C520.660 738.420 520.970 738.260 521.210 738.260 C521.780 738.260 522.220 738.680 522.220 739.620 M518.710 739.950 C518.710 738.100 516.110 738.390 516.110 736.970 C516.110 736.510 516.400 736.120 516.970 736.120 C517.730 736.120 517.970 736.770 518.120 737.290 L518.430 737.270 C518.410 736.650 518.380 736.290 518.360 735.970 C517.940 735.820 517.520 735.720 517.130 735.720 C515.970 735.720 515.310 736.450 515.310 737.260 C515.310 739.030 517.860 738.690 517.860 740.230 C517.860 740.810 517.490 741.200 516.860 741.200 C515.970 741.200 515.700 740.480 515.500 739.750 L515.160 739.810 C515.190 740.350 515.220 740.870 515.310 741.260 C515.740 741.450 516.190 741.590 516.760 741.590 C517.920 741.590 518.710 740.830 518.710 739.950 "/>
 </g>
</svg>
