<?xml version="1.0" encoding="UTF-8"?>
<svg height="767.08" width="586.067" xmlns="http://www.w3.org/2000/svg">
 <g id="page" xmlns:svgx="http://www.xml-cml.org/schema/svgx">
  <path style="fill:rgb(58,90,166);stroke:none;stroke-width:1.0;" d="M435.400 432.790 L440.390 432.790 Z"/>
  <path style="fill:rgb(58,90,166);stroke:none;stroke-width:1.0;" d="M445.440 432.790 L455.410 432.790 Z"/>
  <path style="fill:rgb(58,90,166);stroke:none;stroke-width:1.0;" d="M254.890 445.830 L285.560 445.830 Z"/>
  <g begin="text">
   <text y="84.586" x="200.012,205.172,210.232,212.892,218.372,221.352,224.012,229.492,234.19199999999998,236.408,239.388,244.448,251.278,255.608,259.318,264.618,266.795,269.775,275.045,279.345,281.535,286.805,289.465,293.175,297.405,301.635,304.615,307.275,312.335,317.835,320.03,325.09,327.98999999999995,330.178,333.048,338.318,341.298,346.568,350.278,354.57800000000003,356.766,360.366,365.636,368.296,371.166,374.146,377.74600000000004,380.01,382.67,388.17,390.328,395.488,400.758,405.818,408.278,410.938,415.238,417.427,422.487,427.647,430.307,435.787,438.447,443.507,449.007,451.273,456.333,461.833,464.029,467.009,472.279,476.509,480.109,484.409,486.536,489.516,496.346,501.446,503.657,506.317,511.797,514.777,519.007,522.717,525.177,527.837,533.317,538.277,542.507" svgx:width="0.52,0.51,0.27,0.55,0.3,0.27,0.55,0.47,0.55,0.3,0.51,0.69,0.44,0.38,0.53,0.55,0.3,0.53,0.43,0.55,0.53,0.27,0.38,0.43,0.43,0.3,0.27,0.51,0.55,0.55,0.51,0.29,0.55,0.29,0.53,0.3,0.53,0.38,0.43,0.55,0.36,0.53,0.27,0.29,0.3,0.36,0.55,0.27,0.55,0.55,0.52,0.53,0.51,0.25,0.27,0.43,0.55,0.51,0.52,0.27,0.55,0.27,0.51,0.55,0.55,0.51,0.55,0.55,0.3,0.53,0.43,0.36,0.43,0.55,0.3,0.69,0.51,0.55,0.27,0.55,0.3,0.43,0.38,0.25,0.27,0.55,0.5,0.43,0.53" style="fill:rgb(0,0,0);font-family:MinionPro-Regular;font-size:10.0px;stroke:none;">pointing toward the direction of future shifts in public opinion on these two interlinked</text>
   <text y="97.625" x="200.012,202.992,208.052,213.212,215.872,220.102,223.702" svgx:width="0.3,0.51,0.52,0.27,0.43,0.36,0.23" style="fill:rgb(0,0,0);font-family:MinionPro-Regular;font-size:10.0px;stroke:none;">topics.</text>
  </g>
  <g begin="text">
   <text y="126.709" x="200.012,207.964,215.293,222.621,229.949,237.278,241.858,245.814,249.147,256.475,263.795,266.455,269.788,277.116,281.073,288.401,292.981,303.562,310.146,314.102,317.435,324.763" svgx:width="0.67,0.61,0.61,0.61,0.61,0.38,0.33,0.28,0.61,0.61,0.55,0.28,0.61,0.33,0.61,0.38,0.88,0.55,0.33,0.28,0.61,0.61" style="fill:rgb(0,0,0);font-family:Helvetica-Bold;font-size:12.0px;stroke:none;">Supporting information</text>
  </g>
  <g begin="text">
   <text y="143.717" x="200.012,204.972,209.972,212.144,219.704,224.344,227.734,232.374,236.184,240.514,243.904,246.404,248.597,255.117,259.447,265.027,269.357,276.187,280.827,286.097,288.867,293.267,295.482,299.812,305.392,309.722,313.742,318.592,323.292,325.529,329.339,334.819,340.299,345.779,350.939,354.959,358.359,360.565,365.725,371.32500000000005,373.547,378.507,383.507,385.68,389.49,394.97,398.99,403.63,407.96,412.6,416.40000000000003,418.675,422.175,427.135,430.525,435.165,438.555,443.255,445.434,450.394,455.394,457.566,460.856,466.016,470.036,478.426,483.066,486.456,489.956" svgx:width="0.5,0.5,0.55,0.76,0.47,0.34,0.47,0.38,0.44,0.34,0.25,0.55,0.66,0.44,0.56,0.44,0.69,0.47,0.53,0.28,0.44,0.55,0.44,0.56,0.44,0.41,0.49,0.47,0.55,0.38,0.55,0.55,0.55,0.52,0.41,0.34,0.55,0.52,0.56,0.55,0.5,0.5,0.55,0.38,0.55,0.41,0.47,0.44,0.47,0.38,0.55,0.35,0.5,0.34,0.47,0.34,0.47,0.55,0.5,0.5,0.55,0.33,0.52,0.41,0.84,0.47,0.34,0.35,0.25" style="fill:rgb(0,0,0);font-family:MinionPro-Bold;font-size:10.0px;stroke:none;">S1 Dataset. Renewable energy support on 20 surveys (Stata 15 format).</text>
   <text y="156.756" x="200.012,203.402,210.752,216.852,223.682" svgx:width="0.34,0.74,0.61,0.69,0.34" style="fill:rgb(0,0,0);font-family:MinionPro-Regular;font-size:10.0px;stroke:none;">(DTA)</text>
   <text y="175.748" x="200.012,204.972,209.972,212.144,219.704,224.344,227.734,232.374,236.184,240.514,243.904,246.404,248.597,258.347,262.677,265.547,270.397,275.877,279.267,283.597,289.097,291.4,296.88,301.21,305.23,309.46,313.79,319.37,322.76,327.4,332.25,336.58,340.38,342.65,352.004,356.234,361.394,366.974,370.274,372.527,375.397,380.977,384.367,388.697,392.717,397.357,401.997,404.767,408.567,410.851,414.141,419.301,423.401,425.534,428.924,431.794,440.184,444.584,446.738,450.548,454.878,458.898,461.768,466.098,469.898,472.192,475.692,480.652,484.042,488.682,492.072,496.772,498.951,503.911,508.911,511.084,514.374,519.534,523.554,531.944,536.584,539.974,543.474" svgx:width="0.5,0.5,0.55,0.76,0.47,0.34,0.47,0.38,0.44,0.34,0.25,0.55,0.98,0.44,0.29,0.49,0.55,0.34,0.44,0.55,0.55,0.55,0.44,0.41,0.43,0.44,0.56,0.34,0.47,0.49,0.44,0.38,0.55,0.72,0.43,0.52,0.56,0.33,0.55,0.29,0.56,0.34,0.44,0.41,0.47,0.47,0.28,0.38,0.55,0.33,0.52,0.41,0.55,0.34,0.29,0.84,0.44,0.55,0.38,0.44,0.41,0.29,0.44,0.38,0.55,0.35,0.5,0.34,0.47,0.34,0.47,0.55,0.5,0.5,0.55,0.33,0.52,0.41,0.84,0.47,0.34,0.35,0.25" style="fill:rgb(0,0,0);font-family:MinionPro-Bold;font-size:10.0px;stroke:none;">S2 Dataset. Weighted percentages &amp;conf intervals for time series (Stata 15 format).</text>
   <text y="188.73" x="200.012,203.402,210.752,216.852,223.682" svgx:width="0.34,0.74,0.61,0.69,0.34" style="fill:rgb(0,0,0);font-family:MinionPro-Regular;font-size:10.0px;stroke:none;">(DTA)</text>
   <text y="207.722" x="200.012,204.972,209.972,212.144,219.704,224.344,227.734,232.374,236.184,240.514,243.904,246.404,248.597,255.947,260.277,267.17699999999996,269.346,277.116,281.756,290.146,295.626,299.436,304.916,307.786,311.806,316.20599999999996,318.442,322.672,325.442,328.312,336.702,341.342,344.732,349.132,351.324,355.554,361.034,365.674,371.254,376.104,380.50399999999996,382.675,387.315,390.185,394.515,401.345,405.14500000000004,407.393,412.663,417.363,419.525,425.005,430.165,432.935,435.805,439.195,442.065,446.295,450.935,453.735,455.978,461.458,466.098,470.118,473.508,478.20799999999997,480.413,483.913,488.873,492.263,496.903,500.293,504.993,507.172,512.132,517.132,519.304,522.594,527.754,531.774,540.164,544.804,548.194,551.694" svgx:width="0.5,0.5,0.55,0.76,0.47,0.34,0.47,0.38,0.44,0.34,0.25,0.55,0.74,0.44,0.69,0.55,0.78,0.47,0.84,0.55,0.38,0.55,0.29,0.41,0.44,0.55,0.43,0.28,0.29,0.84,0.47,0.34,0.44,0.55,0.43,0.55,0.47,0.56,0.49,0.44,0.55,0.47,0.29,0.44,0.69,0.38,0.55,0.53,0.47,0.55,0.55,0.52,0.28,0.29,0.34,0.29,0.43,0.47,0.28,0.55,0.55,0.47,0.41,0.34,0.47,0.55,0.35,0.5,0.34,0.47,0.34,0.47,0.55,0.5,0.5,0.55,0.33,0.52,0.41,0.84,0.47,0.34,0.35,0.25" style="fill:rgb(0,0,0);font-family:MinionPro-Bold;font-size:10.0px;stroke:none;">S3 Dataset. New Hampshire climate change views by political party (Stata 15 format).</text>
   <text y="220.705" x="200.012,203.402,210.752,216.852,223.682" svgx:width="0.34,0.74,0.61,0.69,0.34" style="fill:rgb(0,0,0);font-family:MinionPro-Regular;font-size:10.0px;stroke:none;">(DTA)</text>
   <text y="239.754" x="200.012,204.972,209.972,212.144,219.704,224.344,227.734,232.374,236.184,240.514,243.904,246.404,248.597,255.947,265.945,270.585,273.455,277.785,284.615,288.415,290.72,295.88,301.48,303.645,307.875,310.645,313.515,321.905,326.545,329.935,334.335,336.527,345.881,349.901,354.231,359.811,364.141,370.971,375.611,380.881,383.651,388.051,390.272,394.602,400.182,404.512,408.532,413.382,418.022,420.522,422.757,428.027,432.727,434.889,439.529,444.379,448.779,450.933,455.783,459.803,464.963,470.443,475.943,478.145,481.645,486.605,489.995,494.635,498.025,502.72499999999997,504.961,509.921,514.921,517.093,520.383,525.543,529.563,537.953,542.593,545.983,549.483" svgx:width="0.5,0.5,0.55,0.76,0.47,0.34,0.47,0.38,0.44,0.34,0.25,0.55,0.74,0.78,0.47,0.29,0.44,0.69,0.38,0.55,0.52,0.56,0.55,0.43,0.28,0.29,0.84,0.47,0.34,0.44,0.55,0.72,0.41,0.44,0.56,0.44,0.69,0.47,0.53,0.28,0.44,0.55,0.44,0.56,0.44,0.41,0.49,0.47,0.25,0.55,0.53,0.47,0.55,0.47,0.49,0.44,0.55,0.49,0.41,0.52,0.55,0.55,0.55,0.35,0.5,0.34,0.47,0.34,0.47,0.55,0.5,0.5,0.55,0.33,0.52,0.41,0.84,0.47,0.34,0.35,0.25" style="fill:rgb(0,0,0);font-family:MinionPro-Bold;font-size:10.0px;stroke:none;">S4 Dataset. NHviews on climate &amp;renewable energy, by age group (Stata 15 format).</text>
   <text y="252.736" x="200.012,203.402,210.752,216.852,223.682" svgx:width="0.34,0.74,0.61,0.69,0.34" style="fill:rgb(0,0,0);font-family:MinionPro-Regular;font-size:10.0px;stroke:none;">(DTA)</text>
   <text y="271.728" x="200.012,204.972,209.972,212.144,219.704,224.344,227.734,232.374,236.184,240.514,243.904,246.404,248.597,255.947,261.747,263.961,271.621,278.221,280.402,285.042,287.912,292.242,299.072,302.872,305.119,310.279,315.879,318.102,322.332,325.102,327.972,336.362,341.002,344.392,348.792,350.984,360.338,364.358,368.688,374.268,378.598,385.428,390.068,395.338,398.108,402.508,404.728,409.058,414.638,418.968,422.988,427.838,432.478,434.978,437.156,442.426,447.126,449.289,453.929,458.779,463.179,465.333,470.183,474.203,479.363,484.843,490.343,492.602,496.102,501.062,504.452,509.092,512.482,517.182,519.361,524.321,529.321,531.493,534.783,539.943,543.963,552.353,556.993,560.383,563.883" svgx:width="0.5,0.5,0.55,0.76,0.47,0.34,0.47,0.38,0.44,0.34,0.25,0.55,0.74,0.58,0.55,0.77,0.66,0.55,0.47,0.29,0.44,0.69,0.38,0.55,0.52,0.56,0.55,0.43,0.28,0.29,0.84,0.47,0.34,0.44,0.55,0.72,0.41,0.44,0.56,0.44,0.69,0.47,0.53,0.28,0.44,0.55,0.44,0.56,0.44,0.41,0.49,0.47,0.25,0.55,0.53,0.47,0.55,0.47,0.49,0.44,0.55,0.49,0.41,0.52,0.55,0.55,0.55,0.35,0.5,0.34,0.47,0.34,0.47,0.55,0.5,0.5,0.55,0.33,0.52,0.41,0.84,0.47,0.34,0.35,0.25" style="fill:rgb(0,0,0);font-family:MinionPro-Bold;font-size:10.0px;stroke:none;">S5 Dataset. NE OR views on climate &amp;renewable energy, by age group (Stata 15 format).</text>
   <text y="284.711" x="200.012,203.402,210.752,216.852,223.682" svgx:width="0.34,0.74,0.61,0.69,0.34" style="fill:rgb(0,0,0);font-family:MinionPro-Regular;font-size:10.0px;stroke:none;">(DTA)</text>
   <text y="303.76" x="200.012,204.972,209.972,212.144,219.704,224.344,227.734,232.374,236.184,240.514,243.904,246.404,248.597,255.947,261.107,265.127,268.517,274.017,276.263,282.993,288.153,293.633,299.213,302.603,306.623,311.323,313.567,318.207,321.077,325.407,332.237,336.03700000000003,338.285,343.445,349.045,351.211,355.441,358.211,361.081,369.471,374.111,377.501,381.90099999999995,384.092,393.447,397.467,401.797,407.377,411.707,418.537,423.177,428.447,431.217,435.61699999999996,437.837,442.167,447.747,452.077,456.097,460.947,465.647,467.884,471.384,476.344,479.734,484.374,487.764,492.464,494.643,499.603,504.603,506.775,510.065,515.225,519.245,527.635,532.275,535.665,539.165" svgx:width="0.5,0.5,0.55,0.76,0.47,0.34,0.47,0.38,0.44,0.34,0.25,0.55,0.74,0.52,0.41,0.34,0.55,0.55,0.68,0.52,0.55,0.56,0.34,0.41,0.47,0.55,0.47,0.29,0.44,0.69,0.38,0.55,0.52,0.56,0.55,0.43,0.28,0.29,0.84,0.47,0.34,0.44,0.55,0.72,0.41,0.44,0.56,0.44,0.69,0.47,0.53,0.28,0.44,0.55,0.44,0.56,0.44,0.41,0.49,0.47,0.55,0.35,0.5,0.34,0.47,0.34,0.47,0.55,0.5,0.5,0.55,0.33,0.52,0.41,0.84,0.47,0.34,0.35,0.25" style="fill:rgb(0,0,0);font-family:MinionPro-Bold;font-size:10.0px;stroke:none;">S6 Dataset. North Country views on climate &amp;renewable energy (Stata 15 format).</text>
   <text y="316.742" x="200.012,203.402,210.752,216.852,223.682" svgx:width="0.34,0.74,0.61,0.69,0.34" style="fill:rgb(0,0,0);font-family:MinionPro-Regular;font-size:10.0px;stroke:none;">(DTA)</text>
   <text y="335.734" x="200.012,204.972,209.972,212.144,219.704,224.344,227.734,232.374,236.184,240.514,243.904,246.404,248.597,255.947,265.945,270.585,273.455,277.785,284.615,288.415,290.72,295.88,301.48,303.645,307.875,310.645,313.515,321.905,326.545,329.935,334.335,336.527,345.881,349.901,354.231,359.811,364.141,370.971,375.611,380.881,383.651,388.051,390.272,394.602,400.182,404.512,408.532,413.382,418.082,420.262,423.762,428.722,432.112,436.752,440.142,444.842,447.078,452.038,457.038,459.21,462.5,467.66,471.68,480.07,484.71,488.1,491.6" svgx:width="0.5,0.5,0.55,0.76,0.47,0.34,0.47,0.38,0.44,0.34,0.25,0.55,0.74,0.78,0.47,0.29,0.44,0.69,0.38,0.55,0.52,0.56,0.55,0.43,0.28,0.29,0.84,0.47,0.34,0.44,0.55,0.72,0.41,0.44,0.56,0.44,0.69,0.47,0.53,0.28,0.44,0.55,0.44,0.56,0.44,0.41,0.49,0.47,0.55,0.35,0.5,0.34,0.47,0.34,0.47,0.55,0.5,0.5,0.55,0.33,0.52,0.41,0.84,0.47,0.34,0.35,0.25" style="fill:rgb(0,0,0);font-family:MinionPro-Bold;font-size:10.0px;stroke:none;">S7 Dataset. NHviews on climate &amp;renewable energy (Stata 15 format).</text>
   <text y="348.717" x="200.012,203.402,210.752,216.852,223.682" svgx:width="0.34,0.74,0.61,0.69,0.34" style="fill:rgb(0,0,0);font-family:MinionPro-Regular;font-size:10.0px;stroke:none;">(DTA)</text>
   <text y="367.709" x="200.012,204.972,209.972,212.144,219.704,224.344,227.734,232.374,236.184,240.514,243.904,246.404,248.597,254.597,262.257,267.737,273.527,278.527,280.742,287.992,292.992,295.198,299.008,304.488,308.508,313.148,317.478,322.178,324.338,328.978,331.848,336.178,343.008,346.808,349.056,354.216,359.81600000000003,362.039,366.269,369.039,371.909,380.299,384.939,388.329,392.729,394.921,404.275,408.295,412.625,418.205,422.535,429.365,434.005,439.275,442.045,446.445,448.665,452.995,458.575,462.905,466.925,471.775,476.47499999999997,478.655,482.155,487.115,490.505,495.145,498.535,503.235,505.471,510.431,515.431,517.603,520.893,526.053,530.073,538.463,543.103,546.493,549.993" svgx:width="0.5,0.5,0.55,0.76,0.47,0.34,0.47,0.38,0.44,0.34,0.25,0.55,0.6,0.77,0.55,0.58,0.5,0.55,0.73,0.5,0.55,0.38,0.55,0.41,0.47,0.44,0.47,0.55,0.47,0.29,0.44,0.69,0.38,0.55,0.52,0.56,0.55,0.43,0.28,0.29,0.84,0.47,0.34,0.44,0.55,0.72,0.41,0.44,0.56,0.44,0.69,0.47,0.53,0.28,0.44,0.55,0.44,0.56,0.44,0.41,0.49,0.47,0.55,0.35,0.5,0.34,0.47,0.34,0.47,0.55,0.5,0.5,0.55,0.33,0.52,0.41,0.84,0.47,0.34,0.35,0.25" style="fill:rgb(0,0,0);font-family:MinionPro-Bold;font-size:10.0px;stroke:none;">S8 Dataset. POLES US survey views on climate &amp;renewable energy (Stata 15 format).</text>
   <text y="380.748" x="200.012,203.402,210.752,216.852,223.682" svgx:width="0.34,0.74,0.61,0.69,0.34" style="fill:rgb(0,0,0);font-family:MinionPro-Regular;font-size:10.0px;stroke:none;">(DTA)</text>
   <text y="399.74" x="200.012,204.972,209.972,212.144,219.704,224.344,227.734,232.374,236.184,240.514,243.904,246.404,248.597,255.947,261.747,263.961,271.621,275.641,279.971,284.821,289.981,295.581,297.863,302.503,305.373,309.703,316.533,320.333,322.581,327.741,333.341,335.563,339.793,342.563,345.433,353.823,358.463,361.853,366.253,368.445,377.799,381.819,386.149,391.729,396.059,402.889,407.529,412.799,415.569,419.969,422.19,426.52,432.1,436.43,440.45,445.3,450.0,452.18,455.68,460.64,464.03,468.67,472.06,476.76,478.939,483.899,488.899,491.071,494.361,499.521,503.541,511.931,516.571,519.961,523.461" svgx:width="0.5,0.5,0.55,0.76,0.47,0.34,0.47,0.38,0.44,0.34,0.25,0.55,0.74,0.58,0.55,0.77,0.41,0.44,0.49,0.52,0.56,0.55,0.47,0.29,0.44,0.69,0.38,0.55,0.52,0.56,0.55,0.43,0.28,0.29,0.84,0.47,0.34,0.44,0.55,0.72,0.41,0.44,0.56,0.44,0.69,0.47,0.53,0.28,0.44,0.55,0.44,0.56,0.44,0.41,0.49,0.47,0.55,0.35,0.5,0.34,0.47,0.34,0.47,0.55,0.5,0.5,0.55,0.33,0.52,0.41,0.84,0.47,0.34,0.35,0.25" style="fill:rgb(0,0,0);font-family:MinionPro-Bold;font-size:10.0px;stroke:none;">S9 Dataset. NE Oregon views on climate &amp;renewable energy (Stata 15 format).</text>
   <text y="412.723" x="200.012,203.402,210.752,216.852,223.682" svgx:width="0.34,0.74,0.61,0.69,0.34" style="fill:rgb(0,0,0);font-family:MinionPro-Regular;font-size:10.0px;stroke:none;">(DTA)</text>
   <text y="431.715" x="200.012,204.972,209.972,212.144,217.624,220.494,223.264,227.594,230.094,232.27,239.83,244.99,248.38,251.67,254.54,257.31,261.71,263.904,268.134,273.294,278.874,282.264,286.904,289.774,295.354,298.224,303.804,308.70399999999995,310.959,315.919,319.309,323.949,327.339,332.039,334.203,338.433,343.593,351.983,360.373,365.013,370.593,376.073,379.873,382.165,385.555,390.755,392.993,398.473,402.493,407.133,414.03299999999996,416.18,421.66,424.53,429.38" svgx:width="0.5,0.5,0.55,0.55,0.29,0.28,0.44,0.25,0.55,0.76,0.52,0.34,0.33,0.29,0.28,0.44,0.55,0.43,0.52,0.56,0.34,0.47,0.29,0.56,0.29,0.56,0.49,0.55,0.5,0.34,0.47,0.34,0.47,0.55,0.43,0.52,0.84,0.84,0.47,0.56,0.55,0.38,0.55,0.34,0.52,0.55,0.55,0.41,0.47,0.69,0.55,0.55,0.29,0.49,0.38" style="fill:rgb(0,0,0);font-family:MinionPro-Bold;font-size:10.0px;stroke:none;">S1 File. Do-file containing Stata commands to draw Figs</text>
   <text y="431.715" x="435.399" svgx:width="0.5" style="fill:rgb(58,90,166);font-family:MinionPro-Bold;font-size:10.0px;stroke:none;">1</text>
   <text y="431.715" x="440.359" svgx:width="0.51" style="fill:rgb(0,0,0);font-family:MinionPro-Bold;font-size:10.0px;stroke:none;">–</text>
   <text y="431.715" x="445.419,450.379" svgx:width="0.5,0.5" style="fill:rgb(58,90,166);font-family:MinionPro-Bold;font-size:10.0px;stroke:none;">10</text>
   <text y="431.715" x="457.566,462.206,467.786,473.286,475.481,480.961,485.291,489.311,492.601,497.761,501.781,512.444,516.254,519.644,524.284,527.674,530.544,534.354,537.744,540.614,544.844,549.484,552.284,554.567,558.797,563.437,566.207" svgx:width="0.47,0.56,0.55,0.55,0.55,0.44,0.41,0.33,0.52,0.41,0.84,0.38,0.34,0.47,0.34,0.29,0.38,0.34,0.29,0.43,0.47,0.28,0.55,0.43,0.47,0.28,0.34" style="fill:rgb(0,0,0);font-family:MinionPro-Bold;font-size:10.0px;stroke:none;">and performstatistical cal-</text>
   <text y="444.754" x="200.012,204.242,209.722,212.492,217.132,220.522,223.392,228.552,234.132,237.93200000000002,240.207,243.497,248.657" svgx:width="0.43,0.55,0.28,0.47,0.34,0.29,0.52,0.56,0.38,0.55,0.33,0.52,0.41" style="fill:rgb(0,0,0);font-family:MinionPro-Bold;font-size:10.0px;stroke:none;">culations for</text>
   <text y="444.754" x="254.89,261.3,265.94,271.21,273.98,278.38,280.572" svgx:width="0.64,0.47,0.53,0.28,0.44,0.55,0.5" style="fill:rgb(58,90,166);font-family:MinionPro-Bold;font-size:10.0px;stroke:none;">Table 3</text>
   <text y="444.754" x="287.715,291.215,296.695,299.465,304.105,306.975,312.57500000000005,314.814,318.204,322.534,327.284,330.68399999999997,332.899,336.189,341.349,345.369,353.759,358.399,361.789,364.289,366.518,370.848,375.598,379.928,384.158,389.638,393.028,397.358,401.158,403.424,406.294,411.894,414.139,419.099,422.489,427.129,430.519,435.219,437.383,442.343,447.343,449.515,456.345,459.215,462.605,468.105,470.322,474.552,479.192,482.582,488.062,490.832,495.992,499.392,501.673,504.543,510.123,513.933,517.323,521.963,524.733,527.503,531.833,537.313,540.813" svgx:width="0.35,0.55,0.28,0.47,0.29,0.56,0.55,0.34,0.44,0.48,0.34,0.55,0.33,0.52,0.41,0.84,0.47,0.34,0.25,0.55,0.44,0.48,0.44,0.43,0.55,0.34,0.44,0.38,0.55,0.29,0.56,0.55,0.5,0.34,0.47,0.34,0.47,0.55,0.5,0.5,0.55,0.69,0.29,0.34,0.55,0.55,0.43,0.47,0.34,0.55,0.28,0.52,0.34,0.55,0.29,0.56,0.38,0.34,0.47,0.28,0.28,0.44,0.55,0.35,0.25" style="fill:rgb(0,0,0);font-family:MinionPro-Bold;font-size:10.0px;stroke:none;">(plain text format, executes in Stata 15 with catplot installed).</text>
   <text y="457.737" x="200.012,203.402,210.752,218.212" svgx:width="0.34,0.74,0.75,0.34" style="fill:rgb(0,0,0);font-family:MinionPro-Regular;font-size:10.0px;stroke:none;">(DO)</text>
  </g>
  <g begin="text">
   <text y="492.888" x="200.012,208.588,215.173,221.757,229.085,236.414,245.746,249.078,255.663,262.991,270.319,280.9,287.484,294.745,298.702" svgx:width="0.72,0.55,0.55,0.61,0.61,0.78,0.28,0.55,0.61,0.61,0.88,0.55,0.61,0.33,0.55" style="fill:rgb(0,0,0);font-family:Helvetica-Bold;font-size:12.0px;stroke:none;">Acknowledgments</text>
  </g>
  <g begin="text">
   <text y="509.839" x="200.012,206.222,210.452,215.932,220.162,226.992,231.322,236.382,238.842,243.14200000000002,245.309,249.539,255.019,259.249,262.959,267.599,272.199,274.392,278.722,284.202,289.502,291.683,295.913,298.373,301.033,309.213,313.543,316.523,320.82300000000004,323.034,328.094,333.364,337.594,341.194,344.174,346.834,351.894,357.374,360.97400000000005,363.229,368.289,373.789,375.985,378.965,384.235,388.535,390.669,397.809,401.519,405.849,411.329,413.989,416.969,421.269,423.437,428.187,431.167,435.497,438.477,442.777,444.98,450.56,455.62,458.08,460.58,462.725,467.995,472.325,476.865,481.165,483.361,488.421,492.651,496.881,502.381,504.564,508.164,513.434,518.594,523.754,528.814,532.524,535.504,539.734,545.034,547.253,552.313" svgx:width="0.63,0.43,0.55,0.43,0.69,0.44,0.51,0.25,0.43,0.55,0.43,0.55,0.43,0.38,0.47,0.46,0.55,0.44,0.55,0.53,0.55,0.43,0.25,0.27,0.82,0.44,0.3,0.43,0.55,0.51,0.53,0.43,0.36,0.3,0.27,0.51,0.55,0.36,0.55,0.51,0.55,0.55,0.3,0.53,0.43,0.55,0.72,0.38,0.44,0.55,0.27,0.3,0.43,0.55,0.48,0.3,0.44,0.3,0.43,0.55,0.56,0.51,0.25,0.25,0.55,0.53,0.44,0.46,0.43,0.55,0.51,0.43,0.43,0.55,0.55,0.36,0.53,0.52,0.52,0.51,0.38,0.3,0.43,0.53,0.55,0.51,0.46" style="fill:rgb(0,0,0);font-family:MinionPro-Regular;font-size:10.0px;stroke:none;">Renewable energy and climate questions on the Granite State Poll have been supported by</text>
   <text y="522.878" x="200.012,204.652,208.362,212.692,218.172,221.152,224.75199999999998,226.997,229.867,233.577,238.637,249.051,252.031,257.301,261.601,263.734,271.084,275.414,278.394,281.054,286.114,291.594,295.924,298.424,300.641,305.391,309.621,312.281,316.511,321.991,326.221,330.521,332.729,337.999,343.059,348.329,353.809,359.079,363.409,366.389,369.049,374.109,379.609,381.825,385.215,391.315,396.585,400.885,403.084,408.454,411.114,415.654,418.314,423.794,428.49399999999997,430.694,436.484,440.194,442.854,448.124,452.764,457.064,459.21,462.6,465.99,471.57,475.07,479.82,484.57,489.32,494.07,498.82,503.57,508.37,510.63,514.96,520.44,525.74,527.921,532.671,537.421,542.171,546.921,551.671,556.421,561.171" svgx:width="0.47,0.38,0.44,0.55,0.3,0.36,0.55,0.29,0.38,0.51,0.82,0.3,0.53,0.43,0.55,0.74,0.44,0.3,0.27,0.51,0.55,0.44,0.25,0.55,0.48,0.43,0.27,0.43,0.55,0.43,0.43,0.55,0.53,0.51,0.53,0.55,0.53,0.44,0.3,0.27,0.51,0.55,0.55,0.34,0.61,0.53,0.43,0.55,0.54,0.27,0.46,0.27,0.55,0.47,0.55,0.58,0.38,0.27,0.53,0.47,0.43,0.55,0.34,0.34,0.56,0.35,0.48,0.48,0.48,0.48,0.48,0.48,0.48,0.55,0.44,0.55,0.53,0.55,0.48,0.48,0.48,0.48,0.48,0.48,0.48,0.23" style="fill:rgb(0,0,0);font-family:MinionPro-Regular;font-size:10.0px;stroke:none;">grants fromthe National Science Foundation (The Living Bridge IIP-1230460 and 1430260;</text>
   <text y="535.86" x="200.012,207.362,211.592,218.49200000000002,220.648,228.308,232.638,240.818,245.978,249.578,254.848,257.508,261.218,265.51800000000003,267.702,273.382,278.962,283.712,290.332,295.392,301.692,303.872,309.552,315.132,319.882,323.382,328.132,332.882,337.632,342.382,347.132,351.882,356.632,360.022,362.322,364.59,368.92,374.4,379.7,381.881,386.941,391.541,393.673,396.653,401.923,406.223,408.413,415.033,419.363,423.073,426.673,430.903,435.50300000000004,437.667,442.417,446.647,451.917,456.977,462.037,464.537,466.75,471.81,474.71,476.898,482.478,487.748,492.808,495.268,497.928,502.228,504.394,509.974,515.034,517.494,520.154,524.384,528.984,531.153,535.483,540.963,546.2629999999999,548.501,551.481,556.751" svgx:width="0.74,0.43,0.69,0.55,0.77,0.44,0.82,0.52,0.36,0.53,0.27,0.38,0.43,0.55,0.57,0.56,0.48,0.67,0.51,0.63,0.55,0.57,0.56,0.48,0.35,0.48,0.48,0.48,0.48,0.48,0.48,0.48,0.34,0.23,0.55,0.44,0.55,0.53,0.55,0.51,0.46,0.55,0.3,0.53,0.43,0.55,0.67,0.44,0.38,0.36,0.43,0.46,0.55,0.48,0.43,0.53,0.51,0.51,0.25,0.55,0.51,0.29,0.55,0.56,0.53,0.51,0.25,0.27,0.43,0.55,0.56,0.51,0.25,0.27,0.43,0.46,0.55,0.44,0.55,0.53,0.55,0.3,0.53,0.43" style="fill:rgb(0,0,0);font-family:MinionPro-Regular;font-size:10.0px;stroke:none;">New Hampshire EPSCoR EPS-1101245), and by the Carsey School of Public Policy and the</text>
   <text y="548.843" x="200.012,204.762,210.032,213.632,216.612,220.942,223.602,229.082,233.412,238.472,241.132,243.592,246.252,249.232,253.832,256.08,259.47,264.95,268.55,271.53,274.19,277.17,282.44,285.42,289.72,291.91,296.24,299.24,301.434,308.784,314.264,316.924,321.464,325.694,329.404,333.004,335.664,338.644,343.244,345.428,350.488,353.388,355.576,362.926,367.156,374.056,376.212,383.872,388.202,396.382,401.542,405.142,410.412,413.072,416.782,421.012,423.312,425.591,431.691,436.961,441.261,443.393,450.013,455.073,463.253,471.433,476.703,482.183,484.843,487.823,490.483,494.713,498.31300000000005,500.652,504.982,510.462,515.762,517.943,523.213,528.273,531.983,536.213,539.813,542.793,546.393,548.614,551.274" svgx:width="0.48,0.53,0.36,0.3,0.44,0.27,0.55,0.44,0.51,0.27,0.25,0.27,0.3,0.46,0.55,0.34,0.55,0.36,0.3,0.27,0.3,0.53,0.3,0.43,0.55,0.44,0.3,0.55,0.74,0.55,0.27,0.46,0.43,0.38,0.36,0.27,0.3,0.46,0.55,0.51,0.29,0.55,0.74,0.43,0.69,0.55,0.77,0.44,0.82,0.52,0.36,0.53,0.27,0.38,0.43,0.23,0.55,0.61,0.53,0.43,0.55,0.67,0.51,0.82,0.82,0.53,0.55,0.27,0.3,0.27,0.43,0.36,0.55,0.44,0.55,0.53,0.55,0.53,0.51,0.38,0.43,0.36,0.3,0.36,0.55,0.27,0.55" style="fill:rgb(0,0,0);font-family:MinionPro-Regular;font-size:10.0px;stroke:none;">Sustainability Institute at University of New Hampshire. The Communities and Forests in</text>
   <text y="561.882" x="200.012,207.472,211.182,215.412,220.052,225.112,230.612,232.836,236.226,242.846,249.676,254.946,262.406,268.616,272.01599999999996,274.279,279.439,283.149,288.209,290.769,294.999,299.229,302.229,304.439,311.269,315.599,319.199,321.447,325.047,330.317,335.477,340.637,345.697,349.407,352.387,356.617,361.91700000000003,364.136,369.196,373.79600000000005,375.929,378.909,384.179,388.479,390.669,397.499,402.139,405.849,408.509,412.739,418.009,420.469,423.449,428.719,432.429,436.759,439.259,441.465,445.795,451.275,456.575,458.756,464.026,469.086,474.146,479.446,481.66,487.87,492.1,495.7,499.93,504.26,507.97,512.2,517.5,519.758,523.148,528.628,531.288,534.268,536.928,541.258,544.238,546.898,551.438,555.668,557.968,560.179,567.529" svgx:width="0.75,0.38,0.43,0.47,0.51,0.55,0.55,0.34,0.67,0.69,0.53,0.75,0.63,0.34,0.55,0.52,0.38,0.51,0.26,0.43,0.43,0.3,0.55,0.69,0.44,0.36,0.55,0.36,0.53,0.52,0.52,0.51,0.38,0.3,0.43,0.53,0.55,0.51,0.46,0.55,0.3,0.53,0.43,0.55,0.69,0.47,0.38,0.27,0.43,0.53,0.25,0.3,0.53,0.38,0.44,0.25,0.55,0.44,0.55,0.53,0.55,0.53,0.51,0.51,0.53,0.55,0.63,0.43,0.36,0.43,0.44,0.38,0.43,0.53,0.55,0.34,0.55,0.27,0.3,0.27,0.44,0.3,0.27,0.46,0.43,0.23,0.55,0.74,0.23" style="fill:rgb(0,0,0);font-family:MinionPro-Regular;font-size:10.0px;stroke:none;">Oregon (CAFOR) project was supported by the Agricultural and Food Research Initiative, U.</text>
   <text y="574.865" x="200.012,204.762,207.062,209.196,216.546,220.776,225.936,230.266,233.976,236.956,245.136,249.366,254.846,257.846,260.106,265.166,268.066,270.254,277.084,281.724,285.434,288.094,292.324,297.594,300.054,303.034,308.304,312.014,316.314,318.556,321.946,326.696,331.446,336.196,340.946,344.446,349.196,353.946,358.696,363.446,368.196,371.696,376.446,381.196,385.946,390.696,395.49600000000004,397.698,402.028,407.508,412.808,415.046,419.796,424.546,429.296,434.046,437.546,442.296,447.046,451.796,456.546,461.296,464.796,469.546,474.296,479.046,483.796,488.546,491.936,494.236,496.457,502.557,507.827,512.127,514.315,521.665,526.725,530.435,533.415,538.7149999999999,540.904,547.524,552.584,557.854,563.334,566.314,570.024" svgx:width="0.48,0.23,0.55,0.74,0.43,0.52,0.44,0.38,0.3,0.82,0.43,0.55,0.3,0.55,0.51,0.29,0.55,0.69,0.47,0.38,0.27,0.43,0.53,0.25,0.3,0.53,0.38,0.43,0.55,0.34,0.48,0.48,0.48,0.48,0.35,0.48,0.48,0.48,0.48,0.48,0.35,0.48,0.48,0.48,0.48,0.48,0.55,0.44,0.55,0.53,0.55,0.48,0.48,0.48,0.48,0.35,0.48,0.48,0.48,0.48,0.48,0.35,0.48,0.48,0.48,0.48,0.48,0.34,0.23,0.55,0.61,0.53,0.43,0.55,0.74,0.51,0.38,0.3,0.53,0.55,0.67,0.51,0.53,0.55,0.3,0.38,0.46" style="fill:rgb(0,0,0);font-family:MinionPro-Regular;font-size:10.0px;stroke:none;">S. Department of Agriculture (2014-68002-21782 and 2010-67023-21705). The North Country</text>
   <text y="587.847" x="200.012,203.612,208.882,212.592,217.132,221.362,225.962,228.131,234.961,239.291,242.891,245.139,248.739,254.009,259.169,264.329,269.389,273.099,276.079,280.309,285.60900000000004,287.828,292.888,297.488,299.62,304.02,306.197,310.837,314.547,318.877,324.357,327.357,329.554,332.424,336.134,341.194,351.607,354.587,359.857,364.15700000000004,366.291,373.641,377.871,380.531,383.031,385.226,389.556,395.036,400.336,402.574,407.944,413.004,418.274,420.934,424.534,428.834,430.977,437.077,439.737,442.197,444.657,449.717,452.697,456.297,461.357,466.857,469.131,474.401,479.671,485.151,490.451,492.658,497.718,500.618,502.806,505.786,511.056,515.356,517.49,524.84,529.07,535.97,538.126,545.786,550.116,558.296,563.456" svgx:width="0.36,0.53,0.38,0.46,0.43,0.46,0.55,0.69,0.44,0.36,0.55,0.36,0.53,0.52,0.52,0.51,0.38,0.3,0.43,0.53,0.55,0.51,0.46,0.55,0.44,0.55,0.47,0.38,0.44,0.55,0.3,0.55,0.29,0.38,0.51,0.82,0.3,0.53,0.43,0.55,0.74,0.43,0.27,0.25,0.55,0.44,0.55,0.53,0.55,0.54,0.51,0.53,0.27,0.36,0.43,0.55,0.61,0.27,0.25,0.25,0.51,0.3,0.36,0.51,0.55,0.55,0.53,0.53,0.55,0.53,0.55,0.51,0.29,0.55,0.3,0.53,0.43,0.55,0.74,0.43,0.69,0.55,0.77,0.44,0.82,0.52,0.35" style="fill:rgb(0,0,0);font-family:MinionPro-Regular;font-size:10.0px;stroke:none;">survey was supported by a grant fromthe Neil and Louise Tillotson Fund of the New Hamp-</text>
   <text y="600.887" x="200.012,203.612,208.882,211.542,215.252,219.55200000000002,221.725,228.345,233.615,237.945,241.655,244.315,247.295,251.625,256.685,259.145,263.445,265.605,270.875,275.935,281.205,286.685,291.955,296.285,299.265,301.925,306.985,312.465,314.765,317.025,321.775,327.045,332.205,337.365,342.425,346.135,349.135,351.381,354.251,359.311,363.111,365.214,368.194,373.464,377.764,379.897,385.477,392.937,398.307,403.987,408.78700000000003,411.021,414.621,419.891,423.601,428.141,432.371,436.911,440.511,442.769,447.829,452.059,456.289,461.559,465.269,468.979,473.209,478.509,480.696,483.676,488.946,492.656,497.716,502.986,507.626,512.9259999999999,515.165,518.145,523.415,527.7149999999999,529.849,535.429,540.489,545.859,552.689" svgx:width="0.36,0.53,0.27,0.38,0.43,0.55,0.67,0.53,0.44,0.38,0.27,0.3,0.44,0.51,0.25,0.43,0.55,0.53,0.51,0.53,0.55,0.53,0.44,0.3,0.27,0.51,0.55,0.23,0.55,0.48,0.53,0.52,0.52,0.51,0.38,0.3,0.55,0.29,0.51,0.38,0.55,0.3,0.53,0.43,0.55,0.56,0.75,0.54,0.57,0.48,0.55,0.36,0.53,0.38,0.46,0.43,0.46,0.36,0.55,0.51,0.43,0.43,0.53,0.38,0.38,0.43,0.53,0.55,0.3,0.53,0.38,0.51,0.53,0.47,0.53,0.55,0.3,0.53,0.43,0.55,0.56,0.51,0.54,0.69,0.63" style="fill:rgb(0,0,0);font-family:MinionPro-Regular;font-size:10.0px;stroke:none;">shire Charitable Foundation. Support for the POLES surveys occurred through the PoLAR</text>
   <text y="613.869" x="200.012,205.592,209.922,213.632,216.612,222.092,226.322,230.032,233.632,238.902,241.562,246.762,248.994,253.634,257.344,261.674,267.154,270.154,272.351,275.221,278.931,283.991,294.405,297.385,302.655,306.955,309.145,316.495,320.825,323.805,326.465,331.525,337.005,341.335,343.835,346.052,350.802,355.032,357.692,361.922,367.402,371.632,375.932,378.083,383.353,388.413,393.683,399.163,404.433,408.763,411.743,414.403,419.463,424.963,427.235,430.625,437.975,445.325,451.005,454.505,459.255,464.005,468.755,473.505,478.255,483.005,487.755,491.145,493.445,495.72,502.55,508.03,512.63,514.769,519.829,524.989,527.649,533.129,535.789,540.849,546.329,549.929,552.2289999999999,554.453,557.323,559.983,565.463,570.733" svgx:width="0.56,0.44,0.38,0.3,0.55,0.43,0.38,0.36,0.53,0.27,0.52,0.55,0.47,0.38,0.44,0.55,0.3,0.55,0.29,0.38,0.51,0.82,0.3,0.53,0.43,0.55,0.74,0.44,0.3,0.27,0.51,0.55,0.44,0.25,0.55,0.48,0.43,0.27,0.43,0.55,0.43,0.43,0.55,0.53,0.51,0.53,0.55,0.53,0.44,0.3,0.27,0.51,0.55,0.55,0.34,0.74,0.74,0.57,0.35,0.48,0.48,0.48,0.48,0.48,0.48,0.48,0.34,0.23,0.55,0.69,0.55,0.46,0.55,0.51,0.52,0.27,0.55,0.27,0.51,0.55,0.36,0.23,0.55,0.29,0.27,0.55,0.53,0.35" style="fill:rgb(0,0,0);font-family:MinionPro-Regular;font-size:10.0px;stroke:none;">Partnership grant fromthe National Science Foundation (DUE-1239783). Any opinions, find-</text>
   <text y="626.852" x="200.012,202.672,208.152,212.792,216.392,218.692,220.874,225.204,230.684,235.984,238.166,242.396,247.456,252.936,257.166,259.626,264.896,268.496,271.156,276.216,281.696,285.29600000000005,287.601,292.661,296.461,298.543,302.253,306.483,310.713,315.773,323.953,332.133,336.363,341.843,347.113,351.443,354.423,357.083,362.143,367.623,371.223,373.547,377.777,382.417,387.577,391.287,395.517,399.117,402.717,406.947,412.247,414.536,417.196,422.696,424.854,427.834,433.104,435.764,439.36400000000003,441.578,446.738,451.068,456.228,460.458,464.25800000000004,466.467,470.797,474.507,478.807,480.923,483.903,489.173,494.233,497.833,502.13300000000004,504.28,509.34,512.24,514.428,517.408,522.678,526.978,529.168,533.498,538.768,541.748,547.018,552.078,555.788" svgx:width="0.27,0.55,0.47,0.36,0.23,0.55,0.44,0.55,0.53,0.55,0.43,0.51,0.55,0.43,0.25,0.53,0.36,0.27,0.51,0.55,0.36,0.55,0.51,0.38,0.55,0.38,0.43,0.43,0.51,0.82,0.82,0.43,0.55,0.53,0.44,0.3,0.27,0.51,0.55,0.36,0.55,0.43,0.47,0.52,0.38,0.43,0.36,0.36,0.43,0.53,0.55,0.27,0.55,0.55,0.3,0.53,0.27,0.36,0.55,0.52,0.44,0.52,0.43,0.38,0.55,0.44,0.38,0.43,0.55,0.3,0.53,0.51,0.36,0.43,0.55,0.51,0.29,0.55,0.3,0.53,0.43,0.55,0.44,0.53,0.3,0.53,0.51,0.38,0.36" style="fill:rgb(0,0,0);font-family:MinionPro-Regular;font-size:10.0px;stroke:none;">ings, and conclusions or recommendations expressed in this paper are those of the authors</text>
   <text y="639.891" x="200.012,204.342,209.822,215.122,217.303,222.573,227.673,229.832,235.312,240.372,243.372,245.592,251.072,255.302,259.532,263.762,267.362,270.962,275.292,279.002,281.662,284.122,288.72200000000004,290.946,294.656,298.886,301.756,304.216,308.446,312.676,315.676,317.875,320.855,326.125,330.425,332.559,337.099,339.759,343.989,350.819,354.41900000000004,356.653,361.713,364.613,366.801,370.401,375.671,380.831,385.991,391.051,394.761,397.741,400.401,405.881,410.58099999999996,412.835,417.895,421.605,426.245,430.575,436.055,438.715,442.835,447.165,450.145,452.805,457.865,463.345,466.945" svgx:width="0.44,0.55,0.53,0.55,0.53,0.51,0.55,0.55,0.51,0.3,0.55,0.55,0.43,0.43,0.43,0.36,0.36,0.44,0.38,0.27,0.25,0.46,0.55,0.38,0.43,0.29,0.25,0.43,0.43,0.3,0.55,0.3,0.53,0.43,0.55,0.46,0.27,0.43,0.69,0.36,0.55,0.51,0.29,0.55,0.36,0.53,0.52,0.52,0.51,0.38,0.3,0.27,0.55,0.47,0.55,0.51,0.38,0.47,0.44,0.55,0.27,0.42,0.44,0.3,0.27,0.51,0.55,0.36,0.23" style="fill:rgb(0,0,0);font-family:MinionPro-Regular;font-size:10.0px;stroke:none;">and do not necessarily reflect the views of supporting organizations.</text>
  </g>
  <g begin="text">
   <text y="668.976" x="200.012,208.588,215.917,219.873,227.201,234.53,239.09,241.737,250.313,257.642,264.97,268.926,273.507,276.839,284.167,291.496,295.452,298.784,306.113,313.441" svgx:width="0.72,0.61,0.33,0.61,0.61,0.38,0.55,0.72,0.61,0.61,0.33,0.38,0.28,0.61,0.61,0.33,0.28,0.61,0.61,0.55" style="fill:rgb(0,0,0);font-family:Helvetica-Bold;font-size:12.0px;stroke:none;">Author Contributions</text>
  </g>
  <g begin="text">
   <text y="685.984" x="200.012,206.742,211.902,217.482,221.712,226.042,231.522,234.912,240.392,245.032,247.802,250.672,255.102,259.742,263.132,266.002,271.162,276.742" svgx:width="0.68,0.52,0.56,0.43,0.44,0.55,0.34,0.55,0.47,0.28,0.29,0.45,0.47,0.34,0.29,0.52,0.56,0.25" style="fill:rgb(0,0,0);font-family:MinionPro-Bold;font-size:10.0px;stroke:none;">Conceptualization:</text>
   <text y="685.984" x="281.535,286.905,291.235,298.065,301.775,306.005,311.485,315.715,320.015,322.241,328.861,331.161,333.296,340.956,345.286,353.466,356.126,358.586,361.566,366.626,372.106,374.406,376.666,379.956,385.016,389.246,391.746,393.9,401.56,405.89,409.6,412.58,415.56,419.79,423.5,425.8,428.029,433.709,437.419,440.079,445.579,447.758,453.548,457.778,460.238,462.698" svgx:width="0.54,0.44,0.69,0.38,0.43,0.55,0.43,0.43,0.55,0.67,0.23,0.55,0.77,0.44,0.82,0.27,0.25,0.3,0.51,0.55,0.23,0.55,0.33,0.51,0.43,0.25,0.55,0.77,0.44,0.38,0.3,0.3,0.43,0.38,0.23,0.55,0.57,0.38,0.27,0.55,0.55,0.58,0.43,0.25,0.25,0.23" style="fill:rgb(0,0,0);font-family:MinionPro-Regular;font-size:10.0px;stroke:none;">Lawrence C. Hamilton, Joel Hartter, Erin Bell.</text>
   <text y="704.012" x="200.012,207.572,212.212,215.602,220.302,222.462,226.692,232.172,236.192,240.832,244.222,247.092,252.252,257.832" svgx:width="0.76,0.47,0.34,0.47,0.55,0.43,0.55,0.41,0.47,0.34,0.29,0.52,0.56,0.25" style="fill:rgb(0,0,0);font-family:MinionPro-Bold;font-size:10.0px;stroke:none;">Data curation:</text>
   <text y="704.012" x="262.6,267.97,272.3,279.13,282.84,287.07,292.55,296.78,301.08,303.249,309.869,312.16900000000004,314.36,322.02,326.35,334.53,337.19,339.65,342.63,347.69,353.17,355.47,357.673,360.963,366.023,370.253,372.753,374.908,382.568,386.898,390.608,393.588,396.568,400.798,404.508" svgx:width="0.54,0.44,0.69,0.38,0.43,0.55,0.43,0.43,0.55,0.67,0.23,0.55,0.77,0.44,0.82,0.27,0.25,0.3,0.51,0.55,0.23,0.55,0.33,0.51,0.43,0.25,0.55,0.77,0.44,0.38,0.3,0.3,0.43,0.38,0.23" style="fill:rgb(0,0,0);font-family:MinionPro-Regular;font-size:10.0px;stroke:none;">Lawrence C. Hamilton, Joel Hartter.</text>
  </g>
  <path style="fill:rgb(0,0,0);stroke:none;stroke-width:1.0;" d="M576.000 54.900 L36.000 54.900 L36.000 54.400 L576.000 54.400 "/>
  <path style="fill:rgb(0,0,0);stroke:none;stroke-width:1.0;" d="M130.470 33.080 L36.000 33.080 L36.000 48.640 L130.470 48.640 ZM93.800 47.110 L93.350 47.110 L93.350 34.250 L93.800 34.250 L93.800 47.110 Z"/>
  <path style="fill:rgb(0,0,0);stroke:none;stroke-width:1.0;" d="M48.940 36.420 C49.530 36.600 50.150 36.270 50.330 35.690 C50.520 35.100 50.190 34.470 49.600 34.290 C49.010 34.110 48.390 34.440 48.210 35.030 C48.030 35.610 48.360 36.230 48.940 36.420 "/>
  <path style="fill:rgb(0,0,0);stroke:none;stroke-width:1.0;" d="M51.540 41.950 C51.630 41.660 51.470 41.350 51.180 41.260 C50.880 41.160 50.570 41.330 50.480 41.620 C50.390 41.910 50.550 42.230 50.850 42.320 C51.140 42.410 51.450 42.240 51.540 41.950 "/>
  <path style="fill:rgb(0,0,0);stroke:none;stroke-width:1.0;" d="M45.560 34.170 C45.850 34.260 46.160 34.100 46.260 33.800 C46.350 33.510 46.180 33.200 45.890 33.110 C45.590 33.020 45.280 33.180 45.190 33.470 C45.100 33.770 45.260 34.080 45.560 34.170 "/>
  <path style="fill:rgb(0,0,0);stroke:none;stroke-width:1.0;" d="M37.880 43.810 C37.590 43.720 37.280 43.890 37.190 44.180 C37.090 44.470 37.260 44.780 37.550 44.870 C37.840 44.960 38.160 44.800 38.250 44.510 C38.340 44.220 38.170 43.900 37.880 43.810 "/>
  <path style="fill:rgb(0,0,0);stroke:none;stroke-width:1.0;" d="M47.580 46.390 C47.200 46.280 46.790 46.490 46.680 46.870 C46.560 47.250 46.770 47.660 47.150 47.780 C47.530 47.890 47.940 47.680 48.050 47.300 C48.170 46.920 47.960 46.510 47.580 46.390 "/>
  <path style="fill:rgb(0,0,0);stroke:none;stroke-width:1.0;" d="M40.300 35.480 C40.440 35.020 40.180 34.520 39.710 34.370 C39.240 34.230 38.740 34.490 38.600 34.960 C38.450 35.430 38.710 35.930 39.180 36.070 C39.650 36.220 40.150 35.950 40.300 35.480 "/>
  <path style="fill:rgb(0,0,0);stroke:none;stroke-width:1.0;" d="M42.180 46.900 C41.710 46.760 41.220 47.020 41.070 47.490 C40.930 47.960 41.190 48.460 41.660 48.600 C42.120 48.750 42.620 48.480 42.770 48.020 C42.910 47.550 42.650 47.050 42.180 46.900 "/>
  <path style="fill:rgb(0,0,0);stroke:none;stroke-width:1.0;" d="M36.870 38.310 C36.510 38.200 36.140 38.400 36.030 38.750 C35.920 39.100 36.120 39.480 36.470 39.580 C36.820 39.690 37.200 39.490 37.300 39.150 C37.410 38.790 37.220 38.420 36.870 38.310 "/>
  <path style="fill:rgb(0,0,0);stroke:none;stroke-width:1.0;" d="M47.930 42.790 C47.920 42.670 47.900 42.540 47.870 42.410 C47.850 42.290 47.820 42.160 47.780 42.030 C47.770 41.990 47.750 41.950 47.740 41.910 C47.830 41.830 47.920 41.740 48.000 41.660 C48.090 41.560 48.170 41.470 48.250 41.380 C48.300 41.310 48.350 41.240 48.390 41.170 C48.350 41.770 48.200 42.350 47.940 42.890 C47.930 42.860 47.930 42.820 47.930 42.790 M43.650 36.270 L43.650 36.270 C43.380 36.460 43.130 36.700 42.890 36.970 C42.860 36.960 42.830 36.950 42.790 36.940 C42.670 36.890 42.540 36.860 42.410 36.830 C42.290 36.800 42.160 36.770 42.050 36.750 C41.940 36.740 41.840 36.730 41.740 36.730 C42.350 36.420 43.020 36.260 43.700 36.250 C43.680 36.260 43.670 36.260 43.650 36.270 M44.930 36.380 C45.160 36.450 45.380 36.680 45.540 37.010 C45.770 37.540 45.890 38.210 45.890 39.010 C45.890 39.000 45.890 39.000 45.880 39.000 C45.770 38.880 45.660 38.770 45.540 38.660 C45.420 38.550 45.300 38.440 45.180 38.340 C45.060 38.240 44.930 38.130 44.800 38.030 C44.670 37.940 44.540 37.850 44.410 37.760 C44.280 37.670 44.150 37.580 44.010 37.500 C43.880 37.420 43.740 37.350 43.600 37.280 C43.520 37.240 43.440 37.200 43.360 37.170 C43.540 36.980 43.720 36.810 43.920 36.670 L43.920 36.670 C44.270 36.430 44.640 36.320 44.900 36.380 C44.910 36.380 44.920 36.380 44.930 36.380 M46.500 40.490 C46.550 40.570 46.610 40.640 46.650 40.720 C46.730 40.850 46.800 40.970 46.870 41.090 C46.940 41.210 47.000 41.330 47.060 41.450 C47.100 41.560 47.150 41.660 47.190 41.760 C47.160 41.780 47.130 41.810 47.100 41.830 C47.000 41.910 46.880 41.990 46.760 42.070 C46.640 42.150 46.510 42.220 46.380 42.300 C46.260 42.370 46.130 42.440 46.000 42.500 C46.220 41.860 46.390 41.190 46.500 40.490 M41.460 41.850 C41.560 40.820 41.810 39.850 42.210 38.960 C42.470 38.400 42.750 37.930 43.050 37.540 C43.160 37.590 43.270 37.640 43.390 37.700 C43.520 37.760 43.650 37.830 43.780 37.910 C43.900 37.980 44.030 38.060 44.150 38.140 C44.280 38.230 44.400 38.320 44.520 38.410 C44.640 38.500 44.760 38.600 44.880 38.700 C44.990 38.790 45.110 38.900 45.220 39.000 C45.330 39.110 45.440 39.220 45.550 39.320 C45.650 39.430 45.760 39.550 45.860 39.660 C45.860 39.660 45.870 39.670 45.870 39.680 C45.870 39.700 45.870 39.730 45.870 39.760 C45.780 40.790 45.540 41.770 45.180 42.660 C45.150 42.730 45.120 42.810 45.080 42.880 C44.960 42.920 44.840 42.970 44.710 43.000 C44.570 43.050 44.420 43.090 44.270 43.130 C44.120 43.160 43.970 43.200 43.820 43.230 C43.670 43.250 43.530 43.280 43.380 43.300 C43.230 43.320 43.080 43.340 42.930 43.350 C42.790 43.370 42.650 43.380 42.500 43.380 C42.360 43.390 42.220 43.390 42.080 43.380 C41.940 43.380 41.810 43.380 41.670 43.360 C41.600 43.360 41.540 43.350 41.480 43.340 C41.400 42.810 41.420 42.280 41.460 41.850 M43.580 45.000 C43.260 45.250 42.910 45.370 42.650 45.330 C42.350 45.280 42.060 45.030 41.860 44.660 C41.730 44.400 41.630 44.110 41.560 43.820 C41.590 43.820 41.610 43.830 41.630 43.830 C41.770 43.840 41.920 43.850 42.070 43.850 C42.120 43.850 42.170 43.850 42.220 43.850 C42.320 43.850 42.420 43.850 42.520 43.850 C42.670 43.840 42.820 43.830 42.970 43.820 C43.130 43.810 43.290 43.790 43.440 43.760 C43.600 43.740 43.760 43.710 43.910 43.680 C44.070 43.650 44.230 43.620 44.380 43.580 C44.520 43.540 44.660 43.510 44.800 43.460 C44.440 44.130 44.040 44.640 43.580 45.000 M47.700 38.400 C47.840 38.630 47.970 38.870 48.070 39.120 C48.120 39.250 48.160 39.370 48.200 39.500 C48.240 39.620 48.280 39.750 48.310 39.870 C48.340 40.040 48.340 40.210 48.280 40.370 C48.250 40.440 48.230 40.520 48.190 40.600 C48.150 40.680 48.110 40.760 48.060 40.840 C48.000 40.920 47.950 41.000 47.880 41.090 C47.810 41.170 47.740 41.260 47.670 41.340 C47.630 41.370 47.590 41.400 47.560 41.440 C47.530 41.380 47.510 41.320 47.480 41.260 C47.420 41.120 47.350 40.990 47.280 40.860 C47.210 40.730 47.130 40.610 47.050 40.480 C46.970 40.350 46.880 40.220 46.800 40.090 C46.730 40.000 46.650 39.900 46.580 39.810 C46.660 38.680 46.550 37.730 46.280 36.970 C46.840 37.340 47.330 37.810 47.700 38.400 M41.680 37.190 C41.770 37.190 41.870 37.200 41.980 37.220 C42.080 37.230 42.190 37.250 42.300 37.280 C42.390 37.300 42.490 37.330 42.590 37.360 C42.300 37.760 42.030 38.220 41.780 38.760 C41.360 39.700 41.090 40.720 40.980 41.800 C40.930 42.320 40.940 42.810 40.990 43.260 C40.970 43.260 40.940 43.250 40.920 43.250 C40.800 43.220 40.680 43.190 40.580 43.150 C40.470 43.120 40.370 43.080 40.270 43.030 C40.170 42.990 40.080 42.940 40.000 42.890 C39.910 42.840 39.840 42.790 39.780 42.730 C39.710 42.680 39.650 42.620 39.600 42.570 C39.450 42.410 39.320 42.080 39.310 42.010 L39.310 42.010 C38.900 40.430 39.340 38.730 40.560 37.560 C40.830 37.300 41.230 37.160 41.680 37.190 M39.900 43.360 C39.960 43.390 40.010 43.430 40.080 43.460 C40.190 43.510 40.310 43.550 40.430 43.600 C40.560 43.630 40.680 43.670 40.810 43.700 C40.890 43.720 40.980 43.740 41.070 43.750 C41.150 44.150 41.260 44.510 41.420 44.830 C40.820 44.470 40.290 43.980 39.900 43.360 M46.250 44.780 C45.610 45.180 44.880 45.410 44.140 45.460 C44.770 44.930 45.300 44.160 45.760 43.120 L45.760 43.120 C45.900 43.060 46.050 42.990 46.190 42.930 C46.340 42.850 46.480 42.780 46.610 42.700 C46.750 42.630 46.890 42.550 47.010 42.460 C47.130 42.390 47.240 42.310 47.350 42.230 C47.370 42.320 47.400 42.420 47.420 42.500 C47.440 42.620 47.450 42.730 47.470 42.840 C47.480 42.940 47.480 43.040 47.480 43.140 C47.480 43.240 47.470 43.330 47.450 43.410 C47.440 43.500 47.430 43.570 47.400 43.640 C47.300 43.960 46.750 44.460 46.250 44.780 M48.300 38.020 C47.560 36.840 46.420 36.030 45.110 35.690 C45.100 35.690 45.090 35.690 45.090 35.680 L45.080 35.690 C44.660 35.580 44.230 35.530 43.780 35.530 C42.770 35.530 41.790 35.810 40.940 36.350 C38.450 37.910 37.700 41.220 39.270 43.710 C40.250 45.270 41.940 46.200 43.790 46.200 C44.800 46.200 45.780 45.920 46.630 45.380 C49.120 43.810 49.870 40.510 48.300 38.020 "/>
  <path style="fill:rgb(0,0,0);stroke:none;stroke-width:1.0;" d="M42.780 41.410 C43.090 41.410 43.340 41.160 43.340 40.860 C43.340 40.550 43.090 40.300 42.780 40.300 C42.480 40.300 42.230 40.550 42.230 40.860 C42.230 41.160 42.480 41.410 42.780 41.410 "/>
  <path style="fill:rgb(0,0,0);stroke:none;stroke-width:1.0;" d="M75.110 44.000 C73.350 44.000 71.930 42.580 71.930 40.830 C71.930 39.070 73.350 37.650 75.110 37.650 C76.860 37.650 78.290 39.070 78.290 40.830 C78.290 42.580 76.860 44.000 75.110 44.000 ZM75.110 35.410 C72.120 35.410 69.690 37.830 69.690 40.830 C69.690 43.820 72.120 46.240 75.110 46.240 C78.100 46.240 80.530 43.820 80.530 40.830 C80.530 37.830 78.100 35.410 75.110 35.410 Z"/>
  <path style="fill:rgb(0,0,0);stroke:none;stroke-width:1.0;" d="M59.130 39.280 C59.130 40.170 58.460 40.860 57.310 40.860 L55.890 40.860 L55.890 37.670 L57.270 37.670 C58.420 37.670 59.130 38.220 59.130 39.250 L59.130 39.280 ZM57.460 35.590 L53.810 35.590 C53.690 35.590 53.590 35.690 53.590 35.820 L53.590 45.810 C53.590 45.930 53.690 46.030 53.810 46.030 L55.660 46.030 C55.790 46.030 55.890 45.930 55.890 45.810 L55.890 42.900 L57.240 42.900 C59.580 42.900 61.460 41.650 61.460 39.230 L61.460 39.200 C61.460 37.070 59.950 35.590 57.460 35.590 Z"/>
  <path style="fill:rgb(0,0,0);stroke:none;stroke-width:1.0;" d="M81.750 44.840 C81.690 44.770 81.670 44.660 81.730 44.570 "/>
  <path style="fill:rgb(0,0,0);stroke:none;stroke-width:1.0;" d="M81.730 44.570 C81.730 44.570 81.730 44.570 81.730 44.570 L81.890 44.350 L81.730 44.570 Z"/>
  <path style="fill:rgb(0,0,0);stroke:none;stroke-width:1.0;" d="M81.790 44.880 L81.800 44.880 C81.780 44.870 81.770 44.850 81.750 44.840 C81.760 44.860 81.770 44.870 81.790 44.880 Z"/>
  <path style="fill:rgb(0,0,0);stroke:none;stroke-width:1.0;" d="M86.270 39.780 C84.460 39.320 84.010 39.100 84.010 38.410 L84.010 38.380 C84.010 37.880 84.480 37.470 85.360 37.470 C86.130 37.470 86.960 37.710 87.780 38.210 L87.780 38.210 C87.880 38.280 88.010 38.260 88.090 38.160 L89.020 36.840 C89.080 36.740 89.050 36.620 88.960 36.550 L88.960 36.550 C87.960 35.840 86.770 35.440 85.390 35.440 C83.250 35.440 81.730 36.700 81.730 38.590 L81.730 38.620 C81.730 40.690 83.090 41.280 85.190 41.810 C86.940 42.260 87.290 42.560 87.290 43.140 L87.290 43.170 C87.290 43.780 86.730 44.150 85.790 44.150 C84.840 44.150 84.030 43.840 83.260 43.320 C83.210 43.290 83.160 43.250 83.100 43.210 L82.990 43.130 C82.890 43.060 82.750 43.090 82.680 43.190 L81.710 44.570 C81.660 44.660 81.670 44.770 81.730 44.840 C81.750 44.850 81.760 44.870 81.780 44.880 C82.950 45.750 84.350 46.180 85.740 46.180 C87.990 46.180 89.580 45.020 89.580 42.940 L89.580 42.920 C89.580 41.100 88.380 40.340 86.270 39.780 Z"/>
  <path style="fill:rgb(0,0,0);stroke:none;stroke-width:1.0;" d="M69.510 44.170 C69.510 44.160 69.510 44.150 69.510 44.150 L69.510 45.830 C69.510 45.820 69.510 45.810 69.510 45.810 L69.510 44.170 Z"/>
  <path style="fill:rgb(0,0,0);stroke:none;stroke-width:1.0;" d="M69.290 43.940 C69.290 43.940 69.290 43.940 69.290 43.940 L65.190 43.940 L65.190 35.820 C65.190 35.690 65.090 35.590 64.960 35.590 L63.110 35.590 C62.990 35.590 62.890 35.690 62.890 35.820 L62.890 45.810 C62.890 45.930 62.990 46.030 63.110 46.030 L69.290 46.030 C69.410 46.030 69.500 45.940 69.510 45.830 L69.510 44.150 C69.500 44.040 69.410 43.950 69.290 43.940 Z"/>
  <path style="fill:rgb(0,0,0);stroke:none;stroke-width:1.0;" d="M105.660 40.860 L105.660 40.830 C105.660 38.740 104.140 37.020 102.000 37.020 C99.860 37.020 98.370 38.710 98.370 40.800 L98.370 40.830 C98.370 42.930 99.890 44.650 102.030 44.650 C104.170 44.650 105.660 42.960 105.660 40.860 ZM96.380 40.860 L96.380 40.830 C96.380 37.800 98.720 35.260 102.030 35.260 C105.340 35.260 107.650 37.770 107.650 40.800 L107.650 40.830 C107.650 43.870 105.310 46.410 102.000 46.410 C98.690 46.410 96.380 43.900 96.380 40.860 Z"/>
  <path style="fill:rgb(0,0,0);stroke:none;stroke-width:1.0;" d="M110.090 35.450 L111.850 35.450 L117.620 42.900 L117.620 35.450 L119.480 35.450 L119.480 46.220 L117.900 46.220 L111.960 38.560 L111.960 46.220 L110.090 46.220 L110.090 35.450 Z"/>
  <path style="fill:rgb(0,0,0);stroke:none;stroke-width:1.0;" d="M122.410 35.450 L130.400 35.450 L130.400 37.140 L124.300 37.140 L124.300 39.940 L129.700 39.940 L129.700 41.650 L124.300 41.650 L124.300 44.530 L130.470 44.530 L130.470 46.220 L122.410 46.220 L122.410 35.450 Z"/>
  <g begin="text">
   <text y="46.205" x="305.291,311.499,315.875,320.251,324.627,327.251,331.627,333.835,335.539,339.816,344.21599999999995,345.939,350.315,354.691,359.067,363.067,364.761,366.465,370.86499999999995,372.585,378.288,383.648,385.284,389.66,394.035,398.411,400.115,401.819,405.819,407.507,411.883,416.259,417.963,422.339,424.043,428.419,432.81899999999996,434.493,438.869,443.269,444.981,447.605,451.981,456.357,460.733,466.437,470.813,475.085,476.789,481.18899999999996,482.909,487.285,491.661,496.037,498.661,503.037,507.037,508.704,513.08,517.456,521.856,523.557,527.517,529.221,530.925,537.549,541.925,544.133,548.533,550.203,554.163,558.539,562.915,567.291,571.667" svgx:width="0.78,0.55,0.55,0.55,0.33,0.55,0.28,0.22,0.55,0.55,0.55,0.55,0.55,0.55,0.5,0.55,0.22,0.55,0.55,0.72,0.67,0.55,0.55,0.55,0.55,0.22,0.22,0.5,0.55,0.55,0.55,0.22,0.55,0.22,0.55,0.55,0.55,0.55,0.55,0.55,0.33,0.55,0.55,0.55,0.72,0.55,0.55,0.22,0.55,0.55,0.55,0.55,0.55,0.33,0.55,0.5,0.55,0.55,0.55,0.55,0.55,0.5,0.22,0.22,0.83,0.55,0.28,0.55,0.55,0.5,0.55,0.55,0.55,0.55,0.55" style="fill:rgb(0,0,0);font-family:Helvetica;font-size:8.0px;stroke:none;">Generation gaps in US public opinion on renewable energy and climate change</text>
  </g>
  <path style="fill:rgb(0,0,0);stroke:none;stroke-width:1.0;" d="M36.000 744.000 L576.000 744.000 L576.000 744.500 L36.000 744.500 "/>
  <path style="fill:rgb(58,90,166);stroke:none;stroke-width:1.0;" d="M81.580 757.080 L237.880 757.080 Z"/>
  <g begin="text">
   <text y="756.0" x="36.0,41.288,45.664,51.872,57.232,58.847,65.055,70.759,76.119,77.782" svgx:width="0.67,0.55,0.78,0.67,0.55,0.78,0.72,0.67,0.55,0.26" style="fill:rgb(0,0,0);font-family:Helvetica;font-size:8.0px;stroke:none;">PLOS ONE |</text>
   <text y="756.0" x="81.58,85.956,88.164,90.372,94.748,98.708,100.916,103.124,105.332,109.708,114.084,115.788,117.996,122.372,124.893,129.269,131.477,135.853,140.229,142.437,146.813,151.189,155.451,159.827,162.035,163.739,168.115,172.491,175.115,179.491,183.867,185.571,187.779,192.155,196.44,200.816,205.191,207.399,211.775,216.151,220.527,224.903,229.151,233.527" svgx:width="0.55,0.28,0.28,0.55,0.5,0.28,0.28,0.28,0.55,0.55,0.22,0.28,0.55,0.33,0.55,0.28,0.55,0.55,0.28,0.55,0.55,0.55,0.55,0.28,0.22,0.55,0.55,0.33,0.55,0.55,0.22,0.28,0.55,0.55,0.55,0.55,0.28,0.55,0.55,0.55,0.55,0.55,0.55,0.55" style="fill:rgb(58,90,166);font-family:Helvetica;font-size:8.0px;stroke:none;">https://doi.org/10.1371/journal.pone.0217608</text>
   <text y="756.0" x="245.876,249.836,254.212,255.916,259.916,261.636,266.012,270.388,272.628,274.335,278.711,283.087,287.463,291.863,552.81,557.185,561.5849999999999,563.241,565.481,567.209,571.585" svgx:width="0.5,0.55,0.22,0.5,0.55,0.55,0.55,0.28,0.55,0.55,0.55,0.55,0.55,0.55,0.55,0.55,0.55,0.28,0.55,0.55,0.55" style="fill:rgb(0,0,0);font-family:Helvetica;font-size:8.0px;stroke:none;">July 10, 2019 17 / 20</text>
  </g>
 </g>
</svg>
