<?xml version="1.0" encoding="UTF-8"?>
<svg height="690.708" width="532.5371855175" xmlns="http://www.w3.org/2000/svg">
 <g style="fill:none;">
  <text svg_rhmargin="150.323" x="76.049,80.034,82.991,86.53,90.515,92.508,94.978,102.502,105.602,109.587,111.58,114.05,116.704,121.136,123.352,126.452,129.696,132.35,134.343,136.813,143.014,145.229,148.33,150.323" y="21.089000000000055" style="fill:#000000;font-family:ETIGHS+URWPalladioL-Ital;font-size:7.97px;font-style:italic;font-weight:normal;">Trop. Med. Infect. Dis. </text>
  <text x="152.314,156.299,160.284,164.269" y="21.089000000000055" svg_rhmargin="168.254" style="fill:#000000;font-family:OKHUUR+URWPalladioL-Bold;font-size:7.97px;font-style:NORMAL;font-weight:BOLD;">2018</text>
  <text svg_rhmargin="170.248" x="168.255,170.248" y="21.089000000000055" style="fill:#000000;font-family:UJCZGG+URWPalladioL-Roma;font-size:7.97px;font-style:NORMAL;font-weight:normal;">, </text>
  <text x="172.24" y="21.089000000000055" svg_rhmargin="176.225" style="fill:#000000;font-family:ETIGHS+URWPalladioL-Ital;font-size:7.97px;font-style:italic;font-weight:normal;">3</text>
  <text x="176.225,178.218,180.21,184.195,188.18,192.16500000000002,495.794,499.779,501.772,506.123,508.777,510.77,514.755" y="21.089000000000055" svg_rhmargin="518.74" style="fill:#000000;font-family:UJCZGG+URWPalladioL-Roma;font-size:7.97px;font-style:NORMAL;font-weight:normal;">, 117 9 of 11</text>
  <text x="76.535,80.549,85.63,88.587,94.501,97.885,102.966,105.923,108.88,111.42099999999999,115.465,118.89,122.203,125.007,127.964,132.273,135.088,141.297,144.254,147.455,153.603,158.114,164.242,167.199,170.512,173.316,176.629,182.177,184.992,189.301,194.382,200.032,202.837,211.312,217.226,222.093,225.406,231.32,236.188,240.202,243.017,248.565,254.693,258.707,261.511,270.484,276.033,282.241,287.109,290.066,292.881,295.838,300.14700000000005,302.951,307.463,313.011,318.926,323.234,328.102,332.116,337.857,342.938,346.251,349.208,354.949,359.817,362.622,368.17,372.184,374.999,383.474,389.388,394.255,397.568,403.482,408.35,412.36400000000003,415.168,418.481,424.395,429.263,433.572,438.44,441.254,446.335,452.544,458.753,461.71,465.023,467.98,473.528,479.442,484.523,487.48,490.285,495.152,498.364,501.737,506.605,511.117,514.429" y="55.95799999999997" svg_rhmargin="518.738" style="fill:#000000;font-family:UJCZGG+URWPalladioL-Roma;font-size:9.96px;font-style:NORMAL;font-weight:normal;">rainfall. It is difﬁcult to say whether our model is conservative or whether these additional effects</text>
  <text x="76.535,85.279,88.161,93.667,99.43,102.658,105.154,108.452,114.423,118.335,121.563,127.327,132.07,135.982,138.487,143.438,152.183,158.134,161.016,163.898,167.195,172.701,175.197,178.425,184.189,188.933,191.428,196.171,201.281,204.509,209.253,215.016,218.244,220.75,226.157,229.455,231.95,236.347,242.11,247.062,252.825,258.331,263.074,267.273,269.779,275.73,279.454,284.197,290.248,293.13,297.526,300.755,305.498,311.549,314.054,319.461,325.225,327.72,330.948,336.712,341.456,343.961,349.437,354.388,358.587,361.469,365.668,368.163,373.57,376.868,379.363,382.592,387.335,396.079,402.031,406.774,410.686,415.637,418.866,424.837,428.57,433.31399999999996,435.809,440.761,443.643,449.05,454.813,459.556,462.032,465.152,471.222,476.985,482.957,487.156,489.632,492.137,495.86,500.604,505.0,509.744,515.507" y="69.46799999999996" svg_rhmargin="518.735" style="fill:#000000;font-family:UJCZGG+URWPalladioL-Roma;font-size:9.96px;font-style:NORMAL;font-weight:normal;">might further amplify the extent of changes predicted on the basis of temperature alone. Thus, recent</text>
  <text x="76.535,79.489,88.453,94.555,98.382,103.925,109.661,114.523,123.487,128.35,134.259,137.568,141.872,144.37,147.324,153.232,155.73,164.694,170.237,176.44,181.303,184.257,187.211,190.165,196.073,201.71800000000002,204.215,209.86,212.814,218.357,223.971,229.047,232.001,234.498,237.808,241.635,246.498,252.406,258.609,262.91299999999995,265.411,268.365,274.273,276.771,282.872,286.699,291.562,296.07,299.024,305.125,308.079,311.389,316.465,319.774,322.728,328.271,334.17900000000003,336.677,341.753,347.662,353.86499999999995,356.362,364.828,369.904,373.214,378.077,382.087,384.574,389.65,395.386,400.462,403.416,406.37,411.446,417.06,420.014,422.968,425.922,429.232,434.877,437.374,441.678,447.587,453.13,459.251,462.205,468.40799999999996,470.906,476.52,481.382,485.89,491.433,500.397,505.26,507.757,512.833" y="82.97699999999998" svg_rhmargin="518.741" style="fill:#000000;font-family:UJCZGG+URWPalladioL-Roma;font-size:9.96px;font-style:NORMAL;font-weight:normal;">improvements in modelling global trends in precipitation and water availability should become an</text>
  <text x="76.535,79.431,85.224,88.468,93.236,98.769,102.7,107.677,110.57300000000001,113.071,119.053,124.029,127.96,131.20499999999998,133.703,139.137,142.451,144.949,150.931,154.683,159.45,163.67,168.438,174.23,177.475,179.973,184.949,190.742,196.82299999999998,199.321,202.635,208.636,211.881,217.882,221.634,226.40099999999998,228.9,234.881,238.634,243.401,249.482,252.378,256.797,260.042,262.938,268.372,274.164,278.384,280.873,286.307,289.62100000000004,292.119,296.538,299.434,302.33,311.119,316.095,319.34,324.10699999999997,326.605,331.024,336.816,341.793,347.585,353.119,357.886,360.384,365.36,371.153,377.23400000000004,379.732,385.355,390.332,394.263,397.159,402.135,407.639,410.535,413.432,416.328,419.572,425.106,427.604,433.038,438.831,441.329,444.225,450.018,453.332,458.099,462.518,465.763,468.659,474.093,480.094,484.314,486.812,492.894,495.79,500.01,504.777,509.753,513.973" y="96.48699999999997" svg_rhmargin="518.74" style="fill:#000000;font-family:UJCZGG+URWPalladioL-Roma;font-size:9.96px;font-style:NORMAL;font-weight:normal;">integral part of present and future predictions of climate change and variability on infectious disease</text>
  <text x="76.535,82.519,87.964,93.663,98.56,107.207,110.057,114.405,118.558,121.006,123.494,126.343,132.043,136.391,139.241,145.146,151.13,153.97,159.67,165.11499999999998,167.602,171.755,176.103,181.802,184.652,188.805,191.997,197.344,201.497,206.844,215.491,218.341,223.238,227.39,230.24,234.392,236.84,239.925,246.467,251.158,255.506,260.197,265.897,269.09,271.567,277.012,281.703,286.6,290.468,294.62,297.098,302.798,307.695,313.228,317.919,320.406,324.559,329.249,333.94,339.64,342.118,350.285,353.135,359.119,363.81,367.962,373.848,377.54,382.231,387.127,393.111,395.589,404.236,409.133,413.285,417.438,420.287,425.821,430.512,432.989,438.943,444.291,449.638,455.621,458.471,464.171,469.616,472.06399999999996,474.552,482.719,488.419,491.269,495.617,501.317,503.794,508.143,513.039" y="109.99599999999998" svg_rhmargin="518.739" style="fill:#000000;font-family:UJCZGG+URWPalladioL-Roma;font-size:9.96px;font-style:NORMAL;font-weight:normal;">dynamics, including schistosomiasis. Recent years have seen widespread massive ﬂooding, which can</text>
  <text x="76.535,79.399,84.114,89.036,95.05,97.55,100.759,106.133,108.623,112.797,118.525,123.447,126.311,129.175,131.676,137.69,140.554,144.728,150.643,155.358,159.246,163.42,168.341,171.205,173.696,178.617,184.346,190.36,192.86,197.782,203.51100000000002,206.001,210.715,216.631,219.495,225.51,230.224,238.916,241.78,246.15,248.651,254.025,259.96,263.169,268.612,272.323,277.038,281.959,287.432,289.922,295.297,298.57500000000005,301.075,305.248,309.618,315.347,318.211,322.385,325.594,330.968,335.141,340.516,349.207,352.071,356.993,361.166,364.031,368.204,370.695,373.559,376.83700000000005,379.337,384.711,389.081,393.452,399.387,403.275,407.163,410.027,415.756,421.229,423.719,426.583,432.312,434.812,440.186,444.07399999999996,446.575,450.945,453.809,459.183,463.357,468.072,470.562,473.771,479.14500000000004,481.645,486.36,492.089,498.103,502.818,511.509,514.373" y="123.505" svg_rhmargin="518.743" style="fill:#000000;font-family:UJCZGG+URWPalladioL-Roma;font-size:9.96px;font-style:NORMAL;font-weight:normal;">lead to snail dispersal and an epidemic outbreak of schistosomiasis if occurring in or close to endemic</text>
  <text x="76.535,81.462,85.176,89.896,94.822,99.0,101.463,104.547,107.868,113.60199999999999,116.095,121.021,127.042,133.062,135.929,139.141,142.008,147.388,153.122,155.585,158.069,161.281,167.015,171.73499999999999,174.228,177.085,181.263,185.44,191.382,196.102,198.594,203.974,207.255,209.738,214.664,217.532,220.744,223.611,226.823,232.764,238.785,243.504,245.96699999999998,248.46,251.672,257.407,262.333,265.545,268.028,273.763,278.689,282.867,285.36,290.808,295.528,300.248,305.98199999999997,308.465,314.2,318.919,324.397,327.265,331.984,336.359,339.571,344.291,350.311,352.804,356.971,362.351,364.844,368.125,373.052,376.205,378.668,381.161,389.861,392.728,398.206,403.941,407.15299999999996,409.636,415.577,421.312,427.332,432.051,435.766,439.047,443.767,449.334,454.26,457.127,463.069,467.995,471.207,475.927,478.41,482.785,488.519,493.446,499.18,504.658,507.526,513.26" y="137.015" svg_rhmargin="518.738" style="fill:#000000;font-family:UJCZGG+URWPalladioL-Roma;font-size:9.96px;font-style:NORMAL;font-weight:normal;">areas. In addition, the issue of altitude, that has been neglected so far, might under-evaluate changing</text>
  <text x="76.535,79.848,83.862,88.943,94.857,99.165,108.138,111.095,115.404,119.713,122.67,128.218,134.13199999999998,137.323,143.43,148.511,151.824,155.137,160.004,164.018,169.933,174.242,177.422,180.379,186.29299999999998,189.484,198.457,204.005,210.133,216.047,219.36,224.441,227.398,233.312,238.86,244.988,249.297,252.477,256.318,261.186,266.836,269.793,275.341,281.256,285.564,288.105,291.458,299.933,305.847,308.804,313.316,319.22999999999996,322.421,330.896,336.445,342.572,345.529,351.738,354.919,360.833,365.914,371.655,376.52299999999997,379.714,388.687,393.768,396.146,401.694,405.708,408.899,411.856,420.829,426.936,429.893,432.84,437.352,442.433,445.746,448.703,454.251,460.165,464.47400000000005,467.665,471.049,476.597,480.611,483.802,489.909,494.99,499.004,502.317,506.62600000000003,509.806,515.354" y="150.524" svg_rhmargin="518.738" style="fill:#000000;font-family:UJCZGG+URWPalladioL-Roma;font-size:9.96px;font-style:NORMAL;font-weight:normal;">transmission patterns in mountainous regions, which would have major implications for parts of</text>
  <text x="76.535,83.74,89.654,92.611,98.525,103.60600000000001,106.645,111.725,117.64,123.849,126.887,135.86,140.941,146.855,152.505,155.543,163.449,166.833,170.847,173.804,178.316,183.397,189.31099999999998,192.35,196.861,202.41,208.537,214.452,217.764,221.778,224.735,229.603,233.912,236.453,241.177,249.083,255.292,261.501,264.458,267.771,270.728,276.276,282.191,287.271,290.229,293.186,297.728,300.269,303.449,312.422,317.97,322.279,325.592,328.62,333.132,336.089,339.046,348.019,353.1,356.413,361.281,364.319,368.627,371.94,378.068,384.277,387.234,392.101,396.41,398.951,402.131,405.088,411.002,415.514,418.471,424.599,430.808,433.765,439.679,445.32899999999995,448.367,451.68,457.594,462.462,465.49,470.002,476.129,480.143,483.985,488.852,494.766,498.079,501.117,506.666,512.58,517.448" y="164.034" svg_rhmargin="519.988" style="fill:#000000;font-family:UJCZGG+URWPalladioL-Roma;font-size:9.96px;font-style:NORMAL;font-weight:normal;">China and many African countries. Additionally, most climate studies, including the current one,</text>
  <text x="76.535,82.525,85.377,89.534,93.887,99.798,103.955,108.111,110.591,113.444,118.346,122.041,127.492,132.18800000000002,134.668,140.119,144.814,150.167,155.617,159.49,164.391,170.283,175.988,178.841,183.194,188.095,190.948,193.428,197.585,201.938,206.839,209.692,214.388,218.544,220.995,223.475,226.328,228.779,233.474,235.925,238.376,240.856,246.562,251.463,254.659,257.512,262.864,268.57,273.471,276.324,278.77500000000003,281.255,284.951,289.647,295.097,297.95,303.303,309.008,313.91,316.76300000000003,319.243,324.144,329.85,335.84000000000003,338.32,343.77,346.623,351.975,357.397,362.298,365.151,367.631,370.484,375.18,380.718,385.414,388.267,392.423,394.874,397.953,403.05,408.402,410.883,415.236,420.137,426.029,429.225,435.136,438.822,443.51800000000003,445.998,448.851,454.203,458.556,463.457,466.31,469.163,474.065,478.76,484.75,487.23,491.583,494.436,497.288,505.944,510.846,514.042" y="177.543" svg_rhmargin="518.738" style="fill:#000000;font-family:UJCZGG+URWPalladioL-Roma;font-size:9.96px;font-style:NORMAL;font-weight:normal;">discuss large geographical scales, i.e., national, regional and global levels. To capture localized climate</text>
  <text x="76.535,80.998,86.849,91.875,97.725,103.314,108.129,112.391,114.90400000000001,117.408,121.207,126.022,131.611,134.537,140.025,145.876,150.902,153.827,156.33,160.793,163.718,166.643,175.52,180.546,183.823,188.638,191.141,200.017,205.506,211.647,216.462,219.388,223.65,226.153,231.179,234.969,239.784,242.287,248.137,252.952,257.767,263.909,268.724,274.866,277.369,280.646,286.497,291.523,294.8,297.303,301.766,306.792,312.642,315.156,320.182,324.444,328.706,331.631,337.22,343.07000000000005,345.574,354.45,359.265,362.542,367.357,372.845,376.635,382.124,385.049,390.537,396.126,399.052,403.515,408.541,411.466,413.969,420.011,425.037,429.007,434.034,442.91,447.725,451.002,455.817,459.787,464.049,466.553,471.579,474.856,477.359,481.148,485.964,488.889,493.915,497.192,500.117,505.797,510.612,513.537" y="191.05200000000002" svg_rhmargin="519.126" style="fill:#000000;font-family:UJCZGG+URWPalladioL-Roma;font-size:9.96px;font-style:NORMAL;font-weight:normal;">changes, regional climate models are needed that can assign meteorological parameters at relatively</text>
  <text x="76.535,80.844,89.817,94.897,97.855,100.812,103.881,108.189,112.701,117.782,120.739,125.607,129.916,132.974,138.055,141.012,145.321,150.869,153.41,158.226,163.561,169.689,174.201,180.11499999999998,183.184,187.695,190.653,193.61,202.583,207.664,210.976,215.844,218.903,227.875,233.424,239.633,244.5,247.457,251.766,254.835,259.347,264.428,270.342,273.411,279.518,283.349,288.897,294.639,297.596,303.805,308.673,311.741,314.698,320.612,323.996,329.545,333.559,342.532,347.612,350.925,353.882,359.431,365.34499999999997,368.414,376.889,379.846,383.159,389.073,392.132,398.259,402.568,407.435,410.819,416.947,419.904,422.973,425.93,431.478,435.99,441.071,444.028,447.097,453.306,458.173,461.486,466.567,469.524,472.481,475.54,478.497,484.411,488.923,491.88,498.008,504.217,507.174,513.088" y="204.562" svg_rhmargin="518.738" style="fill:#000000;font-family:UJCZGG+URWPalladioL-Roma;font-size:9.96px;font-style:NORMAL;font-weight:normal;">small scales also. Such climate models can provide information with useful local detail including</text>
  <text x="76.535,80.366,85.234,90.314,93.272,96.229,100.537,103.85,106.807,111.319,114.246,119.113,124.357,127.669,131.5,136.368,145.341,150.209,153.135,158.003,163.744,168.612,174.526,177.839,182.148,185.074,190.155,196.069,202.278,205.204,210.854,215.722,221.636,226.504,230.518,235.598,238.911,243.779,246.695,252.904,257.772,261.084,266.165,269.122,272.08,276.947,283.156,286.083,292.19,296.021,301.569,303.947,308.815,313.327,316.639,319.596,325.145,331.059,335.36800000000005,338.294,343.843,347.22700000000003,350.153,353.466,359.38,364.248,367.174,370.558,376.686,379.998,386.126,389.957,394.825,397.751,402.263,405.22,408.177,417.15,422.231,425.544,430.411,432.952,437.342,445.248,451.162,456.81199999999995,459.728,465.937,468.894,473.203,477.715,483.842,488.151,492.46,495.417,500.965,506.87899999999996,509.806,515.354" y="218.07100000000003" svg_rhmargin="518.738" style="fill:#000000;font-family:UJCZGG+URWPalladioL-Roma;font-size:9.96px;font-style:NORMAL;font-weight:normal;">realistic extreme events and generate detailed projections of the future climate. Any discussion of</text>
  <text x="76.535,79.776,85.563,90.32600000000001,92.801,96.112,102.108,105.349,111.344,115.093,119.85600000000001,122.341,128.416,131.309,135.525,138.766,142.694,145.587,151.085,157.081,160.322,163.215,168.644,174.431,176.906,182.335,185.64600000000002,188.122,192.337,196.752,202.539,205.432,209.648,212.889,218.318,222.533,227.962,236.741,239.635,244.606,248.822,251.715,255.931,258.41700000000003,260.902,266.878,270.626,275.389,279.604,285.6,294.379,299.142,305.217,307.692,310.934,316.363,318.848,324.346,329.109,331.585,334.478,340.265,346.34,352.335,356.75,361.512,367.587,370.073,375.571,381.09900000000005,383.575,387.989,390.883,393.776,402.555,407.527,410.768,415.53099999999995,418.006,422.421,428.208,433.179,438.966,444.494,449.257,451.742,460.034,465.463,471.458,474.352,480.42699999999996,482.902,488.401,493.164,495.639,498.95,504.945,508.186,511.08,513.973" y="231.58100000000002" svg_rhmargin="518.736" style="fill:#000000;font-family:UJCZGG+URWPalladioL-Roma;font-size:9.96px;font-style:NORMAL;font-weight:normal;">the future distribution of schistosomiasis, presumed to be induced by climate change would be futile</text>
  <text x="76.117,84.592,87.549,90.862,96.776,102.324,108.452,111.765,114.254,119.122,124.365,129.446,133.958,137.271,139.761,142.718,148.632,152.016,157.564,161.578,170.551,175.632,178.945,181.902,187.45,193.36399999999998,195.854,201.402,204.78599999999997,207.276,210.589,216.503,221.37099999999998,223.86,229.967,233.798,238.666,244.407,249.488,252.445,255.403,258.36,264.274,269.924,272.413,278.622,281.579,285.888,289.201,293.215,296.172,301.791,307.919,311.232,314.189,319.737,325.651,328.141,333.689,337.07300000000004,339.563,342.876,348.79,353.658,356.147,359.104,365.018,368.402,373.27,377.782,381.094,384.052,389.6,395.514,398.055,400.544,406.164,411.712,415.025,420.93899999999996,423.429,426.386,432.3,434.78,440.694,446.821,455.794,460.875,466.789,471.098,473.588,478.669,484.583,490.79200000000003,493.281,496.238,502.152,504.642,507.955,513.869" y="245.09000000000003" svg_rhmargin="518.737" style="fill:#000000;font-family:UJCZGG+URWPalladioL-Roma;font-size:9.96px;font-style:NORMAL;font-weight:normal;">without exact information of the prevailing distribution of the infection, both in humans and in the</text>
  <text x="76.535,79.492,85.406,88.719,93.587,97.601,106.573,111.441,117.65,120.607,125.688,129.001,133.869,137.049,141.357,147.272,152.353,155.31,158.267,161.447,167.362,172.91,177.219,180.531,183.072,188.244,191.669,194.982,198.162,201.119,205.428,208.609,211.921,217.836,222.703,226.534,231.402,234.786,240.334,244.175,249.043,252.223,256.735,260.749,263.706,267.019,269.976,274.488,279.569,282.526,285.707,289.019,294.934,300.014,303.327,306.508,309.821,315.735,320.603,323.783,329.992,332.949,338.03,343.68,349.594,355.142,359.451,362.764,365.721,370.233,373.414,376.726,381.594,386.106,392.02,397.934,400.891,406.582,412.709,417.577,421.886,425.076,430.157,436.265,442.372,445.329,448.286,453.154,459.363,462.543,467.624,471.455,476.323,479.503,483.812,488.679,494.594,498.902,501.859,505.172,508.129,513.871" y="258.59900000000005" svg_rhmargin="518.739" style="fill:#000000;font-family:UJCZGG+URWPalladioL-Roma;font-size:9.96px;font-style:NORMAL;font-weight:normal;">intermediate snail host. It is therefore critical that the diagnostic techniques applied are sensitive</text>
  <text x="76.535,81.307,87.105,92.545,98.552,104.092,109.89,112.38,115.628,121.068,123.558,129.586,135.384,141.47099999999998,143.962,148.734,154.363,159.135,164.933,167.424,170.672,176.47,181.242,183.733,186.632,189.531,195.07,200.868,204.116,208.888,213.112,216.35999999999999,218.851,221.75,227.548,230.866,235.638,240.061,243.309,246.208,251.648,257.446" y="272.10900000000004" svg_rhmargin="259.937" style="fill:#000000;font-family:UJCZGG+URWPalladioL-Roma;font-size:9.96px;font-style:NORMAL;font-weight:normal;">enough to ﬁnd even the lightest infection.</text>
  <text x="97.795,104.024,109.938,112.896,117.205,120.466,128.941,134.489,138.503,144.153,147.425,150.383,154.692,157.953,163.573,168.654,172.962,177.83,184.03900000000002,187.301,192.849,198.76299999999998,202.035,205.348,211.262,216.13,219.392,225.011,229.879,234.187,237.5,240.762,246.869,252.418,256.726,261.035,263.992,269.612,272.569,277.437,280.698,289.671,295.219,301.428,306.296,309.253,313.562,316.834,321.915,327.656,332.737,335.694,338.651,343.732,349.352,352.309,357.177,360.438,363.751,369.299,375.508,380.589,386.239,389.501,395.049,400.96299999999997,404.236,407.549,413.463,418.331,421.592,424.976,431.104,434.417,440.544,444.375,449.243,452.505,457.016,459.974,462.931,471.904,476.984,480.297,485.165,488.437,491.821,497.369,501.38300000000004,504.645,507.958,513.872" y="285.61800000000005" svg_rhmargin="518.74" style="fill:#000000;font-family:UJCZGG+URWPalladioL-Roma;font-size:9.96px;font-style:NORMAL;font-weight:normal;">This work is based on the best possible models available today on the future climate for the</text>
  <text x="76.535,80.366,85.234,89.542,92.855,95.345,100.893,104.277,106.767,110.079,115.993,120.86099999999999,123.351,127.863,132.73,138.644,141.957,148.085,152.099,156.641,159.182,162.271,171.884,174.841,178.154,184.068,189.616,195.744,199.057,201.546,206.62699999999998,209.117,215.326,220.874,227.002,232.621,235.934,238.475,240.964,246.878,252.427,260.901,265.769,271.51,276.378,279.66,282.201,284.69,288.074,294.202,297.515,303.642,307.473,312.341,314.83,317.788,323.702,328.214,332.045,336.912,341.993,346.302,351.169,357.378,359.868,364.38,369.928,378.901,385.008,391.136,394.449,397.406,403.32,408.96999999999997,411.46,417.567,423.115,431.59,436.458,440.47200000000004,442.961,451.436,454.393,457.35,460.307,462.797,468.904,473.772,477.786,486.759,489.716,493.029,495.518,504.491,510.04,513.871" y="299.128" svg_rhmargin="518.739" style="fill:#000000;font-family:UJCZGG+URWPalladioL-Roma;font-size:9.96px;font-style:NORMAL;font-weight:normal;">rest of the century. Without a doubt, however, future increased computing power will permit more</text>
  <text x="76.535,80.87,86.201,94.822,100.69,104.37,109.047,114.729,119.406,125.088,129.228,132.069,137.585,142.261,144.673,148.813,151.654,160.275,166.163,168.994,173.876,177.058,179.9,185.23,190.913,195.052,197.493,199.924,205.323,210.0,213.183,216.366,221.042,224.898,227.31,230.991,235.668,241.536,245.207,249.883,254.023,258.7,264.382,267.565,272.241,278.20599999999996,280.618,286.486,291.368,295.224,300.106,308.727,313.404,316.586,321.263,325.12,327.961,332.842,337.519,343.484,345.896,351.764,355.445,360.775,365.11,369.787,373.927,378.056,382.733,386.873,389.284,394.166,399.848,405.813,408.225,416.846,422.177,425.858,430.534,432.946,437.828,442.163,446.498,452.385,456.241,461.123,464.306,468.98199999999997,471.394,477.262,480.933,486.264,488.548,493.225,497.56,500.743,503.584,508.915,514.597" y="312.637" svg_rhmargin="518.737" style="fill:#000000;font-family:UJCZGG+URWPalladioL-Roma;font-size:9.96px;font-style:NORMAL;font-weight:normal;">comprehensive simulations, better represented parameterized processes and more accurate projections</text>
  <text x="76.535,81.491,84.723,87.221,92.177,95.062,97.947,100.445,103.329,108.077,113.678,118.426,121.311,125.514,127.99199999999999,130.49,138.758,144.527,147.411,151.813,157.582,160.09,168.843,171.727,177.239,183.008,186.24,188.738,197.005,201.753,204.638,207.523,210.021,213.758,218.506,222.709,228.686,231.571,234.803,237.301,240.185,245.954,248.452,252.655,255.54,258.425,263.936,269.705,272.937,275.822,281.334,283.831,289.888,292.772,295.895,299.196,303.944,307.681,312.43,318.199,321.43100000000004,323.928,329.886,333.623,339.035,341.355,346.103,350.505,353.736,356.621,362.033,367.802,372.005,374.483,377.596,380.937,386.706,389.204,394.161,400.217,406.274,409.159,412.39,415.275,420.687,426.456,428.934,431.433,437.202,442.158,445.39,451.367,455.283,460.239,463.12399999999997,465.622,471.579,477.349,482.097,487.866,493.279,502.031,506.78,512.549,517.505" y="326.146" svg_rhmargin="519.983" style="fill:#000000;font-family:UJCZGG+URWPalladioL-Roma;font-size:9.96px;font-style:NORMAL;font-weight:normal;">at all levels, which might well result in slightly different projections. In addition, natural phenomena,</text>
  <text x="76.535,80.81,86.889,91.366,97.234,99.714,104.755,109.03,111.52,115.997,121.038,124.324,129.365,133.842,136.776,142.382,146.656,155.559,158.493,162.969,165.449,171.146,176.651,179.585,184.061,189.102,194.97,197.904,202.38,204.861,209.69,213.592,219.671,225.731,229.017,231.951,237.456,243.324,247.59900000000002,250.089,253.023,255.957,261.563,266.392,268.872,272.159,278.027,283.068,286.35499999999996,288.835,297.243,303.111,306.045,310.521,316.389,318.879,324.384,328.861,333.337,339.417,343.399,347.2,352.03,358.19,360.67,363.604,369.472,371.962,379.282,383.264,388.305,393.911,398.952,402.239,407.743,412.784,415.265,418.199,424.067,426.547,431.588,436.629,441.67,446.711,449.232,451.722,460.624,465.665,468.025,473.529,477.511,479.992,488.895,493.724,497.011,501.84,507.345,511.327,514.261" y="339.656" svg_rhmargin="518.737" style="fill:#000000;font-family:UJCZGG+URWPalladioL-Roma;font-size:9.96px;font-style:NORMAL;font-weight:normal;">such as cataclysmic volcanic eruptions like that which occurred in Krakatoa in 1883, major meteoric</text>
  <text x="76.535,82.217,85.058,88.241,92.381,94.822,97.243,101.92,105.103,109.437,111.878,114.319,116.731,119.914,125.596,130.477,133.66,136.062,144.205,149.536,155.423,158.264,164.229,166.631,170.966,176.297,184.918,190.786,193.627,198.303,201.486,206.163,209.004,214.432,216.834,222.722,228.589,233.266,238.948,244.913,247.316,252.197,257.879,263.307,265.71,271.577,275.248,279.925,285.891,288.732,293.067,296.249,299.091,304.421,310.103,312.505,317.836,321.087,323.489,326.672,332.354,337.03,339.433,344.861,347.702,353.385,359.34999999999997,361.752,367.717,370.558,374.698,379.033,384.92,389.06,393.199,397.876,403.84099999999995,406.243,411.926,416.602,420.283,424.959,427.352,431.687,436.568,442.251,447.933,453.264,456.447,458.848,464.247,468.923,471.326,475.661,480.992,489.613,495.48,498.321,502.998,506.181,510.858,513.699" y="353.165" svg_rhmargin="519.127" style="fill:#000000;font-family:UJCZGG+URWPalladioL-Roma;font-size:9.96px;font-style:NORMAL;font-weight:normal;">hits, etc., that would completely upend any prediction of the kind discussed here cannot be completely</text>
  <text x="76.535,80.313,86.201,89.042,93.718,99.683,102.066,107.397,113.284,116.467,118.908,121.964,127.929,133.446,138.122,143.804,146.187,154.329,157.171,160.353,166.036,171.366,177.254,180.43699999999998,182.829,186.968,192.856,197.19,202.87199999999999,205.255,209.932,215.448,220.125,225.807,228.99,233.129,235.57,237.972,246.115,250.791,253.183,257.323,260.506,263.347,266.188,269.029,271.411,276.088,281.126,286.994,291.67,296.005,299.188,301.57,304.822,310.709,314.565,317.748,323.431,328.107,331.963,334.356,338.691,344.373,349.255,354.937,360.365,365.042,369.18199999999996,371.564,374.405,380.087,382.47,385.652,391.335,396.01099999999997,398.403,401.655,406.985,410.842,414.025,419.707,424.042,429.373,437.994,440.835,446.517,451.945,454.328,459.21,462.392,468.074,470.457,475.339,479.478,483.618,488.295,492.434,496.574,505.195,509.872,515.554" y="366.675" svg_rhmargin="518.737" style="fill:#000000;font-family:UJCZGG+URWPalladioL-Roma;font-size:9.96px;font-style:NORMAL;font-weight:normal;">ruled out. Even without such events, we still expect further changes in the forthcoming 6th assessment</text>
  <text x="76.535,80.291,85.063,91.051,96.49,100.425,103.673,106.164,109.481,117.232,123.887,128.869,132.187,134.677,138.901,143.324,149.122,153.895,159.982,165.989,168.888,173.66,179.74699999999999,182.238,185.556,190.995,194.93,197.421,201.177,205.949,208.848,213.62,218.602,222.826,227.59799999999998,230.088,232.988,238.786,241.276,246.258,251.239,256.22,261.202" y="380.184" svg_rhmargin="263.693" style="fill:#000000;font-family:UJCZGG+URWPalladioL-Roma;font-size:9.96px;font-style:NORMAL;font-weight:normal;">report (AR6) scheduled for release in 2022.</text>
  <text svg_rhmargin="167.715" x="76.186,83.162,88.64,91.626,97.105,102.09,105.578,107.703,114.177,119.162,124.64,127.626,131.114,134.1,139.578,145.057,148.043,151.029,156.014,161.492,165.473,167.715" y="402.271" style="fill:#000000;font-family:OKHUUR+URWPalladioL-Bold;font-size:8.97px;font-style:NORMAL;font-weight:BOLD;">Author Contributions: </text>
  <text x="170.443,176.673,181.471,186.585,190.486,194.695,199.976,202.841,208.14,212.533,215.09,217.647,222.041,226.434,229.299,231.856,236.654,241.768,243.965,246.117,252.822,255.019,259.878,262.075,264.272,266.442,271.327,276.125,279.596,287.355,291.749,294.30600000000004,296.441,300.834,305.948,310.342,312.899,317.785,321.501,324.059,327.784,329.981,332.134,338.838,341.035,345.903,348.1,350.297,352.467,355.428,360.542,365.507,369.716,373.442,376.306,378.863,383.749,388.143,391.007,393.564,398.362,403.476,405.673,407.826,413.695,415.892,421.261,423.458,425.65500000000003,427.816,435.944,439.415,441.972,444.837,447.394,452.508,457.394,466.181,470.978,474.449,477.006,481.892,484.449,489.563,493.957,496.514,498.64,504.009,507.48,511.873,514.799,517.664" y="402.271" svg_rhmargin="519.861" style="fill:#000000;font-family:UJCZGG+URWPalladioL-Roma;font-size:8.97px;font-style:NORMAL;font-weight:normal;">Conceptualization, G.Y.; Formal analysis, G.Y.; Investigation, R.B.; Writing—original draft,</text>
  <text x="76.535,83.376,85.618,90.603,92.845,95.087,97.328,105.631,109.173,111.782,114.705,117.314,122.533,127.518,136.484,139.865,144.16,149.226,151.835,156.13,163.608,165.849,172.825,175.067,179.362,184.84,187.449,190.372,192.982,198.2,203.185,205.427,207.669,213.658,215.9,221.378" y="412.403" svg_rhmargin="223.62" style="fill:#000000;font-family:UJCZGG+URWPalladioL-Roma;font-size:8.97px;font-style:NORMAL;font-weight:normal;">G.Y.; Writing—review &amp; editing, R.B.</text>
  <text svg_rhmargin="113.647" x="76.535,81.52,86.999,92.477,97.956,100.942,106.42,111.405,113.647" y="428.513" style="fill:#000000;font-family:OKHUUR+URWPalladioL-Bold;font-size:8.97px;font-style:NORMAL;font-weight:BOLD;">Funding: </text>
  <text x="116.425,123.246,125.481,130.451,132.686,134.921,139.391,143.36,148.33,153.533,158.414,165.869,168.471,172.753,178.215,183.185,187.467,191.258,193.492,196.407,201.61,205.89200000000002,208.135,213.544,218.747,223.216,228.419,232.388,234.99,239.459,242.061,244.296,248.086,253.477,258.849,264.222,269.103,272.634,275.548,277.792,280.769,284.139,289.02,296.914,299.148,302.063,307.266,311.548,313.782,316.795,321.998,324.912,329.194,332.725,337.928,342.398,345.312,347.913,352.794,357.997,362.467,365.06899999999996,367.312,374.231,378.513,383.564,387.846,390.448,395.329,400.701,408.595,412.877,418.08,420.99399999999997,423.229,429.2,433.482,437.273,441.555,446.024,449.395,453.364,458.56699999999995,460.801,467.14,471.422,476.624,479.539,482.909,487.191,489.435,492.411,495.424,502.343,508.315,514.653,517.63" y="428.513" svg_rhmargin="519.865" style="fill:#000000;font-family:UJCZGG+URWPalladioL-Roma;font-size:8.97px;font-style:NORMAL;font-weight:normal;">G.Y. acknowledges the ﬁnancial support from the International Development Research Centre (IDRC),</text>
  <text x="76.535,82.892,87.375,92.594,97.077,102.555,107.03800000000001,109.28,112.266,117.251,120.793,125.276,130.495,133.418,135.659,140.878,145.774,148.016,150.795,155.278,159.761,164.244,168.728,173.211,177.694,182.177,186.66,191.144,195.627,200.11,204.593,209.076,213.56,218.043,221.029,225.512,229.995,234.478,237.464,239.706,244.189,249.407,254.88500000000002,257.127,260.05,265.269,269.564,271.805,279.256,283.74,286.663,289.272,294.167,299.386,303.869,306.478,308.72,316.171,320.654,323.577,328.984,332.364,336.659,338.901,343.608,347.589,350.198,354.493,359.712,363.693,367.988,370.229,375.215,380.11,385.517,390.736,396.214,400.697,403.62,406.23,411.125,416.343,418.585,421.571,426.556,430.098,434.581,439.8,442.723,444.964,450.183,455.078,457.32,460.1,464.583,469.066,473.549,478.033,482.516,486.999,491.482,495.965,498.951" y="438.645" svg_rhmargin="501.193" style="fill:#000000;font-family:UJCZGG+URWPalladioL-Roma;font-size:8.97px;font-style:NORMAL;font-weight:normal;">Canada (grant no. 105509–00001002-024) and the National Nature Science Foundation (grant no. 81573261).</text>
  <text svg_rhmargin="159.457" x="76.535,83.009,87.994,93.473,98.951,101.937,105.918,108.904,112.88499999999999,115.126,120.112,123.6,125.841,129.329,134.808,137.793,142.277,145.765,150.248,154.229,157.215,159.457" y="454.754" style="fill:#000000;font-family:OKHUUR+URWPalladioL-Bold;font-size:8.97px;font-style:NORMAL;font-weight:BOLD;">Conﬂicts of Interest: </text>
  <text x="162.235,167.731,172.95,177.24499999999998,179.486,183.97,189.376,192.299,197.518,202.413,205.955,209.757,211.999,217.477,221.772,225.753,228.362,232.845,236.226,240.521,242.762,247.981,252.876,255.118,259.099,263.995,269.213,274.665,277.274,281.255,284.178,287.98,290.221,295.117,298.103,300.345,302.954,308.172,311.095,315.39,318.77,323.065,326.867,329.79" y="454.754" svg_rhmargin="332.032" style="fill:#000000;font-family:UJCZGG+URWPalladioL-Roma;font-size:8.97px;font-style:NORMAL;font-weight:normal;">The authors declare no conﬂicts of interest.</text>
  <text x="76.535,83.728,88.709,92.585,97.566,101.441,106.423,112.51,116.933,121.915" y="481.056" svg_rhmargin="126.338" style="fill:#000000;font-family:OKHUUR+URWPalladioL-Bold;font-size:9.96px;font-style:NORMAL;font-weight:BOLD;">References</text>
  <text svg_rhmargin="83.26" x="76.535,81.018,83.26" y="499.945" style="fill:#000000;font-family:UJCZGG+URWPalladioL-Roma;font-size:8.97px;font-style:NORMAL;font-weight:normal;">1. </text>
  <text x="98.05,106.891,114.246,121.195,123.40499999999999,125.66,130.08,134.501,138.921,143.342,145.55200000000002,148.381,154.437,159.432,163.853,166.425,168.998,173.418,178.307,180.88,185.115,187.369,192.196,197.342,199.915,202.487,207.633,211.867,214.077,216.889,222.034,224.917,227.799,233.112,235.322,240.68,246.037,253.411,260.784,267.335,269.545,276.919,282.064,286.891,289.101,291.674,296.819,299.701,305.059,310.204,314.439,319.355,321.919,326.153,330.079,332.961,337.196,342.597,347.018,352.42,354.992,358.741,362.976,367.396,371.145,375.379,379.128,384.485,391.832,397.252,404.094,408.515,414.421,419.248,423.668,429.07,437.433,441.854,447.167,451.588,456.008,460.428,464.849,469.269,473.69,478.605,483.936,486.509,489.082,494.077,498.312,501.804,505.552,508.125,512.952,518.098" y="499.945" svg_rhmargin="520.308" style="fill:#000000;font-family:UJCZGG+URWPalladioL-Roma;font-size:8.97px;font-style:NORMAL;font-weight:normal;">WHO. 2012. Available online: http://www.who.int/neglected_diseases/NTD_RoadMap_2012_Fullversion.</text>
  <text x="97.781,103.17,108.648,111.634,113.876,116.861,121.345,125.326,129.307,133.602,137.404,141.205,145.5,150.978,153.22,158.116,163.334,165.576,170.059,174.542,176.784,183.832,187.813,190.736,195.631,200.59,204.885,208.427,210.668,215.151,219.634,224.118,228.601,231.587" y="512.857" svg_rhmargin="233.829" style="fill:#0875b7;font-family:UJCZGG+URWPalladioL-Roma;font-size:8.97px;font-style:NORMAL;font-weight:normal;">pdf (accessed on 15 October 2018).</text>
  <text x="76.535,81.018,83.26,98.05,102.762,105.688,109.987,112.599,117.823,125.748,130.236,135.459,140.683,142.927,145.153,149.425,151.669,153.913,156.139,162.655,166.954,169.566,173.371,177.67,180.552,182.796,185.03,188.019,190.263,192.507,194.742,200.226,205.126,208.932,211.176,213.401,219.397,221.641,223.885,226.119,230.796,235.283,240.507,245.731,250.03,252.911,255.155,257.381,265.871,268.115,270.35900000000004,272.594,279.577,282.503,286.99,289.602,294.826,299.816,304.115,306.996,309.24,311.475,314.464,316.708,318.934,323.646,327.631,332.854,335.466,339.272,342.198,347.098,350.904,355.804,363.73,366.341,370.829,374.635,377.247,381.052,383.278,387.766,392.989,398.47299999999996,400.708,408.194,412.681,415.607,419.906,423.451,425.678,429.061,433.36,437.166,442.066,447.479,450.862,454.847,459.147,462.952,465.187,470.671,474.97,480.041,484.34,486.952,491.853,497.247,505.172,509.471,514.695,517.621" y="525.768" svg_rhmargin="519.865" style="fill:#000000;font-family:UJCZGG+URWPalladioL-Roma;font-size:8.97px;font-style:NORMAL;font-weight:normal;">2. Steinmann, P.; Keiser, J.; Bos, R.; Tanner, M.; Utzinger, J. Schistosomiasis and water resources development:</text>
  <text svg_rhmargin="368.525" x="98.05,102.852,107.937,111.814,114.796,119.177,127.252,131.825,134.807,137.468,141.529,144.73,148.178,152.559,157.726,160.387,164.768,171.572,173.859,177.307,185.383,189.763,192.745,197.309,200.354,204.927,210.25,214.823,217.484,222.569,226.447,229.108,232.986,235.273,238.72,243.293,248.616,254.204,257.405,261.786,265.664,268.645,271.307,279.382,283.955,286.937,291.318,295.19599999999997,298.396,303.39,306.436,309.636,315.133,319.514,324.507,330.004,332.665,337.04600000000005,340.247,344.82,347.802,351.003,354.615,357.277,361.154,366.239,368.52599999999995" y="538.6800000000001" style="fill:#000000;font-family:UJCZGG+URWPalladioL-Roma;font-size:8.97px;font-style:NORMAL;font-weight:normal;">Systematic review, meta-analysis, and estimates of people at risk. </text>
  <text svg_rhmargin="446.391" x="374.186,379.271,383.332,388.417,392.139,395.697,398.743,401.943,404.989,410.074,412.616,416.174,419.896,422.942,425.229,430.89,438.005,440.547,444.105,446.392" y="538.6800000000001" style="fill:#000000;font-family:ETIGHS+URWPalladioL-Ital;font-size:8.97px;font-style:italic;font-weight:normal;">Lancet Infect. Dis. </text>
  <text x="452.051,456.534,461.017,465.501" y="538.6800000000001" svg_rhmargin="469.984" style="fill:#000000;font-family:OKHUUR+URWPalladioL-Bold;font-size:8.97px;font-style:NORMAL;font-weight:BOLD;">2006</text>
  <text svg_rhmargin="472.27" x="469.984,472.27099999999996" y="538.6800000000001" style="fill:#000000;font-family:UJCZGG+URWPalladioL-Roma;font-size:8.97px;font-style:NORMAL;font-weight:normal;">, </text>
  <text x="475.712" y="538.6800000000001" svg_rhmargin="480.285" style="fill:#000000;font-family:ETIGHS+URWPalladioL-Ital;font-size:8.97px;font-style:italic;font-weight:normal;">6</text>
  <text x="480.285,482.572,486.01,490.583,495.156,499.729,504.302,508.875,513.447,518.02" y="538.6800000000001" svg_rhmargin="520.306" style="fill:#000000;font-family:UJCZGG+URWPalladioL-Roma;font-size:8.97px;font-style:NORMAL;font-weight:normal;">, 411–425.</text>
  <text x="98.05,101.036,107.393,110.773,115.669,119.471,123.272,129.262,133.557,136.543" y="551.591" svg_rhmargin="139.529" style="fill:#000000;font-family:UJCZGG+URWPalladioL-Roma;font-size:8.97px;font-style:NORMAL;font-weight:normal;">[CrossRef]</text>
  <text svg_rhmargin="83.26" x="76.535,81.018,83.26" y="564.5029999999999" style="fill:#000000;font-family:UJCZGG+URWPalladioL-Roma;font-size:8.97px;font-style:NORMAL;font-weight:normal;">3. </text>
  <text x="98.05,105.659,110.653,113.634,118.015,122.588,124.875,128.313,132.685,134.971,137.258,141.291,148.406,151.068,156.235,160.808,164.421,168.993,174.581,179.575,181.862,185.3,193.952,196.239,198.526,202.558,208.146,212.719" y="564.5029999999999" svg_rhmargin="216.597" style="fill:#000000;font-family:UJCZGG+URWPalladioL-Roma;font-size:8.97px;font-style:NORMAL;font-weight:normal;">Hotez, P.; Alvarado, M.; Bas</text>
  <text x="216.598" y="564.5029999999999" svg_rhmargin="221.171" style="fill:#000000;font-family:YVYBFX+VnURWPalladioL;font-size:8.97px;font-style:NORMAL;font-weight:normal;">á</text>
  <text x="221.171,226.494,230.875,235.447,237.734,241.173,249.825,252.111,254.398,258.431,264.019,269.012,271.674,274.335,276.997,282.082,286.462,289.416,291.703,295.142,298.224,300.51,302.79699999999997,306.83,312.418,317.412,322.926,326.539,331.862,336.243,338.53,341.968,348.077,350.364,352.65099999999995,356.683,362.271,367.265,372.78,376.658,380.535,383.197,388.52,392.9,396.778,401.9,404.18699999999995,407.625,416.277,418.563,420.84999999999997,424.892,430.48,433.928,438.922,443.915,449.0,453.381,456.326,458.613,462.051,466.853,469.139,471.426,475.468,481.056,484.504,489.497,497.125,502.448,504.73499999999996,508.173,515.288,517.575" y="564.5029999999999" svg_rhmargin="519.861" style="fill:#000000;font-family:UJCZGG+URWPalladioL-Roma;font-size:8.97px;font-style:NORMAL;font-weight:normal;">ñez, M.; Bolliger, I.; Bourne, R.; Boussinesq, M.; Brooker, S.; Brown, A.;</text>
  <text x="98.05,103.638,109.153,113.214,118.299,120.96,125.341,127.628,130.133,137.111,139.398,141.685,144.327,149.915,155.43,161.018,166.103,170.484,172.77100000000002,175.277,181.761,184.047,186.334,188.977,193.358,196.34,198.845,203.418,206.079,208.366,211.942,214.987,222.066,229.181,233.946,240.047,243.925,246.43,251.003,256.326,261.91400000000004,264.42,272.029,279.145,284.733,290.321,292.836,299.32,304.314,306.975,309.636,314.209,319.267,324.26,327.873,332.446,335.427,340.421,344.034,347.911,350.957,353.24399999999997,356.819,362.426,367.748,372.129,374.635,379.72,384.714,389.771,394.344,397.005,399.512,404.569,410.084,413.532,419.12,423.501,428.82399999999996,431.339,436.332,439.378,441.884,447.472,450.133,454.011,458.392,462.965,466.842,471.22299999999996,473.729,477.607,480.588,486.103,491.691,496.77599999999995,499.282,503.855,508.428,513.001,517.574" y="577.415" svg_rhmargin="519.86" style="fill:#000000;font-family:UJCZGG+URWPalladioL-Roma;font-size:8.97px;font-style:NORMAL;font-weight:normal;">Buckle, G.; Budke, C.; et al. (DALYs and HALE Collaborators). The gobal burden of disease study 2010:</text>
  <text svg_rhmargin="368.48" x="98.05,101.132,106.455,109.436,113.817,117.43,122.926,126.374,130.755,133.737,138.309,141.291,143.952,148.946,154.269,157.003,161.576,166.899,172.487,175.222,177.883,185.959,191.455,194.117,196.778,200.839,205.412,208.393,211.055,216.048,221.371,225.24900000000002,227.983,231.029,236.022,239.635,242.37,245.351,250.674,255.055,257.789,263.112,267.493,272.578,275.239,279.62,283.681,286.662,291.043,296.63100000000003,299.366,302.347,305.795,310.789,316.285,318.947,323.007,327.58,330.241,332.976,338.564,341.226,345.103,349.484,354.057,357.935,362.316,366.194,368.481" y="590.326" style="fill:#000000;font-family:UJCZGG+URWPalladioL-Roma;font-size:8.97px;font-style:NORMAL;font-weight:normal;">Interpretation and implications for the neglected tropical diseases. </text>
  <text svg_rhmargin="458.3" x="372.742,378.33,383.415,387.476,392.561,395.295,402.411,405.968,410.541,413.084,415.371,419.632,424.223,427.616,431.677,436.25,438.537,442.798,449.914,452.456,456.014,458.301" y="590.326" style="fill:#000000;font-family:ETIGHS+URWPalladioL-Ital;font-size:8.97px;font-style:italic;font-weight:normal;">PLoS Negl. Trop. Dis. </text>
  <text x="462.557,467.04,471.523,476.007" y="590.326" svg_rhmargin="480.49" style="fill:#000000;font-family:OKHUUR+URWPalladioL-Bold;font-size:8.97px;font-style:NORMAL;font-weight:BOLD;">2014</text>
  <text svg_rhmargin="482.775" x="480.489,482.77599999999995" y="590.326" style="fill:#000000;font-family:UJCZGG+URWPalladioL-Roma;font-size:8.97px;font-style:NORMAL;font-weight:normal;">, </text>
  <text x="485.634" y="590.326" svg_rhmargin="490.207" style="fill:#000000;font-family:ETIGHS+URWPalladioL-Ital;font-size:8.97px;font-style:italic;font-weight:normal;">8</text>
  <text x="490.206,492.493,495.355,499.736,504.309,508.882,513.454,518.027" y="590.326" svg_rhmargin="520.313" style="fill:#000000;font-family:UJCZGG+URWPalladioL-Roma;font-size:8.97px;font-style:NORMAL;font-weight:normal;">, e2865.</text>
  <text x="98.05,101.036,107.393,110.773,115.669,119.471,123.272,129.262,133.557,136.543,139.529,141.77,144.756,150.172,155.578,160.537,169.019,173.314,178.792" y="603.238" svg_rhmargin="181.778" style="fill:#000000;font-family:UJCZGG+URWPalladioL-Roma;font-size:8.97px;font-style:NORMAL;font-weight:normal;">[CrossRef] [PubMed]</text>
  <text x="76.535,81.018,83.26,98.05,106.918,114.296,121.266,123.483,125.717,130.373,134.31,139.471,142.052,145.812,148.703,153.545,157.304,162.146,169.976,172.557,176.991,180.751,183.331,187.09099999999998,189.335,194.265,198.699,202.636,205.527,207.762,212.418,217.579,221.826,226.074,228.965,231.208,236.05,239.00300000000001,241.238,245.672,250.106,252.34,257.271,261.518,266.422,269.854,275.201,279.635,283.138,288.06899999999996,290.312,294.746,299.18,303.614,308.048,310.265,313.04,319.115,324.125,328.559,331.139,333.72,338.154,343.058,345.638,349.88599999999997,352.121,356.962,362.123,364.704,367.285,372.446,376.693,378.90999999999997,381.695,386.856,389.747,392.637,397.967,400.184,405.558,410.932,418.327,425.723,432.294,434.511,441.907,447.068,451.91,454.127,456.707,461.868,464.759,470.133,475.294,479.533,486.928,490.688,494.147,497.481,502.323,507.165,514.995" y="616.15" svg_rhmargin="520.369" style="fill:#000000;font-family:UJCZGG+URWPalladioL-Roma;font-size:8.97px;font-style:NORMAL;font-weight:normal;">4. WHO. Schistosomiasis Fact Sheet of 20 February 2018. Available online: http://www.who.int/news-room/</text>
  <text x="98.05,101.036,105.519,109.5,112.423,115.911,119.713,124.931,129.226,133.521,136.444,140.246,145.68,151.158,155.453,158.376,162.859,165.468,168.069,173.502,177.304,181.285,186.504,189.113,192.915,195.838,200.733,204.535,209.431,217.348,219.957,224.44,228.242,230.851,234.653,236.895,239.881,244.364,248.345,252.326,256.621,260.423,264.224,268.519,273.997,276.239,281.135,286.353,288.595,293.078,297.561,299.803,306.779,312.186,317.171,322.578,326.379,329.302,331.544,336.027,340.511,344.994,349.477,352.463" y="629.061" svg_rhmargin="354.705" style="fill:#0875b7;font-family:UJCZGG+URWPalladioL-Roma;font-size:8.97px;font-style:NORMAL;font-weight:normal;">fact-sheets/detail/schistosomiasis (accessed on 20 August 2018).</text>
  <text svg_rhmargin="83.26" x="76.535,81.018,83.26" y="641.973" style="fill:#000000;font-family:UJCZGG+URWPalladioL-Roma;font-size:8.97px;font-style:NORMAL;font-weight:normal;">5. </text>
  <text svg_rhmargin="237.018" x="98.05,106.837,114.148,121.05499999999999,123.067,125.993,133.954,138.752,142.223,144.78,150.149,152.152,159.463,163.672,168.065,170.622,173.487,178.601,180.613,187.52,190.824,195.71,200.103,205.217,207.774,212.168,216.561,219.426,221.983,226.781,231.895,234.821,237.018" y="641.973" style="fill:#000000;font-family:UJCZGG+URWPalladioL-Roma;font-size:8.97px;font-style:NORMAL;font-weight:normal;">WHO (World Health Organization). </text>
  <text x="239.72,245.089,248.349,251.767,256.161,259.579,264.464,267.39,269.833,273.735,278.62100000000004,280.624,284.525,289.411,293.805,295.817,301.678,305.579,310.465,313.391,316.642,320.543,322.986,324.999,328.9,331.34299999999996,333.346,338.232,341.808,346.202,348.645,352.063,354.989,358.89,362.308,366.21,373.046,375.489,379.39,382.809,385.251,388.669,390.682,394.583,399.469,403.863,405.866,410.752,414.653,417.096,419.539,422.465,426.841,430.259,434.16,439.046,442.464,449.3,451.743,454.669,457.595,461.014,465.408,467.411,474.247,477.665,480.108,486.944,489.387,494.273,497.199,501.592,504.035,507.937,511.355,513.798,517.216" y="641.973" svg_rhmargin="519.413" style="fill:#000000;font-family:ETIGHS+URWPalladioL-Ital;font-size:8.97px;font-style:italic;font-weight:normal;">Prevention and Control of Schistosomiasis and Soil-Transmitted Helminthiasis:</text>
  <text x="97.755,103.736,107.224,111.707,115.688,119.176,122.162,124.403,128.384,130.87699999999998,133.118,137.099,139.341,147.805,154.781,161.757,163.999,169.477,173.96,178.444,181.932,185.419,188.405,190.647,196.627,200.609,207.584,214.56,217.053,220.039,223.025,226.512" y="654.884" svg_rhmargin="230.0" style="fill:#000000;font-family:ETIGHS+URWPalladioL-Ital;font-size:8.97px;font-style:italic;font-weight:normal;">Report of a WHO Expert Committee</text>
  <text x="229.998,232.23999999999998,234.481,242.623,247.518,251.06,253.669,259.147,261.389,268.849,273.144,277.628,280.237,283.16,288.37800000000004,290.62,297.667,301.048,306.033,310.516,315.735,318.344,322.827,327.31,330.233,332.843,337.738,342.957,345.199,347.978,354.819,359.114,364.333,368.628,373.694,378.177,380.41900000000004,382.66,387.367,394.845,397.454,400.378,404.861,409.156,412.697,415.307,419.79,425.008,430.487,432.72900000000004,434.97,439.453,443.936,448.419,452.903" y="654.884" svg_rhmargin="455.145" style="fill:#000000;font-family:UJCZGG+URWPalladioL-Roma;font-size:8.97px;font-style:NORMAL;font-weight:normal;">; World Health Organization: Geneva, Switzerland, 2002.</text>
  <text x="76.535,81.018,83.26,98.054,106.537,111.943,115.485,119.027,123.51,127.5,129.742,131.983,138.34,140.582,143.568,145.809,148.051,150.302,155.78,160.676,166.065,170.359,174.843,177.08499999999998,179.335,186.311,188.552,195.492,197.734,199.976,202.226,205.212,209.695,217.612,220.222,224.023,228.919,234.137,236.379,238.621,245.561,247.802,252.635,254.87699999999998,257.127,262.624,267.842,272.137,274.388,279.373,281.982,286.878,291.836,296.319,298.928,301.17,306.129,311.535,314.916,320.394,324.689,329.90700000000004,332.158,337.054,340.03999999999996,342.281,347.76,350.369,354.171,358.466,362.949,366.75,371.045,373.296,375.905,381.123,383.374,387.857,392.341,396.824,401.307,403.54900000000004,406.337,411.045,416.451,424.369,432.286,436.769,440.311,445.296,447.538,450.918,455.213,459.015,464.422,467.031,469.954,473.756,475.998,478.248,482.049,486.344,491.563,495.365,497.974,500.897,503.506,508.572,511.181,514.104" y="667.796" svg_rhmargin="519.089" style="fill:#000000;font-family:UJCZGG+URWPalladioL-Roma;font-size:8.97px;font-style:NORMAL;font-weight:normal;">6. Murray, C.J.; Lopez, A.D.; Jamison, D.T. The global burden of disease in 1990: Summary results, sensitivity</text>
  <text svg_rhmargin="217.78" x="98.051,102.534,107.753,112.236,114.845,119.83,123.632,126.241,130.043,132.285,136.768,141.986,147.464,149.706,152.692,158.099,161.022,166.429,169.809,174.10399999999998,176.346,181.824,184.433,187.814,192.109,196.09,199.013,201.622,206.518,211.736,215.538,217.78" y="680.708" style="fill:#000000;font-family:UJCZGG+URWPalladioL-Roma;font-size:8.97px;font-style:NORMAL;font-weight:normal;">analysis and future directions. </text>
  <text svg_rhmargin="318.641" x="220.557,226.035,231.021,233.513,236.006,238.248,241.027,249.312,253.293,256.781,259.274,263.757,265.999,272.975,276.462,280.444,282.936,285.922,290.40500000000003,292.647,299.623,302.949,307.432,311.413,316.399,318.641" y="680.708" style="fill:#000000;font-family:ETIGHS+URWPalladioL-Ital;font-size:8.97px;font-style:italic;font-weight:normal;">Bull. World Health Organ. </text>
  <text x="321.418,325.901,330.384,334.868" y="680.708" svg_rhmargin="339.351" style="fill:#000000;font-family:OKHUUR+URWPalladioL-Bold;font-size:8.97px;font-style:NORMAL;font-weight:BOLD;">1994</text>
  <text svg_rhmargin="341.593" x="339.351,341.593" y="680.708" style="fill:#000000;font-family:UJCZGG+URWPalladioL-Roma;font-size:8.97px;font-style:NORMAL;font-weight:normal;">, </text>
  <text x="343.834,348.317,352.8" y="680.708" svg_rhmargin="357.283" style="fill:#000000;font-family:ETIGHS+URWPalladioL-Ital;font-size:8.97px;font-style:italic;font-weight:normal;">723</text>
  <text x="357.284,359.526,361.767,366.25,370.734,375.217,379.7,384.183,388.667,393.15" y="680.708" svg_rhmargin="395.392" style="fill:#000000;font-family:UJCZGG+URWPalladioL-Roma;font-size:8.97px;font-style:NORMAL;font-weight:normal;">, 495–509.</text>
 </g>
</svg>
