<?xml version="1.0" encoding="UTF-8"?>
<svg height="773.269" width="483.326833645" xmlns="http://www.w3.org/2000/svg">
 <g style="fill:none;">
  <text x="465.723,469.134" y="154.50199999999995" svg_rhmargin="472.505" style="fill:#ffffff;font-family:DCKHIP+MyriadPro-BoldCond;font-size:8.97px;font-style:NORMAL;font-weight:bold;">22</text>
  <text svg_rhmargin="467.523" transform="matrix(0.0,1.0,-1.0,0.0,638.963,-296.083)" x="467.523" y="171.44" style="fill:#0092cf;font-family:DCKHFA+MyriadPro-Cond;font-size:0.0px;font-style:NORMAL;font-weight:normal;">r</text>
  <text svg_rhmargin="467.523" transform="matrix(0.0,1.0,-1.0,0.0,641.681,-293.365)" x="467.523" y="174.158" style="fill:#0092cf;font-family:DCKHFA+MyriadPro-Cond;font-size:0.0px;font-style:NORMAL;font-weight:normal;">s</text>
  <text svg_rhmargin="467.523" transform="matrix(0.0,1.0,-1.0,0.0,644.848,-290.198)" x="467.523" y="177.325" style="fill:#0092cf;font-family:DCKHFA+MyriadPro-Cond;font-size:0.0px;font-style:NORMAL;font-weight:normal;">t</text>
  <text svg_rhmargin="467.523" transform="matrix(0.0,1.0,-1.0,0.0,647.642,-287.404)" x="467.523" y="180.119" style="fill:#0092cf;font-family:DCKHFA+MyriadPro-Cond;font-size:0.0px;font-style:NORMAL;font-weight:normal;">a</text>
  <text svg_rhmargin="467.523" transform="matrix(0.0,1.0,-1.0,0.0,651.631,-283.415)" x="467.523" y="184.108" style="fill:#0092cf;font-family:DCKHFA+MyriadPro-Cond;font-size:0.0px;font-style:NORMAL;font-weight:normal;">.</text>
  <text svg_rhmargin="467.523" transform="matrix(0.0,1.0,-1.0,0.0,653.757,-281.289)" x="467.523" y="186.234" style="fill:#0092cf;font-family:DCKHFA+MyriadPro-Cond;font-size:0.0px;font-style:NORMAL;font-weight:normal;">r</text>
  <text svg_rhmargin="467.523" transform="matrix(0.0,1.0,-1.0,0.0,656.323,-278.723)" x="467.523" y="188.8" style="fill:#0092cf;font-family:DCKHFA+MyriadPro-Cond;font-size:0.0px;font-style:NORMAL;font-weight:normal;">o</text>
  <text svg_rhmargin="467.523" transform="matrix(0.0,1.0,-1.0,0.0,660.436,-274.61)" x="467.523" y="192.913" style="fill:#0092cf;font-family:DCKHFA+MyriadPro-Cond;font-size:0.0px;font-style:NORMAL;font-weight:normal;">y</text>
  <text svg_rhmargin="467.523" transform="matrix(0.0,1.0,-1.0,0.0,664.126,-270.92)" x="467.523" y="196.603" style="fill:#0092cf;font-family:DCKHFA+MyriadPro-Cond;font-size:0.0px;font-style:NORMAL;font-weight:normal;">a</text>
  <text svg_rhmargin="467.523" transform="matrix(0.0,1.0,-1.0,0.0,668.115,-266.931)" x="467.523" y="200.592" style="fill:#0092cf;font-family:DCKHFA+MyriadPro-Cond;font-size:0.0px;font-style:NORMAL;font-weight:normal;">l</text>
  <text svg_rhmargin="467.523" transform="matrix(0.0,1.0,-1.0,0.0,670.208,-264.838)" x="467.523" y="202.685" style="fill:#0092cf;font-family:DCKHFA+MyriadPro-Cond;font-size:0.0px;font-style:NORMAL;font-weight:normal;">s</text>
  <text svg_rhmargin="467.523" transform="matrix(0.0,1.0,-1.0,0.0,673.375,-261.671)" x="467.523" y="205.852" style="fill:#0092cf;font-family:DCKHFA+MyriadPro-Cond;font-size:0.0px;font-style:NORMAL;font-weight:normal;">o</text>
  <text svg_rhmargin="467.523" transform="matrix(0.0,1.0,-1.0,0.0,677.572,-257.474)" x="467.523" y="210.049" style="fill:#0092cf;font-family:DCKHFA+MyriadPro-Cond;font-size:0.0px;font-style:NORMAL;font-weight:normal;">c</text>
  <text svg_rhmargin="467.523" transform="matrix(0.0,1.0,-1.0,0.0,680.882,-254.164)" x="467.523" y="213.359" style="fill:#0092cf;font-family:DCKHFA+MyriadPro-Cond;font-size:0.0px;font-style:NORMAL;font-weight:normal;">i</text>
  <text svg_rhmargin="467.523" transform="matrix(0.0,1.0,-1.0,0.0,682.898,-252.148)" x="467.523" y="215.375" style="fill:#0092cf;font-family:DCKHFA+MyriadPro-Cond;font-size:0.0px;font-style:NORMAL;font-weight:normal;">e</text>
  <text svg_rhmargin="467.523" transform="matrix(0.0,1.0,-1.0,0.0,686.876,-248.17)" x="467.523" y="219.353" style="fill:#0092cf;font-family:DCKHFA+MyriadPro-Cond;font-size:0.0px;font-style:NORMAL;font-weight:normal;">t</text>
  <text svg_rhmargin="467.523" transform="matrix(0.0,1.0,-1.0,0.0,689.784,-245.262)" x="467.523" y="222.261" style="fill:#0092cf;font-family:DCKHFA+MyriadPro-Cond;font-size:0.0px;font-style:NORMAL;font-weight:normal;">y</text>
  <text svg_rhmargin="467.523" transform="matrix(0.0,1.0,-1.0,0.0,693.575,-241.471)" x="467.523" y="226.052" style="fill:#0092cf;font-family:DCKHFA+MyriadPro-Cond;font-size:0.0px;font-style:NORMAL;font-weight:normal;">p</text>
  <text svg_rhmargin="467.523" transform="matrix(0.0,1.0,-1.0,0.0,697.948,-237.098)" x="467.523" y="230.425" style="fill:#0092cf;font-family:DCKHFA+MyriadPro-Cond;font-size:0.0px;font-style:NORMAL;font-weight:normal;">u</text>
  <text svg_rhmargin="467.523" transform="matrix(0.0,1.0,-1.0,0.0,702.31,-232.736)" x="467.523" y="234.787" style="fill:#0092cf;font-family:DCKHFA+MyriadPro-Cond;font-size:0.0px;font-style:NORMAL;font-weight:normal;">b</text>
  <text svg_rhmargin="467.523" transform="matrix(0.0,1.0,-1.0,0.0,706.682,-228.364)" x="467.523" y="239.159" style="fill:#0092cf;font-family:DCKHFA+MyriadPro-Cond;font-size:0.0px;font-style:NORMAL;font-weight:normal;">l</text>
  <text svg_rhmargin="467.523" transform="matrix(0.0,1.0,-1.0,0.0,708.775,-226.271)" x="467.523" y="241.252" style="fill:#0092cf;font-family:DCKHFA+MyriadPro-Cond;font-size:0.0px;font-style:NORMAL;font-weight:normal;">i</text>
  <text svg_rhmargin="467.523" transform="matrix(0.0,1.0,-1.0,0.0,710.792,-224.254)" x="467.523" y="243.269" style="fill:#0092cf;font-family:DCKHFA+MyriadPro-Cond;font-size:0.0px;font-style:NORMAL;font-weight:normal;">s</text>
  <text svg_rhmargin="467.523" transform="matrix(0.0,1.0,-1.0,0.0,713.959,-221.087)" x="467.523" y="246.436" style="fill:#0092cf;font-family:DCKHFA+MyriadPro-Cond;font-size:0.0px;font-style:NORMAL;font-weight:normal;">h</text>
  <text svg_rhmargin="467.523" transform="matrix(0.0,1.0,-1.0,0.0,718.397,-216.649)" x="467.523" y="250.874" style="fill:#0092cf;font-family:DCKHFA+MyriadPro-Cond;font-size:0.0px;font-style:NORMAL;font-weight:normal;">i</text>
  <text svg_rhmargin="467.523" transform="matrix(0.0,1.0,-1.0,0.0,720.414,-214.632)" x="467.523" y="252.891" style="fill:#0092cf;font-family:DCKHFA+MyriadPro-Cond;font-size:0.0px;font-style:NORMAL;font-weight:normal;">n</text>
  <text svg_rhmargin="467.523" transform="matrix(0.0,1.0,-1.0,0.0,724.852,-210.194)" x="467.523" y="257.329" style="fill:#0092cf;font-family:DCKHFA+MyriadPro-Cond;font-size:0.0px;font-style:NORMAL;font-weight:normal;">g</text>
  <text svg_rhmargin="467.523" transform="matrix(0.0,1.0,-1.0,0.0,728.982,-206.064)" x="467.523" y="261.459" style="fill:#0092cf;font-family:DCKHFA+MyriadPro-Cond;font-size:0.0px;font-style:NORMAL;font-weight:normal;">.</text>
  <text svg_rhmargin="467.523" transform="matrix(0.0,1.0,-1.0,0.0,731.106,-203.94)" x="467.523" y="263.583" style="fill:#0092cf;font-family:DCKHFA+MyriadPro-Cond;font-size:0.0px;font-style:NORMAL;font-weight:normal;">o</text>
  <text svg_rhmargin="467.523" transform="matrix(0.0,1.0,-1.0,0.0,735.304,-199.742)" x="467.523" y="267.781" style="fill:#0092cf;font-family:DCKHFA+MyriadPro-Cond;font-size:0.0px;font-style:NORMAL;font-weight:normal;">r</text>
  <text svg_rhmargin="467.523" transform="matrix(0.0,1.0,-1.0,0.0,737.868,-197.178)" x="467.523" y="270.345" style="fill:#0092cf;font-family:DCKHFA+MyriadPro-Cond;font-size:0.0px;font-style:NORMAL;font-weight:normal;">g</text>
  <text svg_rhmargin="467.523" transform="matrix(0.0,1.0,-1.0,0.0,747.727,-187.319)" x="467.523" y="280.204" style="fill:#0092cf;font-family:DCKHKA+MyriadPro-CondIt;font-size:0.0px;font-style:ITALIC;font-weight:normal;">P</text>
  <text svg_rhmargin="467.523" transform="matrix(0.0,1.0,-1.0,0.0,752.002,-183.044)" x="467.523" y="284.479" style="fill:#0092cf;font-family:DCKHKA+MyriadPro-CondIt;font-size:0.0px;font-style:ITALIC;font-weight:normal;">h</text>
  <text svg_rhmargin="467.523" transform="matrix(0.0,1.0,-1.0,0.0,756.313,-178.733)" x="467.523" y="288.79" style="fill:#0092cf;font-family:DCKHKA+MyriadPro-CondIt;font-size:0.0px;font-style:ITALIC;font-weight:normal;">i</text>
  <text svg_rhmargin="467.523" transform="matrix(0.0,1.0,-1.0,0.0,758.275,-176.771)" x="467.523" y="290.752" style="fill:#0092cf;font-family:DCKHKA+MyriadPro-CondIt;font-size:0.0px;font-style:ITALIC;font-weight:normal;">l</text>
  <text svg_rhmargin="467.523" transform="matrix(0.0,1.0,-1.0,0.0,759.894,-175.152)" x="467.523" y="292.371" style="fill:#0092cf;font-family:DCKHKA+MyriadPro-CondIt;font-size:0.0px;font-style:ITALIC;font-weight:normal;">.</text>
  <text svg_rhmargin="467.523" transform="matrix(0.0,1.0,-1.0,0.0,763.867,-171.179)" x="467.523" y="296.344" style="fill:#0092cf;font-family:DCKHKA+MyriadPro-CondIt;font-size:0.0px;font-style:ITALIC;font-weight:normal;">T</text>
  <text svg_rhmargin="467.523" transform="matrix(0.0,1.0,-1.0,0.0,767.152,-167.894)" x="467.523" y="299.629" style="fill:#0092cf;font-family:DCKHKA+MyriadPro-CondIt;font-size:0.0px;font-style:ITALIC;font-weight:normal;">r</text>
  <text svg_rhmargin="467.523" transform="matrix(0.0,1.0,-1.0,0.0,769.637,-165.409)" x="467.523" y="302.114" style="fill:#0092cf;font-family:DCKHKA+MyriadPro-CondIt;font-size:0.0px;font-style:ITALIC;font-weight:normal;">a</text>
  <text svg_rhmargin="467.523" transform="matrix(0.0,1.0,-1.0,0.0,773.803,-161.243)" x="467.523" y="306.28" style="fill:#0092cf;font-family:DCKHKA+MyriadPro-CondIt;font-size:0.0px;font-style:ITALIC;font-weight:normal;">n</text>
  <text svg_rhmargin="467.523" transform="matrix(0.0,1.0,-1.0,0.0,778.115,-156.931)" x="467.523" y="310.592" style="fill:#0092cf;font-family:DCKHKA+MyriadPro-CondIt;font-size:0.0px;font-style:ITALIC;font-weight:normal;">s</text>
  <text svg_rhmargin="467.523" transform="matrix(0.0,1.0,-1.0,0.0,781.093,-153.953)" x="467.523" y="313.57" style="fill:#0092cf;font-family:DCKHKA+MyriadPro-CondIt;font-size:0.0px;font-style:ITALIC;font-weight:normal;">.</text>
  <text svg_rhmargin="467.523" transform="matrix(0.0,1.0,-1.0,0.0,785.066,-149.98)" x="467.523" y="317.543" style="fill:#0092cf;font-family:DCKHKA+MyriadPro-CondIt;font-size:0.0px;font-style:ITALIC;font-weight:normal;">R</text>
  <text svg_rhmargin="467.523" transform="matrix(0.0,1.0,-1.0,0.0,789.431,-145.615)" x="467.523" y="321.908" style="fill:#0092cf;font-family:DCKHKA+MyriadPro-CondIt;font-size:0.0px;font-style:ITALIC;font-weight:normal;">.</text>
  <text svg_rhmargin="467.523" transform="matrix(0.0,1.0,-1.0,0.0,793.138,-141.908)" x="467.523" y="325.615" style="fill:#0092cf;font-family:DCKHKA+MyriadPro-CondIt;font-size:0.0px;font-style:ITALIC;font-weight:normal;">S</text>
  <text svg_rhmargin="467.523" transform="matrix(0.0,1.0,-1.0,0.0,796.936,-138.11)" x="467.523" y="329.413" style="fill:#0092cf;font-family:DCKHKA+MyriadPro-CondIt;font-size:0.0px;font-style:ITALIC;font-weight:normal;">o</text>
  <text svg_rhmargin="467.523" transform="matrix(0.0,1.0,-1.0,0.0,801.013,-134.033)" x="467.523" y="333.49" style="fill:#0092cf;font-family:DCKHKA+MyriadPro-CondIt;font-size:0.0px;font-style:ITALIC;font-weight:normal;">c</text>
  <text svg_rhmargin="467.523" transform="matrix(0.0,1.0,-1.0,0.0,804.082,-130.964)" x="467.523" y="336.559" style="fill:#0092cf;font-family:DCKHKA+MyriadPro-CondIt;font-size:0.0px;font-style:ITALIC;font-weight:normal;">.</text>
  <text svg_rhmargin="467.523" transform="matrix(0.0,1.0,-1.0,0.0,808.054,-126.992)" x="467.523" y="340.531" style="fill:#0092cf;font-family:DCKHKA+MyriadPro-CondIt;font-size:0.0px;font-style:ITALIC;font-weight:normal;">A</text>
  <text svg_rhmargin="467.523" transform="matrix(0.0,1.0,-1.0,0.0,814.433,-120.613)" x="467.523" y="346.91" style="fill:#0092cf;font-family:DCKHIP+MyriadPro-BoldCond;font-size:0.0px;font-style:NORMAL;font-weight:bold;">3</text>
  <text svg_rhmargin="467.523" transform="matrix(0.0,1.0,-1.0,0.0,818.394,-116.652)" x="467.523" y="350.871" style="fill:#0092cf;font-family:DCKHIP+MyriadPro-BoldCond;font-size:0.0px;font-style:NORMAL;font-weight:bold;">7</text>
  <text svg_rhmargin="467.523" transform="matrix(0.0,1.0,-1.0,0.0,822.256,-112.79)" x="467.523" y="354.733" style="fill:#0092cf;font-family:DCKHIP+MyriadPro-BoldCond;font-size:0.0px;font-style:NORMAL;font-weight:bold;">6</text>
  <text svg_rhmargin="467.523" transform="matrix(0.0,1.0,-1.0,0.0,826.926,-108.12)" x="467.523" y="359.403" style="fill:#0092cf;font-family:DCKHFA+MyriadPro-Cond;font-size:0.0px;font-style:NORMAL;font-weight:normal;">:</text>
  <text svg_rhmargin="467.523" transform="matrix(0.0,1.0,-1.0,0.0,830.769,-104.277)" x="467.523" y="363.246" style="fill:#0092cf;font-family:DCKHFA+MyriadPro-Cond;font-size:0.0px;font-style:NORMAL;font-weight:normal;">2</text>
  <text svg_rhmargin="467.523" transform="matrix(0.0,1.0,-1.0,0.0,834.45,-100.596)" x="467.523" y="366.927" style="fill:#0092cf;font-family:DCKHFA+MyriadPro-Cond;font-size:0.0px;font-style:NORMAL;font-weight:normal;">0</text>
  <text svg_rhmargin="467.523" transform="matrix(0.0,1.0,-1.0,0.0,838.67,-96.376)" x="467.523" y="371.147" style="fill:#0092cf;font-family:DCKHFA+MyriadPro-Cond;font-size:0.0px;font-style:NORMAL;font-weight:normal;">1</text>
  <text svg_rhmargin="467.523" transform="matrix(0.0,1.0,-1.0,0.0,841.608,-93.438)" x="467.523" y="374.085" style="fill:#0092cf;font-family:DCKHFA+MyriadPro-Cond;font-size:0.0px;font-style:NORMAL;font-weight:normal;">6</text>
  <text svg_rhmargin="467.523" transform="matrix(0.0,1.0,-1.0,0.0,845.829,-89.217)" x="467.523" y="378.306" style="fill:#0092cf;font-family:DCKHFA+MyriadPro-Cond;font-size:0.0px;font-style:NORMAL;font-weight:normal;">0</text>
  <text svg_rhmargin="467.523" transform="matrix(0.0,1.0,-1.0,0.0,850.049,-84.997)" x="467.523" y="382.526" style="fill:#0092cf;font-family:DCKHFA+MyriadPro-Cond;font-size:0.0px;font-style:NORMAL;font-weight:normal;">4</text>
  <text svg_rhmargin="467.523" transform="matrix(0.0,1.0,-1.0,0.0,854.17,-80.876)" x="467.523" y="386.647" style="fill:#0092cf;font-family:DCKHFA+MyriadPro-Cond;font-size:0.0px;font-style:NORMAL;font-weight:normal;">5</text>
  <text svg_rhmargin="467.523" transform="matrix(0.0,1.0,-1.0,0.0,858.04,-77.006)" x="467.523" y="390.517" style="fill:#0092cf;font-family:DCKHFA+MyriadPro-Cond;font-size:0.0px;font-style:NORMAL;font-weight:normal;">0</text>
  <text svg_rhmargin="461.169" transform="matrix(0.0,1.0,-1.0,0.0,635.291,-287.047)" x="461.169" y="174.122" style="fill:#000000;font-family:DCKHCA+Palatino-Roman;font-size:0.0px;font-style:NORMAL;font-weight:normal;">.</text>
  <text svg_rhmargin="461.169" transform="matrix(0.0,1.0,-1.0,0.0,639.236,-283.102)" x="461.169" y="178.067" style="fill:#000000;font-family:DCKHCA+Palatino-Roman;font-size:0.0px;font-style:NORMAL;font-weight:normal;">.</text>
  <text svg_rhmargin="461.169" transform="matrix(0.0,1.0,-1.0,0.0,643.181,-279.157)" x="461.169" y="182.012" style="fill:#000000;font-family:DCKHCA+Palatino-Roman;font-size:0.0px;font-style:NORMAL;font-weight:normal;">.</text>
  <text svg_rhmargin="461.169" transform="matrix(0.0,1.0,-1.0,0.0,647.127,-275.211)" x="461.169" y="185.958" style="fill:#000000;font-family:DCKHCA+Palatino-Roman;font-size:0.0px;font-style:NORMAL;font-weight:normal;">.</text>
  <text svg_rhmargin="461.169" transform="matrix(0.0,1.0,-1.0,0.0,651.072,-271.266)" x="461.169" y="189.903" style="fill:#000000;font-family:DCKHCA+Palatino-Roman;font-size:0.0px;font-style:NORMAL;font-weight:normal;">.</text>
  <text svg_rhmargin="461.169" transform="matrix(0.0,1.0,-1.0,0.0,655.017,-267.321)" x="461.169" y="193.848" style="fill:#000000;font-family:DCKHCA+Palatino-Roman;font-size:0.0px;font-style:NORMAL;font-weight:normal;">.</text>
  <text svg_rhmargin="461.169" transform="matrix(0.0,1.0,-1.0,0.0,658.962,-263.376)" x="461.169" y="197.793" style="fill:#000000;font-family:DCKHCA+Palatino-Roman;font-size:0.0px;font-style:NORMAL;font-weight:normal;">.</text>
  <text svg_rhmargin="461.169" transform="matrix(0.0,1.0,-1.0,0.0,662.907,-259.431)" x="461.169" y="201.738" style="fill:#000000;font-family:DCKHCA+Palatino-Roman;font-size:0.0px;font-style:NORMAL;font-weight:normal;">.</text>
  <text svg_rhmargin="461.169" transform="matrix(0.0,1.0,-1.0,0.0,666.853,-255.485)" x="461.169" y="205.684" style="fill:#000000;font-family:DCKHCA+Palatino-Roman;font-size:0.0px;font-style:NORMAL;font-weight:normal;">.</text>
  <text svg_rhmargin="461.169" transform="matrix(0.0,1.0,-1.0,0.0,670.798,-251.54)" x="461.169" y="209.629" style="fill:#000000;font-family:DCKHCA+Palatino-Roman;font-size:0.0px;font-style:NORMAL;font-weight:normal;">.</text>
  <text svg_rhmargin="461.169" transform="matrix(0.0,1.0,-1.0,0.0,674.743,-247.595)" x="461.169" y="213.574" style="fill:#000000;font-family:DCKHCA+Palatino-Roman;font-size:0.0px;font-style:NORMAL;font-weight:normal;">.</text>
  <text svg_rhmargin="461.169" transform="matrix(0.0,1.0,-1.0,0.0,678.688,-243.65)" x="461.169" y="217.519" style="fill:#000000;font-family:DCKHCA+Palatino-Roman;font-size:0.0px;font-style:NORMAL;font-weight:normal;">.</text>
  <text svg_rhmargin="461.169" transform="matrix(0.0,1.0,-1.0,0.0,682.633,-239.705)" x="461.169" y="221.464" style="fill:#000000;font-family:DCKHCA+Palatino-Roman;font-size:0.0px;font-style:NORMAL;font-weight:normal;">.</text>
  <text svg_rhmargin="461.169" transform="matrix(0.0,1.0,-1.0,0.0,686.578,-235.76)" x="461.169" y="225.409" style="fill:#000000;font-family:DCKHCA+Palatino-Roman;font-size:0.0px;font-style:NORMAL;font-weight:normal;">.</text>
  <text svg_rhmargin="461.169" transform="matrix(0.0,1.0,-1.0,0.0,690.524,-231.814)" x="461.169" y="229.355" style="fill:#000000;font-family:DCKHCA+Palatino-Roman;font-size:0.0px;font-style:NORMAL;font-weight:normal;">.</text>
  <text svg_rhmargin="461.169" transform="matrix(0.0,1.0,-1.0,0.0,694.469,-227.869)" x="461.169" y="233.3" style="fill:#000000;font-family:DCKHCA+Palatino-Roman;font-size:0.0px;font-style:NORMAL;font-weight:normal;">.</text>
  <text svg_rhmargin="461.169" transform="matrix(0.0,1.0,-1.0,0.0,698.414,-223.924)" x="461.169" y="237.245" style="fill:#000000;font-family:DCKHCA+Palatino-Roman;font-size:0.0px;font-style:NORMAL;font-weight:normal;">.</text>
  <text svg_rhmargin="461.169" transform="matrix(0.0,1.0,-1.0,0.0,702.359,-219.979)" x="461.169" y="241.19" style="fill:#000000;font-family:DCKHCA+Palatino-Roman;font-size:0.0px;font-style:NORMAL;font-weight:normal;">.</text>
  <text svg_rhmargin="461.169" transform="matrix(0.0,1.0,-1.0,0.0,706.304,-216.034)" x="461.169" y="245.135" style="fill:#000000;font-family:DCKHCA+Palatino-Roman;font-size:0.0px;font-style:NORMAL;font-weight:normal;">.</text>
  <text svg_rhmargin="461.169" transform="matrix(0.0,1.0,-1.0,0.0,710.25,-212.088)" x="461.169" y="249.081" style="fill:#000000;font-family:DCKHCA+Palatino-Roman;font-size:0.0px;font-style:NORMAL;font-weight:normal;">.</text>
  <text svg_rhmargin="461.169" transform="matrix(0.0,1.0,-1.0,0.0,714.195,-208.143)" x="461.169" y="253.026" style="fill:#000000;font-family:DCKHCA+Palatino-Roman;font-size:0.0px;font-style:NORMAL;font-weight:normal;">.</text>
  <text svg_rhmargin="461.169" transform="matrix(0.0,1.0,-1.0,0.0,718.14,-204.198)" x="461.169" y="256.971" style="fill:#000000;font-family:DCKHCA+Palatino-Roman;font-size:0.0px;font-style:NORMAL;font-weight:normal;">.</text>
  <text svg_rhmargin="461.169" transform="matrix(0.0,1.0,-1.0,0.0,722.085,-200.253)" x="461.169" y="260.916" style="fill:#000000;font-family:DCKHCA+Palatino-Roman;font-size:0.0px;font-style:NORMAL;font-weight:normal;">.</text>
  <text svg_rhmargin="461.169" transform="matrix(0.0,1.0,-1.0,0.0,726.03,-196.308)" x="461.169" y="264.861" style="fill:#000000;font-family:DCKHCA+Palatino-Roman;font-size:0.0px;font-style:NORMAL;font-weight:normal;">.</text>
  <text svg_rhmargin="461.169" transform="matrix(0.0,1.0,-1.0,0.0,729.976,-192.362)" x="461.169" y="268.807" style="fill:#000000;font-family:DCKHCA+Palatino-Roman;font-size:0.0px;font-style:NORMAL;font-weight:normal;">.</text>
  <text svg_rhmargin="461.169" transform="matrix(0.0,1.0,-1.0,0.0,733.921,-188.417)" x="461.169" y="272.752" style="fill:#000000;font-family:DCKHCA+Palatino-Roman;font-size:0.0px;font-style:NORMAL;font-weight:normal;">.</text>
  <text svg_rhmargin="461.169" transform="matrix(0.0,1.0,-1.0,0.0,737.866,-184.472)" x="461.169" y="276.697" style="fill:#000000;font-family:DCKHCA+Palatino-Roman;font-size:0.0px;font-style:NORMAL;font-weight:normal;">.</text>
  <text svg_rhmargin="461.169" transform="matrix(0.0,1.0,-1.0,0.0,741.811,-180.527)" x="461.169" y="280.642" style="fill:#000000;font-family:DCKHCA+Palatino-Roman;font-size:0.0px;font-style:NORMAL;font-weight:normal;">.</text>
  <text svg_rhmargin="461.169" transform="matrix(0.0,1.0,-1.0,0.0,745.756,-176.582)" x="461.169" y="284.587" style="fill:#000000;font-family:DCKHCA+Palatino-Roman;font-size:0.0px;font-style:NORMAL;font-weight:normal;">.</text>
  <text svg_rhmargin="461.169" transform="matrix(0.0,1.0,-1.0,0.0,749.702,-172.636)" x="461.169" y="288.533" style="fill:#000000;font-family:DCKHCA+Palatino-Roman;font-size:0.0px;font-style:NORMAL;font-weight:normal;">.</text>
  <text svg_rhmargin="461.169" transform="matrix(0.0,1.0,-1.0,0.0,753.647,-168.691)" x="461.169" y="292.478" style="fill:#000000;font-family:DCKHCA+Palatino-Roman;font-size:0.0px;font-style:NORMAL;font-weight:normal;">.</text>
  <text svg_rhmargin="461.169" transform="matrix(0.0,1.0,-1.0,0.0,757.592,-164.746)" x="461.169" y="296.423" style="fill:#000000;font-family:DCKHCA+Palatino-Roman;font-size:0.0px;font-style:NORMAL;font-weight:normal;">.</text>
  <text svg_rhmargin="461.169" transform="matrix(0.0,1.0,-1.0,0.0,761.537,-160.801)" x="461.169" y="300.368" style="fill:#000000;font-family:DCKHCA+Palatino-Roman;font-size:0.0px;font-style:NORMAL;font-weight:normal;">.</text>
  <text svg_rhmargin="461.169" transform="matrix(0.0,1.0,-1.0,0.0,765.482,-156.856)" x="461.169" y="304.313" style="fill:#000000;font-family:DCKHCA+Palatino-Roman;font-size:0.0px;font-style:NORMAL;font-weight:normal;">.</text>
  <text svg_rhmargin="461.169" transform="matrix(0.0,1.0,-1.0,0.0,769.428,-152.91)" x="461.169" y="308.259" style="fill:#000000;font-family:DCKHCA+Palatino-Roman;font-size:0.0px;font-style:NORMAL;font-weight:normal;">.</text>
  <text svg_rhmargin="461.169" transform="matrix(0.0,1.0,-1.0,0.0,773.373,-148.965)" x="461.169" y="312.204" style="fill:#000000;font-family:DCKHCA+Palatino-Roman;font-size:0.0px;font-style:NORMAL;font-weight:normal;">.</text>
  <text svg_rhmargin="461.169" transform="matrix(0.0,1.0,-1.0,0.0,777.318,-145.02)" x="461.169" y="316.149" style="fill:#000000;font-family:DCKHCA+Palatino-Roman;font-size:0.0px;font-style:NORMAL;font-weight:normal;">.</text>
  <text svg_rhmargin="461.169" transform="matrix(0.0,1.0,-1.0,0.0,781.263,-141.075)" x="461.169" y="320.094" style="fill:#000000;font-family:DCKHCA+Palatino-Roman;font-size:0.0px;font-style:NORMAL;font-weight:normal;">.</text>
  <text svg_rhmargin="461.169" transform="matrix(0.0,1.0,-1.0,0.0,785.209,-137.129)" x="461.169" y="324.04" style="fill:#000000;font-family:DCKHCA+Palatino-Roman;font-size:0.0px;font-style:NORMAL;font-weight:normal;">.</text>
  <text svg_rhmargin="461.169" transform="matrix(0.0,1.0,-1.0,0.0,789.154,-133.184)" x="461.169" y="327.985" style="fill:#000000;font-family:DCKHCA+Palatino-Roman;font-size:0.0px;font-style:NORMAL;font-weight:normal;">.</text>
  <text svg_rhmargin="461.169" transform="matrix(0.0,1.0,-1.0,0.0,793.099,-129.239)" x="461.169" y="331.93" style="fill:#000000;font-family:DCKHCA+Palatino-Roman;font-size:0.0px;font-style:NORMAL;font-weight:normal;">.</text>
  <text svg_rhmargin="461.169" transform="matrix(0.0,1.0,-1.0,0.0,797.044,-125.294)" x="461.169" y="335.875" style="fill:#000000;font-family:DCKHCA+Palatino-Roman;font-size:0.0px;font-style:NORMAL;font-weight:normal;">.</text>
  <text svg_rhmargin="461.169" transform="matrix(0.0,1.0,-1.0,0.0,800.989,-121.349)" x="461.169" y="339.82" style="fill:#000000;font-family:DCKHCA+Palatino-Roman;font-size:0.0px;font-style:NORMAL;font-weight:normal;">.</text>
  <text svg_rhmargin="461.169" transform="matrix(0.0,1.0,-1.0,0.0,804.935,-117.403)" x="461.169" y="343.766" style="fill:#000000;font-family:DCKHCA+Palatino-Roman;font-size:0.0px;font-style:NORMAL;font-weight:normal;">.</text>
  <text svg_rhmargin="461.169" transform="matrix(0.0,1.0,-1.0,0.0,808.88,-113.458)" x="461.169" y="347.711" style="fill:#000000;font-family:DCKHCA+Palatino-Roman;font-size:0.0px;font-style:NORMAL;font-weight:normal;">.</text>
  <text svg_rhmargin="461.169" transform="matrix(0.0,1.0,-1.0,0.0,812.825,-109.513)" x="461.169" y="351.656" style="fill:#000000;font-family:DCKHCA+Palatino-Roman;font-size:0.0px;font-style:NORMAL;font-weight:normal;">.</text>
  <text svg_rhmargin="461.169" transform="matrix(0.0,1.0,-1.0,0.0,816.77,-105.568)" x="461.169" y="355.601" style="fill:#000000;font-family:DCKHCA+Palatino-Roman;font-size:0.0px;font-style:NORMAL;font-weight:normal;">.</text>
  <text svg_rhmargin="461.169" transform="matrix(0.0,1.0,-1.0,0.0,820.716,-101.622)" x="461.169" y="359.547" style="fill:#000000;font-family:DCKHCA+Palatino-Roman;font-size:0.0px;font-style:NORMAL;font-weight:normal;">.</text>
  <text svg_rhmargin="461.169" transform="matrix(0.0,1.0,-1.0,0.0,824.661,-97.677)" x="461.169" y="363.492" style="fill:#000000;font-family:DCKHCA+Palatino-Roman;font-size:0.0px;font-style:NORMAL;font-weight:normal;">.</text>
  <text svg_rhmargin="461.169" transform="matrix(0.0,1.0,-1.0,0.0,828.606,-93.732)" x="461.169" y="367.437" style="fill:#000000;font-family:DCKHCA+Palatino-Roman;font-size:0.0px;font-style:NORMAL;font-weight:normal;">.</text>
  <text svg_rhmargin="461.169" transform="matrix(0.0,1.0,-1.0,0.0,832.551,-89.787)" x="461.169" y="371.382" style="fill:#000000;font-family:DCKHCA+Palatino-Roman;font-size:0.0px;font-style:NORMAL;font-weight:normal;">.</text>
  <text svg_rhmargin="461.169" transform="matrix(0.0,1.0,-1.0,0.0,836.496,-85.842)" x="461.169" y="375.327" style="fill:#000000;font-family:DCKHCA+Palatino-Roman;font-size:0.0px;font-style:NORMAL;font-weight:normal;">.</text>
  <text svg_rhmargin="461.169" transform="matrix(0.0,1.0,-1.0,0.0,840.442,-81.896)" x="461.169" y="379.273" style="fill:#000000;font-family:DCKHCA+Palatino-Roman;font-size:0.0px;font-style:NORMAL;font-weight:normal;">.</text>
  <text svg_rhmargin="461.169" transform="matrix(0.0,1.0,-1.0,0.0,844.387,-77.951)" x="461.169" y="383.218" style="fill:#000000;font-family:DCKHCA+Palatino-Roman;font-size:0.0px;font-style:NORMAL;font-weight:normal;">.</text>
  <text svg_rhmargin="461.169" transform="matrix(0.0,1.0,-1.0,0.0,848.332,-74.006)" x="461.169" y="387.163" style="fill:#000000;font-family:DCKHCA+Palatino-Roman;font-size:0.0px;font-style:NORMAL;font-weight:normal;">.</text>
  <text svg_rhmargin="461.169" transform="matrix(0.0,1.0,-1.0,0.0,852.277,-70.061)" x="461.169" y="391.108" style="fill:#000000;font-family:DCKHCA+Palatino-Roman;font-size:0.0px;font-style:NORMAL;font-weight:normal;">.</text>
  <text x="55.548,60.031,64.514,66.756,70.446,75.153,77.762,80.371,82.981,90.898,95.381,100.6,105.818,108.502,111.49,113.732,116.423,122.93,128.148,132.631,136.173,138.782,144.0,146.693,153.167,159.641,161.88299999999998,164.573,170.554,175.772,180.255,185.474,190.459,193.151,199.136,201.378,204.059,210.044,217.522,220.132,224.427,227.968,231.76999999999998,234.457,239.443,248.409,250.65099999999998,253.341,258.823,262.206,267.103,272.321,276.805,282.211,287.197,292.415,295.099,302.038,304.28000000000003,306.97,311.454,315.937,320.42,324.903,327.602,333.959,336.569,339.178,347.095,351.578,354.501,358.796,361.485,365.778,370.405,373.328,376.712,381.005,388.922,393.217,397.019,399.706,402.316,407.535,413.013,415.622,419.604,423.898,427.70000000000005,430.387,432.997" y="149.56100000000004" svg_rhmargin="438.215" style="fill:#000000;font-family:DCKHCA+Palatino-Roman;font-size:8.97px;font-style:NORMAL;font-weight:normal;">25. Sillmann J, Kharin VV, Zhang X, Zwiers FW, Bronaugh D. 2013 Climate extremes indices in</text>
  <text svg_rhmargin="395.065" x="70.443,73.367,78.586,82.881,85.3,91.658,100.141,103.164,108.581,113.06400000000001,115.484,123.402,128.81,131.42,134.344,136.954,144.872,149.769,155.248,159.544,162.15300000000002,164.566,168.859,174.078,177.881,182.177,190.095,195.054,197.665,201.96,204.202,206.632,212.05,216.534,220.077,223.0,225.414,229.896,232.13799999999998,234.559,243.037,247.934,253.413,257.709,260.318,262.749,267.045,272.112,276.596,279.206,284.614,289.098,292.022,294.632,299.528,304.74600000000004,307.16,309.771,314.98900000000003,317.412,320.336,325.555,329.85,332.269,337.659,341.043,345.338,349.141,353.437,358.656,361.579,364.002,367.98,370.59,373.201,381.119,385.603,388.527,392.823,395.065" y="160.52300000000002" style="fill:#000000;font-family:DCKHCA+Palatino-Roman;font-size:8.97px;font-style:NORMAL;font-weight:normal;">the CMIP5 multimodel ensemble: Part 1. Model evaluation in the present climate. </text>
  <text x="397.469,400.456,402.69800000000004,405.118,411.593,415.082,419.064,423.548,428.032,432.516,436.005" y="160.52300000000002" svg_rhmargin="438.247" style="fill:#000000;font-family:DCLEPM+Palatino-Italic;font-size:8.97px;font-style:ITALIC;font-weight:normal;">J. Geophys.</text>
  <text svg_rhmargin="85.655" x="70.443,76.428,79.92,83.413,85.655" y="171.486" style="fill:#000000;font-family:DCLEPM+Palatino-Italic;font-size:8.97px;font-style:ITALIC;font-weight:normal;">Res. </text>
  <text x="87.885,92.368,96.85" y="171.486" svg_rhmargin="101.333" style="fill:#000000;font-family:DDAGCM+Palatino-Bold;font-size:8.97px;font-style:NORMAL;font-weight:bold;">118</text>
  <text x="101.332,103.574,105.815,110.297,114.779,119.261,123.744,128.226,132.708,137.191,141.673,146.155,148.397,150.655,153.64,159.118,164.014,166.623,168.864,173.348,177.831,180.072,184.556,189.039,193.522,198.005,203.439,205.537,210.522,213.906,219.387,221.629,226.112,230.595,235.079,239.562,244.036" y="171.486" svg_rhmargin="247.022" style="fill:#000000;font-family:DCKHCA+Palatino-Roman;font-size:8.97px;font-style:NORMAL;font-weight:normal;">, 1716–1733. (doi:10.1002/jgrd.50203)</text>
  <text svg_rhmargin="105.687" x="55.549,60.032,64.515,66.757,70.447,76.804,79.413,83.896,87.438,92.423,96.718,100.209,105.687" y="182.43899999999996" style="fill:#000000;font-family:DCKHCA+Palatino-Roman;font-size:8.97px;font-style:NORMAL;font-weight:normal;">26. Clarke L </text>
  <text svg_rhmargin="127.87" x="109.19,112.68,115.66600000000001,119.151,123.134,125.628,127.87" y="182.43899999999996" style="fill:#000000;font-family:DCLEPM+Palatino-Italic;font-size:8.97px;font-style:ITALIC;font-weight:normal;">et al. </text>
  <text svg_rhmargin="311.259" x="131.367,135.85,140.333,144.817,149.3,152.799,159.775,163.577,167.379,171.674,175.475,179.277,181.886,187.105,192.09,195.601,198.524,202.066,206.549,211.768,215.57,218.555,223.451,226.993,234.91,239.393,242.316,244.926,249.821,255.039,258.524,263.913,268.396,271.319,276.538,284.016,288.499,293.484,297.286,299.528,303.019,306.041,311.259" y="182.43899999999996" style="fill:#000000;font-family:DCKHCA+Palatino-Roman;font-size:8.97px;font-style:NORMAL;font-weight:normal;">2014 Assessing transformation pathways. In </text>
  <text x="314.757,320.737,323.23,325.723,332.699,336.68,339.665,343.153,346.649,350.294,354.777,358.758,363.744,368.227,371.715,375.22,379.703,384.186,388.669,393.153,395.39500000000004,398.895,407.359,409.852,412.837,415.33,419.813,423.794,426.78,429.273,433.254" y="182.43899999999996" svg_rhmargin="438.239" style="fill:#000000;font-family:DCLEPM+Palatino-Italic;font-size:8.97px;font-style:ITALIC;font-weight:normal;">Climate change 2014: Mitigation</text>
  <text x="70.444,74.426,76.919,82.841,86.491,88.985,91.478,98.455,102.437,105.424,108.912,114.837,118.482,122.966,126.948,131.935,136.419,139.907,142.149,148.079,156.36,160.338,163.827,167.809,170.303,175.289,179.772,185.702,192.174,195.504,199.482,204.468,208.951,214.873,217.86,220.846,223.832,229.747,235.729,239.711,244.697,247.684,251.172,253.666,257.818,262.805,265.791,268.285,272.267,277.252,283.166,286.153,290.134,296.062,299.048,303.533,307.021,312.937,317.924,320.417,322.911,325.897,330.38,336.302,342.777,346.266,349.754,353.243,356.732,360.221,367.198,370.686,375.673,378.659,384.556,390.537,394.026,398.51,402.492,405.981,408.967,414.882,418.86,421.353,427.275,430.264,434.748" y="193.40099999999995" svg_rhmargin="438.236" style="fill:#000000;font-family:DCLEPM+Palatino-Italic;font-size:8.97px;font-style:ITALIC;font-weight:normal;">of climate change. Working Group III Contribution to the Fifth Assessment Report of the</text>
  <text svg_rhmargin="235.25" x="70.444,73.431,78.417,81.404,84.892,88.222,92.705,96.687,101.171,104.66,108.148,113.135,120.111,123.6,128.586,131.573,135.555,138.048,141.036,146.516,150.498,155.484,158.973,161.466,164.463,168.441,173.42600000000002,176.434,182.419,184.913,187.406,194.383,198.365,201.352,204.84,207.841,213.826,218.31,222.292,227.278,231.762,235.25" y="204.36400000000003" style="fill:#000000;font-family:DCLEPM+Palatino-Italic;font-size:8.97px;font-style:ITALIC;font-weight:normal;">Intergovernmental Panel on Climate Change </text>
  <text svg_rhmargin="309.288" x="238.255,241.241,245.537,251.016,254.81799999999998,257.82,264.867,267.873,273.353,278.832,283.128,288.347,293.566,298.463,301.45,305.746,309.28799999999995" y="204.36400000000003" style="fill:#000000;font-family:DCKHCA+Palatino-Roman;font-size:8.97px;font-style:NORMAL;font-weight:normal;">(eds O Edenhofer </text>
  <text x="312.291,315.781,318.767,321.766,325.749,328.243" y="204.36400000000003" svg_rhmargin="330.485" style="fill:#000000;font-family:DCLEPM+Palatino-Italic;font-size:8.97px;font-style:ITALIC;font-weight:normal;">et al.</text>
  <text x="330.48,333.467,335.709,338.714,344.104,349.493,351.735,354.732,359.216,363.7,368.184,372.668,377.152,381.636,386.12,388.362,391.376,397.734,402.219,410.137,415.096,418.639,421.249,426.728,431.714,436.01" y="204.36400000000003" svg_rhmargin="438.252" style="fill:#000000;font-family:DCKHCA+Palatino-Roman;font-size:8.97px;font-style:NORMAL;font-weight:normal;">), pp. 413–510. Cambridge,</text>
  <text x="70.444,77.42,83.929,86.171,88.412,94.766,99.249,107.167,112.125,115.667,118.276,123.754,128.74,133.035,135.274,142.249,147.468,150.077,155.143,159.438,162.98,166.782,169.391,172.314,177.299,179.532,184.95,188.334,192.627,196.429,200.231" y="215.317" svg_rhmargin="202.473" style="fill:#000000;font-family:DCKHCA+Palatino-Roman;font-size:8.97px;font-style:NORMAL;font-weight:normal;">UK: Cambridge University Press.</text>
  <text svg_rhmargin="101.876" x="55.549,60.031,64.514,66.756,70.445,76.433,79.042,83.524,88.742,91.351,95.366,101.875" y="226.279" style="fill:#000000;font-family:DCKHCA+Palatino-Roman;font-size:8.97px;font-style:NORMAL;font-weight:normal;">27. Riahi K </text>
  <text svg_rhmargin="125.08" x="105.878,109.368,112.354,116.361,120.344,122.838,125.08" y="226.279" style="fill:#000000;font-family:DCLEPM+Palatino-Italic;font-size:8.97px;font-style:ITALIC;font-weight:normal;">et al. </text>
  <text x="129.081,133.564,138.047,142.53,147.013,151.027,156.523,161.742,166.03699999999998,170.04,174.747,179.966,184.449,187.833,192.126,197.604,201.612,206.32,211.215,215.197,217.806,222.701,226.996,230.977,235.873,241.092,245.987,253.905,256.514,260.495,264.505,269.924,274.407,277.33,282.549,290.027,294.51,299.495,303.297,307.299,311.781,316.999,322.47700000000003,326.486,329.409,334.627,338.922,341.531,345.073,349.083,353.378,358.596,362.891,366.275,371.26,375.248,377.49,381.494,384.104,388.587,393.805,399.283,403.292,408.701,412.503,416.798,419.04,423.053,427.535,432.754" y="226.279" svg_rhmargin="438.232" style="fill:#000000;font-family:DCKHCA+Palatino-Roman;font-size:8.97px;font-style:NORMAL;font-weight:normal;">2017 The Shared Socioeconomic Pathways and their energy, land use, and</text>
  <text svg_rhmargin="291.808" x="70.444,75.429,78.813,83.108,87.403,92.621,97.84,102.735,108.142,111.944,116.239,120.809,125.795,130.278,134.07999999999998,138.658,142.952,150.87,153.479,157.281,161.083,163.692,168.587,173.806,177.608,182.185,184.795,192.712,198.101,200.71,203.32,207.301,211.784,214.707,217.316,222.212,227.43,231.232,233.474,238.045,242.528,247.74599999999998,252.32,257.216,262.282,266.577,270.118,275.184,277.794,282.089,289.566,291.808" y="237.24199999999996" style="fill:#000000;font-family:DCKHCA+Palatino-Roman;font-size:8.97px;font-style:NORMAL;font-weight:normal;">greenhouse gas emissions implications: an overview. </text>
  <text svg_rhmargin="384.256" x="296.387,302.861,305.354,309.335,313.486,315.728,320.309,325.787,330.773,335.256,337.748,341.078,345.057,350.042,352.284,356.855,362.835,367.319,371.3,376.285,380.768,384.256" y="237.24199999999996" style="fill:#000000;font-family:DCLEPM+Palatino-Italic;font-size:8.97px;font-style:ITALIC;font-weight:normal;">Glob. Environ. Change </text>
  <text x="388.829,393.311" y="237.24199999999996" svg_rhmargin="397.794" style="fill:#000000;font-family:DDAGCM+Palatino-Bold;font-size:8.97px;font-style:NORMAL;font-weight:bold;">42</text>
  <text x="397.794,400.036,404.616,409.098,413.581,418.063,422.545,427.028,431.51,435.992" y="237.24199999999996" svg_rhmargin="438.234" style="fill:#000000;font-family:DCKHCA+Palatino-Roman;font-size:8.97px;font-style:NORMAL;font-weight:normal;">, 153–168.</text>
  <text x="70.444,73.431,78.91,83.806,86.415,88.656,93.14,97.623,99.864,104.348,108.831,113.314,117.797,123.231,125.329,127.571,132.556,135.165,140.061,144.356,149.574,154.64,158.621,163.84,168.323,170.564,175.048,179.531,184.014,188.497,190.739,195.222,199.705,201.947,206.43,210.913,215.379" y="248.19500000000005" svg_rhmargin="218.365" style="fill:#000000;font-family:DCKHCA+Palatino-Roman;font-size:8.97px;font-style:NORMAL;font-weight:normal;">(doi:10.1016/j.gloenvcha.2016.05.009)</text>
  <text svg_rhmargin="105.605" x="55.548,60.031,64.514,66.756,70.446,76.803,81.286,83.895,88.961,91.57,96.788,99.095,105.604" y="259.15700000000004" style="fill:#000000;font-family:DCKHCA+Palatino-Roman;font-size:8.97px;font-style:NORMAL;font-weight:normal;">28. Calvin K </text>
  <text svg_rhmargin="125.395" x="107.903,111.392,114.378,116.675,120.658,123.153,125.39500000000001" y="259.15700000000004" style="fill:#000000;font-family:DCLEPM+Palatino-Italic;font-size:8.97px;font-style:ITALIC;font-weight:normal;">et al. </text>
  <text svg_rhmargin="318.886" x="127.694,132.178,136.663,141.147,145.63,147.941,153.439,158.658,162.95299999999997,165.247,169.955,174.663,180.08,184.564,186.80599999999998,189.109,193.592,195.895,203.373,208.27,211.813,214.423,219.901,222.199,227.096,230.082,232.379,237.858,242.154,246.45,251.84,256.135,261.355,263.965,269.184,274.16900000000004,276.475,279.085,284.304,288.6,293.622,299.03,303.514,306.124,308.734,311.658,316.644,318.886" y="259.15700000000004" style="fill:#000000;font-family:DCKHCA+Palatino-Roman;font-size:8.97px;font-style:NORMAL;font-weight:normal;">2017 The SSP4: a world of deepening inequality. </text>
  <text svg_rhmargin="404.498" x="321.174,327.648,330.14,334.121,338.273,340.51500000000004,342.818,348.296,353.282,357.765,360.258,363.588,367.566,372.551,374.793,377.096,383.077,387.56,391.541,396.527,401.01,404.498" y="259.15700000000004" style="fill:#000000;font-family:DCLEPM+Palatino-Italic;font-size:8.97px;font-style:ITALIC;font-weight:normal;">Glob. Environ. Change </text>
  <text x="406.794,411.276" y="259.15700000000004" svg_rhmargin="415.759" style="fill:#000000;font-family:DDAGCM+Palatino-Bold;font-size:8.97px;font-style:NORMAL;font-weight:bold;">42</text>
  <text x="415.759,418.00100000000003,420.304,424.786,429.268,433.751" y="259.15700000000004" svg_rhmargin="438.234" style="fill:#000000;font-family:DCKHCA+Palatino-Roman;font-size:8.97px;font-style:NORMAL;font-weight:normal;">, 284–</text>
  <text x="70.444,74.926,79.408,83.891,86.13300000000001,88.373,91.36,96.838,101.734,104.343,106.585,111.068,115.551,117.793,122.276,126.759,131.242,135.725,141.159,143.257,145.499,150.484,153.093,157.989,162.284,167.502,172.568,176.55,181.768,186.251,188.493,192.976,197.459,201.942,206.426,208.667,213.15,217.634,219.875,224.358,228.842,233.308" y="270.12" svg_rhmargin="236.294" style="fill:#000000;font-family:DCKHCA+Palatino-Roman;font-size:8.97px;font-style:NORMAL;font-weight:normal;">296. (doi:10.1016/j.gloenvcha.2016.06.010)</text>
  <text svg_rhmargin="107.649" x="55.548,60.031,64.514,66.756,70.446,75.431,78.973,81.582,85.563,90.548,95.443,100.601,107.648" y="281.073" style="fill:#000000;font-family:DCKHCA+Palatino-Roman;font-size:8.97px;font-style:NORMAL;font-weight:normal;">29. Fricko O </text>
  <text svg_rhmargin="133.153" x="112.807,116.297,119.283,124.433,128.416,130.911,133.153" y="281.073" style="fill:#000000;font-family:DCLEPM+Palatino-Italic;font-size:8.97px;font-style:ITALIC;font-weight:normal;">et al. </text>
  <text x="138.314,142.797,147.28,151.764,156.247,161.403,166.899,172.117,176.41199999999998,181.568,189.488,193.971,197.513,202.498,206.793,210.335,215.487,220.509,225.916,230.399,235.617,238.541,241.15,246.574,250.555,255.039,257.962,260.571,265.467,270.685,275.834,280.73,283.716,288.875,291.798,297.017,301.312,306.467,311.175,316.393,320.876,324.26,328.555,334.033,339.194,343.901,348.797,352.778,355.387,360.283,364.578,368.559,373.454,378.673,383.568,391.486,394.095,398.076,403.23,408.648,413.132,416.055,421.273,428.751,433.234" y="281.073" svg_rhmargin="438.219" style="fill:#000000;font-family:DCKHCA+Palatino-Roman;font-size:8.97px;font-style:NORMAL;font-weight:normal;">2017 The marker quantiﬁcation of the Shared Socioeconomic Pathway</text>
  <text svg_rhmargin="292.549" x="70.443,74.927,77.16900000000001,81.605,86.08800000000001,90.515,98.435,101.045,106.525,112.004,114.614,118.91,121.897,126.793,129.78,132.767,135.691,140.91,145.206,148.192,151.576,156.473,160.957,166.435,170.848,174.646,178.628,182.924,188.143,192.627,196.17,198.78,203.675,208.104,211.093,215.989,219.531,223.954,226.878,232.097,236.392,240.819,245.303,249.787,253.59,256.513,260.952,264.93,269.226,274.446,277.37,282.777,286.32,290.307,292.54900000000004" y="292.035" style="fill:#000000;font-family:DCKHCA+Palatino-Roman;font-size:8.97px;font-style:NORMAL;font-weight:normal;">2: a middle-of-the-road scenario for the 21st century. </text>
  <text svg_rhmargin="384.552" x="296.971,303.445,305.937,309.918,314.07,316.312,320.748,326.227,331.212,335.695,338.188,341.518,345.496,350.482,352.72400000000005,357.151,363.131,367.615,371.596,376.581,381.064,384.552" y="292.035" style="fill:#000000;font-family:DCLEPM+Palatino-Italic;font-size:8.97px;font-style:ITALIC;font-weight:normal;">Glob. Environ. Change </text>
  <text x="388.972,393.454" y="292.035" svg_rhmargin="397.937" style="fill:#000000;font-family:DDAGCM+Palatino-Bold;font-size:8.97px;font-style:NORMAL;font-weight:bold;">42</text>
  <text x="397.936,400.178,404.614,409.097,413.579,418.061,422.544,427.026,431.508,435.99" y="292.035" svg_rhmargin="438.232" style="fill:#000000;font-family:DCKHCA+Palatino-Roman;font-size:8.97px;font-style:NORMAL;font-weight:normal;">, 153–168.</text>
  <text x="70.443,73.431,78.909,83.805,86.414,88.655,93.139,97.622,99.863,104.347,108.83,113.313,117.796,123.23,125.328,127.57,132.555,135.164,140.06,144.355,149.573,154.639,158.62,163.839,168.322,170.564,175.047,179.53,184.013,188.496,190.738,195.221,199.704,201.946,206.429,210.912,215.378" y="302.998" svg_rhmargin="218.364" style="fill:#000000;font-family:DCKHCA+Palatino-Roman;font-size:8.97px;font-style:NORMAL;font-weight:normal;">(doi:10.1016/j.gloenvcha.2016.06.004)</text>
  <text svg_rhmargin="136.547" x="55.547,60.03,64.513,66.75500000000001,70.445,75.511,79.994,85.212,90.02,95.664,101.07,106.477,109.861,114.156,119.37400000000001,124.191,131.131,136.546" y="313.951" style="fill:#000000;font-family:DCKHCA+Palatino-Roman;font-size:8.97px;font-style:NORMAL;font-weight:normal;">30. van Vuuren DP </text>
  <text svg_rhmargin="161.359" x="141.355,144.845,147.831,152.64,156.623,159.117,161.35899999999998" y="313.951" style="fill:#000000;font-family:DCLEPM+Palatino-Italic;font-size:8.97px;font-style:ITALIC;font-weight:normal;">et al. </text>
  <text x="166.169,170.652,175.135,179.619,184.102,188.916,194.394,199.613,203.908,207.292,212.277,216.264,218.506,223.32,225.93,230.413,235.632,241.11,244.096,249.503,253.305,257.6,262.404,266.886,272.104,277.582,282.392,287.377,290.761,295.056,299.351,304.569,309.788,314.683,320.09,323.892,328.187,333.0,337.986,342.469,346.271,351.082,355.377,363.295,365.904,369.706,373.507,376.116,381.012,386.231,390.033,394.844,397.769,401.31,405.793,407.892,412.186,416.168,419.091,423.986,427.528,430.137,434.432" y="313.951" svg_rhmargin="438.234" style="fill:#000000;font-family:DCKHCA+Palatino-Roman;font-size:8.97px;font-style:NORMAL;font-weight:normal;">2017 Energy, land-use and greenhouse gas emissions trajectories</text>
  <text svg_rhmargin="200.47" x="70.442,75.85,81.069,86.548,90.844,94.386,96.731,101.214,103.571,108.557,111.941,116.237,120.533,125.751,128.102,133.088,136.472,141.369,148.848,151.772,156.98999999999998,159.332,164.724,169.208,172.75,177.235,182.714,185.324,190.31,198.228,200.47" y="324.913" style="fill:#000000;font-family:DCKHCA+Palatino-Roman;font-size:8.97px;font-style:NORMAL;font-weight:normal;">under a green growth paradigm. </text>
  <text svg_rhmargin="286.232" x="202.809,209.283,211.776,215.757,219.908,222.14999999999998,224.507,229.986,234.971,239.454,241.947,245.277,249.255,254.241,256.483,258.831,264.811,269.294,273.275,278.261,282.744,286.232" y="324.913" style="fill:#000000;font-family:DCLEPM+Palatino-Italic;font-size:8.97px;font-style:ITALIC;font-weight:normal;">Glob. Environ. Change </text>
  <text x="288.582,293.064" y="324.913" svg_rhmargin="297.547" style="fill:#000000;font-family:DDAGCM+Palatino-Bold;font-size:8.97px;font-style:NORMAL;font-weight:bold;">42</text>
  <text x="297.547,299.78900000000004,302.136,306.619,311.101,315.583,320.066,324.548,329.03,333.513,335.755,338.12,341.1,346.578,351.474,354.083,356.325,360.808,365.291,367.533,372.016,376.499,380.983,385.466,390.899,392.998,395.239,400.225,402.834,407.729,412.024,417.243,422.309,426.29,431.508,435.991" y="324.913" svg_rhmargin="438.233" style="fill:#000000;font-family:DCKHCA+Palatino-Roman;font-size:8.97px;font-style:NORMAL;font-weight:normal;">, 237–250. (doi:10.1016/j.gloenvcha.</text>
  <text x="70.442,74.924,79.407,83.889,88.371,90.612,95.094,99.577,101.817,106.3,110.782,115.262" y="335.876" svg_rhmargin="118.248" style="fill:#09004c;font-family:DCKHCA+Palatino-Roman;font-size:8.97px;font-style:NORMAL;font-weight:normal;">2016.05.008)</text>
  <text svg_rhmargin="112.03" x="55.547,60.03,64.513,66.75500000000001,70.445,76.954,80.496,83.105,87.4,92.385,94.995,99.29,102.83200000000001,106.552,112.03" y="346.829" style="fill:#000000;font-family:DCKHCA+Palatino-Roman;font-size:8.97px;font-style:NORMAL;font-weight:normal;">31. Kriegler E </text>
  <text svg_rhmargin="134.655" x="115.741,119.231,122.217,125.936,129.919,132.413,134.655" y="346.829" style="fill:#000000;font-family:DCLEPM+Palatino-Italic;font-size:8.97px;font-style:ITALIC;font-weight:normal;">et al. </text>
  <text x="138.368,142.851,147.334,151.817,156.3,160.025,165.011,169.906,173.708,177.51,180.119,182.728,185.714,188.7,194.107,198.402,201.011,205.306,210.78400000000002,214.504,219.985,224.28,229.346,233.641,236.25,241.146,246.535,254.452,258.747,263.966,266.889,270.599,273.585,278.292,282.999,288.415,292.898,295.884,298.12600000000003,301.842,306.325,311.543,315.261,319.555,324.773,329.068,332.452,337.438,342.423,346.141,350.623,355.842,361.32,365.04,368.424,372.717,376.519,381.415,386.821,390.205,394.186,398.481,402.197,404.806,410.025,412.948,417.243,422.461,426.263,428.872,433.938" y="346.829" svg_rhmargin="438.233" style="fill:#000000;font-family:DCKHCA+Palatino-Roman;font-size:8.97px;font-style:NORMAL;font-weight:normal;">2017 Fossil-fueled development (SSP5): an energy and resource intensive</text>
  <text svg_rhmargin="190.491" x="70.443,74.246,78.228,82.523,87.743,92.227,95.769,98.38,103.27499999999999,107.289,110.276,115.173,118.715,122.733,125.657,130.876,135.171,139.175,143.659,148.143,151.946,154.869,158.894,162.872,167.168,172.387,175.311,180.719,184.262,188.249,190.49099999999999" y="357.791" style="fill:#000000;font-family:DCKHCA+Palatino-Roman;font-size:8.97px;font-style:NORMAL;font-weight:normal;">scenario for the 21st century. </text>
  <text svg_rhmargin="281.238" x="194.494,200.968,203.46,207.441,211.593,213.83499999999998,217.857,223.335,228.321,232.804,235.296,238.627,242.605,247.59,249.832,253.836,259.817,264.3,268.281,273.266,277.75,281.238" y="357.791" style="fill:#000000;font-family:DCLEPM+Palatino-Italic;font-size:8.97px;font-style:ITALIC;font-weight:normal;">Glob. Environ. Change </text>
  <text x="285.253,289.735" y="357.791" svg_rhmargin="294.218" style="fill:#000000;font-family:DDAGCM+Palatino-Bold;font-size:8.97px;font-style:NORMAL;font-weight:bold;">42</text>
  <text x="294.217,296.459,300.481,304.964,309.446,313.928,318.41,322.893,327.375,331.857,334.09900000000005,338.121,341.101,346.579,351.475,354.084,356.326,360.809,365.292,367.534,372.017,376.5,380.983,385.467,390.9,392.998,395.24,400.225,402.835,407.73,412.025,417.244,422.31,426.291,431.509,435.992" y="357.791" svg_rhmargin="438.234" style="fill:#000000;font-family:DCKHCA+Palatino-Roman;font-size:8.97px;font-style:NORMAL;font-weight:normal;">, 297–315. (doi:10.1016/j.gloenvcha.</text>
  <text x="70.443,74.925,79.408,83.89,88.372,90.613,95.095,99.577,101.818,106.3,110.783,115.263" y="368.754" svg_rhmargin="118.249" style="fill:#09004c;font-family:DCKHCA+Palatino-Roman;font-size:8.97px;font-style:NORMAL;font-weight:normal;">2016.05.015)</text>
  <text svg_rhmargin="133.966" x="55.548,60.031,64.514,66.756,70.446,75.512,79.995,85.21300000000001,88.734,94.378,99.785,105.191,108.575,112.87,118.08800000000001,121.61,128.55,133.965" y="379.707" style="fill:#000000;font-family:DCKHCA+Palatino-Roman;font-size:8.97px;font-style:NORMAL;font-weight:normal;">32. van Vuuren DP </text>
  <text svg_rhmargin="156.202" x="137.486,140.976,143.962,147.483,151.466,153.96,156.202" y="379.707" style="fill:#000000;font-family:DCLEPM+Palatino-Italic;font-size:8.97px;font-style:ITALIC;font-weight:normal;">et al. </text>
  <text svg_rhmargin="414.528" x="159.717,164.2,168.683,173.166,177.649,181.177,186.673,191.892,196.18699999999998,199.704,203.088,207.383,212.772,216.156,220.449,224.251,228.546,233.764,236.687,241.17,244.093,246.703,251.769,256.064,259.581,263.562,268.458,273.676,277.657,281.952,287.171,290.094,293.635,298.119,301.042,303.651,308.547,313.76500000000004,317.286,322.675,327.158,330.081,335.3,342.778,347.261,352.246,356.048,358.29,361.808,366.291,371.509,375.04,379.935,385.001,389.296,392.838,397.904,400.513,404.808,412.286,414.528" y="379.707" style="fill:#000000;font-family:DCKHCA+Palatino-Roman;font-size:8.97px;font-style:NORMAL;font-weight:normal;">2011 The representative concentration pathways: an overview. </text>
  <text x="418.052,424.034,426.527,429.021,435.998" y="379.707" svg_rhmargin="438.24" style="fill:#000000;font-family:DCLEPM+Palatino-Italic;font-size:8.97px;font-style:ITALIC;font-weight:normal;">Clim.</text>
  <text svg_rhmargin="97.844" x="70.443,76.423,80.907,84.888,89.873,94.356,97.844" y="390.669" style="fill:#000000;font-family:DCLEPM+Palatino-Italic;font-size:8.97px;font-style:ITALIC;font-weight:normal;">Change </text>
  <text x="100.09,104.573,109.055" y="390.669" svg_rhmargin="113.538" style="fill:#000000;font-family:DDAGCM+Palatino-Bold;font-size:8.97px;font-style:NORMAL;font-weight:bold;">109</text>
  <text x="113.537,115.77900000000001,118.02,122.502,126.984,131.466,135.949,138.191,140.44,143.425,148.903,153.799,156.408,158.65,163.133,167.616,169.858,174.341,178.824,183.307,187.791,193.224,197.026,201.509,205.992,210.476,214.959,219.442,222.428,226.911,231.394,235.877,238.863,243.346,247.83,252.313,256.796,259.782,264.25" y="390.669" svg_rhmargin="267.236" style="fill:#000000;font-family:DCKHCA+Palatino-Roman;font-size:8.97px;font-style:NORMAL;font-weight:normal;">, 5–31. (doi:10.1007/s10584-011-0148-z)</text>
  <text svg_rhmargin="128.938" x="55.548,60.031,64.514,66.756,70.446,75.153,79.448,84.666,88.961,94.027,96.636,100.178,104.661,107.584,112.803,117.098,121.209,125.916,128.938" y="401.632" style="fill:#000000;font-family:DCKHCA+Palatino-Roman;font-size:8.97px;font-style:NORMAL;font-weight:normal;">33. Seneviratne SI </text>
  <text svg_rhmargin="152.368" x="133.058,136.548,139.534,143.649,147.632,150.126,152.368" y="401.632" style="fill:#000000;font-family:DCLEPM+Palatino-Italic;font-size:8.97px;font-style:ITALIC;font-weight:normal;">et al. </text>
  <text x="156.485,160.969,165.454,169.938,174.421,178.542,184.9,190.119,194.603,199.823,204.809,209.105,212.90699999999998,217.034,219.644,224.862,228.977,232.955,235.565,238.176,246.094,250.578,253.502,257.797,261.917,266.21,270.838,273.762,277.145,281.439,289.357,293.653,297.45500000000004,301.564,306.046,311.265,316.743,320.868,323.792,329.012,333.307,335.918,339.46,343.568,346.178,354.096,359.486,363.97,367.952,370.876,374.678,378.796,383.692,388.91,393.025,395.949,401.169,405.464,409.584,414.803,419.287,422.211,427.619,431.161,435.645" y="401.632" svg_rhmargin="438.254" style="fill:#000000;font-family:DCKHCA+Palatino-Roman;font-size:8.97px;font-style:NORMAL;font-weight:normal;">2012 Changes in climate extremes and their impacts on the natural</text>
  <text svg_rhmargin="171.646" x="70.443,75.833,81.052,86.038,89.841,92.451,96.433,100.917,103.526,106.83,111.126,116.346,121.412,124.023,127.406,132.303,137.522,145.441,149.736,154.956,157.88,160.12199999999999,163.406,166.428,171.646" y="412.585" style="fill:#000000;font-family:DCKHCA+Palatino-Roman;font-size:8.97px;font-style:NORMAL;font-weight:normal;">physical environment. In </text>
  <text x="174.936,183.402,187.384,192.37,196.352,200.836,203.329,208.316,212.799,216.11,219.097,223.581,227.069,230.367,233.859,236.353,239.842,243.824,247.312,250.609,254.591,257.084,260.387,263.876,268.36,271.347,274.677,278.166,285.143,288.631,291.919,295.412,299.896,303.385,308.371,311.358,314.846,318.134,322.113,327.099,331.582,334.885,339.369,341.862,345.351,349.333,352.822,355.809,359.297,362.786,366.274,369.554,372.541,376.522,379.821,383.803,388.288,392.772,396.754,401.74,405.39,408.878,412.194,415.839,418.332,420.826,427.802,431.784,434.771" y="412.585" svg_rhmargin="438.259" style="fill:#000000;font-family:DCLEPM+Palatino-Italic;font-size:8.97px;font-style:ITALIC;font-weight:normal;">Managing the risks of extreme events and disasters to advance climate</text>
  <text svg_rhmargin="136.139" x="70.443,74.091,78.574,82.554,87.538,92.021,95.509,97.807,101.788,106.27,110.25,114.732,117.717,121.698,124.682,127.174,131.154,136.139" y="423.547" style="fill:#000000;font-family:DCLEPM+Palatino-Italic;font-size:8.97px;font-style:ITALIC;font-weight:normal;">change adaptation </text>
  <text svg_rhmargin="191.404" x="138.44,141.426,145.721,151.2,155.00199999999998,157.293,163.65,169.12800000000001,171.427,176.412,179.022,183.316,185.926,191.404" y="423.547" style="fill:#000000;font-family:DCKHCA+Palatino-Roman;font-size:8.97px;font-style:NORMAL;font-weight:normal;">(eds CB Field </text>
  <text x="193.693,197.183,200.16899999999998,202.457,206.44,208.934" y="423.547" svg_rhmargin="211.176" style="fill:#000000;font-family:DCLEPM+Palatino-Italic;font-size:8.97px;font-style:ITALIC;font-weight:normal;">et al.</text>
  <text x="211.171,214.158,216.39999999999998,218.694,224.084,229.474,231.71599999999998,234.001,238.485,242.969,247.453,251.937,256.421,260.905,265.389,267.63100000000003,269.935,276.911,279.205,283.912,289.302,293.598,297.58,300.19,304.674,307.28299999999996,309.579,315.57,319.866,325.255,330.152,333.695,336.618,338.906,343.802,346.788,349.085,357.222,362.118,365.661,370.647,373.257,378.476,383.461,385.749,392.589,395.973,400.87,406.278,411.667,415.469,417.761,420.783,423.071,427.553,432.772" y="423.547" svg_rhmargin="438.25" style="fill:#000000;font-family:DCKHCA+Palatino-Roman;font-size:8.97px;font-style:NORMAL;font-weight:normal;">), pp. 109–230. A Special Report of Working Groups I and</text>
  <text x="70.443,73.465,76.48700000000001,79.82,84.717,87.703,91.034,93.958,99.178,103.473,106.801,109.823,115.043,117.967,122.262,125.646,130.633,135.529,140.596,144.892,148.434,153.654,161.572,165.868,171.087,174.011,178.495,181.104,184.418,189.836,194.32,199.539,203.835,206.44400000000002,209.784,214.681,219.899,223.231,229.589,232.2,234.81,242.728,247.212,250.136,254.43099999999998,257.759,264.114,269.333,273.817,279.036,284.023,288.31800000000004,291.655,294.641,297.664,303.081,309.439,315.797,318.783,321.02500000000003,324.354,330.709,335.193,343.111,348.07,351.613,354.223,359.703,364.689,368.985,371.22700000000003,374.555,381.53,388.041,390.283,393.621,399.979,404.463,412.381,417.34,420.883,423.493,428.972,433.959" y="434.51" svg_rhmargin="438.254" style="fill:#000000;font-family:DCKHCA+Palatino-Roman;font-size:8.97px;font-style:NORMAL;font-weight:normal;">II of the Intergovernmental Panel on Climate Change (IPCC). Cambridge, UK: Cambridge</text>
  <text x="70.443,77.418,82.635,85.244,90.309,94.603,98.144,101.945,104.553,107.475,112.46,114.693,120.111,123.495,127.788,131.589,135.39" y="445.463" svg_rhmargin="137.632" style="fill:#000000;font-family:DCKHCA+Palatino-Roman;font-size:8.97px;font-style:NORMAL;font-weight:normal;">University Press.</text>
  <text svg_rhmargin="112.976" x="55.548,60.031,64.514,66.756,70.446,78.928,81.537,84.46,88.441,93.66,97.955,100.564,103.17299999999999,106.036,112.976" y="456.425" style="fill:#000000;font-family:DCKHCA+Palatino-Roman;font-size:8.97px;font-style:NORMAL;font-weight:normal;">34. Mitchell D </text>
  <text svg_rhmargin="133.881" x="115.832,119.321,122.307,125.162,129.145,131.639,133.881" y="456.425" style="fill:#000000;font-family:DCLEPM+Palatino-Italic;font-size:8.97px;font-style:ITALIC;font-weight:normal;">et al. </text>
  <text x="136.74,141.448,146.855,151.815,159.733,162.343,165.267,168.191,172.487,177.966,180.208,183.06,188.539,193.167,196.091,199.475,203.771,211.689,215.98399999999998,218.835,224.055,228.351,232.835,235.759,238.746,242.13,246.423,249.033,253.517,256.441,260.737,266.21500000000003,269.071,276.991,281.888,285.43,288.354,292.838,295.449,298.059,300.983,305.968,308.813,314.222,319.442,324.921,329.217,332.75899999999996,335.616,338.54,343.024,346.408,351.394,355.69,358.614,362.91,368.38800000000003,371.244,376.661,381.145,384.688,387.298,391.1,393.949,400.924,405.91,409.294,413.59,417.886,425.804,430.1,435.319" y="456.425" svg_rhmargin="438.242" style="fill:#000000;font-family:DCKHCA+Palatino-Roman;font-size:8.97px;font-style:NORMAL;font-weight:normal;">Submitted. Extreme heat-related mortality under targeted Paris Agreement</text>
  <text svg_rhmargin="109.305" x="70.443,74.244,78.224,82.518,87.735,92.218,95.759,98.367,103.262,107.063,109.305" y="467.388" style="fill:#000000;font-family:DCKHCA+Palatino-Roman;font-size:8.97px;font-style:NORMAL;font-weight:normal;">scenarios. </text>
  <text x="111.557,118.532,122.513,125.499,127.741,129.982,135.962,138.455,140.947,147.923,150.165,152.406,158.391,162.874,166.855,171.84,176.324" y="467.388" svg_rhmargin="179.812" style="fill:#000000;font-family:DCLEPM+Palatino-Italic;font-size:8.97px;font-style:ITALIC;font-weight:normal;">Nat. Clim. Change</text>
  <text x="179.815" y="467.388" svg_rhmargin="182.057" style="fill:#000000;font-family:DCKHCA+Palatino-Roman;font-size:8.97px;font-style:NORMAL;font-weight:normal;">.</text>
  <text x="55.548,60.032,64.516,66.75800000000001,70.447,77.496,81.038,83.649,88.545,96.024,99.827,104.813,109.798,114.551,120.031,122.27300000000001,127.033,131.741,136.037,141.256,145.552,150.619,153.229,156.771,161.256,164.179,169.399,173.694,178.444,183.152,186.175,188.417,193.177,197.661,202.145,206.629,211.112,215.873,221.352,223.962,229.37,233.172,235.782,240.849,245.14399999999998,249.895,255.374,258.758,263.655,269.062,274.048,279.268,282.192,284.434,289.185,294.592,299.811,303.793,308.089,311.632,314.556,319.04,321.65,326.869,329.793,334.778,339.532,342.142,347.36,352.114,357.011,361.97,365.773,370.069,373.611,378.678,382.974,388.452,393.216,396.141,399.525,403.818,409.037,414.517,418.319,423.067,427.549,432.769" y="478.341" svg_rhmargin="438.247" style="fill:#000000;font-family:DCKHCA+Palatino-Roman;font-size:8.97px;font-style:NORMAL;font-weight:normal;">35. Orlowsky B, Seneviratne SI. 2013 Elusive drought: uncertainty in observed trends and</text>
  <text svg_rhmargin="232.723" x="70.443,74.246,79.465,84.361,87.904,90.828,93.81400000000001,96.525,101.009,106.229,111.707,114.419,117.029,121.925,127.145,132.131,135.118,138.042,142.337,145.88,153.797,156.501,162.859,171.342,174.364,179.781,184.264,186.981,192.371,195.755,200.651,202.75,207.046,211.028,213.952,216.562,221.459,226.678,230.481,232.72299999999998" y="489.303" style="fill:#000000;font-family:DCKHCA+Palatino-Roman;font-size:8.97px;font-style:NORMAL;font-weight:normal;">short- and long-term CMIP5 projections. </text>
  <text svg_rhmargin="323.505" x="235.418,242.394,246.877,251.361,254.691,258.672,261.164,263.406,266.124,271.605,275.586,279.074,282.06,286.543,289.251,294.236,298.719,302.207,305.193,307.435,310.134,315.121,318.77,321.263,323.505" y="489.303" style="fill:#000000;font-family:DCLEPM+Palatino-Italic;font-size:8.97px;font-style:ITALIC;font-weight:normal;">Hydrol. Earth Syst. Sci. </text>
  <text x="326.222,330.704" y="489.303" svg_rhmargin="335.187" style="fill:#000000;font-family:DDAGCM+Palatino-Bold;font-size:8.97px;font-style:NORMAL;font-weight:bold;">17</text>
  <text x="335.187,337.42900000000003,340.146,344.628,349.111,353.593,358.075,362.557,367.04,371.522,376.004,380.487,382.72900000000004,385.455,388.432,393.91,398.806,401.415,403.657,408.14,412.623,414.865,419.348,423.831,428.314,432.798" y="489.303" svg_rhmargin="438.232" style="fill:#000000;font-family:DCKHCA+Palatino-Roman;font-size:8.97px;font-style:NORMAL;font-weight:normal;">, 1765–1781. (doi:10.5194/</text>
  <text x="70.443,75.66,79.954,83.755,87.556,90.541,95.023,99.506,102.491,106.973,111.455,115.938,120.42,123.405,127.887,132.369,136.852,141.336" y="500.257" svg_rhmargin="144.322" style="fill:#09004c;font-family:DCKHCA+Palatino-Roman;font-size:8.97px;font-style:NORMAL;font-weight:normal;">hess-17-1765-2013)</text>
  <text x="55.548,60.031,64.514,66.756,70.446,75.924,80.82,86.038,90.521,95.739,98.559,105.399,110.878,113.12,115.936,120.419,124.902,129.385,133.868,136.694,141.679,146.575,149.959,154.254,158.055,160.978,164.78,167.594,172.077,177.296,182.774,185.594,189.572,192.182,194.791,202.708,207.191,210.114,214.409,217.234,221.212,226.431,230.914,236.132,241.117,245.412,247.654,250.47,253.456,258.352,261.736,265.714,268.323,273.542,278.527,282.329,284.571,287.387,290.375,294.67,298.965,304.444,309.402,313.885,317.866,322.852,326.653,328.89500000000004,331.72,336.203,341.422,346.90000000000003,349.72,352.643,357.862,362.15700000000004,364.981,368.962,371.571,374.181,382.098,386.581,389.504,393.79900000000004,396.615,401.574,405.869,411.087,415.382,420.807,423.73,427.53200000000004,430.345,435.241" y="511.219" svg_rhmargin="438.227" style="fill:#000000;font-family:DCKHCA+Palatino-Roman;font-size:8.97px;font-style:NORMAL;font-weight:normal;">36. Bonan GB. 2008 Forests and climate change: forcings, feedbacks, and the climate beneﬁts of</text>
  <text svg_rhmargin="98.766" x="70.443,73.428,78.323,81.707,86.0,89.801,92.723,96.524,98.766" y="522.1700000000001" style="fill:#000000;font-family:DCKHCA+Palatino-Roman;font-size:8.97px;font-style:NORMAL;font-weight:normal;">forests. </text>
  <text svg_rhmargin="127.74" x="101.008,105.992,109.641,112.132,115.619,120.604,124.252,127.74" y="522.1700000000001" style="fill:#000000;font-family:DCLEPM+Palatino-Italic;font-size:8.97px;font-style:ITALIC;font-weight:normal;">Science </text>
  <text x="129.989,134.471,138.953" y="522.1700000000001" svg_rhmargin="143.436" style="fill:#000000;font-family:DDAGCM+Palatino-Bold;font-size:8.97px;font-style:NORMAL;font-weight:bold;">320</text>
  <text x="143.436,145.678,147.927,152.409,156.892,161.374,165.856,170.339,174.821,179.303,183.785,188.268,190.51,192.759,195.741,201.219,206.114,208.722,210.963,215.445,219.927,222.168,226.65,231.133,235.615,240.097,245.53,249.331,253.311,255.919,260.213,265.431,269.411,273.705,275.946,280.428,284.91,289.393,293.875,298.357,302.84,307.324" y="522.1700000000001" svg_rhmargin="310.31" style="fill:#000000;font-family:DCKHCA+Palatino-Roman;font-size:8.97px;font-style:NORMAL;font-weight:normal;">, 1444–1449. (doi:10.1126/science.1155121)</text>
  <text svg_rhmargin="113.08" x="55.548,60.031,64.514,66.756,70.446,75.861,78.471,81.394,89.311,93.794,99.012,103.118,110.094,113.08" y="533.123" style="fill:#000000;font-family:DCKHCA+Palatino-Roman;font-size:8.97px;font-style:NORMAL;font-weight:normal;">37. Pitman AJ </text>
  <text svg_rhmargin="136.511" x="117.209,120.699,123.685,127.791,131.774,134.269,136.511" y="533.123" style="fill:#000000;font-family:DCLEPM+Palatino-Italic;font-size:8.97px;font-style:ITALIC;font-weight:normal;">et al. </text>
  <text x="140.628,145.111,149.594,154.077,158.56,162.681,169.657,174.876,178.857,183.152,186.693,189.616,194.1,196.709,201.927,204.85,207.459,211.754,215.55599999999998,219.665,222.275,227.493,231.608,235.589,238.198,240.807,248.725,253.208,256.131,260.426,264.546,267.93,272.225,276.026,281.415,286.311,291.529,295.331,299.626,303.428,307.546,310.469,315.364,319.478,324.867,329.35,333.152,336.075,340.199,342.808,347.291,352.51,357.988,362.104,366.085,370.98,376.047,380.341,383.883,388.0,391.979,397.197,401.681,406.899,411.884,416.179,418.421,422.543,427.967,431.509,435.311" y="533.123" svg_rhmargin="438.234" style="fill:#000000;font-family:DCKHCA+Palatino-Roman;font-size:8.97px;font-style:NORMAL;font-weight:normal;">2009 Uncertainties in climate responses to past land cover change: ﬁrst</text>
  <text svg_rhmargin="261.617" x="70.443,73.827,78.12,81.923,87.33,89.94,92.864,96.66600000000001,99.578,102.567,105.951,110.847,118.764,121.665,124.589,129.809,134.10399999999998,137.018,142.497,149.474,155.832,158.854,165.794,168.709,171.32,176.539,179.463,183.759,187.143,191.121,196.017,203.936,209.325,213.809,217.352,219.962,223.765,228.661,233.879,236.78,240.578,243.502,248.909,254.389,259.375,261.617" y="544.086" style="fill:#000000;font-family:DCKHCA+Palatino-Roman;font-size:8.97px;font-style:NORMAL;font-weight:normal;">results from the LUCID intercomparison study. </text>
  <text svg_rhmargin="335.38" x="264.534,271.01,274.499,278.482,282.967,287.452,291.937,295.427,297.66900000000004,300.576,306.558,310.048,313.537,315.779,318.686,323.673,327.163,330.15,333.138,335.38" y="544.086" style="fill:#000000;font-family:DCLEPM+Palatino-Italic;font-size:8.97px;font-style:ITALIC;font-weight:normal;">Geophys. Res. Lett. </text>
  <text x="338.283,342.765" y="544.086" svg_rhmargin="347.248" style="fill:#000000;font-family:DDAGCM+Palatino-Bold;font-size:8.97px;font-style:NORMAL;font-weight:bold;">36</text>
  <text x="347.247,349.48900000000003,352.405,357.886,362.368,366.851,371.333,375.815,380.298,382.54,385.455,388.432,393.91,398.806,401.415,403.657,408.14,412.623,414.865,419.348,423.831,428.315,432.798" y="544.086" svg_rhmargin="438.232" style="fill:#000000;font-family:DCKHCA+Palatino-Roman;font-size:8.97px;font-style:NORMAL;font-weight:normal;">, L14814. (doi:10.1029/</text>
  <text x="70.443,74.925,79.408,83.89,88.372,95.213,100.69,105.173,109.655,114.137,118.619,123.102,127.584" y="555.048" svg_rhmargin="130.57" style="fill:#09004c;font-family:DCKHCA+Palatino-Roman;font-size:8.97px;font-style:NORMAL;font-weight:normal;">2009GL039076)</text>
  <text x="55.548,60.031,64.514,66.756,70.446,73.432,78.327,83.546,87.841,91.643,96.643,103.619,110.559,112.801,117.804,124.161,128.644,131.253,136.319,138.928,144.146,149.153,155.662,162.136,164.378,169.381,175.738,180.634,183.243,185.852,188.461,193.68,197.482,202.482,211.447,218.387,220.629,225.632,231.11,236.589,244.506,249.402,254.62,260.099,263.901,268.892,271.88,274.122,279.125,283.608,288.092,292.575,297.058,302.061,309.037,313.018,316.999,321.895,327.302,332.52,335.443,338.052,343.271,348.25600000000003,353.261,356.247,361.143,364.68499999999995,369.684,373.23,377.714,383.192,385.801,390.284,393.208,395.817,400.883,405.178,410.171,413.157,418.052,421.436,425.415,428.024,433.242" y="566.001" svg_rhmargin="438.227" style="fill:#000000;font-family:DCKHCA+Palatino-Roman;font-size:8.97px;font-style:NORMAL;font-weight:normal;">38. Jones AD, Calvin KV, Collins WD, Edmonds J. 2015 Accounting for radiative forcing</text>
  <text svg_rhmargin="270.99" x="70.443,73.43,76.814,81.71,89.627,93.132,97.616,100.226,105.185,109.481,114.96,119.85499999999999,123.375,127.357,132.577,137.061,142.28,147.266,151.56099999999998,155.07,157.68,162.898,166.41,169.397,174.805,177.729,183.136,186.52,190.815,194.315,196.925,201.409,206.628,212.108,215.094,220.502,224.305,228.6,232.117,235.915,239.897,244.193,249.412,253.897,257.439,260.049,264.946,268.748,270.99" y="576.9639999999999" style="fill:#000000;font-family:DCKHCA+Palatino-Roman;font-size:8.97px;font-style:NORMAL;font-weight:normal;">from albedo change in future land-use scenarios. </text>
  <text svg_rhmargin="325.596" x="274.498,280.478,282.971,285.464,292.439,294.68100000000004,298.19,304.176,308.659,312.64,317.625,322.108,325.596" y="576.9639999999999" style="fill:#000000;font-family:DCLEPM+Palatino-Italic;font-size:8.97px;font-style:ITALIC;font-weight:normal;">Clim. Change </text>
  <text x="329.111,333.593,338.076" y="576.9639999999999" svg_rhmargin="342.559" style="fill:#000000;font-family:DDAGCM+Palatino-Bold;font-size:8.97px;font-style:NORMAL;font-weight:bold;">131</text>
  <text x="342.558,344.8,348.318,352.8,357.283,361.765,366.247,370.729,375.212,379.694,381.93600000000004,385.454,388.432,393.91,398.806,401.415,403.657,408.14,412.623,414.865,419.348,423.831,428.315,432.798" y="576.9639999999999" svg_rhmargin="438.232" style="fill:#000000;font-family:DCKHCA+Palatino-Roman;font-size:8.97px;font-style:NORMAL;font-weight:normal;">, 691–703. (doi:10.1007/</text>
  <text x="70.443,74.245,78.728,83.211,87.694,92.178,96.661,99.647,104.13,108.613,113.096,116.082,120.565,125.048,129.532,134.015,137.001,141.471" y="587.9259999999999" svg_rhmargin="144.457" style="fill:#09004c;font-family:DCKHCA+Palatino-Roman;font-size:8.97px;font-style:NORMAL;font-weight:normal;">s10584-015-1411-5)</text>
  <text svg_rhmargin="112.797" x="55.548,60.029,64.511,66.753,70.442,76.95,81.844,85.644,88.565,92.858,96.4,99.869,105.857,112.797" y="598.879" style="fill:#000000;font-family:DCKHCA+Palatino-Roman;font-size:8.97px;font-style:NORMAL;font-weight:normal;">39. Koster RD </text>
  <text svg_rhmargin="134.926" x="116.273,119.763,122.74900000000001,126.207,130.19,132.684,134.926" y="598.879" style="fill:#000000;font-family:DCLEPM+Palatino-Italic;font-size:8.97px;font-style:ITALIC;font-weight:normal;">et al. </text>
  <text x="138.396,142.879,147.362,151.845,156.328,159.792,165.782,170.077,175.062,177.671,182.567,187.785,191.587,195.057,199.954,202.94,206.407,210.205,213.128,216.512,221.408,226.626,231.61100000000002,235.077,239.055,243.951,249.358,254.747,257.356,259.965,265.183,270.168,273.625,278.585,282.879,285.802,293.28,297.575,301.87,307.088,310.555,314.357,319.252,321.862,324.471,327.945,335.863,340.758,343.368,347.169,350.092,355.499,358.883,363.178,366.632,371.115,376.333,381.81100000000004,385.279,390.671,394.055,398.348,402.329,404.938,410.327,412.936,415.859,420.342,423.265,425.875,430.77,435.989" y="598.879" svg_rhmargin="438.231" style="fill:#000000;font-family:DCKHCA+Palatino-Roman;font-size:8.97px;font-style:NORMAL;font-weight:normal;">2004 Regions of strong coupling between soil moisture and precipitation.</text>
  <text svg_rhmargin="97.181" x="70.443,75.428,79.078,81.57,85.058,90.044,93.693,97.181" y="609.842" style="fill:#000000;font-family:DCLEPM+Palatino-Italic;font-size:8.97px;font-style:ITALIC;font-weight:normal;">Science </text>
  <text x="99.424,103.906,108.389" y="609.842" svg_rhmargin="112.872" style="fill:#000000;font-family:DDAGCM+Palatino-Bold;font-size:8.97px;font-style:NORMAL;font-weight:bold;">305</text>
  <text x="112.871,115.113,117.353,121.836,126.318,130.8,135.283,139.765,144.247,148.73,153.212,157.694,159.93599999999998,162.194,165.177,170.655,175.55,178.158,180.399,184.881,189.363,191.604,196.086,200.569,205.051,209.533,214.966,218.767,222.747,225.355,229.649,234.867,238.847,243.141,245.382,249.864,254.346,258.829,263.311,267.793,272.276,276.76" y="609.842" svg_rhmargin="279.746" style="fill:#000000;font-family:DCKHCA+Palatino-Roman;font-size:8.97px;font-style:NORMAL;font-weight:normal;">, 1138–1140. (doi:10.1126/science.1100217)</text>
  <text x="55.548,60.031,64.514,66.756,70.446,78.928,84.335,88.63,91.239,93.848,98.143,101.685,104.029,109.51,111.75200000000001,114.1,118.808,123.103,128.321,132.616,137.682,140.291,143.833,148.316,151.239,156.458,160.753,163.091,167.798,170.82,173.06199999999998,175.401,179.884,184.367,188.851,193.334,195.682,203.142,208.038,210.961,213.303,218.781,223.265,228.25,232.052,234.397,237.006,242.225,247.703,253.11,257.091,261.386,266.86400000000003,269.208,274.166,279.151,281.492,286.881,290.265,294.56,298.541,301.15,306.539,309.148,312.071,316.555,319.478,322.087,326.982,332.20000000000005,334.534,340.012,344.307,349.732,353.713,356.322,359.245,363.047,365.393,369.875,372.798,375.14,378.063,383.282,387.577,389.924,394.909,397.518,402.414,407.372,411.856,414.465,416.806,420.604,424.585,429.068,431.678,435.973" y="620.804" svg_rhmargin="438.215" style="fill:#000000;font-family:DCKHCA+Palatino-Roman;font-size:8.97px;font-style:NORMAL;font-weight:normal;">40. Mueller B, Seneviratne SI. 2012 Hot days induced by precipitation deﬁcits at the global scale.</text>
  <text svg_rhmargin="167.158" x="70.443,75.921,79.251,83.231,86.879,89.12100000000001,91.362,98.337,102.317,105.302,107.795,110.036,116.507,120.155,124.136,128.618,130.85999999999999,133.118,138.103,141.751,144.243,146.48499999999999,148.725,155.7,160.684,167.157" y="631.7570000000001" style="fill:#000000;font-family:DCLEPM+Palatino-Italic;font-size:8.97px;font-style:ITALIC;font-weight:normal;">Proc. Natl Acad. Sci. USA </text>
  <text x="169.402,173.884,178.366" y="631.7570000000001" svg_rhmargin="182.849" style="fill:#000000;font-family:DDAGCM+Palatino-Bold;font-size:8.97px;font-style:NORMAL;font-weight:bold;">109</text>
  <text x="182.848,185.09,187.331,191.813,196.296,197.798,202.28,206.763,211.245,215.727,220.21,224.693,226.186,230.668,235.15,239.633,241.875,244.124,247.105,252.584,257.479,260.089,262.33,266.813,271.297,273.538,278.021,282.505,286.988,291.471,296.905,302.293,307.512,311.995,315.797,318.038,322.522,327.005,331.488,335.971,340.455,344.938,349.421,353.904,358.387,362.854" y="631.7570000000001" svg_rhmargin="365.84" style="fill:#000000;font-family:DCKHCA+Palatino-Roman;font-size:8.97px;font-style:NORMAL;font-weight:normal;">, 12 398–12 403. (doi:10.1073/pnas.1204330109)</text>
  <text svg_rhmargin="111.877" x="55.549,60.032,64.515,66.757,70.447,77.907,80.516,84.058,87.859,91.84,97.059,99.66799999999999,103.395,111.877" y="642.72" style="fill:#000000;font-family:DCKHCA+Palatino-Roman;font-size:8.97px;font-style:NORMAL;font-weight:normal;">41. Hirschi M </text>
  <text svg_rhmargin="134.513" x="115.599,119.088,122.074,125.793,129.776,132.271,134.51299999999998" y="642.72" style="fill:#000000;font-family:DCLEPM+Palatino-Italic;font-size:8.97px;font-style:ITALIC;font-weight:normal;">et al. </text>
  <text x="138.234,142.718,147.201,151.684,156.167,159.901,166.948,171.907,175.709,180.003,183.545,188.611,193.094,196.017,198.627,203.522,208.741,213.224,215.833,219.551,223.846,228.912,231.521,236.999,241.294,246.513,250.494,254.789,258.513,261.499,266.395,269.93699999999995,273.658,277.456,282.351,284.961,287.57,290.556,298.473,303.369,305.978,309.78,312.703,318.109,321.493,325.788,329.513,332.122,340.039,345.428,349.911,353.892,356.815,360.535,365.43,370.648,374.376,379.595,384.49,387.413,391.133,395.426,400.052,402.975,406.359,410.652,418.57,422.865,426.66700000000003,430.388,432.998" y="642.72" svg_rhmargin="438.216" style="fill:#000000;font-family:DCKHCA+Palatino-Roman;font-size:8.97px;font-style:NORMAL;font-weight:normal;">2011 Observational evidence for soil-moisture impact on hot extremes in</text>
  <text svg_rhmargin="154.595" x="70.444,74.247,79.143,84.551,87.475,92.694,96.99,101.474,105.277,108.201,112.496,116.039,121.257,123.5,128.979,134.387,137.771,142.667,148.057,152.353,154.595" y="653.682" style="fill:#000000;font-family:DCKHCA+Palatino-Roman;font-size:8.97px;font-style:NORMAL;font-weight:normal;">southeastern Europe. </text>
  <text svg_rhmargin="201.06" x="156.82,163.796,167.777,170.763,173.005,175.245,181.719,185.207,189.188,192.676,196.325,198.818,201.06" y="653.682" style="fill:#000000;font-family:DCLEPM+Palatino-Italic;font-size:8.97px;font-style:ITALIC;font-weight:normal;">Nat. Geosci. </text>
  <text x="203.297" y="653.682" svg_rhmargin="207.78" style="fill:#000000;font-family:DDAGCM+Palatino-Bold;font-size:8.97px;font-style:NORMAL;font-weight:bold;">4</text>
  <text x="207.78,210.022,212.271,216.753,221.235,225.718,230.2,234.682,236.92399999999998,239.165,242.146,247.624,252.52,255.129,257.371,261.854,266.337,268.579,273.062,277.545,282.029,286.512,291.945,297.164,302.149,306.444,311.34,315.823,320.306,324.789,329.266" y="653.682" svg_rhmargin="332.252" style="fill:#000000;font-family:DCKHCA+Palatino-Roman;font-size:8.97px;font-style:NORMAL;font-weight:normal;">, 17–21. (doi:10.1038/ngeo1032)</text>
  <text svg_rhmargin="119.706" x="55.549,60.032,64.515,66.757,70.447,78.929,81.538,85.08,89.563,92.172,94.781,99.076,102.878,105.926,112.865,119.70599999999999" y="664.635" style="fill:#000000;font-family:DCKHCA+Palatino-Roman;font-size:8.97px;font-style:NORMAL;font-weight:normal;">42. Miralles DG </text>
  <text svg_rhmargin="141.002" x="122.754,126.244,129.23,132.282,136.265,138.76,141.00199999999998" y="664.635" style="fill:#000000;font-family:DCLEPM+Palatino-Italic;font-size:8.97px;font-style:ITALIC;font-weight:normal;">et al. </text>
  <text x="144.048,148.531,153.015,157.498,161.981,165.031,173.514,177.808,182.794,187.277,190.263,195.481,199.776,204.259,207.182,214.66,219.144,224.21,228.505,231.563,234.488,238.783,246.7,252.089,256.384,259.925,264.409,267.332,272.738,276.122,280.415,284.21700000000004,287.256,292.734,298.141,302.43600000000004,305.477,308.4,313.29499999999996,316.346,320.328,325.223,333.141,338.099,340.708,345.927,350.221,355.699,358.754,362.556,367.451,370.061,372.66999999999996,375.722,381.2,385.495,389.297,391.906,395.887,399.868,404.352,407.275,409.884,414.78,419.998,423.051,427.534,432.753" y="664.635" svg_rhmargin="438.231" style="fill:#000000;font-family:DCKHCA+Palatino-Roman;font-size:8.97px;font-style:NORMAL;font-weight:normal;">2014 Mega-heatwave temperatures due to combined soil desiccation and</text>
  <text svg_rhmargin="197.079" x="70.444,74.928,77.852,85.77,90.667,94.469,99.859,105.078,109.374,112.917,115.527,119.508,121.746,126.966,131.262,135.746,138.669,140.913,145.395,149.377,153.359,158.767,166.685,172.092,174.703,179.187,182.111,184.721,189.617,194.837,197.07899999999998" y="675.598" style="fill:#000000;font-family:DCKHCA+Palatino-Roman;font-size:8.97px;font-style:NORMAL;font-weight:normal;">atmospheric heat accumulation. </text>
  <text svg_rhmargin="243.541" x="199.301,206.277,210.258,213.244,215.486,217.726,224.2,227.688,231.669,235.157,238.806,241.299,243.541" y="675.598" style="fill:#000000;font-family:DCLEPM+Palatino-Italic;font-size:8.97px;font-style:ITALIC;font-weight:normal;">Nat. Geosci. </text>
  <text x="245.787" y="675.598" svg_rhmargin="250.27" style="fill:#000000;font-family:DDAGCM+Palatino-Bold;font-size:8.97px;font-style:NORMAL;font-weight:bold;">7</text>
  <text x="250.27,252.512,254.752,259.234,263.716,268.199,272.681,277.163,281.646,286.128,288.37,290.619,293.599,299.077,303.973,306.582,308.824,313.307,317.79,320.032,324.515,328.998,333.481,337.965,343.398,348.617,353.602,357.897,362.793,367.276,371.759,376.242,380.719" y="675.598" svg_rhmargin="383.705" style="fill:#000000;font-family:DCKHCA+Palatino-Roman;font-size:8.97px;font-style:NORMAL;font-weight:normal;">, 345–349. (doi:10.1038/ngeo2141)</text>
  <text svg_rhmargin="110.906" x="55.548,60.032,64.516,66.75800000000001,70.447,75.927,80.823,84.207,88.5,93.72,98.203,104.916,110.905" y="686.56" style="fill:#000000;font-family:DCKHCA+Palatino-Roman;font-size:8.97px;font-style:NORMAL;font-weight:normal;">43. Lorenz R </text>
  <text svg_rhmargin="139.525" x="117.613,121.103,124.089,130.806,134.789,137.283,139.52499999999998" y="686.56" style="fill:#000000;font-family:DCLEPM+Palatino-Italic;font-size:8.97px;font-style:ITALIC;font-weight:normal;">et al. </text>
  <text x="146.234,150.718,155.202,159.686,164.169,170.892,173.914,179.134,184.586,189.994,194.29,199.509,203.491,207.786,214.498,219.395,222.381,229.097,231.707,236.191,241.411,246.89,251.374,255.858,258.782,266.701,271.597,275.4,280.789,286.009,290.305,293.688,297.983,304.687,307.673,311.969,316.265,321.744,326.704,331.188,335.17,340.156,343.958,350.677,355.574,360.79200000000003,367.508,370.433,374.729,382.647,388.036,392.332,395.875,400.359,403.283,408.691,412.075,416.37,423.073,427.557,432.776" y="686.56" svg_rhmargin="438.254" style="fill:#000000;font-family:DCKHCA+Palatino-Roman;font-size:8.97px;font-style:NORMAL;font-weight:normal;">2016 Inﬂuence of land–atmosphere feedbacks on temperature and</text>
  <text svg_rhmargin="292.428" x="70.443,75.832,79.216,83.511,87.492,90.101,95.49,98.099,101.022,105.505,108.428,111.037,115.933,121.15100000000001,123.944,128.239,132.865,135.788,139.172,143.467,151.384,155.679,159.481,162.268,164.877,170.095,172.897,175.82,181.038,185.333,188.131,194.972,200.45,207.426,213.783,219.262,222.248,228.605,237.087,240.109,245.525,250.008,252.796,257.091,262.31,266.111,270.406,278.324,283.282,285.891,290.186,292.428" y="697.513" style="fill:#000000;font-family:DCKHCA+Palatino-Roman;font-size:8.97px;font-style:NORMAL;font-weight:normal;">precipitation extremes in the GLACE-CMIP5 ensemble. </text>
  <text svg_rhmargin="383.343" x="295.243,298.231,300.473,303.262,309.737,313.227,317.21,321.695,326.18,330.665,334.155,336.397,339.195,345.177,348.667,352.157,354.399,357.188,363.663,366.651,373.628,377.611,381.101,383.343" y="697.513" style="fill:#000000;font-family:DCLEPM+Palatino-Italic;font-size:8.97px;font-style:ITALIC;font-weight:normal;">J. Geophys. Res. Atmos. </text>
  <text x="386.128,390.611,395.093" y="697.513" svg_rhmargin="399.576" style="fill:#000000;font-family:DDAGCM+Palatino-Bold;font-size:8.97px;font-style:NORMAL;font-weight:bold;">121</text>
  <text x="399.574,401.81600000000003,404.614,409.097,413.579,418.061,422.544,427.026,431.508,435.991" y="697.513" svg_rhmargin="438.233" style="fill:#000000;font-family:DCKHCA+Palatino-Roman;font-size:8.97px;font-style:NORMAL;font-weight:normal;">, 607–623.</text>
  <text x="70.442,73.43,78.908,83.804,86.413,88.655,93.138,97.621,99.863,104.346,108.829,113.312,117.795,123.229,127.712,132.195,136.679,141.162,144.148,151.088,155.571,160.054,164.537,169.02,173.504,177.974" y="708.476" svg_rhmargin="180.96" style="fill:#000000;font-family:DCKHCA+Palatino-Roman;font-size:8.97px;font-style:NORMAL;font-weight:normal;">(doi:10.1002/2015JD024053)</text>
  <text svg_rhmargin="114.817" x="55.547,60.031,64.515,66.757,70.447,77.908,83.315,86.858,90.242,94.538,97.148,99.75699999999999,102.863,105.851,114.817" y="719.438" style="fill:#000000;font-family:DCKHCA+Palatino-Roman;font-size:8.97px;font-style:NORMAL;font-weight:normal;">44. Hurrell JW </text>
  <text svg_rhmargin="136.24" x="117.928,121.418,124.40400000000001,127.52,131.503,133.998,136.23999999999998" y="719.438" style="fill:#000000;font-family:DCLEPM+Palatino-Italic;font-size:8.97px;font-style:ITALIC;font-weight:normal;">et al. </text>
  <text x="139.349,143.833,148.317,152.801,157.284,160.406,165.904,171.123,175.41799999999998,178.53,184.885,189.781,197.7,205.618,211.025,216.245,218.855,221.779,226.764,229.87,235.351,239.835,243.378,246.302,251.51999999999998,254.627,259.336,264.322,268.124,271.048,275.344,283.26099999999997,286.387,294.87,299.767,305.246,309.542,312.152,314.394,317.516,321.999,325.112,328.101,331.643,336.127,344.046,348.341,355.82,360.717,364.259,369.244,372.351,375.339,380.236,383.77799999999996,386.887,390.869,395.766,398.376,400.986,405.47,410.429,415.326,418.868,423.352,426.276,428.887,433.953" y="719.438" svg_rhmargin="438.248" style="fill:#000000;font-family:DCKHCA+Palatino-Roman;font-size:8.97px;font-style:NORMAL;font-weight:normal;">2013 The Community Earth System Model: a framework for collaborative</text>
  <text svg_rhmargin="105.517" x="70.442,73.826,78.119,81.917,86.21,90.693,94.077,98.055,103.275,105.51700000000001" y="730.391" style="fill:#000000;font-family:DCKHCA+Palatino-Roman;font-size:8.97px;font-style:NORMAL;font-weight:normal;">research. </text>
  <text svg_rhmargin="197.166" x="107.758,113.236,118.221,120.714,123.207,125.449,127.689,134.163,141.139,143.381,145.63,154.091,157.578,160.564,164.052,168.033,171.363,175.342,177.834,180.076,182.308,187.293,191.274,194.924,197.166" y="730.391" style="fill:#000000;font-family:DCLEPM+Palatino-Italic;font-size:8.97px;font-style:ITALIC;font-weight:normal;">Bull. Am. Meteorol. Soc. </text>
  <text x="199.417,203.899" y="730.391" svg_rhmargin="208.382" style="fill:#000000;font-family:DDAGCM+Palatino-Bold;font-size:8.97px;font-style:NORMAL;font-weight:bold;">94</text>
  <text x="208.381,210.623,212.863,217.346,221.828,226.31,230.793,235.275,239.757,244.24,248.722,253.204,255.446,257.704,260.685,266.163,271.059,273.668,275.91,280.393,284.876,287.118,291.601,296.084,300.568,305.051,310.484,315.963,322.939,331.421,336.128,339.114,346.054,349.04,353.523,358.006,360.992,365.475,369.958,374.442,378.925,383.408,385.65,390.123" y="730.391" svg_rhmargin="393.109" style="fill:#000000;font-family:DCKHCA+Palatino-Roman;font-size:8.97px;font-style:NORMAL;font-weight:normal;">, 1339–1360. (doi:10.1175/BAMS-D-12-00121.1)</text>
  <text x="55.547,60.03,64.514,66.756,70.445,77.385,81.868,86.934,89.543,94.76100000000001,96.834,102.312,107.791,110.033,112.093,116.8,121.095,126.314,130.608,135.674,138.284,141.825,146.309,149.232,154.45,158.74499999999998,160.805,165.512,168.534,170.77599999999998,172.845,179.199,181.808,186.292,188.901,192.703,194.769,200.185,202.427,204.496,211.544,214.153,216.762,221.658,225.46,230.35500000000002,232.426,239.4,241.642,243.712,251.848,256.331,261.549,266.534,268.606,274.105,276.34700000000004,278.407,282.89,287.373,291.857,296.34000000000003,298.418,303.834,307.218,311.513,314.499,318.793,322.177,326.472,331.691,334.614,337.223,341.706,344.315,346.369,350.35,355.245,360.141,362.75,365.36,370.578,375.563,377.635,382.531,385.517,387.58,392.8,397.696,400.619,402.691,406.986,411.613,414.536,417.92,422.215,430.132,434.427" y="741.354" svg_rhmargin="438.229" style="fill:#000000;font-family:DCKHCA+Palatino-Roman;font-size:8.97px;font-style:NORMAL;font-weight:normal;">45. Davin EL, Seneviratne SI, Ciais P, Olioso A, Wang T. 2014 Preferential cooling of hot extremes</text>
  <text svg_rhmargin="214.95" x="70.442,73.429,76.813,81.709,89.626,92.681,96.663,100.046,104.943,110.333,112.943,117.427,122.646,128.124,131.179,135.663,138.273,143.232,147.528,153.007,157.90200000000002,160.963,168.882,173.366,178.585,183.069,188.055,192.351,200.269,204.565,209.785,212.708,214.95" y="752.316" style="fill:#000000;font-family:DCKHCA+Palatino-Roman;font-size:8.97px;font-style:NORMAL;font-weight:normal;">from cropland albedo management. </text>
  <text svg_rhmargin="317.992" x="218.002,223.48,226.81,230.79,234.438,236.67999999999998,239.739,246.714,250.695,253.679,256.172,259.232,265.703,269.352,273.332,277.814,280.05600000000004,283.124,288.109,291.757,294.249,296.49100000000004,299.559,306.534,311.518,317.991" y="752.316" style="fill:#000000;font-family:DCLEPM+Palatino-Italic;font-size:8.97px;font-style:ITALIC;font-weight:normal;">Proc. Natl Acad. Sci. USA </text>
  <text x="321.047,325.529,330.011" y="752.316" svg_rhmargin="334.494" style="fill:#000000;font-family:DDAGCM+Palatino-Bold;font-size:8.97px;font-style:NORMAL;font-weight:bold;">111</text>
  <text x="334.493,336.735,339.803,344.285,348.767,353.25,357.732,362.214,366.696,371.179,375.661,380.143,382.385,385.453,388.431,393.91,398.805,401.414,403.656,408.139,412.622,414.864,419.347,423.83,428.314,432.797" y="752.316" svg_rhmargin="438.231" style="fill:#000000;font-family:DCKHCA+Palatino-Roman;font-size:8.97px;font-style:NORMAL;font-weight:normal;">, 9757–9761. (doi:10.1073/</text>
  <text x="70.442,75.83,81.048,85.53,89.331,91.571,96.054,100.536,105.018,109.501,113.983,118.465,122.948,127.43,131.912,136.395" y="763.269" svg_rhmargin="139.381" style="fill:#09004c;font-family:DCKHCA+Palatino-Roman;font-size:8.97px;font-style:NORMAL;font-weight:normal;">pnas.1317323111)</text>
 </g>
</svg>
