<?xml version="1.0" encoding="UTF-8"?>
<svg height="775.008" width="529.9074999999999" xmlns="http://www.w3.org/2000/svg">
 <g id="page" xmlns:svgx="http://www.xml-cml.org/schema/svgx">
  <g begin="text">
   <text y="62.979" x="76.535,79.189,83.62,86.274,88.26650000000001,91.057,93.711,95.7035,97.696,102.565,106.997,110.982,113.197,116.154,119.693,124.124,126.1165,128.907,134.223,137.323,140.423,142.4155,145.205,150.075,154.507,158.197,160.412,162.628,165.89569999999998,167.864,174.065,177.165,180.704,182.92,185.574" svgx:width="0.33,0.56,0.33,0.25,0.55,0.33,0.25,0.55,0.61,0.56,0.5,0.28,0.39,0.44,0.56,0.25,0.55,0.67,0.39,0.39,0.25,0.55,0.61,0.56,0.46,0.28,0.28,0.41,0.55,0.78,0.39,0.44,0.28,0.33,0.5" style="fill:rgb(0,0,0);font-family:URWPalladioL-Ital;font-size:7.97px;stroke:none;">Int. J. Environ. Res. Public Health</text>
   <text y="62.979" x="191.551,195.536,199.521,203.506" svgx:width="0.5,0.5,0.5,0.5" style="fill:rgb(0,0,0);font-family:URWPalladioL-Bold;font-size:7.97px;stroke:none;">2019</text>
   <text y="62.979" x="207.491" svgx:width="0.25" style="fill:rgb(0,0,0);font-family:URWPalladioL-Roma;font-size:7.97px;stroke:none;">,</text>
   <text y="62.979" x="211.476,215.461" svgx:width="0.5,0.5" style="fill:rgb(0,0,0);font-family:URWPalladioL-Ital;font-size:7.97px;stroke:none;">16</text>
   <text y="62.979" x="219.446,221.4385,223.431,227.416,231.401,235.386,239.371,491.808,495.793,499.778,501.771,506.123,508.7531,510.769,514.754" svgx:width="0.25,0.55,0.5,0.5,0.5,0.5,0.55,0.5,0.5,0.55,0.55,0.33,0.55,0.5,0.5" style="fill:rgb(0,0,0);font-family:URWPalladioL-Roma;font-size:7.97px;stroke:none;">, 3959 10 of 13</text>
   <text y="97.848" x="76.535,84.611,89.184,94.269,96.93,102.253,107.2762,109.917,114.49,119.657,124.23,126.891,129.544,134.116,139.174,141.835,146.1406,148.795,151.777,157.1,161.48,164.142,167.73,170.324,178.4,183.394,188.982,193.363,195.9643,198.603,203.597,209.111,212.093,217.59,223.104,226.086,228.32850000000002,232.506,240.829,245.1346,247.789,252.362,255.023,258.901,263.8345,266.464,271.037,275.098,280.183,285.506,290.499,298.127,300.788,305.169,310.757,315.842,320.1476,322.802,325.783,331.106,335.4116,338.057,343.645,348.218,351.831,354.812,360.01460000000003,362.714,367.515,372.6,376.478,379.46,383.841,391.7346,394.486,401.464,405.077,407.738,413.2097,415.905,420.99,425.371,430.959,435.34,438.953,443.526,446.507,449.168,454.162,459.3646,462.055,464.716,470.039,473.085,476.697,481.27,485.148,488.129,491.669,497.184,501.244,504.226,509.741,513.198,517.578" svgx:width="0.88,0.5,0.56,0.29,0.58,0.56,0.55,0.5,0.56,0.5,0.29,0.29,0.5,0.55,0.29,0.48,0.55,0.33,0.58,0.48,0.29,0.4,0.55,0.88,0.55,0.61,0.48,0.29,0.55,0.55,0.6,0.33,0.6,0.6,0.33,0.25,0.55,1.0,0.48,0.55,0.5,0.29,0.42,0.55,0.55,0.5,0.44,0.56,0.58,0.55,0.83,0.29,0.48,0.61,0.56,0.48,0.55,0.33,0.58,0.48,0.55,0.61,0.5,0.4,0.33,0.58,0.55,0.52,0.56,0.42,0.33,0.48,0.88,0.55,0.76,0.4,0.29,0.61,0.55,0.56,0.48,0.61,0.48,0.4,0.5,0.33,0.29,0.55,0.58,0.55,0.29,0.58,0.33,0.4,0.5,0.42,0.33,0.4,0.6,0.44,0.33,0.6,0.4,0.48,0.25" style="fill:rgb(0,0,0);font-family:URWPalladioL-Roma;font-size:8.97px;stroke:none;">making available their model output. We also acknowledge the Earth System Grid Federation infrastructure,</text>
   <text y="107.98" x="76.535,81.108,86.31060000000001,90.025,92.686,98.009,100.991,105.371,108.984,114.307,118.88,121.861,124.523,129.516,134.839,139.412,142.01330000000002,145.658" svgx:width="0.5,0.58,0.55,0.29,0.58,0.33,0.48,0.4,0.58,0.5,0.33,0.29,0.55,0.58,0.5,0.29,0.55,0.48" style="fill:rgb(0,0,0);font-family:URWPalladioL-Roma;font-size:8.97px;stroke:none;">an international e</text>
   <text y="107.98" x="150.04" svgx:width="0.61" style="fill:rgb(0,0,0);font-family:Rpxr;font-size:8.97px;stroke:none;">ﬀ</text>
   <text y="107.98" x="155.601,160.595,164.207,167.1671,170.783,173.444,177.825,183.2967,186.998,192.056,197.07920000000001,200.735,203.717,209.039,213.34459999999999,217.005,224.121,226.407,231.209,233.4515,237.089,244.168,248.549,254.046,258.618,262.231,265.213,273.288,277.669,282.992,285.95210000000003,289.558,294.552,297.51210000000003,301.192,306.78,312.103,316.483,319.931,325.016,330.101,332.644,336.4114,340.116,345.64,349.088,354.082,359.167,362.779,367.352,375.24559999999997,379.022,382.067,387.061,390.649,394.259,400.743,403.404,406.066,414.141,418.714,421.696,426.00160000000005,429.671,438.323,443.316,448.904,453.285,455.8863,459.532,466.611,469.272,473.845,478.93,484.253,489.246,493.124,495.785,499.55240000000003,503.257,507.83,513.153" svgx:width="0.55,0.4,0.33,0.55,0.29,0.48,0.61,0.55,0.55,0.56,0.55,0.33,0.58,0.48,0.55,0.78,0.25,0.52,0.25,0.55,0.77,0.48,0.6,0.5,0.4,0.33,0.88,0.48,0.58,0.33,0.55,0.55,0.33,0.55,0.61,0.58,0.48,0.4,0.56,0.56,0.28,0.42,0.55,0.6,0.4,0.55,0.56,0.4,0.5,0.88,0.55,0.33,0.55,0.4,0.55,0.71,0.29,0.29,0.88,0.5,0.33,0.48,0.55,0.95,0.55,0.61,0.48,0.29,0.55,0.77,0.29,0.5,0.56,0.58,0.55,0.42,0.29,0.42,0.55,0.5,0.58,0.61" style="fill:rgb(0,0,0);font-family:URWPalladioL-Roma;font-size:8.97px;stroke:none;">ort led by the U.S. Department of Energy’s Program for Climate Model Diagnosis and</text>
   <text y="118.112" x="76.535,79.496,84.61,87.475,91.684,94.997,98.898,103.696,111.455,116.736,121.129,124.6,127.157,130.883,135.681,140.795,143.0375,144.916,147.781,152.895,157.2006,158.94,164.309,169.608,172.92,177.718,182.999,187.208,191.602,196.8046,198.561,205.863,210.072,212.937,220.265,225.063,228.534,233.5572,235.265,238.191,242.989,246.577,248.305,253.674,258.067,261.538,264.403,269.60560000000004,271.362,275.975,280.861,284.587,287.451,291.66,301.264,309.577,314.375,319.744,323.953,326.51,329.067,331.624,336.738,341.7612,343.469,347.862,352.976,358.4477,360.182,364.979,367.844,372.958,377.167,380.755,382.483,387.764,392.158,395.629,398.493,403.607,407.816,411.287,415.0544,416.858,419.415,424.61760000000004,426.375,429.239,434.353,438.65860000000004,440.408,447.112,449.669,454.467,459.326,463.72,466.3213,468.122,475.029,478.341,483.227,487.62,492.735,495.292,499.017,503.411,506.275,508.832,513.63" svgx:width="0.34,0.58,0.33,0.48,0.4,0.44,0.55,0.88,0.6,0.5,0.4,0.29,0.42,0.55,0.58,0.25,0.55,0.33,0.58,0.48,0.55,0.61,0.6,0.4,0.55,0.6,0.48,0.5,0.58,0.55,0.83,0.48,0.33,0.83,0.55,0.4,0.56,0.55,0.33,0.55,0.4,0.55,0.61,0.5,0.4,0.33,0.58,0.55,0.52,0.56,0.42,0.33,0.48,0.88,0.95,0.55,0.61,0.48,0.29,0.29,0.29,0.58,0.56,0.55,0.5,0.58,0.61,0.55,0.55,0.33,0.58,0.48,0.4,0.55,0.6,0.5,0.4,0.33,0.58,0.48,0.4,0.42,0.55,0.29,0.58,0.55,0.33,0.58,0.48,0.55,0.76,0.29,0.55,0.55,0.5,0.29,0.55,0.79,0.4,0.56,0.5,0.58,0.29,0.42,0.5,0.33,0.29,0.55,0.58" style="fill:rgb(0,0,0);font-family:URWPalladioL-Roma;font-size:8.97px;stroke:none;">Intercomparison, the European Network for Earth SystemModelling and other partners in the Global Organisation</text>
   <text y="128.245" x="76.535,79.581,84.574,88.16199999999999,90.729,96.317,100.89,104.503,107.484,112.6866,115.34,120.142,125.227,129.105,132.086,136.467,144.3606,147.085,151.887,155.947,158.609,162.99,168.312,172.373,176.6786,179.287,184.811,189.805,193.417,196.399,200.972,203.633,207.40040000000002,210.053,213.099,220.077,227.266,230.311,235.899,240.701,245.502,251.026,254.072,256.3145,258.901,267.214,271.5196,274.138,278.71,281.372,285.25,290.1835,292.786,295.767,301.09,305.663,310.986,316.00919999999996,318.604,325.719,327.9615,330.548,335.35,339.411,344.733,350.248,352.91,357.483,365.11,369.491,372.152,377.74,382.225,384.847,387.892,392.886,396.47400000000005,399.041,402.022,407.345,411.65060000000005,414.268,417.314,420.762,425.143,429.523,432.185,437.2082,439.803,444.376,449.543,454.116,456.778,459.439,464.012,469.07,471.731,476.0366,478.654,485.139,492.217,499.3033,501.948,504.93,509.924,514.917,517.578" svgx:width="0.33,0.55,0.4,0.55,0.61,0.5,0.4,0.33,0.58,0.55,0.52,0.56,0.42,0.33,0.48,0.88,0.55,0.52,0.44,0.29,0.48,0.58,0.44,0.48,0.55,0.6,0.55,0.4,0.33,0.5,0.29,0.42,0.55,0.33,0.76,0.79,0.33,0.61,0.52,0.52,0.6,0.33,0.25,0.55,1.0,0.48,0.55,0.5,0.29,0.42,0.55,0.55,0.33,0.58,0.5,0.58,0.56,0.55,0.78,0.25,0.55,0.52,0.44,0.58,0.6,0.29,0.5,0.83,0.48,0.29,0.61,0.5,0.55,0.33,0.55,0.4,0.55,0.33,0.58,0.48,0.55,0.33,0.4,0.48,0.48,0.29,0.56,0.55,0.5,0.56,0.5,0.29,0.29,0.5,0.55,0.29,0.48,0.55,0.71,0.77,0.79,0.55,0.33,0.55,0.55,0.29,0.25" style="fill:rgb(0,0,0);font-family:URWPalladioL-Roma;font-size:8.97px;stroke:none;">for Earth System Science Portals (GO-ESSP). We also thank U. Schulzweida for the freely available CDO tool,</text>
   <text y="138.377" x="76.213,81.675,85.957,89.488,93.279,95.88,100.761,105.9636,108.19,112.659,114.894,119.364,121.599,126.069,128.3115,131.432,138.387,143.849,149.311,151.913,154.827,157.428,162.309,167.512,171.982,174.583,177.185,181.163,183.40550000000002,185.633,193.088,197.3936,199.596,204.066,208.035,213.005,218.208,223.089,230.545,233.146,237.428,242.89,247.86,252.1656,254.368,257.283,262.485,266.79060000000004,268.993,276.449,281.33,284.861,289.88419999999996,292.066,296.947,299.9071,302.15,305.064,310.267,314.5726,316.775,322.237,326.85,332.222,336.504,340.036,342.9961,345.185,349.833,354.115,358.585,368.714,373.594,378.7966,381.023,385.716,389.998,393.968,396.882,401.763,405.133,408.11,411.9,417.273,421.555,425.524,428.125,433.534,437.4808,439.729,446.067,448.668,451.27,459.163,463.633,466.547,470.85260000000005,473.055,476.068,481.271,486.733,489.334,493.303,497.585,501.3524,503.611,508.08,513.283" svgx:width="0.72,0.48,0.4,0.42,0.29,0.55,0.58,0.55,0.5,0.25,0.5,0.25,0.5,0.25,0.55,0.78,0.61,0.61,0.29,0.33,0.29,0.55,0.58,0.5,0.29,0.29,0.56,0.25,0.55,0.83,0.48,0.55,0.5,0.44,0.56,0.58,0.55,0.83,0.29,0.48,0.61,0.56,0.48,0.55,0.33,0.58,0.48,0.55,0.83,0.55,0.4,0.56,0.55,0.55,0.33,0.55,0.33,0.58,0.48,0.55,0.61,0.52,0.6,0.48,0.4,0.33,0.55,0.61,0.48,0.5,0.88,0.55,0.58,0.55,0.52,0.48,0.44,0.33,0.55,0.4,0.33,0.42,0.6,0.48,0.44,0.29,0.61,0.44,0.55,0.71,0.29,0.29,0.88,0.5,0.33,0.48,0.55,0.34,0.58,0.61,0.29,0.44,0.48,0.42,0.55,0.5,0.58,0.61" style="fill:rgb(0,0,0);font-family:URWPalladioL-Roma;font-size:8.97px;stroke:none;">Version 1.9.6. Additionally, we acknowledge the work of the Expert Teamon Sector-speciﬁc Climate Indices and</text>
   <text y="148.509" x="76.535,79.458,84.676,88.9816,91.213,95.015,100.421,105.81,111.199,116.095,119.636,122.59609999999999,124.801,129.697,132.6571,134.924,140.403,143.012,148.23,153.709,157.511,161.805,166.8282,169.032,176.008,181.415,186.4,191.807,194.416,199.6186,201.876,204.862,209.758,213.346,215.541,218.15,222.634,227.852,232.837,238.244,242.727,247.713,252.0186,254.249,258.544,264.022,266.632,269.555,272.164,277.382,282.368" svgx:width="0.33,0.58,0.48,0.55,0.42,0.6,0.6,0.6,0.55,0.4,0.33,0.55,0.55,0.33,0.55,0.61,0.29,0.58,0.61,0.42,0.48,0.56,0.55,0.78,0.6,0.56,0.6,0.29,0.58,0.55,0.33,0.55,0.4,0.55,0.29,0.5,0.58,0.56,0.6,0.5,0.56,0.48,0.55,0.48,0.61,0.29,0.33,0.29,0.58,0.56,0.25" style="fill:rgb(0,0,0);font-family:URWPalladioL-Roma;font-size:8.97px;stroke:none;">the support of Lindsey Auguin for language editing.</text>
   <text y="164.618" x="76.535,83.009,87.994,93.473,98.951,101.937,105.918,108.904,112.85079999999999,115.126,120.112,123.6103,125.841,129.329,134.808,137.793,142.277,145.765,150.248,154.229,157.215" svgx:width="0.72,0.56,0.61,0.61,0.33,0.44,0.33,0.44,0.55,0.56,0.39,0.55,0.39,0.61,0.33,0.5,0.39,0.5,0.44,0.33,0.25" style="fill:rgb(0,0,0);font-family:URWPalladioL-Bold;font-size:8.97px;stroke:none;">Conﬂicts of Interest:</text>
   <text y="164.618" x="162.594,168.09,173.309,177.6146,179.845,184.329,189.735,192.658,197.877,202.772,206.314,210.0814,212.358,217.836,222.131,226.112,228.721,233.204,236.585,240.8906,243.121,248.34,253.2735,255.477,259.458,264.354,269.572,275.024,277.633,281.614,284.5741,286.779,291.674,294.6341,296.902,299.511,304.729,307.652,311.947,315.328,319.623,323.424,326.347" svgx:width="0.61,0.58,0.48,0.55,0.5,0.6,0.33,0.58,0.55,0.4,0.42,0.55,0.61,0.48,0.44,0.29,0.5,0.4,0.48,0.55,0.58,0.55,0.55,0.44,0.55,0.58,0.61,0.29,0.44,0.33,0.55,0.55,0.33,0.55,0.29,0.58,0.33,0.48,0.4,0.48,0.42,0.33,0.25" style="fill:rgb(0,0,0);font-family:URWPalladioL-Roma;font-size:8.97px;stroke:none;">The authors declare no conﬂict of interest.</text>
   <text y="190.92" x="76.535,83.728,88.709,92.585,97.566,101.441,106.423,112.51,116.933,121.915" svgx:width="0.72,0.5,0.39,0.5,0.39,0.5,0.61,0.44,0.5,0.44" style="fill:rgb(0,0,0);font-family:URWPalladioL-Bold;font-size:9.96px;stroke:none;">References</text>
   <text y="209.809" x="76.535,81.018,83.26050000000001,98.05,101.09,106.538,112.933,119.329" svgx:width="0.5,0.25,0.55,0.34,0.6,0.71,0.71,0.25" style="fill:rgb(0,0,0);font-family:URWPalladioL-Roma;font-size:8.97px;stroke:none;">1. IPCC.</text>
   <text y="209.809" x="123.817,129.833,132.341,134.849,141.866,145.871,148.875,152.3733,154.612,160.628,165.139,169.144,174.159,178.669,182.1673,184.415,188.925,193.435,197.945,202.455,204.69750000000002,207.84,213.352,217.862,221.3603,223.607,229.119,233.629,238.139,241.648,244.155,247.827,251.832,254.34359999999998,256.567,261.582,265.254,267.761,271.27,276.285,279.957,283.45529999999997,285.703,291.214,295.219,298.728,301.235,304.744,306.98650000000004,310.129,316.146,320.151,325.166,328.17,331.678,334.186,338.362,343.378,346.381,348.889,352.894,357.9172,360.146,364.151,366.6626,368.887,377.222,381.227,384.735,388.74,391.248,396.263,400.748,403.01,409.523,412.869,416.874,421.89,426.375,428.628,431.5881,433.868,436.872,440.8188,443.105,446.109,450.619,454.1173,456.365,461.38,463.888,466.395,469.399,473.884,476.137,482.65,486.158,489.667,493.176,496.685,500.194,507.212,510.72,515.736" svgx:width="0.67,0.28,0.28,0.78,0.44,0.33,0.39,0.55,0.67,0.5,0.44,0.56,0.5,0.39,0.55,0.5,0.5,0.5,0.5,0.25,0.55,0.61,0.5,0.39,0.55,0.61,0.5,0.5,0.39,0.28,0.41,0.44,0.28,0.55,0.56,0.41,0.28,0.39,0.56,0.41,0.39,0.55,0.61,0.44,0.39,0.28,0.39,0.25,0.55,0.67,0.44,0.56,0.33,0.39,0.28,0.46,0.56,0.33,0.28,0.44,0.56,0.55,0.44,0.28,0.55,0.94,0.44,0.39,0.44,0.28,0.56,0.5,0.55,0.72,0.39,0.44,0.56,0.5,0.55,0.33,0.55,0.33,0.44,0.55,0.33,0.5,0.39,0.55,0.56,0.28,0.28,0.33,0.5,0.55,0.72,0.39,0.39,0.39,0.39,0.39,0.78,0.39,0.56,0.33" style="fill:rgb(0,0,0);font-family:URWPalladioL-Ital;font-size:8.97px;stroke:none;">Climate Change 2013: The Physical Science Basis. Contribution of Working Group I to the Fifth Assessment</text>
   <text y="222.72" x="97.755,103.855,107.413,111.986,116.046,119.604,122.5641,125.64,129.701,132.21259999999998,135.234,138.28,142.853,146.3513,149.401,152.446,157.531,160.577,164.135,167.528,172.101,176.161,180.734,184.292,187.85,192.935,200.05,203.608,208.693,211.738,215.799,218.3106,221.332,226.92,230.981,236.066,239.624,242.13559999999998,245.157,249.217,254.24020000000002,257.293,263.393,265.936,268.478,275.594,279.645,282.691,286.1893,289.239,295.339,299.912,303.973,309.058,313.631" svgx:width="0.67,0.39,0.5,0.44,0.39,0.33,0.55,0.44,0.28,0.55,0.33,0.5,0.39,0.55,0.33,0.56,0.33,0.39,0.39,0.5,0.44,0.5,0.39,0.39,0.56,0.78,0.39,0.56,0.33,0.44,0.28,0.55,0.61,0.44,0.56,0.39,0.28,0.55,0.44,0.56,0.55,0.67,0.28,0.28,0.78,0.44,0.33,0.39,0.55,0.67,0.5,0.44,0.56,0.5,0.39" style="fill:rgb(0,0,0);font-family:URWPalladioL-Ital;font-size:8.97px;stroke:none;">Report of the Intergovernmental Panel on Climate Change</text>
   <text y="222.72" x="317.192,319.4345,322.844,327.646,330.627,335.621,339.681,344.766,349.147,352.092,354.3345,357.369,362.317,364.603,368.856,371.143,373.3855,376.612,383.8,386.462,391.785,394.02750000000003,397.062,404.14,406.427,408.6695,411.887,417.411,420.072,424.645,427.627,430.608,435.931,440.312,443.257,445.4995,448.534,455.512,457.798,460.844,467.484,469.77,472.0125,475.239,480.352,483.013,488.098,493.421,498.415,501.36,503.6025,506.637,515.289,517.575" svgx:width="0.25,0.55,0.52,0.33,0.55,0.44,0.56,0.48,0.4,0.25,0.55,0.61,0.25,0.56,0.25,0.25,0.55,0.79,0.29,0.58,0.25,0.55,0.77,0.25,0.25,0.55,0.6,0.29,0.5,0.33,0.33,0.58,0.48,0.4,0.25,0.55,0.76,0.25,0.33,0.73,0.25,0.25,0.55,0.61,0.29,0.56,0.58,0.55,0.4,0.25,0.55,0.95,0.25,0.25" style="fill:rgb(0,0,0);font-family:URWPalladioL-Roma;font-size:8.97px;stroke:none;">; Stocker, T.F., Qin, D., Plattner, G.-K., Tignor, M.,</text>
   <text y="235.632" x="97.701,104.816,107.478,110.139,114.52,119.843,122.08550000000001,125.23,130.031,132.318,138.957,141.244,143.4865,146.841,152.429,157.423,161.3,165.361,170.684,176.199,181.522,186.607,188.8495,191.993,195.039,197.325,199.5675,202.923,210.523,215.096,220.611,224.991,227.653,231.531,233.7735,236.917,244.033,246.319,248.5615,251.916,258.017,260.678,265.251,267.4935,270.638,275.741,278.027,280.2695,283.625,289.213,293.593,298.313,300.5555,303.699,309.15,311.437,313.6795,317.034,325.686,328.347,333.935,339.02,341.682,346.063,350.151,352.3935,355.537,359.9,362.186,370.838,373.125,375.3675,378.731,384.319,389.907,393.785,396.071,398.31350000000003,401.879,408.363,412.936,421.012,426.069,429.682,432.343,437.931,443.016,447.32160000000005,450.498,457.613,462.936,465.597,470.765,475.145,478.758,482.636,485.297,488.279,493.30219999999997,496.464,501.988,505.436,509.817,513.695,517.572" svgx:width="0.78,0.29,0.29,0.48,0.58,0.25,0.55,0.52,0.25,0.73,0.25,0.25,0.55,0.61,0.55,0.42,0.44,0.58,0.6,0.58,0.56,0.25,0.55,0.33,0.25,0.25,0.55,0.83,0.5,0.6,0.48,0.29,0.42,0.25,0.55,0.78,0.25,0.25,0.55,0.67,0.29,0.5,0.25,0.55,0.67,0.25,0.25,0.55,0.61,0.48,0.52,0.25,0.55,0.72,0.25,0.25,0.55,0.95,0.29,0.61,0.56,0.29,0.48,0.56,0.25,0.55,0.6,0.25,0.95,0.25,0.25,0.55,0.61,0.61,0.42,0.25,0.25,0.55,0.71,0.5,0.88,0.55,0.4,0.29,0.61,0.56,0.48,0.55,0.78,0.58,0.29,0.56,0.48,0.4,0.42,0.29,0.33,0.56,0.55,0.6,0.4,0.48,0.42,0.42,0.25" style="fill:rgb(0,0,0);font-family:URWPalladioL-Roma;font-size:8.97px;stroke:none;">Allen, S.K., Boschung, J., Nauels, A., Xia, Y., Bex, V., Midgley, P.M., Eds.; Cambridge University Press:</text>
   <text y="248.544" x="98.05,104.407,108.89,116.808,121.766,125.308,127.917,133.396,138.381,142.676,144.9185,147.159,154.135,160.644,162.8865,165.128,172.579,176.874,184.3191,186.593,191.749,196.645,200.186,205.172,207.4145,209.655,217.106,222.091,224.33350000000002,226.574,233.55,238.258,245.234,247.47650000000002,249.717,254.2,258.683,263.166,267.65,269.8925,272.133,277.522,279.7645,282.005,286.488,290.971,295.454,299.938,302.1805,305.318" svgx:width="0.71,0.5,0.88,0.55,0.4,0.29,0.61,0.56,0.48,0.25,0.55,0.78,0.73,0.25,0.55,0.83,0.48,0.83,0.55,0.67,0.55,0.4,0.56,0.25,0.55,0.83,0.67,0.25,0.55,0.78,0.52,0.78,0.25,0.55,0.5,0.5,0.5,0.5,0.25,0.55,0.6,0.25,0.55,0.5,0.5,0.5,0.5,0.25,0.55,0.33" style="fill:rgb(0,0,0);font-family:URWPalladioL-Roma;font-size:8.97px;stroke:none;">Cambridge, UK; New York, NY, USA, 2013; p. 1535. [</text>
   <text y="248.544" x="308.303,314.661,318.041,322.936,326.738,330.54,336.53,340.824" svgx:width="0.71,0.4,0.55,0.42,0.42,0.67,0.48,0.33" style="fill:rgb(8,117,183);font-family:URWPalladioL-Roma;font-size:8.97px;stroke:none;">CrossRef</text>
   <text y="248.544" x="343.81" svgx:width="0.33" style="fill:rgb(0,0,0);font-family:URWPalladioL-Roma;font-size:8.97px;stroke:none;">]</text>
   <text y="261.455" x="76.535,81.018,83.26050000000001,98.05,103.135,105.796,110.177,112.839,118.427,120.66950000000001,124.454,130.938,133.224,138.813,141.099,143.3415,147.867,153.455,158.028,161.64,165.097,170.091,173.969,176.2115,179.987,185.437,187.724,189.9665,194.492,199.293,202.275,207.268,211.329,216.414,220.795,223.749,225.9915,229.776,234.715,237.001,241.263,243.549,245.7915,250.317,257.506,260.167,265.49,267.7325,271.517,278.596,280.882,283.1245,287.659,294.738,299.722,304.807,309.893,314.273,319.596,321.8385,325.623,332.702,334.988,338.034,340.32,342.5625,347.097,352.685,357.743,360.404,362.6465,366.422,373.062,375.349,380.937,383.223,385.4655,390.0,398.652,403.225,407.102,410.084,413.697,418.269,423.592,429.18,432.628,437.009,441.582,443.8245,447.609,456.261,458.547,465.626,467.912,470.1545,474.68,483.332,487.905,491.966,497.289,499.5315,503.316,509.955,512.242,515.287,517.574" svgx:width="0.5,0.25,0.55,0.56,0.29,0.48,0.29,0.61,0.25,0.55,0.71,0.25,0.61,0.25,0.25,0.55,0.61,0.5,0.4,0.4,0.55,0.42,0.25,0.55,0.72,0.25,0.25,0.55,0.52,0.33,0.55,0.44,0.56,0.48,0.4,0.25,0.55,0.61,0.25,0.56,0.25,0.25,0.55,0.79,0.29,0.58,0.25,0.55,0.77,0.25,0.25,0.55,0.77,0.55,0.56,0.56,0.48,0.58,0.25,0.55,0.77,0.25,0.33,0.25,0.25,0.55,0.61,0.55,0.29,0.25,0.55,0.73,0.25,0.61,0.25,0.25,0.55,0.95,0.5,0.42,0.33,0.4,0.5,0.58,0.61,0.4,0.48,0.5,0.25,0.55,0.95,0.25,0.77,0.25,0.25,0.55,0.95,0.5,0.44,0.58,0.25,0.55,0.73,0.25,0.33,0.25,0.25" style="fill:rgb(0,0,0);font-family:URWPalladioL-Roma;font-size:8.97px;stroke:none;">2. Field, C.B.; Barros, V.; Stocker, T.F.; Qin, D.; Dokken, D.J.; Ebi, K.L.; Mastrandrea, M.D.; Mach, K.J.;</text>
   <text y="274.367" x="98.05,103.449,106.051,110.521,113.435,116.349,121.552,125.834,128.704,130.94650000000001,133.164,139.985,142.22,148.71,150.945,153.1875,155.415,162.37,164.971,167.573,171.855,177.057,179.2995,181.527,186.22,188.455,194.945,197.18,199.4225,201.65,205.932,208.8921,211.081,215.551,218.152" svgx:width="0.6,0.29,0.5,0.33,0.33,0.58,0.48,0.4,0.25,0.55,0.76,0.25,0.73,0.25,0.25,0.55,0.78,0.29,0.29,0.48,0.58,0.25,0.55,0.52,0.25,0.73,0.25,0.25,0.55,0.48,0.33,0.55,0.5,0.29,0.25" style="fill:rgb(0,0,0);font-family:URWPalladioL-Roma;font-size:8.97px;stroke:none;">Plattner, G.K.; Allen, S.K.; et al.</text>
   <text y="274.367" x="223.521,231.96,235.929,240.899,244.869,249.338,251.823,256.794,261.279,263.498,266.475,270.945,274.4433,276.648,282.611,285.096,288.574,292.543,296.0413,298.255,302.224,304.7356,306.944,312.406,316.876,319.853,323.17,326.647,333.602,337.10029999999995,339.305,344.767,349.237,352.715,357.685,360.662,364.1603,366.374,370.343,375.314,379.79900000000004,382.018,388.973,391.459,394.936,398.905,402.383,405.359,408.837,412.314,415.81230000000005,418.018,420.995,424.9418,427.199,433.653,438.123,442.593,446.562,451.532,455.17,458.66830000000004,460.883,466.845,469.331,471.816,478.771,482.74,485.717,489.21529999999996,491.42,497.383,501.853,505.822,510.792,515.262" svgx:width="0.94,0.44,0.56,0.44,0.5,0.28,0.56,0.5,0.55,0.33,0.5,0.39,0.55,0.67,0.28,0.39,0.44,0.39,0.55,0.44,0.28,0.55,0.61,0.5,0.33,0.39,0.39,0.78,0.39,0.55,0.61,0.5,0.39,0.56,0.33,0.39,0.55,0.44,0.56,0.5,0.55,0.78,0.28,0.39,0.44,0.39,0.33,0.39,0.39,0.39,0.55,0.33,0.44,0.55,0.72,0.5,0.5,0.44,0.56,0.41,0.39,0.55,0.67,0.28,0.28,0.78,0.44,0.33,0.39,0.55,0.67,0.5,0.44,0.56,0.5,0.39" style="fill:rgb(0,0,0);font-family:URWPalladioL-Ital;font-size:8.97px;stroke:none;">Managing the Risks of Extreme Events and Disasters to Advance Climate Change</text>
   <text y="287.278" x="97.728,104.331,108.904,112.965,117.538,120.583,124.644,127.689,130.232,134.293,139.378,141.6205,147.947,154.40540000000001,157.843,162.928,167.501,171.058,174.781,177.323,181.384,183.89559999999997,187.219,193.319,196.877,201.45,205.51,209.068,212.02810000000002,215.406,219.467,221.9786,225.302,233.752,237.813,241.371,245.432,247.974,253.059,257.544,260.924,267.528,270.921,274.981,280.066,284.639,288.1373,291.489,294.4491,297.827,301.888,306.973,311.458,314.829,317.875,320.8351,324.213,328.273,330.7846,334.108,337.154,341.727,345.22529999999995,348.577,351.623,356.708,359.753,363.311,366.704,371.277,375.337,379.91,383.468,387.026,392.111,399.226,402.784,407.869,410.914,414.975,417.4866,420.81,426.398,430.459,435.544,439.101,441.6126,444.936,448.997,454.0202,457.375,463.475,466.017,468.56,475.675,479.736,482.781,486.27930000000003,489.622,495.723,500.295,504.356,509.441,514.014" svgx:width="0.72,0.5,0.44,0.5,0.33,0.44,0.33,0.28,0.44,0.56,0.25,0.55,0.72,0.55,0.56,0.5,0.39,0.41,0.28,0.44,0.28,0.55,0.67,0.39,0.5,0.44,0.39,0.33,0.55,0.44,0.28,0.55,0.94,0.44,0.39,0.44,0.28,0.56,0.5,0.55,0.72,0.39,0.44,0.56,0.5,0.39,0.55,0.33,0.55,0.44,0.56,0.5,0.55,0.33,0.33,0.55,0.44,0.28,0.55,0.33,0.5,0.39,0.55,0.33,0.56,0.33,0.39,0.39,0.5,0.44,0.5,0.39,0.39,0.56,0.78,0.39,0.56,0.33,0.44,0.28,0.55,0.61,0.44,0.56,0.39,0.28,0.55,0.44,0.56,0.55,0.67,0.28,0.28,0.78,0.44,0.33,0.39,0.55,0.67,0.5,0.44,0.56,0.5,0.39" style="fill:rgb(0,0,0);font-family:URWPalladioL-Ital;font-size:8.97px;stroke:none;">Adaptation. A Special Report of Working Groups I and II of the Intergovernmental Panel on Climate Change</text>
   <text y="287.278" x="517.575" svgx:width="0.25" style="fill:rgb(0,0,0);font-family:URWPalladioL-Roma;font-size:8.97px;stroke:none;">;</text>
   <text y="300.19" x="98.05,104.407,108.89,116.808,121.766,125.308,127.917,133.396,138.381,142.6866,144.917,151.893,157.112,159.721,164.787,169.082,172.624,176.425,179.035,181.958,186.9812,189.185,194.6,197.981,202.275,206.077,209.879,212.1215,215.259,221.616,226.099,234.017,238.975,242.517,245.126,250.604,255.59,259.885,262.1275,264.368,271.344,277.853,280.0955,282.336,286.82,291.303,295.786,300.269,302.5115,304.753,310.141,312.3835,314.625,319.108,323.591,328.074" svgx:width="0.71,0.5,0.88,0.55,0.4,0.29,0.61,0.56,0.48,0.55,0.78,0.58,0.29,0.56,0.48,0.4,0.42,0.29,0.33,0.56,0.55,0.6,0.4,0.48,0.42,0.42,0.25,0.55,0.71,0.5,0.88,0.55,0.4,0.29,0.61,0.56,0.48,0.25,0.55,0.78,0.73,0.25,0.55,0.5,0.5,0.5,0.5,0.25,0.55,0.6,0.25,0.55,0.5,0.5,0.5,0.25" style="fill:rgb(0,0,0);font-family:URWPalladioL-Roma;font-size:8.97px;stroke:none;">Cambridge University Press: Cambridge, UK, 2012; p. 582.</text>
   <text y="313.102" x="76.535,81.018,83.26050000000001,98.054,103.703,108.186,113.38860000000001,115.646,122.694,125.303,130.782,135.077,140.295,145.254,150.149,153.53,158.515,163.733,165.9755,168.216,175.058,177.299,180.285,182.527,184.7695,187.01,192.426,197.644,200.253,202.863,205.472,210.861,213.1035,215.344,220.051,222.293,224.5355,226.776,233.286,237.581,244.234,246.47650000000002,248.717,253.424,255.666,257.9085,260.149,265.798,270.281,275.688,278.611,283.094,286.474,291.953,294.1955,296.436,302.426,304.667,306.9095,309.151,314.629,319.525,324.931,328.912,334.131,338.426,341.304,343.5465,345.796,352.844,355.085,357.3275,359.569,366.616,369.539,372.462,377.358,379.6005,381.841,386.002,388.243,390.4855,392.726,400.186,404.67,410.076,413.878,416.801,421.096,423.705,428.924,431.1665,433.407,439.917,442.158,444.4005,446.641,451.349,456.244,461.651,466.61,470.904,475.89,479.27,484.166,489.572,494.199,496.4415,498.682,501.668,503.91,506.896,515.378,517.619" svgx:width="0.5,0.25,0.55,0.72,0.5,0.58,0.55,0.79,0.29,0.61,0.48,0.58,0.55,0.55,0.4,0.56,0.58,0.25,0.55,0.76,0.25,0.33,0.25,0.25,0.55,0.6,0.58,0.29,0.29,0.29,0.6,0.25,0.55,0.52,0.25,0.25,0.55,0.73,0.48,0.83,0.25,0.55,0.52,0.25,0.25,0.55,0.72,0.5,0.6,0.33,0.5,0.4,0.61,0.25,0.55,0.67,0.25,0.25,0.55,0.61,0.55,0.6,0.44,0.58,0.48,0.4,0.25,0.55,0.79,0.25,0.25,0.55,0.79,0.33,0.33,0.55,0.25,0.55,0.56,0.25,0.25,0.55,0.83,0.5,0.6,0.42,0.33,0.48,0.29,0.58,0.25,0.55,0.73,0.25,0.25,0.55,0.52,0.55,0.6,0.55,0.48,0.56,0.4,0.55,0.6,0.52,0.25,0.55,0.33,0.25,0.33,0.95,0.25,0.25" style="fill:rgb(0,0,0);font-family:URWPalladioL-Roma;font-size:8.97px;stroke:none;">3. Van Oldenborgh, G.J.; Philip, S.; Kew, S.; Vautard, R.; Boucher, O.; Otto, F.; Haustein, K.; Soubeyroux, J.-M.;</text>
   <text y="326.013" x="98.05,104.159,106.821,111.878,116.259,120.137,122.37950000000001,124.774,131.889,134.176,136.4185,138.877,144.986,149.979,155.037,157.698,163.021,165.2635,167.667,172.771,175.057,177.2995,179.749,184.13,187.0901,189.471,194.044,196.705" svgx:width="0.67,0.29,0.55,0.48,0.42,0.25,0.55,0.78,0.25,0.25,0.55,0.67,0.55,0.55,0.29,0.58,0.25,0.55,0.67,0.25,0.25,0.55,0.48,0.33,0.55,0.5,0.29,0.25" style="fill:rgb(0,0,0);font-family:URWPalladioL-Roma;font-size:8.97px;stroke:none;">Ribes, A.; Robin, Y.; et al.</text>
   <text y="326.013" x="202.468,209.583,214.668,221.784,225.844,230.8672,233.28,239.38,243.441,248.526,251.571,255.129,257.672,261.906,266.991,270.037,272.579,276.64,281.66319999999996,284.084,287.13,291.0768,293.541,296.587,301.16,304.65830000000005,307.077,313.177,316.735,320.457,324.518,328.075,332.648,335.694,341.282,344.675,348.233,352.293,356.354,358.896,363.982,368.46700000000004,370.905,373.95,379.035,384.12,387.6183,390.038,394.611,399.183,403.756,408.241,410.68,417.795,421.353,425.413,428.3731,430.819,439.269,443.33,447.903,451.4013,453.82,456.363,461.3862,463.798,468.883,472.441,476.501,481.586,485.309" svgx:width="0.78,0.56,0.78,0.44,0.56,0.55,0.67,0.44,0.56,0.33,0.39,0.28,0.46,0.56,0.33,0.28,0.44,0.56,0.55,0.33,0.44,0.55,0.33,0.5,0.39,0.55,0.67,0.39,0.41,0.44,0.39,0.5,0.33,0.61,0.39,0.39,0.44,0.44,0.28,0.56,0.5,0.55,0.33,0.56,0.56,0.39,0.55,0.5,0.5,0.5,0.5,0.55,0.78,0.39,0.44,0.33,0.55,0.94,0.44,0.5,0.39,0.55,0.28,0.56,0.55,0.56,0.39,0.44,0.56,0.41,0.39" style="fill:rgb(0,0,0);font-family:URWPalladioL-Ital;font-size:8.97px;stroke:none;">Human Contribution to the Record-Breaking June 2019 Heat Wave in France</text>
   <text y="326.013" x="488.866,491.1085,493.567,501.88,506.874,510.486,513.148" svgx:width="0.25,0.55,1.0,0.55,0.4,0.29,0.61" style="fill:rgb(0,0,0);font-family:URWPalladioL-Roma;font-size:8.97px;stroke:none;">; World</text>
   <text y="338.925" x="97.602,105.743,110.038,114.522,117.445,122.663,126.958,130.546,132.741,139.717,142.64,145.563,149.105,151.714,156.673,162.079,165.002,167.612,172.507,177.7096,179.967,182.953,191.92,200.061,207.037,210.023,212.2655,214.506,221.482,229.399,233.201,236.124,240.419,243.799,249.278,253.761,261.678,263.9205,266.161,273.612,277.907,280.83,286.049,290.344,293.885,296.495,300.978,306.196,311.675,315.477,317.7195,319.96,324.443,328.926,333.409,337.893,340.1355,342.376,347.765,350.0075,352.248,356.731,361.214" svgx:width="1.0,0.48,0.5,0.33,0.58,0.48,0.4,0.55,0.78,0.33,0.33,0.4,0.29,0.55,0.6,0.33,0.29,0.55,0.58,0.55,0.33,1.0,1.0,0.78,0.33,0.25,0.55,0.78,0.88,0.42,0.33,0.48,0.4,0.61,0.5,0.88,0.25,0.55,0.83,0.48,0.33,0.58,0.48,0.4,0.29,0.5,0.58,0.61,0.42,0.25,0.55,0.5,0.5,0.5,0.5,0.25,0.55,0.6,0.25,0.55,0.5,0.5,0.25" style="fill:rgb(0,0,0);font-family:URWPalladioL-Roma;font-size:8.97px;stroke:none;">Weather Attribution (WWA): Amsterdam, Netherlands, 2019; p. 32.</text>
   <text y="351.836" x="76.535,81.018,83.26050000000001,98.05,103.638,108.211,112.089,115.07,119.451,123.064,125.725,128.386,133.709,138.794,141.03650000000002,143.641,150.72,153.007,159.116,161.402,163.6445,166.396,175.048,179.429,183.81,189.132,191.794,194.03650000000002,196.641,203.619,205.906,213.021,215.307,217.5495,220.31,225.834,230.407,234.02,242.095,246.476,250.354,254.927,260.25,262.4925,265.088,271.572,273.858,276.1005,278.861,285.345,290.668,295.241,300.564,305.649,310.972,315.965,321.288,323.5305,326.135,330.937,333.223,340.339,342.625,344.8675,347.619,354.258,358.831,362.444,365.105,367.3475,369.953,374.891,377.178,383.287,385.573,387.8155,390.576,399.228,403.609,408.182,411.794,417.117,420.995,423.2375,425.842,431.43,433.717,440.905,443.1475,445.743,452.228,454.889,457.55,465.626,470.199,473.18,477.48560000000003,480.122,485.71,490.429,493.411,496.859,501.239,509.315,513.696,517.574" svgx:width="0.5,0.25,0.55,0.61,0.5,0.42,0.33,0.48,0.4,0.29,0.29,0.58,0.56,0.25,0.55,0.77,0.25,0.67,0.25,0.25,0.55,0.95,0.48,0.48,0.58,0.29,0.25,0.55,0.76,0.25,0.78,0.25,0.25,0.55,0.6,0.5,0.4,0.88,0.48,0.42,0.5,0.58,0.25,0.55,0.71,0.25,0.25,0.55,0.71,0.58,0.5,0.58,0.56,0.58,0.55,0.58,0.25,0.55,0.52,0.25,0.78,0.25,0.25,0.55,0.73,0.5,0.4,0.29,0.25,0.55,0.61,0.25,0.67,0.25,0.25,0.55,0.95,0.48,0.5,0.4,0.58,0.42,0.25,0.55,0.61,0.25,0.79,0.25,0.55,0.71,0.29,0.29,0.88,0.5,0.33,0.48,0.55,0.61,0.52,0.33,0.4,0.48,0.88,0.48,0.42,0.25" style="fill:rgb(0,0,0);font-family:URWPalladioL-Roma;font-size:8.97px;stroke:none;">4. Easterling, D.R.; Meehl, G.A.; Parmesan, C.; Changnon, S.A.; Karl, T.R.; Mearns, L.O. Climate Extremes:</text>
   <text y="364.748" x="98.05,105.098,110.056,113.858,118.153,121.694,126.76,131.244,134.167,136.776,141.672,146.89,150.692,152.9345,155.175,163.657,168.553,174.031,178.326,180.935,183.545,188.763,193.748,195.9905,198.232,202.715,207.933,213.4047,215.653,218.675,226.592,231.981,236.464,240.445,243.368,247.17" svgx:width="0.79,0.55,0.42,0.48,0.4,0.56,0.5,0.33,0.29,0.55,0.58,0.42,0.25,0.55,0.95,0.55,0.61,0.48,0.29,0.29,0.58,0.56,0.25,0.55,0.5,0.58,0.61,0.55,0.34,0.88,0.6,0.5,0.44,0.33,0.42,0.25" style="fill:rgb(0,0,0);font-family:URWPalladioL-Roma;font-size:8.97px;stroke:none;">Observations, Modeling, and Impacts.</text>
   <text y="364.748" x="252.549,257.534,261.184,263.676,267.164,272.15,275.799" svgx:width="0.56,0.41,0.28,0.39,0.56,0.41,0.39" style="fill:rgb(0,0,0);font-family:URWPalladioL-Ital;font-size:8.97px;stroke:none;">Science</text>
   <text y="364.748" x="281.527,286.01,290.493,294.977" svgx:width="0.5,0.5,0.5,0.5" style="fill:rgb(0,0,0);font-family:URWPalladioL-Bold;font-size:8.97px;stroke:none;">2000</text>
   <text y="364.748" x="299.46" svgx:width="0.25" style="fill:rgb(0,0,0);font-family:URWPalladioL-Roma;font-size:8.97px;stroke:none;">,</text>
   <text y="364.748" x="303.943,308.426,312.909" svgx:width="0.5,0.5,0.5" style="fill:rgb(0,0,0);font-family:URWPalladioL-Ital;font-size:8.97px;stroke:none;">289</text>
   <text y="364.748" x="317.393,319.6355,321.876,326.359,328.6015,331.739" svgx:width="0.25,0.55,0.5,0.25,0.55,0.33" style="fill:rgb(0,0,0);font-family:URWPalladioL-Roma;font-size:8.97px;stroke:none;">, 7. [</text>
   <text y="364.748" x="334.725,341.082,344.463,349.358,353.16,356.962,362.951,367.246" svgx:width="0.71,0.4,0.55,0.42,0.42,0.67,0.48,0.33" style="fill:rgb(8,117,183);font-family:URWPalladioL-Roma;font-size:8.97px;stroke:none;">CrossRef</text>
   <text y="364.748" x="370.232,373.19210000000004,375.459" svgx:width="0.33,0.55,0.33" style="fill:rgb(0,0,0);font-family:URWPalladioL-Roma;font-size:8.97px;stroke:none;">] [</text>
   <text y="364.748" x="378.445,383.861,389.268,394.226,402.708,407.003" svgx:width="0.6,0.6,0.55,0.95,0.48,0.61" style="fill:rgb(8,117,183);font-family:URWPalladioL-Roma;font-size:8.97px;stroke:none;">PubMed</text>
   <text y="364.748" x="412.482" svgx:width="0.33" style="fill:rgb(0,0,0);font-family:URWPalladioL-Roma;font-size:8.97px;stroke:none;">]</text>
   <text y="377.66" x="76.535,81.018,83.26050000000001,98.05,106.702,111.275,116.598,121.92,124.16250000000001,127.06,135.712,137.999,143.587,145.873,148.1155,151.324,157.433,162.006,167.329,175.405,179.282,182.264,187.257,190.87,193.916,196.1585,199.055,203.857,206.143,208.3855,211.594,218.234,223.228,226.84,232.163,237.486,243.001,248.058,252.439,255.384,257.62649999999996,260.533,267.173,269.459,271.7015,274.901,279.703,282.684,287.065,289.726,295.049,303.125,307.698,313.02,315.2625,318.169,323.758,326.044,333.159,335.446,337.68850000000003,340.888,349.539,352.201,354.862,357.524,361.904,364.858,367.1005,369.998,374.8,377.086,383.726,386.013,388.2555,391.463,396.987,401.368,404.35,407.962,410.624,412.86650000000003,415.764,420.565,422.852,425.0945,428.302,434.787,439.78,445.295,453.371,458.364,463.879,466.1215,469.019,476.098,478.3405,481.238,486.762,490.219,495.212,497.353,501.733,505.794,508.776,513.156" svgx:width="0.5,0.25,0.55,0.95,0.5,0.58,0.58,0.25,0.55,0.95,0.25,0.61,0.25,0.25,0.55,0.67,0.5,0.58,0.88,0.42,0.33,0.55,0.4,0.33,0.25,0.55,0.52,0.25,0.25,0.55,0.73,0.55,0.4,0.58,0.58,0.6,0.55,0.48,0.4,0.25,0.55,0.73,0.25,0.25,0.55,0.52,0.33,0.48,0.29,0.58,0.88,0.5,0.58,0.25,0.55,0.61,0.25,0.78,0.25,0.25,0.55,0.95,0.29,0.29,0.29,0.48,0.4,0.25,0.55,0.52,0.25,0.73,0.25,0.25,0.55,0.6,0.48,0.33,0.4,0.29,0.25,0.55,0.52,0.25,0.25,0.55,0.71,0.55,0.6,0.88,0.55,0.6,0.25,0.55,0.77,0.25,0.55,0.6,0.4,0.55,0.23,0.48,0.44,0.33,0.48,0.61" style="fill:rgb(0,0,0);font-family:URWPalladioL-Roma;font-size:8.97px;stroke:none;">5. Mann, M.E.; Rahmstorf, S.; Kornhuber, K.; Steinman, B.A.; Miller, S.K.; Petri, S.; Coumou, D. Projected</text>
   <text y="390.571" x="98.05,102.079,107.36,111.897,117.178,122.223,126.57,130.3374,132.667,135.308,140.51059999999998,142.839,148.293,152.63,156.214,160.062,162.702,166.55,169.508,173.854,179.135,182.0951,184.344,188.69,193.372,196.331,199.751,204.098,212.11,216.4156,218.707,222.554,228.026,236.038,244.051,248.397,251.98499999999999,254.232,261.799,266.146,270.683,273.641,278.922,283.268,286.856,289.103,293.45,298.576,302.923,308.204,311.162,315.009,317.2515,320.427,325.989,331.27,335.5756,337.867,341.288,346.242,348.883,353.1886,355.479,360.425,363.3851,365.697,370.778,376.25,380.787,384.634,387.275,390.296,393.717,398.064,401.911,406.865,412.147,416.684,421.965,424.9251,427.173,431.71,439.722,445.176,447.816,450.457,455.947,459.976,464.513,467.471,470.111,475.066,480.347" svgx:width="0.44,0.58,0.5,0.58,0.56,0.48,0.42,0.55,0.29,0.58,0.55,0.6,0.48,0.4,0.42,0.29,0.42,0.33,0.48,0.58,0.33,0.55,0.48,0.52,0.33,0.4,0.48,0.88,0.48,0.55,0.42,0.6,0.88,0.88,0.48,0.4,0.55,0.83,0.48,0.5,0.33,0.58,0.48,0.4,0.55,0.48,0.56,0.48,0.58,0.33,0.42,0.25,0.55,0.61,0.58,0.48,0.55,0.4,0.55,0.29,0.48,0.55,0.55,0.33,0.55,0.56,0.6,0.5,0.42,0.29,0.33,0.4,0.48,0.42,0.55,0.58,0.5,0.58,0.33,0.55,0.5,0.88,0.6,0.29,0.29,0.61,0.44,0.5,0.33,0.29,0.55,0.58,0.25" style="fill:rgb(0,0,0);font-family:URWPalladioL-Roma;font-size:8.97px;stroke:none;">changes in persistent extreme summer weather events: The role of quasi-resonant ampliﬁcation.</text>
   <text y="390.571" x="485.773,490.818,494.511,497.034,499.2765,502.46,509.012,513.549,517.596" svgx:width="0.56,0.41,0.28,0.25,0.55,0.72,0.5,0.5,0.25" style="fill:rgb(0,0,0);font-family:URWPalladioL-Ital;font-size:8.97px;stroke:none;">Sci. Adv.</text>
   <text y="403.483" x="98.05,102.533,107.016,111.5" svgx:width="0.5,0.5,0.5,0.5" style="fill:rgb(0,0,0);font-family:URWPalladioL-Bold;font-size:8.97px;stroke:none;">2018</text>
   <text y="403.483" x="115.983" svgx:width="0.25" style="fill:rgb(0,0,0);font-family:URWPalladioL-Roma;font-size:8.97px;stroke:none;">,</text>
   <text y="403.483" x="120.466" svgx:width="0.5" style="fill:rgb(0,0,0);font-family:URWPalladioL-Ital;font-size:8.97px;stroke:none;">4</text>
   <text y="403.483" x="124.95,127.19250000000001,129.433,133.916,136.1585,139.296" svgx:width="0.25,0.55,0.5,0.25,0.55,0.33" style="fill:rgb(0,0,0);font-family:URWPalladioL-Roma;font-size:8.97px;stroke:none;">, 9. [</text>
   <text y="403.483" x="142.282,148.639,152.02,156.915,160.717,164.519,170.508,174.803" svgx:width="0.71,0.4,0.55,0.42,0.42,0.67,0.48,0.33" style="fill:rgb(8,117,183);font-family:URWPalladioL-Roma;font-size:8.97px;stroke:none;">CrossRef</text>
   <text y="403.483" x="177.789,180.7491,183.016" svgx:width="0.33,0.55,0.33" style="fill:rgb(0,0,0);font-family:URWPalladioL-Roma;font-size:8.97px;stroke:none;">] [</text>
   <text y="403.483" x="186.002,191.418,196.825,201.783,210.265,214.56" svgx:width="0.6,0.6,0.55,0.95,0.48,0.61" style="fill:rgb(8,117,183);font-family:URWPalladioL-Roma;font-size:8.97px;stroke:none;">PubMed</text>
   <text y="403.483" x="220.039" svgx:width="0.33" style="fill:rgb(0,0,0);font-family:URWPalladioL-Roma;font-size:8.97px;stroke:none;">]</text>
   <text y="416.394" x="76.535,81.018,83.26050000000001,98.05,101.029,106.369,112.637,118.906" svgx:width="0.5,0.25,0.55,0.34,0.6,0.71,0.71,0.25" style="fill:rgb(0,0,0);font-family:URWPalladioL-Roma;font-size:8.97px;stroke:none;">6. IPCC.</text>
   <text y="416.394" x="123.365,129.262,131.72,134.177,141.056,144.981,147.925,151.4233,153.61,159.507,163.927,167.852,172.768,177.188,180.6863,182.882,187.302,191.723,196.143,200.564,202.8065,205.921,211.323,215.743,219.2413,221.428,226.83,231.25,235.671,239.11,241.568,245.166,249.091,251.6026,253.803,258.719,262.317,264.775,268.214,273.129,276.728,280.22630000000004,282.412,287.814,291.739,295.179,297.636,301.075,303.3175,306.442,312.33,316.255,321.171,324.115,327.554,330.012,334.105,339.02,341.964,344.422,348.348,353.3712,355.517,359.443,361.95459999999997,364.146,372.315,376.24,379.68,383.605,386.063,390.978,395.463,397.644,404.027,407.307,411.233,416.148,420.63300000000004,422.814,425.77410000000003,428.004,430.948,434.8948,437.128,440.072,444.492,447.99030000000005,450.177,455.092,459.018,463.933,467.372,470.316,474.801,476.982,483.365,486.804,490.243,493.683,497.122,500.561,507.439,510.878,515.794" svgx:width="0.67,0.28,0.28,0.78,0.44,0.33,0.39,0.55,0.67,0.5,0.44,0.56,0.5,0.39,0.55,0.5,0.5,0.5,0.5,0.25,0.55,0.61,0.5,0.39,0.55,0.61,0.5,0.5,0.39,0.28,0.41,0.44,0.28,0.55,0.56,0.41,0.28,0.39,0.56,0.41,0.39,0.55,0.61,0.44,0.39,0.28,0.39,0.25,0.55,0.67,0.44,0.56,0.33,0.39,0.28,0.46,0.56,0.33,0.28,0.44,0.56,0.55,0.44,0.28,0.55,0.94,0.44,0.39,0.44,0.28,0.56,0.5,0.55,0.72,0.39,0.44,0.56,0.5,0.55,0.33,0.55,0.33,0.44,0.55,0.33,0.5,0.39,0.55,0.56,0.44,0.56,0.39,0.33,0.5,0.55,0.72,0.39,0.39,0.39,0.39,0.39,0.78,0.39,0.56,0.33" style="fill:rgb(0,0,0);font-family:URWPalladioL-Ital;font-size:8.97px;stroke:none;">Climate Change 2007: The Physical Science Basis: Contribution of Working Group I to the Fourth Assessment</text>
   <text y="429.306" x="97.755,103.736,107.224,111.707,115.688,119.176,122.1361,124.403,128.384,130.89559999999997,133.118,136.104,140.587,144.0853,146.317,149.303,154.288,157.274,160.762,164.088,168.572,172.553,177.036,180.524,184.012,188.997,195.973,199.461,204.446,207.432,211.413,213.9246,216.147,221.626,225.607,230.592,234.08,236.5916,238.814,242.795,247.8182,250.022,256.003,258.496,260.988,267.964,271.945,274.931,278.4293,280.661,286.641,291.124,295.105,300.091,304.574" svgx:width="0.67,0.39,0.5,0.44,0.39,0.33,0.55,0.44,0.28,0.55,0.33,0.5,0.39,0.55,0.33,0.56,0.33,0.39,0.39,0.5,0.44,0.5,0.39,0.39,0.56,0.78,0.39,0.56,0.33,0.44,0.28,0.55,0.61,0.44,0.56,0.39,0.28,0.55,0.44,0.56,0.55,0.67,0.28,0.28,0.78,0.44,0.33,0.39,0.55,0.67,0.5,0.44,0.56,0.5,0.39" style="fill:rgb(0,0,0);font-family:URWPalladioL-Ital;font-size:8.97px;stroke:none;">Report of the Intergovernmental Panel on Climate Change</text>
   <text y="429.306" x="308.058,310.3005,312.541,318.898,323.382,331.299,336.257,339.799,342.408,347.887,352.872,357.17760000000004,359.409,366.384,371.603,374.212,379.278,383.573,387.115,390.916,393.526,396.449,401.4722,403.676,409.091,412.472,416.767,420.568,424.37,426.6125,429.75,436.107,440.59,448.508,453.466,457.008,459.617,465.095,470.081,474.376,476.6185,478.859,485.835,492.344,494.5865,496.828,501.311,505.794,510.277,514.76" svgx:width="0.25,0.55,0.71,0.5,0.88,0.55,0.4,0.29,0.61,0.56,0.48,0.55,0.78,0.58,0.29,0.56,0.48,0.4,0.42,0.29,0.33,0.56,0.55,0.6,0.4,0.48,0.42,0.42,0.25,0.55,0.71,0.5,0.88,0.55,0.4,0.29,0.61,0.56,0.48,0.25,0.55,0.78,0.73,0.25,0.55,0.5,0.5,0.5,0.5,0.25" style="fill:rgb(0,0,0);font-family:URWPalladioL-Roma;font-size:8.97px;stroke:none;">; Cambridge University Press: Cambridge, UK, 2007.</text>
   <text y="442.218" x="76.535,81.018,83.26050000000001,98.05,106.011,110.405,113.269,116.134,119.86,122.1025,124.306,131.608,133.805,136.0475,138.242,145.078,152.837,157.231,162.345,167.459,169.7015,171.905,180.218,182.415,184.6575,186.852,193.689,197.159,202.273,206.482,209.04,211.597,213.83950000000002,216.043,223.345,225.542,227.7845,229.979,236.156,241.042,245.251,250.11,253.036,259.416,263.809,267.28,269.837,273.563,277.289,282.086,287.201,289.44350000000003,291.638,296.251,298.448,300.6905,302.894,308.263,312.472,315.029,319.238,322.964,327.762,332.726,337.12,339.3625,341.557,347.937,350.134,352.3765,354.58,359.949,364.158,367.629,371.099,374.992,377.2345,379.43,386.74,388.937,391.1795,393.383,398.752,403.55,408.849,411.406,415.615,419.499,421.74150000000003,423.945,428.664,430.86,433.1025,435.307,440.676,445.473,450.359,455.244" svgx:width="0.5,0.25,0.55,1.0,0.5,0.33,0.33,0.42,0.25,0.55,0.83,0.25,0.25,0.55,0.78,0.88,0.5,0.58,0.58,0.25,0.55,0.95,0.25,0.25,0.55,0.78,0.4,0.58,0.48,0.29,0.29,0.25,0.55,0.83,0.25,0.25,0.55,0.78,0.56,0.48,0.55,0.33,0.73,0.5,0.4,0.29,0.42,0.42,0.55,0.58,0.25,0.55,0.52,0.25,0.25,0.55,0.61,0.48,0.29,0.48,0.42,0.55,0.56,0.5,0.25,0.55,0.73,0.25,0.25,0.55,0.61,0.48,0.4,0.4,0.56,0.25,0.55,0.83,0.25,0.25,0.55,0.61,0.55,0.6,0.29,0.48,0.56,0.25,0.55,0.61,0.25,0.25,0.55,0.61,0.55,0.56,0.56,0.55" style="fill:rgb(0,0,0);font-family:URWPalladioL-Roma;font-size:8.97px;stroke:none;">7. Watts, N.; Amann, M.; Arnell, N.; Ayeb-Karlsson, S.; Belesova, K.; Berry, H.; Bouley, T.; Boyko</text>
   <text y="442.218" x="460.04" svgx:width="0.61" style="fill:rgb(0,0,0);font-family:Rpxr;font-size:8.97px;stroke:none;">ﬀ</text>
   <text y="442.218" x="465.382,467.6245,469.819,478.132,480.329,482.5715,484.775,490.144,495.03,499.423,503.149,506.875,509.1175,511.321,515.468,517.665" svgx:width="0.25,0.55,0.95,0.25,0.25,0.55,0.61,0.56,0.5,0.42,0.42,0.25,0.55,0.6,0.25,0.25" style="fill:rgb(0,0,0);font-family:URWPalladioL-Roma;font-size:8.97px;stroke:none;">, M.; Byass, P.;</text>
   <text y="455.129" x="98.05,104.286,108.684,111.244,113.4865,115.677,123.646,125.845,128.0875,130.279,134.492,137.4521,139.594,143.992,146.551,148.7935,151.891,157.283,162.402,166.70759999999999,168.849,173.247,177.645,182.043,186.52800000000002,188.676,191.983,196.196,201.483,206.285,209.76,212.7201,214.861,219.664,222.6241,224.827,227.695,232.814,237.1196,239.262,244.636,249.034,254.153,258.059,262.272,265.2321,267.374,273.61,278.413,283.717,288.836,291.704,297.078,301.881,309.217,314.4196,316.57,321.373,326.5756,328.726,333.846,338.059,342.457,345.017,347.884,353.08660000000003,355.238,359.636,364.755,370.2267,372.355,376.26,378.82,381.379,389.146,393.544,396.412,400.7176,402.859,406.765,411.884,416.282,421.401,426.292,430.505,432.7475,435.844,440.462,445.582,449.98,455.266,457.826,462.945,467.96819999999997,470.07,472.929,478.048,482.35360000000003,484.495,489.615,493.828,498.226,500.786,503.653,508.85560000000004,511.007,515.809" svgx:width="0.71,0.5,0.29,0.25,0.55,1.0,0.25,0.25,0.55,0.48,0.33,0.55,0.5,0.29,0.25,0.55,0.61,0.58,0.48,0.55,0.5,0.5,0.5,0.5,0.55,0.4,0.48,0.6,0.55,0.4,0.33,0.55,0.55,0.33,0.55,0.33,0.58,0.48,0.55,0.61,0.5,0.58,0.44,0.48,0.33,0.55,0.71,0.55,0.6,0.58,0.33,0.61,0.55,0.83,0.58,0.55,0.55,0.58,0.55,0.58,0.48,0.5,0.29,0.33,0.58,0.55,0.5,0.58,0.61,0.55,0.44,0.29,0.29,0.88,0.5,0.33,0.48,0.55,0.44,0.58,0.5,0.58,0.56,0.48,0.25,0.55,0.52,0.58,0.5,0.6,0.29,0.58,0.56,0.55,0.33,0.58,0.48,0.55,0.58,0.48,0.5,0.29,0.33,0.58,0.55,0.55,0.33" style="fill:rgb(0,0,0);font-family:URWPalladioL-Roma;font-size:8.97px;stroke:none;">Cai, W.; et al. The 2018 report of the Lancet Countdown on health and climate change: Shaping the health of</text>
   <text y="468.041" x="98.05,103.268,107.752,110.675,113.284,118.18,123.398,127.16539999999999,129.441,132.427,137.323,140.911,143.106,147.087,151.382,156.601,159.524,164.93,168.472,171.081,175.376,179.1434,181.42,184.343,189.2765,191.48,195.461,200.357,208.274,212.569" svgx:width="0.58,0.5,0.33,0.29,0.55,0.58,0.42,0.55,0.33,0.55,0.4,0.55,0.44,0.48,0.58,0.33,0.6,0.4,0.29,0.48,0.42,0.55,0.33,0.55,0.55,0.44,0.55,0.88,0.48,0.25" style="fill:rgb(0,0,0);font-family:URWPalladioL-Roma;font-size:8.97px;stroke:none;">nations for centuries to come.</text>
   <text y="468.041" x="217.947,222.932,226.913,231.899,235.548,239.036" svgx:width="0.56,0.44,0.56,0.41,0.39,0.33" style="fill:rgb(0,0,0);font-family:URWPalladioL-Ital;font-size:8.97px;stroke:none;">Lancet</text>
   <text y="468.041" x="244.263,248.746,253.229,257.713" svgx:width="0.5,0.5,0.5,0.5" style="fill:rgb(0,0,0);font-family:URWPalladioL-Bold;font-size:8.97px;stroke:none;">2018</text>
   <text y="468.041" x="262.196" svgx:width="0.25" style="fill:rgb(0,0,0);font-family:URWPalladioL-Roma;font-size:8.97px;stroke:none;">,</text>
   <text y="468.041" x="266.679,271.162,275.645" svgx:width="0.5,0.5,0.5" style="fill:rgb(0,0,0);font-family:URWPalladioL-Ital;font-size:8.97px;stroke:none;">392</text>
   <text y="468.041" x="280.129,282.3715,284.612,289.095,293.579,298.062,302.545,307.028,311.512,315.995,320.478,324.961,327.2035,330.341" svgx:width="0.25,0.55,0.5,0.5,0.5,0.5,0.5,0.5,0.5,0.5,0.5,0.25,0.55,0.33" style="fill:rgb(0,0,0);font-family:URWPalladioL-Roma;font-size:8.97px;stroke:none;">, 2479–2514. [</text>
   <text y="468.041" x="333.327,339.684,343.064,347.96,351.762,355.564,361.553,365.848" svgx:width="0.71,0.4,0.55,0.42,0.42,0.67,0.48,0.33" style="fill:rgb(8,117,183);font-family:URWPalladioL-Roma;font-size:8.97px;stroke:none;">CrossRef</text>
   <text y="468.041" x="368.834" svgx:width="0.33" style="fill:rgb(0,0,0);font-family:URWPalladioL-Roma;font-size:8.97px;stroke:none;">]</text>
   <text y="480.952" x="76.535,81.018,83.26050000000001,98.05,105.119,108.671,111.288,119.229,124.14,126.757,131.667,136.667,140.975,143.2175,145.472,148.502,150.751,156.758,159.007,161.2495,163.512,172.02,176.517,181.013,183.63,188.864,193.865,198.775,201.0175,203.272,207.993,210.241,214.513,216.762,219.0045,221.267,227.796,232.293,234.91,240.333,248.274,253.247,257.744,259.98650000000004,262.241,269.237,271.486,279.993,282.242,284.4845,286.738,292.233,297.234,302.656,307.891,313.385,317.882,322.882,327.793,330.0355,332.298,339.367,341.615,346.616,348.864,351.1065,353.361,360.834,365.142,367.759,370.0015,372.265,380.431,382.6735,384.927,387.958,395.899,401.304,403.921,406.538,410.531,415.028,417.96,420.577,425.487,430.721,434.4884,436.782,441.693,444.6531,446.936,450.929,453.546,456.163,464.104,468.601,471.533,475.83860000000004,478.089,483.17,487.667,491.219,493.836,498.333,503.306,505.923,508.54,511.157,514.089" svgx:width="0.5,0.25,0.55,0.79,0.4,0.29,0.88,0.55,0.29,0.55,0.56,0.48,0.25,0.55,0.34,0.25,0.67,0.25,0.25,0.55,0.95,0.5,0.5,0.29,0.58,0.56,0.55,0.25,0.55,0.52,0.25,0.6,0.25,0.25,0.55,0.73,0.5,0.29,0.6,0.88,0.55,0.5,0.25,0.55,0.78,0.25,0.95,0.25,0.25,0.55,0.61,0.56,0.6,0.58,0.61,0.5,0.56,0.55,0.25,0.55,0.79,0.25,0.67,0.25,0.25,0.55,0.83,0.48,0.29,0.25,0.55,1.0,0.25,0.55,0.34,0.88,0.6,0.29,0.29,0.44,0.5,0.33,0.29,0.55,0.58,0.42,0.55,0.55,0.33,0.55,0.44,0.29,0.29,0.88,0.5,0.33,0.48,0.55,0.56,0.5,0.4,0.29,0.5,0.55,0.29,0.29,0.29,0.33,0.56" style="fill:rgb(0,0,0);font-family:URWPalladioL-Roma;font-size:8.97px;stroke:none;">8. Orimoloye, I.R.; Mazinyo, S.P.; Kalumba, A.M.; Ekundayo, O.Y.; Nel, W. Implications of climate variability</text>
   <text y="493.864" x="98.05,102.533,107.752,113.2237,115.472,119.453,124.671,129.154,134.373,139.358,143.6636,145.895,150.79,155.99259999999998,158.25,163.657,167.199,172.157,176.641,181.84359999999998,184.101,188.584,193.802,199.2737,201.522,206.741,212.147,220.065,224.548,229.7506,232.008,237.226,241.521,246.005,248.614,251.537,256.755,258.9975,262.135,269.1316,271.353,274.733,279.028,284.094,286.703,290.998,297.651" svgx:width="0.5,0.58,0.61,0.55,0.44,0.58,0.5,0.58,0.56,0.48,0.55,0.55,0.58,0.55,0.6,0.4,0.55,0.5,0.58,0.55,0.5,0.58,0.61,0.55,0.58,0.6,0.88,0.5,0.58,0.55,0.58,0.48,0.5,0.29,0.33,0.58,0.25,0.55,0.78,0.55,0.4,0.48,0.56,0.29,0.48,0.83,0.25" style="fill:rgb(0,0,0);font-family:URWPalladioL-Roma;font-size:8.97px;stroke:none;">and change on urban and human health: A review.</text>
   <text y="493.864" x="303.029,309.01,311.502,314.488,316.981,320.469" svgx:width="0.67,0.28,0.33,0.28,0.39,0.39" style="fill:rgb(0,0,0);font-family:URWPalladioL-Ital;font-size:8.97px;stroke:none;">Cities</text>
   <text y="493.864" x="326.198,330.681,335.164,339.648" svgx:width="0.5,0.5,0.5,0.5" style="fill:rgb(0,0,0);font-family:URWPalladioL-Bold;font-size:8.97px;stroke:none;">2019</text>
   <text y="493.864" x="344.13" svgx:width="0.25" style="fill:rgb(0,0,0);font-family:URWPalladioL-Roma;font-size:8.97px;stroke:none;">,</text>
   <text y="493.864" x="348.614,353.097" svgx:width="0.5,0.5" style="fill:rgb(0,0,0);font-family:URWPalladioL-Ital;font-size:8.97px;stroke:none;">91</text>
   <text y="493.864" x="357.58,359.8225,362.063,366.546,371.03,375.513,379.996,384.479,388.963,393.446,395.68850000000003,398.826" svgx:width="0.25,0.55,0.5,0.5,0.5,0.5,0.5,0.5,0.5,0.25,0.55,0.33" style="fill:rgb(0,0,0);font-family:URWPalladioL-Roma;font-size:8.97px;stroke:none;">, 213–223. [</text>
   <text y="493.864" x="401.811,408.169,411.549,416.445,420.246,424.048,430.038,434.333" svgx:width="0.71,0.4,0.55,0.42,0.42,0.67,0.48,0.33" style="fill:rgb(8,117,183);font-family:URWPalladioL-Roma;font-size:8.97px;stroke:none;">CrossRef</text>
   <text y="493.864" x="437.318" svgx:width="0.33" style="fill:rgb(0,0,0);font-family:URWPalladioL-Roma;font-size:8.97px;stroke:none;">]</text>
   <text y="506.776" x="76.535,81.018,83.26050000000001,98.05,100.997,105.236,110.387,115.794,119.29,121.865,124.75,129.175,134.095,138.025,140.2675,142.476,149.229,151.441,153.6835,155.893,160.822,163.397,168.548,172.973,175.21550000000002,177.433,182.84,185.0825,187.292,192.717,197.867,202.1726,204.345,207.23,212.381,216.62,220.116,227.93,232.355,234.9563,237.169,241.409,246.559,251.559,254.135,257.471,262.303,267.454,275.268,279.507,284.658,287.6181,289.782,294.614,297.5741,299.809,302.694,307.844,312.1496,314.322,319.473,324.809,332.624,337.049,342.2516,344.438,349.332,353.571,356.147,361.297,366.3202,368.457,373.289,378.4916,380.687,383.572,388.723,393.02860000000004,395.201,400.121,402.697,407.529,412.423,416.848,419.4493,421.662,425.414,429.344,433.769,436.344,440.583" svgx:width="0.5,0.25,0.55,0.33,0.48,0.58,0.61,0.4,0.29,0.33,0.5,0.56,0.56,0.25,0.55,0.76,0.25,0.25,0.55,0.61,0.29,0.58,0.5,0.25,0.55,0.61,0.25,0.55,0.61,0.58,0.48,0.55,0.33,0.58,0.48,0.4,0.88,0.5,0.29,0.55,0.48,0.58,0.56,0.29,0.4,0.55,0.58,0.88,0.48,0.58,0.33,0.55,0.55,0.33,0.55,0.33,0.58,0.48,0.55,0.58,0.6,0.88,0.5,0.58,0.55,0.55,0.48,0.29,0.58,0.56,0.55,0.55,0.58,0.55,0.33,0.58,0.48,0.55,0.56,0.29,0.55,0.55,0.5,0.29,0.55,0.42,0.44,0.5,0.29,0.48,0.25" style="fill:rgb(0,0,0);font-family:URWPalladioL-Roma;font-size:8.97px;stroke:none;">9. Jendritzky, G.; Tinz, B. The thermal environment of the human being on the global scale.</text>
   <text y="506.776" x="445.935,452.325,454.785,458.714,462.812,465.0545,468.166,475.051,478.494,482.423,484.874,487.821,492.30600000000004,494.494,500.884,504.486,507.433,509.893,513.822" svgx:width="0.72,0.28,0.44,0.46,0.25,0.55,0.78,0.39,0.44,0.28,0.33,0.5,0.55,0.72,0.41,0.33,0.28,0.44,0.56" style="fill:rgb(0,0,0);font-family:URWPalladioL-Ital;font-size:8.97px;stroke:none;">Glob. Health Action</text>
   <text y="519.687" x="98.05,102.533,107.016,111.5" svgx:width="0.5,0.5,0.5,0.5" style="fill:rgb(0,0,0);font-family:URWPalladioL-Bold;font-size:8.97px;stroke:none;">2009</text>
   <text y="519.687" x="115.983" svgx:width="0.25" style="fill:rgb(0,0,0);font-family:URWPalladioL-Roma;font-size:8.97px;stroke:none;">,</text>
   <text y="519.687" x="120.466" svgx:width="0.5" style="fill:rgb(0,0,0);font-family:URWPalladioL-Ital;font-size:8.97px;stroke:none;">2</text>
   <text y="519.687" x="124.95,127.19250000000001,130.33" svgx:width="0.25,0.55,0.33" style="fill:rgb(0,0,0);font-family:URWPalladioL-Roma;font-size:8.97px;stroke:none;">. [</text>
   <text y="519.687" x="133.316,139.673,143.053,147.949,151.751,155.552,161.542,165.837" svgx:width="0.71,0.4,0.55,0.42,0.42,0.67,0.48,0.33" style="fill:rgb(8,117,183);font-family:URWPalladioL-Roma;font-size:8.97px;stroke:none;">CrossRef</text>
   <text y="519.687" x="168.823,171.78310000000002,174.05" svgx:width="0.33,0.55,0.33" style="fill:rgb(0,0,0);font-family:URWPalladioL-Roma;font-size:8.97px;stroke:none;">] [</text>
   <text y="519.687" x="177.036,182.452,187.858,192.817,201.299,205.594" svgx:width="0.6,0.6,0.55,0.95,0.48,0.61" style="fill:rgb(8,117,183);font-family:URWPalladioL-Roma;font-size:8.97px;stroke:none;">PubMed</text>
   <text y="519.687" x="211.072" svgx:width="0.33" style="fill:rgb(0,0,0);font-family:URWPalladioL-Roma;font-size:8.97px;stroke:none;">]</text>
   <text y="532.599" x="76.535,81.018,85.501,87.74350000000001,98.05,102.852,107.424,112.747,118.262,120.50450000000001,123.905,128.706,130.993,133.2355,137.194,141.995,146.376,149.358,152.339,154.5815,157.991,166.643,168.929,171.1715,175.13,181.77,183.91,188.291,190.952,193.614,197.492,200.473,203.921,208.915,216.99,219.23250000000002,222.633,227.581,229.8235,233.224,240.833,245.214,249.787,252.74710000000002,256.125,261.713,266.432,271.929,276.922,280.8,286.315,289.763,294.144,296.3865,300.07,306.554,311.127,314.575,320.163,322.825,327.818,332.985,337.558,341.436,345.497,351.012,353.673,358.246,361.834,365.215,370.017,372.998,376.455,380.836,384.714,388.4814,391.948,396.521,401.844,407.3157,410.788,419.111,424.104,427.717,432.74019999999996,436.158,441.682,445.13,450.124,455.712,461.227,465.287,468.269,470.93,476.098,478.759,481.741,486.76419999999996,490.182,492.844,498.0466,501.532,507.641,510.303,514.363" svgx:width="0.5,0.5,0.25,0.55,0.52,0.5,0.58,0.6,0.25,0.55,0.52,0.25,0.25,0.55,0.52,0.48,0.33,0.33,0.25,0.55,0.95,0.25,0.25,0.55,0.73,0.23,0.48,0.29,0.29,0.42,0.33,0.4,0.55,0.88,0.25,0.55,0.61,0.25,0.55,0.83,0.48,0.5,0.33,0.55,0.61,0.52,0.6,0.55,0.42,0.6,0.4,0.48,0.25,0.55,0.71,0.5,0.4,0.61,0.29,0.55,0.56,0.5,0.42,0.44,0.6,0.29,0.5,0.4,0.55,0.52,0.33,0.4,0.48,0.42,0.42,0.55,0.5,0.58,0.61,0.55,1.0,0.55,0.4,0.56,0.55,0.6,0.4,0.55,0.61,0.6,0.44,0.33,0.29,0.56,0.29,0.33,0.56,0.55,0.29,0.58,0.55,0.67,0.29,0.44,0.48" style="fill:rgb(0,0,0);font-family:URWPalladioL-Roma;font-size:8.97px;stroke:none;">10. Sahu, S.; Sett, M.; Kjellstrom, T. Heat Exposure, Cardiovascular Stress and Work Productivity in Rice</text>
   <text y="545.511" x="98.05,105.51,109.993,113.535,118.601,122.896,126.698,129.621,133.916,137.457,141.2244,143.501,146.11,151.3126,153.57,156.592,161.81,167.289,169.898,174.381,176.6235,179.761,182.783,190.7,196.089,198.698,201.307,205.288,209.771,212.694,215.304,220.199,225.418,229.18540000000002,231.461,234.447,239.343,242.93099999999998,245.126,249.61100000000002,251.851,258.208,260.817,263.426,271.344,275.827,278.75,283.0556,285.286,291.644,296.862,301.345,306.564,311.549,315.8546,318.085,323.071,328.478,331.401,336.807,340.188,344.483" svgx:width="0.83,0.5,0.4,0.56,0.48,0.42,0.33,0.48,0.4,0.42,0.55,0.29,0.58,0.55,0.34,0.58,0.61,0.29,0.5,0.25,0.55,0.34,0.88,0.6,0.29,0.29,0.44,0.5,0.33,0.29,0.55,0.58,0.42,0.55,0.33,0.55,0.4,0.55,0.5,0.55,0.71,0.29,0.29,0.88,0.5,0.33,0.48,0.55,0.71,0.58,0.5,0.58,0.56,0.48,0.55,0.56,0.6,0.33,0.6,0.4,0.48,0.25" style="fill:rgb(0,0,0);font-family:URWPalladioL-Roma;font-size:8.97px;stroke:none;">Harvesters in India: Implications for a Climate Change Future.</text>
   <text y="545.511" x="349.859,352.845,357.83,362.313,364.5555,367.693,374.669,378.157,382.138,384.631,387.617" svgx:width="0.33,0.56,0.5,0.25,0.55,0.78,0.39,0.44,0.28,0.33,0.5" style="fill:rgb(0,0,0);font-family:URWPalladioL-Ital;font-size:8.97px;stroke:none;">Ind. Health</text>
   <text y="545.511" x="394.341,398.824,403.307,407.791" svgx:width="0.5,0.5,0.5,0.5" style="fill:rgb(0,0,0);font-family:URWPalladioL-Bold;font-size:8.97px;stroke:none;">2013</text>
   <text y="545.511" x="412.274" svgx:width="0.25" style="fill:rgb(0,0,0);font-family:URWPalladioL-Roma;font-size:8.97px;stroke:none;">,</text>
   <text y="545.511" x="416.757,421.24" svgx:width="0.5,0.5" style="fill:rgb(0,0,0);font-family:URWPalladioL-Ital;font-size:8.97px;stroke:none;">51</text>
   <text y="545.511" x="425.723,427.9655,430.206,434.689,439.173,443.656,448.139,452.622,457.106,461.589,463.8315,466.969" svgx:width="0.25,0.55,0.5,0.5,0.5,0.5,0.5,0.5,0.5,0.25,0.55,0.33" style="fill:rgb(0,0,0);font-family:URWPalladioL-Roma;font-size:8.97px;stroke:none;">, 424–431. [</text>
   <text y="545.511" x="469.954,476.312,479.692,484.588,488.389,492.191,498.181,502.476" svgx:width="0.71,0.4,0.55,0.42,0.42,0.67,0.48,0.33" style="fill:rgb(8,117,183);font-family:URWPalladioL-Roma;font-size:8.97px;stroke:none;">CrossRef</text>
   <text y="545.511" x="505.461" svgx:width="0.33" style="fill:rgb(0,0,0);font-family:URWPalladioL-Roma;font-size:8.97px;stroke:none;">]</text>
   <text y="558.422" x="76.535,81.018,85.501,87.74350000000001,98.05,103.638,108.632,113.717,118.802,122.679,124.92150000000001,128.533,136.142,138.428,144.016,146.303,148.5455,152.806,155.851,161.366,166.689,171.774,174.0165,177.627,180.673,182.959,185.2015,189.471,196.111,199.559,203.939,206.601,211.924,214.1665,217.777,224.892,227.1345,230.736,235.538,240.861,245.854,249.467,252.448,255.494,258.475,262.856,266.469,274.3626,278.111" svgx:width="0.5,0.5,0.25,0.55,0.61,0.55,0.56,0.56,0.42,0.25,0.55,0.83,0.25,0.61,0.25,0.25,0.55,0.33,0.6,0.58,0.56,0.25,0.55,0.33,0.25,0.25,0.55,0.73,0.4,0.48,0.29,0.58,0.25,0.55,0.78,0.25,0.55,0.52,0.58,0.55,0.4,0.33,0.33,0.33,0.48,0.4,0.88,0.55,0.48" style="fill:rgb(0,0,0);font-family:URWPalladioL-Roma;font-size:8.97px;stroke:none;">11. Lokys, H.L.; Junk, J.; Krein, A. Short-term e</text>
   <text y="558.422" x="282.49" svgx:width="0.61" style="fill:rgb(0,0,0);font-family:Rpxr;font-size:8.97px;stroke:none;">ﬀ</text>
   <text y="558.422" x="288.051,292.432,296.492,299.474,303.2414,306.919,311.912,314.8721,318.515,323.088,325.75,329.338,332.929,338.051,343.566,348.138,350.8,353.461,356.443,361.46619999999996,365.085,369.658,374.981,380.4527,384.136,387.117,392.44,396.821,400.434,408.509,413.082,415.6833,419.301,423.179,426.161,429.618,433.998,437.876,441.6434,445.312,450.305,455.5076,459.195,464.518,469.511,474.834,477.88,482.452,486.513,490.574,493.235,498.823,503.204,508.527,511.508,516.081" svgx:width="0.48,0.44,0.33,0.42,0.55,0.55,0.33,0.55,0.5,0.29,0.4,0.55,0.56,0.6,0.5,0.29,0.29,0.33,0.56,0.55,0.5,0.58,0.61,0.55,0.33,0.58,0.48,0.4,0.88,0.5,0.29,0.55,0.42,0.33,0.4,0.48,0.42,0.42,0.55,0.55,0.58,0.55,0.58,0.55,0.58,0.33,0.5,0.44,0.44,0.29,0.61,0.48,0.58,0.33,0.5,0.29" style="fill:rgb(0,0,0);font-family:URWPalladioL-Roma;font-size:8.97px;stroke:none;">ects of air quality and thermal stress on non-accidental</text>
   <text y="571.334" x="98.05,105.888,110.735,114.241,119.15,121.733,127.157,129.74,132.634,137.569,146.446,153.4426,155.589,163.427,168.78,171.363,174.257,176.84,181.855,186.294,189.8,192.383,196.821,199.715,204.0206,206.213,214.051,218.303,221.197,225.635,228.591,233.03,238.196,242.634,245.217,250.153,253.917,256.5,260.2674,262.5,266.442,271.288,279.127,284.462,288.9,292.406,294.989,300.156,305.1792,307.328,309.911,315.077,320.501,323.084,327.025,331.277,335.0444,337.287,340.181,345.11449999999996,347.264,351.028,353.611,358.778,363.713,366.296,370.6016,372.794,380.632,384.884,389.322,393.086,398.439,401.776,406.028,409.792" svgx:width="0.88,0.55,0.4,0.55,0.29,0.61,0.29,0.33,0.56,1.0,0.78,0.55,0.88,0.6,0.29,0.33,0.29,0.56,0.5,0.4,0.29,0.5,0.33,0.48,0.55,0.88,0.48,0.33,0.5,0.33,0.5,0.58,0.5,0.29,0.56,0.42,0.29,0.42,0.55,0.44,0.55,0.88,0.6,0.5,0.4,0.29,0.58,0.56,0.55,0.29,0.58,0.61,0.29,0.44,0.48,0.42,0.55,0.33,0.55,0.55,0.42,0.29,0.58,0.56,0.29,0.48,0.55,0.88,0.48,0.5,0.42,0.6,0.4,0.48,0.42,0.25" style="fill:rgb(0,0,0);font-family:URWPalladioL-Roma;font-size:8.97px;stroke:none;">morbidity—A multivariate meta-analysis comparing indices to single measures.</text>
   <text y="571.334" x="415.153,418.109,423.044,426.0,428.2425,431.353,434.309,436.55150000000003,438.774,444.198,446.665,450.607,457.513,460.966,463.922,467.375,471.316,474.609,478.551,481.018" svgx:width="0.33,0.56,0.33,0.25,0.55,0.33,0.25,0.55,0.61,0.28,0.44,0.78,0.39,0.33,0.39,0.44,0.39,0.44,0.28,0.25" style="fill:rgb(0,0,0);font-family:URWPalladioL-Ital;font-size:8.97px;stroke:none;">Int. J. Biometeorol.</text>
   <text y="571.334" x="486.372,490.855,495.338,499.822" svgx:width="0.5,0.5,0.5,0.5" style="fill:rgb(0,0,0);font-family:URWPalladioL-Bold;font-size:8.97px;stroke:none;">2018</text>
   <text y="571.334" x="504.305" svgx:width="0.25" style="fill:rgb(0,0,0);font-family:URWPalladioL-Roma;font-size:8.97px;stroke:none;">,</text>
   <text y="571.334" x="508.765,513.203" svgx:width="0.5,0.5" style="fill:rgb(0,0,0);font-family:URWPalladioL-Ital;font-size:8.97px;stroke:none;">62</text>
   <text y="571.334" x="517.642" svgx:width="0.25" style="fill:rgb(0,0,0);font-family:URWPalladioL-Roma;font-size:8.97px;stroke:none;">,</text>
   <text y="584.245" x="97.602,102.085,106.568,111.052,115.535,120.018,122.26050000000001,125.398" svgx:width="0.5,0.5,0.5,0.5,0.5,0.25,0.55,0.33" style="fill:rgb(0,0,0);font-family:URWPalladioL-Roma;font-size:8.97px;stroke:none;">17–27. [</text>
   <text y="584.245" x="128.384,134.741,138.121,143.017,146.819,150.62,156.61,160.905" svgx:width="0.71,0.4,0.55,0.42,0.42,0.67,0.48,0.33" style="fill:rgb(8,117,183);font-family:URWPalladioL-Roma;font-size:8.97px;stroke:none;">CrossRef</text>
   <text y="584.245" x="163.891" svgx:width="0.33" style="fill:rgb(0,0,0);font-family:URWPalladioL-Roma;font-size:8.97px;stroke:none;">]</text>
   <text y="597.157" x="76.535,81.018,85.501,87.74350000000001,98.05,104.159,109.153,114.649,119.643,121.88550000000001,124.216,131.404,133.691,136.773,139.059,141.3015,143.641,149.165,153.546,157.003,161.384,165.957,168.1995,170.521,179.173,181.459,186.261,188.547,190.7895,193.138,201.461,205.842,209.454,214.777,219.158,222.103,224.34550000000002,226.676,234.276,236.562,238.80450000000002,241.153,246.741,252.064,257.058,261.118,266.441,268.6835,271.005,274.087,276.373,281.321,283.56350000000003,285.885,292.369,295.031,297.692,305.768,310.341,313.322,317.62760000000003,319.989,325.77,330.342,333.955,336.616,341.189,346.247,348.908,351.57,354.231,357.213,362.2362,364.575,369.148,374.471,379.9427,382.345,389.954,394.335,398.908,401.8681,404.167,408.968,411.95,415.407,419.788,423.665,427.43240000000003,429.82,432.903,438.225,443.813,448.194,452.8584,455.2,460.523,465.096,470.263,474.5686,476.921,480.003,485.326,489.387,492.844,497.224,501.797,505.675,508.337,513.659" svgx:width="0.5,0.5,0.25,0.55,0.67,0.55,0.6,0.55,0.25,0.55,0.79,0.25,0.34,0.25,0.25,0.55,0.6,0.48,0.4,0.48,0.5,0.25,0.55,0.95,0.25,0.52,0.25,0.25,0.55,1.0,0.48,0.4,0.58,0.48,0.4,0.25,0.55,0.83,0.25,0.25,0.55,0.61,0.58,0.55,0.44,0.58,0.25,0.55,0.34,0.25,0.61,0.25,0.55,0.71,0.29,0.29,0.88,0.5,0.33,0.48,0.55,0.72,0.5,0.4,0.29,0.5,0.55,0.29,0.29,0.29,0.33,0.56,0.55,0.5,0.58,0.61,0.55,0.83,0.48,0.5,0.33,0.55,0.52,0.33,0.4,0.48,0.42,0.42,0.55,0.34,0.58,0.61,0.48,0.52,0.55,0.58,0.5,0.56,0.48,0.55,0.34,0.58,0.44,0.4,0.48,0.5,0.42,0.29,0.58,0.56" style="fill:rgb(0,0,0);font-family:URWPalladioL-Roma;font-size:8.97px;stroke:none;">12. Ropo, O.I.; Perez, M.S.; Werner, N.; Enoch, I.T. Climate Variability and Heat Stress Index have Increasing</text>
   <text y="610.069" x="98.05,103.357,108.155,111.02,115.229,120.343,123.207,125.764,130.158,132.7593,134.956,137.917,140.474,143.031,145.957,151.071,155.28,159.674,162.231,165.095,170.2976,172.45,176.844,181.958,187.4297,189.576,194.945,200.059,205.024,207.581,210.885,215.683,220.797,228.556,232.765,237.879,240.743,245.137,247.7383,249.935,252.896,260.655,265.936,270.329,274.231,277.095,280.86240000000004,283.062,285.619,290.82160000000005,292.982,295.847,300.961,305.26660000000004,307.411,312.78,317.173,320.899,323.8591,326.004,331.373,336.171,341.285,346.654,351.452,356.566,358.8085,361.003,365.616,370.414,375.713,378.577,383.7796,385.932,392.768,395.694,399.165,401.722,405.624,410.017" svgx:width="0.6,0.55,0.33,0.48,0.58,0.33,0.29,0.5,0.29,0.55,0.34,0.29,0.29,0.33,0.58,0.48,0.5,0.29,0.33,0.58,0.55,0.5,0.58,0.61,0.55,0.61,0.58,0.56,0.29,0.4,0.55,0.58,0.88,0.48,0.58,0.33,0.5,0.29,0.55,0.34,0.88,0.6,0.5,0.44,0.33,0.42,0.55,0.29,0.58,0.55,0.33,0.58,0.48,0.55,0.61,0.5,0.42,0.33,0.55,0.61,0.55,0.58,0.61,0.55,0.58,0.25,0.55,0.52,0.55,0.6,0.33,0.58,0.55,0.78,0.33,0.4,0.29,0.44,0.5,0.25" style="fill:rgb(0,0,0);font-family:URWPalladioL-Roma;font-size:8.97px;stroke:none;">Potential Ill-health and Environmental Impacts in the East London, South Africa.</text>
   <text y="610.069" x="415.358,418.284,423.17,426.096,428.3385,431.43,434.356,436.5985,438.802,445.146,449.54,453.933,456.376,458.6185,461.71,467.079,471.964,476.358,478.6005,481.7,487.561,490.98,494.398" svgx:width="0.33,0.56,0.33,0.25,0.55,0.33,0.25,0.55,0.72,0.5,0.5,0.28,0.25,0.55,0.61,0.56,0.5,0.25,0.55,0.67,0.39,0.39,0.25" style="fill:rgb(0,0,0);font-family:URWPalladioL-Ital;font-size:8.97px;stroke:none;">Int. J. Appl. Eng. Res.</text>
   <text y="610.069" x="499.732,504.215,508.698,513.182" svgx:width="0.5,0.5,0.5,0.5" style="fill:rgb(0,0,0);font-family:URWPalladioL-Bold;font-size:8.97px;stroke:none;">2017</text>
   <text y="610.069" x="517.664" svgx:width="0.25" style="fill:rgb(0,0,0);font-family:URWPalladioL-Roma;font-size:8.97px;stroke:none;">,</text>
   <text y="622.98" x="97.602,102.085" svgx:width="0.5,0.5" style="fill:rgb(0,0,0);font-family:URWPalladioL-Ital;font-size:8.97px;stroke:none;">12</text>
   <text y="622.98" x="106.569,108.81150000000001,111.052,115.535,120.019,124.502,128.985,133.468,137.951,142.435,146.918,151.401" svgx:width="0.25,0.55,0.5,0.5,0.5,0.5,0.5,0.5,0.5,0.5,0.5,0.25" style="fill:rgb(0,0,0);font-family:URWPalladioL-Roma;font-size:8.97px;stroke:none;">, 6910–6918.</text>
   <text y="635.892" x="76.535,81.018,85.501,87.74350000000001,98.05,103.638,108.211,112.089,117.604,119.8465,123.219,129.328,131.615,133.85750000000002,137.77,142.571,147.144,155.22,159.601,162.582,164.8245,168.189,171.234,173.521,182.172,184.4145,187.788,193.897,198.278,200.939,205.512,208.494,211.155,216.149,221.3516,224.801,229.858,234.239,237.221,244.848,249.229,253.61,258.81260000000003,262.252,266.633,269.295,273.675,278.843,283.416,286.397,290.778,296.2497,299.695,304.268,312.344,317.401,320.063,324.443,329.766,332.72610000000003,336.077,339.058,343.439,351.506,357.002,361.383,364.995,369.568,372.55,378.065,381.522,385.8276,389.222,393.795,399.118,404.5897,408.035,416.111,421.104,424.717,427.699,432.271,434.933,437.594,440.576,445.661,447.9035,453.252,460.2486,463.696,467.144,471.525,476.692,479.354,483.734,491.1791,494.691,499.685,502.6451,506.059,509.041,514.363" svgx:width="0.5,0.5,0.25,0.55,0.61,0.5,0.42,0.6,0.25,0.55,0.67,0.25,0.25,0.55,0.52,0.5,0.88,0.48,0.33,0.25,0.55,0.33,0.25,0.95,0.25,0.55,0.67,0.48,0.29,0.5,0.33,0.29,0.55,0.58,0.55,0.55,0.48,0.33,0.83,0.48,0.48,0.58,0.55,0.48,0.29,0.48,0.56,0.5,0.33,0.48,0.61,0.55,0.5,0.88,0.55,0.29,0.48,0.58,0.33,0.55,0.33,0.48,0.88,0.6,0.48,0.4,0.5,0.33,0.6,0.4,0.48,0.55,0.5,0.58,0.61,0.55,0.88,0.55,0.4,0.33,0.5,0.29,0.29,0.33,0.56,0.25,0.55,0.78,0.55,0.4,0.48,0.56,0.29,0.48,0.83,0.55,0.55,0.33,0.55,0.33,0.58,0.48" style="fill:rgb(0,0,0);font-family:URWPalladioL-Roma;font-size:8.97px;stroke:none;">13. Basu, R.; Samet, J.M. Relation between elevated ambient temperature and mortality: A review of the</text>
   <text y="648.803" x="98.05,102.345,107.734,110.343,115.821,120.116,128.034,130.643,135.539,138.148,143.043,148.029,150.638,154.5848,156.861,161.156,166.222,168.831,174.309,178.604,183.823,187.804,192.099" svgx:width="0.48,0.6,0.29,0.61,0.48,0.88,0.29,0.55,0.29,0.55,0.56,0.29,0.44,0.55,0.48,0.56,0.29,0.61,0.48,0.58,0.44,0.48,0.25" style="fill:rgb(0,0,0);font-family:URWPalladioL-Roma;font-size:8.97px;stroke:none;">epidemiologic evidence.</text>
   <text y="648.803" x="197.477,202.955,207.439,209.931,214.415,217.902,224.878,227.371,231.352,233.845,236.0875,239.225,245.205,248.693,252.683" svgx:width="0.61,0.5,0.28,0.5,0.39,0.78,0.28,0.44,0.28,0.25,0.55,0.67,0.39,0.5,0.25" style="fill:rgb(0,0,0);font-family:URWPalladioL-Ital;font-size:8.97px;stroke:none;">Epidemiol. Rev.</text>
   <text y="648.803" x="258.062,262.545,267.028,271.512" svgx:width="0.5,0.5,0.5,0.5" style="fill:rgb(0,0,0);font-family:URWPalladioL-Bold;font-size:8.97px;stroke:none;">2002</text>
   <text y="648.803" x="275.995" svgx:width="0.25" style="fill:rgb(0,0,0);font-family:URWPalladioL-Roma;font-size:8.97px;stroke:none;">,</text>
   <text y="648.803" x="280.478,284.961" svgx:width="0.5,0.5" style="fill:rgb(0,0,0);font-family:URWPalladioL-Ital;font-size:8.97px;stroke:none;">24</text>
   <text y="648.803" x="289.445,291.6875,293.928,298.411,302.895,307.378,311.861,316.344,320.828,325.311,327.5535,330.691" svgx:width="0.25,0.55,0.5,0.5,0.5,0.5,0.5,0.5,0.5,0.25,0.55,0.33" style="fill:rgb(0,0,0);font-family:URWPalladioL-Roma;font-size:8.97px;stroke:none;">, 190–202. [</text>
   <text y="648.803" x="333.676,340.034,343.414,348.31,352.111,355.913,361.903,366.198" svgx:width="0.71,0.4,0.55,0.42,0.42,0.67,0.48,0.33" style="fill:rgb(8,117,183);font-family:URWPalladioL-Roma;font-size:8.97px;stroke:none;">CrossRef</text>
   <text y="648.803" x="369.183" svgx:width="0.33" style="fill:rgb(0,0,0);font-family:URWPalladioL-Roma;font-size:8.97px;stroke:none;">]</text>
   <text y="661.715" x="76.535,81.018,85.501,87.74350000000001,98.054,103.47,107.765,111.307,116.292,118.901,124.12,127.921,130.1635,132.405,137.112,139.354,144.832,147.074,149.31650000000002,151.557,158.533,161.133,165.428,170.055,174.538,179.756,185.235,189.53,192.408,194.6505,196.891,202.37,204.611,209.928,212.1705,214.411,221.459,226.6616,228.919,231.842,237.061,241.3666,243.597,252.079,256.374,260.857,264.659,270.066,273.446,277.741,285.658,289.953,295.172,298.13210000000004,300.336,305.232,308.19210000000004,310.459,317.919,322.214,326.698,329.6581,331.862,340.004,344.487,349.553,353.848,357.65" svgx:width="0.5,0.5,0.25,0.55,0.6,0.48,0.4,0.56,0.29,0.58,0.42,0.25,0.55,0.52,0.25,0.61,0.25,0.25,0.55,0.78,0.29,0.48,0.52,0.5,0.58,0.61,0.48,0.4,0.25,0.55,0.61,0.25,0.72,0.25,0.55,0.79,0.58,0.55,0.33,0.58,0.48,0.55,0.95,0.48,0.5,0.42,0.6,0.4,0.48,0.88,0.48,0.58,0.33,0.55,0.55,0.33,0.55,0.83,0.48,0.5,0.33,0.55,1.0,0.5,0.56,0.48,0.42,0.25" style="fill:rgb(0,0,0);font-family:URWPalladioL-Roma;font-size:8.97px;stroke:none;">14. Perkins, S.E.; Alexander, L.V. On the Measurement of Heat Waves.</text>
   <text y="661.715" x="363.031,366.017,368.2595,370.5,376.481,378.973,381.466,388.442" svgx:width="0.33,0.25,0.55,0.67,0.28,0.28,0.78,0.25" style="fill:rgb(0,0,0);font-family:URWPalladioL-Ital;font-size:8.97px;stroke:none;">J. Clim.</text>
   <text y="661.715" x="393.822,398.305,402.788,407.272" svgx:width="0.5,0.5,0.5,0.5" style="fill:rgb(0,0,0);font-family:URWPalladioL-Bold;font-size:8.97px;stroke:none;">2013</text>
   <text y="661.715" x="411.754" svgx:width="0.25" style="fill:rgb(0,0,0);font-family:URWPalladioL-Roma;font-size:8.97px;stroke:none;">,</text>
   <text y="661.715" x="416.238,420.721" svgx:width="0.5,0.5" style="fill:rgb(0,0,0);font-family:URWPalladioL-Ital;font-size:8.97px;stroke:none;">26</text>
   <text y="661.715" x="425.204,427.4465,429.687,434.17,438.654,443.137,447.62,452.103,456.587,461.07,465.553,470.036,472.2785,475.416" svgx:width="0.25,0.55,0.5,0.5,0.5,0.5,0.5,0.5,0.5,0.5,0.5,0.25,0.55,0.33" style="fill:rgb(0,0,0);font-family:URWPalladioL-Roma;font-size:8.97px;stroke:none;">, 4500–4517. [</text>
   <text y="661.715" x="478.402,484.759,488.139,493.035,496.837,500.639,506.628,510.923" svgx:width="0.71,0.4,0.55,0.42,0.42,0.67,0.48,0.33" style="fill:rgb(8,117,183);font-family:URWPalladioL-Roma;font-size:8.97px;stroke:none;">CrossRef</text>
   <text y="661.715" x="513.909" svgx:width="0.33" style="fill:rgb(0,0,0);font-family:URWPalladioL-Roma;font-size:8.97px;stroke:none;">]</text>
   <text y="674.627" x="76.535,81.018,85.501,87.74350000000001,98.05,104.35,106.936,112.107,117.083,122.441,125.027,130.198,132.784,135.0265,137.236,142.665,144.887,147.1295,149.338,155.638,159.148,161.734,165.679,170.851,173.747,178.599,183.77,186.01250000000002,188.222,195.1,197.321,199.5635,201.782,210.188,214.63,217.527,220.424,228.27,232.713,237.884,243.056,245.29850000000002,247.508,253.807,256.029,258.2715,260.481,267.874,272.316,275.826,280.998,285.254,289.199,291.4415,293.651,296.61,298.831,301.0735,303.292,307.957,313.129,315.714,321.055,328.901,333.343,338.515,340.7575,342.967,349.746,351.968,354.2105,356.42,364.479,368.922,374.093,379.034,381.2765,383.486,387.609,389.83,392.0725,394.282,401.195,406.366,410.809,415.981,418.877,424.049,428.492,433.432,436.942,439.528,443.295,448.467,453.638,458.081,463.253,465.4955,467.704,473.64,475.861,478.1035,480.322,488.728,491.305,493.891,496.476,500.733,503.585,505.8275,508.037,515.421,517.642" svgx:width="0.5,0.5,0.25,0.55,0.71,0.29,0.58,0.56,0.6,0.29,0.58,0.29,0.25,0.55,0.61,0.25,0.25,0.55,0.71,0.4,0.29,0.44,0.58,0.33,0.55,0.58,0.25,0.55,0.77,0.25,0.25,0.55,0.95,0.5,0.33,0.33,0.88,0.5,0.58,0.58,0.25,0.55,0.71,0.25,0.25,0.55,0.83,0.5,0.4,0.58,0.48,0.56,0.25,0.55,0.33,0.25,0.25,0.55,0.52,0.58,0.29,0.6,0.88,0.5,0.58,0.25,0.55,0.76,0.25,0.25,0.55,1.0,0.5,0.58,0.56,0.25,0.55,0.56,0.25,0.25,0.55,0.78,0.58,0.5,0.58,0.33,0.58,0.5,0.56,0.4,0.29,0.42,0.58,0.58,0.5,0.58,0.25,0.55,0.67,0.25,0.25,0.55,0.95,0.29,0.29,0.29,0.48,0.4,0.25,0.55,0.83,0.25,0.25" style="fill:rgb(0,0,0);font-family:URWPalladioL-Roma;font-size:8.97px;stroke:none;">15. Cinquini, L.; Crichton, D.; Mattmann, C.; Harney, J.; Shipman, G.; Wang, F.; Ananthakrishnan, R.; Miller, N.;</text>
   <text y="687.538" x="98.05,105.129,109.51,114.832,120.0,122.661,125.323,127.5655,130.636,135.438,137.724,139.9665,143.431,152.083,157.077,160.524,165.609,170.182,175.505,177.7475,180.828,189.48,191.766,194.0085,197.473,201.854,204.81410000000002,207.863,212.436,215.097,217.33950000000002,222.88,228.486,233.809,238.1146,241.217,246.805,251.378,254.991,257.972,263.1746,266.322,271.124,276.209,280.087,283.068,287.449,295.3426,298.552,305.53,309.143,311.804,317.2757,320.419,325.504,329.885,335.473,339.854,343.466,348.039,351.021,353.682,358.676,363.999,366.24150000000003,370.995,378.11,383.31260000000003,386.46,391.454,396.951,401.331,406.53360000000004,409.681,412.343,417.666,420.711,424.324,428.897,432.774,435.756,439.295,444.81,448.871,451.852,457.367,460.815,465.1206,468.223,471.269,476.262,479.85,482.911,487.484,491.545,495.605,499.986,503.864,507.6314,510.769,513.751" svgx:width="0.77,0.48,0.58,0.56,0.29,0.29,0.25,0.55,0.52,0.25,0.25,0.55,0.95,0.55,0.4,0.56,0.5,0.58,0.25,0.55,0.95,0.25,0.25,0.55,0.48,0.33,0.55,0.5,0.29,0.25,0.55,0.61,0.58,0.48,0.55,0.61,0.5,0.4,0.33,0.58,0.55,0.52,0.56,0.42,0.33,0.48,0.88,0.55,0.76,0.4,0.29,0.61,0.55,0.56,0.48,0.61,0.48,0.4,0.5,0.33,0.29,0.55,0.58,0.25,0.55,0.78,0.58,0.55,0.55,0.6,0.48,0.58,0.55,0.29,0.58,0.33,0.4,0.5,0.42,0.33,0.4,0.6,0.44,0.33,0.6,0.4,0.48,0.55,0.33,0.55,0.4,0.55,0.5,0.44,0.44,0.48,0.42,0.42,0.55,0.33,0.55" style="fill:rgb(0,0,0);font-family:URWPalladioL-Roma;font-size:8.97px;stroke:none;">Denvil, S.; Morgan, M.; et al. The Earth System Grid Federation: An open infrastructure for access to</text>
   <text y="700.45" x="98.05,103.528,106.138,109.939,112.862,116.404,119.013,123.972,129.379,132.302,136.597,142.0687,144.317,149.302,153.597,158.493,162.294,167.683,172.166,175.089,177.699,182.182,184.7833,187.033,192.511,196.994,199.917,204.4" svgx:width="0.61,0.29,0.42,0.33,0.4,0.29,0.55,0.6,0.33,0.48,0.61,0.55,0.56,0.48,0.55,0.42,0.6,0.5,0.33,0.29,0.5,0.29,0.55,0.61,0.5,0.33,0.5,0.25" style="fill:rgb(0,0,0);font-family:URWPalladioL-Roma;font-size:8.97px;stroke:none;">distributed geospatial data.</text>
   <text y="700.45" x="209.779,214.764,219.75,222.735,227.721,231.047,234.5453,236.777,243.251,246.738,251.724,255.212,258.036,260.2785,263.416,269.397,273.378,280.354,284.837,289.822,292.808,295.0505,298.188,303.173,307.656,311.144,314.13" svgx:width="0.56,0.56,0.33,0.56,0.39,0.39,0.55,0.72,0.39,0.56,0.39,0.39,0.25,0.55,0.67,0.44,0.78,0.5,0.56,0.33,0.25,0.55,0.56,0.5,0.39,0.33,0.25" style="fill:rgb(0,0,0);font-family:URWPalladioL-Ital;font-size:8.97px;stroke:none;">Future Gener. Comput. Syst.</text>
   <text y="700.45" x="319.508,323.991,328.474,332.958" svgx:width="0.5,0.5,0.5,0.5" style="fill:rgb(0,0,0);font-family:URWPalladioL-Bold;font-size:8.97px;stroke:none;">2014</text>
   <text y="700.45" x="337.441" svgx:width="0.25" style="fill:rgb(0,0,0);font-family:URWPalladioL-Roma;font-size:8.97px;stroke:none;">,</text>
   <text y="700.45" x="341.924,346.407" svgx:width="0.5,0.5" style="fill:rgb(0,0,0);font-family:URWPalladioL-Ital;font-size:8.97px;stroke:none;">36</text>
   <text y="700.45" x="350.891,353.1335,355.374,359.857,364.341,368.824,373.307,377.79,382.273,386.757,388.9995,392.137" svgx:width="0.25,0.55,0.5,0.5,0.5,0.5,0.5,0.5,0.5,0.25,0.55,0.33" style="fill:rgb(0,0,0);font-family:URWPalladioL-Roma;font-size:8.97px;stroke:none;">, 400–417. [</text>
   <text y="700.45" x="395.122,401.48,404.86,409.756,413.557,417.359,423.349,427.643" svgx:width="0.71,0.4,0.55,0.42,0.42,0.67,0.48,0.33" style="fill:rgb(8,117,183);font-family:URWPalladioL-Roma;font-size:8.97px;stroke:none;">CrossRef</text>
   <text y="700.45" x="430.629" svgx:width="0.33" style="fill:rgb(0,0,0);font-family:URWPalladioL-Roma;font-size:8.97px;stroke:none;">]</text>
   <text y="713.361" x="76.535,81.018,85.501,87.74350000000001,98.05,100.976,105.37,109.271,114.069,118.928,121.1705,123.172,129.973,132.17,134.4125,136.485,141.792,146.001,148.866,153.075,156.546,160.271,164.48,169.594,171.8365,173.839,176.765,178.961,181.20350000000002,183.276,188.645,193.53,198.416,202.625,206.096,208.96,211.20250000000001,213.205,218.574,220.77,223.01250000000002,225.076,231.912,234.469,237.026,241.42,245.146,247.3885,249.399,256.235,258.432,260.6745,262.737,268.967,274.081,277.552,280.109,283.835,286.7,290.909,296.023,299.748,303.957,309.072,311.3145,313.316,320.222,322.419,327.788,329.985,332.2275,334.299,339.668,344.466,349.765,357.093,361.302,364.105,366.3475,368.358,373.727,375.924,384.236,386.433,388.6755,390.739,396.108,399.578,403.972,409.271,414.385,416.6275,418.638,425.474,427.671,429.9135,431.976,438.206,443.004,445.561,449.77,452.635,455.499,459.708,461.95050000000003,463.953,470.789,472.986,475.2285,477.3" svgx:width="0.5,0.5,0.25,0.55,0.33,0.5,0.44,0.55,0.55,0.25,0.55,0.77,0.25,0.25,0.55,0.6,0.48,0.33,0.48,0.4,0.42,0.48,0.58,0.25,0.55,0.33,0.25,0.25,0.55,0.61,0.56,0.56,0.48,0.4,0.33,0.25,0.55,0.61,0.25,0.25,0.55,0.78,0.29,0.29,0.5,0.42,0.25,0.55,0.78,0.25,0.25,0.55,0.71,0.58,0.4,0.29,0.42,0.33,0.48,0.58,0.42,0.48,0.58,0.25,0.55,0.79,0.25,0.61,0.25,0.25,0.55,0.61,0.55,0.6,0.83,0.48,0.4,0.25,0.55,0.61,0.25,0.95,0.25,0.25,0.55,0.61,0.4,0.5,0.6,0.58,0.25,0.55,0.78,0.25,0.25,0.55,0.71,0.55,0.29,0.48,0.33,0.33,0.48,0.25,0.55,0.78,0.25,0.25,0.55,0.77" style="fill:rgb(0,0,0);font-family:URWPalladioL-Roma;font-size:8.97px;stroke:none;">16. Jacob, D.; Petersen, J.; Eggert, B.; Alias, A.; Christensen, O.B.; Bouwer, L.M.; Braun, A.; Colette, A.; D</text>
   <text y="713.361" x="484.099" svgx:width="0.48" style="fill:rgb(0,0,0);font-family:VnURWPalladioL;font-size:8.97px;stroke:none;">é</text>
   <text y="713.361" x="488.394,493.315" svgx:width="0.56,0.6" style="fill:rgb(0,0,0);font-family:URWPalladioL-Roma;font-size:8.97px;stroke:none;">qu</text>
   <text y="713.361" x="498.613" svgx:width="0.48" style="fill:rgb(0,0,0);font-family:VnURWPalladioL;font-size:8.97px;stroke:none;">é</text>
   <text y="713.361" x="502.908,505.1505,507.152,515.465,517.661" svgx:width="0.25,0.55,0.95,0.25,0.25" style="fill:rgb(0,0,0);font-family:URWPalladioL-Roma;font-size:8.97px;stroke:none;">, M.;</text>
   <text y="726.273" x="98.05,104.755,108.964,113.761,117.074,121.96,124.517,128.726,133.69,137.416,142.302,144.859,147.10150000000002,148.98,155.684,157.881,160.1235,162.117,166.326,169.2861,171.114,175.508,178.065,180.3075,183.302,188.671,195.507,201.377,208.284,211.21,217.44,224.347,230.216,237.018,242.386,248.247,250.48950000000002,252.369,259.671,263.88,273.141,278.255,280.812,285.698,290.812,293.738,297.042,301.251,304.977,309.774,312.331,317.63,320.495,323.052,327.849,333.0516,334.897,338.798,341.355,343.912,351.671,356.065,358.929,363.2346,365.072,368.973,374.087,378.481,383.595,388.48,392.78560000000004,394.614,399.895,403.207,408.005,410.061,414.27,418.172,421.036,423.593,428.391,433.505,437.2724,439.155,442.081,446.879,450.46700000000004,452.283,457.652,462.951,466.263,471.061,476.342,480.551,484.945,490.1476,491.983,494.54,502.299,507.58,511.974,515.875" svgx:width="0.76,0.48,0.55,0.4,0.56,0.29,0.48,0.56,0.42,0.56,0.29,0.25,0.55,0.76,0.25,0.25,0.55,0.48,0.33,0.55,0.5,0.29,0.25,0.55,0.61,0.78,0.67,0.79,0.33,0.71,0.79,0.67,0.77,0.61,0.67,0.25,0.55,0.83,0.48,0.83,0.58,0.29,0.56,0.58,0.33,0.4,0.48,0.42,0.55,0.29,0.6,0.33,0.29,0.55,0.58,0.55,0.44,0.29,0.29,0.88,0.5,0.33,0.48,0.55,0.44,0.58,0.5,0.58,0.56,0.48,0.55,0.6,0.4,0.55,0.23,0.48,0.44,0.33,0.29,0.55,0.58,0.42,0.55,0.33,0.55,0.4,0.55,0.61,0.6,0.4,0.55,0.6,0.48,0.5,0.58,0.55,0.29,0.88,0.6,0.5,0.44,0.33" style="fill:rgb(0,0,0);font-family:URWPalladioL-Roma;font-size:8.97px;stroke:none;">Georgievski, G.; et al. EURO-CORDEX: Newhigh-resolution climate change projections for European impact</text>
   <text y="739.185" x="98.05,101.43,105.725,109.527,113.822,118.305,121.685,125.667,130.885" svgx:width="0.4,0.48,0.42,0.48,0.5,0.4,0.44,0.58,0.25" style="fill:rgb(0,0,0);font-family:URWPalladioL-Roma;font-size:8.97px;stroke:none;">research.</text>
   <text y="739.185" x="136.265,142.246,145.734,150.217,152.45950000000002,155.597,161.075,166.06,170.544,173.036,176.363,180.344,185.329,187.57150000000001,190.709,196.69,201.173,205.154,210.139,214.622" svgx:width="0.67,0.39,0.5,0.25,0.55,0.61,0.56,0.5,0.28,0.39,0.44,0.56,0.25,0.55,0.67,0.5,0.44,0.56,0.5,0.25" style="fill:rgb(0,0,0);font-family:URWPalladioL-Ital;font-size:8.97px;stroke:none;">Reg. Environ. Chang.</text>
   <text y="739.185" x="220.001,224.484,228.967,233.451" svgx:width="0.5,0.5,0.5,0.5" style="fill:rgb(0,0,0);font-family:URWPalladioL-Bold;font-size:8.97px;stroke:none;">2014</text>
   <text y="739.185" x="237.934" svgx:width="0.25" style="fill:rgb(0,0,0);font-family:URWPalladioL-Roma;font-size:8.97px;stroke:none;">,</text>
   <text y="739.185" x="242.417,246.9" svgx:width="0.5,0.5" style="fill:rgb(0,0,0);font-family:URWPalladioL-Ital;font-size:8.97px;stroke:none;">14</text>
   <text y="739.185" x="251.383,253.62550000000002,255.866,260.349,264.833,269.316,273.799,278.282,282.766,287.249,289.49150000000003,292.629" svgx:width="0.25,0.55,0.5,0.5,0.5,0.5,0.5,0.5,0.5,0.25,0.55,0.33" style="fill:rgb(0,0,0);font-family:URWPalladioL-Roma;font-size:8.97px;stroke:none;">, 563–578. [</text>
   <text y="739.185" x="295.614,301.972,305.352,310.248,314.049,317.851,323.841,328.135" svgx:width="0.71,0.4,0.55,0.42,0.42,0.67,0.48,0.33" style="fill:rgb(8,117,183);font-family:URWPalladioL-Roma;font-size:8.97px;stroke:none;">CrossRef</text>
   <text y="739.185" x="331.121" svgx:width="0.33" style="fill:rgb(0,0,0);font-family:URWPalladioL-Roma;font-size:8.97px;stroke:none;">]</text>
   <text y="752.096" x="76.535,81.018,85.501,87.74350000000001,98.05,102.833,107.406,112.491,115.153,120.146,123.091,125.3335,128.377,135.017,137.303,142.892,145.178,147.4205,150.83,155.632,158.613,163.607" svgx:width="0.5,0.5,0.25,0.55,0.61,0.5,0.56,0.29,0.55,0.4,0.25,0.55,0.73,0.25,0.61,0.25,0.25,0.55,0.52,0.33,0.55,0.6" style="fill:rgb(0,0,0);font-family:URWPalladioL-Roma;font-size:8.97px;stroke:none;">17. Taylor, K.E.; Stou</text>
   <text y="752.096" x="169.121" svgx:width="0.61" style="fill:rgb(0,0,0);font-family:Rpxr;font-size:8.97px;stroke:none;">ﬀ</text>
   <text y="752.096" x="174.682,179.063,182.008,184.25050000000002,187.294,193.403,195.69,198.735,201.022,203.2645,206.674,215.326,219.706,224.087,229.41,232.071,234.3135,237.349,244.327,246.613,253.729,255.97150000000002,259.015,266.13,271.3326,274.444,281.632,286.799,291.18,294.793,299.96,302.622,307.002,314.44710000000003,317.621,322.614,325.5741,328.659,335.144,343.796,346.878,352.402,356.887,359.965,364.538,369.861,375.3327,378.44,381.421,386.744,391.04960000000005,394.115,399.704,404.423,409.919,414.3,417.913,420.574,428.65,433.031,438.353,441.3131,444.335,451.413,455.794,459.672,462.333,467.418,472.741" svgx:width="0.48,0.4,0.25,0.55,0.67,0.25,0.33,0.25,0.25,0.55,0.95,0.48,0.48,0.58,0.29,0.25,0.55,0.76,0.25,0.78,0.25,0.55,0.78,0.58,0.55,0.79,0.56,0.48,0.4,0.56,0.29,0.48,0.83,0.55,0.55,0.33,0.55,0.71,0.95,0.34,0.6,0.5,0.55,0.5,0.58,0.61,0.55,0.33,0.58,0.48,0.55,0.61,0.52,0.6,0.48,0.4,0.29,0.88,0.48,0.58,0.33,0.55,0.77,0.48,0.42,0.29,0.56,0.58,0.25" style="fill:rgb(0,0,0);font-family:URWPalladioL-Roma;font-size:8.97px;stroke:none;">er, R.J.; Meehl, G.A. An Overview of CMIP5 and the Experiment Design.</text>
   <text y="752.096" x="480.418,486.006,491.091,493.634,496.176,498.4185,503.858,510.462,517.577" svgx:width="0.61,0.56,0.28,0.28,0.25,0.55,0.72,0.78,0.25" style="fill:rgb(0,0,0);font-family:URWPalladioL-Ital;font-size:8.97px;stroke:none;">Bull. Am.</text>
   <text y="765.008" x="98.05,106.514,110.002,112.988,116.476,120.457,123.784,127.765,130.257,132.4995,135.637,140.622,144.604,148.253" svgx:width="0.94,0.39,0.33,0.39,0.44,0.39,0.44,0.28,0.25,0.55,0.56,0.44,0.41,0.25" style="fill:rgb(0,0,0);font-family:URWPalladioL-Ital;font-size:8.97px;stroke:none;">Meteorol. Soc.</text>
   <text y="765.008" x="153.632,158.115,162.598,167.082" svgx:width="0.5,0.5,0.5,0.5" style="fill:rgb(0,0,0);font-family:URWPalladioL-Bold;font-size:8.97px;stroke:none;">2012</text>
   <text y="765.008" x="171.565" svgx:width="0.25" style="fill:rgb(0,0,0);font-family:URWPalladioL-Roma;font-size:8.97px;stroke:none;">,</text>
   <text y="765.008" x="176.048,180.531" svgx:width="0.5,0.5" style="fill:rgb(0,0,0);font-family:URWPalladioL-Ital;font-size:8.97px;stroke:none;">93</text>
   <text y="765.008" x="185.015,187.2575,189.498,193.981,198.465,202.948,207.431,211.914,216.397,220.881,223.1235,226.26" svgx:width="0.25,0.55,0.5,0.5,0.5,0.5,0.5,0.5,0.5,0.25,0.55,0.33" style="fill:rgb(0,0,0);font-family:URWPalladioL-Roma;font-size:8.97px;stroke:none;">, 485–498. [</text>
   <text y="765.008" x="229.246,235.603,238.984,243.879,247.681,251.483,257.473,261.767" svgx:width="0.71,0.4,0.55,0.42,0.42,0.67,0.48,0.33" style="fill:rgb(8,117,183);font-family:URWPalladioL-Roma;font-size:8.97px;stroke:none;">CrossRef</text>
   <text y="765.008" x="264.753" svgx:width="0.33" style="fill:rgb(0,0,0);font-family:URWPalladioL-Roma;font-size:8.97px;stroke:none;">]</text>
  </g>
 </g>
</svg>
