<?xml version="1.0" encoding="UTF-8"?>
<svg height="774.244" width="567.057" xmlns="http://www.w3.org/2000/svg">
 <g id="page" xmlns:svgx="http://www.xml-cml.org/schema/svgx">
  <path style="fill:rgb(206,221,228);stroke:none;stroke-width:1.0;" d="M382.560 8.590 L382.560 26.390 L548.650 26.390 C548.650 26.390 554.310 26.390 554.310 20.720 L554.310 8.590 Z"/>
  <g begin="text">
   <text y="764.23" x="549.393" svgx:width="0.52" style="fill:rgb(206,221,228);font-family:Corbel2;font-size:10.0px;stroke:none;">9</text>
   <text y="764.244" x="40.794,45.842,50.946,53.586,58.562,64.818,69.81,72.45,77.05,79.69" svgx:width="0.58,0.58,0.28,0.57,0.73,0.57,0.28,0.52,0.28,0.58" style="fill:rgb(0,0,0);font-family:Corbel-Bold2;font-size:8.0px;stroke:none;">Scientific</text>
   <text y="764.244" x="84.65" svgx:width="0.2" style="fill:rgb(0,0,0);font-family:Corbel2;font-size:8.0px;stroke:none;"> </text>
   <text y="764.244" x="86.25,91.706,96.682,101.922,108.226,113.682,118.674" svgx:width="0.63,0.57,0.6,0.73,0.63,0.57,0.58" style="fill:rgb(0,0,0);font-family:Corbel-Bold2;font-size:8.0px;stroke:none;">RepoRtS</text>
   <text y="764.244" x="123.57,125.01,126.826" svgx:width="0.2,0.23,0.2" style="fill:rgb(0,0,0);font-family:Corbel2;font-size:8.0px;stroke:none;"> | </text>
   <text y="764.244" x="128.266,129.722,131.178,132.634,134.09,135.546,137.002,138.458,139.914,142.186,146.122,150.058,153.994,157.93,160.202,161.658,165.594,167.282,171.218,175.154,179.09,183.026,186.962" svgx:width="0.18,0.18,0.18,0.18,0.18,0.18,0.18,0.18,0.28,0.49,0.49,0.49,0.49,0.28,0.18,0.49,0.21,0.49,0.49,0.49,0.49,0.49,0.18" style="fill:rgb(0,0,0);font-family:MyriadPro-It;font-size:8.0px;stroke:none;"> (2019) 9:16193 </text>
   <text y="764.244" x="188.418,189.858,191.674" svgx:width="0.2,0.23,0.2" style="fill:rgb(0,0,0);font-family:Corbel2;font-size:8.0px;stroke:none;"> | </text>
   <text y="764.244" x="193.114,197.37,200.146,202.922,207.17,210.402,212.514,214.714,216.914,221.202,225.466,227.322,229.434,233.698,236.378,240.626,242.826,246.93,251.034,253.146,257.25,261.354,265.458,269.562,271.762,274.994,279.098,283.202,287.306,291.41,295.514,298.178,302.282,306.386,310.49,313.154,317.258,321.362,325.466,329.57,333.674,336.338" svgx:width="0.53,0.35,0.35,0.53,0.4,0.26,0.28,0.28,0.54,0.53,0.23,0.26,0.53,0.34,0.53,0.28,0.51,0.51,0.26,0.51,0.51,0.51,0.51,0.28,0.4,0.51,0.51,0.51,0.51,0.51,0.33,0.51,0.51,0.51,0.33,0.51,0.51,0.51,0.51,0.51,0.33,0.51" style="fill:rgb(0,0,0);font-family:Corbel;font-size:8.0px;stroke:none;">https://doi.org/10.1038/s41598-019-52524-8</text>
  </g>
  <g begin="text">
   <text y="22.277" x="389.724,397.484,405.243,412.702,415.869,421.732,427.216,431.234,437.005,440.9,446.465,449.633,454.583,460.508,469.466,472.746,477.349,482.299,485.139,490.699,496.562,500.58,503.419,507.14,509.979,514.93,518.825,524.391,530.295,536.219,540.115,544.133" svgx:width="0.71,0.71,0.71,0.26,0.53,0.49,0.35,0.52,0.34,0.5,0.26,0.44,0.53,0.83,0.28,0.4,0.44,0.23,0.5,0.53,0.35,0.23,0.32,0.23,0.44,0.34,0.5,0.53,0.53,0.34,0.35,0.4" style="fill:rgb(0,0,0);font-family:Corbel2;font-size:10.25px;stroke:none;">www.nature.com/scientificreports</text>
  </g>
  <path style="fill:none;stroke:rgb(0,0,0);stroke-width:1.0;" d="M40.640 752.550 L554.640 752.550 "/>
  <g begin="text">
   <text y="22.46" x="40.638,48.208,55.778,63.055,66.145,71.865,77.215,81.135,86.765,90.565,95.995,99.085,103.915,109.695,118.435,121.635,126.125,130.955,133.725,139.15,144.87,148.79,151.56,155.19,157.96,162.79,166.59,172.02,177.78,183.56,187.36,191.28,195.77" svgx:width="0.71,0.71,0.71,0.26,0.53,0.49,0.35,0.52,0.34,0.5,0.26,0.44,0.53,0.83,0.28,0.4,0.44,0.23,0.5,0.53,0.35,0.23,0.32,0.23,0.44,0.34,0.5,0.53,0.53,0.34,0.35,0.4,0.28" style="fill:rgb(0,0,0);font-family:Corbel2;font-size:10.0px;stroke:none;">www.nature.com/scientificreports/</text>
  </g>
  <g begin="text">
   <text y="55.0" x="155.638,155.728,159.328,162.928,164.638,166.363,167.638,174.342,176.463,178.435,180.52,184.637,187.433,191.279,193.317,195.102,196.895,203.652,205.437,207.222,209.015,213.813,217.659,221.776,223.702,225.487,227.28,231.238,233.023,234.816,240.223,242.016,248.644,251.943,254.702,258.518,260.88,264.105,267.855,271.071,272.856,274.648,276.874,278.659,280.452,285.625,289.591,293.407,297.478,300.741,303.598,306.822,309.22,311.252,314.738,318.0,319.793,321.878,325.911,328.227,331.49,334.347,337.715,341.013,343.412,345.497,349.305,353.483,355.275,359.085,361.38,363.172,366.073,368.158,371.359,375.439,377.232,380.53,384.676,388.711,390.504,394.575,398.541,402.349,405.207,406.999,410.268,413.567,417.744,419.537,423.488,426.75,428.543,431.811,435.035,437.441,440.844,442.763,446.28,449.505,452.804,456.839,458.631,462.395,465.912,467.705,469.79,473.823,476.139,479.402,482.303,488.489,491.787,495.822,497.928,501.152,503.468,506.73,508.523,511.724,513.696,515.781,521.975,525.198,527.515,530.778,532.57,534.976,538.275,541.071,544.594,547.857,550.219,553.047,554.757" svgx:width="0.23,0.48,0.48,0.23,0.23,0.55,0.89,0.27,0.25,0.27,0.55,0.37,0.5,0.27,0.23,0.23,0.89,0.23,0.23,0.23,0.63,0.51,0.53,0.25,0.23,0.23,0.62,0.23,0.23,0.71,0.23,0.89,0.44,0.37,0.51,0.31,0.42,0.5,0.43,0.23,0.23,0.33,0.23,0.23,0.67,0.51,0.51,0.52,0.43,0.37,0.44,0.31,0.27,0.46,0.43,0.23,0.27,0.55,0.31,0.43,0.37,0.44,0.42,0.31,0.27,0.51,0.55,0.23,0.51,0.3,0.23,0.37,0.27,0.42,0.53,0.23,0.44,0.55,0.53,0.23,0.52,0.51,0.51,0.37,0.23,0.42,0.44,0.55,0.23,0.51,0.43,0.23,0.42,0.44,0.31,0.44,0.25,0.46,0.42,0.43,0.53,0.23,0.51,0.46,0.23,0.27,0.55,0.31,0.43,0.37,0.82,0.43,0.53,0.27,0.44,0.31,0.43,0.23,0.42,0.25,0.27,0.82,0.44,0.31,0.43,0.23,0.31,0.44,0.37,0.47,0.43,0.31,0.37,0.23,0.23" style="fill:rgb(0,0,0);font-family:MinionPro-Regular;font-size:7.5px;stroke:none;"> 33. Milinski, M., Röhl, T. &amp; Marotzke, J. Cooperative interaction of rich and poor can be catalyzed by intermediate climate targets. </text>
   <text y="63.497" x="167.638,172.4,174.171,176.12,181.97,185.48,187.715,189.733,192.598,194.143,196.918,200.698,204.253,208.145,211.296" svgx:width="0.63,0.25,0.27,0.79,0.49,0.31,0.27,0.38,0.23,0.38,0.51,0.49,0.53,0.42,0.4" style="fill:rgb(0,0,0);font-family:MinionPro-It;font-size:7.5px;stroke:none;">Climatic change</text>
   <text y="63.497" x="214.296,215.826,219.426,223.326,226.926,228.456,231.051,234.651,238.251,241.851,245.451,248.046" svgx:width="0.23,0.48,0.52,0.48,0.23,0.35,0.48,0.48,0.48,0.48,0.35,0.23" style="fill:rgb(0,0,0);font-family:MinionPro-Regular;font-size:7.5px;stroke:none;"> 1–8 (2011).</text>
   <text y="71.995" x="155.638,155.728,159.328,162.928,164.638,166.363,167.638,172.198,176.09,179.278,182.09,185.217,189.222,190.932,192.462,197.45,199.16,200.69,205.79,209.682,213.425,217.422,220.609,223.392,226.542,228.867,230.824,234.237,237.424,238.954,242.817,246.799,250.759,253.084,255.094,259.137,262.647,264.177,266.862,270.634,272.532,275.719,278.472,280.002,283.227,289.339,293.074,297.117,300.627,302.157,306.094,309.319,311.329,312.859,315.987,319.992,322.002,328.001,331.968,335.193,339.296,342.446,345.671,348.858,351.611,353.321,354.851,360.303,364.286,370.406,373.631,377.733,379.443" svgx:width="0.23,0.48,0.48,0.23,0.23,0.55,0.59,0.51,0.43,0.37,0.42,0.53,0.23,0.23,0.67,0.23,0.23,0.67,0.51,0.51,0.52,0.43,0.37,0.44,0.31,0.27,0.46,0.43,0.23,0.53,0.53,0.55,0.31,0.27,0.55,0.47,0.23,0.37,0.51,0.25,0.43,0.37,0.23,0.44,0.82,0.51,0.55,0.47,0.23,0.62,0.44,0.27,0.23,0.42,0.53,0.27,0.82,0.52,0.44,0.55,0.42,0.43,0.43,0.37,0.23,0.23,0.77,0.53,0.82,0.44,0.55,0.23,0.23" style="fill:rgb(0,0,0);font-family:MinionPro-Regular;font-size:7.5px;stroke:none;"> 34. Boesch, C. Cooperative hunting roles among Tai chimpanzees. Human. </text>
   <text y="71.995" x="380.973,386.043,389.554,391.789,395.689,398.292" svgx:width="0.7,0.49,0.31,0.53,0.37,0.4" style="fill:rgb(0,0,0);font-family:MinionPro-It;font-size:7.5px;stroke:none;">Nature</text>
   <text y="71.995" x="401.308" svgx:width="0.23" style="fill:rgb(0,0,0);font-family:MinionPro-Regular;font-size:7.5px;stroke:none;"> </text>
   <text y="71.995" x="402.838,406.588" svgx:width="0.5,0.5" style="fill:rgb(0,0,0);font-family:MinionPro-Bold;font-size:7.5px;stroke:none;">13</text>
   <text y="71.995" x="410.338,412.048,413.578,417.178,420.778,424.678,428.278,431.878,433.408,436.003,439.603,443.203,446.803,450.403,452.998" svgx:width="0.23,0.23,0.48,0.48,0.52,0.48,0.48,0.23,0.35,0.48,0.48,0.48,0.48,0.35,0.23" style="fill:rgb(0,0,0);font-family:MinionPro-Regular;font-size:7.5px;stroke:none;">, 27–46 (2002).</text>
   <text y="80.492" x="155.638,155.728,159.328,162.928,164.638,166.363,167.638,172.67,175.4,178.67,181.871,183.768,185.523,187.211,190.811,192.566,194.253,199.631,201.318,206.351,209.081,212.35,215.552,217.449,219.204,220.891,226.509,228.264,229.951,236.679,238.434,240.121,245.265,249.045,255.232,261.276,265.304,269.429,272.803,274.746,276.433,280.34,284.367,288.372,290.741,292.796,296.883,300.438,302.126,305.396,309.512,313.517,315.205,319.217,322.554,325.726,329.513,331.201,333.998,336.053,339.248,342.481,344.168,346.223,350.371,352.058,357.263,359.603,362.474,364.529,367.769,371.038,375.185,376.873,382.077,384.169,386.111,390.116,391.804,395.809,399.679,403.234,406.031,407.786,409.474,413.223,416.65,419.889,423.227,427.007,431.154,432.842,436.726,438.781,442.049,444.307,448.311,451.109,452.864" svgx:width="0.23,0.48,0.48,0.23,0.23,0.55,0.67,0.37,0.43,0.43,0.25,0.23,0.23,0.47,0.23,0.23,0.71,0.23,0.67,0.37,0.43,0.43,0.25,0.23,0.23,0.74,0.23,0.23,0.89,0.23,0.23,0.67,0.51,0.82,0.82,0.53,0.55,0.44,0.25,0.23,0.53,0.53,0.55,0.31,0.27,0.55,0.47,0.23,0.44,0.55,0.53,0.23,0.52,0.44,0.42,0.5,0.23,0.37,0.27,0.42,0.43,0.23,0.27,0.55,0.23,0.69,0.3,0.37,0.27,0.42,0.44,0.55,0.23,0.69,0.27,0.25,0.53,0.23,0.53,0.51,0.47,0.37,0.23,0.23,0.54,0.46,0.42,0.44,0.51,0.55,0.23,0.52,0.27,0.42,0.31,0.53,0.37,0.23,0.23" style="fill:rgb(0,0,0);font-family:MinionPro-Regular;font-size:7.5px;stroke:none;"> 35. Creel, S. &amp; Creel, N. M. Communal hunting and pack size in African wild dogs, Lycaon pictus. </text>
   <text y="80.492" x="454.551,459.351,463.259,465.254,471.148,474.785,476.698,478.4,482.81,485.735,489.56,493.107,496.601,498.664,502.159,506.104" svgx:width="0.66,0.53,0.27,0.79,0.49,0.25,0.23,0.58,0.4,0.51,0.49,0.45,0.27,0.47,0.53,0.37" style="fill:rgb(0,0,0);font-family:MinionPro-It;font-size:7.5px;stroke:none;">Animal Behaviour</text>
   <text y="80.492" x="508.865" svgx:width="0.23" style="fill:rgb(0,0,0);font-family:MinionPro-Regular;font-size:7.5px;stroke:none;"> </text>
   <text y="80.492" x="510.553,514.348" svgx:width="0.5,0.5" style="fill:rgb(0,0,0);font-family:MinionPro-Bold;font-size:7.5px;stroke:none;">50</text>
   <text y="80.492" x="518.143,519.898,521.585,525.23,528.875,532.521,536.166,540.111,543.756,547.401,551.046,554.646" svgx:width="0.23,0.23,0.48,0.48,0.48,0.48,0.52,0.48,0.48,0.48,0.48,0.23" style="fill:rgb(0,0,0);font-family:MinionPro-Regular;font-size:7.5px;stroke:none;">, 1325–1339 </text>
   <text y="88.99" x="167.638,170.233,173.833,177.433,181.033,184.633,187.228" svgx:width="0.35,0.48,0.48,0.48,0.48,0.35,0.23" style="fill:rgb(0,0,0);font-family:MinionPro-Regular;font-size:7.5px;stroke:none;">(1995).</text>
   <text y="97.487" x="155.638,155.728,159.328,162.928,164.638,166.363,167.638,172.133,174.182,177.602,180.859,184.729,186.566,188.554,190.836,192.674,194.511,196.499,200.731,204.108,207.733,209.827,211.664,213.652,220.462,222.299,224.287,229.629,231.467,233.454,238.914,240.902,246.588,249.903,251.891,258.508,261.863,265.14,268.56,270.398,272.385,277.727,279.565,281.552,286.667,289.481,292.844,296.123,298.578,300.716,304.888,308.526,310.513,313.933,315.921,319.5,323.523,327.544,331.632,333.619,336.899,339.354,345.595,349.548,352.392,356.4,360.504,363.819,366.633,369.948,371.786,373.773,380.043,382.181,386.411,388.548,394.678,398.788,405.058,407.046,411.143,414.498,417.485,419.939,422.076,425.376,427.426,431.523,434.802,437.257,439.395,443.259,447.489,449.477,451.758,455.623,458.533,460.521,462.983,466.403,469.659,473.599,475.624,477.762,481.933,485.571,487.558,490.02,494.125,497.007,498.015,501.691,504.506,507.861,511.176,515.445,519.549,523.422,527.511,530.454,533.769,535.756,539.071,543.341,546.696,550.05,552.264,552.867,554.577" svgx:width="0.23,0.48,0.48,0.23,0.23,0.55,0.59,0.25,0.44,0.42,0.5,0.23,0.23,0.33,0.23,0.23,0.23,0.54,0.43,0.46,0.27,0.23,0.23,0.89,0.23,0.23,0.74,0.23,0.23,0.71,0.23,0.74,0.43,0.23,0.89,0.43,0.42,0.44,0.23,0.23,0.74,0.23,0.23,0.67,0.37,0.43,0.44,0.31,0.27,0.55,0.47,0.23,0.44,0.23,0.47,0.51,0.51,0.53,0.23,0.44,0.31,0.82,0.51,0.37,0.52,0.53,0.43,0.37,0.43,0.23,0.23,0.82,0.27,0.55,0.27,0.82,0.53,0.82,0.23,0.52,0.44,0.37,0.31,0.27,0.42,0.27,0.52,0.44,0.31,0.27,0.51,0.55,0.23,0.3,0.51,0.37,0.23,0.31,0.44,0.42,0.5,0.25,0.27,0.55,0.47,0.23,0.31,0.53,0.43,0.22,0.47,0.37,0.43,0.43,0.55,0.53,0.51,0.53,0.37,0.43,0.23,0.43,0.56,0.43,0.42,0.31,0.22,0.23,0.23" style="fill:rgb(0,0,0);font-family:MinionPro-Regular;font-size:7.5px;stroke:none;"> 36. Black, J., Levi, M. D. &amp; De Meza, D. Creating a good atmosphere: minimum participation for tackling the’greenhouse effect’. </text>
   <text y="105.985" x="167.638,171.83,174.643,178.093,182.03,185.48,191.255,193.273,196.085" svgx:width="0.56,0.38,0.47,0.53,0.47,0.79,0.27,0.38,0.49" style="fill:rgb(0,0,0);font-family:MinionPro-It;font-size:7.5px;stroke:none;">Economica</text>
   <text y="105.985" x="199.76,201.29,204.89,208.49,212.09,215.99,219.59,223.19,226.79,228.32,230.915,234.516,238.116,241.716,245.316,247.911" svgx:width="0.23,0.48,0.48,0.48,0.52,0.48,0.48,0.48,0.23,0.35,0.48,0.48,0.48,0.48,0.35,0.23" style="fill:rgb(0,0,0);font-family:MinionPro-Regular;font-size:7.5px;stroke:none;"> 281–293 (1993).</text>
   <text y="114.482" x="155.638,155.728,159.328,162.928,164.638,166.363,167.638,171.088,173.42,176.645,180.718,184.678,187.865,190.175,191.885,193.415,196.595,198.305,199.835,204.095,205.805,207.335,212.435,216.328,220.07,224.068,227.255,230.038,233.188,235.513,237.47,240.883,244.07,245.6,249.463,253.445,257.405,259.73,261.741,265.783,269.293,270.823,272.833,276.936,278.466,280.363,282.373,286.108,290.151,292.903,294.613,296.143,298.475,302.45,305.637,307.167,309.852,313.625,315.522,318.71,320.24,323.975,326.195,327.725,330.057,334.032,337.22,338.75,340.76,344.832,348.792,350.75,354.245,356.255,360.125,364.13,367.46,369.312,371.022" svgx:width="0.23,0.48,0.48,0.23,0.23,0.55,0.47,0.31,0.44,0.55,0.53,0.43,0.37,0.23,0.23,0.56,0.23,0.23,0.57,0.23,0.23,0.67,0.51,0.51,0.52,0.43,0.37,0.44,0.31,0.27,0.46,0.43,0.23,0.53,0.53,0.55,0.31,0.27,0.55,0.47,0.23,0.27,0.55,0.23,0.25,0.27,0.51,0.55,0.37,0.23,0.23,0.31,0.53,0.43,0.23,0.37,0.51,0.25,0.43,0.23,0.51,0.3,0.23,0.31,0.53,0.43,0.23,0.27,0.55,0.53,0.27,0.46,0.27,0.53,0.53,0.44,0.25,0.23,0.23" style="fill:rgb(0,0,0);font-family:MinionPro-Regular;font-size:7.5px;stroke:none;"> 37. Stander, P. E. Cooperative hunting in lions: the role of the individual. </text>
   <text y="114.482" x="372.552,376.917,379.797,383.577,387.079,390.529,392.547,395.996,398.599,402.192,404.058,405.603,408.558,411.371,414.821,416.658,420.183,423.491,426.806,428.351,431.906,435.843,439.653,441.198,443.748,447.243,450.108,452.126,455.553,459.123,461.141,464.591,466.428,469.953,473.261" svgx:width="0.58,0.4,0.51,0.49,0.45,0.27,0.47,0.37,0.49,0.25,0.23,0.4,0.38,0.47,0.25,0.47,0.42,0.44,0.23,0.49,0.53,0.51,0.23,0.34,0.47,0.38,0.27,0.47,0.49,0.27,0.47,0.25,0.47,0.42,0.44" style="fill:rgb(0,0,0);font-family:MinionPro-It;font-size:7.5px;stroke:none;">Behavioral ecology and sociobiology</text>
   <text y="114.482" x="476.6" svgx:width="0.23" style="fill:rgb(0,0,0);font-family:MinionPro-Regular;font-size:7.5px;stroke:none;"> </text>
   <text y="114.482" x="478.13,481.88" svgx:width="0.5,0.5" style="fill:rgb(0,0,0);font-family:MinionPro-Bold;font-size:7.5px;stroke:none;">29</text>
   <text y="114.482" x="485.63,487.34,488.87,492.47,496.07,499.67,503.57,507.17,510.77,514.37,515.901,518.495,522.095,525.695,529.295,532.895,535.49" svgx:width="0.23,0.23,0.48,0.48,0.48,0.52,0.48,0.48,0.48,0.23,0.35,0.48,0.48,0.48,0.48,0.35,0.23" style="fill:rgb(0,0,0);font-family:MinionPro-Regular;font-size:7.5px;stroke:none;">, 445–454 (1992).</text>
   <text y="122.98" x="155.638,155.728,159.328,162.928,164.638,166.363,167.638,172.843,174.688,178.16,181.385,184.07,187.985,189.695,191.225,197.908,199.618,201.148,204.703,206.413" svgx:width="0.23,0.48,0.48,0.23,0.23,0.55,0.69,0.25,0.46,0.44,0.37,0.53,0.23,0.23,0.89,0.23,0.23,0.47,0.23,0.23" style="fill:rgb(0,0,0);font-family:MinionPro-Regular;font-size:7.5px;stroke:none;"> 38. Alvard, M. S. </text>
   <text y="122.98" x="207.943,210.89,213.193,214.738,218.33" svgx:width="0.4,0.31,0.23,0.49,0.25" style="fill:rgb(0,0,0);font-family:MinionPro-It;font-size:7.5px;stroke:none;">et al</text>
   <text y="122.98" x="220.205,221.915,223.445,228.17,231.913,235.873,238.588,241.4,244.632,247.782,251.57,252.53,255.282,256.812,262.002,265.985,269.315,271.212,274.4,275.93,279.792,283.775,287.735,290.022,292.865,294.395,299.495,303.387,307.122,309.807,313.767,315.777,319.857,323.007,325.332,327.342,331.077,335.179,336.709,339.934,346.047,349.782,353.824,357.334,358.864,362.584,364.594,368.104,370.774,374.284,377.509,383.621,386.808,388.338,392.201,396.183,400.143,402.386,405.573,408.311,411.063,412.773" svgx:width="0.23,0.23,0.63,0.51,0.53,0.37,0.37,0.43,0.44,0.53,0.22,0.37,0.23,0.69,0.53,0.44,0.25,0.43,0.23,0.53,0.53,0.55,0.31,0.38,0.23,0.67,0.51,0.51,0.37,0.53,0.27,0.55,0.44,0.31,0.27,0.51,0.55,0.23,0.44,0.82,0.51,0.55,0.47,0.23,0.51,0.27,0.47,0.36,0.47,0.44,0.82,0.43,0.23,0.53,0.53,0.55,0.31,0.43,0.37,0.37,0.23,0.23" style="fill:rgb(0,0,0);font-family:MinionPro-Regular;font-size:7.5px;stroke:none;">. Rousseau’s whale hunt? Coordination among big-game hunters. </text>
   <text y="122.98" x="414.303,418.961,422.862,425.673,428.276,431.276,435.101,437.403,438.948,442.503,446.328,448.563,452.268,454.871,458.328,461.943,465.393,467.231,470.756,474.063" svgx:width="0.63,0.53,0.37,0.37,0.4,0.53,0.31,0.23,0.49,0.53,0.31,0.51,0.37,0.47,0.49,0.47,0.25,0.47,0.42,0.44" style="fill:rgb(0,0,0);font-family:MinionPro-It;font-size:7.5px;stroke:none;">Current anthropology</text>
   <text y="122.98" x="477.378" svgx:width="0.23" style="fill:rgb(0,0,0);font-family:MinionPro-Regular;font-size:7.5px;stroke:none;"> </text>
   <text y="122.98" x="478.925,482.675" svgx:width="0.5,0.5" style="fill:rgb(0,0,0);font-family:MinionPro-Bold;font-size:7.5px;stroke:none;">43</text>
   <text y="122.98" x="486.425,488.135,489.665,493.265,496.865,500.465,504.365,507.965,511.565,515.165,516.695,519.29,522.89,526.49,530.09,533.69,536.285" svgx:width="0.23,0.23,0.48,0.48,0.48,0.52,0.48,0.48,0.48,0.23,0.35,0.48,0.48,0.48,0.48,0.35,0.23" style="fill:rgb(0,0,0);font-family:MinionPro-Regular;font-size:7.5px;stroke:none;">, 533–559 (2002).</text>
   <text y="131.477" x="155.638,155.728,159.328,162.928,164.638,166.363,167.638,171.324,175.092,179.101,182.277,185.595,187.331,188.974,195.683,197.419,199.061,204.389,206.126,207.862,209.504,213.588,216.906,220.06,224.061,227.312,230.51,234.143,235.88,237.522,239.701,241.437,243.08,249.788,251.524,253.166,258.525,260.168,263.749,267.0,270.986,273.254,277.106,279.884,281.62,283.262,286.431,288.167,289.809,294.822,296.558,298.201,302.337,305.776,309.574,311.408,315.326,317.677,319.713,323.474,327.602,329.245,333.006,335.252,336.895,340.093,344.012,347.78,351.803,355.017,357.825,361.001,363.353,365.388,369.15,373.278,374.921,378.93,383.028,387.014,390.228,393.036,394.678,400.277,402.973,406.996,410.21,412.973,415.812,419.573,423.701,425.343,428.122,432.221,435.951,441.055,445.041,447.894,449.931,454.322,455.964,459.5,462.751,468.89,472.103,474.882,476.618" svgx:width="0.23,0.48,0.48,0.23,0.23,0.55,0.47,0.51,0.53,0.42,0.44,0.23,0.23,0.89,0.23,0.23,0.75,0.23,0.23,0.23,0.56,0.44,0.42,0.53,0.43,0.42,0.51,0.23,0.23,0.33,0.23,0.23,0.89,0.23,0.23,0.71,0.23,0.47,0.44,0.55,0.31,0.51,0.37,0.23,0.23,0.53,0.23,0.23,0.67,0.23,0.23,0.57,0.46,0.51,0.25,0.53,0.31,0.27,0.51,0.55,0.23,0.51,0.3,0.23,0.42,0.51,0.51,0.52,0.43,0.37,0.44,0.31,0.27,0.51,0.55,0.23,0.53,0.55,0.53,0.43,0.37,0.23,0.74,0.36,0.52,0.43,0.37,0.37,0.51,0.55,0.23,0.37,0.55,0.51,0.69,0.53,0.37,0.27,0.58,0.23,0.47,0.44,0.82,0.43,0.37,0.23,0.23" style="fill:rgb(0,0,0);font-family:MinionPro-Regular;font-size:7.5px;stroke:none;"> 39. Souza, M. O., Pacheco, J. M. &amp; Santos, F. C. Evolution of cooperation under N-person snowdrift games. </text>
   <text y="131.477" x="478.26,480.694,482.352,490.073,493.054,496.53,499.302,500.959,505.208,507.252,510.728" svgx:width="0.32,0.23,1.03,0.4,0.47,0.37,0.23,0.58,0.27,0.47,0.25" style="fill:rgb(0,0,0);font-family:MinionPro-It;font-size:7.5px;stroke:none;">J Theor Biol</text>
   <text y="131.477" x="512.638" svgx:width="0.23" style="fill:rgb(0,0,0);font-family:MinionPro-Regular;font-size:7.5px;stroke:none;"> </text>
   <text y="131.477" x="514.28,518.053,521.826" svgx:width="0.5,0.5,0.5" style="fill:rgb(0,0,0);font-family:MinionPro-Bold;font-size:7.5px;stroke:none;">260</text>
   <text y="131.477" x="525.598,527.334,528.977,532.603,536.229,539.855,543.781,547.407,551.033,554.633" svgx:width="0.23,0.23,0.48,0.48,0.48,0.52,0.48,0.48,0.48,0.23" style="fill:rgb(0,0,0);font-family:MinionPro-Regular;font-size:7.5px;stroke:none;">, 581–588 </text>
   <text y="139.975" x="167.638,170.233,173.833,177.433,181.033,184.633,187.228" svgx:width="0.35,0.48,0.48,0.48,0.48,0.35,0.23" style="fill:rgb(0,0,0);font-family:MinionPro-Regular;font-size:7.5px;stroke:none;">(2009).</text>
   <text y="148.472" x="155.638,155.728,159.328,162.928,164.638,166.363,167.638,171.767,175.135,178.334,182.381,185.678,188.925,192.605,194.39,196.175,198.399,200.184,201.969,208.727,210.512,212.297,214.082,218.684,222.026,224.909,228.157,231.964,236.108,239.356,242.585,244.557,248.457,251.285,253.07,254.855,259.119,260.9,262.685,266.95,268.731,270.516,272.301,275.927,279.225,283.256,285.571,289.471,292.298,294.083,295.868,299.083,300.868,302.653,307.715,309.5,311.285,316.693,318.478,322.06,325.837,329.374,332.273,338.427,341.255,343.04,344.825,349.179,350.964,352.749,357.921,361.821,364.566,367.885,371.369,375.214,377.093,381.058,383.455,385.54,389.346,393.498,396.795,399.867,403.385,405.17,409.149,412.686,416.838,420.135,426.353,428.434,431.681,434.509,436.294,440.101,442.396,444.181,447.428,451.273,453.279,455.252,458.549,461.846,464.242,466.271,469.756,473.018,474.803,478.171,481.468,483.865,485.946,489.753,493.931,495.716,500.948,502.94,505.344,509.424,511.209,514.036,516.118,519.737,523.889,527.291,529.264,531.345,535.46,539.045,540.83,543.054,546.861,549.719,551.503,554.796" svgx:width="0.23,0.48,0.48,0.23,0.23,0.55,0.56,0.44,0.42,0.53,0.43,0.42,0.51,0.23,0.23,0.33,0.23,0.23,0.89,0.23,0.23,0.23,0.7,0.44,0.37,0.42,0.51,0.55,0.42,0.43,0.25,0.51,0.37,0.23,0.23,0.7,0.23,0.23,0.7,0.23,0.23,0.23,0.47,0.44,0.55,0.31,0.51,0.37,0.23,0.23,0.53,0.23,0.23,0.67,0.23,0.23,0.71,0.23,0.47,0.5,0.46,0.37,0.82,0.37,0.23,0.23,0.59,0.23,0.23,0.67,0.51,0.36,0.43,0.46,0.51,0.25,0.53,0.31,0.27,0.51,0.55,0.44,0.37,0.46,0.23,0.53,0.46,0.55,0.44,0.82,0.27,0.42,0.37,0.23,0.51,0.3,0.23,0.42,0.51,0.25,0.25,0.43,0.42,0.31,0.27,0.46,0.43,0.23,0.44,0.42,0.31,0.27,0.51,0.55,0.23,0.69,0.27,0.31,0.53,0.23,0.37,0.27,0.47,0.55,0.44,0.25,0.27,0.55,0.47,0.23,0.3,0.51,0.37,0.23,0.44,0.23" style="fill:rgb(0,0,0);font-family:MinionPro-Regular;font-size:7.5px;stroke:none;"> 40. Pacheco, J. M., Vasconcelos, V. V., Santos, F. C. &amp; Skyrms, B. Co-evolutionary dynamics of collective action with signaling for a </text>
   <text y="156.97" x="167.638,171.395,175.378,179.113,181.97,185.953,192.095,193.805" svgx:width="0.51,0.53,0.51,0.37,0.53,0.82,0.23,0.23" style="fill:rgb(0,0,0);font-family:MinionPro-Regular;font-size:7.5px;stroke:none;">quorum. </text>
   <text y="156.97" x="195.335,199.393,203.405,206.93,210.44,211.985,216.77,220.22,226.002,229.572,233.465,235.766,237.311,241.534,243.551,247.001" svgx:width="0.55,0.53,0.47,0.47,0.23,0.63,0.47,0.79,0.49,0.53,0.31,0.23,0.58,0.27,0.47,0.25" style="fill:rgb(0,0,0);font-family:MinionPro-It;font-size:7.5px;stroke:none;">PLoS Comput Biol</text>
   <text y="156.97" x="248.87" svgx:width="0.23" style="fill:rgb(0,0,0);font-family:MinionPro-Regular;font-size:7.5px;stroke:none;"> </text>
   <text y="156.97" x="250.4,254.15" svgx:width="0.5,0.5" style="fill:rgb(0,0,0);font-family:MinionPro-Bold;font-size:7.5px;stroke:none;">11</text>
   <text y="156.97" x="257.9,259.61,261.14,264.328,267.928,271.528,275.128,278.728,282.328,285.928,289.528,291.058,293.653,297.253,300.853,304.453,308.053,310.648" svgx:width="0.23,0.23,0.43,0.48,0.48,0.48,0.48,0.48,0.48,0.48,0.23,0.35,0.48,0.48,0.48,0.48,0.35,0.23" style="fill:rgb(0,0,0);font-family:MinionPro-Regular;font-size:7.5px;stroke:none;">, e1004101 (2015).</text>
   <text y="165.467" x="155.63,155.72,159.32,162.92,164.63,166.355,167.63,171.14,174.845,178.31,181.138,187.22,189.973,191.683,193.214,197.497,199.207" svgx:width="0.23,0.48,0.48,0.23,0.23,0.55,0.47,0.5,0.46,0.37,0.82,0.37,0.23,0.23,0.59,0.23,0.23" style="fill:rgb(0,0,0);font-family:MinionPro-Regular;font-size:7.5px;stroke:none;"> 41. Skyrms, B. </text>
   <text y="165.467" x="200.743,208.438,211.438,212.983,216.41,218.638,222.193,225.343,226.888,232.16,236.06,239.885,242.188,243.733,247.288,251.226,255.036,256.581,258.816,262.596,265.596,267.141,271.079,274.401,277.851,279.621,283.514,285.749,287.766,291.216,295.206,296.751,300.194,302.226,303.771,307.326,310.821,313.686,315.704,319.296,321.164,322.709,326.136,328.371,331.184,335.15,338.045,340.28,344.18,346.783" svgx:width="1.03,0.4,0.23,0.47,0.31,0.49,0.42,0.23,0.74,0.53,0.53,0.31,0.23,0.49,0.53,0.51,0.23,0.31,0.51,0.4,0.23,0.56,0.45,0.47,0.25,0.53,0.31,0.27,0.47,0.53,0.23,0.47,0.27,0.23,0.47,0.47,0.38,0.27,0.49,0.25,0.23,0.47,0.31,0.37,0.53,0.38,0.31,0.53,0.37,0.4" style="fill:rgb(0,0,0);font-family:MinionPro-It;font-size:7.5px;stroke:none;">The Stag Hunt and the Evolution of Social Structure</text>
   <text y="165.467" x="349.783,351.493,353.023,355.618,360.673,363.898,369.965,373.685,376.513,378.523,382.483,385.932,389.12,390.65,395.847,399.95,401.907,405.38,406.91,411.065,413.75,416.937,419.652,422.405,424.115,425.645,429.245,432.845,436.445,440.045,442.64" svgx:width="0.23,0.23,0.35,0.67,0.44,0.82,0.51,0.37,0.27,0.53,0.47,0.43,0.23,0.74,0.55,0.27,0.46,0.23,0.56,0.37,0.43,0.37,0.37,0.23,0.23,0.48,0.48,0.48,0.48,0.35,0.23" style="fill:rgb(0,0,0);font-family:MinionPro-Regular;font-size:7.5px;stroke:none;">. (Cambridge Univ Press, 2004).</text>
   <text y="173.965" x="155.63,155.72,159.32,162.92,164.63,166.355,167.63,172.108,175.333,178.16,180.845,184.033,186.245,188.533,190.243,191.774,195.329,197.039" svgx:width="0.23,0.48,0.48,0.23,0.23,0.55,0.59,0.44,0.37,0.37,0.43,0.31,0.31,0.23,0.23,0.47,0.23,0.23" style="fill:rgb(0,0,0);font-family:MinionPro-Regular;font-size:7.5px;stroke:none;"> 42. Barrett, S. </text>
   <text y="173.965" x="198.575,202.648,206.45,209.9,211.85,214.453,217.903,221.765,227.615,230.615,234.44,236.743,238.288,241.843,245.781,249.591,251.136,253.589,255.816,259.326,261.554,264.509,267.374,269.976,273.554,277.806,279.569,281.114,283.349,287.129,290.129,291.674,294.126,296.361,298.964,302.474,304.701,307.634,310.941,314.256,315.801,319.244,321.276,322.821,325.821,329.624,333.074,335.024,337.626,341.076,344.938,350.789,353.789,357.614,359.84,363.434,365.301,366.846,369.081,371.684,374.639,378.149,380.451,383.766,386.271,392.121,395.714,398.916,400.866,404.758" svgx:width="0.56,0.53,0.45,0.27,0.37,0.47,0.53,0.79,0.4,0.53,0.31,0.23,0.49,0.53,0.51,0.23,0.34,0.31,0.49,0.31,0.4,0.38,0.37,0.49,0.57,0.23,0.23,0.31,0.51,0.4,0.23,0.34,0.31,0.37,0.49,0.31,0.4,0.42,0.44,0.23,0.47,0.27,0.23,0.4,0.53,0.45,0.27,0.37,0.47,0.53,0.79,0.4,0.53,0.31,0.49,0.25,0.23,0.31,0.37,0.4,0.49,0.31,0.44,0.33,0.79,0.49,0.44,0.27,0.53,0.42" style="fill:rgb(0,0,0);font-family:MinionPro-It;font-size:7.5px;stroke:none;">Environment and statecraft: the strategy of environmental treaty-making</text>
   <text y="173.965" x="407.908,409.618,411.148,413.743,419.293,422.833,424.986,428.721,431.406,435.366,436.896,442.416,445.596,447.306,448.836,452.436,456.036,459.636,463.236,465.831" svgx:width="0.23,0.23,0.35,0.75,0.47,0.3,0.51,0.37,0.53,0.23,0.74,0.56,0.23,0.23,0.48,0.48,0.48,0.48,0.35,0.23" style="fill:rgb(0,0,0);font-family:MinionPro-Regular;font-size:7.5px;stroke:none;">. (Oxford UP, 2005).</text>
   <text y="182.462" x="155.63,155.72,159.32,162.92,164.63,166.355,167.63,171.14,173.15,176.698,182.697,186.68,190.752,194.667,196.377,197.909,202.904,204.614" svgx:width="0.23,0.48,0.48,0.23,0.23,0.55,0.47,0.27,0.47,0.82,0.53,0.55,0.53,0.23,0.23,0.67,0.23,0.23" style="fill:rgb(0,0,0);font-family:MinionPro-Regular;font-size:7.5px;stroke:none;"> 43. Sigmund, K. </text>
   <text y="182.462" x="206.15,213.845,216.845,218.39,223.175,226.768,228.605,231.47,235.43,237.2,241.227,243.755,245.3,248.742,250.775,252.32,255.875,258.755,260.532,264.545,266.975,270.68,274.617,277.557,280.01" svgx:width="1.03,0.4,0.23,0.63,0.49,0.25,0.38,0.53,0.25,0.53,0.34,0.23,0.47,0.27,0.23,0.47,0.4,0.25,0.53,0.34,0.51,0.53,0.4,0.34,0.34" style="fill:rgb(0,0,0);font-family:MinionPro-It;font-size:7.5px;stroke:none;">The Calculus of Selfishness</text>
   <text y="182.462" x="282.537,284.247,285.777,288.372,292.527,295.355,297.365,301.437,304.61,307.797,310.04,313.775,317.877,319.407,324.605,328.707,330.665,334.137,335.667,339.822,342.507,345.695,348.41,351.162,352.872,354.402,358.002,361.602,365.202,368.802,371.397" svgx:width="0.23,0.23,0.35,0.56,0.37,0.27,0.55,0.42,0.43,0.31,0.51,0.55,0.23,0.74,0.55,0.27,0.46,0.23,0.56,0.37,0.43,0.37,0.37,0.23,0.23,0.48,0.48,0.48,0.48,0.35,0.23" style="fill:rgb(0,0,0);font-family:MinionPro-Regular;font-size:7.5px;stroke:none;">. (Princeton Univ Press, 2010).</text>
   <text y="190.96" x="155.638,155.728,159.328,162.928,164.638,166.363,167.638,171.643,174.425,177.575,181.595,183.47,186.282,189.47,193.572,195.282,196.812,201.995,203.705,205.415,206.945,212.33,216.035,221.172,224.502,228.245,229.955,231.485,238.167,239.877,241.407,246.59,248.3,249.83,255.162,256.692,260.75,264.042,267.169,271.145,274.369,277.541,281.149,282.859,284.389,286.541,288.251,289.781,296.464,298.174,299.704,303.154,305.396,309.288,312.416,316.398,319.668,322.383,324.708,326.718,329.891,331.421,335.328,338.793,342.873,346.098,352.241,354.251,357.423,360.176,361.706,365.441,367.661,369.191,371.201,375.131,378.603,381.873,384.626,386.636,390.371,394.473,396.003,399.228,403.301,407.261,408.791,412.803,416.343,419.493,421.818,423.828,427.563,431.666,433.376" svgx:width="0.23,0.48,0.48,0.23,0.23,0.55,0.62,0.37,0.44,0.53,0.25,0.37,0.43,0.55,0.23,0.23,0.69,0.23,0.23,0.23,0.74,0.51,0.69,0.44,0.5,0.23,0.23,0.89,0.23,0.23,0.69,0.23,0.23,0.71,0.23,0.56,0.44,0.42,0.53,0.43,0.42,0.51,0.23,0.23,0.33,0.23,0.23,0.89,0.23,0.23,0.47,0.31,0.51,0.42,0.53,0.44,0.37,0.31,0.27,0.42,0.23,0.53,0.46,0.55,0.44,0.82,0.27,0.42,0.37,0.23,0.51,0.3,0.23,0.27,0.55,0.46,0.44,0.37,0.27,0.51,0.55,0.23,0.44,0.55,0.53,0.23,0.54,0.47,0.44,0.31,0.27,0.51,0.55,0.23,0.23" style="fill:rgb(0,0,0);font-family:MinionPro-Regular;font-size:7.5px;stroke:none;"> 44. Traulsen, A., Nowak, M. A. &amp; Pacheco, J. M. Stochastic dynamics of invasion and fixation. </text>
   <text y="190.96" x="434.906,439.023,442.668,445.983,448.511,450.273,451.818,456.303,459.333,462.221,463.983,465.528" svgx:width="0.55,0.51,0.44,0.34,0.23,0.23,0.6,0.4,0.45,0.23,0.23,0.56" style="fill:rgb(0,0,0);font-family:MinionPro-It;font-size:7.5px;stroke:none;">Phys. Rev. E</text>
   <text y="190.96" x="469.721" svgx:width="0.23" style="fill:rgb(0,0,0);font-family:MinionPro-Regular;font-size:7.5px;stroke:none;"> </text>
   <text y="190.96" x="471.283,475.033" svgx:width="0.5,0.5" style="fill:rgb(0,0,0);font-family:MinionPro-Bold;font-size:7.5px;stroke:none;">74</text>
   <text y="190.96" x="478.783,480.493,482.023,485.623,489.223,492.823,496.423,500.023,503.623,505.153,507.748,511.348,514.948,518.548,522.148,524.743" svgx:width="0.23,0.23,0.48,0.48,0.48,0.48,0.48,0.48,0.23,0.35,0.48,0.48,0.48,0.48,0.35,0.23" style="fill:rgb(0,0,0);font-family:MinionPro-Regular;font-size:7.5px;stroke:none;">, 011909 (2006).</text>
   <text y="199.457" x="155.638,155.728,159.328,162.928,164.638,166.363,167.638,171.754,174.649,177.91,182.041,184.027,186.95,190.25,194.465,196.287,198.207,203.502,205.325,207.147,209.067,214.742,218.003,222.098,225.398,228.367,230.767,232.589,234.509,239.609,241.432,243.254,245.174,250.843,254.143,256.063,259.684,261.842,263.798,267.383,270.788,272.61,274.53,280.388,282.21,284.033,285.953,291.449,295.265,300.515,303.956,307.811,309.633,311.553,318.348,320.171,322.091,327.386,329.208,331.128,336.573,338.493,342.114,344.237,347.895,354.006,358.101,362.284,366.31,368.133,370.053,375.16,376.983,378.903,383.311,386.964,390.952,392.962,396.808,399.703,402.964,405.399,407.522,411.368,415.583,417.503,421.522,425.098,429.289,432.624,438.879,441.001,444.286,447.151,449.071,451.194,455.409,457.329,460.687,464.211,468.094,470.013,474.016,476.452,478.574,482.42,486.611,489.947,493.057,496.612,498.532,502.155,505.491,511.714,515.014,517.879,519.702" svgx:width="0.23,0.48,0.48,0.23,0.23,0.55,0.62,0.37,0.44,0.53,0.25,0.37,0.43,0.55,0.23,0.23,0.69,0.23,0.23,0.23,0.77,0.44,0.53,0.43,0.37,0.31,0.23,0.23,0.67,0.23,0.23,0.23,0.74,0.43,0.23,0.47,0.27,0.25,0.46,0.44,0.23,0.23,0.77,0.23,0.23,0.23,0.74,0.51,0.69,0.44,0.5,0.23,0.23,0.89,0.23,0.23,0.69,0.23,0.23,0.71,0.23,0.47,0.27,0.47,0.82,0.53,0.55,0.53,0.23,0.23,0.67,0.23,0.23,0.57,0.47,0.52,0.25,0.51,0.37,0.44,0.31,0.27,0.51,0.55,0.23,0.53,0.46,0.55,0.44,0.82,0.27,0.42,0.37,0.23,0.27,0.55,0.23,0.43,0.46,0.51,0.25,0.53,0.31,0.27,0.51,0.55,0.44,0.37,0.46,0.23,0.47,0.44,0.82,0.43,0.37,0.23,0.23" style="fill:rgb(0,0,0);font-family:MinionPro-Regular;font-size:7.5px;stroke:none;"> 45. Traulsen, A., Hauert, C., De Silva, H., Nowak, M. A. &amp; Sigmund, K. Exploration dynamics in evolutionary games. </text>
   <text y="199.457" x="521.622,525.791,530.974,535.901" svgx:width="0.55,0.7,0.66,0.47" style="fill:rgb(0,0,0);font-family:MinionPro-It;font-size:7.5px;stroke:none;">PNAS</text>
   <text y="199.457" x="539.443" svgx:width="0.23" style="fill:rgb(0,0,0);font-family:MinionPro-Regular;font-size:7.5px;stroke:none;"> </text>
   <text y="199.457" x="541.363,545.218,549.073" svgx:width="0.5,0.5,0.5" style="fill:rgb(0,0,0);font-family:MinionPro-Bold;font-size:7.5px;stroke:none;">106</text>
   <text y="199.457" x="552.928,554.638" svgx:width="0.23,0.23" style="fill:rgb(0,0,0);font-family:MinionPro-Regular;font-size:7.5px;stroke:none;">, </text>
   <text y="207.955" x="167.638,171.238,174.838,178.438,182.338,185.938,189.538,193.138,194.668,197.263,200.863,204.463,208.063,211.663,214.258" svgx:width="0.48,0.48,0.48,0.52,0.48,0.48,0.48,0.23,0.35,0.48,0.48,0.48,0.48,0.35,0.23" style="fill:rgb(0,0,0);font-family:MinionPro-Regular;font-size:7.5px;stroke:none;">709–712 (2009).</text>
   <text y="216.452" x="155.638,155.728,159.328,162.928,164.638,166.363,167.638,171.785,175.1,177.146,180.709,184.091,185.891,187.736,193.009,194.809,196.609,198.454,202.099,205.414,209.463,211.795,215.71,218.553,220.353,222.198,225.429,227.229,229.074,232.344,234.144,235.989,241.411,243.256,246.901,250.216,254.265,256.598,260.513,263.355,265.155,267.0,270.233,272.033,273.878,278.955,280.755,282.6,286.95,291.083,294.72,296.82,300.982,304.296,307.574,310.491,312.591,316.723,320.323,322.168,326.097,328.872,332.787,335.547,338.449,342.431,345.693,347.815,351.235,353.223,355.232,357.632,361.164,363.009,368.259,370.268,372.69,376.785,378.63,381.87,385.851,388.184,392.008,396.171,399.995,406.197,410.029,414.078,416.921,418.766,422.111,425.65,428.928,432.977,435.354,438.197,440.042,442.142,446.334" svgx:width="0.23,0.48,0.48,0.23,0.23,0.55,0.56,0.44,0.27,0.46,0.44,0.23,0.23,0.69,0.23,0.23,0.23,0.47,0.44,0.55,0.31,0.51,0.37,0.23,0.23,0.53,0.23,0.23,0.56,0.23,0.23,0.71,0.23,0.47,0.44,0.55,0.31,0.51,0.37,0.23,0.23,0.53,0.23,0.23,0.67,0.23,0.23,0.57,0.55,0.47,0.27,0.55,0.43,0.43,0.37,0.27,0.55,0.47,0.23,0.52,0.37,0.51,0.36,0.37,0.51,0.42,0.27,0.44,0.25,0.27,0.31,0.46,0.23,0.69,0.27,0.31,0.53,0.23,0.44,0.53,0.31,0.51,0.55,0.51,0.82,0.51,0.53,0.37,0.23,0.44,0.47,0.43,0.55,0.31,0.37,0.23,0.27,0.55,0.23" style="fill:rgb(0,0,0);font-family:MinionPro-Regular;font-size:7.5px;stroke:none;"> 46. Paiva, A., Santos, F. P. &amp; Santos, F. C. Engineering pro-sociality with autonomous agents in </text>
   <text y="216.452" x="448.179,455.889,457.93,460.908,463.3,466.705,469.3,472.945,475.99,478.893,482.433,486.462,490.362,492.222,497.292,502.362,507.432,510.034,511.894,516.769,520.31,524.315,526.362,529.452,532.145,535.235,539.262,542.166,545.256,547.116,550.656,554.646" svgx:width="1.03,0.27,0.37,0.31,0.44,0.33,0.47,0.4,0.38,0.47,0.53,0.51,0.23,0.66,0.66,0.66,0.34,0.23,0.63,0.47,0.53,0.27,0.4,0.37,0.4,0.53,0.38,0.4,0.23,0.47,0.53,0.23" style="fill:rgb(0,0,0);font-family:MinionPro-It;font-size:7.5px;stroke:none;">Thirty-Second AAAI Conference on </text>
   <text y="224.95" x="167.638,172.393,175.28,177.515,179.473,183.425,186.29,188.308,191.9,193.768,195.313,197.533,201.358,203.585,206.465,208.295,210.065,212.039,215.189,218.189,222.126,224.939" svgx:width="0.66,0.37,0.31,0.27,0.53,0.38,0.27,0.49,0.25,0.23,0.34,0.53,0.31,0.4,0.25,0.25,0.27,0.42,0.4,0.53,0.38,0.4" style="fill:rgb(0,0,0);font-family:MinionPro-It;font-size:7.5px;stroke:none;">Artificial Intelligence</text>
   <text y="224.95" x="227.939,229.649,231.179,235.026,238.739,240.449,241.979,245.579,249.179,252.779,256.379,260.279,263.879,267.479,271.079,274.679,276.209,278.804,282.404,286.004,289.604,293.204,295.799" svgx:width="0.23,0.23,0.52,0.52,0.23,0.23,0.48,0.48,0.48,0.48,0.52,0.48,0.48,0.48,0.48,0.23,0.35,0.48,0.48,0.48,0.48,0.35,0.23" style="fill:rgb(0,0,0);font-family:MinionPro-Regular;font-size:7.5px;stroke:none;">, pp. 7994–7999 (2018).</text>
   <text y="233.447" x="155.638,155.728,159.328,162.928,164.638,166.363,167.638,171.218,175.29,177.368,180.218,183.578,187.605,191.282,193.059,194.837,200.649,202.427,204.204,209.604,211.382,216.476,220.549,223.445,225.503,228.287,230.689,234.088,237.93,239.987,242.807,244.585,246.362,252.002,253.78,255.557,260.807,262.585,264.362,268.534,272.496,275.76,279.16,281.164,283.079,286.589,288.366,292.508,296.312,298.37,301.19,304.7,306.477,309.697,313.659,315.971,319.775,323.918,327.722,333.904,337.715,341.745,344.565,346.343,349.667,353.186,356.441,360.47,362.825,365.645,367.423,369.5,375.57,379.479,382.234,386.009,389.49,392.745,394.523,398.154,400.119,403.976,407.893,411.293,413.258,415.035,418.967,423.017,429.206,432.5,436.67,438.448,441.688,445.649,449.454,452.208,456.236,458.313,462.463,465.683,468.077,470.154,473.959,478.129,479.906,481.984,486.154,487.931,492.073,495.328,497.708,502.854,506.659,509.481,513.291,515.069,518.324,521.931,525.999,529.254,532.151,534.228,540.411,543.666,547.695,550.05,552.87,554.58" svgx:width="0.23,0.48,0.48,0.23,0.23,0.55,0.47,0.53,0.27,0.37,0.44,0.53,0.51,0.23,0.23,0.77,0.23,0.23,0.71,0.23,0.67,0.53,0.37,0.27,0.37,0.31,0.44,0.5,0.27,0.37,0.23,0.23,0.74,0.23,0.23,0.69,0.23,0.23,0.54,0.51,0.42,0.44,0.25,0.25,0.46,0.23,0.55,0.51,0.27,0.37,0.46,0.23,0.44,0.53,0.31,0.51,0.55,0.51,0.82,0.51,0.53,0.37,0.23,0.44,0.47,0.43,0.55,0.31,0.37,0.23,0.27,0.82,0.52,0.37,0.51,0.46,0.43,0.23,0.47,0.25,0.51,0.51,0.44,0.25,0.23,0.53,0.53,0.82,0.44,0.55,0.23,0.42,0.51,0.51,0.37,0.53,0.27,0.55,0.44,0.31,0.27,0.51,0.55,0.23,0.27,0.55,0.23,0.55,0.43,0.31,0.69,0.51,0.37,0.5,0.23,0.43,0.47,0.52,0.43,0.37,0.27,0.82,0.43,0.55,0.31,0.37,0.23,0.23" style="fill:rgb(0,0,0);font-family:MinionPro-Regular;font-size:7.5px;stroke:none;"> 47. Shirado, H. &amp; Christakis, N. A. Locally noisy autonomous agents improve global human coordination in network experiments. </text>
   <text y="241.945" x="167.638,172.708,176.218,178.453,182.353,184.955" svgx:width="0.7,0.49,0.31,0.53,0.37,0.4" style="fill:rgb(0,0,0);font-family:MinionPro-It;font-size:7.5px;stroke:none;">Nature</text>
   <text y="241.945" x="187.955" svgx:width="0.23" style="fill:rgb(0,0,0);font-family:MinionPro-Regular;font-size:7.5px;stroke:none;"> </text>
   <text y="241.945" x="189.485,193.235,196.985" svgx:width="0.5,0.5,0.5" style="fill:rgb(0,0,0);font-family:MinionPro-Bold;font-size:7.5px;stroke:none;">545</text>
   <text y="241.945" x="200.735,202.445,203.975,207.575,211.175,214.775,216.305,218.9,222.501,226.101,229.701,233.301,235.896" svgx:width="0.23,0.23,0.48,0.48,0.48,0.23,0.35,0.48,0.48,0.48,0.48,0.35,0.23" style="fill:rgb(0,0,0);font-family:MinionPro-Regular;font-size:7.5px;stroke:none;">, 370 (2017).</text>
   <text y="250.442" x="155.638,155.728,159.328,162.928,164.638,166.363,167.638,171.193,174.419,178.381,180.625,184.45,187.202,188.912,190.532,193.676,195.386,197.006,200.188,201.898,203.608,205.228,209.287,212.579,215.708,219.685,222.911,226.084,229.693,231.403,233.023,235.177,236.887,238.507,245.189,246.899,248.609,250.229,254.288,257.515,259.474,262.946,266.239,267.949,269.569,274.751,276.461,278.081,283.414,285.034,288.589,291.815,295.777,298.021,301.846,304.598,306.308,307.928,311.072,312.782,314.402,319.39,321.1,322.72,326.831,330.245,334.019,335.828,339.722,342.049,344.059,347.796,351.898,353.518,357.255,359.475,361.095,364.267,368.041,369.978,371.875,375.102,378.328,380.654,382.613,386.027,389.215,390.835,393.055,396.281,398.292,401.121,405.195,408.382,411.099,413.851,415.471,417.481,421.584,423.204,427.038,430.572,434.294,437.122,439.132,443.092,444.712,448.711,452.455,456.304,460.326,462.247,465.399,467.725,469.735,473.472,477.516,480.268,481.888,485.625,487.845,489.465,493.329,497.311,503.433,506.659,510.703,513.456,515.076,518.303,522.377,526.337,527.957,531.213,534.665,537.852,541.814,544.101,546.854,548.474,550.484,554.586" svgx:width="0.23,0.48,0.48,0.23,0.23,0.55,0.47,0.44,0.55,0.31,0.51,0.37,0.23,0.23,0.53,0.23,0.23,0.56,0.23,0.23,0.23,0.56,0.44,0.42,0.53,0.43,0.42,0.51,0.23,0.23,0.33,0.23,0.23,0.89,0.23,0.23,0.23,0.56,0.44,0.27,0.46,0.44,0.23,0.23,0.69,0.23,0.23,0.71,0.23,0.47,0.44,0.55,0.31,0.51,0.37,0.23,0.23,0.53,0.23,0.23,0.67,0.23,0.23,0.57,0.46,0.51,0.25,0.53,0.31,0.27,0.51,0.55,0.23,0.51,0.3,0.23,0.42,0.51,0.25,0.25,0.43,0.42,0.31,0.27,0.46,0.43,0.23,0.3,0.44,0.27,0.37,0.55,0.43,0.37,0.37,0.23,0.27,0.55,0.23,0.53,0.46,0.51,0.37,0.27,0.53,0.23,0.52,0.51,0.52,0.53,0.25,0.44,0.31,0.27,0.51,0.55,0.37,0.23,0.51,0.3,0.23,0.53,0.53,0.82,0.44,0.55,0.37,0.23,0.44,0.55,0.53,0.23,0.44,0.47,0.43,0.55,0.31,0.37,0.23,0.27,0.55,0.23" style="fill:rgb(0,0,0);font-family:MinionPro-Regular;font-size:7.5px;stroke:none;"> 48. Santos, F. P., Pacheco, J. M., Paiva, A. &amp; Santos, F. C. Evolution of collective fairness in hybrid populations of humans and agents in </text>
   <text y="258.94" x="167.638,171.77,174.373,177.868,180.68,183.635,186.59,190.303,192.253,196.145,199.318,201.845,203.39,206.834,208.866,210.411,212.646,216.426,219.426,220.971,228.591,230.541,233.429,235.731,239.046,241.551,249.171,251.121,253.724,257.534,259.079,264.059,269.039,274.019,276.531,278.076,282.861,286.311,290.226,292.184,295.184,297.785,300.785,304.724,307.536,310.536,312.081,315.531,319.521,321.066,325.821,328.709,330.944,332.901,336.854,339.719,341.736,345.329,347.196,348.741,350.961,354.786,357.014,359.894,361.724,363.494,365.466,368.616,371.616,375.554,378.366" svgx:width="0.55,0.37,0.47,0.38,0.4,0.4,0.51,0.27,0.53,0.42,0.34,0.23,0.47,0.27,0.23,0.31,0.51,0.4,0.23,1.03,0.27,0.37,0.31,0.44,0.33,1.03,0.27,0.37,0.51,0.23,0.66,0.66,0.66,0.34,0.23,0.63,0.47,0.53,0.27,0.4,0.37,0.4,0.53,0.38,0.4,0.23,0.47,0.53,0.23,0.66,0.37,0.31,0.27,0.53,0.38,0.27,0.49,0.25,0.23,0.34,0.53,0.31,0.4,0.25,0.25,0.27,0.42,0.4,0.53,0.38,0.4" style="fill:rgb(0,0,0);font-family:MinionPro-It;font-size:7.5px;stroke:none;">Proceedings of the Thirty-Third AAAI Conference on Artificial Intelligence</text>
   <text y="258.94" x="381.366,383.076,384.606,389.151,392.924,394.776,396.486,398.016,401.616,405.216,406.926,408.456,412.303,416.016,417.726,419.256,422.856,426.456,430.056,433.656,437.556,441.156,444.756,448.356,451.956,453.486,456.081,459.681,463.281,466.881,470.481,473.076" svgx:width="0.23,0.23,0.7,0.51,0.25,0.23,0.23,0.48,0.48,0.23,0.23,0.52,0.52,0.23,0.23,0.48,0.48,0.48,0.48,0.52,0.48,0.48,0.48,0.48,0.23,0.35,0.48,0.48,0.48,0.48,0.35,0.23" style="fill:rgb(0,0,0);font-family:MinionPro-Regular;font-size:7.5px;stroke:none;">, Vol. 33, pp. 6146–6153 (2019).</text>
   <text y="267.437" x="155.638,155.728,159.328,162.928,164.638,166.363,167.638,172.475,175.805,179.638,184.775,188.0,192.103,193.813,195.345,197.903,199.613" svgx:width="0.23,0.48,0.48,0.23,0.23,0.55,0.63,0.44,0.53,0.69,0.44,0.55,0.23,0.23,0.34,0.23,0.23" style="fill:rgb(0,0,0);font-family:MinionPro-Regular;font-size:7.5px;stroke:none;"> 49. Rahwan, I. </text>
   <text y="267.437" x="201.148,204.095,206.398,207.943,211.535" svgx:width="0.4,0.31,0.23,0.49,0.25" style="fill:rgb(0,0,0);font-family:MinionPro-It;font-size:7.5px;stroke:none;">et al</text>
   <text y="267.437" x="213.403,215.113,216.643,223.198,226.49,229.618,233.623,235.633,239.705,242.892,244.422,248.3,251.457,255.44,258.597,262.092,264.102,267.845,271.827,274.137,275.847" svgx:width="0.23,0.23,0.89,0.44,0.42,0.53,0.27,0.55,0.43,0.23,0.51,0.43,0.53,0.44,0.46,0.27,0.51,0.53,0.37,0.23,0.23" style="fill:rgb(0,0,0);font-family:MinionPro-Regular;font-size:7.5px;stroke:none;">. Machine behaviour. </text>
   <text y="267.437" x="277.377,282.447,285.958,288.193,292.093,294.695" svgx:width="0.7,0.49,0.31,0.53,0.37,0.4" style="fill:rgb(0,0,0);font-family:MinionPro-It;font-size:7.5px;stroke:none;">Nature</text>
   <text y="267.437" x="297.703" svgx:width="0.23" style="fill:rgb(0,0,0);font-family:MinionPro-Regular;font-size:7.5px;stroke:none;"> </text>
   <text y="267.437" x="299.233,302.983,306.733" svgx:width="0.5,0.5,0.5" style="fill:rgb(0,0,0);font-family:MinionPro-Bold;font-size:7.5px;stroke:none;">568</text>
   <text y="267.437" x="310.483,312.193,313.723,317.323,320.923,324.523,326.053,328.648,332.248,335.848,339.448,343.048,345.643" svgx:width="0.23,0.23,0.48,0.48,0.48,0.23,0.35,0.48,0.48,0.48,0.48,0.35,0.23" style="fill:rgb(0,0,0);font-family:MinionPro-Regular;font-size:7.5px;stroke:none;">, 477 (2019).</text>
   <text y="275.935" x="155.638,155.728,159.328,162.928,164.638,166.363,167.638,171.624,175.333,180.413,183.605,186.346,189.101,190.815,192.435,195.994,197.708,199.328,203.216,204.929,206.643,208.263,211.739,214.968,219.074,220.694,224.358,227.489,231.475,234.704,236.755,240.5,242.214,243.834,248.825,250.539,252.159,255.343,257.056,258.676,264.011,265.631,269.738,272.899,276.907,283.031,286.259,290.366,294.472,296.185,297.805,301.844,303.557,305.177,310.739,314.447,319.588,321.208,323.221,327.267,329.986,332.315,334.238,336.454,340.35,342.679,344.692,348.431,352.477,355.232,356.852,359.578,363.564,366.718,370.718,373.947,377.911,379.531,381.867,385.846,389.036,390.656,392.58,395.854,398.573,400.863,402.483,408.607,411.761,413.721,417.46,420.246,421.866,425.117,428.534,432.309,434.12,438.017,440.345,442.358,446.097,450.181,453.41,456.413,459.859,461.479,463.808,466.593,469.822,473.868,476.624,478.548,480.876,482.89,486.629,490.735,492.355,494.601,498.429,500.049,501.973,505.202,507.927,511.381,514.572,517.245,520.061,523.26,526.593,528.494,531.686,533.306,537.172,541.157,547.281,550.51,554.612" svgx:width="0.23,0.48,0.48,0.23,0.23,0.55,0.56,0.51,0.69,0.43,0.37,0.37,0.23,0.23,0.47,0.23,0.23,0.62,0.23,0.23,0.23,0.46,0.44,0.55,0.23,0.47,0.42,0.53,0.44,0.27,0.5,0.23,0.23,0.67,0.23,0.23,0.56,0.23,0.23,0.71,0.23,0.54,0.43,0.53,0.82,0.44,0.55,0.55,0.23,0.23,0.54,0.23,0.23,0.77,0.51,0.69,0.23,0.27,0.55,0.37,0.31,0.27,0.31,0.53,0.31,0.27,0.51,0.55,0.37,0.23,0.37,0.53,0.44,0.52,0.43,0.53,0.23,0.31,0.53,0.43,0.23,0.25,0.44,0.37,0.31,0.23,0.82,0.44,0.26,0.51,0.37,0.23,0.43,0.46,0.51,0.25,0.53,0.31,0.27,0.51,0.55,0.44,0.37,0.46,0.23,0.31,0.37,0.44,0.55,0.37,0.27,0.31,0.27,0.51,0.55,0.23,0.31,0.51,0.23,0.25,0.44,0.37,0.47,0.43,0.36,0.37,0.42,0.44,0.25,0.43,0.23,0.53,0.53,0.82,0.44,0.55,0.23" style="fill:rgb(0,0,0);font-family:MinionPro-Regular;font-size:7.5px;stroke:none;"> 50. Powers, S. T., van Schaik, C. P. &amp; Lehmann, L. How institutions shaped the last major evolutionary transition to large-scale human </text>
   <text y="284.432" x="167.638,170.45,174.343,177.515,179.525,182.713,185.038,187.048,190.235,192.988,194.698" svgx:width="0.37,0.51,0.42,0.27,0.43,0.31,0.27,0.43,0.37,0.23,0.23" style="fill:rgb(0,0,0);font-family:MinionPro-Regular;font-size:7.5px;stroke:none;">societies. </text>
   <text y="284.432" x="196.228,200.345,204.05,206.06,207.898,211.378,213.927,217.385,220.955,224.66,226.677,229.49,233.082,234.95,236.495,240.455,243.057,246.612,250.602,253.152,256.775,259.67,261.905,263.922,267.372,271.362,273.89,275.435,278.877,280.91,282.455,284.69,288.47,291.47,293.015,297.5,300.927,304.212,307.805,309.672,311.217,314.771,318.266,321.131,323.149,326.096,328.399,331.714,333.259,337.601,339.364,340.909,345.131,347.149,350.599,352.436,355.961,359.156,361.174,363.986,367.579,369.446,370.991,374.546,377.411,379.428,382.428,386.366,389.179,392.118" svgx:width="0.55,0.51,0.27,0.25,0.47,0.34,0.47,0.49,0.51,0.27,0.38,0.49,0.25,0.23,0.6,0.37,0.49,0.53,0.34,0.49,0.38,0.31,0.27,0.47,0.53,0.34,0.23,0.47,0.27,0.23,0.31,0.51,0.4,0.23,0.6,0.47,0.44,0.49,0.25,0.23,0.47,0.47,0.38,0.27,0.4,0.31,0.44,0.23,0.58,0.23,0.23,0.58,0.27,0.47,0.25,0.47,0.42,0.27,0.38,0.49,0.25,0.23,0.47,0.38,0.27,0.4,0.53,0.38,0.4,0.34" style="fill:rgb(0,0,0);font-family:MinionPro-It;font-size:7.5px;stroke:none;">Philosophical Transactions of the Royal Society B: Biological Sciences</text>
   <text y="284.432" x="394.646" svgx:width="0.23" style="fill:rgb(0,0,0);font-family:MinionPro-Regular;font-size:7.5px;stroke:none;"> </text>
   <text y="284.432" x="396.185,399.935,403.685" svgx:width="0.5,0.5,0.5" style="fill:rgb(0,0,0);font-family:MinionPro-Bold;font-size:7.5px;stroke:none;">371</text>
   <text y="284.432" x="407.435,409.145,410.675,414.275,417.875,421.475,425.075,428.675,432.275,435.875,439.475,441.005,443.6,447.201,450.801,454.401,458.001,460.596" svgx:width="0.23,0.23,0.48,0.48,0.48,0.48,0.48,0.48,0.48,0.48,0.23,0.35,0.48,0.48,0.48,0.48,0.35,0.23" style="fill:rgb(0,0,0);font-family:MinionPro-Regular;font-size:7.5px;stroke:none;">, 20150098 (2016).</text>
   <text y="292.93" x="155.638,155.728,159.328,162.928,164.638,166.363,167.638,171.148,173.158,176.705,182.705,186.687,190.76,194.675,196.385,197.885,202.88,204.59,206.3,207.8,213.357,216.545,218.045,221.555,223.602,225.447,228.92,232.212,233.922,235.422,241.167,242.877,244.587,246.087,250.092,252.875,256.025,260.045,261.92,264.732,267.919,272.022,273.732,275.232,280.414,282.124,283.624,288.956,290.456,296.021,299.172,303.154,306.342,309.198,311.486,313.196,314.696,319.683,321.393,322.893,326.553,330.446,333.618,335.651,338.98,340.878,342.378,344.275,347.508,350.733,353.56,357.663,359.673,363.715,367.225,368.725,372.564,375.249,378.984,385.097,388.839,391.082,394.269,397.022,398.522,400.532,404.574,407.289,409.614,411.534,413.747,417.639,419.964,421.974,425.709,429.751,432.504,434.004,436.156,439.891,442.674,444.174,447.624,451.329,454.741,457.929,460.755,464.858,466.868,470.91,474.421,475.921,478.253,482.228,485.416,486.916,490.088,493.823,499.966,506.078,509.812,513.855,516.607,518.317" svgx:width="0.23,0.48,0.48,0.23,0.23,0.55,0.47,0.27,0.47,0.82,0.53,0.55,0.53,0.23,0.23,0.67,0.23,0.23,0.23,0.74,0.43,0.23,0.47,0.27,0.25,0.46,0.44,0.23,0.23,0.77,0.23,0.23,0.23,0.62,0.37,0.44,0.53,0.25,0.37,0.43,0.55,0.23,0.23,0.69,0.23,0.23,0.71,0.23,0.77,0.44,0.53,0.43,0.37,0.31,0.23,0.23,0.67,0.23,0.23,0.47,0.51,0.42,0.27,0.44,0.25,0.23,0.25,0.43,0.44,0.37,0.55,0.27,0.55,0.47,0.23,0.52,0.37,0.51,0.82,0.51,0.31,0.43,0.37,0.23,0.27,0.55,0.37,0.31,0.27,0.31,0.53,0.31,0.27,0.51,0.55,0.37,0.23,0.3,0.51,0.37,0.23,0.47,0.51,0.46,0.43,0.37,0.55,0.27,0.55,0.47,0.23,0.31,0.53,0.43,0.23,0.42,0.51,0.82,0.82,0.51,0.55,0.37,0.23,0.23" style="fill:rgb(0,0,0);font-family:MinionPro-Regular;font-size:7.5px;stroke:none;"> 51. Sigmund, K., De Silva, H., Traulsen, A. &amp; Hauert, C. Social learning promotes institutions for governing the commons. </text>
   <text y="292.93" x="519.817,524.887,528.397,530.632,534.533,537.136" svgx:width="0.7,0.49,0.31,0.53,0.37,0.4" style="fill:rgb(0,0,0);font-family:MinionPro-It;font-size:7.5px;stroke:none;">Nature</text>
   <text y="292.93" x="540.178" svgx:width="0.23" style="fill:rgb(0,0,0);font-family:MinionPro-Regular;font-size:7.5px;stroke:none;"> </text>
   <text y="292.93" x="541.678,545.428,549.178" svgx:width="0.5,0.5,0.5" style="fill:rgb(0,0,0);font-family:MinionPro-Bold;font-size:7.5px;stroke:none;">466</text>
   <text y="292.93" x="552.928,554.638" svgx:width="0.23,0.23" style="fill:rgb(0,0,0);font-family:MinionPro-Regular;font-size:7.5px;stroke:none;">, </text>
   <text y="301.427" x="167.638,171.238,174.838,178.438,179.968,182.563,186.163,189.763,193.363,196.963,199.558" svgx:width="0.48,0.48,0.48,0.23,0.35,0.48,0.48,0.48,0.48,0.35,0.23" style="fill:rgb(0,0,0);font-family:MinionPro-Regular;font-size:7.5px;stroke:none;">861 (2010).</text>
   <text y="309.925" x="155.638,155.728,159.328,162.928,164.638,166.363,167.638,171.193,174.418,178.378,180.62,184.445,187.198,188.908,190.438,193.581,195.291,196.821,201.809,203.519,205.229,206.759,210.816,214.109,217.236,221.211,224.436,227.609,231.216,232.926,234.456,236.609,238.32,239.85,246.532,248.242,249.772,255.105,256.635,260.145,263.849,267.314,270.142,276.224,278.976,280.686,282.216,286.499,288.209,289.739,294.839,298.664,301.334,304.581,307.994,311.766,313.574,317.466,319.79,321.801,325.536,329.638,331.168,334.903,337.123,338.653,342.493,345.178,348.366,351.036,354.913,356.832,359.99,363.432,364.962,367.715,369.725,373.272,377.352,380.682,382.58,384.59,388.633,392.143,393.673,396.898,400.971,404.931,406.461,409.633,413.526,417.268,421.266,424.453,427.236,430.386,432.711,434.721,438.456,442.558,444.268" svgx:width="0.23,0.48,0.48,0.23,0.23,0.55,0.47,0.44,0.55,0.31,0.51,0.37,0.23,0.23,0.53,0.23,0.23,0.67,0.23,0.23,0.23,0.56,0.44,0.42,0.53,0.43,0.42,0.51,0.23,0.23,0.33,0.23,0.23,0.89,0.23,0.23,0.71,0.23,0.47,0.5,0.46,0.37,0.82,0.37,0.23,0.23,0.59,0.23,0.23,0.67,0.51,0.36,0.43,0.46,0.51,0.25,0.53,0.31,0.27,0.51,0.55,0.23,0.51,0.3,0.23,0.52,0.37,0.43,0.36,0.52,0.25,0.44,0.46,0.23,0.37,0.27,0.47,0.55,0.44,0.25,0.27,0.55,0.47,0.23,0.44,0.55,0.53,0.23,0.42,0.51,0.51,0.52,0.43,0.37,0.44,0.31,0.27,0.51,0.55,0.23,0.23" style="fill:rgb(0,0,0);font-family:MinionPro-Regular;font-size:7.5px;stroke:none;"> 52. Santos, F. C., Pacheco, J. M. &amp; Skyrms, B. Co-evolution of pre-play signaling and cooperation. </text>
   <text y="309.925" x="445.798,448.206,449.751,457.446,460.4,463.85,466.595,468.14,472.362,474.38,477.83" svgx:width="0.32,0.23,1.03,0.4,0.47,0.37,0.23,0.58,0.27,0.47,0.25" style="fill:rgb(0,0,0);font-family:MinionPro-It;font-size:7.5px;stroke:none;">J Theor Biol</text>
   <text y="309.925" x="479.728" svgx:width="0.23" style="fill:rgb(0,0,0);font-family:MinionPro-Regular;font-size:7.5px;stroke:none;"> </text>
   <text y="309.925" x="481.258,485.008,488.758" svgx:width="0.5,0.5,0.5" style="fill:rgb(0,0,0);font-family:MinionPro-Bold;font-size:7.5px;stroke:none;">274</text>
   <text y="309.925" x="492.508,494.218,495.748,499.348,502.948,506.848,510.448,514.048,515.578,518.173,521.773,525.373,528.973,532.573,535.168" svgx:width="0.23,0.23,0.48,0.48,0.52,0.48,0.48,0.23,0.35,0.48,0.48,0.48,0.48,0.35,0.23" style="fill:rgb(0,0,0);font-family:MinionPro-Regular;font-size:7.5px;stroke:none;">, 30–35 (2011).</text>
   <text y="318.422" x="155.638,155.728,159.328,162.928,164.638,166.363,167.638,172.288,176.308,178.243,181.985,185.21,188.037,192.14,194.105,195.815,197.345,201.537,203.247,204.777,210.14,211.85,213.38,219.866,223.759,227.719,230.876,232.774,234.784,238.826,242.336,243.866,247.091,251.164,255.124,256.654,259.879,263.959,267.289,269.134,272.577,275.329,277.317,280.069,281.599,285.334,287.554,289.084,291.799,294.042,297.934,301.062,305.044,308.314,311.029,313.353,315.363,318.536,320.066,322.818,326.261,328.976,331.218,334.406,340.488,343.241,344.951,346.481,349.076,354.101,358.083,361.233,365.073,371.193,374.418,378.521,380.051,383.276,387.348,391.308,392.838,398.403,401.733,403.668,405.566,408.048,413.036,417.678,422.666,424.376,425.906,429.506,433.106,436.706,440.306,442.901" svgx:width="0.23,0.48,0.48,0.23,0.23,0.55,0.67,0.53,0.25,0.5,0.44,0.37,0.55,0.27,0.23,0.23,0.7,0.23,0.23,0.71,0.23,0.23,0.89,0.51,0.53,0.43,0.25,0.27,0.55,0.47,0.23,0.44,0.55,0.53,0.23,0.44,0.55,0.44,0.25,0.46,0.37,0.27,0.37,0.23,0.51,0.3,0.23,0.37,0.31,0.51,0.42,0.53,0.44,0.37,0.31,0.27,0.42,0.23,0.37,0.46,0.37,0.31,0.43,0.82,0.37,0.23,0.23,0.35,0.67,0.53,0.44,0.52,0.82,0.44,0.55,0.23,0.44,0.55,0.53,0.23,0.77,0.44,0.25,0.25,0.33,0.67,0.63,0.67,0.23,0.23,0.48,0.48,0.48,0.48,0.35,0.23" style="fill:rgb(0,0,0);font-family:MinionPro-Regular;font-size:7.5px;stroke:none;"> 53. Kulkarni, V. G. Modeling and analysis of stochastic systems. (Chapman and Hall/CRC, 2016).</text>
   <text y="326.92" x="155.638,155.728,159.328,162.928,164.638,166.363,167.638,173.279,175.304,179.393,183.368,186.571,189.324,192.092,194.117,198.234,199.959,201.594,205.644,207.369,209.094,210.729,217.36,221.314,223.039,224.674,228.973,230.698,232.423,234.058,238.079,240.877,244.043,248.079,249.971,252.799,256.001,260.119,261.844,263.479,268.676,270.401,272.036,277.384,279.019,284.397,287.638,290.339,293.527,295.576,298.883,300.608,302.243,304.412,306.137,307.772,312.889,316.641,322.656,326.52,330.429,332.777,335.944,338.285,340.31,344.062,348.179,349.814,353.056,357.145,361.12,362.755,365.522,367.547,373.563,377.6,379.536,382.702,385.043,387.068,390.82,394.937,396.572,400.324,402.559,404.194,407.457,410.886,414.675,416.499,420.408,422.749,424.774,428.525,432.621,435.863,438.879,442.337,443.972,447.497,450.738,456.867,460.07,461.705,465.629,469.11,473.207,476.448,482.606,484.631,487.818,490.586,492.221,494.246,498.363,499.998,504.026,508.143,510.08,512.339,515.541,517.176,521.189,524.948,528.812,532.849,534.785,537.951,540.292,542.317,546.068,550.127,552.895,554.605" svgx:width="0.23,0.48,0.48,0.23,0.23,0.55,0.77,0.27,0.55,0.53,0.43,0.37,0.37,0.27,0.55,0.23,0.23,0.54,0.23,0.23,0.23,0.97,0.53,0.23,0.23,0.59,0.23,0.23,0.23,0.62,0.37,0.44,0.53,0.25,0.37,0.43,0.55,0.23,0.23,0.69,0.23,0.23,0.71,0.23,0.71,0.44,0.37,0.42,0.27,0.44,0.23,0.23,0.33,0.23,0.23,0.67,0.51,0.82,0.52,0.53,0.31,0.44,0.31,0.27,0.51,0.55,0.23,0.44,0.55,0.53,0.23,0.37,0.27,0.82,0.53,0.25,0.44,0.31,0.27,0.51,0.55,0.23,0.51,0.3,0.23,0.43,0.46,0.51,0.25,0.53,0.31,0.27,0.51,0.55,0.44,0.37,0.46,0.23,0.47,0.44,0.82,0.43,0.23,0.53,0.46,0.55,0.44,0.82,0.27,0.42,0.37,0.23,0.27,0.55,0.23,0.54,0.55,0.27,0.31,0.43,0.23,0.52,0.51,0.52,0.53,0.25,0.44,0.31,0.27,0.51,0.55,0.37,0.23,0.23" style="fill:rgb(0,0,0);font-family:MinionPro-Regular;font-size:7.5px;stroke:none;"> 54. Hindersin, L., Wu, B., Traulsen, A. &amp; García, J. Computation and simulation of evolutionary game dynamics in finite populations. </text>
   <text y="335.417" x="167.638,171.193,174.058,176.105,177.868,179.413,183.898,186.868,190.22" svgx:width="0.47,0.38,0.27,0.23,0.23,0.6,0.4,0.49,0.23" style="fill:rgb(0,0,0);font-family:MinionPro-It;font-size:7.5px;stroke:none;">Sci. Rep.</text>
   <text y="335.417" x="191.983" svgx:width="0.23" style="fill:rgb(0,0,0);font-family:MinionPro-Regular;font-size:7.5px;stroke:none;"> </text>
   <text y="335.417" x="193.513" svgx:width="0.5" style="fill:rgb(0,0,0);font-family:MinionPro-Bold;font-size:7.5px;stroke:none;">9</text>
   <text y="335.417" x="197.263,198.973,200.503,204.103,207.703,211.303,214.903,216.433,219.028,222.628,226.228,229.828,233.428,236.023" svgx:width="0.23,0.23,0.48,0.48,0.48,0.48,0.23,0.35,0.48,0.48,0.48,0.48,0.35,0.23" style="fill:rgb(0,0,0);font-family:MinionPro-Regular;font-size:7.5px;stroke:none;">, 6946 (2019).</text>
   <text y="353.5" x="155.638,162.865,167.716,173.392,179.497,185.591,193.83,196.602,202.245,208.383,214.433,220.076,229.448,235.091,241.196,245.365" svgx:width="0.66,0.44,0.52,0.56,0.55,0.75,0.25,0.51,0.56,0.55,0.51,0.85,0.51,0.56,0.38,0.42" style="fill:rgb(0,0,0);font-family:Corbel-Bold;font-size:11.0px;stroke:none;">Acknowledgements</text>
   <text y="363.5" x="155.638,161.389,166.393,168.977,172.478,175.016,178.438,182.461,186.035,190.113,194.182,197.603,201.556,206.56,209.098,215.461,219.584,223.085,225.623,229.08,233.95,238.767,243.762,248.443,252.072,254.962,259.031,263.981,266.519,271.147,275.476,278.014,282.794,287.771,292.857,297.834,301.983,305.998,310.147,314.935,317.473,322.434,326.503,330.04,334.189,336.727,340.876,343.414,349.597,352.207,356.23,361.316,365.321,367.959,372.108,374.646,378.669,381.207,386.077,390.146,394.151,399.236,403.962,406.437,411.225,415.681,418.319,422.468,425.006,428.318,433.277,439.46,445.211,448.523,451.061,454.059,459.063,462.484,467.175,472.152,476.626,481.63,484.168,488.624,492.161,496.229,501.18,504.123,507.624,510.162,515.427,521.178,528.155,534.338,537.515,542.825,548.135,551.402" svgx:width="0.62,0.53,0.27,0.37,0.23,0.37,0.43,0.37,0.43,0.44,0.37,0.42,0.53,0.23,0.69,0.44,0.37,0.23,0.37,0.53,0.52,0.52,0.51,0.37,0.31,0.43,0.53,0.23,0.51,0.46,0.23,0.53,0.53,0.55,0.53,0.44,0.42,0.44,0.51,0.23,0.52,0.44,0.37,0.44,0.23,0.44,0.23,0.67,0.27,0.43,0.55,0.42,0.27,0.44,0.23,0.43,0.23,0.62,0.43,0.42,0.55,0.51,0.25,0.51,0.47,0.27,0.44,0.23,0.35,0.53,0.67,0.62,0.35,0.23,0.31,0.53,0.37,0.51,0.53,0.47,0.53,0.23,0.47,0.37,0.44,0.55,0.31,0.37,0.23,0.56,0.62,0.74,0.67,0.33,0.57,0.57,0.34,0.36" style="fill:rgb(0,0,0);font-family:MinionPro-Regular;font-size:9.0px;stroke:none;">This research was supported by Fundação para a Ciência e Tecnologia (FCT) through grants PTDC/EEI-</text>
   <text y="373.499" x="155.638,159.85,162.973,166.096,169.129,173.503,177.877,182.251,186.625,189.658,194.032,198.406,202.78,207.154,209.179,213.103,218.044,222.85,224.875,229.996,235.603,242.434,248.473,251.506,259.579,265.258,270.865,273.898,278.127,283.077,289.35,292.383,296.757,301.131,305.505,309.879,312.912,317.286,321.66,326.034,330.408,332.433,336.357,341.298,346.104,348.129,352.611,356.796,358.821,366.074,370.952,373.174,376.018,378.51,382.434,387.411,392.217,397.076,401.126,403.457,405.482,408.253,413.086,418.027,422.833,425.299,430.204,434.47,436.495,441.03,443.748,445.773,448.896,455.637,460.803,465.123,471.162,474.42,477.543,484.212,486.237,490.161,495.102,499.908,501.933,507.972,513.318,521.391,527.664,529.689,532.857,537.69,542.631,547.437,551.316,554.654" svgx:width="0.47,0.34,0.34,0.33,0.48,0.48,0.48,0.48,0.33,0.48,0.48,0.48,0.48,0.23,0.44,0.55,0.53,0.23,0.56,0.62,0.74,0.67,0.33,0.89,0.69,0.62,0.33,0.47,0.62,0.69,0.33,0.48,0.48,0.48,0.48,0.33,0.48,0.48,0.48,0.48,0.23,0.44,0.55,0.53,0.23,0.51,0.46,0.23,0.82,0.53,0.25,0.31,0.27,0.44,0.55,0.55,0.53,0.44,0.25,0.23,0.3,0.53,0.55,0.53,0.27,0.55,0.47,0.23,0.51,0.3,0.23,0.34,0.74,0.57,0.47,0.67,0.36,0.34,0.74,0.23,0.44,0.55,0.53,0.23,0.67,0.59,0.89,0.69,0.23,0.35,0.53,0.55,0.53,0.43,0.37,0.23" style="fill:rgb(0,0,0);font-family:MinionPro-Regular;font-size:9.0px;stroke:none;">SII/5081/2014 and PTDC/MAT/STA/3358/2014 and by multiannual funding of INESC-ID and CBMA (under </text>
   <text y="383.498" x="155.638,158.501,163.334,167.222,169.283,173.954,177.24,181.795,184.208,188.141,192.075,194.883,198.249,200.31,206.997,210.129,216.807,219.849,225.897,231.072,237.12,240.162,244.545,248.928,253.311,257.694,262.077,265.118,269.501,273.884,278.267,282.65,284.711,288.645,293.595,298.41,300.471,307.158,310.29,316.968,320.01,325.33,328.13,334.412,337.454,341.837,346.22,350.603,354.986,359.369,362.411,366.794,371.177,375.56,379.943,383.12,385.235,387.296,391.131,393.246,397.126,399.241,403.57,405.685,407.746,411.76,415.577,420.141,425.091,429.601,435.893,438.233,442.166,446.981,451.184,455.072,458.438,460.499,463.821,468.556,473.236,478.097,482.643,486.135,488.943,491.004,493.821,497.107,501.653,509.087,511.148,514.011,518.844,522.732,524.793,527.565,531.499,538.898,542.786,546.152,548.213,552.542,554.594" svgx:width="0.31,0.53,0.43,0.23,0.52,0.37,0.51,0.26,0.43,0.42,0.31,0.37,0.23,0.74,0.34,0.74,0.33,0.67,0.57,0.67,0.33,0.48,0.48,0.48,0.48,0.48,0.33,0.48,0.48,0.48,0.48,0.23,0.44,0.55,0.53,0.23,0.74,0.34,0.74,0.33,0.59,0.34,0.69,0.33,0.48,0.48,0.48,0.48,0.48,0.33,0.48,0.48,0.48,0.48,0.35,0.23,0.23,0.53,0.23,0.56,0.23,0.47,0.23,0.23,0.44,0.42,0.5,0.55,0.51,0.69,0.25,0.43,0.53,0.47,0.43,0.37,0.23,0.37,0.53,0.52,0.52,0.51,0.37,0.31,0.23,0.3,0.37,0.51,0.82,0.23,0.31,0.53,0.43,0.23,0.33,0.44,0.82,0.43,0.37,0.23,0.47,0.23,0.23" style="fill:rgb(0,0,0);font-family:MinionPro-Regular;font-size:9.0px;stroke:none;">the projects UID/CEC/50021/2019 and UID/BIA/04050/2013). F.P.S. acknowledges support from the James S. </text>
   <text y="393.497" x="155.638,163.499,167.378,174.122,178.681,183.676,188.638,192.503,194.901,197.25,199.356,204.021,208.589,213.44,218.402,223.257,227.112,229.978,232.462,237.02,242.015,244.121,248.513,252.905,256.238,259.055,261.161,267.357,271.254,276.081,278.812,283.663,287.339,291.542,293.648,298.115,301.994,304.478,308.375,313.338,317.217,321.114,323.22,326.22,331.215,333.595,336.461,338.975,342.831,345.696,348.122,352.293,356.19,358.296,360.78,365.775,367.881,374.193,379.156,383.98,387.877,391.238,394.572,397.446,401.392,406.355,411.179,413.663,418.59,422.874,424.98,431.824,436.057,441.029,444.975,452.418,454.902,458.781,460.887,464.833,469.797,474.621,476.727,484.524,489.424,491.668,494.534,497.018,500.294,503.745,507.655,511.726,514.075,517.972,520.078,524.275,528.478,531.813,534.579,538.476,545.851,549.226,551.332,554.536" svgx:width="0.89,0.42,0.74,0.51,0.55,0.55,0.43,0.25,0.25,0.23,0.53,0.51,0.53,0.55,0.53,0.44,0.31,0.27,0.51,0.55,0.23,0.48,0.48,0.37,0.31,0.23,0.67,0.43,0.55,0.31,0.53,0.37,0.46,0.23,0.47,0.42,0.27,0.43,0.55,0.42,0.43,0.23,0.34,0.55,0.27,0.31,0.27,0.44,0.31,0.27,0.46,0.43,0.23,0.27,0.55,0.23,0.74,0.55,0.53,0.43,0.37,0.37,0.31,0.44,0.55,0.53,0.27,0.55,0.47,0.23,0.74,0.46,0.55,0.44,0.82,0.27,0.42,0.23,0.44,0.55,0.53,0.23,0.89,0.53,0.25,0.31,0.27,0.36,0.37,0.42,0.44,0.25,0.43,0.23,0.47,0.46,0.37,0.31,0.43,0.82,0.37,0.23,0.36,0.23" style="fill:rgb(0,0,0);font-family:MinionPro-Regular;font-size:9.0px;stroke:none;">McDonnell Foundation 21st Century Science Initiative in Understanding Dynamic and Multi-scale Systems - </text>
   <text y="403.496" x="155.638,160.42,165.01,168.271,170.965,175.717,180.391,184.263,186.957,191.443,194.782,198.78,201.057,203.001,207.594,211.386,213.71,215.987,220.436,226.601,229.871,234.677,236.984,241.7,243.644,249.272,255.437,259.31,262.535,267.236,269.288,271.232,277.481,279.806,282.083,284.027,287.809,292.483,295.286,300.058,304.543,307.831,311.134,313.078,317.83,321.702,325.458,327.765,331.637,334.862,338.687,340.631,345.521,350.111,352.055,355.862,360.347,367.549,372.349,376.174,378.967,381.379,386.233,390.445,392.389,397.204,402.103,405.976,410.866,414.673,417.115,421.114,423.391,425.335,429.819,433.158,435.102,439.992,444.477,449.4,452.604,457.419,462.318,466.191,471.081,474.888,477.33,481.328,483.605,485.549,487.961,492.717,495.411,499.236,502.46,506.285,509.547,512.292,515.595,517.539,519.951,524.874,526.818,530.042,533.834,536.141,539.924,542.717,545.129,549.614,554.537" svgx:width="0.56,0.51,0.37,0.31,0.53,0.51,0.42,0.31,0.51,0.37,0.44,0.25,0.23,0.53,0.43,0.25,0.25,0.51,0.69,0.37,0.53,0.27,0.52,0.23,0.69,0.69,0.44,0.37,0.53,0.23,0.23,0.69,0.25,0.25,0.23,0.44,0.53,0.31,0.53,0.51,0.37,0.37,0.23,0.53,0.43,0.42,0.25,0.44,0.37,0.43,0.23,0.55,0.51,0.23,0.42,0.51,0.82,0.52,0.43,0.31,0.27,0.55,0.47,0.23,0.54,0.55,0.44,0.55,0.42,0.27,0.44,0.25,0.23,0.51,0.37,0.23,0.55,0.51,0.55,0.36,0.54,0.55,0.44,0.55,0.42,0.27,0.44,0.25,0.23,0.27,0.55,0.31,0.43,0.37,0.43,0.37,0.31,0.37,0.23,0.27,0.55,0.23,0.37,0.43,0.25,0.44,0.31,0.27,0.51,0.55,0.23" style="fill:rgb(0,0,0);font-family:MinionPro-Regular;font-size:9.0px;stroke:none;">Postdoctoral Fellowship Award. All authors declare no competing financial or non-financial interests in relation </text>
   <text y="413.495" x="155.638,158.329,162.919,164.755,167.554,172.324,176.149,177.985,184.078,188.56,191.863,196.327,198.163,202.915,206.74,210.115,213.922,217.314,219.69,224.343,228.213,232.911" svgx:width="0.31,0.51,0.23,0.31,0.53,0.43,0.23,0.69,0.51,0.37,0.5,0.23,0.53,0.43,0.37,0.42,0.37,0.27,0.51,0.43,0.53,0.23" style="fill:rgb(0,0,0);font-family:MinionPro-Regular;font-size:9.0px;stroke:none;">to the work described.</text>
   <text y="431.5" x="155.638,162.865,168.86,173.029,179.189,185.283,189.133,191.167,196.018,202.112,208.217,212.386,216.236,218.975,225.102,231.097,235.266,238.005,244.099,250.204" svgx:width="0.66,0.55,0.38,0.56,0.55,0.35,0.21,0.44,0.55,0.56,0.38,0.35,0.25,0.56,0.55,0.38,0.25,0.55,0.56,0.42" style="fill:rgb(0,0,0);font-family:Corbel-Bold;font-size:11.0px;stroke:none;">Author contributions</text>
   <text y="441.5" x="155.638,161.902,163.999,169.762,171.859,178.339,180.436,182.533,184.54,188.359,190.456,194.32,196.417,200.728,202.825,204.832,207.464,209.561,217.625,219.722,223.585,225.682,227.689,231.607,236.542,241.339,243.346,247.164,249.261,255.291,257.388,261.699,263.796,265.803,270.6,274.47,277.818,280.275,284.58,289.514,293.432,298.229,300.236,304.153,309.088,313.885,315.892,318.349,325.597,330.297,332.619,336.489,343.871,347.741,352.541,355.279,359.196,363.993,366.0,368.847,373.665,377.535,379.542,382.811,386.681,390.104,394.03,397.948,401.218,405.019,409.87,411.967,413.974,420.238,422.335,428.097,430.194,436.674,438.771,440.868,442.875,446.694,448.791,452.655,454.752,459.063,461.16,463.167,465.797,467.894,475.958,478.055,481.919,484.016,486.023,489.941,494.876,499.673,501.68,505.499,507.596,513.626,515.723,520.034,522.041,526.697,529.966,533.836,538.645,542.563,545.832,549.75,554.502" svgx:width="0.69,0.23,0.62,0.23,0.71,0.23,0.23,0.23,0.53,0.23,0.56,0.23,0.47,0.23,0.23,0.33,0.23,0.89,0.23,0.56,0.23,0.23,0.44,0.55,0.53,0.23,0.53,0.23,0.67,0.23,0.47,0.23,0.23,0.53,0.43,0.37,0.27,0.47,0.55,0.43,0.53,0.23,0.44,0.55,0.53,0.23,0.27,0.82,0.52,0.25,0.43,0.82,0.43,0.55,0.31,0.43,0.53,0.23,0.31,0.53,0.43,0.23,0.37,0.43,0.37,0.43,0.44,0.37,0.42,0.53,0.23,0.23,0.69,0.23,0.62,0.23,0.71,0.23,0.23,0.23,0.53,0.23,0.56,0.23,0.47,0.23,0.23,0.33,0.23,0.89,0.23,0.56,0.23,0.23,0.44,0.55,0.53,0.23,0.53,0.23,0.67,0.23,0.47,0.23,0.52,0.37,0.43,0.52,0.44,0.37,0.43,0.53,0.23" style="fill:rgb(0,0,0);font-family:MinionPro-Regular;font-size:9.0px;stroke:none;">A.R.G., F.P.S, J.M.P. and F.C.S. designed and implemented the research; A.R.G., F.P.S, J.M.P. and F.C.S prepared </text>
   <text y="451.499" x="155.638,159.662,162.012,164.316,166.287,169.114,173.912,177.764,179.735,184.523,186.962,191.201,196.007,199.256,203.108,206.438,208.517,210.488,216.734,218.813,224.556,226.635,233.097,235.176,237.255,239.226,243.026,245.105,248.949,251.028,255.321,257.4,259.371,261.983,264.062,272.108,274.187,278.031,280.11,282.081,285.98,290.895,295.673,297.645,301.443,303.522,309.534,311.613,315.906,317.985,319.956,326.176,329.426,333.946,336.665,340.517,342.488,345.316,350.114,353.966,355.937,363.309,367.207,371.987,376.768,380.171,384.005,387.427,389.759,394.404,397.176,399.255,401.226,407.472,409.551,415.293,417.372,423.834,425.913,427.992,429.963,433.763,435.842,439.686,441.765,446.058,448.137,450.108,452.72,454.799,462.845,464.924,468.768,470.847,472.818,476.717,481.632,486.411,488.382,492.181,494.26,500.272,502.351,506.644,508.615,511.865,515.79,520.012,522.451,526.376,532.497,536.396,541.175,543.146,545.973,550.771,554.596" svgx:width="0.44,0.25,0.25,0.23,0.31,0.53,0.43,0.23,0.53,0.27,0.47,0.53,0.37,0.43,0.37,0.23,0.23,0.69,0.23,0.62,0.23,0.71,0.23,0.23,0.23,0.53,0.23,0.56,0.23,0.47,0.23,0.23,0.33,0.23,0.89,0.23,0.56,0.23,0.23,0.44,0.55,0.53,0.23,0.53,0.23,0.67,0.23,0.47,0.23,0.23,0.69,0.37,0.51,0.31,0.43,0.23,0.31,0.53,0.43,0.23,0.82,0.44,0.55,0.53,0.37,0.42,0.37,0.27,0.52,0.31,0.23,0.23,0.69,0.23,0.62,0.23,0.71,0.23,0.23,0.23,0.53,0.23,0.56,0.23,0.47,0.23,0.23,0.33,0.23,0.89,0.23,0.56,0.23,0.23,0.44,0.55,0.53,0.23,0.53,0.23,0.67,0.23,0.47,0.23,0.37,0.43,0.46,0.27,0.43,0.69,0.43,0.53,0.23,0.31,0.53,0.43,0.23" style="fill:rgb(0,0,0);font-family:MinionPro-Regular;font-size:9.0px;stroke:none;">all the Figures; A.R.G., F.P.S, J.M.P. and F.C.S. wrote the manuscript; A.R.G., F.P.S, J.M.P. and F.C.S reviewed the </text>
   <text y="461.498" x="155.638,162.982,166.852,171.604,176.356,179.731,183.538,186.931,189.235,193.852,196.597" svgx:width="0.82,0.44,0.55,0.53,0.37,0.42,0.37,0.27,0.52,0.31,0.23" style="fill:rgb(0,0,0);font-family:MinionPro-Regular;font-size:9.0px;stroke:none;">manuscript.</text>
   <text y="479.5" x="155.638,162.062,168.156,177.528,183.578,189.221,193.39,196.129,202.234,208.284,210.319,213.058,219.163,223.332,228.975,232.825,238.468,243.132,247.301" svgx:width="0.58,0.55,0.85,0.55,0.51,0.38,0.25,0.56,0.55,0.21,0.25,0.56,0.38,0.51,0.35,0.51,0.42,0.38,0.42" style="fill:rgb(0,0,0);font-family:Corbel-Bold2;font-size:11.0px;stroke:none;">competing interests</text>
   <text y="489.5" x="155.638,165.241,169.066,170.902,174.682,179.353,182.152,186.922,191.404,194.688,197.991,199.827,204.579,208.449,212.202,214.506,218.376,221.598,225.423,227.259,232.146,236.736,238.572,242.379,246.861,254.061,258.858,262.683,265.473,267.885,272.735,276.947,278.783,281.195,285.947,288.638,292.463,295.685,299.51,302.768,305.513,308.816" svgx:width="1.07,0.43,0.23,0.44,0.53,0.31,0.53,0.51,0.37,0.37,0.23,0.53,0.43,0.42,0.25,0.44,0.37,0.43,0.23,0.55,0.51,0.23,0.42,0.51,0.82,0.52,0.43,0.31,0.27,0.55,0.47,0.23,0.27,0.55,0.31,0.43,0.37,0.43,0.37,0.31,0.37,0.23" style="fill:rgb(0,0,0);font-family:MinionPro-Regular;font-size:9.0px;stroke:none;">The authors declare no competing interests.</text>
   <text y="512.0" x="155.638,162.865,169.003,175.141,177.88,182.049,184.788,190.882,196.987,202.652,205.424,207.447,210.186,216.291,219.899,225.993,229.843,239.215,244.88,249.049,251.788,257.882" svgx:width="0.66,0.56,0.56,0.25,0.38,0.25,0.55,0.56,0.51,0.25,0.21,0.25,0.56,0.33,0.55,0.35,0.85,0.51,0.38,0.25,0.55,0.56" style="fill:rgb(0,0,0);font-family:Corbel-Bold;font-size:11.0px;stroke:none;">Additional information</text>
   <text y="522.0" x="155.638,161.902,166.537,170.173,173.737,177.67,181.081,186.102,190.738,195.832,200.808,204.696,209.79,213.615" svgx:width="0.68,0.52,0.4,0.4,0.44,0.38,0.55,0.52,0.57,0.55,0.44,0.57,0.42,0.44" style="fill:rgb(0,0,0);font-family:MinionPro-Bold;font-size:9.0px;stroke:none;">Correspondence</text>
   <text y="522.0" x="217.548,219.384,223.254,228.141,232.893,234.729,237.951,241.821,246.33,251.109,254.934,258.191,260.936,264.239,266.075,268.658,273.14,276.479,278.315,285.659,289.439,292.13,295.955,299.348,301.786,305.782,308.032,311.335,313.171,316.438,321.208,325.699,330.523,332.8,337.552,339.388,344.041,347.866,349.702,353.653,358.405,363.157,366.379,370.204,373.462,376.837,380.706,385.458,387.294,389.985,394.575,396.411,400.182,402.234,408.219,410.271,414.537" svgx:width="0.23,0.44,0.55,0.53,0.23,0.37,0.43,0.51,0.53,0.43,0.37,0.31,0.37,0.23,0.3,0.51,0.37,0.23,0.82,0.44,0.31,0.43,0.37,0.27,0.44,0.25,0.37,0.23,0.37,0.53,0.51,0.53,0.25,0.53,0.23,0.51,0.43,0.23,0.44,0.53,0.53,0.37,0.43,0.37,0.37,0.43,0.53,0.23,0.31,0.51,0.23,0.53,0.23,0.67,0.23,0.47,0.23" style="fill:rgb(0,0,0);font-family:MinionPro-Regular;font-size:9.0px;stroke:none;"> and requests for materials should be addressed to F.C.S.</text>
   <text y="536.499" x="155.638,161.515,165.475,170.308,173.944,176.599,181.621,184.672,188.119,189.874,194.023,199.117,204.04,205.795,210.816,214.704,218.34,225.927,228.582,232.029,235.44,238.149,242.784,247.878,251.325,253.08,255.735,260.829,263.682,268.317,271.953,279.54,283.599,286.604,289.314,293.949,299.043" svgx:width="0.66,0.44,0.55,0.4,0.29,0.57,0.34,0.38,0.22,0.47,0.57,0.55,0.22,0.55,0.44,0.4,0.84,0.29,0.38,0.38,0.29,0.52,0.57,0.38,0.22,0.29,0.57,0.33,0.52,0.4,0.84,0.47,0.34,0.29,0.52,0.57,0.22" style="fill:rgb(0,0,0);font-family:MinionPro-Bold;font-size:9.0px;stroke:none;">Reprints and permissions information </text>
   <text y="536.499" x="300.798,303.183,306.486,308.322,312.111,316.278,320.148,322.605,324.909,328.788,333.297,335.574,339.399,341.235,345.015,347.76" svgx:width="0.27,0.37,0.23,0.44,0.46,0.44,0.27,0.25,0.44,0.51,0.25,0.43,0.23,0.44,0.31,0.23" style="fill:rgb(0,0,0);font-family:MinionPro-Regular;font-size:9.0px;stroke:none;">is available at </text>
   <text y="536.499" x="349.596,355.869,362.142,367.65,369.702,374.598,378.378,381.033,385.812,389.034,392.805,394.857,398.664,403.146,410.517,413.496,416.718,420.543,425.151,428.543,430.955,435.707,438.452" svgx:width="0.69,0.69,0.69,0.23,0.55,0.44,0.31,0.53,0.37,0.43,0.23,0.42,0.51,0.82,0.33,0.37,0.43,0.52,0.37,0.27,0.55,0.31,0.37" style="fill:rgb(0,0,255);font-family:MinionPro-Regular;font-size:9.0px;stroke:none;">www.nature.com/reprints</text>
   <text y="536.499" x="441.755" svgx:width="0.23" style="fill:rgb(0,0,0);font-family:MinionPro-Regular;font-size:9.0px;stroke:none;">.</text>
   <text y="550.998" x="155.638,161.029,165.997,170.776,173.278,175.933,179.353,184.303,188.191,191.935,193.393,196.84,198.595,203.689,208.342,211.285" svgx:width="0.6,0.56,0.53,0.28,0.29,0.38,0.55,0.44,0.4,0.24,0.38,0.22,0.57,0.52,0.34,0.44" style="fill:rgb(0,0,0);font-family:MinionPro-Bold;font-size:9.0px;stroke:none;">Publisher’s note</text>
   <text y="550.998" x="215.218,217.054,221.194,225.802,229.195,231.607,236.457,240.597,244.422,247.761,249.597,256.05,259.83,262.485,267.264,270.486,274.311,276.147,279.369,283.194,290.537,294.407,296.819,301.67,304.973,306.809,311.696,315.521,320.192,322.982,326.321,330.317,332.594,334.43,340.622,342.926,345.725,350.531,352.367,355.589,359.414,363.626,367.496,370.718,375.47,377.306,379.997,384.587,386.423,388.637,393.416,396.809,399.194,402.569,407.321,409.733,413.603,416.393,418.805,423.287,428.183,432.179,434.456,436.292,440.045,442.349,446.219,448.631,455.93,459.233,461.069,463.481,468.404,470.24,474.857,479.6,484.109,486.386,488.771,492.038,496.808,500.678,505.43,507.266,514.61,518.389,523.105,526.408,528.244,532.114,537.001,541.753" svgx:width="0.23,0.47,0.52,0.37,0.27,0.55,0.47,0.43,0.37,0.23,0.74,0.44,0.31,0.53,0.37,0.43,0.23,0.37,0.43,0.82,0.44,0.27,0.55,0.37,0.23,0.55,0.43,0.53,0.31,0.37,0.44,0.25,0.23,0.69,0.27,0.31,0.53,0.23,0.37,0.43,0.47,0.44,0.37,0.53,0.23,0.31,0.51,0.23,0.26,0.53,0.37,0.27,0.37,0.53,0.27,0.42,0.31,0.27,0.51,0.55,0.44,0.25,0.23,0.42,0.25,0.44,0.27,0.82,0.37,0.23,0.27,0.55,0.23,0.52,0.53,0.51,0.25,0.27,0.37,0.53,0.43,0.53,0.23,0.82,0.44,0.52,0.37,0.23,0.44,0.55,0.53,0.23" style="fill:rgb(0,0,0);font-family:MinionPro-Regular;font-size:9.0px;stroke:none;"> Springer Nature remains neutral with regard to jurisdictional claims in published maps and </text>
   <text y="560.997" x="155.638,158.05,162.901,166.159,168.949,171.253,173.908,178.579,181.369,183.781,188.262,193.158,197.154,199.431,201.267,205.137,212.364,214.641,217.08,220.86,223.649,226.061,230.543,235.394,238.697" svgx:width="0.27,0.55,0.37,0.31,0.27,0.31,0.53,0.31,0.27,0.51,0.55,0.44,0.25,0.23,0.44,0.8,0.25,0.27,0.44,0.31,0.27,0.51,0.55,0.37,0.23" style="fill:rgb(0,0,0);font-family:MinionPro-Regular;font-size:9.0px;stroke:none;">institutional affiliations.</text>
  </g>
  <path style="fill:rgb(195,196,198);stroke:none;stroke-width:0.3;" d="M156.730 569.560 L196.180 569.630 C196.730 569.630 197.220 569.550 197.220 570.730 L197.170 583.730 L155.730 583.730 L155.730 570.690 C155.730 570.100 155.790 569.560 156.730 569.560 "/>
  <path style="fill:rgb(0,0,0);stroke:none;stroke-width:0.3;" d="M156.420 569.740 L196.620 569.740 C196.850 569.740 197.040 569.930 197.040 570.170 L197.040 579.660 L168.220 579.660 C167.170 581.570 165.140 582.860 162.810 582.860 C160.480 582.860 158.450 581.570 157.400 579.660 L155.990 579.660 L155.990 570.170 C155.990 569.930 156.180 569.740 156.420 569.740 M196.620 569.390 L156.420 569.390 C155.990 569.390 155.640 569.740 155.640 570.170 L155.640 583.830 C155.640 583.930 155.720 584.000 155.810 584.000 L197.220 584.000 C197.320 584.000 197.400 583.930 197.400 583.830 L197.400 570.170 C197.400 569.740 197.050 569.390 196.620 569.390 "/>
  <path style="fill:rgb(255,255,255);stroke:none;stroke-width:0.3;" d="M181.290 582.690 C181.340 582.690 181.390 582.690 181.430 582.680 C181.480 582.670 181.520 582.650 181.550 582.630 C181.590 582.610 181.610 582.580 181.630 582.540 C181.650 582.500 181.660 582.450 181.660 582.390 C181.660 582.270 181.630 582.190 181.560 582.140 C181.500 582.090 181.410 582.060 181.300 582.060 L180.740 582.060 L180.740 582.690 ZM181.260 581.720 C181.350 581.720 181.420 581.690 181.480 581.650 C181.540 581.610 181.570 581.540 181.570 581.440 C181.570 581.390 181.560 581.340 181.540 581.310 C181.520 581.280 181.490 581.250 181.460 581.230 C181.430 581.210 181.390 581.200 181.350 581.190 C181.310 581.180 181.270 581.180 181.220 581.180 L180.740 581.180 L180.740 581.720 ZM181.320 580.780 C181.430 580.780 181.530 580.790 181.620 580.810 C181.720 580.830 181.790 580.860 181.860 580.910 C181.920 580.950 181.970 581.010 182.010 581.080 C182.040 581.160 182.060 581.250 182.060 581.360 C182.060 581.470 182.030 581.570 181.980 581.650 C181.930 581.720 181.850 581.790 181.750 581.840 C181.890 581.880 182.000 581.950 182.070 582.050 C182.140 582.150 182.170 582.280 182.170 582.420 C182.170 582.540 182.150 582.640 182.100 582.720 C182.060 582.810 182.000 582.880 181.920 582.930 C181.840 582.980 181.760 583.020 181.660 583.050 C181.560 583.080 181.460 583.090 181.360 583.090 L180.240 583.090 L180.240 580.780 Z"/>
  <path style="fill:rgb(255,255,255);stroke:none;stroke-width:0.3;" d="M182.260 580.780 L182.830 580.780 L183.370 581.690 L183.910 580.780 L184.470 580.780 L183.620 582.200 L183.620 583.090 L183.110 583.090 L183.110 582.190 Z"/>
  <path style="fill:rgb(255,255,255);stroke:none;stroke-width:0.3;" d="M167.560 576.210 C167.560 578.830 165.440 580.960 162.820 580.960 C160.200 580.960 158.070 578.840 158.070 576.220 L158.070 576.210 C158.070 573.590 160.190 571.470 162.810 571.460 C165.430 571.460 167.560 573.590 167.560 576.210 Z"/>
  <path style="fill:rgb(0,0,0);stroke:none;stroke-width:0.3;" d="M165.160 575.680 C165.020 575.390 164.830 575.240 164.560 575.240 C164.070 575.240 163.830 575.560 163.830 576.210 C163.830 576.850 164.070 577.170 164.560 577.170 C164.880 577.170 165.100 577.020 165.230 576.700 L165.910 577.060 C165.590 577.620 165.120 577.900 164.480 577.900 C164.000 577.900 163.600 577.750 163.310 577.450 C163.020 577.150 162.870 576.740 162.870 576.210 C162.870 575.690 163.020 575.280 163.320 574.980 C163.620 574.670 164.000 574.520 164.460 574.520 C165.130 574.520 165.610 574.790 165.890 575.310 ZM162.030 575.680 C161.900 575.390 161.690 575.240 161.420 575.240 C160.940 575.240 160.700 575.560 160.700 576.210 C160.700 576.850 160.940 577.170 161.420 577.170 C161.740 577.170 161.960 577.020 162.100 576.700 L162.760 577.060 C162.450 577.620 161.970 577.900 161.340 577.900 C160.850 577.900 160.460 577.750 160.160 577.450 C159.870 577.150 159.720 576.740 159.720 576.210 C159.720 575.690 159.870 575.280 160.180 574.980 C160.480 574.670 160.860 574.520 161.310 574.520 C161.980 574.520 162.460 574.790 162.750 575.310 ZM159.690 573.050 C158.800 573.950 158.360 575.010 158.360 576.210 C158.360 577.420 158.800 578.460 159.680 579.340 C160.560 580.220 161.610 580.660 162.820 580.660 C164.040 580.660 165.100 580.220 165.990 579.330 C166.850 578.500 167.270 577.460 167.270 576.210 C167.270 574.970 166.840 573.910 165.970 573.050 C165.110 572.180 164.060 571.750 162.820 571.750 C161.590 571.750 160.540 572.180 159.690 573.050 M166.670 572.350 C167.720 573.400 168.250 574.690 168.250 576.210 C168.250 577.740 167.730 579.010 166.700 580.040 C165.600 581.110 164.300 581.650 162.810 581.650 C161.330 581.650 160.050 581.120 158.980 580.050 C157.910 578.980 157.380 577.700 157.380 576.210 C157.380 574.720 157.910 573.440 158.980 572.350 C160.030 571.290 161.300 570.770 162.810 570.770 C164.330 570.770 165.620 571.290 166.670 572.350 "/>
  <path style="fill:rgb(255,255,255);stroke:none;stroke-width:0.3;" d="M182.180 570.950 C184.240 570.950 185.920 572.620 185.920 574.680 C185.920 576.750 184.240 578.420 182.180 578.420 C180.120 578.420 178.440 576.750 178.440 574.680 C178.440 572.620 180.120 570.950 182.180 570.950 "/>
  <path style="fill:rgb(0,0,0);stroke:none;stroke-width:0.3;" d="M183.260 573.600 C183.260 573.460 183.140 573.340 183.000 573.340 L181.350 573.340 C181.210 573.340 181.090 573.460 181.090 573.600 L181.090 575.250 L181.550 575.250 L181.550 577.210 L182.800 577.210 L182.800 575.250 L183.260 575.250 Z"/>
  <path style="fill:rgb(0,0,0);stroke:none;stroke-width:0.3;" d="M182.170 572.000 C182.490 572.000 182.740 572.250 182.740 572.560 C182.740 572.870 182.490 573.120 182.170 573.120 C181.860 573.120 181.610 572.870 181.610 572.560 C181.610 572.250 181.860 572.000 182.170 572.000 "/>
  <path style="fill:rgb(0,0,0);stroke:none;stroke-width:0.3;" d="M182.180 571.290 C183.090 571.290 183.870 571.620 184.510 572.260 C185.160 572.900 185.480 573.680 185.480 574.600 C185.480 575.530 185.170 576.300 184.530 576.910 C183.870 577.570 183.080 577.900 182.180 577.900 C181.280 577.900 180.500 577.570 179.850 576.920 C179.190 576.270 178.870 575.500 178.870 574.600 C178.870 573.710 179.200 572.930 179.860 572.260 C180.490 571.620 181.260 571.290 182.180 571.290 M182.170 570.570 C181.050 570.570 180.100 570.960 179.330 571.740 C178.540 572.540 178.140 573.500 178.140 574.600 C178.140 575.700 178.540 576.650 179.330 577.450 C180.130 578.240 181.070 578.640 182.170 578.640 C183.280 578.640 184.240 578.240 185.060 577.440 C185.830 576.680 186.210 575.730 186.210 574.600 C186.210 573.470 185.820 572.520 185.040 571.740 C184.260 570.960 183.300 570.570 182.170 570.570 "/>
  <g begin="text">
   <text y="575.5" x="200.396,207.443,212.519,216.605,221.852,224.156,230.663,234.614,238.565,242.651,246.251" svgx:width="0.77,0.55,0.44,0.57,0.22,0.71,0.42,0.42,0.44,0.38,0.38" style="fill:rgb(0,0,0);font-family:MinionPro-Bold;font-size:9.0px;stroke:none;">Open Access</text>
   <text y="575.5" x="249.851,252.263,257.978,262.946,265.52,268.985,271.397,275.51,279.011,281.918,284.492,288.461,290.9,294.887,297.299,299.873,303.338,305.75,308.189,310.763,314.732,318.719,323.804,327.269,331.256,336.17,338.582,343.523,348.608,353.522,357.509,361.01,363.422,367.535,369.947,376.094,379.595,383.582,387.695,390.602,393.176,397.505,401.492,403.904,410.051,414.803,422.336,429.869,434.621,439.706,443.171,445.583,451.964,454.871,457.778,461.279,463.853,468.587,473.528,476.435,479.009,483.761,488.846,491.258,495.74,497.954,502.436,504.848,508.079,513.164,516.071,520.058,523.559,528.644,532.757,535.664,538.238,542.99,548.075,552.188,554.465" svgx:width="0.23,0.62,0.53,0.27,0.37,0.23,0.44,0.37,0.31,0.27,0.42,0.25,0.43,0.23,0.27,0.37,0.23,0.25,0.27,0.42,0.43,0.55,0.37,0.43,0.53,0.23,0.53,0.55,0.53,0.43,0.37,0.23,0.44,0.23,0.67,0.37,0.43,0.44,0.31,0.27,0.46,0.43,0.23,0.67,0.51,0.82,0.82,0.51,0.55,0.37,0.23,0.69,0.31,0.31,0.37,0.27,0.51,0.53,0.31,0.27,0.51,0.55,0.23,0.48,0.23,0.48,0.23,0.34,0.55,0.31,0.43,0.37,0.55,0.44,0.31,0.27,0.51,0.55,0.44,0.25,0.23" style="fill:rgb(0,0,0);font-family:MinionPro-Regular;font-size:9.0px;stroke:none;"> This article is licensed under a Creative Commons Attribution 4.0 International </text>
   <text y="585.499" x="200.234,205.13,207.596,211.457,215.336,220.313,223.67,227.549,229.655,231.68,237.899,242.759,245.225,249.086,253.946,255.971,260.741,264.62,268.013,275.438,277.904,280.703,284.06,286.085,290.918,294.275,298.154,300.26,302.285,305.642,310.502,314.507,317.9,320.366,325.343,329.609,331.715,333.74,337.745,342.551,346.556,351.326,354.125,358.13,360.929,363.395,368.039,373.016,375.122,377.147,381.953,384.419,387.776,390.575,393.968,396.434,401.06,405.893,408.692,411.158,415.802,420.779,422.804,426.809,431.786,436.592,438.617,442.01,445.889,450.659,454.052,458.696,463.502,468.335,472.196,474.995,477.461,482.105,487.082,489.107,491.573,496.55,498.575,502.58,507.557,511.742,513.767,521.192,525.071,529.877,532.343,537.176,544.601,546.626,551.27,554.609" svgx:width="0.54,0.27,0.42,0.43,0.55,0.37,0.43,0.23,0.23,0.69,0.53,0.27,0.42,0.53,0.23,0.52,0.43,0.37,0.82,0.27,0.31,0.37,0.23,0.53,0.37,0.43,0.23,0.23,0.37,0.53,0.44,0.37,0.27,0.55,0.47,0.23,0.23,0.44,0.53,0.44,0.52,0.31,0.44,0.31,0.27,0.51,0.55,0.23,0.23,0.53,0.27,0.37,0.31,0.37,0.27,0.51,0.53,0.31,0.27,0.51,0.55,0.23,0.44,0.55,0.53,0.23,0.37,0.43,0.52,0.37,0.51,0.53,0.53,0.42,0.31,0.27,0.51,0.55,0.23,0.27,0.55,0.23,0.44,0.55,0.46,0.23,0.82,0.43,0.53,0.27,0.53,0.82,0.23,0.51,0.37,0.23" style="fill:rgb(0,0,0);font-family:MinionPro-Regular;font-size:9.0px;stroke:none;">License, which permits use, sharing, adaptation, distribution and reproduction in any medium or </text>
   <text y="595.498" x="155.639,158.303,162.893,166.232,173.603,177.554,180.299,182.351,184.268,188.219,191.522,193.439,195.716,200.306,205.229,209.441,211.358,215.309,218.612,220.529,224.66,229.25,234.029,235.946,240.158,242.57,246.737,250.562,252.479,256.43,261.146,265.862,269.201,273.791,278.507,281.846,284.258,288.209,290.954,294.779,296.696,300.503,303.842,307.667,312.419,314.831,317.576,319.493,322.238,326.828,328.745,331.49,336.296,340.121,342.038,346.628,349.967,352.379,356.591,359.003,363.926,367.877,370.154,372.071,376.022,380.801,383.546,388.352,392.942,396.281,399.395,402.698,405.812,407.729,411.68,416.603,421.355,423.272,426.017,430.823,434.648,436.565,439.868,444.458,449.237,452.576,456.383,460.208,462.26,464.177,468.893,472.232,476.822,480.989,483.401,488.153,491.978,493.895,497.846,499.763,502.04,504.452,509.375,513.839,515.756,518.501,523.091,525.008,527.753,532.559,536.384,538.301,544.286,547.625,551.45" svgx:width="0.3,0.51,0.37,0.82,0.44,0.31,0.23,0.23,0.44,0.37,0.23,0.25,0.51,0.55,0.47,0.23,0.44,0.37,0.23,0.46,0.51,0.53,0.23,0.47,0.27,0.46,0.43,0.23,0.44,0.52,0.52,0.37,0.51,0.52,0.37,0.27,0.44,0.31,0.43,0.23,0.42,0.37,0.43,0.53,0.27,0.31,0.23,0.31,0.51,0.23,0.31,0.53,0.43,0.23,0.51,0.37,0.27,0.47,0.27,0.55,0.44,0.25,0.23,0.44,0.53,0.31,0.53,0.51,0.37,0.35,0.37,0.35,0.23,0.44,0.55,0.53,0.23,0.31,0.53,0.43,0.23,0.37,0.51,0.53,0.37,0.42,0.43,0.23,0.23,0.52,0.37,0.51,0.46,0.27,0.53,0.43,0.23,0.44,0.23,0.25,0.27,0.55,0.5,0.23,0.31,0.51,0.23,0.31,0.53,0.43,0.23,0.67,0.37,0.43,0.36" style="fill:rgb(0,0,0);font-family:MinionPro-Regular;font-size:9.0px;stroke:none;">format, as long as you give appropriate credit to the original author(s) and the source, provide a link to the Cre-</text>
   <text y="605.497" x="155.639,159.707,162.569,165.098,169.382,173.324,175.583,181.685,186.392,193.88,201.368,206.075,211.115,214.535,216.794,219.188,221.717,225.641,229.583,234.623,238.043,241.985,244.154,246.413,250.481,255.521,260.39,262.649,265.178,270.218,275.087,277.616,281.54,285.608,288.47,292.412,294.671,297.2,299.981,302.24,306.164,311.087,315.155,320.195,324.524,328.466,331.886,334.145,340.427,344.369,347.825,351.767,354.026,361.514,365.582,370.451,374.393,376.562,378.821,388.577,392.519,394.778,397.307,404.795,408.863,413.192,417.134,420.554,422.813,427.52,430.976,433.235,437.942,440.804,445.727,449.669,453.125,455.384,458.246,463.169,465.698,469.154,474.023,476.282,481.115,485.183,488.639,491.501,495.749,498.008,505.496,509.564,512.426,516.368,519.824,522.353,526.421,528.815,531.074,533.603,538.643,540.902,543.764,548.687,551.216,554.519" svgx:width="0.44,0.31,0.27,0.46,0.43,0.23,0.67,0.51,0.82,0.82,0.51,0.55,0.37,0.23,0.25,0.27,0.42,0.43,0.55,0.37,0.43,0.23,0.23,0.44,0.55,0.53,0.23,0.27,0.55,0.53,0.27,0.42,0.44,0.31,0.43,0.23,0.27,0.3,0.23,0.42,0.53,0.44,0.55,0.47,0.43,0.37,0.23,0.69,0.43,0.37,0.43,0.23,0.82,0.44,0.53,0.43,0.23,0.23,1.07,0.43,0.23,0.27,0.82,0.44,0.47,0.43,0.37,0.23,0.51,0.37,0.23,0.51,0.31,0.53,0.43,0.37,0.23,0.31,0.53,0.27,0.37,0.53,0.23,0.52,0.44,0.37,0.31,0.46,0.23,0.82,0.44,0.31,0.43,0.37,0.27,0.44,0.25,0.23,0.27,0.55,0.23,0.31,0.53,0.27,0.37,0.23" style="fill:rgb(0,0,0);font-family:MinionPro-Regular;font-size:9.0px;stroke:none;">ative Commons license, and indicate if changes were made. The images or other third party material in this </text>
   <text y="615.496" x="155.639,159.626,163.001,165.782,168.23,172.073,174.386,178.247,180.227,184.214,187.589,191.45,193.43,195.878,200.837,204.68,206.993,211.808,216.596,220.457,225.245,227.225,229.673,234.632,236.612,239.393,244.235,248.096,250.076,254.063,257.438,260.219,262.667,266.51,268.823,272.684,274.727,278.066,280.046,286.067,289.442,293.303,297.29,300.071,302.519,306.722,310.583,312.563,318.584,323.21,330.617,338.024,342.65,347.609,350.948,352.928,355.241,357.689,361.532,365.393,370.352,373.691,377.552,379.64,381.62,386.435,391.394,393.707,397.568,400.907,404.246,406.226,408.674,413.633,418.421,420.869,424.712,428.699,431.48,435.341,440.129,442.109,446.735,449.516,454.358,458.219,461.594,467.795,470.243,473.582,477.443,479.423,481.871,486.83,488.81,492.797,494.777,498.62,501.995,505.856,510.644,513.092,515.873,517.853,520.166,522.614,527.573,531.434,533.414,536.195,540.821,542.801,545.582,550.424,554.249" svgx:width="0.44,0.37,0.31,0.27,0.42,0.25,0.43,0.23,0.44,0.37,0.43,0.23,0.27,0.55,0.42,0.25,0.53,0.53,0.43,0.53,0.23,0.27,0.55,0.23,0.31,0.53,0.43,0.23,0.44,0.37,0.31,0.27,0.42,0.25,0.43,0.22,0.37,0.23,0.67,0.37,0.43,0.44,0.31,0.27,0.46,0.43,0.23,0.67,0.51,0.82,0.82,0.51,0.55,0.37,0.23,0.25,0.27,0.42,0.43,0.55,0.37,0.43,0.23,0.23,0.53,0.55,0.25,0.43,0.37,0.37,0.23,0.27,0.55,0.53,0.27,0.42,0.44,0.31,0.43,0.53,0.23,0.51,0.31,0.53,0.43,0.37,0.69,0.27,0.37,0.43,0.23,0.27,0.55,0.23,0.44,0.23,0.42,0.37,0.43,0.53,0.27,0.31,0.23,0.25,0.27,0.55,0.43,0.23,0.31,0.51,0.23,0.31,0.53,0.43,0.23" style="fill:rgb(0,0,0);font-family:MinionPro-Regular;font-size:9.0px;stroke:none;">article are included in the article’s Creative Commons license, unless indicated otherwise in a credit line to the </text>
   <text y="625.495" x="155.639,163.01,166.961,169.706,173.531,176.87,179.282,183.233,185.51,187.562,189.506,192.575,195.239,197.183,204.554,208.505,211.25,215.075,218.414,220.826,224.777,227.054,228.998,231.41,234.713,236.657,241.58,246.17,248.915,250.859,253.271,258.194,262.001,264.278,269.057,273.809,277.634,282.386,284.33,286.742,291.665,293.609,296.354,301.16,304.985,306.929,310.88,314.219,316.964,319.376,323.183,325.46,329.285,331.292,334.595,336.539,342.524,345.863,349.688,353.639,356.384,358.796,362.963,366.788,368.732,374.717,379.307,386.678,394.049,398.639,403.562,406.865,408.809,411.086,413.498,417.305,421.13,426.053,429.356,433.181,435.125,439.076,443.999,448.751,450.695,454.826,459.416,464.195,467.534,469.478,471.89,476.813,479.558,483.383,488.306,493.058,496.883,501.635,503.579,508.358,511.661,515.486,517.43,519.842,523.145,525.089,530.012,534.602,537.347,539.291,544.007,547.832,551.171" svgx:width="0.82,0.44,0.31,0.43,0.37,0.27,0.44,0.25,0.23,0.23,0.34,0.3,0.23,0.82,0.44,0.31,0.43,0.37,0.27,0.44,0.25,0.23,0.27,0.37,0.23,0.55,0.51,0.31,0.23,0.27,0.55,0.42,0.25,0.53,0.53,0.43,0.53,0.23,0.27,0.55,0.23,0.31,0.53,0.43,0.23,0.44,0.37,0.31,0.27,0.42,0.25,0.43,0.22,0.37,0.23,0.67,0.37,0.43,0.44,0.31,0.27,0.46,0.43,0.23,0.67,0.51,0.82,0.82,0.51,0.55,0.37,0.23,0.25,0.27,0.42,0.43,0.55,0.37,0.43,0.23,0.44,0.55,0.53,0.23,0.46,0.51,0.53,0.37,0.23,0.27,0.55,0.31,0.43,0.55,0.53,0.43,0.53,0.23,0.53,0.37,0.43,0.23,0.27,0.37,0.23,0.55,0.51,0.31,0.23,0.52,0.43,0.37,0.36" style="fill:rgb(0,0,0);font-family:MinionPro-Regular;font-size:9.0px;stroke:none;">material. If material is not included in the article’s Creative Commons license and your intended use is not per-</text>
   <text y="635.494" x="155.639,163.01,165.422,168.167,170.912,174.737,179.489,181.226,185.798,189.929,191.666,194.969,197.714,201.665,204.41,209.189,211.934,216.524,219.863,223.994,225.731,229.07,232.895,237.107,241.886,244.163,248.114,250.859,253.271,257.861,262.784,264.521,269.111,272.45,274.187,278.012,282.26,286.067,289.892,293.717,298.469,301.772,303.509,306.254,311.06,314.885,316.622,321.338,325.163,328.502,335.873,338.285,341.03,343.775,347.6,352.352,354.089,358.868,362.171,365.996,368.048,369.785,373.916,378.506,383.285,385.022,391.187,393.599,395.876,398.153,399.89,404.813,408.638,412.464,417.216,418.953,421.698,426.288,428.025,432.615,437.186,439.931,443.882,446.294,451.217,452.954,457.67,461.495,464.834,472.205,474.617,477.92,481.223,483.635,488.225,493.148,494.885,499.637,502.049,505.388,509.213,513.02,515.765,518.042,522.173,523.91,526.574,529.913,534.503,541.874,543.611,546.356,551.162,554.987" svgx:width="0.82,0.27,0.31,0.31,0.43,0.53,0.23,0.51,0.46,0.23,0.37,0.31,0.44,0.31,0.53,0.31,0.51,0.37,0.46,0.23,0.37,0.43,0.47,0.53,0.25,0.44,0.31,0.27,0.51,0.55,0.23,0.51,0.37,0.23,0.43,0.47,0.42,0.43,0.43,0.53,0.37,0.23,0.31,0.53,0.43,0.23,0.52,0.43,0.37,0.82,0.27,0.31,0.31,0.43,0.53,0.23,0.53,0.37,0.43,0.23,0.23,0.46,0.51,0.53,0.23,0.69,0.27,0.25,0.25,0.23,0.55,0.43,0.43,0.53,0.23,0.31,0.51,0.23,0.51,0.51,0.31,0.44,0.27,0.55,0.23,0.52,0.43,0.37,0.82,0.27,0.37,0.37,0.27,0.51,0.55,0.23,0.53,0.27,0.37,0.43,0.42,0.31,0.25,0.46,0.23,0.3,0.37,0.51,0.82,0.23,0.31,0.53,0.43,0.23" style="fill:rgb(0,0,0);font-family:MinionPro-Regular;font-size:9.0px;stroke:none;">mitted by statutory regulation or exceeds the permitted use, you will need to obtain permission directly from the </text>
   <text y="645.493" x="155.639,159.446,164.036,168.752,172.883,176.222,178.634,182.846,187.652,190.397,192.233,197.039,201.629,203.906,208.658,212.483,215.822,217.874,219.71,225.263,229.853,231.689,235.856,238.268,242.093,248.258,250.094,254.045,255.881,259.688,264.278,268.994,273.125,274.961,279.551,282.215,284.051,286.796,291.602,294.014,297.317,299.153,301.43,303.842,307.649,311.474,316.397,319.7,323.525,325.577,327.413,331.58,333.992,337.295,339.707,342.452" svgx:width="0.42,0.51,0.52,0.46,0.37,0.27,0.47,0.53,0.31,0.23,0.53,0.51,0.25,0.53,0.43,0.37,0.23,0.23,0.62,0.51,0.23,0.46,0.27,0.43,0.69,0.23,0.44,0.23,0.42,0.51,0.52,0.46,0.23,0.51,0.3,0.23,0.31,0.53,0.27,0.37,0.23,0.25,0.27,0.42,0.43,0.55,0.37,0.43,0.23,0.23,0.46,0.27,0.37,0.27,0.31,0.23" style="fill:rgb(0,0,0);font-family:MinionPro-Regular;font-size:9.0px;stroke:none;">copyright holder. To view a copy of this license, visit </text>
   <text y="645.493" x="344.288,349.094,351.839,354.584,359.3,361.352,364.331,367.31,371.117,374.456,378.281,382.232,384.977,387.389,391.556,395.381,399.188,403.778,411.149,418.52,423.11,428.033,431.336,433.388,437.978,441.317,445.529,448.508,450.785,453.197,457.004,460.829,465.752,469.055,472.88,476.183,479.162,483.734,487.865,490.844,495.164,497.216,501.536" svgx:width="0.53,0.31,0.31,0.52,0.23,0.33,0.33,0.42,0.37,0.43,0.44,0.31,0.27,0.46,0.43,0.42,0.51,0.82,0.82,0.51,0.55,0.37,0.23,0.51,0.37,0.47,0.33,0.25,0.27,0.42,0.43,0.55,0.37,0.43,0.37,0.33,0.51,0.46,0.33,0.48,0.23,0.48,0.33" style="fill:rgb(0,0,255);font-family:MinionPro-Regular;font-size:9.0px;stroke:none;">http://creativecommons.org/licenses/by/4.0/</text>
   <text y="645.493" x="504.515" svgx:width="0.23" style="fill:rgb(0,0,0);font-family:MinionPro-Regular;font-size:9.0px;stroke:none;">.</text>
   <text y="655.492" x="155.639" svgx:width="0.23" style="fill:rgb(0,0,0);font-family:MinionPro-Regular;font-size:9.0px;stroke:none;"> </text>
   <text y="665.491" x="155.639,161.957,163.793,173.432,177.257,179.093,185.312,190.091,192.836,197.642,202.232,205.571,208.685,211.988,215.102,216.938,221.258,225.578,229.898" svgx:width="0.7,0.23,1.07,0.43,0.23,0.69,0.53,0.31,0.53,0.51,0.37,0.35,0.37,0.35,0.23,0.48,0.48,0.48,0.48" style="fill:rgb(0,0,0);font-family:MinionPro-Regular;font-size:9.0px;stroke:none;">© The Author(s) 2019</text>
  </g>
 </g>
</svg>
