<?xml version="1.0" encoding="UTF-8"?>
<svg height="740.717" width="565.307" xmlns="http://www.w3.org/2000/svg">
 <g id="page" xmlns:svgx="http://www.xml-cml.org/schema/svgx">
  <g begin="text">
   <text y="64.173" x="244.325,250.643,252.965,259.283,261.605,264.422,267.239,271.559,273.881,276.203,278.273,284.096,287.912,291.728,294.05,297.866,300.683,303.005,306.821,309.143,311.213,317.036,319.358,323.678,326.999,330.32,334.64,341.462,343.532,349.355,351.677,353.999,358.319,362.639" svgx:width="0.72,0.28,0.72,0.28,0.33,0.33,0.5,0.28,0.28,0.25,0.67,0.44,0.44,0.28,0.44,0.33,0.28,0.44,0.28,0.25,0.67,0.28,0.5,0.39,0.39,0.5,0.78,0.25,0.67,0.28,0.28,0.5,0.5,0.28" style="fill:rgb(0,129,48);font-family:TimesNewRomanPSMT;font-size:9.0px;stroke:none;">Kiwifruit Bacterial Blossom Blight</text>
  </g>
  <g begin="text">
   <text y="64.173" x="521.575,523.825,539.62,543.94,548.26" svgx:width="0.25,0.55,0.5,0.5,0.5" style="fill:rgb(0,0,0);font-family:TimesNewRomanPSMT;font-size:9.0px;stroke:none;"> 469</text>
   <text y="93.766" x="56.693,59.465,62.237,67.34,72.443,75.792,80.895,84.245,87.594,90.944,93.716,98.819,106.253,110.768,114.117,116.889,121.992,127.095,130.445,135.548,140.063,142.835,147.35,151.287,154.626,159.729,164.832,168.182,170.954,176.057,180.572,183.911,190.767,195.87,198.642,201.414,204.186,207.536,212.639,217.154,222.257,225.596,234.783,239.886,244.989,249.504,252.276,255.626,259.563,264.666,269.769,277.203,281.718,286.821,290.16,294.612" svgx:width="0.28,0.28,0.5,0.5,0.25,0.5,0.33,0.25,0.33,0.28,0.5,0.72,0.44,0.33,0.28,0.5,0.5,0.25,0.5,0.44,0.28,0.44,0.39,0.25,0.5,0.5,0.25,0.28,0.5,0.44,0.25,0.67,0.5,0.28,0.28,0.28,0.33,0.5,0.44,0.5,0.25,0.89,0.5,0.5,0.44,0.28,0.25,0.39,0.5,0.5,0.72,0.44,0.5,0.25,0.44,0.25" style="fill:rgb(0,0,0);font-family:TimesNewRomanPSMT;font-size:10.5px;stroke:none;">tion of flowering dates by the Chill-day Model showed a </text>
   <text y="106.765" x="56.693,61.733,66.185,70.637,73.923,78.375,82.827,86.702,89.411,94.451,99.491,102.042,105.329,109.781,114.821,119.861,124.313,129.353,133.805,136.514,141.554,146.594,149.88,152.432,155.141,158.427,162.879,167.919,172.959,175.511,180.551,185.591,190.043,193.329,195.881,199.167,204.207,206.916,211.956,215.243,219.695,222.246,227.286,231.738,235.025,237.734,242.774,247.814,251.688,254.103,256.655,260.529,263.238,271.197,273.906,276.615,281.067,284.354,286.905,289.614,294.654" svgx:width="0.5,0.44,0.44,0.33,0.44,0.44,0.39,0.28,0.5,0.5,0.25,0.33,0.44,0.5,0.5,0.44,0.5,0.44,0.28,0.5,0.5,0.33,0.25,0.28,0.33,0.44,0.5,0.5,0.25,0.5,0.5,0.44,0.33,0.25,0.33,0.5,0.28,0.5,0.33,0.44,0.25,0.5,0.44,0.33,0.28,0.5,0.5,0.39,0.25,0.25,0.39,0.28,0.78,0.28,0.28,0.44,0.33,0.25,0.28,0.5,0.25" style="fill:rgb(0,0,0);font-family:TimesNewRomanPSMT;font-size:10.5px;stroke:none;">decreasing (advancing) trend over future periods, similar to </text>
   <text y="119.764" x="56.693,61.754,66.804,71.267,76.328,81.378,84.098,89.159,94.209,96.929,101.391,105.854,108.573,111.87,116.333,121.383,125.846,130.907,135.957,140.42,144.315,147.612,150.92,155.382,160.433,165.494,168.801,171.521,175.983,181.044,184.341,187.061,192.122,195.419,200.469,203.777,208.239,213.29,216.009,221.07,226.121,230.016,233.313,237.209,239.928,244.989,250.04,252.759,257.222,261.117,264.414,267.711,273.927,278.39,283.44,288.501,291.221,294.507" svgx:width="0.5,0.5,0.44,0.5,0.5,0.28,0.5,0.5,0.28,0.44,0.44,0.28,0.25,0.44,0.5,0.44,0.5,0.5,0.44,0.39,0.25,0.33,0.44,0.5,0.5,0.33,0.28,0.44,0.5,0.25,0.28,0.5,0.25,0.5,0.33,0.44,0.5,0.28,0.5,0.5,0.39,0.25,0.39,0.28,0.5,0.5,0.28,0.44,0.39,0.25,0.33,0.61,0.44,0.5,0.5,0.28,0.33,0.25" style="fill:rgb(0,0,0);font-family:TimesNewRomanPSMT;font-size:10.5px;stroke:none;">phenological changes reported in previous studies (Lenoir </text>
   <text y="132.763" x="56.693,61.386,64.337,66.962,67.854,72.548,75.498,78.155,80.811,83.436,84.329,89.61,94.892,100.173,105.455,108.405,111.03,111.923,119.535,124.817,130.098,132.755,135.38,136.272,141.554,146.835,152.117,157.398,160.926,163.583,166.208,167.1,174.135,179.417,184.698,188.814,191.765,197.046,201.74,205.268,208.218,213.5,218.781,221.406,222.299,225.249,230.531,235.224,238.175,240.8,241.692,244.643,249.924,254.618,257.243,258.135,265.17,272.205,278.075,280.7,281.592,286.874,289.53,294.57" svgx:width="0.44,0.28,0.25,0.55,0.44,0.28,0.25,0.25,0.25,0.55,0.5,0.5,0.5,0.5,0.28,0.25,0.55,0.72,0.5,0.5,0.25,0.25,0.55,0.5,0.5,0.5,0.5,0.33,0.25,0.25,0.55,0.67,0.5,0.5,0.39,0.28,0.5,0.44,0.33,0.28,0.5,0.5,0.25,0.55,0.28,0.5,0.44,0.28,0.25,0.55,0.28,0.5,0.44,0.25,0.55,0.67,0.67,0.56,0.25,0.55,0.5,0.25,0.5,0.25" style="fill:rgb(0,0,0);font-family:TimesNewRomanPSMT;font-size:10.5px;stroke:none;">et al., 2008; Yun, 2006). Considering that the RCP 8.5 </text>
   <text y="145.762" x="56.693,61.292,64.158,67.014,75.131,79.73,82.596,87.195,89.82,90.629,95.238,100.436,105.035,110.232,115.43,120.039,122.664,123.473,127.505,132.104,136.713,141.911,146.51,149.954,152.82,158.018,160.643,161.451,164.895,168.339,173.537,181.653,184.278,185.087,187.943,193.14,197.75,200.375,201.183,208.712,213.321,218.519,226.047,232.4,241.682,246.879,250.323,257.852,265.38,268.005,268.814,276.92,282.117,287.315,291.924,294.633" svgx:width="0.44,0.28,0.28,0.78,0.44,0.28,0.44,0.25,0.55,0.44,0.5,0.44,0.5,0.5,0.44,0.25,0.55,0.39,0.44,0.44,0.5,0.44,0.33,0.28,0.5,0.25,0.55,0.33,0.33,0.5,0.78,0.25,0.55,0.28,0.5,0.44,0.25,0.55,0.72,0.44,0.5,0.72,0.61,0.89,0.5,0.33,0.72,0.72,0.25,0.55,0.78,0.5,0.5,0.44,0.28,0.25" style="fill:rgb(0,0,0);font-family:TimesNewRomanPSMT;font-size:10.5px;stroke:none;">climate change scenario from the HadGEM2-AO model </text>
   <text y="158.761" x="56.693,62.006,65.565,70.878,73.86,78.585,83.31,86.292,90.44,93.065,93.999,98.724,101.349,102.273,107.586,110.274,115.587,119.85,126.917,129.542,130.466,133.448,138.761,143.486,147.045,151.77,156.495,160.643,165.368,167.993,168.917,171.899,177.212,179.837,180.761,183.743,188.468,196.7,202.013,206.738,210.297,215.022,218.004,223.317,226.877,231.602,234.227,235.151,238.133,243.446,246.071,246.995,249.977,255.29,260.015,262.64,263.574,271.218,276.531,280.091,284.816,289.541,294.581" svgx:width="0.5,0.33,0.5,0.28,0.44,0.44,0.28,0.39,0.25,0.55,0.44,0.25,0.55,0.5,0.25,0.5,0.4,0.67,0.25,0.55,0.28,0.5,0.44,0.33,0.44,0.44,0.39,0.44,0.25,0.55,0.28,0.5,0.25,0.55,0.28,0.44,0.78,0.5,0.44,0.33,0.44,0.28,0.5,0.33,0.44,0.25,0.55,0.28,0.5,0.25,0.55,0.28,0.5,0.44,0.25,0.55,0.72,0.5,0.33,0.44,0.44,0.5,0.25" style="fill:rgb(0,0,0);font-family:TimesNewRomanPSMT;font-size:10.5px;stroke:none;">projects a 4.1°C increase in temperature in the Korean </text>
   <text y="171.76" x="56.693,62.321,66.773,71.813,74.522,79.562,83.436,88.476,91.185,95.637,98.147,103.187,108.227,110.736,115.776,120.816,125.856,130.896,133.406,136.692,143.486,147.938,152.39,157.43,159.939,164.391,167.1,169.61,174.062,176.771,179.186,181.601,184.11,189.15,194.19,199.23,204.27,207.557,209.972,212.481,217.521,222.561,225.848,228.357,231.644,236.096,239.97,245.01,247.719,250.428,254.303,256.812,260.687,265.727,270.767,278.138,282.59,287.63,290.139,294.591" svgx:width="0.56,0.44,0.5,0.28,0.5,0.39,0.5,0.28,0.44,0.25,0.5,0.5,0.25,0.5,0.5,0.5,0.5,0.25,0.33,0.67,0.44,0.44,0.5,0.25,0.44,0.28,0.25,0.44,0.28,0.25,0.25,0.25,0.5,0.5,0.5,0.5,0.33,0.25,0.25,0.5,0.5,0.33,0.25,0.33,0.44,0.39,0.5,0.28,0.28,0.39,0.25,0.39,0.5,0.5,0.72,0.44,0.5,0.25,0.44,0.25" style="fill:rgb(0,0,0);font-family:TimesNewRomanPSMT;font-size:10.5px;stroke:none;">Peninsula by 2100 (Baek et al., 2013), our results showed a </text>
   <text y="184.759" x="56.693,59.979,64.431,68.883,72.758,77.798,82.838,87.29,92.33,95.039,99.491,102.242,106.116,111.156,113.865,117.152,119.861,122.612,125.321,130.361,133.112,135.821,140.861,145.313,148.064,153.104,155.813,163.184,165.893,169.179,172.466,177.506,180.215,182.924,185.675,188.961,191.67,196.71,204.081,208.533,211.82,214.529,219.569,224.609,227.36,232.4,236.852,239.561,244.013,246.764,251.216,256.256,259.542,262.829,267.281,271.155,276.195,281.235,286.275,291.315" svgx:width="0.33,0.44,0.44,0.39,0.5,0.5,0.44,0.5,0.28,0.44,0.25,0.39,0.5,0.28,0.33,0.28,0.25,0.28,0.5,0.25,0.28,0.5,0.44,0.25,0.5,0.28,0.72,0.28,0.33,0.33,0.5,0.28,0.28,0.25,0.33,0.28,0.5,0.72,0.44,0.33,0.28,0.5,0.5,0.25,0.5,0.44,0.28,0.44,0.25,0.44,0.5,0.33,0.33,0.44,0.39,0.5,0.5,0.5,0.5,0.33" style="fill:rgb(0,0,0);font-family:TimesNewRomanPSMT;font-size:10.5px;stroke:none;">reasonable shift in the kiwifruit flowering date correspond-</text>
   <text y="197.758" x="56.693,59.549,64.736,69.923,72.548,73.346,76.202,81.389,84.014,84.812,87.668,92.855,95.711,99.732,102.357,103.155,108.342,111.776,116.963,119.819,124.418,129.017,131.873,136.472,141.659,144.284,145.082,147.938,152.537,160.643,165.83,170.429,173.862,178.461,181.317,186.504,189.938,194.537,197.162,197.96,202.559,207.746,212.345,217.532,222.719,227.318,229.88,232.505,233.303,240.821,246.008,248.864,253.463,258.65,261.275,262.073,266.672,271.271,274.127,279.314,283.913,286.769,289.625,294.665" svgx:width="0.28,0.5,0.5,0.25,0.55,0.28,0.5,0.25,0.55,0.28,0.5,0.28,0.39,0.25,0.55,0.5,0.33,0.5,0.28,0.44,0.44,0.28,0.44,0.5,0.25,0.55,0.28,0.44,0.78,0.5,0.44,0.33,0.44,0.28,0.5,0.33,0.44,0.25,0.55,0.44,0.5,0.44,0.5,0.5,0.44,0.25,0.25,0.55,0.72,0.5,0.28,0.44,0.5,0.25,0.55,0.44,0.44,0.28,0.5,0.44,0.28,0.28,0.5,0.25" style="fill:rgb(0,0,0);font-family:TimesNewRomanPSMT;font-size:10.5px;stroke:none;">ing to this projected temperature change, which actually </text>
   <text y="210.757" x="56.693,61.733,65.019,70.059,75.099,77.808,82.848,87.3,91.175,94.031,99.071,104.111,108.563,111.419,116.459,119.745,122.601,125.31,130.35,134.802,137.658,145.617,150.657,154.532,157.241,160.097,164.549,169.589,177.548,182.588,187.04,189.749,192.458,195.167,200.207,205.247,208.103,212.555,217.595,220.304,225.344,229.796,234.836,239.288,243.74,247.614,250.47,255.51,258.797,261.653,266.693,271.733,276.773,281.813,284.522,289.562,294.602" svgx:width="0.5,0.33,0.5,0.5,0.28,0.5,0.44,0.39,0.25,0.5,0.5,0.44,0.25,0.5,0.33,0.25,0.28,0.5,0.44,0.25,0.78,0.5,0.39,0.28,0.25,0.44,0.5,0.78,0.5,0.44,0.28,0.28,0.28,0.5,0.5,0.25,0.44,0.5,0.28,0.5,0.44,0.5,0.44,0.44,0.39,0.25,0.5,0.33,0.25,0.5,0.5,0.5,0.5,0.28,0.5,0.5,0.25" style="fill:rgb(0,0,0);font-family:TimesNewRomanPSMT;font-size:10.5px;stroke:none;">provides one of the most compelling evidences of ongoing </text>
   <text y="223.756" x="56.693,61.145,63.854,66.563,74.522,78.974,81.683,86.135,88.959,93.411,98.451,102.903,107.943,112.983,117.435,119.85,122.675,130.046,137.417,142.457,147.497,150.321,154.773,157.482,160.307,164.759,167.468,169.883,172.707,175.994,181.034,186.074,191.114,196.154,199.44,202.265,206.717,211.757,216.797,219.621,226.992,229.701,237.66,240.485,244.937,247.646,250.47,254.922,257.631,260.046,262.871,266.157,271.197,276.237,281.277,286.317,291.357,294.644" svgx:width="0.44,0.28,0.28,0.78,0.44,0.28,0.44,0.25,0.44,0.5,0.44,0.5,0.5,0.44,0.25,0.25,0.72,0.72,0.5,0.5,0.25,0.44,0.28,0.25,0.44,0.28,0.25,0.25,0.33,0.5,0.5,0.5,0.5,0.33,0.25,0.44,0.5,0.5,0.25,0.72,0.28,0.78,0.25,0.44,0.28,0.25,0.44,0.28,0.25,0.25,0.33,0.5,0.5,0.5,0.5,0.5,0.33,0.25" style="fill:rgb(0,0,0);font-family:TimesNewRomanPSMT;font-size:10.5px;stroke:none;">climate change. Kwon et al. (2012) and Kim et al. (2015b) </text>
   <text y="236.755" x="56.693,60.693,65.859,71.025,78.522,83.1,88.266,90.891,91.679,94.514,99.68,104.258,107.093,110.495,113.33,118.496,123.074,126.476,134.561,139.727,144.893,147.728,151.14,153.975,158.553,163.719,167.121,174.041,179.207,182.042,184.877,187.712,191.124,196.29,200.868,206.034,209.436,218.687,223.853,229.019,233.597,236.432,239.834,244.412,249.578,254.744,257.579,262.745,265.37,266.158,271.323,274.736,279.314,284.48,287.315,291.893,294.602" svgx:width="0.39,0.5,0.5,0.72,0.44,0.5,0.25,0.55,0.28,0.5,0.44,0.28,0.25,0.28,0.5,0.44,0.25,0.78,0.5,0.5,0.28,0.33,0.28,0.44,0.5,0.25,0.67,0.5,0.28,0.28,0.28,0.33,0.5,0.44,0.5,0.25,0.89,0.5,0.5,0.44,0.28,0.25,0.44,0.5,0.5,0.28,0.5,0.25,0.55,0.5,0.33,0.44,0.5,0.28,0.44,0.28,0.25" style="fill:rgb(0,0,0);font-family:TimesNewRomanPSMT;font-size:10.5px;stroke:none;">showed that the modified Chill-day Model could predict </text>
   <text y="249.754" x="56.693,60.0,62.73,67.791,75.194,79.667,82.974,85.704,90.765,95.826,99.134,104.195,108.668,111.398,115.871,119.777,123.084,128.145,131.453,134.76,142.163,146.636,151.697,159.099,163.572,166.88,171.941,175.248,182.651,185.381,188.111,193.172,196.479,201.54,204.27,209.331,214.392,217.7,222.173,226.646,231.119,236.18,239.487,243.96,248.433,253.494,256.802,260.109,265.17,267.606,272.667,275.975,281.036,285.509,290.57,294.444" svgx:width="0.33,0.28,0.5,0.72,0.44,0.33,0.28,0.5,0.5,0.25,0.5,0.44,0.28,0.44,0.39,0.25,0.5,0.33,0.25,0.72,0.44,0.5,0.72,0.44,0.33,0.5,0.25,0.72,0.28,0.28,0.5,0.25,0.5,0.28,0.5,0.5,0.25,0.44,0.44,0.44,0.5,0.33,0.44,0.44,0.5,0.25,0.33,0.5,0.25,0.5,0.25,0.5,0.44,0.5,0.39,0.25" style="fill:rgb(0,0,0);font-family:TimesNewRomanPSMT;font-size:10.5px;stroke:none;">flowering dates of Hayward with high accuracy (2.5 days </text>
   <text y="262.753" x="56.693,61.145,66.185,71.225,73.839,78.879,81.294,86.334,88.949,93.989,98.441,103.481,107.355,109.97,115.01,118.296,120.911,130.035,137.406,143.612,147.486,150.101,157.472,160.181,162.89,167.93,170.544,175.584,178.293,181.58,184.866,189.318,192.605,197.057,202.097,204.806,207.42,212.46,215.747,220.787,225.827,230.867,235.907,239.193,241.902,245.189,250.229,252.938,257.978,260.592,265.632,270.084,272.793,277.245,281.12,285.572,288.281,292.155,294.57" svgx:width="0.44,0.5,0.5,0.25,0.5,0.25,0.5,0.25,0.5,0.44,0.5,0.39,0.25,0.5,0.33,0.25,0.89,0.72,0.61,0.39,0.25,0.72,0.28,0.28,0.5,0.25,0.5,0.28,0.33,0.33,0.44,0.33,0.44,0.5,0.28,0.25,0.5,0.33,0.5,0.5,0.5,0.5,0.33,0.28,0.33,0.5,0.28,0.5,0.25,0.5,0.44,0.28,0.44,0.39,0.44,0.28,0.39,0.25,0.25" style="fill:rgb(0,0,0);font-family:TimesNewRomanPSMT;font-size:10.5px;stroke:none;">and 2.0 days of MAEs with different ground-truth datasets, </text>
   <text y="275.752" x="56.693,60.063,64.599,68.558,73.682,78.218,82.754,85.547,88.34,93.464,98.0,100.793,105.917,109.287,112.658,117.782,122.906,126.276,130.812,135.936,143.979,149.103,153.639,157.01,159.803,164.927,170.051,173.421,180.876,183.669,186.462,191.586,194.957,200.081,203.451,208.575,213.699,218.823,223.947,227.318,230.111,233.481,238.605,241.398,246.522,249.893,255.017,259.553,262.346,266.882,270.252,273.623,278.159,283.283,286.653,291.189" svgx:width="0.33,0.44,0.39,0.5,0.44,0.44,0.28,0.28,0.5,0.44,0.28,0.5,0.33,0.25,0.5,0.5,0.25,0.44,0.5,0.78,0.5,0.44,0.33,0.28,0.5,0.5,0.25,0.72,0.28,0.28,0.5,0.25,0.5,0.33,0.5,0.5,0.5,0.5,0.33,0.28,0.33,0.5,0.28,0.5,0.25,0.5,0.44,0.28,0.44,0.25,0.33,0.44,0.5,0.33,0.44,0.33" style="fill:rgb(0,0,0);font-family:TimesNewRomanPSMT;font-size:10.5px;stroke:none;">respectively) by comparing with ground-truth data repre-</text>
   <text y="288.751" x="56.693,60.609,65.103,70.185,72.936,75.687,80.769,85.851,89.18,97.181,102.263,105.591,110.085,113.414,116.165,121.247,125.741,130.823,134.151,139.233,144.315,147.644,152.726,157.22,161.714,165.042,168.959,171.416,174.744,180.992,186.074,190.568,193.896,198.39,201.719,206.801,210.129,214.623,217.08,220.409,223.16,225.911,229.24,233.734,238.228,243.31,246.638,251.72,256.214,259.543,264.036,267.953,271.87,276.952,284.953,289.447,294.487" svgx:width="0.39,0.44,0.5,0.28,0.28,0.5,0.5,0.25,0.78,0.5,0.33,0.44,0.25,0.28,0.5,0.44,0.5,0.25,0.5,0.5,0.25,0.5,0.44,0.44,0.33,0.39,0.25,0.25,0.61,0.5,0.44,0.33,0.44,0.33,0.5,0.33,0.44,0.25,0.25,0.28,0.28,0.25,0.44,0.44,0.5,0.25,0.5,0.44,0.25,0.44,0.39,0.39,0.5,0.78,0.44,0.5,0.25" style="fill:rgb(0,0,0);font-family:TimesNewRomanPSMT;font-size:10.5px;stroke:none;">senting more than 10 years. Therefore, it can be assumed </text>
   <text y="301.75" x="56.693,59.423,64.494,68.967,71.697,75.005,77.735,82.806,87.279,90.587,93.905,96.635,101.706,109.109,113.582,116.9,119.63,124.691,129.762,133.07,138.141,142.614,145.344,149.817,153.723,157.031,162.102,165.41,169.883,174.954,177.684,182.157,184.887,189.36,194.432,197.739,202.811,207.872,211.179,213.909,218.981,223.454,226.761,233.586,238.647,241.377,244.107,246.837,250.155,255.227,259.7,264.761,268.068,277.224,282.296,287.357,291.83,294.539" svgx:width="0.28,0.5,0.44,0.28,0.25,0.28,0.5,0.44,0.25,0.33,0.28,0.5,0.72,0.44,0.33,0.28,0.5,0.5,0.25,0.5,0.44,0.28,0.44,0.39,0.25,0.5,0.33,0.44,0.5,0.28,0.44,0.28,0.44,0.5,0.25,0.5,0.5,0.25,0.28,0.5,0.44,0.25,0.67,0.5,0.28,0.28,0.28,0.33,0.5,0.44,0.5,0.25,0.89,0.5,0.5,0.44,0.28,0.25" style="fill:rgb(0,0,0);font-family:TimesNewRomanPSMT;font-size:10.5px;stroke:none;">that the flowering dates predicted by the Chill-day Model </text>
   <text y="314.749" x="56.693,59.979,65.019,68.306,71.225,73.934,78.974,83.426,86.345,89.631,94.671,97.38,102.42,105.707,110.159,113.078,118.118,122.57,125.856,128.565,133.605,138.645,142.52,145.439,153.398,157.85,162.89,165.809,169.095,173.547,178.587,181.874,186.326,190.2,194.652,199.692,202.401,205.32,208.029,213.069,217.521,220.44,224.892,229.344,232.053,237.093,241.545,244.254,247.173,252.213,257.253,261.705,266.745,271.785,276.825,281.865,286.317,290.192,294.644" svgx:width="0.33,0.5,0.33,0.25,0.28,0.5,0.44,0.25,0.33,0.5,0.28,0.5,0.33,0.44,0.25,0.5,0.44,0.33,0.28,0.5,0.5,0.39,0.25,0.78,0.44,0.5,0.25,0.33,0.44,0.5,0.33,0.44,0.39,0.44,0.5,0.28,0.25,0.28,0.5,0.44,0.25,0.44,0.44,0.28,0.5,0.44,0.28,0.25,0.5,0.5,0.44,0.5,0.5,0.5,0.5,0.44,0.39,0.44,0.25" style="fill:rgb(0,0,0);font-family:TimesNewRomanPSMT;font-size:10.5px;stroke:none;">for the future periods may represent the actual phenophase </text>
   <text y="327.748" x="56.693,61.817,65.187,68.547,73.671,76.454,83.909,86.691,90.062,93.432,98.556,101.349,104.132,107.492,110.274,115.398,118.758,121.541,126.665,131.201,134.561,137.931,143.055,145.838,150.962,154.332,158.868,161.367,164.727,172.182,177.306,180.089,184.625,189.749,193.109,195.891,201.015,204.375,207.158,212.282,215.652,220.776,224.136,226.929,232.053,237.177,239.97,244.496,249.032,251.814,256.34,260.298,263.658,266.441,271.565,276.101,278.883,282.243,285.026,290.15,294.602" svgx:width="0.5,0.33,0.25,0.5,0.28,0.72,0.28,0.33,0.33,0.5,0.28,0.28,0.25,0.28,0.5,0.25,0.28,0.5,0.44,0.25,0.33,0.5,0.28,0.5,0.33,0.44,0.25,0.25,0.72,0.5,0.28,0.44,0.5,0.25,0.28,0.5,0.25,0.28,0.5,0.33,0.5,0.25,0.28,0.5,0.5,0.28,0.44,0.44,0.28,0.44,0.39,0.25,0.28,0.5,0.44,0.28,0.25,0.28,0.5,0.44,0.25" style="fill:rgb(0,0,0);font-family:TimesNewRomanPSMT;font-size:10.5px;stroke:none;">of kiwifruit in the future, which in turn indicates that the </text>
   <text y="340.747" x="56.693,61.334,64.232,67.13,75.278,79.919,82.817,85.715,90.356,92.981,93.831,98.472,103.701,108.93,114.159,117.057,119.955,122.853,128.082,133.311,137.375,140.0,140.85,146.079,150.72,153.618,158.259,161.735,169.883,172.781,178.01,182.651,187.88,190.505,191.355,196.584,201.813,204.438,205.289,208.187,213.416,218.057,220.682,221.532,226.761,230.237,234.878,240.107,243.005,247.646,250.544,255.185,260.414,263.039,263.889,267.365,270.263,275.492,283.062,287.703,291.179" svgx:width="0.44,0.28,0.28,0.78,0.44,0.28,0.28,0.44,0.25,0.55,0.44,0.5,0.5,0.5,0.28,0.28,0.28,0.5,0.5,0.39,0.25,0.55,0.5,0.44,0.28,0.44,0.33,0.78,0.28,0.5,0.44,0.5,0.25,0.55,0.5,0.5,0.25,0.55,0.28,0.5,0.44,0.25,0.55,0.5,0.33,0.44,0.5,0.28,0.44,0.28,0.44,0.5,0.25,0.55,0.33,0.28,0.5,0.72,0.44,0.33,0.33" style="fill:rgb(0,0,0);font-family:TimesNewRomanPSMT;font-size:10.5px;stroke:none;">climatic conditions determined by the predicted flower-</text>
   <text y="353.746" x="56.693,59.402,64.442,69.482,72.768,77.808,82.26,84.969,89.421,93.296,96.582,104.541,108.993,114.033,117.32,121.772,124.481,128.355,133.395,136.682,139.968,144.42,149.46,152.747,157.199,161.073,165.525,170.565,173.274,176.561,179.27,184.31,188.762,192.048,196.5,200.952,203.661,208.701,213.153,215.862,219.149,223.601,228.641,233.681,238.721,241.43,244.139,246.848,251.888,256.928,260.802,264.089,266.798,271.838,276.29,278.999,282.285,284.994,290.034,294.486" svgx:width="0.28,0.5,0.5,0.25,0.5,0.44,0.28,0.44,0.39,0.25,0.78,0.44,0.5,0.25,0.44,0.28,0.39,0.5,0.25,0.33,0.44,0.5,0.33,0.44,0.39,0.44,0.5,0.28,0.25,0.28,0.5,0.44,0.25,0.44,0.44,0.28,0.5,0.44,0.28,0.25,0.44,0.5,0.5,0.5,0.28,0.28,0.28,0.5,0.5,0.39,0.25,0.28,0.5,0.44,0.28,0.25,0.28,0.5,0.44,0.25" style="fill:rgb(0,0,0);font-family:TimesNewRomanPSMT;font-size:10.5px;stroke:none;">ing dates may also represent the actual conditions that the </text>
   <text y="366.745" x="56.693,64.127,70.983,77.84,81.189,86.292,90.807,93.579,98.682,103.785,108.888,113.403,118.506,121.856,129.29,132.062,134.834,137.606,140.955,145.47,150.573,155.088,160.191,165.294,170.397,173.169,177.684,181.034,184.383,189.486,194.589,197.939,200.711,205.814,210.917,214.266,217.616,222.719,225.491,230.594,233.943,238.458,241.808,245.745,250.26,254.775,258.713,263.816,268.919,272.856,275.334,278.684,284.952,290.055,294.507" svgx:width="0.72,0.67,0.67,0.25,0.5,0.44,0.28,0.5,0.5,0.5,0.44,0.5,0.25,0.72,0.28,0.28,0.28,0.25,0.44,0.5,0.44,0.5,0.5,0.5,0.28,0.44,0.33,0.25,0.5,0.5,0.33,0.28,0.5,0.5,0.25,0.33,0.5,0.28,0.5,0.33,0.44,0.25,0.39,0.44,0.44,0.39,0.5,0.5,0.39,0.25,0.25,0.61,0.5,0.44,0.25" style="fill:rgb(0,0,0);font-family:TimesNewRomanPSMT;font-size:10.5px;stroke:none;">KBB pathogen will encounter during future seasons. The </text>
   <text y="379.744" x="56.693,61.145,65.019,68.894,73.934,81.893,86.933,89.642,92.351,97.391,102.431,105.36,110.4,113.687,116.616,121.068,123.998,129.038,134.078,138.53,143.57,148.61,153.65,158.69,163.142,167.016,171.468,174.398,179.438,183.89,186.599,191.051,193.98,197.267,202.307,205.593,208.523,212.975,215.904,220.944,223.653,228.105,233.145,235.854,238.784,241.493,245.367,248.297,256.256,261.296,264.582,269.034,271.964,274.673,277.382,282.422,286.874,289.583,294.623" svgx:width="0.44,0.39,0.39,0.5,0.78,0.5,0.28,0.28,0.5,0.5,0.25,0.5,0.33,0.25,0.44,0.25,0.5,0.5,0.44,0.5,0.5,0.5,0.5,0.44,0.39,0.44,0.25,0.5,0.44,0.28,0.44,0.25,0.33,0.5,0.33,0.25,0.44,0.25,0.5,0.28,0.44,0.5,0.28,0.25,0.28,0.39,0.25,0.78,0.5,0.33,0.44,0.25,0.28,0.28,0.5,0.44,0.28,0.5,0.25" style="fill:rgb(0,0,0);font-family:TimesNewRomanPSMT;font-size:10.5px;stroke:none;">assumption of a phenophase date for a plant is more likely </text>
   <text y="392.743" x="56.693,59.402,64.442,67.686,72.726,77.178,80.423,83.132,86.418,91.458,95.91,99.155,102.441,107.481,110.768,114.012,119.052,123.504,126.791,131.243,136.283,141.323,144.032,148.484,151.193,154.437,157.724,161.01,166.05,168.759,171.468,174.713,177.422,180.708,185.16,189.612,193.487,196.731,200.018,205.058,208.344,211.589,216.629,219.338,224.378,228.83,232.704,235.991,239.235,241.944,244.653,249.693,254.145,257.39,262.43,265.139,272.51,275.219,278.505,281.792,286.832,289.541,292.25,294.665" svgx:width="0.28,0.5,0.25,0.5,0.44,0.25,0.28,0.33,0.5,0.44,0.25,0.33,0.5,0.33,0.25,0.5,0.44,0.33,0.44,0.5,0.5,0.28,0.44,0.28,0.25,0.33,0.33,0.5,0.28,0.28,0.25,0.28,0.33,0.44,0.44,0.39,0.25,0.33,0.5,0.33,0.25,0.5,0.28,0.5,0.44,0.39,0.33,0.25,0.28,0.28,0.5,0.44,0.25,0.5,0.28,0.72,0.28,0.33,0.33,0.5,0.28,0.28,0.25,0.25" style="fill:rgb(0,0,0);font-family:TimesNewRomanPSMT;font-size:10.5px;stroke:none;">to be true for perennial fruit trees (or vines) like kiwifruit, </text>
   <text y="405.742" x="56.693,64.064,69.104,71.802,76.244,81.284,83.699,86.397,90.839,94.713,97.412,99.827,103.113,108.153,111.44,113.855,121.803,126.843,130.13,134.571,136.986,139.685,144.725,149.166,154.206,156.621,161.661,166.701,169.116,174.156,178.598,183.039,186.326,190.2,192.615,197.655,202.695,207.137,211.578,213.993,219.033,221.732,226.173,231.213,233.912,238.353,243.393,245.808,248.223,250.922,255.962,260.403,265.443,267.858,271.145,276.185,279.471,281.886,286.328,291.368" svgx:width="0.72,0.5,0.28,0.44,0.5,0.25,0.28,0.44,0.39,0.28,0.25,0.33,0.5,0.33,0.25,0.78,0.5,0.33,0.44,0.25,0.28,0.5,0.44,0.5,0.25,0.5,0.5,0.25,0.5,0.44,0.44,0.33,0.39,0.25,0.5,0.5,0.44,0.44,0.25,0.5,0.28,0.44,0.5,0.28,0.44,0.5,0.25,0.25,0.28,0.5,0.44,0.5,0.25,0.33,0.5,0.33,0.25,0.44,0.5,0.33" style="fill:rgb(0,0,0);font-family:TimesNewRomanPSMT;font-size:10.5px;stroke:none;">which last for more than 30 years once planted, than for an-</text>
   <text y="418.741" x="56.693,61.733,66.773,71.225,73.934,77.073,81.525,84.812,89.852,94.892,98.766,101.906,105.78,110.82,115.272,120.312,123.452,127.904,131.778,134.918,138.204,140.913,145.365,149.817,152.232,155.372,162.743,167.783,172.235,176.687,179.396,181.811,184.95,189.402,194.442,199.482,202.622,210.581,215.033,217.742,222.194,226.646,229.061,232.2,238.406,243.446,246.155,250.029,253.169,255.878,259.752,262.892,267.932,272.384,276.836,281.288,286.328,290.202,294.654" svgx:width="0.5,0.5,0.44,0.28,0.25,0.44,0.33,0.5,0.5,0.39,0.25,0.39,0.5,0.44,0.5,0.25,0.44,0.39,0.25,0.33,0.28,0.44,0.44,0.25,0.25,0.72,0.5,0.44,0.44,0.28,0.25,0.25,0.44,0.5,0.5,0.25,0.78,0.44,0.28,0.44,0.44,0.25,0.25,0.61,0.5,0.28,0.39,0.25,0.28,0.39,0.25,0.5,0.44,0.44,0.44,0.5,0.39,0.44,0.25" style="fill:rgb(0,0,0);font-family:TimesNewRomanPSMT;font-size:10.5px;stroke:none;">nual crops such as rice, wheat, and maize. This is because </text>
   <text y="431.74" x="56.693,61.733,66.185,69.471,73.923,78.963,84.003,86.712,91.164,93.873,96.53,100.404,105.444,109.896,114.348,117.057,121.509,125.384,128.04,133.08,138.12,140.777,145.817,150.857,153.566,156.222,159.509,163.961,169.001,174.041,176.75,180.036,184.488,187.145,192.185,197.225,205.184,209.636,214.676,217.962,223.002,227.454,232.494,236.946,241.986,247.026,251.478,256.518,259.227,261.884,266.924,269.633,274.085,279.125,281.834,284.543,289.583,294.623" svgx:width="0.5,0.44,0.33,0.44,0.5,0.5,0.28,0.44,0.28,0.25,0.39,0.5,0.44,0.44,0.28,0.44,0.39,0.25,0.5,0.5,0.25,0.5,0.5,0.28,0.25,0.33,0.44,0.5,0.5,0.28,0.33,0.44,0.25,0.5,0.5,0.78,0.44,0.5,0.33,0.5,0.44,0.5,0.44,0.5,0.5,0.44,0.5,0.28,0.25,0.5,0.28,0.44,0.5,0.28,0.28,0.5,0.5,0.25" style="fill:rgb(0,0,0);font-family:TimesNewRomanPSMT;font-size:10.5px;stroke:none;">perennial species do not require human-dependent planting </text>
   <text y="444.739" x="56.693,61.145,65.597,68.306,71.015,76.055,78.764,81.473,86.513,88.928,92.214,99.585,104.625,107.334,111.786,116.826,120.113,128.072,132.524,137.564,142.016,145.89,149.177,154.217,157.503,161.955,166.995,169.704,174.156,176.865,179.574,184.614,189.654,192.941,197.981,201.267,204.554,207.263,212.303,216.755,220.041,223.328,228.368,231.077,236.117,239.403,243.855,247.142,252.182,257.222,261.674,266.714,271.754,276.794,281.834,286.286,290.16,294.612" svgx:width="0.44,0.44,0.28,0.28,0.5,0.28,0.28,0.5,0.25,0.25,0.72,0.5,0.28,0.44,0.5,0.25,0.78,0.44,0.5,0.44,0.39,0.25,0.5,0.33,0.44,0.5,0.28,0.44,0.28,0.28,0.5,0.5,0.25,0.5,0.33,0.25,0.28,0.5,0.44,0.25,0.33,0.5,0.28,0.5,0.33,0.44,0.25,0.5,0.5,0.44,0.5,0.5,0.5,0.5,0.44,0.39,0.44,0.25" style="fill:rgb(0,0,0);font-family:TimesNewRomanPSMT;font-size:10.5px;stroke:none;">activity, which makes prediction of the future phenophase </text>
   <text y="457.738" x="56.693,61.733,64.442,67.728,71.015,73.724,78.176,83.216,85.925,88.634,91.049,94.335,99.375,102.662,105.077,109.529,114.569,119.609,124.649,129.101,131.81,134.225,138.099,143.139,147.591,152.043,154.752,159.204,163.079,165.494" svgx:width="0.5,0.28,0.33,0.33,0.28,0.44,0.5,0.28,0.28,0.25,0.33,0.5,0.33,0.25,0.44,0.5,0.5,0.5,0.44,0.28,0.25,0.39,0.5,0.44,0.44,0.28,0.44,0.39,0.25,0.25" style="fill:rgb(0,0,0);font-family:TimesNewRomanPSMT;font-size:10.5px;stroke:none;">difficult for annual species. </text>
   <text y="470.737" x="65.198,72.663,76.632,80.003,82.796,87.93,92.466,95.837,99.218,102.011,107.145,114.611,119.147,122.528,125.321,130.455,135.59,138.96,144.095,148.631,151.424,155.96,159.929,163.299,167.835,172.97,177.506,182.64,187.775,192.311,194.82,198.191,200.984,206.118,210.654,214.025,218.561,223.695,227.076,230.457,234.993,238.962,244.097,249.231,254.366,259.5,262.293,267.428,272.562,275.933,278.726,283.262,291.305" svgx:width="0.72,0.39,0.25,0.28,0.5,0.44,0.25,0.33,0.28,0.5,0.72,0.44,0.33,0.28,0.5,0.5,0.25,0.5,0.44,0.28,0.44,0.39,0.25,0.44,0.5,0.44,0.5,0.5,0.44,0.25,0.25,0.28,0.5,0.44,0.25,0.44,0.5,0.33,0.33,0.44,0.39,0.5,0.5,0.5,0.5,0.28,0.5,0.5,0.25,0.28,0.44,0.78,0.33" style="fill:rgb(0,0,0);font-family:TimesNewRomanPSMT;font-size:10.5px;stroke:none;">As the flowering dates change, the corresponding tem-</text>
   <text y="483.736" x="56.693,62.037,66.783,70.374,75.12,78.123,83.468,87.059,91.815,94.44,95.396,100.142,105.486,110.831,113.456,114.411,118.002,122.748,125.751,131.096,134.687,139.433,142.436,145.439,148.064,149.019,153.765,159.11,164.454,169.799,172.802,175.805,178.808,184.152,189.497,193.676,196.301,197.256,200.847,206.192,209.783,212.408,213.363,216.366,221.711,226.457,229.082,230.037,235.382,240.726,244.317,249.662,254.408,259.752,262.377,263.333,268.677,273.423,277.014,280.017,285.362,290.707,294.581" svgx:width="0.5,0.44,0.33,0.44,0.28,0.5,0.33,0.44,0.25,0.55,0.44,0.5,0.5,0.25,0.55,0.33,0.44,0.28,0.5,0.33,0.44,0.28,0.28,0.25,0.55,0.44,0.5,0.5,0.5,0.28,0.28,0.28,0.5,0.5,0.39,0.25,0.55,0.33,0.5,0.33,0.25,0.55,0.28,0.5,0.44,0.25,0.55,0.5,0.5,0.33,0.5,0.44,0.5,0.25,0.55,0.5,0.44,0.33,0.28,0.5,0.5,0.39,0.25" style="fill:rgb(0,0,0);font-family:TimesNewRomanPSMT;font-size:10.5px;stroke:none;">perature and rainfall conditions for the 10-day periods </text>
   <text y="496.735" x="56.693,61.995,66.71,70.259,75.561,79.11,83.825,86.45,87.374,90.923,96.225,99.197,102.168,104.793,105.717,111.02,113.991,119.294,124.596,132.818,135.495,138.12,139.044,142.016,147.318,149.943,150.867,158.501,163.803,166.775,171.489,176.792,179.417,180.341,183.312,188.615,193.329,195.954,196.878,204.512,211.568,218.624,221.249,222.173,227.475,232.19,235.161,240.464,245.766,251.069,255.783,261.086,263.711,264.635,272.268,275.24,278.211,281.183,283.808,284.732,290.034,294.486" svgx:width="0.5,0.44,0.33,0.5,0.33,0.44,0.25,0.55,0.33,0.5,0.28,0.28,0.25,0.55,0.5,0.28,0.5,0.5,0.78,0.25,0.25,0.55,0.28,0.5,0.25,0.55,0.72,0.5,0.28,0.44,0.5,0.25,0.55,0.28,0.5,0.44,0.25,0.55,0.72,0.67,0.67,0.25,0.55,0.5,0.44,0.28,0.5,0.5,0.5,0.44,0.5,0.25,0.55,0.72,0.28,0.28,0.28,0.25,0.55,0.5,0.44,0.25" style="fill:rgb(0,0,0);font-family:TimesNewRomanPSMT;font-size:10.5px;stroke:none;">before full bloom, to which the KBB pathogen will be </text>
   <text y="509.734" x="56.693,61.176,66.248,71.319,76.391,80.297,84.78,89.852,92.298,95.606,103.008,107.492,110.81,115.293,118.601,123.084,126.99,130.896,135.968,143.958,148.442,153.513,156.821,159.561,164.633,167.94,172.424,177.495,181.979,187.05,192.122,196.605,199.913,204.396,208.88,213.363,218.435,221.753,226.824,229.565,234.636,239.708,242.448,247.52,249.966,253.274,256.592,261.663,264.971,269.454,272.762,276.668,279.408,284.48,289.551,294.591" svgx:width="0.44,0.5,0.5,0.5,0.39,0.44,0.5,0.25,0.25,0.72,0.44,0.33,0.44,0.25,0.44,0.39,0.39,0.5,0.78,0.44,0.5,0.25,0.28,0.5,0.25,0.44,0.5,0.44,0.5,0.5,0.44,0.25,0.44,0.44,0.44,0.5,0.33,0.5,0.28,0.5,0.5,0.28,0.5,0.25,0.25,0.33,0.5,0.25,0.44,0.25,0.39,0.28,0.5,0.5,0.5,0.25" style="fill:rgb(0,0,0);font-family:TimesNewRomanPSMT;font-size:10.5px;stroke:none;">exposed, were assumed to change accordingly. In a study </text>
   <text y="522.733" x="56.693,61.733,66.773,70.038,76.244,81.284,85.736,89.022,93.474,96.183,98.892,102.158,106.61,111.65,116.69,119.955,127.326,131.778,136.818,140.693,145.733,150.185,152.894,155.603,158.868,162.155,167.195,172.235,177.275,182.315,185.601,188.016,191.282,193.991,198.443,206.402,211.442,215.894,219.18,223.632,226.341,231.381,234.668,239.12,241.535,244.8,248.087,252.539,255.248,260.288,263.574,268.026,270.735,273.444,275.859,279.125,282.411,286.863,289.572,294.612" svgx:width="0.5,0.5,0.25,0.61,0.5,0.44,0.33,0.44,0.28,0.28,0.25,0.44,0.5,0.5,0.25,0.72,0.44,0.5,0.39,0.5,0.44,0.28,0.28,0.25,0.33,0.5,0.5,0.5,0.5,0.33,0.25,0.25,0.28,0.44,0.78,0.5,0.44,0.33,0.44,0.28,0.5,0.33,0.44,0.25,0.25,0.33,0.44,0.28,0.5,0.33,0.44,0.28,0.28,0.25,0.25,0.33,0.44,0.28,0.5,0.25" style="fill:rgb(0,0,0);font-family:TimesNewRomanPSMT;font-size:10.5px;stroke:none;">by Everett and Henshall (1994), temperature, rainfall, rain </text>
   <text y="535.732" x="56.693,61.733,66.773,70.059,74.511,77.22,79.929,84.969,90.009,92.424,95.207,99.659,104.699,109.739,112.521,115.808,118.517,123.557,130.928,135.38,138.666,141.449,148.82,153.272,155.981,161.021,165.473,169.347,173.222,176.004,183.375,187.827,191.114,195.566,198.348,202.8,207.84,212.88,216.755,219.464,224.504,228.956,232.242,236.694,241.734,244.517,247.226,252.266,255.048,260.088,264.54,267.323,270.032,277.991,283.031,288.071,291.357" svgx:width="0.5,0.5,0.33,0.44,0.28,0.28,0.5,0.5,0.25,0.25,0.44,0.5,0.5,0.25,0.33,0.28,0.5,0.72,0.44,0.33,0.25,0.72,0.44,0.28,0.5,0.44,0.39,0.39,0.25,0.72,0.44,0.33,0.44,0.25,0.44,0.5,0.5,0.39,0.28,0.5,0.44,0.33,0.44,0.5,0.25,0.28,0.5,0.25,0.5,0.44,0.25,0.28,0.78,0.5,0.5,0.33,0.33" style="fill:rgb(0,0,0);font-family:TimesNewRomanPSMT;font-size:10.5px;stroke:none;">duration, and flower wetness were considered to be impor-</text>
   <text y="548.731" x="56.693,59.402,63.854,68.894,71.603,74.385,79.425,83.877,86.586,91.038,94.325,102.284,104.993,110.033,114.485,119.525,122.234,126.108,128.891,132.177,137.217,140.504,143.286,145.995,151.035,155.487,158.27,160.979,166.019,170.471,173.18,178.22,182.672,187.712,192.164,196.616,199.388,204.428,207.714,210.486,217.857,224.651,231.444,234.227,238.679,243.719,246.428,251.468,255.92,263.879,266.588,271.04,273.455,276.237,281.865,286.317,291.357" svgx:width="0.28,0.44,0.5,0.28,0.25,0.5,0.44,0.28,0.44,0.33,0.78,0.28,0.5,0.44,0.5,0.28,0.39,0.25,0.33,0.5,0.33,0.25,0.28,0.5,0.44,0.25,0.28,0.5,0.44,0.28,0.5,0.44,0.5,0.44,0.44,0.25,0.5,0.33,0.25,0.72,0.67,0.67,0.25,0.44,0.5,0.28,0.5,0.44,0.78,0.28,0.44,0.25,0.25,0.56,0.44,0.5,0.33" style="fill:rgb(0,0,0);font-family:TimesNewRomanPSMT;font-size:10.5px;stroke:none;">tant determinants for the incidence of KBB epidemic. Pen-</text>
   <text y="561.73" x="56.693,61.722,66.752,71.193,76.223,81.252,86.282,88.686,93.128,98.157,103.187,105.591,111.786,115.062,117.761,122.79,127.82,131.684,134.088,137.364,142.394,147.423,152.453,157.482,160.758,163.163,167.027,172.056,177.086,184.446,188.888,193.917,196.322,199.02,204.05,208.491,211.19,213.594,216.87,221.312,224.01,229.04,232.316,236.757,239.456,242.154,244.559,247.257,255.206,263.154,267.596,272.625,275.324,279.765,282.464,286.905,289.604,294.644" svgx:width="0.5,0.5,0.44,0.5,0.5,0.5,0.25,0.44,0.5,0.5,0.25,0.61,0.33,0.28,0.5,0.5,0.39,0.25,0.33,0.5,0.5,0.5,0.5,0.33,0.25,0.39,0.5,0.5,0.72,0.44,0.5,0.25,0.28,0.5,0.44,0.28,0.25,0.33,0.44,0.28,0.5,0.33,0.44,0.28,0.28,0.25,0.28,0.78,0.78,0.44,0.5,0.28,0.44,0.28,0.44,0.28,0.5,0.25" style="fill:rgb(0,0,0);font-family:TimesNewRomanPSMT;font-size:10.5px;stroke:none;">nycook and Triggs (1991) showed that rainfall immediately </text>
   <text y="574.729" x="56.693,61.764,66.248,69.566,74.637,77.955,82.439,85.746,90.23,95.301,100.373,103.68,108.752,113.823,117.141,119.882,124.953,130.025,133.332,136.073,141.144,145.628,148.935,152.253,154.994,160.065,167.468,171.951,175.269,178.01,183.081,188.153,191.46,196.532,201.015,204.333,207.074,212.145,217.217,220.524,227.927,232.41,236.316,239.624,244.695,248.013,251.321,256.392,260.876,264.194,268.677,276.668,281.739,286.811,291.882,294.591" svgx:width="0.5,0.44,0.33,0.5,0.33,0.44,0.25,0.44,0.5,0.5,0.25,0.5,0.5,0.33,0.28,0.5,0.5,0.25,0.28,0.5,0.44,0.25,0.33,0.28,0.5,0.72,0.44,0.33,0.28,0.5,0.5,0.25,0.5,0.44,0.33,0.28,0.5,0.5,0.25,0.72,0.44,0.39,0.25,0.5,0.33,0.25,0.5,0.44,0.33,0.44,0.78,0.5,0.5,0.5,0.28,0.25" style="fill:rgb(0,0,0);font-family:TimesNewRomanPSMT;font-size:10.5px;stroke:none;">before and during the flowering period was of paramount </text>
   <text y="587.728" x="56.693,59.507,67.571,72.716,77.861,81.252,84.066,88.623,93.768,98.325,102.882,106.274,110.831,115.976,121.121,124.512,129.657,134.214,137.028,141.585,144.977,153.041,155.855,161.0,165.557,170.702,174.093,176.907,182.052,186.609,190.001,195.146,197.96,201.351,204.743,209.3,212.691,217.248,222.393,226.95,231.507,235.487,238.878,241.692,246.837,250.229,254.219,258.776,263.921,268.478,271.869,274.683,277.497,282.642,286.034,291.179,294.465" svgx:width="0.28,0.78,0.5,0.5,0.33,0.28,0.44,0.5,0.44,0.44,0.25,0.44,0.5,0.5,0.25,0.5,0.44,0.28,0.44,0.33,0.78,0.28,0.5,0.44,0.5,0.25,0.28,0.5,0.44,0.25,0.5,0.28,0.33,0.33,0.44,0.33,0.44,0.5,0.44,0.44,0.39,0.25,0.28,0.5,0.25,0.39,0.44,0.5,0.44,0.33,0.28,0.28,0.5,0.25,0.5,0.33,0.25" style="fill:rgb(0,0,0);font-family:TimesNewRomanPSMT;font-size:10.5px;stroke:none;">importance and determined the differences in severity of </text>
   <text y="600.727" x="56.693,64.064,70.857,77.651,80.265,85.305,89.757,92.466,99.837,104.289,108.741,113.781,116.406,120.281,124.733,129.185,133.059,138.099,143.139,147.014,149.429,152.054,157.682,160.391,165.431,169.883,174.335,176.949,180.236,184.688,187.397,192.437,195.723,200.175,202.884,205.593,208.208,213.248,218.288,221.574,224.283,229.323,234.363,236.988,240.275,242.984,248.024,255.395,259.847,263.133,265.842,270.882,275.922,278.547,283.587,286.874,291.326" svgx:width="0.72,0.67,0.67,0.25,0.5,0.44,0.28,0.72,0.44,0.44,0.5,0.25,0.39,0.44,0.44,0.39,0.5,0.5,0.39,0.25,0.25,0.56,0.28,0.5,0.44,0.44,0.25,0.33,0.44,0.28,0.5,0.33,0.44,0.28,0.28,0.25,0.5,0.5,0.33,0.28,0.5,0.5,0.25,0.33,0.28,0.5,0.72,0.44,0.33,0.28,0.5,0.5,0.25,0.5,0.33,0.44,0.33" style="fill:rgb(0,0,0);font-family:TimesNewRomanPSMT;font-size:10.5px;stroke:none;">KBB between seasons. Since rainfall during flowering pre-</text>
   <text y="613.726" x="56.693,61.733,64.442,68.316,73.356,78.396,82.271,86.723,90.597,93.285,98.325,101.034,108.405,111.114,114.401,117.687,122.727,125.436,128.145,130.833,133.542,138.582,141.27,146.31,149.019,152.894,157.346,161.798,165.672,170.124,173.999,176.414,179.102,181.811,186.851,190.725,193.434,197.886,200.595,203.304,207.756,210.465,213.174,218.214,223.254,225.942,230.982,234.269,236.957,240.243,244.695,247.404,252.444,257.484,260.771,265.811,270.851,274.137,276.825,281.277,286.317,291.357" svgx:width="0.5,0.28,0.39,0.5,0.5,0.39,0.44,0.39,0.25,0.5,0.28,0.72,0.28,0.33,0.33,0.5,0.28,0.28,0.25,0.28,0.5,0.25,0.5,0.28,0.39,0.44,0.44,0.39,0.44,0.39,0.25,0.25,0.28,0.5,0.39,0.28,0.44,0.28,0.28,0.44,0.28,0.28,0.5,0.5,0.25,0.5,0.33,0.25,0.33,0.44,0.28,0.5,0.5,0.33,0.5,0.5,0.33,0.25,0.44,0.5,0.5,0.33" style="fill:rgb(0,0,0);font-family:TimesNewRomanPSMT;font-size:10.5px;stroke:none;">disposes kiwifruit to diseases, installation of rainproof cov-</text>
   <text y="626.725" x="56.693,61.145,64.431,68.306,71.54,79.499,83.951,88.991,92.225,96.677,101.717,106.757,109.466,112.752,115.461,120.501,125.541,128.25,132.702,135.936,138.645,143.685,146.919,150.206,154.658,159.698,164.738,169.19,173.642,178.682,181.916,186.956,189.665,193.539,197.991,202.443,206.318,210.77,214.004,217.878,222.33,227.37,231.822,235.109,237.818,240.527,245.567,248.801,251.51,256.55,259.784,264.824,267.533,274.904,277.613,280.899,284.186,289.226,291.935,294.644" svgx:width="0.44,0.33,0.39,0.25,0.78,0.44,0.5,0.25,0.44,0.5,0.5,0.28,0.33,0.28,0.5,0.5,0.28,0.44,0.25,0.28,0.5,0.25,0.33,0.44,0.5,0.5,0.44,0.44,0.5,0.25,0.5,0.28,0.39,0.44,0.44,0.39,0.44,0.25,0.39,0.44,0.5,0.44,0.33,0.28,0.28,0.5,0.25,0.28,0.5,0.25,0.5,0.28,0.72,0.28,0.33,0.33,0.5,0.28,0.28,0.25" style="fill:rgb(0,0,0);font-family:TimesNewRomanPSMT;font-size:10.5px;stroke:none;">ers may contribute to reduced disease severity in kiwifruit </text>
   <text y="639.724" x="56.693,61.733,65.019,69.471,74.511,78.963,82.25,87.29,91.164,93.579,96.183,101.811,104.52,112.479,115.188,117.897,122.349,125.636,128.24,130.949,135.989,138.593,141.879,146.331,149.04,154.08,157.367,161.819,164.528,167.237,169.652,172.256,174.965,179.417,187.376,192.416,196.868,200.154,204.606,207.315,212.355,215.642,220.094,222.698,227.15,230.436,233.723,238.175,242.627,245.336,249.21,251.814,256.854,261.894,266.934,271.974,274.683,279.135,281.844,284.553,289.593,294.633" svgx:width="0.5,0.33,0.44,0.5,0.44,0.33,0.5,0.39,0.25,0.25,0.56,0.28,0.78,0.28,0.28,0.44,0.33,0.25,0.28,0.5,0.25,0.33,0.44,0.28,0.5,0.33,0.44,0.28,0.28,0.25,0.25,0.28,0.44,0.78,0.5,0.44,0.33,0.44,0.28,0.5,0.33,0.44,0.25,0.44,0.33,0.33,0.44,0.44,0.28,0.39,0.25,0.5,0.5,0.5,0.5,0.28,0.44,0.28,0.28,0.5,0.5,0.25" style="fill:rgb(0,0,0);font-family:TimesNewRomanPSMT;font-size:10.5px;stroke:none;">orchards. Similar to rainfall, temperature affects population </text>
   <text y="652.723" x="56.693,61.764,66.836,71.907,76.391,84.381,87.122,91.605,95.511,98.829,103.901,107.219,110.537,113.277,118.349,122.832,126.15,131.222,135.705,140.189,142.929,147.413,150.731,153.471,157.955,160.695,164.013,169.085,173.568,176.309,181.38,186.452,191.523,196.007,201.078,204.396,209.468,212.786,216.104,223.506,230.331,237.156,240.474,244.958,250.029,255.101,258.419,261.159,263.9,267.806,271.124,273.864,278.936,282.254,286.737,291.221" svgx:width="0.5,0.5,0.5,0.44,0.78,0.28,0.44,0.39,0.25,0.5,0.33,0.25,0.28,0.5,0.44,0.25,0.5,0.44,0.44,0.28,0.44,0.33,0.28,0.44,0.28,0.25,0.5,0.44,0.28,0.5,0.5,0.5,0.44,0.5,0.25,0.5,0.33,0.25,0.72,0.67,0.67,0.25,0.44,0.5,0.5,0.25,0.28,0.28,0.39,0.25,0.28,0.5,0.33,0.44,0.44,0.33" style="fill:rgb(0,0,0);font-family:TimesNewRomanPSMT;font-size:10.5px;stroke:none;">dynamics of the bacterial pathogen of KBB and its infec-</text>
   <text y="665.722" x="56.693,59.528,62.363,67.529,72.695,76.097,81.263,84.675,89.841,94.419,98.997,102.998,106.998,111.576,115.577,118.118,121.52,127.851,133.017,137.595,140.997,146.751,149.586,154.164,159.33,162.165,165.567,170.145,175.311,180.477,183.879,189.633,194.799,199.965,205.131,208.533,215.453,220.031,224.031,228.609,233.187,236.6,241.178,246.344,249.746,253.158,258.324,262.325,265.16,267.995,270.83,275.996,278.831,283.409,286.811,289.646,294.686" svgx:width="0.28,0.28,0.5,0.5,0.25,0.5,0.33,0.5,0.44,0.44,0.39,0.39,0.44,0.39,0.25,0.25,0.61,0.5,0.44,0.25,0.56,0.28,0.44,0.5,0.28,0.25,0.44,0.5,0.5,0.25,0.56,0.5,0.5,0.5,0.25,0.67,0.44,0.39,0.44,0.44,0.33,0.44,0.5,0.25,0.33,0.5,0.39,0.28,0.28,0.28,0.5,0.28,0.44,0.25,0.28,0.5,0.25" style="fill:rgb(0,0,0);font-family:TimesNewRomanPSMT;font-size:10.5px;stroke:none;">tion processes. The Plant and Food Research Institute in </text>
   <text y="678.721" x="56.693,64.064,68.516,75.887,78.543,84.749,89.201,93.653,96.362,100.814,105.854,110.894,113.55,116.837,121.289,126.329,131.369,134.655,137.364,141.816,146.856,149.513,152.222,157.262,159.918,162.627,165.336,169.211,171.867,176.907,181.947,184.656,187.365,191.817,194.526,197.235,202.275,204.932,209.384,212.04,217.08,220.367,224.819,229.859,232.568,237.02,239.729,242.438,247.478,252.518,255.174,263.133,268.173,273.213,277.665,280.374,283.031,286.317,291.357,294.644" svgx:width="0.72,0.44,0.72,0.25,0.61,0.44,0.44,0.28,0.44,0.5,0.5,0.25,0.33,0.44,0.5,0.5,0.33,0.28,0.44,0.5,0.25,0.28,0.5,0.25,0.28,0.28,0.39,0.25,0.5,0.5,0.28,0.28,0.44,0.28,0.28,0.5,0.25,0.44,0.25,0.5,0.33,0.44,0.5,0.28,0.44,0.28,0.28,0.5,0.5,0.25,0.78,0.5,0.5,0.44,0.28,0.25,0.33,0.5,0.33,0.25" style="fill:rgb(0,0,0);font-family:TimesNewRomanPSMT;font-size:10.5px;stroke:none;">New Zealand reported in its bulletin a prediction model for </text>
   <text y="691.72" x="56.693,64.148,71.025,77.903,81.263,85.221,89.757,94.881,99.417,102.788,105.581,108.374,113.498,116.858,121.982,126.518,130.476,135.012,140.136,143.496,148.62,153.744,157.104,159.897,164.433,172.476,177.6,182.136,185.507,190.043,192.836,197.96,201.33,205.866,209.226,214.35,218.886,221.679,226.215,229.575,234.111,239.235,244.359,248.895,252.266,255.059,260.183,265.307,268.667,271.46,276.584,281.12,284.48,289.604,294.644" svgx:width="0.72,0.67,0.67,0.25,0.39,0.44,0.5,0.44,0.33,0.28,0.28,0.5,0.25,0.5,0.44,0.39,0.44,0.5,0.25,0.5,0.5,0.25,0.28,0.44,0.78,0.5,0.44,0.33,0.44,0.28,0.5,0.33,0.44,0.25,0.5,0.44,0.28,0.44,0.25,0.44,0.5,0.5,0.44,0.33,0.28,0.5,0.5,0.25,0.28,0.5,0.44,0.25,0.5,0.5,0.25" style="fill:rgb(0,0,0);font-family:TimesNewRomanPSMT;font-size:10.5px;stroke:none;">KBB severity based on temperature data covering the 10 </text>
   <text y="704.719" x="56.693,61.775,66.269,71.351,75.267,78.596,83.678,88.172,91.5,96.582,99.911,104.405,107.733,112.815,117.897,122.391,125.72,130.802,135.296,138.624,143.118,147.612,152.694,155.445,158.774,163.856,167.184,170.513,175.595,178.346,185.759,188.51,191.838,195.167,200.249,203.0,205.751,209.079,214.161,216.913,221.995,226.489,230.405,233.734,238.816,243.31,248.392,252.886,256.214,259.543,262.294,267.376,274.789,279.283,282.611,287.105,292.187,294.602" svgx:width="0.5,0.44,0.5,0.39,0.25,0.5,0.44,0.33,0.5,0.33,0.44,0.25,0.5,0.5,0.44,0.25,0.5,0.44,0.33,0.44,0.44,0.5,0.28,0.25,0.5,0.33,0.25,0.5,0.28,0.72,0.28,0.33,0.33,0.5,0.28,0.28,0.25,0.5,0.28,0.5,0.44,0.39,0.25,0.5,0.44,0.5,0.44,0.25,0.33,0.28,0.5,0.72,0.44,0.33,0.44,0.5,0.25,0.25" style="fill:rgb(0,0,0);font-family:TimesNewRomanPSMT;font-size:10.5px;stroke:none;">days before one percent of kiwifruit vines have flowered, </text>
   <text y="717.718" x="56.693,59.402,64.442,69.482,72.191,76.643,81.095,83.804,86.513,91.553,96.593,99.155,101.864,106.904,111.356,114.065,116.627,119.336,124.376,128.828,131.39,134.099,138.551,146.51,151.55,156.002,159.288,163.74,166.449,171.489,174.776,179.228,181.79,186.83,191.282,194.568,199.608,202.895,207.347,209.909,214.361,219.401,224.441,227.003,232.043,237.083,240.369,243.078,248.118,253.158,255.72,259.007,261.716,266.756,274.127,278.579,281.865,284.574,289.614,294.654" svgx:width="0.28,0.5,0.5,0.28,0.44,0.44,0.28,0.28,0.5,0.5,0.25,0.28,0.5,0.44,0.28,0.25,0.28,0.5,0.44,0.25,0.28,0.44,0.78,0.5,0.44,0.33,0.44,0.28,0.5,0.33,0.44,0.25,0.5,0.44,0.33,0.5,0.33,0.44,0.25,0.44,0.5,0.5,0.25,0.5,0.5,0.33,0.28,0.5,0.5,0.25,0.33,0.28,0.5,0.72,0.44,0.33,0.28,0.5,0.5,0.25" style="fill:rgb(0,0,0);font-family:TimesNewRomanPSMT;font-size:10.5px;stroke:none;">indicating that the temperature before and during flowering </text>
   <text y="730.717" x="56.693,61.145,64.431,67.718,72.17,76.622,79.331,81.746,86.786,89.495,93.369,97.821,102.273,106.148,110.6,113.015,118.055,122.507,127.547,131.999,134.708,139.748,144.788,152.747,157.199,162.239,164.948,167.363,170.649,176.855,181.895,186.347,189.633,194.085,196.794,199.503,201.918,206.37,211.41,216.45,218.865,226.236,230.688,235.728,239.603,244.643,249.095,251.804,254.513,256.928,259.343,264.383,269.423,274.463,279.503,282.789,285.204" svgx:width="0.44,0.33,0.33,0.44,0.44,0.28,0.25,0.5,0.28,0.39,0.44,0.44,0.39,0.44,0.25,0.5,0.44,0.5,0.44,0.28,0.5,0.5,0.78,0.44,0.5,0.28,0.25,0.33,0.61,0.5,0.44,0.33,0.44,0.28,0.28,0.25,0.44,0.5,0.5,0.25,0.72,0.44,0.5,0.39,0.5,0.44,0.28,0.28,0.25,0.25,0.5,0.5,0.5,0.5,0.33,0.25,0.25" style="fill:rgb(0,0,0);font-family:TimesNewRomanPSMT;font-size:10.5px;stroke:none;">affect disease development (Everett and Henshall, 2012). </text>
   <text y="93.713" x="323.151,329.567,334.817,339.479,342.104,342.965,348.803,352.887,356.972,360.468,368.049,375.053,382.056,384.681,385.542,392.546,395.465,399.549,404.799,407.424,408.285,417.62,422.87,428.12,432.782,435.701,438.326,439.187,444.437,449.099,453.183,455.808,456.669,461.331,463.956,464.817,468.314,472.976,475.895,481.145,484.641,489.303,492.212,495.131,497.756,498.617,502.113,507.363,512.613,517.275,520.194,523.113,528.363,533.613,536.238,537.099,540.008,545.258,549.92,552.629" svgx:width="0.61,0.5,0.44,0.25,0.55,0.56,0.39,0.39,0.33,0.72,0.67,0.67,0.25,0.55,0.67,0.28,0.39,0.5,0.25,0.55,0.89,0.5,0.5,0.44,0.28,0.25,0.55,0.5,0.44,0.39,0.25,0.55,0.44,0.25,0.55,0.33,0.44,0.28,0.5,0.33,0.44,0.28,0.28,0.25,0.55,0.33,0.5,0.5,0.44,0.28,0.28,0.5,0.5,0.25,0.55,0.28,0.5,0.44,0.28,0.25" style="fill:rgb(0,0,0);font-family:TimesNewRomanPSMT;font-size:10.5px;stroke:none;">The Pss-KBB Risk Model has a rainfall function that </text>
   <text y="106.712" x="314.646,319.686,324.138,329.178,333.63,336.917,341.369,344.078,348.53,352.404,355.187,359.639,362.421,365.13,369.582,377.541,382.581,387.033,390.32,394.772,397.481,402.521,405.807,410.259,413.546,418.586,423.038,428.078,432.53,437.57,442.61,447.062,452.102,454.811,457.594,462.634,467.086,469.795,472.504,477.544,480.326,483.613,486.322,490.196,495.236,498.019,501.893,506.345,511.385,514.672,519.124,521.906,526.946,531.986,534.695,539.735,542.518,547.557,552.597" svgx:width="0.5,0.44,0.5,0.44,0.33,0.44,0.28,0.44,0.39,0.25,0.44,0.25,0.28,0.44,0.78,0.5,0.44,0.33,0.44,0.28,0.5,0.33,0.44,0.33,0.5,0.44,0.5,0.44,0.5,0.5,0.44,0.5,0.28,0.25,0.5,0.44,0.28,0.28,0.5,0.25,0.33,0.28,0.39,0.5,0.25,0.39,0.44,0.5,0.33,0.44,0.25,0.5,0.5,0.28,0.5,0.25,0.5,0.5,0.25" style="fill:rgb(0,0,0);font-family:TimesNewRomanPSMT;font-size:10.5px;stroke:none;">generates a temperature-dependent daily risk score only on </text>
   <text y="119.711" x="314.646,317.985,322.479,325.23,330.323,335.415,338.744,343.836,348.33,353.423,357.35,359.817,363.146,365.897,369.236,373.73,378.822,382.749,385.5,389.994,392.745,395.496,400.589,405.681,409.01,411.761,416.853,421.347,424.676,427.427,431.921,439.922,445.014,449.508,452.847,457.341,460.092,465.185,468.524,473.018,476.346,480.84,485.933,491.025,494.354,497.693,502.187,504.938,510.03,513.369,517.863,520.614,523.365,526.694,531.188,536.28,541.373,546.465,549.258" svgx:width="0.33,0.44,0.28,0.5,0.5,0.25,0.5,0.44,0.5,0.39,0.25,0.25,0.28,0.33,0.44,0.5,0.39,0.28,0.44,0.28,0.28,0.5,0.5,0.25,0.28,0.5,0.44,0.25,0.28,0.44,0.78,0.5,0.44,0.33,0.44,0.28,0.5,0.33,0.44,0.25,0.44,0.5,0.5,0.25,0.33,0.44,0.28,0.5,0.33,0.44,0.28,0.28,0.25,0.44,0.5,0.5,0.5,0.28,0.33" style="fill:rgb(0,0,0);font-family:TimesNewRomanPSMT;font-size:10.5px;stroke:none;">rainy days, translating the temperature and rainfall condi-</text>
   <text y="132.71" x="314.646,317.397,320.148,325.23,330.312,334.229,337.557,340.886,345.968,349.296,352.625,355.376,360.458,364.952,368.28,373.362,378.444,381.773,386.855,391.349,396.431,399.759,404.841,409.335,412.664,415.415,420.497,425.579,428.907,433.989,438.483,441.812,446.894,450.222,454.716,458.045,461.373,466.455,469.206,471.957,475.286,480.368,483.119,488.201,493.283,501.284,504.612,507.363,512.445,515.196,520.278,523.607,528.101,531.429,538.842,545.678,552.471" svgx:width="0.28,0.28,0.5,0.5,0.39,0.25,0.33,0.5,0.33,0.25,0.28,0.5,0.44,0.25,0.5,0.5,0.33,0.5,0.44,0.5,0.25,0.5,0.44,0.33,0.28,0.5,0.5,0.25,0.5,0.44,0.33,0.5,0.33,0.44,0.25,0.33,0.5,0.28,0.28,0.25,0.5,0.28,0.5,0.5,0.78,0.25,0.28,0.5,0.28,0.5,0.25,0.44,0.25,0.72,0.67,0.67,0.25" style="fill:rgb(0,0,0);font-family:TimesNewRomanPSMT;font-size:10.5px;stroke:none;">tions for the 10-day period before full bloom into a KBB </text>
   <text y="145.709" x="314.646,317.954,320.684,324.59,329.651,332.958,336.864,341.337,346.398,349.706,354.179,357.486,360.794,368.196,370.926,378.906,382.214,386.687,391.748,396.809,400.116,407.519,412.58,417.641,420.077,423.384,428.445,433.506,438.567,443.628,446.936,449.372,452.679,455.987,461.048,466.109,470.582,475.055,480.116,482.552,485.859,488.589,493.65,498.123,501.431,505.904,510.965,518.945,524.006,528.479,531.786,534.516,538.422,543.483,548.544,552.419" svgx:width="0.33,0.28,0.39,0.5,0.25,0.39,0.44,0.5,0.33,0.44,0.25,0.33,0.72,0.28,0.78,0.25,0.44,0.5,0.5,0.25,0.72,0.5,0.5,0.25,0.25,0.5,0.5,0.5,0.5,0.33,0.25,0.25,0.33,0.5,0.5,0.44,0.44,0.5,0.25,0.25,0.28,0.5,0.44,0.25,0.44,0.5,0.78,0.5,0.44,0.33,0.28,0.39,0.5,0.5,0.39,0.25" style="fill:rgb(0,0,0);font-family:TimesNewRomanPSMT;font-size:10.5px;stroke:none;">risk score (Kim and Koh, 2015). Indeed, the comparisons </text>
   <text y="158.708" x="314.646,319.875,324.516,327.414,334.974,339.615,344.256,349.485,352.11,352.961,355.859,361.088,365.729,368.354,369.204,376.764,383.747,390.729,393.354,394.205,397.68,400.578,404.642,409.871,413.934,416.559,417.41,422.051,427.28,432.509,435.134,435.984,441.213,446.442,449.34,454.569,457.194,458.045,466.193,470.834,475.475,480.704,483.329,484.179,487.077,491.718,499.866,505.095,509.736,513.212,517.853,520.751,525.98,529.456,534.096,536.721,537.572,542.213,547.442,552.482" svgx:width="0.5,0.44,0.28,0.72,0.44,0.44,0.5,0.25,0.55,0.28,0.5,0.44,0.25,0.55,0.72,0.67,0.67,0.25,0.55,0.33,0.28,0.39,0.5,0.39,0.25,0.55,0.44,0.5,0.5,0.25,0.55,0.5,0.5,0.28,0.5,0.25,0.55,0.78,0.44,0.44,0.5,0.25,0.55,0.28,0.44,0.78,0.5,0.44,0.33,0.44,0.28,0.5,0.33,0.44,0.25,0.55,0.44,0.5,0.5,0.25" style="fill:rgb(0,0,0);font-family:TimesNewRomanPSMT;font-size:10.5px;stroke:none;">between the KBB risks and both mean temperature and </text>
   <text y="171.707" x="314.646,318.027,322.574,325.377,330.512,333.893,338.439,341.243,344.046,347.417,350.798,354.179,358.725,363.86,368.994,373.541,378.675,383.222,386.015,390.561,394.53,397.901,403.035,408.17,411.551,414.354,419.489,424.623,427.994,430.797,435.932,440.478,443.849,448.983,454.118,457.499,462.633,467.18,472.314,475.685,480.819,485.366,488.747,491.551,496.685,501.819,505.788,509.159,514.294,518.84,522.221,527.356,530.737,535.283,538.654,542.034,547.169,549.973,552.682" svgx:width="0.33,0.44,0.28,0.5,0.33,0.44,0.28,0.28,0.25,0.33,0.33,0.44,0.5,0.5,0.44,0.5,0.44,0.28,0.44,0.39,0.25,0.5,0.5,0.33,0.28,0.5,0.5,0.25,0.28,0.5,0.44,0.25,0.5,0.5,0.33,0.5,0.44,0.5,0.25,0.5,0.44,0.33,0.28,0.5,0.5,0.39,0.25,0.5,0.44,0.33,0.5,0.33,0.44,0.25,0.33,0.5,0.28,0.28,0.25" style="fill:rgb(0,0,0);font-family:TimesNewRomanPSMT;font-size:10.5px;stroke:none;">rainfall frequencies during the 10-day periods before full </text>
   <text y="184.706" x="314.646,319.781,322.584,327.719,332.853,340.907,344.277,347.081,352.215,355.586,358.389,363.524,368.07,371.441,374.822,379.956,382.76,387.894,391.275,395.822,399.192,404.327,408.873,412.254,415.058,420.192,425.327,429.296,432.666,436.047,440.594,445.728,450.275,454.821,457.625,462.171,467.306,470.676,473.48,478.614,483.161,485.964,489.335,492.138,497.273,501.819,505.19,508.571,513.117,515.921,521.056,524.437,528.983,531.787,534.59,537.961,541.342,544.723,549.269" svgx:width="0.5,0.28,0.5,0.5,0.78,0.25,0.28,0.5,0.25,0.28,0.5,0.44,0.25,0.33,0.5,0.28,0.5,0.33,0.44,0.25,0.5,0.44,0.33,0.28,0.5,0.5,0.39,0.25,0.33,0.44,0.5,0.44,0.44,0.28,0.44,0.5,0.25,0.28,0.5,0.44,0.28,0.25,0.28,0.5,0.44,0.25,0.33,0.44,0.28,0.5,0.33,0.44,0.28,0.28,0.25,0.33,0.33,0.44,0.33" style="fill:rgb(0,0,0);font-family:TimesNewRomanPSMT;font-size:10.5px;stroke:none;">bloom in the future periods revealed that the rainfall fre-</text>
   <text y="197.706" x="314.646,319.991,325.335,330.081,335.426,340.172,345.516,348.141,349.097,353.843,359.188,364.532,367.535,372.281,375.284,380.629,385.375,390.709,393.334,394.289,402.542,407.887,412.633,417.977,420.602,421.558,426.902,430.493,433.118,434.074,437.077,442.421,447.167,449.792,450.748,456.092,460.838,464.429,467.432,472.178,475.181,478.184,483.529,488.873,491.498,492.454,495.457,500.801,503.426,504.382,512.057,519.155,526.253,528.878,529.834,533.425,536.428,540.607,545.951,550.13,552.545" svgx:width="0.5,0.5,0.44,0.5,0.44,0.5,0.25,0.55,0.44,0.5,0.5,0.28,0.44,0.28,0.5,0.44,0.5,0.25,0.55,0.78,0.5,0.44,0.5,0.25,0.55,0.5,0.33,0.25,0.55,0.28,0.5,0.44,0.25,0.55,0.5,0.44,0.33,0.28,0.44,0.28,0.28,0.5,0.5,0.25,0.55,0.28,0.5,0.25,0.55,0.72,0.67,0.67,0.25,0.55,0.33,0.28,0.39,0.5,0.39,0.25,0.25" style="fill:rgb(0,0,0);font-family:TimesNewRomanPSMT;font-size:10.5px;stroke:none;">quency explained much of the variation in KBB risks, </text>
   <text y="210.705" x="314.646,322.049,327.12,329.861,332.601,337.085,340.403,343.143,348.215,352.698,356.016,360.5,363.818,367.136,371.619,376.103,378.843,382.161,387.233,390.551,393.869,401.859,406.343,410.826,415.898,419.216,421.956,426.44,434.43,439.502,443.985,447.303,451.787,454.527,459.599,462.917,467.4,470.718,478.121,482.604,486.51,489.828,494.9,499.383,504.455,507.195,509.936,515.007,517.748,522.819,525.56,530.043,533.361,536.679,542.339,545.079,550.151,552.566" svgx:width="0.72,0.5,0.28,0.28,0.44,0.25,0.28,0.5,0.44,0.25,0.44,0.33,0.33,0.44,0.44,0.28,0.25,0.5,0.33,0.25,0.78,0.44,0.44,0.5,0.25,0.28,0.44,0.78,0.5,0.44,0.33,0.44,0.28,0.5,0.33,0.44,0.25,0.72,0.44,0.39,0.25,0.5,0.44,0.5,0.28,0.28,0.5,0.28,0.5,0.28,0.44,0.25,0.33,0.56,0.28,0.5,0.25,0.25" style="fill:rgb(0,0,0);font-family:TimesNewRomanPSMT;font-size:10.5px;stroke:none;">while the effect of mean temperature was negligible (Fig. </text>
   <text y="223.704" x="314.646,319.686,322.973,325.388,328.349,335.72,340.76,348.131,352.583,357.623,362.075,365.361,367.776,370.737,373.446,377.898,385.857,390.897,395.349,398.636,403.088,405.797,410.837,414.124,418.576,421.536,429.496,432.205,437.245,442.285,444.994,447.955,452.407,457.447,462.487,465.196,469.648,472.357,477.397,480.358,484.232,489.272,497.231,501.683,504.644,509.684,512.971,515.932,518.641,523.681,528.133,531.094,533.803,538.843,541.552,546.004,549.29" svgx:width="0.5,0.33,0.25,0.25,0.72,0.5,0.72,0.44,0.5,0.44,0.33,0.25,0.25,0.28,0.44,0.78,0.5,0.44,0.33,0.44,0.28,0.5,0.33,0.44,0.25,0.78,0.28,0.5,0.5,0.28,0.25,0.44,0.5,0.5,0.28,0.44,0.28,0.5,0.25,0.39,0.5,0.78,0.44,0.25,0.5,0.33,0.25,0.28,0.5,0.44,0.25,0.28,0.5,0.28,0.44,0.33,0.33" style="fill:rgb(0,0,0);font-family:TimesNewRomanPSMT;font-size:10.5px;stroke:none;">6). However, temperature might explain some of the inter-</text>
   <text y="236.703" x="314.646,319.686,324.138,328.59,333.042,338.082,342.534,345.243,348.519,355.89,362.684,369.477,372.753,376.04,378.749,382.623,387.663,390.939,394.226,396.935,401.975,406.427,409.136,414.176,418.628,421.337,424.046,429.086,434.126,438.001,440.416" svgx:width="0.5,0.44,0.44,0.44,0.5,0.44,0.28,0.25,0.72,0.67,0.67,0.25,0.33,0.28,0.39,0.5,0.25,0.33,0.28,0.5,0.44,0.28,0.5,0.44,0.28,0.28,0.5,0.5,0.39,0.25,0.25" style="fill:rgb(0,0,0);font-family:TimesNewRomanPSMT;font-size:10.5px;stroke:none;">decadal KBB risk fluctuations, </text>
   <text y="236.703" x="443.692,446.401,448.816" svgx:width="0.28,0.25,0.44" style="fill:rgb(0,0,0);font-family:TimesNewRomanPS-ItalicMT;font-size:10.5px;stroke:none;">i.e</text>
   <text y="236.703" x="453.268,455.683,458.098,461.374,464.083,469.123,473.575,476.851,481.891,484.6,487.886,491.173,495.625,498.911,503.363,508.403,512.855,517.307,520.583,523.292,528.332,531.608,538.979,545.773,552.566" svgx:width="0.25,0.25,0.25,0.28,0.5,0.44,0.25,0.5,0.28,0.33,0.33,0.44,0.33,0.44,0.5,0.44,0.44,0.25,0.28,0.5,0.25,0.72,0.67,0.67,0.25" style="fill:rgb(0,0,0);font-family:TimesNewRomanPSMT;font-size:10.5px;stroke:none;">., the difference in KBB </text>
   <text y="249.702" x="314.646,318.185,321.146,325.272,330.564,334.691,337.316,338.229,341.768,347.06,350.598,353.223,354.137,357.098,362.39,367.094,369.719,370.632,375.336,380.628,383.589,386.55,389.511,394.803,399.507,403.046,405.671,406.585,414.207,418.911,424.203,431.826,436.53,440.069,445.361,447.986,448.9,451.861,457.152,459.777,460.691,463.652,468.944,473.648,476.273,477.187,482.479,487.771,493.063,498.354,502.481,505.106,506.02,510.724,516.016,521.307,523.932,524.846,530.138,535.43,540.722,546.014,550.141,552.555" svgx:width="0.33,0.28,0.39,0.5,0.39,0.25,0.55,0.33,0.5,0.33,0.25,0.55,0.28,0.5,0.44,0.25,0.55,0.44,0.5,0.28,0.28,0.28,0.5,0.44,0.33,0.25,0.55,0.72,0.44,0.5,0.72,0.44,0.33,0.5,0.25,0.55,0.28,0.5,0.25,0.55,0.28,0.5,0.44,0.25,0.55,0.5,0.5,0.5,0.5,0.39,0.25,0.55,0.44,0.5,0.5,0.25,0.55,0.5,0.5,0.5,0.5,0.39,0.25,0.25" style="fill:rgb(0,0,0);font-family:TimesNewRomanPSMT;font-size:10.5px;stroke:none;">risks for the cultivar Hayward in the 2040s and 2050s, </text>
   <text y="262.701" x="314.646,322.028,327.078,331.541,336.591,339.878,343.175,347.637,350.357,355.407,358.704,363.167,365.886,368.606,371.892,375.189,378.486,382.949,387.999,393.05,397.512,402.563,407.025,409.745,414.207,418.092,421.379,428.76,433.223,436.52,440.982,444.269,449.319,452.616,457.079,462.129,464.849,469.311,472.031,476.493,481.544,484.83,487.55,492.6,495.887,500.938,505.4,508.686,512.571,515.291,523.26,525.98,528.699,533.162,536.459,539.745,544.796,549.846,552.555" svgx:width="0.72,0.5,0.44,0.5,0.25,0.33,0.44,0.28,0.5,0.33,0.44,0.28,0.28,0.25,0.33,0.33,0.44,0.5,0.5,0.44,0.5,0.44,0.28,0.44,0.39,0.25,0.72,0.44,0.33,0.44,0.25,0.5,0.33,0.44,0.5,0.28,0.44,0.28,0.44,0.5,0.25,0.28,0.5,0.25,0.5,0.44,0.25,0.39,0.28,0.78,0.28,0.28,0.44,0.33,0.25,0.5,0.5,0.28,0.25" style="fill:rgb(0,0,0);font-family:TimesNewRomanPSMT;font-size:10.5px;stroke:none;">when rainfall frequencies were predicted to be similar but </text>
   <text y="275.7" x="314.646,319.686,322.395,325.682,328.968,333.42,336.707,341.159,346.199,350.651,355.103,358.977,361.686,364.395,369.435,372.145,374.854,379.894,384.346,387.055,390.929,395.381,400.421,404.873,408.16,410.869,413.578,418.618,421.327,426.367,429.653,432.362,436.814,441.854,444.563,449.603,454.055,462.014,464.723,469.175,473.05,475.759,483.13,487.582,490.868,495.32,498.029,500.738,505.19,508.477,513.517,517.969,520.384,523.093,527.545,532.585,537.625,540.334,543.043,548.083,552.535" svgx:width="0.5,0.28,0.33,0.33,0.44,0.33,0.44,0.5,0.44,0.44,0.39,0.25,0.28,0.5,0.25,0.28,0.5,0.44,0.25,0.39,0.44,0.5,0.44,0.33,0.28,0.28,0.5,0.25,0.5,0.33,0.25,0.44,0.5,0.28,0.5,0.44,0.78,0.28,0.44,0.39,0.25,0.72,0.44,0.33,0.44,0.25,0.28,0.44,0.33,0.5,0.44,0.25,0.25,0.44,0.5,0.5,0.25,0.28,0.5,0.44,0.25" style="fill:rgb(0,0,0);font-family:TimesNewRomanPSMT;font-size:10.5px;stroke:none;">differences in the severity of epidemics were large, and the </text>
   <text y="288.699" x="314.646,319.686,324.138,328.59,331.877,336.329,340.781,344.655,349.107,351.942,356.982,360.269,363.104,370.475,377.268,384.062,386.897,390.183,392.892,396.767,401.807,405.681,408.516,412.968,416.255,418.964,423.416,426.702,429.537,432.246,437.286,441.738,444.573,449.613,454.653,459.693,464.733,468.608,471.023,473.858,478.898,482.184,487.224,492.264,496.716,501.757,504.466,509.506,512.341,516.793,521.245,526.285,530.159,534.611,539.651,542.486,547.526,552.566" svgx:width="0.5,0.44,0.44,0.33,0.44,0.44,0.39,0.44,0.25,0.5,0.33,0.25,0.72,0.67,0.67,0.25,0.33,0.28,0.39,0.5,0.39,0.25,0.44,0.33,0.28,0.44,0.33,0.25,0.28,0.5,0.44,0.25,0.5,0.5,0.5,0.5,0.39,0.25,0.25,0.5,0.33,0.5,0.5,0.44,0.5,0.28,0.5,0.25,0.44,0.44,0.5,0.39,0.44,0.5,0.25,0.5,0.5,0.25" style="fill:rgb(0,0,0);font-family:TimesNewRomanPSMT;font-size:10.5px;stroke:none;">decrease of KBB risks after the 2070s, probably caused by </text>
   <text y="301.698" x="314.646,317.355,322.395,326.847,329.441,337.4,341.852,346.304,351.344,353.937,356.646,361.098,369.057,374.098,378.549,381.836,386.288,388.997,394.037,397.324,401.776,404.369,407.078,412.118,416.57,419.857,424.309,428.761,432.635,437.087,440.962,443.555,448.595,453.635,456.922,459.631,464.671,469.711,472.304,475.013,480.053,484.505,487.099,491.551,494.837,497.546,500.255,502.964,507.416,511.868,514.577,517.171,519.88,524.92,528.206,532.658,537.11,539.819,542.528,547.568,552.608" svgx:width="0.28,0.5,0.44,0.25,0.78,0.44,0.44,0.5,0.25,0.28,0.44,0.78,0.5,0.44,0.33,0.44,0.28,0.5,0.33,0.44,0.25,0.28,0.5,0.44,0.33,0.44,0.44,0.39,0.44,0.39,0.25,0.5,0.5,0.33,0.28,0.5,0.5,0.25,0.28,0.5,0.44,0.25,0.44,0.33,0.28,0.28,0.28,0.44,0.44,0.28,0.25,0.28,0.5,0.33,0.44,0.44,0.28,0.28,0.5,0.5,0.25" style="fill:rgb(0,0,0);font-family:TimesNewRomanPSMT;font-size:10.5px;stroke:none;">the mean temperature increases during the critical infection </text>
   <text y="314.697" x="314.646,319.833,324.422,327.855,330.701,335.888,341.075,345.096,347.658,350.283,351.081,358.599,363.198,368.385,372.974,376.407,379.263,384.45,389.039,391.895,396.483,400.505,404.526,407.088,409.713,410.511,418.029,422.628,425.253,426.051,430.65,435.837,443.933,446.789,449.634,452.259,453.057,455.903,461.09,465.689,468.534,471.159,471.957,474.803,477.659,480.284,481.082,483.927,487.949,490.574,491.372,496.559,499.404,502.838,506.271,509.127,513.716,518.903,521.748,524.604,527.229,528.027,530.873,536.06,538.685,539.483,544.67,549.269" svgx:width="0.5,0.44,0.33,0.28,0.5,0.5,0.39,0.25,0.25,0.55,0.72,0.44,0.5,0.44,0.33,0.28,0.5,0.44,0.28,0.44,0.39,0.39,0.25,0.25,0.55,0.72,0.44,0.25,0.55,0.44,0.5,0.78,0.28,0.28,0.25,0.55,0.28,0.5,0.44,0.28,0.25,0.55,0.28,0.28,0.25,0.55,0.28,0.39,0.25,0.55,0.5,0.28,0.33,0.33,0.28,0.44,0.5,0.28,0.28,0.25,0.55,0.28,0.5,0.25,0.55,0.5,0.44,0.33" style="fill:rgb(0,0,0);font-family:TimesNewRomanPSMT;font-size:10.5px;stroke:none;">periods. Nevertheless, we admit that it is difficult to de-</text>
   <text y="327.696" x="314.646,317.355,321.807,325.104,333.063,335.772,340.823,345.275,348.561,351.27,356.321,360.773,364.059,368.511,373.562,378.014,382.466,385.175,388.461,392.913,397.365,402.416,406.301,410.753,414.638,417.924,422.975,426.272,429.559,434.01,439.061,444.112,449.162,453.614,456.323,459.61,464.66,469.112,472.409,475.118,479.57,482.279,484.988,490.039,495.089,498.974,502.261,504.97,510.02,513.307,520.688,527.492,534.296,537.583,540.88,543.589,547.474,552.514" svgx:width="0.28,0.44,0.33,0.78,0.28,0.5,0.44,0.25,0.28,0.5,0.44,0.25,0.44,0.5,0.44,0.44,0.28,0.25,0.44,0.44,0.5,0.39,0.44,0.39,0.25,0.5,0.33,0.25,0.44,0.5,0.5,0.5,0.44,0.28,0.25,0.5,0.44,0.33,0.28,0.44,0.28,0.28,0.5,0.5,0.39,0.25,0.28,0.5,0.25,0.72,0.67,0.67,0.25,0.33,0.28,0.39,0.5,0.25" style="fill:rgb(0,0,0);font-family:TimesNewRomanPSMT;font-size:10.5px;stroke:none;">termine the exact causes of annual variations in KBB risk </text>
   <text y="340.695" x="314.646,317.397,321.891,326.973,331.467,334.218,337.547,342.629,347.123,351.039,355.533,360.615,363.944,369.026,374.108,377.436,380.187,385.269,389.763,393.092,401.093,405.587,410.081,415.163,418.491,423.573,428.067,430.818,435.9,440.394,444.311,447.639,450.968,456.05,459.378,462.707,467.201,471.695,476.189,481.271,484.599,489.093,491.844,494.595,502.596,507.09,509.841,514.335,517.664,522.746,527.24,530.568,533.319,537.813,542.895,545.646,550.14,552.555" svgx:width="0.28,0.44,0.5,0.44,0.28,0.25,0.5,0.44,0.39,0.44,0.5,0.25,0.5,0.5,0.25,0.28,0.5,0.44,0.25,0.78,0.44,0.44,0.5,0.25,0.5,0.44,0.28,0.5,0.44,0.39,0.25,0.33,0.5,0.33,0.25,0.44,0.44,0.44,0.5,0.25,0.44,0.28,0.28,0.78,0.44,0.28,0.44,0.25,0.5,0.44,0.33,0.28,0.44,0.5,0.28,0.44,0.25,0.25" style="fill:rgb(0,0,0);font-family:TimesNewRomanPSMT;font-size:10.5px;stroke:none;">level based on the mean values for each climate variable, </text>
   <text y="353.694" x="314.646,319.098,322.973,325.671,328.38,333.42,337.872,340.581,343.868,346.566,351.018,355.47,359.922,364.962,372.921,377.961,380.67,385.122,387.831,392.283,397.323,400.022,404.474,409.514,414.554,417.252,421.704,426.744,434.703,439.743,442.453,447.493,451.945,456.985,459.683,464.135,469.175,474.215,476.924,480.211,482.92,487.96,493.0,495.709,498.418,503.458,508.498,512.372,515.071,517.78,522.82,525.518,529.97,532.669,537.709,542.161,544.87,547.579,552.619" svgx:width="0.44,0.39,0.25,0.28,0.5,0.44,0.28,0.33,0.25,0.44,0.44,0.44,0.5,0.78,0.5,0.28,0.44,0.28,0.44,0.5,0.25,0.44,0.5,0.5,0.25,0.44,0.5,0.78,0.5,0.28,0.5,0.44,0.5,0.25,0.44,0.5,0.5,0.28,0.33,0.28,0.5,0.5,0.28,0.28,0.5,0.5,0.39,0.25,0.28,0.5,0.25,0.44,0.25,0.5,0.44,0.28,0.28,0.5,0.25" style="fill:rgb(0,0,0);font-family:TimesNewRomanPSMT;font-size:10.5px;stroke:none;">as their accumulated and combined contributions in a daily </text>
   <text y="366.693" x="314.646,318.699,323.33,327.96,330.848,335.478,338.103,338.933,342.398,347.028,351.081,356.3,359.187,362.075,366.705,371.924,374.549,375.378,378.266,383.484,386.109,386.939,390.992,396.21,400.841,406.059,408.684,409.514,417.063,424.035,431.007,433.632,434.462,437.927,440.814,444.867,450.086,454.139,456.764,457.593,461.058,467.442,472.661,477.291,480.756,485.387,488.274,491.162,493.787,494.616,499.247,504.465,509.684,512.309,513.138,520.688,525.318,530.537,534.59,539.808,544.439,547.326,550.214,552.629" svgx:width="0.39,0.44,0.44,0.28,0.44,0.25,0.55,0.33,0.44,0.39,0.5,0.28,0.28,0.44,0.5,0.25,0.55,0.28,0.5,0.25,0.55,0.39,0.5,0.44,0.5,0.25,0.55,0.72,0.67,0.67,0.25,0.55,0.33,0.28,0.39,0.5,0.39,0.25,0.55,0.33,0.61,0.5,0.44,0.33,0.44,0.28,0.28,0.25,0.55,0.44,0.5,0.5,0.25,0.55,0.72,0.44,0.5,0.39,0.5,0.44,0.28,0.28,0.25,0.25" style="fill:rgb(0,0,0);font-family:TimesNewRomanPSMT;font-size:10.5px;stroke:none;">scale resulted in such KBB risks (Everett and Henshall, </text>
   <text y="379.692" x="314.646,319.686,324.726,329.766,334.806,337.515,339.93,347.301,350.01,357.97,360.385,364.837,369.877,374.917,377.332,384.703,389.743,394.783,397.198,399.613,404.653,409.693,414.733,419.773,422.482,424.897,430.525,434.977,440.017,445.057,450.097,454.549,459.589,464.629,469.669,472.084,476.536,481.576,486.616,489.031,495.236,498.523,501.232,506.272,511.312,515.186,517.601,520.016,525.056,530.096,535.136,540.176,543.463,545.878" svgx:width="0.5,0.5,0.5,0.5,0.28,0.25,0.72,0.28,0.78,0.25,0.44,0.5,0.5,0.25,0.72,0.5,0.5,0.25,0.25,0.5,0.5,0.5,0.5,0.28,0.25,0.56,0.44,0.5,0.5,0.5,0.44,0.5,0.5,0.5,0.25,0.44,0.5,0.5,0.25,0.61,0.33,0.28,0.5,0.5,0.39,0.25,0.25,0.5,0.5,0.5,0.5,0.33,0.25,0.25" style="fill:rgb(0,0,0);font-family:TimesNewRomanPSMT;font-size:10.5px;stroke:none;">1994; Kim and Koh, 2015; Pennycook and Triggs, 1991). </text>
   <text y="392.691" x="323.151,330.06,334.628,338.618,343.185,348.341,351.743,356.898,362.054,365.456,368.28,373.436,378.003,381.405,384.23,388.797,396.872,402.027,407.183,410.585,415.152,417.977,421.379,425.946,431.102,435.669,440.825,445.98,450.548,454.538,457.94,460.764,465.92,469.322,473.312,477.879,483.035,487.602,491.004,495.572,498.974,503.541,508.697,511.521,516.677,521.244,529.319,532.143,536.711,540.701,544.103,549.258,552.545" svgx:width="0.67,0.44,0.39,0.44,0.5,0.25,0.5,0.5,0.25,0.28,0.5,0.44,0.25,0.28,0.44,0.78,0.5,0.5,0.33,0.44,0.28,0.25,0.44,0.5,0.44,0.5,0.5,0.44,0.39,0.25,0.28,0.5,0.25,0.39,0.44,0.5,0.44,0.33,0.44,0.25,0.44,0.5,0.28,0.5,0.44,0.78,0.28,0.44,0.39,0.25,0.5,0.33,0.25" style="fill:rgb(0,0,0);font-family:TimesNewRomanPSMT;font-size:10.5px;stroke:none;">Based on the temporal changes in severe epidemics of </text>
   <text y="405.69" x="314.646,322.049,328.874,335.699,339.006,341.747,346.818,350.126,354.032,358.515,363.587,368.658,373.73,378.213,386.204,389.511,394.583,397.901,402.972,408.044,410.784,415.856,420.339,424.823,427.269,430.577,437.979,442.463,445.77,450.254,454.737,459.809,463.116,468.188,471.506,475.989,481.061,483.801,488.285,491.025,494.333,497.073,502.145,506.628,509.369,512.676,520.079,526.904,533.729,537.036,544.439,547.179,549.92,552.629" svgx:width="0.72,0.67,0.67,0.25,0.28,0.5,0.25,0.39,0.44,0.5,0.5,0.5,0.44,0.78,0.25,0.5,0.33,0.5,0.5,0.28,0.5,0.44,0.44,0.25,0.25,0.72,0.44,0.25,0.44,0.44,0.5,0.25,0.5,0.33,0.44,0.5,0.28,0.44,0.28,0.25,0.28,0.5,0.44,0.28,0.25,0.72,0.67,0.67,0.25,0.72,0.28,0.28,0.28,0.25" style="fill:rgb(0,0,0);font-family:TimesNewRomanPSMT;font-size:10.5px;stroke:none;">KBB in Jeonnam province, we can predict that KBB will </text>
   <text y="418.689" x="314.646,319.686,324.138,326.847,334.806,339.846,343.133,347.585,350.294,354.168,358.62,361.907,364.616,369.656,374.696,378.571,381.28,383.989,389.029,391.738,394.447,399.487,403.939,406.648,409.934,414.974,417.683,422.723,426.01,430.462,432.877,435.586,440.626,445.666,450.118,452.827,455.536,460.576,463.285,467.737,470.446,474.898,479.938,487.897,492.937,495.646,498.355,502.807,507.259,509.968,514.42,519.46,522.169,524.878,529.918,532.627,537.079,540.365,544.817,549.269" svgx:width="0.5,0.44,0.25,0.78,0.5,0.33,0.44,0.25,0.39,0.44,0.33,0.28,0.5,0.5,0.39,0.25,0.28,0.5,0.25,0.28,0.5,0.44,0.25,0.33,0.5,0.28,0.5,0.33,0.44,0.25,0.25,0.5,0.5,0.44,0.25,0.28,0.5,0.25,0.44,0.25,0.44,0.5,0.78,0.5,0.28,0.28,0.44,0.44,0.28,0.44,0.5,0.25,0.28,0.5,0.28,0.44,0.33,0.44,0.44,0.33" style="fill:rgb(0,0,0);font-family:TimesNewRomanPSMT;font-size:10.5px;stroke:none;">be more serious in the future, due to a complicated interac-</text>
   <text y="431.688" x="314.646,317.334,320.022,325.052,330.081,332.486,337.515,341.946,344.634,351.995,356.426,360.857,365.886,368.291,373.32,376.008,381.038,383.726,388.755,393.785,396.473,400.904,405.335,408.023,410.427,413.703,418.134,421.998,427.028,432.057,437.087,440.951,445.382,449.246,451.651,456.082,461.111,466.141,468.545,472.976,475.664,478.352,486.29,490.721,493.409,496.097,500.528,502.933,506.209,510.64,515.071,517.759,522.788,526.064,529.928,532.333,534.737,540.922,545.951,548.639,552.513" svgx:width="0.28,0.28,0.5,0.5,0.25,0.5,0.44,0.28,0.72,0.44,0.44,0.5,0.25,0.5,0.28,0.5,0.28,0.5,0.5,0.28,0.44,0.44,0.28,0.25,0.33,0.44,0.39,0.5,0.5,0.5,0.39,0.44,0.39,0.25,0.44,0.5,0.5,0.25,0.44,0.28,0.28,0.78,0.44,0.28,0.28,0.44,0.25,0.33,0.44,0.44,0.28,0.5,0.33,0.39,0.25,0.25,0.61,0.5,0.28,0.39,0.25" style="fill:rgb(0,0,0);font-family:TimesNewRomanPSMT;font-size:10.5px;stroke:none;">tion between biological responses and climatic factors. This </text>
   <text y="444.687" x="314.646,317.355,322.395,327.435,330.144,334.596,339.048,341.757,346.209,350.084,352.562,355.271,360.311,364.763,367.472,369.95,374.402,379.442,384.482,387.191,389.9,394.94,399.98,405.02,410.06,413.935,416.413,420.287,422.996,428.036,433.076,435.785,440.237,444.112,446.59,451.042,454.328,458.78,461.258,464.545,468.997,474.037,479.077,481.786,485.072,489.524,494.564,497.042,499.751,504.791,507.269,512.309,515.596,520.048,525.088,529.54,534.58,537.289,539.767,544.807,549.259" svgx:width="0.28,0.5,0.5,0.28,0.44,0.44,0.28,0.44,0.39,0.25,0.28,0.5,0.44,0.28,0.25,0.44,0.5,0.5,0.28,0.28,0.5,0.5,0.5,0.5,0.39,0.25,0.39,0.28,0.5,0.5,0.28,0.44,0.39,0.25,0.44,0.33,0.44,0.25,0.33,0.44,0.5,0.5,0.28,0.33,0.44,0.5,0.25,0.28,0.5,0.25,0.5,0.33,0.44,0.5,0.44,0.5,0.28,0.25,0.5,0.44,0.33" style="fill:rgb(0,0,0);font-family:TimesNewRomanPSMT;font-size:10.5px;stroke:none;">indicates that continuous studies are required to prevent oc-</text>
   <text y="457.686" x="314.646,319.098,324.138,327.425,330.711,335.163,340.203,344.655,349.107,352.121,357.161,360.447,363.461,366.17,371.21,375.662,378.675,386.046,392.84,399.633,402.647,407.687,410.396,414.27,418.722,423.174,427.049,431.501,434.514,437.223,442.263,445.277,449.151,453.603,458.643,463.683,468.723,473.175,481.134,484.148,489.188,492.474,497.514,502.554,505.263,510.303,514.755,519.208,521.622,524.636,527.922,535.881,540.921,545.373,549.826,552.534" svgx:width="0.44,0.5,0.33,0.33,0.44,0.5,0.44,0.44,0.25,0.5,0.33,0.25,0.28,0.5,0.44,0.25,0.72,0.67,0.67,0.25,0.5,0.28,0.39,0.44,0.44,0.39,0.44,0.25,0.28,0.5,0.25,0.39,0.44,0.5,0.5,0.5,0.44,0.78,0.25,0.5,0.33,0.5,0.5,0.28,0.5,0.44,0.44,0.25,0.25,0.33,0.78,0.5,0.44,0.44,0.28,0.25" style="fill:rgb(0,0,0);font-family:TimesNewRomanPSMT;font-size:10.5px;stroke:none;">currence of the KBB disease in Jeonnam province. Impact </text>
   <text y="470.685" x="314.646,319.098,322.983,326.868,331.32,335.205,339.09,347.049,351.501,356.552,359.261,362.547,365.257,370.307,373.594,378.046,382.497,386.949,392.0,395.286,400.337,403.046,406.931,409.64,412.937,415.646,420.098,422.807,426.094,428.803,433.853,437.14,439.849,444.899,449.351,452.638,457.688,460.985,466.036,471.086,473.795,478.846,483.298,487.75,491.036,498.418,501.127,503.836,506.545,509.831,514.283,516.992,520.877,525.928,529.214,533.666,536.375,541.426,544.712,547.421,552.461" svgx:width="0.44,0.39,0.39,0.44,0.39,0.39,0.78,0.44,0.5,0.28,0.25,0.28,0.5,0.25,0.44,0.44,0.44,0.5,0.25,0.5,0.28,0.39,0.28,0.33,0.28,0.44,0.28,0.25,0.28,0.5,0.25,0.28,0.5,0.44,0.25,0.5,0.33,0.5,0.5,0.28,0.5,0.44,0.44,0.25,0.72,0.28,0.28,0.28,0.25,0.44,0.28,0.39,0.5,0.25,0.44,0.28,0.5,0.25,0.28,0.5,0.25" style="fill:rgb(0,0,0);font-family:TimesNewRomanPSMT;font-size:10.5px;stroke:none;">assessment in each district in the province will also aid in </text>
   <text y="483.684" x="314.646,317.355,322.395,326.847,329.598,334.638,339.09,344.13,348.582,351.291,356.331,361.371,369.331,373.783,378.823,381.532,384.293,389.333,392.62,395.371,398.08,403.12,407.572,412.024,414.733,417.442,421.894,426.346,431.386,434.147,438.599,443.639,448.091,453.131,455.84,460.292,463.001,465.71,470.75,475.79,478.541,482.416,485.125,488.411,492.863,495.572,500.024,505.064,507.773,512.225,516.1,518.851,522.137,527.177,530.464,533.215,535.924,540.964,545.416,549.868,552.577" svgx:width="0.28,0.5,0.44,0.25,0.5,0.44,0.5,0.44,0.28,0.5,0.5,0.78,0.44,0.5,0.28,0.25,0.5,0.33,0.25,0.28,0.5,0.44,0.44,0.28,0.28,0.44,0.44,0.5,0.25,0.44,0.5,0.44,0.5,0.28,0.44,0.28,0.28,0.5,0.5,0.25,0.39,0.28,0.33,0.44,0.28,0.44,0.5,0.28,0.44,0.39,0.25,0.33,0.5,0.33,0.25,0.28,0.5,0.44,0.44,0.28,0.25" style="fill:rgb(0,0,0);font-family:TimesNewRomanPSMT;font-size:10.5px;stroke:none;">the development of localized adaptation strategies for local </text>
   <text y="496.683" x="314.646,319.686,324.726,329.766,334.218,337.505,342.545,350.504,354.956,359.996,362.705,365.74,370.78,375.82,378.529,381.238,385.112,387.527,390.562,397.933,402.973,406.007,410.459,414.911,418.198,420.907,425.947,428.981,436.352,440.804,444.091,449.131,451.84,456.88,461.92,464.954,468.829,473.869,477.743,480.452,484.904,492.863,495.898,500.938,504.812,507.521,512.561,517.601,520.636,523.345,528.385,532.837,535.871,541.499,545.374,549.248" svgx:width="0.5,0.5,0.5,0.44,0.33,0.5,0.78,0.44,0.5,0.28,0.25,0.5,0.5,0.28,0.28,0.39,0.25,0.25,0.72,0.5,0.25,0.44,0.44,0.33,0.28,0.5,0.25,0.72,0.44,0.33,0.5,0.28,0.5,0.5,0.25,0.39,0.5,0.39,0.28,0.44,0.78,0.25,0.5,0.39,0.28,0.5,0.5,0.25,0.28,0.5,0.44,0.25,0.56,0.39,0.39,0.33" style="fill:rgb(0,0,0);font-family:TimesNewRomanPSMT;font-size:10.5px;stroke:none;">government units. An early warning system using the Pss-</text>
   <text y="509.682" x="314.646,322.143,329.063,335.982,339.384,346.304,349.128,353.129,358.295,361.697,370.947,376.113,381.279,385.857,388.682,392.084,396.662,401.828,406.994,410.396,414.396,419.562,424.728,428.141,430.965,434.378,437.202,441.77,445.182,453.257,456.659,460.071,465.237,468.65,473.816,477.218,482.384,486.962,492.128,496.128,499.541,502.943,505.778,510.944,514.346,522.42,525.245,530.411,533.823,536.648,541.216,544.628,552.587" svgx:width="0.72,0.67,0.67,0.25,0.67,0.28,0.39,0.5,0.25,0.89,0.5,0.5,0.44,0.28,0.25,0.44,0.5,0.5,0.25,0.39,0.5,0.5,0.33,0.28,0.33,0.28,0.44,0.33,0.78,0.25,0.33,0.5,0.33,0.5,0.25,0.5,0.44,0.5,0.39,0.33,0.25,0.28,0.5,0.25,0.78,0.28,0.5,0.33,0.28,0.44,0.33,0.78,0.25" style="fill:rgb(0,0,0);font-family:TimesNewRomanPSMT;font-size:10.5px;stroke:none;">KBB Risk Model and short-term (2-3 days) to mid-term </text>
   <text y="522.681" x="314.646,318.027,323.162,326.543,331.677,336.812,340.182,345.317,349.863,354.998,358.967,362.348,365.718,373.184,377.73,382.277,385.07,390.204,394.751,398.132,401.503,404.884,410.018,413.399,417.946,422.482,427.028,430.997,433.801,437.77,441.14,448.606,451.399,454.202,457.006,460.376,465.511,470.057,473.428,478.562,482.531,487.078,490.459,495.593,498.386,501.757,505.138,510.272,513.653,517.024,522.158,524.951,532.417,535.22,538.601,541.982,547.117,549.91,552.619" svgx:width="0.33,0.5,0.33,0.5,0.5,0.25,0.5,0.44,0.5,0.39,0.33,0.25,0.72,0.44,0.44,0.28,0.5,0.44,0.33,0.25,0.33,0.5,0.33,0.44,0.44,0.44,0.39,0.28,0.39,0.25,0.72,0.28,0.28,0.28,0.25,0.5,0.44,0.25,0.5,0.39,0.44,0.33,0.5,0.28,0.25,0.33,0.5,0.33,0.25,0.5,0.28,0.72,0.28,0.33,0.33,0.5,0.28,0.28,0.25" style="fill:rgb(0,0,0);font-family:TimesNewRomanPSMT;font-size:10.5px;stroke:none;">(7-15 days) weather forecasts will be useful for kiwifruit </text>
   <text y="535.68" x="314.646,319.686,322.973,328.013,335.384,339.836,343.122,346.997,349.737,352.446,357.486,360.227,367.598,372.638,375.924,380.376,384.828,387.569,390.855,395.896,399.182,401.923,404.632,409.672,414.124,416.864,419.573,427.532,432.572,435.281,439.733,447.692,452.144,457.184,459.893,464.345,467.054,469.763,474.803,479.843,482.584,487.624,490.91,493.651,496.36,499.069,507.028,511.48,514.189,519.229,521.969,527.009,530.296,534.748,539.788,544.24,549.28" svgx:width="0.5,0.33,0.5,0.72,0.44,0.33,0.39,0.25,0.28,0.5,0.25,0.72,0.5,0.33,0.44,0.44,0.25,0.33,0.5,0.33,0.25,0.28,0.5,0.44,0.25,0.28,0.78,0.5,0.28,0.44,0.78,0.44,0.5,0.28,0.44,0.28,0.28,0.5,0.5,0.25,0.5,0.33,0.25,0.28,0.28,0.78,0.44,0.28,0.5,0.25,0.5,0.33,0.44,0.5,0.44,0.5,0.33" style="fill:rgb(0,0,0);font-family:TimesNewRomanPSMT;font-size:10.5px;stroke:none;">growers in Korea for the implementation of timely preven-</text>
   <text y="548.678" x="314.646,317.366,321.828,324.548,327.267,332.318,336.78,340.077,345.128,347.847,351.732,356.195,360.657,364.542,369.005,372.302,376.764,381.815,386.865,389.585,392.882,397.932,400.652,403.078,406.375,410.837,414.722,418.019,421.316,425.779,430.241,434.703,439.754,442.474,445.193,450.244,453.541,458.591,463.054,471.023,476.074,481.124,485.009,487.729,491.026,495.488,498.208,502.67,507.721,511.018,514.315,519.365,522.662,525.959,528.679,533.729,538.192,541.489,546.539,549.258" svgx:width="0.28,0.44,0.28,0.28,0.5,0.44,0.25,0.5,0.28,0.39,0.44,0.44,0.39,0.44,0.25,0.44,0.5,0.5,0.28,0.33,0.5,0.28,0.25,0.25,0.44,0.39,0.25,0.33,0.44,0.44,0.44,0.5,0.28,0.28,0.5,0.25,0.5,0.44,0.78,0.5,0.5,0.39,0.28,0.33,0.44,0.28,0.44,0.5,0.25,0.33,0.5,0.33,0.25,0.28,0.5,0.44,0.25,0.5,0.28,0.33" style="fill:rgb(0,0,0);font-family:TimesNewRomanPSMT;font-size:10.5px;stroke:none;">tative disease control, as recently demonstrated for the ki-</text>
   <text y="561.677" x="314.646,322.017,324.726,328.013,331.299,336.339,339.048,341.757,344.235,349.275,353.727,358.179,360.888,365.34,368.627,371.336,375.788,378.497,380.975,385.427,389.879,394.919,399.959,404.411,407.698,410.176,415.216,417.925,421.799,426.251,430.703,434.578,439.03,441.508,444.794,452.165,454.874,462.833,465.311,469.763,472.472,474.95,479.402,482.111,484.526,486.941,489.419,494.459,499.499,504.539,509.579,512.866,515.281,517.759,525.13,530.17,534.622,537.908,540.386,543.095,548.135,552.587" svgx:width="0.72,0.28,0.33,0.33,0.5,0.28,0.28,0.25,0.5,0.44,0.44,0.28,0.44,0.33,0.28,0.44,0.28,0.25,0.44,0.44,0.5,0.5,0.44,0.33,0.25,0.5,0.28,0.39,0.44,0.44,0.39,0.44,0.25,0.33,0.72,0.28,0.78,0.25,0.44,0.28,0.25,0.44,0.28,0.25,0.25,0.25,0.5,0.5,0.5,0.5,0.33,0.25,0.25,0.72,0.5,0.44,0.33,0.25,0.28,0.5,0.44,0.25" style="fill:rgb(0,0,0);font-family:TimesNewRomanPSMT;font-size:10.5px;stroke:none;">wifruit bacterial canker disease (Kim et al., 2018). Over the </text>
   <text y="574.677" x="314.646,319.686,324.138,329.178,331.887,334.922,339.962,345.002,348.036,350.745,355.785,358.82,363.86,368.9,371.934,376.974,379.389,382.424,385.133,390.173,395.213,400.253,403.539,406.249,410.701,413.987,421.946,424.981,429.433,434.473,438.925,443.965,446.674,451.126,453.835,456.544,461.584,466.624,469.658,473.533,476.242,479.528,483.98,486.689,491.141,496.181,498.89,503.342,507.217,510.251,515.291,519.743,524.195,529.235,532.27,534.979,540.019,543.053,548.093,552.545" svgx:width="0.5,0.44,0.5,0.28,0.25,0.5,0.5,0.25,0.28,0.5,0.25,0.5,0.5,0.25,0.5,0.25,0.25,0.28,0.5,0.5,0.5,0.33,0.28,0.44,0.33,0.78,0.25,0.44,0.5,0.44,0.5,0.28,0.44,0.28,0.28,0.5,0.5,0.25,0.39,0.28,0.33,0.44,0.28,0.44,0.5,0.28,0.44,0.39,0.25,0.5,0.44,0.44,0.5,0.25,0.28,0.5,0.25,0.5,0.44,0.25" style="fill:rgb(0,0,0);font-family:TimesNewRomanPSMT;font-size:10.5px;stroke:none;">next 10 to 30 y, long-term adaptation strategies need to be </text>
   <text y="587.675" x="314.646,319.182,324.306,329.43,333.389,336.182,341.306,345.842,349.212,353.748,358.872,361.371,364.742,371.031,376.155,380.691,384.65,389.186,392.556,395.349,400.473,405.009,407.802,412.926,418.05,422.586,425.957,429.327,433.863,438.987,441.78,446.316,450.853,453.646,458.77,463.893,467.264,472.388,475.181,482.636,485.429,488.799,492.17,497.294,500.087,502.88,506.251,510.787,515.911,518.704,521.497,524.29,529.414,533.95,537.32,541.279,544.649,547.442,552.482" svgx:width="0.44,0.5,0.5,0.39,0.28,0.5,0.44,0.33,0.44,0.5,0.25,0.25,0.61,0.5,0.44,0.39,0.44,0.25,0.28,0.5,0.44,0.28,0.5,0.5,0.44,0.25,0.33,0.44,0.5,0.28,0.44,0.44,0.28,0.5,0.5,0.25,0.5,0.28,0.72,0.28,0.33,0.33,0.5,0.28,0.28,0.25,0.44,0.5,0.28,0.28,0.28,0.5,0.44,0.33,0.39,0.25,0.28,0.5,0.25" style="fill:rgb(0,0,0);font-family:TimesNewRomanPSMT;font-size:10.5px;stroke:none;">considered. These include replacing kiwifruit cultivars in </text>
   <text y="600.674" x="314.646,317.355,322.395,326.847,331.299,334.008,337.295,342.335,345.621,350.073,355.113,359.565,362.852,367.892,371.766,375.053,382.424,385.133,387.842,392.882,396.169,400.621,405.661,408.37,411.079,413.788,418.828,423.28,426.566,430.441,433.727,441.098,443.807,446.516,451.556,454.843,459.883,462.592,467.632,472.672,477.124,480.41,483.697,488.737,491.446,495.32,499.772,504.224,508.099,512.551,515.837,518.546,523.586,526.295,530.747,534.034,538.486,543.526,547.978,552.43" svgx:width="0.28,0.5,0.44,0.44,0.28,0.25,0.5,0.33,0.44,0.5,0.44,0.33,0.5,0.39,0.25,0.72,0.28,0.28,0.5,0.25,0.44,0.5,0.28,0.28,0.28,0.5,0.44,0.33,0.39,0.25,0.72,0.28,0.28,0.5,0.25,0.5,0.28,0.5,0.5,0.44,0.33,0.25,0.5,0.28,0.39,0.44,0.44,0.39,0.44,0.25,0.28,0.5,0.28,0.44,0.33,0.44,0.5,0.44,0.44,0.25" style="fill:rgb(0,0,0);font-family:TimesNewRomanPSMT;font-size:10.5px;stroke:none;">local orchards with cultivars with higher disease tolerance </text>
   <text y="613.673" x="314.646,319.707,323.015,326.322,331.383,334.113,337.421,340.728,345.201,348.509,352.982,358.043,360.773,364.08,372.06,376.533,379.263,384.324,387.632,390.362,393.092,398.153,401.46,406.521,410.994,414.302,417.032,422.093,427.154,431.049,434.357,437.087,442.148,445.455,449.928,454.989,460.05,462.78,467.841,471.149,475.622,478.929,483.99,486.72,491.781,496.842,500.15,505.211,507.941,511.837,516.31,520.783,524.678,529.151,532.459,537.52,540.827,545.3,549.196" svgx:width="0.5,0.33,0.25,0.5,0.28,0.33,0.33,0.44,0.33,0.44,0.5,0.28,0.25,0.78,0.44,0.28,0.5,0.33,0.28,0.28,0.5,0.25,0.5,0.44,0.33,0.28,0.5,0.5,0.39,0.25,0.28,0.5,0.25,0.44,0.5,0.5,0.28,0.5,0.25,0.44,0.25,0.5,0.28,0.5,0.5,0.25,0.5,0.28,0.39,0.44,0.44,0.39,0.44,0.25,0.5,0.33,0.44,0.39,0.33" style="fill:rgb(0,0,0);font-family:TimesNewRomanPSMT;font-size:10.5px;stroke:none;">or different maturity periods to avoid a high disease pres-</text>
   <text y="626.672" x="314.646,318.521,323.561,326.847,331.299,334.208,338.082,342.534,346.986,350.861,355.901,360.941,363.849,366.559,371.599,374.507,377.216,382.256,386.708,389.617,392.903,397.943,400.652,405.692,408.979,413.431,416.329,419.615,426.986,431.438,434.147,438.022,443.062,448.102,450.517,453.415,457.867,460.576,463.484,467.936,470.645,473.06,475.475,478.384,483.424,488.464,493.504,498.544,501.253,504.161,510.955,515.407,520.447,523.156,525.865,530.905,534.779,539.819,542.528,545.437,549.889,552.598" svgx:width="0.39,0.5,0.33,0.44,0.25,0.39,0.44,0.44,0.39,0.5,0.5,0.25,0.28,0.5,0.25,0.28,0.5,0.44,0.25,0.33,0.5,0.28,0.5,0.33,0.44,0.25,0.33,0.72,0.44,0.28,0.39,0.5,0.5,0.25,0.25,0.44,0.28,0.25,0.44,0.28,0.25,0.25,0.25,0.5,0.5,0.5,0.5,0.28,0.25,0.67,0.44,0.5,0.28,0.28,0.5,0.39,0.5,0.28,0.25,0.44,0.28,0.25" style="fill:rgb(0,0,0);font-family:TimesNewRomanPSMT;font-size:10.5px;stroke:none;">sure season in the future (Datson, et al., 2013; Reglinski et </text>
   <text y="639.671" x="314.646,319.098,321.807,324.222,326.637,329.052,334.092,339.132,344.172,349.212,352.499,354.914" svgx:width="0.44,0.28,0.25,0.25,0.25,0.5,0.5,0.5,0.5,0.33,0.25,0.25" style="fill:rgb(0,0,0);font-family:TimesNewRomanPSMT;font-size:10.5px;stroke:none;">al., 2013). </text>
   <text y="652.67" x="323.151,330.564,335.646,338.975,342.303,346.22,348.971,354.053,359.135,364.217,367.545,371.462,376.544,381.626,389.039,393.533,398.615,401.943,404.694,409.776,414.27,417.021,420.35,427.763,432.257,436.751,441.833,446.327,451.409,459.41,461.867,465.195,469.689,473.018,478.1,483.182,485.933,491.015,494.343,497.672,500.423,504.917,508.833,513.915,517.244,522.326,525.077,532.49,535.241,538.569,541.898,546.98,549.731,552.44" svgx:width="0.72,0.5,0.33,0.25,0.39,0.28,0.5,0.5,0.5,0.25,0.39,0.5,0.5,0.72,0.44,0.5,0.25,0.28,0.5,0.44,0.28,0.25,0.72,0.44,0.44,0.5,0.44,0.5,0.78,0.25,0.25,0.44,0.25,0.5,0.5,0.28,0.5,0.33,0.33,0.28,0.44,0.39,0.5,0.25,0.5,0.28,0.72,0.28,0.33,0.33,0.5,0.28,0.28,0.25" style="fill:rgb(0,0,0);font-family:TimesNewRomanPSMT;font-size:10.5px;stroke:none;">Our study showed that Haegeum, a gold-flesh kiwifruit </text>
   <text y="665.669" x="314.646,317.355,322.395,326.847,329.556,332.381,337.421,342.461,345.747,353.706,358.158,360.867,363.577,368.617,371.441,376.481,379.19,384.23,389.27,397.229,401.104,403.928,408.38,413.42,418.46,423.5,426.209,429.034,434.074,436.898,444.269,448.721,453.173,458.213,462.088,464.912,469.364,473.816,477.103,479.812,482.521,486.973,490.259,493.084,495.793,500.833,505.285,510.325,513.149,520.52,524.972,530.012,537.383,541.835,545.122,550.162,552.577" svgx:width="0.28,0.5,0.44,0.28,0.25,0.5,0.5,0.33,0.78,0.44,0.28,0.28,0.5,0.25,0.5,0.28,0.5,0.5,0.78,0.39,0.25,0.44,0.5,0.5,0.5,0.28,0.25,0.5,0.25,0.72,0.44,0.44,0.5,0.39,0.25,0.44,0.44,0.33,0.28,0.28,0.44,0.33,0.25,0.28,0.5,0.44,0.5,0.25,0.72,0.44,0.5,0.72,0.44,0.33,0.5,0.25,0.25" style="fill:rgb(0,0,0);font-family:TimesNewRomanPSMT;font-size:10.5px;stroke:none;">that normally blooms about 2 weeks earlier than Hayward, </text>
   <text y="678.668" x="314.646,317.565,321.66,324.285,325.157,329.819,335.069,340.319,344.981,349.643,352.562,357.224,362.474,365.099,365.97,368.889,374.139,376.764,377.636,382.298,386.96,390.456,393.953,399.203,401.828,402.699,406.784,409.703,414.953,420.203,423.122,426.618,429.537,434.199,438.861,444.111,447.03,449.949,455.199,457.824,458.696,461.615,466.865,474.456,479.118,482.615,485.24,486.111,493.703,500.706,507.71,510.335,511.206,514.703,517.622,521.717,526.967,531.062,533.687,534.558,537.477,542.727,547.389,552.429" svgx:width="0.28,0.39,0.25,0.55,0.44,0.5,0.5,0.44,0.44,0.28,0.44,0.5,0.25,0.55,0.28,0.5,0.25,0.55,0.44,0.44,0.33,0.33,0.5,0.25,0.55,0.39,0.28,0.5,0.5,0.28,0.33,0.28,0.44,0.44,0.5,0.28,0.28,0.5,0.25,0.55,0.28,0.5,0.72,0.44,0.33,0.25,0.55,0.72,0.67,0.67,0.25,0.55,0.33,0.28,0.39,0.5,0.39,0.25,0.55,0.28,0.5,0.44,0.5,0.25" style="fill:rgb(0,0,0);font-family:TimesNewRomanPSMT;font-size:10.5px;stroke:none;">is expected to carry significantly lower KBB risks than </text>
   <text y="691.667" x="314.646,322.196,326.816,332.034,339.584,344.204,347.658,352.877,355.46,358.085,358.914,363.534,367.587,372.795,377.415,382.035,384.912,389.532,392.409,395.286,400.494,403.119,403.949,406.826,412.034,414.659,415.488,418.366,423.584,428.204,430.829,431.659,436.877,442.085,447.304,452.512,456.565,460.019,465.238,470.446,475.654,480.872,484.925,487.55,488.38,495.929,501.137,505.757,510.976,513.601,514.43,521.98,526.6,531.818,539.368,543.988,547.453,552.493" svgx:width="0.72,0.44,0.5,0.72,0.44,0.33,0.5,0.25,0.25,0.55,0.44,0.39,0.5,0.44,0.44,0.28,0.44,0.28,0.28,0.5,0.25,0.55,0.28,0.5,0.25,0.55,0.28,0.5,0.44,0.25,0.55,0.5,0.5,0.5,0.5,0.39,0.33,0.5,0.5,0.5,0.5,0.39,0.25,0.55,0.72,0.5,0.44,0.5,0.25,0.55,0.72,0.44,0.5,0.72,0.44,0.33,0.5,0.25" style="fill:rgb(0,0,0);font-family:TimesNewRomanPSMT;font-size:10.5px;stroke:none;">Hayward, especially in the 2050s-2070s when Hayward </text>
   <text y="704.666" x="314.646,322.017,326.469,330.344,333.042,338.082,341.369,345.821,350.861,353.57,358.022,360.731,365.183,370.223,372.922,375.631,380.671,383.369,386.656,391.108,395.56,400.012,402.71,405.419,410.459,414.911,417.62,422.66,425.369,430.409,435.449,439.901,443.776,446.485,449.183,456.554,463.348,470.141,472.84,477.88,481.166,485.618,489.493,493.367,498.407,501.694,506.146,510.02,512.435,515.144,521.938,526.39,530.264,534.716,539.756,542.455,547.495,552.535" svgx:width="0.72,0.44,0.39,0.25,0.5,0.33,0.44,0.5,0.28,0.44,0.28,0.44,0.5,0.25,0.28,0.5,0.25,0.33,0.44,0.44,0.44,0.25,0.28,0.5,0.44,0.25,0.5,0.28,0.5,0.5,0.44,0.39,0.28,0.25,0.72,0.67,0.67,0.25,0.5,0.33,0.44,0.39,0.39,0.5,0.33,0.44,0.39,0.25,0.25,0.67,0.44,0.39,0.44,0.5,0.25,0.5,0.5,0.25" style="fill:rgb(0,0,0);font-family:TimesNewRomanPSMT;font-size:10.5px;stroke:none;">was predicted to face the highest KBB pressures. Based on </text>
   <text y="717.665" x="314.646,317.387,322.458,325.199,329.105,332.412,335.73,338.471,343.542,348.614,351.354,356.426,361.497,363.944,367.251,374.654,379.137,382.445,386.351,391.422,396.494,401.565,406.049,409.955,412.695,416.003,418.743,423.815,428.298,431.039,434.346,439.418,442.158,447.23,451.713,455.031,458.339,463.41,466.151,473.553,476.294,479.612,482.93,488.001,490.742,493.482,496.79,501.273,506.345,509.085,511.826,514.566,519.638,524.121,527.439,531.345,534.653,542.055,544.796,547.536,552.576" svgx:width="0.28,0.5,0.28,0.39,0.25,0.33,0.28,0.5,0.5,0.28,0.5,0.5,0.25,0.25,0.72,0.44,0.25,0.39,0.5,0.5,0.5,0.44,0.39,0.28,0.25,0.28,0.5,0.44,0.28,0.25,0.5,0.28,0.5,0.44,0.33,0.25,0.5,0.28,0.72,0.28,0.33,0.33,0.5,0.28,0.28,0.25,0.44,0.5,0.28,0.28,0.28,0.5,0.44,0.33,0.39,0.25,0.72,0.28,0.28,0.5,0.25" style="fill:rgb(0,0,0);font-family:TimesNewRomanPSMT;font-size:10.5px;stroke:none;">this finding, we suggest that other kiwifruit cultivars with </text>
   <text y="730.664" x="314.646,319.098,321.86,326.9,329.609,332.895,336.182,340.634,343.92,348.372,353.412,356.121,358.883,366.842,371.294,374.003,379.043,382.329,385.039,387.748,392.788,395.549,399.424,404.464,408.916,413.956,416.717,421.169,425.044,427.805,435.176,439.628,444.08,449.12,453.572,458.612,466.571,469.333,473.785,478.237,483.277,486.038,491.078,495.53,498.292,502.744,507.784,510.545,514.997,517.706,520.415,524.867,528.154,533.194,537.646,540.355,543.064,548.104,552.556" svgx:width="0.44,0.25,0.5,0.28,0.33,0.33,0.44,0.33,0.44,0.5,0.28,0.25,0.78,0.44,0.28,0.5,0.33,0.28,0.28,0.5,0.25,0.39,0.5,0.44,0.5,0.25,0.44,0.39,0.25,0.72,0.44,0.44,0.5,0.44,0.5,0.78,0.25,0.44,0.44,0.5,0.25,0.5,0.44,0.25,0.44,0.5,0.25,0.44,0.28,0.28,0.44,0.33,0.5,0.44,0.28,0.28,0.5,0.44,0.25" style="fill:rgb(0,0,0);font-family:TimesNewRomanPSMT;font-size:10.5px;stroke:none;">a different maturity such as Haegeum can be an alternative </text>
  </g>
 </g>
</svg>
