<?xml version="1.0" encoding="UTF-8"?>
<svg height="439.64" width="4087.56" xmlns="http://www.w3.org/2000/svg">
 <g id="page" xmlns:svgx="http://www.xml-cml.org/schema/svgx">
  <g begin="text">
   <text y="62.979" x="76.535,79.189,83.62,86.274,88.26650000000001,90.738,93.392,95.3845,97.377,102.247,106.678,110.663,112.879,115.836,119.374,123.806,125.7985,128.269,133.585,136.685,139.786,141.7785,144.249,149.119,153.55,157.24,159.456,161.672,164.9397,166.908,173.109,176.209,179.748,181.964,184.618" svgx:width="0.33,0.56,0.33,0.25,0.55,0.33,0.25,0.55,0.61,0.56,0.5,0.28,0.39,0.44,0.56,0.25,0.55,0.67,0.39,0.39,0.25,0.55,0.61,0.56,0.46,0.28,0.28,0.41,0.55,0.78,0.39,0.44,0.28,0.33,0.5" style="fill:rgb(0,0,0);font-family:URWPalladioL-Ital;font-size:7.97px;stroke:none;">Int. J. Environ. Res. Public Health</text>
   <text y="62.979" x="190.594,194.579,198.564,202.549" svgx:width="0.5,0.5,0.5,0.5" style="fill:rgb(0,0,0);font-family:URWPalladioL-Bold;font-size:7.97px;stroke:none;">2019</text>
   <text y="62.979" x="206.534" svgx:width="0.25" style="fill:rgb(0,0,0);font-family:URWPalladioL-Roma;font-size:7.97px;stroke:none;">,</text>
   <text y="62.979" x="210.52,214.505" svgx:width="0.5,0.5" style="fill:rgb(0,0,0);font-family:URWPalladioL-Ital;font-size:7.97px;stroke:none;">16</text>
   <text y="62.979" x="218.49,220.48250000000002,222.475,226.46,230.445,234.43,491.809,495.794,499.779,501.771,506.123,508.7531,510.769,514.755" svgx:width="0.25,0.55,0.5,0.5,0.5,0.55,0.5,0.5,0.55,0.55,0.33,0.55,0.5,0.5" style="fill:rgb(0,0,0);font-family:URWPalladioL-Roma;font-size:7.97px;stroke:none;">, 672 12 of 12</text>
   <text y="97.848" x="76.535,81.018,85.501,87.74350000000001,98.05,105.165,112.6101,117.128,120.174,127.289,132.612,135.273,138.255,142.635,148.1067,152.577,160.177,164.75,167.731,170.393,175.386,180.709,184.4764,188.949,196.138,199.595,204.68,209.253,214.576,217.237,221.81,226.383,229.364,232.026,237.019,242.342,245.388,247.6305,256.811,263.295,268.38,272.441,275.102,280.096,285.419,289.7246,294.153,301.268,303.929,306.591,311.164,313.4065,320.474,323.52,328.513,331.175,336.497,339.4571,343.841,350.957,358.4021,362.91,371.562,377.077,379.738,382.72,385.381,388.427,392.305,396.685,400.746,403.728,408.721,412.309,416.696,423.812,427.689,431.567,435.948,439.826,443.704,451.779,456.16,461.483,464.4431,468.827,475.8236,480.305,486.414,490.795,494.673,500.169,505.163,510.486,514.363" svgx:width="0.5,0.5,0.25,0.55,0.78,0.83,0.55,0.33,0.78,0.58,0.29,0.33,0.48,0.61,0.55,0.83,0.5,0.33,0.29,0.55,0.58,0.42,0.55,0.79,0.4,0.56,0.5,0.58,0.29,0.5,0.5,0.33,0.29,0.55,0.58,0.33,0.25,0.55,0.71,0.56,0.44,0.29,0.55,0.58,0.48,0.55,0.78,0.29,0.29,0.5,0.25,0.55,0.33,0.55,0.29,0.58,0.33,0.55,0.78,0.83,0.55,0.95,0.6,0.29,0.33,0.29,0.33,0.42,0.48,0.44,0.33,0.55,0.4,0.55,0.78,0.42,0.42,0.48,0.42,0.42,0.88,0.48,0.58,0.33,0.55,0.78,0.55,0.67,0.48,0.42,0.6,0.55,0.58,0.42,0.48" style="fill:rgb(0,0,0);font-family:URWPalladioL-Roma;font-size:8.97px;stroke:none;">59. UN (United Nations Organization). Cyclone Aila: Joint UN Multi-sector Assessment &amp; Response</text>
   <text y="110.76" x="98.05,103.09,106.671,111.203,119.208,123.55,131.11,136.06,139.64,144.681,146.92350000000002,149.721,155.948,161.07,165.603,168.241,170.878,175.411,180.424,183.062,187.3676,189.643,194.593,199.868,202.506,205.144,210.42,214.762" svgx:width="0.56,0.4,0.5,0.88,0.48,0.83,0.55,0.4,0.56,0.25,0.55,0.78,0.56,0.5,0.29,0.29,0.5,0.55,0.29,0.48,0.55,0.55,0.58,0.29,0.29,0.58,0.48,0.25" style="fill:rgb(0,0,0);font-family:URWPalladioL-Roma;font-size:8.97px;stroke:none;">Framework. Available online:</text>
   <text y="110.76" x="219.802,225.078,228.033,230.989,236.437,238.703,244.196,249.69,257.25,264.81,271.546,273.812,276.45,280.475,285.515,290.528,295.06,300.336,305.376,308.014,312.547,318.085,322.428,326.271,331.547,333.813,338.763,342.18,347.22,352.714,358.253,362.595,366.175,373.736,378.078,383.091,388.584,396.117,400.459,404.802,410.34,414.184,421.799,426.331,430.864,437.916,441.76,445.603,449.945,453.789,457.633,465.637,469.979,475.255,478.21,483.704,489.759,494.101,499.549,504.499,508.079,511.035,514.878" svgx:width="0.58,0.33,0.33,0.6,0.25,0.61,0.61,0.83,0.83,0.83,0.25,0.29,0.44,0.56,0.55,0.5,0.58,0.56,0.29,0.5,0.61,0.48,0.42,0.58,0.25,0.55,0.4,0.56,0.61,0.61,0.48,0.4,0.83,0.48,0.55,0.61,0.83,0.48,0.48,0.61,0.42,0.84,0.5,0.5,0.78,0.42,0.42,0.48,0.42,0.42,0.88,0.48,0.58,0.33,0.61,0.67,0.48,0.6,0.55,0.4,0.33,0.42,0.61" style="fill:rgb(8,117,183);font-family:URWPalladioL-Roma;font-size:8.97px;stroke:none;">http://www.lcgbangladesh.org/derweb/Needs%20Assessment/Reports/</text>
   <text y="123.672" x="97.701,104.677,107.286,109.895,114.379,118.862,125.838,133.289,137.772,144.748,148.549,152.351,156.646,160.448,164.25,172.167,176.462,181.68,184.603,189.589,193.13,197.614,205.531,209.826,217.304,222.199,225.741,230.727,235.21,240.195,243.217,250.668,257.644,263.122,265.364,270.753,276.231" svgx:width="0.78,0.29,0.29,0.5,0.5,0.78,0.83,0.5,0.78,0.42,0.42,0.48,0.42,0.42,0.88,0.48,0.58,0.33,0.56,0.4,0.5,0.88,0.48,0.83,0.55,0.4,0.56,0.5,0.56,0.34,0.83,0.78,0.61,0.25,0.6,0.61,0.33" style="fill:rgb(8,117,183);font-family:URWPalladioL-Roma;font-size:8.97px;stroke:none;">Aila_UN_AssessmentFramework_FINAL.pdf</text>
   <text y="123.672" x="281.458,284.444,288.927,292.909,296.89,301.185,304.986,308.788,313.083,318.5547,320.803,325.699,330.90160000000003,333.159,337.644,339.884,348.366,352.849,356.229,360.21,365.4126,367.67,372.154,376.637,381.12,385.603,388.589" svgx:width="0.33,0.5,0.44,0.44,0.48,0.42,0.42,0.48,0.61,0.55,0.55,0.58,0.55,0.5,0.55,0.95,0.5,0.4,0.44,0.58,0.55,0.5,0.5,0.5,0.5,0.33,0.25" style="fill:rgb(0,0,0);font-family:URWPalladioL-Roma;font-size:8.97px;stroke:none;">(accessed on 5 March 2016).</text>
   <text y="136.583" x="76.535,81.018,85.501,87.74350000000001,98.05,105.659,110.232,115.354,117.5965,120.146,124.948,127.234,129.4765,132.154,137.742,143.257,146.87,152.184,156.061,158.3035,160.854,163.899,166.186,169.268,171.5105,174.06,180.545,185.538,190.111,193.989,196.97,201.543,204.14430000000002,206.701,212.289,220.365,225.423,229.995,235.318,240.403,248.479,252.86,258.183,261.1431,263.67,269.194,272.642,277.636,279.776,284.156,288.217,291.1771,293.705,296.75,301.744,305.33200000000005,307.853,313.441,318.014,321.892,324.8521,327.379,332.903,337.476,342.561,345.222,349.1,352.082,356.655,361.977" svgx:width="0.5,0.5,0.25,0.55,0.83,0.5,0.56,0.25,0.55,0.52,0.25,0.25,0.55,0.61,0.6,0.4,0.58,0.42,0.25,0.55,0.33,0.25,0.34,0.25,0.55,0.71,0.55,0.5,0.42,0.33,0.5,0.29,0.55,0.61,0.88,0.55,0.5,0.58,0.56,0.88,0.48,0.58,0.33,0.55,0.6,0.4,0.55,0.23,0.48,0.44,0.33,0.55,0.33,0.55,0.4,0.55,0.61,0.5,0.42,0.33,0.55,0.6,0.5,0.56,0.29,0.42,0.33,0.5,0.58,0.25" style="fill:rgb(0,0,0);font-family:URWPalladioL-Roma;font-size:8.97px;stroke:none;">60. Haq, S.; Burns, J.I. Coastal Embankment Project for East Pakistan.</text>
   <text y="136.583" x="367.824,370.87,373.1125,375.662,384.113,388.173,391.219,394.776,398.334,404.443,406.6855,410.297,417.412,421.473,425.031,429.265,433.326,436.874,440.3723,442.938,450.053,452.596,456.675,458.9175,462.528,468.116,471.509,475.57,479.292,481.5345,485.136,491.739,498.855,501.0975,504.708,509.793,513.854,517.576" svgx:width="0.33,0.25,0.55,0.94,0.44,0.33,0.39,0.39,0.72,0.25,0.55,0.78,0.44,0.39,0.46,0.44,0.39,0.39,0.55,0.78,0.28,0.5,0.25,0.55,0.61,0.39,0.44,0.41,0.25,0.55,0.72,0.78,0.25,0.55,0.56,0.44,0.41,0.25" style="fill:rgb(0,0,0);font-family:URWPalladioL-Ital;font-size:8.97px;stroke:none;">J. Waterw. Harbors Div. Proc. Am. Soc.</text>
   <text y="149.495" x="97.755,103.736,106.228,110.218,112.46050000000001,114.701,120.18,125.165,129.648" svgx:width="0.67,0.28,0.5,0.25,0.55,0.61,0.56,0.5,0.25" style="fill:rgb(0,0,0);font-family:URWPalladioL-Ital;font-size:8.97px;stroke:none;">Civ. Eng.</text>
   <text y="149.495" x="134.669,139.152,143.635,148.119" svgx:width="0.5,0.5,0.5,0.5" style="fill:rgb(0,0,0);font-family:URWPalladioL-Bold;font-size:8.97px;stroke:none;">1967</text>
   <text y="149.495" x="152.602" svgx:width="0.25" style="fill:rgb(0,0,0);font-family:URWPalladioL-Roma;font-size:8.97px;stroke:none;">,</text>
   <text y="149.495" x="157.085,161.568,166.051,170.535" svgx:width="0.5,0.5,0.5,0.5" style="fill:rgb(0,0,0);font-family:URWPalladioL-Ital;font-size:8.97px;stroke:none;">5547</text>
   <text y="149.495" x="175.018,177.2605,179.501,183.984,188.468,192.951" svgx:width="0.25,0.55,0.5,0.5,0.5,0.25" style="fill:rgb(0,0,0);font-family:URWPalladioL-Roma;font-size:8.97px;stroke:none;">, 1–9.</text>
   <text y="162.406" x="76.535,81.018,85.501,87.74350000000001,98.054,102.762,106.743,111.961,119.879,122.488,127.966,130.889,133.13150000000002,135.373,142.42,144.6625,146.903,152.382,156.865,160.667,163.6271,165.831,171.247,175.73,180.716,183.316,187.118,190.041,194.524,199.7266,201.984,208.341,213.237,217.72,221.522,224.445,228.928,231.5293,233.779,239.257,247.175,252.133,256.616,261.835,266.82,274.737,279.032,284.251,287.2111,289.415,294.831,298.211,303.107,305.205,309.5,313.481,316.404" svgx:width="0.5,0.5,0.25,0.55,0.52,0.44,0.58,0.88,0.29,0.61,0.33,0.25,0.55,0.79,0.25,0.55,0.61,0.5,0.42,0.33,0.55,0.6,0.5,0.56,0.29,0.42,0.33,0.5,0.58,0.55,0.71,0.55,0.5,0.42,0.33,0.5,0.29,0.55,0.61,0.88,0.55,0.5,0.58,0.56,0.88,0.48,0.58,0.33,0.55,0.6,0.4,0.55,0.23,0.48,0.44,0.33,0.25" style="fill:rgb(0,0,0);font-family:URWPalladioL-Roma;font-size:8.97px;stroke:none;">61. Schmidt, O. East Pakistan Coastal Embankment Project.</text>
   <text y="162.406" x="321.428,326.906,330.233,334.214,336.707,338.9495,341.728,348.202,351.69,355.671,360.154,362.978" svgx:width="0.61,0.39,0.44,0.28,0.25,0.55,0.72,0.39,0.44,0.5,0.39,0.25" style="fill:rgb(0,0,0);font-family:URWPalladioL-Ital;font-size:8.97px;stroke:none;">Prof. Geogr.</text>
   <text y="162.406" x="367.999,372.482,376.965,381.449" svgx:width="0.5,0.5,0.5,0.5" style="fill:rgb(0,0,0);font-family:URWPalladioL-Bold;font-size:8.97px;stroke:none;">1969</text>
   <text y="162.406" x="385.931" svgx:width="0.25" style="fill:rgb(0,0,0);font-family:URWPalladioL-Roma;font-size:8.97px;stroke:none;">,</text>
   <text y="162.406" x="390.414,396.888,403.362" svgx:width="0.72,0.72,0.33" style="fill:rgb(0,0,0);font-family:URWPalladioL-Ital;font-size:8.97px;stroke:none;">XXI</text>
   <text y="162.406" x="406.348,408.5905,410.831,415.314,419.798,424.281,428.764,433.247,437.731,442.214,444.4565,447.235" svgx:width="0.25,0.55,0.5,0.5,0.5,0.5,0.5,0.5,0.5,0.25,0.55,0.33" style="fill:rgb(0,0,0);font-family:URWPalladioL-Roma;font-size:8.97px;stroke:none;">, 252–254. [</text>
   <text y="162.406" x="450.221,456.578,459.958,464.854,468.656,472.457,478.447,482.742" svgx:width="0.71,0.4,0.55,0.42,0.42,0.67,0.48,0.33" style="fill:rgb(8,117,183);font-family:URWPalladioL-Roma;font-size:8.97px;stroke:none;">CrossRef</text>
   <text y="162.406" x="485.728" svgx:width="0.33" style="fill:rgb(0,0,0);font-family:URWPalladioL-Roma;font-size:8.97px;stroke:none;">]</text>
   <text y="175.318" x="76.535,81.018,85.501,87.74350000000001,98.05,105.659,110.232,115.354,120.869,125.249,127.4915,129.868,138.52,140.806,147.922,150.208,152.4505,154.872,160.149,164.722,172.798,177.371,185.447,190.44,193.422,198.415,200.6575,203.034,207.835,210.122,214.923,217.21,219.45250000000001,221.883,230.535,235.108,237.769,240.431,245.516,247.7585,250.134,257.25,259.536,266.652,268.938,271.1805,273.602,278.404,282.977,288.492,292.872,296.485,301.542,306.536,310.149,315.471,317.7135,320.09,326.199,328.4415,330.818,338.427,343.421,348.936,352.813,357.194,362.517,367.511,370.172,375.76,379.638,382.14959999999996,384.522,390.018,394.399,397.847,401.908,406.288,411.785,414.767,417.428,422.421,427.6236,430.076,435.07,438.0301,440.448,444.508,447.17,449.831,457.907,462.48,465.461,469.76660000000004,472.174,476.235,481.558,486.131,491.453,496.538,500.84360000000004,503.261,507.833,513.156" svgx:width="0.5,0.5,0.25,0.55,0.83,0.5,0.56,0.6,0.48,0.25,0.55,0.95,0.25,0.78,0.25,0.25,0.55,0.67,0.5,0.88,0.5,0.88,0.55,0.33,0.55,0.25,0.55,0.52,0.25,0.52,0.25,0.25,0.55,0.95,0.5,0.29,0.29,0.56,0.25,0.55,0.78,0.25,0.78,0.25,0.25,0.55,0.52,0.5,0.6,0.48,0.4,0.55,0.55,0.4,0.58,0.25,0.55,0.67,0.25,0.55,0.83,0.55,0.6,0.42,0.48,0.58,0.55,0.29,0.61,0.42,0.28,0.55,0.6,0.48,0.4,0.44,0.48,0.6,0.33,0.29,0.55,0.58,0.55,0.55,0.33,0.55,0.44,0.29,0.29,0.88,0.5,0.33,0.48,0.55,0.44,0.58,0.5,0.58,0.56,0.48,0.55,0.5,0.58,0.61" style="fill:rgb(0,0,0);font-family:URWPalladioL-Roma;font-size:8.97px;stroke:none;">62. Haque, M.A.; Yamamoto, S.S.; Malik, A.A.; Sauerborn, R. Households’ perception of climate change and</text>
   <text y="188.23" x="98.05,103.268,108.675,116.593,121.076,126.2786,128.536,133.754,138.049,142.532,145.142,148.065,153.2676,155.525,159.066,161.676,165.477,170.463,174.264,176.50650000000002,179.286,186.2826,188.503,192.484,197.38,205.297,213.214,218.621,223.84,226.449,229.372,234.39520000000002,236.599,241.988,246.283,249.824,253.626,259.015,263.31,267.291,270.214,272.823,277.889,282.184" svgx:width="0.58,0.6,0.88,0.5,0.58,0.55,0.58,0.48,0.5,0.29,0.33,0.58,0.55,0.4,0.29,0.42,0.56,0.42,0.25,0.55,0.78,0.55,0.44,0.55,0.88,0.88,0.6,0.58,0.29,0.33,0.56,0.55,0.6,0.48,0.4,0.42,0.6,0.48,0.44,0.33,0.29,0.56,0.48,0.25" style="fill:rgb(0,0,0);font-family:URWPalladioL-Roma;font-size:8.97px;stroke:none;">human health risks: A community perspective.</text>
   <text y="188.23" x="287.203,292.681,297.667,302.15,304.643,307.969,311.95,316.936,319.1785,321.957,328.933,332.421,336.402,338.894,341.88" svgx:width="0.61,0.56,0.5,0.28,0.39,0.44,0.56,0.25,0.55,0.78,0.39,0.44,0.28,0.33,0.5" style="fill:rgb(0,0,0);font-family:URWPalladioL-Ital;font-size:8.97px;stroke:none;">Environ. Health</text>
   <text y="188.23" x="348.604,353.087,357.57,362.054" svgx:width="0.5,0.5,0.5,0.5" style="fill:rgb(0,0,0);font-family:URWPalladioL-Bold;font-size:8.97px;stroke:none;">2012</text>
   <text y="188.23" x="366.537" svgx:width="0.25" style="fill:rgb(0,0,0);font-family:URWPalladioL-Roma;font-size:8.97px;stroke:none;">,</text>
   <text y="188.23" x="371.02,375.503" svgx:width="0.5,0.5" style="fill:rgb(0,0,0);font-family:URWPalladioL-Ital;font-size:8.97px;stroke:none;">11</text>
   <text y="188.23" x="379.986,382.2285,384.469,388.952,393.436,397.919,402.402,404.6445,407.423" svgx:width="0.25,0.55,0.5,0.5,0.5,0.5,0.25,0.55,0.33" style="fill:rgb(0,0,0);font-family:URWPalladioL-Roma;font-size:8.97px;stroke:none;">, 1–12. [</text>
   <text y="188.23" x="410.409,416.766,420.147,425.042,428.844,432.646,438.635,442.93" svgx:width="0.71,0.4,0.55,0.42,0.42,0.67,0.48,0.33" style="fill:rgb(8,117,183);font-family:URWPalladioL-Roma;font-size:8.97px;stroke:none;">CrossRef</text>
   <text y="188.23" x="445.916,448.8761,451.143" svgx:width="0.33,0.55,0.33" style="fill:rgb(0,0,0);font-family:URWPalladioL-Roma;font-size:8.97px;stroke:none;">] [</text>
   <text y="188.23" x="454.129,459.545,464.952,469.91,478.392,482.687" svgx:width="0.6,0.6,0.55,0.95,0.48,0.61" style="fill:rgb(8,117,183);font-family:URWPalladioL-Roma;font-size:8.97px;stroke:none;">PubMed</text>
   <text y="188.23" x="488.166" svgx:width="0.33" style="fill:rgb(0,0,0);font-family:URWPalladioL-Roma;font-size:8.97px;stroke:none;">]</text>
   <text y="201.141" x="76.535,81.018,85.501,87.74350000000001,98.05,102.852,108.174,112.747,120.823,125.204,129.584,137.66,139.9025,142.26,150.912,153.199,156.281,158.567,167.219,169.506,171.7485,174.133,182.785,187.779,195.854,198.836,203.409,207.982,210.2245,212.582,217.383,219.67,221.9125,224.298,230.937,233.599,237.98,246.055,248.2975,250.656,257.771,260.057,264.859,267.1015,269.459,275.047,280.041,284.102,288.674,291.27529999999996,293.65,299.146,303.527,306.975,311.036,315.417,320.913,323.895,326.556,331.55,336.872,340.6394,343.064,348.058,351.0181,353.408,357.981,363.304,368.7757,371.206,375.778,381.366,385.939,391.436,394.417,398.99,401.972,404.633,409.627,414.8296,417.263,420.245,425.1785,427.543,431.604,434.265,436.927,445.002,449.575,452.557,456.86260000000004,459.251,464.419,468.992,472.604,475.266,479.839,484.896,487.558,490.219,492.88,495.862,500.8852,503.261,507.834,513.156" svgx:width="0.5,0.5,0.25,0.55,0.52,0.58,0.5,0.88,0.48,0.48,0.88,0.25,0.55,0.95,0.25,0.34,0.25,0.95,0.25,0.25,0.55,0.95,0.55,0.88,0.33,0.5,0.5,0.25,0.55,0.52,0.25,0.25,0.55,0.73,0.29,0.48,0.88,0.25,0.55,0.78,0.25,0.52,0.25,0.55,0.61,0.55,0.44,0.5,0.29,0.55,0.6,0.48,0.4,0.44,0.48,0.6,0.33,0.29,0.55,0.58,0.42,0.55,0.55,0.33,0.55,0.5,0.58,0.61,0.55,0.5,0.61,0.5,0.6,0.33,0.5,0.33,0.29,0.55,0.58,0.55,0.33,0.55,0.55,0.44,0.29,0.29,0.88,0.5,0.33,0.48,0.55,0.56,0.5,0.4,0.29,0.5,0.55,0.29,0.29,0.29,0.33,0.56,0.55,0.5,0.58,0.61" style="fill:rgb(0,0,0);font-family:URWPalladioL-Roma;font-size:8.97px;stroke:none;">63. Shameem, M.I.M.; Momtaz, S.; Kiem, A.S. Local perceptions of and adaptation to climate variability and</text>
   <text y="214.053" x="98.05,101.955,107.075,111.473,116.592,121.483,125.696,127.9385,130.674,133.542,138.661,142.9666,145.109,149.014,153.412,157.142,161.4476,163.58,168.383,171.34310000000002,173.546,177.276,182.395,185.87,188.429,196.196,201.578,203.717,206.646,211.044,214.518,222.285,224.845,229.964,234.9872,237.089,240.994,245.797,253.564,261.331,266.635,271.754,274.314,277.181,279.741,283.954,287.7214,289.918,292.478,297.6806,299.831,302.699,307.818,312.1236,314.266,318.171,322.974,327.372,331.101,333.969,338.367,340.9683,343.161,346.477,350.69,355.581,358.14,362.943,368.1456,370.296,375.099,378.0591,380.262,385.637,390.035,395.154,400.045,402.604,407.002,412.377,416.59,420.319,425.439" svgx:width="0.44,0.58,0.5,0.58,0.56,0.48,0.25,0.55,0.33,0.58,0.48,0.55,0.44,0.5,0.42,0.48,0.55,0.55,0.33,0.55,0.42,0.58,0.4,0.29,0.88,0.6,0.55,0.33,0.5,0.4,0.88,0.29,0.58,0.56,0.55,0.44,0.55,0.88,0.88,0.6,0.58,0.29,0.33,0.29,0.48,0.42,0.55,0.29,0.58,0.55,0.33,0.58,0.48,0.55,0.44,0.55,0.5,0.42,0.33,0.5,0.29,0.55,0.4,0.48,0.56,0.29,0.55,0.58,0.55,0.55,0.33,0.55,0.61,0.5,0.58,0.56,0.29,0.5,0.61,0.48,0.42,0.58,0.25" style="fill:rgb(0,0,0);font-family:URWPalladioL-Roma;font-size:8.97px;stroke:none;">change: the case of shrimp farming communities in the coastal region of Bangladesh.</text>
   <text y="214.053" x="430.41,436.277,438.722,441.168,448.011,450.25350000000003,452.989,458.856,463.254,467.16,472.05,476.448" svgx:width="0.67,0.28,0.28,0.78,0.25,0.55,0.67,0.5,0.44,0.56,0.5,0.39" style="fill:rgb(0,0,0);font-family:URWPalladioL-Ital;font-size:8.97px;stroke:none;">Clim. Change</text>
   <text y="214.053" x="482.101,486.584,491.067,495.551" svgx:width="0.5,0.5,0.5,0.5" style="fill:rgb(0,0,0);font-family:URWPalladioL-Bold;font-size:8.97px;stroke:none;">2015</text>
   <text y="214.053" x="500.034" svgx:width="0.25" style="fill:rgb(0,0,0);font-family:URWPalladioL-Roma;font-size:8.97px;stroke:none;">,</text>
   <text y="214.053" x="504.468,508.866,513.264" svgx:width="0.5,0.5,0.5" style="fill:rgb(0,0,0);font-family:URWPalladioL-Ital;font-size:8.97px;stroke:none;">133</text>
   <text y="214.053" x="517.662" svgx:width="0.25" style="fill:rgb(0,0,0);font-family:URWPalladioL-Roma;font-size:8.97px;stroke:none;">,</text>
   <text y="226.964" x="98.05,102.533,107.016,111.5,115.983,120.466,124.949,129.432,131.6745,134.454" svgx:width="0.5,0.5,0.5,0.5,0.5,0.5,0.5,0.25,0.55,0.33" style="fill:rgb(0,0,0);font-family:URWPalladioL-Roma;font-size:8.97px;stroke:none;">253–266. [</text>
   <text y="226.964" x="137.439,143.797,147.177,152.073,155.874,159.676,165.666,169.961" svgx:width="0.71,0.4,0.55,0.42,0.42,0.67,0.48,0.33" style="fill:rgb(8,117,183);font-family:URWPalladioL-Roma;font-size:8.97px;stroke:none;">CrossRef</text>
   <text y="226.964" x="172.946" svgx:width="0.33" style="fill:rgb(0,0,0);font-family:URWPalladioL-Roma;font-size:8.97px;stroke:none;">]</text>
   <text y="239.876" x="76.535,81.018,85.501,87.74350000000001,98.05,105.129,110.644,115.701,120.082,124.17,126.41250000000001,129.402,134.203,136.49,143.129,145.416,147.6585,151.004,155.796,159.409,162.07,167.237,171.618,177.206,179.868,182.1105,185.099,191.208,193.495,200.135,202.421,204.6635,208.009,214.493,219.816,224.389,229.712,235.3,237.54250000000002,240.531,246.119,248.406,255.046,257.332,259.5745,262.911,271.563,276.136,281.459,287.047,291.619,294.281,296.5235,299.512,305.1,307.387,309.6295,312.966,319.075,324.068,329.583,332.565,334.8075,337.796,342.598,344.884,351.524,353.7665,356.755,361.84,366.413,370.026,378.101,382.482,386.095,389.973,392.4846,395.46,400.957,405.337,408.785,412.846,417.227,422.723,425.705,428.366,433.36,438.683,442.4504,445.505,450.499,453.45910000000003,456.489,460.55,463.211,465.873,473.949,478.521,481.503,485.8086,488.829,492.889,498.212,502.785,508.108,513.193,517.574" svgx:width="0.5,0.5,0.25,0.55,0.77,0.6,0.55,0.48,0.56,0.25,0.55,0.52,0.25,0.73,0.25,0.25,0.55,0.61,0.4,0.29,0.56,0.48,0.61,0.29,0.25,0.55,0.67,0.25,0.73,0.25,0.25,0.55,0.71,0.58,0.5,0.58,0.61,0.25,0.55,0.61,0.25,0.73,0.25,0.25,0.55,0.95,0.5,0.58,0.61,0.5,0.29,0.25,0.55,0.61,0.25,0.25,0.55,0.67,0.55,0.6,0.33,0.25,0.55,0.52,0.25,0.73,0.25,0.55,0.56,0.5,0.4,0.88,0.48,0.4,0.42,0.28,0.55,0.6,0.48,0.4,0.44,0.48,0.6,0.33,0.29,0.55,0.58,0.42,0.55,0.55,0.33,0.55,0.44,0.29,0.29,0.88,0.5,0.33,0.48,0.55,0.44,0.58,0.5,0.58,0.56,0.48,0.25" style="fill:rgb(0,0,0);font-family:URWPalladioL-Roma;font-size:8.97px;stroke:none;">64. Dubey, S.K.; Trivedi, R.K.; Chand, B.K.; Mandal, B.; Rout, S.K. Farmers’ perceptions of climate change,</text>
   <text y="252.788" x="98.05,100.711,108.787,114.284,118.857,122.917,125.899,129.6664,132.52,137.514,142.7166,145.571,148.617,152.074,156.455,160.332,165.655,173.283,177.856,180.837,185.218,188.80599999999998,191.565,196.138,201.26,206.774,211.347,215.408,220.923,223.584,226.566,232.081,235.538,239.8436,242.653,247.226,252.549,258.02070000000003,260.881,265.453,271.041,275.614,281.111,284.092,288.665,291.647,294.308,299.302,304.50460000000004,307.359,311.237,314.218,317.831,322.404,325.385,329.766,334.851,337.513,341.893,345.6604,348.515,351.176,356.3786,359.243,363.303,365.965,368.626,376.702,381.275,384.256,386.918,390.8648,393.713,397.774,403.097,407.669,412.992,418.077,422.3826,425.202,430.525,435.518,438.5,442.377,447.874,452.868,455.849,459.727,461.9695,465.79,472.7866,475.64,479.701,484.274,488.152,492.4576,495.276,500.27,503.2301,506.059,509.041,514.363" svgx:width="0.29,0.88,0.6,0.5,0.44,0.33,0.42,0.55,0.55,0.58,0.55,0.33,0.4,0.48,0.42,0.58,0.83,0.5,0.33,0.48,0.4,0.55,0.5,0.56,0.6,0.5,0.44,0.6,0.29,0.33,0.6,0.4,0.48,0.55,0.5,0.58,0.61,0.55,0.5,0.61,0.5,0.6,0.33,0.5,0.33,0.29,0.55,0.58,0.55,0.42,0.33,0.4,0.5,0.33,0.48,0.56,0.29,0.48,0.42,0.55,0.29,0.58,0.55,0.44,0.29,0.29,0.88,0.5,0.33,0.29,0.44,0.55,0.44,0.58,0.5,0.58,0.56,0.48,0.55,0.58,0.55,0.33,0.42,0.6,0.55,0.33,0.42,0.25,0.55,0.78,0.55,0.44,0.5,0.42,0.48,0.55,0.55,0.33,0.55,0.33,0.58,0.48" style="fill:rgb(0,0,0);font-family:URWPalladioL-Roma;font-size:8.97px;stroke:none;">impacts on freshwater aquaculture and adaptation strategies in climatic change hotspots: A case of the</text>
   <text y="265.699" x="98.05,101.072,106.29,111.769,114.378,118.861,124.06360000000001,126.321,131.028,136.435,141.654,147.132,151.615,155.157,160.115,164.599,169.80159999999998,172.059,177.537,181.832,184.441,187.364,191.848" svgx:width="0.34,0.58,0.61,0.29,0.5,0.58,0.55,0.52,0.6,0.58,0.61,0.5,0.4,0.55,0.5,0.58,0.55,0.61,0.48,0.29,0.33,0.5,0.25" style="fill:rgb(0,0,0);font-family:URWPalladioL-Roma;font-size:8.97px;stroke:none;">Indian Sundarban delta.</text>
   <text y="265.699" x="196.868,202.346,207.332,211.815,214.308,217.634,221.615,226.601,228.8435,231.622,238.598,242.086,246.569,250.057,252.549,256.53,261.014" svgx:width="0.61,0.56,0.5,0.28,0.39,0.44,0.56,0.25,0.55,0.78,0.39,0.5,0.39,0.28,0.44,0.5,0.25" style="fill:rgb(0,0,0);font-family:URWPalladioL-Ital;font-size:8.97px;stroke:none;">Environ. Develop.</text>
   <text y="265.699" x="266.034,270.517,275.0,279.484" svgx:width="0.5,0.5,0.5,0.5" style="fill:rgb(0,0,0);font-family:URWPalladioL-Bold;font-size:8.97px;stroke:none;">2017</text>
   <text y="265.699" x="283.967" svgx:width="0.25" style="fill:rgb(0,0,0);font-family:URWPalladioL-Roma;font-size:8.97px;stroke:none;">,</text>
   <text y="265.699" x="288.45,292.933" svgx:width="0.5,0.5" style="fill:rgb(0,0,0);font-family:URWPalladioL-Ital;font-size:8.97px;stroke:none;">21</text>
   <text y="265.699" x="297.416,299.6585,301.899,306.382,310.866,315.349,319.832,324.315,326.5575,329.336" svgx:width="0.25,0.55,0.5,0.5,0.5,0.5,0.5,0.25,0.55,0.33" style="fill:rgb(0,0,0);font-family:URWPalladioL-Roma;font-size:8.97px;stroke:none;">, 38–51. [</text>
   <text y="265.699" x="332.322,338.679,342.06,346.955,350.757,354.559,360.549,364.843" svgx:width="0.71,0.4,0.55,0.42,0.42,0.67,0.48,0.33" style="fill:rgb(8,117,183);font-family:URWPalladioL-Roma;font-size:8.97px;stroke:none;">CrossRef</text>
   <text y="265.699" x="367.829" svgx:width="0.33" style="fill:rgb(0,0,0);font-family:URWPalladioL-Roma;font-size:8.97px;stroke:none;">]</text>
   <text y="278.611" x="76.535,81.018,85.501,87.74350000000001,98.05,101.012,105.459,110.636,115.083,120.26,122.50250000000001,124.716,127.714,129.937,132.17950000000002,134.403,141.323,146.499,150.271,154.718,159.895,162.13750000000002,164.351,171.235,173.459,175.7015,177.924,182.87,187.317,190.67,195.651,201.015,205.275,207.5175,209.731,218.146,220.369,227.77,230.01250000000002,232.235,237.18,239.769,243.54,248.717,252.977,256.491,260.262,262.7736,264.967,267.556,272.412,276.361,280.809,283.4103,285.63,290.575,295.752,300.608,308.026,310.615,314.875,320.31,325.255,329.5606,331.757,336.614,341.8166,344.023,346.611,354.465,359.811,364.258,368.208,371.16810000000004,373.349,378.205,381.1651,383.4,387.349,389.937,392.526,400.38,404.827,407.727,412.0326,414.22,418.169,423.346,427.793,432.97,437.915,442.22060000000005,444.417,448.865,454.041,459.5127,461.708,466.156,471.332,474.232,479.409,482.762,487.619,492.964,497.821,502.766,507.027,512.203,514.792" svgx:width="0.5,0.5,0.25,0.55,0.33,0.5,0.58,0.5,0.58,0.25,0.55,0.34,0.25,0.25,0.55,0.78,0.58,0.42,0.5,0.58,0.25,0.55,0.77,0.25,0.25,0.55,0.56,0.5,0.4,0.56,0.6,0.48,0.25,0.55,0.95,0.25,0.83,0.25,0.55,0.56,0.29,0.42,0.58,0.48,0.4,0.42,0.28,0.55,0.29,0.55,0.44,0.5,0.29,0.55,0.56,0.58,0.55,0.83,0.29,0.48,0.61,0.56,0.48,0.55,0.55,0.58,0.55,0.29,0.88,0.6,0.5,0.44,0.33,0.55,0.55,0.33,0.55,0.44,0.29,0.29,0.88,0.5,0.33,0.48,0.55,0.44,0.58,0.5,0.58,0.56,0.48,0.55,0.5,0.58,0.61,0.55,0.5,0.58,0.33,0.58,0.4,0.55,0.6,0.55,0.56,0.48,0.58,0.29,0.44" style="fill:rgb(0,0,0);font-family:URWPalladioL-Roma;font-size:8.97px;stroke:none;">65. Jahan, I.; Ahsan, D.; Farque, M.H. Fishers’ local knowledge on impact of climate change and anthropogenic</text>
   <text y="291.522" x="98.05,100.607,105.721,108.586,112.795,116.266,119.192,123.401,126.713,130.922,136.037,139.938,144.147,147.9144,149.99,154.788,159.9906,162.02,169.331,171.888,174.445,178.171,182.656,184.682,189.998,193.724,198.838,203.047,206.518,211.5412,213.521,216.078,221.2806,223.31,227.923,232.721,238.019,240.884,246.08659999999998,248.124,254.961,258.687,261.244,265.628,267.8705,270.549,274.758,279.723,282.28,287.649,291.858,296.972,300.873,305.1786,307.2,310.126,313.439,318.236,328.113,333.482,337.876,342.99,347.875,350.432,354.826,360.195,364.404,368.129,373.243" svgx:width="0.29,0.58,0.33,0.48,0.4,0.33,0.48,0.4,0.48,0.58,0.44,0.48,0.42,0.55,0.55,0.58,0.55,0.83,0.29,0.29,0.42,0.5,0.55,0.61,0.42,0.58,0.48,0.4,0.56,0.55,0.29,0.58,0.55,0.52,0.55,0.6,0.33,0.58,0.55,0.78,0.42,0.29,0.5,0.25,0.55,0.48,0.56,0.29,0.61,0.48,0.58,0.44,0.48,0.55,0.33,0.4,0.55,0.88,0.61,0.5,0.58,0.56,0.29,0.5,0.61,0.48,0.42,0.58,0.25" style="fill:rgb(0,0,0);font-family:URWPalladioL-Roma;font-size:8.97px;stroke:none;">interferences on Hilsa ﬁshery in South Asia: evidence fromBangladesh.</text>
   <text y="291.522" x="378.176,383.545,388.431,392.824,395.267,398.527,402.428,407.314,409.5565,412.243,419.08,422.498,426.892,430.31,432.753,436.654,441.048,443.2905,445.986,450.871,455.757,459.175,462.101,466.003,468.446,473.331" svgx:width="0.61,0.56,0.5,0.28,0.39,0.44,0.56,0.25,0.55,0.78,0.39,0.5,0.39,0.28,0.44,0.5,0.25,0.55,0.56,0.56,0.39,0.33,0.44,0.28,0.56,0.25" style="fill:rgb(0,0,0);font-family:URWPalladioL-Ital;font-size:8.97px;stroke:none;">Environ. Develop. Sustain.</text>
   <text y="291.522" x="478.265,482.748,487.231,491.715" svgx:width="0.5,0.5,0.5,0.5" style="fill:rgb(0,0,0);font-family:URWPalladioL-Bold;font-size:8.97px;stroke:none;">2015</text>
   <text y="291.522" x="496.198,498.4405,500.539,504.932,509.326,513.719,518.113" svgx:width="0.25,0.55,0.5,0.5,0.5,0.5,0.25" style="fill:rgb(0,0,0);font-family:URWPalladioL-Roma;font-size:8.97px;stroke:none;">, 1–18.</text>
   <text y="304.434" x="98.05" svgx:width="0.33" style="fill:rgb(0,0,0);font-family:URWPalladioL-Roma;font-size:8.97px;stroke:none;">[</text>
   <text y="304.434" x="101.036,107.393,110.773,115.669,119.471,123.272,129.262,133.557" svgx:width="0.71,0.4,0.55,0.42,0.42,0.67,0.48,0.33" style="fill:rgb(8,117,183);font-family:URWPalladioL-Roma;font-size:8.97px;stroke:none;">CrossRef</text>
   <text y="304.434" x="136.543" svgx:width="0.33" style="fill:rgb(0,0,0);font-family:URWPalladioL-Roma;font-size:8.97px;stroke:none;">]</text>
   <text y="317.346" x="76.535,81.018,85.501,87.74350000000001,98.05,105.028,107.69,110.571,113.616,118.61,122.058,127.646,129.8885,133.746,139.855,142.0975,145.955,151.562,156.884,161.18959999999998,165.079,170.667,174.28,178.853,183.938,188.931,194.254,198.0214,201.945,206.939,209.8991,213.798,216.46,221.783,226.355,230.416,233.398,236.059,241.053,246.375,248.6175,254.579,260.103,263.981,269.066,273.127,278.449,283.443,286.104,291.098,296.183,298.844,302.905,307.478,310.0793,313.953,319.011,323.584,327.196,330.809,333.47,337.851,341.464,345.2314,349.155,352.137,357.459,362.032,364.9921,368.828,371.489,374.15,382.226,384.887,387.8471,391.683,395.743,398.405,401.066,409.142,413.715,416.696,421.00160000000005,424.891,428.952,434.274,438.847,444.17,449.255,453.5606,457.45,465.525,468.187,471.168,473.83,478.915,483.488,486.469,489.131,494.124,499.32660000000004,503.261,507.834,513.156" svgx:width="0.5,0.5,0.25,0.55,0.76,0.29,0.33,0.33,0.55,0.4,0.61,0.25,0.55,0.67,0.25,0.55,0.61,0.58,0.48,0.55,0.61,0.4,0.5,0.56,0.55,0.58,0.42,0.55,0.55,0.33,0.55,0.29,0.58,0.5,0.44,0.33,0.29,0.55,0.58,0.25,0.55,0.6,0.42,0.56,0.44,0.58,0.55,0.29,0.55,0.56,0.29,0.44,0.5,0.29,0.55,0.55,0.5,0.4,0.4,0.29,0.48,0.4,0.42,0.55,0.33,0.58,0.5,0.33,0.55,0.29,0.29,0.88,0.29,0.33,0.55,0.44,0.29,0.29,0.88,0.5,0.33,0.48,0.55,0.44,0.58,0.5,0.58,0.56,0.48,0.55,0.88,0.29,0.33,0.29,0.56,0.5,0.33,0.29,0.55,0.58,0.55,0.5,0.58,0.61" style="fill:rgb(0,0,0);font-family:URWPalladioL-Roma;font-size:8.97px;stroke:none;">66. Gifford, R. The dragons of inaction: Psychological barriers that limit climate change mitigation and</text>
   <text y="330.257" x="98.05,102.533,108.012,112.495,117.884,120.807,125.29,128.213,130.822,135.718,140.936" svgx:width="0.5,0.61,0.5,0.6,0.33,0.5,0.33,0.29,0.55,0.58,0.25" style="fill:rgb(0,0,0);font-family:URWPalladioL-Roma;font-size:8.97px;stroke:none;">adaptation.</text>
   <text y="330.257" x="145.957,152.431,159.407,161.64950000000002,164.428,169.906,173.394,177.877,181.527,186.01,189.991,192.484" svgx:width="0.72,0.78,0.25,0.55,0.61,0.39,0.5,0.41,0.5,0.44,0.28,0.25" style="fill:rgb(0,0,0);font-family:URWPalladioL-Ital;font-size:8.97px;stroke:none;">Am. Psychol.</text>
   <text y="330.257" x="197.504,201.987,206.47,210.954" svgx:width="0.5,0.5,0.5,0.5" style="fill:rgb(0,0,0);font-family:URWPalladioL-Bold;font-size:8.97px;stroke:none;">2011</text>
   <text y="330.257" x="215.437" svgx:width="0.25" style="fill:rgb(0,0,0);font-family:URWPalladioL-Roma;font-size:8.97px;stroke:none;">,</text>
   <text y="330.257" x="219.92,224.403" svgx:width="0.5,0.5" style="fill:rgb(0,0,0);font-family:URWPalladioL-Ital;font-size:8.97px;stroke:none;">66</text>
   <text y="330.257" x="228.887,231.1295,233.37,237.853,242.337,246.82,251.303,255.786,260.269,264.753,266.9955,269.774" svgx:width="0.25,0.55,0.5,0.5,0.5,0.5,0.5,0.5,0.5,0.25,0.55,0.33" style="fill:rgb(0,0,0);font-family:URWPalladioL-Roma;font-size:8.97px;stroke:none;">, 290–302. [</text>
   <text y="330.257" x="272.76,279.117,282.497,287.393,291.195,294.996,300.986,305.281" svgx:width="0.71,0.4,0.55,0.42,0.42,0.67,0.48,0.33" style="fill:rgb(8,117,183);font-family:URWPalladioL-Roma;font-size:8.97px;stroke:none;">CrossRef</text>
   <text y="330.257" x="308.267,311.2271,313.494" svgx:width="0.33,0.55,0.33" style="fill:rgb(0,0,0);font-family:URWPalladioL-Roma;font-size:8.97px;stroke:none;">] [</text>
   <text y="330.257" x="316.48,321.895,327.302,332.261,340.743,345.038" svgx:width="0.6,0.6,0.55,0.95,0.48,0.61" style="fill:rgb(8,117,183);font-family:URWPalladioL-Roma;font-size:8.97px;stroke:none;">PubMed</text>
   <text y="330.257" x="350.516" svgx:width="0.33" style="fill:rgb(0,0,0);font-family:URWPalladioL-Roma;font-size:8.97px;stroke:none;">]</text>
   <text y="343.169" x="76.535,81.018,85.501,87.74350000000001,98.054,106.537,111.522,115.817,119.359,123.16,125.4025,127.643,134.583,136.825,143.666" svgx:width="0.5,0.5,0.25,0.55,0.95,0.56,0.48,0.4,0.42,0.25,0.55,0.77,0.25,0.76,0.25" style="fill:rgb(0,0,0);font-family:URWPalladioL-Roma;font-size:8.97px;stroke:none;">67. Myers, D.G.</text>
   <text y="343.169" x="148.145,153.13,157.111,160.761,163.253,167.234,169.7456,171.969,177.447,180.935,185.418,189.068,193.551,197.532,200.025,204.006,208.489" svgx:width="0.56,0.44,0.41,0.28,0.44,0.28,0.55,0.61,0.39,0.5,0.41,0.5,0.44,0.28,0.44,0.5,0.5" style="fill:rgb(0,0,0);font-family:URWPalladioL-Ital;font-size:8.97px;stroke:none;">Social Psychology</text>
   <text y="343.169" x="212.971,215.2135,217.454,221.937,226.421,229.344,234.54659999999998,236.804,241.099,246.577,248.819,251.0615,253.302,258.798,264.017,268.3226,270.553,279.035,283.017,289.858,293.4,297.883,305.3281,307.602,315.062,317.672,320.281,322.8823,325.132,331.489,336.385,344.302,349.691,354.174,359.392,362.002,366.296,370.098,372.3405,374.581,377.603,382.822,386.803,389.044,391.2865,394.065,401.516,405.811,413.2561,415.531,420.687,425.582,429.124,434.109,436.3515,438.593,446.044,451.029,453.2715,455.512,462.488,467.195,474.171,476.4135,478.654,483.138,487.621,492.104,496.587" svgx:width="0.25,0.55,0.5,0.5,0.33,0.58,0.55,0.48,0.61,0.25,0.25,0.55,0.61,0.58,0.48,0.55,0.95,0.44,0.76,0.4,0.5,0.83,0.55,0.83,0.29,0.29,0.29,0.55,0.71,0.55,0.88,0.6,0.5,0.58,0.29,0.48,0.42,0.25,0.55,0.34,0.58,0.44,0.25,0.25,0.55,0.83,0.48,0.83,0.55,0.67,0.55,0.4,0.56,0.25,0.55,0.83,0.67,0.25,0.55,0.78,0.52,0.78,0.25,0.55,0.5,0.5,0.5,0.5,0.25" style="fill:rgb(0,0,0);font-family:URWPalladioL-Roma;font-size:8.97px;stroke:none;">, 11th ed.; The McGraw Hill Companies, Inc.: New York, NY, USA, 2013.</text>
   <text y="356.08" x="76.535,81.018,85.501,87.74350000000001,98.054,106.196,110.491,115.449,119.744,122.622,124.8645,127.105,132.584,134.826,141.801,144.0435,146.285,155.251,160.469,164.953,167.91310000000001,170.117,173.919,179.129,183.612,189.001,193.295,197.0624,199.339,204.728,209.023,212.403,216.384,220.679,226.068,228.991,231.6,236.496,241.714,245.4814,247.757,252.653,255.6131,257.88,261.862,264.471,267.08,274.997,279.481,282.404,286.7096,288.94,292.921,298.14,302.623,307.841,312.827,317.121" svgx:width="0.5,0.5,0.25,0.55,1.0,0.48,0.55,0.48,0.4,0.25,0.55,0.61,0.25,0.78,0.25,0.55,1.0,0.58,0.5,0.33,0.55,0.42,0.58,0.5,0.6,0.48,0.42,0.55,0.6,0.48,0.4,0.44,0.48,0.6,0.33,0.29,0.55,0.58,0.42,0.55,0.55,0.33,0.55,0.44,0.29,0.29,0.88,0.5,0.33,0.48,0.55,0.44,0.58,0.5,0.58,0.56,0.48,0.44" style="fill:rgb(0,0,0);font-family:URWPalladioL-Roma;font-size:8.97px;stroke:none;">68. Weber, E.U. What shapes perceptions of climate change?</text>
   <text y="356.08" x="323.884,332.348,335.334,341.315,346.793,350.2913,352.523,358.503,360.996,363.489,370.464,372.7065,375.486,381.466,385.949,389.93,394.916,399.399" svgx:width="0.94,0.33,0.67,0.61,0.39,0.55,0.67,0.28,0.28,0.78,0.25,0.55,0.67,0.5,0.44,0.56,0.5,0.39" style="fill:rgb(0,0,0);font-family:URWPalladioL-Ital;font-size:8.97px;stroke:none;">WIREs Clim. Change</text>
   <text y="356.08" x="405.128,409.611,414.094,418.578" svgx:width="0.5,0.5,0.5,0.5" style="fill:rgb(0,0,0);font-family:URWPalladioL-Bold;font-size:8.97px;stroke:none;">2010</text>
   <text y="356.08" x="423.06" svgx:width="0.25" style="fill:rgb(0,0,0);font-family:URWPalladioL-Roma;font-size:8.97px;stroke:none;">,</text>
   <text y="356.08" x="427.543" svgx:width="0.5" style="fill:rgb(0,0,0);font-family:URWPalladioL-Ital;font-size:8.97px;stroke:none;">1</text>
   <text y="356.08" x="432.027,434.2695,436.51,440.993,445.477,449.96,454.443,458.926,463.409,467.893,470.1355,472.914" svgx:width="0.25,0.55,0.5,0.5,0.5,0.5,0.5,0.5,0.5,0.25,0.55,0.33" style="fill:rgb(0,0,0);font-family:URWPalladioL-Roma;font-size:8.97px;stroke:none;">, 332–342. [</text>
   <text y="356.08" x="475.9,482.257,485.637,490.533,494.335,498.136,504.126,508.421" svgx:width="0.71,0.4,0.55,0.42,0.42,0.67,0.48,0.33" style="fill:rgb(8,117,183);font-family:URWPalladioL-Roma;font-size:8.97px;stroke:none;">CrossRef</text>
   <text y="356.08" x="511.407" svgx:width="0.33" style="fill:rgb(0,0,0);font-family:URWPalladioL-Roma;font-size:8.97px;stroke:none;">]</text>
   <text y="368.992" x="76.535,81.018,85.501,87.74350000000001,98.05,106.566,111.481,119.43,122.365,126.866,131.367,133.6095,135.869,140.595,142.845,145.0875,147.355,155.872,160.373,164.19,169.618,175.118,177.3605,179.629,182.662,184.913,193.429,195.68,200.406" svgx:width="0.5,0.5,0.25,0.55,0.95,0.55,0.88,0.33,0.5,0.5,0.25,0.55,0.52,0.25,0.25,0.55,0.95,0.5,0.42,0.6,0.61,0.25,0.55,0.34,0.25,0.95,0.25,0.52,0.25" style="fill:rgb(0,0,0);font-family:URWPalladioL-Roma;font-size:8.97px;stroke:none;">69. Momtaz, S.; Masud, I.M.S.</text>
   <text y="368.992" x="204.906,210.406,214.908,219.409,222.911,226.412,228.915,232.417,237.422,241.086,243.589,248.594,253.079,255.346,261.35,263.853,266.355,273.359,277.356,280.354,283.8523,286.106,292.111,296.612,300.609,305.614,310.115,313.6133,315.877,318.38,323.40319999999997,325.635,331.136,335.133,340.138,344.639,347.142,351.139,355.64,359.142,362.644,367.145,369.3875,372.195,378.038,383.043,385.545,390.551,394.053,397.555,401.552,405.72,408.222,410.725,413.227,416.225,420.71000000000004,422.977,426.974,431.979,436.464,438.731,445.23,449.732,453.729,458.23,461.228,465.225,468.222,470.725,474.722,479.74519999999995,481.978,484.48,489.5032,491.745,497.75,501.747,505.744,509.246,512.243,516.24" svgx:width="0.61,0.5,0.5,0.39,0.39,0.28,0.39,0.56,0.41,0.28,0.56,0.5,0.55,0.67,0.28,0.28,0.78,0.44,0.33,0.39,0.55,0.67,0.5,0.44,0.56,0.5,0.39,0.55,0.28,0.56,0.55,0.61,0.44,0.56,0.5,0.28,0.44,0.5,0.39,0.39,0.5,0.25,0.55,0.72,0.56,0.28,0.56,0.39,0.39,0.44,0.46,0.28,0.28,0.28,0.33,0.5,0.55,0.44,0.56,0.5,0.55,0.72,0.5,0.44,0.5,0.33,0.44,0.33,0.28,0.44,0.56,0.55,0.28,0.56,0.55,0.67,0.44,0.44,0.39,0.33,0.44,0.28" style="fill:rgb(0,0,0);font-family:URWPalladioL-Ital;font-size:8.97px;stroke:none;">Experiencing Climate Change in Bangladesh: Vulnerability and Adaptation in Coastal</text>
   <text y="381.904" x="97.755,103.736,107.224,111.707,114.199,118.18,123.166" svgx:width="0.67,0.39,0.5,0.28,0.44,0.56,0.39" style="fill:rgb(0,0,0);font-family:URWPalladioL-Ital;font-size:8.97px;stroke:none;">Regions</text>
   <text y="381.904" x="126.653,128.8955,131.136,136.615,139.224,143.026,147.321,152.387,154.996,159.291,162.832,165.0745,167.854,174.829,182.747,186.549,189.472,193.767,197.147,202.625,207.109,215.026,217.26850000000002,219.509,225.005,230.224,234.5296,236.76,244.211,248.506,251.429,256.648,260.943,264.484,267.094,271.577,276.795,282.274,284.5165,286.757,291.24,295.723,300.207,304.69" svgx:width="0.25,0.55,0.61,0.29,0.42,0.48,0.56,0.29,0.48,0.4,0.25,0.55,0.78,0.88,0.42,0.33,0.48,0.4,0.61,0.5,0.88,0.25,0.55,0.61,0.58,0.48,0.55,0.83,0.48,0.33,0.58,0.48,0.4,0.29,0.5,0.58,0.61,0.25,0.55,0.5,0.5,0.5,0.5,0.25" style="fill:rgb(0,0,0);font-family:URWPalladioL-Roma;font-size:8.97px;stroke:none;">; Elsevier: Amsterdam, The Netherland, 2016.</text>
  </g>
  <rect style="stroke:blue;stroke-width:0.3;" x="77.56" y="355.475" height="29.098" width="83.136" title="12"/>
  <text y="355.475" class="image" id="image.12.1" width="83" height="29" x="77.56">image.12.1.78_161.355_385</text>
  <rect style="stroke:blue;stroke-width:0.3;" x="77.56" y="355.475" height="29.098" width="83.136" title="12"/>
  <text y="355.475" class="image" id="image.12.2" width="83" height="29" x="77.56">image.12.2.78_161.355_385</text>
  <g begin="text">
   <text y="403.817" x="168.065,174.7925,177.012,181.549,186.086,190.623,195.108,197.41,202.428,207.4512,209.724,212.682,217.963,222.2686,224.551,229.088,234.559,237.517,242.798,247.753,251.337,255.185,257.4275,260.257,265.801,268.442,272.47,276.817,282.098,285.945,290.292,294.5976,296.889,305.473,312.496,317.977,321.034,323.2765,325.553,331.098,335.635,339.482,343.828,346.469,348.7115,350.988,355.752,363.319,365.96,368.918,373.455,377.801,381.386,384.026,388.563,393.844,399.388,401.6305,404.452,410.014,415.295,417.936,421.7034,424.033,428.57,432.155,435.113,437.753,441.782,444.423,448.72860000000003,451.02,453.66,457.42740000000003,459.758,464.295,469.49760000000003,471.817,476.772,482.225,486.571,491.77360000000004,494.103,498.64,502.669,506.698,511.044,514.891" svgx:width="0.75,0.55,0.5,0.5,0.5,0.5,0.55,0.55,0.56,0.55,0.33,0.58,0.48,0.55,0.5,0.6,0.33,0.58,0.55,0.4,0.42,0.25,0.55,0.61,0.29,0.44,0.48,0.58,0.42,0.48,0.48,0.55,0.95,0.77,0.6,0.34,0.25,0.55,0.61,0.5,0.42,0.48,0.29,0.25,0.55,0.52,0.83,0.29,0.33,0.5,0.48,0.4,0.29,0.5,0.58,0.61,0.25,0.55,0.61,0.58,0.29,0.42,0.55,0.5,0.4,0.33,0.29,0.44,0.29,0.48,0.55,0.29,0.42,0.55,0.5,0.58,0.55,0.55,0.6,0.48,0.58,0.55,0.5,0.44,0.44,0.48,0.42,0.42" style="fill:rgb(0,0,0);font-family:URWPalladioL-Roma;font-size:8.97px;stroke:none;">© 2019 by the authors. Licensee MDPI, Basel, Switzerland. This article is an open access</text>
   <text y="416.728" x="169.401,173.898,177.45,180.382,182.999,186.992,189.609,193.9146,196.147,201.642,204.259,208.072,211.004,214.556,217.173,222.147,227.57,230.501,234.809,240.2807,242.534,247.957,253.192,258.686,262.994,266.58200000000005,268.777,271.709,276.943,281.2486,283.472,286.404,290.712,294.264,302.205,305.9724,308.249,312.745,317.979,323.4507,325.705,329.698,334.608,339.842,345.337,347.954,350.886,353.503,358.413,363.647,367.4144,369.691,374.601,377.5611,379.826,382.758,387.992,392.29760000000005,394.53,400.907,404.297,408.605,413.102,416.033,418.65,423.732,428.03760000000005,430.27,436.646,441.556,449.497,457.439,462.349,467.583,471.35040000000004,473.626,480.623,483.555,486.478,490.03,492.647,497.621,503.044,505.975,508.592,513.503" svgx:width="0.5,0.4,0.33,0.29,0.44,0.29,0.48,0.55,0.61,0.29,0.42,0.33,0.4,0.29,0.55,0.6,0.33,0.48,0.61,0.55,0.6,0.58,0.61,0.48,0.4,0.55,0.33,0.58,0.48,0.55,0.33,0.48,0.4,0.88,0.42,0.55,0.5,0.58,0.61,0.55,0.44,0.55,0.58,0.61,0.29,0.33,0.29,0.55,0.58,0.42,0.55,0.55,0.33,0.55,0.33,0.58,0.48,0.55,0.71,0.4,0.48,0.5,0.33,0.29,0.56,0.48,0.55,0.71,0.55,0.88,0.88,0.55,0.58,0.42,0.55,0.78,0.33,0.33,0.4,0.29,0.55,0.6,0.33,0.29,0.55,0.58" style="fill:rgb(0,0,0);font-family:URWPalladioL-Roma;font-size:8.97px;stroke:none;">article distributed under the terms and conditions of the Creative Commons Attribution</text>
   <text y="429.64" x="169.105,172.091,178.448,184.8167,187.047,192.525,198.506,201.4661,203.733,206.342,208.952,212.933,217.228,222.446,226.248,230.5536,232.784,235.77,240.989,243.912,246.835,252.224,254.465,259.899,265.332,269.313,272.694,276.989,281.472,284.395,287.004,292.07,296.365,300.346,305.242,313.159,321.076,325.972,331.191,334.992,337.234,342.13,345.51,350.495,355.929,358.538,361.147,365.128,369.423,374.642,378.443,382.738,386.54,391.974,396.932,401.917,407.351,411.834,414.076,418.559,423.993,426.978" svgx:width="0.33,0.71,0.71,0.55,0.61,0.67,0.33,0.55,0.29,0.29,0.44,0.48,0.58,0.42,0.48,0.55,0.33,0.58,0.33,0.33,0.6,0.25,0.61,0.61,0.44,0.4,0.48,0.5,0.33,0.29,0.56,0.48,0.44,0.55,0.88,0.88,0.55,0.58,0.42,0.25,0.55,0.4,0.56,0.61,0.29,0.29,0.44,0.48,0.58,0.42,0.48,0.42,0.61,0.55,0.56,0.61,0.5,0.25,0.5,0.61,0.33,0.25" style="fill:rgb(0,0,0);font-family:URWPalladioL-Roma;font-size:8.97px;stroke:none;">(CC BY) license (http://creativecommons.org/licenses/by/4.0/).</text>
  </g>
 </g>
</svg>
