<?xml version="1.0" encoding="UTF-8"?>
<svg height="787.776" width="587.8859082241379" xmlns="http://www.w3.org/2000/svg">
 <g style="fill:none;">
  <text x="172.516,176.827,180.382,182.551,185.449,190.417,194.917,197.065,203.626,208.495,211.393,214.948,217.846,220.027,224.896,227.79399999999998,229.948,235.006,239.506,243.061,245.959,248.09,252.113,256.424,259.979,264.479,266.629,271.129,275.44,279.94,282.838,287.05,293.611,298.579,303.079,305.977,310.477,312.25,314.423,318.824,323.792,328.292,330.467,334.49,338.801,343.67,347.225,351.536,353.597,355.753,357.814,362.782,365.68,370.18,373.078,375.139,377.2,382.168,386.38,390.691,395.659,400.159,403.714,405.871,410.929,415.429,418.327,424.888,429.388,433.888,438.856,440.965,443.863,448.363,453.331,455.392,460.261,465.229,469.54,471.601,473.791,477.814,482.782,487.093,492.061,497.029,501.529,503.67,507.981,511.536,513.705,516.603,521.103,525.414,527.475,529.536,533.379,537.879,542.937,545.057,547.955,552.923,555.821,560.69,565.559,570.527" y="624.762" svg_rhmargin="575.495" style="fill:#000000;font-family:GNNKGL+AdvTTe45e47d2;font-size:9.0px;font-style:NORMAL;font-weight:normal;">as the worst or best case everywhere. The causal interlinkages between regional change as realized through</text>
  <text x="172.516,175.414,179.914,183.937,188.806,193.774,198.742,200.803,204.646,208.958,214.016,216.077,220.577,222.295,227.353,231.664,234.562,237.46,241.96,244.858,249.826,253.381,255.121,259.99,262.60900000000004,264.362,268.385,273.353,277.664,282.632,287.6,292.1,293.844,296.373,300.873,302.646,307.614,309.387,311.16,312.893,317.204,320.759,322.531,325.15,330.019,334.888,339.856,344.914,346.626,351.684,355.896,357.682,359.743,364.711,369.769,371.83,376.141,378.202,383.26,388.129,392.44,394.501,396.234,403.731,408.6,413.658,418.158,420.219,423.774,426.303,428.04,432.351,435.249,439.749,441.476,443.537,451.034,456.092,460.961,463.859,466.757,471.068,476.036,478.934,480.709,483.607,488.107,490.168,494.668,498.691,503.56,508.528,513.496,517.996,522.019,524.917,526.978,531.847,536.815,540.37,542.11,545.008,549.976,554.287,557.1850000000001,558.948,561.009,563.07,570.567,572.628" y="636.7239999999999" svg_rhmargin="575.526" style="fill:#000000;font-family:GNNKGL+AdvTTe45e47d2;font-size:9.0px;font-style:NORMAL;font-weight:normal;">recognizable patterns of change (e.g., as found by individual models) are important teleconnections that limit</text>
  <text x="172.516,175.414,180.382,184.882,188.277,192.588,196.899,198.96,201.021,206.079,208.14,211.038,215.25,218.666,223.535,226.154,229.551,233.862,238.83,243.042,246.446,248.507,256.004,261.062,263.123,265.184,269.207,271.268,274.166,277.572,281.883,285.438,288.993,293.862,301.359,306.417,309.315,311.376,316.245,321.213,324.628,328.939,333.997,338.866,343.735,346.63300000000004,350.084,352.145,357.014,361.037,365.348,367.409,370.834,372.895,377.863,382.921,387.421,392.479,396.979,401.947,407.005,411.505,416.473,420.496,424.996,428.379,433.248,435.867,439.265,443.288,448.256,452.567,457.535,462.503,467.003,468.776,472.148,475.046,480.014,484.325,487.223,490.687,492.748,496.303,498.076,501.459,504.357,509.325,513.825,517.22,519.281,523.592,530.153,533.708,537.12,541.989,544.6080000000001,548.062,553.12,558.088,562.3,565.855,567.916,571.939" y="648.7429999999999" svg_rhmargin="575.494" style="fill:#000000;font-family:GNNKGL+AdvTTe45e47d2;font-size:9.0px;font-style:NORMAL;font-weight:normal;">the validity of any implicit assumption about local independence of change; that is, the laws of physics</text>
  <text x="172.516,176.539,181.408,186.376,189.931,192.829,195.727,200.038,202.099,207.06699999999998,209.481,212.379,217.347,221.847,224.278,227.833,230.731,235.042,237.94,240.001,243.556,246.454,248.515,252.538,256.093" y="660.761" svg_rhmargin="257.866" style="fill:#000000;font-family:GNNKGL+AdvTTe45e47d2;font-size:9.0px;font-style:NORMAL;font-weight:normal;">constrain the statistics.</text>
  <text x="172.516,178.589,181.339,184.818,191.341,197.633,204.046,208.963,211.933,218.225,222.922,225.892,232.184,238.597" y="693.984" svg_rhmargin="243.294" style="fill:#0a3a69;font-family:GNNJIP+AdvTTaf7f9f4f.B;font-size:11.0px;font-style:NORMAL;font-weight:normal;">4. Conclusions</text>
  <text x="172.516,180.104,184.604,186.746,191.714,196.025,200.336,204.836,206.93,210.485,215.453,220.322,226.883,231.851,233.973,236.871,241.839,246.15,249.048,251.208,256.176,259.074,261.135,266.193,268.33,273.388,278.257,280.318,285.286,288.184,290.327,293.882,296.78,301.091,303.989,306.05,309.605,312.503,314.564,318.587,322.142,324.345,329.313,332.211,337.08,340.635,344.19,346.251,350.46299999999997,352.579,357.637,362.137,367.105,370.003,374.314,379.372,383.872,387.427,389.6,393.911,398.222,402.533,404.594,406.655,410.966,416.024,418.085,422.585,424.694,429.752,434.063,436.961,439.859,444.359,447.257,452.225,455.78000000000003,457.917,462.786,465.40500000000003,467.556,469.617,474.585,477.204,482.073,484.971,492.468,496.779,499.677,501.738,506.607,511.57500000000005,513.705,518.763,521.661,526.161,529.716,534.216,539.184,542.082,544.263,546.324,551.2919999999999,553.391,560.888,565.757,567.818,570.716,572.777" y="710.992" svg_rhmargin="575.495" style="fill:#000000;font-family:GNNKGL+AdvTTe45e47d2;font-size:9.0px;font-style:NORMAL;font-weight:normal;">We have shown that grid point statistics grossly degrades available patterns of information present in multi-</text>
  <text x="172.516,180.013,184.882,189.94,194.44,196.501,198.256,202.279,204.34,206.401,213.898,218.209,221.107,225.607,227.34,232.398,235.296,240.165,242.316,246.816,250.839,253.737,255.798,260.667,265.635,269.19,270.995,275.306,280.274,285.332,287.096,291.119,295.988,300.956,304.511,309.011,314.069,318.938,323.438,328.406,331.304,333.365,337.577,339.369,341.43" y="723.011" svg_rhmargin="346.398" style="fill:#000000;font-family:GNNKGL+AdvTTe45e47d2;font-size:9.0px;font-style:NORMAL;font-weight:normal;">model climate projections and consequently in</text>
  <text x="346.394" y="723.011" svg_rhmargin="351.074" style="fill:#000000;font-family:GNNKHM+AdvTTe45e47d2+fb;font-size:9.0px;font-style:NORMAL;font-weight:normal;">ﬂ</text>
  <text x="351.042,355.353,358.251,362.751,366.306,368.107,372.976,377.944,381.967,386.467,389.365,392.263,396.574,398.635,403.603,406.501,410.71299999999997,412.5,417.0,420.555,423.453,425.514,433.011,437.322,440.22,444.72,448.27500000000003,450.032,455.09,459.401,462.956,467.456,472.514,474.296,479.165,484.13300000000004,485.862,490.173,491.985,499.482,504.351,506.412,509.31,511.371,518.868,523.737,528.795,533.295,535.356,537.115,541.615,546.583,550.138,554.638,562.135,567.193,569.254,573.754" y="723.011" svg_rhmargin="575.527" style="fill:#000000;font-family:GNNKGL+AdvTTe45e47d2;font-size:9.0px;font-style:NORMAL;font-weight:normal;">ates uncertainty estimates based on a multimodel ensemble.</text>
  <text x="172.516,180.104,184.604,186.633,189.252,194.121,197.019,199.917,204.885,209.385,212.283,214.357,219.415,224.284,226.345,231.313,234.21099999999998,236.241,241.11,245.979,248.877,250.981,253.879,258.847,263.158,266.05600000000004,268.103,271.658,273.719,281.216,283.277,285.338,289.649,292.547,294.579,296.64,301.608,305.631,310.5,315.468,319.023,321.084,324.639,327.537,332.037,337.005,341.028,343.089,347.589,351.144,353.201,357.512,360.41,362.471,366.026,370.526,372.591,379.152,384.12,388.62,393.588,395.609,399.164,404.033,409.091,412.646,417.146,420.044,423.599,425.714,430.583,433.20200000000006,435.239,439.262,441.323,443.384,450.881,455.192,458.09,462.59,464.664,472.161,477.03,482.088,486.588,488.649,492.204,494.258,498.569,501.467,505.967,507.978,511.533,516.033,518.094,522.594,526.617,529.515,534.015,539.073,541.145,546.203,550.514,554.069,558.569,563.627,565.693,570.562" y="734.973" svg_rhmargin="575.53" style="fill:#000000;font-family:GNNKGL+AdvTTe45e47d2;font-size:9.0px;font-style:NORMAL;font-weight:normal;">We further point out that similar inconsistencies arise when subsets of climate models are selected based on</text>
  <text x="172.516,175.414,179.914,184.882,186.943,191.813,196.781,201.092,203.15300000000002,204.946,208.969,211.867,213.928,216.826,221.326,224.224,226.285,230.596,232.386,237.255,240.153,241.968,248.529,253.497,257.997,262.96500000000003,264.759,267.657,272.157,277.125,279.186,284.055,289.023,293.334,295.395,297.189,302.247,305.145,310.014,315.072,319.383,324.441,326.502,328.563,330.624,334.179,337.077,339.138,343.161,344.926,349.984,352.882,357.751,359.902,364.402,368.425,371.323,373.384,378.253,383.221,386.776,388.638,392.949,395.847,400.347,402.131,406.442,411.5,416.558,418.619,420.68,425.18,430.238,432.009,436.878,440.433,442.494,447.462,452.43,454.234,459.202,461.263,466.132,471.19,475.501,477.56199999999995,479.349,486.846,491.715,496.773,501.273,503.334,506.889,508.66200000000003,510.475,512.536,515.155,516.938,521.906,523.967,528.836,533.894,538.205,540.2660000000001,542.053,545.608,550.108,552.169,556.669,560.692,563.59,565.651,570.52" y="746.991" svg_rhmargin="575.488" style="fill:#000000;font-family:GNNKGL+AdvTTe45e47d2;font-size:9.0px;font-style:NORMAL;font-weight:normal;">regional criteria or when regional probabilistic projections are applied using global models. If global selection</text>
  <path d="M78.575 98.708 L532.856 98.708 L532.856 554.802 L78.575 554.802 " style="fill:none;stroke:#000000;stroke-width:1.0;"/>
  <rect style="stroke:blue;stroke-width:0.3;" x="78.576" y="98.709" height="456.094" width="454.483" title="6"/>
  <text x="78.576" y="98.709" class="image" id="image.6.1" width="454" height="456">image.6.1.79_533.99_555</text>
  <text svg_rhmargin="67.248" x="36.0,40.16,42.32,46.984,51.56,54.56,58.72,60.832,65.248,67.248" y="572.775" style="fill:#000000;font-family:GNNJIP+AdvTTaf7f9f4f.B;font-size:8.0px;font-style:NORMAL;font-weight:normal;">Figure 5. </text>
  <text x="69.505,74.665,77.241,79.073,83.56899999999999,85.663,90.159,94.486,96.318,100.734,103.30999999999999,105.392,109.224,113.64,118.136,120.245,126.909,131.237,135.733,139.733,141.565,143.603,146.763,149.339,153.171,155.747,157.578,160.738,163.314,165.146,168.722,171.882,173.99,176.318,180.646,183.22199999999998,185.329,190.576,194.904,197.48,200.056,204.472,208.472,211.048,215.464,217.531,221.442,225.77,228.346,232.674,237.17,241.17,242.74599999999998,244.857,249.433,253.432,257.848,260.424,263.0,266.832,268.664,270.708,274.62,278.948,281.524,285.852,290.348,294.348,295.92400000000004,298.034,301.866,306.282,310.77799999999996,312.831,315.407,319.823,323.823,325.927,332.343,336.343,340.839,342.67,345.246,349.246,351.822,354.398,358.23,362.646,366.646,370.374,374.79,376.894,379.47,383.47,387.886,389.718,394.046,398.462,400.038,402.122,406.034,410.53,413.106,417.106,420.938,425.43399999999997,427.521,429.352,433.768,435.854,438.43,442.43,444.262,448.094,450.67,452.502,456.334,460.334,462.443,466.939,469.515,473.515,477.091,478.923,483.419,485.251,487.827,491.659,494.135,495.967,500.295,504.711,506.834,510.41,514.826,518.658,523.074,527.49,531.49,534.65,536.711,538.959,543.039,547.119,551.199" y="572.775" svg_rhmargin="555.279" style="fill:#000000;font-family:GNNKGL+AdvTTe45e47d2;font-size:8.0px;font-style:NORMAL;font-weight:normal;">Grid point and model statistics for Northern Europe, Central Europe, and the Mediterranean region. Spread in relative precipitation changes (2081</text>
  <text x="555.248" y="572.775" svg_rhmargin="559.248" style="fill:#000000;font-family:GNNNNJ+AdvTTe45e47d2+20;font-size:8.0px;font-style:NORMAL;font-weight:normal;">–</text>
  <text x="559.217,563.297,567.377,571.457" y="572.775" svg_rhmargin="575.537" style="fill:#000000;font-family:GNNKGL+AdvTTe45e47d2;font-size:8.0px;font-style:NORMAL;font-weight:normal;">2100</text>
  <text x="36.0,41.832,43.664,46.24,50.656000000000006,52.781,55.357,59.357,62.517,67.013,71.013,74.589,77.16499999999999,79.257,81.833,86.161,88.328,92.408,96.488,100.568" y="582.7529999999999" svg_rhmargin="104.648" style="fill:#000000;font-family:GNNKGL+AdvTTe45e47d2;font-size:8.0px;font-style:NORMAL;font-weight:normal;">with respect to 1986</text>
  <text x="104.598" y="582.7529999999999" svg_rhmargin="108.598" style="fill:#000000;font-family:GNNNNJ+AdvTTe45e47d2+20;font-size:8.0px;font-style:NORMAL;font-weight:normal;">–</text>
  <text x="108.624,112.704,116.784,120.864,124.944,127.19200000000001,129.316,131.644,135.972,138.548,140.655,143.231,147.647,151.647,153.807,158.055,162.631,166.879,170.959,172.535,176.615,178.696,181.856,185.432,189.432,193.848,197.68,200.256,202.088,206.416,208.516,212.348,216.764,221.26000000000002,223.426,227.258,231.674,233.801,237.801,242.217,245.377,249.377,256.041,260.537,262.261,266.261,268.44,272.768,275.09599999999995,277.227,281.307,285.387,287.546,292.122,298.537,300.369,304.617,308.697,310.79,317.454,321.782,326.278,330.278,332.11,335.27000000000004,337.379,341.707,344.867,346.699,351.115,355.531,357.675,360.251,364.667,367.243,371.243,375.243,377.348,381.844,383.676,386.004,388.332,392.331,394.907,398.907,403.323,405.899,407.962,411.794,416.29,420.785,423.361,427.689,431.521,435.097,439.513,443.513,446.673,448.249,450.368,452.616,456.448,458.024,460.176,464.672,466.24800000000005,468.397,472.229,476.645,481.14099999999996,483.25,487.666,489.914,492.037,495.949,500.365,504.365,506.494,513.158,517.486,521.982,525.982,527.814,530.9739999999999,533.083,536.915,539.491,543.491,545.613,548.189,552.021,556.437,560.181,564.181" y="582.7529999999999" svg_rhmargin="568.677" style="fill:#000000;font-family:GNNKGL+AdvTTe45e47d2;font-size:8.0px;font-style:NORMAL;font-weight:normal;">2005) for the RCP8.5 scenario and an ensemble of 39 CMIP5 models using three different approaches. (a, d, and g) The models are ranked</text>
  <text x="36.001,39.833,43.409,46.985,51.313,53.889,58.385,60.216,64.632,69.048,70.697,73.273,77.601,79.258,81.834,86.25,90.25,92.082,94.65799999999999,96.322,98.898,102.898,107.314,109.146,113.474,117.89,121.722,123.55399999999999,125.179,131.843,135.843,139.675,144.091,145.759,149.335,153.751,157.582,161.998,166.414,170.414,172.007,173.839,178.255,179.944,184.44,187.016,191.016,194.592,196.424,200.92,202.751,205.327,209.159,211.735,213.567,217.814,222.23,223.80599999999998,225.525,227.773,232.269,233.845,235.503,239.503,241.07899999999998,242.76,246.592,251.008,255.50400000000002,257.16,261.576,263.824,265.55,268.126,272.542,276.542,278.192,282.024,285.856,287.688,292.016,296.016,299.17600000000004,300.813,304.645,307.221,311.221,312.888,315.464,319.296,323.712,327.456,331.456,335.952,337.607,342.022,344.598,346.43,350.926,352.574,357.069,361.397,363.229,367.645,370.221,371.906,376.402,380.146,381.828,386.244,388.819,390.651,395.147,396.795,401.291,405.618,407.45,411.866,414.442,416.01800000000003,417.714,421.546,425.962,430.45799999999997,432.114,434.362,437.938,439.514,441.185,443.513,445.089,446.798,450.63,455.046,459.542,461.198,463.03,465.27799999999996,466.98,469.556,473.972,477.972,479.622,486.286,490.614,495.11,499.11,500.942,504.10200000000003,505.758,509.59,512.166,516.166,517.834,520.41,524.242,528.655,532.399,536.399,540.895,542.493,546.325,549.901,553.477,557.805,560.381,564.877,566.709,571.125" y="592.731" svg_rhmargin="575.541" style="fill:#000000;font-family:GNNKGL+AdvTTe45e47d2;font-size:8.0px;font-style:NORMAL;font-weight:normal;">according to their regional mean change in precipitation, (b, e, and h) the values are ranked grid point by grid point, and (c, f, and i) the models are ranked according</text>
  <text x="36.001,38.577,42.905,45.072,47.648,52.064,56.064,57.896,60.472,62.59,67.006,68.838,73.166,77.662,81.494,83.326,85.437,92.101,96.101,99.933,104.349,106.47,110.966,113.542,117.542,121.118,122.95,127.446,129.278,131.756,135.588,138.163,139.995,144.323,148.739,150.861,154.437,158.853,162.685,167.101,171.517,175.517" y="602.766" svg_rhmargin="177.093" style="fill:#000000;font-family:GNNKGL+AdvTTe45e47d2;font-size:8.0px;font-style:NORMAL;font-weight:normal;">to their global mean precipitation change.</text>
  <path d=" M 35.94300079345703 720.4530029296875 L 575.4329833984375 720.4530029296875 L 575.4329833984375 721.0198974609375 L 35.94300079345703 721.0198974609375 Z " style="fill:none;stroke:#000000;stroke-width:1.0;"/>
  <path d=" M 67.21399688720703 747.5440063476562 C 65.47200012207031 748.9929809570312 62.96299743652344 749.1170043945312 60.50799560546875 748.1300048828125 C 60.563995361328125 748.0969848632812 60.88999557495117 747.9140014648438 60.94599533081055 747.8790283203125 C 63.41499710083008 748.7080078125 65.60099792480469 748.5289916992188 67.06999969482422 746.9290161132812 C 69.31599426269531 744.47998046875 68.19599914550781 740.2130126953125 64.81399536132812 737.1119995117188 C 62.197998046875 734.7130126953125 59.31199645996094 735.1370239257812 56.90199661254883 736.0040283203125 C 56.90199661254883 736.0040283203125 58.13099670410156 731.8790283203125 62.20999526977539 731.1090087890625 C 64.45599365234375 733.4329833984375 64.45599365234375 733.4329833984375 66.43000030517578 735.8049926757812 C 69.79399871826172 739.8510131835938 70.14599609375 745.1060180664062 67.21399688720703 747.5440063476562" style="fill:none;stroke:#000000;stroke-width:1.0;"/>
  <path d=" M 67.21399688720703 747.5440063476562 C 65.47200012207031 748.9929809570312 62.96299743652344 749.1170043945312 60.50799560546875 748.1300048828125 C 60.563995361328125 748.0969848632812 60.88999557495117 747.9140014648438 60.94599533081055 747.8790283203125 C 63.41499710083008 748.7080078125 65.60099792480469 748.5289916992188 67.06999969482422 746.9290161132812 C 69.31599426269531 744.47998046875 68.19599914550781 740.2130126953125 64.81399536132812 737.1119995117188 C 62.197998046875 734.7130126953125 59.31199645996094 735.1370239257812 56.90199661254883 736.0040283203125 C 56.90199661254883 736.0040283203125 58.13099670410156 731.8790283203125 62.20999526977539 731.1090087890625 C 64.45599365234375 733.4329833984375 64.45599365234375 733.4329833984375 66.43000030517578 735.8049926757812 C 69.79399871826172 739.8510131835938 70.14599609375 745.1060180664062 67.21399688720703 747.5440063476562" style="fill:none;stroke:#000000;stroke-width:1.0;"/>
  <path d="M67.213 52.455 C65.471 51.007 62.962 50.882 60.507 51.869 C60.563 51.903 60.889 52.085 60.945 52.12 C63.414 51.291 65.601 51.471 67.07 53.07 C69.315 55.52 68.196 59.786 64.813 62.888 C62.197 65.286 59.311 64.862 56.901 63.995 C56.901 63.995 58.13 68.12 62.209 68.89 C64.455 66.567 64.455 66.567 66.43 64.195 C69.794 60.148 70.145 54.893 67.214 52.455 M67.213 52.455 C65.471 51.007 62.962 50.882 60.507 51.869 C60.563 51.903 60.889 52.085 60.945 52.12 C63.414 51.291 65.601 51.471 67.07 53.07 C69.315 55.52 68.196 59.786 64.813 62.888 C62.197 65.286 59.311 64.862 56.901 63.995 C56.901 63.995 58.13 68.12 62.209 68.89 C64.455 66.567 64.455 66.567 66.43 64.195 C69.794 60.148 70.145 54.893 67.214 52.455 " style="fill:none;stroke:#000000;stroke-width:1.0;"/>
  <path d=" M 49.803001403808594 747.4739990234375 C 48.35300064086914 745.7310180664062 48.230003356933594 743.2230224609375 49.217002868652344 740.7680053710938 C 49.25 740.823974609375 49.43300247192383 741.1489868164062 49.467002868652344 741.2059936523438 C 48.63800048828125 743.6740112304688 48.81700134277344 745.8610229492188 50.41800308227539 747.3300170898438 C 52.867000579833984 749.5770263671875 57.134002685546875 748.4559936523438 60.23500061035156 745.073974609375 C 62.634002685546875 742.4569702148438 62.20899963378906 739.572021484375 61.34100341796875 737.1610107421875 C 61.34100341796875 737.1610107421875 65.46700286865234 738.3909912109375 66.23600006103516 742.468994140625 C 63.913002014160156 744.7150268554688 63.913002014160156 744.7150268554688 61.54199981689453 746.6890258789062 C 57.49500274658203 750.052001953125 52.2400016784668 750.406005859375 49.803001403808594 747.4739990234375" style="fill:none;stroke:#000000;stroke-width:1.0;"/>
  <path d=" M 49.803001403808594 747.4739990234375 C 48.35300064086914 745.7310180664062 48.230003356933594 743.2230224609375 49.217002868652344 740.7680053710938 C 49.25 740.823974609375 49.43300247192383 741.1489868164062 49.467002868652344 741.2059936523438 C 48.63800048828125 743.6740112304688 48.81700134277344 745.8610229492188 50.41800308227539 747.3300170898438 C 52.867000579833984 749.5770263671875 57.134002685546875 748.4559936523438 60.23500061035156 745.073974609375 C 62.634002685546875 742.4569702148438 62.20899963378906 739.572021484375 61.34100341796875 737.1610107421875 C 61.34100341796875 737.1610107421875 65.46700286865234 738.3909912109375 66.23600006103516 742.468994140625 C 63.913002014160156 744.7150268554688 63.913002014160156 744.7150268554688 61.54199981689453 746.6890258789062 C 57.49500274658203 750.052001953125 52.2400016784668 750.406005859375 49.803001403808594 747.4739990234375" style="fill:none;stroke:#000000;stroke-width:1.0;"/>
  <path d=" M 49.87300109863281 730.06201171875 C 51.6150016784668 728.614013671875 54.124000549316406 728.4910278320312 56.58000183105469 729.4760131835938 C 56.52400207519531 729.509033203125 56.19700241088867 729.6920166015625 56.14200210571289 729.7269897460938 C 53.672000885009766 728.8980102539062 51.486000061035156 729.0770263671875 50.01700210571289 730.677001953125 C 47.770999908447266 733.125 48.8910026550293 737.3930053710938 52.27300262451172 740.4949951171875 C 54.88999938964844 742.8930053710938 57.775001525878906 742.468994140625 60.18600082397461 741.6010131835938 C 60.18600082397461 741.6010131835938 58.957000732421875 745.7260131835938 54.87700271606445 746.4960327148438 C 52.63100051879883 744.1719970703125 52.63100051879883 744.1719970703125 50.65700149536133 741.801025390625 C 47.294002532958984 737.7540283203125 46.94200134277344 732.5 49.87300109863281 730.06201171875" style="fill:none;stroke:#000000;stroke-width:1.0;"/>
  <path d=" M 49.87300109863281 730.06201171875 C 51.6150016784668 728.614013671875 54.124000549316406 728.4910278320312 56.58000183105469 729.4760131835938 C 56.52400207519531 729.509033203125 56.19700241088867 729.6920166015625 56.14200210571289 729.7269897460938 C 53.672000885009766 728.8980102539062 51.486000061035156 729.0770263671875 50.01700210571289 730.677001953125 C 47.770999908447266 733.125 48.8910026550293 737.3930053710938 52.27300262451172 740.4949951171875 C 54.88999938964844 742.8930053710938 57.775001525878906 742.468994140625 60.18600082397461 741.6010131835938 C 60.18600082397461 741.6010131835938 58.957000732421875 745.7260131835938 54.87700271606445 746.4960327148438 C 52.63100051879883 744.1719970703125 52.63100051879883 744.1719970703125 50.65700149536133 741.801025390625 C 47.294002532958984 737.7540283203125 46.94200134277344 732.5 49.87300109863281 730.06201171875" style="fill:none;stroke:#000000;stroke-width:1.0;"/>
  <path d=" M 67.28500366210938 730.1329956054688 C 68.73400115966797 731.875 68.85800170898438 734.3829956054688 67.87100219726562 736.8380126953125 C 67.83800506591797 736.7830200195312 67.6550064086914 736.4580078125 67.62000274658203 736.4010009765625 C 68.44900512695312 733.9299926757812 68.27000427246094 731.7449951171875 66.66900634765625 730.2769775390625 C 64.22100067138672 728.0299682617188 59.954002380371094 729.1510009765625 56.85200500488281 732.5330200195312 C 54.454002380371094 735.1489868164062 54.87800598144531 738.0339965820312 55.746002197265625 740.4459838867188 C 55.746002197265625 740.4459838867188 51.621002197265625 739.2160034179688 50.85100555419922 735.1370239257812 C 53.17500305175781 732.8909912109375 53.17500305175781 732.8909912109375 55.54600524902344 730.91796875 C 59.592002868652344 727.552978515625 64.84700012207031 727.2009887695312 67.28500366210938 730.1329956054688" style="fill:none;stroke:#000000;stroke-width:1.0;"/>
  <path d=" M 67.28500366210938 730.1329956054688 C 68.73400115966797 731.875 68.85800170898438 734.3829956054688 67.87100219726562 736.8380126953125 C 67.83800506591797 736.7830200195312 67.6550064086914 736.4580078125 67.62000274658203 736.4010009765625 C 68.44900512695312 733.9299926757812 68.27000427246094 731.7449951171875 66.66900634765625 730.2769775390625 C 64.22100067138672 728.0299682617188 59.954002380371094 729.1510009765625 56.85200500488281 732.5330200195312 C 54.454002380371094 735.1489868164062 54.87800598144531 738.0339965820312 55.746002197265625 740.4459838867188 C 55.746002197265625 740.4459838867188 51.621002197265625 739.2160034179688 50.85100555419922 735.1370239257812 C 53.17500305175781 732.8909912109375 53.17500305175781 732.8909912109375 55.54600524902344 730.91796875 C 59.592002868652344 727.552978515625 64.84700012207031 727.2009887695312 67.28500366210938 730.1329956054688" style="fill:none;stroke:#000000;stroke-width:1.0;"/>
  <path d=" M 96.23999786376953 736.5570068359375 L 100.70700073242188 736.5570068359375 L 100.70700073242188 732.2059936523438 C 100.24199676513672 731.9970092773438 99.78099822998047 731.8190307617188 98.47200012207031 731.8190307617188 C 94.39899444580078 731.8190307617188 91.66400146484375 734.2490234375 91.66400146484375 738.802978515625 C 91.66400146484375 743.4750366210938 94.60199737548828 745.6810302734375 98.79299926757812 745.6810302734375 C 100.85699462890625 745.6810302734375 102.16600036621094 745.0579833984375 103.2439956665039 744.552001953125 L 103.29299926757812 744.7349853515625 L 103.29299926757812 748.3870239257812 C 102.26599884033203 748.7330322265625 100.70500183105469 749.041015625 98.81999969482422 749.041015625 C 92.33399963378906 749.041015625 87.93899536132812 744.9940185546875 87.91199493408203 738.6240234375 C 87.91199493408203 735.5880126953125 88.89999389648438 732.9400024414062 90.6449966430664 731.2429809570312 C 92.50699615478516 729.427001953125 95.03900146484375 728.5650024414062 98.35599517822266 728.5650024414062 C 100.94499969482422 728.5650024414062 103.38800048828125 729.218994140625 104.63999938964844 729.6950073242188 L 104.63999938964844 740.3599853515625 L 96.23999786376953 740.3599853515625 L 96.23999786376953 736.5570068359375" style="fill:none;stroke:#000000;stroke-width:1.0;"/>
  <path d=" M 118.88800048828125 748.9340209960938 L 118.88800048828125 737.4440307617188 C 118.88800048828125 733.5140380859375 117.7969970703125 732.3190307617188 115.17400360107422 732.3190307617188 C 112.552001953125 732.3190307617188 111.45999908447266 733.5140380859375 111.45999908447266 737.4440307617188 L 111.45999908447266 748.9340209960938 L 107.36599731445312 748.9340209960938 L 107.36599731445312 737.5040283203125 C 107.36599731445312 731.4089965820312 110.02100372314453 728.677001953125 115.05599975585938 728.5790405273438 L 115.05599975585938 728.5750122070312 C 115.09500122070312 728.5750122070312 115.13500213623047 728.5770263671875 115.17400360107422 728.5770263671875 C 115.21299743652344 728.5770263671875 115.25199890136719 728.5750122070312 115.29299926757812 728.5750122070312 L 115.29199981689453 728.5790405273438 C 120.32499694824219 728.677001953125 122.9800033569336 731.4089965820312 122.9800033569336 737.5040283203125 L 122.9800033569336 748.9340209960938 L 118.88800048828125 748.9340209960938" style="fill:none;stroke:#000000;stroke-width:1.0;"/>
  <path d=" M 78.98600006103516 741.9990234375 C 79.31900024414062 741.10302734375 81.52100372314453 736.1410522460938 81.52100372314453 736.1410522460938 L 76.48600006103516 736.1410522460938 C 76.48600006103516 736.1410522460938 78.65299987792969 741.10302734375 78.98600006103516 741.9990234375 M 78.98999786376953 749.4800415039062 L 68.9489974975586 728.7550048828125 L 73.38200378417969 728.7550048828125 L 75.12200164794922 732.9130249023438 L 82.875 732.9130249023438 L 84.61100006103516 728.7550048828125 L 89.04100036621094 728.7550048828125 L 78.98999786376953 749.4800415039062" style="fill:none;stroke:#000000;stroke-width:1.0;"/>
  <path d="M49.803 52.526 C48.353 54.268 48.23 56.776 49.217 59.231 C49.25 59.176 49.433 58.851 49.467 58.794 C48.638 56.325 48.817 54.138 50.418 52.669 C52.867 50.422 57.134 51.544 60.235 54.926 C62.634 57.543 62.209 60.427 61.341 62.838 C61.341 62.838 65.467 61.609 66.236 57.531 C63.913 55.284 63.913 55.284 61.542 53.31 C57.495 49.947 52.24 49.593 49.803 52.526 M49.803 52.526 C48.353 54.268 48.23 56.776 49.217 59.231 C49.25 59.176 49.433 58.851 49.467 58.794 C48.638 56.325 48.817 54.138 50.418 52.669 C52.867 50.422 57.134 51.544 60.235 54.926 C62.634 57.543 62.209 60.427 61.341 62.838 C61.341 62.838 65.467 61.609 66.236 57.531 C63.913 55.284 63.913 55.284 61.542 53.31 C57.495 49.947 52.24 49.593 49.803 52.526 M49.873 69.937 C51.615 71.385 54.124 71.508 56.58 70.523 C56.524 70.49 56.197 70.307 56.142 70.273 C53.672 71.101 51.486 70.922 50.017 69.322 C47.771 66.875 48.891 62.606 52.273 59.505 C54.89 57.106 57.775 57.531 60.186 58.398 C60.186 58.398 58.957 54.273 54.877 53.503 C52.631 55.828 52.631 55.828 50.657 58.198 C47.294 62.245 46.942 67.5 49.873 69.937 M49.873 69.937 C51.615 71.385 54.124 71.508 56.58 70.523 C56.524 70.49 56.197 70.307 56.142 70.273 C53.672 71.101 51.486 70.922 50.017 69.322 C47.771 66.875 48.891 62.606 52.273 59.505 C54.89 57.106 57.775 57.531 60.186 58.398 C60.186 58.398 58.957 54.273 54.877 53.503 C52.631 55.828 52.631 55.828 50.657 58.198 C47.294 62.245 46.942 67.5 49.873 69.937 M67.285 69.867 C68.734 68.125 68.858 65.617 67.871 63.161 C67.838 63.216 67.655 63.541 67.62 63.598 C68.449 66.07 68.27 68.255 66.669 69.723 C64.221 71.97 59.954 70.848 56.852 67.466 C54.454 64.851 54.878 61.966 55.746 59.554 C55.746 59.554 51.621 60.783 50.851 64.862 C53.175 67.109 53.175 67.109 55.546 69.082 C59.592 72.447 64.846 72.799 67.285 69.867 M67.285 69.867 C68.734 68.125 68.858 65.617 67.871 63.161 C67.838 63.216 67.655 63.541 67.62 63.598 C68.449 66.07 68.27 68.255 66.669 69.723 C64.221 71.97 59.954 70.848 56.852 67.466 C54.454 64.851 54.878 61.966 55.746 59.554 C55.746 59.554 51.621 60.783 50.851 64.862 C53.175 67.109 53.175 67.109 55.546 69.082 C59.592 72.447 64.846 72.799 67.285 69.867 M96.239 63.442 L100.707 63.442 L100.707 67.794 C100.242 68.002 99.781 68.18 98.472 68.18 C94.398 68.18 91.664 65.75 91.664 61.197 C91.664 56.524 94.602 54.318 98.793 54.318 C100.856 54.318 102.166 54.942 103.243 55.447 L103.292 55.265 L103.292 51.612 C102.266 51.266 100.705 50.958 98.82 50.958 C92.334 50.958 87.938 55.005 87.911 61.375 C87.911 64.411 88.899 67.059 90.645 68.757 C92.506 70.572 95.039 71.434 98.355 71.434 C100.945 71.434 103.388 70.781 104.64 70.304 L104.639 59.64 L96.239 59.64 L96.239 63.442 M118.888 51.065 L118.888 62.555 C118.888 66.485 117.797 67.68 115.174 67.68 C112.552 67.68 111.46 66.485 111.46 62.555 L111.459 51.065 L107.365 51.065 L107.365 62.495 C107.366 68.591 110.021 71.322 115.056 71.42 L115.055 71.424 C115.095 71.424 115.135 71.422 115.174 71.422 C115.213 71.422 115.252 71.424 115.293 71.424 L115.291 71.42 C120.325 71.322 122.98 68.591 122.98 62.495 L122.98 51.065 L118.888 51.065 M78.986 58.0 C79.319 58.896 81.521 63.858 81.521 63.858 L76.486 63.858 C76.486 63.858 78.653 58.896 78.986 58.0 M78.989 50.519 L68.948 71.244 L73.382 71.244 L75.122 67.086 L82.875 67.086 L84.611 71.244 L89.041 71.244 L78.989 50.519 " style="fill:none;stroke:#000000;stroke-width:1.0;"/>
  <path d=" M 124.67500305175781 727.64501953125 L 124.6290054321289 728.3870239257812 C 124.625 728.4860229492188 124.625 728.6060180664062 124.61900329589844 728.7410278320312 L 124.6050033569336 728.7410278320312 C 124.57300567626953 728.6290283203125 124.531005859375 728.4810180664062 124.49800109863281 728.364990234375 L 124.27100372314453 727.6650390625 L 124.01100158691406 727.6650390625 L 123.78300476074219 728.3829956054688 C 123.76000213623047 728.4760131835938 123.7229995727539 728.6290283203125 123.69499969482422 728.7410278320312 L 123.68099975585938 728.7410278320312 C 123.68099975585938 728.625 123.677001953125 728.5040283203125 123.67200469970703 728.3870239257812 L 123.62700653076172 727.64501953125 L 123.38500213623047 727.64501953125 L 123.47700500488281 728.9080200195312 L 123.8530044555664 728.9080200195312 L 124.07100677490234 728.291015625 C 124.10400390625 728.1929931640625 124.12300109863281 728.1000366210938 124.1550064086914 727.968994140625 L 124.16000366210938 727.968994140625 C 124.19200134277344 728.0830078125 124.22000122070312 728.1929931640625 124.24800109863281 728.281005859375 L 124.46600341796875 728.9080200195312 L 124.8280029296875 728.9080200195312 L 124.92500305175781 727.64501953125 L 124.67500305175781 727.64501953125 Z M 123.31000518798828 728.9080200195312 L 123.31000518798828 728.6990356445312 L 122.906005859375 728.6990356445312 L 122.906005859375 727.64501953125 L 122.6550064086914 727.64501953125 L 122.6550064086914 728.6990356445312 L 122.2560043334961 728.6990356445312 L 122.2560043334961 728.9080200195312 L 123.31000518798828 728.9080200195312" style="fill:none;stroke:#000000;stroke-width:1.0;"/>
  <text svg_rhmargin="322.84" x="140.768,150.246,157.526,165.534,173.836,181.998,189.278,195.256,199.036,205.294,212.574,216.354,220.193,228.355,235.635,241.613,248.893,256.173,261.423,267.681,275.84299999999996,279.72,286.86,294.14,299.236,304.332,311.612,316.862,322.84000000000003" y="66.33699999999999" style="fill:#0a3a69;font-family:GNNJIP+AdvTTaf7f9f4f.B;font-size:14.0px;font-style:NORMAL;font-weight:normal;">Geophysical Research Letters </text>
  <text x="465.222,470.322,475.422,477.392,482.492,487.592,492.692,497.792,501.122,506.326,511.426,516.526,521.626,528.076,532.756,537.857,542.957,548.057,553.157,558.257" y="66.33699999999999" svg_rhmargin="563.357" style="fill:#0a3a69;font-family:GNNKGL+AdvTTe45e47d2;font-size:10.0px;font-style:NORMAL;font-weight:normal;">10.1002/2017GL075627</text>
  <path d=" M 36.0 42.12300109863281 L 575.489990234375 42.12300109863281 L 575.489990234375 42.68996047973633 L 36.0 42.68996047973633 Z " style="fill:none;stroke:#000000;stroke-width:1.0;"/>
  <text x="36.0,43.218,48.654,54.558,58.959,63.36,69.264,71.661,76.062,80.463,82.943,88.379,92.591,94.36399999999999,264.02,266.081,271.985,276.296,280.508,285.944,290.345,294.746,300.65,303.083,308.888,314.792,319.94,324.341,329.12,333.521,338.957,341.018,346.922,351.323,356.102,550.777,555.367,559.957,561.73,566.32,570.91" y="777.776" svg_rhmargin="575.5" style="fill:#0a3a69;font-family:GNNKGL+AdvTTe45e47d2;font-size:9.0px;font-style:NORMAL;font-weight:normal;">MADSEN ET AL. INFLATED UNCERTAINTY 11,611</text>
 </g>
</svg>
