<?xml version="1.0" encoding="UTF-8"?>
<svg height="766.0" width="533.8410341935484" xmlns="http://www.w3.org/2000/svg">
 <g style="fill:none;">
  <text svg_rhmargin="175.5" x="168.0,173.0,175.5" y="78.39999999999998" style="fill:#000000;font-family:Times-Bold;font-size:10.0px;font-style:NORMAL;font-weight:BOLD;">5. </text>
  <text x="196.0,203.22,205.72,210.72,213.5,217.39,220.17,223.5,226.28,231.08,236.08,238.86,241.64,246.64,251.64,254.14,259.14,262.47,264.97,267.75,272.75,277.19,279.69,284.69,287.47,290.55,293.88,298.32,301.65,306.09,311.09,315.53,319.97,322.47,327.47,331.91,334.69,341.91,346.35,350.79,355.79,358.29,361.07,366.07,370.51,373.01,376.34,380.63,385.63,388.96,393.4,397.29,401.18,403.96,408.96,413.96,416.46,420.9,425.9,430.34,433.42,436.55,439.33,443.77,446.55,450.99,455.99,458.77,462.66,465.16,472.28,476.72,480.61,483.11,487.55,490.88,495.32,499.76,502.54,506.98,511.98" y="78.39999999999998" svg_rhmargin="514.48" style="fill:#000000;font-family:Times-Roman;font-size:10.0px;font-style:NORMAL;font-weight:normal;">A distribution of the difference between the regression coefficients was created.</text>
  <text svg_rhmargin="175.5" x="168.0,173.0,175.5" y="98.39999999999998" style="fill:#000000;font-family:Times-Bold;font-size:10.0px;font-style:NORMAL;font-weight:BOLD;">6. </text>
  <text x="196.0,202.11,207.11,211.55,214.05" y="98.39999999999998" svg_rhmargin="219.05" style="fill:#000000;font-family:Times-Roman;font-size:10.0px;font-style:NORMAL;font-weight:normal;">The 5</text>
  <text x="219.05,221.274" y="95.06700000000001" svg_rhmargin="225.274" style="fill:#000000;font-family:Times-Roman;font-size:8.0px;font-style:NORMAL;font-weight:normal;">th</text>
  <text y="98.39999999999998" svg_rhmargin="254.714" x="227.774,232.214,237.214,242.214,244.714,249.714" style="fill:#000000;font-family:Times-Roman;font-size:10.0px;font-style:NORMAL;font-weight:normal;">and 95</text>
  <text x="254.714,256.938" y="95.06700000000001" svg_rhmargin="260.938" style="fill:#000000;font-family:Times-Roman;font-size:8.0px;font-style:NORMAL;font-weight:normal;">th</text>
  <text y="98.39999999999998" svg_rhmargin="472.658" x="263.438,268.438,272.878,276.208,280.648,285.088,290.088,292.868,295.648,298.428,302.868,306.758,309.258,314.258,317.588,320.088,322.868,327.868,332.308,334.808,339.808,342.588,345.668,348.998,353.438,356.768,361.208,366.208,370.648,375.088,377.588,382.588,385.368,389.258,392.038,395.368,398.148,402.948,407.948,410.728,413.508,418.508,423.508,426.008,433.228,437.668,440.998,445.438,447.938,452.938,457.938,460.718,465.158,470.158" style="fill:#000000;font-family:Times-Roman;font-size:10.0px;font-style:NORMAL;font-weight:normal;">percentiles of the difference distribution were noted.</text>
  <text svg_rhmargin="175.498" x="167.998,172.998,175.498" y="118.39999999999998" style="fill:#000000;font-family:Times-Bold;font-size:10.0px;font-style:NORMAL;font-weight:BOLD;">7. </text>
  <text x="195.998,199.328,202.658,205.158,207.938,212.938,217.378,219.878,227.658,232.098,236.538,240.428,245.428,248.758,253.198,258.198,260.698,265.698,268.478,271.558,274.888,279.328,282.658,287.098,292.098,296.538,300.978,303.478,306.258,311.258,313.758,316.538,321.538,325.978,328.478,331.808,336.098,341.098,344.428,348.868,352.758,356.648,359.428,364.428,369.428,371.928,376.368,381.368,385.808,388.888,392.018,394.798,399.238,402.018,406.458,411.458,414.238,418.128,420.628,427.748,432.188,436.078,438.578,441.358,445.798,449.688,453.578,456.078,458.858,463.858,468.298,473.298,475.798,478.578,483.578,488.018,490.518" y="118.39999999999998" svg_rhmargin="495.518" style="fill:#000000;font-family:Times-Roman;font-size:10.0px;font-style:NORMAL;font-weight:normal;">If the measured difference in the regression coefficients was less than the 5</text>
  <text x="495.518,497.742,501.742" y="115.06700000000001" svg_rhmargin="503.742" style="fill:#000000;font-family:Times-Roman;font-size:8.0px;font-style:NORMAL;font-weight:normal;">th </text>
  <text x="196.002,201.002,205.442,208.772,213.212,217.652,222.652,225.432,228.212,230.992,235.432,237.932,242.932,246.262,248.762,253.762,257.092,261.532,265.972,268.752,273.192,276.522,279.022,281.802,286.802,291.242,296.242,298.742,301.522,306.522,310.962,313.462,318.462" y="132.39999999999998" svg_rhmargin="323.462" style="fill:#000000;font-family:Times-Roman;font-size:10.0px;font-style:NORMAL;font-weight:normal;">percentile or greater than the 95</text>
  <text x="323.462,325.686" y="129.067" svg_rhmargin="329.686" style="fill:#000000;font-family:Times-Roman;font-size:8.0px;font-style:NORMAL;font-weight:normal;">th</text>
  <text y="132.39999999999998" svg_rhmargin="506.696" x="332.186,337.186,341.626,344.956,349.396,353.836,358.836,361.616,364.396,367.176,371.616,374.116,379.116,382.446,384.946,387.726,392.726,397.166,399.666,403.556,408.556,413.556,416.336,421.336,425.776,428.556,431.336,435.776,438.276,443.276,446.056,449.946,452.726,456.056,458.836,463.636,468.636,471.416,474.196,479.196,484.196,486.696,489.196,491.976,496.976,501.416,504.196" style="fill:#000000;font-family:Times-Roman;font-size:10.0px;font-style:NORMAL;font-weight:normal;">percentile of the synthetic distribution, that </text>
  <text x="195.996,200.996,203.776,206.856,210.186,214.626,217.956,222.396,227.396,231.836,236.276,238.776,245.896,250.336,254.226,256.726,261.726,266.166,270.606,278.386,282.826,287.826,290.326,293.106,298.106,300.606,305.606,310.046,312.546,316.436,319.216,324.216,329.216,331.996,335.126,337.906,342.346,346.786,351.786,354.566,357.346,362.346,364.846,368.736,371.516,376.516,381.516,384.296,387.426,390.206,394.646,399.086,404.086,406.866" y="146.39999999999998" svg_rhmargin="409.366" style="fill:#000000;font-family:Times-Roman;font-size:10.0px;font-style:NORMAL;font-weight:normal;">difference was deemed to be significantly significant.</text>
  <text x="89.996,96.666,100.556,104.246,110.356,114.246,117.026,123.136,128.696,132.436,137.996,140.776,143.556,149.666,152.446,158.556,161.336,167.446,170.226,173.006,178.566,184.676,187.456,193.016,199.126,205.236,208.016,213.576" y="172.66999999999996" svg_rhmargin="219.686" style="fill:#000000;font-family:Helvetica-Bold;font-size:10.0px;font-style:NORMAL;font-weight:BOLD;">Error bars in Fig. 4b and 4d</text>
  <text x="149.996,155.556,158.336,163.336,167.226,169.726,172.226,177.226,182.226,184.726,189.166,194.166,199.166,201.666,206.666,211.666,214.166,219.166,221.946,225.836,230.836,233.616,238.056,243.056,245.556,249.446,252.226,256.666,261.666,266.666,271.106,274.436,279.436,281.936,286.376,289.706,293.036,298.036,301.366,305.256,307.756,312.756,316.086,318.586,321.366,326.366,330.806,333.306,341.086,345.526,349.966,354.966,357.466,362.466,365.246,368.326,371.656,376.096,379.426,383.866,388.866,393.306,397.746,401.636,404.136,409.136,413.576,416.356,423.576,428.016,432.456,437.456,439.956,442.736,447.736,452.176,454.676,462.456,467.456,472.456,476.896,479.676,482.176,485.506,490.506,495.506,499.396,501.896,505.226,510.226,513.556,516.056,520.496" y="190.39999999999998" svg_rhmargin="522.996" style="fill:#000000;font-family:Times-Roman;font-size:10.0px;font-style:NORMAL;font-weight:normal;">Figs. 4b and 4d display standard errors of the mean differences between the model runs for a </text>
  <text x="149.996,154.996,159.996,167.776,172.776,177.216,180.546,183.046,188.046,191.376,193.876,198.626,203.066,206.396,209.176,213.616,218.616,221.396,225.836,229.726,232.226,234.726,240.836,245.836,250.276,254.166,258.606,261.106,264.996,267.776,272.216,277.216,282.216,286.656,289.986,294.986,297.486,301.926,305.256,308.586,313.586,316.916,320.806,323.306,330.526,334.966,338.296,342.736,345.236,349.676,354.116,356.896,361.336,366.336,369.116,373.556,376.336,380.776,385.776,388.276,392.166,397.166,399.666,402.446,407.446,411.886,414.666,417.166,419.946,424.946,429.236,434.236,436.736,441.176,445.616,450.056,455.056,460.056,465.056,467.836,472.276,477.276,479.776,483.106,488.106,491.436,493.936,497.826,502.826,507.266,510.046,512.826,517.266,520.046" y="204.39999999999998" svg_rhmargin="522.546" style="fill:#000000;font-family:Times-Roman;font-size:10.0px;font-style:NORMAL;font-weight:normal;">number of variables. These standard errors were calculated so that they accounted for spatial </text>
  <text x="149.996,154.436,159.436,162.216,167.216,171.656,176.656,179.986,183.316,187.756,190.536,194.976,197.756,200.536,205.536,210.536,213.036,215.816,220.816,223.316,226.096,231.096,235.536,238.036,241.366,246.366,249.146,251.926,256.676,263.896,266.676,271.676,276.676,279.176,286.296,290.736,295.736" y="218.39999999999998" svg_rhmargin="298.516" style="fill:#000000;font-family:Times-Roman;font-size:10.0px;font-style:NORMAL;font-weight:normal;">autocorrelation in the following way:</text>
  <text svg_rhmargin="175.496" x="167.996,172.996,175.496" y="238.39999999999998" style="fill:#000000;font-family:Times-Bold;font-size:10.0px;font-style:NORMAL;font-weight:BOLD;">1. </text>
  <text x="195.996,201.406,206.406,209.736,212.236,216.676,219.176,224.176,226.706,231.556,235.996,240.996,243.496,248.246,252.686,256.016,258.796,263.236,268.236,271.016,275.456,277.956,281.286,285.726,288.226,293.226,295.726,298.226,300.726,304.616,309.056,314.056,317.946,320.726,325.726,328.506,332.946,335.446,340.446,344.886,349.326,352.106,354.606,357.936,360.716,365.716,370.716,374.046,376.546,379.046,381.826,386.826,391.266,393.766,401.546,405.986,410.986,413.486,418.486,421.816,424.316,427.096,432.096,436.536,439.036,444.036,446.816,449.896,453.226,457.666,460.996,465.436,470.436,474.876,479.316,481.816,486.816,491.256,494.036,501.256,505.696,510.136,515.136" y="238.39999999999998" svg_rhmargin="517.636" style="fill:#000000;font-family:Times-Roman;font-size:10.0px;font-style:NORMAL;font-weight:normal;">For a given variable (e.g., sensible heat flux), the map of the difference between </text>
  <text x="195.996,198.776,203.776,208.216,210.716,213.496,220.616,225.616,228.116,231.446,236.446,241.446,245.336,247.836,254.956,259.396,263.286,265.786,270.226,275.226,280.226,284.116,286.896,291.896,296.336,299.666,304.106,309.106" y="252.39999999999998" svg_rhmargin="311.606" style="fill:#000000;font-family:Times-Roman;font-size:10.0px;font-style:NORMAL;font-weight:normal;">the two runs was considered.</text>
  <text svg_rhmargin="175.496" x="167.996,172.996,175.496" y="272.4" style="fill:#000000;font-family:Times-Bold;font-size:10.0px;font-style:NORMAL;font-weight:BOLD;">2. </text>
  <text x="195.996,203.216,205.996,208.496,212.936,217.376,221.816,226.816,229.316,232.096,236.536,239.316,242.096,244.876,249.876,254.876,259.316,261.816,266.816,271.256,274.036,281.256,285.696,290.136,295.136,297.636,302.636,307.636,311.636,318.856,321.356,325.796,330.796,335.796,338.296,343.296,348.296,352.296,357.856,360.356,362.856,365.636,370.636,375.076,377.576,382.576,387.016,391.456,396.456,399.786,403.116,407.556,410.336,414.776,417.556,420.336,425.336,430.336,432.836,435.616,440.056,445.056,450.056,452.836,457.836,460.336,464.226,468.666,473.106,475.886,480.326,482.826,485.606,490.606,493.106,495.886,500.886,505.326" y="272.4" svg_rhmargin="507.826" style="fill:#000000;font-family:Times-Roman;font-size:10.0px;font-style:NORMAL;font-weight:normal;">At each latitude between 70°N and 70°S, the decorrelation length scale in the </text>
  <text x="195.996,200.436,205.436,210.436,214.876,217.656,220.156,225.156,227.936,231.266,235.706,240.146,242.926,245.706,250.706,255.706,258.206,265.326,269.766,273.656,276.156,280.596,285.596,293.376,298.376,303.376,306.156,310.596,315.596,318.096,320.596,326.706,331.706,336.146,338.646,343.646,348.086,352.526,357.526,360.856,364.186,368.626,371.406,375.846,378.626,381.406,386.406,391.406,393.906,396.686,401.126,406.126,411.126,413.906,418.906,421.406,425.296,429.736,434.176,436.956,441.396,443.896,451.016,455.456,459.346,461.846,466.846,471.286,474.416,477.196,482.196,486.636,491.636,494.136,498.576,502.466,504.966,507.746,512.746,517.186" y="286.4" svg_rhmargin="519.686" style="fill:#000000;font-family:Times-Roman;font-size:10.0px;font-style:NORMAL;font-weight:normal;">zonal direction was computed. The decorrelation length scale was defined as the </text>
  <text x="195.996,200.996,205.996,213.776,218.776,223.216,226.546,229.046,234.046,237.376,239.876,244.876,248.206,250.986,255.986,258.486,263.486,268.486,271.266,276.266,279.046,282.936,285.436,288.216,293.216,297.656,300.436,302.936,305.716,308.496,310.996,313.776,318.776,323.776,328.776,331.276,334.606,339.606,342.936,345.436,348.216,353.216,357.656,360.156,364.046,369.046,373.486,376.266,379.046,383.486,386.266,388.766,393.206,398.206,400.986,405.986,410.426,415.426,418.756,422.086,426.526,429.306,433.746,436.526,439.306,444.306,449.306,451.806,455.136,460.136,465.136,469.576,472.356,475.136,480.136,485.136,487.636,490.416,495.416,497.916,502.916,506.246,511.246,516.246" y="300.4" svg_rhmargin="518.746" style="fill:#000000;font-family:Times-Roman;font-size:10.0px;font-style:NORMAL;font-weight:normal;">number of grid points that it took for the spatial autocorrelation function to drop </text>
  <text x="195.996,200.996,205.436,208.216,212.966,220.186,222.686,227.686,230.466,234.906" y="314.4" svg_rhmargin="237.406" style="fill:#000000;font-family:Times-Roman;font-size:10.0px;font-style:NORMAL;font-weight:normal;">below 1/e.</text>
  <text svg_rhmargin="175.496" x="167.996,172.996,175.496" y="334.4" style="fill:#000000;font-family:Times-Bold;font-size:10.0px;font-style:NORMAL;font-weight:BOLD;">3. </text>
  <text x="195.996,202.106,207.106,211.546,214.046,221.826,226.266,231.266,234.596,242.376,246.816,251.256,256.256,258.756,263.756,268.196,272.636,277.636,280.966,284.296,288.736,291.516,295.956,298.736,301.516,306.516,311.516,314.016,316.796,321.236,326.236,331.236,334.016,339.016,341.516,345.406,349.846,354.286,357.066,361.506,364.006,371.126,375.566,379.456,381.956,386.396,390.836,393.616,398.056,403.056,405.836,410.276,413.056,417.496,422.496,424.996,429.996,434.996,437.496,441.736,446.586,451.026,454.356,458.796,463.796,466.576,471.576,476.576,479.076,481.856,486.856,491.856,496.296,499.076,504.076,508.516,511.846" y="334.4" svg_rhmargin="514.346" style="fill:#000000;font-family:Times-Roman;font-size:10.0px;font-style:NORMAL;font-weight:normal;">The map-mean decorrelation length scale was calculated by averaging together </text>
  <text x="195.996,198.776,203.776,208.216,210.716,215.156,220.156,225.156,229.596,232.376,234.876,239.876,244.316,248.756,253.756,257.086,260.416,264.856,267.636,272.076,274.856,277.636,282.636,287.636,290.136,292.916,297.356,302.356,307.356,310.136,315.136,317.636,321.526,325.966,330.406,333.186,337.626,341.516,344.016,351.236,354.016,356.796,361.796,364.296,368.736,373.736,377.626,380.406,385.406,389.846,392.346,399.566,404.006,406.786,411.786,416.786,419.566,423.456" y="348.4" svg_rhmargin="425.956" style="fill:#000000;font-family:Times-Roman;font-size:10.0px;font-style:NORMAL;font-weight:normal;">the zonal decorrelation length scales with cosine weights.</text>
  <text svg_rhmargin="175.496" x="167.996,172.996,175.496" y="368.4" style="fill:#000000;font-family:Times-Bold;font-size:10.0px;font-style:NORMAL;font-weight:BOLD;">4. </text>
  <text x="195.996,202.106,207.106,211.546,214.046,218.486,221.566,224.896,229.336,233.776,236.556,239.086,243.936,248.376,250.876,255.876,260.876,268.656,273.656,278.096,281.426,283.926,288.926,292.256,294.756,297.536,302.536,307.536,311.976,316.976,321.416,326.416,331.416,335.856,340.856,343.636,346.136,351.136,354.466,357.246,362.246,364.746,369.746,374.746,377.526,382.526,385.306,389.196,391.696,396.696,401.696,404.196,406.976,411.976,416.416,418.916,426.696,431.136,436.136,438.636,441.966" y="368.4" svg_rhmargin="449.186" style="fill:#000000;font-family:Times-Roman;font-size:10.0px;font-style:NORMAL;font-weight:normal;">The effective number of independent grid points on the map (N</text>
  <text x="449.194,452.746,455.21" y="370.4" svg_rhmargin="457.874" style="fill:#000000;font-family:Times-Roman;font-size:8.0px;font-style:NORMAL;font-weight:normal;">eff</text>
  <text x="457.874,461.204,463.704,470.824,475.264,479.154,481.654,484.434,489.434,493.874,498.874" y="368.4" svg_rhmargin="501.374" style="fill:#000000;font-family:Times-Roman;font-size:10.0px;font-style:NORMAL;font-weight:normal;">) was then </text>
  <text x="196.004,200.444,204.884,207.664,212.104,217.104,219.884,224.324,227.104,231.544,236.544,239.044,243.484,247.374,249.874,252.654,257.654,262.094,264.594,269.594,272.924,275.704,280.704,283.484,288.484,292.924,295.704,298.204,303.204,308.204,315.984,320.984,325.424,328.754,331.254,336.254,339.584,342.084,347.084,350.414,353.194,358.194,360.694,365.694,370.694,373.474,378.474,381.254,385.144,387.644,392.644,395.174,400.174,402.954,407.954,412.394,417.394,419.894,424.894,429.894,432.394,435.174,440.174,444.614,447.114,454.894,459.334,464.334,467.664,475.444,479.884,484.324,489.324" y="382.4" svg_rhmargin="491.824" style="fill:#000000;font-family:Times-Roman;font-size:10.0px;font-style:NORMAL;font-weight:normal;">calculated as the original number of grid points divided by the map-mean </text>
  <text x="196.004,201.004,205.444,209.884,214.884,218.214,221.544,225.984,228.764,233.204,235.984,238.764,243.764,248.764,251.264,254.044,258.484,263.484,268.484,271.264,276.264,278.764,282.654,287.094,291.534,294.314,298.754" y="396.4" svg_rhmargin="301.254" style="fill:#000000;font-family:Times-Roman;font-size:10.0px;font-style:NORMAL;font-weight:normal;">decorrelation length scale.</text>
  <text svg_rhmargin="175.504" x="168.004,173.004,175.504" y="416.4" style="fill:#000000;font-family:Times-Bold;font-size:10.0px;font-style:NORMAL;font-weight:BOLD;">5. </text>
  <text x="196.004" y="416.4" svg_rhmargin="203.224" style="fill:#000000;font-family:Times-Roman;font-size:10.0px;font-style:NORMAL;font-weight:normal;">N</text>
  <text x="203.224,206.776,209.24" y="418.4" svg_rhmargin="211.904" style="fill:#000000;font-family:Times-Roman;font-size:8.0px;font-style:NORMAL;font-weight:normal;">eff</text>
  <text y="416.4" svg_rhmargin="427.594" x="214.404,221.524,225.964,229.854,232.354,235.134,240.134,244.574,249.574,252.074,257.074,260.964,265.404,270.404,272.904,275.684,280.684,283.184,285.964,290.964,295.404,297.904,302.344,306.784,309.564,314.004,319.004,321.784,326.224,329.004,331.784,336.784,341.784,344.284,349.284,352.614,355.114,357.894,362.894,367.334,369.834,373.724,376.504,380.944,385.944,390.944,395.384,398.714,403.714,406.214,410.654,413.984,417.314,422.314,425.094" style="fill:#000000;font-family:Times-Roman;font-size:10.0px;font-style:NORMAL;font-weight:normal;">was then used in the calculation of the standard error.</text>
  <text x="90.004,97.224,102.784,106.114,111.674,114.454,119.864,125.224,130.784,133.564,136.344,141.904,148.014,150.794,153.574,156.354,159.684" y="442.67" svg_rhmargin="165.244" style="fill:#000000;font-family:Helvetica-Bold;font-size:10.0px;font-style:NORMAL;font-weight:BOLD;">Data availability</text>
  <text x="150.004,156.114,161.114,165.554,168.054,174.724,183.614,186.944,192.504,197.504,200.004,205.004,209.444,212.224,216.664,219.164,224.164,228.054,232.494,237.494,239.994,243.324,248.324,251.654,254.154,256.934,261.934,264.714,268.604,271.104,274.994,277.774,282.774,287.774,292.774,295.274,299.714,304.154,309.154,311.654,316.654,321.094,323.594,328.594,333.344,340.564,345.564,348.344,353.344,357.784,362.784,367.224,372.224,374.724,379.164,381.944,384.444,389.444,392.224,395.004,400.004,402.784,405.564,408.344,412.784,420.564,423.344,428.344,431.674,436.674,441.114,448.894,453.894,456.674,459.174,461.954,464.734,469.734,472.514,475.014,480.014,484.864,489.864,492.644,497.084,504.864,507.644,512.644,517.644" y="460.4" svg_rhmargin="520.424" style="fill:#000000;font-family:Times-Roman;font-size:10.0px;font-style:NORMAL;font-weight:normal;">The CMIP5 data used for this study can be downloaded at http://cmip-pcmdi.llnl.gov/cmip5/</text>
  <text x="150.004,155.004,159.444,162.224,166.664,171.664,176.664,181.664,184.994,187.774,192.214,194.994,197.494,202.494,205.274,213.054,215.834,218.334,222.774,227.774,232.774,235.274,238.054,243.054,247.494,249.994,257.214,262.774,269.994,276.104,278.604,286.384,291.384,296.384,300.824,303.604,306.104,311.104,315.544,318.324,322.764,325.264,329.704,334.144,339.144,341.644,346.644,351.084,353.584,358.584,363.334,370.554,375.554,378.334,383.334,387.774,392.774,397.214,402.214,404.714,409.154,411.934,414.434,419.434,422.214,424.994,429.994,432.774,435.554" y="474.4" svg_rhmargin="438.334" style="fill:#007090;font-family:Times-Roman;font-size:10.0px;font-style:NORMAL;font-weight:normal;">data_portal.html and the GFDL model data can be downloaded at http://</text>
  <text x="150.004,155.004,160.004,167.784,172.224,177.224,181.114,183.614,188.614,191.944,196.944,199.724,202.224,207.224,212.224,216.664,221.104,223.604,228.604,233.454,238.454,241.234,246.234,251.234,256.234,261.234,264.014,271.234,275.674,278.454,282.894,288.454,293.454,296.784,299.564,304.004,306.784,309.564,314.004,321.784,324.564,329.564,334.564,337.064,339.844,343.734,348.734,351.234,353.734,360.954,363.734,368.734,373.174,376.504,379.004,384.004,388.444,391.224,395.664,398.164,400.944,405.944,410.384,413.164,415.664,419.554,424.554,429.554,434.554,439.554,442.884,445.664,448.164,450.944,455.944,460.384,462.884,466.014,468.794,473.794,478.794,481.574,486.574,491.574,495.464,497.964,502.964,506.294" y="488.4" svg_rhmargin="508.794" style="fill:#007090;font-family:Times-Roman;font-size:10.0px;font-style:NORMAL;font-weight:normal;">nomads.gfdl.noaa.gov:8080/DataPortal/cmip5.jsp. Other data that support the findings of </text>
  <text x="150.004,152.784,157.784,160.564,164.454,166.954,170.844,173.624,178.624,183.624,188.624,191.124,195.564,198.894,203.334,205.834,210.074,214.824,219.264,222.044,224.824,229.264,234.264,237.044,241.484,243.984,247.314,250.644,255.644,263.424,265.924,268.704,273.704,278.144,280.644,285.084,290.084,293.414,296.744,301.184,305.074,310.074,315.074,320.074,325.074,327.854,332.854,337.854,340.354,344.794,349.794,352.574,357.574,362.574,365.904,368.404,373.404,378.404,383.404,388.404,390.904,394.234,398.674,403.674,408.674,413.114,417.004,419.784" y="502.4" svg_rhmargin="422.284" style="fill:#000000;font-family:Times-Roman;font-size:10.0px;font-style:NORMAL;font-weight:normal;">this study are available from the corresponding author upon request.</text>
  <text x="90.004,98.008,105.34,112.672,120.004,123.34,130.012,140.68,147.352,154.684,158.68,165.352,170.14,176.812,180.148,190.144,196.816,200.812,207.484,212.152,215.488,222.16" y="532.404" svg_rhmargin="225.496" style="fill:#000000;font-family:Helvetica-Bold;font-size:12.0px;font-style:NORMAL;font-weight:BOLD;">Supplementary Material</text>
  <text x="150.004,156.007,160.003,163.0,166.996,169.993,172.243,174.745,179.245,181.495,189.271,193.267,197.767,200.017,204.382,208.378,211.375,214.876,217.378,221.878,226.378,228.628,233.128,237.628,239.878,244.882,249.382,253.882,261.883,265.879,270.379,272.629,278.632,282.628,287.128,289.63,292.627,296.623,299.125,301.375,304.372,308.872,311.869,314.119,317.62,322.12,326.62,331.12,333.622,337.618,344.62,348.616,353.116,355.618,359.614,362.611,367.111,369.361,376.363,380.359,382.861,386.857,389.854,392.356,396.352,398.854" y="552.404" svg_rhmargin="401.104" style="fill:#000000;font-family:Times-Roman;font-size:9.0px;font-style:NORMAL;font-weight:normal;">Refer to Web version on PubMed Central for supplementary material.</text>
  <text x="90.004,98.668,105.1,111.772,119.104,126.256,135.592,138.928,145.6,152.932,160.264,170.932,177.604,184.936,188.932" y="583.408" svg_rhmargin="195.604" style="fill:#000000;font-family:Helvetica-Bold;font-size:12.0px;font-style:NORMAL;font-weight:BOLD;">Acknowledgments</text>
  <text x="150.004,156.916,160.468,162.468,168.164,172.164,176.164,178.388,182.388,184.388,186.612,188.836,192.756,196.308,198.308,200.532,204.532,206.532,210.084,213.636,217.636,221.636,225.436,231.212,233.436,236.988,240.988,244.988,248.54,250.54,256.316,258.54,260.54,262.54,269.652,271.876,275.428,279.428,282.98,286.532,288.756,290.756,297.988,300.212,304.212,306.436,310.436,314.436,316.436,319.988,323.988,327.988,329.988,335.764,337.988,339.988,341.988,346.876,350.876,354.876,361.1,364.652,367.764,369.764,375.54,379.54,383.54,385.764,388.876,392.876,396.876,398.876,401.54,405.54,408.204,410.204,412.428,416.428,418.652,422.204,424.868,428.868,432.42,434.644,436.644,439.308,442.66,446.66,448.884,452.236,458.012,461.124,463.124,466.676,470.676,474.676,476.676,480.676,482.9,486.012,489.564,493.564,496.676,499.788,502.012,506.012,510.012,512.012,516.012,518.676" y="601.4739999999999" svg_rhmargin="520.676" style="fill:#000000;font-family:Times-Roman;font-size:8.0px;font-style:NORMAL;font-weight:normal;">We would like to acknowledge Dr. Michael Winton and Dr. Thomas Knutson for internal reviews and discussion of </text>
  <text x="150.004,152.228,156.228,158.452,161.564,163.564,169.26,173.26,175.924,179.924,181.924,183.924,190.836,194.388,196.388,199.94,203.492,207.492,211.492,215.292,221.068,223.292,226.844,230.844,234.844,238.396,240.396,242.62,246.62,250.172,252.172,259.084,263.084,265.748,267.972,271.972,273.972,279.308,281.532,283.756,289.98,293.532,295.756,299.308,301.308,306.644,310.196,313.308,316.86,320.412,323.076,326.628,330.628,332.628,337.076,339.74,343.74,347.74,350.404,353.956,360.18,366.404,369.956,372.62,375.732,377.732,384.644,388.644,391.308,395.308,397.532,401.532,405.532,407.532,413.308,415.972,419.972,423.972,427.972,429.972,433.972,437.972,439.972,445.308,449.308,453.308,457.308,459.532,463.084,467.084,469.084,476.196,480.196,484.196,487.748,489.972,492.196,494.42,498.42,502.42,504.42" y="610.9739999999999" svg_rhmargin="506.42" style="fill:#000000;font-family:Times-Roman;font-size:8.0px;font-style:NORMAL;font-weight:normal;">this work. We acknowledge the World Climate Research Programme’s Working Group on Coupled Modelling, </text>
  <text x="150.004,155.78,159.78,162.004,165.556,169.556,171.556,173.78,176.892,178.892,181.556,185.108,188.22,192.22,196.22,200.22,203.332,205.556,209.556,211.78,215.332,217.332,219.996,223.996,226.66,228.66,233.996,241.108,243.772,247.332,249.332,251.332,254.884,258.884,262.884,264.884,270.66,274.212,276.212,278.436,282.436,285.988,289.988,293.988,295.988,298.212,302.212,305.764,307.764,311.316,313.54,315.764,321.988,325.54,327.764,331.316,333.316,339.54,343.54,347.54,351.092,353.316,355.54,359.54,363.54,365.54,369.54,372.204,376.204,380.204,384.204,387.316,389.316,391.98,395.98,398.644,400.644,404.644,407.308,411.308,415.308,419.308,422.86,425.084,429.084,433.084,435.084,438.636,442.636,446.636,448.636,454.86,458.412,462.412,464.636,468.636,472.636,474.636,478.028,481.828,485.38,487.604,489.828,493.38,497.38,499.604,503.156,505.156,507.38,511.38,514.932,517.156,519.82" y="620.4739999999999" svg_rhmargin="521.82" style="fill:#000000;font-family:Times-Roman;font-size:8.0px;font-style:NORMAL;font-weight:normal;">which is responsible for CMIP, and we thank the climate modeling groups for producing and making available their </text>
  <text x="150.004,156.228,160.228,164.228,167.78,170.004,172.004,176.004,180.004,182.228,186.228,190.228,192.452,194.452,196.452,200.78,204.78,207.444,209.444,214.78,221.892,224.556,229.004,231.004,233.228,237.228,240.78,242.78,248.556,250.556,255.004,257.004,259.004,264.78,268.332,272.332,275.884,278.548,280.772,286.996,290.548,294.548,296.772,298.772,302.772,305.436,307.436,312.324,316.324,319.876,322.396,326.396,330.396,333.06,336.172,338.172,342.62,345.284,349.284,353.284,355.948,359.5,365.724,367.724,370.388,374.388,377.052,379.052,384.388,386.612,388.836,395.06,398.612,400.836,404.388,406.388,413.5,417.5,421.5,425.052,427.276,429.276,435.052,437.276,440.828,444.828,448.828,452.828,455.94,458.164,461.276,463.276,466.828,470.828,474.828" y="629.9739999999999" svg_rhmargin="476.828" style="fill:#000000;font-family:Times-Roman;font-size:8.0px;font-style:NORMAL;font-weight:normal;">model output. For CMIP the U.S. Department of Energy’s Program for Climate Model Diagnosis and </text>
  <text x="150.004,152.668,156.668,158.892,162.444,165.108,168.66,172.66,178.884,182.884,186.436,189.1,191.324,194.436,198.436,202.436,204.436,208.436,211.1,214.98,218.98,221.204,225.204,228.756,231.868,233.868,237.42,241.42,245.42,248.084,252.084,254.308,258.308,261.86,264.084,266.308,270.308,274.308,276.308,279.42,283.42,287.42,291.42,295.42,298.084,300.308,302.308,305.86,309.86,313.86,315.86,318.084,321.636,325.636,327.636,331.636,334.988,338.868,342.42,344.644,348.644,352.644,358.868,362.42,366.42,368.644,370.644,374.644,377.308,379.308,382.42,386.42,389.084,391.308,397.004,400.556,403.22,406.772,408.772,410.996,414.996,417.66,420.324,423.876,426.988,429.212,431.876,435.876,439.428,441.652,445.652,448.316,451.868,453.868,456.092,460.092,462.092,466.092,469.644,472.308,474.532,478.532,482.084,484.748,487.86,491.86,494.084,498.084,500.084,505.86,508.084,510.308,514.308" y="639.4739999999999" svg_rhmargin="516.308" style="fill:#000000;font-family:Times-Roman;font-size:8.0px;font-style:NORMAL;font-weight:normal;">Intercomparison provides coordinating support and led development of software infrastructure in partnership with </text>
  <text x="150.004,152.228,156.228,159.78,161.78,167.556,169.78,173.78,177.78,181.332,183.556,185.556,191.332,193.852,197.812,201.364,205.364,207.588,211.14,214.692,216.916,219.14,223.14,227.14,229.14,231.804,235.804,238.468,240.468,245.356,248.908,251.572,253.796,257.796,259.796,264.244,268.244,271.356,273.58,277.132,283.356,285.356,289.804,293.356,295.58,299.132,303.132,306.684,310.236,312.236,316.684,320.684,323.348,325.572,329.124,331.348,334.46,336.46,338.46,343.348,347.348,349.572,352.684,354.684,357.348,360.9,364.012,367.564,371.116,373.78,377.332,381.332,383.332,389.028,392.58,395.692,397.692,401.692,405.244,407.908,410.132,412.356,415.908,418.132,420.356,424.356,426.356,429.908,433.908,437.908,441.908,445.908,449.46,451.684,455.236,459.236,461.236,464.788,467.012,469.012,471.236,475.236,478.788,480.788,486.564,492.06,497.836,503.612" y="648.9739999999999" svg_rhmargin="505.612" style="fill:#000000;font-family:Times-Roman;font-size:8.0px;font-style:NORMAL;font-weight:normal;">the Global Organization for Earth System Science Portals. This research was partially conducted at the NOAA </text>
  <text x="150.004,155.78,159.332,163.332,167.332,171.292,175.292,178.404,180.628,184.18,187.732,189.956,191.956,196.404,198.628,202.628,204.852,208.852,210.852,216.628,220.628,224.628,228.18,234.404,236.628,240.18,243.292,245.292,250.18,253.732,257.732,261.732,264.396,267.948,270.172,274.172,276.836,280.316,282.316,284.316,288.764,291.428,293.652,297.652,301.204,304.756,306.98,310.98,314.98,316.98,318.98,324.756,328.108,333.884,335.884,338.996,342.548,345.212,348.324,351.756,355.756,357.756,361.308,365.308,369.308,371.308,373.532,375.756,377.756,383.452,387.004,390.116,392.116,396.116,399.668,402.332,404.556,406.78,410.332,412.556,414.78,418.78,420.78,423.892,427.892,431.892,435.892,439.892,442.556,444.78,448.332,452.332,454.332,458.332,462.332" y="658.4739999999999" svg_rhmargin="464.332" style="fill:#000000;font-family:Times-Roman;font-size:8.0px;font-style:NORMAL;font-weight:normal;">Geophysical Fluid Dynamics Laboratory, Princeton, New Jersey and it was partially supported by </text>
  <text x="149.996,155.772,158.436,164.212,166.876,170.876,176.212,180.212,184.212,189.668,195.444,199.444,203.444,207.444,211.444,215.444,219.444,222.108,226.108,230.108,235.884,239.884,241.884,243.884,248.332,250.332,256.108,258.108,263.884,265.884,267.884,273.58,277.132,280.244,282.244,285.356,289.356,293.356,297.356,301.356,304.02,306.244,309.796,313.796,315.796,319.796,323.796,325.796,329.348,331.348,337.124,340.676,344.676,346.9,348.9,350.9,354.9,357.564,359.564,365.34,368.892,371.556,375.108,379.108,382.22,385.772,387.772,393.548,397.1,399.324,401.548,405.548,409.548,413.1,415.324,417.324,423.1,426.652,429.316,432.868,436.868,439.98,443.532,445.532,449.98,453.532,455.756,459.308,463.308,466.86,470.412,472.412,475.964,479.964,483.964" y="667.9739999999999" svg_rhmargin="485.964" style="fill:#000000;font-family:Times-Roman;font-size:8.0px;font-style:NORMAL;font-weight:normal;">NIH-1R21AG044294-01A1. S.A.H. was supported by a Dept. of Defense National Defense Science and </text>
  <text x="149.996,154.884,158.884,162.884,165.108,169.108,172.66,176.212,178.876,181.1,185.1,189.1,191.1,196.876,199.54,203.092,207.092,211.092,214.644,216.868,220.42,222.42,226.868,230.42,232.644,234.868,238.668,244.444,247.556,251.556,253.78,257.78,259.78,263.332,267.332,271.332,273.332,276.884,278.884,284.66,288.212,290.436,292.66,296.66,300.66,304.212,306.436,308.436,312.884,316.436,318.66,322.212,326.212,329.764,333.316,335.316,339.644,343.644,347.644,351.644,355.644,359.196,361.42,363.644,367.644,371.644,373.644,379.42,381.644,387.868,391.868,394.98,398.98,402.98,406.532,409.196,411.42,414.972,416.972,420.524,424.524,428.524,430.524,436.3,439.852,443.852,446.964,450.964,454.516,458.068,461.62,463.62,468.068,471.62,473.844,477.396,481.396,484.948,488.5,491.612" y="677.474" svg_rhmargin="493.612" style="fill:#000000;font-family:Times-Roman;font-size:8.0px;font-style:NORMAL;font-weight:normal;">Engineering Graduate Fellowship and a National Science Foundation Atmospheric and Geospace Sciences </text>
  <text x="149.996,154.444,158.444,161.556,163.78,167.78,171.78,175.332,177.556,181.556,184.22,187.772,189.996,191.996,197.332,200.884,203.996,207.548,211.1,213.764,217.316,221.316,223.316,227.764,231.316,233.54,235.764,239.564,245.34,248.452,252.452,254.676,258.676" y="686.974" svg_rhmargin="260.676" style="fill:#000000;font-family:Times-Roman;font-size:8.0px;font-style:NORMAL;font-weight:normal;">Postdoctoral Research Fellowship.</text>
  <text x="78.0,83.336,86.0,89.8,95.576,99.576,101.576,105.128,107.352,109.352,112.904,115.128,117.128,496.568,500.896,504.448,508.448,512.0,514.0,518.0" y="52.72000000000003" svg_rhmargin="522.0" style="fill:#000000;font-family:Times-Roman;font-size:8.0px;font-style:NORMAL;font-weight:normal;">Brown et al. Page 10</text>
  <text x="164.296,170.072,173.624,175.848,177.848,183.184,185.408,187.632,193.856,195.856,201.192,205.192,208.744,212.744,216.744,218.744,220.744,226.52,230.52,232.744,236.744,240.744,243.408,245.408,251.632,255.184,259.184,263.184,266.296,269.848,272.512,274.736,278.736,280.96,283.184,285.184,288.576,292.376,295.928,298.152,300.376,303.928,307.928,310.152,313.704,315.704,317.928,321.928,323.928,328.376,335.488,340.824,342.824,346.824,350.824,354.824,358.824,360.824,367.936,371.488,374.152,377.704,381.704,383.704,387.704,391.704" y="729.4" svg_rhmargin="393.704" style="fill:#000000;font-family:Times-Roman;font-size:8.0px;font-style:NORMAL;font-weight:normal;">Nat Clim Chang. Author manuscript; available in PMC 2018 March 04.</text>
  <path d=" M 18.0 756.0 L 36.0 756.0 L 36.0 72.0 L 18.0 72.0 Z " style="fill:none;stroke:#000000;stroke-width:1.0;"/>
  <text svg_rhmargin="21.764" transform="matrix(0.0,1.0,-1.0,0.0,105.628,62.1)" x="21.764" y="83.864" style="fill:#004b80;font-family:Helvetica;font-size:12.0px;font-style:NORMAL;font-weight:normal;">A</text>
  <text svg_rhmargin="21.764" transform="matrix(0.0,1.0,-1.0,0.0,113.272,69.744)" x="21.764" y="91.508" style="fill:#004b80;font-family:Helvetica;font-size:12.0px;font-style:NORMAL;font-weight:normal;">u</text>
  <text svg_rhmargin="21.764" transform="matrix(0.0,1.0,-1.0,0.0,119.944,76.416)" x="21.764" y="98.18" style="fill:#004b80;font-family:Helvetica;font-size:12.0px;font-style:NORMAL;font-weight:normal;">t</text>
  <text svg_rhmargin="21.764" transform="matrix(0.0,1.0,-1.0,0.0,123.28,79.752)" x="21.764" y="101.516" style="fill:#004b80;font-family:Helvetica;font-size:12.0px;font-style:NORMAL;font-weight:normal;">h</text>
  <text svg_rhmargin="21.764" transform="matrix(0.0,1.0,-1.0,0.0,129.952,86.424)" x="21.764" y="108.188" style="fill:#004b80;font-family:Helvetica;font-size:12.0px;font-style:NORMAL;font-weight:normal;">o</text>
  <text svg_rhmargin="21.764" transform="matrix(0.0,1.0,-1.0,0.0,136.624,93.096)" x="21.764" y="114.86" style="fill:#004b80;font-family:Helvetica;font-size:12.0px;font-style:NORMAL;font-weight:normal;">r</text>
  <text svg_rhmargin="21.764" transform="matrix(0.0,1.0,-1.0,0.0,140.62,97.092)" y="118.856" style="fill:#004b80;font-family:Helvetica;font-size:12.0px;font-style:NORMAL;font-weight:normal;" x=""/>
  <text svg_rhmargin="21.764" transform="matrix(0.0,1.0,-1.0,0.0,143.956,100.428)" x="21.764" y="122.192" style="fill:#004b80;font-family:Helvetica;font-size:12.0px;font-style:NORMAL;font-weight:normal;">M</text>
  <text svg_rhmargin="21.764" transform="matrix(0.0,1.0,-1.0,0.0,153.952,110.424)" x="21.764" y="132.188" style="fill:#004b80;font-family:Helvetica;font-size:12.0px;font-style:NORMAL;font-weight:normal;">a</text>
  <text svg_rhmargin="21.764" transform="matrix(0.0,1.0,-1.0,0.0,160.624,117.096)" x="21.764" y="138.86" style="fill:#004b80;font-family:Helvetica;font-size:12.0px;font-style:NORMAL;font-weight:normal;">n</text>
  <text svg_rhmargin="21.764" transform="matrix(0.0,1.0,-1.0,0.0,167.176,123.648)" x="21.764" y="145.412" style="fill:#004b80;font-family:Helvetica;font-size:12.0px;font-style:NORMAL;font-weight:normal;">u</text>
  <text svg_rhmargin="21.764" transform="matrix(0.0,1.0,-1.0,0.0,173.848,130.32)" x="21.764" y="152.084" style="fill:#004b80;font-family:Helvetica;font-size:12.0px;font-style:NORMAL;font-weight:normal;">s</text>
  <text svg_rhmargin="21.764" transform="matrix(0.0,1.0,-1.0,0.0,179.848,136.32)" x="21.764" y="158.084" style="fill:#004b80;font-family:Helvetica;font-size:12.0px;font-style:NORMAL;font-weight:normal;">c</text>
  <text svg_rhmargin="21.764" transform="matrix(0.0,1.0,-1.0,0.0,185.848,142.32)" x="21.764" y="164.084" style="fill:#004b80;font-family:Helvetica;font-size:12.0px;font-style:NORMAL;font-weight:normal;">r</text>
  <text svg_rhmargin="21.764" transform="matrix(0.0,1.0,-1.0,0.0,190.024,146.496)" x="21.764" y="168.26" style="fill:#004b80;font-family:Helvetica;font-size:12.0px;font-style:NORMAL;font-weight:normal;">i</text>
  <text svg_rhmargin="21.764" transform="matrix(0.0,1.0,-1.0,0.0,192.688,149.16)" x="21.764" y="170.924" style="fill:#004b80;font-family:Helvetica;font-size:12.0px;font-style:NORMAL;font-weight:normal;">p</text>
  <text svg_rhmargin="21.764" transform="matrix(0.0,1.0,-1.0,0.0,199.36,155.832)" x="21.764" y="177.596" style="fill:#004b80;font-family:Helvetica;font-size:12.0px;font-style:NORMAL;font-weight:normal;">t</text>
  <text svg_rhmargin="21.764" transform="matrix(0.0,1.0,-1.0,0.0,274.696,231.168)" x="21.764" y="252.932" style="fill:#004b80;font-family:Helvetica;font-size:12.0px;font-style:NORMAL;font-weight:normal;">A</text>
  <text svg_rhmargin="21.764" transform="matrix(0.0,1.0,-1.0,0.0,282.34,238.812)" x="21.764" y="260.576" style="fill:#004b80;font-family:Helvetica;font-size:12.0px;font-style:NORMAL;font-weight:normal;">u</text>
  <text svg_rhmargin="21.764" transform="matrix(0.0,1.0,-1.0,0.0,289.012,245.484)" x="21.764" y="267.248" style="fill:#004b80;font-family:Helvetica;font-size:12.0px;font-style:NORMAL;font-weight:normal;">t</text>
  <text svg_rhmargin="21.764" transform="matrix(0.0,1.0,-1.0,0.0,292.348,248.82)" x="21.764" y="270.584" style="fill:#004b80;font-family:Helvetica;font-size:12.0px;font-style:NORMAL;font-weight:normal;">h</text>
  <text svg_rhmargin="21.764" transform="matrix(0.0,1.0,-1.0,0.0,299.02,255.492)" x="21.764" y="277.256" style="fill:#004b80;font-family:Helvetica;font-size:12.0px;font-style:NORMAL;font-weight:normal;">o</text>
  <text svg_rhmargin="21.764" transform="matrix(0.0,1.0,-1.0,0.0,305.692,262.164)" x="21.764" y="283.928" style="fill:#004b80;font-family:Helvetica;font-size:12.0px;font-style:NORMAL;font-weight:normal;">r</text>
  <text svg_rhmargin="21.764" transform="matrix(0.0,1.0,-1.0,0.0,309.688,266.16)" y="287.924" style="fill:#004b80;font-family:Helvetica;font-size:12.0px;font-style:NORMAL;font-weight:normal;" x=""/>
  <text svg_rhmargin="21.764" transform="matrix(0.0,1.0,-1.0,0.0,313.024,269.496)" x="21.764" y="291.26" style="fill:#004b80;font-family:Helvetica;font-size:12.0px;font-style:NORMAL;font-weight:normal;">M</text>
  <text svg_rhmargin="21.764" transform="matrix(0.0,1.0,-1.0,0.0,323.02,279.492)" x="21.764" y="301.256" style="fill:#004b80;font-family:Helvetica;font-size:12.0px;font-style:NORMAL;font-weight:normal;">a</text>
  <text svg_rhmargin="21.764" transform="matrix(0.0,1.0,-1.0,0.0,329.692,286.164)" x="21.764" y="307.928" style="fill:#004b80;font-family:Helvetica;font-size:12.0px;font-style:NORMAL;font-weight:normal;">n</text>
  <text svg_rhmargin="21.764" transform="matrix(0.0,1.0,-1.0,0.0,336.244,292.716)" x="21.764" y="314.48" style="fill:#004b80;font-family:Helvetica;font-size:12.0px;font-style:NORMAL;font-weight:normal;">u</text>
  <text svg_rhmargin="21.764" transform="matrix(0.0,1.0,-1.0,0.0,342.916,299.388)" x="21.764" y="321.152" style="fill:#004b80;font-family:Helvetica;font-size:12.0px;font-style:NORMAL;font-weight:normal;">s</text>
  <text svg_rhmargin="21.764" transform="matrix(0.0,1.0,-1.0,0.0,348.916,305.388)" x="21.764" y="327.152" style="fill:#004b80;font-family:Helvetica;font-size:12.0px;font-style:NORMAL;font-weight:normal;">c</text>
  <text svg_rhmargin="21.764" transform="matrix(0.0,1.0,-1.0,0.0,354.916,311.388)" x="21.764" y="333.152" style="fill:#004b80;font-family:Helvetica;font-size:12.0px;font-style:NORMAL;font-weight:normal;">r</text>
  <text svg_rhmargin="21.764" transform="matrix(0.0,1.0,-1.0,0.0,359.092,315.564)" x="21.764" y="337.328" style="fill:#004b80;font-family:Helvetica;font-size:12.0px;font-style:NORMAL;font-weight:normal;">i</text>
  <text svg_rhmargin="21.764" transform="matrix(0.0,1.0,-1.0,0.0,361.756,318.228)" x="21.764" y="339.992" style="fill:#004b80;font-family:Helvetica;font-size:12.0px;font-style:NORMAL;font-weight:normal;">p</text>
  <text svg_rhmargin="21.764" transform="matrix(0.0,1.0,-1.0,0.0,368.428,324.9)" x="21.764" y="346.664" style="fill:#004b80;font-family:Helvetica;font-size:12.0px;font-style:NORMAL;font-weight:normal;">t</text>
  <text svg_rhmargin="21.764" transform="matrix(0.0,1.0,-1.0,0.0,443.764,400.236)" x="21.764" y="422.0" style="fill:#004b80;font-family:Helvetica;font-size:12.0px;font-style:NORMAL;font-weight:normal;">A</text>
  <text svg_rhmargin="21.764" transform="matrix(0.0,1.0,-1.0,0.0,451.408,407.88)" x="21.764" y="429.644" style="fill:#004b80;font-family:Helvetica;font-size:12.0px;font-style:NORMAL;font-weight:normal;">u</text>
  <text svg_rhmargin="21.764" transform="matrix(0.0,1.0,-1.0,0.0,458.08,414.552)" x="21.764" y="436.316" style="fill:#004b80;font-family:Helvetica;font-size:12.0px;font-style:NORMAL;font-weight:normal;">t</text>
  <text svg_rhmargin="21.764" transform="matrix(0.0,1.0,-1.0,0.0,461.416,417.888)" x="21.764" y="439.652" style="fill:#004b80;font-family:Helvetica;font-size:12.0px;font-style:NORMAL;font-weight:normal;">h</text>
  <text svg_rhmargin="21.764" transform="matrix(0.0,1.0,-1.0,0.0,468.088,424.56)" x="21.764" y="446.324" style="fill:#004b80;font-family:Helvetica;font-size:12.0px;font-style:NORMAL;font-weight:normal;">o</text>
  <text svg_rhmargin="21.764" transform="matrix(0.0,1.0,-1.0,0.0,474.76,431.232)" x="21.764" y="452.996" style="fill:#004b80;font-family:Helvetica;font-size:12.0px;font-style:NORMAL;font-weight:normal;">r</text>
  <text svg_rhmargin="21.764" transform="matrix(0.0,1.0,-1.0,0.0,478.756,435.228)" y="456.992" style="fill:#004b80;font-family:Helvetica;font-size:12.0px;font-style:NORMAL;font-weight:normal;" x=""/>
  <text svg_rhmargin="21.764" transform="matrix(0.0,1.0,-1.0,0.0,482.092,438.564)" x="21.764" y="460.328" style="fill:#004b80;font-family:Helvetica;font-size:12.0px;font-style:NORMAL;font-weight:normal;">M</text>
  <text svg_rhmargin="21.764" transform="matrix(0.0,1.0,-1.0,0.0,492.088,448.56)" x="21.764" y="470.324" style="fill:#004b80;font-family:Helvetica;font-size:12.0px;font-style:NORMAL;font-weight:normal;">a</text>
  <text svg_rhmargin="21.764" transform="matrix(0.0,1.0,-1.0,0.0,498.76,455.232)" x="21.764" y="476.996" style="fill:#004b80;font-family:Helvetica;font-size:12.0px;font-style:NORMAL;font-weight:normal;">n</text>
  <text svg_rhmargin="21.764" transform="matrix(0.0,1.0,-1.0,0.0,505.312,461.784)" x="21.764" y="483.548" style="fill:#004b80;font-family:Helvetica;font-size:12.0px;font-style:NORMAL;font-weight:normal;">u</text>
  <text svg_rhmargin="21.764" transform="matrix(0.0,1.0,-1.0,0.0,511.984,468.456)" x="21.764" y="490.22" style="fill:#004b80;font-family:Helvetica;font-size:12.0px;font-style:NORMAL;font-weight:normal;">s</text>
  <text svg_rhmargin="21.764" transform="matrix(0.0,1.0,-1.0,0.0,517.984,474.456)" x="21.764" y="496.22" style="fill:#004b80;font-family:Helvetica;font-size:12.0px;font-style:NORMAL;font-weight:normal;">c</text>
  <text svg_rhmargin="21.764" transform="matrix(0.0,1.0,-1.0,0.0,523.984,480.456)" x="21.764" y="502.22" style="fill:#004b80;font-family:Helvetica;font-size:12.0px;font-style:NORMAL;font-weight:normal;">r</text>
  <text svg_rhmargin="21.764" transform="matrix(0.0,1.0,-1.0,0.0,528.16,484.632)" x="21.764" y="506.396" style="fill:#004b80;font-family:Helvetica;font-size:12.0px;font-style:NORMAL;font-weight:normal;">i</text>
  <text svg_rhmargin="21.764" transform="matrix(0.0,1.0,-1.0,0.0,530.824,487.296)" x="21.764" y="509.06" style="fill:#004b80;font-family:Helvetica;font-size:12.0px;font-style:NORMAL;font-weight:normal;">p</text>
  <text svg_rhmargin="21.764" transform="matrix(0.0,1.0,-1.0,0.0,537.496,493.968)" x="21.764" y="515.732" style="fill:#004b80;font-family:Helvetica;font-size:12.0px;font-style:NORMAL;font-weight:normal;">t</text>
  <text svg_rhmargin="21.764" transform="matrix(0.0,1.0,-1.0,0.0,612.832,569.304)" x="21.764" y="591.068" style="fill:#004b80;font-family:Helvetica;font-size:12.0px;font-style:NORMAL;font-weight:normal;">A</text>
  <text svg_rhmargin="21.764" transform="matrix(0.0,1.0,-1.0,0.0,620.476,576.948)" x="21.764" y="598.712" style="fill:#004b80;font-family:Helvetica;font-size:12.0px;font-style:NORMAL;font-weight:normal;">u</text>
  <text svg_rhmargin="21.764" transform="matrix(0.0,1.0,-1.0,0.0,627.148,583.62)" x="21.764" y="605.384" style="fill:#004b80;font-family:Helvetica;font-size:12.0px;font-style:NORMAL;font-weight:normal;">t</text>
  <text svg_rhmargin="21.764" transform="matrix(0.0,1.0,-1.0,0.0,630.484,586.956)" x="21.764" y="608.72" style="fill:#004b80;font-family:Helvetica;font-size:12.0px;font-style:NORMAL;font-weight:normal;">h</text>
  <text svg_rhmargin="21.764" transform="matrix(0.0,1.0,-1.0,0.0,637.156,593.628)" x="21.764" y="615.392" style="fill:#004b80;font-family:Helvetica;font-size:12.0px;font-style:NORMAL;font-weight:normal;">o</text>
  <text svg_rhmargin="21.764" transform="matrix(0.0,1.0,-1.0,0.0,643.828,600.3)" x="21.764" y="622.064" style="fill:#004b80;font-family:Helvetica;font-size:12.0px;font-style:NORMAL;font-weight:normal;">r</text>
  <text svg_rhmargin="21.764" transform="matrix(0.0,1.0,-1.0,0.0,647.824,604.296)" y="626.06" style="fill:#004b80;font-family:Helvetica;font-size:12.0px;font-style:NORMAL;font-weight:normal;" x=""/>
  <text svg_rhmargin="21.764" transform="matrix(0.0,1.0,-1.0,0.0,651.16,607.632)" x="21.764" y="629.396" style="fill:#004b80;font-family:Helvetica;font-size:12.0px;font-style:NORMAL;font-weight:normal;">M</text>
  <text svg_rhmargin="21.764" transform="matrix(0.0,1.0,-1.0,0.0,661.156,617.628)" x="21.764" y="639.392" style="fill:#004b80;font-family:Helvetica;font-size:12.0px;font-style:NORMAL;font-weight:normal;">a</text>
  <text svg_rhmargin="21.764" transform="matrix(0.0,1.0,-1.0,0.0,667.828,624.3)" x="21.764" y="646.064" style="fill:#004b80;font-family:Helvetica;font-size:12.0px;font-style:NORMAL;font-weight:normal;">n</text>
  <text svg_rhmargin="21.764" transform="matrix(0.0,1.0,-1.0,0.0,674.38,630.852)" x="21.764" y="652.616" style="fill:#004b80;font-family:Helvetica;font-size:12.0px;font-style:NORMAL;font-weight:normal;">u</text>
  <text svg_rhmargin="21.764" transform="matrix(0.0,1.0,-1.0,0.0,681.052,637.524)" x="21.764" y="659.288" style="fill:#004b80;font-family:Helvetica;font-size:12.0px;font-style:NORMAL;font-weight:normal;">s</text>
  <text svg_rhmargin="21.764" transform="matrix(0.0,1.0,-1.0,0.0,687.052,643.524)" x="21.764" y="665.288" style="fill:#004b80;font-family:Helvetica;font-size:12.0px;font-style:NORMAL;font-weight:normal;">c</text>
  <text svg_rhmargin="21.764" transform="matrix(0.0,1.0,-1.0,0.0,693.052,649.524)" x="21.764" y="671.288" style="fill:#004b80;font-family:Helvetica;font-size:12.0px;font-style:NORMAL;font-weight:normal;">r</text>
  <text svg_rhmargin="21.764" transform="matrix(0.0,1.0,-1.0,0.0,697.228,653.7)" x="21.764" y="675.464" style="fill:#004b80;font-family:Helvetica;font-size:12.0px;font-style:NORMAL;font-weight:normal;">i</text>
  <text svg_rhmargin="21.764" transform="matrix(0.0,1.0,-1.0,0.0,699.892,656.364)" x="21.764" y="678.128" style="fill:#004b80;font-family:Helvetica;font-size:12.0px;font-style:NORMAL;font-weight:normal;">p</text>
  <text svg_rhmargin="21.764" transform="matrix(0.0,1.0,-1.0,0.0,706.564,663.036)" x="21.764" y="684.8" style="fill:#004b80;font-family:Helvetica;font-size:12.0px;font-style:NORMAL;font-weight:normal;">t</text>
  <path d="M35.5 44.0 L37.417 44.0 L37.417 728.0 L35.5 728.0 L33.582 728.0 L33.582 44.0 " style="fill:none;stroke:#000000;stroke-width:1.0;"/>
 </g>
</svg>
