<?xml version="1.0" encoding="UTF-8"?>
<svg height="725.965" width="631.7086181640625" xmlns="http://www.w3.org/2000/svg">
 <g style="fill:none;">
  <text svg_rhmargin="560.977" x="547.717,552.137,556.557,560.977" y="439.133" style="fill:#171615;font-family:IMMFNN+FrutigerLTPro-BoldCn;font-size:8.5px;font-style:NORMAL;font-weight:bold;">387 </text>
  <path d=" M 594.7086181640625 444.1889953613281 C 594.7086181640625 444.1889953613281 582.7086181640625 444.1889953613281 582.7086181640625 432.1889953613281 L 582.7086181640625 357.260009765625 C 582.7086181640625 357.260009765625 582.7086181640625 345.260009765625 594.7086181640625 345.260009765625 L 621.7086181640625 345.260009765625 L 621.7086181640625 444.1889953613281 Z " style="fill:none;stroke:#000000;stroke-width:1.0;"/>
  <text x="588.709" y="439.133" svg_rhmargin="594.949" style="fill:#ffffff;font-family:IQUZLN+FrutigerLTPro-BlackCn;font-size:12.0px;font-style:NORMAL;font-weight:bold;">4</text>
  <text x="54.567,59.131,62.438,65.591,70.156,74.882,79.761,83.067,87.793,92.358,97.084,99.447,104.173,109.052,111.262,115.826,120.552,125.431,127.641,130.157,137.246,142.125,144.488,149.053,156.142,160.706,165.432,168.739,171.102,175.828,180.707,182.917,186.223,190.949,195.514,197.724,203.393,205.756,210.635,215.514,220.079,222.442,224.652,229.692,234.257,237.878,242.757,247.636,252.362,255.983,260.547,262.757,523.716,528.595,533.321,537.885,542.764,546.071,550.635,553.942,556.152" y="38.083999999999946" svg_rhmargin="560.572" style="fill:#4c8ecf;font-family:IQUZLN+FrutigerLTPro-BlackCn;font-size:8.5px;font-style:NORMAL;font-weight:bold;">Strengthening and Implementing the Global Response Chapter 4</text>
  <text x="56.693,60.768,65.205,69.28,71.95,76.377,80.101,84.708,87.207,91.643,96.08,100.507,102.787,103.775,106.273,113.693,117.949,121.853,124.352,126.632,127.62,132.056,136.132,140.036,144.473,147.845,150.125,151.113,153.612,158.4,162.656,166.028,170.465,172.431,174.711,175.699,179.955,184.392,188.819,191.099,192.087,196.162,200.599,204.855,207.524,214.241,218.497,220.283,222.563,223.551,227.968,232.386,236.803,241.221,243.719,245.505,247.785,248.252,251.976,256.412,260.488,262.768,263.234,270.654,274.91,278.814,281.094,282.082,286.519,290.594,294.499,298.935,302.45" y="68.0" svg_rhmargin="304.73" style="fill:#171615;font-family:IMMFNN+FrutigerLTPro-Condensed;font-size:9.5px;font-style:NORMAL;font-weight:normal;">energy–food (WEF) nexus (Rasul and Sharma, 2016). The WEF nexus </text>
  <text x="56.693,60.246,64.502,68.938,71.323,75.398,79.835,84.271,88.527,92.964,96.517,100.592,102.977,105.475,109.912,114.348,118.775,120.561,122.946,129.14,133.396,136.065,140.141,142.81,145.195,149.451,153.887,158.314,160.699,164.774,169.211,173.286,175.956,180.383,184.107,186.491,189.864,193.939,197.492,201.929,204.598,206.565,209.234,212.958,214.744,217.129,221.556,225.812,228.481,231.151,233.117,236.67,241.107,243.073,247.329,249.999,251.965,255.689,258.074,260.04,264.477,266.861,270.414,272.381,275.05,277.017,281.092,284.465,286.849,293.214,295.181,297.85,302.429" y="79.99800000000005" svg_rhmargin="304.709" style="fill:#171615;font-family:IMMFNN+FrutigerLTPro-Condensed;font-size:9.5px;font-style:NORMAL;font-weight:normal;">can enhance food, water and energy security, particularly in cities with </text>
  <text x="56.693,60.949,65.376,68.045,70.012,73.565,78.001,79.968,82.637,87.074,89.743,93.999,95.966,98.483,102.91,105.58,110.016,114.443,118.88,122.433,125.102,127.069,131.505,135.942,138.459,142.715,145.385,149.46,153.716,157.089,159.606,162.105,166.893,168.859,173.286,177.713,181.086,183.603,187.679,190.348,192.866,197.122,198.566,200.703,202.489,205.007,209.424,213.842,218.259,222.677,225.175,226.961,229.479,233.554,235.521,239.596,243.149,245.819,248.488,250.455,254.008,255.974,258.644,262.368,264.885,269.312,273.388,277.824,281.9,284.569,288.825,291.495,293.461,297.898,302.477" y="91.99699999999996" svg_rhmargin="304.757" style="fill:#171615;font-family:IMMFNN+FrutigerLTPro-Condensed;font-size:9.5px;font-style:NORMAL;font-weight:normal;">agricultural production areas (Biggs et al., 2015), electricity generation </text>
  <text x="56.693,63.058,65.024,67.694,72.13,74.41,77.564,79.531,83.967,86.637,90.712,95.149,98.521,100.488,104.392,108.468,110.748,113.902,120.096,124.352,127.021,131.097,133.766,136.046,139.2,141.87,145.945,150.372,154.809,156.775,159.445,163.52,170.237,174.312,178.749,181.418,184.791,187.071,190.225,192.723,197.682,202.119,206.555,212.749,217.005,220.729,223.00900000000001,226.163,230.239,232.908,235.188,238.342,242.598,244.565,246.845,249.999,254.416,258.834,263.251,267.669,270.167,271.953,274.23299999999995,277.387,281.643,286.08,290.507,292.787,295.941,297.907,302.486" y="103.995" svg_rhmargin="304.766" style="fill:#171615;font-family:IMMFNN+FrutigerLTPro-Condensed;font-size:9.5px;font-style:NORMAL;font-weight:normal;">with intensive water requirements (Conway et al 2015), and in </text>
  <text x="56.693,60.949,65.376,68.045,70.012,73.565,78.001,79.968,82.637,87.074,89.743,93.819,95.548,98.046,102.302,104.269,105.998,111.669,115.925,118.424,122.148,123.877,127.952,130.622,132.351,136.607,138.051,140.188,141.974,143.703,148.121,152.538,156.956,161.373,163.872,165.601,169.857,174.293,178.72,180.449,182.416,184.382,188.287,192.362,194.329,196.295,200.732,205.168,209.605,214.032,217.404,219.133,221.632,226.42,228.386,232.813,237.24,240.613,242.342,246.417,249.087,250.816,255.072,256.516,258.653,260.439,262.168,266.586,271.003,275.421,279.838,282.337,284.123,285.852,289.927,294.364,297.917,302.496" y="115.99400000000003" svg_rhmargin="304.776" style="fill:#171615;font-family:IMMFNN+FrutigerLTPro-Condensed;font-size:9.5px;font-style:NORMAL;font-weight:normal;">agriculture (El Gafy et al., 2017) and livelihoods (Biggs et al., 2015). Such </text>
  <text x="56.693,60.949,63.229,64.046,68.482,72.558,76.462,80.899,84.271,86.551,87.368,91.624,96.051,100.478,103.148,107.584,111.84,115.393,119.83,122.11,122.927,126.48,130.736,135.172,137.452,138.269,140.939,145.014,149.441,153.878,157.431,161.506,163.786,164.603,167.273,171.709,175.785,178.065,178.882,181.551,184.221,188.477,192.913,196.286,200.713,205.149,207.819,210.488,212.768,213.585,217.661,222.097,226.173,228.842,233.269,236.993,239.273,240.09,242.76,247.196,251.452,254.122,256.402,257.219,259.185,262.558,264.83799999999997,265.655,269.73,276.447,280.874,284.949,289.376,293.803,297.879,302.447" y="127.99199999999996" svg_rhmargin="304.727" style="fill:#171615;font-family:IMMFNN+FrutigerLTPro-Condensed;font-size:9.5px;font-style:NORMAL;font-weight:normal;">a nexus approach can reduce the transport energy that is embedded </text>
  <text x="56.693,58.659,63.096,65.37599999999999,66.193,68.691,73.128,77.564,81.991,84.271,85.088,88.822,93.078,95.044,99.481,103.556,105.836,106.653,110.206,114.643,118.899,120.865,125.302,128.674,130.954,131.771,134.27,139.039,141.005,142.972,144.938,149.194,151.864,154.533,158.97,163.045,165.012,167.587,174.656,178.912,180.879,184.603,188.678,191.348,193.62800000000001,194.445,198.52,201.19,203.47,204.287,208.543,209.986,212.123,213.909,216.189,217.006,221.424,225.841,230.259,234.676,237.175,238.96,241.24,242.057,246.484,249.153,253.59,257.494,259.461,263.888,265.854,270.291,274.718,276.998,277.815,282.242,284.208,288.113,292.188,294.858,298.23,302.447" y="139.99099999999999" svg_rhmargin="304.727" style="fill:#171615;font-family:IMMFNN+FrutigerLTPro-Condensed;font-size:9.5px;font-style:NORMAL;font-weight:normal;">in food value chains (Villarroel Walker et al., 2014), providing diverse </text>
  <text x="56.693,60.065,64.502,68.938,71.608,75.161,79.236,82.609,84.889,85.706,90.142,92.641,94.921,95.738,98.236,102.673,107.109,111.536,113.816,114.633,116.6,121.036,123.316,124.133,126.803,131.239,135.315,137.595,138.412,140.91,145.166,148.719,152.795,155.075,155.892,160.328,162.827,165.107,165.924,169.477,173.913,178.169,182.606,187.033,188.999,193.436,197.863,200.143,200.96,204.513,206.479,208.446,215.162,219.418,222.088,226.163,229.536,231.816,232.633,235.131,238.493,242.749,246.302,250.739,252.705,254.672,256.952,257.769,261.844,264.514,266.794,267.611,271.867,273.311,275.448,277.234,279.51399999999995,280.331,284.749,289.166,293.584,298.001,300.5,302.428" y="151.98900000000003" svg_rhmargin="304.708" style="fill:#171615;font-family:IMMFNN+FrutigerLTPro-Condensed;font-size:9.5px;font-style:NORMAL;font-weight:normal;">sources of food in the face of changing climates (Tacoli et al., 2013). </text>
  <text x="56.693,62.174,64.844,69.271,73.527,77.963,80.243,80.737,84.993,89.42,92.09,94.056,97.609,102.046,104.012,106.682,111.118,113.788,117.512,119.298,121.578,122.072,128.437,132.873,136.949,139.618,143.694,145.974,146.468,148.434,152.871,155.54,159.616,164.043,166.712,170.968,173.638,177.713,182.14,183.926,186.206,186.7,190.253,194.509,198.946,201.226,201.72,208.436,210.403,213.072,215.039,219.466,223.722,226.391,230.467,232.747,233.241,236.794,238.76,240.727,247.443,251.699,254.369,258.444,260.724,261.218,264.771,269.208,273.464,277.9,282.327,286.403,288.683,289.177,293.433,297.869,302.439" y="163.98800000000006" svg_rhmargin="304.719" style="fill:#171615;font-family:IMMFNN+FrutigerLTPro-Condensed;font-size:9.5px;font-style:NORMAL;font-weight:normal;">Urban agriculture, where integrated, can mitigate climate change and </text>
  <text svg_rhmargin="304.728" x="56.693,60.065,64.502,68.929,73.356,77.792,80.462,83.131,84.955,89.392,92.061,96.488,100.744,105.181,107.005,111.612,116.049,120.485,124.912,126.736,133.453,137.709,142.145,146.401,150.828,154.904,161.62,165.696,170.132,172.802,174.626,177.124,182.435,186.871,191.298,195.735,198.404,201.074,202.518,204.303,206.127,210.544,214.962,219.379,223.797,225.583,227.407,232.195,236.27,238.237,240.203,242.027,246.103,248.772,250.596,254.852,256.296,258.434,260.22,262.044,266.461,270.879,275.297,279.714,281.5,283.324,288.112,290.079,294.506,298.933,302.448,304.72799999999995" y="67.99000000000001" style="fill:#171615;font-family:IMMFNN+FrutigerLTPro-Condensed;font-size:9.5px;font-style:NORMAL;font-weight:normal;">support urban flood management (Angotti, 2015; Bell et al., 2015; Biggs </text>
  <text x="315.216,319.292,321.961,324.241,325.277,329.533,330.977,333.114,334.9,337.17999999999995,338.216,342.633,347.051,351.468,355.886,357.672,359.952,360.987,366.659,373.024,377.099,381.526,383.493,387.749,390.029,391.064,395.32,399.757,404.184,406.464,407.499,411.575,416.011,420.267,423.82,427.896,429.862,433.938,436.607,441.044,445.48,447.266,449.546,450.582,454.999,459.417,463.834,468.252,470.038,472.318,473.353,477.077,483.271,487.527,490.9,495.156,497.436,498.471,502.547,505.216,507.496,508.532,512.788,514.232,516.369,518.155,520.435,521.471,525.888,530.306,534.723,539.141,540.927,543.207,543.719,547.728,551.984,556.42,560.99" y="67.99000000000001" svg_rhmargin="563.27" style="fill:#171615;font-family:IMMFNN+FrutigerLTPro-Condensed;font-size:9.5px;font-style:NORMAL;font-weight:normal;">et al., 2015; Gwedla and Shackleton, 2015; Lwasa et al., 2015; Yang </text>
  <text x="315.216,319.292,321.961,324.241,325.058,329.314,330.758,332.896,334.682,336.962,337.779,342.196,346.614,351.031,355.449,357.235,359.515,360.332,364.407,368.663,373.1,377.175,380.548,382.514,384.794,385.611,389.687,392.356,394.63599999999997,395.453,399.709,401.153,403.291,405.077,407.35699999999997,408.174,412.591,417.009,421.426,425.844,428.342,430.129,432.409,433.226,435.382,439.819,442.099,442.916,445.585,450.022,454.097,456.37699999999995,457.194,460.747,465.003,468.376,472.451,474.731,475.548,479.985,482.483,484.763,485.58,489.656,491.622,495.698,499.251,501.92,504.59,506.556,510.109,512.076,514.745,518.469,520.749,521.566,525.993,530.068,534.505,538.581,541.25,545.506,548.175,550.142,554.578,559.015,560.944" y="79.98900000000003" svg_rhmargin="563.224" style="fill:#171615;font-family:IMMFNN+FrutigerLTPro-Condensed;font-size:9.5px;font-style:NORMAL;font-weight:normal;">et al., 2016; Sanesi et al., 2017). In the case of electricity generation, </text>
  <text x="315.216,319.292,323.728,327.984,332.411,334.378,336.344,340.781,345.208,347.773,351.326,355.762,360.199,364.626,366.592,369.262,371.228,375.665,380.101,383.474,386.039,388.708,393.145,395.814,400.251,404.687,409.114,413.551,416.116,420.372,422.937,426.49,430.926,437.643,442.07,444.036,448.473,452.729,455.398,457.365,461.801,466.238,468.803,473.239,475.738,478.303,481.856,486.112,488.781,492.857,495.355,499.792,501.758,503.725,507.449,510.014,513.386,517.462,519.428,523.504,527.057,529.726,533.802,538.229,540.794,545.221,549.657,551.624,553.59,557.143,561.01" y="91.98699999999997" svg_rhmargin="563.29" style="fill:#171615;font-family:IMMFNN+FrutigerLTPro-Condensed;font-size:9.5px;font-style:NORMAL;font-weight:normal;">enabling conditions through a combination of carefully selected policy </text>
  <text x="315.216,317.183,321.619,324.992,327.661,330.331,334.767,341.484,345.559,349.996,352.665,356.038,358.318,360.132,363.685,367.941,372.378,374.65799999999996,376.472,383.189,387.445,391.349,393.316,400.032,401.999,405.552,409.627,411.907,413.722,416.391,420.828,424.903,427.183,428.998,432.37,436.094,440.531,444.606,447.276,451.703,453.669,457.222,459.50199999999995,461.317,465.744,469.819,474.256,478.331,482.939,485.608,488.981,491.26099999999997,493.075,497.502,501.578,504.247,510.612,514.688,518.763,523.2,525.48,527.294,529.261,533.697,540.062,542.342,544.157,549.828,555.139,560.953" y="103.98599999999999" svg_rhmargin="563.233" style="fill:#171615;font-family:IMMFNN+FrutigerLTPro-Condensed;font-size:9.5px;font-style:NORMAL;font-weight:normal;">instruments can maximize the synergic benefits between low GHG </text>
  <text x="315.216,319.292,323.728,327.804,330.473,334.9,338.624,340.904,341.664,346.091,348.761,353.197,357.624,362.061,365.614,368.283,370.25,374.686,379.123,381.40299999999996,382.163,386.419,390.855,395.282,397.56199999999995,398.322,404.516,408.772,411.442,415.517,418.187,420.467,421.227,423.725,428.162,430.831,433.111,433.871,437.947,442.383,446.459,449.128,453.555,457.279,459.55899999999997,460.319,462.818,466.893,471.33,475.586,480.022,484.449,486.729,487.489,491.565,494.234,496.51399999999995,497.274,501.53,502.974,505.112,506.898,509.178,509.938,514.355,518.773,523.19,527.608,530.106,531.892,534.172,534.932,540.243,544.318,547.691,552.118,554.084,556.754,560.972" y="115.98400000000004" svg_rhmargin="563.252" style="fill:#171615;font-family:IMMFNN+FrutigerLTPro-Condensed;font-size:9.5px;font-style:NORMAL;font-weight:normal;">energy production and water for energy (Shang et al., 2018). Despite </text>
  <text x="315.216,317.886,322.322,326.398,328.678,331.252,337.969,342.405,344.372,347.041,349.008,353.435,355.401,359.477,361.75699999999995,364.331,368.758,372.834,377.27,381.346,385.953,388.623,391.995,394.275,396.85,401.286,403.785,406.065,408.639,415.356,419.612,423.516,425.483,432.199,434.166,437.719,439.685,444.122,448.549,450.82899999999995,453.403,456.776,460.5,464.936,469.012,471.681,476.108,478.075,482.15,485.523,487.803,490.377,494.804,498.88,501.549,507.914,511.99,516.065,520.502,522.7819999999999,525.356,532.073,534.039,536.709,538.675,543.102,547.358,550.028,551.994,556.431,561.01" y="127.98199999999997" svg_rhmargin="563.29" style="fill:#171615;font-family:IMMFNN+FrutigerLTPro-Condensed;font-size:9.5px;font-style:NORMAL;font-weight:normal;">the multiple benefits of maximizing synergies between mitigation </text>
  <text x="315.216,319.472,323.909,328.336,330.616,331.186,335.442,339.869,344.125,348.552,351.221,355.477,358.147,360.113,364.55,368.986,372.359,374.63899999999995,375.209,379.645,384.072,386.742,388.708,393.145,397.581,400.954,403.234,403.804,406.473,410.91,413.579,418.016,422.452,426.879,431.316,433.59599999999995,434.166,436.835,441.272,445.347,447.672,455.091,459.348,463.252,465.532,466.102,470.539,474.614,478.519,482.955,486.328,488.60799999999995,489.178,493.434,497.861,502.288,504.957,509.394,513.65,517.203,521.639,523.919,524.489,526.987,531.946,536.383,540.458,544.895,547.175,547.745,552.001,556.438,561.007" y="139.981" svg_rhmargin="563.287" style="fill:#171615;font-family:IMMFNN+FrutigerLTPro-Condensed;font-size:9.5px;font-style:NORMAL;font-weight:normal;">and adaptations options through the WEF nexus approach (Chen and </text>
  <text x="315.216,320.175,324.612,328.687,333.124,334.91,337.19,338.282,342.7,347.117,351.535,355.952,358.451,360.237,362.517,363.609,366.279,370.715,374.791,377.46,381.536,383.816,384.908,389.164,391.834,395.909,398.18899999999996,399.282,401.248,407.965,412.392,414.358,418.434,425.15,429.226,433.662,436.332,440.588,443.257,445.224,449.66,454.097,456.37699999999995,457.469,461.022,465.459,469.715,471.681,473.648,477.723,482.16,486.587,490.662,494.035,496.315,497.407,501.834,503.801,507.705,511.781,516.217,518.497,519.59,521.556,525.993,529.365,532.035,534.001,536.671,541.107,543.777,545.743,550.18,554.616,558.872,560.981" y="151.97900000000004" svg_rhmargin="563.261" style="fill:#171615;font-family:IMMFNN+FrutigerLTPro-Condensed;font-size:9.5px;font-style:NORMAL;font-weight:normal;">Chen, 2016), there are implementation challenges given institutional </text>
  <text x="315.216,318.769,323.206,329.922,334.349,336.316,340.391,344.296,346.262,348.932,352.656,354.442,356.722,357.548,361.975,366.412,368.378,370.345,373.014,374.981,378.534,382.79,384.756,387.03599999999994,387.863,391.938,395.491,399.928,404.364,408.801,415.517,419.241,421.027,423.30699999999996,424.134,428.39,432.826,437.253,439.53299999999996,440.36,442.326,446.763,449.432,453.508,456.177,460.604,464.68,469.107,473.182,477.619,482.046,486.121,490.558,494.111,496.077,500.153,503.525,505.80499999999995,506.632,511.059,515.134,517.804,524.169,528.244,532.32,536.756,539.036,539.863,544.119,547.672,550.341,554.778,557.447,560.962" y="163.97799999999995" svg_rhmargin="563.242" style="fill:#171615;font-family:IMMFNN+FrutigerLTPro-Condensed;font-size:9.5px;font-style:NORMAL;font-weight:normal;">complexity, political economy, and interdependencies between actors </text>
  <text x="315.216,317.715,321.439,325.514,329.067,333.143,335.28,339.356,342.025,344.163,348.419,349.863,352.0,353.786,355.924,360.341,364.759,369.177,373.594,376.093" y="175.976" svg_rhmargin="378.373" style="fill:#171615;font-family:IMMFNN+FrutigerLTPro-Condensed;font-size:9.5px;font-style:NORMAL;font-weight:normal;">(Leck et al., 2015).</text>
  <path d=" M 56.69300079345703 295.93701171875 L 560.9760131835938 295.93701171875 L 560.9760131835938 601.3699951171875 L 56.69300079345703 601.3699951171875 Z " style="fill:none;stroke:#000000;stroke-width:1.0;"/>
  <text x="74.693,80.809,86.716,91.809,94.669,100.389,103.249,108.969,114.689,117.549,119.991,122.851,125.711,131.827,137.536,143.245,147.117,152.617,158.326,160.778,163.638,169.138,174.231,179.94,185.44,189.202,195.109,197.969,203.469,207.946,210.806,216.306,222.015,227.922,230.176,234.532,238.294,243.794,249.701,255.201,258.666,265.794,269.457,273.12,277.597,280.457,283.317,289.026,291.886,297.386,302.072,307.979,313.688,319.595,328.153,331.013,335.699,338.559,345.687,349.449,355.356,363.507,367.379,373.088,375.541,378.401,384.517,390.017,393.889,399.796,405.703,411.412,414.272,421.4,426.9,432.609,436.481,440.243,445.743,448.603,451.463,455.335,460.428,463.288,468.788,474.497,480.404,483.264,489.985,495.485,501.392,507.299,510.159,515.868,521.368,525.845" y="224.88" svg_rhmargin="530.322" style="fill:#192a53;font-family:IMMFNN+FrutigerLTPro-BoldCn;font-size:11.0px;font-style:NORMAL;font-weight:bold;">Box 4.10 | Bhutan: Synergies and Trade-Offs in Economic Growth, Carbon Neutrality and Happiness</text>
  <text x="74.693,79.623,84.202,88.781,91.593,95.992,100.571,102.851,104.266,108.845,113.244,116.759,119.039,120.454,123.266,127.845,130.657,134.875,139.093,141.373,142.789,147.368,151.766,154.578,156.687,161.266,165.845,170.244,172.353,174.633,176.048,180.618,185.197,189.595,191.704,195.219,197.148,199.428,200.843,202.952,209.811,214.381,217.193,221.772,225.819,227.928,232.507,237.076,239.356,240.772,242.881,245.693,249.208,251.488,252.903,257.473,260.285,264.864,268.379,271.894,274.174,275.589,280.168,284.567,287.379,289.488,294.067,298.646,303.044,305.153,307.433,308.849,313.428,317.826,322.396,326.965,329.074,333.653,337.871,341.386,344.901,347.181,348.597,350.706,355.285,359.854,364.072,368.119,370.399,371.815,374.456,380.27,386.084,391.537,393.836,396.477,398.405,400.68499999999995,402.101,404.21,411.069,415.638,418.45,423.029,427.076,429.185,433.764,438.334,440.614,442.029,444.138,446.95,450.465,452.74499999999995,454.161,458.379,462.074,466.653,471.232,475.811,482.67,484.779,488.475,490.755,492.17,496.74,499.552,504.131,510.638,513.451,518.029,520.309,521.725,524.366,528.935,531.747,536.326,539.841,543.357" y="248.0" svg_rhmargin="545.637" style="fill:#171615;font-family:IMMFNN+FrutigerLTPro-Condensed;font-size:9.5px;font-style:NORMAL;font-weight:normal;">Bhutan has three national goals: improving its gross national happiness index (GNHI), improving its economic growth (gross </text>
  <text x="74.693,79.262,83.841,90.7,94.918,98.433,101.245,103.354,107.05,109.396,113.966,116.778,121.357,125.926,130.505,134.201,137.013,138.941,141.288,147.102,152.555,157.124,159.765,162.112,166.51,171.089,175.659,178.005,184.864,189.263,191.372,195.951,198.763,203.161,205.27,209.849,211.958,216.537,221.107,223.453,225.562,228.374,231.889,234.236,237.931,242.33,245.142,249.711,254.29,258.869,261.216,265.795,270.013,274.592,277.404,280.216,284.614,286.723,288.832,291.644,295.511,297.439,299.265,303.132,307.711,311.929,315.444,319.662,322.008,326.578,331.157,335.555,337.664,341.179,343.526,345.635,350.214,353.909,356.721,360.939,365.338,368.853,370.962,375.541,380.11,382.219,386.086,388.432,390.541,395.12,397.932,402.15,404.962,409.361,413.056,415.868,418.215,422.613,427.192,431.762,434.108,436.92,441.319,443.428,446.943,451.161,453.507,458.077,462.656,466.874,470.389,473.201,475.31,479.889,484.468,487.983,490.329,494.728,499.297,503.876,508.455,511.267,513.614,520.121,524.7,528.918,531.73,536.309,540.527,543.339" y="259.99800000000005" svg_rhmargin="545.619" style="fill:#171615;font-family:IMMFNN+FrutigerLTPro-Condensed;font-size:9.5px;font-style:NORMAL;font-weight:normal;">domestic product, GDP) and maintaining its carbon neutrality. These goals increasingly interact and raise questions about whether </text>
  <text x="74.693,77.505,82.084,86.302,90.168,92.315,96.011,100.409,104.988,107.135,111.705,115.923,118.07,121.585,126.164,129.679,132.491,136.889,138.998,143.577,147.976,152.545,154.654,158.521,160.668,167.527,171.925,174.034,178.613,181.425,185.824,187.933,192.512,196.73,201.299,203.442,205.551,210.13,212.942,217.521,219.668,222.48,227.059,231.277,233.424,236.065,240.644,243.456,248.035,250.847,254.713,256.642,258.789,261.088,265.667,268.479,272.697,275.509,279.556,283.774,288.353,291.165,293.274,297.853,302.432,305.947,308.089,310.198,314.777,316.924,319.736,324.315,326.424,329.939,332.081,336.299,340.878,345.277,349.846,351.955,354.064,358.643,363.213,365.36,369.578,374.157,378.204,380.313,383.125,387.704,392.283,399.142,403.36,407.939,410.751,412.898,417.296,420.108,424.326,426.469,429.281,433.499,438.068,442.647,444.756,447.568,451.786,456.356,458.503,461.315,465.894,468.041,471.736,476.315,483.174,487.744,489.853,493.719,495.866,502.374,504.483,507.295,511.874,514.016,518.414,520.523,522.632,524.779,527.591,532.17,534.982,539.2,543.418" y="271.99699999999996" svg_rhmargin="545.698" style="fill:#171615;font-family:IMMFNN+FrutigerLTPro-Condensed;font-size:9.5px;font-style:NORMAL;font-weight:normal;">they can be sustainably maintained into the future. Interventions in this enabling environment are required to comply with all three </text>
  <text x="74.693,79.262,83.841,88.24,90.349,93.512,95.441" y="283.995" svg_rhmargin="97.721" style="fill:#171615;font-family:IMMFNN+FrutigerLTPro-Condensed;font-size:9.5px;font-style:NORMAL;font-weight:normal;">goals. </text>
  <text x="74.693,79.623,84.202,88.781,91.593,95.992,100.571,103.136,105.245,108.76,111.325,117.832,122.05,124.159,126.268,128.833,133.051,137.63,142.209,148.717,153.296,155.861,158.502,163.081,165.893,168.458,170.567,173.379,176.894,179.459,185.273,191.087,196.54,198.839,200.767,203.332,209.84,214.419,216.528,220.223,224.802,227.367,229.476,232.991,235.556,240.126,244.524,248.039,252.257,256.827,259.392,263.971,268.55,271.115,275.513,278.078,281.954,286.353,289.165,291.274,295.492,298.304,302.17,304.735,309.314,311.955,314.52,316.629,321.208,325.778,327.887,331.582,335.981,338.793,343.372,346.184,349.699,352.264,355.959,360.538,364.585,368.803,371.615,373.724,378.303,382.873,385.438,390.007,393.522,397.389,401.084,405.663,410.242,412.352,416.931,421.5,423.609,427.305,431.703,433.812,436.377,442.885,447.103,449.212,451.321,454.133,458.702,462.92,465.029,469.608,474.178,476.106,478.671,483.25,487.468,491.867,493.976,496.788,501.367,503.295,505.86,510.078,514.648,519.227,522.922,527.32,530.133,532.242,536.82,541.399,543.328" y="307.992" svg_rhmargin="545.608" style="fill:#171615;font-family:IMMFNN+FrutigerLTPro-Condensed;font-size:9.5px;font-style:NORMAL;font-weight:normal;">Bhutan is well known for its GNHI, which is based on a variety of indicators covering psychological well-being, health, education, </text>
  <text x="74.693,78.388,82.967,85.076,87.888,92.467,95.279,99.678,101.787,104.06700000000001,104.727,109.126,113.705,118.274,120.554,121.213,124.909,129.488,136.347,143.206,147.785,152.364,154.473,157.285,161.151,163.431,164.091,168.138,170.247,173.059,177.457,179.566,181.675,184.487,188.354,190.282,192.562,193.221,195.33,197.439,201.486,203.595,208.174,212.744,215.024,215.683,219.198,222.01,226.409,230.988,235.557,239.956,242.768,247.337,250.501,252.429,254.709,255.37,259.588,263.283,267.862,269.971,274.55,279.12,281.229,284.924,289.323,291.432,293.712,294.371,296.48,299.995,303.51,308.089,312.307,315.822,318.102,318.762,323.161,327.74,332.309,334.589,335.248,339.818,344.397,348.976,353.545,355.825,356.486,361.055,365.634,369.681,373.899,376.711,381.29,385.689,390.268,393.963,398.181,400.46099999999996,401.12,403.761,408.692,414.506,419.085,423.493,425.422,427.702,428.362,432.922,437.482,442.042,446.602,448.53,450.80999999999995,451.47,455.688,459.383,463.962,466.774,471.353,475.571,480.141,484.359,487.171,489.45099999999996,490.11,494.508,499.087,503.657,505.93699999999995,506.597,510.815,514.511,519.09,521.902,526.481,530.699,535.268,539.486,541.434,543.362" y="319.991" svg_rhmargin="545.642" style="fill:#171615;font-family:IMMFNN+FrutigerLTPro-Condensed;font-size:9.5px;font-style:NORMAL;font-weight:normal;">cultural and community vitality, living standards, ecological issues and good governance (RGoB, 2012; Schroeder and Schroeder, </text>
  <text x="74.693,79.253,83.813,88.373,92.933,94.861,97.341,102.965,105.777,110.175,112.104,114.583,119.143,123.703,128.263,132.823,135.464,137.393,139.348,143.214,147.793,152.011,154.491,160.305,166.119,171.572,173.871,176.35,178.459,181.974,184.454,188.852,191.332,195.902,198.714,202.932,206.627,211.206,214.018,217.533,222.112,224.924,227.403,230.215,234.794,237.274,240.086,244.665,248.883,251.362,255.58,260.159,263.674,266.487,270.885,272.994,277.573,281.972,286.541,288.65,292.868,295.348,300.801,305.018,309.065,313.283,315.392,319.971,324.541,331.4,335.618,340.197,343.009,345.488,351.302,355.882,360.28,362.389,365.904,368.384,371.025,375.242,380.695,386.509,390.025,392.665,395.145,397.786,403.239,405.348,407.457,409.566,413.081,417.66,422.239,424.168,426.647,431.207,435.767,440.327,444.887,446.816,449.295,454.226,457.038,461.617,466.196,470.414,473.577,475.506,477.985,482.545,487.105,491.665,496.225,498.866,501.346,505.744,510.323,514.893,517.372,520.184,524.402,529.152,533.37,537.066,539.878,543.393" y="331.989" svg_rhmargin="545.673" style="fill:#171615;font-family:IMMFNN+FrutigerLTPro-Condensed;font-size:9.5px;font-style:NORMAL;font-weight:normal;">2014; Ura, 2015). The GNHI is a precursor to the Sustainable Development Goals (SDGs) (Allison, 2012; Brooks, 2013) and reflects </text>
  <text x="74.693,76.802,81.381,85.076,89.475,91.584,94.044,98.262,102.841,107.24,111.809,113.918,116.027,120.606,125.176,127.636,131.854,136.433,140.48,142.589,145.401,149.98,154.559,161.418,165.636,170.215,173.027,176.191,178.119,180.06,183.927,188.506,192.724,195.184,200.998,206.812,212.265,214.564,217.025,221.604,226.002,229.517,231.978,236.547,240.765,244.983,249.562,252.023,258.882,263.1,267.498,271.013,275.592,278.404,282.622,287.192,289.652,292.464,298.972,301.081,304.776,308.643,310.571,313.032,315.141,319.72,322.18,326.74,331.3,335.86,340.42,342.881,347.279,351.858,356.428,358.888,363.448,368.008,372.568,377.128,379.058,381.518,385.917,390.496,395.065,397.526,400.338,404.917,407.026,410.541,413.001,416.516,421.095,425.674,432.182,436.4,440.969,443.43,447.828,452.407,454.868,456.977,461.556,465.251,468.063,472.281,476.68,480.195,484.413,486.873,491.452,494.093,496.554,501.114,503.394,507.954,515.687,518.147,520.788,525.89,530.82,535.038,537.499,543.303" y="343.988" svg_rhmargin="545.583" style="fill:#171615;font-family:IMMFNN+FrutigerLTPro-Condensed;font-size:9.5px;font-style:NORMAL;font-weight:normal;">local enabling environments. The GNHI has been measured twice, in 2010 and 2015, and this showed an increase of 1.8% (CBS &amp; </text>
  <text x="74.693,80.507,86.321,91.774,93.702,95.83,100.39,104.95,109.51,114.07,116.711,118.64,120.768,124.634,126.743,130.61,134.828,136.956,143.815,148.394,151.909,154.721,156.849,161.067,167.926,172.144,174.956,179.525,181.634,186.213,190.783,192.911,196.606,201.185,205.764,210.343,213.155,215.967,218.076,222.294,225.458,227.386,229.514,234.445,239.024,243.603,246.415,250.813,255.392,257.52,263.858,268.256,272.835,275.647,279.162,281.29,284.102,288.681,290.809,292.918,297.497,301.193,304.005,308.223,312.621,316.136,320.354,322.482,324.591,327.403,330.918,333.046,339.554,343.772,348.17,350.279,353.091,357.67,359.798,364.197,368.776,373.345,375.473,380.043,384.261,387.956,392.535,399.394,403.612,405.74,410.139,412.267,419.126,421.235,425.804,430.374,432.483,436.701,439.513,441.622,446.201,449.896,454.475,461.334,465.552,467.68,471.376,475.955,480.534,485.113,487.925,490.737,494.603,496.731,499.372,504.303,510.117,514.696,519.104,521.032,523.16,527.72,532.28,536.84,541.4,543.329" y="355.986" svg_rhmargin="545.609" style="fill:#171615;font-family:IMMFNN+FrutigerLTPro-Condensed;font-size:9.5px;font-style:NORMAL;font-weight:normal;">GNH, 2016). Like most emerging countries, Bhutan wants to increase its wealth and become a middle-income country (RGoB, 2013, </text>
  <text x="74.693,79.253,83.813,88.373,92.933,95.574,97.502,100.229,106.736,111.315,113.424,115.533,119.751,122.478,125.29,129.508,136.367,140.765,142.874,147.453,149.562,154.141,158.711,161.437,165.133,169.531,172.343,176.913,181.492,186.071,188.883,193.462,197.68,202.259,205.071,207.883,212.281,214.39,217.117,221.867,224.593,228.992,231.718,236.288,240.867,245.265,247.374,250.101,256.608,261.187,263.296,266.992,271.571,274.297,278.876,283.275,286.79,289.516,294.086,298.304,302.522,307.101,309.827,311.936,316.515,319.242,323.811,325.92,330.319,334.014,338.232,340.959,344.474,346.583,351.162,354.857,359.075,361.802,366.362,370.922,375.482,380.042,382.768,387.167,389.979,392.705,397.807,403.621,408.19,412.75,417.31,420.037,424.435,429.014,433.584,436.31,442.647,447.045,450.56,453.287,456.099,460.317,462.426,465.238,469.456,472.268,476.666,479.478,483.696,488.266,490.992,493.101,497.68,500.407,502.516,505.328,508.843,511.569,513.868,518.447,521.259,525.477,530.056,534.626,538.844,543.413" y="367.985" svg_rhmargin="545.693" style="fill:#171615;font-family:IMMFNN+FrutigerLTPro-Condensed;font-size:9.5px;font-style:NORMAL;font-weight:normal;">2016), while remaining carbon-neutral – a goal which has been in place since 2009 at COP15 and was reiterated in its Intended </text>
  <text x="74.693,80.507,84.905,87.717,89.826,94.405,98.984,103.383,105.492,107.601,111.467,113.7,119.153,123.371,126.183,130.401,133.213,140.072,142.181,146.76,150.978,155.547,157.78,162.881,167.46,172.039,174.851,177.663,179.772,184.342,188.921,191.733,193.842,198.421,203.0,205.232,207.873,213.687,218.086,223.187,225.116,227.348,231.908,236.468,241.028,245.588,248.229,250.158,252.39,257.321,261.9,266.479,269.291,273.689,278.268,280.501,284.899,288.595,293.174,295.283,299.501,303.548,307.766,311.281,313.513,315.622,318.434,321.949,324.182,327.877,332.456,335.268,338.08,342.298,346.877,349.689,351.922,355.617,360.016,362.828,367.397,371.977,376.556,379.368,383.947,388.165,392.744,395.556,398.368,402.766,404.875,407.108,410.623,413.435,417.833,420.645,425.224,428.739,430.972,433.784,438.363,441.175,445.754,450.333,454.902,459.481,461.714,466.293,470.159,474.729,477.541,482.12,486.689,491.268,497.776,501.994,504.806,507.038,511.437,516.016,520.585,522.818,525.459,530.038,532.85,537.068,540.583,543.395" y="379.983" svg_rhmargin="545.675" style="fill:#171615;font-family:IMMFNN+FrutigerLTPro-Condensed;font-size:9.5px;font-style:NORMAL;font-weight:normal;">Nationally Determined Contribution (NEC, 2015). Bhutan achieves its current carbon-neutral status through hydropower and forest </text>
  <text x="74.693,78.388,82.967,87.014,91.232,94.044,96.324,98.965,103.117,107.515,112.094,116.664,120.882,125.28,127.56,131.959,136.538,141.107,143.387,148.84,150.949,155.167,158.682,162.9,167.479,172.049,176.628,179.44,181.558,183.487,185.767,190.327,194.887,199.447,204.007,206.648,208.576,210.856,217.364,221.943,224.052,227.747,232.326,234.606,239.005,241.817,246.035,248.315,252.884,257.283,260.095,262.907,265.187,269.766,272.407,274.687,276.796,279.608,283.123,285.403,288.215,292.433,295.948,298.057,300.166,302.275,306.493,311.072,314.767,318.985,321.265,325.664,330.243,334.812,337.092,341.491,346.06,350.459,355.028,357.84,362.239,365.051,367.16,371.739,376.318,378.598,382.113,384.925,387.737,392.135,394.948,399.165,403.735,407.601" y="391.982" svg_rhmargin="409.881" style="fill:#171615;font-family:IMMFNN+FrutigerLTPro-Condensed;font-size:9.5px;font-style:NORMAL;font-weight:normal;">cover (Yangka and Diesendorf, 2016), which are part of its resilience and adaptation strategy.</text>
  <text x="74.693,80.507,84.725,88.772,92.99,95.802,98.614,103.193,107.411,109.52,113.738,117.253,120.416,122.345,124.33,129.261,133.84,138.419,141.231,145.629,150.208,152.194,154.835,159.233,162.929,167.147,170.662,172.647,175.459,177.568,181.083,183.192,187.771,192.341,194.326,200.14,205.593,211.407,213.393,217.611,224.47,226.579,230.094,233.609,235.718,240.297,244.876,248.038,249.967,251.429,254.944,257.756,262.154,266.733,270.248,274.818,279.397,282.209,285.021,287.007,291.405,295.984,300.553,302.539,304.648,309.227,313.797,318.376,321.891,324.703,327.515,331.381,333.367,337.765,340.577,344.795,346.781,349.593,354.172,358.39,360.375,362.484,366.883,369.695,374.264,378.482,381.997,384.809,386.795,391.364,394.176,398.755,405.263,408.075,412.654,414.639,419.038,421.85,426.068,430.466,433.981,435.967,438.608,444.422,448.82,453.922,455.85,457.836,462.396,466.956,471.516,476.076,478.717,480.645,482.631,487.561,492.14,496.719,499.531,503.93,508.509,510.437,513.952,515.938,519.633,524.032,526.844,531.413,535.992,540.571" y="415.979" svg_rhmargin="543.383" style="fill:#171615;font-family:IMMFNN+FrutigerLTPro-Condensed;font-size:9.5px;font-style:NORMAL;font-weight:normal;">Nevertheless, Bhutan faces rising GHG emissions. Transport and industry are the largest growth areas (NEC, 2011). Bhutan’s carbon-</text>
  <text x="74.693,79.272,83.49,88.069,90.881,93.693,98.091,100.2,102.49,106.005,108.817,113.215,116.027,120.606,124.121,126.411,132.918,137.497,142.076,144.185,148.755,151.044,155.614,159.832,162.121,164.933,169.512,172.324,176.542,180.941,183.753,187.971,192.55,196.768,201.337,203.627,208.196,212.063,214.352,218.912,223.472,228.032,232.592,234.882,241.389,243.498,246.31,250.889,253.179,257.748,262.327,265.842,267.951,272.53,276.748,280.263,283.778,286.59,290.989,294.504,297.316,301.895,305.41,309.989,314.388,316.497,318.786,323.185,327.754,332.323,335.135,339.715,344.113,347.809,352.388,356.605,360.121,362.41,365.222,369.801,372.091,376.309,380.004,384.583,389.162,393.741,400.6,402.709,406.405,408.694,413.264,416.076,420.655,427.162,429.974,434.553,436.843,439.484,443.635,448.034,452.613,457.182,461.4,465.799,468.088,472.487,477.066,481.635,483.924,489.738,493.956,500.464,507.323,511.721,516.3,518.229,520.518,525.078,529.638,534.198,538.758,541.399,543.328" y="427.977" svg_rhmargin="545.608" style="fill:#171615;font-family:IMMFNN+FrutigerLTPro-Condensed;font-size:9.5px;font-style:NORMAL;font-weight:normal;">neutral status would be threatened by 2044 with business-as-usual approaches to economic growth (Yangka and Newman, 2018). </text>
  <text x="74.693,76.992,81.571,85.266,88.078,92.296,96.695,100.21,104.428,107.943,109.957,112.066,116.645,118.659,123.238,127.104,131.674,134.486,139.065,143.634,148.213,154.721,158.939,161.751,163.765,168.163,170.975,175.193,177.207,181.777,185.995,188.104,192.683,197.252,199.262,203.831,205.94,210.339,214.918,219.497,223.715,228.284,230.293,234.863,239.261,242.776,246.994,251.564,253.578,258.157,262.736,264.75,268.445,270.554,272.663,279.522,283.921,286.733,290.951,292.965,296.66,301.239,305.638,310.217,314.786,319.004,321.018,324.533,328.229,332.447,337.026,341.424,344.236,346.345,350.924,354.44,356.454,359.266,363.845,368.243,371.055,373.069,376.584,381.163,385.733,390.302,394.52,398.035,400.847,402.861,406.376,410.955,413.596,418.346,422.042,424.151,428.369,432.948,435.76,437.774,444.11,448.509,451.321,455.539,458.351,460.365,463.88,468.459,473.028,477.598,479.707,483.573,485.587,492.095,494.204,496.313,498.422,500.436,505.005,509.223,511.237,515.636,519.512,523.91,526.019,528.128,532.527,537.096,539.205,543.423" y="439.976" svg_rhmargin="545.703" style="fill:#171615;font-family:IMMFNN+FrutigerLTPro-Condensed;font-size:9.5px;font-style:NORMAL;font-weight:normal;">Increases in hydropower are being planned based on climate change scenarios that suggest sufficient water supply will be available </text>
  <text x="74.693,77.334,83.148,87.546,92.648,94.576,97.018,101.578,106.138,110.698,115.258,117.899,119.827,122.269,125.964,130.543,133.355,137.573,141.088,143.9,146.342,150.037,154.616,158.663,162.881,165.693,168.135,170.244,173.759,176.2,180.418,184.465,189.035,193.253,196.948,199.76,203.978,208.548,210.989,213.801,218.38,220.822,223.634,227.852,234.711,239.109,241.218,245.797,248.239,251.754,256.333,258.974,263.724,267.419,269.528,273.746,278.325,281.137,283.579,286.391,290.97,293.411,300.27,304.669,306.778,311.357,314.169,318.567,320.676,325.255,327.697,331.392,335.971,338.783,343.353,347.571,352.15,356.368,361.118,363.93,367.093,369.022,370.944,374.81,379.389,383.607,386.049,390.618,392.727,397.297,401.866,406.084,409.599,412.411,414.853,418.548,423.127,427.526,429.635,431.744,435.962,440.541,445.11,449.328,451.77,453.879,457.394,459.835,462.647,467.226,469.668,473.886,475.995,480.213,483.908,486.72,489.532,491.641,494.282,498.149,500.59,505.16,509.739,512.551,517.13,519.571,522.212,525.024,529.242,531.351,535.921,540.5,543.312" y="451.974" svg_rhmargin="545.592" style="fill:#171615;font-family:IMMFNN+FrutigerLTPro-Condensed;font-size:9.5px;font-style:NORMAL;font-weight:normal;">(NEC, 2011). Forest cover is expected to remain sufficient to maintain co-benefits. The biggest challenge is to electrify both freight </text>
  <text x="74.693,79.091,83.67,88.24,90.591,95.161,99.559,103.074,106.589,110.807,115.386,119.956,124.174,126.986,129.342,132.154,134.966,139.364,143.943,147.458,152.028,156.607,159.419,162.231,164.581,167.222,172.675,178.128,182.536,184.464,186.82,191.38,195.94,200.5,205.06,207.701,209.63,211.981,216.912,221.491,226.07,228.882,233.28,237.859,240.21,246.547,250.945,255.524,258.336,261.851,264.203,267.015,271.594,273.95,278.519,282.737,285.093,289.492,291.843,298.702,303.281,307.85,312.068,314.177,316.529,319.17,323.749,326.561,328.912,333.31,337.006,341.585,343.694,347.912,351.959,354.068,358.647,363.216,365.572,369.79,373.486,378.065,382.644,387.223,394.082,396.191,399.886,402.238,406.807,409.619,414.198,420.706,423.518,428.097,430.448,434.143,438.722,443.301,446.816,448.925,452.44,455.252,459.47,464.049,466.861,469.213,475.72,477.829,480.641,485.22,487.571,489.68,491.789,498.648,500.757,503.569,505.678,510.257,514.827,517.178,520.874,522.983,525.092,531.951,536.349,539.161,543.379" y="463.973" svg_rhmargin="545.659" style="fill:#171615;font-family:IMMFNN+FrutigerLTPro-Condensed;font-size:9.5px;font-style:NORMAL;font-weight:normal;">and passenger transport (ADB, 2013). Bhutan wants to be a model for achieving economic growth consistent with limiting climate </text>
  <text x="74.693,78.388,82.967,87.366,91.945,96.514,100.732,103.069,105.881,110.46,112.797,117.357,119.637,124.197,127.997,133.099,135.436,139.834,144.413,148.983,151.32,153.429,160.288,164.857,167.669,172.248,176.295,178.404,182.983,187.553,189.89,191.999,194.811,198.326,200.663,206.477,212.291,217.744,220.043,222.38,225.021,232.412,234.521,238.216,242.795,247.194,251.412,253.521,258.1,264.436,268.835,271.172,275.39,278.202,280.539,284.937,286.524,288.804,290.732,293.069,297.629,302.189,306.749,311.309,313.95,316.287,319.099,323.678,326.49,331.069,335.648,340.218,344.797,347.134,350.649,354.515,359.094,361.906,366.485,370.703,374.218,376.327,380.023,382.132,386.711,391.28,393.617,398.016,400.125,402.234,404.571,407.383,411.962,414.774,418.992,423.21,425.547,430.117,434.696,439.094,441.203,444.718,447.055,451.454,456.033,460.602,462.939,465.048,471.907,476.477,479.289,483.868,487.915,490.024,494.603,499.172,501.509,503.618,506.43,509.945,512.282,516.681,521.25,525.649,530.218,533.03,535.139,539.186,543.404" y="475.971" svg_rhmargin="545.684" style="fill:#171615;font-family:IMMFNN+FrutigerLTPro-Condensed;font-size:9.5px;font-style:NORMAL;font-weight:normal;">change to 1.5°C and improving its GNHI (Michaelowa et al., 2018) through synthesizing all three goals and improving its adaptive </text>
  <text x="74.693,78.388,82.787,87.356,91.755,95.45,97.559,100.371,104.238" y="487.97" svg_rhmargin="106.518" style="fill:#171615;font-family:IMMFNN+FrutigerLTPro-Condensed;font-size:9.5px;font-style:NORMAL;font-weight:normal;">capacity.</text>
  <text x="56.693,62.813,65.813,71.933,75.05300000000001,92.693,99.461,105.569,111.893,120.665,123.665,129.545,135.869,142.193,148.073,151.073,158.729,164.609,170.933,175.697,178.697,184.577,190.685,197.009,200.009,206.333,212.213,217.649,220.649,227.861,233.969,238.961,244.841,248.945,253.049,258.929,261.929,268.037,272.141,275.141,281.021" y="560.0" svg_rhmargin="285.905" style="fill:#192a53;font-family:IMMFNN+FrutigerLTPro-BoldCn;font-size:12.0px;font-style:NORMAL;font-weight:bold;">4.6 Knowledge Gaps and Key Uncertainties</text>
  <text x="56.693,60.464,64.948,69.071,71.351,75.826,77.84,82.324,86.798,91.102,93.116,95.396,98.113,102.236,105.656,110.13,114.614,119.098,122.518,126.641,128.921,131.638,136.122,138.402,140.416,142.43,149.194,151.208,153.925,155.939,160.423,164.898,167.178,173.419,177.723,180.44,187.204,189.218,193.702,198.176,200.456,203.173,207.657,209.937,214.402,216.587,221.052,224.757,229.764,232.044,234.058,237.478,239.758,244.061,246.341,250.825,254.948,261.361,263.641,267.764,272.248,276.732,283.144,285.158,289.281,293.756,298.23,302.448" y="584.0" svg_rhmargin="304.728" style="fill:#171615;font-family:IMMFNN+FrutigerLTPro-Condensed;font-size:9.5px;font-style:NORMAL;font-weight:normal;">The global response to limiting warming to 1.5°C is a new knowledge </text>
  <text x="56.693,60.996,63.713,67.836,72.14,73.973,76.253,78.647,85.06,89.544,91.558,95.158,99.642,101.922,104.316,108.8,113.104,116.524,118.804,121.198,125.321,132.085,136.208,138.925,143.399,147.522,151.997,154.27700000000002,156.671,160.974,163.52,166.237,170.36,173.077,175.357,177.751,180.468,184.952,189.075,191.355,193.749,197.701,202.005,204.722,206.736,210.156,212.436,214.306,219.664,224.139,226.856,230.979,235.102,241.866,245.989,250.473,253.19,255.023,257.303,259.173,262.944,267.428,269.442,272.862,275.142,277.536,280.957,285.079,288.68,291.397,293.411,297.895,302.474" y="595.999" svg_rhmargin="304.754" style="fill:#171615;font-family:IMMFNN+FrutigerLTPro-Condensed;font-size:9.5px;font-style:NORMAL;font-weight:normal;">area, which has emerged after the Paris Agreement. This section </text>
  <text x="56.693,61.167,63.884,68.007,71.427,75.55,80.034,82.751,86.171,88.45100000000001,89.439,93.743,96.023,97.011,101.495,105.979,112.743,117.217,121.34,124.057,126.337,127.325,131.809,134.355,136.635,137.623,141.746,146.23,150.714,157.127,159.141,163.264,167.738,172.213,176.336,178.616,179.604,184.078,188.382,192.856,196.276,198.556,199.544,202.261,206.745,211.049,213.766,216.046,217.034,221.518,225.821,229.773,233.896,236.176,237.164,241.287,248.051,252.174,254.891,259.366,263.489,267.963,270.243,271.231,273.777,276.494,280.978,287.742,290.022,291.01,293.727,298.211,302.428" y="607.9970000000001" svg_rhmargin="304.708" style="fill:#171615;font-family:IMMFNN+FrutigerLTPro-Condensed;font-size:9.5px;font-style:NORMAL;font-weight:normal;">presents a number of knowledge gaps that have emerged from the </text>
  <text x="56.693,60.996,64.416,67.836,71.959,75.379,78.799,85.563,89.686,94.17,96.887,99.167,101.362,105.846,108.392,110.672,112.866,119.63,121.644,124.361,126.375,130.85,135.153,137.87,139.884,144.368,148.852,150.686,152.966,155.16,159.464,163.938,168.242,172.716,175.433,179.737,182.454,184.468,188.952,193.436,195.716,197.91,202.214,206.698,211.172,213.452,215.647,219.247,223.551,226.268,230.742,235.226,239.71,241.99,244.185,248.659,250.673,255.157,259.109,261.123,265.598,269.721,272.001,274.195,276.912,281.035,287.799,292.283,296.064,300.368,302.476" y="619.996" svg_rhmargin="304.756" style="fill:#171615;font-family:IMMFNN+FrutigerLTPro-Condensed;font-size:9.5px;font-style:NORMAL;font-weight:normal;">assessment of mitigation, adaptation and carbon dioxide removal </text>
  <text x="56.693,59.239,64.245,69.603,74.439,76.985,79.265,82.276,86.76,91.235,93.952,95.966,100.45,104.934,108.354,110.634,113.645,117.949,122.433,126.907,129.18699999999998,132.199,135.619,140.103,142.117,146.42,149.137,151.417,154.429,157.146,161.449,165.924,167.938,172.241,174.958,176.972,181.456,185.94,188.22,191.232,197.996,202.48,206.954,208.968,213.623,217.224,221.527,224.244,226.258,230.742,235.226,237.506,240.518,243.064,247.187,252.022,259.318,261.864,264.14399999999995,267.156,273.92,278.043,282.346,285.766,290.25,292.967,297.09,300.51,302.439" y="631.994" svg_rhmargin="304.719" style="fill:#171615;font-family:IMMFNN+FrutigerLTPro-Condensed;font-size:9.5px;font-style:NORMAL;font-weight:normal;">(CDR) options and solar radiation modification (SRM) measures; </text>
  <text x="56.693,60.816,65.3,69.603,74.078,76.092,78.106,82.59,87.064,88.831,92.432,96.916,101.4,105.874,107.888,110.605,112.619,117.103,121.587,125.007,126.841,128.608,132.911,137.395,141.87,143.637,147.057,150.828,155.312,159.435,162.152,166.627,168.641,172.764,176.184,177.951,182.254,186.738,191.213,192.98,195.697,198.414,202.717,207.192,211.315,214.032,218.516,221.062,223.608,226.676,228.51,230.277,232.481,234.495,236.509,240.993,244.413,247.13,249.847,254.15,256.867,258.881,262.833,266.956,268.723,273.198,277.682,281.805,285.225,287.942,289.956,294.44,298.924,302.439" y="643.9929999999999" svg_rhmargin="304.719" style="fill:#171615;font-family:IMMFNN+FrutigerLTPro-Condensed;font-size:9.5px;font-style:NORMAL;font-weight:normal;">enabling conditions; and synergies and trade-offs. Illustrative questions </text>
  <text x="56.693,59.41,63.894,68.197,70.914,73.194,74.049,78.172,84.936,89.059,91.776,96.251,100.374,102.654,103.509,106.929,110.7,115.184,117.901,122.385,126.508,129.928,131.942,135.543,137.557,142.041,146.515,148.795,149.65,152.367,156.851,160.974,163.254,164.109,170.873,175.357,178.074,182.197,184.477,185.332,188.933,193.417,200.181,204.655,207.372,211.495,215.979,220.102,224.586,228.006,230.02,233.972,238.095,240.705,244.115,248.418,252.893,254.907,259.03,261.30999999999995,262.165,266.63,268.815,273.28,277.745,280.025,280.88,285.354,289.477,291.491,295.975,302.483" y="655.991" svg_rhmargin="304.763" style="fill:#171615;font-family:IMMFNN+FrutigerLTPro-Condensed;font-size:9.5px;font-style:NORMAL;font-weight:normal;">that emerge synthesizing the more comprehensive Table 4.13 below </text>
  <text x="56.693,58.707,63.191,66.791,68.805,73.289,77.764,81.887,83.72,86.0,88.309,92.793,97.277,103.689,105.969,108.278,115.042,119.526,123.126,127.61,129.89,132.199,135.799,140.103,144.587,146.867,149.175,153.65,157.773,160.053,162.361,165.078,169.201,173.505,175.519,177.533,180.953,183.67,185.684,189.284,193.588,195.602,197.616,201.387,203.667,205.976,210.099,214.051,218.525,222.648,226.249,228.966,233.089,237.563,239.843,242.152,244.698,247.415,251.899,258.663,260.943,263.251,265.265,269.749,274.233,278.717,282.498,286.802,289.519,291.533,296.017,300.501,302.429" y="667.99" svg_rhmargin="304.709" style="fill:#171615;font-family:IMMFNN+FrutigerLTPro-Condensed;font-size:9.5px;font-style:NORMAL;font-weight:normal;">include: how much can be realistically expected from innovation, </text>
  <text x="56.693,61.167,65.29,69.774,74.078,78.03,80.044,84.528,89.012,91.729,94.009,94.949,99.253,103.737,108.211,110.491,111.432,114.852,118.623,122.043,124.76,128.883,135.647,137.661,141.262,143.542,144.482,148.957,153.441,155.455,157.469,160.186,162.2,165.8,170.104,172.118,174.398,175.338,179.642,184.126,188.6,190.88,191.821,195.944,199.544,204.028,208.512,212.996,219.76,221.774,225.375,227.655,228.595,232.196,236.68,240.983,245.467,249.942,254.065,256.34499999999997,257.285,259.299,263.783,266.063,267.004,269.018,275.782,280.256,282.973,287.457,291.409,293.423,297.907,302.477" y="679.988" svg_rhmargin="304.757" style="fill:#171615;font-family:IMMFNN+FrutigerLTPro-Condensed;font-size:9.5px;font-style:NORMAL;font-weight:normal;">behaviour and systemic political and economic change in improving </text>
  <text x="56.693,59.41,63.533,66.953,68.967,70.981,72.995,77.118,81.602,85.202,88.974,90.807,93.087,97.163,101.286,105.77,110.254,114.557,119.041,122.642,124.656,129.14,133.614,135.894,139.97,144.273,148.748,153.051,157.526,160.243,164.546,167.263,169.277,173.761,178.245,180.525,184.601,188.904,193.388,197.863,200.143,204.218,206.935,211.058,215.533,220.017,223.617,225.631,230.115,234.59,236.87,240.945,246.664,252.022,257.741,260.02099999999996,264.097,268.22,274.984,276.998,280.418,283.838,285.852,290.336,294.82,298.24,302.458" y="691.987" svg_rhmargin="304.738" style="fill:#171615;font-family:IMMFNN+FrutigerLTPro-Condensed;font-size:9.5px;font-style:NORMAL;font-weight:normal;">resilience, enhancing adaptation and reducing GHG emissions? </text>
  <text x="56.693,62.051,66.535,72.947,75.227,76.852,80.452,84.756,89.24,91.52,93.144,95.861,100.165,102.882,107.005,110.425,112.705,114.329,118.813,121.359,123.639,125.264,128.864,133.348,137.652,142.136,146.61,150.733,154.153,156.433,158.058,162.532,166.655,168.935,170.56,174.863,178.464,182.064,186.187,188.201,192.324,195.041,199.345,202.062,206.185,210.659,212.939,214.564,218.867,223.351,227.826,230.106,231.73,235.15,238.751,243.054,245.068,249.191,253.666,255.946,257.57,262.054,266.529,270.652,272.93199999999996,274.036,281.503,285.987,290.29,293.007,295.287,296.912,298.926,302.44" y="703.985" svg_rhmargin="304.72" style="fill:#171615;font-family:IMMFNN+FrutigerLTPro-Condensed;font-size:9.5px;font-style:NORMAL;font-weight:normal;">How can rates of changes be accelerated and scaled up? What is </text>
  <text svg_rhmargin="304.709" x="56.693,59.41,63.894,68.017,70.297,71.959,76.443,80.927,83.644,87.245,91.729,98.493,102.616,104.896,106.558,111.042,113.588,115.868,117.531,120.248,124.371,128.674,130.688,132.702,136.122,138.839,140.853,144.454,146.734,148.396,152.7,156.12,159.54,163.663,167.083,170.503,177.267,181.39,185.874,188.591,192.011,194.291,195.953,200.437,202.983,205.263,206.926,213.69,215.704,218.421,220.435,224.909,229.213,231.93,233.944,238.428,242.912,245.192,246.854,251.158,255.642,260.116,262.39599999999996,264.059,268.362,272.837,277.14,281.615,284.332,288.635,291.352,293.366,297.85,302.429,304.70899999999995" y="559.984" style="fill:#171615;font-family:IMMFNN+FrutigerLTPro-Condensed;font-size:9.5px;font-style:NORMAL;font-weight:normal;">the outcome of realistic assessments of mitigation and adaptation </text>
  <text x="315.216,317.23,321.534,326.018,330.492,332.772,334.843,337.56,340.277,344.581,349.065,352.485,354.499,357.216,359.23,363.714,368.198,371.618,373.89799999999997,375.969,378.686,383.17,387.474,390.191,392.47099999999995,394.542,398.845,401.562,405.685,407.965,410.036,413.637,418.121,424.885,429.359,431.373,433.387,437.691,442.175,444.892,447.17199999999997,449.243,455.655,457.669,460.386,464.87,467.15,469.221,472.641,477.125,480.545,483.262,487.566,489.58,494.064,498.367,502.842,504.856,508.979,511.25899999999996,513.33,517.804,521.927,525.879,530.002,532.016,536.5,540.975,547.739,551.862,556.346,559.063,560.991" y="559.984" svg_rhmargin="563.271" style="fill:#171615;font-family:IMMFNN+FrutigerLTPro-Condensed;font-size:9.5px;font-style:NORMAL;font-weight:normal;">land transitions that are compliant with sustainable development, </text>
  <text x="315.216,319.691,324.175,328.127,332.25,334.967,337.684,341.455,343.73499999999996,345.797,349.92,352.637,356.94,361.415,363.429,367.029,371.333,374.05,376.064,380.548,385.032,387.31199999999995,389.373,393.677,398.161,402.635,404.91499999999996,406.977,411.28,415.755,420.229,422.946,427.069,430.489,433.909,435.923,440.407,444.882,447.162,449.223,451.237,455.721,459.844,464.319,468.803,473.106,475.12,477.134,479.851,483.623,487.746,490.02599999999995,491.565,499.032,503.516,507.819,510.536,512.816,514.878,519.181,521.898,526.021,528.3009999999999,530.363,532.377,534.391,536.937,541.06,543.777,547.377,551.149,554.749,556.763,560.981" y="571.983" svg_rhmargin="563.261" style="fill:#171615;font-family:IMMFNN+FrutigerLTPro-Condensed;font-size:9.5px;font-style:NORMAL;font-weight:normal;">poverty eradication and addressing inequality? What are life-cycle </text>
  <text x="315.216,319.339,326.103,328.117,331.537,334.957,336.971,341.455,345.939,349.359,351.535,355.838,360.322,364.797,366.972,371.447,374.164,378.648,382.068,386.542,390.665,394.266,396.983,400.403,402.578,407.063,409.608,411.784,415.907,420.21,422.927,424.941,428.713,431.43,434.85,437.567,441.871,446.345,450.468,452.644,457.65,463.008,467.844,470.019,474.503,478.978,481.695,483.709,488.193,492.677,496.097,500.22,502.395,507.753,512.237,518.65,520.825,524.426,528.729,533.213,535.389,538.989,541.003,543.017,549.781,554.085,556.802,561.019" y="583.981" svg_rhmargin="563.299" style="fill:#171615;font-family:IMMFNN+FrutigerLTPro-Condensed;font-size:9.5px;font-style:NORMAL;font-weight:normal;">emissions and prospects of early-stage CDR options? How can climate </text>
  <text x="315.216,319.52,324.004,328.478,330.758,332.383,335.803,340.287,343.707,346.424,350.727,352.741,357.225,361.529,366.003,368.017,372.14,374.41999999999996,376.045,380.519,384.642,388.594,392.717,394.731,399.215,403.69,410.454,414.577,419.061,421.778,424.058,425.682,430.157,434.641,436.655,438.669,442.269,444.283,448.406,451.826,454.106,455.731,459.331,463.815,468.299,472.251,476.374,479.091,483.566,487.337,489.171,491.45099999999996,493.075,497.379,501.863,506.337,508.61699999999996,510.242,514.726,519.21,525.622,527.9019999999999,529.527,533.127,537.431,541.915,544.1949999999999,545.819,548.536,553.02,557.143,561.01" y="595.98" svg_rhmargin="563.29" style="fill:#171615;font-family:IMMFNN+FrutigerLTPro-Condensed;font-size:9.5px;font-style:NORMAL;font-weight:normal;">and sustainable development policies converge, and how can they </text>
  <text x="315.216,319.691,323.814,326.094,327.832,332.316,335.033,339.508,343.811,348.295,350.309,353.91,358.033,362.507,364.787,366.526,372.938,374.952,377.669,382.153,384.167,388.651,390.931,392.67,396.973,399.253,400.992,405.466,407.48,411.964,416.439,420.742,422.756,425.03599999999994,426.775,431.249,435.733,439.685,443.808,446.525,451.009,455.313,459.797,463.397,467.52,469.79999999999995,471.539,474.085,476.802,481.105,487.869,491.992,498.405,502.889,505.606,509.729,512.009,513.747,518.051,522.535,527.009,529.289,531.028,535.683,540.167,544.47,548.954,552.555,554.569,558.872,560.981" y="607.9780000000001" svg_rhmargin="563.261" style="fill:#171615;font-family:IMMFNN+FrutigerLTPro-Condensed;font-size:9.5px;font-style:NORMAL;font-weight:normal;">be organized within a global governance framework and financial </text>
  <text x="315.216,318.636,322.408,325.828,328.545,332.668,339.432,341.265,343.241,347.716,352.019,355.439,359.562,364.037,366.013,370.497,374.981,376.957,381.431,384.148,386.162,390.646,394.247,396.261,400.735,402.749,406.872,410.292,412.268,416.753,419.298,421.275,423.289,427.773,431.193,433.91,435.924,439.524,443.647,445.623,449.927,454.411,458.885,460.861,464.984,467.701,472.185,474.199,477.8,481.22,483.196,485.742,490.748,495.584,500.942,505.777,508.494,513.33,518.336,520.882,522.716,524.692,527.409,531.532,535.132,537.146,541.621,544.338,548.822,552.422,554.436,557.153,561.019" y="619.977" svg_rhmargin="563.299" style="fill:#171615;font-family:IMMFNN+FrutigerLTPro-Condensed;font-size:9.5px;font-style:NORMAL;font-weight:normal;">system, based on principles of justice and ethics (CBDR-RC), reciprocity </text>
  <text x="315.216,319.52,324.004,328.478,330.758,332.316,336.791,341.094,343.811,346.528,351.012,355.135,357.852,361.272,365.756,367.77,372.245,376.368,378.64799999999997,379.685,383.105,387.589,389.86899999999997,391.427,397.84,402.324,406.627,409.344,411.62399999999997,413.182,417.305,421.257,423.974,428.097,432.581,435.298,437.578,439.136,445.549,450.033,454.517,456.531,461.005,463.28499999999997,464.843,466.857,468.871,475.635,477.649,480.366,482.38,486.864,491.339,493.61899999999997,495.177,501.418,505.722,508.439,515.203,517.217,521.701,526.175,528.4549999999999,530.013,532.73,537.214,539.494,541.052,545.518,547.703,552.168,555.873,560.974" y="631.975" svg_rhmargin="563.254" style="fill:#171615;font-family:IMMFNN+FrutigerLTPro-Condensed;font-size:9.5px;font-style:NORMAL;font-weight:normal;">and partnership? To what extent would limiting warming to 1.5°C </text>
  <text x="315.216,317.933,322.056,326.531,331.015,333.029,335.746,339.869,342.149,342.933,347.236,349.51599999999996,350.3,354.784,359.087,361.804,368.568,373.052,377.536,379.55,383.151,387.454,390.171,392.185,396.669,401.153,403.433,404.217,408.701,411.247,413.527,414.311,421.075,425.378,428.979,431.696,436.18,438.897,443.552,448.036,452.34,456.824,460.424,462.438,466.742,468.756,471.03599999999994,471.824,476.128,480.612,485.086,487.366,488.155,492.81,496.23,499.83,504.134,506.148,508.428,509.211,513.686,518.17,520.184,522.198,525.798,527.812,531.935,535.004,536.837,539.117,539.901,546.313,550.797,552.811,556.412,560.991" y="643.9739999999999" svg_rhmargin="563.271" style="fill:#171615;font-family:IMMFNN+FrutigerLTPro-Condensed;font-size:9.5px;font-style:NORMAL;font-weight:normal;">require a harmonization of macro-financial and fiscal policies, which </text>
  <text x="315.216,318.817,323.301,327.785,329.799,334.273,336.553,337.147,339.161,343.645,347.246,349.26,353.744,358.218,362.341,364.621,365.215,368.815,372.938,377.422,380.139,382.856,387.16,389.174,391.45399999999995,392.048,396.522,400.826,405.31,409.433,412.853,416.976,419.256,419.848,425.206,429.69,436.103,438.383,438.977,442.577,446.881,451.365,453.645,454.238,458.712,460.726,463.272,465.818,469.941,472.658,476.781,481.265,483.982,486.262,486.856,491.159,494.76,497.477,501.961,504.678,508.098,510.378,510.972,515.275,519.759,524.234,526.514,527.106,531.581,534.298,538.782,542.382,546.505,549.925,553.345,557.468,560.983" y="655.972" svg_rhmargin="563.263" style="fill:#171615;font-family:IMMFNN+FrutigerLTPro-Condensed;font-size:9.5px;font-style:NORMAL;font-weight:normal;">could include central banks? How can different actors and processes </text>
  <text x="315.216,317.23,321.714,323.99399999999997,325.505,329.105,331.119,333.133,339.897,344.201,346.918,351.041,353.32099999999997,354.831,359.306,363.79,367.742,371.865,374.582,379.066,383.369,387.853,391.454,395.577,397.85699999999997,399.367,402.084,406.207,408.221,412.705,415.251,419.735,422.452,426.053,430.176,432.45599999999996,433.966,438.089,442.393,445.993,450.477,452.75699999999995,454.268,458.752,461.469,465.953,470.076,471.928,473.762,476.042,477.552,481.856,486.34,490.814,493.094,494.605,499.089,503.212,507.686,512.161,516.284,518.564,520.074,524.378,528.852,533.156,535.17,539.654,543.074,545.791,548.071,549.581,552.298,556.782,561.0" y="667.971" svg_rhmargin="563.28" style="fill:#171615;font-family:IMMFNN+FrutigerLTPro-Condensed;font-size:9.5px;font-style:NORMAL;font-weight:normal;">in climate governance reinforce each other, and hedge against the </text>
  <text x="315.216,317.762,320.479,324.783,329.257,336.021,340.144,344.628,347.345,351.649,354.366,356.38,360.864,365.348,367.533,372.017,374.563,376.748,378.762,383.246,385.26,387.977,389.991,394.294,397.011,399.025,402.977,407.1,410.52" y="679.969" svg_rhmargin="414.738" style="fill:#171615;font-family:IMMFNN+FrutigerLTPro-Condensed;font-size:9.5px;font-style:NORMAL;font-weight:normal;">fragmentation of initiatives?</text>
  <text x="315.216,318.988,323.472,327.595,331.015,335.138,336.914,341.037,345.521,350.005,356.418,358.432,362.555,367.029,371.504,375.627,377.403,381.878,386.181,390.656,394.076,395.852,400.156,402.873,406.996,408.772,413.256,415.27,419.745,424.229,426.243,428.257,432.731,437.215,439.932,444.055,448.53,450.306,452.32,456.804,458.057,461.468,465.771,470.246,472.26,476.383,478.159,482.624,484.809,489.274,493.739,495.516,499.819,501.833,506.317,510.801,515.276,517.052,523.465,525.479,528.196,532.68,534.456,538.76,540.536,544.137,546.854,551.338,554.758,558.178" y="703.966" svg_rhmargin="560.99" style="fill:#171615;font-family:IMMFNN+FrutigerLTPro-Condensed;font-size:9.5px;font-style:NORMAL;font-weight:normal;">These knowledge gaps are highlighted in Table 4.13 along with a cross-</text>
  <text x="315.216,317.933,322.056,324.602,328.725,331.442,335.565,340.049,343.65,347.773,349.958,352.675,357.159,359.344,362.061,366.545,370.668,372.853,375.57,379.693,383.113,387.587,391.71,395.311,398.028,400.042,403.994,408.117,410.302,413.722,417.845,421.445,424.162,426.176,430.66,435.144,438.564,440.749,442.763,447.247,449.432,452.149,456.633,460.756,462.941,464.955,469.259,472.679,475.396,477.581,481.181,485.665,487.679,492.163,498.927,503.411" y="715.965" svg_rhmargin="505.691" style="fill:#171615;font-family:IMMFNN+FrutigerLTPro-Condensed;font-size:9.5px;font-style:NORMAL;font-weight:normal;">reference to the respective sections in the last column.</text>
 </g>
</svg>
