<?xml version="1.0" encoding="UTF-8"?>
<svg height="787.731" width="586.668722" xmlns="http://www.w3.org/2000/svg">
 <g style="fill:none;">
  <path d=" M 66.21700286865234 748.281005859375 C 64.47500610351562 749.72998046875 61.96600341796875 749.85400390625 59.51100158691406 748.8670043945312 C 59.56700134277344 748.833984375 59.893001556396484 748.6510009765625 59.94900131225586 748.6160278320312 C 62.41800308227539 749.4450073242188 64.60400390625 749.2650146484375 66.07300567626953 747.666015625 C 68.31900024414062 745.2169799804688 67.19900512695312 740.9500122070312 63.81700134277344 737.8480224609375 C 61.20100402832031 735.4500122070312 58.31500244140625 735.8740234375 55.90500259399414 736.7410278320312 C 55.90500259399414 736.7410278320312 57.134002685546875 732.6160278320312 61.2130012512207 731.8450317382812 C 63.45900344848633 734.1699829101562 63.45900344848633 734.1699829101562 65.4330062866211 736.5419921875 C 68.79700469970703 740.5880126953125 69.14900207519531 745.843017578125 66.21700286865234 748.281005859375" style="fill:none;stroke:#000000;stroke-width:1.0;"/>
  <path d=" M 66.21700286865234 748.281005859375 C 64.47500610351562 749.72998046875 61.96600341796875 749.85400390625 59.51100158691406 748.8670043945312 C 59.56700134277344 748.833984375 59.893001556396484 748.6510009765625 59.94900131225586 748.6160278320312 C 62.41800308227539 749.4450073242188 64.60400390625 749.2650146484375 66.07300567626953 747.666015625 C 68.31900024414062 745.2169799804688 67.19900512695312 740.9500122070312 63.81700134277344 737.8480224609375 C 61.20100402832031 735.4500122070312 58.31500244140625 735.8740234375 55.90500259399414 736.7410278320312 C 55.90500259399414 736.7410278320312 57.134002685546875 732.6160278320312 61.2130012512207 731.8450317382812 C 63.45900344848633 734.1699829101562 63.45900344848633 734.1699829101562 65.4330062866211 736.5419921875 C 68.79700469970703 740.5880126953125 69.14900207519531 745.843017578125 66.21700286865234 748.281005859375" style="fill:none;stroke:#000000;stroke-width:1.0;"/>
  <path d=" M 48.805999755859375 748.2100219726562 C 47.35599899291992 746.468017578125 47.233001708984375 743.9590454101562 48.218997955322266 741.5040283203125 C 48.25299835205078 741.5599975585938 48.43600082397461 741.8860473632812 48.470001220703125 741.9410400390625 C 47.64099884033203 744.4100341796875 47.81999969482422 746.5980224609375 49.42100143432617 748.0650024414062 C 51.869998931884766 750.3130493164062 56.13600158691406 749.1910400390625 59.237998962402344 745.8099975585938 C 61.63600158691406 743.1929931640625 61.211997985839844 740.3080444335938 60.34400177001953 737.8970336914062 C 60.34400177001953 737.8970336914062 64.47000122070312 739.1270141601562 65.23899841308594 743.2050170898438 C 62.91600036621094 745.4510498046875 62.91600036621094 745.4510498046875 60.54499816894531 747.426025390625 C 56.49800109863281 750.7880249023438 51.24300003051758 751.1420288085938 48.805999755859375 748.2100219726562" style="fill:none;stroke:#000000;stroke-width:1.0;"/>
  <path d=" M 48.805999755859375 748.2100219726562 C 47.35599899291992 746.468017578125 47.233001708984375 743.9590454101562 48.218997955322266 741.5040283203125 C 48.25299835205078 741.5599975585938 48.43600082397461 741.8860473632812 48.470001220703125 741.9410400390625 C 47.64099884033203 744.4100341796875 47.81999969482422 746.5980224609375 49.42100143432617 748.0650024414062 C 51.869998931884766 750.3130493164062 56.13600158691406 749.1910400390625 59.237998962402344 745.8099975585938 C 61.63600158691406 743.1929931640625 61.211997985839844 740.3080444335938 60.34400177001953 737.8970336914062 C 60.34400177001953 737.8970336914062 64.47000122070312 739.1270141601562 65.23899841308594 743.2050170898438 C 62.91600036621094 745.4510498046875 62.91600036621094 745.4510498046875 60.54499816894531 747.426025390625 C 56.49800109863281 750.7880249023438 51.24300003051758 751.1420288085938 48.805999755859375 748.2100219726562" style="fill:none;stroke:#000000;stroke-width:1.0;"/>
  <path d=" M 48.875999450683594 730.7979736328125 C 50.61800003051758 729.3499755859375 53.12699890136719 729.2269897460938 55.58300018310547 730.2119750976562 C 55.527000427246094 730.2449951171875 55.20000076293945 730.427978515625 55.14500045776367 730.4629516601562 C 52.67499923706055 729.6339721679688 50.48899841308594 729.81298828125 49.02000045776367 731.4129638671875 C 46.77399826049805 733.8609619140625 47.89400100708008 738.1289672851562 51.2760009765625 741.2319946289062 C 53.89299774169922 743.6289672851562 56.77799987792969 743.2049560546875 59.18899917602539 742.3369750976562 C 59.18899917602539 742.3369750976562 57.959999084472656 746.4619750976562 53.880001068115234 747.2329711914062 C 51.63399887084961 744.907958984375 51.63399887084961 744.907958984375 49.65999984741211 742.5369873046875 C 46.297000885009766 738.489990234375 45.94499969482422 733.2359619140625 48.875999450683594 730.7979736328125" style="fill:none;stroke:#000000;stroke-width:1.0;"/>
  <path d=" M 48.875999450683594 730.7979736328125 C 50.61800003051758 729.3499755859375 53.12699890136719 729.2269897460938 55.58300018310547 730.2119750976562 C 55.527000427246094 730.2449951171875 55.20000076293945 730.427978515625 55.14500045776367 730.4629516601562 C 52.67499923706055 729.6339721679688 50.48899841308594 729.81298828125 49.02000045776367 731.4129638671875 C 46.77399826049805 733.8609619140625 47.89400100708008 738.1289672851562 51.2760009765625 741.2319946289062 C 53.89299774169922 743.6289672851562 56.77799987792969 743.2049560546875 59.18899917602539 742.3369750976562 C 59.18899917602539 742.3369750976562 57.959999084472656 746.4619750976562 53.880001068115234 747.2329711914062 C 51.63399887084961 744.907958984375 51.63399887084961 744.907958984375 49.65999984741211 742.5369873046875 C 46.297000885009766 738.489990234375 45.94499969482422 733.2359619140625 48.875999450683594 730.7979736328125" style="fill:none;stroke:#000000;stroke-width:1.0;"/>
  <path d=" M 66.28800201416016 730.8690185546875 C 67.73699951171875 732.6110229492188 67.86100006103516 735.1190185546875 66.8740005493164 737.5740356445312 C 66.84100341796875 737.5180053710938 66.65800476074219 737.1929931640625 66.62300109863281 737.1370239257812 C 67.4520034790039 734.666015625 67.27300262451172 732.4800415039062 65.67200469970703 731.0130004882812 C 63.224002838134766 728.7650146484375 58.95800018310547 729.8870239257812 55.855003356933594 733.2680053710938 C 53.457000732421875 735.885009765625 53.881004333496094 738.76904296875 54.749000549316406 741.1820068359375 C 54.749000549316406 741.1820068359375 50.624000549316406 739.9520263671875 49.85400390625 735.873046875 C 52.178001403808594 733.6270141601562 52.178001403808594 733.6270141601562 54.54900360107422 731.6539916992188 C 58.595001220703125 728.2890014648438 63.85000228881836 727.93603515625 66.28800201416016 730.8690185546875" style="fill:none;stroke:#000000;stroke-width:1.0;"/>
  <path d=" M 66.28800201416016 730.8690185546875 C 67.73699951171875 732.6110229492188 67.86100006103516 735.1190185546875 66.8740005493164 737.5740356445312 C 66.84100341796875 737.5180053710938 66.65800476074219 737.1929931640625 66.62300109863281 737.1370239257812 C 67.4520034790039 734.666015625 67.27300262451172 732.4800415039062 65.67200469970703 731.0130004882812 C 63.224002838134766 728.7650146484375 58.95800018310547 729.8870239257812 55.855003356933594 733.2680053710938 C 53.457000732421875 735.885009765625 53.881004333496094 738.76904296875 54.749000549316406 741.1820068359375 C 54.749000549316406 741.1820068359375 50.624000549316406 739.9520263671875 49.85400390625 735.873046875 C 52.178001403808594 733.6270141601562 52.178001403808594 733.6270141601562 54.54900360107422 731.6539916992188 C 58.595001220703125 728.2890014648438 63.85000228881836 727.93603515625 66.28800201416016 730.8690185546875" style="fill:none;stroke:#000000;stroke-width:1.0;"/>
  <path d=" M 95.24299621582031 737.2930297851562 L 99.70999908447266 737.2930297851562 L 99.70999908447266 732.9410400390625 C 99.2449951171875 732.7330322265625 98.78399658203125 732.5550537109375 97.4749984741211 732.5550537109375 C 93.40199279785156 732.5550537109375 90.6669921875 734.9840087890625 90.6669921875 739.5390014648438 C 90.6669921875 744.2110595703125 93.60499572753906 746.4170532226562 97.7959976196289 746.4170532226562 C 99.85999298095703 746.4170532226562 101.16899871826172 745.7940063476562 102.24699401855469 745.2880249023438 L 102.2959976196289 745.4710083007812 L 102.2959976196289 749.123046875 C 101.26899719238281 749.4690551757812 99.70799255371094 749.7770385742188 97.822998046875 749.7770385742188 C 91.33699798583984 749.7770385742188 86.9419937133789 745.7310180664062 86.91499328613281 739.3600463867188 C 86.91499328613281 736.3240356445312 87.90299987792969 733.676025390625 89.64799499511719 731.97900390625 C 91.51099395751953 730.1630249023438 94.04199981689453 729.301025390625 97.35899353027344 729.301025390625 C 99.947998046875 729.301025390625 102.39099884033203 729.9550170898438 103.64299774169922 730.4310302734375 L 103.64299774169922 741.0960083007812 L 95.24299621582031 741.0960083007812 L 95.24299621582031 737.2930297851562" style="fill:none;stroke:#000000;stroke-width:1.0;"/>
  <path d=" M 117.89099884033203 749.6699829101562 L 117.89099884033203 738.1799926757812 C 117.89099884033203 734.25 116.79899597167969 733.0549926757812 114.1760025024414 733.0549926757812 C 111.55500030517578 733.0549926757812 110.46199798583984 734.25 110.46199798583984 738.1799926757812 L 110.46199798583984 749.6699829101562 L 106.3689956665039 749.6699829101562 L 106.3689956665039 738.239990234375 C 106.3689956665039 732.1449584960938 109.02400207519531 729.4129638671875 114.05899810791016 729.3150024414062 L 114.05899810791016 729.3109741210938 C 114.0979995727539 729.3109741210938 114.13700103759766 729.31298828125 114.1760025024414 729.31298828125 C 114.21499633789062 729.31298828125 114.25399780273438 729.3109741210938 114.29499816894531 729.3109741210938 L 114.29399871826172 729.3150024414062 C 119.32799530029297 729.4129638671875 121.98300170898438 732.1449584960938 121.98300170898438 738.239990234375 L 121.98300170898438 749.6699829101562 L 117.89099884033203 749.6699829101562" style="fill:none;stroke:#000000;stroke-width:1.0;"/>
  <path d=" M 77.98899841308594 742.7360229492188 C 78.3219985961914 741.8400268554688 80.52400207519531 736.8780517578125 80.52400207519531 736.8780517578125 L 75.48899841308594 736.8780517578125 C 75.48899841308594 736.8780517578125 77.65599822998047 741.8400268554688 77.98899841308594 742.7360229492188 M 77.99299621582031 750.217041015625 L 67.95199584960938 729.4920043945312 L 72.38600158691406 729.4920043945312 L 74.125 733.6490478515625 L 81.87799835205078 733.6490478515625 L 83.61499786376953 729.4920043945312 L 88.04399871826172 729.4920043945312 L 77.99299621582031 750.217041015625" style="fill:none;stroke:#000000;stroke-width:1.0;"/>
  <path d=" M 123.6780014038086 728.3809814453125 L 123.6310043334961 729.1229858398438 C 123.62699890136719 729.2219848632812 123.62699890136719 729.3419799804688 123.62100219726562 729.4769897460938 L 123.60800170898438 729.4769897460938 C 123.57600402832031 729.364990234375 123.53400421142578 729.2169799804688 123.5 729.1009521484375 L 123.27400207519531 728.4010009765625 L 123.01399993896484 728.4010009765625 L 122.78500366210938 729.1189575195312 C 122.76200103759766 729.2119750976562 122.72599792480469 729.364990234375 122.697998046875 729.4769897460938 L 122.68399810791016 729.4769897460938 C 122.68399810791016 729.3619995117188 122.68000030517578 729.239990234375 122.67400360107422 729.1229858398438 L 122.62899780273438 728.3809814453125 L 122.38700103759766 728.3809814453125 L 122.4800033569336 729.6439819335938 L 122.85600280761719 729.6439819335938 L 123.07400512695312 729.0279541015625 C 123.10700225830078 728.928955078125 123.125 728.8359985351562 123.15800476074219 728.7049560546875 L 123.16200256347656 728.7049560546875 C 123.19499969482422 728.8189697265625 123.2229995727539 728.928955078125 123.25 729.0169677734375 L 123.46900177001953 729.6439819335938 L 123.83000183105469 729.6439819335938 L 123.9280014038086 728.3809814453125 L 123.6780014038086 728.3809814453125 Z M 122.31300354003906 729.6439819335938 L 122.31300354003906 729.4349975585938 L 121.90800476074219 729.4349975585938 L 121.90800476074219 728.3809814453125 L 121.65800476074219 728.3809814453125 L 121.65800476074219 729.4349975585938 L 121.25800323486328 729.4349975585938 L 121.25800323486328 729.6439819335938 L 122.31300354003906 729.6439819335938" style="fill:none;stroke:#000000;stroke-width:1.0;"/>
  <text svg_rhmargin="320.986" x="138.483,148.114,155.503,163.579,171.95,179.888,186.988,193.063,196.898,203.21,210.601,214.451,217.837,226.138,233.528,239.603,246.993,254.384,259.595,265.907,274.111,277.509,284.538,291.928,297.064,302.201,309.591,314.91,320.98600000000005" y="67.04600000000005" style="fill:#0a3a69;font-family:KAHOOD+MyriadPro-Bold;font-size:14.0px;font-style:NORMAL;font-weight:bold;">Geophysical Research Letters </text>
  <text x="469.345,474.475,479.605,481.675,486.805,491.935,497.065,502.195,505.625,510.755,515.885,521.015,526.145,532.605,537.325,542.455,547.585,552.715,557.845,562.975" y="67.04600000000005" svg_rhmargin="568.105" style="fill:#0a3a69;font-family:KAIKOL+MyriadPro-Regular;font-size:10.0px;font-style:NORMAL;font-weight:normal;">10.1002/2017GL076096</text>
  <text svg_rhmargin="475.555" x="172.872,176.323,180.208,183.715,187.698,191.583,195.09,197.304,201.252,202.70100000000002,204.339,207.4,208.84900000000002,210.496,215.018,216.467,218.123,220.111,223.702,227.293,230.884,234.475,236.463,237.912,239.568,243.78,246.097,251.935,255.778,258.55,262.533,266.418,269.925,272.214,273.852,276.988,278.631,281.767,283.405,285.619,288.751,292.608,294.26,297.634,299.951,301.589,305.432,309.317,310.976,314.35,317.122,318.769,322.14300000000003,323.791,326.563,330.406,334.263,336.477,339.564,343.071,344.73,348.573,350.61699999999996,352.271,356.133,360.018,363.105,366.612,369.069,371.386,374.76,376.398,380.283,382.658,385.95500000000004,387.608,389.246,393.131,394.781,397.917,399.569,401.207,407.045,410.419,412.687,416.194,417.844,420.976,424.861,428.235,432.12,436.033,439.54,441.18,445.168,447.382,451.225,452.926,456.433,459.655,461.968,463.606,467.449,471.334,474.106,475.555" y="103.23500000000001" style="fill:#000000;font-family:KAIKOL+MyriadPro-Regular;font-size:7.0px;font-style:NORMAL;font-weight:normal;">Shepherd, T. G. (2014). Atmospheric circulation as a source of uncertainty in climate change projections. </text>
  <text x="477.212,481.636,485.289,487.479,491.161,493.338,496.509,498.171,502.531,505.702,509.355,511.965,514.926,516.528,519.698,523.435,526.333" y="103.23500000000001" svg_rhmargin="529.504" style="fill:#000000;font-family:KAIKPM+MyriadPro-It;font-size:7.0px;font-style:ITALIC;font-weight:normal;">Nature Geoscience</text>
  <text svg_rhmargin="530.952" x="529.503,530.952" y="103.23500000000001" style="fill:#000000;font-family:KAIKOL+MyriadPro-Regular;font-size:7.0px;font-style:NORMAL;font-weight:normal;">, </text>
  <text x="532.608" y="103.23500000000001" svg_rhmargin="536.052" style="fill:#000000;font-family:KAIKPM+MyriadPro-It;font-size:7.0px;font-style:ITALIC;font-weight:normal;">7</text>
  <text x="536.271,537.7199999999999,539.377,542.968,546.559,550.78,554.902,558.493,562.084,565.675" y="103.23500000000001" svg_rhmargin="567.124" style="fill:#000000;font-family:KAIKOL+MyriadPro-Regular;font-size:7.0px;font-style:NORMAL;font-weight:normal;">, 703–708.</text>
  <text x="179.874,183.759,186.076,188.393,192.376,195.148,196.597,198.998,201.399,205.347,209.19,210.828,212.277,216.12,218.352,222.265,224.666,228.257,231.848,233.297,236.888,240.479,244.07,247.661,250.062,253.947,257.86,261.367,265.21,268.801,272.392,275.983" y="112.20799999999997" svg_rhmargin="279.574" style="fill:#000000;font-family:KAIKOL+MyriadPro-Regular;font-size:7.0px;font-style:NORMAL;font-weight:normal;">https://doi.org/10.1038/ngeo2253</text>
  <text svg_rhmargin="318.147" x="172.872,176.323,180.208,183.715,187.698,191.583,195.09,197.304,201.252,202.70100000000002,204.231,207.292,208.741,210.28,214.802,216.251,217.79,219.778,223.369,226.96,230.551,234.142,236.13,237.579,239.119,242.566,246.553,250.063,253.285,255.597,258.369,259.917,263.76,265.804,267.342,270.716,272.256,277.408,280.782,283.071,288.909,290.547,294.432,298.345,299.886,304.17,306.385,309.607,311.924,313.562,316.698,318.147" y="121.17200000000003" style="fill:#000000;font-family:KAIKOL+MyriadPro-Regular;font-size:7.0px;font-style:NORMAL;font-weight:normal;">Shepherd, T. G. (2016). Eﬀects of a warming Arctic. </text>
  <text x="319.71,323.04,326.001,327.601,330.77,334.506,337.404" y="121.17200000000003" svg_rhmargin="340.575" style="fill:#000000;font-family:KAIKPM+MyriadPro-It;font-size:7.0px;font-style:ITALIC;font-weight:normal;">Science</text>
  <text svg_rhmargin="342.021" x="340.572,342.021" y="121.17200000000003" style="fill:#000000;font-family:KAIKOL+MyriadPro-Regular;font-size:7.0px;font-style:NORMAL;font-weight:normal;">, </text>
  <text x="343.578,347.024,350.471" y="121.17200000000003" svg_rhmargin="353.915" style="fill:#000000;font-family:KAIKPM+MyriadPro-It;font-size:7.0px;font-style:ITALIC;font-weight:normal;">353</text>
  <text x="353.919,355.368,356.898,360.489,364.08,368.301,372.432,376.023,379.614,383.205,384.654,386.189,390.074,392.391,394.708,398.691,401.463,402.912,405.313,407.714,411.662,415.505,417.143,418.592,422.435,424.668,428.581,430.982,434.573,438.164,439.613,443.204,446.795,450.386,453.977,456.378,459.15,462.286,463.924,467.431,471.316,474.403,477.832,479.281,480.802,484.176,487.55,491.463,495.054,498.645,502.236" y="121.17200000000003" svg_rhmargin="505.827" style="fill:#000000;font-family:KAIKOL+MyriadPro-Regular;font-size:7.0px;font-style:NORMAL;font-weight:normal;">, 989–990. https://doi.org/10.1126/science. aag2349</text>
  <text x="172.871,176.322,177.96,183.798,187.781,190.553,194.396,198.281,199.73000000000002,201.324,202.997,204.44600000000003,206.039,209.801,211.25,212.699,214.302,217.753,221.638,224.958,230.106,231.555,233.157,236.217,237.66600000000003,239.259,243.543,244.992,246.441,248.044,252.27900000000002,253.876,257.368,260.875,264.249,268.162,271.669,273.958,275.40700000000004,277.001,280.767,282.216,283.809,285.797,289.388,292.979,296.57,300.161,302.149,303.598,305.2,309.484,311.077,315.025,316.663,320.037,323.908,327.793,331.636,334.408,336.046,338.818,340.411,344.254,346.298,347.899,350.216,354.101,357.608,359.204,361.976,365.483,368.857,371.629,375.472,379.357,382.731,384.383,386.035,389.33200000000005,390.913,394.287,398.172,402.12,403.716,405.372,409.215,413.1,416.97,418.608,420.925,424.782,428.73,430.368,434.253,437.627,439.279,440.931,444.228,445.801,449.168,452.542,454.999,458.293,459.931,463.816,467.729,469.333,475.174,476.812,480.76,482.412,485.786,488.103,489.741,492.058,495.915,499.863,503.37,504.957,508.093,509.731,511.945,515.077,518.934,520.586,523.96,526.277,527.915,531.758,535.643,537.248,539.462,542.972,545.744,549.727,553.57,557.455,560.227,563.7339999999999,565.321,567.589" y="130.13699999999994" svg_rhmargin="571.432" style="fill:#000000;font-family:KAIKOL+MyriadPro-Regular;font-size:7.0px;font-style:NORMAL;font-weight:normal;">Simpson, I. R., Shaw, T. A., &amp; Seager, R. (2014). A diagnosis of the seasonally and longitudinally varying midlatitude circulation response to</text>
  <text svg_rhmargin="227.371" x="179.873,183.788,185.441,189.286,193.27,196.645,198.297,199.823,204.976,208.352,210.642,216.481,218.121,222.007,225.922,227.371" y="139.101" style="fill:#000000;font-family:KAIKOL+MyriadPro-Regular;font-size:7.0px;font-style:NORMAL;font-weight:normal;">global warming. </text>
  <text x="228.906,231.452,235.103,238.782,241.005,244.74,248.392,249.995,251.542,255.196,257.177,258.714,260.901,264.636,267.807,269.352,273.326,275.514,281.167,284.818,287.426,291.099,294.834,298.002,300.225,301.825,304.786,306.352,309.682,312.64,314.241,317.409,321.144,324.042,327.21" y="139.101" svg_rhmargin="329.821" style="fill:#000000;font-family:KAIKPM+MyriadPro-It;font-size:7.0px;font-style:ITALIC;font-weight:normal;">Journal of the Atmospheric Sciences</text>
  <text svg_rhmargin="331.265" x="329.816,331.265" y="139.101" style="fill:#000000;font-family:KAIKOL+MyriadPro-Regular;font-size:7.0px;font-style:NORMAL;font-weight:normal;">, </text>
  <text x="332.813,336.26" y="139.101" svg_rhmargin="339.704" style="fill:#000000;font-family:KAIKPM+MyriadPro-It;font-size:7.0px;font-style:ITALIC;font-weight:normal;">71</text>
  <text x="339.707,341.156,342.696,346.287,349.879,353.471,357.692,361.823,365.415,369.006,372.598,376.19,377.639,379.175,383.06,385.378,387.696,391.679,394.452,395.902,398.304,400.705,404.654,408.498,410.136,411.586,415.43,417.662,421.576,423.977,427.569,431.161,432.611,436.202,439.794,443.386,446.977,449.379,451.97,456.255,459.706,461.856,466.617,468.768,472.36,475.952,478.101,481.693,485.285,488.877,492.468,493.918" y="139.101" svg_rhmargin="497.509" style="fill:#000000;font-family:KAIKOL+MyriadPro-Regular;font-size:7.0px;font-style:NORMAL;font-weight:normal;">, 2489–2515. https://doi.org/10.1175/JAS-D-13-0325.1</text>
  <text x="172.871,176.323,182.162,183.8,186.118,190.004,191.453,193.469,197.897,199.346,201.353,206.982,208.431,209.88000000000002,211.896,216.558,220.416,224.302,227.074,229.342,233.186,237.072,240.501,241.95000000000002,243.957,248.564,250.013,252.029,254.54,255.989,257.438,259.445,262.937,266.074,269.448,271.087,273.04,276.548,277.997,280.013,284.297,285.74600000000004,287.762,292.047,293.497,294.946,296.953,300.184,301.822,305.33,309.278,310.931,314.439,316.728,318.177,320.184,323.604,325.053,327.06,330.975,332.425,333.874,335.89,339.868,343.711,347.695,350.468,353.975,357.273,358.72200000000004,360.729,365.157,366.607,368.05600000000004,370.072,374.307,376.318,380.881,384.256,386.47,390.419,392.057,397.896,401.271,405.157,406.606,408.612,412.064,413.51300000000003,415.529,419.59,421.039,423.055,425.044,428.635,432.227,435.819,439.41,441.399,442.848,444.864,449.076,451.394,457.232,461.076,463.849,467.832,471.718,475.226,477.516,479.154,482.29,484.302,486.516,490.026,492.799,496.782,500.626,504.512,507.284,510.791,512.801,515.069,518.9119999999999,520.928,525.213,527.427,530.649,532.962,534.601" y="148.07399999999996" svg_rhmargin="537.737" style="fill:#000000;font-family:KAIKOL+MyriadPro-Regular;font-size:7.0px;font-style:NORMAL;font-weight:normal;">Smith, D. M., Dunstone, N. J., Scaife, A. A., Fiedler, E. K., Copsey, D., &amp; Hardiman, S. C. (2017). Atmospheric response to Arctic</text>
  <text svg_rhmargin="460.836" x="179.873,183.247,187.132,191.08,192.776,197.06,200.945,203.262,206.636,208.85,212.072,214.385,216.023,219.159,220.883,223.655,227.162,230.536,232.238,233.876,236.963,240.473,241.92200000000003,243.632,247.071,250.956,254.463,256.158,257.796,263.634,267.617,271.46,273.917,276.23,279.604,283.489,286.576,290.083,291.796,295.639,297.683,299.383,303.226,306.313,309.82,313.194,317.079,319.228,322.602,324.919,330.757,334.6,337.372,341.355,345.24,348.747,350.961,354.468,356.172,359.259,363.102,366.959,370.942,372.594,374.232,378.117,382.03000000000003,383.724,387.098,390.983,394.931,396.635,398.947,402.832,406.339,408.052,412.035,415.409,418.545,421.828,425.698,427.913,431.756,435.613,439.498,443.44599999999997,445.149,447.921,450.238,453.612,455.88,459.387,460.836" y="157.038" style="fill:#000000;font-family:KAIKOL+MyriadPro-Regular;font-size:7.0px;font-style:NORMAL;font-weight:normal;">and Antarctic sea ice: The importance of ocean-atmosphere coupling and the background state. </text>
  <text x="462.542,465.086,468.735,472.413,474.635,478.369,482.019,483.622,485.339,488.993,490.974,492.675,496.563,498.161,499.76,505.412,509.062,511.248" y="157.038" svg_rhmargin="514.419" style="fill:#000000;font-family:KAIKPM+MyriadPro-It;font-size:7.0px;font-style:ITALIC;font-weight:normal;">Journal of Climate</text>
  <text svg_rhmargin="515.868" x="514.419,515.8679999999999" y="157.038" style="fill:#000000;font-family:KAIKOL+MyriadPro-Regular;font-size:7.0px;font-style:NORMAL;font-weight:normal;">, </text>
  <text x="517.587,521.034" y="157.038" svg_rhmargin="524.478" style="fill:#000000;font-family:KAIKPM+MyriadPro-It;font-size:7.0px;font-style:ITALIC;font-weight:normal;">30</text>
  <text x="524.481,525.93,527.631,531.222,534.813,538.404,542.625,546.757,550.348,553.939,557.53,561.121" y="157.038" svg_rhmargin="562.57" style="fill:#000000;font-family:KAIKOL+MyriadPro-Regular;font-size:7.0px;font-style:NORMAL;font-weight:normal;">, 4547–4565.</text>
  <text x="179.874,183.759,186.076,188.393,192.376,195.148,196.597,198.998,201.399,205.347,209.19,210.828,212.277,216.12,218.352,222.265,224.666,228.257,231.848,233.297,236.888,240.479,244.07,247.661,250.062,252.652,256.712,260.016,261.689,263.838,268.6,270.749,274.34,277.931,280.08,283.671,287.262,290.853,294.444,295.893" y="166.00300000000004" svg_rhmargin="299.484" style="fill:#000000;font-family:KAIKOL+MyriadPro-Regular;font-size:7.0px;font-style:NORMAL;font-weight:normal;">https://doi.org/10.1175/JCLI-D-16-0564.1</text>
  <text svg_rhmargin="503.92" x="172.872,176.323,178.64,182.014,184.282,187.789,191.674,193.12300000000002,194.761,197.506,198.955,200.593,206.128,207.577,209.026,210.664,214.426,218.283,220.6,223.596,225.04500000000002,226.683,229.194,230.643,232.272,234.783,236.232,237.681,239.31,243.099,246.606,248.244,251.38,255.265,256.917,260.424,262.713,264.16200000000003,265.8,268.86,270.309,271.75800000000004,273.396,277.63100000000003,279.264,282.458,286.32,287.769,289.407,291.918,293.367,294.995,296.984,300.575,304.166,307.757,311.348,313.336,314.785,316.423,320.221,322.436,325.945,329.319,332.721,334.359,338.244,342.15700000000004,343.779,347.73,351.528,356.676,360.561,362.193,364.506,368.391,371.898,373.539,375.856,378.07,381.913,385.896,389.739,392.511,396.494,400.379,403.886,406.175,407.813,410.949,412.583,415.719,417.357,419.571,422.703,426.56,428.212,431.586,433.903,435.541,439.384,443.269,444.909,447.124,450.633,453.405,457.388,461.231,465.116,467.888,471.395,473.028,476.97,480.26700000000005,481.893,483.846,487.689,489.903,493.035,494.673,498.558,502.471,503.92" y="174.96699999999998" style="fill:#000000;font-family:KAIKOL+MyriadPro-Regular;font-size:7.0px;font-style:NORMAL;font-weight:normal;">Staten, P. W., Rutz, J. J., Reichler, T., &amp; Lu, J. (2012). Breaking down the tropospheric circulation response by forcing. </text>
  <text x="505.572,509.454,511.053,512.653,518.305,521.956,524.143,527.3140000000001,528.959,533.611,536.695,540.429,544.08,549.732,551.332,554.289" y="174.96699999999998" svg_rhmargin="556.9" style="fill:#000000;font-family:KAIKPM+MyriadPro-It;font-size:7.0px;font-style:ITALIC;font-weight:normal;">Climate Dynamics</text>
  <text svg_rhmargin="558.349" x="556.9,558.3489999999999" y="174.96699999999998" style="fill:#000000;font-family:KAIKOL+MyriadPro-Regular;font-size:7.0px;font-style:NORMAL;font-weight:normal;">, </text>
  <text x="559.997,563.443" y="174.96699999999998" svg_rhmargin="566.887" style="fill:#000000;font-family:KAIKPM+MyriadPro-It;font-size:7.0px;font-style:ITALIC;font-weight:normal;">39</text>
  <text x="566.891" y="174.96699999999998" svg_rhmargin="568.34" style="fill:#000000;font-family:KAIKOL+MyriadPro-Regular;font-size:7.0px;font-style:NORMAL;font-weight:normal;">,</text>
  <text x="179.875,183.465,187.055,190.646,194.867,198.989,202.579,206.17,209.76,213.35,214.799,216.347,220.231,222.548,224.864,228.846,231.617,233.066,235.466,237.866,241.814,245.656,247.293,248.742,252.584,254.816,258.728,261.129,264.719,268.309,269.758,273.348,276.938,280.529,284.119,286.519,289.29,292.881,296.471,300.061,303.652,307.242,309.39,312.981,316.571,320.161,322.31,325.9,329.49,333.08,336.671,338.819" y="183.94000000000005" svg_rhmargin="342.116" style="fill:#000000;font-family:KAIKOL+MyriadPro-Regular;font-size:7.0px;font-style:NORMAL;font-weight:normal;">2361–2375. https://doi.org/10.1007/s00382-011-1267-y</text>
  <text x="172.873,176.324,180.182,184.068,185.51700000000002,187.092,190.397,191.846,193.29500000000002,194.87,199.56,203.067,205.84,209.348,211.637,213.086,214.661,218.721,220.17,221.619,223.204,227.43900000000002,229.018,232.006,235.85,241.688,245.063,247.836,249.28500000000003,250.851,254.613,256.062,257.646,261.93,263.379,264.954,266.942,270.534,274.126,277.717,281.309,283.298,284.747,286.322,291.992,295.5,298.636,302.522,305.897,309.782,311.421,314.194,320.033,322.805,324.37,328.213,330.257,331.841,334.613,336.931,339.18,342.555,344.823,348.667,351.439,355.423,359.309,362.816,365.106,366.745,369.88100000000003,371.461,374.835,378.721,382.669,384.247,386.56,388.774,392.617,396.601,400.444,403.217,407.201,411.086,414.594,416.884,418.522,421.658,423.238,426.375,428.014,430.228,433.36,437.217,438.87,442.245,444.562,446.201,450.045,453.93,455.508,457.722,461.232,464.004,467.988,471.832,475.717,478.49,481.997,483.575,485.843,489.68600000000004,491.27,495.254,497.468,501.311,503.013,506.521,509.743,512.011,515.519,519.467,521.053,525.338,527.552,530.774,533.087,534.726,537.862,539.451,542.224,545.731,549.105,550.682,552.32,555.407,558.914,560.501,562.153,565.997,568.77,571.542" y="192.904" svg_rhmargin="572.991" style="fill:#000000;font-family:KAIKOL+MyriadPro-Regular;font-size:7.0px;font-style:NORMAL;font-weight:normal;">Sun, L., Deser, C., &amp; Tomas, R. A. (2015). Mechanisms of stratospheric and tropospheric circulation response to projected Arctic sea ice loss.</text>
  <text x="179.875,182.419,186.068,189.746,191.968,195.702,199.352,200.955,202.502,206.156,208.137,209.675,213.562,215.161,216.76,222.412,226.062,228.248" y="201.86800000000005" svg_rhmargin="231.419" style="fill:#000000;font-family:KAIKPM+MyriadPro-It;font-size:7.0px;font-style:ITALIC;font-weight:normal;">Journal of Climate</text>
  <text svg_rhmargin="232.868" x="231.419,232.86800000000002" y="201.86800000000005" style="fill:#000000;font-family:KAIKOL+MyriadPro-Regular;font-size:7.0px;font-style:NORMAL;font-weight:normal;">, </text>
  <text x="234.415,237.862" y="201.86800000000005" svg_rhmargin="241.306" style="fill:#000000;font-family:KAIKPM+MyriadPro-It;font-size:7.0px;font-style:ITALIC;font-weight:normal;">28</text>
  <text x="241.31,242.75900000000001,244.289,247.88,251.471,255.062,259.283,263.414,267.005,270.596,274.187,277.778,279.22700000000003,280.765,284.65,286.967,289.284,293.267,296.039,297.488,299.889,302.29,306.238,310.081,311.719,313.168,317.01,319.243,323.156,325.557,329.148,332.739,334.188,337.779,341.37,344.961,348.552,350.953,353.543,357.603,360.907,362.58,364.729,369.49,371.639,375.23,378.821,380.97,384.561,388.152,391.743,395.334,396.783" y="201.86800000000005" svg_rhmargin="400.374" style="fill:#000000;font-family:KAIKOL+MyriadPro-Regular;font-size:7.0px;font-style:NORMAL;font-weight:normal;">, 7824–7845. https://doi.org/10.1175/JCLI-D-15-0169.1</text>
  <text svg_rhmargin="458.094" x="172.873,175.906,179.227,182.524,184.177,188.021,190.31,191.75900000000001,193.353,197.268,198.717,200.319,203.739,205.189,206.638,208.24,211.692,213.96,217.804,221.661,225.649,229.158,231.448,232.89700000000002,234.508,238.275,239.72400000000002,241.326,243.837,245.286,246.735,248.337,252.572,254.169,259.839,263.347,266.855,270.741,272.393,273.842,275.435,279.953,281.402,283.005,287.289,288.738,290.34,292.329,295.92,299.512,303.104,306.695,308.684,310.13300000000004,311.735,316.019,319.904,321.5,325.299,328.593,332.103,334.56,337.926,339.565,343.072,348.224,349.831,353.674,355.71799999999996,357.319,361.379,367.007,368.681,372.406,375.997,377.599,380.974,384.859,388.80699999999996,390.403,392.716,396.602,400.109,401.714,405.222,408.463,412.447,415.955,418.245,419.883,425.722,429.23,433.115,435.432,437.021,440.97,444.478,447.25,448.889,452.759,456.645,458.094" y="210.83299999999997" style="fill:#000000;font-family:KAIKOL+MyriadPro-Regular;font-size:7.0px;font-style:NORMAL;font-weight:normal;">Taylor, K. E., Stouﬀer, R. J., &amp; Meehl, G. A. (2012). An overview of CMIP5 and the experiment design. </text>
  <text x="459.698,463.329,467.008,468.608,470.208,473.376,475.565,477.165,480.903,482.511,486.165,488.146,489.747,491.933,495.669,498.84,500.448,504.47,510.122,513.29,515.514,517.114,519.967,523.621,527.359,528.976,534.44,537.608,539.796,542.964,546.615,548.793,552.447,554.047,557.699,561.364,562.964,565.817,569.471" y="210.83299999999997" svg_rhmargin="571.074" style="fill:#000000;font-family:KAIKPM+MyriadPro-It;font-size:7.0px;font-style:ITALIC;font-weight:normal;">Bulletin of the American Meteorological</text>
  <text x="179.874,183.204,186.857,189.816,191.418,194.588,196.856" y="219.80600000000004" svg_rhmargin="199.943" style="fill:#000000;font-family:KAIKPM+MyriadPro-It;font-size:7.0px;font-style:ITALIC;font-weight:normal;">Society</text>
  <text svg_rhmargin="201.601" x="200.152,201.601" y="219.80600000000004" style="fill:#000000;font-family:KAIKOL+MyriadPro-Regular;font-size:7.0px;font-style:NORMAL;font-weight:normal;">, </text>
  <text x="203.14,206.587" y="219.80600000000004" svg_rhmargin="210.031" style="fill:#000000;font-family:KAIKPM+MyriadPro-It;font-size:7.0px;font-style:ITALIC;font-weight:normal;">93</text>
  <text x="210.034,211.483,213.014,216.605,220.196,224.417,228.548,232.139,235.73,239.321,240.77,242.308,246.193,248.51,250.827,254.81,257.582,259.031,261.432,263.833,267.781,271.624,273.262,274.711,278.554,280.786,284.699,287.1,290.691,294.282,295.731,299.322,302.913,306.504,310.095,312.496,316.29,320.574,326.202,329.653,331.802,336.564,338.713,342.304,345.895,348.044,351.635,355.226,358.817,362.408,365.999,367.448" y="219.80600000000004" svg_rhmargin="371.039" style="fill:#000000;font-family:KAIKOL+MyriadPro-Regular;font-size:7.0px;font-style:NORMAL;font-weight:normal;">, 485–498. https://doi.org/10.1175/BAMS-D-11-00094.1</text>
  <text svg_rhmargin="545.096" x="172.873,175.861,179.371,183.354,186.728,188.38,192.328,193.966,195.41500000000002,197.008,201.068,202.517,203.966,205.586,209.82100000000003,211.436,215.72,218.009,221.992,223.644,227.018,229.79,232.058,235.565,237.854,239.30300000000003,240.923,243.434,244.883,246.493,252.118,253.567,255.187,257.176,260.767,264.358,267.949,271.54,273.528,274.97700000000003,276.597,280.143,283.517,285.834,288.102,291.612,293.901,297.786,299.409,302.181,305.317,308.691,310.343,311.981,315.866,319.779,321.228,322.839,324.621,326.934,329.706,331.325,334.097,336.414,338.629,342.136,346.021,349.934,352.251,356.136,358.908,360.527,363.903,367.788,371.736,373.35,375.002,376.64,382.478,384.116,386.433,389.807,392.124,393.762,397.605,401.49,404.181,405.63,407.24,410.614,414.499,418.447,420.062,423.437,427.322,428.945,432.802,436.785,440.733,444.107,446.375,449.882,451.487,455.33,459.215,460.83,463.142,467.027,470.534,472.158,473.81,477.184,479.452,482.961,485.733,488.05,489.667,495.505,499.348,503.296,506.803,508.455,510.061,512.833,514.471,520.309,524.166,525.818,529.192,531.509,533.147,536.99,540.875,543.647,545.096" y="228.76999999999998" style="fill:#000000;font-family:KAIKOL+MyriadPro-Regular;font-size:7.0px;font-style:NORMAL;font-weight:normal;">Tebaldi, C., &amp; Arblaster, J. M. (2014). Pattern scaling: Its strengths and limitations, and an update on the latest model simulations. </text>
  <text x="546.694,550.578,552.18,553.781,559.436,563.089,565.278,566.88" y="228.76999999999998" svg_rhmargin="569.841" style="fill:#000000;font-family:KAIKPM+MyriadPro-It;font-size:7.0px;font-style:ITALIC;font-weight:normal;">Climatic</text>
  <text x="179.875,183.761,187.499,191.154,194.893,198.561" y="237.73400000000004" svg_rhmargin="201.732" style="fill:#000000;font-family:KAIKPM+MyriadPro-It;font-size:7.0px;font-style:ITALIC;font-weight:normal;">Change</text>
  <text svg_rhmargin="203.176" x="201.727,203.17600000000002" y="237.73400000000004" style="fill:#000000;font-family:KAIKOL+MyriadPro-Regular;font-size:7.0px;font-style:NORMAL;font-weight:normal;">, </text>
  <text x="204.716,208.163,211.609" y="237.73400000000004" svg_rhmargin="215.053" style="fill:#000000;font-family:KAIKPM+MyriadPro-It;font-size:7.0px;font-style:ITALIC;font-weight:normal;">122</text>
  <text x="215.057,216.506,218.036,221.627,225.218,229.439,233.57,237.161,240.752,244.343,245.792,247.33,251.215,253.532,255.849,259.832,262.604,264.053,266.454,268.855,272.803,276.646,278.284,279.733,283.576,285.809,289.722,292.123,295.714,299.305,300.754,304.345,307.936,311.527,315.118,317.519,320.291,323.882,327.473,331.064,334.655,338.246,340.395,343.986,347.577,351.168,353.317,356.908,360.499,364.09,367.681,369.83" y="237.73400000000004" svg_rhmargin="373.421" style="fill:#000000;font-family:KAIKOL+MyriadPro-Regular;font-size:7.0px;font-style:NORMAL;font-weight:normal;">, 459–471. https://doi.org/10.1007/s10584-013-1032-9</text>
  <text svg_rhmargin="418.356" x="172.873,176.672,178.31,182.194,188.031,191.405,192.854,194.933,197.993,199.442,201.53,203.519,207.109,210.699,214.29,217.88,219.867,221.316,223.404,226.851,230.838,234.348,237.57,239.883,242.655,244.752,248.595,250.639,252.726,257.01,259.224,262.446,264.763,266.4,269.536,271.647,274.419,277.925,281.29900000000004,283.38,285.017,288.104,291.611,293.711,297.658,301.165,304.3,305.951,307.589,311.473,314.98,317.062,320.904,324.789,326.871,331.947,335.457,338.83,341.147,345.031,348.537,350.82599999999996,352.92,356.293,360.177,364.125,366.207,369.339,370.99,372.628,378.465,381.838,384.106,387.616,389.065,391.153,395.437,397.525,399.739,403.246,406.612,408.249,411.755,416.907,418.356" y="246.69799999999998" style="fill:#000000;font-family:KAIKOL+MyriadPro-Regular;font-size:7.0px;font-style:NORMAL;font-weight:normal;">Vihma, T. (2014). Eﬀects of Arctic sea ice decline on weather and climate: A review. </text>
  <text x="420.459,423.719,427.4,429.766,432.898,436.068,439.153,441.764,443.86,445.463,449.201,451.286,455.651,458.821,462.473,466.147,469.837,472.923,475.532,477.134,480.094" y="246.69799999999998" svg_rhmargin="482.705" style="fill:#000000;font-family:KAIKPM+MyriadPro-It;font-size:7.0px;font-style:ITALIC;font-weight:normal;">Surveys in Geophysics</text>
  <text svg_rhmargin="484.153" x="482.704,484.153" y="246.69799999999998" style="fill:#000000;font-family:KAIKOL+MyriadPro-Regular;font-size:7.0px;font-style:NORMAL;font-weight:normal;">, </text>
  <text x="486.259,489.706" y="246.69799999999998" svg_rhmargin="493.15" style="fill:#000000;font-family:KAIKPM+MyriadPro-It;font-size:7.0px;font-style:ITALIC;font-weight:normal;">35</text>
  <text x="493.154,494.603,496.682,500.273,503.864,507.455,511.676,515.806,519.397,522.988,526.579,530.17" y="246.69799999999998" svg_rhmargin="531.619" style="fill:#000000;font-family:KAIKOL+MyriadPro-Regular;font-size:7.0px;font-style:NORMAL;font-weight:normal;">, 1175–1214.</text>
  <text x="179.876,183.761,186.078,188.395,192.378,195.15,196.599,199.0,201.401,205.349,209.192,210.83,212.279,216.122,218.355,222.268,224.669,228.26,231.851,233.3,236.891,240.482,244.073,247.664,250.065,252.837,256.428,260.019,263.61,267.201,270.792,272.941,276.532,280.123,283.714,285.863,289.454,293.045,296.636,300.227,302.376" y="255.67200000000003" svg_rhmargin="305.967" style="fill:#000000;font-family:KAIKOL+MyriadPro-Regular;font-size:7.0px;font-style:NORMAL;font-weight:normal;">https://doi.org/10.1007/s10712-014-9284-0</text>
  <text svg_rhmargin="420.805" x="172.874,178.562,182.072,186.057,190.041,191.49,193.641,199.27,200.71900000000002,202.88,205.391,206.84,208.28900000000002,210.449,214.733,218.619,222.569,224.783,228.291,233.394,236.167,237.616,239.777,242.837,244.286,245.735,247.886,251.711,255.555,259.505,262.88,265.654,267.804,271.256,274.632,276.285,279.372,282.88,286.83,290.674,292.123,294.274,298.56,300.01,301.459,303.619,307.415,311.259,315.057,318.352,319.801,321.952,325.398,326.849,328.298,330.467,334.263,336.477,339.985,342.303,346.19,349.698,352.155,354.423,358.266,362.153,363.60200000000003,365.753,369.814,371.26300000000003,373.432,376.885,378.335,379.784,381.945,386.004,389.89,393.266,397.215,402.368,404.008,407.145,410.529,411.978,414.138,417.906,419.356,420.805" y="264.63199999999995" style="fill:#000000;font-family:KAIKOL+MyriadPro-Regular;font-size:7.0px;font-style:NORMAL;font-weight:normal;">Webb, M. J., Andrews, T., Bodas-Salcedo, A., Bony, S., Bretherton, C. S., Chadwick, R., </text>
  <text x="422.14" y="264.63199999999995" svg_rhmargin="430.11" style="fill:#000000;font-family:KAILCM+STIXMath-Regular;font-size:7.97px;font-style:NORMAL;font-weight:normal;">…</text>
  <text x="431.438,437.126,440.474,442.792,446.168,450.054,453.429,457.414,460.922,462.37100000000004,464.522,470.148,471.59700000000004,473.757,475.746,479.339,482.931,486.523,490.116,492.105,493.55400000000003,495.714,499.152,503.039,506.546,508.699,512.761,514.414,518.259,522.117" y="264.63199999999995" svg_rhmargin="526.065" style="fill:#000000;font-family:KAIKOL+MyriadPro-Regular;font-size:7.0px;font-style:NORMAL;font-weight:normal;">Watanabe, M. (2017). The Cloud</text>
  <text svg_rhmargin="394.588" x="179.874,183.068,186.577,190.085,194.035,198.019,201.394,204.532,207.815,209.86,215.53,219.375,223.324,226.832,228.48399999999998,230.549,232.295,236.156,238.424,241.934,244.148,247.235,251.08,256.919,260.904,264.279,266.569,268.209,270.982,274.827,278.712,280.785,284.403,286.617,290.462,292.164,295.673,298.895,301.212,303.278,305.186,309.246,312.531,318.156,319.83,323.556,325.544,327.606,330.693,334.537,338.424,340.742,343.032,344.672,348.656,352.515,354.833,356.472,360.317,364.202,366.275,368.543,372.386,374.456,378.518,384.147,385.821,389.547,393.139,394.588" y="273.596" style="fill:#000000;font-family:KAIKOL+MyriadPro-Regular;font-size:7.0px;font-style:NORMAL;font-weight:normal;">Feedback Model Intercomparison Project (CFMIP) contribution to CMIP6. </text>
  <text x="396.661,401.02,404.19,407.843,410.452,413.412,415.013,418.183,421.92,424.109,425.711,429.202,432.163,434.242,439.701,443.354,447.027,450.197,451.8,453.869,458.477,461.645,464.777,467.945,469.547,473.199,476.873,482.528,485.697,489.434" y="273.596" svg_rhmargin="491.625" style="fill:#000000;font-family:KAIKPM+MyriadPro-It;font-size:7.0px;font-style:ITALIC;font-weight:normal;">Geoscientiﬁc Model Development</text>
  <text svg_rhmargin="493.233" x="491.784,493.233" y="273.596" style="fill:#000000;font-family:KAIKOL+MyriadPro-Regular;font-size:7.0px;font-style:NORMAL;font-weight:normal;">, </text>
  <text x="495.321,498.768" y="273.596" svg_rhmargin="502.212" style="fill:#000000;font-family:KAIKPM+MyriadPro-It;font-size:7.0px;font-style:ITALIC;font-weight:normal;">10</text>
  <text x="502.215,503.664,505.725,509.316,512.907,517.128,521.259,524.85,528.441,532.032" y="273.596" svg_rhmargin="533.481" style="fill:#000000;font-family:KAIKOL+MyriadPro-Regular;font-size:7.0px;font-style:NORMAL;font-weight:normal;">, 359–384.</text>
  <text x="179.874,183.759,186.076,188.393,192.376,195.148,196.597,198.998,201.399,205.347,209.19,210.828,212.277,216.12,218.353,222.266,224.667,228.258,231.849,233.298,236.889,240.48,244.071,247.662,250.063,253.933,259.771,263.719,265.868,269.459,273.05,275.199,278.79,282.381,285.972,288.121,291.712,295.303,298.894" y="282.57000000000005" svg_rhmargin="302.485" style="fill:#000000;font-family:KAIKOL+MyriadPro-Regular;font-size:7.0px;font-style:NORMAL;font-weight:normal;">https://doi.org/10.5194/gmd-10-359-2017</text>
  <text x="172.872,178.668,182.529,183.978,185.689,188.812,190.261,191.71,193.42,197.655,199.36,202.807,208.645,210.283,212.6,216.485,217.93400000000003,219.653,223.568,225.01700000000002,226.727,230.031,231.48000000000002,233.19,235.179,238.77,242.361,245.952,249.543,251.531,252.98000000000002,254.69,258.479,261.986,264.758,268.741,272.584,276.469,279.241,282.748,284.452,288.295,290.339,292.056,296.664,300.507,302.964,305.281,309.166,312.673,314.962,318.847,320.551,325.115,328.622,334.46,336.098,338.87,342.853,346.738,350.245,352.459,355.966,357.669,363.51,365.148,369.096,370.748,374.122,376.439,378.077,380.394,384.251,388.199,391.706,393.41,396.546,398.184,400.398,403.53,407.387,409.039,412.413,414.73,416.368,420.211,424.096,425.809,428.077,431.92,433.639,437.923,440.137,443.359,445.672,447.31,450.446,452.17,455.544,461.382,465.365,467.017,468.655,472.316,475.452,478.826,481.143,482.781,486.624,490.509,492.213,493.851,497.736,499.449,502.82300000000004,504.533,507.305,508.943,514.781,518.764,520.416,523.923,525.627,529.001,531.318,537.156,540.999,543.771,547.754,551.639,555.146,557.435,559.073" y="291.534" svg_rhmargin="562.209" style="fill:#000000;font-family:KAIKOL+MyriadPro-Regular;font-size:7.0px;font-style:NORMAL;font-weight:normal;">Wu, Y., &amp; Smith, K. L. (2016). Response of Northern Hemisphere midlatitude circulation to Arctic ampliﬁcation in a simple atmospheric</text>
  <text svg_rhmargin="255.962" x="179.874,183.787,187.294,191.179,194.686,196.936,200.31,201.962,203.487,206.623,208.261,210.476,213.607,217.464,219.116,222.49,224.807,226.445,230.288,234.173,235.725,241.563,245.406,249.354,252.861,254.513,255.96200000000002" y="300.498" style="fill:#000000;font-family:KAIKOL+MyriadPro-Regular;font-size:7.0px;font-style:NORMAL;font-weight:normal;">general circulation model. </text>
  <text x="257.492,260.036,263.685,267.363,269.585,273.319,276.969,278.572,280.119,283.773,285.754,287.292,291.179,292.778,294.377,300.029,303.678,305.865" y="300.498" svg_rhmargin="309.036" style="fill:#000000;font-family:KAIKPM+MyriadPro-It;font-size:7.0px;font-style:ITALIC;font-weight:normal;">Journal of Climate</text>
  <text svg_rhmargin="310.485" x="309.036,310.485" y="300.498" style="fill:#000000;font-family:KAIKOL+MyriadPro-Regular;font-size:7.0px;font-style:NORMAL;font-weight:normal;">, </text>
  <text x="312.032,315.479" y="300.498" svg_rhmargin="318.923" style="fill:#000000;font-family:KAIKPM+MyriadPro-It;font-size:7.0px;font-style:ITALIC;font-weight:normal;">29</text>
  <text x="318.927,320.37600000000003,321.906,325.497,329.088,332.679,336.9,341.031,344.622,348.213,351.804,355.395,356.844,358.38,362.265,364.582,366.899,370.882,373.654,375.103,377.504,379.905,383.853,387.696,389.334,390.783,394.626,396.858,400.771,403.172,406.763,410.354,411.803,415.394,418.985,422.576,426.167,428.568,431.158,435.218,438.522,440.195,442.344,447.106,449.255,452.846,456.437,458.586,462.177,465.768,469.359,472.95,474.399" y="300.498" svg_rhmargin="477.99" style="fill:#000000;font-family:KAIKOL+MyriadPro-Regular;font-size:7.0px;font-style:NORMAL;font-weight:normal;">, 2041–2058. https://doi.org/10.1175/JCLI-D-15-0602.1</text>
  <text svg_rhmargin="551.676" x="172.872,176.743,180.117,184.1,188.083,191.457,192.906,194.454,198.972,200.421,201.87,203.436,207.67100000000002,209.232,212.678,216.563,220.07,224.053,227.938,231.445,233.66,237.608,239.05700000000002,240.613,243.673,245.122,246.679,251.201,252.65,254.216,256.204,259.795,263.386,266.977,270.568,272.556,274.005,275.562,279.008,281.276,285.119,287.576,290.871,292.523,294.161,298.046,301.553,304.325,305.9,309.743,311.787,313.352,316.726,319.043,324.881,328.724,331.496,335.479,339.364,342.871,345.16,346.798,349.934,351.487,354.623,356.261,358.475,361.607,365.464,367.116,370.49,372.807,374.445,378.288,382.173,383.742,386.878,390.763,394.137,398.022,401.935,405.442,406.993,408.946,412.789,415.078,416.642,420.044,423.901,426.115,429.958,433.941,437.448,440.822,444.707,446.258,448.472,451.979,455.849,457.487,461.33,465.215,468.589,470.241,471.802,474.938,476.59,478.228,484.066,487.44,489.708,493.21500000000003,494.776,496.414,502.252,506.235,509.609,512.831,515.148,516.709,520.085,522.857,525.629,529.136,531.908,534.68,540.518,544.025,547.91,550.227,551.6759999999999" y="309.462" style="fill:#000000;font-family:KAIKOL+MyriadPro-Regular;font-size:7.0px;font-style:NORMAL;font-weight:normal;">Zappa, G., &amp; Shepherd, T. G. (2017). Storylines of atmospheric circulation change for European regional climate impact assessment. </text>
  <text x="553.237,555.783,559.436,563.117,565.341,569.078,572.73" y="309.462" svg_rhmargin="574.333" style="fill:#000000;font-family:KAIKPM+MyriadPro-It;font-size:7.0px;font-style:ITALIC;font-weight:normal;">Journal</text>
  <text x="179.874,183.523,185.504,187.042,190.923,192.522,194.121,199.773,203.422,205.609" y="318.435" svg_rhmargin="208.78" style="fill:#000000;font-family:KAIKPM+MyriadPro-It;font-size:7.0px;font-style:ITALIC;font-weight:normal;">of Climate</text>
  <text svg_rhmargin="210.222" x="208.773,210.222" y="318.435" style="fill:#000000;font-family:KAIKOL+MyriadPro-Regular;font-size:7.0px;font-style:NORMAL;font-weight:normal;">, </text>
  <text x="211.77,215.217" y="318.435" svg_rhmargin="218.661" style="fill:#000000;font-family:KAIKPM+MyriadPro-It;font-size:7.0px;font-style:ITALIC;font-weight:normal;">30</text>
  <text x="218.664,220.113,221.643,225.234,228.825,232.416,236.637,240.769,244.36,247.951,251.542,255.133,256.582,258.12,262.005,264.322,266.639,270.622,273.394,274.843,277.244,279.645,283.593,287.436,289.074,290.523,294.366,296.598,300.511,302.912,306.503,310.094,311.543,315.134,318.725,322.316,325.907,328.308,330.898,334.958,338.262,339.935,342.084,346.845,348.994,352.585,356.176,358.325,361.916,365.507,369.098,372.689,374.138" y="318.435" svg_rhmargin="377.729" style="fill:#000000;font-family:KAIKOL+MyriadPro-Regular;font-size:7.0px;font-style:NORMAL;font-weight:normal;">, 6561–6577. https://doi.org/10.1175/JCLI-D-16-0807.1</text>
  <text x="36.072,41.049,46.557,51.345,55.377,60.885000000000005,62.793,67.365,71.838,73.746,79.254,83.502,85.365,557.611,562.228,566.845,571.462" y="777.731" svg_rhmargin="576.077" style="fill:#0a3a69;font-family:KAIKOL+MyriadPro-Regular;font-size:9.0px;font-style:NORMAL;font-weight:normal;">ZAPPA ET AL. 1019</text>
 </g>
</svg>
