<?xml version="1.0" encoding="UTF-8"?>
<svg height="787.731" width="588.3138261052632" xmlns="http://www.w3.org/2000/svg">
 <g style="fill:none;">
  <path d=" M 66.21700286865234 748.281005859375 C 64.47500610351562 749.72998046875 61.96600341796875 749.85400390625 59.51100158691406 748.8670043945312 C 59.56700134277344 748.833984375 59.893001556396484 748.6510009765625 59.94900131225586 748.6160278320312 C 62.41800308227539 749.4450073242188 64.60400390625 749.2650146484375 66.07300567626953 747.666015625 C 68.31900024414062 745.2169799804688 67.19900512695312 740.9500122070312 63.81700134277344 737.8480224609375 C 61.20100402832031 735.4500122070312 58.31500244140625 735.8740234375 55.90500259399414 736.7410278320312 C 55.90500259399414 736.7410278320312 57.134002685546875 732.6160278320312 61.2130012512207 731.8450317382812 C 63.45900344848633 734.1699829101562 63.45900344848633 734.1699829101562 65.4330062866211 736.5419921875 C 68.79700469970703 740.5880126953125 69.14900207519531 745.843017578125 66.21700286865234 748.281005859375" style="fill:none;stroke:#000000;stroke-width:1.0;"/>
  <path d=" M 66.21700286865234 748.281005859375 C 64.47500610351562 749.72998046875 61.96600341796875 749.85400390625 59.51100158691406 748.8670043945312 C 59.56700134277344 748.833984375 59.893001556396484 748.6510009765625 59.94900131225586 748.6160278320312 C 62.41800308227539 749.4450073242188 64.60400390625 749.2650146484375 66.07300567626953 747.666015625 C 68.31900024414062 745.2169799804688 67.19900512695312 740.9500122070312 63.81700134277344 737.8480224609375 C 61.20100402832031 735.4500122070312 58.31500244140625 735.8740234375 55.90500259399414 736.7410278320312 C 55.90500259399414 736.7410278320312 57.134002685546875 732.6160278320312 61.2130012512207 731.8450317382812 C 63.45900344848633 734.1699829101562 63.45900344848633 734.1699829101562 65.4330062866211 736.5419921875 C 68.79700469970703 740.5880126953125 69.14900207519531 745.843017578125 66.21700286865234 748.281005859375" style="fill:none;stroke:#000000;stroke-width:1.0;"/>
  <path d=" M 48.805999755859375 748.2100219726562 C 47.35599899291992 746.468017578125 47.233001708984375 743.9590454101562 48.218997955322266 741.5040283203125 C 48.25299835205078 741.5599975585938 48.43600082397461 741.8860473632812 48.470001220703125 741.9410400390625 C 47.64099884033203 744.4100341796875 47.81999969482422 746.5980224609375 49.42100143432617 748.0650024414062 C 51.869998931884766 750.3130493164062 56.13600158691406 749.1910400390625 59.237998962402344 745.8099975585938 C 61.63600158691406 743.1929931640625 61.211997985839844 740.3080444335938 60.34400177001953 737.8970336914062 C 60.34400177001953 737.8970336914062 64.47000122070312 739.1270141601562 65.23899841308594 743.2050170898438 C 62.91600036621094 745.4510498046875 62.91600036621094 745.4510498046875 60.54499816894531 747.426025390625 C 56.49800109863281 750.7880249023438 51.24300003051758 751.1420288085938 48.805999755859375 748.2100219726562" style="fill:none;stroke:#000000;stroke-width:1.0;"/>
  <path d=" M 48.805999755859375 748.2100219726562 C 47.35599899291992 746.468017578125 47.233001708984375 743.9590454101562 48.218997955322266 741.5040283203125 C 48.25299835205078 741.5599975585938 48.43600082397461 741.8860473632812 48.470001220703125 741.9410400390625 C 47.64099884033203 744.4100341796875 47.81999969482422 746.5980224609375 49.42100143432617 748.0650024414062 C 51.869998931884766 750.3130493164062 56.13600158691406 749.1910400390625 59.237998962402344 745.8099975585938 C 61.63600158691406 743.1929931640625 61.211997985839844 740.3080444335938 60.34400177001953 737.8970336914062 C 60.34400177001953 737.8970336914062 64.47000122070312 739.1270141601562 65.23899841308594 743.2050170898438 C 62.91600036621094 745.4510498046875 62.91600036621094 745.4510498046875 60.54499816894531 747.426025390625 C 56.49800109863281 750.7880249023438 51.24300003051758 751.1420288085938 48.805999755859375 748.2100219726562" style="fill:none;stroke:#000000;stroke-width:1.0;"/>
  <path d=" M 48.875999450683594 730.7979736328125 C 50.61800003051758 729.3499755859375 53.12699890136719 729.2269897460938 55.58300018310547 730.2119750976562 C 55.527000427246094 730.2449951171875 55.20000076293945 730.427978515625 55.14500045776367 730.4629516601562 C 52.67499923706055 729.6339721679688 50.48899841308594 729.81298828125 49.02000045776367 731.4129638671875 C 46.77399826049805 733.8609619140625 47.89400100708008 738.1289672851562 51.2760009765625 741.2319946289062 C 53.89299774169922 743.6289672851562 56.77799987792969 743.2049560546875 59.18899917602539 742.3369750976562 C 59.18899917602539 742.3369750976562 57.959999084472656 746.4619750976562 53.880001068115234 747.2329711914062 C 51.63399887084961 744.907958984375 51.63399887084961 744.907958984375 49.65999984741211 742.5369873046875 C 46.297000885009766 738.489990234375 45.94499969482422 733.2359619140625 48.875999450683594 730.7979736328125" style="fill:none;stroke:#000000;stroke-width:1.0;"/>
  <path d=" M 48.875999450683594 730.7979736328125 C 50.61800003051758 729.3499755859375 53.12699890136719 729.2269897460938 55.58300018310547 730.2119750976562 C 55.527000427246094 730.2449951171875 55.20000076293945 730.427978515625 55.14500045776367 730.4629516601562 C 52.67499923706055 729.6339721679688 50.48899841308594 729.81298828125 49.02000045776367 731.4129638671875 C 46.77399826049805 733.8609619140625 47.89400100708008 738.1289672851562 51.2760009765625 741.2319946289062 C 53.89299774169922 743.6289672851562 56.77799987792969 743.2049560546875 59.18899917602539 742.3369750976562 C 59.18899917602539 742.3369750976562 57.959999084472656 746.4619750976562 53.880001068115234 747.2329711914062 C 51.63399887084961 744.907958984375 51.63399887084961 744.907958984375 49.65999984741211 742.5369873046875 C 46.297000885009766 738.489990234375 45.94499969482422 733.2359619140625 48.875999450683594 730.7979736328125" style="fill:none;stroke:#000000;stroke-width:1.0;"/>
  <path d=" M 66.28800201416016 730.8690185546875 C 67.73699951171875 732.6110229492188 67.86100006103516 735.1190185546875 66.8740005493164 737.5740356445312 C 66.84100341796875 737.5180053710938 66.65800476074219 737.1929931640625 66.62300109863281 737.1370239257812 C 67.4520034790039 734.666015625 67.27300262451172 732.4800415039062 65.67200469970703 731.0130004882812 C 63.224002838134766 728.7650146484375 58.95800018310547 729.8870239257812 55.855003356933594 733.2680053710938 C 53.457000732421875 735.885009765625 53.881004333496094 738.76904296875 54.749000549316406 741.1820068359375 C 54.749000549316406 741.1820068359375 50.624000549316406 739.9520263671875 49.85400390625 735.873046875 C 52.178001403808594 733.6270141601562 52.178001403808594 733.6270141601562 54.54900360107422 731.6539916992188 C 58.595001220703125 728.2890014648438 63.85000228881836 727.93603515625 66.28800201416016 730.8690185546875" style="fill:none;stroke:#000000;stroke-width:1.0;"/>
  <path d=" M 66.28800201416016 730.8690185546875 C 67.73699951171875 732.6110229492188 67.86100006103516 735.1190185546875 66.8740005493164 737.5740356445312 C 66.84100341796875 737.5180053710938 66.65800476074219 737.1929931640625 66.62300109863281 737.1370239257812 C 67.4520034790039 734.666015625 67.27300262451172 732.4800415039062 65.67200469970703 731.0130004882812 C 63.224002838134766 728.7650146484375 58.95800018310547 729.8870239257812 55.855003356933594 733.2680053710938 C 53.457000732421875 735.885009765625 53.881004333496094 738.76904296875 54.749000549316406 741.1820068359375 C 54.749000549316406 741.1820068359375 50.624000549316406 739.9520263671875 49.85400390625 735.873046875 C 52.178001403808594 733.6270141601562 52.178001403808594 733.6270141601562 54.54900360107422 731.6539916992188 C 58.595001220703125 728.2890014648438 63.85000228881836 727.93603515625 66.28800201416016 730.8690185546875" style="fill:none;stroke:#000000;stroke-width:1.0;"/>
  <path d=" M 95.24299621582031 737.2930297851562 L 99.70999908447266 737.2930297851562 L 99.70999908447266 732.9410400390625 C 99.2449951171875 732.7330322265625 98.78399658203125 732.5550537109375 97.4749984741211 732.5550537109375 C 93.40199279785156 732.5550537109375 90.6669921875 734.9840087890625 90.6669921875 739.5390014648438 C 90.6669921875 744.2110595703125 93.60499572753906 746.4170532226562 97.7959976196289 746.4170532226562 C 99.85999298095703 746.4170532226562 101.16899871826172 745.7940063476562 102.24699401855469 745.2880249023438 L 102.2959976196289 745.4710083007812 L 102.2959976196289 749.123046875 C 101.26899719238281 749.4690551757812 99.70799255371094 749.7770385742188 97.822998046875 749.7770385742188 C 91.33699798583984 749.7770385742188 86.9419937133789 745.7310180664062 86.91499328613281 739.3600463867188 C 86.91499328613281 736.3240356445312 87.90299987792969 733.676025390625 89.64799499511719 731.97900390625 C 91.51099395751953 730.1630249023438 94.04199981689453 729.301025390625 97.35899353027344 729.301025390625 C 99.947998046875 729.301025390625 102.39099884033203 729.9550170898438 103.64299774169922 730.4310302734375 L 103.64299774169922 741.0960083007812 L 95.24299621582031 741.0960083007812 L 95.24299621582031 737.2930297851562" style="fill:none;stroke:#000000;stroke-width:1.0;"/>
  <path d=" M 117.89099884033203 749.6699829101562 L 117.89099884033203 738.1799926757812 C 117.89099884033203 734.25 116.79899597167969 733.0549926757812 114.1760025024414 733.0549926757812 C 111.55500030517578 733.0549926757812 110.46199798583984 734.25 110.46199798583984 738.1799926757812 L 110.46199798583984 749.6699829101562 L 106.3689956665039 749.6699829101562 L 106.3689956665039 738.239990234375 C 106.3689956665039 732.1449584960938 109.02400207519531 729.4129638671875 114.05899810791016 729.3150024414062 L 114.05899810791016 729.3109741210938 C 114.0979995727539 729.3109741210938 114.13700103759766 729.31298828125 114.1760025024414 729.31298828125 C 114.21499633789062 729.31298828125 114.25399780273438 729.3109741210938 114.29499816894531 729.3109741210938 L 114.29399871826172 729.3150024414062 C 119.32799530029297 729.4129638671875 121.98300170898438 732.1449584960938 121.98300170898438 738.239990234375 L 121.98300170898438 749.6699829101562 L 117.89099884033203 749.6699829101562" style="fill:none;stroke:#000000;stroke-width:1.0;"/>
  <path d=" M 77.98899841308594 742.7360229492188 C 78.3219985961914 741.8400268554688 80.52400207519531 736.8780517578125 80.52400207519531 736.8780517578125 L 75.48899841308594 736.8780517578125 C 75.48899841308594 736.8780517578125 77.65599822998047 741.8400268554688 77.98899841308594 742.7360229492188 M 77.99299621582031 750.217041015625 L 67.95199584960938 729.4920043945312 L 72.38600158691406 729.4920043945312 L 74.125 733.6490478515625 L 81.87799835205078 733.6490478515625 L 83.61499786376953 729.4920043945312 L 88.04399871826172 729.4920043945312 L 77.99299621582031 750.217041015625" style="fill:none;stroke:#000000;stroke-width:1.0;"/>
  <path d=" M 123.6780014038086 728.3809814453125 L 123.6310043334961 729.1229858398438 C 123.62699890136719 729.2219848632812 123.62699890136719 729.3419799804688 123.62100219726562 729.4769897460938 L 123.60800170898438 729.4769897460938 C 123.57600402832031 729.364990234375 123.53400421142578 729.2169799804688 123.5 729.1009521484375 L 123.27400207519531 728.4010009765625 L 123.01399993896484 728.4010009765625 L 122.78500366210938 729.1189575195312 C 122.76200103759766 729.2119750976562 122.72599792480469 729.364990234375 122.697998046875 729.4769897460938 L 122.68399810791016 729.4769897460938 C 122.68399810791016 729.3619995117188 122.68000030517578 729.239990234375 122.67400360107422 729.1229858398438 L 122.62899780273438 728.3809814453125 L 122.38700103759766 728.3809814453125 L 122.4800033569336 729.6439819335938 L 122.85600280761719 729.6439819335938 L 123.07400512695312 729.0279541015625 C 123.10700225830078 728.928955078125 123.125 728.8359985351562 123.15800476074219 728.7049560546875 L 123.16200256347656 728.7049560546875 C 123.19499969482422 728.8189697265625 123.2229995727539 728.928955078125 123.25 729.0169677734375 L 123.46900177001953 729.6439819335938 L 123.83000183105469 729.6439819335938 L 123.9280014038086 728.3809814453125 L 123.6780014038086 728.3809814453125 Z M 122.31300354003906 729.6439819335938 L 122.31300354003906 729.4349975585938 L 121.90800476074219 729.4349975585938 L 121.90800476074219 728.3809814453125 L 121.65800476074219 728.3809814453125 L 121.65800476074219 729.4349975585938 L 121.25800323486328 729.4349975585938 L 121.25800323486328 729.6439819335938 L 122.31300354003906 729.6439819335938" style="fill:none;stroke:#000000;stroke-width:1.0;"/>
  <text svg_rhmargin="320.986" x="138.483,148.114,155.503,163.579,171.95,179.888,186.988,193.063,196.898,203.21,210.601,214.451,217.837,226.138,233.528,239.603,246.993,254.384,259.595,265.907,274.111,277.509,284.538,291.928,297.064,302.201,309.591,314.91,320.98600000000005" y="67.04600000000005" style="fill:#0a3a69;font-family:KAHOOD+MyriadPro-Bold;font-size:14.0px;font-style:NORMAL;font-weight:bold;">Geophysical Research Letters </text>
  <text x="469.345,474.475,479.605,481.675,486.805,491.935,497.065,502.195,505.625,510.755,515.885,521.015,526.145,532.605,537.325,542.455,547.585,552.715,557.845,562.975" y="67.04600000000005" svg_rhmargin="568.105" style="fill:#0a3a69;font-family:KAIKOL+MyriadPro-Regular;font-size:10.0px;font-style:NORMAL;font-weight:normal;">10.1002/2017GL076096</text>
  <path d=" M 227.17100524902344 469.79901123046875 L 449.68798828125 469.79901123046875 L 449.68798828125 687.6490478515625 L 227.17100524902344 687.6490478515625 Z " style="fill:none;stroke:#0a3a69;stroke-width:0.5040000081062317;"/>
  <text x="225.714" y="343.212" svg_rhmargin="226.988" style="fill:#000000;font-family:KAILKM+Helvetica;font-size:5.74px;font-style:NORMAL;font-weight:normal;">j</text>
  <text x="226.987" y="341.938" svg_rhmargin="230.177" style="fill:#000000;font-family:KAILKM+Helvetica;font-size:5.74px;font-style:NORMAL;font-weight:normal;">u</text>
  <text svg_rhmargin="231.452" x="230.178,231.452" y="345.86" style="fill:#000000;font-family:KAILKM+Helvetica;font-size:5.74px;font-style:NORMAL;font-weight:normal;">l </text>
  <text x="241.274" y="345.86" svg_rhmargin="244.464" style="fill:#000000;font-family:KAILKM+Helvetica;font-size:5.74px;font-style:NORMAL;font-weight:normal;">a</text>
  <text x="244.464" y="342.669" svg_rhmargin="247.654" style="fill:#000000;font-family:KAILKM+Helvetica;font-size:5.74px;font-style:NORMAL;font-weight:normal;">u</text>
  <text svg_rhmargin="250.845" x="247.655,250.845" y="344.73" style="fill:#000000;font-family:KAILKM+Helvetica;font-size:5.74px;font-style:NORMAL;font-weight:normal;">g </text>
  <text x="261.998" y="344.73" svg_rhmargin="264.867" style="fill:#000000;font-family:KAILKM+Helvetica;font-size:5.74px;font-style:NORMAL;font-weight:normal;">s</text>
  <text x="264.867" y="341.86" svg_rhmargin="268.057" style="fill:#000000;font-family:KAILKM+Helvetica;font-size:5.74px;font-style:NORMAL;font-weight:normal;">e</text>
  <text svg_rhmargin="271.248" x="268.058,271.248" y="344.482" style="fill:#000000;font-family:KAILKM+Helvetica;font-size:5.74px;font-style:NORMAL;font-weight:normal;">p </text>
  <text x="283.76" y="344.482" svg_rhmargin="286.95" style="fill:#000000;font-family:KAILKM+Helvetica;font-size:5.74px;font-style:NORMAL;font-weight:normal;">o</text>
  <text x="286.95" y="341.291" svg_rhmargin="289.819" style="fill:#000000;font-family:KAILKM+Helvetica;font-size:5.74px;font-style:NORMAL;font-weight:normal;">c</text>
  <text svg_rhmargin="291.414" x="289.819,291.41400000000004" y="345.699" style="fill:#000000;font-family:KAILKM+Helvetica;font-size:5.74px;font-style:NORMAL;font-weight:normal;">t </text>
  <text x="302.747" y="345.699" svg_rhmargin="305.937" style="fill:#000000;font-family:KAILKM+Helvetica;font-size:5.74px;font-style:NORMAL;font-weight:normal;">n</text>
  <text x="305.937" y="342.508" svg_rhmargin="309.127" style="fill:#000000;font-family:KAILKM+Helvetica;font-size:5.74px;font-style:NORMAL;font-weight:normal;">o</text>
  <text svg_rhmargin="311.997" x="309.128,311.997" y="345.214" style="fill:#000000;font-family:KAILKM+Helvetica;font-size:5.74px;font-style:NORMAL;font-weight:normal;">v </text>
  <text x="322.524" y="345.214" svg_rhmargin="325.714" style="fill:#000000;font-family:KAILKM+Helvetica;font-size:5.74px;font-style:NORMAL;font-weight:normal;">d</text>
  <text x="325.714" y="342.023" svg_rhmargin="328.904" style="fill:#000000;font-family:KAILKM+Helvetica;font-size:5.74px;font-style:NORMAL;font-weight:normal;">e</text>
  <text svg_rhmargin="331.774" x="328.905,331.774" y="343.51" style="fill:#000000;font-family:KAILKM+Helvetica;font-size:5.74px;font-style:NORMAL;font-weight:normal;">c </text>
  <text x="344.984" y="343.51" svg_rhmargin="346.258" style="fill:#000000;font-family:KAILKM+Helvetica;font-size:5.74px;font-style:NORMAL;font-weight:normal;">j</text>
  <text x="346.258" y="342.236" svg_rhmargin="349.448" style="fill:#000000;font-family:KAILKM+Helvetica;font-size:5.74px;font-style:NORMAL;font-weight:normal;">a</text>
  <text svg_rhmargin="352.639" x="349.449,352.639" y="343.778" style="fill:#000000;font-family:KAILKM+Helvetica;font-size:5.74px;font-style:NORMAL;font-weight:normal;">n </text>
  <text x="364.695" y="343.778" svg_rhmargin="366.29" style="fill:#000000;font-family:KAILKM+Helvetica;font-size:5.74px;font-style:NORMAL;font-weight:normal;">f</text>
  <text x="366.291" y="342.183" svg_rhmargin="369.481" style="fill:#000000;font-family:KAILKM+Helvetica;font-size:5.74px;font-style:NORMAL;font-weight:normal;">e</text>
  <text svg_rhmargin="372.671" x="369.481,372.671" y="346.437" style="fill:#000000;font-family:KAILKM+Helvetica;font-size:5.74px;font-style:NORMAL;font-weight:normal;">b </text>
  <text x="383.565" y="346.437" svg_rhmargin="388.345" style="fill:#000000;font-family:KAILKM+Helvetica;font-size:5.74px;font-style:NORMAL;font-weight:normal;">m</text>
  <text x="388.345" y="341.657" svg_rhmargin="391.535" style="fill:#000000;font-family:KAILKM+Helvetica;font-size:5.74px;font-style:NORMAL;font-weight:normal;">a</text>
  <text svg_rhmargin="393.446" x="391.535,393.446" y="345.171" style="fill:#000000;font-family:KAILKM+Helvetica;font-size:5.74px;font-style:NORMAL;font-weight:normal;">r </text>
  <text x="405.337" y="345.171" svg_rhmargin="408.527" style="fill:#000000;font-family:KAILKM+Helvetica;font-size:5.74px;font-style:NORMAL;font-weight:normal;">a</text>
  <text x="408.527" y="341.98" svg_rhmargin="411.717" style="fill:#000000;font-family:KAILKM+Helvetica;font-size:5.74px;font-style:NORMAL;font-weight:normal;">p</text>
  <text svg_rhmargin="413.628" x="411.717,413.628" y="347.396" style="fill:#000000;font-family:KAILKM+Helvetica;font-size:5.74px;font-style:NORMAL;font-weight:normal;">r </text>
  <text x="423.203" y="347.396" svg_rhmargin="427.983" style="fill:#000000;font-family:KAILKM+Helvetica;font-size:5.74px;font-style:NORMAL;font-weight:normal;">m</text>
  <text x="427.983" y="342.616" svg_rhmargin="431.173" style="fill:#000000;font-family:KAILKM+Helvetica;font-size:5.74px;font-style:NORMAL;font-weight:normal;">a</text>
  <text svg_rhmargin="434.043" x="431.174,434.043" y="343.296" style="fill:#000000;font-family:KAILKM+Helvetica;font-size:5.74px;font-style:NORMAL;font-weight:normal;">y </text>
  <text x="445.88" y="343.296" svg_rhmargin="447.154" style="fill:#000000;font-family:KAILKM+Helvetica;font-size:5.74px;font-style:NORMAL;font-weight:normal;">j</text>
  <text x="447.154" y="342.022" svg_rhmargin="450.344" style="fill:#000000;font-family:KAILKM+Helvetica;font-size:5.74px;font-style:NORMAL;font-weight:normal;">u</text>
  <text x="450.345" y="338.831" svg_rhmargin="453.535" style="fill:#000000;font-family:KAILKM+Helvetica;font-size:5.74px;font-style:NORMAL;font-weight:normal;">n</text>
  <text x="218.495,220.826" y="333.19" svg_rhmargin="224.718" style="fill:#000000;font-family:KAILKM+Helvetica;font-size:7.0px;font-style:NORMAL;font-weight:normal;">-4</text>
  <text x="218.495,220.826" y="305.959" svg_rhmargin="224.718" style="fill:#000000;font-family:KAILKM+Helvetica;font-size:7.0px;font-style:NORMAL;font-weight:normal;">-3</text>
  <text x="218.495,220.826" y="278.727" svg_rhmargin="224.718" style="fill:#000000;font-family:KAILKM+Helvetica;font-size:7.0px;font-style:NORMAL;font-weight:normal;">-2</text>
  <text x="218.495,220.826" y="251.49599999999998" svg_rhmargin="224.718" style="fill:#000000;font-family:KAILKM+Helvetica;font-size:7.0px;font-style:NORMAL;font-weight:normal;">-1</text>
  <text x="221.197" y="224.264" svg_rhmargin="225.089" style="fill:#000000;font-family:KAILKM+Helvetica;font-size:7.0px;font-style:NORMAL;font-weight:normal;">0</text>
  <text x="221.197" y="197.034" svg_rhmargin="225.089" style="fill:#000000;font-family:KAILKM+Helvetica;font-size:7.0px;font-style:NORMAL;font-weight:normal;">1</text>
  <text x="221.197" y="169.803" svg_rhmargin="225.089" style="fill:#000000;font-family:KAILKM+Helvetica;font-size:7.0px;font-style:NORMAL;font-weight:normal;">2</text>
  <text x="221.197" y="142.572" svg_rhmargin="225.089" style="fill:#000000;font-family:KAILKM+Helvetica;font-size:7.0px;font-style:NORMAL;font-weight:normal;">3</text>
  <text x="221.197" y="115.34100000000001" svg_rhmargin="225.089" style="fill:#000000;font-family:KAILKM+Helvetica;font-size:7.0px;font-style:NORMAL;font-weight:normal;">4</text>
  <text x="211.343" y="270.30999999999995" svg_rhmargin="211.343" style="fill:#000000;font-family:KAILKM+Helvetica;font-size:0.0px;font-style:NORMAL;font-weight:normal;">L</text>
  <text x="211.343" y="265.861" svg_rhmargin="211.343" style="fill:#000000;font-family:KAILKM+Helvetica;font-size:0.0px;font-style:NORMAL;font-weight:normal;">a</text>
  <text x="211.343" y="261.413" svg_rhmargin="211.343" style="fill:#000000;font-family:KAILKM+Helvetica;font-size:0.0px;font-style:NORMAL;font-weight:normal;">t</text>
  <text x="211.343" y="259.188" svg_rhmargin="211.343" style="fill:#000000;font-family:KAILKM+Helvetica;font-size:0.0px;font-style:NORMAL;font-weight:normal;">i</text>
  <text x="211.343" y="257.41200000000003" svg_rhmargin="211.343" style="fill:#000000;font-family:KAILKM+Helvetica;font-size:0.0px;font-style:NORMAL;font-weight:normal;">t</text>
  <text x="211.343" y="255.188" svg_rhmargin="211.343" style="fill:#000000;font-family:KAILKM+Helvetica;font-size:0.0px;font-style:NORMAL;font-weight:normal;">u</text>
  <text x="211.343" y="250.73900000000003" svg_rhmargin="211.343" style="fill:#000000;font-family:KAILKM+Helvetica;font-size:0.0px;font-style:NORMAL;font-weight:normal;">d</text>
  <text x="211.343" y="246.29100000000005" svg_rhmargin="211.343" style="fill:#000000;font-family:KAILKM+Helvetica;font-size:0.0px;font-style:NORMAL;font-weight:normal;">e</text>
  <text y="241.84199999999998" style="fill:#000000;font-family:KAILKM+Helvetica;font-size:0.0px;font-style:NORMAL;font-weight:normal;" svg_rhmargin="211.343" x=""/>
  <text x="211.343" y="239.61800000000005" svg_rhmargin="211.343" style="fill:#000000;font-family:KAILKM+Helvetica;font-size:0.0px;font-style:NORMAL;font-weight:normal;">c</text>
  <text x="211.343" y="235.61699999999996" svg_rhmargin="211.343" style="fill:#000000;font-family:KAILKM+Helvetica;font-size:0.0px;font-style:NORMAL;font-weight:normal;">h</text>
  <text x="211.343" y="231.16899999999998" svg_rhmargin="211.343" style="fill:#000000;font-family:KAILKM+Helvetica;font-size:0.0px;font-style:NORMAL;font-weight:normal;">a</text>
  <text x="211.343" y="226.72000000000003" svg_rhmargin="211.343" style="fill:#000000;font-family:KAILKM+Helvetica;font-size:0.0px;font-style:NORMAL;font-weight:normal;">n</text>
  <text x="211.343" y="222.27099999999996" svg_rhmargin="211.343" style="fill:#000000;font-family:KAILKM+Helvetica;font-size:0.0px;font-style:NORMAL;font-weight:normal;">g</text>
  <text x="211.343" y="217.82299999999998" svg_rhmargin="211.343" style="fill:#000000;font-family:KAILKM+Helvetica;font-size:0.0px;font-style:NORMAL;font-weight:normal;">e</text>
  <text y="213.37400000000002" style="fill:#000000;font-family:KAILKM+Helvetica;font-size:0.0px;font-style:NORMAL;font-weight:normal;" svg_rhmargin="211.343" x=""/>
  <text x="211.343" y="211.14999999999998" svg_rhmargin="211.343" style="fill:#000000;font-family:KAILKM+Helvetica;font-size:0.0px;font-style:NORMAL;font-weight:normal;">(</text>
  <text x="211.343" y="208.485" svg_rhmargin="211.343" style="fill:#000000;font-family:KAILKM+Helvetica;font-size:0.0px;font-style:NORMAL;font-weight:normal;">d</text>
  <text x="211.343" y="204.03700000000003" svg_rhmargin="211.343" style="fill:#000000;font-family:KAILKM+Helvetica;font-size:0.0px;font-style:NORMAL;font-weight:normal;">e</text>
  <text x="211.343" y="199.58799999999997" svg_rhmargin="211.343" style="fill:#000000;font-family:KAILKM+Helvetica;font-size:0.0px;font-style:NORMAL;font-weight:normal;">g</text>
  <text x="211.343" y="195.14" svg_rhmargin="211.343" style="fill:#000000;font-family:KAILKM+Helvetica;font-size:0.0px;font-style:NORMAL;font-weight:normal;">r</text>
  <text x="211.343" y="192.47500000000002" svg_rhmargin="211.343" style="fill:#000000;font-family:KAILKM+Helvetica;font-size:0.0px;font-style:NORMAL;font-weight:normal;">e</text>
  <text x="211.343" y="188.02700000000004" svg_rhmargin="211.343" style="fill:#000000;font-family:KAILKM+Helvetica;font-size:0.0px;font-style:NORMAL;font-weight:normal;">e</text>
  <text svg_rhmargin="211.343" x="211.343,211.343" y="108.57100000000003" style="fill:#000000;font-family:KAILKM+Helvetica;font-size:0.0px;font-style:NORMAL;font-weight:normal;">) </text>
  <text x="261.766,268.242,273.722,277.211,280.197,285.677,288.171,294.646,297.633,300.126,305.113,310.593,313.58,316.073,321.06,323.553,326.047,331.033,334.02,336.513,344.487,349.474,354.46,359.941,362.434,365.923,370.91,375.896,381.376,386.857,392.337,397.323" y="108.57100000000003" svg_rhmargin="402.31" style="fill:#000000;font-family:KAILKN+Helvetica-Bold;font-size:8.97px;font-style:NORMAL;font-weight:bold;">North Atlantic jet mean response</text>
  <path d=" M 245.92100524902344 619.9249877929688 C 245.92100524902344 619.4010009765625 245.49600219726562 618.9760131835938 244.9720001220703 618.9760131835938 C 244.447998046875 618.9760131835938 244.02301025390625 619.4010009765625 244.02301025390625 619.9249877929688 C 244.02301025390625 620.448974609375 244.447998046875 620.875 244.9720001220703 620.875 C 245.49600219726562 620.875 245.92100524902344 620.448974609375 245.92100524902344 619.9249877929688" style="fill:none;stroke:#000000;stroke-width:0.8539999723434448;"/>
  <path d=" M 266.1499938964844 629.8079833984375 C 266.1499938964844 629.2839965820312 265.7250061035156 628.8590087890625 265.20098876953125 628.8590087890625 C 264.677001953125 628.8590087890625 264.2519836425781 629.2839965820312 264.2519836425781 629.8079833984375 C 264.2519836425781 630.3319702148438 264.677001953125 630.7579956054688 265.20098876953125 630.7579956054688 C 265.7250061035156 630.7579956054688 266.1499938964844 630.3319702148438 266.1499938964844 629.8079833984375" style="fill:none;stroke:#000000;stroke-width:0.8539999723434448;"/>
  <path d=" M 286.3789978027344 619.1719970703125 C 286.3789978027344 618.6480102539062 285.9540100097656 618.2230224609375 285.4309997558594 618.2230224609375 C 284.906005859375 618.2230224609375 284.48199462890625 618.6480102539062 284.48199462890625 619.1719970703125 C 284.48199462890625 619.6959838867188 284.906005859375 620.1209716796875 285.4309997558594 620.1209716796875 C 285.9540100097656 620.1209716796875 286.3789978027344 619.6959838867188 286.3789978027344 619.1719970703125" style="fill:none;stroke:#000000;stroke-width:0.8539999723434448;"/>
  <path d=" M 306.6080017089844 625.2739868164062 C 306.6080017089844 624.75 306.1830139160156 624.3250122070312 305.65899658203125 624.3250122070312 C 305.135009765625 624.3250122070312 304.7099914550781 624.75 304.7099914550781 625.2739868164062 C 304.7099914550781 625.7979736328125 305.135009765625 626.2229614257812 305.65899658203125 626.2229614257812 C 306.1830139160156 626.2229614257812 306.6080017089844 625.7979736328125 306.6080017089844 625.2739868164062" style="fill:none;stroke:#000000;stroke-width:0.8539999723434448;"/>
  <path d=" M 326.8370056152344 612.7739868164062 C 326.8370056152344 612.25 326.4120178222656 611.8250122070312 325.88800048828125 611.8250122070312 C 325.3630065917969 611.8250122070312 324.9389953613281 612.25 324.9389953613281 612.7739868164062 C 324.9389953613281 613.2979736328125 325.3630065917969 613.7229614257812 325.88800048828125 613.7229614257812 C 326.4120178222656 613.7229614257812 326.8370056152344 613.2979736328125 326.8370056152344 612.7739868164062" style="fill:none;stroke:#000000;stroke-width:0.8539999723434448;"/>
  <path d=" M 347.0660095214844 584.9400024414062 C 347.0660095214844 584.4149780273438 346.6400146484375 583.9910278320312 346.11700439453125 583.9910278320312 C 345.593017578125 583.9910278320312 345.1679992675781 584.4149780273438 345.1679992675781 584.9400024414062 C 345.1679992675781 585.4639892578125 345.593017578125 585.8889770507812 346.11700439453125 585.8889770507812 C 346.6400146484375 585.8889770507812 347.0660095214844 585.4639892578125 347.0660095214844 584.9400024414062" style="fill:none;stroke:#000000;stroke-width:0.8539999723434448;"/>
  <path d=" M 367.2950134277344 552.927978515625 C 367.2950134277344 552.4039916992188 366.8700256347656 551.9779663085938 366.34600830078125 551.9779663085938 C 365.822021484375 551.9779663085938 365.3960266113281 552.4039916992188 365.3960266113281 552.927978515625 C 365.3960266113281 553.4509887695312 365.822021484375 553.8759765625 366.34600830078125 553.8759765625 C 366.8700256347656 553.8759765625 367.2950134277344 553.4509887695312 367.2950134277344 552.927978515625" style="fill:none;stroke:#000000;stroke-width:0.8539999723434448;"/>
  <path d=" M 387.52398681640625 562.239990234375 C 387.52398681640625 561.7160034179688 387.0979919433594 561.2919921875 386.5749816894531 561.2919921875 C 386.0509948730469 561.2919921875 385.6259765625 561.7160034179688 385.6259765625 562.239990234375 C 385.6259765625 562.7650146484375 386.0509948730469 563.1900024414062 386.5749816894531 563.1900024414062 C 387.0979919433594 563.1900024414062 387.52398681640625 562.7650146484375 387.52398681640625 562.239990234375" style="fill:none;stroke:#000000;stroke-width:0.8539999723434448;"/>
  <path d=" M 407.75299072265625 589.5130004882812 C 407.75299072265625 588.989013671875 407.3280029296875 588.5640258789062 406.8039855957031 588.5640258789062 C 406.2799987792969 588.5640258789062 405.85400390625 588.989013671875 405.85400390625 589.5130004882812 C 405.85400390625 590.0369873046875 406.2799987792969 590.4619750976562 406.8039855957031 590.4619750976562 C 407.3280029296875 590.4619750976562 407.75299072265625 590.0369873046875 407.75299072265625 589.5130004882812" style="fill:none;stroke:#000000;stroke-width:0.8539999723434448;"/>
  <path d=" M 427.98199462890625 620.7490234375 C 427.98199462890625 620.2250366210938 427.5570068359375 619.800048828125 427.0329895019531 619.800048828125 C 426.5090026855469 619.800048828125 426.083984375 620.2250366210938 426.083984375 620.7490234375 C 426.083984375 621.2730102539062 426.5090026855469 621.697998046875 427.0329895019531 621.697998046875 C 427.5570068359375 621.697998046875 427.98199462890625 621.2730102539062 427.98199462890625 620.7490234375" style="fill:none;stroke:#000000;stroke-width:0.8539999723434448;"/>
  <path d=" M 448.21099853515625 622.4669799804688 C 448.21099853515625 621.9429931640625 447.7850036621094 621.5180053710938 447.2619934082031 621.5180053710938 C 446.73699951171875 621.5180053710938 446.31201171875 621.9429931640625 446.31201171875 622.4669799804688 C 446.31201171875 622.990966796875 446.73699951171875 623.4159545898438 447.2619934082031 623.4159545898438 C 447.7850036621094 623.4159545898438 448.21099853515625 622.990966796875 448.21099853515625 622.4669799804688" style="fill:none;stroke:#000000;stroke-width:0.8539999723434448;"/>
  <path d=" M 228.11900329589844 627.2730102539062 C 228.11900329589844 626.7490234375 227.69400024414062 626.3240356445312 227.1699981689453 626.3240356445312 C 226.64599609375 626.3240356445312 226.22100830078125 626.7490234375 226.22100830078125 627.2730102539062 C 226.22100830078125 627.7969970703125 226.64599609375 628.2219848632812 227.1699981689453 628.2219848632812 C 227.69400024414062 628.2219848632812 228.11900329589844 627.7969970703125 228.11900329589844 627.2730102539062" style="fill:none;stroke:#ff0000;stroke-width:0.8539999723434448;"/>
  <path d=" M 248.34800720214844 625.7360229492188 C 248.34800720214844 625.2130126953125 247.92300415039062 624.7870483398438 247.3990020751953 624.7870483398438 C 246.875 624.7870483398438 246.45001220703125 625.2130126953125 246.45001220703125 625.7360229492188 C 246.45001220703125 626.260009765625 246.875 626.6849975585938 247.3990020751953 626.6849975585938 C 247.92300415039062 626.6849975585938 248.34800720214844 626.260009765625 248.34800720214844 625.7360229492188" style="fill:none;stroke:#ff0000;stroke-width:0.8539999723434448;"/>
  <path d=" M 268.5769958496094 627.06298828125 C 268.5769958496094 626.5399780273438 268.1529846191406 626.114013671875 267.62799072265625 626.114013671875 C 267.1050109863281 626.114013671875 266.67999267578125 626.5399780273438 266.67999267578125 627.06298828125 C 266.67999267578125 627.5869750976562 267.1050109863281 628.0130004882812 267.62799072265625 628.0130004882812 C 268.1529846191406 628.0130004882812 268.5769958496094 627.5869750976562 268.5769958496094 627.06298828125" style="fill:none;stroke:#ff0000;stroke-width:0.8539999723434448;"/>
  <path d=" M 288.8059997558594 636.4080200195312 C 288.8059997558594 635.884033203125 288.3810119628906 635.4590454101562 287.85699462890625 635.4590454101562 C 287.3320007324219 635.4590454101562 286.9079895019531 635.884033203125 286.9079895019531 636.4080200195312 C 286.9079895019531 636.9320068359375 287.3320007324219 637.3569946289062 287.85699462890625 637.3569946289062 C 288.3810119628906 637.3569946289062 288.8059997558594 636.9320068359375 288.8059997558594 636.4080200195312" style="fill:none;stroke:#ff0000;stroke-width:0.8539999723434448;"/>
  <path d=" M 309.0350036621094 624.1580200195312 C 309.0350036621094 623.634033203125 308.6100158691406 623.2090454101562 308.08599853515625 623.2090454101562 C 307.56201171875 623.2090454101562 307.13800048828125 623.634033203125 307.13800048828125 624.1580200195312 C 307.13800048828125 624.6820068359375 307.56201171875 625.1069946289062 308.08599853515625 625.1069946289062 C 308.6100158691406 625.1069946289062 309.0350036621094 624.6820068359375 309.0350036621094 624.1580200195312" style="fill:none;stroke:#ff0000;stroke-width:0.8539999723434448;"/>
  <path d=" M 329.2640075683594 615.5430297851562 C 329.2640075683594 615.01904296875 328.8399963378906 614.5940551757812 328.31500244140625 614.5940551757812 C 327.791015625 614.5940551757812 327.3659973144531 615.01904296875 327.3659973144531 615.5430297851562 C 327.3659973144531 616.0670166015625 327.791015625 616.4920043945312 328.31500244140625 616.4920043945312 C 328.8399963378906 616.4920043945312 329.2640075683594 616.0670166015625 329.2640075683594 615.5430297851562" style="fill:none;stroke:#ff0000;stroke-width:0.8539999723434448;"/>
  <path d=" M 349.4930114746094 609.4439697265625 C 349.4930114746094 608.9209594726562 349.0680236816406 608.4949951171875 348.5450134277344 608.4949951171875 C 348.02001953125 608.4949951171875 347.59600830078125 608.9209594726562 347.59600830078125 609.4439697265625 C 347.59600830078125 609.9679565429688 348.02001953125 610.3939819335938 348.5450134277344 610.3939819335938 C 349.0680236816406 610.3939819335938 349.4930114746094 609.9679565429688 349.4930114746094 609.4439697265625" style="fill:none;stroke:#ff0000;stroke-width:0.8539999723434448;"/>
  <path d=" M 369.72100830078125 598.1069946289062 C 369.72100830078125 597.5819702148438 369.2980041503906 597.156982421875 368.77301025390625 597.156982421875 C 368.2490234375 597.156982421875 367.8240051269531 597.5819702148438 367.8240051269531 598.1069946289062 C 367.8240051269531 598.6309814453125 368.2490234375 599.0549926757812 368.77301025390625 599.0549926757812 C 369.2980041503906 599.0549926757812 369.72100830078125 598.6309814453125 369.72100830078125 598.1069946289062" style="fill:none;stroke:#ff0000;stroke-width:0.8539999723434448;"/>
  <path d=" M 389.95098876953125 621.3709716796875 C 389.95098876953125 620.8469848632812 389.5260009765625 620.4209594726562 389.00299072265625 620.4209594726562 C 388.4779968261719 620.4209594726562 388.0539855957031 620.8469848632812 388.0539855957031 621.3709716796875 C 388.0539855957031 621.8939819335938 388.4779968261719 622.3199462890625 389.00299072265625 622.3199462890625 C 389.5260009765625 622.3199462890625 389.95098876953125 621.8939819335938 389.95098876953125 621.3709716796875" style="fill:none;stroke:#ff0000;stroke-width:0.8539999723434448;"/>
  <path d=" M 410.17999267578125 651.85498046875 C 410.17999267578125 651.3309936523438 409.7559814453125 650.9049682617188 409.2309875488281 650.9049682617188 C 408.7070007324219 650.9049682617188 408.281982421875 651.3309936523438 408.281982421875 651.85498046875 C 408.281982421875 652.3779907226562 408.7070007324219 652.803955078125 409.2309875488281 652.803955078125 C 409.7559814453125 652.803955078125 410.17999267578125 652.3779907226562 410.17999267578125 651.85498046875" style="fill:none;stroke:#ff0000;stroke-width:0.8539999723434448;"/>
  <path d=" M 430.40899658203125 629.5360107421875 C 430.40899658203125 629.0120239257812 429.9840087890625 628.5870361328125 429.4599914550781 628.5870361328125 C 428.9360046386719 628.5870361328125 428.5119934082031 629.0120239257812 428.5119934082031 629.5360107421875 C 428.5119934082031 630.0599975585938 428.9360046386719 630.4849853515625 429.4599914550781 630.4849853515625 C 429.9840087890625 630.4849853515625 430.40899658203125 630.0599975585938 430.40899658203125 629.5360107421875" style="fill:none;stroke:#ff0000;stroke-width:0.8539999723434448;"/>
  <path d=" M 450.63800048828125 634.052001953125 C 450.63800048828125 633.5280151367188 450.2130126953125 633.1019897460938 449.6889953613281 633.1019897460938 C 449.1650085449219 633.1019897460938 448.739990234375 633.5280151367188 448.739990234375 634.052001953125 C 448.739990234375 634.5750122070312 449.1650085449219 635.0009765625 449.6889953613281 635.0009765625 C 450.2130126953125 635.0009765625 450.63800048828125 634.5750122070312 450.63800048828125 634.052001953125" style="fill:none;stroke:#ff0000;stroke-width:0.8539999723434448;"/>
  <path d=" M 230.5469970703125 568.0180053710938 C 230.5469970703125 567.4940185546875 230.1219940185547 567.0690307617188 229.59799194335938 567.0690307617188 C 229.072998046875 567.0690307617188 228.6490020751953 567.4940185546875 228.6490020751953 568.0180053710938 C 228.6490020751953 568.5419921875 229.072998046875 568.9669799804688 229.59799194335938 568.9669799804688 C 230.1219940185547 568.9669799804688 230.5469970703125 568.5419921875 230.5469970703125 568.0180053710938" style="fill:none;stroke:#0039ff;stroke-width:0.8539999723434448;"/>
  <path d=" M 250.7760009765625 591.7849731445312 C 250.7760009765625 591.2599487304688 250.3509979248047 590.8359985351562 249.82699584960938 590.8359985351562 C 249.302001953125 590.8359985351562 248.8780059814453 591.2599487304688 248.8780059814453 591.7849731445312 C 248.8780059814453 592.3089599609375 249.302001953125 592.7339477539062 249.82699584960938 592.7339477539062 C 250.3509979248047 592.7339477539062 250.7760009765625 592.3089599609375 250.7760009765625 591.7849731445312" style="fill:none;stroke:#0039ff;stroke-width:0.8539999723434448;"/>
  <path d=" M 271.0050048828125 581.2880249023438 C 271.0050048828125 580.7640380859375 270.58001708984375 580.3390502929688 270.0559997558594 580.3390502929688 C 269.5320129394531 580.3390502929688 269.1080017089844 580.7640380859375 269.1080017089844 581.2880249023438 C 269.1080017089844 581.81201171875 269.5320129394531 582.238037109375 270.0559997558594 582.238037109375 C 270.58001708984375 582.238037109375 271.0050048828125 581.81201171875 271.0050048828125 581.2880249023438" style="fill:none;stroke:#0039ff;stroke-width:0.8539999723434448;"/>
  <path d=" M 291.2340087890625 585.916015625 C 291.2340087890625 585.3920288085938 290.8080139160156 584.967041015625 290.2850036621094 584.967041015625 C 289.760009765625 584.967041015625 289.33599853515625 585.3920288085938 289.33599853515625 585.916015625 C 289.33599853515625 586.4410400390625 289.760009765625 586.864990234375 290.2850036621094 586.864990234375 C 290.8080139160156 586.864990234375 291.2340087890625 586.4410400390625 291.2340087890625 585.916015625" style="fill:none;stroke:#0039ff;stroke-width:0.8539999723434448;"/>
  <path d=" M 311.4630126953125 594.2529907226562 C 311.4630126953125 593.7279663085938 311.03802490234375 593.302978515625 310.5140075683594 593.302978515625 C 309.9900207519531 593.302978515625 309.56402587890625 593.7279663085938 309.56402587890625 594.2529907226562 C 309.56402587890625 594.7769775390625 309.9900207519531 595.2009887695312 310.5140075683594 595.2009887695312 C 311.03802490234375 595.2009887695312 311.4630126953125 594.7769775390625 311.4630126953125 594.2529907226562" style="fill:none;stroke:#0039ff;stroke-width:0.8539999723434448;"/>
  <path d=" M 331.6919860839844 615.9290161132812 C 331.6919860839844 615.405029296875 331.2669982910156 614.9800415039062 330.74298095703125 614.9800415039062 C 330.218994140625 614.9800415039062 329.7939758300781 615.405029296875 329.7939758300781 615.9290161132812 C 329.7939758300781 616.4530029296875 330.218994140625 616.8779907226562 330.74298095703125 616.8779907226562 C 331.2669982910156 616.8779907226562 331.6919860839844 616.4530029296875 331.6919860839844 615.9290161132812" style="fill:none;stroke:#0039ff;stroke-width:0.8539999723434448;"/>
  <path d=" M 351.9209899902344 619.427001953125 C 351.9209899902344 618.9030151367188 351.4949951171875 618.47802734375 350.9709777832031 618.47802734375 C 350.4469909667969 618.47802734375 350.0220031738281 618.9030151367188 350.0220031738281 619.427001953125 C 350.0220031738281 619.9509887695312 350.4469909667969 620.3759765625 350.9709777832031 620.3759765625 C 351.4949951171875 620.3759765625 351.9209899902344 619.9509887695312 351.9209899902344 619.427001953125" style="fill:none;stroke:#0039ff;stroke-width:0.8539999723434448;"/>
  <path d=" M 372.1499938964844 602.14501953125 C 372.1499938964844 601.6199951171875 371.7239990234375 601.196044921875 371.20098876953125 601.196044921875 C 370.677001953125 601.196044921875 370.2519836425781 601.6199951171875 370.2519836425781 602.14501953125 C 370.2519836425781 602.6690063476562 370.677001953125 603.093994140625 371.20098876953125 603.093994140625 C 371.7239990234375 603.093994140625 372.1499938964844 602.6690063476562 372.1499938964844 602.14501953125" style="fill:none;stroke:#0039ff;stroke-width:0.8539999723434448;"/>
  <path d=" M 392.3789978027344 611.906982421875 C 392.3789978027344 611.3829956054688 391.9540100097656 610.9580078125 391.4289855957031 610.9580078125 C 390.906005859375 610.9580078125 390.4800109863281 611.3829956054688 390.4800109863281 611.906982421875 C 390.4800109863281 612.4309692382812 390.906005859375 612.85595703125 391.4289855957031 612.85595703125 C 391.9540100097656 612.85595703125 392.3789978027344 612.4309692382812 392.3789978027344 611.906982421875" style="fill:none;stroke:#0039ff;stroke-width:0.8539999723434448;"/>
  <path d=" M 412.60699462890625 615.6090087890625 C 412.60699462890625 615.0850219726562 412.1820068359375 614.6600341796875 411.65899658203125 614.6600341796875 C 411.135009765625 614.6600341796875 410.7099914550781 615.0850219726562 410.7099914550781 615.6090087890625 C 410.7099914550781 616.1329956054688 411.135009765625 616.5579833984375 411.65899658203125 616.5579833984375 C 412.1820068359375 616.5579833984375 412.60699462890625 616.1329956054688 412.60699462890625 615.6090087890625" style="fill:none;stroke:#0039ff;stroke-width:0.8539999723434448;"/>
  <path d=" M 432.8370056152344 571.0 C 432.8370056152344 570.4760131835938 432.4120178222656 570.051025390625 431.88800048828125 570.051025390625 C 431.364013671875 570.051025390625 430.9380187988281 570.4760131835938 430.9380187988281 571.0 C 430.9380187988281 571.5239868164062 431.364013671875 571.948974609375 431.88800048828125 571.948974609375 C 432.4120178222656 571.948974609375 432.8370056152344 571.5239868164062 432.8370056152344 571.0" style="fill:none;stroke:#0039ff;stroke-width:0.8539999723434448;"/>
  <path d=" M 376.22698974609375 475.3529968261719 L 444.1369934082031 475.3529968261719 L 444.1369934082031 505.25299072265625 L 376.22698974609375 505.25299072265625 Z " style="fill:none;stroke:#0039ff;stroke-width:0.36000001430511475;"/>
  <text x="398.437,400.855,404.485,408.522,412.559" y="303.174" svg_rhmargin="416.596" style="fill:#000000;font-family:KAILKM+Helvetica;font-size:7.26px;font-style:NORMAL;font-weight:normal;">rcp85</text>
  <text x="398.437,403.28,409.328,411.346,416.189,418.208,420.226,424.263,426.281,430.318,432.736" y="312.472" svg_rhmargin="436.773" style="fill:#000000;font-family:KAILKM+Helvetica;font-size:7.26px;font-style:NORMAL;font-weight:normal;">AMIP future</text>
  <text svg_rhmargin="440.803" x="398.437,403.28,409.328,411.346,416.189,418.208,422.245,425.875,431.117,436.766,440.803" y="355.694" style="fill:#000000;font-family:KAILKM+Helvetica;font-size:7.26px;font-style:NORMAL;font-weight:normal;">AMIP 4xCO2 </text>
  <path d=" M 477.45001220703125 469.79901123046875 L 542.7960205078125 469.79901123046875 L 542.7960205078125 687.6490478515625 L 477.45001220703125 687.6490478515625 Z " style="fill:none;stroke:#000000;stroke-width:0.36000001430511475;"/>
  <text x="474.017" y="355.694" svg_rhmargin="478.16" style="fill:#000000;font-family:KAILKM+Helvetica;font-size:5.74px;font-style:NORMAL;font-weight:normal;">R</text>
  <text x="478.16" y="351.551" svg_rhmargin="482.303" style="fill:#000000;font-family:KAILKM+Helvetica;font-size:5.74px;font-style:NORMAL;font-weight:normal;">C</text>
  <text x="482.303" y="347.407" svg_rhmargin="486.13" style="fill:#000000;font-family:KAILKM+Helvetica;font-size:5.74px;font-style:NORMAL;font-weight:normal;">P</text>
  <text x="486.13" y="343.579" svg_rhmargin="489.32" style="fill:#000000;font-family:KAILKM+Helvetica;font-size:5.74px;font-style:NORMAL;font-weight:normal;">8</text>
  <text x="489.32" y="340.388" svg_rhmargin="492.51" style="fill:#000000;font-family:KAILKM+Helvetica;font-size:5.74px;font-style:NORMAL;font-weight:normal;">5</text>
  <text x="483.893" y="366.308" svg_rhmargin="487.72" style="fill:#000000;font-family:KAILKM+Helvetica;font-size:5.74px;font-style:NORMAL;font-weight:normal;">A</text>
  <text x="487.72" y="362.48" svg_rhmargin="492.5" style="fill:#000000;font-family:KAILKM+Helvetica;font-size:5.74px;font-style:NORMAL;font-weight:normal;">M</text>
  <text x="492.5" y="357.7" svg_rhmargin="494.095" style="fill:#000000;font-family:KAILKM+Helvetica;font-size:5.74px;font-style:NORMAL;font-weight:normal;">I</text>
  <text x="494.095" y="356.104" svg_rhmargin="497.922" style="fill:#000000;font-family:KAILKM+Helvetica;font-size:5.74px;font-style:NORMAL;font-weight:normal;">P</text>
  <text y="352.276" style="fill:#000000;font-family:KAILKM+Helvetica;font-size:5.74px;font-style:NORMAL;font-weight:normal;" svg_rhmargin="499.517" x=""/>
  <text x="499.518" y="350.681" svg_rhmargin="501.113" style="fill:#000000;font-family:KAILKM+Helvetica;font-size:5.74px;font-style:NORMAL;font-weight:normal;">f</text>
  <text x="501.113" y="349.086" svg_rhmargin="504.303" style="fill:#000000;font-family:KAILKM+Helvetica;font-size:5.74px;font-style:NORMAL;font-weight:normal;">u</text>
  <text x="504.303" y="345.895" svg_rhmargin="505.898" style="fill:#000000;font-family:KAILKM+Helvetica;font-size:5.74px;font-style:NORMAL;font-weight:normal;">t</text>
  <text x="505.898" y="344.299" svg_rhmargin="509.088" style="fill:#000000;font-family:KAILKM+Helvetica;font-size:5.74px;font-style:NORMAL;font-weight:normal;">u</text>
  <text x="509.089" y="341.109" svg_rhmargin="511.0" style="fill:#000000;font-family:KAILKM+Helvetica;font-size:5.74px;font-style:NORMAL;font-weight:normal;">r</text>
  <text x="511.0" y="339.197" svg_rhmargin="514.19" style="fill:#000000;font-family:KAILKM+Helvetica;font-size:5.74px;font-style:NORMAL;font-weight:normal;">e</text>
  <text x="503.26" y="369.802" svg_rhmargin="507.087" style="fill:#000000;font-family:KAILKM+Helvetica;font-size:5.74px;font-style:NORMAL;font-weight:normal;">A</text>
  <text x="507.087" y="365.974" svg_rhmargin="511.867" style="fill:#000000;font-family:KAILKM+Helvetica;font-size:5.74px;font-style:NORMAL;font-weight:normal;">M</text>
  <text x="511.867" y="361.194" svg_rhmargin="513.462" style="fill:#000000;font-family:KAILKM+Helvetica;font-size:5.74px;font-style:NORMAL;font-weight:normal;">I</text>
  <text x="513.462" y="359.598" svg_rhmargin="517.289" style="fill:#000000;font-family:KAILKM+Helvetica;font-size:5.74px;font-style:NORMAL;font-weight:normal;">P</text>
  <text y="355.77" style="fill:#000000;font-family:KAILKM+Helvetica;font-size:5.74px;font-style:NORMAL;font-weight:normal;" svg_rhmargin="518.885" x=""/>
  <text x="518.885" y="354.175" svg_rhmargin="522.075" style="fill:#000000;font-family:KAILKM+Helvetica;font-size:5.74px;font-style:NORMAL;font-weight:normal;">4</text>
  <text x="522.075" y="350.984" svg_rhmargin="524.944" style="fill:#000000;font-family:KAILKM+Helvetica;font-size:5.74px;font-style:NORMAL;font-weight:normal;">x</text>
  <text x="524.944" y="348.115" svg_rhmargin="529.087" style="fill:#000000;font-family:KAILKM+Helvetica;font-size:5.74px;font-style:NORMAL;font-weight:normal;">C</text>
  <text x="529.087" y="343.971" svg_rhmargin="533.551" style="fill:#000000;font-family:KAILKM+Helvetica;font-size:5.74px;font-style:NORMAL;font-weight:normal;">O</text>
  <text x="533.552" y="339.506" svg_rhmargin="536.742" style="fill:#000000;font-family:KAILKM+Helvetica;font-size:5.74px;font-style:NORMAL;font-weight:normal;">2</text>
  <text x="469.156,471.487" y="332.625" svg_rhmargin="475.379" style="fill:#000000;font-family:KAILKM+Helvetica;font-size:7.0px;font-style:NORMAL;font-weight:normal;">-4</text>
  <text x="469.156,471.487" y="305.393" svg_rhmargin="475.379" style="fill:#000000;font-family:KAILKM+Helvetica;font-size:7.0px;font-style:NORMAL;font-weight:normal;">-3</text>
  <text x="469.156,471.487" y="278.16200000000003" svg_rhmargin="475.379" style="fill:#000000;font-family:KAILKM+Helvetica;font-size:7.0px;font-style:NORMAL;font-weight:normal;">-2</text>
  <text x="469.156,471.487" y="250.92999999999995" svg_rhmargin="475.379" style="fill:#000000;font-family:KAILKM+Helvetica;font-size:7.0px;font-style:NORMAL;font-weight:normal;">-1</text>
  <text x="471.487" y="223.69899999999996" svg_rhmargin="475.379" style="fill:#000000;font-family:KAILKM+Helvetica;font-size:7.0px;font-style:NORMAL;font-weight:normal;">0</text>
  <text x="471.487" y="196.46900000000005" svg_rhmargin="475.379" style="fill:#000000;font-family:KAILKM+Helvetica;font-size:7.0px;font-style:NORMAL;font-weight:normal;">1</text>
  <text x="471.487" y="169.23800000000006" svg_rhmargin="475.379" style="fill:#000000;font-family:KAILKM+Helvetica;font-size:7.0px;font-style:NORMAL;font-weight:normal;">2</text>
  <text x="471.487" y="142.00699999999995" svg_rhmargin="475.379" style="fill:#000000;font-family:KAILKM+Helvetica;font-size:7.0px;font-style:NORMAL;font-weight:normal;">3</text>
  <text svg_rhmargin="475.379" x="471.487,475.379" y="108.57100000000003" style="fill:#000000;font-family:KAILKM+Helvetica;font-size:7.0px;font-style:NORMAL;font-weight:normal;">4 </text>
  <text x="484.284,489.271,494.751,502.222,504.716,509.703,515.183,518.672,523.659,528.646" y="108.57100000000003" svg_rhmargin="534.126" style="fill:#000000;font-family:KAILKN+Helvetica-Bold;font-size:8.97px;font-style:NORMAL;font-weight:bold;">JFM spread</text>
  <text svg_rhmargin="235.845" x="226.955,232.515,235.845" y="107.71000000000004" style="fill:#000000;font-family:KAILKM+Helvetica;font-size:10.0px;font-style:NORMAL;font-weight:normal;">a) </text>
  <text x="460.993,466.553" y="107.71000000000004" svg_rhmargin="469.883" style="fill:#000000;font-family:KAILKM+Helvetica;font-size:10.0px;font-style:NORMAL;font-weight:normal;">b)</text>
  <text svg_rhmargin="204.156" x="172.872,176.922,179.118,183.798,188.459,191.438,195.66199999999998,197.639,202.076,204.156" y="384.998" style="fill:#000000;font-family:KAHOOD+MyriadPro-Bold;font-size:8.0px;font-style:NORMAL;font-weight:bold;">Figure 3. </text>
  <text x="206.154,208.424,212.278,214.54999999999998,216.535,221.174,227.604,229.514,233.769,237.87300000000002,239.853,246.522,250.928,252.814,255.461,257.331,264.002,268.392,272.902,276.909,278.79699999999997,280.788,287.458,291.465,295.319,299.759,301.745,304.282,308.289,311.455,316.006,320.396,324.834,328.001,332.00899999999996,333.995,336.262,340.365,344.467,346.922,353.592,357.982,362.493,366.499,368.387,370.379,373.545,377.951,382.502,385.668,389.675,392.321,394.593,396.578,398.45,402.89,404.867,407.512,411.951,415.959,417.944,423.207,427.597,430.405,433.051,437.491,439.467,444.283,446.929,448.815,452.67,457.108,459.755,461.625,465.209,467.205,469.149,473.155,475.803,477.781,479.667,483.522,486.168,488.039,490.685,495.091,499.602,503.608,505.264,507.262,511.564,516.203,520.457,524.559,526.214,530.316,532.771,537.209,539.079,542.246,544.847,549.237,551.851,553.722,557.304,561.159" y="384.998" svg_rhmargin="563.047" style="fill:#000000;font-family:KAIKOL+MyriadPro-Regular;font-size:8.0px;font-style:NORMAL;font-weight:normal;">(a) CMIP5 multimodel mean response (10-model subset) in the North Atlantic jet latitude: RCP8.5-historical</text>
  <text x="172.872,175.138,179.685,181.567,185.418,188.996,192.742,195.009,196.665,198.654,203.544,209.97,211.877,216.127,219.745,224.154,226.797,231.199,233.737,237.742,240.192,245.082,251.509,253.415,257.671,259.661,261.929,264.466,268.469,272.975,275.242,276.898,278.886,282.738,287.173,291.685,293.67,298.561,304.987,306.894,311.144,315.242,318.941,323.414,328.922,333.02,335.47,340.361,346.787,348.694,352.95000000000005,354.939,357.206,361.752,363.634,368.037,372.039,374.306,375.962,377.95,381.874,386.311,390.31899999999996,392.296,396.067,400.07,402.878,405.52,407.386,410.965,414.815,416.703,418.694,423.248,427.098,429.709,432.877,434.857,439.285,441.151,444.922,448.93,450.898,454.997,459.095,465.43100000000004,467.411,470.948,475.34,479.774,483.953,488.459,492.462,496.896,500.433,504.441,506.426,508.298,512.733,515.334,519.336,522.153,525.995,529.846,531.728,534.896,536.894,541.28,545.72,547.697,550.339,554.774" y="394.961" svg_rhmargin="558.782" style="fill:#000000;font-family:KAIKOL+MyriadPro-Regular;font-size:8.0px;font-style:NORMAL;font-weight:normal;">(black), AMIPFuture-AMIP (red), and AMIP4xCO2-AMIP (blue). The vertical bars give 95% condence intervals on the</text>
  <text x="172.872,179.543,183.95,185.838,188.485,190.356,197.027,201.418,205.93,209.937,211.82500000000002,213.816,220.487,224.494,228.35,232.79,234.775,237.313,241.32,244.487,249.038,253.43,257.869,261.036,265.044,267.03,271.538,275.946,279.954,281.93,284.531,288.923,290.903,292.774,297.214,299.814,303.819,306.434,310.874,314.729,316.61699999999996,318.608,322.455,326.31,328.926,330.797,334.652,339.203,341.074,342.962,344.833,347.55,351.006,352.662,354.642,356.914,361.465,363.73699999999997,365.713,371.04,372.911,376.078,378.726,381.341,383.212,387.763,392.17,394.818,396.689,401.08,405.52,407.497,411.888,414.224,416.199,418.846,423.286,427.294,429.279,435.95,439.958,443.813,448.253,450.248,453.209,456.962,463.394,465.367,467.31,471.318,473.966,475.953,477.842,481.698,484.345,486.216,488.863,493.27,497.782,501.78999999999996,503.775,506.313,510.32,513.487,518.038,522.43,526.869,530.036,534.044,536.03,539.882,543.465,546.002,550.394,553.561,556.729,558.709,561.356,565.795" y="404.924" svg_rhmargin="569.803" style="fill:#000000;font-family:KAIKOL+MyriadPro-Regular;font-size:8.0px;font-style:NORMAL;font-weight:normal;">multimodel mean response due to internal variability. (b) Distribution of the mean JFM jet latitude response across the</text>
  <text x="172.872,177.509,183.938,185.846,190.099,194.203,196.174,202.843,207.232,211.741,215.746,217.63,220.708,222.364,224.353,228.277,232.714,236.722,238.707,243.144,247.533,250.188,252.057,255.422,259.811,264.248,266.893,270.746,272.63399999999996,274.625,279.178,283.031,285.647,287.621,292.049,293.921,297.692,301.697,304.865,306.845,309.49,313.927,317.935,319.921,326.59,330.594,335.103,336.972,340.825,345.262,346.918,348.915,351.561,355.997,360.005,361.991,366.54,370.824,374.415,378.42,381.588,383.549,388.058,392.063,393.948,395.817,402.485,404.354,407.002,408.989,411.634,416.071,420.079,422.065,423.937,428.373,430.974,434.979,437.517,442.017,446.422,450.275,453.083,455.728,457.597,459.481,463.489,465.485,468.097,471.95,476.387,480.856,484.761,486.41700000000003,488.406,492.259,496.696,501.208,503.193,505.839,510.276,514.284,516.269,522.154,526.591,528.46,531.625,535.373,539.378,541.991,545.159,547.139,551.648,555.653,557.537,559.406,566.075,567.944" y="414.888" svg_rhmargin="570.592" style="fill:#000000;font-family:KAIKOL+MyriadPro-Regular;font-size:8.0px;font-style:NORMAL;font-weight:normal;">CMIP5 models. The horizontal bar gives the median, the boxes delimit the interquartile range, and the whiskers delimit</text>
  <text x="172.872,175.516,179.952,183.96,185.946,192.614,196.466,200.166,202.034,208.702,213.106,219.778,221.755,224.367,228.219,232.655,237.123,241.029" y="424.851" svg_rhmargin="242.685" style="fill:#000000;font-family:KAIKOL+MyriadPro-Regular;font-size:8.0px;font-style:NORMAL;font-weight:normal;">the maximum range.</text>
  <text x="172.872,175.725,180.232,183.794,188.914,193.853,198.846,202.408,206.91699999999997,210.382,212.486,217.481,220.955,225.796,231.014,235.8,240.415,242.276,246.893,250.358,253.283,258.224,261.689,264.667,269.66,273.996,276.97499999999997,280.449,282.96,287.899,292.856,297.85,302.92600000000004,306.391,311.348,316.341,321.415,325.922,328.865,332.339,335.317,340.31,344.819,348.284,353.79,361.024,363.173,367.96,372.028,376.985,379.962,384.919,387.772,392.281,395.746,400.082,405.076,410.15200000000004,413.626,419.132,426.366,428.515,433.301,437.917,442.082,447.113,453.312,457.92900000000003,461.394,465.901,470.066,475.186,479.693,482.634,484.738,492.242,496.75,501.743,504.72,508.185,510.048,513.522,520.144,525.137,529.645,532.498,537.0070000000001,540.472,544.034,548.541,552.879,556.344,558.448,562.426,566.9350000000001,570.409,572.515" y="454.181" svg_rhmargin="576.079" style="fill:#000000;font-family:KAIKOL+MyriadPro-Regular;font-size:9.0px;font-style:NORMAL;font-weight:normal;">response in RCP8.5 to that found under the AMIPFuture and AMIP4xCO2 experiments, where sea ice is</text>
  <text x="172.872,177.835,182.833,187.958,192.47,195.629,198.612,203.575,206.521,211.646,216.158,221.144" y="466.412" svg_rhmargin="223.007" style="fill:#000000;font-family:KAIKOL+MyriadPro-Regular;font-size:9.0px;font-style:NORMAL;font-weight:normal;">unperturbed.</text>
  <text x="172.872,177.868,180.209,185.205,187.54500000000002,190.533,195.34,199.246,202.55,205.017,212.758,217.438,220.742,223.209,228.484,233.749,235.729,239.033,244.308,249.06,251.04,253.606,261.346,266.729,271.482,275.685,278.988,280.968,286.161,289.23,291.21,296.133,300.886,305.63800000000003,307.618,310.184,314.144,318.896,320.876,325.394,330.588,334.495" y="482.639" svg_rhmargin="338.401" style="fill:#0a3a69;font-family:KAHOOD+MyriadPro-Bold;font-size:9.0px;font-style:NORMAL;font-weight:bold;">3.2. Estimating the Impact of Sea Ice Loss</text>
  <text x="172.872,177.282,182.277,186.786,188.595,196.099,201.056,203.179,206.156,208.26,215.764,220.703,225.778,230.285,232.409,234.218,241.722,246.229,250.565,255.56,257.378,259.564,264.071,267.05,268.859,270.981,275.317,278.294,280.399,283.376,288.333,293.407,297.916,299.725,302.578,307.085,310.648,315.767,320.706,325.699,329.261,333.77000000000004,335.588,337.693,342.688,344.497,347.474,352.467,356.976,358.785,364.291,371.525,373.675,378.461,382.529,387.486,390.463,395.42,398.273,402.78200000000004,404.591,408.928,413.921,418.997,420.815,426.321,433.555,435.704,440.491,445.106,449.271,454.302,460.501,465.118,466.927,471.434,475.599,480.719,485.226,488.167,490.271,497.775,502.283,507.276,510.253,513.817,515.626,519.962,522.815,527.3240000000001,529.142,534.263,537.116,541.624,545.186,549.693,554.686,557.611,562.12,567.196,569.005,571.111" y="494.969" svg_rhmargin="576.106" style="fill:#000000;font-family:KAIKOL+MyriadPro-Regular;font-size:9.0px;font-style:NORMAL;font-weight:normal;">The multimodel mean jet latitude response in the AMIPFuture and AMIP4xCO2 experiments are presented in</text>
  <text x="172.872,177.021,179.125,184.154,189.112,191.965,196.474,198.374,202.989,207.325,209.188,211.078,214.003,218.942,223.971,228.479,231.456,236.449,240.956,243.899,245.798,252.42,254.525,257.502,262.497,264.396,267.373,272.366,276.875,278.774,286.278,290.785,295.122,300.117,302.016,304.869,309.376,312.938,318.057,322.996,327.99,331.552,336.06100000000004,337.96,340.064,345.059,346.949,349.926,354.919,359.428,361.327,366.168,371.386,376.172,380.787,382.648,387.26500000000004,389.164,392.727,396.705,401.212,406.205,410.541,413.482,415.587,420.52799999999996,422.427,426.934,431.261,435.597,437.719,442.677,447.013,449.938,454.447,459.523,461.422,463.933,468.872,471.815,473.714,476.691,481.684,486.19300000000004,488.083,492.699,497.31600000000003,499.215,503.193,508.132,513.089,518.208,520.33,524.838,529.914,531.813,539.317,544.256,549.33,553.838,555.96,559.524,561.423,565.401,570.342,573.283" y="507.209" svg_rhmargin="576.046" style="fill:#000000;font-family:KAIKOL+MyriadPro-Regular;font-size:9.0px;font-style:NORMAL;font-weight:normal;">Figure 3a, together with the mean response in the RCP8.5 scenario evaluated for the 10 coupled models cor-</text>
  <text x="172.872,175.725,180.233,183.796,188.916,193.856,198.85,203.926,206.031,211.025,216.056,217.883,220.808,225.749,227.576,230.554,235.548,240.05700000000002,241.893,247.4,254.635,256.785,261.57300000000004,263.4,267.908,272.074,277.195,281.703,284.645,286.75,294.255,298.763,303.757,306.735,310.2,312.063,313.89,321.459,326.453,328.558,330.682,335.19100000000003,337.018,342.138,347.078,350.056,355.051,356.887,359.865,364.859,369.368,371.195,375.631,380.067,384.54,386.367,388.878,393.819,396.672,400.703,402.808,407.803,412.834,414.661,417.118,422.59,429.825,431.975,436.762,440.83,445.788,448.766,453.724,456.577,461.085,463.64099999999996,465.477,469.814,474.809,479.88500000000005,481.712,486.742" y="519.44" svg_rhmargin="492.943" style="fill:#000000;font-family:KAIKOL+MyriadPro-Regular;font-size:9.0px;font-style:NORMAL;font-weight:normal;">responding to the AMIP experiments. While both the SST forcing (AMIPFuture) and CO</text>
  <text svg_rhmargin="496.153" x="492.948,496.15299999999996" y="519.44" style="fill:#000000;font-family:KAIKOL+MyriadPro-Regular;font-size:6.25px;font-style:NORMAL;font-weight:normal;">2 </text>
  <text x="498.483,500.994,505.935,508.788,512.82,514.926,519.921,524.952,526.779,529.236,534.708,541.944,544.095,548.883,553.5,557.667,562.698,568.899,573.516" y="519.44" svg_rhmargin="576.072" style="fill:#000000;font-family:KAIKOL+MyriadPro-Regular;font-size:9.0px;font-style:NORMAL;font-weight:normal;">forcing (AMIP4xCO2)</text>
  <text x="172.872,177.207,180.06,184.56900000000002,187.287,189.391,194.383,199.456,201.559,205.886,207.989,213.062,218.019,222.354,224.475,226.597,230.836,233.554,237.115,242.071,249.404,253.433,255.536,260.042,265.035,268.014,270.732,273.657,278.59799999999996,281.316,286.344,290.85,295.843,300.349,303.289,307.624,310.549,315.058,317.776,322.11400000000003,324.832,329.951,334.889,337.01,341.517,348.138,352.473,355.326,360.40200000000004,363.12,366.682,371.674,373.777,376.504,379.483,382.201,387.142,389.77,392.488,395.464,400.457,404.966,407.684,413.603,418.541,421.7,424.677,429.672,432.39,437.808,440.784,442.905,447.241,452.233,455.209,457.312,461.344,464.062,466.247,470.753,473.729,475.592,478.319,483.312,487.818,489.921,492.897,497.89,502.396,505.339,508.057,512.995,515.623,518.341,521.318,526.31,530.816,538.322,541.04,543.144,546.708,549.426,553.761,558.879,561.0,565.509,568.227,571.152" y="531.6800000000001" svg_rhmargin="576.093" style="fill:#000000;font-family:KAIKOL+MyriadPro-Regular;font-size:9.0px;font-style:NORMAL;font-weight:normal;">are individually sucient to generate a poleward shift of the North Atlantic jet, neither of them is able to</text>
  <text x="172.872,175.725,180.233,185.353,188.206,193.146,198.221,203.179,207.157,211.666,213.808,216.787,221.781,226.29000000000002,228.432,231.995,234.1,239.077,244.071,246.176,250.882,254.913,259.25,264.244,267.223,269.365,272.929,277.887,283.007,288.127,290.98,295.488,299.051,302.614,304.719,309.659,314.654,316.796,321.736,324.364,326.507,329.485,334.479,338.988,341.13,343.316,347.824,350.803,352.945,356.508,361.502,363.607,366.334,369.313,371.455,373.966,378.906,383.864,388.859,393.935,396.077,398.182,403.177,405.319,408.648,412.869,420.105,422.247,424.353,429.348,431.49,434.468,439.462,443.971,446.113,450.954,456.173,460.96,465.576,467.439,472.05600000000004,474.198,477.761,481.739,486.247,491.241,495.578,498.52,500.625,505.566,507.708,510.263,514.412,516.517,521.547,526.506,529.359,533.868,536.022,540.638,544.975,547.53,549.393,551.535,553.776,558.771,560.913,566.034,570.371,573.313" y="543.9110000000001" svg_rhmargin="576.076" style="fill:#000000;font-family:KAIKOL+MyriadPro-Regular;font-size:9.0px;font-style:NORMAL;font-weight:normal;">reproduce the signicant suppression of the jet shift found in JFM in the RCP8.5 scenario (Figure 3a). In par-</text>
  <text x="172.872,175.85,177.955,181.986,186.944,189.067,193.405,195.871,197.734,199.948,202.054,207.049,209.254,214.726,221.961,224.111,228.898,233.514,237.68,242.711,248.911,253.528,255.742,258.72,263.714,268.223,270.437,275.557,280.498,282.621,287.129,293.752,298.089,300.942,306.01800000000003,308.232,311.795,316.789,318.894,321.621,324.59999999999997,326.814,331.755,334.383,336.588,339.566,344.56,349.069,351.283,353.47,357.978,360.957,363.171,365.276,368.84000000000003,371.054,373.177,377.514,380.385,385.415,389.923,393.486,396.465,398.679,400.784,405.779,407.984,410.962,415.957,420.466,422.68,426.658,431.598,433.721,438.797,441.011,444.574,449.082,453.419,456.982,461.922,466.916,468.779,470.993,475.33,480.325,485.401,487.615,491.952,494.075,501.58,506.52,510.083,513.062,515.267,519.604,521.727,523.851,526.065,533.57,538.511,543.586,548.094,550.217,553.781,555.995,559.558,564.552,569.43" y="556.1510000000001" svg_rhmargin="576.054" style="fill:#000000;font-family:KAIKOL+MyriadPro-Regular;font-size:9.0px;font-style:NORMAL;font-weight:normal;">ticular, in AMIP4xCO2 the poleward shift of the jet is largest in the cold season, and almost all models show</text>
  <text x="172.872,177.21,179.325,184.444,189.383,191.506,196.013,202.635,206.971,209.824,214.9,217.006,220.568,225.562,227.666,230.393,233.372,235.487,240.428,243.05599999999998,245.171,248.148,253.141,257.65,259.765,261.95,266.458,269.437,271.543,273.647,278.642,280.757,284.085,288.306,295.542,297.657,300.213,304.362,306.466,311.495,316.453,319.306,323.815,325.935,330.55,335.669,338.224,340.087,342.202,347.71,349.815,353.378,355.5,357.604,362.633,367.626,370.60499999999996,372.72,376.283,381.24,386.359,391.478,394.331,398.838,402.401,405.963,408.067,413.006,418.001,420.116,425.055,427.683,429.798,432.776,437.769,442.278,444.384,449.503,454.442,456.564,461.072,467.694,472.03,474.883,479.959,482.074,485.636,490.629,492.734,495.461,498.44,500.555,505.496,508.12399999999997,510.239,513.216,518.209,522.718,524.833,527.018,531.525,534.504,536.61,538.715,542.279,544.394,546.905,551.844,556.801,561.794,566.87,568.985,571.089" y="568.3820000000001" svg_rhmargin="576.084" style="fill:#000000;font-family:KAIKOL+MyriadPro-Regular;font-size:9.0px;font-style:NORMAL;font-weight:normal;">a poleward shift of the jet in JFM (Figure 3b). A slight suppression of the poleward shift of the jet is found in</text>
  <text x="172.872,174.994,179.33,182.255,186.764,189.005,195.628,197.732,202.725,205.65,210.159,213.102,215.352,217.458,222.453,224.694,230.166,237.4,239.549,244.336,248.404,253.361,256.338,261.295,264.148,268.549,270.412,272.653,277.772,282.73,285.709,287.959,290.936,295.929,300.438,302.679,310.183,315.14,317.263,320.24,322.344,329.848,334.787,339.862,344.369,346.49300000000005,348.743,356.247,360.754,365.09,370.085,372.326,375.889,378.866,380.97,383.092,385.216,387.466,391.028,396.022,400.9,407.47,411.03400000000005,413.275,417.613,419.854" y="580.6220000000001" svg_rhmargin="424.471" style="fill:#000000;font-family:KAIKOL+MyriadPro-Regular;font-size:9.0px;font-style:NORMAL;font-weight:normal;">late winter in AMIPFuture, but the multimodel mean still shows a 1</text>
  <text svg_rhmargin="427.607" x="424.458,427.607" y="580.6220000000001" style="fill:#000000;font-family:KAILCM+STIXMath-Regular;font-size:9.0px;font-style:NORMAL;font-weight:normal;"> </text>
  <text x="430.353,435.473,440.413,442.536,447.044,453.667,458.005,460.858,465.934,468.175,471.738,476.732,478.837,481.564,484.542,486.405,488.655,493.065,498.059,502.567,505.42,509.928,512.439,517.379,520.232,524.633,526.4960000000001,528.737,531.716,536.71,541.218,544.781,549.29,551.54,554.393,558.901,562.464,567.422,569.545,572.523" y="580.6220000000001" svg_rhmargin="576.087" style="fill:#000000;font-family:KAIKOL+MyriadPro-Regular;font-size:9.0px;font-style:NORMAL;font-weight:normal;">poleward shift. Therefore, these results</text>
  <text x="172.872,176.435,181.393,186.513,191.633,196.574,199.732,202.711,204.943,207.922,212.916,217.425,219.648,224.526,228.764,233.884,238.824,241.802,246.796,251.304,254.867,256.972,260.536,262.768,265.747,270.741,275.078,278.05699999999996,280.289,284.725,289.161,293.634,295.866,300.203,305.197,310.273,312.505,317.536" y="592.862" svg_rhmargin="323.737" style="fill:#000000;font-family:KAIKOL+MyriadPro-Regular;font-size:9.0px;font-style:NORMAL;font-weight:normal;">support the hypothesis that SST and CO</text>
  <text svg_rhmargin="326.926" x="323.721,326.926" y="592.862" style="fill:#000000;font-family:KAIKOL+MyriadPro-Regular;font-size:6.25px;font-style:NORMAL;font-weight:normal;">2 </text>
  <text x="329.652,332.163,337.104,339.957,343.986,346.09,351.082,355.978,357.841,360.073,362.179,367.174,369.406,372.382,377.375,381.884,384.107,388.442,393.56,397.121,401.628,406.62,410.598,415.107,417.339,422.28,424.90799999999996,427.14,430.701,435.208,439.54600000000005,441.778,443.881,447.859,452.368,454.6,458.629,463.621,467.957,472.949,477.977,482.484,485.949,487.812,490.035,494.373,497.226,501.735,503.967,508.923,513.915,518.251,523.369,525.49,529.999,532.231,535.156,540.097,542.329,547.357,551.864,556.856,561.362,564.303,568.638,571.563" y="592.862" svg_rhmargin="576.072" style="fill:#000000;font-family:KAIKOL+MyriadPro-Regular;font-size:9.0px;font-style:NORMAL;font-weight:normal;">forcing, in the absence of sea ice changes, are unable to generate</text>
  <text x="172.872,175.849,180.842,185.351,187.259,189.382,193.718,196.643,201.152,203.06,209.682,211.786,216.779,219.704,224.213,227.156,229.064,232.627,237.584,242.703,247.822,250.675,255.182,258.745,262.307,264.411,269.35,274.345,276.253,281.192,283.82,285.728,288.706,293.699,298.208,300.116,306.036,310.975,314.134,317.111,322.106,324.014,329.432,332.41,334.532,338.868,343.861,346.838,348.943,352.97499999999997,354.883,360.002,364.941,367.063,371.57,378.193,382.529,385.382,390.458,392.366,394.551,399.058,402.037,403.945,407.507,412.501,414.605,417.332,420.311,422.219,424.73,429.669,434.626,439.619,444.69500000000005,446.603,448.707,453.702,455.61,458.588,463.581,468.09000000000003,469.998,474.838,480.056,484.842,489.458,491.319,495.93600000000004,497.844,502.963,505.816,510.755,512.94,517.448,521.597,524.574,526.678,531.617,536.61,540.075" y="605.093" svg_rhmargin="541.938" style="fill:#000000;font-family:KAIKOL+MyriadPro-Regular;font-size:9.0px;font-style:NORMAL;font-weight:normal;">the late winter suppression of the North Atlantic poleward jet shift found in the RCP8.5 projections.</text>
  <text x="172.872,176.706,181.647,183.069,188.135,193.093,197.43,202.424,205.402,207.508,210.486,214.823,217.801,219.906,224.145,228.653,230.776,235.01500000000001,236.437,240.945,245.111,250.232,252.355,257.295,260.148,264.65700000000004,266.079,269.057,274.051,278.56,279.982,282.835,287.775,289.898,294.40700000000004,295.829,300.769,303.397,304.819,308.382,312.89,317.228,318.65,320.756,324.734,329.243,330.665,332.788,337.728,341.291,344.855,346.277,348.382,353.377,354.799,358.128,362.349,369.584,371.447,372.869,379.403,383.91200000000003,385.334,390.328,395.206,401.83000000000004,403.252,407.23,412.17,419.676,424.796,429.133,431.986,436.495,437.917,440.023,445.01800000000003,446.44,450.589,452.694,457.724,462.682,465.535,470.04400000000004,471.477,476.094,477.516,480.494,485.488,489.997,491.419,496.26,501.479,506.266,510.882,512.744,517.361,518.783,521.636,526.145,529.708,534.828,539.768,544.762,548.325,552.8340000000001,554.256,557.181,562.1220000000001,563.544,566.522,571.516" y="622.31" svg_rhmargin="576.025" style="fill:#000000;font-family:KAIKOL+MyriadPro-Regular;font-size:9.0px;font-style:NORMAL;font-weight:normal;">To quantitatively explore the role of sea ice loss in JFM, we now compare in Figure 4 the RCP8.5 response to the</text>
  <text x="172.872,176.85,181.79,189.295,194.415,196.52,201.514,206.023,211.099,213.052,218.559,225.794,227.944,232.534,236.097,239.66,242.638,248.001,251.979,256.919,261.536,263.48,270.985,275.494,279.831,284.826,286.779,289.632,294.14,297.703,302.823,307.763,312.757,316.32,320.829,322.782,325.337,328.9,333.409,337.918,339.861,343.425,347.933,352.082,355.06,357.165,362.105,367.1,369.06,373.676,375.538,380.154,382.71,384.573,386.526,390.36,395.301,397.245,401.753,405.316,408.294,410.399,417.904,422.241,425.166,429.675,431.628,434.481,439.421,444.541,449.499,453.062,456.041,461.035,465.543,469.106,472.67,474.623,477.178,479.283,484.277,489.352,491.457,495.488,499.826,502.751,507.26,512.336,514.279,518.617,522.1809999999999,524.135,527.698,530.676,532.781,537.901,543.021,545.144,547.249,552.243,557.273,559.829,561.692,563.645,566.623,571.617" y="634.55" svg_rhmargin="576.126" style="fill:#000000;font-family:KAIKOL+MyriadPro-Regular;font-size:9.0px;font-style:NORMAL;font-weight:normal;">combined AMIPsst+co2 mean response (see section 2.2). To estimate robustness (indicated as stippling), the</text>
  <text x="172.872,176.436,180.468,184.806,186.93,189.036,194.031,199.062,200.511,203.139,205.992,210.933,219.888,224.397,229.464,234.423,238.761,241.74,243.846,248.787,253.782,255.231,257.787,262.404,264.96,266.409,271.404,275.742,279.30600000000004,280.755,285.876,290.385,294.894,299.889,301.338,305.676,310.797,315.918,318.042,320.148,324.657,329.733,331.182,334.107,339.048,340.497,343.476,348.471,352.98,354.429,356.535,361.53,366.606,368.712,373.041,375.147,380.223,385.182,389.52,391.644,393.093,400.599,405.54,410.616,415.125,417.249,420.714,422.577,424.026,427.59,432.53099999999995,433.98,438.318,441.882,443.331,446.256,451.19699999999995,452.646,457.767,462.105,464.211,467.379,474.003,476.109,479.673,484.182,485.631,489.609,494.55,502.056,507.177,511.515,514.368,518.8770000000001,520.326,523.305,528.3,532.809,534.258,539.1,544.32,549.108,553.725,555.588,560.2049999999999,561.654,565.992,570.987" y="646.781" svg_rhmargin="576.063" style="fill:#000000;font-family:KAIKOL+MyriadPro-Regular;font-size:9.0px;font-style:NORMAL;font-weight:normal;">scaling fromequation (1) has been applied to the individual models, so as to pairwise compare the RCP8.5 and</text>
  <text x="172.872,178.378,185.612,187.762,192.352,195.914,199.476,202.453,207.815,211.793,216.733,221.35,223.546,226.399,230.906,234.468,239.587,244.526,249.52,253.082,257.589,261.054,262.917,265.113,269.523,274.516,279.023,282.586,287.095,289.291,292.144,297.083,302.202,307.159,310.721,313.699,318.692,323.199,326.761,330.32500000000005,332.53,337.037,340.6,343.577,345.681,353.185,357.521,360.446,364.955,368.519,370.715,375.053,377.906,382.415,384.611,388.589,393.529,398.522,402.084,406.591,409.759,414.086,418.423,421.4,423.504,427.743,432.252,434.448,438.786,442.35,444.546,447.523,452.517,457.026,459.222,464.341,468.677,471.654,474.579,479.086,482.028,487.021,490.58500000000004,492.781,494.885,499.88,502.076,505.053,510.046,514.555,516.76,521.196,525.631,530.1039999999999,532.3,535.153,539.66,543.222,548.341,553.281,558.274,561.836,566.345,568.541,573.48" y="659.021" svg_rhmargin="576.108" style="fill:#000000;font-family:KAIKOL+MyriadPro-Regular;font-size:9.0px;font-style:NORMAL;font-weight:normal;">AMIPsst+co2 responses. These robustness estimates are conservative as the patterns in the SST response of</text>
  <text x="172.872,177.208,182.203,184.453,186.557,191.551,196.625,198.729,203.056,205.16,210.235,215.192,219.528,221.652,223.902,231.406,236.345,241.42,245.927,248.051,250.31,252.414,257.409,259.659,264.499,269.717,274.504,279.119,280.98,285.59700000000004,287.847,294.469,296.573,298.696,300.82000000000005,303.07,305.174,310.169,312.419,317.448,321.955,326.948,331.456,334.397,338.733,340.857,343.116,348.235,352.744,354.994,360.068,362.173,367.303,371.81,374.663,379.17,384.163,387.142,389.392,392.02,394.873,399.814,407.32000000000005,409.57,412.547,417.541,421.877,424.856,427.115,429.221,434.216,436.466,441.938,449.172,451.321,456.107,460.175,465.133,468.11,473.067,475.92,480.321,482.184,484.434,488.77,493.763,498.839,501.089,504.067,509.06,513.567,517.129,521.638,523.897,528.332,532.768,537.241,539.49,543.818,548.154,551.095,553.199,557.535,560.513,562.617,567.556,572.549" y="671.252" svg_rhmargin="576.113" style="fill:#000000;font-family:KAIKOL+MyriadPro-Regular;font-size:9.0px;font-style:NORMAL;font-weight:normal;">an individual model in RCP8.5 will in general be dierent from that in AMIPFuture, and these SST variations</text>
  <text x="172.872,176.904,181.242,186.237,188.145,195.651,199.989,203.553,207.774,209.682,212.661,217.656,222.16500000000002,224.073,228.051,232.992,237.987,242.496,245.349,249.858,254.853,258.831,263.34000000000003,265.248,267.354,272.349,274.257,277.236,282.231,286.74,288.648,292.212,294.318,299.295,304.29,308.628,310.752,312.66,315.288,318.141,323.082,330.58799999999997,332.496,336.06,340.569,344.90700000000004,346.815,348.921,352.899,357.408,359.316,361.44,366.381,369.945,373.41" y="683.492" svg_rhmargin="375.273" style="fill:#000000;font-family:KAIKOL+MyriadPro-Regular;font-size:9.0px;font-style:NORMAL;font-weight:normal;">can mask the coherence in the signal from sea ice loss.</text>
  <text x="172.872,177.021,179.126,184.156,189.114,191.967,196.475,200.039,201.714,206.33,211.478,216.788,221.405,225.437,227.12,230.684,235.678,240.556,247.18,248.854,251.832,256.826,261.163,264.142,265.816,270.657,275.876,280.663,285.279,287.141,291.75800000000004,293.441,295.546,299.11,300.784,304.816,309.81,314.147,317.089,321.426,325.575,328.5,333.009,335.951,338.056,341.845,346.354,351.43,353.113,358.171,362.40999999999997,364.084,367.647,372.605,377.725,381.288,384.267,388.604,393.598,396.576,398.681,403.018,405.141,407.264,411.503,413.177,415.3,419.637,422.508,427.539,432.047,434.99,436.673,441.667,446.175,450.512,453.454,456.216,459.779,464.737,467.95,470.577,474.915,478.893,483.402,485.076,489.378,492.356,499.861,504.801,508.364,513.484,518.478,522.986,525.928,528.033,532.065,533.739,540.363,544.7,547.642,555.147,557.252,562.246,567.2769999999999,568.96,571.065" y="700.7090000000001" svg_rhmargin="576.06" style="fill:#000000;font-family:KAIKOL+MyriadPro-Regular;font-size:9.0px;font-style:NORMAL;font-weight:normal;">Figures 4a4c show that RCP8.5 is characterized by substantially larger near-surface atmospheric warming in</text>
  <text x="172.872,175.85,180.844,185.353,187.702,193.209,196.062,200.211,203.189,205.295,209.327,211.676,214.529,219.038,224.015,226.12,231.06,236.055,238.404,242.382,247.322,254.827,259.947,264.284,267.137,271.645,276.721,279.07,281.995,286.936,289.294,294.801,302.036,304.186,308.776,312.34,315.903,318.881,324.244,328.222,333.162,337.778,339.641,341.99,348.613,353.607,355.712,359.743,364.738,367.087,369.94,374.449,379.155,383.663,387.812,390.79,394.35400000000004,396.703,399.681,404.675,409.184,411.533,413.656,417.993,422.024,426.245,428.603,433.543,436.171,438.52,442.084,446.592,450.93,453.279,455.384,459.362,463.87100000000004,466.22,470.251,475.245,479.582,484.576,489.606,494.114,497.678,500.027,502.132,507.127,509.477,514.984,522.219,524.369,528.959,532.522,536.085,539.063,544.426,548.404,553.344,557.96,559.8230000000001,562.181,566.591,571.586" y="712.94" svg_rhmargin="576.095" style="fill:#000000;font-family:KAIKOL+MyriadPro-Regular;font-size:9.0px;font-style:NORMAL;font-weight:normal;">the Arctic region compared to AMIPsst+co2, which reects the lack of sea ice changes in AMIPsst+co2. The</text>
  <text x="172.872,177.812,181.79,186.298,190.635,195.629,197.734,201.76600000000002,203.44,207.004,211.962,215.175,217.802,222.139,226.117,230.62599999999998,232.309,238.897,243.234,246.176,253.681,255.786,260.78,265.811,267.485,269.59,273.154,274.837,276.943,281.937,285.5,288.425,292.933,297.27,302.346,304.02,307.998,312.938,320.443,325.563,329.9,332.842,337.18,342.3,344.423,348.932,350.615,353.17,356.733,361.241,365.75,367.433,371.582,373.687,378.717,383.675,386.528,391.03700000000003,392.711,397.147,401.763,404.319,406.182,407.865,411.428,416.36899999999997,418.043,424.577,429.086,430.769,434.8,439.137,444.132,445.806,450.926,455.435,457.118,461.096,466.036,471.03,475.736,480.811,485.319,490.314,493.293,494.967,497.945,502.939,507.276,510.255,511.938,514.916,519.91,524.419,526.093,531.168,533.273,538.403,542.911,545.764,550.272,555.266,559.245,563.753,567.317,569.0,571.105" y="725.1800000000001" svg_rhmargin="576.1" style="fill:#000000;font-family:KAIKOL+MyriadPro-Regular;font-size:9.0px;font-style:NORMAL;font-weight:normal;">oceanic surface warming is instead comparable (see Figure S1), so we can be condent that the dierences in</text>
  <text x="172.872,175.85,180.844,185.353,187.576,191.607,193.712,196.565,200.597,205.555,207.678,212.015,214.993,217.098,222.038,227.03300000000002,229.256,232.109,236.617,240.18,245.3,250.24,255.235,258.798,263.307,265.53,270.65,275.158,278.218,284.752,289.26,293.768,298.763,300.986,305.827,311.046,315.833,320.449,322.312,326.92900000000003,329.161,333.498,338.492,343.56800000000004,345.791,351.298,358.533,360.683,365.273,368.836,372.399,375.377,380.74,384.718,389.659,394.276,396.499,400.836,403.689,408.19800000000004,410.421,417.926,422.866,426.429,429.40799999999996,431.631,435.194,438.172,441.025,445.965,450.959,455.989,458.113,462.352,464.575,466.68,471.674,476.38,481.338,485.846,490.84,494.818,499.326,504.40200000000004,506.625,511.683,515.922,518.154,521.132,526.126,530.635,532.858,535.369,540.31,543.163,547.195,549.3,554.294,559.3249999999999,561.548,566.623,571.581" y="737.4110000000001" svg_rhmargin="576.09" style="fill:#000000;font-family:KAIKOL+MyriadPro-Regular;font-size:9.0px;font-style:NORMAL;font-weight:normal;">the circulation response between RCP8.5 and AMIPsst+co2 are most strongly inuenced by the forcing due</text>
  <text x="172.872,175.797,180.738,182.646,186.207,190.714,195.052,196.96,199.063,203.041,207.55,209.458,211.579,216.518,220.079,223.643,225.551,228.491,232.826,235.803,240.795,245.301,248.244,250.152,253.129,258.121,262.456,267.451,269.359,274.417,278.65599999999995,280.564,284.999,289.433,293.906,295.814,300.887,302.99,308.12,312.627,315.48,319.986,324.978,328.956,333.463,336.928" y="749.651" svg_rhmargin="338.791" style="fill:#000000;font-family:KAIKOL+MyriadPro-Regular;font-size:9.0px;font-style:NORMAL;font-weight:normal;">to sea ice loss rather than by SST dierences.</text>
  <text x="36.072,41.049,46.557,51.345,55.377,60.885000000000005,62.793,67.365,71.838,73.746,79.254,83.502,85.365,557.611,562.228,566.845,571.462" y="777.731" svg_rhmargin="576.077" style="fill:#0a3a69;font-family:KAIKOL+MyriadPro-Regular;font-size:9.0px;font-style:NORMAL;font-weight:normal;">ZAPPA ET AL. 1015</text>
 </g>
</svg>
