<?xml version="1.0" encoding="UTF-8"?>
<svg height="774.0" width="586.7675927619048" xmlns="http://www.w3.org/2000/svg">
 <g style="fill:none;">
  <path d=" M 294.06610107421875 706.3369750976562 L 303.5906066894531 706.3369750976562 Z " style="fill:none;stroke:#000000;stroke-width:1.0;"/>
  <path d=" M 359.206298828125 145.92759704589844 L 530.9290771484375 145.92759704589844 Z " style="fill:none;stroke:#000000;stroke-width:1.0;"/>
  <path d=" M 221.49920654296875 136.40310668945312 L 256.4219970703125 136.40310668945312 Z " style="fill:none;stroke:#000000;stroke-width:1.0;"/>
  <path d=" M 387.3826904296875 113.89610290527344 L 525.8834838867188 113.89610290527344 Z " style="fill:none;stroke:#000000;stroke-width:1.0;"/>
  <path d=" M 221.49920654296875 104.42829895019531 L 256.4219970703125 104.42829895019531 Z " style="fill:none;stroke:#000000;stroke-width:1.0;"/>
  <text x="200.012,204.342,209.822,215.132,217.303,219.964,225.484,227.677,231.277,236.337,241.607,244.587,249.857,254.087,257.797,263.317,265.492,271.591,275.822,280.461,284.792,288.43199999999996,290.664,294.053,298.803,303.553,306.943,309.233,311.412,314.072,317.092,319.293,326.123,331.183,336.453,338.914,344.224,346.392,351.452,355.722,357.901,361.61,365.841,370.171,373.771,378.831,384.311,388.641,393.701,396.161,400.431,402.688,405.667,410.767,412.949,417.18,422.24,427.719,431.95,434.409,439.68,444.95,449.21999999999997,451.386,454.367,459.636,463.966,466.986,469.188,473.729,478.058,486.239,491.398,494.059,497.768,502.03799999999995,504.281,509.341,513.671,516.651,520.2909999999999,522.479,526.71,531.77,537.039,539.5,544.81,546.971,550.57,555.731,559.44,563.67,568.0" y="92.58600000000001" svg_rhmargin="573.31" style="fill:#000000;font-family:MinionPro-Regular;font-size:10.0px;font-style:NORMAL;font-weight:normal;">and in southern Texas [27], it would be reasonable to conclude that vampire bats could spread</text>
  <text x="200.012,202.673,208.152,211.132,216.232,218.438,222.667,227.307,230.288,233.997,238.228,246.408,250.678,252.849,256.449,261.509,266.779,269.759,275.029,279.259,282.969,288.489,290.72,296.82,301.05,305.69,310.021,313.661,315.835,321.104,326.585,331.854,336.085,339.835,342.026,346.257,351.526,355.237,358.947,363.177,368.656,371.676,373.888,378.219,383.698,389.008,391.18,394.049,399.32,402.299,407.57,411.28,415.54999999999995,417.768,421.998,424.458,427.118,435.299,439.629,442.609,446.87899999999996,449.063,453.292,458.352,463.833,469.102,471.763,474.742,477.403,482.463,487.943,491.543" y="105.625" svg_rhmargin="493.833" style="fill:#000000;font-family:MinionPro-Regular;font-size:10.0px;font-style:NORMAL;font-weight:normal;">into extreme southern Texas under current and future climate conditions.</text>
  <text x="200.012,208.589,215.173,221.758,229.086,236.414,245.747,249.079,255.663,262.992,270.32,280.9,287.485,294.746,298.702" y="137.71299999999997" svg_rhmargin="305.326" style="fill:#000000;font-family:Helvetica-Bold;font-size:12.0px;font-style:NORMAL;font-weight:bold;">Acknowledgments</text>
  <text x="200.012,206.223,208.513,210.671,217.29,222.561,225.22,230.38,238.561,242.891,248.37,250.66,252.906,261.816,264.106,266.285,275.195,279.426,284.905,290.176,295.236,299.355,303.685,305.975,308.182,313.552,315.84200000000004,318.046,323.415,327.646,331.875,337.146,342.206,347.685,352.016,354.30600000000004,356.484,363.314,365.60400000000004,367.822,371.112,373.772,381.952,386.182,391.662,395.892,400.012,402.302,404.503,410.713,413.00300000000004,415.161,424.07,428.301,433.571,437.801,440.261,442.721" y="154.721" svg_rhmargin="445.421" style="fill:#000000;font-family:MinionPro-Regular;font-size:10.0px;font-style:NORMAL;font-weight:normal;">R. Chipman, M. Mendoza, L. Lecuona, A. Jimenez, R. Medellı</text>
  <text x="442.146" y="154.211" svg_rhmargin="446.096" style="fill:#000000;font-family:MinionPro-Regular;font-size:10.0px;font-style:NORMAL;font-weight:normal;">´</text>
  <text x="445.435,450.914,453.204,455.411,462.552,464.84200000000004,466.977,475.888,480.117,486.737,490.448,494.778,499.008,503.968,508.198,513.678,515.968,518.227,521.517,523.807,525.995,531.264,533.924,537.524,542.794,547.024,550.734,553.024,555.19,561.92" y="154.721" svg_rhmargin="564.21" style="fill:#000000;font-family:MinionPro-Regular;font-size:10.0px;font-style:NORMAL;font-weight:normal;">n, G. McCracken, J. Fisher, K.</text>
  <text x="200.012,207.363,211.592,214.052,217.652,222.712,228.192,230.482,232.667,238.876,241.166,243.326,249.535,253.765,257.995,263.266,265.55600000000004,267.759,273.129,275.41900000000004,277.625,283.414,288.474,293.954,298.185,305.014,309.245,311.704,314.164,316.454,318.669,325.499,327.78900000000004,329.951,336.261,340.591,344.821,349.781,354.012,356.471,359.971,366.802,372.072,376.402,384.582,388.182,390.47200000000004,392.71,396.0,398.29,400.477,409.387,414.447,418.157,420.817,424.417,428.647,431.627,434.607,438.837,441.127,443.336,447.667,453.147,458.457,460.628,466.208,468.49800000000005,470.719,477.339,481.049,485.589,489.919,495.43899999999996,497.591,505.771,510.102,515.372,519.6419999999999,521.855,527.125,531.356,533.815,538.975,541.845,547.115,549.615,551.846,556.076,561.136,569.317" y="167.76" svg_rhmargin="572.857" style="fill:#000000;font-family:MinionPro-Regular;font-size:10.0px;font-style:NORMAL;font-weight:normal;">Nelson, R. Reed, L. Bonewell, A. Yackel-Adams, J. Morisette, and P. Cryan made helpful com-</text>
  <text x="200.012,208.193,212.423,217.902,220.882,224.522,226.714,231.984,237.255,240.964,243.624,249.104,253.78400000000002,255.967,260.508,264.837,268.547,271.207,276.267,281.538,285.178,287.431,291.031,294.011,298.341,302.981,307.211,310.851,313.056,318.116,321.026,323.204,326.185,331.454,334.115,337.755,339.93,345.089,348.799,353.859,356.419,360.649,364.879,367.859,370.149,372.357,378.977,384.247,388.477,392.188,397.247,402.208,406.438,410.70799999999997,412.949,420.299,424.63,427.609,430.27,435.33,440.84999999999997,443.052,449.152,453.383,457.612,462.883,468.362,473.422,475.883,480.943,485.583,488.243,492.473,496.113,498.328,502.659,508.138,513.448,515.677,518.656,523.927,528.197,530.359,533.75,539.229,543.769,548.099,551.699,554.359,558.899" y="180.74199999999996" svg_rhmargin="563.169" style="fill:#000000;font-family:MinionPro-Regular;font-size:10.0px;font-style:NORMAL;font-weight:normal;">ments during various stages of this project. Cherokee Nation Technologies and the Invasive</text>
  <text x="200.012,204.762,209.923,214.152,218.382,221.042,225.272,228.91199999999998,231.137,235.887,240.116,242.776,247.007,252.486,256.716,260.986,263.168,268.957,272.667,276.997,282.477,286.708,292.01800000000003,294.236,298.565,301.585,303.76,306.74,312.01,316.28,318.443,325.792,328.082,330.234,334.984,337.274,339.476,346.615,350.846,355.906,358.365,363.426,368.065,370.726,374.956,379.286,381.786,384.036,388.786,394.057,397.767,402.307,406.537,411.077,413.217,416.85699999999997,419.073,424.342,429.403,433.112,436.132,438.291,444.911,449.971,452.431,454.891,457.551,463.031,466.671,468.904,473.654,477.885,480.544,484.775,490.255,494.484,498.75399999999996,500.937,507.557,511.786,517.266,520.247,524.477,528.227,530.417,535.576,539.286,544.346,548.886,551.546,556.816,561.046" y="193.72500000000002" svg_rhmargin="566.356" style="fill:#000000;font-family:MinionPro-Regular;font-size:10.0px;font-style:NORMAL;font-weight:normal;">Species Science Branch at the U. S. Geological Survey’s Fort Collins Science Center provided</text>
  <text x="200.012,204.342,209.612,217.792,220.452,225.932,228.592,232.192,235.172,238.882,243.212,246.192,248.852,253.392,257.662,259.936,263.536,268.806,273.966,279.126,284.186,287.896,290.916,293.101,297.431,302.911,308.221,310.449,314.779,319.009,323.239,327.469,331.069,334.709,336.867,339.847,344.947,347.129,351.359,356.419,364.599,369.759,375.029,378.009,380.669,386.149,390.829,393.106,396.816,401.046,404.646,409.706,414.977,418.686,422.917,427.146,430.747,433.03700000000003,435.229,444.869,449.139,451.33,455.66,458.12,461.72,466.82000000000005,469.018,472.618,475.279,480.758,484.988,489.219,492.928,497.159,499.618,504.198,506.378,509.358,514.628,518.958,524.438,529.438,531.663,535.263,539.493,544.033,548.263,551.973,556.303" y="206.70799999999997" svg_rhmargin="558.803" style="fill:#000000;font-family:MinionPro-Regular;font-size:10.0px;font-style:NORMAL;font-weight:normal;">administrative support and access to computing resources. We also sincerely thank several</text>
  <text x="200.012,204.342,209.822,214.882,220.362,224.902,233.082,238.142,243.412,247.052,249.277,252.987,257.217,261.757,264.417,268.647,275.477,279.707,283.417,287.05699999999996,289.302,296.132,301.402,306.462,310.062,314.332,316.515,319.385,323.615,327.845,333.115,338.175,342.505,346.735,351.735,353.932,357.532,362.802,367.862,371.462,374.442,378.772,384.252,387.232,389.892,394.222,396.682,399.143,403.72299999999996,405.976,408.636,416.816,421.977,425.686,430.747,435.286,439.517,444.827,447.078,450.058,455.328,459.59799999999996,461.761,465.991,471.051,476.531,479.511,483.741,489.221,492.241,494.473,499.533,502.44300000000004,504.621,507.601,512.871,515.531,519.1709999999999,521.345,529.525,533.855,539.335,544.605,548.206,552.435,556.145,558.805,563.965,566.945" y="219.74699999999996" svg_rhmargin="569.235" style="fill:#000000;font-family:MinionPro-Regular;font-size:10.0px;font-style:NORMAL;font-weight:normal;">anonymous reviewers whose feedback substantially improved the content of this manuscript.</text>
  <text x="200.012,208.589,215.917,219.874,227.202,234.53,239.15,241.737,250.314,257.642,264.97,268.927,273.507,276.839,284.168,291.496,295.453,298.785,306.113,313.442" y="251.89300000000003" svg_rhmargin="320.066" style="fill:#000000;font-family:Helvetica-Bold;font-size:12.0px;font-style:NORMAL;font-weight:bold;">Author Contributions</text>
  <text svg_rhmargin="279.242" x="200.012,206.742,211.902,217.482,221.712,226.042,231.522,234.913,240.393,245.033,247.802,250.673,255.102,259.742,263.133,266.003,271.162,276.742,279.242" y="268.84400000000005" style="fill:#000000;font-family:MinionPro-Bold;font-size:10.0px;font-style:NORMAL;font-weight:bold;">Conceptualization: </text>
  <text x="281.535,290.445,294.775,298.485,303.485,305.686,312.516,314.80600000000004,316.969,324.629,328.958,333.499,337.729,341.328,343.618,345.882,352.711,358.191,361.172,366.232,368.892,374.372,378.602,381.582,384.562,388.832,391.01,394.299,396.589,398.776,404.357,407.017,411.346,415.987,420.627,423.287,428.347" y="268.84400000000005" svg_rhmargin="430.637" style="fill:#000000;font-family:MinionPro-Regular;font-size:10.0px;font-style:NORMAL;font-weight:normal;">Mark A. Hayes, Antoinette J. Piaggio.</text>
  <text svg_rhmargin="260.332" x="200.012,207.572,212.212,215.602,220.282,222.462,226.692,232.172,236.192,240.832,244.222,247.092,252.252,257.832,260.332" y="286.87199999999996" style="fill:#000000;font-family:MinionPro-Bold;font-size:10.0px;font-style:NORMAL;font-weight:bold;">Data curation: </text>
  <text x="262.6,271.51,275.841,279.55,284.55,286.751,293.581,295.87100000000004,298.034,305.694,310.023,314.564,318.794,322.393" y="286.87199999999996" svg_rhmargin="324.683" style="fill:#000000;font-family:MinionPro-Regular;font-size:10.0px;font-style:NORMAL;font-weight:normal;">Mark A. Hayes.</text>
  <text svg_rhmargin="267.984" x="200.013,205.493,210.653,214.673,223.063,227.702,230.512,232.724,237.364,242.944,247.584,250.354,254.993,258.803,261.674,265.484,267.984" y="304.843" style="fill:#000000;font-family:MinionPro-Bold;font-size:10.0px;font-style:NORMAL;font-weight:bold;">Formal analysis: </text>
  <text x="270.198,279.108,283.438,287.148,292.148,294.349,301.178,303.468,305.631,313.291,317.621,322.161,326.391,329.991" y="304.843" svg_rhmargin="332.281" style="fill:#000000;font-family:MinionPro-Regular;font-size:10.0px;font-style:NORMAL;font-weight:normal;">Mark A. Hayes.</text>
  <text svg_rhmargin="286.27" x="200.013,205.493,210.973,216.553,222.033,224.903,230.483,235.373,237.6,242.24,246.47,251.74,257.22,260.09,263.9,266.77,270.16,273.03,278.19,283.77,286.27" y="322.872" style="fill:#000000;font-family:MinionPro-Bold;font-size:10.0px;font-style:NORMAL;font-weight:bold;">Funding acquisition: </text>
  <text x="288.51,295.34,300.82,303.799,308.859,311.52,317.0,321.23,324.21,327.19,331.46,333.694,336.984,339.274,341.46,347.039,349.7,354.03,358.669,363.31,365.97,371.03" y="322.872" svg_rhmargin="373.32" style="fill:#000000;font-family:MinionPro-Regular;font-size:10.0px;font-style:NORMAL;font-weight:normal;">Antoinette J. Piaggio.</text>
  <text svg_rhmargin="257.333" x="200.013,203.723,209.303,213.943,218.273,222.083,225.473,228.343,233.193,237.833,241.223,244.093,249.253,254.833,257.33299999999997" y="340.843" style="fill:#000000;font-family:MinionPro-Bold;font-size:10.0px;font-style:NORMAL;font-weight:bold;">Investigation: </text>
  <text x="259.596,268.506,272.836,276.546,281.546,283.747,290.577,292.867,295.029,302.689,307.018,311.559,315.789,319.389,321.67900000000003,323.886,330.716,336.196,339.176,344.236,346.896,352.376,356.606,359.586,362.566,366.83599999999996,369.07,372.36,374.65000000000003,376.837,382.417,385.077,389.407,394.047,398.687,401.347,406.407" y="340.843" svg_rhmargin="408.697" style="fill:#000000;font-family:MinionPro-Regular;font-size:10.0px;font-style:NORMAL;font-weight:normal;">Mark A. Hayes, Antoinette J. Piaggio.</text>
  <text svg_rhmargin="257.743" x="200.013,208.823,213.153,216.543,222.023,227.183,232.663,237.823,240.593,245.753,250.603,255.243,257.743" y="358.871" style="fill:#000000;font-family:MinionPro-Bold;font-size:10.0px;font-style:NORMAL;font-weight:bold;">Methodology: </text>
  <text x="259.993,268.903,273.233,276.943,281.943,284.144,290.974,293.264,295.426,303.086,307.416,311.956,316.186,319.786,322.076,324.283,331.113,336.593,339.573,344.633,347.293,352.773,357.003,359.983,362.963,367.233,369.467,372.757,375.047,377.233,382.813,385.473,389.803,394.443,399.083,401.743,406.803" y="358.871" svg_rhmargin="409.093" style="fill:#000000;font-family:MinionPro-Regular;font-size:10.0px;font-style:NORMAL;font-weight:normal;">Mark A. Hayes, Antoinette J. Piaggio.</text>
  <text svg_rhmargin="297.461" x="200.013,206.013,210.033,215.193,218.063,222.393,226.623,230.053,232.271,236.911,242.391,250.781,253.651,259.231,262.101,265.911,269.301,273.321,277.961,281.351,284.221,289.381,294.961,297.461" y="376.843" style="fill:#000000;font-family:MinionPro-Bold;font-size:10.0px;font-style:NORMAL;font-weight:bold;">Project administration: </text>
  <text x="299.735,308.645,312.975,316.685,321.685,323.886,330.716,333.00600000000003,335.168,342.828,347.158,351.698,355.928,359.528,361.81800000000004,364.081,370.911,376.391,379.371,384.431,387.091,392.571,396.801,399.781,402.761,407.031,409.208,412.498,414.788,416.975,422.555,425.215,429.545,434.185,438.825,441.485,446.545" y="376.843" svg_rhmargin="448.835" style="fill:#000000;font-family:MinionPro-Regular;font-size:10.0px;font-style:NORMAL;font-weight:normal;">Mark A. Hayes, Antoinette J. Piaggio.</text>
  <text svg_rhmargin="244.203" x="200.013,206.533,210.863,214.673,219.833,225.313,229.333,233.563,237.893,241.703,244.203" y="394.871" style="fill:#000000;font-family:MinionPro-Bold;font-size:10.0px;font-style:NORMAL;font-weight:bold;">Resources: </text>
  <text x="246.444,255.354,259.684,263.394,268.394,270.595,277.425,279.71500000000003,281.877,289.537,293.867,298.407,302.637,306.237,308.52700000000004,310.733,317.563,323.043,326.023,331.083,333.743,339.223,343.453,346.433,349.413,353.683,355.917,359.207,361.497,363.627,369.207,371.867,376.197,380.837,385.477,388.137,393.197" y="394.871" svg_rhmargin="395.487" style="fill:#000000;font-family:MinionPro-Regular;font-size:10.0px;font-style:NORMAL;font-weight:normal;">Mark A. Hayes, Antoinette J. Piaggio.</text>
  <text svg_rhmargin="239.133" x="200.013,204.973,210.133,213.423,216.813,223.643,228.283,232.303,236.633,239.133" y="412.843" style="fill:#000000;font-family:MinionPro-Bold;font-size:10.0px;font-style:NORMAL;font-weight:bold;">Software: </text>
  <text x="241.341,250.251,254.581,258.291,263.291,265.492,272.322,274.612,276.774,284.434,288.764,293.304,297.534,301.134" y="412.843" svg_rhmargin="303.424" style="fill:#000000;font-family:MinionPro-Regular;font-size:10.0px;font-style:NORMAL;font-weight:normal;">Mark A. Hayes.</text>
  <text svg_rhmargin="251.713" x="200.013,204.973,210.453,215.933,220.263,224.283,228.923,231.793,235.603,238.473,243.633,249.213,251.713" y="430.871" style="fill:#000000;font-family:MinionPro-Bold;font-size:10.0px;font-style:NORMAL;font-weight:bold;">Supervision: </text>
  <text x="253.984,262.894,267.224,270.934,275.934,278.078,284.908,287.19800000000004,289.417,297.077,301.407,305.947,310.177,313.777,316.067,318.273,325.103,330.583,333.563,338.623,341.283,346.763,350.993,353.973,356.953,361.22299999999996,363.457,366.747,369.03700000000003,371.167,376.747,379.407,383.737,388.377,393.017,395.677,400.737" y="430.871" svg_rhmargin="403.027" style="fill:#000000;font-family:MinionPro-Regular;font-size:10.0px;font-style:NORMAL;font-weight:normal;">Mark A. Hayes, Antoinette J. Piaggio.</text>
  <text svg_rhmargin="246.953" x="200.013,207.053,211.693,214.463,217.333,222.813,227.453,230.843,233.713,238.873,244.453,246.953" y="448.842" style="fill:#000000;font-family:MinionPro-Bold;font-size:10.0px;font-style:NORMAL;font-weight:bold;">Validation: </text>
  <text x="249.222,258.132,262.462,266.172,271.172,273.373,280.203,282.493,284.654,292.314,296.644,301.184,305.414,309.014" y="448.842" svg_rhmargin="311.304" style="fill:#000000;font-family:MinionPro-Regular;font-size:10.0px;font-style:NORMAL;font-weight:normal;">Mark A. Hayes.</text>
  <text svg_rhmargin="258.063" x="200.013,207.053,209.923,213.733,219.213,223.853,226.623,229.493,233.923,238.563,241.953,244.823,249.983,255.563,258.063" y="466.871" style="fill:#000000;font-family:MinionPro-Bold;font-size:10.0px;font-style:NORMAL;font-weight:bold;">Visualization: </text>
  <text x="260.333,269.243,273.573,277.283,282.283,284.484,291.314,293.60400000000004,295.766,303.426,307.756,312.296,316.526,320.126" y="466.871" svg_rhmargin="322.416" style="fill:#000000;font-family:MinionPro-Regular;font-size:10.0px;font-style:NORMAL;font-weight:normal;">Mark A. Hayes.</text>
  <text svg_rhmargin="301.228" x="200.013,209.763,213.783,216.653,220.043,222.913,228.493,233.38299999999998,235.615,240.715,242.872,248.032,252.052,254.922,259.772,262.642,268.222,272.862,275.672,277.908,283.388,287.408,292.048,295.338,298.728,301.228" y="484.842" style="fill:#000000;font-family:MinionPro-Bold;font-size:10.0px;font-style:NORMAL;font-weight:bold;">Writing – original draft: </text>
  <text x="303.42,312.33,316.66,320.37,325.37,327.571,334.401,336.69100000000003,338.853,346.513,350.843,355.383,359.613,363.213,365.50300000000004,367.709,374.539,380.019,382.999,388.059,390.719,396.199,400.429,403.409,406.389,410.659,412.893,416.183,418.473,420.66,426.24,428.9,433.23,437.87,442.51,445.17,450.23" y="484.842" svg_rhmargin="452.52" style="fill:#000000;font-family:MinionPro-Regular;font-size:10.0px;font-style:NORMAL;font-weight:normal;">Mark A. Hayes, Antoinette J. Piaggio.</text>
  <text svg_rhmargin="313.35" x="200.013,209.763,213.783,216.653,220.043,222.913,228.493,233.38299999999998,235.615,240.715,242.872,246.892,251.222,255.862,258.732,263.062,269.932,272.125,279.305,281.48,285.81,291.29,294.16,297.55,300.42,306.0,310.85,313.35" y="502.87" style="fill:#000000;font-family:MinionPro-Bold;font-size:10.0px;font-style:NORMAL;font-weight:bold;">Writing – review &amp; editing: </text>
  <text x="315.609,324.519,328.849,332.559,337.559,339.76,346.59,348.88,351.041,358.701,363.031,367.571,371.801,375.401,377.69100000000003,379.898,386.728,392.208,395.188,400.248,402.908,408.388,412.618,415.598,418.578,422.84799999999996,425.082,428.372,430.66200000000003,432.792,438.372,441.032,445.362,450.002,454.642,457.302,462.362" y="502.87" svg_rhmargin="464.652" style="fill:#000000;font-family:MinionPro-Regular;font-size:10.0px;font-style:NORMAL;font-weight:normal;">Mark A. Hayes, Antoinette J. Piaggio.</text>
  <text x="200.012,208.589,215.173,219.13,225.714,230.294,236.879,244.207,250.791,257.376" y="540.006" svg_rhmargin="264.0" style="fill:#000000;font-family:Helvetica-Bold;font-size:12.0px;font-style:NORMAL;font-weight:bold;">References</text>
  <text svg_rhmargin="211.512" x="204.888,209.264,211.512" y="553.499" style="fill:#000000;font-family:Helvetica-Bold;font-size:8.0px;font-style:NORMAL;font-weight:bold;">1. </text>
  <text x="221.498,226.786,230.746" y="553.499" svg_rhmargin="234.746" style="fill:#000000;font-family:Helvetica;font-size:8.0px;font-style:NORMAL;font-weight:normal;">Pys</text>
  <text svg_rhmargin="234.027" x="231.363,234.027" y="553.499" style="fill:#000000;font-family:Helvetica;font-size:8.0px;font-style:NORMAL;font-weight:normal;">ˇ </text>
  <text x="234.652,239.028,243.028,244.743,250.031,252.279,253.983,259.687,261.391,265.351,269.727,274.103,276.727,281.103,285.063,289.439,293.855,295.482,301.186,307.81,310.058,311.696,313.904,318.28,322.24,326.616,330.576,332.28,336.24,340.656,342.31,346.27,350.646,355.022,358.982,360.686,365.062,369.022,371.27,372.924,377.3,381.676,385.636,387.34,389.964,394.34,398.716,405.239,409.615,413.991,416.199,420.575,422.319,424.005,427.965,432.34,436.716,441.092,445.468,449.884,451.501,455.877,460.253,464.669,466.354,472.978,477.354,481.73,486.106,490.482,494.858,501.482,505.858,510.121,512.329,514.577,516.3,520.676,525.052,529.4680000000001,531.154,535.53,539.906,544.281,545.985,548.193,552.569,554.817,556.439,561.727,566.103,570.479" y="553.499" svg_rhmargin="574.895" style="fill:#000000;font-family:Helvetica;font-size:8.0px;font-style:NORMAL;font-weight:normal;">ek P, Richardson DM. Invasive species, environmental change and management, and health. Annu</text>
  <text x="221.498,227.202,231.578,235.578,237.259,242.547,246.923,250.883,252.587,255.211,259.587,264.003,265.663,271.366,275.742,279.702,284.078,288.454,291.078,293.32599999999996,294.973,299.349,303.724,308.1,312.476,314.724,318.159,322.535,326.911,329.159,330.802,335.178,339.554,343.93,348.306,352.682" y="563.023" svg_rhmargin="354.93" style="fill:#000000;font-family:Helvetica;font-size:8.0px;font-style:NORMAL;font-weight:normal;">Rev Environ Resour. 2010; 35: 25–55.</text>
  <text svg_rhmargin="211.512" x="204.888,209.264,211.512" y="576.006" style="fill:#000000;font-family:Helvetica-Bold;font-size:8.0px;font-style:NORMAL;font-weight:bold;">2. </text>
  <text x="221.498,226.786,231.162,233.37,237.746,240.37,244.33,248.706,253.12199999999999,254.777,260.065,264.937,267.185,268.837,275.461,279.837,284.213,288.589,290.293,294.669,299.085,300.755,305.131,306.835,310.795,315.171,319.547,323.507,327.923,329.555,331.763,334.387,338.762,343.138,347.098,353.722,355.426,359.386,363.23,364.934,369.31,373.726,375.42,378.044,379.748,383.707,387.667,389.91499999999996,391.633,396.009,400.385,403.009,404.713,408.673,413.049,414.753,419.129,423.545,425.195,431.819,436.195,440.571,444.947,446.651,450.651,452.295,456.671,460.631,462.335,466.711,471.127,472.761,477.137,478.841,483.217,487.593,491.969,496.345,500.721,503.344,507.72,511.992,516.367,520.367,522.083,526.459,530.835,535.2510000000001,536.937,541.313,545.273,549.649,551.353,555.729,560.105,564.065" y="576.006" svg_rhmargin="566.313" style="fill:#000000;font-family:Helvetica;font-size:8.0px;font-style:NORMAL;font-weight:normal;">Peterson AT. Mapping disease transmission risk: enriching models using biogeography and ecology.</text>
  <text x="221.498,225.458,229.834,234.21,238.586,242.586,244.232,249.936,254.312,258.688,262.648,264.352,268.728,272.728,274.393,280.097,284.473,286.177,290.137,294.513,297.137,301.097,302.801,305.009,309.009,310.62,315.908,318.532,322.907,326.867,330.827,333.075,336.528,341.816,346.192,347.896,350.104,351.808,358.432,362.808,365.328,369.704,371.952,373.662,379.366,384.654,389.942,392.19,393.901,398.277,402.653,407.029,411.405" y="585.473" svg_rhmargin="413.653" style="fill:#000000;font-family:Helvetica;font-size:8.0px;font-style:NORMAL;font-weight:normal;">Johns Hopkins University Press, Baltimore, USA. 2014.</text>
  <text svg_rhmargin="211.512" x="204.888,209.264,211.512" y="598.513" style="fill:#000000;font-family:Helvetica-Bold;font-size:8.0px;font-style:NORMAL;font-weight:bold;">3. </text>
  <text x="221.498,226.37,228.994,233.37,237.746,241.706,243.41,245.114,249.53,251.206,255.166,257.414,259.086,265.71,270.086,274.462,278.838,280.542,284.918,289.334,291.004,294.964,299.34,303.716,307.676,309.38,313.756,317.756,319.35,323.726,325.43,329.39,331.598,334.222,335.926,340.302,344.678,346.886,348.59,352.966,357.341,361.301,363.549,365.158,369.118,373.494,377.87,380.078,381.782,386.158,387.90200000000004,389.592,391.296,395.672,397.88,402.256,404.88,409.256,413.632,417.485,421.901,423.608,427.984,432.36,436.776,438.461,442.837,445.461,449.837,454.213,455.917,459.877,462.085,463.789,468.165,472.541,474.789,478.203,483.907,488.283,494.907,499.283,501.907,503.611,507.987,512.363,516.7790000000001,518.398,524.102,528.478,530.182,534.142,538.518,541.142,545.102,546.805,549.013" y="598.513" svg_rhmargin="553.013" style="fill:#000000;font-family:Helvetica;font-size:8.0px;font-style:NORMAL;font-weight:normal;">Franklin J. Mapping species distributions: spatial inference and prediction. Cambridge University</text>
  <text x="221.498,226.786,229.41,233.786,237.746,241.706,243.95399999999998,247.351,253.055,257.431,264.055,268.431,271.055,272.758,277.134,281.51,285.788,288.036,289.757,295.461,300.749,306.036,308.284,309.996,314.372,318.748,323.123,327.499" y="607.98" svg_rhmargin="329.747" style="fill:#000000;font-family:Helvetica;font-size:8.0px;font-style:NORMAL;font-weight:normal;">Press, Cambridge, USA. 2009.</text>
  <text svg_rhmargin="211.512" x="204.888,209.264,211.512" y="621.02" style="fill:#000000;font-family:Helvetica-Bold;font-size:8.0px;font-style:NORMAL;font-weight:bold;">4. </text>
  <text x="221.498,226.786,231.162,233.37,237.746,240.37,244.33,248.706,253.12199999999999,254.777,260.065,264.937,267.185,268.837,274.125,278.501,282.877,287.253,289.877" y="621.02" svg_rhmargin="294.293" style="fill:#000000;font-family:Helvetica;font-size:8.0px;font-style:NORMAL;font-weight:normal;">Peterson AT, Sobero</text>
  <text svg_rhmargin="293.441" x="290.777,293.441" y="621.02" style="fill:#000000;font-family:Helvetica;font-size:8.0px;font-style:NORMAL;font-weight:normal;">´ </text>
  <text x="294.179,298.59499999999997,300.301,304.261,306.509,308.238,313.526,317.902,322.278,324.902,328.862,333.238,337.654,339.306,345.01,351.218,353.466,355.123,360.411,364.787,369.163,373.539,376.163,380.123,384.499,388.915,390.556,396.26,401.548,403.796,405.466,412.09,416.466,419.09,421.298" y="621.02" svg_rhmargin="423.546" style="fill:#000000;font-family:Helvetica;font-size:8.0px;font-style:NORMAL;font-weight:normal;">n J, Pearson RG, Anderson RP, Martı</text>
  <text x="421.113" y="620.85" svg_rhmargin="423.777" style="fill:#000000;font-family:Helvetica;font-size:8.0px;font-style:NORMAL;font-weight:normal;">´</text>
  <text x="423.494,427.87,432.246,436.206,438.83,445.454,449.83,453.655,458.031,460.695,462.443,467.73,469.978,471.683,477.387,481.763,485.723,490.099,496.723,500.993,503.617,508.033,509.724,516.348,518.596,520.326,524.702,526.95,528.602,532.978,534.682,536.9300000000001,538.638,543.925,547.885,552.261,553.965,558.341,562.717,564.421,568.381,572.757" y="621.02" svg_rhmargin="574.501" style="fill:#000000;font-family:Helvetica;font-size:8.0px;font-style:NORMAL;font-weight:normal;">nez-Meyer E, Nakamura M, et al. Ecological</text>
  <text x="221.498,225.874,227.578,231.538,235.914,240.29,244.29,245.933,250.309,254.685,259.101,260.787,265.163,269.539,273.914,278.29,280.914,285.29,289.666,294.042,295.746,299.746,301.379,305.755,307.459,311.419,313.627,316.251,317.955,322.331,326.607,328.815,330.519,334.895,339.271,343.23,345.478,348.944,354.232,356.856,358.56,362.936,366.896,371.272,373.48,377.744,382.16,383.867,389.571,393.947,395.651,399.611,403.986,406.61,410.57,412.274,414.482,418.482,420.149,425.437,428.061,432.437,436.397,440.357,442.605,446.002,451.29,453.914,455.618,459.994,463.954,468.33,470.538,474.914,479.29,481.538,483.192,488.896,494.184,499.472,501.71999999999997,503.375,507.751,512.127,516.503,520.879" y="630.487" svg_rhmargin="523.127" style="fill:#000000;font-family:Helvetica;font-size:8.0px;font-style:NORMAL;font-weight:normal;">niches and geographic distributions. Princeton University Press, Princeton, USA. 2011.</text>
  <text svg_rhmargin="211.512" x="204.888,209.264,211.512" y="643.527" style="fill:#000000;font-family:Helvetica-Bold;font-size:8.0px;font-style:NORMAL;font-weight:bold;">5. </text>
  <text x="221.498,226.786,228.994,233.37,237.746,239.45,243.826,246.45,250.826,255.242,256.875,261.747,265.707,267.955,269.631,274.918,278.878,283.254,287.63,292.006,295.966,300.382,302.002,305.962,310.338,312.586,314.304,320.008,321.712,325.672,329.672,331.369,335.745,340.121,344.497,346.201,350.161,354.121,355.825,359.825,361.473,363.681,368.057,370.721,372.415,376.791,378.495,382.871,384.575,388.951,393.327,395.031,398.89,403.266,405.01000000000005,406.714,411.09,415.466,419.426,423.801,426.425,430.801,434.761,437.009,438.688,444.392,448.768,453.144,455.392,457.057,462.761,467.177,468.849,473.225,477.601,481.977,486.393,488.068,490.276,494.692,496.401,500.361,504.737,509.113,514.857,516.527,520.903,525.279,529.655,534.031,536.279,537.957,539.661,544.037,547.997,552.373,556.333,558.037,561.881" y="643.527" svg_rhmargin="566.297" style="fill:#000000;font-family:Helvetica;font-size:8.0px;font-style:NORMAL;font-weight:normal;">Stohlgren TJ, Schnase JL. Risk analysis for biological hazards: what we need to know about invasive</text>
  <text x="221.498,225.458,229.834,234.21,238.17,239.874,244.25,248.21,250.458,252.112,257.816,259.52,263.48,267.48,269.12,274.408,278.784,283.16,284.864,287.11199999999997,288.793,293.169,297.545,301.921,306.297,308.545,311.98,316.356,320.732,322.98,324.679,329.055,333.431,337.807,342.183,346.559,350.935,355.311,357.55899999999997,359.205,363.581,365.789,367.997,372.373,376.333,378.541,380.749,382.846,387.222,391.598,393.302,395.51,399.886,402.51,406.886,409.094,413.47,417.846,420.053,424.429,428.71,433.086,437.462,439.67,441.374,443.582,447.958,452.334,456.603,460.979,463.603,467.979,472.355,476.731,481.107,483.315,487.691,492.067,496.443,500.71,502.918,507.294,511.67,516.046,520.422,524.798,527.006,531.006,532.628,537.916,544.54,546.748,552.452" y="652.995" svg_rhmargin="554.7" style="fill:#000000;font-family:Helvetica;font-size:8.0px;font-style:NORMAL;font-weight:normal;">species. Risk Anal. 2006; 26: 163–173. https://doi.org/10.1111/j.1539-6924.2006.00707.x PMID:</text>
  <text x="221.498,225.874,230.25,234.626,239.002,243.378,247.754,252.13" y="662.519" svg_rhmargin="256.546" style="fill:#3b5aa6;font-family:Helvetica;font-size:8.0px;font-style:NORMAL;font-weight:normal;">16492190</text>
  <text svg_rhmargin="211.512" x="204.888,209.264,211.512" y="675.502" style="fill:#000000;font-family:Helvetica-Bold;font-size:8.0px;font-style:NORMAL;font-weight:bold;">6. </text>
  <text x="221.498,225.458,229.834,233.794,237.754,242.13,246.09,250.506,252.112,256.072,262.696,264.944,266.626,271.914,274.122,276.746,281.122,285.082,289.458,292.122,293.781,299.485,303.861,306.109,307.841,313.545,317.505,321.881,324.089,328.465,330.065,334.441,338.817,342.777,346.777,348.49,352.866,355.114,356.824,361.2,362.904,367.28,371.24,372.944,374.648,381.272,385.648,387.855,389.559,393.559,395.148,401.772,406.148,410.524,414.9,416.604,420.604,422.247,424.455,428.831,431.495,433.189,437.149,439.357,443.733,448.109,452.069,453.773,458.149,462.565,464.257,468.217,469.921,471.625,478.249,482.625,484.833,489.249,490.902,494.862,499.238,503.614,507.99,512.366,516.782,518.398,522.774,527.15,531.566,533.251,534.955,539.331,543.291,547.667,551.627,553.331,557.291" y="675.502" svg_rhmargin="561.707" style="fill:#000000;font-family:Helvetica;font-size:8.0px;font-style:NORMAL;font-weight:normal;">Jeschke JM, Strayer DL. Usefulness of bioclimatic models for studying climate change and invasive</text>
  <text x="221.498,225.458,229.834,234.21,238.17,239.874,244.25,248.21,250.458,252.112,257.4,261.776,266.192,267.873,273.577,275.825,277.511,282.799,285.04699999999997,286.752,292.04,296.0,300.376,304.792,306.481,311.769,315.729,317.433,319.681,321.335,325.711,330.087,334.463,338.839,341.087,344.522,348.898,353.274,357.649,362.025,364.27299999999997,365.952,370.328,374.704,379.08,383.456,385.704,387.381,391.757,393.965,396.173,400.549,404.509,406.717,408.811,411.019,415.395,419.771,421.475,423.683,428.059,430.683,435.059,437.267,441.643,446.019,448.227,452.603,456.887,461.263,465.639,467.846,472.222,476.598,480.974,485.233,486.937,490.897,493.105,497.481,501.857,506.232,510.608,512.816,517.192,521.459,525.875,527.583,532.87,539.494,541.702,547.406" y="685.026" svg_rhmargin="549.654" style="fill:#000000;font-family:Helvetica;font-size:8.0px;font-style:NORMAL;font-weight:normal;">species. Ann N. Y. Acad Sci. 2008; 1134: 1–24. https://doi.org/10.1196/annals.1439.002 PMID:</text>
  <text x="221.498,225.874,230.25,234.626,239.002,243.378,247.754,252.13" y="694.494" svg_rhmargin="256.546" style="fill:#3b5aa6;font-family:Helvetica;font-size:8.0px;font-style:NORMAL;font-weight:normal;">18566088</text>
  <text svg_rhmargin="211.512" x="204.888,209.264,211.512" y="707.476" style="fill:#000000;font-family:Helvetica-Bold;font-size:8.0px;font-style:NORMAL;font-weight:bold;">7. </text>
  <text x="221.498,226.786,228.49,230.194,232.402,236.81799999999998,238.506,242.466,244.714,246.444,252.652,255.276,259.651,264.027,268.403,275.067,276.661,282.365,288.069,290.317,292.025,297.313,301.689,306.065,310.44,313.064,317.024,321.4,325.816,327.457,333.161,338.449,340.697,342.367,348.071,352.447,356.823" y="707.476" svg_rhmargin="359.071" style="fill:#000000;font-family:Helvetica;font-size:8.0px;font-style:NORMAL;font-weight:normal;">Elith J, Graham CH, Anderson RP, Dudı</text>
  <text x="356.654" y="707.306" svg_rhmargin="359.318" style="fill:#000000;font-family:Helvetica;font-size:8.0px;font-style:NORMAL;font-weight:normal;">´</text>
  <text x="358.978,362.978,364.705,371.328,373.57599999999996,375.249,380.121,384.497,387.121,389.745,391.449,395.825,398.489,400.194,405.482,407.73,409.435,415.643,420.019,421.723,425.683,430.059,434.475,436.08,441.368,443.616,445.321,449.697,451.945,453.655,458.031,459.735,461.983,463.69,469.394,473.77,477.73,482.105,483.84900000000005,485.517,492.141,496.516,498.724,503.1,507.476,511.852,515.852,517.491,519.195,525.819,530.195,532.818,537.194,541.154,545.57,547.198,551.574,554.198,558.574,562.95,564.654,568.614" y="707.476" svg_rhmargin="571.278" style="fill:#000000;font-family:Helvetica;font-size:8.0px;font-style:NORMAL;font-weight:normal;">k M, Ferrier S, Guisan A, et al. Novel methods improve predic-</text>
  <text x="221.498,223.706,225.41,229.786,234.202,235.899,240.275,242.523,244.232,248.192,252.568,256.944,260.904,262.608,266.984,270.984,272.635,277.011,278.715,282.675,284.883,287.507,289.211,293.587,297.864,300.072,301.776,306.152,310.528,314.528,316.232,318.44,321.064,325.44,332.104,333.751,338.126,342.086,346.046,350.422,353.046,355.67,360.046,364.422,368.276,372.692,374.399,378.775,383.151,385.359,389.735,391.983,393.675,398.963,402.922,407.298,411.674,414.298,418.674,423.05,427.426,431.261,433.509,435.23,439.606,443.982,448.358,452.734,454.98199999999997,458.417,462.793,467.169,469.417,471.117,475.493,479.869,484.245,488.621,492.997,497.252,501.628" y="717.0" svg_rhmargin="503.876" style="fill:#000000;font-family:Helvetica;font-size:8.0px;font-style:NORMAL;font-weight:normal;">tion of species distributions from occurrence data. Ecography. 2006; 29: 129–151.</text>
  <path d=" M 576.0 737.0999755859375 L 36.0 737.0999755859375 L 36.0 737.5999755859375 L 576.0 737.5999755859375" style="fill:none;stroke:#000000;stroke-width:0.0;"/>
  <path d="M294.066 93.663 L303.59 93.663 M359.206 654.072 L530.929 654.072 M221.499 663.596 L256.421 663.596 M387.382 686.103 L525.883 686.103 M221.499 695.571 L256.421 695.571 M576.0 62.9 L36.0 62.9 L36.0 62.4 L576.0 62.4 " style="fill:none;stroke:#000000;stroke-width:0.0;"/>
  <rect style="stroke:blue;stroke-width:0.3;" x="36.0" y="35.043" height="23.64" width="107.093" title="14"/>
  <text x="36.0" y="35.043" class="image" id="image.14.1" width="107" height="23">image.14.1.36_143.35_59</text>
  <text x="461.027,466.315,470.691,477.315,481.69,483.394,485.914,490.33,492.038,496.413,500.789,502.997,506.997,508.704,513.08,517.456,521.8720000000001,523.558,527.518,529.222,530.926,537.55,541.926,544.134,548.5500000000001,550.204,554.164,558.54,562.916,567.292,571.668" y="54.20500000000004" svg_rhmargin="576.084" style="fill:#000000;font-family:Helvetica;font-size:8.0px;font-style:NORMAL;font-weight:normal;">Vampire bats and climate change</text>
  <path d=" M 36.0 48.00019836425781 L 576.0 48.00019836425781 L 576.0 47.50019836425781 L 36.0 47.50019836425781" style="fill:none;stroke:#000000;stroke-width:0.0;"/>
  <path d=" M 81.58110046386719 34.92279815673828 L 237.8834991455078 34.92279815673828 Z " style="fill:none;stroke:#000000;stroke-width:0.0;"/>
  <text x="36.0,41.288,45.664,51.872,57.2,58.847,65.055,70.759,76.087,77.782,79.862,81.58,85.956,88.164,90.372,94.748,98.708,100.916,103.124,105.332,109.708,114.084,115.788,117.996,122.372,124.893,129.269,131.477,135.853,140.229,142.437,146.813,151.189,155.451,159.827,162.035,163.739,168.115,172.491,175.115,179.491,183.867,185.571,187.779,192.155,196.44,200.816,205.191,207.399,211.775,216.151,220.527,224.903,229.151,233.527,237.94299999999998,245.876,250.748,255.124,259.5,262.124,266.5,270.875,273.499,277.499,279.155,283.531,287.906,290.154,291.854,296.23,300.605,304.981,309.397,552.81,557.185,561.601,563.241,565.489,567.209,571.585" y="764.0" svg_rhmargin="576.001" style="fill:#000000;font-family:Helvetica;font-size:8.0px;font-style:NORMAL;font-weight:normal;">PLOS ONE | https://doi.org/10.1371/journal.pone.0192887 February 21, 2018 14 / 17</text>
 </g>
</svg>
