<?xml version="1.0" encoding="UTF-8"?>
<svg height="774.244" width="4108.638" xmlns="http://www.w3.org/2000/svg">
 <g id="page" xmlns:svgx="http://www.xml-cml.org/schema/svgx">
  <path style="fill:rgb(206,221,228);stroke:none;stroke-width:1.0;" d="M382.560 8.590 L382.560 26.390 L548.650 26.390 C548.650 26.390 554.310 26.390 554.310 20.720 L554.310 8.590 Z"/>
  <g begin="text">
   <text y="764.23" x="550.106" svgx:width="0.45" style="fill:rgb(206,221,228);font-family:Corbel2;font-size:10.0px;stroke:none;">3</text>
   <text y="764.244" x="40.794,45.842,50.946,53.586,58.562,64.818,69.81,72.45,77.05,79.69" svgx:width="0.58,0.58,0.28,0.57,0.73,0.57,0.28,0.52,0.28,0.58" style="fill:rgb(0,0,0);font-family:Corbel-Bold2;font-size:8.0px;stroke:none;">Scientific</text>
   <text y="764.244" x="84.65" svgx:width="0.2" style="fill:rgb(0,0,0);font-family:Corbel2;font-size:8.0px;stroke:none;"> </text>
   <text y="764.244" x="86.25,91.706,96.682,101.922,108.226,113.682,118.674" svgx:width="0.63,0.57,0.6,0.73,0.63,0.57,0.58" style="fill:rgb(0,0,0);font-family:Corbel-Bold2;font-size:8.0px;stroke:none;">RepoRtS</text>
   <text y="764.244" x="123.57,125.01,126.826" svgx:width="0.2,0.23,0.2" style="fill:rgb(0,0,0);font-family:Corbel2;font-size:8.0px;stroke:none;"> | </text>
   <text y="764.244" x="128.266,129.722,131.178,132.634,134.09,135.546,137.002,138.458,139.914,142.186,146.122,150.058,153.994,157.93,160.202,161.658,165.594,167.282,171.218,175.154,179.09,183.026,186.962" svgx:width="0.18,0.18,0.18,0.18,0.18,0.18,0.18,0.18,0.28,0.49,0.49,0.49,0.49,0.28,0.18,0.49,0.21,0.49,0.49,0.49,0.49,0.49,0.18" style="fill:rgb(0,0,0);font-family:MyriadPro-It;font-size:8.0px;stroke:none;"> (2019) 9:11838 </text>
   <text y="764.244" x="188.418,189.858,191.674" svgx:width="0.2,0.23,0.2" style="fill:rgb(0,0,0);font-family:Corbel2;font-size:8.0px;stroke:none;"> | </text>
   <text y="764.244" x="193.114,197.37,200.146,202.922,207.17,210.402,212.514,214.714,216.914,221.202,225.466,227.322,229.434,233.698,236.378,240.626,242.826,246.93,251.034,253.146,257.25,261.354,265.458,269.562,271.762,274.994,279.098,283.202,287.306,291.41,295.514,298.178,302.282,306.386,310.49,313.154,317.258,321.362,325.466,329.57,333.674,336.338" svgx:width="0.53,0.35,0.35,0.53,0.4,0.26,0.28,0.28,0.54,0.53,0.23,0.26,0.53,0.34,0.53,0.28,0.51,0.51,0.26,0.51,0.51,0.51,0.51,0.28,0.4,0.51,0.51,0.51,0.51,0.51,0.33,0.51,0.51,0.51,0.33,0.51,0.51,0.51,0.51,0.51,0.33,0.51" style="fill:rgb(0,0,0);font-family:Corbel;font-size:8.0px;stroke:none;">https://doi.org/10.1038/s41598-019-48310-1</text>
  </g>
  <g begin="text">
   <text y="22.277" x="389.724,397.484,405.243,412.702,415.869,421.732,427.216,431.234,437.005,440.9,446.465,449.633,454.583,460.508,469.466,472.746,477.349,482.299,485.139,490.699,496.562,500.58,503.419,507.14,509.979,514.93,518.825,524.391,530.295,536.219,540.115,544.133" svgx:width="0.71,0.71,0.71,0.26,0.53,0.49,0.35,0.52,0.34,0.5,0.26,0.44,0.53,0.83,0.28,0.4,0.44,0.23,0.5,0.53,0.35,0.23,0.32,0.23,0.44,0.34,0.5,0.53,0.53,0.34,0.35,0.4" style="fill:rgb(0,0,0);font-family:Corbel2;font-size:10.25px;stroke:none;">www.nature.com/scientificreports</text>
  </g>
  <path style="fill:none;stroke:rgb(0,0,0);stroke-width:1.0;" d="M40.640 752.550 L554.640 752.550 "/>
  <g begin="text">
   <text y="22.46" x="40.638,48.208,55.778,63.055,66.145,71.865,77.215,81.135,86.765,90.565,95.995,99.085,103.915,109.695,118.435,121.635,126.125,130.955,133.725,139.15,144.87,148.79,151.56,155.19,157.96,162.79,166.59,172.02,177.78,183.56,187.36,191.28,195.77" svgx:width="0.71,0.71,0.71,0.26,0.53,0.49,0.35,0.52,0.34,0.5,0.26,0.44,0.53,0.83,0.28,0.4,0.44,0.23,0.5,0.53,0.35,0.23,0.32,0.23,0.44,0.34,0.5,0.53,0.53,0.34,0.35,0.4,0.28" style="fill:rgb(0,0,0);font-family:Corbel2;font-size:10.0px;stroke:none;">www.nature.com/scientificreports/</text>
  </g>
  <g begin="text">
   <text y="598.0" x="155.638,165.214,169.012,170.983,174.709,179.461,183.305,188.129,192.242,196.04,198.011,205.328,209.09,213.194,215.165,218.36,222.158,225.389,230.186,232.329,235.047,237.018,239.745,242.941,247.396,254.74,256.711,258.961,263.416,268.24,272.425,275.602,278.266,282.064,285.431,292.775,294.746,297.986,302.765,305.15,310.361,313.637,315.608,317.993,322.889,324.86,328.658,333.347,337.514,339.9,343.095,347.549,352.445,359.754,363.552,368.277,371.049,375.018,377.268,379.239,383.379,387.222,390.588,393.0,396.852,401.335,403.585,407.383,410.659,412.684,414.655,418.552,421.828,423.799,426.229,428.524,430.666,435.391,438.622,441.385,444.697,448.45,451.114,454.957,459.682,461.654,466.055,470.159,472.13,474.901,479.644,483.442,485.413,488.725,492.569,497.393,501.506,505.304,507.275,510.515,515.294,517.679,522.89,524.861,529.487,533.284,536.029,542.096,545.939,549.737,554.66" svgx:width="1.07,0.43,0.23,0.42,0.53,0.44,0.55,0.47,0.43,0.23,0.82,0.44,0.46,0.23,0.37,0.43,0.37,0.53,0.25,0.31,0.23,0.3,0.37,0.51,0.82,0.23,0.25,0.51,0.55,0.47,0.36,0.31,0.43,0.37,0.82,0.23,0.37,0.53,0.27,0.58,0.37,0.23,0.27,0.55,0.23,0.43,0.55,0.46,0.27,0.37,0.51,0.55,0.82,0.43,0.55,0.31,0.44,0.25,0.23,0.46,0.44,0.37,0.27,0.44,0.51,0.25,0.43,0.37,0.23,0.23,0.44,0.37,0.23,0.27,0.25,0.25,0.53,0.37,0.31,0.37,0.44,0.31,0.43,0.53,0.23,0.51,0.46,0.23,0.31,0.53,0.43,0.23,0.37,0.44,0.55,0.47,0.43,0.23,0.37,0.53,0.27,0.58,0.23,0.51,0.43,0.31,0.69,0.43,0.43,0.55,0.23" style="fill:rgb(0,0,0);font-family:MinionPro-Regular;font-size:9.0px;stroke:none;">The change may result from long-term shifts in environmental variables, as illustrated by the range shift between </text>
   <text y="607.999" x="155.638,158.355,163.043,166.787,168.646,173.325,177.239,179.435,183.222,187.731,189.594,193.382,198.187,202.858,204.717,208.505,213.203,216.514,219.654,223.398,228.068,230.732,232.591,237.262,239.565,242.741,245.449,248.76,251.053,255.445,260.034,262.742,265.073,269.473,274.242,277.464,279.327,283.727,286.31,288.169,290.886,295.574,299.318,301.176,303.803,307.501,312.181,315.969,320.774,324.518,327.811,331.555,333.413,338.137,341.278,345.066,348.81,351.482,354.622,359.131,363.288,365.259" svgx:width="0.31,0.53,0.43,0.23,0.52,0.44,0.25,0.43,0.51,0.23,0.44,0.55,0.53,0.23,0.42,0.53,0.37,0.37,0.43,0.55,0.31,0.23,0.53,0.27,0.37,0.31,0.37,0.27,0.51,0.53,0.31,0.27,0.51,0.55,0.37,0.23,0.51,0.3,0.23,0.31,0.53,0.43,0.23,0.33,0.44,0.52,0.44,0.55,0.43,0.37,0.43,0.23,0.62,0.37,0.43,0.43,0.3,0.37,0.51,0.47,0.23,0.23" style="fill:rgb(0,0,0);font-family:MinionPro-Regular;font-size:9.0px;stroke:none;">the paleo and current distributions of the Japanese Treefrog, </text>
   <text y="607.999" x="367.093,373.419,376.811,380.671,384.738,388.941,393.233,397.265,399.857,403.303,406.253,408.129,410.441,414.671,418.927,422.986,427.539,429.878,433.234,437.985" svgx:width="0.71,0.37,0.44,0.47,0.49,0.51,0.44,0.31,0.4,0.34,0.23,0.27,0.49,0.49,0.47,0.53,0.27,0.38,0.53,0.34" style="fill:rgb(0,0,0);font-family:MinionPro-It;font-size:9.0px;stroke:none;">Dryophytes japonicus</text>
   <text y="607.999" x="440.938,442.909,444.768,447.099,451.941,453.804,460.184,464.584,467.931,470.648,475.373,477.236,482.383,486.225,489.401,492.065,493.924,499.917,503.139,505.496" svgx:width="0.23,0.23,0.27,0.55,0.23,0.74,0.51,0.37,0.31,0.53,0.23,0.57,0.44,0.37,0.31,0.23,0.69,0.37,0.27,0.44" style="fill:rgb(0,0,0);font-family:MinionPro-Regular;font-size:9.0px;stroke:none;">, in North East Asia</text>
   <text y="604.94" x="509.346,512.101" svgx:width="0.48,0.48" style="fill:rgb(0,0,255);font-family:MinionPro-Regular;font-size:5.85px;stroke:none;">16</text>
   <text y="608.0" x="514.855,516.826,518.685,522.761,529.159,537.097,540.319,542.182,545.933,549.721,554.644" svgx:width="0.23,0.23,0.47,0.74,0.89,0.37,0.23,0.42,0.44,0.55,0.23" style="fill:rgb(0,0,0);font-family:MinionPro-Regular;font-size:9.0px;stroke:none;">. SDMs can </text>
   <text y="617.999" x="155.638,159.594,161.804,165.139,169.688,171.614,176.227,180.011,181.937,186.649,189.983,193.813,198.529,200.455,203.106,207.656,209.582,214.149,217.331,221.16,225.876,228.248,232.077,234.782,236.708,240.834,244.664,248.017,250.415,254.156,256.905,259.277,263.718,268.53,271.792,273.718,276.094,280.977,282.903,285.661,290.391,294.18,296.106,300.822,303.166,306.384,309.133,312.487,314.822,319.255,323.886,326.636,329.007,333.449,338.336,340.262,344.704,347.328,349.254,352.471,357.228,361.057,364.824,367.2,370.984,374.247,376.173,380.776,385.515,389.304,391.23,393.881,398.431,400.357,403.034,407.665,410.28,415.018,418.2,421.985,423.911,427.74,432.587,437.029,444.332,448.289,450.525,452.897,456.681,459.944,461.87,465.052,468.837,472.054,476.838,478.967,481.717,484.088,488.899,493.075,495.001,497.715,500.897,505.338,512.669,514.595,518.307,520.544,522.92,530.223,533.964,536.614,540.398,542.325,546.037,550.776" svgx:width="0.44,0.25,0.37,0.51,0.23,0.51,0.43,0.23,0.53,0.37,0.43,0.53,0.23,0.31,0.51,0.23,0.52,0.37,0.43,0.53,0.27,0.42,0.31,0.23,0.46,0.44,0.37,0.27,0.44,0.31,0.27,0.51,0.55,0.37,0.23,0.27,0.55,0.23,0.31,0.53,0.43,0.23,0.53,0.27,0.37,0.31,0.37,0.27,0.51,0.53,0.31,0.27,0.51,0.55,0.23,0.51,0.3,0.23,0.37,0.52,0.43,0.42,0.27,0.43,0.37,0.23,0.53,0.53,0.43,0.23,0.31,0.51,0.23,0.3,0.53,0.31,0.53,0.37,0.43,0.23,0.44,0.55,0.51,0.82,0.44,0.25,0.27,0.43,0.37,0.23,0.37,0.43,0.37,0.53,0.25,0.31,0.27,0.55,0.47,0.23,0.3,0.37,0.51,0.82,0.23,0.42,0.25,0.27,0.82,0.44,0.31,0.43,0.23,0.42,0.53,0.44" style="fill:rgb(0,0,0);font-family:MinionPro-Regular;font-size:9.0px;stroke:none;">also be used to predict variations in the distribution of species due to future anomalies resulting from climate cha</text>
   <text y="627.998" x="155.638,160.471,164.593" svgx:width="0.55,0.47,0.43" style="fill:rgb(0,0,0);font-family:MinionPro-Regular;font-size:9.0px;stroke:none;">nge</text>
   <text y="624.94" x="168.394" svgx:width="0.48" style="fill:rgb(0,0,255);font-family:MinionPro-Regular;font-size:5.85px;stroke:none;">9</text>
   <text y="624.94" x="171.19" svgx:width="0.23" style="fill:rgb(0,0,0);font-family:MinionPro-Regular;font-size:5.85px;stroke:none;">,</text>
   <text y="624.94" x="172.512,175.308" svgx:width="0.48,0.48" style="fill:rgb(0,0,255);font-family:MinionPro-Regular;font-size:5.85px;stroke:none;">13</text>
   <text y="624.94" x="178.105" svgx:width="0.23" style="fill:rgb(0,0,0);font-family:MinionPro-Regular;font-size:5.85px;stroke:none;">,</text>
   <text y="624.94" x="179.421,182.217" svgx:width="0.48,0.48" style="fill:rgb(0,0,255);font-family:MinionPro-Regular;font-size:5.85px;stroke:none;">14</text>
   <text y="624.94" x="185.014" svgx:width="0.23" style="fill:rgb(0,0,0);font-family:MinionPro-Regular;font-size:5.85px;stroke:none;">,</text>
   <text y="624.94" x="186.33,189.126" svgx:width="0.48,0.48" style="fill:rgb(0,0,255);font-family:MinionPro-Regular;font-size:5.85px;stroke:none;">17</text>
   <text y="624.94" x="191.922" svgx:width="0.52" style="fill:rgb(0,0,0);font-family:MinionPro-Regular;font-size:5.85px;stroke:none;">–</text>
   <text y="624.94" x="194.947,197.743" svgx:width="0.48,0.48" style="fill:rgb(0,0,255);font-family:MinionPro-Regular;font-size:5.85px;stroke:none;">19</text>
   <text y="628.0" x="200.54,202.574,204.567,209.703,213.492,218.0,220.259,224.831,229.068,231.462,235.275,239.251,241.51,243.508,250.823,255.474,260.208,263.977,266.207,269.492,271.486,274.264,278.879,283.611,286.896,288.89,292.865,295.168,297.427,301.853,308.0,309.993,314.727,318.534,321.204,325.012,328.384,335.737,338.131,343.036,345.43,350.261,354.455,356.453,359.231,363.982,367.789,369.782,373.103,376.952,381.784,385.904,389.711,391.709,396.17,398.816,400.81,404.048,408.824,412.674,416.463,418.857,422.664,425.949,427.943,430.337,435.242,437.235,441.024,445.486,450.354,455.088,457.372,460.142,462.536,466.998,471.829,475.115,477.112,483.32,488.07,491.877,495.078,498.885,500.879,503.163,505.89,507.884,513.956,518.427,523.231,525.49,530.224,532.218,537.085,541.556,544.283,546.277,550.91,554.735" svgx:width="0.23,0.23,0.57,0.42,0.51,0.25,0.51,0.47,0.27,0.42,0.44,0.25,0.23,0.82,0.51,0.53,0.43,0.25,0.37,0.23,0.31,0.53,0.53,0.37,0.23,0.44,0.25,0.25,0.51,0.69,0.23,0.53,0.43,0.31,0.43,0.37,0.82,0.27,0.55,0.27,0.55,0.47,0.23,0.31,0.53,0.43,0.23,0.37,0.44,0.55,0.47,0.43,0.23,0.51,0.3,0.23,0.37,0.52,0.43,0.42,0.27,0.43,0.37,0.23,0.27,0.55,0.23,0.42,0.51,0.55,0.53,0.27,0.31,0.27,0.51,0.55,0.37,0.23,0.69,0.53,0.43,0.37,0.43,0.23,0.27,0.31,0.23,0.69,0.51,0.53,0.25,0.53,0.23,0.55,0.51,0.31,0.23,0.51,0.43,0.23" style="fill:rgb(0,0,0);font-family:MinionPro-Regular;font-size:9.0px;stroke:none;">. Ecological models thus allow determining the range of species in conditions where it would not be </text>
   <text y="637.999" x="155.639,160.04,162.749,167.429,171.164,174.673,180.775,183.07,186.355,190.09,191.809,196.471,201.016,204.805,209.224,211.411,215.146,216.865,221.257,224.506,226.225,232.363,237.043,240.778,245.611,247.33,250.039,254.719,258.454,260.173,263.422,267.202,271.963,276.013,279.748,281.467,286.029,290.43,295.119,299.916,304.605,308.385,311.688,314.01,317.745,320.958,322.677,326.457,329.589,333.324,335.043,339.84,344.241,346.896,348.615,353.024,357.821,362.177,368.279" svgx:width="0.51,0.31,0.53,0.43,0.37,0.69,0.27,0.37,0.43,0.23,0.53,0.51,0.44,0.51,0.25,0.43,0.23,0.51,0.37,0.23,0.69,0.53,0.43,0.55,0.23,0.31,0.53,0.43,0.23,0.37,0.44,0.55,0.47,0.43,0.23,0.51,0.51,0.53,0.55,0.53,0.44,0.37,0.27,0.43,0.37,0.23,0.44,0.37,0.43,0.23,0.55,0.51,0.31,0.23,0.5,0.55,0.51,0.69,0.55" style="fill:rgb(0,0,0);font-family:MinionPro-Regular;font-size:9.0px;stroke:none;">otherwise doable or when the range boundaries are not known</text>
   <text y="634.94" x="373.124,375.874" svgx:width="0.48,0.48" style="fill:rgb(0,0,255);font-family:MinionPro-Regular;font-size:5.85px;stroke:none;">20</text>
   <text y="634.94" x="378.623" svgx:width="0.52" style="fill:rgb(0,0,0);font-family:MinionPro-Regular;font-size:5.85px;stroke:none;">–</text>
   <text y="634.94" x="381.607,384.356" svgx:width="0.48,0.48" style="fill:rgb(0,0,255);font-family:MinionPro-Regular;font-size:5.85px;stroke:none;">22</text>
   <text y="638.0" x="387.105,389.067,390.786,395.285,399.677,402.926,404.645,406.967,411.728,414.896,417.605,421.385,426.182,429.899,433.58,435.542,437.261,440.996,443.318,447.503,452.048,454.703,456.422,461.219,465.026,471.101,472.82,475.007,479.588,483.332,487.237,489.424,491.638,494.338,496.66,500.395,503.608,505.327,509.719,512.293" svgx:width="0.23,0.23,0.53,0.51,0.37,0.23,0.27,0.55,0.37,0.31,0.44,0.55,0.42,0.43,0.23,0.23,0.43,0.27,0.47,0.53,0.31,0.23,0.55,0.43,0.69,0.23,0.25,0.51,0.42,0.44,0.25,0.27,0.31,0.27,0.43,0.37,0.23,0.51,0.3,0.23" style="fill:rgb(0,0,0);font-family:MinionPro-Regular;font-size:9.0px;stroke:none;">. For instance, eight new localities of </text>
   <text y="638.0" x="514.012,519.52,521.797,526.045,529.555,532.588,536.908,538.645,543.235,546.403,549.256,551.634" svgx:width="0.68,0.27,0.49,0.4,0.37,0.49,0.23,0.53,0.37,0.34,0.27,0.33" style="fill:rgb(0,0,0);font-family:MinionPro-It;font-size:9.0px;stroke:none;">Vipera ursi-</text>
   <text y="647.999" x="155.643,160.191,162.444,164.814,166.686,170.432,173.468,177.725,181.184,184.469" svgx:width="0.53,0.27,0.27,0.23,0.42,0.37,0.49,0.4,0.38,0.49" style="fill:rgb(0,0,0);font-family:MinionPro-It;font-size:9.0px;stroke:none;">nii graeca</text>
   <text y="647.999" x="188.79,190.644,196.65,200.385,203.519,207.254,209.108,211.604,216.007,220.696,225.496,230.158,232.012,234.723,239.439,242.574,246.977,251.666,255.854,260.57,262.424,264.641,268.423,273.222,277.86,281.147,284.893,288.586,293.296,297.031,298.885,302.667,307.466,312.128,313.982,317.648,319.835,322.157,329.414,333.106,335.71,339.445,341.299,348.546,353.129,357.791,361.492,363.727,365.914,368.236,373.0,377.151,379.113,380.967,385.629,390.033,394.688,399.11,401.297,403.619,408.381,412.503,414.357,417.069,421.752,425.487,427.341,431.753,436.552,440.911,447.016,451.849,453.703,456.952,460.734,465.498,469.551,473.286,475.14,479.534,482.108,483.962,486.674,491.357,495.092,496.946,500.117,504.825,508.608,512.325,514.647,518.382" svgx:width="0.23,0.69,0.43,0.37,0.43,0.23,0.3,0.51,0.53,0.55,0.53,0.23,0.31,0.53,0.37,0.51,0.53,0.47,0.53,0.23,0.25,0.44,0.55,0.53,0.37,0.42,0.44,0.52,0.43,0.23,0.44,0.55,0.53,0.23,0.42,0.25,0.27,0.82,0.44,0.31,0.43,0.23,0.82,0.51,0.53,0.43,0.25,0.25,0.27,0.55,0.47,0.23,0.23,0.53,0.51,0.53,0.51,0.25,0.27,0.55,0.47,0.23,0.31,0.53,0.43,0.23,0.5,0.55,0.51,0.69,0.55,0.23,0.37,0.44,0.55,0.47,0.43,0.23,0.51,0.3,0.23,0.31,0.53,0.43,0.23,0.37,0.52,0.43,0.42,0.27,0.43,0.37" style="fill:rgb(0,0,0);font-family:MinionPro-Regular;font-size:9.0px;stroke:none;"> were found through landscape and climate modelling, doubling the known range of the species</text>
   <text y="644.94" x="521.66,524.41" svgx:width="0.48,0.48" style="fill:rgb(0,0,255);font-family:MinionPro-Regular;font-size:5.85px;stroke:none;">23</text>
   <text y="648.0" x="527.162,529.127,530.981,535.034,539.705,543.398,546.098,548.449,552.355,554.632" svgx:width="0.23,0.23,0.47,0.52,0.44,0.31,0.27,0.44,0.25,0.23" style="fill:rgb(0,0,0);font-family:MinionPro-Regular;font-size:9.0px;stroke:none;">. Spatial </text>
   <text y="657.999" x="155.642,162.893,167.479,172.146,175.85,178.088,180.284,182.615,187.381,191.507,193.361,195.86,200.257,203.511,205.365,208.655,213.052,220.302,224.046,225.9,229.568,231.788,235.658,240.329,244.068,247.29,249.144,255.251,257.47,260.185,264.87,269.276,273.863,276.527,278.381,282.049,284.245,288.04,291.825,295.079,296.933,300.988,304.772,309.281,313.454,316.712,320.407,324.975,329.7,332.031,335.757,337.611,342.179,346.586,351.284,356.086,360.78,364.566,367.873,370.204,373.948,377.17,379.141,380.995,384.169,388.867,392.535,397.26,399.114,402.953,406.175,408.029,412.733,415.915,420.64,422.494,426.892,430.15,432.004,436.383,438.714,441.851,446.492" svgx:width="0.82,0.51,0.53,0.43,0.25,0.25,0.27,0.55,0.47,0.23,0.3,0.51,0.37,0.23,0.37,0.51,0.82,0.43,0.23,0.42,0.25,0.44,0.53,0.43,0.37,0.23,0.69,0.27,0.31,0.53,0.51,0.53,0.31,0.23,0.42,0.25,0.43,0.44,0.37,0.23,0.47,0.43,0.51,0.47,0.37,0.44,0.52,0.53,0.27,0.42,0.23,0.51,0.51,0.53,0.55,0.53,0.44,0.37,0.27,0.43,0.37,0.23,0.23,0.37,0.53,0.42,0.53,0.23,0.44,0.37,0.23,0.54,0.37,0.53,0.23,0.51,0.37,0.23,0.51,0.27,0.37,0.53,0.37" style="fill:rgb(0,0,0);font-family:MinionPro-Regular;font-size:9.0px;stroke:none;">modelling for some clades without clear geographic boundaries, such as fish or birds</text>
   <text y="654.94" x="449.643,452.398" svgx:width="0.48,0.48" style="fill:rgb(0,0,255);font-family:MinionPro-Regular;font-size:5.85px;stroke:none;">24</text>
   <text y="658.0" x="455.149,457.003,459.303,462.525,464.379,466.71,471.594,476.279,480.023,483.16,486.9,491.567,494.282,496.411,500.461,502.315,509.565,513.963,517.1,520.844,522.698,526.424,530.822,537.937,542.505,544.697,548.441,552.608,554.66" svgx:width="0.23,0.27,0.37,0.23,0.27,0.55,0.53,0.43,0.37,0.43,0.55,0.31,0.25,0.46,0.23,0.82,0.51,0.37,0.43,0.23,0.42,0.51,0.82,0.52,0.25,0.43,0.47,0.23,0.23" style="fill:rgb(0,0,0);font-family:MinionPro-Regular;font-size:9.0px;stroke:none;"> is inherently more complex. </text>
   <text y="667.999" x="155.638,162.187,166.514,172.488,176.265,180.241,183.949,186.601,188.536,190.156,193.295,197.972,201.722,205.412,207.707,211.415,214.601,216.221,218.381,220.718,224.982,228.69,230.31,234.061,241.141,245.675,250.364,252.62,256.965,259.284,263.035,267.767,270.953,272.573,276.323,279.426,283.134,284.754,289.432,293.14,296.413,298.877,302.627,306.378,309.006,310.626,317.842,322.393,327.028,330.698,332.858,334.478,337.617,342.294,346.044,349.734,352.029,355.737,358.923,360.543,364.349,367.535,369.155,371.834,376.484,380.262,384.276,385.896,390.531,395.004,396.624,401.393,405.764,408.392,410.012,414.647,416.912,420.051,424.729,428.437,431.602,434.858,438.566,440.186,444.512,448.488,452.196,455.418,457.038,459.198,463.561,468.292,472.387,474.007,478.642,480.908,484.047,486.726,490.477,495.245,498.935,502.643" svgx:width="0.77,0.51,0.69,0.43,0.46,0.43,0.37,0.23,0.23,0.37,0.52,0.43,0.42,0.27,0.43,0.37,0.23,0.25,0.27,0.5,0.43,0.23,0.44,0.82,0.52,0.53,0.27,0.51,0.27,0.44,0.55,0.37,0.23,0.44,0.37,0.43,0.23,0.52,0.43,0.37,0.3,0.43,0.42,0.31,0.23,0.82,0.51,0.53,0.43,0.25,0.23,0.37,0.52,0.43,0.42,0.27,0.43,0.37,0.23,0.44,0.37,0.23,0.31,0.53,0.43,0.46,0.23,0.53,0.51,0.23,0.55,0.51,0.31,0.23,0.53,0.27,0.37,0.52,0.43,0.37,0.37,0.43,0.23,0.51,0.46,0.43,0.37,0.23,0.25,0.51,0.55,0.47,0.23,0.53,0.27,0.37,0.31,0.44,0.55,0.42,0.43,0.37" style="fill:rgb(0,0,0);font-family:MinionPro-Regular;font-size:9.0px;stroke:none;">However, species like amphibians are perfect model species as they do not disperse over long distances</text>
   <text y="664.94" x="505.701,508.433" svgx:width="0.48,0.48" style="fill:rgb(0,0,255);font-family:MinionPro-Regular;font-size:5.85px;stroke:none;">25</text>
   <text y="668.0" x="511.162,513.097,514.717,519.485,523.848,527.07,528.69,533.325,537.798,539.418,542.098,546.748,550.525,554.656" svgx:width="0.23,0.23,0.55,0.51,0.37,0.23,0.53,0.51,0.23,0.31,0.53,0.43,0.46,0.23" style="fill:rgb(0,0,0);font-family:MinionPro-Regular;font-size:9.0px;stroke:none;">, nor do they </text>
   <text y="677.999" x="155.635,162.916,165.238,169.404,172.653,176.343,178.944,182.679,184.425,188.781,192.786,196.521,199.77,201.516,206.178,210.867,218.112,221.847,224.978,229.379,234.041,237.254,239.0,242.663,244.85,247.172,254.426,258.115,260.815,263.137,266.854,268.6,272.29,276.682,281.479,285.214,288.427,290.389,292.135,295.915,300.712,305.374,307.12,309.829,314.374,319.036,322.249,323.995,328.684,332.383,336.388,340.123,341.869,345.918,349.653,354.45,358.185,361.434,365.34,367.571,369.695,373.736,375.482,379.199,383.591,388.253,390.953,393.275,397.937,402.626,407.027,411.689,414.902,416.648,421.31,423.605,426.773,429.473,432.775,435.061,439.444,444.025,446.725,449.047,453.439,458.272,460.018,464.689,468.379,470.944,473.545,477.28,480.582,485.343" svgx:width="0.82,0.27,0.47,0.37,0.44,0.31,0.43,0.23,0.51,0.46,0.43,0.37,0.23,0.55,0.53,0.82,0.43,0.37,0.51,0.53,0.37,0.23,0.42,0.25,0.27,0.82,0.44,0.31,0.27,0.42,0.23,0.42,0.51,0.55,0.43,0.37,0.23,0.23,0.44,0.55,0.53,0.23,0.31,0.53,0.53,0.37,0.23,0.53,0.44,0.46,0.43,0.23,0.47,0.43,0.55,0.43,0.37,0.44,0.25,0.25,0.46,0.23,0.42,0.51,0.55,0.31,0.27,0.55,0.53,0.51,0.53,0.37,0.23,0.53,0.27,0.37,0.31,0.37,0.27,0.51,0.53,0.31,0.27,0.51,0.55,0.23,0.52,0.44,0.31,0.31,0.43,0.37,0.55,0.37" style="fill:rgb(0,0,0);font-family:MinionPro-Regular;font-size:9.0px;stroke:none;">migrate over numerous climatic zones, and thus have generally continuous distribution patterns</text>
   <text y="674.94" x="488.59,491.34" svgx:width="0.48,0.48" style="fill:rgb(0,0,255);font-family:MinionPro-Regular;font-size:5.85px;stroke:none;">26</text>
   <text y="678.0" x="494.089" svgx:width="0.23" style="fill:rgb(0,0,0);font-family:MinionPro-Regular;font-size:9.0px;stroke:none;">.</text>
   <text y="687.999" x="167.641,173.946,181.259,186.025,190.943,193.432,198.009,200.56,204.543,209.507,212.923,215.155,219.137,222.473,226.41,228.642,232.562,237.156,244.469,249.342,253.326,256.777,260.67,263.572,266.034,270.242,274.143,276.47,280.718,282.95,290.397,294.993,298.327,302.265,304.497,308.434,313.434,318.325,322.309,327.272,331.525,335.462,338.798,342.78,347.645,349.877,353.859,358.859,363.723,365.955,368.345,372.282,375.654,379.069,381.301,384.672,387.44,392.331,397.196,399.725,403.707,408.572,410.804,413.715,418.607,422.59,427.626,429.858,432.769,437.653,441.59,444.115,447.566,449.798,453.718,458.321,463.217,468.082,470.885,474.823,478.364,483.238,487.221,490.763,493.62,497.036,499.205,501.437,506.202,510.14,512.372,515.283,520.166,524.108,531.591,533.823,538.671,542.941,545.466,550.429,554.641" svgx:width="0.69,0.82,0.52,0.53,0.27,0.51,0.27,0.44,0.55,0.37,0.23,0.44,0.37,0.43,0.23,0.42,0.51,0.82,0.52,0.44,0.37,0.44,0.31,0.27,0.46,0.43,0.25,0.46,0.23,0.82,0.51,0.37,0.43,0.23,0.43,0.55,0.53,0.44,0.55,0.47,0.43,0.37,0.43,0.53,0.23,0.44,0.55,0.53,0.23,0.25,0.43,0.37,0.37,0.23,0.37,0.31,0.53,0.53,0.27,0.43,0.53,0.23,0.31,0.53,0.44,0.55,0.23,0.31,0.53,0.43,0.27,0.37,0.23,0.42,0.51,0.53,0.55,0.31,0.43,0.37,0.52,0.44,0.37,0.31,0.37,0.23,0.23,0.51,0.43,0.23,0.31,0.53,0.43,0.82,0.23,0.53,0.46,0.27,0.55,0.47,0.23" style="fill:rgb(0,0,0);font-family:MinionPro-Regular;font-size:9.0px;stroke:none;">Amphibians are comparatively more endangered and less studied than their counterparts, be them flying </text>
   <text y="697.998" x="155.644,160.171,163.552,165.536,169.357,174.196,178.062,182.352,184.336,188.989,192.252,196.164,200.984,204.807,207.539,212.066" svgx:width="0.51,0.37,0.23,0.44,0.52,0.43,0.47,0.23,0.52,0.37,0.43,0.53,0.44,0.31,0.51,0.37" style="fill:rgb(0,0,0);font-family:MinionPro-Regular;font-size:9.0px;stroke:none;">or apex predator</text>
   <text y="694.94" x="215.429,218.266" svgx:width="0.48,0.48" style="fill:rgb(0,0,255);font-family:MinionPro-Regular;font-size:5.85px;stroke:none;">27</text>
   <text y="698.0" x="221.099,223.196,225.181,229.092,234.021,238.818,240.802,243.642,248.454,252.324,254.307,257.691,261.604,266.496,270.677,274.547,276.531,281.055,283.764,285.748,293.124,297.759,301.06,303.85,305.833,309.133,313.971,317.882,321.734,324.191,328.061,331.409,333.394,335.82,339.168,341.152,346.081,350.614,353.404,355.387,359.383,363.235,367.147,371.966,375.35,379.172,381.904,385.734,387.99,392.166,394.15,398.947,402.817,407.677,412.606,416.517,421.257,423.353,425.338,431.571,433.917,436.757,441.608,443.593,450.978,454.89,459.647,463.823,465.807,469.107,473.945,477.857,481.709,484.166,488.036,491.384,493.367,497.163,499.507,503.473,506.773,510.121,512.578,517.438,521.349,526.146,528.13,532.096,535.444,537.428,544.138,547.959,550.8,554.751" svgx:width="0.23,0.23,0.44,0.55,0.53,0.23,0.31,0.53,0.43,0.23,0.37,0.44,0.55,0.47,0.43,0.23,0.51,0.3,0.23,0.82,0.51,0.37,0.31,0.23,0.37,0.52,0.43,0.42,0.27,0.43,0.37,0.23,0.27,0.37,0.23,0.55,0.51,0.31,0.23,0.44,0.42,0.42,0.53,0.37,0.44,0.31,0.43,0.25,0.46,0.23,0.53,0.43,0.54,0.55,0.43,0.53,0.23,0.23,0.69,0.27,0.31,0.53,0.23,0.82,0.44,0.55,0.46,0.23,0.37,0.52,0.43,0.42,0.27,0.43,0.37,0.23,0.42,0.25,0.44,0.37,0.37,0.27,0.54,0.43,0.53,0.23,0.44,0.37,0.23,0.74,0.44,0.31,0.44,0.23" style="fill:rgb(0,0,0);font-family:MinionPro-Regular;font-size:9.0px;stroke:none;">, and the range of most species is not accurately defined, with many species classified as Data </text>
   <text y="707.999" x="155.642,162.325,166.163,170.992,174.812,177.238,181.076,185.843,188.601,190.554,195.347,200.248,205.013,208.852,212.204,214.157,216.97,221.754,225.593,227.546,230.628,237.266,243.264,249.969,251.922,255.743,259.149,261.467,264.171,268.014,271.421,273.873" svgx:width="0.74,0.43,0.54,0.42,0.27,0.43,0.55,0.31,0.23,0.53,0.55,0.53,0.43,0.37,0.23,0.31,0.53,0.43,0.23,0.34,0.74,0.67,0.74,0.23,0.42,0.37,0.27,0.31,0.43,0.37,0.27,0.44" style="fill:rgb(0,0,0);font-family:MinionPro-Regular;font-size:9.0px;stroke:none;">Deficient under the IUCN criteria</text>
   <text y="704.94" x="277.83,280.647" svgx:width="0.48,0.48" style="fill:rgb(0,0,255);font-family:MinionPro-Regular;font-size:5.85px;stroke:none;">28</text>
   <text y="708.0" x="283.464,285.529,287.482,297.135,299.533,302.85,304.803,307.201,310.518,312.471,316.309,319.582,324.392,328.276,332.096,334.549,338.558,340.894,343.121,347.266,349.219,352.022,355.465,360.257,364.096,366.049,368.646,373.141,376.494,378.447,382.6,386.484,391.092,395.362,398.715,402.508,407.175,411.995,414.42,418.241,420.194,424.077,427.313,431.205,435.143,438.459,440.412,446.654,451.437,455.276,458.512,462.35,464.303,468.187,472.007,476.548,478.839,483.447,487.717,490.143,493.99,498.0,500.29,502.243,505.479,509.322,512.71,516.603,520.486,523.721,527.488,532.307,534.26,536.659,539.975,541.928,544.219,548.057,551.329,554.632" svgx:width="0.23,0.23,1.07,0.27,0.37,0.23,0.27,0.37,0.23,0.43,0.37,0.52,0.43,0.42,0.27,0.44,0.25,0.25,0.46,0.23,0.31,0.37,0.53,0.43,0.23,0.3,0.51,0.37,0.23,0.47,0.43,0.51,0.47,0.37,0.44,0.52,0.53,0.27,0.42,0.23,0.44,0.37,0.43,0.44,0.37,0.23,0.69,0.53,0.43,0.37,0.43,0.23,0.43,0.42,0.51,0.25,0.51,0.47,0.27,0.42,0.44,0.25,0.23,0.37,0.43,0.37,0.43,0.44,0.37,0.42,0.53,0.23,0.27,0.37,0.23,0.25,0.43,0.37,0.37,0.23" style="fill:rgb(0,0,0);font-family:MinionPro-Regular;font-size:9.0px;stroke:none;">. This is especially true for geographic areas where ecological research is less </text>
   <text y="717.999" x="155.637,161.828,164.24,168.992,172.817,176.075,180.683,183.905,187.784,191.735,196.433,198.485,200.294,204.883,209.365,212.704,214.513,216.925,221.776,225.034,227.833,231.703,236.59,240.397,244.168,246.22,248.029,250.828,255.598,259.423,261.232,265.372,270.088,276.181,280.051,284.533,289.456,291.265,296.071,299.293,303.163,306.988,309.741,312.963,317.553,321.765,323.574" svgx:width="0.69,0.27,0.53,0.43,0.37,0.52,0.37,0.43,0.44,0.53,0.23,0.23,0.53,0.51,0.37,0.23,0.27,0.55,0.37,0.31,0.44,0.55,0.42,0.43,0.23,0.23,0.31,0.53,0.43,0.23,0.47,0.53,0.69,0.43,0.51,0.55,0.23,0.62,0.37,0.43,0.43,0.3,0.37,0.51,0.47,0.23,0.35" style="fill:rgb(0,0,0);font-family:MinionPro-Regular;font-size:9.0px;stroke:none;">widespread. For instance, the Suweon Treefrog (</text>
   <text y="717.999" x="326.688,333.096,336.57,340.512,344.661,348.945,353.318,357.431,360.104,363.632,366.665,368.492,371.435,376.096,382.09,385.636,389.776,394.501,398.101,402.889,405.832,408.325" svgx:width="0.71,0.37,0.44,0.47,0.49,0.51,0.44,0.31,0.4,0.34,0.23,0.34,0.53,0.67,0.4,0.47,0.53,0.4,0.53,0.34,0.27,0.34" style="fill:rgb(0,0,0);font-family:MinionPro-It;font-size:9.0px;stroke:none;">Dryophytes suweonensis</text>
   <text y="717.999" x="411.372,414.486,416.295,418.707,423.63,425.439,428.237,433.007,436.832,438.641,444.257,448.082,452.699,457.442,461.951,464.228,466.64,470.447,472.256,476.738,479.402,481.211,487.052,491.534,494.756,498.635,502.586,504.395,507.751,511.54,517.706,519.515,521.819,524.564,527.867,529.676,534.176,539.063,543.509,549.701,554.623" svgx:width="0.35,0.23,0.27,0.55,0.23,0.31,0.53,0.43,0.23,0.62,0.43,0.52,0.53,0.51,0.25,0.27,0.42,0.23,0.51,0.3,0.23,0.67,0.51,0.37,0.43,0.44,0.23,0.37,0.44,0.69,0.23,0.27,0.31,0.37,0.23,0.5,0.55,0.51,0.69,0.55,0.23" style="fill:rgb(0,0,0);font-family:MinionPro-Regular;font-size:9.0px;stroke:none;">) in the Republic of Korea saw its known </text>
   <text y="727.998" x="155.637,158.976,162.846,167.697,171.837,175.662,177.498,182.25,186.741,191.484,195.993,198.27,202.139,206.891,208.727,213.38,217.205,219.977,226.07,229.94,233.765,238.688,240.524,244.844,249.164,253.484" svgx:width="0.37,0.44,0.55,0.47,0.43,0.23,0.53,0.51,0.53,0.51,0.25,0.43,0.53,0.23,0.51,0.43,0.31,0.69,0.43,0.43,0.55,0.23,0.48,0.48,0.48,0.48" style="fill:rgb(0,0,0);font-family:MinionPro-Regular;font-size:9.0px;stroke:none;">range doubled between 2012</text>
   <text y="724.94" x="257.813,260.621" svgx:width="0.48,0.48" style="fill:rgb(0,0,255);font-family:MinionPro-Regular;font-size:5.85px;stroke:none;">29</text>
   <text y="728.0" x="263.428,265.264,269.134,274.021,278.773,280.609,284.929,289.249,293.569" svgx:width="0.23,0.44,0.55,0.53,0.23,0.48,0.48,0.48,0.48" style="fill:rgb(0,0,0);font-family:MinionPro-Regular;font-size:9.0px;stroke:none;"> and 2017</text>
   <text y="724.94" x="297.895,300.703" svgx:width="0.48,0.48" style="fill:rgb(0,0,255);font-family:MinionPro-Regular;font-size:5.85px;stroke:none;">30</text>
   <text y="724.94" x="303.511" svgx:width="0.23" style="fill:rgb(0,0,0);font-family:MinionPro-Regular;font-size:5.85px;stroke:none;">,</text>
   <text y="724.94" x="304.844,307.652" svgx:width="0.48,0.48" style="fill:rgb(0,0,255);font-family:MinionPro-Regular;font-size:5.85px;stroke:none;">31</text>
   <text y="728.0" x="310.46" svgx:width="0.23" style="fill:rgb(0,0,0);font-family:MinionPro-Regular;font-size:9.0px;stroke:none;">.</text>
  </g>
  <path style="fill:none;stroke:rgb(206,221,228);stroke-width:0.3;" d="M159.130 156.370 L552.640 156.370 "/>
  <path style="fill:none;stroke:rgb(206,221,228);stroke-width:1.0;" d="M156.140 156.370 L156.140 156.370 M554.140 156.370 L554.140 156.370 "/>
  <path style="fill:none;stroke:rgb(0,0,0);stroke-width:1.0;" d="M155.640 46.620 L195.250 46.620 "/>
  <path style="fill:none;stroke:rgb(0,0,0);stroke-width:0.25;" d="M155.760 73.120 L155.760 46.750 "/>
  <path style="fill:none;stroke:rgb(0,0,0);stroke-width:0.25;" d="M155.640 73.250 L195.250 73.250 "/>
  <path style="fill:none;stroke:rgb(0,0,0);stroke-width:0.25;" d="M195.250 46.620 L260.280 46.620 "/>
  <path style="fill:none;stroke:rgb(0,0,0);stroke-width:0.25;" d="M195.250 73.120 L195.250 46.750 "/>
  <path style="fill:none;stroke:rgb(0,0,0);stroke-width:0.25;" d="M195.250 73.250 L260.280 73.250 "/>
  <path style="fill:none;stroke:rgb(0,0,0);stroke-width:0.25;" d="M260.280 46.620 L315.620 46.620 "/>
  <path style="fill:none;stroke:rgb(0,0,0);stroke-width:0.25;" d="M260.280 73.120 L260.280 46.750 "/>
  <path style="fill:none;stroke:rgb(0,0,0);stroke-width:0.25;" d="M260.280 73.250 L315.620 73.250 "/>
  <path style="fill:none;stroke:rgb(0,0,0);stroke-width:0.25;" d="M315.620 46.620 L363.460 46.620 "/>
  <path style="fill:none;stroke:rgb(0,0,0);stroke-width:0.25;" d="M315.620 73.120 L315.620 46.750 "/>
  <path style="fill:none;stroke:rgb(0,0,0);stroke-width:0.25;" d="M363.340 73.120 L363.340 46.750 "/>
  <path style="fill:none;stroke:rgb(0,0,0);stroke-width:0.25;" d="M315.620 73.250 L363.460 73.250 "/>
  <path style="fill:none;stroke:rgb(0,0,0);stroke-width:0.25;" d="M155.760 84.750 L155.760 73.370 "/>
  <path style="fill:none;stroke:rgb(0,0,0);stroke-width:0.25;" d="M195.250 84.750 L195.250 73.370 "/>
  <path style="fill:none;stroke:rgb(0,0,0);stroke-width:0.25;" d="M260.280 84.750 L260.280 73.370 "/>
  <path style="fill:none;stroke:rgb(0,0,0);stroke-width:0.25;" d="M315.620 84.750 L315.620 73.370 "/>
  <path style="fill:none;stroke:rgb(0,0,0);stroke-width:0.25;" d="M363.340 84.750 L363.340 73.370 "/>
  <path style="fill:none;stroke:rgb(0,0,0);stroke-width:0.25;" d="M155.640 84.870 L195.250 84.870 "/>
  <path style="fill:none;stroke:rgb(0,0,0);stroke-width:0.25;" d="M155.760 96.370 L155.760 85.000 "/>
  <path style="fill:none;stroke:rgb(0,0,0);stroke-width:0.25;" d="M195.250 84.870 L260.280 84.870 "/>
  <path style="fill:none;stroke:rgb(0,0,0);stroke-width:0.25;" d="M195.250 96.370 L195.250 85.000 "/>
  <path style="fill:none;stroke:rgb(0,0,0);stroke-width:0.25;" d="M260.280 84.870 L315.620 84.870 "/>
  <path style="fill:none;stroke:rgb(0,0,0);stroke-width:0.25;" d="M260.280 96.370 L260.280 85.000 "/>
  <path style="fill:none;stroke:rgb(0,0,0);stroke-width:0.25;" d="M315.620 84.870 L363.460 84.870 "/>
  <path style="fill:none;stroke:rgb(0,0,0);stroke-width:0.25;" d="M315.620 96.370 L315.620 85.000 "/>
  <path style="fill:none;stroke:rgb(0,0,0);stroke-width:0.25;" d="M363.340 96.370 L363.340 85.000 "/>
  <path style="fill:none;stroke:rgb(0,0,0);stroke-width:0.25;" d="M155.640 96.500 L195.250 96.500 "/>
  <path style="fill:none;stroke:rgb(0,0,0);stroke-width:0.25;" d="M155.760 108.000 L155.760 96.620 "/>
  <path style="fill:none;stroke:rgb(0,0,0);stroke-width:0.25;" d="M195.250 96.500 L260.280 96.500 "/>
  <path style="fill:none;stroke:rgb(0,0,0);stroke-width:0.25;" d="M195.250 108.000 L195.250 96.620 "/>
  <path style="fill:none;stroke:rgb(0,0,0);stroke-width:0.25;" d="M260.280 96.500 L315.620 96.500 "/>
  <path style="fill:none;stroke:rgb(0,0,0);stroke-width:0.25;" d="M260.280 108.000 L260.280 96.620 "/>
  <path style="fill:none;stroke:rgb(0,0,0);stroke-width:0.25;" d="M315.620 96.500 L363.460 96.500 "/>
  <path style="fill:none;stroke:rgb(0,0,0);stroke-width:0.25;" d="M315.620 108.000 L315.620 96.620 "/>
  <path style="fill:none;stroke:rgb(0,0,0);stroke-width:0.25;" d="M363.340 108.000 L363.340 96.620 "/>
  <path style="fill:none;stroke:rgb(0,0,0);stroke-width:0.25;" d="M155.640 108.120 L195.250 108.120 "/>
  <path style="fill:none;stroke:rgb(0,0,0);stroke-width:0.25;" d="M155.760 119.620 L155.760 108.250 "/>
  <path style="fill:none;stroke:rgb(0,0,0);stroke-width:0.25;" d="M155.640 119.750 L195.250 119.750 "/>
  <path style="fill:none;stroke:rgb(0,0,0);stroke-width:0.25;" d="M195.250 108.120 L260.280 108.120 "/>
  <path style="fill:none;stroke:rgb(0,0,0);stroke-width:0.25;" d="M195.250 119.620 L195.250 108.250 "/>
  <path style="fill:none;stroke:rgb(0,0,0);stroke-width:0.25;" d="M195.250 119.750 L260.280 119.750 "/>
  <path style="fill:none;stroke:rgb(0,0,0);stroke-width:0.25;" d="M260.280 108.120 L315.620 108.120 "/>
  <path style="fill:none;stroke:rgb(0,0,0);stroke-width:0.25;" d="M260.280 119.620 L260.280 108.250 "/>
  <path style="fill:none;stroke:rgb(0,0,0);stroke-width:0.25;" d="M260.280 119.750 L315.620 119.750 "/>
  <path style="fill:none;stroke:rgb(0,0,0);stroke-width:0.25;" d="M315.620 108.120 L363.460 108.120 "/>
  <path style="fill:none;stroke:rgb(0,0,0);stroke-width:0.25;" d="M315.620 119.620 L315.620 108.250 "/>
  <path style="fill:none;stroke:rgb(0,0,0);stroke-width:0.25;" d="M363.340 119.620 L363.340 108.250 "/>
  <path style="fill:none;stroke:rgb(0,0,0);stroke-width:0.25;" d="M315.620 119.750 L363.460 119.750 "/>
  <g begin="text">
   <text y="69.25" x="158.763,162.382,165.357,168.381,172.343,175.57,178.398,180.505" svgx:width="0.5,0.42,0.44,0.57,0.47,0.4,0.29,0.52" style="fill:rgb(0,0,0);font-family:MinionPro-Bold;font-size:7.0px;stroke:none;">Scenario</text>
   <text y="54.249" x="198.25,202.975,206.237,210.066,212.159,215.316,217.654,219.719,222.946,226.005,227.37,229.589,233.195,235.966,238.92,240.985,244.891,248.335" svgx:width="0.66,0.47,0.55,0.29,0.47,0.34,0.29,0.47,0.44,0.22,0.33,0.52,0.4,0.42,0.29,0.57,0.49,0.22" style="fill:rgb(0,0,0);font-family:MinionPro-Bold;font-size:7.0px;stroke:none;">Radiative forcing </text>
   <text y="61.746" x="198.25,200.315,204.277,207.231,210.003,213.118,216.38,219.124,222.183,223.548,226.012,230.793,233.95,236.211,238.584,241.265,243.554" svgx:width="0.29,0.57,0.42,0.4,0.44,0.47,0.38,0.44,0.22,0.35,0.68,0.47,0.34,0.34,0.38,0.33,0.84" style="fill:rgb(0,0,0);font-family:MinionPro-Bold;font-size:7.0px;stroke:none;">increase (watts/m</text>
   <text y="59.37" x="249.459" svgx:width="0.5" style="fill:rgb(0,0,0);font-family:MinionPro-Bold;font-size:4.55px;stroke:none;">2</text>
   <text y="61.75" x="251.734" svgx:width="0.22" style="fill:rgb(0,0,0);font-family:MinionPro-Bold;font-size:7.0px;stroke:none;"> </text>
   <text y="69.247" x="198.254,200.319,204.281,207.235,210.007,213.122,216.384,219.128,222.187,223.552,225.617,229.579,230.944,234.444,237.944,241.444,244.944" svgx:width="0.29,0.57,0.42,0.4,0.44,0.47,0.38,0.44,0.22,0.29,0.57,0.22,0.5,0.5,0.5,0.5,0.35" style="fill:rgb(0,0,0);font-family:MinionPro-Bold;font-size:7.0px;stroke:none;">increase in 2100)</text>
   <text y="54.246" x="263.277,267.092,270.207,273.434,276.262,277.627,281.232,283.549,284.914,288.82,291.935,295.231,298.822" svgx:width="0.65,0.44,0.47,0.4,0.22,0.52,0.33,0.22,0.55,0.44,0.47,0.51,0.22" style="fill:rgb(0,0,0);font-family:MinionPro-Bold;font-size:7.0px;stroke:none;">Year of peak </text>
   <text y="61.743" x="263.277,266.77,269.542,272.692,275.716,279.726,283.576,287.195,291.08,293.824,296.883,298.248,301.72,304.982,307.663" svgx:width="0.49,0.4,0.44,0.44,0.57,0.55,0.52,0.56,0.38,0.44,0.22,0.49,0.47,0.38,0.22" style="fill:rgb(0,0,0);font-family:MinionPro-Bold;font-size:7.0px;stroke:none;">greenhouse gas </text>
   <text y="69.24" x="263.277,266.301,272.202,274.267,276.948,279.601,281.708,285.313,289.275" svgx:width="0.44,0.84,0.29,0.38,0.38,0.29,0.52,0.57,0.38" style="fill:rgb(0,0,0);font-family:MinionPro-Bold;font-size:7.0px;stroke:none;">emissions</text>
   <text y="54.239" x="318.619,323.967,327.117,330.071,332.017,334.082,338.044,341.103" svgx:width="0.76,0.44,0.42,0.28,0.29,0.57,0.44,0.22" style="fill:rgb(0,0,0);font-family:MinionPro-Bold;font-size:7.0px;stroke:none;">Decline </text>
   <text y="61.736" x="318.619,322.413,326.298,329.126,331.191,335.097,338.541,339.906,343.406" svgx:width="0.55,0.56,0.4,0.29,0.57,0.49,0.22,0.5,0.5" style="fill:rgb(0,0,0);font-family:MinionPro-Bold;font-size:7.0px;stroke:none;">during 21</text>
   <text y="59.37" x="346.905,348.63" svgx:width="0.38,0.34" style="fill:rgb(0,0,0);font-family:MinionPro-Bold;font-size:4.55px;stroke:none;">st</text>
   <text y="61.75" x="350.172" svgx:width="0.22" style="fill:rgb(0,0,0);font-family:MinionPro-Bold;font-size:7.0px;stroke:none;"> </text>
   <text y="69.247" x="318.616,321.591,324.615,328.521,330.782,334.667,337.726,340.981" svgx:width="0.42,0.44,0.57,0.34,0.56,0.4,0.47,0.4" style="fill:rgb(0,0,0);font-family:MinionPro-Bold;font-size:7.0px;stroke:none;">century?</text>
   <text y="80.874" x="158.764,162.124,163.72,167.08,198.251,201.611,203.207,206.567,263.274,266.634,269.994,273.354,276.714,280.354,283.714,287.074,290.434,293.79400000000004,318.616,322.2,325.175" svgx:width="0.48,0.23,0.48,0.55,0.48,0.23,0.48,0.55,0.48,0.48,0.48,0.48,0.52,0.48,0.48,0.48,0.48,0.55,0.63,0.43,0.37" style="fill:rgb(0,0,0);font-family:MinionPro-Regular;font-size:7.0px;stroke:none;">2.6 2.6 2010–2020 Yes</text>
   <text y="92.501" x="158.764,162.124,163.72,167.08,198.251,201.611,203.207,206.567,263.274,266.634,269.994,273.354,276.714,318.616,322.2,325.175" svgx:width="0.48,0.23,0.48,0.55,0.48,0.23,0.48,0.55,0.48,0.48,0.48,0.48,0.55,0.63,0.43,0.37" style="fill:rgb(0,0,0);font-family:MinionPro-Regular;font-size:7.0px;stroke:none;">4.5 4.5 2040 Yes</text>
   <text y="104.128" x="158.764,162.124,163.72,167.08,198.251,201.611,203.207,206.567,263.274,266.634,269.994,273.354,276.714,318.616,322.2,325.175" svgx:width="0.48,0.23,0.48,0.55,0.48,0.23,0.48,0.55,0.48,0.48,0.48,0.48,0.55,0.63,0.43,0.37" style="fill:rgb(0,0,0);font-family:MinionPro-Regular;font-size:7.0px;stroke:none;">6.0 6.0 2080 Yes</text>
   <text y="115.755" x="158.764,162.124,163.72,167.08,198.251,201.611,203.207,206.567,263.274,267.103,269.42,272.5,318.616,323.642" svgx:width="0.48,0.23,0.48,0.55,0.48,0.23,0.48,0.55,0.55,0.33,0.44,0.55,0.74,0.51" style="fill:rgb(0,0,0);font-family:MinionPro-Regular;font-size:7.0px;stroke:none;">8.5 8.5 n/a No</text>
   <text y="135.875" x="155.638,160.597,164.728,169.507,172.063,175.996,177.751,182.251" svgx:width="0.64,0.47,0.53,0.28,0.44,0.22,0.5,0.25" style="fill:rgb(0,0,0);font-family:MinionPro-Bold;font-size:9.0px;stroke:none;">Table 2.</text>
   <text y="135.875" x="184.537,186.607,189.037,195.067,197.344,199.756,207.1,210.879,213.571,217.396,219.232,222.607,226.414,230.239,235.135,239.005,242.398,244.81,249.4,252.703,254.539,260.056,266.041,271.108,272.944,277.264,279.316,283.636,285.688,287.524,291.844,293.896,298.216,300.268,302.104,306.424,308.476,312.796,314.848,316.684,320.554,325.441,330.193,332.029,336.349,338.401,342.721,344.557,349.309,352.684,356.553,361.305,363.141,365.832,370.422,372.258,376.866,380.088,383.958,388.71,391.122,394.991,397.736,399.572,402.371,407.141,410.966,412.802,416.141,420.011,424.862,429.002,432.827,434.663,439.145,441.809" svgx:width="0.23,0.55,0.67,0.25,0.27,0.82,0.44,0.31,0.43,0.23,0.37,0.42,0.43,0.55,0.44,0.37,0.27,0.51,0.37,0.23,0.62,0.67,0.56,0.23,0.48,0.23,0.48,0.23,0.23,0.48,0.23,0.48,0.23,0.23,0.48,0.23,0.48,0.23,0.23,0.44,0.55,0.53,0.23,0.48,0.23,0.48,0.23,0.53,0.37,0.43,0.53,0.23,0.31,0.51,0.23,0.52,0.37,0.43,0.53,0.27,0.42,0.31,0.23,0.31,0.53,0.43,0.23,0.37,0.44,0.55,0.47,0.43,0.23,0.51,0.3,0.23" style="fill:rgb(0,0,0);font-family:MinionPro-Regular;font-size:9.0px;stroke:none;"> Climate scenarios RCP 2.6, 4.5, 6.0, and 8.5 used to predict the range of </text>
   <text y="135.875" x="443.645,449.289,453.555,456.814,459.874,463.473,468.108,470.53,474.94,476.794,480.962,485.101,488.225,491.771,496.037,500.762" svgx:width="0.65,0.49,0.37,0.34,0.4,0.53,0.27,0.49,0.23,0.47,0.47,0.37,0.4,0.49,0.53,0.49" style="fill:rgb(0,0,0);font-family:MinionPro-It;font-size:9.0px;stroke:none;">Karsenia koreana</text>
   <text y="135.875" x="505.207,507.043,509.455,514.378,516.214,520.534,524.854,529.174,533.494,535.33,539.2,544.087,548.839" svgx:width="0.23,0.27,0.55,0.23,0.48,0.48,0.48,0.48,0.23,0.44,0.55,0.53,0.23" style="fill:rgb(0,0,0);font-family:MinionPro-Regular;font-size:9.0px;stroke:none;"> in 2050 and </text>
   <text y="145.874" x="155.638,159.958,164.278,168.598,172.918" svgx:width="0.48,0.48,0.48,0.48,0.23" style="fill:rgb(0,0,0);font-family:MinionPro-Regular;font-size:9.0px;stroke:none;">2070.</text>
  </g>
  <rect style="stroke:blue;stroke-width:0.3;" x="98.638" y="185.638" height="359.52" width="456.0" title="3"/>
  <text y="185.638" class="image" id="image.3.1" width="456" height="359" x="98.638">image.3.1.99_555.186_545</text>
  <rect style="stroke:blue;stroke-width:0.3;" x="98.638" y="185.638" height="359.52" width="456.0" title="3"/>
  <text y="185.638" class="image" id="image.3.2" width="456" height="359" x="98.638">image.3.2.99_555.186_545</text>
  <path style="fill:none;stroke:rgb(206,221,228);stroke-width:0.25;" d="M159.130 566.060 L552.640 566.060 "/>
  <path style="fill:none;stroke:rgb(206,221,228);stroke-width:1.0;" d="M156.140 566.060 L156.140 566.060 M554.140 566.060 L554.140 566.060 "/>
  <g begin="text">
   <text y="546.063" x="155.638,160.552,163.207,167.662,172.657,176.221,180.154,181.909,186.409" svgx:width="0.55,0.29,0.49,0.56,0.4,0.44,0.22,0.5,0.25" style="fill:rgb(0,0,0);font-family:MinionPro-Bold;font-size:9.0px;stroke:none;">Figure 2.</text>
   <text y="546.063" x="188.695,190.765,193.195,198.181,201.403,205.894,208.243,212.113,215.983,218.673,222.543,227.295,229.131,232.389,237.168,239.472,242.271,246.15,250.659,252.936,256.761,258.597,261.936,265.806,270.657,274.797,278.622,280.458,283.041,287.523,290.862" svgx:width="0.23,0.55,0.56,0.37,0.51,0.26,0.43,0.42,0.31,0.43,0.53,0.23,0.37,0.53,0.27,0.31,0.44,0.51,0.25,0.43,0.23,0.37,0.44,0.55,0.47,0.43,0.23,0.3,0.51,0.37,0.23" style="fill:rgb(0,0,0);font-family:MinionPro-Regular;font-size:9.0px;stroke:none;"> Projected suitable range for </text>
   <text y="546.063" x="292.698,298.341,302.607,305.865,308.925,312.525,317.16,319.581,323.991,325.845,330.012,334.152,337.275,340.821,345.087,349.812" svgx:width="0.65,0.49,0.37,0.34,0.4,0.53,0.27,0.49,0.23,0.47,0.47,0.37,0.4,0.49,0.53,0.49" style="fill:rgb(0,0,0);font-family:MinionPro-It;font-size:9.0px;stroke:none;">Karsenia koreana</text>
   <text y="546.063" x="354.232,356.068,358.48,363.403,365.239,370.755,376.74,381.807,383.643,387.963,390.015,394.335,396.171" svgx:width="0.23,0.27,0.55,0.23,0.62,0.67,0.56,0.23,0.48,0.23,0.48,0.23,0.35" style="fill:rgb(0,0,0);font-family:MinionPro-Regular;font-size:9.0px;stroke:none;"> in RCP 2.6 (</text>
   <text y="546.063" x="399.285" svgx:width="0.71" style="fill:rgb(0,0,0);font-family:MinionPro-Bold;font-size:9.0px;stroke:none;">A</text>
   <text y="546.063" x="405.639,408.753,410.805,412.641,418.157,424.142,429.209,431.045,435.365,437.417,441.737,443.573" svgx:width="0.35,0.23,0.23,0.62,0.67,0.56,0.23,0.48,0.23,0.48,0.23,0.35" style="fill:rgb(0,0,0);font-family:MinionPro-Regular;font-size:9.0px;stroke:none;">), RCP 4.5 (</text>
   <text y="546.063" x="446.687" svgx:width="0.64" style="fill:rgb(0,0,0);font-family:MinionPro-Bold;font-size:9.0px;stroke:none;">B</text>
   <text y="546.063" x="452.42,455.534,457.586,459.422,464.939,470.924,475.991,477.827,482.147,484.199,488.519,490.355" svgx:width="0.35,0.23,0.23,0.62,0.67,0.56,0.23,0.48,0.23,0.48,0.23,0.35" style="fill:rgb(0,0,0);font-family:MinionPro-Regular;font-size:9.0px;stroke:none;">), RCP 6.0 (</text>
   <text y="546.063" x="493.469" svgx:width="0.68" style="fill:rgb(0,0,0);font-family:MinionPro-Bold;font-size:9.0px;stroke:none;">C</text>
   <text y="546.063" x="499.553,502.667,504.719,506.555,512.072,518.057,523.124,524.96,529.28,531.332,535.652,537.488" svgx:width="0.35,0.23,0.23,0.62,0.67,0.56,0.23,0.48,0.23,0.48,0.23,0.35" style="fill:rgb(0,0,0);font-family:MinionPro-Regular;font-size:9.0px;stroke:none;">), RCP 8.5 (</text>
   <text y="546.063" x="540.602" svgx:width="0.76" style="fill:rgb(0,0,0);font-family:MinionPro-Bold;font-size:9.0px;stroke:none;">D</text>
   <text y="546.063" x="547.451,550.565" svgx:width="0.35,0.23" style="fill:rgb(0,0,0);font-family:MinionPro-Regular;font-size:9.0px;stroke:none;">) </text>
   <text y="556.062" x="155.638,158.221,162.703,166.042,167.878,172.198,176.518,180.838,185.158,186.994,190.864,195.752,200.504,202.34,206.66,210.98,215.3,219.62,221.672,223.508,231.374,235.154,239.87,241.706,245.846,249.671,254.557,258.382,261.721,265.501,268.192,272.062,276.814,278.65,281.062,285.985,287.821,294.013,297.235,301.042,308.908,312.688,317.404,319.24,323.56,327.88,329.932,334.252" svgx:width="0.3,0.51,0.37,0.23,0.48,0.48,0.48,0.48,0.23,0.44,0.55,0.53,0.23,0.48,0.48,0.48,0.48,0.23,0.23,0.89,0.44,0.52,0.23,0.47,0.43,0.55,0.43,0.37,0.44,0.31,0.43,0.53,0.23,0.27,0.55,0.23,0.69,0.37,0.42,0.89,0.44,0.52,0.23,0.48,0.48,0.23,0.48,0.23" style="fill:rgb(0,0,0);font-family:MinionPro-Regular;font-size:9.0px;stroke:none;">for 2050 and 2070. Map generated in ArcMap 10.6.</text>
  </g>
 </g>
</svg>
