<?xml version="1.0" encoding="UTF-8"?>
<svg height="779.482" width="530.5120000000001" xmlns="http://www.w3.org/2000/svg">
 <g id="page" xmlns:svgx="http://www.xml-cml.org/schema/svgx">
  <g begin="text">
   <text y="62.979" x="76.535,79.189,83.62,86.274,88.26650000000001,90.738,93.392,95.3845,97.377,102.247,106.678,110.663,112.879,115.836,119.374,123.806,125.7985,128.269,133.585,136.685,139.786,141.7785,144.249,149.119,153.55,157.24,159.456,161.672,164.9397,166.908,173.109,176.209,179.748,181.964,184.618" svgx:width="0.33,0.56,0.33,0.25,0.55,0.33,0.25,0.55,0.61,0.56,0.5,0.28,0.39,0.44,0.56,0.25,0.55,0.67,0.39,0.39,0.25,0.55,0.61,0.56,0.46,0.28,0.28,0.41,0.55,0.78,0.39,0.44,0.28,0.33,0.5" style="fill:rgb(0,0,0);font-family:URWPalladioL-Ital;font-size:7.97px;stroke:none;">Int. J. Environ. Res. Public Health</text>
   <text y="62.979" x="190.594,194.579,198.564,202.549" svgx:width="0.5,0.5,0.5,0.5" style="fill:rgb(0,0,0);font-family:URWPalladioL-Bold;font-size:7.97px;stroke:none;">2019</text>
   <text y="62.979" x="206.534" svgx:width="0.25" style="fill:rgb(0,0,0);font-family:URWPalladioL-Roma;font-size:7.97px;stroke:none;">,</text>
   <text y="62.979" x="210.52,214.505" svgx:width="0.5,0.5" style="fill:rgb(0,0,0);font-family:URWPalladioL-Ital;font-size:7.97px;stroke:none;">16</text>
   <text y="62.979" x="218.49,220.48250000000002,222.475,226.46,230.44500000000002,491.809,495.794,499.779,501.772,506.123,508.7531,510.77,514.755" svgx:width="0.25,0.55,0.5,0.5,0.55,0.5,0.5,0.55,0.55,0.33,0.55,0.5,0.5" style="fill:rgb(0,0,0);font-family:URWPalladioL-Roma;font-size:7.97px;stroke:none;">, 70 12 of 17</text>
   <text y="97.848" x="76.535,81.047,86.961,89.918,95.568,101.696,107.61,113.26,119.388,125.302,130.952,135.932,138.644,143.725,149.639,155.71460000000002,158.45,163.531,166.488,172.138,177.118,179.83" svgx:width="0.44,0.58,0.29,0.56,0.6,0.58,0.56,0.6,0.58,0.56,0.5,0.55,0.5,0.58,0.61,0.55,0.5,0.29,0.56,0.5,0.55,0.33" style="fill:rgb(0,0,0);font-family:URWPalladioL-Roma;font-size:9.96px;stroke:none;">chikungunya and zika [</text>
   <text y="97.848" x="183.212,188.193" svgx:width="0.5,0.5" style="fill:rgb(8,117,183);font-family:URWPalladioL-Roma;font-size:9.96px;stroke:none;">49</text>
   <text y="97.848" x="193.174,196.4608,199.169,204.25,208.4332,211.16,219.635,224.503,227.46,230.3484,233.029,238.11,242.2932,245.02,247.977,253.891,258.403,262.244,267.112,272.193,276.501,281.369,287.44460000000004,290.179,294.691,299.772,304.08,308.948,313.1312,315.868,321.417,324.7038,327.402,333.611,338.478,344.393,350.043,356.17,360.9508,363.649" svgx:width="0.33,0.55,0.5,0.42,0.55,0.83,0.48,0.29,0.29,0.55,0.5,0.42,0.55,0.29,0.58,0.44,0.4,0.48,0.5,0.42,0.48,0.61,0.55,0.44,0.5,0.42,0.48,0.42,0.55,0.55,0.33,0.55,0.61,0.48,0.58,0.56,0.6,0.48,0.55,0.33" style="fill:rgb(0,0,0);font-family:URWPalladioL-Roma;font-size:9.96px;stroke:none;">] as well as increased cases of dengue [</text>
   <text y="97.848" x="367.034,372.015" svgx:width="0.5,0.5" style="fill:rgb(8,117,183);font-family:URWPalladioL-Roma;font-size:9.96px;stroke:none;">16</text>
   <text y="97.848" x="376.997,380.28380000000004,382.993,388.073,393.988,400.0636,402.798,405.755,410.623,416.73,420.043,425.591,429.9,436.007,438.964,442.795,448.343,452.652,455.609,459.7922,462.529" svgx:width="0.33,0.55,0.5,0.58,0.61,0.55,0.29,0.48,0.6,0.33,0.55,0.42,0.6,0.29,0.4,0.55,0.42,0.29,0.42,0.55,0.33" style="fill:rgb(0,0,0);font-family:URWPalladioL-Roma;font-size:9.96px;stroke:none;">] and leptospirosis [</text>
   <text y="97.848" x="465.913,470.894" svgx:width="0.5,0.5" style="fill:rgb(8,117,183);font-family:URWPalladioL-Roma;font-size:9.96px;stroke:none;">34</text>
   <text y="97.848" x="475.876,479.1628,481.872,487.42,493.161,498.029,502.013,504.644,507.957,513.871" svgx:width="0.33,0.55,0.55,0.56,0.48,0.4,0.55,0.33,0.58,0.48" style="fill:rgb(0,0,0);font-family:URWPalladioL-Roma;font-size:9.96px;stroke:none;">] over the</text>
   <text y="111.358" x="76.535,79.434,84.415,88.64,91.9268,94.388,97.706,102.478,110.7448,113.287,119.374,124.146,128.57,133.551,139.638,144.41,148.634,151.124,154.233,157.591,163.36780000000002,165.89,170.871,176.958,183.045,185.944,189.192,192.091,197.531,203.329,205.81900000000002,208.32,211.638,217.077,222.517,228.604,234.113,239.553,243.488,249.286,254.0668,256.549,261.53,267.329,273.4046,275.916,284.225,289.207,292.454,297.226,301.162,306.671,312.111,316.046,321.844,326.6248,329.117,335.204,338.103,342.327,347.099,352.081,356.305,361.077,365.2602,367.802,371.049,376.848,381.829,385.11580000000004,387.577,391.991,396.982,402.7588,405.271,410.78,415.5608,418.053,422.825,427.966,432.947,437.37,442.142,446.078,451.587,456.568,459.816,464.588,470.66360000000003,473.176,478.685,484.2626,486.725,491.149,494.048,496.947,505.744,510.725,513.973" svgx:width="0.29,0.5,0.42,0.33,0.55,0.33,0.48,0.83,0.55,0.61,0.48,0.44,0.5,0.61,0.48,0.42,0.25,0.55,0.34,0.58,0.55,0.5,0.61,0.61,0.29,0.33,0.29,0.55,0.58,0.25,0.55,0.33,0.55,0.55,0.61,0.55,0.55,0.4,0.58,0.48,0.55,0.5,0.58,0.61,0.55,0.83,0.5,0.33,0.48,0.4,0.55,0.55,0.4,0.58,0.48,0.55,0.61,0.29,0.42,0.48,0.5,0.42,0.48,0.42,0.55,0.33,0.58,0.5,0.33,0.55,0.44,0.5,0.58,0.55,0.55,0.48,0.55,0.48,0.52,0.5,0.44,0.48,0.4,0.55,0.5,0.33,0.48,0.61,0.55,0.55,0.56,0.55,0.44,0.29,0.29,0.88,0.5,0.33,0.48" style="fill:rgb(0,0,0);font-family:URWPalladioL-Roma;font-size:9.96px;stroke:none;">last few decades. In addition, foodborne and waterborne diseases that can be exacerbated by climate</text>
   <text y="124.867" x="76.535,80.87,86.552,91.434,97.116,102.545,107.3258,109.623,115.491,120.822,124.961,129.7418,132.04,137.01999999999998,139.323,143.658,148.989,154.671,157.854,160.695,166.377,172.265,176.941,183.0166,185.308,188.491,194.174,197.854,202.531,207.413,210.595,213.085,215.467,218.65,224.333,229.1138,231.411,237.093,242.98,251.602,257.001,261.677,265.661,267.936,273.266,276.55280000000005,278.919,284.348,289.23,293.369,296.552,300.233,305.564,310.24,315.923,319.105,323.782,327.629,330.47,333.653,336.494,340.6772,343.045,347.38,352.262,356.401,361.078,365.2612,367.619,370.461,376.2378,378.545,386.101,391.432,400.053,402.894,408.577,411.418,415.753,420.733,423.036,428.719,433.6,437.7832,440.142,442.983,448.665,453.0,456.671,461.348,466.229,470.369,475.046,481.1216,483.413,488.744,494.26,498.936,502.91999999999996,505.195,508.378,514.06" svgx:width="0.44,0.58,0.5,0.58,0.56,0.48,0.55,0.6,0.55,0.42,0.48,0.55,0.5,0.55,0.44,0.55,0.58,0.33,0.29,0.58,0.6,0.48,0.61,0.55,0.33,0.58,0.4,0.48,0.5,0.33,0.25,0.55,0.33,0.58,0.48,0.55,0.58,0.6,0.88,0.55,0.48,0.4,0.55,0.55,0.33,0.55,0.56,0.5,0.42,0.33,0.4,0.55,0.48,0.58,0.33,0.48,0.4,0.29,0.33,0.29,0.42,0.55,0.44,0.5,0.42,0.48,0.42,0.55,0.29,0.58,0.55,0.77,0.55,0.88,0.29,0.58,0.29,0.44,0.5,0.55,0.58,0.5,0.42,0.55,0.29,0.58,0.44,0.4,0.48,0.5,0.42,0.48,0.61,0.55,0.55,0.56,0.48,0.4,0.55,0.33,0.58,0.48" style="fill:rgb(0,0,0);font-family:URWPalladioL-Roma;font-size:9.96px;stroke:none;">change pose a continued threat; the number of gastroenteritis cases in Dominica has increased over the</text>
   <text y="138.377" x="76.535,79.434,84.415,88.64,91.9268,94.378,99.359,104.339,106.831,112.37,117.143,122.124,126.059,130.2422,132.774" svgx:width="0.29,0.5,0.42,0.33,0.55,0.5,0.5,0.55,0.56,0.48,0.5,0.4,0.42,0.55,0.33" style="fill:rgb(0,0,0);font-family:URWPalladioL-Roma;font-size:9.96px;stroke:none;">last 15 years [</text>
   <text y="138.377" x="136.091,141.073" svgx:width="0.5,0.5" style="fill:rgb(8,117,183);font-family:URWPalladioL-Roma;font-size:9.96px;stroke:none;">16</text>
   <text y="138.377" x="146.054,149.372" svgx:width="0.33,0.25" style="fill:rgb(0,0,0);font-family:URWPalladioL-Roma;font-size:9.96px;stroke:none;">].</text>
   <text y="151.886" x="97.795,105.488,108.422,114.118,118.947,124.7238,127.305,130.592,136.46,141.2408,143.79,148.065,151.351,155.253,161.333,165.809,169.096,175.175,178.976,183.7568,186.296,191.801,195.0878,197.649,200.935,206.803,211.5838,214.133,221.937,227.441,236.344,239.278,245.146,248.08,252.556,257.597,263.37379999999996,265.955,270.784,275.261,280.766,286.634,292.138,301.041,306.6186,309.137,314.178,320.046,326.1216,328.706,333.536,338.738,341.672,345.947,349.234,352.168,358.035,363.61260000000004,366.131,370.961,376.828,382.525,385.459,389.26,394.765,400.632,409.535,414.364,420.232,423.519,428.56,431.4484,433.984,439.025,444.893,450.9686,453.554,457.828,463.333,467.81,470.744,476.248,481.078,485.554,491.059,496.927,502.432,511.334,514.268" svgx:width="0.76,0.29,0.56,0.48,0.58,0.55,0.33,0.58,0.48,0.55,0.42,0.33,0.4,0.6,0.44,0.33,0.6,0.4,0.48,0.55,0.55,0.33,0.55,0.33,0.58,0.48,0.55,0.77,0.55,0.88,0.29,0.58,0.29,0.44,0.5,0.58,0.55,0.48,0.44,0.55,0.58,0.55,0.88,0.56,0.55,0.5,0.58,0.61,0.55,0.48,0.52,0.29,0.42,0.33,0.29,0.58,0.56,0.55,0.48,0.58,0.56,0.29,0.4,0.55,0.58,0.88,0.48,0.58,0.33,0.5,0.29,0.55,0.5,0.58,0.61,0.55,0.42,0.55,0.44,0.29,0.55,0.48,0.44,0.55,0.58,0.55,0.88,0.29,0.44" style="fill:rgb(0,0,0);font-family:URWPalladioL-Roma;font-size:9.96px;stroke:none;">Given the structure of the Dominican economy and existing environmental and socioeconomic</text>
   <text y="165.395" x="76.236,82.343,86.174,91.042,95.35,99.659,105.787,109.628,114.495,118.804,121.294,124.048,128.559,131.516,134.474,143.446,148.527,151.84,156.6208,159.37,163.882,169.786,174.867,180.781,186.431,191.2118,193.961,200.068,205.617,209.925,214.793,218.9762,221.764,226.744,229.507,235.421,241.549,250.522,256.141,261.009,264.993,267.685,273.234,276.5208,279.28,282.593,288.507,292.338,297.205,302.286,305.599,309.7822,312.57,315.883,321.361,324.084,327.467,333.016,338.564,344.63960000000003,347.436,351.744,356.612,361.124,367.251,371.265,374.222,377.535,382.077,384.567,388.225,393.875,399.424,404.972,411.0476,413.833,419.94,423.782,429.33,435.539,441.666,446.178,449.491,452.448,457.996,463.77279999999996,466.563,470.872,476.522,480.83,484.143,489.01,497.983,502.1662,504.954,510.035,513.877" svgx:width="0.6,0.4,0.48,0.42,0.42,0.6,0.4,0.48,0.42,0.25,0.55,0.44,0.29,0.29,0.88,0.5,0.33,0.48,0.55,0.44,0.58,0.5,0.58,0.56,0.48,0.55,0.6,0.55,0.42,0.48,0.42,0.55,0.5,0.55,0.58,0.6,0.88,0.55,0.48,0.4,0.55,0.55,0.33,0.55,0.33,0.58,0.4,0.48,0.5,0.33,0.42,0.55,0.33,0.55,0.55,0.33,0.55,0.55,0.61,0.55,0.42,0.48,0.44,0.6,0.4,0.29,0.33,0.56,0.25,0.55,0.56,0.55,0.55,0.61,0.55,0.6,0.4,0.55,0.61,0.6,0.44,0.33,0.29,0.55,0.58,0.55,0.42,0.56,0.42,0.33,0.48,0.88,0.42,0.55,0.5,0.4,0.48" style="fill:rgb(0,0,0);font-family:URWPalladioL-Roma;font-size:9.96px;stroke:none;">pressures, climate change poses a number of threats to food security. Food production systems are</text>
   <text y="178.905" x="76.535,82.449,85.406,91.056,96.97,99.928,105.5056,108.555,112.864,117.731,123.645,127.954,130.911,134.224,137.181,142.922,147.7028,150.757,154.07,159.548,162.596,171.071,176.152,180.166,189.138,192.096,198.01,203.58759999999998,206.627,209.94,214.807,223.78,229.887,234.755,238.769,243.85,247.163,253.29,257.131,261.999,266.1822,269.275,274.356,280.27,286.3456,289.456,294.324,299.567,302.88,306.711,311.579,320.552,325.3328,328.396,333.264,339.005,343.873,349.787,353.1,357.409,359.899,363.16,366.473,372.387,377.255,381.086,385.8668,388.931,394.845,399.926,404.1092,407.212,412.293,415.25,419.081,423.948,429.029,435.238,440.8156,443.855,449.475,454.342,459.21,464.98679999999996,468.102,473.082,476.16,480.468,483.781,488.649,493.516,499.492,502.591,506.605,509.562,513.87" svgx:width="0.58,0.29,0.56,0.58,0.29,0.56,0.55,0.42,0.48,0.58,0.42,0.29,0.33,0.29,0.56,0.48,0.55,0.33,0.55,0.55,0.83,0.5,0.4,0.88,0.29,0.58,0.56,0.55,0.33,0.48,0.88,0.6,0.48,0.4,0.5,0.33,0.6,0.4,0.48,0.42,0.55,0.5,0.58,0.61,0.55,0.48,0.52,0.33,0.4,0.48,0.88,0.48,0.55,0.48,0.56,0.48,0.58,0.33,0.42,0.25,0.55,0.33,0.58,0.48,0.4,0.48,0.55,0.58,0.5,0.42,0.55,0.5,0.29,0.4,0.48,0.5,0.61,0.56,0.55,0.55,0.48,0.48,0.58,0.55,0.5,0.55,0.42,0.33,0.48,0.48,0.6,0.55,0.4,0.29,0.42,0.48" style="fill:rgb(0,0,0);font-family:URWPalladioL-Roma;font-size:9.96px;stroke:none;">highly sensitive to warming temperatures and extreme events; there has already been a steep rise</text>
   <text y="192.414" x="76.535,79.492,85.2688,88.384,94.491,97.448,102.529,108.443,111.7298,114.723,120.932,123.889,128.198,133.065,138.146,142.455,147.322,151.5052,154.609,157.566,163.3428,166.447,171.427,174.505,180.247,185.328,189.342,192.299,197.166,200.479,206.0566,209.096,214.645,217.9318,221.006,225.518,229.349,234.897,241.005,245.1882,248.291,253.372,259.286,265.3616,268.462,271.419,277.333,281.845,285.686,290.554,295.635,299.943,302.9,308.815,314.3926,317.432,320.389,326.303,330.612,335.479,339.991,343.2778,346.281,349.238,355.153,358.536,363.404,367.713,371.025,376.106,379.419,382.376,387.925,393.839,398.147,400.637,405.22,413.207,416.4938,419.569,425.676,430.757,434.771,438.083,441.041,445.552,451.68,454.637,459.718,463.702,466.699,471.211,476.759,482.674,487.186,492.053,496.067,501.8438,504.959,510.04,513.871" svgx:width="0.29,0.58,0.55,0.6,0.29,0.5,0.58,0.33,0.55,0.61,0.29,0.42,0.48,0.5,0.42,0.48,0.42,0.55,0.29,0.58,0.55,0.5,0.55,0.56,0.5,0.4,0.29,0.48,0.33,0.56,0.55,0.55,0.33,0.55,0.44,0.4,0.55,0.6,0.42,0.55,0.5,0.58,0.61,0.55,0.29,0.58,0.44,0.4,0.48,0.5,0.42,0.29,0.58,0.56,0.55,0.29,0.58,0.42,0.48,0.44,0.33,0.55,0.29,0.58,0.33,0.48,0.42,0.33,0.5,0.33,0.29,0.55,0.58,0.42,0.25,0.55,0.79,0.33,0.55,0.6,0.5,0.4,0.33,0.29,0.44,0.6,0.29,0.5,0.4,0.55,0.44,0.55,0.58,0.44,0.48,0.4,0.58,0.55,0.5,0.4,0.48" style="fill:rgb(0,0,0);font-family:URWPalladioL-Roma;font-size:9.96px;stroke:none;">in plant diseases in a variety of crops and increasing insect infestations. Of particular concern are</text>
   <text y="205.924" x="76.236,82.182,85.911,91.313,93.628,98.366,102.759,105.984,108.863,114.264,120.022,124.2052,126.719,129.944,135.702,140.648,143.9348,146.376,150.571,156.536,162.037,167.537,172.276,176.47,179.7568,182.198,187.178,189.648,193.377,198.116,204.161,210.126,214.518,217.743,220.622,226.024,231.8008,234.284,237.163,242.93980000000002,245.424,250.37,256.128,261.885,267.851,272.797,275.6854,278.179,282.571,286.301,291.703,297.679,300.151,305.651,308.53,313.269,316.148,322.192,326.3752,328.9,334.301,340.07779999999997,342.562,349.576,354.522,358.43,361.309,366.779,372.25,376.989,381.935,387.7118,390.196,393.075,397.269,400.148,405.095,410.852,416.897,421.091,423.581,426.067,430.262,436.227,440.62,446.3968,448.88,453.827,458.0102,460.524,468.181,473.583,482.318,485.197,490.955,493.834,498.226,503.172,505.66200000000003,508.158,513.629" svgx:width="0.6,0.4,0.55,0.23,0.48,0.44,0.33,0.29,0.55,0.58,0.42,0.55,0.33,0.58,0.5,0.33,0.55,0.42,0.6,0.56,0.56,0.48,0.42,0.33,0.55,0.5,0.55,0.4,0.48,0.61,0.6,0.44,0.33,0.29,0.55,0.58,0.55,0.29,0.58,0.55,0.5,0.58,0.58,0.6,0.5,0.29,0.55,0.44,0.4,0.55,0.6,0.55,0.56,0.29,0.48,0.29,0.61,0.42,0.55,0.55,0.58,0.55,0.71,0.5,0.4,0.29,0.55,0.55,0.48,0.5,0.58,0.55,0.29,0.42,0.29,0.5,0.58,0.61,0.42,0.25,0.55,0.42,0.6,0.44,0.58,0.55,0.5,0.42,0.55,0.77,0.55,0.88,0.29,0.58,0.29,0.44,0.5,0.25,0.55,0.55,0.56" style="fill:rgb(0,0,0);font-family:URWPalladioL-Roma;font-size:9.96px;stroke:none;">projections that suggest a reduction in annual crop yields on Caribbean islands, such as Dominica, by</text>
   <text y="219.433" x="76.037,81.018,86.0,88.49,93.472,98.453,109.312,114.821,119.593,122.841,131.15,135.922,140.694,146.4708,148.983,153.964,158.946,163.927,168.90699999999998,171.399,176.38,182.178,188.2536,190.756,195.738,200.719,205.7,210.67999999999998,213.172" svgx:width="0.5,0.5,0.25,0.5,0.5,0.84,0.55,0.48,0.33,0.83,0.48,0.48,0.58,0.55,0.5,0.5,0.5,0.5,0.55,0.5,0.58,0.61,0.55,0.5,0.5,0.5,0.5,0.55,0.33" style="fill:rgb(0,0,0);font-family:URWPalladioL-Roma;font-size:9.96px;stroke:none;">19.65%between 2008 and 2050 [</text>
   <text y="219.433" x="216.49,221.471" svgx:width="0.5,0.5" style="fill:rgb(8,117,183);font-family:URWPalladioL-Roma;font-size:9.96px;stroke:none;">42</text>
   <text y="219.433" x="226.452,229.77" svgx:width="0.33,0.25" style="fill:rgb(0,0,0);font-family:URWPalladioL-Roma;font-size:9.96px;stroke:none;">].</text>
   <text y="232.942" x="97.795,105.5638,108.78,114.694,120.822,129.795,135.414,140.282,144.26600000000002,147.375,152.923,156.2098,159.386,165.493,171.042,177.149,183.276,186.234,191.315,194.627,197.584,203.133,209.047,213.2302,216.435,219.392,225.1688,228.395,236.26,241.809,250.782,253.739,259.653,262.61,267.122,272.10200000000003,275.282,280.363,284.194,288.9748,292.14,298.055,301.012,306.662,312.576,315.533,321.11060000000003,324.262,330.003,336.131,339.088,345.002,349.87,353.884,358.965,364.584,367.541,372.3218,375.488,378.801,384.279,387.438,390.751,396.665,401.4458,404.612,410.526,415.393,420.474,423.431,426.744,432.5208,435.737,438.695,447.667,453.775,458.856,463.368,466.68,470.8632,474.068,479.616,482.9028,486.079,490.591,493.548,496.505,505.478,510.559,513.872" svgx:width="0.78,0.55,0.58,0.6,0.88,0.55,0.48,0.4,0.55,0.55,0.33,0.55,0.6,0.55,0.6,0.6,0.29,0.5,0.33,0.29,0.55,0.58,0.42,0.55,0.29,0.58,0.55,0.77,0.55,0.88,0.29,0.58,0.29,0.44,0.5,0.55,0.5,0.4,0.48,0.55,0.58,0.29,0.56,0.58,0.29,0.56,0.55,0.56,0.6,0.29,0.58,0.48,0.4,0.5,0.55,0.29,0.48,0.55,0.33,0.55,0.55,0.33,0.58,0.48,0.55,0.58,0.48,0.5,0.29,0.33,0.58,0.55,0.29,0.88,0.6,0.5,0.44,0.33,0.42,0.55,0.55,0.33,0.55,0.44,0.29,0.29,0.88,0.5,0.33,0.48" style="fill:rgb(0,0,0);font-family:URWPalladioL-Roma;font-size:9.96px;stroke:none;">A number of populations in Dominica are highly vulnerable to the health impacts of climate</text>
   <text y="246.452" x="76.535,81.047,86.961,92.042,97.956,103.606,108.474,110.964,114.683,117.64,123.554,128.066,131.023,137.15,143.359,146.316,152.231,157.80859999999998,161.305,164.262,169.811,178.286,181.67,184.627,190.541,195.053,200.601,209.574,214.3548,217.866,220.823,226.737,232.946,235.903,241.645,244.602,250.811,256.938,262.019,264.976,269.285,271.77500000000003,275.494,278.807,284.721,289.5018,293.013,295.97,301.884,308.093,311.05,316.7,321.568,327.482,333.03,339.158,343.3412,346.901,354.279,359.36,362.317,365.274,371.188,376.269,381.919,387.397,390.892,395.404,400.952,409.925,418.898,425.025,430.94,433.897,437.209,441.752,444.242,447.961,453.611,459.159,465.287,471.201,476.77860000000004,480.275,484.787,490.701,493.659,496.616,502.825,506.666,511.533,517.447" svgx:width="0.44,0.58,0.5,0.58,0.56,0.48,0.25,0.55,0.29,0.58,0.44,0.29,0.6,0.61,0.29,0.58,0.56,0.55,0.29,0.55,0.83,0.33,0.29,0.58,0.44,0.55,0.88,0.48,0.55,0.29,0.58,0.61,0.29,0.56,0.29,0.61,0.6,0.5,0.29,0.42,0.25,0.55,0.33,0.58,0.48,0.55,0.29,0.58,0.61,0.29,0.56,0.48,0.58,0.55,0.6,0.42,0.55,0.73,0.5,0.29,0.29,0.58,0.5,0.56,0.55,0.55,0.44,0.55,0.88,0.88,0.6,0.58,0.29,0.33,0.56,0.25,0.55,0.56,0.55,0.6,0.58,0.56,0.55,0.44,0.58,0.29,0.29,0.61,0.4,0.48,0.58,0.25" style="fill:rgb(0,0,0);font-family:URWPalladioL-Roma;font-size:9.96px;stroke:none;">change, including low-income individuals, the indigenous Kalinago community, young children,</text>
   <text y="259.961" x="76.535,81.452,87.174,93.2496,95.68,98.886,104.608,109.3888,111.816,116.526,119.388,125.396,130.106,133.99,136.851,141.207,143.697,146.773,154.423,160.146,165.062,167.924,173.391,177.56,180.422,184.6052,187.088,189.95,195.7268,198.17,201.376,207.099,211.8798,214.306,219.223,223.392,227.561,232.271,236.441,240.61,249.293,254.003,259.725,263.01180000000005,265.429,269.598,275.527,280.994,286.462,291.172,295.341,298.546,303.257,309.3326,311.752,314.958,320.681,325.597,328.8838,331.301,336.768,341.478,347.0556,349.443,354.998,360.928,363.789,369.512,374.222,378.106,383.023,388.46,391.322,394.183,397.044,400.25,405.8276,408.215,411.489,416.406,420.772,423.977,429.346,433.23,437.4132,439.897,443.604,448.314,451.176,456.092,459.298,464.0788,466.495,469.701,475.17900000000003,477.568,480.429,486.152,490.518,494.225,498.935,503.851,508.021,512.731" svgx:width="0.5,0.58,0.61,0.55,0.33,0.58,0.48,0.55,0.48,0.29,0.61,0.48,0.4,0.29,0.56,0.25,0.55,0.78,0.58,0.5,0.29,0.56,0.42,0.29,0.42,0.55,0.29,0.58,0.55,0.33,0.58,0.48,0.55,0.5,0.42,0.42,0.48,0.42,0.42,0.88,0.48,0.58,0.33,0.55,0.42,0.6,0.56,0.56,0.48,0.42,0.33,0.48,0.61,0.55,0.33,0.58,0.5,0.33,0.55,0.56,0.48,0.56,0.55,0.56,0.6,0.29,0.58,0.48,0.4,0.5,0.55,0.29,0.29,0.29,0.33,0.56,0.55,0.33,0.5,0.44,0.33,0.55,0.4,0.42,0.55,0.4,0.48,0.29,0.5,0.33,0.48,0.55,0.33,0.55,0.55,0.29,0.58,0.44,0.4,0.48,0.5,0.42,0.48,0.61" style="fill:rgb(0,0,0);font-family:URWPalladioL-Roma;font-size:9.96px;stroke:none;">and the elderly. Analysis in the assessment suggested that key vulnerability factors relate to increased</text>
   <text y="273.471" x="76.236,82.158,87.892,93.37,97.548,100.415,105.795,108.662,114.042,119.52,122.387,126.762,131.689,134.57739999999998,137.049,141.226,145.946,151.68,155.858,158.725,161.937,164.805,170.372,173.239,176.451,182.02859999999998,184.422,187.634,193.112,195.507,201.241,206.168,211.094,216.021,219.725,225.746,229.9292,232.416,235.697,240.417,242.88,248.358,250.821,253.311,255.778,261.699,267.079,272.459,276.443,278.843,284.578,289.297,294.224,297.091,300.303,306.0798,308.531,312.708,315.92,320.847,324.059,330.0,334.178,337.459,339.949,342.415,348.337,353.716,359.096,363.08,365.481,371.215,376.595,382.536,386.714,389.581,395.316,400.8936,403.287,407.662,413.041,418.776,424.796,427.663,430.875,433.743,439.122,444.857,449.034,451.524,453.99,457.705,462.425,468.445,474.386,478.761,483.481,489.5566,491.994,496.92,501.295,505.669,510.389,514.567" svgx:width="0.6,0.58,0.56,0.42,0.29,0.55,0.29,0.55,0.56,0.29,0.44,0.5,0.29,0.55,0.42,0.48,0.58,0.42,0.29,0.33,0.29,0.56,0.29,0.33,0.56,0.55,0.33,0.55,0.55,0.58,0.5,0.5,0.5,0.4,0.61,0.42,0.55,0.33,0.48,0.25,0.56,0.25,0.25,0.55,0.6,0.55,0.55,0.4,0.55,0.58,0.48,0.5,0.29,0.33,0.58,0.55,0.42,0.33,0.5,0.33,0.6,0.42,0.33,0.25,0.55,0.6,0.55,0.55,0.4,0.55,0.58,0.55,0.6,0.42,0.29,0.58,0.56,0.55,0.44,0.55,0.58,0.61,0.29,0.33,0.29,0.55,0.58,0.42,0.25,0.55,0.4,0.48,0.61,0.6,0.44,0.48,0.61,0.55,0.5,0.44,0.44,0.48,0.42,0.42" style="fill:rgb(0,0,0);font-family:URWPalladioL-Roma;font-size:9.96px;stroke:none;">physiological sensitivity to hazards (e.g., poor health status), poor housing conditions, reduced access</text>
   <text y="286.98" x="76.535,79.848,85.326,89.095,92.926,97.794,101.106,104.063,108.575,114.703,117.66,122.741,126.054,130.921,136.9966,140.829,147.038,151.052,154.009,159.923,165.573,168.53,174.444,180.02159999999998,183.793,192.268,197.349,200.662,205.53,209.514,213.242,218.323,224.238,230.3136,234.145,239.226,245.435,250.303,255.993,262.121,267.202,270.515,275.2958,279.081,283.39,288.471,294.385,297.342,300.655,305.736,309.048,312.005,317.554,323.468,325.958,330.012,333.843,338.711,344.92,351.047,355.559,360.427,366.50260000000003,370.335,374.846,379.927,386.035,391.116,395.627,398.585,401.897,407.4746,411.246,414.559,420.03700000000003,423.806,428.887,435.096,440.177,446.284,449.5708,453.296,456.68,461.547,464.088,469.738,472.278,474.76800000000003,478.823,484.93,490.478,496.22,501.087,505.101,508.414,514.064,517.448" svgx:width="0.33,0.55,0.55,0.4,0.48,0.33,0.29,0.44,0.6,0.29,0.5,0.33,0.48,0.61,0.55,0.61,0.4,0.29,0.58,0.56,0.29,0.58,0.56,0.55,0.83,0.5,0.33,0.48,0.4,0.55,0.5,0.58,0.61,0.55,0.5,0.61,0.48,0.56,0.6,0.5,0.33,0.48,0.55,0.42,0.5,0.58,0.29,0.33,0.5,0.33,0.29,0.55,0.58,0.25,0.55,0.4,0.48,0.61,0.6,0.44,0.48,0.61,0.55,0.44,0.5,0.6,0.5,0.44,0.29,0.33,0.56,0.55,0.33,0.55,0.55,0.5,0.61,0.5,0.6,0.33,0.55,0.33,0.48,0.25,0.56,0.25,0.25,0.55,0.6,0.55,0.56,0.48,0.4,0.33,0.56,0.33,0.25" style="fill:rgb(0,0,0);font-family:URWPalladioL-Roma;font-size:9.96px;stroke:none;">to reticulated drinking water and adequate sanitation, reduced capacity to adapt (e.g., poverty),</text>
   <text y="300.489" x="76.535,82.264,85.128,90.601,96.329,101.044,105.02799999999999,107.432,110.297,115.011,120.573,125.288,128.152,132.3352,134.826,140.2,143.4868,145.978,149.255,154.63,160.004,166.0796,168.518,171.383,177.111,181.285,186.0,190.37,196.305,200.193,203.058,206.266,210.637,213.127,215.598,220.519,226.248,232.3236,234.762,237.626,243.001,251.21,255.925,259.909,262.313,267.027,273.042,278.977,283.347,288.269,291.478,294.342,299.716,305.4928,307.945,310.809,315.524,321.085,325.8,328.665,332.8482,335.338,340.26,348.951,354.325,360.054,365.6316,368.027,371.236,376.964,381.7448,384.179,390.095,395.469,401.385,407.32,410.185,415.106,418.315,421.179,426.554,432.282,434.772,437.863,441.18,449.872,455.788,461.162,465.05,468.259,473.18,478.909,482.118,484.982,489.352,491.842,494.313,503.005,507.926,513.655" svgx:width="0.58,0.29,0.56,0.58,0.48,0.4,0.55,0.29,0.48,0.56,0.48,0.29,0.42,0.55,0.55,0.33,0.55,0.33,0.55,0.55,0.61,0.55,0.29,0.58,0.42,0.48,0.44,0.6,0.4,0.29,0.33,0.56,0.25,0.55,0.5,0.58,0.61,0.55,0.29,0.55,0.83,0.48,0.4,0.55,0.48,0.61,0.6,0.44,0.5,0.33,0.29,0.55,0.58,0.55,0.29,0.48,0.56,0.48,0.29,0.42,0.55,0.5,0.88,0.55,0.58,0.56,0.55,0.33,0.58,0.48,0.55,0.6,0.55,0.6,0.6,0.29,0.5,0.33,0.29,0.55,0.58,0.25,0.55,0.34,0.88,0.6,0.55,0.4,0.33,0.5,0.58,0.33,0.29,0.56,0.25,0.55,0.88,0.5,0.58,0.56" style="fill:rgb(0,0,0);font-family:URWPalladioL-Roma;font-size:9.96px;stroke:none;">higher levels of food insecurity, and lower education levels among the population. Importantly, many</text>
   <text y="313.999" x="76.236,82.212,87.64,93.616,99.611,102.505,107.476,110.717,113.611,119.039,124.826,129.0092,131.527,134.769,140.555,144.304,149.066,154.037,157.279,162.041,167.828,172.59,178.6656,181.161,186.659,192.23659999999998,194.673,199.088,201.981,204.874,213.654,218.625,221.866,226.6468,229.125,233.539,239.326,244.297,250.084,255.612,260.3928,262.86,266.171,271.142,275.557,280.3378,282.815,291.594,297.59,300.483,303.724,306.618,312.593,315.487,320.2678,322.735,328.521,333.284,338.255,341.149,344.39,350.16679999999997,352.662,356.59,359.483,363.699,369.227,373.442,375.932,378.424,386.716,392.503,395.396,399.81,405.5868,408.083,412.497,417.469,423.2458,425.751,434.53,439.502,445.03,449.8108,452.278,458.254,462.002,466.764,472.74,477.711,481.46,486.222,492.297,498.084,502.847,507.062,511.2452,513.774" svgx:width="0.6,0.55,0.6,0.6,0.29,0.5,0.33,0.29,0.55,0.58,0.42,0.55,0.33,0.58,0.4,0.48,0.5,0.33,0.48,0.58,0.48,0.61,0.55,0.55,0.56,0.55,0.44,0.29,0.29,0.88,0.5,0.33,0.48,0.55,0.44,0.58,0.5,0.58,0.56,0.48,0.55,0.33,0.5,0.44,0.48,0.55,0.88,0.6,0.29,0.33,0.29,0.6,0.29,0.48,0.55,0.58,0.48,0.5,0.29,0.33,0.58,0.55,0.4,0.29,0.42,0.56,0.42,0.25,0.55,0.83,0.58,0.29,0.44,0.58,0.55,0.44,0.5,0.58,0.55,0.88,0.5,0.56,0.48,0.55,0.6,0.4,0.48,0.6,0.5,0.4,0.48,0.61,0.58,0.48,0.42,0.42,0.55,0.5" style="fill:rgb(0,0,0);font-family:URWPalladioL-Roma;font-size:9.96px;stroke:none;">populations threatened by climate change face multiple health risks, which can make preparedness a</text>
   <text y="327.508" x="76.535,82.074,85.83,90.602,95.583,98.831,103.603,107.58699999999999,110.029,114.453,120.251,125.232,128.131,131.03,135.803,141.601,147.14,151.92079999999999,154.403,157.72,163.16,167.144,169.586,172.485,178.283,184.37,187.269,192.898,195.797,201.884,207.892,212.873,215.772,219.996,222.48600000000002,224.978,229.401,234.841,243.638,252.435,258.442,264.24,267.139,270.387,273.286,278.058,282.283,284.773,287.264,292.245,298.043,304.1186,306.621,312.16,317.6,323.229,328.001,331.936,337.734,346.531,351.303,357.102,360.3888,362.84,368.28,371.418,377.445,381.869,384.768,389.749,392.648,396.872" svgx:width="0.56,0.4,0.48,0.5,0.33,0.48,0.4,0.55,0.44,0.58,0.5,0.29,0.29,0.48,0.58,0.56,0.48,0.55,0.33,0.55,0.4,0.55,0.29,0.58,0.61,0.29,0.56,0.29,0.61,0.6,0.5,0.29,0.42,0.25,0.55,0.44,0.55,0.88,0.88,0.6,0.58,0.29,0.33,0.29,0.48,0.42,0.25,0.55,0.5,0.58,0.61,0.55,0.56,0.55,0.56,0.48,0.4,0.58,0.88,0.48,0.58,0.33,0.55,0.55,0.33,0.61,0.44,0.29,0.5,0.29,0.42,0.25" style="fill:rgb(0,0,0);font-family:URWPalladioL-Roma;font-size:9.96px;stroke:none;">greater challenge for individuals, communities, and government ofﬁcials.</text>
   <text y="341.018" x="97.795,105.782,111.889,117.997,123.545,127.559,130.872,136.999,142.914,145.871,149.183,152.141,157.008,161.1912,164.375,169.243,174.486,177.444,181.752,185.0388,188.124,191.508,197.056,201.04000000000002,204.129,211.994,217.542,226.515,229.472,235.386,238.344,242.855,247.83499999999998,250.995,254.308,259.786,262.925,268.545,274.672,277.629,280.586,286.6616,289.854,293.685,298.552,302.861,305.818,308.775,311.732,316.6,322.514,327.026,331.8068,334.952,338.265,343.743,346.872,351.384,354.341,357.298,366.271,371.352,374.665,379.4458,382.591,387.103,393.017,398.098,404.012,409.662,414.4428,417.599,420.556,429.529,435.636,440.717,445.229,448.541,452.7242,455.909,461.457,467.2338,470.43,476.344,481.212,486.293,489.25,492.562,498.3388,501.535,506.616,512.531" svgx:width="0.79,0.6,0.6,0.55,0.4,0.33,0.6,0.58,0.29,0.33,0.29,0.48,0.42,0.55,0.48,0.52,0.29,0.42,0.33,0.55,0.33,0.55,0.4,0.55,0.77,0.55,0.88,0.29,0.58,0.29,0.44,0.5,0.55,0.33,0.55,0.55,0.55,0.6,0.29,0.29,0.61,0.55,0.4,0.48,0.42,0.29,0.29,0.29,0.48,0.58,0.44,0.48,0.55,0.33,0.55,0.55,0.44,0.29,0.29,0.88,0.5,0.33,0.48,0.55,0.44,0.58,0.5,0.58,0.56,0.48,0.55,0.29,0.88,0.6,0.5,0.44,0.33,0.42,0.55,0.55,0.58,0.55,0.58,0.48,0.5,0.29,0.33,0.58,0.55,0.5,0.58,0.61" style="fill:rgb(0,0,0);font-family:URWPalladioL-Roma;font-size:9.96px;stroke:none;">Opportunities exist for Dominica to build resilience to climate change impacts on health and</text>
   <text y="354.527" x="76.117,84.26,88.936,91.777,94.619,97.87,103.269,107.946,110.787,116.469,121.897,124.387,127.404,137.431,141.766,147.097,152.779,156.03,160.707,164.387,169.064,174.746,179.081,183.8618,186.189,191.071,196.753,202.8286,205.149,213.292,218.623,222.479,227.908,232.047,237.73,243.061,249.037,251.359,256.69,260.361,265.79,270.671,276.354,279.195,284.076,288.753,294.8286,297.149,299.991,305.76779999999997,308.104,312.986,317.867,322.749,327.72900000000004,330.062,335.461,341.03860000000003,343.32,353.084,361.207,371.312,374.495,379.973,382.257,388.124,391.795,397.126,402.642,405.484,411.449,416.2298,418.557,421.398,427.08,430.331,435.662,439.519,448.14,453.021,456.204,459.045,464.376,470.15279999999996,472.489,475.741,481.071,485.055,487.359,491.694,494.535,497.376,505.997,510.879,514.062" svgx:width="0.83,0.48,0.29,0.29,0.33,0.55,0.48,0.29,0.58,0.56,0.25,0.55,0.78,0.44,0.55,0.58,0.33,0.48,0.4,0.48,0.58,0.44,0.48,0.55,0.5,0.58,0.61,0.55,0.83,0.55,0.4,0.56,0.42,0.58,0.55,0.6,0.55,0.55,0.4,0.56,0.5,0.58,0.29,0.5,0.48,0.61,0.55,0.29,0.58,0.55,0.5,0.5,0.5,0.5,0.55,0.55,0.56,0.55,1.0,0.83,0.79,0.33,0.55,0.55,0.6,0.4,0.55,0.56,0.29,0.61,0.48,0.55,0.29,0.58,0.33,0.55,0.4,0.88,0.5,0.33,0.29,0.55,0.58,0.55,0.33,0.55,0.4,0.55,0.44,0.29,0.29,0.88,0.5,0.33,0.48" style="fill:rgb(0,0,0);font-family:URWPalladioL-Roma;font-size:9.96px;stroke:none;">well-being. Aconference and workshop organized in 2003 by WHOto provide information for climate</text>
   <text y="368.036" x="76.535,81.047,86.961,92.042,97.956,103.606,108.3868,111.726,116.806,123.015,128.096,134.204,137.516,142.597,145.91,148.867,154.415,160.1918,163.581,169.689,172.646,177.727,183.641,189.555,192.512,198.426,204.00359999999998,207.318,210.275,216.05180000000001,219.441,222.754,228.668,233.4488,236.787,242.702,247.569,252.65,255.607,258.92,264.6968,268.086,272.395,277.262,281.774,285.087,290.635,294.61899999999997,297.901,300.858,306.6348,310.014,313.326,319.241,324.0218,327.36,334.565,339.646,343.66,346.617,352.236,357.856,362.723,367.804,373.58079999999995,376.97,383.077,386.908,391.776,396.085,400.952,406.866,410.179,415.047,421.12260000000003,424.507,429.588,434.56800000000004,437.921,441.752,446.619,451.131,456.68,465.653,474.626,479.493,485.407,491.616,496.697,500.01,502.967,508.515,514.43" svgx:width="0.44,0.58,0.5,0.58,0.56,0.48,0.55,0.5,0.61,0.5,0.6,0.33,0.5,0.33,0.29,0.55,0.58,0.55,0.6,0.29,0.5,0.58,0.58,0.29,0.58,0.56,0.55,0.29,0.58,0.55,0.33,0.58,0.48,0.55,0.58,0.48,0.5,0.29,0.33,0.58,0.55,0.42,0.48,0.44,0.33,0.55,0.4,0.55,0.29,0.58,0.55,0.33,0.58,0.48,0.55,0.71,0.5,0.4,0.29,0.55,0.55,0.48,0.5,0.58,0.55,0.6,0.4,0.48,0.42,0.48,0.58,0.33,0.48,0.61,0.55,0.5,0.5,0.55,0.4,0.48,0.44,0.55,0.88,0.88,0.48,0.58,0.61,0.5,0.33,0.29,0.55,0.58,0.42" style="fill:rgb(0,0,0);font-family:URWPalladioL-Roma;font-size:9.96px;stroke:none;">change adaptation planning in the health sector in the Caribbean presented 22 recommendations</text>
   <text y="381.546" x="76.535,80.359,85.216,88.168,93.239,96.545,101.403,107.4786,110.084,113.391,118.869,121.413,126.271,132.174,138.076,143.147,149.05,153.553,156.504,162.407,167.9846,170.53,175.601,184.06,189.131,192.964,197.822,203.725,208.583,212.883,217.0662,219.668,223.045,227.903,230.439,236.078,238.613,241.103,243.633,248.491,253.725,259.82,264.891,270.793,276.8686,279.475,285.114,291.016,296.554,305.012,307.964,312.822,319.018,324.657,329.4378,332.0,337.537,340.8238,343.4,349.008,354.079,358.379,363.1598,365.722,369.545,374.403,377.355,382.426,385.732,388.683,394.221,400.123,404.423,410.326,413.277,419.373,423.5562,426.158,431.766,436.624,439.93,448.389,453.247,458.105,463.8818,466.492,470.995,473.946,476.898,485.853,490.924,494.23,499.0108,501.573,506.644,512.546" svgx:width="0.4,0.48,0.29,0.5,0.33,0.48,0.61,0.55,0.33,0.55,0.55,0.48,0.58,0.58,0.5,0.58,0.44,0.29,0.58,0.56,0.55,0.5,0.83,0.5,0.4,0.48,0.58,0.48,0.42,0.42,0.55,0.33,0.48,0.25,0.56,0.25,0.25,0.55,0.48,0.52,0.6,0.5,0.58,0.61,0.55,0.56,0.58,0.55,0.83,0.29,0.48,0.61,0.56,0.48,0.55,0.55,0.33,0.55,0.55,0.5,0.42,0.48,0.55,0.4,0.48,0.29,0.5,0.33,0.29,0.55,0.58,0.42,0.58,0.29,0.6,0.42,0.55,0.55,0.48,0.33,0.83,0.48,0.48,0.58,0.55,0.44,0.29,0.29,0.88,0.5,0.33,0.48,0.55,0.5,0.58,0.61" style="fill:rgb(0,0,0);font-family:URWPalladioL-Roma;font-size:9.96px;stroke:none;">related to enhancing awareness (e.g., expand knowledge of base relationships between climate and</text>
   <text y="395.055" x="76.535,82.351,87.137,92.133,95.041,98.299,104.114,106.604,109.121,115.126,118.893,124.349,133.172,138.628,141.886,146.6668,149.18,153.617,157.384,162.84,167.077,171.314,174.641,178.878,183.664,188.101,191.359,196.815,200.762,205.758,208.6464,211.174,215.61,221.066,229.89,238.713,244.739,250.554,253.462,257.899,262.895,266.152,269.06,274.516,280.2928,282.83,287.826,293.642,299.7176,302.255,306.692,312.148,317.964,322.2,328.226,331.134,334.391,339.387,342.645,345.553,351.009,356.7858,359.322,362.23,368.0068,370.554,376.659,381.446,387.092,391.878,394.786,400.242,406.247,409.155,414.971,420.5486,423.035,428.031,434.136,439.132,445.138,448.396,453.392,456.639,459.547,465.003,470.819,475.055,477.545,480.072,484.858,489.095,492.352,497.349,502.875,505.782,508.69,512.927" svgx:width="0.58,0.48,0.5,0.29,0.33,0.58,0.25,0.55,0.6,0.4,0.55,0.88,0.55,0.33,0.48,0.55,0.44,0.4,0.55,0.42,0.42,0.33,0.42,0.48,0.44,0.33,0.55,0.4,0.5,0.29,0.55,0.44,0.55,0.88,0.88,0.6,0.58,0.29,0.44,0.5,0.33,0.29,0.55,0.58,0.55,0.5,0.58,0.61,0.55,0.44,0.55,0.58,0.42,0.6,0.29,0.33,0.5,0.33,0.29,0.55,0.58,0.55,0.29,0.58,0.55,0.61,0.48,0.56,0.48,0.29,0.55,0.6,0.29,0.58,0.56,0.55,0.5,0.61,0.5,0.6,0.33,0.5,0.33,0.29,0.55,0.58,0.42,0.25,0.55,0.48,0.42,0.33,0.5,0.55,0.29,0.29,0.42,0.58" style="fill:rgb(0,0,0);font-family:URWPalladioL-Roma;font-size:9.96px;stroke:none;">health; promote cross-sectoral communication and consultation in developing adaptations; establish</text>
   <text y="408.565" x="76.535,81.403,86.483,90.497,93.454,99.0316,101.848,110.323,115.404,119.418,125.332,128.289,134.204,139.7816,142.597,146.906,152.556,156.864,160.177,165.045,174.018,178.326,181.71,184.20000000000002,187.055,193.183,197.492,200.449,206.363,211.9406,214.757,220.965,226.046,229.359,234.339,237.184,240.568,245.435,247.976,253.626,256.166,258.656,261.511,266.023,271.571,277.486,283.694,289.822,294.334,297.62080000000003,300.39,303.348,309.262,315.003,319.871,325.785,329.098,334.646,338.66,341.617,346.485,350.6682,353.527,359.075,362.3618,365.203,370.07,375.314,378.271,382.579,385.892,388.849,394.764,400.3416,403.157,409.366,414.447,417.76,422.841,425.331,428.247,433.114,437.423,440.736,445.817,451.436,454.393,457.35,461.659,467.4358,470.317,475.936,480.804,484.117,487.43,492.297,496.281,499.055,505.264,510.345,513.657" svgx:width="0.48,0.5,0.4,0.29,0.56,0.55,0.83,0.5,0.4,0.58,0.29,0.58,0.56,0.55,0.42,0.56,0.42,0.33,0.48,0.88,0.42,0.33,0.25,0.55,0.6,0.42,0.29,0.58,0.56,0.55,0.61,0.5,0.33,0.5,0.55,0.33,0.48,0.25,0.56,0.25,0.25,0.55,0.44,0.55,0.58,0.61,0.6,0.44,0.33,0.55,0.29,0.58,0.56,0.48,0.58,0.33,0.55,0.4,0.29,0.48,0.42,0.55,0.55,0.33,0.55,0.48,0.52,0.29,0.42,0.33,0.29,0.58,0.56,0.55,0.61,0.5,0.33,0.5,0.25,0.55,0.48,0.42,0.33,0.5,0.55,0.29,0.29,0.42,0.58,0.55,0.55,0.48,0.33,0.33,0.48,0.4,0.55,0.61,0.5,0.33,0.5" style="fill:rgb(0,0,0);font-family:URWPalladioL-Roma;font-size:9.96px;stroke:none;">early warning systems), using data (e.g., conduct inventories of existing data; establish better data</text>
   <text y="422.074" x="76.535,85.156,90.038,95.72,100.602,106.03,110.707,119.328,124.004,129.687,132.9738,134.93,139.069,144.498,148.637,151.82,156.497,165.118,169.258,171.74800000000002,173.895,176.736,182.702,187.378,193.061,196.243,199.085,202.336,207.9136,209.824,214.706,220.388,226.4636,228.414,237.035,241.916,247.892,249.844,252.685,258.016,262.351,267.233,270.416,273.257,278.587,284.27,288.409,290.899,292.988,298.671,303.552,308.434,313.316,316.997,322.962,327.1452,329.162,334.043,339.726,345.8016,347.751,352.086,357.417,366.038,374.659,380.546,386.228,389.07,392.252,395.094,399.77,403.9532,405.96,410.842,414.1288,416.085,419.941,422.782,426.922,432.35,435.602,438.092,440.19,445.072,450.754,456.8296,458.78,462.919,466.102,469.773,474.45,480.132,485.561,488.744,494.426,499.103,504.785,507.626,513.308" svgx:width="0.88,0.5,0.58,0.5,0.56,0.48,0.88,0.48,0.58,0.33,0.55,0.42,0.56,0.42,0.33,0.48,0.88,0.42,0.25,0.55,0.29,0.61,0.48,0.58,0.33,0.29,0.33,0.56,0.55,0.5,0.58,0.61,0.55,0.88,0.5,0.6,0.55,0.29,0.55,0.44,0.5,0.33,0.29,0.55,0.58,0.42,0.25,0.55,0.58,0.5,0.5,0.5,0.4,0.61,0.42,0.55,0.5,0.58,0.61,0.55,0.44,0.55,0.88,0.88,0.6,0.58,0.29,0.33,0.29,0.48,0.42,0.55,0.5,0.33,0.55,0.4,0.29,0.42,0.56,0.33,0.25,0.55,0.5,0.58,0.61,0.55,0.42,0.33,0.4,0.48,0.58,0.56,0.33,0.58,0.48,0.58,0.29,0.58,0.56" style="fill:rgb(0,0,0);font-family:URWPalladioL-Roma;font-size:9.96px;stroke:none;">management systems; identify and map locations, hazards and communities at risk), and strengthening</text>
   <text y="435.583" x="76.535,79.483,85.38,89.676,92.979,95.928,99.231,105.34,108.643,111.592,117.124,123.02,127.2032,129.809,133.183,138.036,140.569,146.202,148.735,151.22500000000002,153.761,158.614,164.339,169.405,172.353,178.463,183.529,186.832,191.6128,194.177,198.676,204.785,208.788,212.607,217.46,223.357,226.6438,229.153,232.101,237.998,244.189,247.137,251.636,256.702,260.005,265.537,269.539,273.7222,276.327,281.393,287.29,293.36560000000003,295.973,299.793,304.646,310.279,313.228,318.76,324.657,329.723,332.6114,335.163,339.459,342.762,347.828,353.725,359.916,364.982,368.812,375.002,379.298,381.788,384.324,390.514,395.368,401.092,405.945,408.894,414.426,420.402,423.008,427.861,431.052,434.426,439.28,443.778,447.081,450.03,455.754,460.5348,463.1,472.046,476.899,481.398,487.295,492.361,498.258,501.206,505.502,514.448" svgx:width="0.29,0.58,0.42,0.33,0.29,0.33,0.6,0.33,0.29,0.55,0.58,0.42,0.55,0.33,0.48,0.25,0.56,0.25,0.25,0.55,0.48,0.56,0.5,0.29,0.6,0.5,0.33,0.48,0.55,0.44,0.6,0.4,0.4,0.48,0.58,0.33,0.55,0.29,0.58,0.61,0.29,0.44,0.5,0.33,0.55,0.4,0.42,0.55,0.5,0.58,0.61,0.55,0.4,0.48,0.56,0.29,0.55,0.58,0.5,0.29,0.55,0.42,0.33,0.5,0.58,0.61,0.5,0.4,0.61,0.42,0.25,0.55,0.61,0.48,0.56,0.48,0.29,0.55,0.6,0.55,0.48,0.33,0.33,0.48,0.44,0.33,0.29,0.56,0.48,0.55,0.88,0.48,0.44,0.58,0.5,0.58,0.29,0.42,0.88,0.42" style="fill:rgb(0,0,0);font-family:URWPalladioL-Roma;font-size:9.96px;stroke:none;">institutions (e.g., evaluate current indicators and regional standards; develop effective mechanisms</text>
   <text y="449.093" x="76.535,79.889,85.388,89.372,91.855,94.786,100.648,104.002,109.501,113.48,122.374,127.41,130.693,133.624,139.124,144.9008,147.484,151.754,157.616,162.652,166.631,169.562,175.424,181.024,183.514,186.03,188.961,197.855,203.908,207.705,213.205,218.895,223.6758,226.208,231.032,237.186,243.26,247.732,252.768,256.052,258.983,264.482,270.2588,272.842,277.878,283.74,289.8156,292.382,295.666,299.644,304.68,307.611,313.473,316.404,322.266,327.866,330.356,332.872,337.697,343.559,349.159,354.195,359.795,364.5758,367.118,370.915,375.739,381.339,384.27,389.77,395.632,400.668,403.5564,406.087,411.123,416.985,423.0606,425.627,431.489,436.525,439.809,442.74,448.239,454.101,459.137,462.0254,464.566,467.497,473.359,477.63,480.913,483.844,487.128,493.201,496.485,499.416,504.915,510.777,515.813" svgx:width="0.33,0.55,0.4,0.55,0.29,0.58,0.33,0.55,0.4,0.88,0.5,0.33,0.29,0.55,0.58,0.55,0.42,0.58,0.5,0.4,0.29,0.58,0.56,0.25,0.55,0.29,0.88,0.6,0.4,0.55,0.56,0.48,0.55,0.48,0.61,0.6,0.44,0.5,0.33,0.29,0.55,0.58,0.55,0.5,0.58,0.61,0.55,0.33,0.4,0.5,0.29,0.58,0.29,0.58,0.56,0.25,0.55,0.48,0.58,0.56,0.5,0.56,0.48,0.55,0.4,0.48,0.56,0.29,0.55,0.58,0.5,0.29,0.55,0.5,0.58,0.61,0.55,0.58,0.5,0.33,0.29,0.55,0.58,0.5,0.29,0.55,0.29,0.58,0.42,0.33,0.29,0.33,0.6,0.33,0.29,0.55,0.58,0.5,0.29" style="fill:rgb(0,0,0);font-family:URWPalladioL-Roma;font-size:9.96px;stroke:none;">for information sharing; improve education and training; engage regional and national institutional</text>
   <text y="462.602" x="76.535,85.508,90.375,94.887,100.802,105.882,111.797,114.754,119.062,128.035,132.2182,135.23,138.614,144.162,148.14600000000002,151.062,156.143,162.352,167.433,173.54,176.853,181.934,185.247,188.204,193.752,199.52880000000002,202.552,208.761,213.629,219.37,224.238,227.195,232.743,238.85,247.823,252.691,258.605,261.918,265.20480000000003,268.177" svgx:width="0.88,0.48,0.44,0.58,0.5,0.58,0.29,0.42,0.88,0.42,0.55,0.33,0.55,0.4,0.55,0.5,0.61,0.5,0.6,0.33,0.5,0.33,0.29,0.55,0.58,0.55,0.61,0.48,0.56,0.48,0.29,0.55,0.6,0.88,0.48,0.58,0.33,0.33,0.55,0.33" style="fill:rgb(0,0,0);font-family:URWPalladioL-Roma;font-size:9.96px;stroke:none;">mechanisms for adaptation development) [</text>
   <text y="462.602" x="271.565,276.546" svgx:width="0.5,0.5" style="fill:rgb(8,117,183);font-family:URWPalladioL-Roma;font-size:9.96px;stroke:none;">11</text>
   <text y="462.602" x="281.528,284.912,287.402,291.72,295.145,300.92179999999996,303.945,309.026,315.235,321.444,324.401,327.714,330.671,336.219,342.133,344.623,347.661,350.974,356.888,361.6688,364.642,374.804,383.258,391.1264,394.121,402.108,408.216,413.083,417.097,422.178,425.491,428.448,433.996,439.911,444.992,447.8804,450.835,456.485,460.498,465.579,474.552,479.42,487.895,493.443,497.457,503.0346,505.993,509.377,514.925" svgx:width="0.33,0.25,0.55,0.34,0.58,0.55,0.5,0.61,0.61,0.29,0.33,0.29,0.55,0.58,0.25,0.55,0.33,0.58,0.48,0.55,1.0,0.83,0.79,0.55,0.79,0.6,0.48,0.4,0.5,0.33,0.29,0.55,0.58,0.5,0.29,0.55,0.56,0.4,0.5,0.88,0.48,0.83,0.55,0.4,0.56,0.55,0.33,0.55,0.4" style="fill:rgb(0,0,0);font-family:URWPalladioL-Roma;font-size:9.96px;stroke:none;">]. In addition, the WHO Operational Framework for</text>
   <text y="476.112" x="76.535,82.744,88.871,91.829,94.786,100.995,103.952,109.866,115.4436,118.331,125.535,128.493,131.45,140.423,145.503,148.816,153.5968,156.509,163.297,168.164,172.473,175.43,178.387,181.344,186.212,192.126,195.4128,198.254,206.708,211.576,216.657,219.614,222.927,228.7038,231.656,236.991,242.641,246.949,250.262,255.13,264.102,268.2852,271.236,274.193,280.402,285.27,291.184,294.496,297.454,303.602,308.469,312.6522,315.592,320.673,325.653,328.569,333.081,338.629,347.602,353.71,359.258,365.172,370.04,375.954,379.267,383.4502,386.4,390.231,395.099,398.056,403.137,406.45,411.317,417.3926,420.341,423.654,429.132,432.027,435.34,441.254,446.0348,448.936,454.556,460.683,463.64,466.597,472.806,475.763,481.678,487.2556,490.142,495.762,498.719,504.267,508.779,514.429" svgx:width="0.61,0.6,0.29,0.29,0.61,0.29,0.58,0.56,0.55,0.71,0.29,0.29,0.88,0.5,0.33,0.48,0.55,0.67,0.48,0.42,0.29,0.29,0.29,0.48,0.58,0.33,0.55,0.83,0.48,0.5,0.29,0.33,0.58,0.55,0.52,0.56,0.42,0.33,0.48,0.88,0.42,0.55,0.29,0.61,0.48,0.58,0.33,0.29,0.61,0.48,0.42,0.55,0.5,0.5,0.55,0.44,0.55,0.88,0.6,0.55,0.58,0.48,0.58,0.33,0.42,0.55,0.4,0.48,0.29,0.5,0.33,0.48,0.61,0.55,0.33,0.55,0.55,0.33,0.58,0.48,0.55,0.55,0.6,0.29,0.29,0.61,0.29,0.58,0.56,0.55,0.55,0.29,0.55,0.44,0.56,0.42" style="fill:rgb(0,0,0);font-family:URWPalladioL-Roma;font-size:9.96px;stroke:none;">Building Climate Resilient Health Systems identiﬁes 10 components related to the building blocks</text>
   <text y="489.621" x="76.535,82.024,85.3108,87.864,93.714,98.529,103.555,106.481,109.758,115.53479999999999,118.111,122.373,127.962,132.225,135.502,140.317,149.193,153.3762,155.948,159.225,165.075,170.101,173.3878,175.882,180.345,185.833,191.684,195.946,199.223,202.148,205.425,211.487,214.764,219.5448,222.072,227.052,229.591,233.561,236.487,242.076,247.564,251.364,256.853,262.914,267.0972,269.669,274.695,280.737,286.778,290.568,296.056,301.082,305.546,311.3228,313.899,317.246,322.735,326.719,329.199,335.24,339.03,343.845,349.886,354.912,358.883,361.808,367.659,373.2366,375.751,379.098,384.587,388.57099999999997,391.05,394.327,400.178,404.9588,407.486,413.336,418.151,423.177,426.102,429.379,435.1558,437.733,440.658,449.534,455.576,460.602,465.065,468.342,472.5252,475.097,480.586,483.87280000000004,486.436,490.899,493.824,496.75,505.626,510.652,513.929" svgx:width="0.55,0.33,0.55,0.58,0.48,0.5,0.29,0.33,0.58,0.55,0.42,0.56,0.42,0.33,0.48,0.88,0.42,0.55,0.33,0.58,0.5,0.33,0.55,0.44,0.55,0.58,0.42,0.33,0.29,0.33,0.6,0.33,0.48,0.55,0.5,0.55,0.4,0.29,0.56,0.55,0.4,0.55,0.6,0.42,0.55,0.5,0.6,0.6,0.4,0.55,0.5,0.44,0.58,0.55,0.33,0.55,0.4,0.55,0.6,0.4,0.48,0.6,0.5,0.4,0.29,0.58,0.56,0.55,0.33,0.55,0.4,0.55,0.33,0.58,0.48,0.55,0.58,0.48,0.5,0.29,0.33,0.58,0.55,0.29,0.88,0.6,0.5,0.44,0.33,0.42,0.55,0.55,0.33,0.55,0.44,0.29,0.29,0.88,0.5,0.33,0.48" style="fill:rgb(0,0,0);font-family:URWPalladioL-Roma;font-size:9.96px;stroke:none;">of health systems that constitute a rigorous approach for preparing for the health impacts of climate</text>
   <text y="503.13" x="76.535,80.958,86.757,91.738,97.536,103.075,107.847,110.33699999999999,113.427,119.534,125.332,130.104,135.6816,138.134,141.033,146.831,151.255,154.154,160.161,166.248,171.0288,173.511,178.492,182.916,186.163,189.063,194.502,200.3,204.4832,207.015,215.324,218.223,221.471,227.2478,229.76,233.516,238.288,242.512,248.499,253.271,257.695,260.9818,263.433,266.681,272.159,274.611,277.859,283.657,288.4378,290.92,294.238,299.677,302.576,305.475,310.915,319.224,322.123,327.921,333.4986,335.951" svgx:width="0.44,0.58,0.5,0.58,0.56,0.48,0.25,0.55,0.61,0.58,0.48,0.56,0.55,0.29,0.58,0.44,0.29,0.6,0.61,0.48,0.55,0.5,0.44,0.33,0.29,0.55,0.58,0.42,0.55,0.83,0.29,0.33,0.58,0.55,0.4,0.48,0.42,0.6,0.48,0.44,0.33,0.55,0.33,0.55,0.55,0.33,0.58,0.48,0.55,0.33,0.55,0.29,0.29,0.55,0.83,0.29,0.58,0.56,0.55,0.33" style="fill:rgb(0,0,0);font-family:URWPalladioL-Roma;font-size:9.96px;stroke:none;">change. They include actions with respect to the following [</text>
   <text y="503.13" x="339.269,344.25" svgx:width="0.5,0.5" style="fill:rgb(8,117,183);font-family:URWPalladioL-Roma;font-size:9.96px;stroke:none;">50</text>
   <text y="503.13" x="349.231,352.549" svgx:width="0.33,0.25" style="fill:rgb(0,0,0);font-family:URWPalladioL-Roma;font-size:9.96px;stroke:none;">]:</text>
   <text y="523.748" x="76.66" svgx:width="0.5" style="fill:rgb(0,0,0);font-family:CMSY10;font-size:10.38px;stroke:none;">•</text>
   <text y="523.748" x="97.565,103.652,108.424,113.406,119.493,124.265,128.2,132.424,138.222,141.121,147.097,149.6,154.581,160.379,166.4546,168.957,174.496,179.936,185.565,190.337,194.272,200.07,205.051,210.85,215.273" svgx:width="0.61,0.48,0.5,0.61,0.48,0.4,0.42,0.58,0.29,0.6,0.55,0.5,0.58,0.61,0.55,0.56,0.55,0.56,0.48,0.4,0.58,0.5,0.58,0.44,0.48" style="fill:rgb(0,0,0);font-family:URWPalladioL-Roma;font-size:9.96px;stroke:none;">Leadership and governance</text>
   <text y="538.254" x="76.66" svgx:width="0.5" style="fill:rgb(0,0,0);font-family:CMSY10;font-size:10.38px;stroke:none;">•</text>
   <text y="538.254" x="97.565,105.854,110.626,115.607,118.506,121.754,127.5308,130.043,138.352,143.791,147.727,153.266,156.583,162.023,165.779,170.202" svgx:width="0.83,0.48,0.5,0.29,0.33,0.58,0.55,0.83,0.55,0.4,0.56,0.33,0.55,0.4,0.44,0.48" style="fill:rgb(0,0,0);font-family:URWPalladioL-Roma;font-size:9.96px;stroke:none;">Health workforce</text>
   <text y="552.759" x="76.66" svgx:width="0.5" style="fill:rgb(0,0,0);font-family:CMSY10;font-size:10.38px;stroke:none;">•</text>
   <text y="552.759" x="97.565,103.841,109.849,112.748,118.546,123.318,127.254,132.235,137.744,140.643,143.542,146.441,149.689,154.123,156.613,159.104,163.527,168.509,174.496,179.477,183.901,186.8,190.048,194.481,196.971,199.462,204.444,210.242,216.3176,218.82,223.801,229.888,234.869,240.857,244.105,249.086,252.334,255.233,260.673,266.4498,268.961,273.943,278.167,282.391,287.163,291.387,295.611,304.408,309.18,314.979" svgx:width="0.72,0.6,0.29,0.58,0.48,0.4,0.5,0.55,0.29,0.29,0.29,0.33,0.56,0.25,0.55,0.44,0.5,0.6,0.5,0.44,0.29,0.33,0.56,0.25,0.55,0.5,0.58,0.61,0.55,0.5,0.61,0.5,0.6,0.33,0.5,0.33,0.29,0.55,0.58,0.55,0.5,0.42,0.42,0.48,0.42,0.42,0.88,0.48,0.58,0.33" style="fill:rgb(0,0,0);font-family:URWPalladioL-Roma;font-size:9.96px;stroke:none;">Vulnerability, capacity, and adaptation assessment</text>
   <text y="567.265" x="76.66" svgx:width="0.5" style="fill:rgb(0,0,0);font-family:CMSY10;font-size:10.38px;stroke:none;">•</text>
   <text y="567.265" x="97.565,100.922,106.721,109.968,114.741,120.28,124.215,129.196,132.444,137.216,143.29160000000002,145.794,149.729,152.628,156.852,162.4296,164.882,173.679,179.119,184.917,187.816,191.064,196.504,200.439,203.338,209.136,214.71359999999999,217.166,222.147,227.945,234.0206,236.523,241.295,246.277,250.212,253.111,258.6886,261.141,269.45,274.431,278.366,284.164,287.064,292.862" svgx:width="0.34,0.58,0.33,0.48,0.56,0.4,0.5,0.33,0.48,0.61,0.55,0.4,0.29,0.42,0.56,0.55,0.88,0.55,0.58,0.29,0.33,0.55,0.4,0.29,0.58,0.56,0.55,0.5,0.58,0.61,0.55,0.48,0.5,0.4,0.29,0.56,0.55,0.83,0.5,0.4,0.58,0.29,0.58,0.56" style="fill:rgb(0,0,0);font-family:URWPalladioL-Roma;font-size:9.96px;stroke:none;">Integrated risk monitoring and early warning</text>
   <text y="581.771" x="76.66" svgx:width="0.5" style="fill:rgb(0,0,0);font-family:CMSY10;font-size:10.38px;stroke:none;">•</text>
   <text y="581.771" x="97.565,105.854,110.626,115.607,118.506,121.754,127.5308,130.043,135.024,140.823,146.89860000000002,149.4,153.824,156.723,159.622,168.419,173.4,176.648,181.4288,183.911,187.667,192.439,196.663,201.435,206.416,210.172,214.596" svgx:width="0.83,0.48,0.5,0.29,0.33,0.58,0.55,0.5,0.58,0.61,0.55,0.44,0.29,0.29,0.88,0.5,0.33,0.48,0.55,0.4,0.48,0.42,0.48,0.5,0.4,0.44,0.58" style="fill:rgb(0,0,0);font-family:URWPalladioL-Roma;font-size:9.96px;stroke:none;">Health and climate research</text>
   <text y="596.276" x="76.66" svgx:width="0.5" style="fill:rgb(0,0,0);font-family:CMSY10;font-size:10.38px;stroke:none;">•</text>
   <text y="596.276" x="97.565,104.628,107.528,110.427,119.224,124.205,127.453,132.2338,134.716,138.471,143.244,147.468,150.367,153.266,156.165,160.937,166.735,170.0218,172.474,177.455,183.253,189.3286,191.831,196.055,202.063,206.287,209.535,214.516,217.415,223.213,228.195,233.704,236.603,241.3838,243.866,247.113,251.886,256.309,262.107,267.905,273.345,276.244,281.684,287.223,290.122,294.894,299.0772,301.609,306.59,312.388,318.4636,320.966,323.865,329.664,332.981,336.916,341.898,346.122,349.37,353.225,359.233,363.656,366.904,372.911,376.667" svgx:width="0.71,0.29,0.29,0.88,0.5,0.33,0.48,0.55,0.4,0.48,0.42,0.29,0.29,0.29,0.48,0.58,0.33,0.55,0.5,0.58,0.61,0.55,0.42,0.6,0.42,0.33,0.5,0.29,0.58,0.5,0.55,0.29,0.48,0.55,0.33,0.48,0.44,0.58,0.58,0.55,0.29,0.55,0.56,0.29,0.48,0.42,0.55,0.5,0.58,0.61,0.55,0.29,0.58,0.33,0.4,0.5,0.42,0.33,0.4,0.6,0.44,0.33,0.6,0.4,0.48" style="fill:rgb(0,0,0);font-family:URWPalladioL-Roma;font-size:9.96px;stroke:none;">Climate resilient and sustainable technologies and infrastructure</text>
   <text y="610.782" x="76.66" svgx:width="0.5" style="fill:rgb(0,0,0);font-family:CMSY10;font-size:10.38px;stroke:none;">•</text>
   <text y="610.782" x="97.565,106.99,111.971,117.769,122.75,128.29,133.062,141.859,146.631,152.429,155.7158,158.167,163.607,166.8938,169.415,174.187,179.986,185.614,188.514,192.269,197.709,203.507,212.304,217.076,222.875,226.122,231.104,233.9924,236.493,242.581,247.353,250.6,255.373,259.308,268.105,271.004,276.802,281.783,287.582,290.829,295.0122,297.544,302.984,306.2708,308.792,314.59,319.362,324.344,327.243,330.491" svgx:width="0.95,0.5,0.58,0.5,0.56,0.48,0.88,0.48,0.58,0.33,0.55,0.55,0.33,0.55,0.48,0.58,0.56,0.29,0.4,0.55,0.58,0.88,0.48,0.58,0.33,0.5,0.29,0.55,0.61,0.48,0.33,0.48,0.4,0.88,0.29,0.58,0.5,0.58,0.33,0.42,0.55,0.55,0.33,0.55,0.58,0.48,0.5,0.29,0.33,0.58" style="fill:rgb(0,0,0);font-family:URWPalladioL-Roma;font-size:9.96px;stroke:none;">Management of environmental determinants of health</text>
   <text y="625.288" x="76.66" svgx:width="0.5" style="fill:rgb(0,0,0);font-family:CMSY10;font-size:10.38px;stroke:none;">•</text>
   <text y="625.288" x="97.565,104.628,107.528,110.427,119.224,124.205,127.453,132.225,135.542,138.442,144.24,147.557,152.997,156.932,165.729,170.501,176.5766,179.079,184.877,189.649,194.631,197.53,200.778,206.5548,209.066,215.054,218.81,224.249,229.789,233.724,238.705,247.502" svgx:width="0.71,0.29,0.29,0.88,0.5,0.33,0.48,0.33,0.29,0.58,0.33,0.55,0.4,0.88,0.48,0.61,0.55,0.58,0.48,0.5,0.29,0.33,0.58,0.55,0.6,0.4,0.55,0.56,0.4,0.5,0.88,0.42" style="fill:rgb(0,0,0);font-family:URWPalladioL-Roma;font-size:9.96px;stroke:none;">Climate-informed health programs</text>
   <text y="639.793" x="76.66" svgx:width="0.5" style="fill:rgb(0,0,0);font-family:CMSY10;font-size:10.38px;stroke:none;">•</text>
   <text y="639.793" x="97.565,103.652,112.449,117.221,120.977,126.516,131.288,137.087,141.51,147.08759999999998,149.54,155.527,159.283,164.055,170.043,175.024,178.78,183.552,189.639,195.438,200.21,204.434,208.6172,211.149,216.13,221.928,228.0036,230.506,239.303,244.284,250.082,255.064,260.603,265.375,274.172,278.944,284.742" svgx:width="0.61,0.88,0.48,0.4,0.56,0.48,0.58,0.44,0.56,0.55,0.6,0.4,0.48,0.6,0.5,0.4,0.48,0.61,0.58,0.48,0.42,0.42,0.55,0.5,0.58,0.61,0.55,0.88,0.5,0.58,0.5,0.56,0.48,0.88,0.48,0.58,0.33" style="fill:rgb(0,0,0);font-family:URWPalladioL-Roma;font-size:9.96px;stroke:none;">Emergency preparedness and management</text>
   <text y="654.299" x="76.66" svgx:width="0.5" style="fill:rgb(0,0,0);font-family:CMSY10;font-size:10.38px;stroke:none;">•</text>
   <text y="654.299" x="97.565,104.628,107.528,110.427,119.224,124.205,127.453,132.2338,134.716,139.697,145.495,151.5706,154.073,159.871,164.643,169.624,172.524,175.771,181.5478,184.06,190.088,195.886,200.867,206.665,211.089,213.988,219.786" svgx:width="0.71,0.29,0.29,0.88,0.5,0.33,0.48,0.55,0.5,0.58,0.61,0.55,0.58,0.48,0.5,0.29,0.33,0.58,0.55,0.61,0.58,0.5,0.58,0.44,0.29,0.58,0.56" style="fill:rgb(0,0,0);font-family:URWPalladioL-Roma;font-size:9.96px;stroke:none;">Climate and health ﬁnancing</text>
   <text y="674.917" x="97.795,107.408,112.489,118.403,123.98060000000001,127.884,133.433,136.7198,140.658,143.97,149.885,154.6658,158.583,163.664,169.873,174.954,181.061,184.374,189.455,192.768,195.725,201.273,207.0498,211.018,216.567,222.674,225.987,228.944,234.492,240.406,244.5892,248.556,254.47,257.428,263.078,268.992,271.949,274.906,280.556,286.47,289.783,294.65,300.7256,304.69,307.647,313.42379999999997,317.393,320.705,326.62,331.4008,335.328,343.194,348.742,357.715,360.672,366.586,369.543,374.055,379.035,382.967,388.048,392.357,396.665,401.533,405.841,410.15,419.123,423.99,429.905,433.1918,437.048,442.129,445.086,448.044,453.694,459.4708,463.449,467.961,470.918,476.466,480.775,485.642,488.599,494.1766,498.081,506.555,509.513,512.825" svgx:width="0.95,0.5,0.58,0.56,0.55,0.55,0.33,0.55,0.33,0.58,0.48,0.55,0.5,0.61,0.5,0.6,0.33,0.5,0.33,0.29,0.55,0.58,0.55,0.55,0.6,0.33,0.29,0.55,0.58,0.42,0.55,0.58,0.29,0.56,0.58,0.29,0.29,0.56,0.58,0.33,0.48,0.61,0.55,0.29,0.58,0.55,0.33,0.58,0.48,0.55,0.77,0.55,0.88,0.29,0.58,0.29,0.44,0.5,0.55,0.5,0.42,0.42,0.48,0.42,0.42,0.88,0.48,0.58,0.33,0.55,0.5,0.29,0.29,0.56,0.58,0.55,0.44,0.29,0.55,0.42,0.48,0.29,0.56,0.55,0.83,0.29,0.33,0.58" style="fill:rgb(0,0,0);font-family:URWPalladioL-Roma;font-size:9.96px;stroke:none;">Many of the adaptation options highlighted in the Dominica assessment align closely with</text>
   <text y="688.426" x="76.535,79.848,85.762,90.5428,94.643,98.474,103.342,107.854,113.402,122.375,131.348,136.216,142.13,148.339,153.42,156.732,159.689,165.238,171.152,175.3352,179.475,182.432,188.641,193.508,199.422,202.735,205.692,211.84,216.708,222.7836,226.93,232.55,238.1276,242.214,252.376,260.83,268.6984,272.821,277.902,283.816,289.8916,294.039,297.352,303.266,308.134,311.965,316.832,320.216,325.765,329.606,334.3868,338.487,344.594,348.425,353.974,359.715,362.672,368.881,373.66179999999997,377.763,383.504,388.585,391.542,397.67,402.751,408.37,411.327,416.1078,420.209,423.166,429.08,432.464,438.012,442.026,450.999,456.08,459.393,462.35,467.898,473.6748,477.816,481.129,486.607,490.691,496.606,501.473,506.554,509.511,512.824" svgx:width="0.33,0.58,0.48,0.55,0.4,0.48,0.44,0.55,0.88,0.88,0.48,0.58,0.61,0.5,0.33,0.29,0.55,0.58,0.42,0.55,0.29,0.61,0.48,0.58,0.33,0.29,0.61,0.48,0.61,0.55,0.55,0.56,0.55,1.0,0.83,0.79,0.55,0.5,0.58,0.61,0.55,0.33,0.58,0.48,0.4,0.48,0.33,0.55,0.4,0.48,0.55,0.6,0.4,0.55,0.56,0.29,0.61,0.48,0.55,0.56,0.5,0.29,0.6,0.5,0.55,0.29,0.48,0.55,0.29,0.58,0.33,0.55,0.4,0.88,0.5,0.33,0.29,0.55,0.58,0.55,0.33,0.55,0.55,0.58,0.48,0.5,0.29,0.33,0.58" style="fill:rgb(0,0,0);font-family:URWPalladioL-Roma;font-size:9.96px;stroke:none;">the recommendations identiﬁed by WHO and therefore provide valuable information to health</text>
   <text y="701.935" x="76.535,82.543,87.253,91.619,94.48,98.65,101.511,106.88,112.603,115.877,124.56,129.476,134.944,139.654,143.538,147.7212,150.185,155.101,160.824,166.89960000000002,169.32,175.23,180.146,184.03,187.236,192.959,197.669,201.553,205.7362,208.2,211.061,216.83780000000002,219.272,226.883,232.252,240.934,243.796,249.519,252.38,256.746,261.726,264.14,267.415,272.784,276.768,279.146,287.828,293.197,298.753,301.614,307.337,312.9146,315.292,318.567,323.935,327.82,336.02,340.937,344.634,350.7096,353.13,361.331,364.192,367.398,373.1748,375.599,380.309,383.406,386.68,392.049,395.933,399.139,403.3222,405.796,409.001,414.479,416.848,422.758,425.619,430.536,436.3128,438.737,442.011,447.38,451.364,453.752,458.118,460.979,463.841,472.523,477.44,480.645,485.4258,487.833,492.199,497.922,502.839,508.561,514.029" svgx:width="0.61,0.48,0.44,0.29,0.42,0.29,0.55,0.58,0.33,0.88,0.5,0.56,0.48,0.4,0.42,0.55,0.5,0.58,0.61,0.55,0.6,0.5,0.4,0.33,0.58,0.48,0.4,0.42,0.55,0.29,0.58,0.55,0.77,0.55,0.88,0.29,0.58,0.29,0.44,0.5,0.55,0.33,0.55,0.4,0.55,0.88,0.55,0.56,0.29,0.58,0.56,0.55,0.33,0.55,0.4,0.83,0.5,0.4,0.61,0.55,0.83,0.29,0.33,0.58,0.55,0.48,0.33,0.33,0.55,0.4,0.33,0.42,0.55,0.33,0.55,0.55,0.6,0.29,0.5,0.58,0.55,0.33,0.55,0.4,0.55,0.44,0.29,0.29,0.88,0.5,0.33,0.48,0.55,0.44,0.58,0.5,0.58,0.56,0.48" style="fill:rgb(0,0,0);font-family:URWPalladioL-Roma;font-size:9.96px;stroke:none;">decision-makers and partners in Dominica for moving forward with efforts to plan for climate change</text>
   <text y="715.445" x="76.535,81.616,87.53,93.6056,96.351,99.663,105.14099999999999,107.823,112.904,119.113,125.322,129.163,134.031,138.339,142.5222,145.26,148.572,154.487,159.2678,161.966,164.923,173.896,180.003,185.084,189.596,192.909,197.217,199.70700000000002,203.213,209.35,213.181,218.049,224.156,229.237,233.251,238.332,241.645,244.602,250.15,255.92680000000001,258.676,262.06,267.608,271.592,274.234,277.618,283.745,287.058,293.186,297.027,301.8078,304.506,309.018,311.975,314.932,323.905,328.986,332.299,337.0798,339.778,344.29,350.204,355.285,361.199,366.849,371.6298,374.328,378.342,381.299,385.608,391.258,395.4412,398.178,401.135,406.91179999999997,409.661,417.526,423.074,432.047,435.005,440.919,443.876,448.388,453.368,456.08,464.555,470.104,476.231,479.188,485.2636,488.009,493.628,498.496,504.41,509.277,515.425" svgx:width="0.5,0.58,0.61,0.55,0.33,0.55,0.55,0.5,0.61,0.61,0.4,0.48,0.42,0.42,0.55,0.33,0.58,0.48,0.55,0.29,0.88,0.6,0.5,0.44,0.33,0.42,0.25,0.55,0.6,0.4,0.48,0.6,0.5,0.4,0.5,0.33,0.29,0.55,0.58,0.55,0.33,0.55,0.4,0.55,0.33,0.6,0.33,0.6,0.4,0.48,0.55,0.44,0.29,0.29,0.88,0.5,0.33,0.48,0.55,0.44,0.58,0.5,0.58,0.56,0.48,0.55,0.4,0.29,0.42,0.56,0.42,0.55,0.29,0.58,0.55,0.77,0.55,0.88,0.29,0.58,0.29,0.44,0.5,0.55,0.83,0.55,0.6,0.29,0.61,0.55,0.55,0.48,0.58,0.48,0.61,0.33" style="fill:rgb(0,0,0);font-family:URWPalladioL-Roma;font-size:9.96px;stroke:none;">and to address the impacts. Preparation for future climate change risks in Dominica would beneﬁt</text>
   <text y="728.954" x="76.535,79.899,83.707,89.223,97.9878,100.649,103.942,109.821,114.6018,117.155,121.994,127.207,133.278,138.329,144.209,150.381,155.22,161.2956,163.888,168.373,173.889,176.828,179.768,184.607,189.092,192.386,195.325,200.841,206.61780000000002,209.216,214.267,220.146,226.2216,228.824,233.875,239.754,244.805,247.745,253.362,257.645,260.585,264.7682,267.363,272.879,276.16580000000005,278.738,287.163,292.002,297.053,300.346,306.226,311.065,314.318,316.808,319.348,325.056,329.895,334.38,337.674,343.189,346.442,348.932,351.463,356.514,362.393,368.4686,371.071,375.91,381.981,384.921,391.093,395.932,404.852,407.792,413.308,416.248,421.763,427.37,430.31,434.6924,437.3,443.473,448.524,451.817,456.797,459.363,464.414,470.294,476.3696,478.961,483.8,486.992,490.346,495.862,499.852,503.146,507.3292,509.934,513.227" svgx:width="0.33,0.4,0.55,0.88,0.55,0.33,0.58,0.48,0.55,0.48,0.52,0.6,0.5,0.58,0.61,0.48,0.61,0.55,0.44,0.55,0.29,0.29,0.48,0.44,0.33,0.29,0.55,0.58,0.55,0.5,0.58,0.61,0.55,0.5,0.58,0.5,0.29,0.56,0.42,0.29,0.42,0.55,0.55,0.33,0.55,0.83,0.48,0.5,0.33,0.58,0.48,0.4,0.25,0.55,0.56,0.48,0.44,0.33,0.55,0.4,0.25,0.55,0.5,0.58,0.61,0.55,0.48,0.6,0.29,0.61,0.48,0.88,0.29,0.55,0.29,0.55,0.56,0.29,0.44,0.55,0.61,0.5,0.33,0.5,0.55,0.5,0.58,0.61,0.55,0.48,0.33,0.33,0.55,0.4,0.33,0.42,0.55,0.33,0.55" style="fill:rgb(0,0,0);font-family:URWPalladioL-Roma;font-size:9.96px;stroke:none;">from the expanded collection and analysis of weather, vector, and epidemiologic data and efforts to</text>
   <text y="742.464" x="76.535,80.914,84.632,89.357,94.288,97.504,102.2848,104.714,109.694,112.13,117.871,122.802,126.018,128.888,134.273,140.013,144.945,147.83339999999998,150.29,155.015,157.885,162.609,166.988,170.204,173.922,179.307,185.047,187.918,192.3004,194.782,200.808,205.74,208.955,213.887,219.341,224.273,228.454,233.2348,235.664,238.949,244.334,248.318,250.715,253.93,259.671,264.395,268.577,273.3578,275.787,281.813,286.745,289.96,294.94,297.377,300.592,306.332,311.264,314.55080000000004,316.965,319.835,324.0182,326.492,331.424,335.803,340.182,344.907,349.089,353.27,356.141,361.595,364.465,369.2458,371.675,377.129,382.70660000000004,385.098,388.817,393.541,396.411,401.135,406.708,411.639,417.38,420.6668,423.081,427.262,430.478,435.409,440.893,445.617,451.358,456.743,459.613,465.639,470.364,474.26,478.4432,480.927,484.211,489.34,494.272,499.726,502.596" svgx:width="0.44,0.4,0.48,0.5,0.33,0.48,0.55,0.5,0.55,0.58,0.5,0.33,0.29,0.55,0.58,0.5,0.29,0.55,0.48,0.29,0.48,0.44,0.33,0.4,0.55,0.58,0.29,0.44,0.55,0.61,0.5,0.33,0.5,0.55,0.5,0.42,0.48,0.55,0.33,0.55,0.4,0.55,0.33,0.58,0.48,0.42,0.48,0.55,0.61,0.5,0.33,0.5,0.55,0.33,0.58,0.5,0.33,0.55,0.29,0.42,0.55,0.5,0.44,0.44,0.48,0.42,0.42,0.29,0.55,0.29,0.48,0.55,0.55,0.56,0.55,0.4,0.48,0.29,0.48,0.56,0.5,0.58,0.33,0.55,0.42,0.33,0.5,0.56,0.48,0.58,0.55,0.29,0.61,0.48,0.4,0.42,0.55,0.33,0.61,0.5,0.55,0.29,0.48" style="fill:rgb(0,0,0);font-family:URWPalladioL-Roma;font-size:9.96px;stroke:none;">create a national electronic database for these data that is accessible by relevant stakeholders (Table</text>
   <text y="742.464" x="509.806" svgx:width="0.5" style="fill:rgb(8,117,183);font-family:URWPalladioL-Roma;font-size:9.96px;stroke:none;">5</text>
   <text y="742.464" x="514.737,518.022" svgx:width="0.33,0.25" style="fill:rgb(0,0,0);font-family:URWPalladioL-Roma;font-size:9.96px;stroke:none;">).</text>
   <text y="755.973" x="76.226,82.455,88.369,91.327,95.5102,98.47,101.427,107.342,110.725,116.274,120.288,129.261,134.342,137.654,140.611,146.16,151.9368,154.909,159.421,164.969,171.097,174.054,180.1296,183.098,188.718,193.4988,196.41,202.538,206.846,211.714,217.7896,220.758,224.071,229.549,232.454,238.663,243.531,249.272,254.14,257.097,262.645,268.621,271.588,276.455,281.536,285.55,288.507,294.0846,296.992,305.467,310.548,314.562,320.476,323.433,329.347,334.9246,337.833,342.141,347.791,352.1,355.413,360.28,369.253,373.4362,376.387,379.771,385.319,389.303,392.168,397.818,402.686,408.2636,411.171,417.085,421.952,427.033,429.99,433.303,439.0798,442.053,446.066,449.024,453.332,458.982,463.1652,466.126,471.745,476.826,481.135,486.003,492.0786,495.047,501.174,507.281,512.83" svgx:width="0.61,0.58,0.29,0.42,0.55,0.29,0.58,0.33,0.55,0.4,0.88,0.5,0.33,0.29,0.55,0.58,0.55,0.44,0.55,0.6,0.29,0.61,0.55,0.55,0.48,0.55,0.6,0.42,0.48,0.61,0.55,0.33,0.55,0.55,0.61,0.48,0.56,0.48,0.29,0.55,0.6,0.55,0.48,0.5,0.4,0.29,0.56,0.55,0.83,0.5,0.4,0.58,0.29,0.58,0.56,0.55,0.42,0.56,0.42,0.33,0.48,0.88,0.42,0.55,0.33,0.55,0.4,0.55,0.56,0.48,0.56,0.55,0.58,0.48,0.5,0.29,0.33,0.58,0.55,0.4,0.29,0.42,0.56,0.42,0.55,0.55,0.5,0.42,0.48,0.61,0.55,0.6,0.6,0.55,0.58" style="fill:rgb(0,0,0);font-family:URWPalladioL-Roma;font-size:9.96px;stroke:none;">This information could be used to develop early warning systems for key health risks based upon</text>
   <text y="769.482" x="76.535,79.886,85.38,89.173,93.993,98.461,103.492,107.758,111.0448,113.534,116.462,122.318,125.669,131.163,135.137,144.022,149.053,152.334,155.262,160.756,166.5328,169.107,175.155,178.948,184.442,190.127,193.056,199.204,204.023,210.0986,212.667,218.231,223.80859999999998,226.321,230.115,234.935,240.529,243.457,248.951,254.807,259.839,262.7274,265.262,271.31,276.341,280.315,283.595,289.452,294.271,298.246,302.512,305.002,307.523,311.79,317.857,322.325,328.10179999999997,330.677,335.708,339.8912,342.47,345.75,351.606,356.3868,358.921,366.055,371.086,375.061,377.989,383.554,389.118,393.938,398.969,404.7458,407.32,410.711,416.568,420.834,424.114,427.042,430.323,436.39,439.671,444.4518,446.986,450.336,455.83,459.81399999999996,462.3,471.819,476.639,479.919,484.729,490.223,494.027,499.521,502.449,507.943,513.537" svgx:width="0.33,0.55,0.4,0.48,0.44,0.5,0.42,0.33,0.55,0.29,0.58,0.33,0.55,0.4,0.88,0.5,0.33,0.29,0.55,0.58,0.55,0.6,0.4,0.55,0.56,0.29,0.61,0.48,0.61,0.55,0.55,0.56,0.55,0.4,0.48,0.56,0.29,0.55,0.58,0.5,0.29,0.55,0.6,0.5,0.4,0.33,0.58,0.48,0.4,0.42,0.25,0.55,0.42,0.6,0.44,0.58,0.55,0.5,0.42,0.55,0.33,0.58,0.48,0.55,0.71,0.5,0.4,0.29,0.55,0.55,0.48,0.5,0.58,0.55,0.34,0.58,0.42,0.33,0.29,0.33,0.6,0.33,0.48,0.55,0.33,0.55,0.4,0.55,0.95,0.48,0.33,0.48,0.55,0.4,0.55,0.29,0.55,0.56,0.56" style="fill:rgb(0,0,0);font-family:URWPalladioL-Roma;font-size:9.96px;stroke:none;">forecast information provided by regional partners, such as the Caribbean Institute for Meteorology</text>
  </g>
 </g>
</svg>
