<?xml version="1.0" encoding="UTF-8"?>
<svg height="753.989" width="539.0943139200001" xmlns="http://www.w3.org/2000/svg">
 <g style="fill:none;">
  <text x="49.039,54.099,58.489,63.547999999999995,66.161,70.258,72.925,76.545,80.642,86.178,88.845,93.428,96.379,99.046,104.005,109.348,112.026,115.078,119.468,124.051,127.002,132.538,136.158,140.549,144.46200000000002,147.063,149.73,152.78199999999998,155.397,158.348,163.692,168.082,170.749,174.369,176.997,182.533,186.153,191.112,193.211,197.601,201.698,204.649,209.04,214.667,217.306,221.403,226.747,231.329,236.673,241.732,246.122,250.03500000000003,252.683,257.266,260.886,265.276,267.877,270.828" y="620.51" svg_rhmargin="275.787" style="fill:#171615;font-family:DCIJFN+AdvPSPAL-R;font-size:9.17px;font-style:NORMAL;font-weight:normal;">key circulation features if their projected changes are to</text>
  <text x="49.039,54.099,58.489,60.889,62.987,68.523,74.151,79.21,83.601,89.228,91.56,95.18,99.571,102.238,104.905,109.488,114.547,117.214,121.604" y="632.472" svg_rhmargin="123.895" style="fill:#171615;font-family:DCIJFN+AdvPSPAL-R;font-size:9.17px;font-style:NORMAL;font-weight:normal;">be judged reliable.</text>
  <text x="57.997,65.054,69.445,73.542,78.124,83.752,88.335,91.002,94.054,98.637,103.788,108.178,111.798,116.381,121.44,125.831,131.458,141.28,144.332,148.915,153.498,158.08" y="644.434" svg_rhmargin="162.663" style="fill:#171615;font-family:DCIJFN+AdvPSPAL-R;font-size:9.17px;font-style:NORMAL;font-weight:normal;">Decadal-averaged (2000</text>
  <text x="162.651" y="644.434" svg_rhmargin="167.234" style="fill:#171615;font-family:DCIJJA+AdvTTec369687+20;font-size:9.17px;font-style:NORMAL;font-weight:normal;">–</text>
  <text x="167.186,171.769,176.352,180.935,185.517,188.569,198.367,206.479,211.437,217.065,221.455,224.122,226.79,231.18,236.80700000000002,246.614,250.527,256.063,259.684,262.736,267.319,271.416" y="644.434" svg_rhmargin="275.806" style="fill:#171615;font-family:DCIJFN+AdvPSPAL-R;font-size:9.17px;font-style:NORMAL;font-weight:normal;">2009) modelled surface</text>
  <text x="49.038,53.997,58.094,62.484,67.067,72.41,78.122,82.219,84.887,88.507,92.604,98.14,100.807,105.39,108.341,111.008,115.967,121.31,126.992,131.575,136.918,142.54500000000002,148.252,152.166,156.749,159.7,164.09,166.757,169.425,172.092,175.043,179.433,182.485,188.113,192.503,196.124,198.791,203.942,208.332,213.959,219.63,224.781,229.171,231.838,236.796,240.893,243.561,246.512,249.179,253.569,257.48199999999997,263.227,267.81,271.43" y="656.396" svg_rhmargin="275.82" style="fill:#171615;font-family:DCIJFN+AdvPSPAL-R;font-size:9.17px;font-style:NORMAL;font-weight:normal;">ocean circulation and satellite-derived velocities are</text>
  <text x="49.038,52.952,58.296,63.254,70.889,76.232,79.993,82.66,88.003,91.842,96.902,99.569,104.628,106.919,110.665,115.431,120.013,122.304,126.086,133.143,137.533,141.63,146.213,151.841,156.423,159.09,162.143,166.725,171.876,176.267,179.887,184.47,189.529,193.919,199.54600000000002,203.359,208.51,213.093,215.76,221.296,225.686,229.59900000000002,233.35,238.694,243.277,248.428,252.81799999999998,256.651,261.71,266.1,270.491" y="668.358" svg_rhmargin="275.834" style="fill:#171615;font-family:DCIJFN+AdvPSPAL-R;font-size:9.17px;font-style:NORMAL;font-weight:normal;">shown in Fig. S1. Decadal-averaged values have been</text>
  <text x="49.038,53.135,58.479,63.437,67.351,71.741,77.084,81.07,84.021,88.979,92.919,95.971,100.93,105.027,110.563,114.476,118.488,123.447,128.79,132.719,138.255,142.645,146.265,150.179,152.846,156.76,159.711,164.101,169.445,172.396,176.373,180.47,183.137,186.757,190.854,196.39,199.058,203.64,206.592,209.259,214.217,219.56,223.599,226.651,231.042,235.624,238.576,244.112,247.732,252.122,256.035,259.996,262.948,268.291,272.874" y="680.263" svg_rhmargin="275.825" style="fill:#171615;font-family:DCIJFN+AdvPSPAL-R;font-size:9.17px;font-style:NORMAL;font-weight:normal;">chosen to focus on persistent circulation features that</text>
  <text x="49.038,53.621,57.242,61.632,69.958,75.301,80.26,83.211,91.615,96.574,101.633,105.547,109.644,115.179,118.8,123.19,128.817,137.14,142.199,147.258,155.622,159.536,164.879,169.838,173.458,176.41,179.462,182.413,186.803,190.424,198.535,206.873,212.024,216.607,220.227,222.894,227.477,232.536,235.204,237.871,240.538,243.489,248.548,256.933,260.847,266.383,270.48" y="692.225" svg_rhmargin="275.823" style="fill:#171615;font-family:DCIJFN+AdvPSPAL-R;font-size:9.17px;font-style:NORMAL;font-weight:normal;">are not obscured by short-term variability such</text>
  <text x="49.038,53.621,57.534,64.006,72.117,76.507,80.421,85.38,89.293,93.39,97.973,100.64,105.03,111.515,115.905,121.533,127.161,129.828,134.218,138.132,140.423,146.892,152.52,157.863,162.253,168.719,172.816,177.774,185.886,191.422,196.005,199.625,202.292,206.206,211.164,216.50699999999998,222.975,226.889,232.232,237.191,244.826,248.739,255.177,260.236,265.195,270.153" y="704.187" svg_rhmargin="275.781" style="fill:#171615;font-family:DCIJFN+AdvPSPAL-R;font-size:9.17px;font-style:NORMAL;font-weight:normal;">as mesoscale eddies. The comparison shows good</text>
  <text svg_rhmargin="275.807" x="49.038,53.621,58.681,62.301,66.691,71.082,79.193,83.583,88.927,91.878,97.795,102.855,107.245,110.196,117.831,122.221,126.612,131.95499999999998,137.821,142.78,147.839,151.753,156.143,159.763,164.914,169.305,174.93200000000002,180.851,185.434,190.777,196.404,202.281,210.393,215.351,220.979,225.369,228.036,230.703,235.094,240.721,246.616,250.529,256.065,259.686,262.738,267.32,271.417,275.80699999999996" y="82.43899999999996" style="fill:#171615;font-family:DCIJFN+AdvPSPAL-R;font-size:9.17px;font-style:NORMAL;font-weight:normal;">agreement between observed and modelled surface </text>
  <text x="299.904,304.001,306.668,310.288,314.385,319.921,322.588,327.171,330.122,332.79,337.748,343.091,346.336,349.388,353.779,358.361,361.313,366.849,370.469,374.859,378.773,381.064,384.321,391.956,394.623,397.574,402.91700000000003,406.147,410.73,413.971,418.068,423.027,426.647,430.267,434.658,437.325,441.908,444.859,447.526,452.485,457.82800000000003,461.084,465.181,470.139,474.529,477.582,483.118,487.215,489.882,494.272,499.615,502.56600000000003,505.815" y="82.43899999999996" svg_rhmargin="508.867" style="fill:#171615;font-family:DCIJFN+AdvPSPAL-R;font-size:9.17px;font-style:NORMAL;font-weight:normal;">circulation features, with a correlation coefﬁcient (</text>
  <text x="508.816" y="82.43899999999996" svg_rhmargin="512.345" style="fill:#171615;font-family:DCIJGO+Advpala-ita;font-size:9.17px;font-style:NORMAL;font-weight:normal;">r</text>
  <text x="512.387,515.439,518.68,523.639" y="82.43899999999996" svg_rhmargin="526.691" style="fill:#171615;font-family:DCIJFN+AdvPSPAL-R;font-size:9.17px;font-style:NORMAL;font-weight:normal;">) of</text>
  <text x="299.904,304.486,306.778,311.361,315.944,319.292,322.345,327.303,330.923,334.316,337.268,342.611,347.001,350.361,355.42,358.087,363.046,368.105,372.688,375.35499999999996,378.708,384.335,389.294,397.405,401.988,404.655,409.999,412.29,415.672,420.732,425.69,429.31,432.681,437.071,441.654,445.751,451.094,454.451,459.409,462.461,465.846,468.797,474.141,478.531,481.89,487.234,492.192,495.144,499.057,504.593,509.552,512.503,516.417,518.7080000000001,522.087" y="94.40099999999995" svg_rhmargin="526.67" style="fill:#171615;font-family:DCIJFN+AdvPSPAL-R;font-size:9.17px;font-style:NORMAL;font-weight:normal;">0.69 for the global domain. For each of the hotspots, a</text>
  <text x="299.904,303.524,308.107,313.45,318.51,322.9,325.302,330.261,333.31300000000005,335.677,341.213,345.795,348.747,351.698,356.088,359.709,365.052,368.96500000000003,371.337,375.92,379.54,383.93,386.304,391.263,396.322,400.236,404.626,408.246,413.397,417.788,423.415,425.819,430.402,434.315,436.704,442.332,446.722,450.636,454.733,458.353,461.02,466.08,470.47,476.09700000000004,478.431,483.491,487.881,490.548,495.507,503.141" y="106.36199999999997" svg_rhmargin="505.432" style="fill:#171615;font-family:DCIJFN+AdvPSPAL-R;font-size:9.17px;font-style:NORMAL;font-weight:normal;">range of patterns are observed as described below.</text>
  <text x="308.861,314.489,319.832,324.222,327.4,335.512,340.094,342.762,348.105,351.325,355.422,358.089,361.709,365.806,371.342,374.01,378.592,381.544,384.211,389.169,394.512,397.701,400.753,405.143,409.726,412.677,418.213,421.833,426.223,429.449,434.408,437.46000000000004,440.617,443.568,448.912,453.30199999999996,456.491,462.118,465.739,470.322,474.904,477.572,480.239,482.906,487.489,492.832,496.063,501.406,506.365,509.316,513.23,518.766,523.724" y="118.32399999999996" svg_rhmargin="526.675" style="fill:#171615;font-family:DCIJFN+AdvPSPAL-R;font-size:9.17px;font-style:NORMAL;font-weight:normal;">The main circulation feature of the Brazilian hotspot</text>
  <text x="299.904,302.571,306.48400000000004,310.222,313.174,318.517,322.907,326.663,332.291,335.911,340.494,345.077,347.744,350.411,354.103,358.2,363.736,367.356,370.977,375.367,380.71,383.662,385.953,389.706,394.28900000000004,398.041,405.675,410.066,413.979,416.931,421.321,424.941,430.284,434.041,439.1,444.059,449.595,454.938,460.566,465.149,468.769,473.82800000000003,477.525,481.622,487.158,490.778,494.398,498.789,504.132,507.083,510.804,513.755,519.098,523.681" y="130.28599999999994" svg_rhmargin="526.632" style="fill:#171615;font-family:DCIJFN+AdvPSPAL-R;font-size:9.17px;font-style:NORMAL;font-weight:normal;">is the Brazil current, a western boundary current that</text>
  <text x="299.904,305.44,310.398,318.033,321.946,325.302,329.216,334.174,339.71,342.662,348.005,355.64,360.223,363.843,369.47,372.812,377.394,381.307,384.661,390.197,394.779,398.4,401.351,404.73,409.689,412.74100000000004,416.126,419.077,424.421,428.811,432.17,436.084,441.62,446.679,449.63,453.251,458.209,463.745,466.412,470.509,475.092,477.75899999999996,481.153,486.213,491.272,494.892,499.282,502.64,507.599,510.651,513.979,516.93,522.273" y="142.24800000000005" svg_rhmargin="526.663" style="fill:#171615;font-family:DCIJFN+AdvPSPAL-R;font-size:9.17px;font-style:NORMAL;font-weight:normal;">ﬂows southward as part of the subtropical gyre of the</text>
  <text x="299.904,304.67,309.628,315.164,318.116,323.459,327.003,334.162,337.113,339.78,344.363,349.706,352.658,355.325,359.42199999999997,363.004,370.162,374.259,378.649,383.232,388.575,390.866,394.412,400.04,405.383,409.77299999999997,413.348,421.459,426.418,432.046,436.436,439.10299999999995,442.658,446.279,450.669,456.205,459.825,464.784,470.411,475.947,480.044,484.435,488.348,491.925,494.876,500.219,502.887,506.8,510.35,514.447,519.983,523.603" y="154.21000000000004" svg_rhmargin="526.655" style="fill:#171615;font-family:DCIJFN+AdvPSPAL-R;font-size:9.17px;font-style:NORMAL;font-weight:normal;">South Atlantic Ocean. The model reproduces this cur-</text>
  <text x="299.904,303.524,307.914,313.258,316.209,318.612,326.247,330.637,333.305,335.972,338.342,341.394,346.453,349.121,354.18,356.471,358.865,363.632,368.214,372.311,374.602,377.971,383.599,386.651,388.942,391.294,398.929,401.596,404.547,409.89000000000004,412.27,416.853,419.243,422.863,425.253,430.212,433.264,435.627,440.21,442.502,447.084,451.667" y="166.17200000000003" svg_rhmargin="453.958" style="fill:#171615;font-family:DCIJFN+AdvPSPAL-R;font-size:9.17px;font-style:NORMAL;font-weight:normal;">rent well (Fig. S1c, d), with a r of 0.66.</text>
  <text x="308.861,314.489,319.832,324.222,327.003,334.162,339.221,344.757,347.424,352.768,357.35,361.26300000000003,364.081,368.178,373.714,377.335,380.955,385.345,390.689,393.64,395.931,398.722,403.68,409.024,413.414,416.183,421.141,424.19300000000004,427.011,429.962,435.306,439.69599999999997,442.488,446.401,449.353,452.973,457.932,463.275,468.334,472.725,476.638,479.589,482.4,486.497,492.033,495.653,499.273,503.664,509.007,511.958,515.871,518.684,521.351" y="178.077" svg_rhmargin="526.694" style="fill:#171615;font-family:DCIJFN+AdvPSPAL-R;font-size:9.17px;font-style:NORMAL;font-weight:normal;">The Agulhas current, one of the strongest currents in</text>
  <text x="299.904,302.855,308.198,312.58799999999997,315.381,323.015,327.974,331.594,334.261,339.88800000000003,342.65,347.608,351.705,356.096,360.678,366.022,369.935,372.226,374.965,377.633,381.546,384.32,387.271,392.615,397.005,399.797,407.908,412.491,415.158,420.50100000000003,423.268,426.32,430.71,435.293,438.244,443.78,447.4,451.78999999999996,454.562,459.521,462.57300000000004,465.334,468.285,473.628,478.018,480.811,485.577,490.535,496.071,499.022,504.365,507.116,514.275,517.327,520.947,523.614" y="190.039" svg_rhmargin="526.666" style="fill:#171615;font-family:DCIJFN+AdvPSPAL-R;font-size:9.17px;font-style:NORMAL;font-weight:normal;">the world oceans, is the main feature of the South Afri-</text>
  <text x="299.904,304.001,308.583,313.92600000000004,317.138,322.482,327.44,330.392,334.305,339.841,344.8,347.751,350.042,353.252,358.88,364.223,366.891,370.80400000000003,374.002,376.669,380.582,383.81,388.39300000000003,391.577,399.212,403.602,407.516,410.467,414.857,418.478,423.821,427.011,432.07,437.029,442.565,447.908,453.536,458.119,461.739,466.798,469.984,474.081,479.617,483.237,486.858,491.248,496.592,499.543,502.753,507.711,510.76300000000003,513.978,516.929,522.272" y="202.00099999999998" svg_rhmargin="526.662" style="fill:#171615;font-family:DCIJFN+AdvPSPAL-R;font-size:9.17px;font-style:NORMAL;font-weight:normal;">can hotspot. This is a western boundary current of the</text>
  <text x="299.904,303.817,308.776,314.312,317.263,322.607,326.997,330.617,335.96000000000004,342.14,345.192,350.536,356.163,358.831,363.413,368.75600000000003,374.909,382.067,386.164,390.554,395.137,400.48,406.6,410.514,416.05,421.109,424.06,427.681,432.639,438.175,440.842,444.939,449.522,452.18899999999996,458.361,463.421,468.48,472.101,476.491,482.626,485.578,490.921,495.504,498.45500000000004,504.623,510.159,515.118,522.753" y="213.96299999999997" svg_rhmargin="526.667" style="fill:#171615;font-family:DCIJFN+AdvPSPAL-R;font-size:9.17px;font-style:NORMAL;font-weight:normal;">southern Indian Ocean subtropical gyre that ﬂows</text>
  <text x="299.904,303.817,308.776,314.312,317.263,322.607,325.659,333.294,337.684,341.598,344.54900000000004,347.867,352.449,355.117,360.075,365.419,370.478,373.719,376.67,382.014,386.404,389.706,394.097,398.679,402.593,405.54400000000004,408.869,412.966,417.924,422.507,426.421,429.372,432.623,437.581,440.63300000000004,443.962,451.12,454.172,457.792,460.46,464.556,469.139,471.43,474.746,480.373,485.332,492.967,497.55,501.17,506.798,510.711,513.978,516.929,522.273" y="225.92499999999995" svg_rhmargin="526.663" style="fill:#171615;font-family:DCIJFN+AdvPSPAL-R;font-size:9.17px;font-style:NORMAL;font-weight:normal;">south-west along the east coast of Africa. Towards the</text>
  <text x="299.904,303.817,308.776,314.312,317.263,322.607,326.997,330.617,335.96000000000004,338.625,341.576,344.244,349.78000000000003,352.515,357.473,360.52500000000003,363.173,370.331,373.383,377.004,379.671,383.768,388.351,390.642,393.334,396.001,398.952,401.668,405.582,409.972,415.508,420.091,423.711,428.294,431.245,435.636,439.54900000000004,442.205,445.257,448.877,453.836,461.947,464.655,467.607,472.95,477.34,480.02,484.117,489.075,493.658,497.572,500.523,502.814,505.475,508.142,513.101,518.059,523.595" y="237.88699999999994" svg_rhmargin="526.647" style="fill:#171615;font-family:DCIJFN+AdvPSPAL-R;font-size:9.17px;font-style:NORMAL;font-weight:normal;">southern tip of Africa, it separates from the coast, loop-</text>
  <text x="299.904,302.571,307.914,312.973,315.494,320.077,325.42,328.372,331.039,335.136,337.803,342.762,346.859,351.918,359.553,362.22,366.134,370.524,373.038,377.621,381.534,384.093,387.045,392.388,396.77799999999996,399.287,406.445,411.505,417.041,419.708,425.051,429.634,433.547,436.081,439.702,444.092,447.043,450.663,455.622,461.158,465.548,469.645,472.596,475.264,480.222,485.565,488.07,492.652,497.996,503.623,506.155,509.207,513.597,517.988,523.615" y="249.84900000000005" svg_rhmargin="526.667" style="fill:#171615;font-family:DCIJFN+AdvPSPAL-R;font-size:9.17px;font-style:NORMAL;font-weight:normal;">ing anticlockwise as the Agulhas retroﬂection and feed-</text>
  <text svg_rhmargin="474.043" x="299.904,302.571,307.914,312.973,316.855,321.915,326.497,330.594,335.653,339.533,342.2,347.543,350.495,355.45300000000003,359.318,362.269,367.613,372.003,375.873,378.925,384.268,389.896,392.563,397.146,402.48900000000003,406.374,413.532,417.629,422.019,426.602,431.945,435.855,438.907,443.297,445.589,450.648,452.939,456.775,462.403,466.793,471.376,474.04299999999995" y="261.81100000000004" style="fill:#171615;font-family:DCIJFN+AdvPSPAL-R;font-size:9.17px;font-style:NORMAL;font-weight:normal;">ing back into the Indian Ocean (e.g. Beal </text>
  <text x="477.919,481.447,484.499,487.896,491.993,494.569" y="261.81100000000004" svg_rhmargin="496.86" style="fill:#171615;font-family:DCIJGO+Advpala-ita;font-size:9.17px;font-style:NORMAL;font-weight:normal;">et al.</text>
  <text x="496.854,499.145,503.033,507.616,512.199,516.781,521.364,524.416" y="261.81100000000004" svg_rhmargin="526.707" style="fill:#171615;font-family:DCIJFN+AdvPSPAL-R;font-size:9.17px;font-style:NORMAL;font-weight:normal;">, 2011).</text>
  <text x="299.904,305.531,310.875,315.265,318.386,326.497,331.456,337.084,341.474,344.14099999999996,347.299,350.92,355.31,360.846,364.466,369.425,375.053,380.589,384.685,389.076,392.98900000000003,396.169,399.12,404.464,408.854,411.987,414.654,419.612,423.709,428.292,431.244,433.911,438.869,444.21200000000005,447.364,451.947,457.29,462.91700000000003,466.072,469.986,472.937,476.558,480.948,486.292,491.351,494.302,499.64500000000004,502.81,507.768,510.82,513.978,516.929,522.273" y="273.716" svg_rhmargin="526.663" style="fill:#171615;font-family:DCIJFN+AdvPSPAL-R;font-size:9.17px;font-style:NORMAL;font-weight:normal;">The model reproduces the location and strength of the</text>
  <text x="299.904,307.062,312.121,317.657,320.324,325.668,330.251,334.164,336.868,340.489,344.879,347.83,351.45,356.409,361.945,366.335,370.432,373.384,376.051,381.009,386.35200000000003,389.083,396.718,401.108,403.775,406.44199999999995,409.153,412.205,419.84,422.507,425.458,430.80100000000004,433.474,438.057,440.788,444.408,447.081,452.039,455.091,457.796,462.379,464.67,469.253,473.836,476.888,479.179,481.891,486.474,489.141,492.092,497.436,502.395,507.93,512.99,518.333,521.066,523.734" y="285.678" svg_rhmargin="526.685" style="fill:#171615;font-family:DCIJFN+AdvPSPAL-R;font-size:9.17px;font-style:NORMAL;font-weight:normal;">Agulhas retroﬂection well (with a r of 0.68), although it</text>
  <text x="299.904,302.571,306.48400000000004,309.201,314.545,319.127,322.748,326.368,331.327,338.962,343.352,346.972,349.737,352.405,357.748,360.509,363.46,368.803,373.193,375.93,384.041,389.0,394.627,399.018,401.68499999999995,404.446,412.081,414.748,417.7,423.043,425.763,431.299,436.643,442.27,446.661,450.281,454.671,458.585,461.536,464.204,472.315,476.898,479.849,484.239,489.866,492.606,497.757,502.339,505.96,508.627,513.21,518.269,520.936,523.603" y="297.639" svg_rhmargin="526.655" style="fill:#171615;font-family:DCIJFN+AdvPSPAL-R;font-size:9.17px;font-style:NORMAL;font-weight:normal;">is narrower in the model with underestimated variabil-</text>
  <text x="299.904,302.571,305.522,310.581,314.247,318.83,321.781,325.415,328.082,331.033,334.946,338.624,344.16,348.551,352.171,354.838,360.374,365.717,370.108,373.728,378.78700000000003,382.391,388.019,393.555,397.945,401.611,404.562,409.52000000000004,413.176,421.287,426.246,431.873,436.263,438.92999999999995,442.6,446.22,450.61,454.524,459.482,462.15,467.686,470.637,473.304,478.263,483.606,487.274,492.618,497.576,500.52700000000004,504.169,509.228,513.618,516.286,521.629" y="309.601" svg_rhmargin="526.688" style="fill:#171615;font-family:DCIJFN+AdvPSPAL-R;font-size:9.17px;font-style:NORMAL;font-weight:normal;">ity at its periphery due to model resolution not being</text>
  <text x="299.904,302.956,308.492,311.159,313.826,318.88500000000005,322.807,327.198,332.825,338.453,343.512,346.564,350.185,354.575,358.489,363.447,366.114,371.265,373.933,379.276,384.33500000000004,388.289,391.341,395.254,399.645,404.03499999999997,408.018,415.076,417.743,421.656,425.753,431.289,435.203,439.117,441.784,446.742,452.086,455.138,457.429,461.367,468.525,473.868,477.808,480.759,486.103,490.493,494.419,502.054,506.444,510.357,513.309,517.699,521.319" y="321.563" svg_rhmargin="526.662" style="fill:#171615;font-family:DCIJFN+AdvPSPAL-R;font-size:9.17px;font-style:NORMAL;font-weight:normal;">fully eddy-resolving (see Discussion). On the western</text>
  <text x="299.904,304.001,308.959,313.542,317.456,320.40700000000004,324.055,329.013,332.065,335.733,342.892,345.944,349.564,352.231,356.328,360.911,363.202,366.859,369.81,375.153,379.543,383.186,391.298,396.256,401.884,406.274,408.941,412.61,416.707,419.374,423.765,428.347,431.968,434.635,439.694,443.338,447.252,452.596,457.554,465.189,469.10200000000003,472.762,475.714,481.057,485.447,489.09,494.717,499.108,504.451,509.511,515.047,519.437,522.104" y="333.525" svg_rhmargin="526.687" style="fill:#171615;font-family:DCIJFN+AdvPSPAL-R;font-size:9.17px;font-style:NORMAL;font-weight:normal;">coast of Africa, the model clearly shows the Benguela</text>
  <text x="299.904,306.393,311.929,315.549,319.17,323.56,328.903,331.855,334.146,337.095,341.67800000000005,344.635,349.978,354.937,358.557,361.509,366.852,374.487,379.07,382.69,388.317,391.237,396.773,401.731,409.366,412.033,417.377,422.43600000000004,425.423,430.382,434.479,438.869,443.452,448.795,451.729,455.826,461.362,464.983,468.603,472.993,478.337,481.288,484.214,487.166,492.509,497.092,500.043,503.037,506.089,511.047,514.668,522.779" y="345.487" svg_rhmargin="526.693" style="fill:#171615;font-family:DCIJFN+AdvPSPAL-R;font-size:9.17px;font-style:NORMAL;font-weight:normal;">Current, a northward ﬂowing ocean current that forms</text>
  <text x="299.904,302.855,308.198,312.58799999999997,316.911,321.301,325.884,329.798,332.749,337.139,340.76,346.103,350.417,355.953,360.911,364.531,367.483,370.15,375.108,380.451,384.773,389.731,392.783,397.075,400.027,405.37,409.76,414.084,418.85,423.808,429.344,432.296,437.639,441.92,449.079,452.03,454.697,459.28,464.623,467.575,470.242,474.339,478.658,485.816,489.913,494.303,498.886,504.22900000000004,508.535,513.595,518.654,522.274" y="357.449" svg_rhmargin="526.664" style="fill:#171615;font-family:DCIJFN+AdvPSPAL-R;font-size:9.17px;font-style:NORMAL;font-weight:normal;">the eastern portion of the South Atlantic Ocean gyre</text>
  <text x="299.904,302.956,308.015,310.682,315.742,318.033,321.447,326.213,330.796,335.186,337.477,340.837,343.889,346.941,349.23199999999997,352.629,357.212,359.879,362.83,368.174,373.132,378.668,383.728,389.071,392.541,395.493,400.836,403.503,407.416,410.796,414.893,420.429,424.05,427.67,432.06,437.404,440.355,443.792,446.459,450.372,453.826,459.362,462.983,467.941,473.001,477.583,482.643,485.31,490.369,493.795,496.747,501.705,506.663,510.066,515.409,519.992,523.613" y="369.354" svg_rhmargin="526.665" style="fill:#171615;font-family:DCIJFN+AdvPSPAL-R;font-size:9.17px;font-style:NORMAL;font-weight:normal;">(Fig. S1e, f), although this current is probably too nar-</text>
  <text x="299.904,303.524,308.483,316.117,318.499,321.45,326.408,328.817,333.876,338.26599999999996,340.609,344.706,347.374,351.764,356.347,359.967,362.634,367.69300000000004,370.09,375.718,380.108,385.644,390.988,395.378,401.005,403.369,406.037,411.38,413.801,416.752,422.095,426.485,428.881,436.039,442.62,445.672,450.438,457.596,459.949,465.577,470.159,473.111,477.694,480.076,485.612,489.232,494.19,499.818,505.354,509.451,512.402" y="381.316" svg_rhmargin="514.693" style="fill:#171615;font-family:DCIJFN+AdvPSPAL-R;font-size:9.17px;font-style:NORMAL;font-weight:normal;">row to be clearly deﬁned in the AVISO data product.</text>
  <text x="308.861,311.913,317.25600000000003,322.184,325.135,330.479,334.86899999999997,339.759,348.439,353.397,357.98,362.563,370.674,375.734,378.401,383.552,389.088,393.478,398.324,404.813,410.156,414.739,420.083,425.426,429.816,432.48299999999995,437.385,442.729,447.687,450.639,454.552,460.088,465.047,467.99800000000005,472.932,475.984,481.043,483.71,488.77,491.061,495.949,500.715,505.298,510.357,512.648,515.962,521.306,524.358" y="393.278" svg_rhmargin="526.649" style="fill:#171615;font-family:DCIJFN+AdvPSPAL-R;font-size:9.17px;font-style:NORMAL;font-weight:normal;">In the Mozambique Channel hotspot (Fig. S1g, h),</text>
  <text x="299.904,303.817,309.353,312.974,316.026,320.609,324.706,329.096,331.369,335.466,338.133,341.753,345.85,351.386,354.053,358.636,361.588,364.255,369.213,374.55600000000004,376.894,379.561,383.474,385.795,391.422,396.381,404.492,407.159,412.503,417.086,420.037,424.427,430.05400000000003,432.34,437.399,442.458,444.755,447.707,453.05,457.44,459.723,464.489,469.447,474.983,477.934,483.27700000000004,485.575,489.965,495.116,500.652,505.235,508.186,513.145,516.765,519.432,524.015" y="405.24" svg_rhmargin="526.682" style="fill:#171615;font-family:DCIJFN+AdvPSPAL-R;font-size:9.17px;font-style:NORMAL;font-weight:normal;">surface circulation is dominated by the South equatorial</text>
  <text x="299.904,304.001,309.537,313.157,316.777,321.168,326.511,329.46200000000005,334.601,337.552,342.895,347.478,350.42900000000003,355.521,358.573,362.963,367.354,372.981,376.894,381.996,384.948,390.291,394.681,399.798,405.426,410.009,413.923,416.874,422.022,430.702,435.285,440.912,445.495,450.554,455.137,459.051,463.148,467.73,471.35,476.448,480.545,486.081,489.701,493.321,497.712,503.055,506.00600000000003,511.145,515.727,521.071" y="417.201" svg_rhmargin="526.699" style="fill:#171615;font-family:DCIJFN+AdvPSPAL-R;font-size:9.17px;font-style:NORMAL;font-weight:normal;">current that feeds the East Madagascar current and</text>
  <text x="299.904,308.583,313.542,318.125,322.707,330.819,335.878,338.545,343.696,349.232,353.622,355.974,360.071,365.607,369.227,372.847,377.238,382.581,385.53200000000004,387.948,391.001,396.628,401.587,409.698,413.795,418.378,422.961,428.02000000000004,430.412,437.57,439.937,446.903,451.861,457.489,460.541,464.161,468.552,473.611,475.902,478.318,482.901,487.484,492.067,496.65,499.702,501.993,504.341,511.976,516.366,519.987,524.377" y="429.163" svg_rhmargin="526.668" style="fill:#171615;font-family:DCIJFN+AdvPSPAL-R;font-size:9.17px;font-style:NORMAL;font-weight:normal;">Mozambique current (Tomczak &amp; Godfrey, 2003). Here,</text>
  <text x="299.904,304.486,309.546,313.166,317.556,321.947,330.058,334.449,339.792,342.743,345.826,350.885,355.275,358.227,365.861,370.252,374.642,379.985,383.073,391.185,396.143,401.771,406.161,408.828,411.496,415.886,421.51300000000003,424.63,429.213,434.556,440.183,443.282,448.24,453.299,457.213,461.603,465.224,470.375,474.765,480.392,483.478,487.575,493.111,496.731,500.352,504.742,510.085,513.037,516.95,520.102,522.769" y="441.125" svg_rhmargin="526.683" style="fill:#171615;font-family:DCIJFN+AdvPSPAL-R;font-size:9.17px;font-style:NORMAL;font-weight:normal;">agreement between modelled and observed currents is</text>
  <text svg_rhmargin="487.039" x="299.904,307.539,311.929,316.512,321.571,325.961,329.581,332.843,335.794,341.137,345.72,351.06300000000005,354.273,356.94,362.283,365.554,368.506,373.849,378.239,381.485,387.021,390.641,395.032,400.183,402.85,407.808,413.344,417.257,420.546,425.89,430.848,433.8,437.713,443.249,448.208,451.159,455.073,457.364,460.629,468.264,470.931,473.882,479.225,482.456,487.03900000000004" y="453.087" style="fill:#171615;font-family:DCIJFN+AdvPSPAL-R;font-size:9.17px;font-style:NORMAL;font-weight:normal;">weaker than in the previous hotspots, with a </text>
  <text svg_rhmargin="493.807" x="490.278,493.807" y="453.087" style="fill:#171615;font-family:DCIJGO+Advpala-ita;font-size:9.17px;font-style:NORMAL;font-weight:normal;">r </text>
  <text x="497.08,502.039,505.091,508.362,512.945,515.236,519.819,524.402" y="453.087" svg_rhmargin="526.693" style="fill:#171615;font-family:DCIJFN+AdvPSPAL-R;font-size:9.17px;font-style:NORMAL;font-weight:normal;">of 0.52.</text>
  <text x="299.903,307.061,309.728,312.68,318.023,322.982,328.517,333.577,338.92,342.139,345.091,350.434,354.824,358.013,366.124,371.083,376.711,381.101,383.768,386.983,390.604,394.994,400.53,404.15,409.109,414.736,420.272,424.369,428.76,432.673,435.854,438.805,444.149,448.539,451.784,455.698,458.649,462.27,466.66,472.003,477.063,480.014,485.357,488.578,493.161,498.505,504.132,507.287,509.954,514.913,519.01,523.592" y="464.992" svg_rhmargin="526.644" style="fill:#171615;font-family:DCIJFN+AdvPSPAL-R;font-size:9.17px;font-style:NORMAL;font-weight:normal;">Although the model reproduces the strength and loca-</text>
  <text x="299.903,302.854,305.521,310.48,315.82300000000004,322.297,327.255,330.307,336.81,339.762,345.105,349.495,356.03,360.127,365.663,369.283,372.903,377.294,382.637,385.588,389.502,391.793,398.266,401.217,406.561,410.951,416.01000000000005,422.474,427.057,430.677,435.067,441.579,446.162,448.829,452.743,457.701,464.2,469.543,474.126,477.747,481.367,486.325,493.96,498.351,501.971,508.478,511.429,516.772,521.355" y="476.954" svg_rhmargin="526.698" style="fill:#171615;font-family:DCIJFN+AdvPSPAL-R;font-size:9.17px;font-style:NORMAL;font-weight:normal;">tion of the currents, they are also narrower than</text>
  <text x="299.903,304.861,309.921,313.834,318.225,321.845,326.996,331.386,337.014,339.305,342.707,347.289,352.349,356.931,359.599,364.942,368.276,373.903,379.439,383.829,387.212,390.163,395.12100000000004,398.55,403.133,408.476,411.873,414.54,419.884,423.797,429.333,432.386,437.921,442.018,444.686,449.076,454.419,457.37,460.743,463.694,467.314,471.897,477.241,481.154,484.206,488.597,492.217,495.609,500.568,503.62,507.005,512.348,517.307,520.927,523.594" y="488.916" svg_rhmargin="526.646" style="fill:#171615;font-family:DCIJFN+AdvPSPAL-R;font-size:9.17px;font-style:NORMAL;font-weight:normal;">observed, again due to an insufﬁcient transfer of hori-</text>
  <text x="299.903,304.486,309.444,314.788,317.739,322.322,324.989,329.213,333.603,338.947,343.337,346.958,352.017,357.076,361.302,366.361,371.42,375.701,383.813,388.203,392.117,397.075,400.989,405.086,409.669,412.336,416.726,420.943,425.334,430.961,436.589,439.256,443.646,447.56,449.851,454.109,459.736,465.08,467.747,471.66,475.879,478.546,482.459,486.707,491.097,495.011,500.547,504.937,509.034,511.701,516.284,518.951,521.618" y="500.878" svg_rhmargin="526.677" style="fill:#171615;font-family:DCIJFN+AdvPSPAL-R;font-size:9.17px;font-style:NORMAL;font-weight:normal;">zontal energy by mesoscale eddies. This is especially</text>
  <text x="299.903,305.439,309.059,314.018,319.361,324.32,329.856,335.199,339.296,343.686,349.313,351.664,354.331,359.67400000000004,362.038,364.99,370.333,374.723,377.063,385.742,390.701,395.284,399.866,407.978,413.037,415.704,420.855,426.391,430.781,433.132,439.622,444.965,449.548,454.891,460.235,464.625,467.292,469.643,477.278,482.622,485.289,489.386,494.72900000000004,497.026,499.693,503.606,505.984,510.081,515.424,520.007,523.627" y="512.8399999999999" svg_rhmargin="526.679" style="fill:#171615;font-family:DCIJFN+AdvPSPAL-R;font-size:9.17px;font-style:NORMAL;font-weight:normal;">pronounced in the Mozambique Channel which is char-</text>
  <text x="299.903,304.486,308.583,311.534,315.924,319.544,322.212,326.794,331.185,336.812,339.815,344.874,349.93300000000005,352.911,355.963,359.583,363.973,369.124,374.66,379.051,384.394,387.345,390.329,395.287,399.384,403.481,409.017,412.638,416.258,420.648,425.992,430.089,434.479,437.498,442.457,445.509,448.497,453.079,458.423,461.374,464.041,468.138,473.198,477.295,479.962,484.92,490.264,492.931,497.02799999999996,500.032,504.422,510.049,515.677,518.344,522.735" y="524.802" svg_rhmargin="526.649" style="fill:#171615;font-family:DCIJFN+AdvPSPAL-R;font-size:9.17px;font-style:NORMAL;font-weight:normal;">acterized by frequent occurrence of anticyclonic eddies</text>
  <text x="299.903,304.486,307.153,312.111,317.455,322.514,325.869,328.82,334.163,338.553,341.97,349.605,353.995,357.909,360.86,365.25,368.87,374.213,377.573,383.109,387.692,393.035,398.09400000000005,401.498,406.456,409.50800000000004,412.893,415.845,421.188,425.578,428.937,433.034,438.378,442.961,448.304,453.648,458.038,460.705,464.087,467.139,471.53,473.821,478.88,481.171,484.554,491.712,497.248,501.831,505.451,508.402,511.07,516.129,519.534" y="536.7629999999999" svg_rhmargin="526.692" style="fill:#171615;font-family:DCIJFN+AdvPSPAL-R;font-size:9.17px;font-style:NORMAL;font-weight:normal;">along the western ﬂank of the channel (e.g. Quartly &amp;</text>
  <text x="299.903,304.669,308.289,313.248,318.307,323.266,327.179,331.762,334.053,336.414,340.996,345.579,350.162,354.745,357.797,360.168,367.803,373.146,375.813,379.91,385.25300000000004,387.664,390.616,395.959,400.349,402.744,410.856,415.814,421.442,425.832,428.49899999999997,430.864,436.4,441.744,447.371,451.761,455.382,458.434,462.054,466.445,471.981,475.601,479.991,483.905,488.295,493.639,496.59,500.504" y="548.725" svg_rhmargin="502.795" style="fill:#171615;font-family:DCIJFN+AdvPSPAL-R;font-size:9.17px;font-style:NORMAL;font-weight:normal;">Srokosz, 2004) which the model under-represents.</text>
  <text x="308.86,315.349,318.017,321.637,325.734,331.27,333.937,338.52,341.471,344.138,349.097,354.44,356.88,361.839,364.891,367.255,370.206,375.549,379.93899999999996,382.391,387.735,392.693,396.314,399.265,404.608,408.999,412.619,417.96200000000005,420.376,423.428,428.771,434.399,437.066,441.649,446.992,449.346,456.504,460.601,464.992,469.575,474.918,477.353,480.02,483.933,486.311,490.408,495.751,500.334,503.954,508.537,512.634,515.585,519.976,523.596" y="560.63" svg_rhmargin="526.648" style="fill:#171615;font-family:DCIJFN+AdvPSPAL-R;font-size:9.17px;font-style:NORMAL;font-weight:normal;">Circulation of the northern Indian Ocean is character-</text>
  <text x="299.903,302.57,307.153,311.543,317.17,320.539,325.598,330.65700000000004,334.031,336.983,342.326,346.716,350.133,354.046,358.436,363.019,366.933,371.891,377.235,381.818,384.485,387.152,392.211,395.544,400.695,405.278,408.898,413.957,416.625,421.968,427.02700000000004,430.41,434.324,439.86,443.48,446.533,451.115,455.212,459.602,463.009,467.106,472.642,476.263,479.883,484.273,489.617,492.568,496.481,499.86,505.488,509.108,511.775,516.926,521.317" y="572.592" svg_rhmargin="526.66" style="fill:#171615;font-family:DCIJFN+AdvPSPAL-R;font-size:9.17px;font-style:NORMAL;font-weight:normal;">ized by the seasonally varying surface currents driven</text>
  <text x="299.903,304.962,310.021,312.489,315.44,320.784,325.174,327.626,330.678,336.021,341.649,344.316,348.899,354.242,356.653,364.764,369.723,375.066,378.98,383.939,388.897,394.241,396.532,399.003,402.055,407.398,409.831,415.367,419.95,423.57,426.521,429.189,433.286,438.822,441.489,446.071,449.692,451.983,454.449,457.116,462.459,464.937,472.572,475.239,480.582,483.534,487.924,491.544,493.835,496.288,499.24,504.583,508.973,511.425,517.053,521.636" y="584.554" svg_rhmargin="526.695" style="fill:#171615;font-family:DCIJFN+AdvPSPAL-R;font-size:9.17px;font-style:NORMAL;font-weight:normal;">by the Indian monsoon. In particular, in winter, the Bay</text>
  <text x="299.903,304.861,307.913,311.128,316.755,321.146,326.489,331.549,336.131,338.79799999999994,341.969,344.636,348.54900000000004,351.72,355.817,361.16,365.743,369.364,373.946,378.043,380.995,385.385,389.005,391.672,396.255,400.646,406.273,409.491,414.551,419.61,422.814,426.728,429.679,433.299,438.258,443.601,448.66,451.841,456.424,461.767,464.719,467.386,471.483,476.542,480.639,483.306,488.265,493.608,496.276,500.373,503.603,507.699,510.367,513.987,518.084,523.62" y="596.516" svg_rhmargin="526.672" style="fill:#171615;font-family:DCIJFN+AdvPSPAL-R;font-size:9.17px;font-style:NORMAL;font-weight:normal;">of Bengal is characterized by strong anticyclonic circu-</text>
  <text x="299.903,302.57,307.153,310.104,312.771,317.73,323.07300000000004,328.25,331.201,336.737,340.357,345.701,348.368,353.712,358.771,363.967,366.634,371.978,374.929,379.887,385.113,389.696,394.865,402.5,406.89,411.473,416.53200000000004,421.737,425.834,430.893,434.99,437.658,442.616,447.96,450.627,454.724,459.892,464.851,470.194,474.584,479.791,482.458,487.80100000000004,493.001,496.914,502.45,510.562,518.673,523.063" y="608.4780000000001" svg_rhmargin="526.683" style="fill:#171615;font-family:DCIJFN+AdvPSPAL-R;font-size:9.17px;font-style:NORMAL;font-weight:normal;">lation turning into a weak cyclonic one in summer</text>
  <text svg_rhmargin="337.106" x="299.903,302.955,308.491,313.449,316.401,320.791,328.902,332.523,337.10600000000005" y="620.44" style="fill:#171615;font-family:DCIJFN+AdvPSPAL-R;font-size:9.17px;font-style:NORMAL;font-weight:normal;">(Potemra </text>
  <text x="339.588,343.116,346.168,349.565,353.662,356.238" y="620.44" svg_rhmargin="358.529" style="fill:#171615;font-family:DCIJGO+Advpala-ita;font-size:9.17px;font-style:NORMAL;font-weight:normal;">et al.</text>
  <text x="358.523,360.814,363.285,367.868,372.45,377.033,381.616,384.668,386.959,389.477,392.529,397.872,400.362,404.276,409.812,413.909,419.252,421.735,426.31800000000004,428.822,432.736,437.126,441.709,445.622,450.581,455.924,460.507,463.174,465.842,470.901,473.383,478.534,483.117,486.737,491.796,494.464,499.807,504.86600000000004,507.399,511.496,516.079,519.992,524.383" y="620.44" svg_rhmargin="526.674" style="fill:#171615;font-family:DCIJFN+AdvPSPAL-R;font-size:9.17px;font-style:NORMAL;font-weight:normal;">, 1991). In such a seasonally varying case,</text>
  <text x="299.903,304.0,308.958,317.07,322.606,327.188,330.809,333.476,337.39,342.348,347.69100000000003,350.247,355.206,358.25800000000004,360.792,363.743,369.087,373.477,376.042,380.625,385.969,391.312,396.848,401.431,404.09799999999996,406.657,414.769,419.159,423.742,429.08500000000004,431.659,435.756,438.423,442.043,446.14,451.676,454.343,458.926,461.877,464.545,469.503,474.846,477.41,480.077,483.99,486.538,489.205,493.596,497.509,501.422,503.999,506.667,512.01,515.062,520.021,523.641" y="632.402" svg_rhmargin="526.693" style="fill:#171615;font-family:DCIJFN+AdvPSPAL-R;font-size:9.17px;font-style:NORMAL;font-weight:normal;">comparison of the annual mean circulation is less infor-</text>
  <text x="299.903,308.014,312.597,315.548,318.215,323.366,327.757,330.048,334.6,339.182,344.526,350.153,354.669,357.337,362.68,367.255,372.315,374.982,380.041,382.332,386.872,391.638,396.22,398.888,401.179,405.751,407.84999999999997,412.384,415.436,420.394,424.014,428.598,431.266,433.933,436.6,442.136,446.05,449.001,452.621,457.204,460.155,462.822,467.781,473.124,475.415,479.963,487.598,491.988,496.518,502.054,505.674,510.064,513.978,518.368,523.712" y="644.364" svg_rhmargin="526.663" style="fill:#171615;font-family:DCIJFN+AdvPSPAL-R;font-size:9.17px;font-style:NORMAL;font-weight:normal;">mative, and in Fig. S1i, j for illustration, we present</text>
  <text x="299.903,306.96,311.35,315.447,319.838,327.949,333.009,337.399,341.019,344.071,348.654,353.805,358.195,361.816,366.399,371.458,375.848,381.475,387.324,391.238,396.774,400.394,403.446,408.029,412.126,416.51599999999996,422.417,426.514,429.181,432.802,436.899,442.435,445.102,449.685,452.636,455.303,460.262,465.605,471.457,474.124,479.468,483.382,486.333,490.723,495.306,500.934,503.225,509.102,514.729,520.073,522.74" y="656.269" svg_rhmargin="526.654" style="fill:#171615;font-family:DCIJFN+AdvPSPAL-R;font-size:9.17px;font-style:NORMAL;font-weight:normal;">December-averaged surface circulation instead. This</text>
  <text x="299.903,304.0,306.667,311.057,315.64,319.26,321.928,326.987,330.461,334.374,339.718,344.676,352.311,356.224,359.714,362.665,368.009,372.399,375.872,383.507,387.897,391.811,394.762,399.152,402.773,408.11600000000004,411.589,416.648,421.607,427.143,432.486,438.114,442.697,446.317,451.37600000000003,454.846,458.943,464.479,468.1,471.72,476.11,481.454,484.40500000000003,487.899,492.482,495.149,500.108,505.451,510.51000000000005,513.978,516.929,522.273" y="668.231" svg_rhmargin="526.663" style="fill:#171615;font-family:DCIJFN+AdvPSPAL-R;font-size:9.17px;font-style:NORMAL;font-weight:normal;">clearly shows the western boundary current along the</text>
  <text x="299.903,304.293,308.876,312.789,315.741,320.131,323.751,329.094,332.162,336.259,341.217,345.8,349.714,352.665,355.746,360.705,363.757,366.859,369.911,375.254,380.882,383.549,388.132,391.18,396.24,401.198,404.149,409.492,412.553,415.22,420.56300000000005,423.665,426.616,431.959,436.349,439.426,447.537,452.496,458.123,462.513,465.17999999999995,468.226,472.809,478.153,483.78000000000003,486.878,489.545,494.88800000000003,497.934,505.092,511.673,514.725,519.491" y="680.193" svg_rhmargin="526.649" style="fill:#171615;font-family:DCIJFN+AdvPSPAL-R;font-size:9.17px;font-style:NORMAL;font-weight:normal;">eastern coast of India both in the model and in AVISO</text>
  <text x="299.903" y="692.154" svg_rhmargin="302.955" style="fill:#171615;font-family:DCIJFN+AdvPSPAL-R;font-size:9.17px;font-style:NORMAL;font-weight:normal;">(</text>
  <text svg_rhmargin="306.493" x="302.964,306.493" y="692.154" style="fill:#171615;font-family:DCIJGO+Advpala-ita;font-size:9.17px;font-style:NORMAL;font-weight:normal;">r </text>
  <text x="308.86,311.912,316.871,320.491,322.863,325.815,331.158,333.825,337.738,340.155,348.266,353.225,358.568,361.52,366.863,369.239,371.906,375.819,378.196,382.779,385.07,389.653,394.236,397.288" y="692.154" svg_rhmargin="399.579" style="fill:#171615;font-family:DCIJFN+AdvPSPAL-R;font-size:9.17px;font-style:NORMAL;font-weight:normal;">for this month is 0.62).</text>
  <text x="308.86,314.488,319.831,324.221,326.662,332.29,336.873,340.786,343.737,346.165,353.323,358.859,362.773,365.724,369.344,373.927,376.594,379.261,383.844,389.187,391.576,396.92,401.878,404.829,408.743,414.279,419.238,422.189,424.629,427.681,432.74,435.407,440.467,442.758,445.209,449.975,454.558,459.617,461.908,465.279,467.946,470.99800000000005,473.386,476.053,479.966,482.4,488.028,492.986,501.098,503.765,509.108,513.691,516.642,521.032" y="704.116" svg_rhmargin="526.66" style="fill:#171615;font-family:DCIJFN+AdvPSPAL-R;font-size:9.17px;font-style:NORMAL;font-weight:normal;">The East Australian hotspot (Fig. S1k, l) is dominated</text>
  <text x="299.903,304.962,310.021,319.008,321.96,327.303,331.693,340.665,346.293,350.876,354.79,357.74100000000004,366.744,373.902,379.438,383.352,386.303,389.924,394.506,397.174,399.841,404.42400000000004,413.403,417.5,423.036,426.656,430.277,434.667,440.01,442.962,445.253,454.279,458.862,464.205,469.164,472.115,477.459,481.849,485.469,494.419,502.053,506.444,510.357,513.309,517.699,521.319" y="716.078" svg_rhmargin="526.662" style="fill:#171615;font-family:DCIJFN+AdvPSPAL-R;font-size:9.17px;font-style:NORMAL;font-weight:normal;">by the East Australia current, another western</text>
  <path d=" M 49.03900146484375 205.4550018310547 L 275.8110046386719 205.4550018310547 L 275.8110046386719 723.7410278320312 L 49.03900146484375 723.7410278320312 Z " style="fill:none;stroke:#000000;stroke-width:1.0;"/>
  <path d="M49.605 76.257 L275.243 76.257 L275.243 468.459 L49.605 468.459 " style="fill:none;stroke:#000000;stroke-width:1.0;"/>
  <rect style="stroke:blue;stroke-width:0.3;" x="49.631" y="76.23" height="392.318" width="225.719" title="5"/>
  <text x="49.631" y="76.23" class="image" id="image.5.1" width="225" height="392">image.5.1.50_275.76_469</text>
  <text svg_rhmargin="69.352" x="49.039,53.439,56.093,60.492,62.485,65.367,69.352" y="484.334" style="fill:#171615;font-family:DCIJFM+AdvPSPAL-B;font-size:7.97px;font-style:NORMAL;font-weight:normal;">Fig. 1 </text>
  <text x="73.814,76.468,80.453,83.107,85.153,91.377,95.856,99.674,102.822,105.141,109.126,113.94,115.938,118.257,122.90400000000001,124.895,129.207,132.77,136.332,141.146,144.294,147.442,151.26,155.906,159.469,163.287,165.262,169.574,172.228,174.276,178.922,183.234,185.801,189.204,194.017,198.329,200.896,204.29899999999998,206.309,210.708,214.693,218.096,221.914,226.808,228.76,233.072,237.719,239.758,242.325,246.971,250.78900000000002,252.798,257.444,259.764,263.167,265.733,270.045,273.193" y="484.334" svg_rhmargin="275.847" style="fill:#171615;font-family:DCIJFN+AdvPSPAL-R;font-size:7.97px;font-style:NORMAL;font-weight:normal;">(a) Overlap in occurrence of hotspots based on the histor-</text>
  <text x="49.039,51.359,54.921,58.906,61.225,66.387,69.041,73.026,77.011,80.996" y="495.332" svg_rhmargin="84.981" style="fill:#171615;font-family:DCIJFN+AdvPSPAL-R;font-size:7.97px;font-style:NORMAL;font-weight:normal;">ical (1950</text>
  <text x="84.926" y="495.332" svg_rhmargin="88.911" style="fill:#171615;font-family:DCIJJA+AdvTTec369687+20;font-size:7.97px;font-style:NORMAL;font-weight:normal;">–</text>
  <text x="88.894,92.879,96.864,100.849,104.834,107.488,112.593,114.912,117.231,121.878,125.695,129.68,132.828,137.935,142.079,146.224,151.118,156.304,158.87,162.018,165.836,170.482,175.376,180.512,183.166,186.315,190.626,197.679,202.793,206.778,210.763,215.889,222.943,227.254,232.148,235.965,238.285,241.688,246.788,251.602,255.005,258.822,263.716,268.841,271.161" y="495.332" svg_rhmargin="275.807" style="fill:#171615;font-family:DCIJFN+AdvPSPAL-R;font-size:7.97px;font-style:NORMAL;font-weight:normal;">1999) linear SST trend from 23 models used in</text>
  <text x="49.039,54.682,62.23,64.884,69.697,73.682,75.675,78.067,82.96,87.607,91.425,93.884,97.447,101.759,104.078,108.39,113.203,116.351,118.83,123.23,127.215,130.363,132.777,135.925,139.742,144.556,147.704,151.522,154.925,158.743,163.389,165.955,169.358,171.782,174.349,178.995,182.81300000000002,185.275,189.922,194.736,201.789,206.188,210.006,213.154,215.55,219.861,222.515,224.961,232.014,236.326,241.219,245.037,247.356,250.759,253.194,259.833,262.152,264.718,269.365,271.846" y="506.274" svg_rhmargin="275.831" style="fill:#171615;font-family:DCIJFN+AdvPSPAL-R;font-size:7.97px;font-style:NORMAL;font-weight:normal;">CMIP5. The colour bar represents the number of models with a</text>
  <text x="49.039,53.686,57.998,60.564,63.967,68.781,73.093,75.659,78.577,82.562,85.128,88.045,90.611,95.258,99.076,101.991,106.805,109.124,113.269,117.086,119.405,122.288,124.607,128.919,132.481,136.466,139.032,141.352,145.663,150.31,152.303,155.227,161.866,166.178,168.744,172.147,176.961,181.273,183.839,187.242,190.094,194.079,197.227,201.04500000000002,203.984,206.303,211.197,215.014,219.661,222.227,224.546,229.36,233.178,238.072,240.948,244.933,248.33599999999998,251.267,255.252,259.237,265.956,268.842,273.154" y="517.216" svg_rhmargin="275.808" style="fill:#171615;font-family:DCIJFN+AdvPSPAL-R;font-size:7.97px;font-style:NORMAL;font-weight:normal;">hotspot at the pixel location. Hotspots are identiﬁed as 10% of</text>
  <text x="49.039,51.606,56.252,60.07,62.589,65.243,69.228,72.631,75.197,79.015,82.418,84.98400000000001,87.477,94.116,98.101,101.249,108.303,110.622,115.268,119.667,122.118,126.103,129.251,133.068,137.053,140.457,142.45,144.909,147.563,151.962,154.61599999999999,157.154,159.721,164.367,168.185,170.704,174.107,178.092,185.145,188.96300000000002,191.397,195.382,198.785,201.319,203.973,207.958,210.612,213.111,217.51,222.324,224.89000000000001,227.398,230.052,234.364,237.512,240.04,244.025,248.01,251.995" y="528.2149999999999" svg_rhmargin="255.98" style="fill:#171615;font-family:DCIJFN+AdvPSPAL-R;font-size:7.97px;font-style:NORMAL;font-weight:normal;">the fastest warming areas. (b) the same as (a) but for 2000</text>
  <text x="255.912" y="528.2149999999999" svg_rhmargin="259.897" style="fill:#171615;font-family:DCIJJA+AdvTTec369687+20;font-size:7.97px;font-style:NORMAL;font-weight:normal;">–</text>
  <text x="259.88,263.865,267.85,271.835" y="528.2149999999999" svg_rhmargin="275.82" style="fill:#171615;font-family:DCIJFN+AdvPSPAL-R;font-size:7.97px;font-style:NORMAL;font-weight:normal;">2049</text>
  <text x="49.039,53.852,57.67,60.818,63.137,67.449,72.343,74.494,79.308,83.955,88.848,92.666,95.814,97.966,103.274,108.916,113.73,117.715,119.708,123.693,125.803,129.206,132.769,136.586,141.233,145.218,148.366,150.685,154.997,156.99,159.14,161.794,165.356,168.01,170.138,174.282,178.427,183.321,185.502,187.822,190.141,194.787,198.605,202.59,205.738,207.896,210.463,213.611,217.428,222.075,226.969,229.157,231.476,236.123,238.285,244.924,249.817,257.365,263.59000000000003,265.724,268.378,272.69" y="539.1569999999999" svg_rhmargin="275.838" style="fill:#171615;font-family:DCIJFN+AdvPSPAL-R;font-size:7.97px;font-style:NORMAL;font-weight:normal;">period under RCP8.5 scenario; (c) SST linear trend in NEMO for</text>
  <text x="49.039,53.024,57.008,60.993" y="550.098" svg_rhmargin="64.978" style="fill:#171615;font-family:DCIJFN+AdvPSPAL-R;font-size:7.97px;font-style:NORMAL;font-weight:normal;">2000</text>
  <text x="64.912" y="550.098" svg_rhmargin="68.897" style="fill:#171615;font-family:DCIJJA+AdvTTec369687+20;font-size:7.97px;font-style:NORMAL;font-weight:normal;">–</text>
  <text x="68.88,72.865,76.85,80.835,84.82,87.476" y="550.098" svg_rhmargin="90.13" style="fill:#171615;font-family:DCIJFN+AdvPSPAL-R;font-size:7.97px;font-style:NORMAL;font-weight:normal;">2049 (</text>
  <text x="90.14" y="550.098" svg_rhmargin="93.288" style="fill:#171615;font-family:DCIJHP+AdvTTec369687;font-size:7.97px;font-style:NORMAL;font-weight:normal;">°</text>
  <text x="93.258,98.901,101.592,106.406,110.224,113.372,115.992,119.977,123.962,126.877,131.277,134.425,137.079,139.072,141.731,146.624,148.944,152.929,156.491,160.89000000000001,163.502,167.064,171.376,176.022,178.589,182.9,187.714,190.862,194.265,196.895,201.206,205.85299999999998,208.517,211.92,216.734,221.134,225.947,228.267,232.578,235.145,238.548,241.173,245.158,247.15099999999998,249.79,254.189,256.877,260.28,264.927,269.238" y="550.098" svg_rhmargin="275.877" style="fill:#171615;font-family:DCIJFN+AdvPSPAL-R;font-size:7.97px;font-style:NORMAL;font-weight:normal;">C per 50 yr). Black contours on subplots a, b show</text>
  <text x="49.038,53.684,57.996,60.562,63.965,68.779,73.091,75.657,79.06,81.184,83.503,88.396,92.214,96.86,99.427,101.746,106.56,110.377,115.271,117.354,119.673,124.32000000000001,126.482,129.048,133.695,137.513,139.691,143.095,147.08,154.133,157.95100000000002,160.102,166.74,170.725,175.124,177.223,181.623,186.022,188.165,194.804,199.618,203.603,207.58800000000002,209.709,214.02,218.667,220.82,223.387,228.033,231.851,234.03,238.429,242.414,245.817,248.136,251.539,253.703,258.014,260.668,262.83,267.477,269.796,273.199" y="561.097" svg_rhmargin="275.853" style="fill:#171615;font-family:DCIJFN+AdvPSPAL-R;font-size:7.97px;font-style:NORMAL;font-weight:normal;">hotspots identiﬁed in the same way by HP14 on the basis of his-</text>
  <text x="49.038,51.604,55.916,59.064,61.383,64.946,68.931,71.25,73.756,78.068,82.468,85.871,89.688,92.836,97.315,101.197,103.763,106.082,110.394,115.041,118.444,120.437,122.911,127.804,130.124,134.109,137.671,142.07,144.568,148.131,152.442,157.089,159.655,163.967,168.781,171.929,175.332,177.791,182.102,186.749,189.243,192.646,197.46,201.859,206.673,208.992,213.304,215.87,218.326,221.88899999999998,224.392,227.796,232.442,236.754,243.393,245.823,250.469,254.781,257.347,260.75,265.564,269.876,272.442" y="572.039" svg_rhmargin="275.845" style="fill:#171615;font-family:DCIJFN+AdvPSPAL-R;font-size:7.97px;font-style:NORMAL;font-weight:normal;">torical observations. Black contours on subplot c show hotspots</text>
  <text x="49.038,51.357,56.251,60.068,64.715,67.281,69.6,74.414,78.232,83.126,85.719,88.039,92.686,95.357,97.924,102.57,106.38799999999999,109.02,112.423,116.408,123.462,127.28,129.884,136.523,140.508,144.907,147.516,151.915,156.314,158.967,165.606,170.42,174.405,178.39000000000001,180.964,185.276,189.923,192.587,195.153,199.8,203.61800000000002,206.251,210.65,214.635,218.038,220.357,223.76,226.377,230.689,233.343,235.958,242.597,247.491,255.038,261.26300000000003,263.852,266.171,268.491,273.137" y="582.981" svg_rhmargin="275.791" style="fill:#171615;font-family:DCIJFN+AdvPSPAL-R;font-size:7.97px;font-style:NORMAL;font-weight:normal;">identiﬁed in the same way by HP14 on the basis of NEMO lin-</text>
  <text x="49.038,52.855,56.84,59.98800000000001,62.021,64.587,67.735,71.553,76.199,81.093,83.167,85.821,90.133,93.28099999999999,95.3,99.285,103.27,107.255" y="593.923" svg_rhmargin="111.24" style="fill:#171615;font-family:DCIJFN+AdvPSPAL-R;font-size:7.97px;font-style:NORMAL;font-weight:normal;">ear trend for 2000</text>
  <text x="111.23" y="593.923" svg_rhmargin="115.215" style="fill:#171615;font-family:DCIJJA+AdvTTec369687+20;font-size:7.97px;font-style:NORMAL;font-weight:normal;">–</text>
  <text svg_rhmargin="133.13" x="115.198,119.183,123.168,127.153,131.138,133.131" y="743.989" style="fill:#171615;font-family:DCIJFN+AdvPSPAL-R;font-size:7.97px;font-style:NORMAL;font-weight:normal;">2049. </text>
  <text svg_rhmargin="199.922" x="193.945,199.923" y="743.989" style="fill:#171615;font-family:DCIJHP+AdvTTec369687;font-size:7.97px;font-style:NORMAL;font-weight:normal;">© </text>
  <text svg_rhmargin="266.438" x="201.939,205.924,209.909,213.894,217.87900000000002,219.911,224.804,229.451,233.269,235.332,241.556,246.37,248.936,253.583,257.895,261.043,264.446,266.439" y="743.989" style="fill:#171615;font-family:DCIJFN+AdvPSPAL-R;font-size:7.97px;font-style:NORMAL;font-weight:normal;">2016 The Authors. </text>
  <text svg_rhmargin="342.288" x="268.44,274.162,276.401,279.964,283.614,287.177,289.41700000000003,291.457,296.765,300.75,304.313,308.712,312.697,315.765,317.82,322.714,324.953,328.516,330.755,334.318,338.303,342.288" y="743.989" style="fill:#171615;font-family:DCIJGO+Advpala-ita;font-size:7.97px;font-style:NORMAL;font-weight:normal;">Global Change Biology </text>
  <text svg_rhmargin="476.856" x="344.295,349.108,353.922,358.322,360.641,362.96,366.363,371.01,374.827,379.721,381.713,386.112,390.511,392.541,395.195,399.507,404.153,408.8,410.854,418.824,421.143,423.462,427.28,431.679,433.702,439.927,441.979,446.124,450.435,455.082,458.485,460.518,465.412,467.978,472.871,474.864,476.85699999999997" y="743.989" style="fill:#171615;font-family:DCIJFN+AdvPSPAL-R;font-size:7.97px;font-style:NORMAL;font-weight:normal;">Published by John Wiley &amp; Sons Ltd., </text>
  <text x="478.884,482.869" y="743.989" svg_rhmargin="486.854" style="fill:#171615;font-family:DCIJFM+AdvPSPAL-B;font-size:7.97px;font-style:NORMAL;font-weight:normal;">22</text>
  <text x="486.878,488.871,490.903,494.888,498.872,502.857,506.842,510.827,514.812,518.797,522.782" y="743.989" svg_rhmargin="526.767" style="fill:#171615;font-family:DCIJFN+AdvPSPAL-R;font-size:7.97px;font-style:NORMAL;font-weight:normal;">, 2038–2053</text>
  <text svg_rhmargin="67.968" x="49.039,53.772,58.504,63.236,67.968" y="58.57000000000005" style="fill:#171615;font-family:DCIJFM+AdvPSPAL-B;font-size:9.46px;font-style:NORMAL;font-weight:normal;">2042 </text>
  <text svg_rhmargin="134.774" x="76.025,82.933,85.299,88.886,95.699,104.188,111.001,119.49,127.382,134.773" y="58.57000000000005" style="fill:#171615;font-family:DCIJFN+AdvPSPAL-R;font-size:9.46px;font-style:NORMAL;font-weight:normal;">E. POPOVA </text>
  <text x="138.387,142.031,145.183,147.628,151.859,154.518" y="58.57000000000005" svg_rhmargin="156.884" style="fill:#171615;font-family:DCIJGO+Advpala-ita;font-size:9.46px;font-style:NORMAL;font-weight:normal;">et al.</text>
 </g>
</svg>
