<?xml version="1.0" encoding="UTF-8"?>
<svg height="753.988" width="557.9371108896611" xmlns="http://www.w3.org/2000/svg">
 <g style="fill:none;">
  <text svg_rhmargin="164.062" x="68.598,71.266,76.609,80.706,84.326,88.717,93.299,97.213,101.603,105.517,107.80799999999999,110.325,112.992,118.33500000000001,120.927,125.317,130.083,134.18,138.571,142.484,146.39700000000002,148.934,153.893,156.945,159.479,164.062" y="82.43799999999999" style="fill:#171615;font-family:DCIJFN+AdvPSPAL-R;font-size:9.17px;font-style:NORMAL;font-weight:normal;">increases, in excess of 4 </text>
  <text x="167.413" y="82.43799999999999" svg_rhmargin="171.033" style="fill:#171615;font-family:DCIJHP+AdvTTec369687;font-size:9.17px;font-style:NORMAL;font-weight:normal;">°</text>
  <text x="171.042,177.531,179.822,182.381,188.008,193.352,197.742,200.239,205.582,210.541,213.492,217.406,222.942,227.9,230.851,233.404,238.363,241.415,243.949,248.339,252.922,256.836,259.787,264.177,267.798,273.141,275.697,282.856,288.392,292.305" y="82.43799999999999" svg_rhmargin="295.357" style="fill:#171615;font-family:DCIJFN+AdvPSPAL-R;font-size:9.17px;font-style:NORMAL;font-weight:normal;">C. The hotspot of eastern Aus-</text>
  <text x="68.598,71.55,75.17,79.753,82.42,85.087,89.67,103.182,108.525,113.108,117.021,130.451,133.402,138.746,143.136,156.643,160.557,163.508,167.128,172.087,177.43,182.49,186.88,190.794,193.745,207.214,212.273,216.856,220.77,225.16,227.827,230.494,235.838,240.22799999999998,253.702,258.853,263.436,267.056,269.723,274.306,279.366,282.033,284.7,287.367,290.318" y="94.39999999999998" svg_rhmargin="295.377" style="fill:#171615;font-family:DCIJFN+AdvPSPAL-R;font-size:9.17px;font-style:NORMAL;font-weight:normal;">tralia has the strongest baseline variability</text>
  <text svg_rhmargin="87.69" x="68.598,71.65,76.233,80.816,83.107,87.69" y="106.36199999999997" style="fill:#171615;font-family:DCIJFN+AdvPSPAL-R;font-size:9.17px;font-style:NORMAL;font-weight:normal;">(17.4 </text>
  <text svg_rhmargin="98.105" x="91.048,98.105" y="106.36199999999997" style="fill:#171615;font-family:DCIJLB+AdvP4C4E74;font-size:9.17px;font-style:NORMAL;font-weight:normal;">? </text>
  <text svg_rhmargin="112.937" x="101.48,106.062,108.354,112.937" y="106.36199999999997" style="fill:#171615;font-family:DCIJFN+AdvPSPAL-R;font-size:9.17px;font-style:NORMAL;font-weight:normal;">0.6 </text>
  <text x="116.276" y="106.36199999999997" svg_rhmargin="119.896" style="fill:#171615;font-family:DCIJHP+AdvTTec369687;font-size:9.17px;font-style:NORMAL;font-weight:normal;">°</text>
  <text x="119.905,126.394,128.685,136.46,141.519,144.186,149.246,151.537,154.885,159.468,164.051,167.103,169.394,177.109,184.744,190.087,192.754,195.421,199.81099999999998,207.61,210.561,215.904,220.29399999999998,228.076,231.128,236.472,242.099,244.767,249.349,254.69199999999998,262.432,270.067,275.026,277.977,281.891,287.427,292.385" y="106.36199999999997" svg_rhmargin="295.336" style="fill:#171615;font-family:DCIJFN+AdvPSPAL-R;font-size:9.17px;font-style:NORMAL;font-weight:normal;">C, Fig. 3a), while the Indian Hotspot</text>
  <text x="68.598,71.65,76.71,79.377,84.436,88.349,91.729,96.312,101.94,104.992,108.964,111.631,115.544,119.509,123.606,128.95,133.532,137.153,141.735,145.832,148.784,153.174,156.794,159.461,164.044,168.435,174.062,178.074,183.133,188.192,192.134,195.085,200.429,204.819,208.801,211.468,216.427,224.062,228.452,232.366,235.317,239.302,244.362,248.944,252.858,257.248,259.915,262.583,267.926,272.316,276.267,281.418,286.0,289.621,292.288" y="118.32399999999996" svg_rhmargin="295.34" style="fill:#171615;font-family:DCIJFN+AdvPSPAL-R;font-size:9.17px;font-style:NORMAL;font-weight:normal;">(Figs 3d) is characterized by the lowest baseline vari-</text>
  <text svg_rhmargin="119.212" x="68.598,73.181,78.24,80.908,83.575,86.242,89.193,94.252,100.12,103.172,107.755,112.338,114.629,119.212" y="130.28599999999994" style="fill:#171615;font-family:DCIJFN+AdvPSPAL-R;font-size:9.17px;font-style:NORMAL;font-weight:normal;">ability (28.3 </text>
  <text svg_rhmargin="129.626" x="122.569,129.626" y="130.28599999999994" style="fill:#171615;font-family:DCIJLB+AdvP4C4E74;font-size:9.17px;font-style:NORMAL;font-weight:normal;">? </text>
  <text svg_rhmargin="144.401" x="132.944,137.527,139.818,144.401" y="130.28599999999994" style="fill:#171615;font-family:DCIJFN+AdvPSPAL-R;font-size:9.17px;font-style:NORMAL;font-weight:normal;">0.3 </text>
  <text x="147.797" y="130.28599999999994" svg_rhmargin="151.417" style="fill:#171615;font-family:DCIJHP+AdvTTec369687;font-size:9.17px;font-style:NORMAL;font-weight:normal;">°</text>
  <text x="151.369,157.858,160.911,163.202,169.058,175.547,180.505,185.849,189.763,194.153,199.304,204.84,209.23,214.574,217.525,220.192,225.251,227.542,233.405,236.072,241.415,247.239,250.19,255.533,259.923,265.778,269.875,275.411,279.031,282.651,287.042,292.385" y="130.28599999999994" svg_rhmargin="295.336" style="fill:#171615;font-family:DCIJFN+AdvPSPAL-R;font-size:9.17px;font-style:NORMAL;font-weight:normal;">C). Consequently, in the current</text>
  <text x="68.598,74.226,78.616,82.713,87.296,92.924,97.31400000000001,100.176,103.228,107.811,112.394,116.977" y="142.24800000000005" svg_rhmargin="121.56" style="fill:#171615;font-family:DCIJFN+AdvPSPAL-R;font-size:9.17px;font-style:NORMAL;font-weight:normal;">decade (2010</text>
  <text x="121.549" y="142.24800000000005" svg_rhmargin="126.132" style="fill:#171615;font-family:DCIJJA+AdvTTec369687+20;font-size:9.17px;font-style:NORMAL;font-weight:normal;">–</text>
  <text x="126.141,130.724,135.307,139.889,144.472,146.763,149.612,154.672,157.339,162.398,164.689,167.527,172.11,176.693,179.745,182.036,184.876,189.266,193.849,197.762,200.714,205.104,208.724,214.06699999999998,216.964,224.122,229.658,233.572,236.523,240.144,244.726,247.393,250.061,254.644,257.5,260.167,264.08,266.911,271.302,276.068,281.604,285.994,289.614,292.282" y="142.24800000000005" svg_rhmargin="295.334" style="fill:#171615;font-family:DCIJFN+AdvPSPAL-R;font-size:9.17px;font-style:NORMAL;font-weight:normal;">2019, Fig. 4a), eastern Australia is experi-</text>
  <text x="68.598,72.989,78.332,82.429,85.096,90.44,95.499,98.873,103.456,106.81,110.431,115.013,117.965,122.355,125.689,130.648,133.7,137.028,141.125,146.468,151.051,156.395,161.454,165.844,169.23,173.144,175.811,183.922,186.59,189.257,193.839,197.459,200.808,203.759,208.71699999999998,212.09,214.757,217.708,221.621,224.959,230.018,234.601,238.515,242.905,245.572,248.239,253.583,257.973,261.299,266.45,271.033,274.654,277.321,281.903,286.963,289.63,292.297" y="154.20899999999995" svg_rhmargin="295.349" style="fill:#171615;font-family:DCIJFN+AdvPSPAL-R;font-size:9.17px;font-style:NORMAL;font-weight:normal;">encing a rate of change similar to its baseline variabil-</text>
  <text x="68.598,71.266,74.217,79.276,81.567,85.436,93.071,95.738,98.69,104.033,107.944,112.71,117.476,123.103,126.993,130.906,136.25,141.208,148.843,151.51,156.854,161.913,165.771,170.922,175.505,178.172,183.708,188.098,192.01100000000002,195.875,200.834,206.37,209.321,213.235,215.902,221.529,225.91899999999998,229.834,234.793,237.845,241.74,244.691,250.035,252.702,256.615,260.506,264.126,268.709,274.052,279.112,283.502,287.378,290.045" y="166.17100000000005" svg_rhmargin="295.388" style="fill:#171615;font-family:DCIJFN+AdvPSPAL-R;font-size:9.17px;font-style:NORMAL;font-weight:normal;">ity, with SST showing values outside of this range in</text>
  <text x="68.598,71.55,76.893,81.283,83.963,89.59,93.98,98.077,102.66,108.288,112.678,115.371,119.954,124.536,129.119" y="178.07600000000002" svg_rhmargin="133.702" style="fill:#171615;font-family:DCIJFN+AdvPSPAL-R;font-size:9.17px;font-style:NORMAL;font-weight:normal;">the decade 2020</text>
  <text x="133.682" y="178.07600000000002" svg_rhmargin="138.265" style="fill:#171615;font-family:DCIJJA+AdvTTec369687+20;font-size:9.17px;font-style:NORMAL;font-weight:normal;">–</text>
  <text x="138.217,142.8,147.382,151.965,156.548,158.839,161.518,169.153,174.497,177.164,179.831,184.22099999999998,186.917,189.868,195.212,199.60199999999998,202.281,205.333,210.676,216.304,218.971,223.554,228.897,231.534,236.878,241.836,244.788,248.701,254.237,259.196,262.14700000000005,264.813,269.396,272.063,275.684,280.074,284.657,290.284" y="178.07600000000002" svg_rhmargin="295.343" style="fill:#171615;font-family:DCIJFN+AdvPSPAL-R;font-size:9.17px;font-style:NORMAL;font-weight:normal;">2029, while the Indian hotspot already</text>
  <text x="68.598,76.71,81.293,86.636,89.303,92.355,96.746,100.659,103.611,107.524,111.969,116.735,121.501,127.128,131.528,136.679,141.262,143.929,149.465,153.855,157.768,162.199,167.158,172.694,175.645,179.559,182.226,187.853,192.243,196.669,201.627,204.679,209.084,212.036,217.379,221.76899999999998,226.206,229.826,234.409,239.752,244.812,249.202,253.645,258.604,261.656,266.061,271.404,275.987,278.938,284.474,288.095,292.677" y="190.038" svg_rhmargin="295.344" style="fill:#171615;font-family:DCIJFN+AdvPSPAL-R;font-size:9.17px;font-style:NORMAL;font-weight:normal;">manifests SST values outside of the range of natural</text>
  <text x="68.598,73.749,78.332,81.953,84.62,89.202,94.262,96.929,99.596,102.263,105.215,110.274,114.86,117.527,122.87,127.39,130.341,135.684,140.07399999999998,144.624,148.721,154.257,157.878,161.498,165.888,171.232,174.183,178.754,184.382,188.772,192.869,197.452,203.079,207.469,209.76,214.357,221.516,226.667,231.057,234.677,239.189,244.817,249.207,253.304,257.887,263.515,267.905,272.469,277.051,281.634,286.217" y="202.0" svg_rhmargin="290.8" style="fill:#171615;font-family:DCIJFN+AdvPSPAL-R;font-size:9.17px;font-style:NORMAL;font-weight:normal;">variability in the current decade. Over decade 2020</text>
  <text x="290.777" y="202.0" svg_rhmargin="295.36" style="fill:#171615;font-family:DCIJJA+AdvTTec369687+20;font-size:9.17px;font-style:NORMAL;font-weight:normal;">–</text>
  <text x="68.598,73.181,77.764,82.347,86.92999999999999,89.802,92.854,97.913,100.58,105.64,107.931,111.289,115.871,120.931,123.983,126.274,129.147,133.729,136.396,139.063,141.902,147.438,152.589,156.97899999999998,159.874,165.217,170.176,173.127,177.041,182.577,187.535,190.487,194.4,197.292,201.682,206.448,211.984,216.375,219.995,222.662,227.053,232.396,236.493,240.88299999999998,243.725,248.308,251.208,255.122,260.658,265.717,269.631,272.582,277.165,282.508,285.46,288.127,292.71" y="213.962" svg_rhmargin="295.377" style="fill:#171615;font-family:DCIJFN+AdvPSPAL-R;font-size:9.17px;font-style:NORMAL;font-weight:normal;">2029 (Fig. 4b), all ﬁve hotspots experience a substantial</text>
  <text x="68.598,72.695,78.039,82.622,87.965,93.024,97.414,99.779,102.447,107.79,110.211,114.977,119.743,125.36999999999999,127.729,132.687,137.838,142.229,145.84900000000002,148.252,152.835,155.786,158.174,160.841,165.231,169.814,173.728,176.679,179.037,184.573,189.156,192.776,195.727,198.143,203.101,206.153,208.517,211.468,216.812,221.202,223.869,227.489,229.89,234.473,238.093,242.484,247.066" y="225.92399999999998" svg_rhmargin="249.357" style="fill:#171615;font-family:DCIJFN+AdvPSPAL-R;font-size:9.17px;font-style:NORMAL;font-weight:normal;">change in SST over at least part of their area.</text>
  <text x="77.556,86.721,91.111,94.847,99.43,104.774,109.356,112.024,117.083,120.997,125.387,129.091,132.042,137.385,141.77499999999998,145.532,150.49,153.442,158.785,163.175,166.79500000000002,170.533,173.485,178.828,182.449,186.839,191.22899999999998,195.025,197.692,203.035,208.663,211.33,215.427,220.01,222.961,227.92,231.54,235.453,239.189,242.241,246.154,249.106,252.726,257.309,260.26,262.927,268.463,272.56,277.143,280.094,282.761,287.72,293.063" y="237.88599999999997" svg_rhmargin="295.354" style="fill:#171615;font-family:DCIJFN+AdvPSPAL-R;font-size:9.17px;font-style:NORMAL;font-weight:normal;">We analyse the other three indicators (stratiﬁcation,</text>
  <text x="68.598,73.942,76.609,79.56,83.181,87.763,90.715,95.105,99.553,104.136,109.479,115.106,119.509,125.045,128.665,131.333,139.444,144.027,147.647,152.706,157.097,162.633,166.253,171.212,176.839,182.375,186.472,189.424,192.091,197.049,202.393,205.445,209.878,212.545,217.88799999999998,222.351,226.934,231.308,235.222,237.889,246.0,248.667,251.335,255.917,259.537,263.964,272.075,276.658,282.002,287.345,291.735" y="249.84799999999996" svg_rhmargin="295.355" style="fill:#171615;font-family:DCIJFN+AdvPSPAL-R;font-size:9.17px;font-style:NORMAL;font-weight:normal;">nitrate and primary production) in a similar manner</text>
  <text x="68.598,76.233,78.9,81.852,87.19500000000001,92.58,95.531,100.875,105.265,110.665,113.617,116.284,124.395,128.785,134.193,138.583,143.734,148.693,151.36,156.896,159.847,162.515,167.473,172.816,178.188,181.24,186.198,189.818,195.196,199.779,204.361,208.944" y="261.80999999999995" svg_rhmargin="213.527" style="fill:#171615;font-family:DCIJFN+AdvPSPAL-R;font-size:9.17px;font-style:NORMAL;font-weight:normal;">with the time evolution for 1990</text>
  <text x="213.505" y="261.80999999999995" svg_rhmargin="218.088" style="fill:#171615;font-family:DCIJJA+AdvTTec369687+20;font-size:9.17px;font-style:NORMAL;font-weight:normal;">–</text>
  <text x="218.097,222.68,227.262,231.845,236.428,241.794,247.33,250.951,255.341,259.255,263.645,268.988,271.94,276.33,281.957,287.376,290.043" y="261.80999999999995" svg_rhmargin="295.386" style="fill:#171615;font-family:DCIJFN+AdvPSPAL-R;font-size:9.17px;font-style:NORMAL;font-weight:normal;">2099 presented in</text>
  <text x="68.598,73.658,76.325,81.384,85.297,88.668,93.251,96.378,100.961,106.304,111.931,115.087,119.669,121.96,125.064,130.124,132.791,137.85,140.141,143.319,148.085,152.668,154.959,158.116,165.274,170.618,173.285,175.952,181.011,185.40099999999998,188.503,193.269,198.035,203.663,205.954,209.139,212.091,217.434,221.824,225.738,230.128,233.235,237.148,240.1,243.72,248.11,252.024,255.938,260.896,264.516,268.42900000000003,271.616,279.728,284.31,289.654,292.321" y="273.71500000000003" svg_rhmargin="295.373" style="fill:#171615;font-family:DCIJFN+AdvPSPAL-R;font-size:9.17px;font-style:NORMAL;font-weight:normal;">Figs 5 and 6, Fig. S5. Unlike SST, these stressors mani-</text>
  <text x="68.598,71.65,76.041,79.954,82.90499999999999,85.55,89.464,92.415,96.035,100.994,106.337,111.396,114.01,116.677,122.02,124.972,129.362,132.982,137.565,142.909,148.252,153.788,158.371,161.038,163.673,168.824,173.407,177.027,179.694,184.277,189.336,192.004,194.671,197.338,200.289,205.34799999999998,208.007,213.067,218.603,221.554,224.222,229.85,234.808,237.432,242.775,247.734,250.685,253.305,257.219,262.562,267.521,275.15500000000003,277.796,281.71,287.246,292.305" y="285.677" svg_rhmargin="295.357" style="fill:#171615;font-family:DCIJFN+AdvPSPAL-R;font-size:9.17px;font-style:NORMAL;font-weight:normal;">fest strong interannual variability but do not show sub-</text>
  <text x="68.598,72.512,75.463,80.046,85.39,88.341,91.008,95.591,98.258,101.537,107.165,111.555,116.706,119.373,123.956,126.907,129.575,134.533,139.87599999999998,143.151,146.203,149.823,154.782,162.893,166.111,169.062,174.406,178.796,181.463,185.083,188.391,193.451,198.034,201.947,206.338,209.005,211.672,217.015,221.40499999999997,224.619,229.77,234.353,237.973,240.64,245.223,250.282,252.95,255.617,258.284,261.235,266.29400000000004,269.577,274.16,277.11100000000005,280.405,284.988,290.331" y="297.639" svg_rhmargin="295.39" style="fill:#171615;font-family:DCIJFN+AdvPSPAL-R;font-size:9.17px;font-style:NORMAL;font-weight:normal;">stantial deviation from their baseline variability at any</text>
  <text x="68.598,71.55,74.217,82.328,86.718,89.971,94.93,100.081,104.471,108.09100000000001,111.289,114.24,119.583,123.973,127.219,131.316,135.706,141.05,144.001,149.537,153.157,158.217,160.508,163.787,169.414,174.758,179.148,182.382,187.34,192.684,195.351,200.41,203.642,208.985,213.944,216.895,220.809,226.345,231.303,234.254,237.488,245.123,250.467,254.857,258.477,262.86699999999996,266.062,269.975,272.927,276.547,281.13,284.081,286.748,292.284" y="309.601" svg_rhmargin="295.336" style="fill:#171615;font-family:DCIJFN+AdvPSPAL-R;font-size:9.17px;font-style:NORMAL;font-weight:normal;">time over the century. The only hotspot where stratiﬁ-</text>
  <text x="68.598,72.695,77.278,80.229,82.897,87.855,93.19800000000001,96.435,99.487,107.598,112.181,116.947,119.614,127.726,133.262,141.373,144.624,151.783,160.462,166.089,169.286,174.914,179.304,184.84,187.791,193.135,196.18699999999998,199.447,203.361,208.704,213.663,221.297,225.21,228.417,232.331,237.867,242.926,246.84,249.791,254.374,259.717,262.669,265.336,269.919,272.58599999999996,275.813,279.727,285.07,289.653,292.32" y="321.563" svg_rhmargin="295.372" style="fill:#171615;font-family:DCIJFN+AdvPSPAL-R;font-size:9.17px;font-style:NORMAL;font-weight:normal;">cation (maximum UML depth) shows substantial shal-</text>
  <text x="68.598,71.266,76.224,83.859,86.526,91.87,96.929,100.914,103.581,107.494,111.459,114.41,119.754,124.144,128.071,131.123,136.466,142.094,144.761,149.344,154.68699999999998,158.685,164.029,168.987,171.938,175.852,181.388,186.347,189.298,193.268,196.321,201.38,204.047,209.106,211.397,214.755,219.338,224.965,228.018,230.309,234.257,241.892,247.236,251.626,255.246,259.636,263.625,267.538,272.882,277.465,280.132,282.799,287.757" y="333.524" svg_rhmargin="295.392" style="fill:#171615;font-family:DCIJFN+AdvPSPAL-R;font-size:9.17px;font-style:NORMAL;font-weight:normal;">lowing is the Indian hotspot (Fig. 5d), where shallow</text>
  <text x="68.598,73.749,78.332,80.999,86.535,90.926,94.839,98.419,102.516,107.475,112.818,116.732,119.399,123.313,126.264,130.654,135.998,138.949,141.616,146.675,150.237,155.196,159.293,163.39,168.926,172.546,176.146,180.729,183.781,186.733,191.123,194.743,198.313,202.896,207.479,212.061,216.644,218.935,222.521,225.573,230.917,233.868,238.258,241.879,246.269,250.183,253.134,255.801,261.144,266.204,268.871,273.93,276.221,279.782,284.364,289.708" y="345.486" svg_rhmargin="295.336" style="fill:#171615;font-family:DCIJFN+AdvPSPAL-R;font-size:9.17px;font-style:NORMAL;font-weight:normal;">values consistently occur after 2050. Interestingly, and</text>
  <text x="68.598,71.266,76.60900000000001,79.257,83.354,88.312,93.656,96.607,100.228,104.81,108.724,111.675,114.351,121.986,124.653,127.604,132.947,135.611,140.57,143.521,148.864,153.255,156.875,159.593,163.213,167.603,172.663,175.33,180.288,185.632,189.545,191.83599999999998,194.459,198.373,201.324,205.907,210.966,213.633,216.3,218.968,223.55,228.133,231.084,233.752,238.71,244.053,246.731,251.689,254.74099999999999,257.389,261.303,264.254,267.875,272.457,275.409,278.076,283.612,287.709,292.292" y="357.448" svg_rhmargin="295.344" style="fill:#171615;font-family:DCIJFN+AdvPSPAL-R;font-size:9.17px;font-style:NORMAL;font-weight:normal;">in contrast with other regions, stabilization of stratiﬁca-</text>
  <text x="68.598,71.55,74.217,79.175,84.518,89.971,92.639,97.982,103.464,106.415,111.759,114.426,118.339,123.817,128.4,132.02,136.41,140.993,146.437,149.104,153.01700000000002,158.456,163.039,167.136,171.233,176.191,184.303,189.839,194.421,199.765,202.432,206.822,212.449,217.927,222.987,228.046,233.518,238.101,243.444,248.882,251.549,256.893,260.99,264.61,269.0,273.583,277.497,281.887,287.377,290.044" y="369.353" svg_rhmargin="295.387" style="fill:#171615;font-family:DCIJFN+AdvPSPAL-R;font-size:9.17px;font-style:NORMAL;font-weight:normal;">tion in this area is accompanied by an increase in</text>
  <text svg_rhmargin="295.341" x="68.598,73.942,76.609,79.56,83.181,87.763,90.715,95.105,97.396,100.97,106.598,111.941,114.608,118.521,122.06,127.596,131.216,136.175,141.234,145.817,150.876,153.543,158.602,162.142,167.678,172.637,175.304,180.648,183.599,187.512,191.056,194.007,198.966,206.601,211.183,214.804,220.431,224.34400000000002,227.907,232.004,237.347,241.93,247.273,252.333,256.723,260.636,264.134,266.801,272.144,275.699,281.043,286.001,289.622,292.289,295.341" y="82.43200000000002" style="fill:#171615;font-family:DCIJFN+AdvPSPAL-R;font-size:9.17px;font-style:NORMAL;font-weight:normal;">nitrate. This probably points towards changes in hori- </text>
  <text x="319.464,324.046,329.005,334.348,337.3,341.882,344.549,347.414,351.997,357.624,362.775,367.166,371.263,374.214,376.881,381.84,387.183,389.474,392.372,395.993,400.576,403.527,408.87,413.261,416.88100000000003,419.755,422.707,428.05,432.633,437.976,440.788,444.702,447.653,451.274,455.856,458.808,461.475,467.011,471.108,475.691,478.642,481.309,486.268,491.611,493.902,496.801,501.384,505.297,508.14,513.199,517.59,520.257,525.6,530.659,533.539,536.49,541.833" y="82.43200000000002" svg_rhmargin="546.223" style="fill:#171615;font-family:DCIJFN+AdvPSPAL-R;font-size:9.17px;font-style:NORMAL;font-weight:normal;">zontal advection, rather than stratiﬁcation, as being the</text>
  <text x="319.464,327.575,332.158,334.825,340.168,342.538,348.165,351.786,354.453,359.604,363.994,367.61400000000003,370.034,374.993,378.045,380.409,385.752,391.288,394.239,397.86,400.527,404.917,410.261,413.21200000000005,415.615,419.712,424.671,430.014,432.966,437.356,442.699,445.65000000000003,448.044,450.711,456.05400000000003,458.418,461.369,466.713,469.38,473.293,475.71,480.292,483.913,488.303,492.886" y="94.394" svg_rhmargin="495.177" style="fill:#171615;font-family:DCIJFN+AdvPSPAL-R;font-size:9.17px;font-style:NORMAL;font-weight:normal;">main driver of nutrient content in this area.</text>
  <text x="328.421,337.587,341.977,349.851,354.241,359.007,363.59,371.702,374.369,379.712,384.102,391.975,394.926,400.269,404.659,412.497,417.841,423.377,431.488,436.547,440.938,444.558,452.409,457.368,460.42,468.283,473.342,477.733,482.315,485.936,489.849,497.707,500.374,505.71700000000004,513.581,519.208,523.599,527.696,532.278,537.906,542.296" y="106.356" svg_rhmargin="546.21" style="fill:#171615;font-family:DCIJFN+AdvPSPAL-R;font-size:9.17px;font-style:NORMAL;font-weight:normal;">We examine the number of years in decades</text>
  <text x="319.464,324.046,328.629,333.212" y="118.31799999999998" svg_rhmargin="337.795" style="fill:#171615;font-family:DCIJFN+AdvPSPAL-R;font-size:9.17px;font-style:NORMAL;font-weight:normal;">2010</text>
  <text x="337.775" y="118.31799999999998" svg_rhmargin="342.358" style="fill:#171615;font-family:DCIJJA+AdvTTec369687+20;font-size:9.17px;font-style:NORMAL;font-weight:normal;">–</text>
  <text x="342.367,346.95,351.533,356.116,360.699,364.194,368.777,374.12,379.747,383.243,387.826,392.408,396.991" y="118.31799999999998" svg_rhmargin="401.574" style="fill:#171615;font-family:DCIJFN+AdvPSPAL-R;font-size:9.17px;font-style:NORMAL;font-weight:normal;">2019 and 2020</text>
  <text x="401.554" y="118.31799999999998" svg_rhmargin="406.137" style="fill:#171615;font-family:DCIJJA+AdvTTec369687+20;font-size:9.17px;font-style:NORMAL;font-weight:normal;">–</text>
  <text x="406.09,410.672,415.255,419.838,424.42100000000005,427.916,435.551,440.895,445.285,450.62800000000004,454.165,459.701,463.322,465.989,474.1,478.683,482.303,487.362,490.846,496.382,500.002,504.961,510.588,516.124,520.221,523.172,525.84,530.798,536.141,539.659,542.327" y="118.31799999999998" svg_rhmargin="546.241" style="fill:#171615;font-family:DCIJFN+AdvPSPAL-R;font-size:9.17px;font-style:NORMAL;font-weight:normal;">2029 when primary production is</text>
  <text x="319.463,324.421,329.957,332.909,336.822,339.489,345.117,349.507,352.628,357.587,360.639,363.74,366.692,372.035,376.425,379.558,383.179,387.761,393.105,398.164,402.554,405.637,410.595,413.64700000000005,416.749,419.416,422.368,426.281,429.392,434.451,439.034,442.948,447.338,450.005,452.672,458.016,462.406,465.506,470.657,475.24,478.86,481.527,486.11,491.169,493.837,496.504,499.171,502.122,507.18100000000004,510.294,513.346,518.406,521.073,526.132,528.423,531.554,536.32,540.903,543.955" y="130.27999999999997" svg_rhmargin="546.246" style="fill:#171615;font-family:DCIJFN+AdvPSPAL-R;font-size:9.17px;font-style:NORMAL;font-weight:normal;">outside of the range of its baseline variability (Fig. S6).</text>
  <text x="319.463,326.621,331.964,334.632,337.299,342.358,346.748,349.85,354.616,359.382,365.009,368.162,371.214,375.311,378.363,380.654,383.752,388.812,391.479,396.538,398.829,402.235,406.81800000000004,409.888,414.471,419.814,425.44100000000003,428.596,433.656,436.323,441.382,443.673,446.795,451.561,456.144,459.196,461.487,464.598,470.134,473.754,476.421,484.533,489.115,492.736,497.795,500.938,506.474,510.094,515.053,520.68,526.216,530.313,533.265,535.932,540.89" y="142.24099999999999" svg_rhmargin="546.233" style="fill:#171615;font-family:DCIJFN+AdvPSPAL-R;font-size:9.17px;font-style:NORMAL;font-weight:normal;">Unlike SST (cf. Fig. 4 and Fig. S6), primary production</text>
  <text x="319.463,325.09,330.049,334.439,338.35200000000003,341.289,346.633,351.591,354.54200000000003,357.447,362.03000000000003,364.988,368.901,374.245,379.203,386.837,389.706,393.62,399.156,404.215,408.129,411.08,415.663,421.006,423.958,426.625,431.208,433.875,436.819,442.446,446.837,451.988,454.655,459.238,462.189,464.856,469.815,475.158,478.092,481.144,484.764,489.723,497.834,500.769,503.436,506.388,510.301,513.242,518.301,522.884,526.797,531.188,533.855,536.522,541.866" y="154.20299999999997" svg_rhmargin="546.256" style="fill:#171615;font-family:DCIJFN+AdvPSPAL-R;font-size:9.17px;font-style:NORMAL;font-weight:normal;">does not a show substantial deviation from its baseline</text>
  <text x="319.463,324.614,329.197,332.817,335.484,340.067,345.126,347.793,350.461,353.128,356.079,361.13800000000003,363.911,366.578,371.921,374.682,379.265,384.608,389.66700000000003,392.428,397.386,400.43800000000005,403.199,408.157,413.693,417.313,420.037,425.573,430.724,435.114,437.895,440.947,445.905,450.002,455.538,459.451,462.216,467.56,472.518,475.47,479.383,484.919,489.878,492.829,496.742,499.521,504.864,509.823,513.443,515.734,518.457,521.124,526.467,529.228,532.28,536.863,540.96,543.911" y="166.16499999999996" svg_rhmargin="546.202" style="fill:#171615;font-family:DCIJFN+AdvPSPAL-R;font-size:9.17px;font-style:NORMAL;font-weight:normal;">variability in any of our ﬁve focus hotspots nor, in fact,</text>
  <text x="319.463,322.13,327.473,331.085,335.667,338.335,346.446,351.405,355.318,358.269,361.869,366.452,371.795,376.85400000000004,380.408,385.366,388.418,392.03,394.981,400.324,404.714,408.3,413.259,416.21,421.554,425.944,429.564,433.188,438.532,443.49,446.442,450.355,455.891,460.85,463.801,467.714,471.286,474.907,479.297,484.833,489.792,493.412,496.363,500.754,506.38100000000003,510.008,512.675,518.0179999999999,521.63,529.265,534.801,539.383,543.966" y="178.07000000000005" svg_rhmargin="546.257" style="fill:#171615;font-family:DCIJFN+AdvPSPAL-R;font-size:9.17px;font-style:NORMAL;font-weight:normal;">in almost any of the other hotspots reported in HP14,</text>
  <text x="319.463,327.098,329.765,332.716,338.059,342.026,344.978,350.321,354.711,358.694,363.084,367.85,371.947,376.337,381.873,384.825,387.492,392.45,397.793,401.781,406.739,409.791,413.8,416.751,422.094,426.484,430.467,433.519,438.863,444.49,449.449,452.501,458.99,464.334,467.001,472.344,476.735,480.648,485.038,489.032,494.375,499.334,502.285,506.199,511.735,516.693,519.645,521.936,525.883,533.041,538.192,542.582" y="190.03200000000004" svg_rhmargin="546.202" style="fill:#171615;font-family:DCIJFN+AdvPSPAL-R;font-size:9.17px;font-style:NORMAL;font-weight:normal;">with the exception of the Indo-Chinese hotspot. Over</text>
  <text x="319.463,322.414,327.758,332.14799999999997,335.11,340.169,342.837,347.795,352.854,357.437,360.104,363.117,368.076,372.173,376.563,381.146,386.489,388.78,391.747,396.33,399.951,404.341,408.924,412.837,415.786,423.421,426.088,429.039,434.382,437.386,440.337,445.681,450.07099999999997,453.033,456.947,459.898,463.519,468.477,473.821,478.88,483.27,487.184,490.13500000000005,493.116,497.03,499.697,504.756,510.1,514.682,517.349,520.329,522.996,528.3389999999999,531.328,536.864,540.484,543.151" y="201.99400000000003" svg_rhmargin="546.203" style="fill:#171615;font-family:DCIJFN+AdvPSPAL-R;font-size:9.17px;font-style:NORMAL;font-weight:normal;">the global ocean, areas with the strongest signal in pri-</text>
  <text x="319.463,327.574,332.157,335.777,340.836,344.918,350.454,354.074,359.033,364.661,370.197,374.293,377.245,379.912,384.87,390.213,394.298,398.881,402.501,406.89099999999996,410.91,414.823,417.491,420.442,425.978,430.561,433.512,437.902,443.529,447.647,450.314,455.65700000000004,459.722,462.674,468.017,472.407,476.447,483.413,488.948,491.616,494.668,498.727,503.493,506.445,510.065,514.455,519.038,527.149,529.44,533.537,536.488,541.832" y="213.95600000000002" svg_rhmargin="546.222" style="fill:#171615;font-family:DCIJFN+AdvPSPAL-R;font-size:9.17px;font-style:NORMAL;font-weight:normal;">mary production are situated in the Gulf Stream, the</text>
  <text x="319.463,327.098,331.488,335.402,338.353,342.743,346.363,351.706,355.69,360.081,365.232,370.768,375.35,378.302,383.26,386.88,389.548,394.13,396.79699999999997,400.762,406.298,410.88,414.977,417.645,423.181,427.277,429.568,433.53,436.482,441.825,446.215,450.141,454.531,459.682,465.218,469.801,472.752,477.711,481.331,484.383,492.018,496.601,500.221,505.848,509.839,515.375,519.958,525.302,530.361,534.274,538.242,543.201" y="225.918" svg_rhmargin="546.253" style="fill:#171615;font-family:DCIJFN+AdvPSPAL-R;font-size:9.17px;font-style:NORMAL;font-weight:normal;">western equatorial Paciﬁc, the equator-ward ﬂanks of</text>
  <text x="319.463,322.414,327.758,332.14799999999997,335.167,339.933,344.891,350.427,353.379,358.72200000000004,361.756,367.292,371.875,375.972,378.639,384.175,388.272,391.35,395.263,400.799,405.859,408.81,412.43,417.389,422.925,425.592,429.689,434.272,436.93899999999996,439.936,444.995,450.055,453.675,458.065,461.083,465.665,471.009,476.636,479.678,482.63,487.973,492.363,495.383,503.494,508.077,511.697,516.757,519.424,524.767,529.35,532.017,535.068,537.736,541.833" y="237.88" svg_rhmargin="546.223" style="fill:#171615;font-family:DCIJFN+AdvPSPAL-R;font-size:9.17px;font-style:NORMAL;font-weight:normal;">the South Paciﬁc subtropical gyre and the marginal ice</text>
  <text x="319.463,324.046,329.004,334.348,338.738,342.651,347.413,352.371,355.423,360.225,363.177,368.52,372.90999999999997,377.687,382.453,387.411,392.947,395.898,401.242,405.632,409.253,414.596,419.357,426.515,430.612,435.002,439.585,444.928,447.219,451.956,459.114,464.265,468.655,472.275,477.071,480.022,485.366,489.756,494.532,499.591,502.259,507.217,512.276,516.859,519.5260000000001,524.296,528.21,532.307,536.89,539.557,543.947" y="249.84199999999998" svg_rhmargin="546.238" style="fill:#171615;font-family:DCIJFN+AdvPSPAL-R;font-size:9.17px;font-style:NORMAL;font-weight:normal;">zones of the Southern Ocean. Over the global scale,</text>
  <text x="319.463,325.09,329.481,333.578,338.536,344.072,349.608,352.275,354.942,360.286,365.345,368.22,373.178,376.23,379.048,381.999,387.342,391.73199999999997,394.581,397.633,402.216,406.13,409.081,413.471,417.385,420.336,423.212,430.847,435.429,439.05,447.161,449.828,455.172,460.23100000000005,463.067,467.65,471.27,475.66,480.243,484.156,486.992,490.044,493.664,498.623,506.734,509.612,512.563,517.907,522.297,525.146,529.729,533.349,537.739,542.322" y="261.804" svg_rhmargin="546.236" style="fill:#171615;font-family:DCIJFN+AdvPSPAL-R;font-size:9.17px;font-style:NORMAL;font-weight:normal;">decoupling of the fastest warming areas from the areas</text>
  <text x="319.463,324.421,327.473,330.801,334.715,337.666,341.287,346.245,351.589,356.648,361.038,364.952,367.903,371.167,375.264,380.608,385.19,390.534,395.593,399.983,403.896,407.224,409.891,415.23400000000004,418.563,424.099,427.719,430.386,438.498,443.081,446.701,451.76000000000005,455.017,460.553,464.173,469.132,474.759,480.295,484.392,487.344,490.011,494.969,500.312,503.66,506.327,510.24,513.525,518.868,523.827,526.778,530.136,534.05,539.586,543.206" y="273.70899999999995" svg_rhmargin="546.258" style="fill:#171615;font-family:DCIJFN+AdvPSPAL-R;font-size:9.17px;font-style:NORMAL;font-weight:normal;">of strongest changes in primary production is not sur-</text>
  <text x="319.463,324.999,328.619,331.286,335.2,337.867,343.211,348.27,350.561,353.252,362.418,367.761,370.428,373.096,377.486,380.238,382.905,388.249,392.346,395.966,400.357,404.939,408.853,413.243,417.156,419.867,422.534,427.877,430.583,435.349,440.115,445.742,448.441,453.5,457.89,463.234,467.624,471.244,475.827,478.494,481.162,486.221,488.92,496.555,501.514,505.134,510.19300000000004,512.958,515.91,520.868,528.503,533.086,536.706,542.334" y="285.67100000000005" svg_rhmargin="546.248" style="fill:#171615;font-family:DCIJFN+AdvPSPAL-R;font-size:9.17px;font-style:NORMAL;font-weight:normal;">prising. While increases in SST generally work towards</text>
  <text x="319.463,323.376,326.328,330.91,335.97,338.637,341.304,343.971,348.554,353.137,356.088,358.755,363.714,369.057,373.492,378.45,381.502,385.907,389.821,392.772,396.393,400.975,403.927,406.594,412.13,416.227,420.809,423.761,426.428,431.386,436.73,439.021,443.451,448.034,453.377,459.004,463.407,466.358,471.702,477.238,481.151,485.574,490.15700000000004,494.588,498.208,502.599,508.226,513.762,517.859,520.811,523.478,528.436,533.779,538.186,540.853" y="297.633" svg_rhmargin="546.196" style="fill:#171615;font-family:DCIJFN+AdvPSPAL-R;font-size:9.17px;font-style:NORMAL;font-weight:normal;">stabilization of stratiﬁcation, and thus a reduction in</text>
  <text x="319.463,324.806,330.342,333.293,336.914,339.581,343.971,349.315,352.266,355.86,359.773,365.309,370.845,376.381,379.049,384.108,386.399,389.989,392.657,395.608,399.23,406.865,409.532,412.199,414.866,418.449,423.408,428.751,431.418,436.47700000000003,440.05,445.393,449.976,455.127,459.517,463.124,467.70700000000005,471.287,476.823,480.444,485.402,490.746,495.704,501.24,506.584,510.681,515.071,520.698,524.296,528.686,531.738,534.791,539.181,543.278" y="309.595" svg_rhmargin="546.229" style="fill:#171615;font-family:DCIJFN+AdvPSPAL-R;font-size:9.17px;font-style:NORMAL;font-weight:normal;">nutrient supply, it will only have a pronounced effect</text>
  <text x="319.463,324.421,329.764,332.049,337.585,341.205,343.872,351.984,356.567,360.187,365.24600000000004,367.595,373.131,376.752,381.71,387.338,392.874,396.971,399.922,402.589,407.548,412.891,415.162,417.829,423.172,425.48,428.431,433.775,438.16499999999996,440.504,445.087,448.707,453.098,457.68,461.593,463.862,466.813,472.156,476.739,479.69,482.004,486.587,490.207,494.597,496.914,501.497,504.164,507.785,512.175,516.758,522.385,527.444,529.74,532.407,535.074,543.185" y="321.556" svg_rhmargin="546.237" style="fill:#171615;font-family:DCIJFN+AdvPSPAL-R;font-size:9.17px;font-style:NORMAL;font-weight:normal;">on primary production in the areas that are already lim-</text>
  <text x="319.463,322.13,325.081,329.471,335.098,338.965,344.024,349.083,352.968,358.312,363.848,366.799,370.419,373.086,377.477,382.82,385.771,389.684,393.561,398.144,403.487,409.11400000000003,413.007,420.642,425.985,430.375,433.996,438.38599999999997,442.26,446.357,451.316,456.659,460.756,465.147,470.49,473.441,477.062,481.644,484.596,487.263,492.221,497.565,501.478,505.36,509.943,513.563,517.953,521.801,527.429,532.387,540.499,543.166" y="333.518" svg_rhmargin="546.218" style="fill:#171615;font-family:DCIJFN+AdvPSPAL-R;font-size:9.17px;font-style:NORMAL;font-weight:normal;">ited by nutrients and where concentrations are domi-</text>
  <text x="319.463,324.806,329.389,332.34,336.731,342.358,347.469,352.528,357.58700000000005,362.719,367.87,372.261,375.881,378.832,381.499,385.596,390.179,392.84599999999995,398.04,401.953,407.489,413.025,418.561,421.228,426.28700000000003,431.375,439.487,443.877,447.974,453.318,457.9,463.244,465.911,469.825,477.936,481.85,484.141,489.316,494.082,496.749,504.861,507.528,510.195,514.778,518.398,521.065,526.125,528.416,533.537,536.488,541.832" y="345.48" svg_rhmargin="546.222" style="fill:#171615;font-family:DCIJFN+AdvPSPAL-R;font-size:9.17px;font-style:NORMAL;font-weight:normal;">nated by vertical supply mechanisms. Similarly, the</text>
  <text x="319.463,325.09,329.481,332.432,337.015,339.682,342.349,346.262,351.494,356.453,359.505,364.761,368.858,373.44,377.061,382.12,387.079,392.422,397.005,399.956,404.346,409.549,413.646,418.989,423.379,431.491,434.158,438.072,441.023,444.643,449.702,454.96,459.543,464.886,470.51300000000003,475.767,478.718,484.061,488.45099999999996,493.682,498.741,503.131,508.09,513.149,516.769,521.352,526.888,532.232,534.899,538.996,543.579" y="357.442" svg_rhmargin="546.246" style="fill:#171615;font-family:DCIJFN+AdvPSPAL-R;font-size:9.17px;font-style:NORMAL;font-weight:normal;">details of carbonate chemistry and the geographical</text>
  <text x="319.463,324.999,329.581,332.533,335.484,339.874,343.495,348.838,351.891,356.85,359.90200000000004,362.89,367.848,371.945,376.336,380.918,386.262,388.929,393.02599999999995,396.112,402.601" y="369.347" svg_rhmargin="409.759" style="fill:#171615;font-family:DCIJFN+AdvPSPAL-R;font-size:9.17px;font-style:NORMAL;font-weight:normal;">pattern of oceanic CO</text>
  <text svg_rhmargin="413.157" x="409.72,413.15700000000004" y="369.361" style="fill:#171615;font-family:DCIJFN+AdvPSPAL-R;font-size:6.11px;font-style:NORMAL;font-weight:normal;">2 </text>
  <text x="416.183,421.719,427.254,430.206,434.789,439.848,444.238,447.251,455.362,459.753,464.335,469.678,472.706,475.658,481.001,485.584,488.535,491.585,496.544,500.641,505.031,509.614,514.957,518.005,522.588,526.685,529.352,534.98,537.647,543.183" y="369.361" svg_rhmargin="546.235" style="fill:#171615;font-family:DCIJFN+AdvPSPAL-R;font-size:9.17px;font-style:NORMAL;font-weight:normal;">uptake mean that ocean acidiﬁ-</text>
  <text x="319.465,323.562,328.144,331.096,333.763,338.721,344.064,346.451,351.033,356.377,362.004,364.365,369.132,373.898,379.52500000000003,381.94,384.607,392.719,398.255,402.838,406.935,409.886,413.79900000000004,416.184,420.766,424.387,428.777,431.151,436.494,441.453,444.404,446.798,450.895,455.854,458.521,463.864,467.961,470.628,476.256,480.646,485.99,488.94100000000003,491.36,494.027,499.37,501.734,505.648,511.184,515.767,519.864,524.254" y="381.323" svg_rhmargin="526.545" style="fill:#171615;font-family:DCIJFN+AdvPSPAL-R;font-size:9.17px;font-style:NORMAL;font-weight:normal;">cation and SST impacts are not coincident in space.</text>
  <path d=" M 68.5979995727539 83.8489990234375 L 546.2360229492188 83.8489990234375 L 546.2360229492188 375.47698974609375 L 68.5979995727539 375.47698974609375 Z " style="fill:none;stroke:#000000;stroke-width:1.0;"/>
  <path d="M147.968 424.523 L464.257 424.523 L464.257 677.712 L147.968 677.712 " style="fill:none;stroke:#000000;stroke-width:1.0;"/>
  <rect style="stroke:blue;stroke-width:0.3;" x="147.968" y="424.509" height="253.291" width="316.438" title="8"/>
  <text x="147.968" y="424.509" class="image" id="image.8.1" width="316" height="253">image.8.1.148_464.425_678</text>
  <text svg_rhmargin="88.911" x="68.598,72.998,75.652,80.051,82.044,84.926,88.911" y="693.644" style="fill:#171615;font-family:DCIJFM+AdvPSPAL-B;font-size:7.97px;font-style:NORMAL;font-weight:normal;">Fig. 3 </text>
  <text x="93.374,99.598,104.245,108.891,113.705,117.69,120.009,122.231,129.284,133.102,137.087,141.73399999999998,143.945,148.089,152.234,157.12800000000001,159.309" y="693.644" svg_rhmargin="161.963" style="fill:#171615;font-family:DCIJFN+AdvPSPAL-R;font-size:7.97px;font-style:NORMAL;font-weight:normal;">Annual mean SST (</text>
  <text x="161.972" y="693.644" svg_rhmargin="165.12" style="fill:#171615;font-family:DCIJHP+AdvTTec369687;font-size:7.97px;font-style:NORMAL;font-weight:normal;">°</text>
  <text x="165.147,170.79,173.444,175.636,178.29,182.601,185.749,187.995,190.561,195.207,199.025,201.261,206.075,209.893,213.041,215.36,219.672,224.566,226.774,230.759,234.744,238.729" y="693.644" svg_rhmargin="242.714" style="fill:#171615;font-family:DCIJFN+AdvPSPAL-R;font-size:7.97px;font-style:NORMAL;font-weight:normal;">C) for the period 1990</text>
  <text x="242.647" y="693.644" svg_rhmargin="246.632" style="fill:#171615;font-family:DCIJJA+AdvTTec369687+20;font-size:7.97px;font-style:NORMAL;font-weight:normal;">–</text>
  <text x="246.615,250.6,254.585,258.57,262.555,264.813,268.798,273.277,277.095,280.243,284.228,288.627,292.445,297.339,299.51,303.822,308.301,312.119,315.26700000000005,317.482,320.049,324.695,328.513,330.749,335.396,339.707,342.274,345.677,350.491,354.802,357.368,359.55,363.535,366.683,370.501,374.486,377.889,380.073,383.476,388.123,392.435,399.073,403.71999999999997,405.926,409.911,413.314,415.564,419.963,422.283,426.268,429.83,434.229,436.428,439.576,443.393,446.956,449.522,453.507,458.154,462.553,464.872,468.69,472.093,474.3,478.611,483.258,485.469,490.283,494.268,498.914,502.732,505.051,508.454,510.641,514.626,516.877,520.862,525.509,530.403,532.639,537.038,539.272,543.584" y="693.644" svg_rhmargin="546.238" style="fill:#171615;font-family:DCIJFN+AdvPSPAL-R;font-size:7.97px;font-style:NORMAL;font-weight:normal;">2099 averaged over the hotspot areas shown as black rectangles on panels a and b of</text>
  <text x="68.599,72.999,75.318,79.717,83.12,86.004,90.148" y="704.586" svg_rhmargin="94.133" style="fill:#171615;font-family:DCIJFN+AdvPSPAL-R;font-size:7.97px;font-style:NORMAL;font-weight:normal;">Figs S2</text>
  <text x="94.111" y="704.586" svg_rhmargin="98.096" style="fill:#171615;font-family:DCIJJA+AdvTTec369687+20;font-size:7.97px;font-style:NORMAL;font-weight:normal;">–</text>
  <text x="98.079,102.223,106.208,108.201,111.119,117.255,121.073,124.636,128.62,133.514,137.499,139.818,142.357,146.342,150.821,154.639,157.787,161.772,166.171,169.989,174.883,177.734,182.213,186.198,188.518,193.331,197.149,200.552,203.416,206.82,211.466,215.778,222.417,227.064,229.949,233.934,237.337,240.21,242.777,247.423,249.742,253.305,257.704,260.564,265.21,269.522,272.67,274.989,278.974,283.286,287.932,290.499,294.484,296.803,299.683,302.003,304.322,308.968,312.786,316.189,318.182,321.057,326.365,330.35,334.996,339.396,343.214,346.059,350.371,353.025,355.924,359.072,362.889,366.452,370.27,374.916,377.48199999999997,380.359,384.838,388.823,391.971,394.29,398.275,402.674,404.994,407.313,409.632,412.108,416.507,419.421,422.075,426.06,430.045,434.03" y="704.586" svg_rhmargin="438.015" style="fill:#171615;font-family:DCIJFN+AdvPSPAL-R;font-size:7.97px;font-style:NORMAL;font-weight:normal;">S4. Decadal-averaged values shown as thick horizontal lines. Range of recent variability (1990</text>
  <text x="437.953" y="704.586" svg_rhmargin="441.938" style="fill:#171615;font-family:DCIJJA+AdvTTec369687+20;font-size:7.97px;font-style:NORMAL;font-weight:normal;">–</text>
  <text x="441.921,445.906,449.891,453.876,457.861,459.854,462.728,466.131,469.949,473.767,476.675,479.241,483.059,487.203,489.769,492.423,495.27,498.673,503.32,507.632,514.27,518.917,521.803,525.788,529.191,532.064,534.63,539.277,541.596" y="704.586" svg_rhmargin="546.242" style="fill:#171615;font-family:DCIJFN+AdvPSPAL-R;font-size:7.97px;font-style:NORMAL;font-weight:normal;">2010, see text) shown as thin</text>
  <text x="68.598,73.245,77.557,80.705,83.024,87.009,91.321,95.967,98.533,102.518,104.837,106.867,109.187,111.506,116.152,119.97,123.373" y="715.528" svg_rhmargin="125.365" style="fill:#171615;font-family:DCIJFN+AdvPSPAL-R;font-size:7.97px;font-style:NORMAL;font-weight:normal;">horizontal lines.</text>
  <text svg_rhmargin="74.575" x="68.598,74.576" y="743.988" style="fill:#171615;font-family:DCIJHP+AdvTTec369687;font-size:7.97px;font-style:NORMAL;font-weight:normal;">© </text>
  <text svg_rhmargin="141.091" x="76.649,80.634,84.619,88.604,92.589,94.621,99.514,104.161,107.979,109.985,116.21,121.024,123.59,128.236,132.548,135.696,139.099,141.09199999999998" y="743.988" style="fill:#171615;font-family:DCIJFN+AdvPSPAL-R;font-size:7.97px;font-style:NORMAL;font-weight:normal;">2016 The Authors. </text>
  <text svg_rhmargin="216.941" x="143.093,148.815,151.055,154.617,158.268,161.83,164.07000000000002,166.111,171.419,175.404,178.966,183.366,187.351,190.419,192.474,197.367,199.607,203.169,205.409,208.971,212.956,216.941" y="743.988" style="fill:#171615;font-family:DCIJGO+Advpala-ita;font-size:7.97px;font-style:NORMAL;font-weight:normal;">Global Change Biology </text>
  <text svg_rhmargin="351.509" x="218.948,223.762,228.576,232.975,235.294,237.614,241.017,245.663,249.481,254.375,256.366,260.765,265.164,267.195,269.849,274.16,278.807,283.454,285.507,293.477,295.796,298.116,301.933,306.332,308.355,314.58000000000004,316.632,320.776,325.088,329.735,333.13800000000003,335.171,340.064,342.631,347.524,349.517,351.51" y="743.988" style="fill:#171615;font-family:DCIJFN+AdvPSPAL-R;font-size:7.97px;font-style:NORMAL;font-weight:normal;">Published by John Wiley &amp; Sons Ltd., </text>
  <text x="353.594,357.579" y="743.988" svg_rhmargin="361.564" style="fill:#171615;font-family:DCIJFM+AdvPSPAL-B;font-size:7.97px;font-style:NORMAL;font-weight:normal;">22</text>
  <text x="361.531,363.524,365.556,369.541,373.526,377.511,381.496,385.481,389.466,393.451,397.436" y="743.988" svg_rhmargin="401.421" style="fill:#171615;font-family:DCIJFN+AdvPSPAL-R;font-size:7.97px;font-style:NORMAL;font-weight:normal;">, 2038–2053</text>
  <text svg_rhmargin="518.205" x="204.264,212.079,219.004,222.15599999999998,223.313,233.348,241.854,248.779,254.59,258.19,265.958,274.955,283.461,292.459,300.765,306.57599999999996,310.12,315.041,316.13,323.055,330.472,337.397,342.318,343.432,348.353,349.468,357.973,365.39,370.311,373.837,376.989,378.145,386.029,389.54,394.764,395.879,399.031,400.144,408.054,413.86499999999995,417.408,425.914,433.728,440.653,449.159,457.043,460.554,469.568,478.073,484.998,489.919,491.034,497.864,506.311,513.284,518.205" y="58.57000000000005" style="fill:#171615;font-family:DCIJFN+AdvPSPAL-R;font-size:9.46px;font-style:NORMAL;font-weight:normal;">CLI MATE CHANGE S TRES S ORS I N F I VE OCEAN HOTS POTS </text>
  <text x="527.3,532.032,536.764,541.497" y="58.57000000000005" svg_rhmargin="546.229" style="fill:#171615;font-family:DCIJFM+AdvPSPAL-B;font-size:9.46px;font-style:NORMAL;font-weight:normal;">2045</text>
 </g>
</svg>
