<?xml version="1.0" encoding="UTF-8"?>
<svg height="800.865966796875" width="613.780029296875" xmlns="http://www.w3.org/2000/svg">
 <g style="fill:none;">
  <path d=" M 0.0 753.448974609375 L 603.780029296875 753.448974609375 L 603.780029296875 790.865966796875 L 0.0 790.865966796875 Z " style="fill:none;stroke:#000000;stroke-width:1.0;"/>
  <text svg_rhmargin="198.52" x="40.638,48.208,55.778,63.055,66.145,71.865,77.215,81.135,86.765,90.565,95.995,99.085,103.915,109.695,118.435,121.635,126.125,130.955,133.725,139.15,144.87,148.79,151.56,155.19,157.96,162.79,166.59,172.02,177.78,183.56,187.36,191.28,195.77,198.52" y="781.868" style="fill:#ffffff;font-family:LSWIOM+Corbel;font-size:10.0px;font-style:NORMAL;font-weight:normal;">www.nature.com/scientificreports/ </text>
  <text x="550.106" y="781.868" svg_rhmargin="554.636" style="fill:#839097;font-family:LSWIOM+Corbel;font-size:10.0px;font-style:NORMAL;font-weight:normal;">3</text>
  <text x="40.794,45.642,50.786,52.754000000000005,53.186,58.026,64.026,68.898,70.866,71.298,75.762,77.73,78.162,83.162" y="781.882" svg_rhmargin="84.762" style="fill:#839097;font-family:LSWIOM+Corbel;font-size:8.0px;font-style:NORMAL;font-weight:normal;">SCI enTI fI C </text>
  <text x="84.762,90.218,95.194,100.434,106.738,112.194,117.186" y="781.882" svg_rhmargin="121.802" style="fill:#839097;font-family:RROEBR+Corbel-Bold2;font-size:8.0px;font-style:NORMAL;font-weight:bold;">REPORTS</text>
  <text y="781.882" svg_rhmargin="126.938" x="123.522,125.338" style="fill:#000000;font-family:LSWIOM+Corbel;font-size:8.0px;font-style:NORMAL;font-weight:normal;">| </text>
  <text y="781.882" svg_rhmargin="172.802" x="128.234,130.506,134.442,138.378,142.314,146.25,148.522,149.978,153.914,155.602,159.538,163.474,167.41,171.346" style="fill:#000000;font-family:MyriadPro-It;font-size:8.0px;font-style:ITALIC;font-weight:normal;">(2018) 8:3522 </text>
  <text y="781.882" svg_rhmargin="290.406" x="174.244,176.06,177.502,182.87,188.71,190.678,192.79,196.894,200.998,203.11,207.214,211.318,215.422,219.526,221.726,224.958,229.062,233.166,237.27,241.374,245.478,248.142,252.246,256.35,260.454,263.118,267.222,271.326,275.43,279.534,283.638,286.302" style="fill:#000000;font-family:Corbel2;font-size:8.0px;font-style:NORMAL;font-weight:normal;">| DOI:10.1038/s41598-018-21865-1</text>
  <text x="155.638,158.905,163.675,168.121,174.286,176.194,181.261,187.308,193.293,195.201,199.368,203.364,205.533,210.312,214.137,217.44,219.348,223.227,227.88,232.326,236.421,240.246,242.154,246.474,248.526,252.846,254.754,257.337,261.819,265.158,267.066,271.674,274.896,278.765,282.572,284.876,289.484,291.788,294.587,298.367,301.157,303.569,308.051,312.974,314.882,318.753,323.64,328.392,330.3,334.179,338.832,343.278,347.373,351.198,353.106,357.426,359.478,363.798,368.118,370.026,372.609,377.091,380.43,382.338,387.891,392.211,399.582,401.634,403.542,406.764,410.589,413.847,418.644,422.513,426.383,429.173,431.522,435.617,439.406,441.62,445.094,447.146,449.054,453.266,455.678,463.049,465.506,467.81,471.68,474.983,477.197,480.671,482.723,484.631,488.501,491.723,496.214,500.993,505.88,510.632,512.54,516.86,521.18,523.088,527.579,532.25,534.995,536.903,541.385,544.049,545.957,550.277,554.597" y="74.13800000000003" svg_rhmargin="556.64" style="fill:#000000;font-family:MinionPro-Regular;font-size:9.0px;font-style:NORMAL;font-weight:normal;">show PCC values above 0.7 for precipitation and above 0.95 for T2m, respectively. Similarly, around 14 out of 28 </text>
  <text x="155.638,162.973,167.644,172.396,176.185,178.435,181.738,183.574,186.841,191.611,196.057,202.222,204.058,210.745,216.334,224.353,228.511,233.623,235.459,239.626,243.622,245.79,250.569,254.394,257.697,259.533,264.186,267.975,270.252,274.698,280.863,282.699,287.019,289.071,293.391,295.227,297.81,302.292,305.631,307.467,312.075,315.297,319.167,322.974,325.278,329.886,332.19,334.988,338.768,341.558,343.97,348.452,353.375,355.211,359.081,363.968,368.72,370.556,375.209,378.998,381.275,385.721,391.886,393.722,398.042,400.094,404.414,408.734,410.57,413.153,417.635,420.974,422.81,428.363,432.683,440.054" y="84.13699999999994" svg_rhmargin="442.106" style="fill:#000000;font-family:MinionPro-Regular;font-size:9.0px;font-style:NORMAL;font-weight:normal;">models show NRMSE values below 0.7 for precipitation and below 0.12 for T2m.</text>
  <text x="167.635,173.386,178.357,182.38,184.423,184.927,191.11,196.42,200.779,208.996,213.514,216.916,223.099,229.516,237.733,242.251,244.294,244.798,249.779,253.904,257.405,259.448,259.952,262.952,267.923,271.946,273.98900000000003,274.493,279.497,282.107,286.583,291.554,295.577,299.036,301.979,304.022,304.526,309.791,316.04,322.223,324.266,324.77,328.082,332.6,334.85,339.368,343.886,348.404,352.922,356.234,358.277,358.781,362.851,367.94,372.89,374.933,375.437,377.912,382.56,388.923,390.966,391.47,398.355,404.142,412.359,416.717,422.027,424.07,424.574,427.886,432.404,434.654,439.172,443.69,448.208,452.726,456.038,458.081,458.585,462.95,467.148,469.518,474.495,478.518,480.561,481.065,487.458,489.964,492.964,497.968,500.011,500.515,508.732,514.042,519.829,525.655,532.072,534.115,534.619,540.37,544.888,552.457,554.509" y="94.13599999999997" svg_rhmargin="556.552" style="fill:#000000;font-family:MinionPro-Regular;font-size:9.0px;font-style:NORMAL;font-weight:normal;">The CESM1-CAM5 has the highest PCC (0.9848) and low NRMSE (0.0715) value with MERRA T2m. </text>
  <text x="155.638,162.436,167.01,173.232,177.258,181.482,185.433,188.333,190.511,192.797,197.684,204.245,210.773,217.118,222.086,226.478,229.808,234.146,238.592,240.878,245.786,249.838,253.267,255.553,258.481,263.38,267.331,269.617,272.02,276.594,282.816,286.767,290.154,293.025,295.311,300.504,306.68,312.79,315.077,318.316,322.763,324.941,329.387,333.833,338.279,342.725,345.965,348.251,352.249,357.266,362.144,364.43,369.362,371.9,376.304,381.202,385.153,388.54,391.411,393.697,400.51,406.225,414.37,418.657,423.895,426.181,429.421,433.867,436.045,440.491,444.937,449.383,453.829,457.069,459.355,463.648,467.772,470.07,474.975,478.926,482.355,484.533,486.819,496.416,501.297,504.726,506.904,509.19,515.51,517.943,520.87,525.802,528.088,531.439,535.39,538.776,543.702,547.701,551.699,554.444" y="104.13499999999999" svg_rhmargin="556.487" style="fill:#000000;font-family:MinionPro-Regular;font-size:9.0px;font-style:NORMAL;font-weight:normal;">However, FGOALS-g2 has the lowest PCC (0.8862) and highest NRMSE (0.1977) values. Thus, with respect </text>
  <text x="155.638,158.424,163.113,165.287,170.939,175.358,182.828,185.006,191.09,196.301,200.554,208.672,213.091,216.394,222.478,228.796,236.914,241.333,243.507,245.988,249.39,251.568,254.246,258.834,263.712,268.694,273.545,275.719,278.506,283.195,285.373,290.247,294.133,298.323,302.247,304.425,309.317,313.241,316.73,319.408,323.987,327.475,334.905,338.872,343.723,345.901,350.649,354.573,357.324,360.111,364.035,367.473,369.646,373.613,381.043,385.62,390.568,394.879,397.057,401.148,403.565,405.941,408.115,411.01,415.876,419.8,421.978,429.408,434.174,439.026,442.91,445.256,448.658,450.832,454.798,459.78,464.631,466.805,471.665,478.199,484.694,491.012,495.953,500.318,503.621,507.932,512.351,514.525,517.879,520.773,524.74,529.722,534.543,537.945,540.123,542.523,546.542,549.896,552.74,554.792" y="114.13400000000001" svg_rhmargin="556.835" style="fill:#000000;font-family:MinionPro-Regular;font-size:9.0px;font-style:NORMAL;font-weight:normal;">to T2m CESM1-CAM5 is found to have performed better among all the models and FGOALS-g2 stands last. </text>
  <text x="155.638,159.915,162.39,169.824,172.345,174.714,178.647,182.015,184.294,187.832,189.947,192.008,198.75,202.764,207.579,213.627,221.709,226.092,228.207,230.268,238.35,241.482,247.063,254.013,260.061,264.444,266.505,270.438,275.39,280.205,282.266,288.298,294.41,300.458,305.633,309.962,314.291,318.674,320.789,325.172,327.233,332.077,335.931,340.089,343.977,346.038,348.901,353.736,357.624,359.685,364.815,370.927,376.975,379.036,382.979,387.697,392.207,396.367,400.255,402.316,406.699,408.814,413.197,417.579,419.641,423.575,428.527,433.342,435.403,442.153,447.805,455.887,460.109,465.284,467.345,471.279,474.566,479.122,483.964,488.915,493.73,495.791,500.174,502.289,506.672,508.733,514.989,517.358,520.222,525.091,527.152,532.768,538.42,546.502,554.52" y="124.13300000000004" svg_rhmargin="556.563" style="fill:#000000;font-family:MinionPro-Regular;font-size:9.0px;font-style:NORMAL;font-weight:normal;">Similarly, HadCM3, MIROC5 and ACCESS1.0 have the PCC above 0.75 and NRMSE around 0.6 with TRMM </text>
  <text x="155.638,160.313,163.601,167.538,171.408,173.778,178.453,180.824,183.689,187.536,190.392,192.867,197.416,202.402,204.517,206.587,210.524,215.477,220.292,222.362,228.86,231.992,236.321,240.65,243.917,249.092,253.475,260.432,262.502,267.348,271.338,274.704,276.774,279.64,284.477,288.365,290.435,292.775,297.287,303.447,307.335,310.659,313.467,315.537,320.667,326.782,332.83,334.9,338.077,342.46,344.575,348.958,353.341,357.724,362.107,365.284,367.354,371.292,376.244,381.059,383.129,387.998,390.473,394.815,399.651,403.539,406.864,409.672,411.742,418.492,424.144,432.226,436.452,441.626,443.697,446.874,451.257,453.371,457.754,462.137,466.52,469.697,471.767,475.704,483.106,487.654,492.572,496.847,498.917,502.979,505.367,507.707,509.777,512.643,517.479,521.367,523.437,527.82,532.203,534.273,541.674,546.412,551.227" y="134.13199999999995" svg_rhmargin="554.431" style="fill:#000000;font-family:MinionPro-Regular;font-size:9.0px;font-style:NORMAL;font-weight:normal;">precipitation, and GISS-E2H has the lowest PCC (0.4458) and highest NRMSE (1.365) among all the 28 mod-</text>
  <text x="155.638,159.482,161.786,165.143,167.249,169.278,178.936,182.815,186.092,189.971,192.609,197.146,200.423,204.302,206.336,213.069,217.074,221.88,227.919,235.992,240.366,242.4,244.84,248.197,250.226,254.934,258.813,261.523,264.269,268.148,271.541,273.575,280.965,285.69,290.496,294.34,296.671,298.705,302.63,310.019,314.555,319.461,323.727,325.757,330.131,334.505,336.534,343.924,348.65,353.456,357.3,359.605,362.962,364.991,368.916,373.858,378.664,380.694,387.183,390.306,394.626,398.946,402.204,407.37,411.744,418.692,420.726,423.165,426.522,428.556,431.409,436.234,440.113,442.142,444.473,448.352,451.664,455.021,457.055,460.376,464.931,467.443,469.819,472.15,474.923,479.801,482.132,484.161,491.551,496.277,501.083,504.927,507.258,509.292,513.297,517.158,521.019,525.555,528.832,533.638,536.104,541.009,545.275,547.309,550.055,554.644" y="144.13099999999997" svg_rhmargin="556.687" style="fill:#000000;font-family:MinionPro-Regular;font-size:9.0px;font-style:NORMAL;font-weight:normal;">els. Therefore HadCM3 is better model among 28 models and GISS-E2H is the less skillful model according to </text>
  <text x="155.638,160.246,163.468,167.338,171.144,173.448,178.056,180.36,183.159,186.939,189.729,192.14,196.622,201.545" y="154.13" svg_rhmargin="203.597" style="fill:#000000;font-family:MinionPro-Regular;font-size:9.0px;font-style:NORMAL;font-weight:normal;">precipitation.</text>
  <text x="167.635,170.424,173.241,175.329,181.566,185.562,188.937,191.025,193.679,198.242,203.093,208.051,212.875,214.963,218.149,223.107,227.67,230.487,232.575,235.913,240.754,245.272,251.535,256.53,258.618,263.459,267.356,270.649,274.546,277.732,279.82,282.69,287.541,291.392,294.209,296.297,299.167,304.009,307.906,311.199,315.096,317.184,319.641,323.016,325.104,329.046,334.041,336.129,340.026,343.491,346.784,351.337,354.748,356.836,361.389,364.125,366.213,371.505,375.897,380.289,387.165,389.253,391.737,396.732,398.82,401.691,406.532,410.429,412.517,418.142,422.534,429.977,432.065,436.007,440.965,445.789,447.877,451.828,456.552,461.114,465.857,468.674,470.762,475.154,479.546,484.298,488.69,493.082,497.474,504.35,506.438,508.922,513.917,516.005,519.038,521.755,528.018,532.356,534.444,541.85,545.8,549.742,554.665" y="164.12900000000002" svg_rhmargin="556.708" style="fill:#000000;font-family:MinionPro-Regular;font-size:9.0px;font-style:NORMAL;font-weight:normal;">It was found (not shown here) that there is an error of ~10% in the T2m and about 50–100% in JJAS mean </text>
  <text x="155.638,160.255,163.486,167.364,171.18,173.492,178.109,180.422,183.23,187.018,189.817,192.238,196.729,201.661,203.722,205.675,215.287,219.121,221.074,228.427,232.305,235.581,239.847,242.268,247.128,250.44,252.393,256.884,259.557,261.51,265.344,268.745,271.976,276.467,279.815,281.768,284.189,289.121,291.074,295.736,300.236,303.043,307.858,309.811,312.619,317.398,321.232,323.185,327.954,331.833,335.181,339.06,346.403,350.237,352.937,356.771,360.065,363.377,365.33,369.209,372.44,376.274,378.227,382.889,386.795,390.863,395.353,400.249,405.01,406.963,410.923,414.739,418.555,422.389,427.015,429.822,433.71,438.228,440.514,444.348,446.301,449.649,453.528,458.388,462.537,466.371,468.324,470.745,473.418,475.371,478.179,482.957,486.791,490.175,494.009,495.962,503.306,507.986,512.747,516.544,518.803,522.115,524.068,527.947,531.178,535.012,536.965,539.664,544.263,546.216,550.878,554.703" y="174.12800000000004" svg_rhmargin="556.746" style="fill:#000000;font-family:MinionPro-Regular;font-size:9.0px;font-style:NORMAL;font-weight:normal;">precipitation. The margins of error in both the parameters are beyond acceptable range if these models are to be </text>
  <text x="155.638,159.445,163.927,168.778,172.081,174.493,179.245,183.07,186.292,190.161,194.913,196.749,199.332,203.814,207.153,208.989,211.707,216.378,219.033,223.812,227.034,230.859,232.695,236.448,238.725,241.137,248.481,252.261,254.952,258.777,260.613,265.221,268.443,272.934,275.283,279.153,283.022,285.812,288.224,292.706,297.557,300.86" y="184.12699999999995" svg_rhmargin="302.912" style="fill:#000000;font-family:MinionPro-Regular;font-size:9.0px;font-style:NORMAL;font-weight:normal;">considered for future climate projections.</text>
  <text x="167.635,170.727,175.815,178.236,183.164,185.741,190.147,192.364,194.788,199.27,201.691,205.115,210.042,213.989,216.944,219.55,223.711,226.155,228.576,233.502,237.449,240.269,243.127,247.118,250.677,255.694,259.163,261.584,264.334,268.981,272.487,274.908,277.872,282.809,286.799,289.22,294.04,298.031,300.852,303.709,307.7,311.206,313.627,317.662,322.716,327.633,330.054,332.497,336.488,339.912,343.382,345.803,349.235,353.902,356.524,359.013,361.455,364.34,369.329,371.772,374.193,381.694,386.53,391.449,395.404,397.847,400.268,403.188,406.576,411.224,418.761,421.182,427.333,435.518,438.753,443.986,448.472,450.893,454.929,458.318,462.308,464.729,468.154,473.081,477.027,479.983,482.588,486.75,489.237,491.618,495.915,498.336,502.309,506.957,514.323,519.251,523.286,526.675,530.711,535.629,538.05,544.408,546.878,549.843,554.649" y="194.12599999999998" svg_rhmargin="556.692" style="fill:#000000;font-family:MinionPro-Regular;font-size:9.0px;font-style:NORMAL;font-weight:normal;">In Fig. 2 spatial patterns for the better and less skillful model from CMIP5 are spatially compared with </text>
  <text x="155.638,163.702,168.859,174.493,180.167,186.431,188.438,191.708,195.636,199.555,204.5,208.544,210.808,214.984,218.332,220.766,224.114,226.121,228.752,233.283,236.667,238.674,244.272,248.637,256.053,258.06,261.978,266.915,271.712,273.719,279.317,284.951,293.015,301.079,303.086,307.913,311.742,314.591,318.587,320.594,323.225,327.757,331.141,333.148,337.804,341.075,344.993,348.845,351.198,355.855,358.207,361.055,364.884,367.723,370.18,374.711,379.679,381.776,383.783,387.971,392.795,396.238,398.947,402.943,406.795,410.665,412.672,416.591,419.048,422.432,424.439,427.179,431.049,438.297,443.143,447.013,450.397,454.226,456.93,461.754,465.025,468.895,470.902,473.336,476.684,478.691,483.393,487.932,490.781,495.632,497.639,502.463,507.398,512.195,516.065,519.336,523.206,526.513,529.352,531.809,539.202,543.03,545.771,549.689,554.441" y="204.125" svg_rhmargin="556.484" style="fill:#000000;font-family:MinionPro-Regular;font-size:9.0px;font-style:NORMAL;font-weight:normal;">MERRA reanalysis for T2m and TRMM data for precipitation. Surface air temperature is both underestimated </text>
  <text x="155.638,159.574,164.525,169.34,171.411,175.922,180.083,183.971,187.259,191.147,194.47,197.325,199.8,207.21,211.055,213.811,217.746,222.561,224.631,229.142,233.303,237.191,240.593,242.663,247.478,249.953,254.985,258.873,262.161,266.049,270.867,273.675,275.745,279.033,282.921,287.243,289.718,294.265,299.182,302.548,304.618,310.875,313.244,316.109,320.978,323.453,328.439,330.509,333.374,338.208,342.096,344.166,351.567,356.114,361.031,364.47,369.206,373.754,378.74,380.81,385.625,390.173,397.581,401.517,403.992,408.978,411.048,413.523,418.509,420.579,423.444,428.279,432.167,434.237,438.954,442.842,445.563,448.319,452.207,455.609,457.679,465.08,469.816,474.631,478.485,480.825,482.895,486.072,492.12,497.295,501.519,509.601,513.984,517.251,523.299,529.581,537.663,542.046,545.223,547.293,551.282,554.585" y="214.12400000000002" svg_rhmargin="556.628" style="fill:#000000;font-family:MinionPro-Regular;font-size:9.0px;font-style:NORMAL;font-weight:normal;">and overestimated over different regions within the monsoon domain in the better model (CESM1-CAM5) as </text>
  <text x="155.638,161.768,165.594,167.953,170.266,172.246,176.207,179.546,181.526,184.361,189.168,193.029,195.009,197.322,201.183,204.478,207.817,209.797,213.101,217.638,220.132,222.491,224.804,227.559,232.42,234.733,236.713,244.085,248.792,253.58,257.406,259.719,261.699,264.849,269.646,276.117,282.553,288.808,293.686,297.988,301.228,305.476,309.832,312.982,315.07,317.05,326.69,330.551,332.531,337.221,341.082,343.774,346.502,350.363,353.738,355.718,363.09,367.797,372.585,376.411,378.724,380.704,385.519,390.443,395.231,399.092,402.351,406.212,409.506,412.333,414.781,422.161,425.979,428.706,432.613,437.401,439.381,442.217,447.023,450.884,452.864,457.706,460.154,464.465,469.307,472.547,475.275,479.136,486.373,491.206,495.067,498.442,502.259,504.951,509.766,513.024,516.885,518.865,522.124,525.985,530.279,532.727,537.246,542.134,545.473,547.453,551.972,554.636" y="224.12300000000005" svg_rhmargin="556.679" style="fill:#000000;font-family:MinionPro-Regular;font-size:9.0px;font-style:NORMAL;font-weight:normal;">well as the less skillful model (FGOALS-g2). The better model underestimated the high-temperature regions of </text>
  <text x="155.638,161.83,165.169,169.048,173.512,175.951,179.902,181.954,183.808,186.733,190.072,193.942,198.865,200.917,202.771,208.963,212.302,216.181,220.645,223.084,226.954,231.877,233.731,238.123,242.002,245.953,248.005,249.859,255.232,259.021,263.152,265.006,269.488,272.152,274.006,279.478,283.303,288.154,292.366,296.362,298.585,300.637,302.491,306.361,311.248,316.0,317.854,320.779,325.666,330.418,332.857,336.727,341.65,343.504,350.281,354.088,357.967,361.837,366.76,368.614,372.485,377.372,382.124,383.978,386.255,390.701,396.866,400.07,402.761,406.586,413.785,418.582,422.407,425.746,429.526,432.181,436.96,440.182,444.007,445.861,449.083,452.908,457.164,459.576,464.058,468.909,472.212,474.066,478.548,481.212,483.066,488.475,490.851,495.503,499.328,502.073,503.927,507.041,510.416,514.286,518.111,519.965,524.726,527.138,531.377,533.429,535.312,539.632,543.583,546.697,549.109,551.521,554.635" y="234.12199999999996" svg_rhmargin="556.678" style="fill:#000000;font-family:MinionPro-Regular;font-size:9.0px;font-style:NORMAL;font-weight:normal;">Arabia, Iran, Arabian Sea, Bay of Bengal, and Indian Ocean and low-temperature regions of Tibet (see Fig. 2a(ii) </text>
  <text x="155.638,159.477,164.333,169.058,170.763,173.846,176.164,180.3,183.387,186.469,188.494,190.2,194.758,198.625,204.763,206.467,209.659,213.457,217.682,220.063,224.514,229.334,232.606,234.311,236.557,238.983,243.335,247.133,248.838,253.199,257.659,262.3,265.067,269.806,273.604,276.965,281.861,283.567,286.46,291.317,296.042,298.449,302.373,304.078,307.314,312.053,316.468,322.606,324.311,328.15,333.046,334.751,339.167,343.23,347.024,350.215,354.013,357.24,359.999,362.38,369.693,373.442,376.102,379.896,381.601,383.986,388.878,390.583,393.351,398.09,401.888,403.593,406.253,410.051,417.219,421.985,425.783,429.09,432.84,435.463,440.215,443.406,447.204,448.909,453.045,456.884,460.246,462.654,466.404,469.162,471.543,475.994,480.89,482.911,484.616,488.41,491.637,496.402,500.242,504.017,506.426,510.39,512.681,514.864,518.964,520.674,525.088,529.153,532.946,536.258,537.964,540.344,545.065,547.725,551.523" y="244.12099999999998" svg_rhmargin="554.727" style="fill:#0000ff;font-family:MinionPro-Regular;font-size:9.0px;font-style:NORMAL;font-weight:normal;">and (iv)). Few regions like Southern India show an overestimate in the temperature variation, especially over inte-</text>
  <text x="155.638,159.013,161.407,165.871,169.192,170.911,176.842,180.695,184.07,188.948,192.71,195.491,199.469,203.915,207.848,209.567,212.663,216.02,219.872,223.679,225.398,230.141,232.535,236.756,238.79,240.508,244.81,248.743,251.839,254.17,258.319,261.415,264.511,266.545,268.264,271.171,276.076,277.795,280.576,285.328,289.135,290.854,293.113,296.92,300.16,303.445,305.164,308.413,312.895,315.334,317.638,319.897,322.597,327.403,329.662,331.381,338.698,343.351,348.085,351.856,354.115,355.834,358.615,363.367,367.174,368.893,372.682,376.489,381.223,383.896,387.703,391.024,392.743,397.207,399.853,401.572,406.36,408.754,413.011,417.799,419.518,422.191,425.998,433.18,437.958,441.765,445.086,448.848,451.485,456.246,459.45,463.257,464.976,469.404,473.481,477.288,480.609,482.328,485.235,490.104,494.838,497.259,501.111,506.016,507.735,510.976,515.701,520.336,524.125,528.59,533.324,536.096,538.49,543.359,547.166,551.9,554.645" y="254.12" svg_rhmargin="556.688" style="fill:#000000;font-family:MinionPro-Regular;font-size:9.0px;font-style:NORMAL;font-weight:normal;">rior Karnataka (see Fig. 2a(iv)). In the less skillful model the center of high temperature over Indian subcontinent </text>
  <text x="155.638,158.016,161.31,163.038,166.298,171.095,173.498,178.674,182.536,187.279,189.007,193.428,197.55,199.278,203.589,206.667,208.395,211.079,215.66,217.388,220.18,224.943,228.758,230.486,233.854,238.338,243.001,245.793,250.556,254.426,258.343,261.594,264.33,266.058,270.801,273.204,276.419,280.282,284.144,286.926,289.329,293.804,298.718,300.446,303.551,306.919,310.781,314.597,316.325,321.077,323.48,327.712,329.755,331.516,335.827,339.769,342.874,345.277,348.382,350.11,353.973,358.853,363.596,365.324,368.429,370.832,373.235,375.638,378.743,381.848,383.891,385.619,390.831,394.953,396.681,400.544,405.424,410.167,411.895,414.191,418.054,421.314,425.445,429.209,431.252,432.98,435.771,440.534,444.35,446.078,450.724,454.54,457.187,459.87,463.686,467.016,468.744,476.072,480.735,485.478,489.26,491.528,493.256,498.028,501.945,505.239,506.967,510.793,514.566,519.175,521.823,526.593,529.807,533.67,538.413,540.141,546.226,550.007,552.321,554.598" y="264.119" svg_rhmargin="556.641" style="fill:#000000;font-family:MinionPro-Regular;font-size:9.0px;font-style:NORMAL;font-weight:normal;">is shifted by 5° to the southeast direction (see Fig. 2a(i) and (iii)). By and large, the better model has captured well </text>
  <text x="155.638,158.429,163.19,167.006,168.734,173.19,176.404,181.03,184.972,189.715,191.443,194.018,197.888,201.659,204.305,209.075,212.288,216.104,219.398,221.126,225.6,228.255,229.983,232.666,236.482,243.674,248.462,252.278,255.608,259.38,262.026,266.796,270.009,273.825,275.553,280.296,282.673,285.923,288.704,292.089,294.456,298.921,303.583,306.365,308.768,313.241,318.155,319.883,322.286,327.2,328.928,331.719,336.48,340.296,342.024,345.885,349.099,352.969,356.911,358.639,363.113,365.768,367.496,371.358,376.245,380.233,382.438,386.56,389.854,392.231,395.525,397.253,401.717,406.38,409.116,410.844,413.635,418.396,422.212,423.94,427.288,431.149,438.475,442.291,444.019,447.844,451.706,456.62,461.499,465.982,468.718,470.446,475.09,478.906,480.634,483.982,487.844,490.247,494.99,496.718,499.293,503.766,507.096,508.824,513.423,516.637,520.498,524.296,526.591,531.191,533.486,536.277,540.048,542.829,545.232,549.706,554.629" y="274.11800000000005" svg_rhmargin="556.672" style="fill:#000000;font-family:MinionPro-Regular;font-size:9.0px;font-style:NORMAL;font-weight:normal;">the broad features of temperature distribution in the area of analysis but the same cannot be said for precipitation </text>
  <text x="155.638,158.752,162.676,165.979,167.815,172.567,174.952,178.326,182.196,186.948,190.206,193.581,197.451,202.203,204.039,208.692,212.481,214.758,219.204,225.369,228.483" y="284.11699999999996" svg_rhmargin="230.535" style="fill:#000000;font-family:MinionPro-Regular;font-size:9.0px;font-style:NORMAL;font-weight:normal;">(as discussed below).</text>
  <text x="167.635,177.271,181.132,183.103,187.789,191.65,194.338,197.062,200.923,204.298,206.269,213.638,218.342,223.13,226.951,229.264,231.235,234.385,241.097,245.084,249.872,255.893,263.948,268.304,271.454,273.425,278.24,283.159,287.947,291.808,295.063,298.924,302.215,305.038,307.486,314.863,318.677,321.4,325.261,328.6,330.571,333.403,338.207,342.068,344.039,348.68,351.935,355.839,359.681,362.019,366.66,368.997,371.829,375.642,378.465,380.913,385.429,390.388,392.359,396.837,400.965,404.826,408.201,410.172,413.005,417.808,421.669,423.64,431.539,435.4,438.692,441.416,445.277,448.703,453.662,455.633,462.075,466.887,470.7,473.481,476.82,478.908,480.879,487.663,490.111,497.487,501.516,503.854,507.676,511.843,515.746,520.705,522.676,525.292,529.996,534.52,537.352,542.194,544.685,547.04,549.323,552.662,554.714" y="294.116" svg_rhmargin="556.757" style="fill:#000000;font-family:MinionPro-Regular;font-size:9.0px;font-style:NORMAL;font-weight:normal;">The better model (HadCM3) underestimates the precipitation over the Western Ghats, Himalayan foothills, </text>
  <text x="155.638,159.603,164.584,169.431,171.6,176.923,181.797,185.284,192.714,196.632,200.102,204.021,206.19,214.07,218.655,223.529,228.375,231.269,235.233,237.74,242.685,246.083,248.252,251.46,254.93,258.894,262.814,264.983,269.838,272.344,276.677,278.824,280.999,285.414,290.08,293.289,295.795,298.302,301.51,303.679,307.644,312.625,317.476,319.645,322.854,325.297,329.559,332.767,334.914,337.083,346.78,350.7,352.869,355.24,359.16,362.512,365.91,368.079,371.44,376.035,378.586,381.003,383.374,386.187,391.105,393.476,395.645,403.074,407.84,412.686,416.57,418.941,421.11,424.319,430.848,434.012,438.372,442.733,446.031,451.238,455.652,462.641,464.787,466.956,470.165,473.634,477.598,481.518,483.687,488.542,491.049,495.381,497.528,499.699,504.114,508.78,511.989,514.495,517.002,519.508,522.716,524.885,528.85,533.831,538.682,540.851,544.06,548.321,551.53,554.644" y="304.115" svg_rhmargin="556.687" style="fill:#000000;font-family:MinionPro-Regular;font-size:9.0px;font-style:NORMAL;font-weight:normal;">and Burmese Mountains (see Fig. 2b(ii) and (iv). The less skillful model (GISS-E2H; (see Fig. 2b(iii) and (v)) </text>
  <text x="155.647,160.426,165.313,170.065,173.89,177.112,180.937,184.195,186.985,189.397,196.74,200.52,203.211,207.036,210.339,212.193,214.992,219.762,223.587,225.441,230.049,233.271,237.141,240.948,243.252,247.86,250.164,252.963,256.743,259.532,261.944,266.426,271.349,273.203,277.649,281.744,285.569,288.908,290.762,297.512,299.924,307.267,311.263,313.567,317.356,321.487,325.411,328.714,330.766,332.62,336.427,340.252,345.004,347.794,351.133,355.129,357.406,359.26,362.185,367.072,371.824,374.263,378.214,380.266,382.12,387.493,391.282,395.413,397.267,401.749,404.413,406.267,411.739,415.564,420.415,424.627,428.622,430.899,432.753,436.623,441.51,446.262,448.116,451.995,455.919,459.177,461.868,465.693,469.086,474.009,475.863,478.788,483.675,488.427,490.866,494.736,499.659,501.513,508.29,512.097,515.976,519.846,524.768,526.82,528.674,531.392,534.137,535.991,540.438,544.532,548.357,551.44" y="314.114" svg_rhmargin="554.644" style="fill:#000000;font-family:MinionPro-Regular;font-size:9.0px;font-style:NORMAL;font-weight:normal;">underestimates the precipitation over Himalayas, central India, Bay of Bengal and eastern Indian Ocean. It over-</text>
  <text x="155.647,159.445,162.673,165.433,167.818,175.131,178.881,181.542,185.34,188.616,190.326,193.094,197.834,201.632,203.342,207.919,211.111,214.951,218.731,221.004,225.582,227.856,230.624,234.374,237.133,239.518,243.97,248.866,250.576,254.992,259.056,262.854,266.166,267.872,270.641,275.38,279.178,280.888,284.233,288.693,293.334,296.103,300.671,306.734,310.532,313.76,316.478,318.188,320.947,323.221,327.91,329.62,334.071,336.708,338.418,341.312,346.17,350.895,353.303,357.227,358.937,362.777,367.634,372.359,374.069,379.267,384.019,387.382,394.687,398.485,401.829,405.627,407.337,415.092,419.552,424.304,429.026,431.794,435.634,438.019,442.84,446.116,448.141,449.846,456.542,461.4,465.198,466.908,471.359,473.996,475.706,478.474,483.214,487.012,488.722,493.578,498.039,500.808,504.656,509.135,511.385,515.183,516.893,519.662,524.441,526.826,531.647,535.832,539.108,540.818,543.587,548.335,552.084,554.829" y="324.113" svg_rhmargin="556.872" style="fill:#000000;font-family:MinionPro-Regular;font-size:9.0px;font-style:NORMAL;font-weight:normal;">estimates the precipitation over the southwest tip of India and Burmese Mountains. One of the notable things that </text>
  <text x="155.647,159.516,163.421,168.38,170.356,175.044,178.905,180.885,185.465,190.073,193.483,197.344,200.979,205.109,209.013,213.801,215.777,218.566,221.823,226.34,233.747,235.723,240.52,242.968,247.241,249.329,251.29,255.646,260.254,262.23,264.65,267.989,269.964,272.798,277.612,281.428,284.209,286.189,289.022,293.827,297.688,299.668,307.037,311.743,316.531,320.355,322.668,324.648,328.436,330.749,335.375,338.785,342.61,344.859,349.026,351.001,353.619,358.181,360.538,362.851,367.332,373.533,376.872,378.847,381.681,386.486,390.347,392.323,397.111,400.972,408.35,412.255,415.512,419.381,423.196,426.022,428.47,432.987,437.946,439.921,442.234,444.682,449.604,453.465,455.441,459.958,462.658,464.633,469.475,471.923,476.233,481.075,483.05,487.693,490.95,494.856,498.699,501.038,505.68,508.019,510.853,514.668,517.493,519.941,524.458,529.417,531.393,534.65,538.511,542.803,545.251,549.767,554.691" y="334.112" svg_rhmargin="556.734" style="fill:#000000;font-family:MinionPro-Regular;font-size:9.0px;font-style:NORMAL;font-weight:normal;">can be observed from Fig. 2b is that the model closely follows the demarcation line of high precipitation region </text>
  <text x="155.647,158.433,163.117,165.286,167.658,172.198,178.458,180.627,185.329,188.646,192.61,196.512,198.91,203.613,206.011,208.905,212.779,215.664,218.17,222.747,227.765,229.934,233.251,237.171,241.521,244.032,248.609,253.626,255.773,257.942,260.961,265.979,268.148,272.193,274.362,277.68,281.563,283.935,287.926,292.188,296.152,300.999,303.838,306.007,309.36,312.109,316.983,321.766" y="344.111" svg_rhmargin="325.897" style="fill:#000000;font-family:MinionPro-Regular;font-size:9.0px;font-style:NORMAL;font-weight:normal;">to low precipitation region. In a relevant study</text>
  <text x="325.985,328.855" y="341.078" svg_rhmargin="331.663" style="fill:#0000ff;font-family:MinionPro-Regular;font-size:5.85px;font-style:NORMAL;font-weight:normal;">24</text>
  <text x="331.724,333.871,336.04,338.933,343.798,347.717,349.886,354.778,358.697,362.185,364.862,369.439,372.926,380.365,384.329,389.311,393.212,397.132,399.301,403.877,406.636,408.805,412.706,417.292,422.057,426.805,429.176,433.141,437.992,440.161,447.59,452.356,457.202,461.086,463.431,466.828,468.997,472.961,476.279,480.197,482.366,486.332,491.322,495.413,497.721,501.947,505.821,509.786,514.632,516.801,520.766,525.747,530.594,532.763,535.44,540.027,544.9,549.882,554.634" y="344.138" svg_rhmargin="556.677" style="fill:#000000;font-family:MinionPro-Regular;font-size:9.0px;font-style:NORMAL;font-weight:normal;">, the performance of coupled models are analyzed and found </text>
  <text x="155.639,157.943,161.813,165.08,169.22,173.045,174.881,179.345,181.784,185.708,189.082,192.907,196.21,198.046,200.458,205.381,207.217,210.016,214.785,218.61,220.446,227.78,231.659,235.529,240.452,242.288,245.627,249.497,251.909,256.832,259.496,263.492,265.814,268.091,269.927,274.688,278.468,281.123,283.814,287.639,291.032,295.955,297.791,301.094,303.506,310.705,315.529,317.833,321.613,324.304,328.174,332.926,334.762,339.19,343.321,345.157,347.956,352.726,356.551,358.387,365.722,370.393,375.145,378.934,381.184,384.487,386.539,388.375,397.978,401.875,406.006,407.842,411.064,414.889,419.686,424.168,427.596,430.287,434.157,438.909,440.745,443.544,448.323,452.103,454.848,456.9,458.736,461.148,466.071,467.907,472.046,475.871,480.758,484.583,487.922,491.918,494.141,496.193,498.029,501.368,505.238,507.65,512.573,515.237,519.233,521.554,523.831,525.667,530.113,534.209,538.034,541.373,543.209,546.007,550.778,554.603" y="354.137" svg_rhmargin="556.646" style="fill:#000000;font-family:MinionPro-Regular;font-size:9.0px;font-style:NORMAL;font-weight:normal;">large biases in the mean rainfall pattern simulated by the models. They reported that, in general, rainfall over the </text>
  <text x="155.639,159.511,164.022,168.829,172.611,175.304,179.788,183.183,185.623,189.62,191.897,193.841,196.768,201.657,206.409,208.85,212.722,217.645,219.589,226.367,230.174,234.055,237.927,242.85,244.794,250.959,254.886,258.189,260.133,264.58,268.677,272.502,275.726,279.551,282.811,285.603,288.015,295.36,299.142,301.835,305.707,310.407,312.459,314.403,320.633,325.404,329.229,332.453,336.334,340.26,343.563,345.507,347.813,350.557,352.501,358.667,362.592,365.895,367.839,372.618,377.507,382.259,386.084,389.308,393.133,396.393,399.185,401.596,408.942,412.724,415.417,419.289,424.041,425.985,430.433,434.529,438.354,441.693,443.637,446.438,451.21,455.035,456.979,459.906,464.794,469.547,471.987,475.859,480.782,482.726,485.986,490.731,495.303,498.507,502.314,506.797,511.551,514.343,516.755,521.644,525.469,530.223,532.968,535.02,536.964,546.568,550.467,554.598" y="364.136" svg_rhmargin="556.641" style="fill:#000000;font-family:MinionPro-Regular;font-size:9.0px;font-style:NORMAL;font-weight:normal;">equatorial Indian Ocean was overestimated, whereas it was underestimated over the Indian sub-continent. They </text>
  <text x="155.639,158.849,162.665,167.451,171.921,175.338,178.018,181.876,186.619,188.347,191.134,195.901,199.67,202.406,204.134,209.01,213.48,218.356,222.172,223.9,228.371,231.026,232.754,235.541,240.299,244.115,245.843,253.167,257.826,262.569,266.346,268.585,271.879,273.607,279.689,283.505,286.715,290.531,292.259,296.126,300.625,302.893,306.709,308.437,311.116,315.697,317.425,320.671,325.441,329.239,333.037,336.853,340.099,343.393,346.1,350.912,353.222,355.425,359.547,361.275,364.569,366.972,374.16,378.972,381.265,385.033,387.712,391.528,393.256,396.043,400.802,404.618,406.346,413.678,417.446,419.784,424.254,427.584,429.312,431.883,435.751,439.519,442.162,446.932,450.142,453.958,457.252,458.98,463.451,466.106,467.834,470.748,475.623,480.366,482.794,486.652,491.566,493.294,500.618,505.088,509.928,513.291,517.95,522.42,527.334,529.062,532.392,536.251,538.654,543.568,546.223,550.207,552.517,554.794" y="374.135" svg_rhmargin="556.837" style="fill:#000000;font-family:MinionPro-Regular;font-size:9.0px;font-style:NORMAL;font-weight:normal;">reported that none of the models were able to successfully simulate the major features of Indian monsoon rainfall </text>
  <text x="155.639,160.436,162.869,166.175,169.014,172.455,174.879,179.401,184.12,186.958,189.415,193.946,198.914,201.011,203.018,206.324,211.148,214.949,219.8,221.807,225.78,229.128,231.135,233.981,238.8,242.67,244.677,252.07,256.066,260.359,262.816,270.063,274.887,282.303,284.31,288.804,292.948,296.818,300.202,302.209,307.629,311.467,315.643,317.65,322.181,324.89,326.897,332.417,336.287,341.186,345.443,349.487,351.809,353.816,357.734,362.67,367.467,369.474,373.47,378.162,380.559,385.09,387.547,392.515,394.972,399.871,404.128,406.135,411.071,415.601,419.078,421.926,426.744,430.672,434.643,437.95,440.74,442.747,445.721,450.655,455.452,457.94,461.936,463.943,467.861,472.796,477.593,479.6,485.742,489.612,492.918,495.708,497.715,501.567,506.25,510.223,513.529,516.319,518.326,522.246,527.18,531.977,533.984,541.401,543.857,548.826,551.282" y="384.134" svg_rhmargin="554.486" style="fill:#000000;font-family:MinionPro-Regular;font-size:9.0px;font-style:NORMAL;font-weight:normal;">distribution, such as the maximum over Bay of Bengal and adjoining northeast India and west coast and mini-</text>
  <text x="155.639,162.866,167.672,175.07,177.041,181.514,185.636,189.488,192.854,194.825,201.539,210.305,212.276,215.228,220.142,224.921,227.387,231.365,233.336,237.233,242.147,246.926,248.897,252.299,256.817,261.515,264.34,269.137,273.043,276.994,280.279,283.051,285.022,287.974,292.888,297.667,300.132,304.11,306.189,308.16,317.79,321.642,323.613,327.519,332.199,336.672,340.794,344.646,346.617,350.514,355.437,359.46,361.701,365.859,369.189,371.601,374.931,376.902,379.341,384.255,389.034,391.473,395.334,399.14,401.858,405.71,409.04,411.011,413.837,418.643,422.45,425.222,427.193,434.555,439.252,444.031,447.847,450.151,452.122,454.561,461.788,466.423,469.672,474.145,478.266,482.118,489.48,493.332,498.111,500.883,502.854,505.266,508.596,510.567,515.481,519.378,523.212,527.064,530.349,533.733,537.63,541.257,545.415,547.386,550.103,554.693" y="394.133" svg_rhmargin="556.736" style="fill:#000000;font-family:MinionPro-Regular;font-size:9.0px;font-style:NORMAL;font-weight:normal;">mum over NW India and southeast India. The above analysis indicates that model improvement is necessary to </text>
  <text x="155.639,159.779,163.604,168.491,172.316,175.655,179.434,182.125,185.95,187.723,191.53,196.012,200.935,205.75,210.502,214.327,219.214,223.021,226.846,228.615,231.027,235.95,237.723,240.441,245.112,247.767,252.546,255.768,259.593,261.366,265.974,269.196,273.687,276.036,279.905,283.775,286.565,288.977,293.459,298.31,301.613,303.665,305.433,313.3,317.125,318.894,323.673,327.462,331.557,335.382,337.155,340.53,344.319,346.596,350.466,354.335,357.026,360.896,365.648,367.421,374.045,380.03,386.249,391.838,393.611,399.596,405.815,413.834" y="404.132" svg_rhmargin="418.154" style="fill:#000000;font-family:MinionPro-Regular;font-size:9.0px;font-style:NORMAL;font-weight:normal;">generate confidence in future projections. We have selected NCAR CAM5</text>
  <text x="418.131,420.939" y="401.078" svg_rhmargin="423.747" style="fill:#0000ff;font-family:MinionPro-Regular;font-size:5.85px;font-style:NORMAL;font-weight:normal;">25</text>
  <text y="404.138" svg_rhmargin="556.708" x="425.52,428.103,432.585,435.924,437.697,440.415,445.194,448.623,451.422,456.192,460.017,463.356,465.129,468.387,471.042,475.821,480.51,484.641,486.414,489.717,492.129,497.016,500.823,504.648,506.421,508.725,511.47,513.243,518.022,521.946,525.249,527.017,529.816,534.586,538.411,540.184,544.837,548.662,551.92,554.665" style="fill:#000000;font-family:MinionPro-Regular;font-size:9.0px;font-style:NORMAL;font-weight:normal;">for further study since it has the best </text>
  <text x="155.637,161.19,165.51,172.881,174.717,178.02,180.432,187.631,192.455,194.759,198.539,201.329,203.741,208.223,213.074,216.377,218.213,222.083,229.418,233.9,238.751,242.963,244.799,247.598,252.368,256.193,258.029,262.349,266.669,268.505,274.49,282.509,285.578,290.645,294.965,296.801,304.136,308.807,313.559,317.348,319.598,322.901,324.737,328.607,333.494,338.246,340.082,344.879,348.704,352.097,354.68,359.162,362.554,369.853,373.156,374.992,378.214,382.003,384.307,388.087,390.877,393.226,397.321,401.11,403.324,407.455,409.291,415.384,419.173,421.495,423.772,425.608,428.191,432.673,436.012,437.848,442.456,445.678,449.547,453.354,455.658,460.266,462.57,465.369,469.149,471.939,474.351,478.833,483.756,485.592,489.516,492.819,494.655,500.748,504.537,506.859,509.082" y="414.137" svg_rhmargin="511.134" style="fill:#000000;font-family:MinionPro-Regular;font-size:9.0px;font-style:NORMAL;font-weight:normal;">T2m simulations among the 28 CMIP5 models and performs relatively well for precipitation as well.</text>
  <text svg_rhmargin="262.298" x="155.638,161.384,166.484,172.004,176.214,178.674,182.442,184.902,189.788,192.248,196.016,201.126,202.856,206.624,212.134,213.864,217.334,222.434,226.644,232.154,234.653,240.073,243.842,246.302,251.812,257.332,260.238,262.298" y="434.3" style="fill:#000000;font-family:RROEBR+Corbel-Bold2;font-size:10.0px;font-style:NORMAL;font-weight:bold;">Sensitivity to resolution. </text>
  <text x="270.214,276.309,280.764,285.59,288.866,291.251,295.976,299.774,303.141,305.526,310.351,314.536,316.246,320.217,322.513,324.763,326.473,329.246,333.99,337.788,339.498,346.808,351.453,356.178,359.941,362.166,365.442,367.152,371.608,374.245,375.955,381.913,389.905,392.947,397.987,402.28,403.99,407.745,410.463,412.173,416.898,419.283,424.225,428.023,431.22,435.018,439.744,442.462,444.172,447.369,451.167,454.517,459.018,461.162,465.807,468.572,470.957,475.414,480.24,483.516,485.541,487.251,494.56,499.123,502.356,505.074,506.784,511.241,513.878,515.588,518.362,523.107,526.904,528.615,535.924,540.569,545.294,549.058,551.282,554.585" y="434.3" svg_rhmargin="556.628" style="fill:#000000;font-family:MinionPro-Regular;font-size:9.0px;font-style:NORMAL;font-weight:normal;">Considering all the models of CMIP5 at different resolutions, most of the models </text>
  <text x="155.635,160.414,164.203,168.397,170.809,175.66,179.872,181.798,184.075,188.521,194.686,196.612,199.834,203.659,207.033,211.56,213.73,218.401,221.19,223.602,228.084,233.007,234.933,238.2,242.97,247.416,253.581,255.507,257.811,261.681,264.948,269.088,272.913,276.252,278.178,282.642,285.08,289.004,292.307,294.233,298.679,302.775,306.6,309.939,311.86,314.164,318.034,322.921,327.619,329.671,331.597,341.065,345.817,349.12,351.172,353.098,355.897,360.667,364.492,366.418,369.64,373.465,376.84,381.367,383.536,388.207,390.996,393.408,397.89,402.813,404.739,408.114,411.984,415.809,423.108,426.411,428.337,431.028,435.618,437.544,442.197,444.5,448.29,452.421,454.347,458.217,463.14,465.066,467.478,474.678,479.475,483.957,487.386,490.185,494.055,498.807,501.552,503.478,506.7,511.227,513.504,517.329,519.255,523.701,527.796,531.621,534.96,536.882,539.186,543.056,547.943,552.641,554.693" y="444.299" svg_rhmargin="556.736" style="fill:#000000;font-family:MinionPro-Regular;font-size:9.0px;font-style:NORMAL;font-weight:normal;">having low resolution show larger bias over land. Thus, the resolution seems to play an important role over land. </text>
  <text x="155.635,165.318,169.224,172.527,176.433,179.096,183.659,186.961,190.812,192.945,195.069,197.562,202.566,204.69,207.569,212.456,214.921,218.305,220.425,223.88,227.83,231.78,234.65,237.143,241.705,246.709,248.842,250.966,258.381,263.133,267.966,271.835,274.193,276.312,279.767,283.673,288.604,291.988,294.372,297.243,299.673,303.947,306.331,309.183,313.395,315.519,318.29,322.961,325.085,327.964,332.814,336.72,338.844,342.677,347.536,351.487,356.418,360.639,364.545,366.669,369.162,374.166,376.29,379.169,384.019,387.925,390.049,394.899,399.461,402.934,405.427,409.288,413.85,418.683,421.562,425.638,427.996,430.116,433.419,437.325,440.78,445.387,447.637,452.388,455.258,457.751,462.314,467.318,469.438,471.903,475.287,477.406,480.745,483.48,488.34,493.173,495.666,499.617,504.396,506.529,508.653,511.316,515.878,519.298,521.422,527.056,531.457,538.909,541.033,544.983,549.95,554.702" y="454.298" svg_rhmargin="556.745" style="fill:#000000;font-family:MinionPro-Regular;font-size:9.0px;font-style:NORMAL;font-weight:normal;">Therefore, in this section, model sensitivity to the change in the horizontal resolution is studied, for T2m and </text>
  <text x="155.635,160.295,163.569,167.49,171.351,173.707,178.367,180.723,183.573,187.406,190.248,192.714,197.248,202.225,204.245,209.058,212.98,216.373,220.295,227.682,231.561,234.304,238.183,241.52,244.877,246.983,249.003,254.169,259.072,262.499,266.378,273.711,278.272,280.603,284.482,286.503,291.037,293.755,295.776,299.133,301.599,305.901,307.921,315.308,319.187,326.52,331.225,335.104,338.441,341.798,343.818,346.986,353.231,355.586,358.437,363.297,365.317,370.123,372.589,377.609,381.488,384.762,388.641,393.445,396.244,398.265,400.731,405.708,408.064,410.906,413.397,417.445,419.776,421.796,425.657,430.191,435.13,439.936,442.292,445.133,447.599,452.133,457.037,460.394,462.414,466.39,469.747,471.768,476.574,479.011,482.438,486.36,491.164,494.473,497.9,501.822,506.628,508.649,511.115,516.092,518.112,522.556,526.478,530.399,533.242,535.708,540.242,545.219,547.239,551.613,554.727" y="464.297" svg_rhmargin="556.77" style="fill:#000000;font-family:MinionPro-Regular;font-size:9.0px;font-style:NORMAL;font-weight:normal;">precipitation parameters. Ensemble of six members (with different initial conditions as discussed in Section 4) </text>
  <text x="155.635,158.294,162.853,166.268,168.374,172.33,176.357,180.187,185.069,187.175,190.474,194.375,197.827,202.429,204.676,209.422,212.289,214.777,219.336,224.335,226.441,228.903,232.282,234.388,238.272,242.83,247.758,251.137,253.626,258.454,262.356,265.654,269.6,274.428,276.534,279.194,283.752,287.167,289.273,292.149,296.995,300.896,303.002,306.336,309.068,313.922,318.689,322.239,324.367,326.473,330.671,334.879,338.213,340.981,344.881,352.302,356.158,359.025,361.513,365.397,367.503,369.991,377.268,381.952,385.251,389.773,393.945,397.845,405.257,409.158,413.987,416.808,418.914,421.403,426.402,428.508,431.384,436.23,440.132,442.238,445.617,448.106,455.383,460.283,462.663,466.519,469.386,471.874,476.433,481.432,483.538,488.376,492.232,494.964,497.731,501.633,505.101,510.101,512.207,515.396,520.234,522.722,527.038,529.166,531.277,535.669,538.859,540.965,544.912,549.875,554.627" y="474.296" svg_rhmargin="556.67" style="fill:#000000;font-family:MinionPro-Regular;font-size:9.0px;font-style:NORMAL;font-weight:normal;">for each resolution is considered for the study. Systematic improvement in the simulation pattern (Fig. 3) and </text>
  <text x="155.626,158.887,162.798,167.481,172.296,176.207,179.037,181.485,186.006,190.965,192.945,195.393,200.352,202.332,206.837,209.315,213.279,216.693,220.554,223.893,225.873,229.023,233.82,236.268,240.547,242.635,244.663,249.019,253.006,256.156,258.136,260.758,265.281,268.656,270.636,275.329,279.86,282.699,287.541,289.521,292.359,297.17,301.031,303.011,307.811,311.722,315.097,319.006,326.381,330.242,332.973,336.834,340.159,343.498,345.478,347.903,351.242,353.222,357.807,362.415,365.83,369.691,373.33,377.465,381.375,386.163,388.143,394.374,396.718,399.557,404.399,406.379,408.827,413.755,417.598,420.859,424.779,428.743,432.157,436.018,437.998,440.446,445.405,447.385,450.647,454.508,457.922,462.489,464.698,469.409,472.239,474.687,479.208,484.167,486.255,488.235,497.91,500.335,503.674,505.654,508.102,515.341,519.989,523.252,527.737,531.873,535.734,543.108,546.969,551.761,554.506" y="484.295" svg_rhmargin="556.549" style="fill:#000000;font-family:MinionPro-Regular;font-size:9.0px;font-style:NORMAL;font-weight:normal;">reduction in biases (Fig. 4a) for both the parameters is observed with increase in resolution. This improvement </text>
  <text x="155.626,158.06,163.006,164.968,167.789,172.582,176.429,178.391,181.721,184.155,191.378,196.225,198.55,202.354,205.166,207.601,212.105,217.051,219.013,223.518,226.205,228.167,231.447,236.249,239.664,242.351,246.329,250.157,254.009,255.971,260.161,264.053,267.469,269.93,273.833,278.364,280.664,284.511,287.837,289.799,297.165,300.977,305.13,307.092,311.768,315.615,317.577,321.38,324.057,326.87,330.285,332.684,337.18,341.874,344.587,348.48,353.254,355.216,357.93,362.542,364.504,366.939,374.161,378.792,382.036,386.505,390.623,394.515,399.29,401.252,404.497,408.344,412.975,416.22,420.067,423.465,427.312,432.087,434.908,438.711,441.523,443.958,448.462,453.408,455.37,459.874,462.561,464.523,469.027,472.272,476.885,481.164,484.526,488.328,493.004,497.626,501.779,503.741,507.634,512.544,517.319,519.281,523.11,527.768,531.714,534.996,537.817,540.117,542.551,547.461,551.308,554.611" y="494.294" svg_rhmargin="556.654" style="fill:#000000;font-family:MinionPro-Regular;font-size:9.0px;font-style:NORMAL;font-weight:normal;">in the simulation of surface variables may be attributed to improved representation of orography and coastlines </text>
  <text x="155.626,159.511,162.364,164.569,169.483,172.003,176.382,181.296,183.501,188.377,192.963,196.461,198.981,202.869,207.457,212.314,215.217,219.318,221.703,223.908,227.234,231.167,234.647,239.278,241.552,246.328,249.223,251.743,256.33,261.361,263.521,265.726,271.06,275.836,278.689,280.894,283.797,288.673,292.606,294.811,297.331,302.323,306.238,309.565,313.549,317.578,321.057,325.033,329.893,332.098,335.424,339.357,342.837,347.469,349.742,354.519,357.413,359.933,364.519,369.55,371.755,376.615,381.391,385.324,388.735,390.94,395.931,400.527,403.38,405.585,409.686,412.005,418.278,422.172,426.411,429.822,432.027,434.412,438.396,442.455,447.315,449.52,452.316,457.014,459.219,463.194,468.225,470.43,472.95,480.256,484.968,488.295,492.846,497.046,500.979,508.419,512.352,517.21,520.063,522.268,524.788,529.819,532.024,536.125,538.551,540.936,543.141,546.046,550.92,554.745" y="504.293" svg_rhmargin="556.788" style="fill:#000000;font-family:MinionPro-Regular;font-size:9.0px;font-style:NORMAL;font-weight:normal;">at high horizontal resolution. But the increased resolution does not always lead to an improvement in all the </text>
  <text x="155.626,159.55,162.808,167.605,171.475,175.344,178.089,181.392,183.444,185.361,189.951,194.433,197.772,199.689,203.514,207.762,211.632,218.832,223.485,225.762,229.533,231.585,233.502,237.93,242.061,243.978,247.785,252.267,259.466,264.227,268.097,271.49,273.902,278.753,282.965,284.882,287.681,292.451,296.276,298.193,301.451,306.212,309.992,312.782,315.22,319.216,321.493,323.41,328.063,330.34,334.831,337.576,339.493,343.975,346.639,348.556,354.109,358.429,365.8,367.717,370.831,375.592,378.004,382.242,384.294,386.215,390.535,394.486,397.6,399.517,403.297,406.042,407.959,412.126,415.996,419.389,421.801,426.292,431.044,434.347,436.264,443.599,448.269,453.021,456.81,459.087,461.004,464.226,468.051,471.426,475.953,478.122,482.793,485.583,487.995,492.477,497.328,500.631,502.548,504.852,507.597,509.514,511.899,515.202,517.119,519.702,524.193,528.972,533.859,538.611,540.528,543.327,548.106,551.886,554.631" y="514.2919999999999" svg_rhmargin="556.674" style="fill:#000000;font-family:MinionPro-Regular;font-size:9.0px;font-style:NORMAL;font-weight:normal;">aspects. For example, by comparing the spatial plot of T2m (Fig. 3a) at various model resolutions it is found that </text>
  <text x="155.626,158.499,163.343,167.24,169.337,176.746,181.492,186.316,190.18,192.529,194.626,200.891,203.27,206.143,211.021,213.118,217.996,220.48,224.829,229.673,233.57,236.981,239.078,242.375,246.272,249.722,254.323,256.566,261.311,264.176,266.66,271.216,276.211,278.308,283.162,287.161,290.536,292.633,296.656,298.753,303.481,307.378,310.107,312.873,316.77,320.181,322.278,325.575,329.472,334.154,337.451,341.348,344.798,348.695,353.521,356.394,360.249,363.113,365.597,370.153,375.148,377.245,381.8,384.536,386.633,389.506,394.351,398.248,400.345,403.677,408.512,412.367,415.231,417.744,421.814,424.163,426.26,428.917,432.871,436.725,439.454,444.305,447.602,451.499,454.874,456.971,461.519,466.263,469.08,471.177,473.661,478.656,480.753,483.518,487.415,490.882,498.256,501.631,503.728,508.284,511.02,513.117,520.536,524.516,528.848,533.843,536.221,538.95,543.801,548.625,552.471,554.523" y="524.2909999999999" svg_rhmargin="556.566" style="fill:#000000;font-family:MinionPro-Regular;font-size:9.0px;font-style:NORMAL;font-weight:normal;">the model with higher resolution has a better representation of the spatial features but in terms of magnitude, </text>
  <text x="155.626,158.425,163.195,167.02,170.242,174.067,175.885,178.27,181.573,183.391,187.261,192.184,194.002,198.781,203.668,208.42,212.245,215.467,219.292,222.55,225.34,227.752,235.096,238.876,241.665,244.077,248.559,253.482,255.3,259.746,263.841,267.666,271.005,272.823,275.622,280.392,284.217,286.035,292.227,295.566,299.445,303.909,306.347,310.217,315.14,316.958,321.35,325.229,329.18,330.998,334.22,338.045,342.302,344.714,349.195,354.118,356.17,357.988,362.38,366.862,374.197,378.022,379.84,383.062,386.887,390.262,394.14,398.011,401.233,404.986,409.756,413.581,416.865,420.168,421.986,424.263,426.72,431.103,434.928,436.746,442.118,446.069,449.876,457.211,461.036,463.421,466.679,469.37,473.195,476.534" y="534.29" svg_rhmargin="478.577" style="fill:#000000;font-family:MinionPro-Regular;font-size:9.0px;font-style:NORMAL;font-weight:normal;">there is an underestimation over the Arabian Sea region. Some researchers like Bacmeister </text>
  <text x="478.352,481.89,484.653,486.489,490.8" y="534.29" svg_rhmargin="493.041" style="fill:#000000;font-family:MinionPro-It;font-size:9.0px;font-style:ITALIC;font-weight:normal;">et al</text>
  <text x="493.063" y="534.29" svg_rhmargin="495.115" style="fill:#000000;font-family:MinionPro-Regular;font-size:9.0px;font-style:NORMAL;font-weight:normal;">.</text>
  <text x="495.127,497.935" y="531.24" svg_rhmargin="500.743" style="fill:#0000ff;font-family:MinionPro-Regular;font-size:5.85px;font-style:NORMAL;font-weight:normal;">26</text>
  <text y="534.3" svg_rhmargin="540.36" x="502.561,506.431,511.318,516.07,517.888,522.379,525.178,529.948,533.773,537.057" style="fill:#000000;font-family:MinionPro-Regular;font-size:9.0px;font-style:NORMAL;font-weight:normal;">and others</text>
  <text x="540.364,543.172,545.98,549.022,551.83" y="531.24" svg_rhmargin="554.638" style="fill:#0000ff;font-family:MinionPro-Regular;font-size:5.85px;font-style:NORMAL;font-weight:normal;">27–30</text>
  <text y="534.3" style="fill:#000000;font-family:MinionPro-Regular;font-size:9.0px;font-style:NORMAL;font-weight:normal;" svg_rhmargin="556.681" x=""/>
  <text x="155.641,158.094,162.85,166.986,170.851,174.15,176.98,179.433,183.685,187.506,190.237,194.148,198.939,200.919,203.759,208.569,212.435,214.415,217.677,222.245,224.562,228.428,230.408,234.931,237.635,239.615,244.344,248.543,253.479,257.39,264.801,267.254,271.101,274.445,276.425,280.335,285.263,290.055,292.035,296.73,301.369,305.541,308.884,311.336,315.188,318.53,320.51,325.311,329.222,332.601,336.512,343.887,347.752,350.484,354.349,357.783,360.235,364.056,367.876,370.707,373.159,377.682,382.645,384.625,387.078,392.042,394.022,397.284,401.15,404.564,409.133,411.342,416.054,418.883,421.336,425.858,430.822,432.802,436.217,440.083,444.974,448.318,450.661,453.492,455.881,460.116,462.46,465.273,469.444,471.424,476.217,479.56,482.013,486.904,491.157,493.137,497.128,499.108,506.484,511.195,515.988,519.817,522.135,524.115,530.347,532.692,535.531,540.378,542.358,545.116,549.981,552.343,554.62" y="544.299" svg_rhmargin="556.663" style="fill:#000000;font-family:MinionPro-Regular;font-size:9.0px;font-style:NORMAL;font-weight:normal;">investigated the role of dynamics and physics parameterization in resolution sensitivity using a model with full </text>
  <text x="155.641,160.3,164.907,169.047,172.359,174.78,178.596,181.908,183.852,188.341,193.273,195.217,199.177,201.121,204.385,207.19,211.068,215.961,220.747,224.623,227.853,232.614,234.558,238.821,242.22,244.641,249.402,251.346,255.223,260.117,264.878,266.822,269.243,274.136,277.952,281.18,285.067,288.997,292.309,294.73,299.588,303.809,305.753,308.558,313.336,317.17,319.114,322.342,326.176,329.557,334.091,336.266,340.944,343.74,346.161,350.651,355.583,357.527,362.015,364.688,366.632,369.438,374.214,378.048,379.992,384.689,388.853,393.755,397.632,405.012,407.433,411.249,414.561,416.622,418.566,428.177,432.08,436.22,438.164,440.753,445.251,450.039,454.934,459.695,461.639,464.444,469.23,473.016,475.77,477.714,483.913,486.224,489.029,493.844,495.788,498.209,503.102,506.918,510.148,514.033,517.963,521.345,525.179,527.123,529.544,534.476,536.42,539.65,543.484,546.865,551.464" y="554.298" svg_rhmargin="554.668" style="fill:#000000;font-family:MinionPro-Regular;font-size:9.0px;font-style:NORMAL;font-weight:normal;">physics on a standard grid and increasing the resolution of the dynamics. They found that with increase in reso-</text>
  <text x="155.641,157.819,162.499,165.297,167.718,172.209,177.141,179.202,181.155,184.386,188.22,192.486,194.907,199.398,204.303,208.308,210.594,212.547,217.164,220.394,224.273,228.089,230.401,235.018,237.331,240.139,243.928,246.727,249.148,253.639,258.571,260.524,263.115,267.003,270.792,273.456,278.244,281.475,285.309,288.621,290.574,294.453,299.349,304.11,306.063,310.679,313.91,317.789,321.605,323.918,328.535,330.848,333.655,337.444,340.243,342.664,347.154,352.086,354.039,356.46,361.221,363.921,367.755,372.614,375.926,378.239,381.019,385.159,387.112,391.873,394.267,397.534,400.333,403.734,406.119,410.601,415.281,418.079,420.5,424.991,429.851,433.163,435.116,437.537,444.746,449.363,452.594,457.049,461.152,465.031,469.738,471.799,473.752,479.98,481.933,485.245,487.666,495.046,497.512,499.825,503.704,507.052,509.005,512.236,516.07,519.337,524.17,526.348,529.102,531.055,533.421,535.482,539.262,541.323,543.276,546.084,550.862,554.687" y="564.297" svg_rhmargin="556.73" style="fill:#000000;font-family:MinionPro-Regular;font-size:9.0px;font-style:NORMAL;font-weight:normal;">lution, regional precipitation features and precipitation intensity distributions improved. A similar result i.e. the </text>
  <text x="155.641,158.125,165.399,170.08,173.376,177.895,182.063,185.96,193.368,197.265,202.091,204.908,207.005,209.489,214.484,216.581,219.956,222.44,229.713,234.61,236.988,240.84,243.704,246.188,250.744,255.668,259.043,261.14,267.405,269.783,272.654,277.532,279.629,282.113,287.074,290.953,294.249,298.201,302.199,305.574,308.058,312.983,317.267,319.364,324.207,328.762,332.229,334.713,338.565,343.12,347.946,350.818,354.887,357.236,359.333,362.629,366.526,369.975,374.575,376.818,381.562,384.425,386.909,391.465,396.46,398.557,401.016,404.391,406.488,411.312,415.209,422.617,427.173,432.097,435.428,438.291,441.702,445.555,448.319,452.263,457.087,459.184,461.668,466.663,468.76,473.593,476.077,480.389,482.513,484.627,489.019,491.143,493.24,502.916,506.813,508.91,511.394,518.668,523.502,527.525,531.468,534.285,536.382,540.937,543.673,545.77,549.713,554.635" y="574.296" svg_rhmargin="556.678" style="fill:#000000;font-family:MinionPro-Regular;font-size:9.0px;font-style:NORMAL;font-weight:normal;">improvement in simulations with increasing horizontal resolution is demonstrated in Fig. 3. The impact of an </text>
  <text x="155.641,158.107,163.051,166.912,170.191,174.126,178.107,181.539,185.418,187.452,189.918,194.895,196.929,201.755,206.294,209.744,212.21,216.044,220.582,225.391,228.247,232.3,234.631,236.665,239.943,243.822,247.254,251.838,254.063,258.792,261.638,264.104,268.643,273.62,275.654,278.097,281.454,283.488,286.92,290.846,294.725,299.702,301.736,304.547,307.826,312.365,319.789,321.823,326.197,329.338,331.372,334.12,338.764,340.798,345.172,347.278,351.652,354.793,356.827,361.366,366.343,368.377,373.984,378.358,385.783,387.817,391.678,396.217,403.473,408.291,412.218,415.496,419.423,424.229,426.263,432.512,434.872,437.728,442.588,444.622,452.695,457.861,463.504,469.186,475.459,477.493,480.772,484.707,488.634,493.587,497.639,499.911,504.096,507.453,509.895,513.252,515.286,518.454,523.269,525.735,530.029,532.135,534.334,538.708,542.713,545.881,548.347,551.515,554.629" y="584.295" svg_rhmargin="556.672" style="fill:#000000;font-family:MinionPro-Regular;font-size:9.0px;font-style:NORMAL;font-weight:normal;">increase in horizontal resolution is seen from 2° to 0.5° on T2m compared with MERRA reanalysis (Fig. 3a(i)) </text>
  <text x="155.641,159.572,164.52,169.335,171.387,176.055,179.337,183.268,187.138,189.502,194.17,196.534,199.394,203.235,206.085,208.56,213.103,218.089,220.141,224.011,228.554,235.814,240.635,244.567,247.849,251.779,256.594,258.646,264.898,267.263,270.123,274.992,277.044,282.66,288.312,296.394,304.476,306.528,311.367,315.208,318.068,322.052,325.487,329.375,332.183,335.549,337.601,340.778,345.602,348.077,352.377,354.492,356.494,360.877,365.512,368.689,371.164,374.341,377.518,379.633,381.685,387.967,390.019,397.424,401.355,404.718,409.161,413.092,417.907,419.959,422.434,429.694,434.362,437.644,442.152,446.307,450.195,457.59,461.478,466.291,469.099,471.151,473.596,476.962,479.014,483.619,488.254,491.689,495.577,499.238,503.393,507.324,512.139,514.191,516.666,521.652,523.704,526.564,531.395,535.283,537.335,542.951,547.334,554.705" y="594.294" svg_rhmargin="556.748" style="fill:#000000;font-family:MinionPro-Regular;font-size:9.0px;font-style:NORMAL;font-weight:normal;">and precipitation compared with TRMM datasets (Fig. 3b(i)). A marked improvement is observed in the T2m </text>
  <text x="155.641,158.89,163.786,166.333,170.705,172.892,175.189,179.644,183.73,186.979,189.283,192.169,195.525,200.14,207.646,209.95,212.882,217.785,221.745,224.049,227.991,232.759,236.762,240.18,243.688,247.648,249.952,252.776,257.501,259.805,264.755,269.776,273.736,276.04,283.508,288.312,293.199,297.12,299.532,301.836,305.191,309.151,312.66,317.32,319.621,324.425,327.348,329.895,334.511,339.494,342.932,345.119,347.423,357.159,361.119,363.423,366.814,371.709,375.621,378.544,381.116,385.245,387.657,389.961,394.855,398.768,401.556,404.38,408.34,411.867,416.851,420.289,422.593,427.208,430.007,432.311,435.407,438.186,444.511,448.912,451.216,458.685,462.696,466.699,471.757,474.061,479.749,484.204,491.71,494.014,496.73,501.345,504.819,507.123,511.578,514.799,517.104,520.458,524.418,527.926,532.586,534.888,539.692,542.615,545.162,549.777,554.699" y="604.293" svg_rhmargin="556.742" style="fill:#000000;font-family:MinionPro-Regular;font-size:9.0px;font-style:NORMAL;font-weight:normal;">(Fig. 3a) from the coarse to fine model resolutions. The spatial patterns of JJAS mean T2m for 2° resolution </text>
  <text x="155.641,158.827,163.66,166.144,170.456,172.58,174.685,179.077,183.1,186.286,188.77,191.254,194.44,196.537,200.48,205.441,210.265,212.362,215.548,219.787,222.973,226.159,228.256,233.109,237.106,240.481,242.578,246.601,248.698,251.076,255.02,258.36,262.574,266.471,268.568,273.105,275.617,279.615,282.99,285.087,289.606,293.775,297.672,301.083,303.18,306.052,310.896,314.793,316.89,319.887,324.848,329.672,334.334,337.61,344.117,348.06,352.985,357.199,361.096,363.96,366.444,370.323,372.42,377.145,379.523,383.467,385.951,390.876,394.251,396.348,400.292,405.252,410.076,412.173,417.656,420.106,424.832,428.729,431.546,433.643,438.163,442.332,446.229,449.64,451.737,454.113,458.057,463.018,467.789,469.913,472.01,478.96,483.128,487.025,490.436,492.533,498.77,502.623,505.387,509.284,512.695,514.792,519.519,524.263,529.087,531.571,535.468,538.843,540.967,543.064,545.937,550.78,554.605" y="614.292" svg_rhmargin="556.648" style="fill:#000000;font-family:MinionPro-Regular;font-size:9.0px;font-style:NORMAL;font-weight:normal;">(Fig. 3a(ii) and (v)) has a large bias over the Indo-Gangetic plains and Tibet over land. Over water bodies, the </text>
  <text x="155.641,160.429,164.236,166.919,169.637,173.489,176.91,181.86,183.831,186.243,189.573,191.544,194.874,197.313,204.711,207.195,209.526,213.424,216.79,218.761,221.479,226.096,228.067,230.894,235.691,239.543,241.514,249.56,254.699,260.315,265.967,272.213,274.184,280.403,282.735,285.561,290.394,292.365,294.975,298.9,305.092,307.063,310.348,315.136,318.943,321.76,324.226,328.249,330.553,332.524,337.016,339.482,343.433,346.836,350.688,354.018,355.989,360.462,364.585,368.437,371.803,373.774,376.726,381.641,386.42,388.886,392.784,397.734,399.705,406.509,410.343,414.25,418.147,423.097,425.176,427.147,430.1,435.05,437.021,439.847,444.645,448.497,450.468,454.815,457.929,459.9,463.15,467.002,470.404,474.958,477.154,481.852,484.669,487.108,491.617,496.568,498.539,501.68,506.467,508.906,513.172,515.251,517.18,521.527,525.505,528.646,531.085,533.524,535.963,539.104,541.075,544.972,549.887,554.639" y="624.2909999999999" svg_rhmargin="556.682" style="fill:#000000;font-family:MinionPro-Regular;font-size:9.0px;font-style:NORMAL;font-weight:normal;">pattern is similar to the MERRA with few spatial biases over Indian Ocean. In the 1° resolution (Fig. 3a(iii) and </text>
  <text x="155.641,158.755,162.949,165.361,168.475,171.589,173.641,175.486,178.285,183.055,186.88,190.101,193.926,195.771,198.156,201.459,203.304,207.255,209.1,212.403,214.815,219.071,223.994,226.406,231.221,235.055,238.925,243.677,246.422,248.267,250.679,257.879,262.487,265.709,270.155,274.25,278.075,285.41,289.235,293.987,296.732,298.577,300.989,305.912,307.757,310.556,315.326,319.151,320.996,326.549,330.869,338.24,340.085,346.277,348.581,351.38,356.186,358.031,360.614,364.511,370.676,372.521,376.985,379.423,383.347,386.722,390.547,393.85,395.695,400.141,404.236,408.061,411.4,413.245,415.549,419.419,424.306,429.058,430.903,438.247,442.118,444.53,449.498,451.712,455.843,457.688,462.332,467.111,470.936,472.781,475.472,480.062,481.907,484.705,489.476,493.301,495.146,498.971,503.938,508.718,512.588,517.475,521.282,525.152,529.904,531.749,539.083,543.754,548.506,552.295,554.572" y="634.29" svg_rhmargin="556.615" style="fill:#0000ff;font-family:MinionPro-Regular;font-size:9.0px;font-style:NORMAL;font-weight:normal;">(vi)), there is a significant improvement in the T2m with few biases over land mainly due to the enhanced model </text>
  <text x="155.641,158.879,162.722,166.114,170.657,172.843,177.53,180.336,182.766,187.265,192.206,194.276,196.234,202.479,207.303,209.733,213.503,218.327,220.285,223.523,227.366,230.641,235.481,237.666,240.429,243.75,245.708,248.138,253.079,255.036,259.005,260.963,265.733,269.576,272.391,276.277,278.751,281.046,284.932,289.702,291.66,294.899,298.742,303.366,306.605,310.448,313.839,317.682,322.452,325.267,329.063,331.869,334.299,338.797,343.738,345.696,350.195,352.877,354.835,359.333,362.572,367.18,371.453,374.81,378.607,383.276,387.892,391.383,393.453,395.41,400.196,404.659,410.769,414.682,418.794,422.637,425.425,427.495,429.453,434.357,438.965,440.922,444.243,446.673,450.947,455.888,458.318,463.151,467.003,470.889,475.657,478.42,480.377,482.807,490.023,494.647,497.886,502.348,506.46,510.303,517.655,521.498,526.267,529.03,530.987,533.388,536.709,538.667,542.058,545.944,549.787,554.71" y="644.289" svg_rhmargin="556.753" style="fill:#000000;font-family:MinionPro-Regular;font-size:9.0px;font-style:NORMAL;font-weight:normal;">resolution, which results in a detailed representation of orography, however, no significant improvement is seen </text>
  <text x="155.641,160.112,164.233,168.085,171.451,173.418,176.242,181.037,184.889,186.856,193.048,196.854,199.57,203.422,206.788,208.755,213.433,218.129,222.908,225.347,229.199,232.529,234.608,236.574,246.204,250.056,252.022,259.382,264.079,268.858,272.673,274.977,276.944,283.161,285.491,288.315,293.148,295.115,299.462,301.541,305.888,309.002,310.969,314.216,318.068,321.468,326.021,328.215,332.911,335.727,338.166,342.675,347.625,349.591,352.732,357.52,359.959,364.223,366.302,368.23,372.577,376.555,379.696,382.071,386.265,389.406,391.377,395.272,400.185,404.964,406.931,410.909,414.05,418.269,420.708,423.147,426.288,429.429,431.396,435.255,439.06,443.703,446.383,451.189,454.437,458.289,461.619,463.585,469.703,473.518,475.866,478.17,480.136,487.497,492.114,495.398,498.17,500.137,504.644,507.335,509.302,512.126,516.921,520.773,522.739,527.572,530.011,534.313,539.146,541.112,545.008,549.92,554.672" y="654.288" svg_rhmargin="556.715" style="fill:#000000;font-family:MinionPro-Regular;font-size:9.0px;font-style:NORMAL;font-weight:normal;">over the water bodies. The model with 0.5° resolution (Fig. 3a(iv) and a(vii)) captures well most of the high and </text>
  <text x="155.641,157.954,162.434,168.635,170.611,176.2,180.556,187.963,189.938,192.556,196.471,200.285,202.975,207.79,211.047,214.908,218.247,220.222,224.704,228.833,232.694,236.069,238.044,241.004,245.926,250.714,253.187,257.092,262.051,264.026,267.319,272.097,276.705,279.945,283.788,288.305,293.092,295.916,298.364,303.285,307.146,311.932,314.714,316.689,321.197,325.902,328.683,330.659,335.474,340.396,345.184,349.045,352.302,356.163,359.456,362.28,364.728,372.107,375.922,378.647,382.508,385.847,387.822,390.656,395.462,399.323,401.298,404.591,409.406,412.834,415.534,419.521,423.364,427.225,429.201,431.926,435.787,443.021,447.853,451.714,455.089,458.904,461.594,466.409,469.666,473.527,475.502,479.983,484.114,487.975,491.35,493.325,499.551,502.926,506.839,511.339,513.812,517.799,519.887,521.862,524.821,528.196,532.101,537.06,539.148,541.123,545.027,549.949,554.701" y="664.287" svg_rhmargin="556.744" style="fill:#000000;font-family:MinionPro-Regular;font-size:9.0px;font-style:NORMAL;font-weight:normal;">low T2m features over Indian sub-continent but underestimates the surface temperature over Arabia, Iran, and </text>
  <text x="155.641,160.312,164.119,167.998,171.868,176.791,179.203,183.01,184.846,188.068,191.893,196.15,198.562,203.044,207.895,211.198" y="674.2860000000001" svg_rhmargin="213.25" style="fill:#000000;font-family:MinionPro-Regular;font-size:9.0px;font-style:NORMAL;font-weight:normal;">oceanic regions.</text>
  <text x="167.638,172.684,176.624,179.96,184.169,188.028,190.311,193.854,195.978,198.057,200.541,205.497,209.376,212.668,216.616,220.609,223.984,226.468,231.389,235.673,237.752,240.621,245.46,249.357,251.436,256.275,260.827,264.289,266.773,270.625,275.176,279.998,282.866,286.931,289.28,291.359,294.651,298.548,301.992,306.588,308.826,313.567,316.426,318.91,323.461,328.456,330.535,334.432,339.471,344.319,348.258,353.214,357.093,360.99,364.365,366.444,369.313,374.152,378.049,380.128,383.455,388.286,392.135,394.994,397.503,401.568,403.917,405.996,410.673,413.965,417.904,421.783,424.156,428.833,431.207,434.075,437.924,440.784,443.268,447.819,452.814,454.893,458.916,462.795,466.733,471.584,474.995,479.018,483.039,487.242,489.321,493.872,496.608,498.687,501.554,506.395,510.292,512.371,517.258,522.214,526.111,529.522,531.601,539.004,543.745,548.568,552.427,554.704" y="684.285" svg_rhmargin="556.747" style="fill:#000000;font-family:MinionPro-Regular;font-size:9.0px;font-style:NORMAL;font-weight:normal;">Largely, increasing the horizontal resolution enhances the spatial precipitation accuracy of the finer model </text>
  <text x="155.641,159.399,163.831,170.982,175.693,179.514,182.685,186.506,191.208,192.873,195.515,200.055,201.72,207.224,212.763,220.733,228.702,230.367,235.097,238.827,241.577,245.451,248.777,252.551,255.247,258.5,260.165,263.23,267.941,270.304,274.493,276.496,278.158,282.429,286.951,290.016,292.018,293.683,298.863,303.484,306.18,307.845,311.701,315.864,319.684,322.047,326.92,328.585,331.335,336.055,339.831,341.496,346.054,349.227,353.047,356.804,359.058,363.617,365.871,368.621,372.351,375.092,377.454,381.887,386.76,388.425,390.761,394.014,395.679,400.409,405.246,409.949,413.724,416.897,420.672,423.88,426.621,428.983,436.278,440.008,442.65,446.469,451.172,452.837,457.233,461.279,465.053,468.343,470.008,472.757,477.478,481.253,482.918,488.098,492.827,496.171,503.456,507.232,510.557,514.332,515.997,523.733,528.174,532.904,537.606,540.355,544.175,546.538,551.339,554.642" y="694.284" svg_rhmargin="556.685" style="fill:#000000;font-family:MinionPro-Regular;font-size:9.0px;font-style:NORMAL;font-weight:normal;">compared to TRMM datasets (Fig. 3b). But again the precipitation is underestimated over the Burmese Mountains </text>
  <text x="155.641,159.493,164.362,169.096,170.815,174.748,179.374,181.705,186.168,188.562,193.467,195.861,200.694,204.888,206.607,212.754,216.516,219.189,222.996,226.317,228.036,232.671,237.323,242.057,244.451,248.258,251.543,253.577,255.296,264.88,268.687,270.406,273.646,278.388,282.15,284.922,287.343,291.321,293.58,295.299,300.042,303.803,306.44,309.113,312.92,316.295,321.128,324.413,326.132,330.596,333.242,334.961,337.904,340.531,346.705,350.953,352.672,359.989,363.849,367.701,372.606,374.325,378.914,382.118,385.97,389.759,392.045,396.635,398.92,401.701,405.463,408.234,410.628,415.092,419.997,421.716,424.281,428.745,432.066,433.785,438.087,441.156,442.875,446.079,449.886,453.243,457.752,459.902,464.555,467.327,469.721,474.185,479.09,480.809,483.905,488.648,491.042,495.262,497.296,498.991,503.293,507.847,510.943,513.337,515.731,518.827,521.923,523.642,528.402,532.308,535.593,537.312,539.597,543.449,546.698,550.82,554.645" y="704.283" svg_rhmargin="556.688" style="fill:#000000;font-family:MinionPro-Regular;font-size:9.0px;font-style:NORMAL;font-weight:normal;">and adjoining water bodies. The spatial patterns of JJAS mean precipitation for 2° resolution (Fig. 3b(ii)) has large </text>
  <text x="155.641,160.105,162.544,166.468,169.843,173.668,176.971,178.807,183.253,187.348,191.173,194.512,196.348,199.147,203.917,207.742,209.578,217.444,221.269,224.527,227.218,231.043,234.435,239.358,241.194,247.602,252.381,256.161,258.906,262.209,264.261,266.097,272.847,275.259,282.603,286.599,288.903,292.692,296.823,300.774,302.826,304.662,312.393,316.524,320.394,325.317,332.661,336.531,339.87,341.706,345.576,350.463,355.215,357.051,359.85,364.62,368.445,370.281,373.206,378.093,382.845,385.283,389.153,394.076,395.912,402.689,406.496,410.375,414.245,419.168,421.004,424.226,428.051,432.308,434.72,439.202,444.053,447.356,449.408,451.244,460.847,464.672,468.047,471.872,473.708,478.172,480.611,484.535,487.91,491.735,495.038,496.874,501.626,505.495,509.302,512.524,516.403,520.327,523.702,527.527,529.363,532.666,535.078,539.335,544.258,546.67,551.485" y="714.282" svg_rhmargin="554.689" style="fill:#000000;font-family:MinionPro-Regular;font-size:9.0px;font-style:NORMAL;font-weight:normal;">biases over the Western Ghats, Himalaya, Myanmar and the Indian Ocean regions. These biases decrease signifi-</text>
  <text x="155.641,159.436,163.267,167.98,170.74,172.916,177.011,178.712,181.256,185.699,189.002,190.703,194.987,198.038,199.739,202.817,207.542,209.918,214.119,216.135,217.795,222.079,226.615,229.693,233.848,236.224,239.302,242.38,244.081,247.913,252.76,257.476,259.177,263.461,265.477,269.761,272.812,274.513,277.696,281.485,284.821,289.309,291.439,296.072,298.822,301.198,305.641,310.528,312.229,315.307,320.032,322.408,326.608,328.624,330.259,334.543,339.079,342.157,346.312,348.688,351.064,354.142,357.22,358.921,363.328,369.481,371.857,376.668,380.844,382.545,385.198,389.752,391.453,393.829,400.99,405.559,408.742,413.149,417.205,421.037,425.753,427.454,432.184,436.627,439.982,442.358,446.102,450.545,455.258,458.018,461.975,464.216,465.917,473.212,477.845,482.561,486.311,488.552,490.253,493.436,497.225,500.562,505.05,507.18,511.812,514.563,516.939,521.381,526.268,528.284,529.985,534.086,536.837,539.255,541.538,543.722,545.738,547.439,549.815,554.738" y="724.281" svg_rhmargin="556.781" style="fill:#000000;font-family:MinionPro-Regular;font-size:9.0px;font-style:NORMAL;font-weight:normal;">cantly for 1° (Fig. 3b(vi)) and 0.5° resolution (Fig. 3b(vii)) owing to improved horizontal model resolution. Still, in </text>
  <text x="155.641,159.637,161.959,164.236,166.135,168.934,173.74,176.962,180.832,184.657,187.861,195.196,199.866,204.618,208.407,210.684,212.583,215.805,219.63,223.005,227.532,229.701,234.372,237.162,239.574,244.056,248.907,252.21,254.262,256.161,258.96,263.73,267.555,269.454,272.757,276.888,280.146,282.837,286.662,294.006,297.786,300.575,302.987,306.794,308.693,313.157,315.596,319.52,322.823,324.722,327.107,330.41,332.309,336.917,340.139,343.964,347.339,351.164,355.916,358.661,360.56,365.006,369.101,372.926,376.265,378.164,380.963,385.733,389.558,391.457,394.382,399.269,404.021,406.46,410.33,415.253,417.152,423.928,427.735,431.614,435.484,440.407,442.459,444.358,453.961,457.786,461.161,464.986,466.885,471.35,473.788,477.712,481.087,484.912,488.215,490.114,493.381,498.151,502.597,508.762,510.661,515.467,517.879,522.154,526.96,528.859,532.198,536.068,538.48,543.403,546.067,550.063,552.384,554.661" y="734.28" svg_rhmargin="556.704" style="fill:#000000;font-family:MinionPro-Regular;font-size:9.0px;font-style:NORMAL;font-weight:normal;">all three-model resolutions, the systematic bias is present over the Indian Ocean. These biases show high rainfall </text>
  <text x="155.641,160.087,164.182,168.007,171.346,173.182,175.981,180.751,184.576,186.412,192.505,196.33,199.588,202.279,206.104,209.497,214.42,216.256,219.181,224.068,228.82,231.258,235.128,240.051,241.887,248.664,252.471,256.35,260.22,265.143,267.195,269.031,275.259,280.065,282.477,286.229,291.035,292.871,295.256,298.559,300.395,302.807,307.73,309.566,313.373,317.855,322.607,325.397,328.736,332.659,335.917,338.662,340.498,343.189,347.779,349.615,352.414,357.184,361.009,362.845,368.398,373.987,382.006,390.025,391.861,396.406,400.978,404.353,408.178,411.778,415.945,419.724,422.514,424.926,429.408,434.259,437.562" y="744.279" svg_rhmargin="439.614" style="fill:#000000;font-family:MinionPro-Regular;font-size:9.0px;font-style:NORMAL;font-weight:normal;">over the western Indian Ocean, which is in contrast to the TRMM observations.</text>
 </g>
</svg>
