<?xml version="1.0" encoding="UTF-8"?>
<svg height="766.11" width="530.437" xmlns="http://www.w3.org/2000/svg">
 <g id="page" xmlns:svgx="http://www.xml-cml.org/schema/svgx">
  <g begin="text">
   <text y="62.979" x="76.535,79.189,83.62,86.274,88.26650000000001,91.057,93.711,95.7035,97.696,102.565,106.997,110.982,113.197,116.154,119.693,124.124,126.1165,128.907,134.223,137.323,140.423,142.4155,145.205,150.075,154.507,158.197,160.412,162.628,165.89569999999998,167.864,174.065,177.165,180.704,182.92,185.574" svgx:width="0.33,0.56,0.33,0.25,0.55,0.33,0.25,0.55,0.61,0.56,0.5,0.28,0.39,0.44,0.56,0.25,0.55,0.67,0.39,0.39,0.25,0.55,0.61,0.56,0.46,0.28,0.28,0.41,0.55,0.78,0.39,0.44,0.28,0.33,0.5" style="fill:rgb(0,0,0);font-family:URWPalladioL-Ital;font-size:7.97px;stroke:none;">Int. J. Environ. Res. Public Health</text>
   <text y="62.979" x="191.551,195.536,199.521,203.506" svgx:width="0.5,0.5,0.5,0.5" style="fill:rgb(0,0,0);font-family:URWPalladioL-Bold;font-size:7.97px;stroke:none;">2019</text>
   <text y="62.979" x="207.491" svgx:width="0.25" style="fill:rgb(0,0,0);font-family:URWPalladioL-Roma;font-size:7.97px;stroke:none;">,</text>
   <text y="62.979" x="211.476,215.461" svgx:width="0.5,0.5" style="fill:rgb(0,0,0);font-family:URWPalladioL-Ital;font-size:7.97px;stroke:none;">16</text>
   <text y="62.979" x="219.446,221.4385,223.431,227.416,231.401,235.386,239.371,495.793,499.778,501.771,506.123,508.7531,510.769,514.754" svgx:width="0.25,0.55,0.5,0.5,0.5,0.5,0.55,0.5,0.55,0.55,0.33,0.55,0.5,0.5" style="fill:rgb(0,0,0);font-family:URWPalladioL-Roma;font-size:7.97px;stroke:none;">, 1606 7 of 17</text>
   <text y="97.848" x="76.535,82.603,86.869,91.689,97.76459999999999,100.332,103.612,109.469,114.2498,116.774,122.057,128.134,133.417,138.5962,141.195,146.88,151.7,155.674,159.941,162.869,168.363,174.1398,176.704,181.736,186.767,189.282,194.262,196.809,201.075,204.355,209.387,212.667,215.595,219.861,223.142,226.07,230.537,235.568,238.4564,240.982,245.248,250.742,254.093,257.373,265.765,270.796,274.6,279.3808,281.905,287.952,292.984,297.451,303.046,308.077,313.671,318.4518,320.987,324.337,327.728,333.876,345.881,353.015,358.509,362.483,368.531,371.046,373.536,377.053,385.415,390.235,398.5018,401.122,406.918,412.412,416.387,421.981,424.471,426.982,435.344,440.949,443.439,445.96,453.788,459.071,466.899,470.18580000000003,472.735,477.766,483.622,489.6976,492.266,500.094,508.979,514.473" svgx:width="0.6,0.42,0.48,0.61,0.55,0.33,0.58,0.48,0.55,0.52,0.6,0.52,0.52,0.55,0.56,0.48,0.4,0.42,0.29,0.55,0.58,0.55,0.5,0.5,0.25,0.5,0.55,0.42,0.33,0.5,0.33,0.29,0.42,0.33,0.29,0.44,0.5,0.29,0.55,0.42,0.55,0.33,0.33,0.83,0.5,0.4,0.48,0.55,0.6,0.5,0.44,0.56,0.5,0.56,0.48,0.55,0.33,0.34,0.61,0.95,0.71,0.55,0.4,0.6,0.25,0.25,0.55,0.83,0.48,0.83,0.55,0.67,0.55,0.4,0.56,0.25,0.55,0.83,0.67,0.25,0.55,0.78,0.52,0.78,0.33,0.55,0.5,0.58,0.61,0.55,0.78,0.88,0.55,0.42" style="fill:rgb(0,0,0);font-family:URWPalladioL-Roma;font-size:9.96px;stroke:none;">used the SPSS version 21.0 statistical software package (IBMCorp.: New York, NY, USA) and Amos</text>
   <text y="111.358" x="76.256,81.885,86.657,90.592,94.816,97.715,103.155,108.9318,111.444,116.425,121.407,123.897,128.877,131.369,134.687,138.044,144.131,156.046,163.11,168.549,172.485,178.472,180.963,183.453,186.94,195.219,199.991,208.2578,210.791,216.519,221.959,225.894,231.433,233.923,236.415,244.694,250.233,252.723,255.214,262.965,268.195,275.946,279.264" svgx:width="0.56,0.48,0.4,0.42,0.29,0.55,0.58,0.55,0.5,0.5,0.25,0.5,0.55,0.33,0.34,0.61,0.95,0.71,0.55,0.4,0.6,0.25,0.25,0.55,0.83,0.48,0.83,0.55,0.67,0.55,0.4,0.56,0.25,0.55,0.83,0.67,0.25,0.55,0.78,0.52,0.78,0.33,0.25" style="fill:rgb(0,0,0);font-family:URWPalladioL-Roma;font-size:9.96px;stroke:none;">version 21.0 (IBMCorp.: New York, NY, USA).</text>
   <text y="134.571" x="76.535,81.516,84.006,87.494,94.687,99.668,104.092,110.179,113.496,116.814" svgx:width="0.5,0.25,0.55,0.72,0.5,0.44,0.61,0.33,0.33,0.44" style="fill:rgb(0,0,0);font-family:URWPalladioL-Bold;font-size:9.96px;stroke:none;">3. Results</text>
   <text y="157.784" x="76.535,81.516,84.007,88.988,91.478,94.966,104.37,108.246,112.669,116.545,122.084,125.78,129.656,137.406,141.282,146.821,150.1078,152.629,162.034,166.457,171.439,175.314,178.084,180.574,184.061,190.706,194.582,197.351,200.121,204.544,209.157,211.927,214.696,217.466,220.784,225.76399999999998,228.255,232.679,238.218,243.19799999999998,245.69,252.146,256.569,259.339,262.108,267.09,269.859,273.177" svgx:width="0.5,0.25,0.5,0.25,0.55,0.94,0.39,0.44,0.39,0.56,0.39,0.39,0.78,0.39,0.56,0.33,0.55,0.94,0.44,0.5,0.39,0.28,0.25,0.55,0.67,0.39,0.28,0.28,0.44,0.46,0.28,0.28,0.28,0.33,0.5,0.55,0.44,0.56,0.5,0.55,0.72,0.44,0.28,0.28,0.5,0.28,0.33,0.5" style="fill:rgb(0,0,0);font-family:URWPalladioL-Ital;font-size:9.96px;stroke:none;">3.1. Measurement Model: Reliability and Validity</text>
   <text y="177.271" x="97.795,104.583,109.451,112.408,115.365,120.446,126.065,129.022,131.979,134.937,138.249,143.82659999999998,146.602,151.683,157.597,163.67260000000002,166.509,171.021,176.57,182.484,188.225,193.093,196.934,202.584,207.452,213.366,216.6528,219.382,225.123,230.204,233.161,236.118,242.327,245.284,248.597,254.1746,256.95,262.031,267.945,273.026,275.983,281.633,285.942,288.899,293.0822,295.921,299.752,304.619,308.928,315.055,318.012,321.325,325.5082,328.337,331.721,337.269,341.253,343.986,348.854,353.935,358.446,364.2228,367.074,371.586,377.134,383.048,387.357,390.67,394.602,400.73,405.242,408.52880000000005,411.258,416.339,420.17,424.9508,427.75,433.858,437.689,442.556,446.865,451.732,457.647,460.959,465.827,471.9026,474.739,477.696,483.4728,486.323,491.628,496.709,502.328,505.285" svgx:width="0.67,0.48,0.29,0.29,0.5,0.55,0.29,0.29,0.29,0.33,0.56,0.55,0.5,0.58,0.61,0.55,0.44,0.55,0.58,0.56,0.48,0.4,0.56,0.48,0.58,0.33,0.55,0.56,0.5,0.29,0.29,0.61,0.29,0.33,0.56,0.55,0.5,0.58,0.5,0.29,0.56,0.42,0.29,0.42,0.55,0.4,0.48,0.42,0.6,0.29,0.33,0.42,0.55,0.33,0.55,0.4,0.55,0.48,0.5,0.44,0.58,0.55,0.44,0.55,0.58,0.42,0.33,0.4,0.6,0.44,0.33,0.55,0.5,0.4,0.48,0.55,0.6,0.4,0.48,0.42,0.48,0.58,0.33,0.48,0.61,0.55,0.29,0.58,0.55,0.61,0.5,0.55,0.29,0.48" style="fill:rgb(0,0,0);font-family:URWPalladioL-Roma;font-size:9.96px;stroke:none;">Reliability and convergent validity analysis results for each construct are presented in Table</text>
   <text y="177.271" x="512.866" svgx:width="0.5" style="fill:rgb(8,117,183);font-family:URWPalladioL-Roma;font-size:9.96px;stroke:none;">1</text>
   <text y="177.271" x="517.947" svgx:width="0.25" style="fill:rgb(0,0,0);font-family:URWPalladioL-Roma;font-size:9.96px;stroke:none;">.</text>
   <text y="190.78" x="76.535,82.185,87.733,91.747,97.661,102.529,105.486,108.37440000000001,112.122,117.203,123.117,129.1926,133.004,139.213,144.294,148.135,152.647,158.297,163.165,167.149,170.857" svgx:width="0.56,0.55,0.4,0.58,0.48,0.29,0.29,0.55,0.5,0.58,0.61,0.55,0.61,0.5,0.4,0.44,0.56,0.48,0.4,0.55,0.33" style="fill:rgb(0,0,0);font-family:URWPalladioL-Roma;font-size:9.96px;stroke:none;">Fornell and Larcker [</text>
   <text y="190.78" x="174.241,179.222" svgx:width="0.5,0.5" style="fill:rgb(8,117,183);font-family:URWPalladioL-Roma;font-size:9.96px;stroke:none;">85</text>
   <text y="190.78" x="184.204,187.4908,191.266,195.575,198.888,203.969,207.282,212.149,218.2246,222.037,225.349,231.264,236.344,239.6308,243.346,248.326,252.105,259.31,263.141,268.69,274.604,280.223,285.304,289.816,295.73,298.555" svgx:width="0.33,0.55,0.42,0.33,0.5,0.33,0.48,0.61,0.55,0.33,0.58,0.5,0.33,0.55,0.5,0.55,0.71,0.4,0.55,0.58,0.55,0.5,0.44,0.58,0.28,0.42" style="fill:rgb(0,0,0);font-family:URWPalladioL-Roma;font-size:9.96px;stroke:none;">] stated that a Cronbach’s</text>
   <text y="190.78" x="306.547" svgx:width="0.66" style="fill:rgb(0,0,0);font-family:EURM10;font-size:9.96px;stroke:none;">α</text>
   <text y="190.78" x="316.788,321.3,326.848" svgx:width="0.44,0.55,0.48" style="fill:rgb(0,0,0);font-family:URWPalladioL-Roma;font-size:9.96px;stroke:none;">coe</text>
   <text y="190.78" x="331.715" svgx:width="0.92" style="fill:rgb(0,0,0);font-family:Rpxr;font-size:9.96px;stroke:none;">ﬃ</text>
   <text y="190.78" x="341.054,345.566,348.523,353.39,359.305,362.59180000000003,366.296,371.844,375.1308,378.907,384.557,388.398,393.266,398.346,401.659,406.527,410.51099999999997,414.219,417.532,423.446,428.527,434.30379999999997,438.12,443.201,445.741,450.721,454.501,457.458,463.372,469.581,472.538,477.05,482.131,485.444,490.311,494.4942,498.309,504.223,507.18,512.83" svgx:width="0.44,0.29,0.48,0.58,0.33,0.55,0.55,0.33,0.55,0.56,0.4,0.48,0.5,0.33,0.48,0.4,0.55,0.33,0.58,0.5,0.58,0.55,0.5,0.25,0.5,0.55,0.29,0.58,0.61,0.29,0.44,0.5,0.33,0.48,0.42,0.55,0.58,0.29,0.56,0.58" style="fill:rgb(0,0,0);font-family:URWPalladioL-Roma;font-size:9.96px;stroke:none;">cient of greater than 0.7 indicates high</text>
   <text y="204.29" x="76.535,80.238,84.944,87.802,90.661,95.572,101.004,103.863,106.721,109.58,112.782,117.134,119.624,122.075,130.267,135.985,140.69,144.383,149.089,154.0,158.1832,160.65,165.63,168.037,172.399,177.762" svgx:width="0.4,0.48,0.29,0.29,0.5,0.55,0.29,0.29,0.29,0.33,0.56,0.25,0.55,0.83,0.58,0.48,0.4,0.48,0.5,0.42,0.55,0.5,0.55,0.44,0.55,0.48" style="fill:rgb(0,0,0);font-family:URWPalladioL-Roma;font-size:9.96px;stroke:none;">reliability, whereas a coe</text>
   <text y="204.29" x="182.469" svgx:width="0.92" style="fill:rgb(0,0,0);font-family:Rpxr;font-size:9.96px;stroke:none;">ﬃ</text>
   <text y="204.29" x="191.496,195.857,198.716,203.421,209.138,212.4248,214.816,217.675,223.038,231.231,235.936,239.92000000000002,242.301,245.504,251.221,256.132,261.9088,264.325,269.236,271.692,276.604,281.584,283.991,286.849,292.566,298.568,301.427,305.788,310.7,313.902,318.607,322.7902,325.257,328.116,333.479,344.147,347.851,352.556,355.414,358.273,363.185,368.617,371.475,374.334,377.192,380.395,384.746,387.236,390.689,396.711,402.428,407.2088,409.609,416.573,420.276,425.64,431.357,436.789,441.701,446.062,451.779,454.51,458.6932,461.151,466.062,468.921,474.824,480.541,485.521,487.928,493.292,496.5788,499.048,503.753,508.665,513.026" svgx:width="0.44,0.29,0.48,0.58,0.33,0.55,0.29,0.55,0.83,0.48,0.4,0.55,0.33,0.58,0.5,0.58,0.55,0.5,0.25,0.5,0.5,0.55,0.29,0.58,0.61,0.29,0.44,0.5,0.33,0.48,0.42,0.55,0.29,0.55,0.83,0.4,0.48,0.29,0.29,0.5,0.55,0.29,0.29,0.29,0.33,0.56,0.25,0.55,0.61,0.58,0.48,0.55,0.71,0.4,0.55,0.58,0.55,0.5,0.44,0.58,0.28,0.42,0.55,0.5,0.29,0.6,0.58,0.5,0.55,0.55,0.33,0.55,0.48,0.5,0.44,0.58" style="fill:rgb(0,0,0);font-family:URWPalladioL-Roma;font-size:9.96px;stroke:none;">cient lower than 0.35 indicates lowreliability. The Cronbach’s alpha of each</text>
   <text y="217.799" x="76.535,82.744,85.701,94.674,99.541,105.456,109.764,112.721,118.27,124.04679999999999,126.806,135.281,140.362,144.5452,147.302,152.952,156.783,161.651,166.732,170.044,174.912,178.89600000000002,181.548,184.86,190.775,195.855,201.6318,204.391,209.472,212.013,217.094,222.175,224.66500000000002,227.378,230.335,236.249,242.458,245.415,249.927,255.008,258.32,261.277,267.192,272.7696,275.463,281.113,286.662,292.21,298.2856,301.051,304.882,309.75,312.707,315.664,320.745,326.364,329.321,332.278,335.235,338.548,344.1256,346.82" svgx:width="0.61,0.29,0.88,0.48,0.58,0.42,0.29,0.55,0.58,0.55,0.83,0.5,0.42,0.55,0.56,0.4,0.48,0.5,0.33,0.48,0.4,0.55,0.33,0.58,0.5,0.58,0.55,0.5,0.25,0.5,0.5,0.25,0.55,0.29,0.58,0.61,0.29,0.44,0.5,0.33,0.29,0.58,0.56,0.55,0.56,0.55,0.55,0.61,0.55,0.4,0.48,0.29,0.29,0.5,0.55,0.29,0.29,0.29,0.33,0.56,0.55,0.33" style="fill:rgb(0,0,0);font-family:URWPalladioL-Roma;font-size:9.96px;stroke:none;">dimension was greater than 0.80, indicating good reliability [</text>
   <text y="217.799" x="350.205,355.186" svgx:width="0.5,0.5" style="fill:rgb(8,117,183);font-family:URWPalladioL-Roma;font-size:9.96px;stroke:none;">86</text>
   <text y="217.799" x="360.168,363.552,366.04200000000003,369.984,378.439,383.52,386.477,390.46099999999996,393.113,397.98,401.26680000000005,403.915,408.996,411.953,414.443,417.115" svgx:width="0.33,0.25,0.55,0.83,0.5,0.29,0.4,0.55,0.48,0.33,0.55,0.5,0.29,0.25,0.55,0.33" style="fill:rgb(0,0,0);font-family:URWPalladioL-Roma;font-size:9.96px;stroke:none;">]. Hair et al. [</text>
   <text y="217.799" x="420.504,425.485" svgx:width="0.5,0.5" style="fill:rgb(8,117,183);font-family:URWPalladioL-Roma;font-size:9.96px;stroke:none;">87</text>
   <text y="217.799" x="430.467,433.7538,436.473,440.781,446.909,452.559,458.209,463.076,467.385,470.698,475.565,481.6406,484.396,487.709,493.623,498.704,501.99080000000004,504.649,507.961,513.876" svgx:width="0.33,0.55,0.42,0.6,0.56,0.56,0.48,0.42,0.33,0.48,0.61,0.55,0.33,0.58,0.5,0.33,0.55,0.33,0.58,0.48" style="fill:rgb(0,0,0);font-family:URWPalladioL-Roma;font-size:9.96px;stroke:none;">] suggested that the</text>
   <text y="231.308" x="76.535,80.888,86.24,94.896,100.788,106.141,110.297,113.15,116.346,121.1268,123.532,127.218,131.913,134.766,137.619,142.52,147.942,150.794,153.647,156.5,159.696,165.2736,167.636,170.901,177.851,184.4,187.6868,190.154,195.507,198.7938,201.251,204.104,209.006,212.201,216.897,222.603,225.8898,228.289,233.827,238.729,242.601,245.454,250.356,255.777,258.629,263.325,267.5082,269.972,274.128,279.834,285.186,291.098,293.95,300.0256,302.42,307.841,312.6218,315.027,320.478,324.174,328.869,333.771,336.967,341.663,345.647,348.025,351.221,356.926,361.828,367.60479999999995,370.013,374.915,377.366,382.267,387.169,389.659,393.11,400.8788,403.227,408.932,411.775,417.226,423.0028,425.421,432.372,439.0452,441.41,446.763,450.0498,452.517,455.37,460.272,463.467,468.163,473.869,477.15580000000006,479.545,485.083,489.985,493.857,496.71,501.612,507.033,509.886,514.581" svgx:width="0.44,0.55,0.88,0.6,0.55,0.42,0.29,0.33,0.48,0.55,0.4,0.48,0.29,0.29,0.5,0.55,0.29,0.29,0.29,0.33,0.56,0.55,0.33,0.71,0.67,0.33,0.55,0.55,0.33,0.55,0.29,0.5,0.33,0.48,0.58,0.33,0.55,0.56,0.5,0.4,0.29,0.5,0.55,0.29,0.48,0.42,0.55,0.42,0.58,0.55,0.6,0.29,0.61,0.55,0.55,0.48,0.55,0.56,0.4,0.48,0.5,0.33,0.48,0.4,0.55,0.33,0.58,0.5,0.58,0.55,0.5,0.25,0.5,0.5,0.25,0.55,0.78,0.55,0.58,0.29,0.56,0.58,0.55,0.71,0.67,0.55,0.55,0.33,0.55,0.29,0.5,0.33,0.48,0.58,0.33,0.55,0.56,0.5,0.4,0.29,0.5,0.55,0.29,0.48,0.42" style="fill:rgb(0,0,0);font-family:URWPalladioL-Roma;font-size:9.96px;stroke:none;">composite reliability (CR) of latent variables should be greater than 0.70. A high CR of latent variables</text>
   <text y="244.818" x="76.535,79.846,85.275,89.259,91.678,96.649,102.4258,104.921,109.684,114.814,119.786,128.565,131.458,137.245,142.008,148.08360000000002,150.558,156.176,161.147,165.075,167.968,172.939,178.438,181.331,186.1118,188.579,191.472,197.259,203.334,206.227,210.642,215.613,218.855,223.617,227.8002,230.309,233.55,239.336,244.308,247.5948,250.025,253.266,259.053,263.8338,266.301,271.064,276.194,281.165,289.945,292.838,298.625,303.387,309.4626,311.938,317.556,322.527,326.454,329.348,334.319,339.817,342.711,347.4918,349.959,352.852,357.0352,359.543,365.161,370.132,373.026,375.919,381.9946,384.47,387.781,393.209,397.193,399.622,405.618,409.834,414.6148,417.072,419.965,425.74179999999996,428.237,437.017,441.779,446.751,450.966,456.962,460.889,463.783,469.569,475.14660000000003,477.573,480.814,486.601,491.3818,493.839,496.733,501.704,504.945,509.708,515.494" svgx:width="0.33,0.55,0.4,0.55,0.5,0.58,0.55,0.48,0.52,0.5,0.88,0.29,0.58,0.48,0.61,0.55,0.56,0.5,0.4,0.29,0.5,0.55,0.29,0.48,0.55,0.29,0.58,0.61,0.29,0.44,0.5,0.33,0.48,0.42,0.55,0.33,0.58,0.5,0.33,0.55,0.33,0.58,0.48,0.55,0.48,0.52,0.5,0.88,0.29,0.58,0.48,0.61,0.55,0.56,0.5,0.4,0.29,0.5,0.55,0.29,0.48,0.55,0.29,0.42,0.55,0.56,0.5,0.29,0.29,0.61,0.55,0.33,0.55,0.4,0.55,0.6,0.42,0.48,0.55,0.29,0.58,0.55,0.88,0.48,0.5,0.42,0.6,0.4,0.29,0.58,0.56,0.55,0.33,0.58,0.48,0.55,0.29,0.5,0.33,0.48,0.58,0.33" style="fill:rgb(0,0,0);font-family:URWPalladioL-Roma;font-size:9.96px;stroke:none;">for an examined variable indicates that the examined variable is valid for use in measuring the latent</text>
   <text y="258.327" x="76.256,81.941,86.972,90.947,93.875,98.906,104.47,107.399,112.218,114.708,118.215,124.384,130.24,135.0208,137.545,144.679,151.3522,153.886,159.38,162.6668,165.216,168.496,174.353,179.1338,181.648,187.333,192.364,196.339,199.267,204.298,209.862,212.79,217.61,221.7932,224.362,227.29,233.0668,235.632,238.912,244.768,247.696,251.8792,254.448,258.714,261.995,268.062,274.21,279.7876,282.28,286.255,291.286,297.142,302.737,307.556,313.6316,316.19,319.54,323.334,328.828,340.198,345.229,347.745,352.776,357.807,362.78700000000003,365.324,368.604,374.082,376.583,381.614,384.13,389.161,394.192,399.223,401.713,404.224,407.152,413.009,419.157,422.085,426.552,431.583,434.864,437.792,443.638,449.2156,451.718,454.998,460.854,465.886,469.17280000000005,471.651,474.931,480.788,483.716,487.8992,490.468,499.353,504.846,510.995,515.814" svgx:width="0.56,0.5,0.4,0.29,0.5,0.55,0.29,0.48,0.25,0.55,0.61,0.58,0.48,0.55,0.71,0.67,0.55,0.55,0.33,0.55,0.33,0.58,0.48,0.55,0.56,0.5,0.4,0.29,0.5,0.55,0.29,0.48,0.42,0.55,0.29,0.58,0.55,0.33,0.58,0.29,0.42,0.55,0.42,0.33,0.6,0.61,0.56,0.55,0.4,0.5,0.58,0.56,0.48,0.61,0.55,0.33,0.4,0.55,0.88,0.5,0.25,0.5,0.5,0.5,0.55,0.33,0.55,0.55,0.5,0.25,0.5,0.5,0.5,0.25,0.55,0.29,0.58,0.61,0.29,0.44,0.5,0.33,0.29,0.58,0.56,0.55,0.33,0.58,0.5,0.33,0.55,0.33,0.58,0.29,0.42,0.55,0.88,0.55,0.61,0.48,0.29" style="fill:rgb(0,0,0);font-family:URWPalladioL-Roma;font-size:9.96px;stroke:none;">variable. The CR of the variables in this study ranged from0.713 to 0.940, indicating that this model</text>
   <text y="271.837" x="76.535,82.217,87.099,93.1746,95.398,100.826,106.157,111.488,117.5636,119.777,122.618,128.3,131.483,136.16,140.016,145.699,150.58,153.4684,155.755,160.09,165.421,171.103,175.242,178.084,182.223,185.406,190.083,195.765,200.1,204.415,206.905,210.293,216.278,221.96,226.7408,228.97,233.852,239.368,244.045,247.901,252.783,258.211,262.9918,265.212,270.728,275.61,279.466,282.307,287.189,292.871,297.206,301.9868,304.216,308.893,313.931,317.114,320.97,325.852,330.187,333.37,338.046,344.1216,346.335,349.587,356.079,363.128,369.094,372.3808,374.678,377.93,383.26,387.24399999999997,389.441,394.117,398.999,403.334,409.1108,411.35,414.601,419.482,423.817,427.0,432.331,436.315,438.511,446.654,451.535,455.7182,458.009,463.408,468.084,471.267,479.41,484.086,488.763,494.53979999999996,496.769,501.651,504.092,508.973,513.855" svgx:width="0.58,0.5,0.61,0.55,0.56,0.55,0.55,0.61,0.55,0.29,0.58,0.33,0.48,0.4,0.58,0.5,0.29,0.55,0.44,0.55,0.58,0.42,0.29,0.42,0.33,0.48,0.58,0.44,0.56,0.25,0.55,0.61,0.58,0.48,0.55,0.5,0.56,0.48,0.4,0.5,0.56,0.48,0.55,0.56,0.5,0.4,0.29,0.5,0.58,0.44,0.48,0.55,0.48,0.52,0.33,0.4,0.5,0.44,0.33,0.48,0.61,0.55,0.33,0.78,0.72,0.61,0.33,0.55,0.33,0.55,0.4,0.55,0.48,0.5,0.44,0.58,0.55,0.33,0.5,0.44,0.33,0.55,0.4,0.55,0.83,0.5,0.42,0.55,0.55,0.48,0.33,0.83,0.48,0.48,0.58,0.55,0.5,0.25,0.5,0.5,0.5" style="fill:rgb(0,0,0);font-family:URWPalladioL-Roma;font-size:9.96px;stroke:none;">had good internal consistency. The average variance extracted (AVE) for each factor was between 0.560</text>
   <text y="285.346" x="76.535,81.447,87.164,93.2396,95.661,100.572,103.028,107.94,112.851,117.763,120.253,122.723,130.916,136.633,139.491,143.853,149.62980000000002,152.075,154.924,159.1072,161.593,167.31,170.169,175.631,181.348,186.053,190.037,192.428,195.631,201.348,206.259,212.0358,214.481,217.683,223.4,228.1808,230.601,234.304,239.009,243.371,248.734,257.408,266.082,270.787,276.504,282.506,287.211,293.2866,295.708,301.141,305.846,311.563,315.924,321.642,330.315,335.227,339.107,344.68460000000005,347.074,352.437,355.72380000000004,358.203,363.115,365.571,370.55100000000004,372.987" svgx:width="0.5,0.58,0.61,0.55,0.5,0.25,0.5,0.5,0.5,0.25,0.55,0.83,0.58,0.29,0.44,0.58,0.55,0.29,0.42,0.55,0.58,0.29,0.56,0.58,0.48,0.4,0.55,0.33,0.58,0.5,0.58,0.55,0.33,0.58,0.48,0.55,0.4,0.48,0.44,0.55,0.88,0.88,0.48,0.58,0.61,0.48,0.61,0.55,0.55,0.48,0.58,0.44,0.58,0.88,0.5,0.4,0.56,0.55,0.55,0.33,0.55,0.5,0.25,0.5,0.55,0.33" style="fill:rgb(0,0,0);font-family:URWPalladioL-Roma;font-size:9.96px;stroke:none;">and 0.839, which is higher than the recommended benchmark of 0.5 [</text>
   <text y="285.346" x="376.253,381.234" svgx:width="0.5,0.5" style="fill:rgb(8,117,183);font-family:URWPalladioL-Roma;font-size:9.96px;stroke:none;">85</text>
   <text y="285.346" x="386.216,389.487,391.97700000000003,395.46,403.632,408.996,417.188,421.894,427.444,432.149,435.283,437.773,440.243,443.445,449.163,453.9438,456.373,461.923,466.834,469.693,475.616,480.3968,482.817,488.18,491.46680000000003,493.946,497.217,502.129,506.49,509.693,515.056" svgx:width="0.33,0.25,0.55,0.83,0.55,0.83,0.48,0.56,0.48,0.4,0.25,0.55,0.33,0.58,0.48,0.55,0.56,0.5,0.29,0.6,0.48,0.55,0.55,0.33,0.55,0.33,0.5,0.44,0.33,0.55,0.4" style="fill:rgb(0,0,0);font-family:URWPalladioL-Roma;font-size:9.96px;stroke:none;">]. However, the value of factor</text>
   <text y="298.855" x="76.535,79.405,84.79,89.722,95.748,98.618,104.358,109.93560000000001,112.338,115.622,120.553,123.019,127.951,132.882,137.814,142.745,147.677,150.142,155.074,160.005,164.937,168.2238,170.717,178.942,183.874,188.0572,190.541,196.281,199.152,204.635,210.376,215.1,219.084,221.491,224.706,230.447,235.378,241.1548,243.614,246.829,252.569,257.3498,259.789,263.498,268.222,272.601,277.986,286.695,295.404,300.129,305.869,311.895,316.62,322.6956,325.141,328.011,332.736,338.308,343.033,345.9214,348.398,353.783,357.06980000000004,359.563,364.494,366.96,371.94,374.377" svgx:width="0.29,0.55,0.5,0.61,0.29,0.58,0.56,0.55,0.33,0.5,0.25,0.5,0.5,0.5,0.5,0.5,0.25,0.5,0.5,0.5,0.33,0.55,0.83,0.5,0.42,0.55,0.58,0.29,0.56,0.58,0.48,0.4,0.55,0.33,0.58,0.5,0.58,0.55,0.33,0.58,0.48,0.55,0.4,0.48,0.44,0.55,0.88,0.88,0.48,0.58,0.61,0.48,0.61,0.55,0.29,0.48,0.56,0.48,0.29,0.55,0.55,0.33,0.55,0.5,0.25,0.5,0.55,0.33" style="fill:rgb(0,0,0);font-family:URWPalladioL-Roma;font-size:9.96px;stroke:none;">loading (0.624–0.952) was higher than the recommended level of 0.6 [</text>
   <text y="298.855" x="377.665,382.646" svgx:width="0.5,0.5" style="fill:rgb(8,117,183);font-family:URWPalladioL-Roma;font-size:9.96px;stroke:none;">88</text>
   <text y="298.855" x="387.628,390.912,393.402,396.87,406.2,410.924,415.856,421.596,425.778,428.26800000000003,430.739,434.921,438.136,443.068,448.808,454.834,459.766,463.484,469.5596,472.006,478.032,482.756,488.329,491.199,496.131,499.346,502.216,507.601,513.341,517.523" svgx:width="0.33,0.25,0.55,0.95,0.48,0.5,0.58,0.42,0.25,0.55,0.42,0.33,0.5,0.58,0.61,0.5,0.4,0.61,0.55,0.61,0.48,0.56,0.29,0.5,0.33,0.29,0.55,0.58,0.42,0.25" style="fill:rgb(0,0,0);font-family:URWPalladioL-Roma;font-size:9.96px;stroke:none;">]. Means, standard deviations,</text>
   <text y="312.365" x="76.535,81.506,87.293,93.3686,95.854,100.268,105.697,109.624,113.373,118.135,121.028,126.0,129.241,132.134,137.563,143.35,147.5332,150.041,155.013,163.792,169.221,175.007,180.5846,183.021,186.262,192.049,196.8298,199.297,203.702,209.131,214.917,219.133,222.374,226.222,232.217,236.632,239.873,244.0562,246.575,251.546,255.294,260.07480000000004,262.543,268.518,272.267,277.029,281.245,286.007,291.794,295.035,299.798,305.8736,308.349,311.242,317.0188,319.514,324.694,329.666,335.164,338.057" svgx:width="0.5,0.58,0.61,0.55,0.44,0.55,0.4,0.4,0.48,0.29,0.5,0.33,0.29,0.55,0.58,0.42,0.55,0.5,0.88,0.55,0.58,0.56,0.55,0.33,0.58,0.48,0.55,0.44,0.55,0.58,0.42,0.33,0.4,0.6,0.44,0.33,0.42,0.55,0.5,0.4,0.48,0.55,0.6,0.4,0.48,0.42,0.48,0.58,0.33,0.48,0.61,0.55,0.29,0.58,0.55,0.61,0.5,0.55,0.29,0.48" style="fill:rgb(0,0,0);font-family:URWPalladioL-Roma;font-size:9.96px;stroke:none;">and correlations among the constructs are presented in Table</text>
   <text y="312.365" x="345.296" svgx:width="0.5" style="fill:rgb(8,117,183);font-family:URWPalladioL-Roma;font-size:9.96px;stroke:none;">2</text>
   <text y="312.365" x="350.267,352.757,356.242,361.462,364.356,369.884,375.67,378.564,384.579,388.994,393.965,399.752,403.03880000000004,405.469,411.444,416.873,421.089,423.982,427.223,430.116,435.734,440.5148,442.982,447.397,452.826,456.753,460.501,465.264,468.157,473.129,476.37,479.263,484.692,490.479,494.6622,497.17,505.462,510.225,513.973" svgx:width="0.25,0.55,0.52,0.29,0.56,0.58,0.29,0.61,0.44,0.5,0.58,0.33,0.55,0.6,0.55,0.42,0.29,0.33,0.29,0.56,0.48,0.55,0.44,0.55,0.4,0.4,0.48,0.29,0.5,0.33,0.29,0.55,0.58,0.42,0.55,0.83,0.48,0.4,0.48" style="fill:rgb(0,0,0);font-family:URWPalladioL-Roma;font-size:9.96px;stroke:none;">. Signiﬁcant positive correlations were</text>
   <text y="325.874" x="76.535,79.786,85.117,91.004,96.687,102.76259999999999,104.595,107.778,113.256,115.051,119.728,124.766,127.607,131.747,135.0338,136.882,142.272,146.948,150.131,158.274,162.95,167.627,173.40380000000002,175.262,180.144,183.326,186.509,189.35,192.533,198.421,204.386,209.1668,211.006,215.887,221.57,227.6456,229.478,235.346,241.233,244.914,249.249,254.931,259.813,263.952,268.7328,270.572,273.413,279.095,282.278,286.955,292.637,295.82,298.661,303.992,309.7688,311.617" svgx:width="0.33,0.55,0.6,0.58,0.61,0.55,0.33,0.55,0.55,0.48,0.52,0.29,0.42,0.33,0.55,0.55,0.48,0.33,0.83,0.48,0.48,0.58,0.55,0.5,0.33,0.33,0.29,0.33,0.6,0.61,0.48,0.55,0.5,0.58,0.61,0.55,0.6,0.6,0.4,0.44,0.58,0.5,0.42,0.48,0.55,0.29,0.58,0.33,0.48,0.58,0.33,0.29,0.55,0.58,0.55,0.33" style="fill:rgb(0,0,0);font-family:URWPalladioL-Roma;font-size:9.96px;stroke:none;">found to exist between attitude and purchase intention (</text>
   <text y="325.874" x="314.867" svgx:width="0.39" style="fill:rgb(0,0,0);font-family:URWPalladioL-Ital;font-size:9.96px;stroke:none;">r</text>
   <text y="325.874" x="320.609" svgx:width="0.67" style="fill:rgb(0,0,0);font-family:Rpxr;font-size:9.96px;stroke:none;">=</text>
   <text y="325.874" x="329.086,333.968,336.409,341.29,346.172" svgx:width="0.5,0.25,0.5,0.5,0.25" style="fill:rgb(0,0,0);font-family:URWPalladioL-Roma;font-size:9.96px;stroke:none;">0.39,</text>
   <text y="325.874" x="350.666" svgx:width="0.5" style="fill:rgb(0,0,0);font-family:URWPalladioL-Ital;font-size:9.96px;stroke:none;">p</text>
   <text y="325.874" x="357.493" svgx:width="0.67" style="fill:rgb(0,0,0);font-family:Rpxr;font-size:9.96px;stroke:none;">&lt;</text>
   <text y="325.874" x="365.969,370.851,373.292,378.173,383.055,386.306,388.796,390.797,394.937,400.824,406.223,408.508,413.185,417.519,420.702,423.543,429.06,433.8408,435.679,441.362,446.692,450.549,461.123,466.004,471.687,477.7626,479.595,485.463,491.35,495.021,499.356,505.038,509.92,514.06" svgx:width="0.5,0.25,0.5,0.5,0.33,0.25,0.55,0.42,0.6,0.55,0.23,0.48,0.44,0.33,0.29,0.56,0.48,0.55,0.58,0.55,0.4,0.88,0.5,0.58,0.61,0.55,0.6,0.6,0.4,0.44,0.58,0.5,0.42,0.48" style="fill:rgb(0,0,0);font-family:URWPalladioL-Roma;font-size:9.96px;stroke:none;">0.01), subjective normand purchase</text>
   <text y="339.384" x="76.535,79.46,85.311,88.588,93.403,99.253,102.53,105.455,110.944,116.7208,119.297" svgx:width="0.29,0.58,0.33,0.48,0.58,0.33,0.29,0.55,0.58,0.55,0.33" style="fill:rgb(0,0,0);font-family:URWPalladioL-Roma;font-size:9.96px;stroke:none;">intention (</text>
   <text y="339.384" x="122.64" svgx:width="0.39" style="fill:rgb(0,0,0);font-family:URWPalladioL-Ital;font-size:9.96px;stroke:none;">r</text>
   <text y="339.384" x="129.049" svgx:width="0.67" style="fill:rgb(0,0,0);font-family:Rpxr;font-size:9.96px;stroke:none;">=</text>
   <text y="339.384" x="138.273,143.299,145.812,150.838,155.864" svgx:width="0.5,0.25,0.5,0.5,0.25" style="fill:rgb(0,0,0);font-family:URWPalladioL-Roma;font-size:9.96px;stroke:none;">0.40,</text>
   <text y="339.384" x="160.879" svgx:width="0.5" style="fill:rgb(0,0,0);font-family:URWPalladioL-Ital;font-size:9.96px;stroke:none;">p</text>
   <text y="339.384" x="168.404" svgx:width="0.67" style="fill:rgb(0,0,0);font-family:Rpxr;font-size:9.96px;stroke:none;">&lt;</text>
   <text y="339.384" x="177.628,182.654,185.167,190.193,195.219,198.567,201.05700000000002,203.583,209.624,214.439,218.229,222.692,227.507,230.433,236.112,240.927,247.0026,249.562,255.121,259.936,265.786,270.812,276.492,279.417,284.906,288.876,293.902,296.7904,299.331,303.794,309.282,315.133,318.41,322.2,327.688,330.5764,333.116,338.142,343.993,350.0686,352.628,358.669,364.731,368.52,372.984,378.834,383.86,388.122,392.9028,395.44,398.366,404.216,407.493,412.308,418.158,421.435,424.361,429.849,435.62579999999997,438.203" svgx:width="0.5,0.25,0.5,0.5,0.33,0.25,0.55,0.6,0.48,0.4,0.44,0.48,0.29,0.56,0.48,0.61,0.55,0.55,0.48,0.58,0.5,0.56,0.29,0.55,0.4,0.5,0.29,0.55,0.44,0.55,0.58,0.33,0.4,0.55,0.29,0.55,0.5,0.58,0.61,0.55,0.6,0.6,0.4,0.44,0.58,0.5,0.42,0.48,0.55,0.29,0.58,0.33,0.48,0.58,0.33,0.29,0.55,0.58,0.55,0.33" style="fill:rgb(0,0,0);font-family:URWPalladioL-Roma;font-size:9.96px;stroke:none;">0.01), perceived behavioral control and purchase intention (</text>
   <text y="339.384" x="441.546" svgx:width="0.39" style="fill:rgb(0,0,0);font-family:URWPalladioL-Ital;font-size:9.96px;stroke:none;">r</text>
   <text y="339.384" x="447.955" svgx:width="0.67" style="fill:rgb(0,0,0);font-family:Rpxr;font-size:9.96px;stroke:none;">=</text>
   <text y="339.384" x="457.179,462.205,464.718,469.744,474.77" svgx:width="0.5,0.25,0.5,0.5,0.25" style="fill:rgb(0,0,0);font-family:URWPalladioL-Roma;font-size:9.96px;stroke:none;">0.31,</text>
   <text y="339.384" x="479.785" svgx:width="0.5" style="fill:rgb(0,0,0);font-family:URWPalladioL-Ital;font-size:9.96px;stroke:none;">p</text>
   <text y="339.384" x="487.31" svgx:width="0.67" style="fill:rgb(0,0,0);font-family:Rpxr;font-size:9.96px;stroke:none;">&lt;</text>
   <text y="339.384" x="496.534,501.56,504.073,509.099,514.125,517.473" svgx:width="0.5,0.25,0.5,0.5,0.33,0.25" style="fill:rgb(0,0,0);font-family:URWPalladioL-Roma;font-size:9.96px;stroke:none;">0.01),</text>
   <text y="352.893" x="76.535,81.616,87.53,93.6056,96.666,101.533,107.447,113.189,116.146,119.977,125.525,131.439,140.412,145.28,151.194,154.507,159.588,162.47639999999998,165.461,169.973,175.522,181.436,185.948,190.815,194.829,200.60580000000002,203.67,208.751,214.665,220.7406,223.801,229.908,236.035,239.866,244.378,250.293,255.373,259.682,264.4628,267.476,270.433,276.347,279.66,284.528,290.442,293.745,296.702,302.25,308.0268,311.091" svgx:width="0.5,0.58,0.61,0.55,0.48,0.58,0.56,0.29,0.4,0.55,0.58,0.88,0.48,0.58,0.33,0.5,0.29,0.55,0.44,0.55,0.58,0.44,0.48,0.4,0.58,0.55,0.5,0.58,0.61,0.55,0.6,0.6,0.4,0.44,0.58,0.5,0.42,0.48,0.55,0.29,0.58,0.33,0.48,0.58,0.33,0.29,0.55,0.58,0.55,0.33" style="fill:rgb(0,0,0);font-family:URWPalladioL-Roma;font-size:9.96px;stroke:none;">and environmental concern and purchase intention (</text>
   <text y="352.893" x="314.475" svgx:width="0.39" style="fill:rgb(0,0,0);font-family:URWPalladioL-Ital;font-size:9.96px;stroke:none;">r</text>
   <text y="352.893" x="321.351" svgx:width="0.67" style="fill:rgb(0,0,0);font-family:Rpxr;font-size:9.96px;stroke:none;">=</text>
   <text y="352.893" x="331.071,336.152,338.692,343.773,348.854" svgx:width="0.5,0.25,0.5,0.5,0.25" style="fill:rgb(0,0,0);font-family:URWPalladioL-Roma;font-size:9.96px;stroke:none;">0.27,</text>
   <text y="352.893" x="354.426" svgx:width="0.5" style="fill:rgb(0,0,0);font-family:URWPalladioL-Ital;font-size:9.96px;stroke:none;">p</text>
   <text y="352.893" x="362.429" svgx:width="0.67" style="fill:rgb(0,0,0);font-family:Rpxr;font-size:9.96px;stroke:none;">&lt;</text>
   <text y="352.893" x="372.15,377.231,379.771,384.852,389.933,393.317,395.807,400.644,406.873,412.787,417.655,421.963,426.7438,429.747,433.578,438.446,442.755,448.882,451.839,455.152,459.3352,462.387,465.344,471.258,477.467,480.424,484.936,490.017,493.33,498.1108,501.124,504.437,510.351,515.432" svgx:width="0.5,0.25,0.5,0.5,0.33,0.25,0.55,0.61,0.58,0.48,0.42,0.48,0.55,0.4,0.48,0.42,0.6,0.29,0.33,0.42,0.55,0.29,0.58,0.61,0.29,0.44,0.5,0.33,0.48,0.55,0.33,0.58,0.5,0.33" style="fill:rgb(0,0,0);font-family:URWPalladioL-Roma;font-size:9.96px;stroke:none;">0.01). These results indicate that</text>
   <text y="366.402" x="76.535,79.786,85.59,90.3708,92.86,98.664,101.566,107.111,112.915,117.692,121.67599999999999,124.124,127.375,133.179,137.9598,140.449,145.435,148.686,151.938,154.84,158.091,164.104,170.197,174.974,177.464,179.96,184.189,190.202,195.717,198.051,202.827,207.255,210.506,213.408,219.043,223.8238,226.313,232.117,237.562,241.501,250.307,252.797,255.293,261.287,266.063,269.823,274.251,279.028,281.93,287.564,292.341,298.4166,300.927,306.442,311.219,317.023,322.009,327.644,330.546,335.991,339.93,344.916,347.8044,350.312,354.739,360.184,365.988,369.239,372.999,378.444,381.346,383.836,386.332,391.319,397.123,403.1986,405.709,410.486,416.29,421.924,424.826,428.586,434.031,439.835,448.641,453.418,459.222,462.473,467.459,470.3474,472.854,477.282,482.727,488.531,492.959,497.736,501.675,507.4518,509.972,515.417" svgx:width="0.33,0.58,0.48,0.55,0.58,0.29,0.56,0.58,0.48,0.4,0.55,0.33,0.58,0.48,0.55,0.5,0.33,0.33,0.29,0.33,0.6,0.61,0.48,0.25,0.55,0.42,0.6,0.55,0.23,0.48,0.44,0.33,0.29,0.56,0.48,0.55,0.58,0.55,0.4,0.88,0.25,0.55,0.6,0.48,0.4,0.44,0.48,0.29,0.56,0.48,0.61,0.55,0.55,0.48,0.58,0.5,0.56,0.29,0.55,0.4,0.5,0.29,0.55,0.44,0.55,0.58,0.33,0.4,0.55,0.29,0.25,0.55,0.5,0.58,0.61,0.55,0.48,0.58,0.56,0.29,0.4,0.55,0.58,0.88,0.48,0.58,0.33,0.5,0.29,0.55,0.44,0.55,0.58,0.44,0.48,0.4,0.58,0.55,0.55,0.33" style="fill:rgb(0,0,0);font-family:URWPalladioL-Roma;font-size:9.96px;stroke:none;">the higher the attitude, subjective norm, perceived behavioral control, and environmental concern of</text>
   <text y="379.912" x="76.535,80.888,86.24,91.946,96.102,102.014,110.67,115.365,119.238,123.394,125.884,128.345,131.541,137.246,142.0268,144.432,148.589,151.784,155.48,160.833,166.538,171.989,176.684,180.668,183.047,186.243,191.948,196.644,199.497,203.48100000000002,205.869,211.76,217.672,221.358,225.71,231.416,236.317,240.474,245.2548,247.669,250.522,256.228,259.423,264.119,269.825,273.021,275.873,281.226,287.0028,289.421,292.617,298.095,300.469,303.322,309.028,313.184,317.88,322.233,325.51980000000003,327.918,331.183,336.535,341.888,347.878,350.368,353.828,359.818,365.3956,367.768,372.121,377.474,383.179,386.375,390.247,395.149,399.305,402.501,404.991,407.442,410.706,416.059,421.412,427.4876,429.901,435.607,440.302,445.655,451.547,457.252,462.605,468.026,470.879,475.85900000000004,478.27,482.966,488.024,493.73,496.583,502.004,504.856,508.052,512.748" svgx:width="0.44,0.55,0.58,0.42,0.6,0.88,0.48,0.4,0.42,0.25,0.55,0.33,0.58,0.48,0.55,0.42,0.33,0.4,0.55,0.58,0.56,0.48,0.4,0.55,0.33,0.58,0.48,0.29,0.4,0.55,0.6,0.6,0.4,0.44,0.58,0.5,0.42,0.48,0.55,0.29,0.58,0.33,0.48,0.58,0.33,0.29,0.55,0.58,0.55,0.33,0.55,0.55,0.29,0.58,0.42,0.48,0.44,0.33,0.55,0.33,0.55,0.55,0.61,0.25,0.55,0.61,0.56,0.55,0.44,0.55,0.58,0.33,0.4,0.5,0.42,0.33,0.25,0.55,0.33,0.55,0.55,0.61,0.55,0.58,0.48,0.55,0.6,0.58,0.55,0.55,0.29,0.5,0.55,0.48,0.52,0.58,0.29,0.55,0.29,0.33,0.48,0.61" style="fill:rgb(0,0,0);font-family:URWPalladioL-Roma;font-size:9.96px;stroke:none;">consumers, the stronger their purchase intention to insect food. By contrast, food neophobia exhibited</text>
   <text y="393.421" x="76.535,81.515,84.756,89.065,92.022,97.672,103.586,106.543,112.691,117.203,122.284,128.198,131.4848,134.651,140.565,145.432,151.082,156.163,159.476,162.433,168.175,172.9558,176.182,180.694,186.242,190.256,194.087,198.955,201.912,206.993,210.306,213.263,218.811,224.58780000000002,227.865,236.34,239.297,242.61,248.38680000000002,251.674,257.782,263.909,267.74,272.252,278.166,283.247,287.556,292.3368,295.564,298.521,304.435,307.748,312.615,318.529,321.842,324.799,330.348,336.1248,339.402" svgx:width="0.5,0.55,0.42,0.29,0.56,0.58,0.29,0.61,0.44,0.5,0.58,0.33,0.55,0.58,0.48,0.56,0.5,0.33,0.29,0.56,0.48,0.55,0.44,0.55,0.4,0.4,0.48,0.29,0.5,0.33,0.29,0.55,0.58,0.55,0.83,0.29,0.33,0.58,0.55,0.6,0.6,0.4,0.44,0.58,0.5,0.42,0.48,0.55,0.29,0.58,0.33,0.48,0.58,0.33,0.29,0.55,0.58,0.55,0.33" style="fill:rgb(0,0,0);font-family:URWPalladioL-Roma;font-size:9.96px;stroke:none;">a signiﬁcant negative correlation with purchase intention (</text>
   <text y="393.421" x="342.785" svgx:width="0.39" style="fill:rgb(0,0,0);font-family:URWPalladioL-Ital;font-size:9.96px;stroke:none;">r</text>
   <text y="393.421" x="349.878" svgx:width="0.67" style="fill:rgb(0,0,0);font-family:Rpxr;font-size:9.96px;stroke:none;">=</text>
   <text y="393.421" x="359.817" svgx:width="0.67" style="fill:rgb(0,0,0);font-family:Pxsy;font-size:9.96px;stroke:none;">−</text>
   <text y="393.421" x="366.482,371.563,374.103,379.184,384.265" svgx:width="0.5,0.25,0.5,0.5,0.25" style="fill:rgb(0,0,0);font-family:URWPalladioL-Roma;font-size:9.96px;stroke:none;">0.40,</text>
   <text y="393.421" x="390.109" svgx:width="0.5" style="fill:rgb(0,0,0);font-family:URWPalladioL-Ital;font-size:9.96px;stroke:none;">p</text>
   <text y="393.421" x="398.331" svgx:width="0.67" style="fill:rgb(0,0,0);font-family:Rpxr;font-size:9.96px;stroke:none;">&lt;</text>
   <text y="393.421" x="408.27,413.351,415.891,420.972,426.053,429.437,431.927,435.28,438.237,444.152,450.36,453.318,457.829,462.91,466.223,469.18,475.094,480.6716,483.884,487.197,493.111,498.192,501.47880000000004,504.645,507.958,513.872" svgx:width="0.5,0.25,0.5,0.5,0.33,0.25,0.55,0.29,0.58,0.61,0.29,0.44,0.5,0.33,0.29,0.58,0.56,0.55,0.33,0.58,0.5,0.33,0.55,0.33,0.58,0.48" style="fill:rgb(0,0,0);font-family:URWPalladioL-Roma;font-size:9.96px;stroke:none;">0.01), indicating that the</text>
   <text y="406.931" x="76.535,82.333,85.232,90.772,96.57,101.342,105.326,107.768,111.016,116.814,121.59479999999999,124.077,127.394,132.834,138.273,144.3486,146.851,152.649,157.421,162.861,168.848,174.647,180.086,185.596,188.495,193.475,195.967,201.406,204.6928,207.214,211.638,217.077,222.876,227.1,233.107,241.904,246.676,250.611,254.836,257.326,259.817,263.065,268.863,273.6438,276.126,284.434,289.207,294.188,299.727,304.499,308.483,310.925,314.173,319.971,324.743,327.642,331.626,334.068,340.056,346.063,349.819,354.243,360.041,365.022,369.246,374.0268,376.509,379.408,385.206,388.454,393.226,399.024,402.272,405.171,410.611,416.38779999999997,418.9,422.148,427.62600000000003,430.078,432.977,438.775,442.999,447.771,452.195,455.4818,457.933,461.251,466.69,472.13,478.217" svgx:width="0.58,0.29,0.56,0.58,0.48,0.4,0.55,0.33,0.58,0.48,0.55,0.33,0.55,0.55,0.61,0.55,0.58,0.48,0.55,0.6,0.58,0.55,0.55,0.29,0.5,0.55,0.55,0.33,0.55,0.44,0.55,0.58,0.42,0.6,0.88,0.48,0.4,0.42,0.25,0.55,0.33,0.58,0.48,0.55,0.83,0.48,0.5,0.56,0.48,0.4,0.55,0.33,0.58,0.48,0.29,0.4,0.55,0.6,0.6,0.4,0.44,0.58,0.5,0.42,0.48,0.55,0.29,0.58,0.33,0.48,0.58,0.33,0.29,0.55,0.58,0.55,0.33,0.55,0.55,0.29,0.58,0.42,0.48,0.44,0.33,0.55,0.33,0.55,0.55,0.61,0.25" style="fill:rgb(0,0,0);font-family:URWPalladioL-Roma;font-size:9.96px;stroke:none;">higher the food neophobia of consumers, the weaker their purchase intention to insect food.</text>
   <text y="431.672" x="184.232,189.217,193.701,199.179,202.165,206.65,208.89,213.373" svgx:width="0.67,0.5,0.61,0.33,0.5,0.55,0.5,0.25" style="fill:rgb(0,0,0);font-family:URWPalladioL-Bold;font-size:8.97px;stroke:none;">Table 1.</text>
   <text y="431.672" x="218.753,224.743,229.037,232.839,238.246,240.855,243.778,247.5454,249.822,254.717,257.6771,259.945,262.93,267.414,271.395,274.318,279.213,282.80100000000004,284.997,287.606,292.502,296.985,302.463,305.073,310.291,315.276,317.5185,319.76,323.14,327.435,330.044,332.653,337.136,342.095,344.704,347.313,349.922,352.846,356.836,359.0785,361.319,365.802,371.02,376.4917,378.741,383.807,388.29,390.899,393.508,398.987,401.596,404.519,408.509" svgx:width="0.67,0.48,0.42,0.6,0.29,0.33,0.42,0.55,0.55,0.33,0.55,0.33,0.5,0.44,0.33,0.55,0.4,0.55,0.29,0.55,0.5,0.61,0.29,0.58,0.56,0.25,0.55,0.4,0.48,0.29,0.29,0.5,0.55,0.29,0.29,0.29,0.33,0.56,0.25,0.55,0.5,0.58,0.61,0.55,0.56,0.5,0.29,0.29,0.61,0.29,0.33,0.56,0.25" style="fill:rgb(0,0,0);font-family:URWPalladioL-Roma;font-size:8.97px;stroke:none;">Results of factor loading, reliability, and validity.</text>
  </g>
  <path style="fill:none;stroke:rgb(0,0,0);stroke-width:1.0;" d="M80.960 441.890 L514.320 441.890 "/>
  <g begin="text">
   <text y="452.526" x="169.518,172.936,175.862,180.255,188.067,191.93460000000002,286.904,291.79,296.183,300.085,303.011,307.896,311.3241,313.511,318.88,323.766,328.159,333.528,336.454,341.823,346.74539999999996,362.675,369.019,372.438,377.323,382.692,388.061,392.455,396.356,401.725,403.684" svgx:width="0.39,0.33,0.5,0.89,0.44,0.55,0.56,0.5,0.44,0.33,0.56,0.39,0.55,0.61,0.56,0.5,0.61,0.33,0.61,0.56,0.55,0.72,0.39,0.56,0.61,0.61,0.5,0.44,0.61,0.28,0.44" style="fill:rgb(0,0,0);font-family:URWPalladioL-Bold;font-size:8.79px;stroke:none;">Items Factor Loading Cronbach’s</text>
   <text y="452.526" x="409.781" svgx:width="0.71" style="fill:rgb(0,0,0);font-family:EURB10;font-size:8.79px;stroke:none;">α</text>
   <text y="452.526" x="438.862,444.565,451.401,456.7629,485.811,492.155" svgx:width="0.78,0.78,0.61,0.55,0.72,0.72" style="fill:rgb(0,0,0);font-family:URWPalladioL-Bold;font-size:8.79px;stroke:none;">AVE CR</text>
  </g>
  <path style="fill:none;stroke:rgb(0,0,0);stroke-width:0.78;" d="M80.960 457.810 L514.320 457.810 "/>
  <g begin="text">
   <text y="468.204" x="164.311,171.147,174.012,176.876,179.433,182.298,187.597,192.966,197.1852,379.48,383.873,386.07,390.464,394.857,399.252,437.932,442.325,444.522,448.915,453.309,457.704,482.262,486.656,488.853,493.246,497.64" svgx:width="0.78,0.33,0.33,0.29,0.33,0.6,0.61,0.48,0.55,0.5,0.25,0.5,0.5,0.5,0.55,0.5,0.25,0.5,0.5,0.5,0.55,0.5,0.25,0.5,0.5,0.5" style="fill:rgb(0,0,0);font-family:URWPalladioL-Roma;font-size:8.79px;stroke:none;">Attitude 0.917 0.795 0.921</text>
  </g>
  <path style="fill:none;stroke:rgb(0,0,0);stroke-width:0.29;" d="M80.960 473.490 L514.320 473.490 "/>
  <g begin="text">
   <text y="483.883" x="123.118,128.486,132.88,135.745,138.302,143.416,148.3384,150.498,153.055,158.169,161.895,166.104,170.005,172.9057,175.067,177.993,182.791,187.588,192.94989999999999,195.154,197.711,201.4028,203.634,208.915,211.472,215.681,220.074,223.8,228.193,233.308,236.172,238.3695,306.926,311.319,313.516,317.909,322.303" svgx:width="0.61,0.5,0.33,0.29,0.58,0.56,0.55,0.29,0.58,0.42,0.48,0.44,0.33,0.55,0.33,0.55,0.55,0.61,0.55,0.29,0.42,0.55,0.6,0.29,0.48,0.5,0.42,0.5,0.58,0.33,0.25,0.55,0.5,0.25,0.5,0.5,0.5" style="fill:rgb(0,0,0);font-family:URWPalladioL-Roma;font-size:8.79px;stroke:none;">Eating insect food is pleasant. 0.952</text>
  </g>
  <path style="fill:none;stroke:rgb(0,0,0);stroke-width:0.29;" d="M80.960 489.170 L514.320 489.170 "/>
  <g begin="text">
   <text y="499.562" x="123.575,128.944,133.338,136.202,138.759,143.873,148.7954,150.956,153.513,158.627,162.353,166.562,170.463,173.3637,175.524,178.451,183.248,188.046,193.40789999999998,195.612,198.169,201.8608,204.091,207.404,211.613,214.17,218.379,223.344,227.737,232.851,235.716,237.9135,306.926,311.32,313.517,317.91,322.304" svgx:width="0.61,0.5,0.33,0.29,0.58,0.56,0.55,0.29,0.58,0.42,0.48,0.44,0.33,0.55,0.33,0.55,0.55,0.61,0.55,0.29,0.42,0.55,0.4,0.48,0.29,0.48,0.56,0.5,0.58,0.33,0.25,0.55,0.5,0.25,0.5,0.5,0.5" style="fill:rgb(0,0,0);font-family:URWPalladioL-Roma;font-size:8.79px;stroke:none;">Eating insect food is relevant. 0.791</text>
  </g>
  <path style="fill:none;stroke:rgb(0,0,0);stroke-width:0.29;" d="M80.960 504.840 L514.320 504.840 "/>
  <g begin="text">
   <text y="515.24" x="130.508,135.877,140.27,143.135,145.692,150.806,155.72840000000002,157.888,160.445,165.559,169.285,173.494,177.396,180.2967,182.457,185.383,190.181,194.979,200.3409,202.544,205.101,208.7928,211.024,213.888,218.282,222.008,224.872,228.782,230.9795,306.926,311.319,313.516,317.91,322.303" svgx:width="0.61,0.5,0.33,0.29,0.58,0.56,0.55,0.29,0.58,0.42,0.48,0.44,0.33,0.55,0.33,0.55,0.55,0.61,0.55,0.29,0.42,0.55,0.33,0.5,0.42,0.33,0.56,0.25,0.55,0.5,0.25,0.5,0.5,0.5" style="fill:rgb(0,0,0);font-family:URWPalladioL-Roma;font-size:8.79px;stroke:none;">Eating insect food is tasty. 0.924</text>
  </g>
  <path style="fill:none;stroke:rgb(0,0,0);stroke-width:0.29;" d="M80.960 520.520 L514.320 520.520 "/>
  <g begin="text">
   <text y="530.919" x="148.213,152.827,158.125,162.985,165.041,169.25,173.151,176.016,178.573,183.537,187.7562,189.943,197.245,202.043,205.514,213.2492,379.48,383.874,386.071,390.464,394.858,399.253,437.932,442.326,444.522,448.916,453.309,457.704,482.263,486.656,488.853,493.247,497.64" svgx:width="0.52,0.6,0.55,0.23,0.48,0.44,0.33,0.29,0.56,0.48,0.55,0.83,0.55,0.4,0.88,0.55,0.5,0.25,0.5,0.5,0.5,0.55,0.5,0.25,0.5,0.5,0.5,0.55,0.5,0.25,0.5,0.5,0.5" style="fill:rgb(0,0,0);font-family:URWPalladioL-Roma;font-size:8.79px;stroke:none;">Subjective Norm 0.874 0.778 0.875</text>
  </g>
  <path style="fill:none;stroke:rgb(0,0,0);stroke-width:0.29;" d="M80.960 536.200 L514.320 536.200 "/>
  <g begin="text">
   <text y="546.597" x="117.595,120.5836,122.753,130.082,134.879,140.178,142.735,148.0969,150.301,155.16,160.459,165.3814,167.541,170.098,175.212,178.938,183.147,187.048,189.9487,192.11,195.036,199.834,204.631,209.9929,212.197,217.056,221.265,225.167,229.56,234.859,238.585,242.794" svgx:width="0.34,0.55,0.83,0.55,0.6,0.29,0.61,0.55,0.55,0.6,0.56,0.55,0.29,0.58,0.42,0.48,0.44,0.33,0.55,0.33,0.55,0.55,0.61,0.55,0.55,0.48,0.44,0.5,0.6,0.42,0.48,0.25" style="fill:rgb(0,0,0);font-family:URWPalladioL-Roma;font-size:8.79px;stroke:none;">I would buy insect food because:</text>
   <text y="557.337" x="117.125,122.494,127.292,131.193,134.058,138.855,142.326" svgx:width="0.61,0.55,0.44,0.33,0.55,0.4,0.42" style="fill:rgb(0,0,0);font-family:URWPalladioL-Roma;font-size:8.79px;stroke:none;">doctors</text>
   <text y="557.337" x="146.052" svgx:width="0.29" style="fill:rgb(0,0,0);font-family:Rpxr;font-size:8.79px;stroke:none;">/</text>
   <text y="557.337" x="148.574,153.688,158.987,161.851,165.322,167.879,170.744,173.301,178.099,183.213,185.77,189.495,192.36,196.05180000000001,198.283,202.676,205.989,210.2082,212.395,214.952,220.0502,222.263,225.189,229.582,234.547,239.345,242.165" svgx:width="0.58,0.6,0.33,0.4,0.29,0.33,0.29,0.55,0.58,0.29,0.42,0.33,0.42,0.55,0.5,0.4,0.48,0.55,0.29,0.58,0.55,0.33,0.5,0.56,0.55,0.4,0.25" style="fill:rgb(0,0,0);font-family:URWPalladioL-Roma;font-size:8.79px;stroke:none;">nutritionists are in favor.</text>
   <text y="551.967" x="306.922,311.315,313.512,317.905,322.299" svgx:width="0.5,0.25,0.5,0.5,0.5" style="fill:rgb(0,0,0);font-family:URWPalladioL-Roma;font-size:8.79px;stroke:none;">0.862</text>
  </g>
  <path style="fill:none;stroke:rgb(0,0,0);stroke-width:0.29;" d="M80.960 562.390 L514.320 562.390 "/>
  <g begin="text">
   <text y="572.783" x="87.025,90.01360000000001,92.183,99.512,104.309,109.608,112.165,117.52690000000001,119.731,124.59,129.889,134.81140000000002,136.971,139.528,144.642,148.368,152.577,156.478,159.3787,161.54,164.466,169.263,174.061,179.4229,181.627,186.486,190.695,194.597,198.99,204.289,208.014,212.223,214.4205,217.496,221.705,226.819,231.783,234.34,237.653,242.451,247.565,255.324,259.533,264.647,267.512,271.905" svgx:width="0.34,0.55,0.83,0.55,0.6,0.29,0.61,0.55,0.55,0.6,0.56,0.55,0.29,0.58,0.42,0.48,0.44,0.33,0.55,0.33,0.55,0.55,0.61,0.55,0.55,0.48,0.44,0.5,0.6,0.42,0.48,0.25,0.55,0.48,0.58,0.56,0.29,0.4,0.55,0.58,0.88,0.48,0.58,0.33,0.5,0.29" style="fill:rgb(0,0,0);font-family:URWPalladioL-Roma;font-size:8.79px;stroke:none;">I would buy insect food because: environmental</text>
   <text y="583.522" x="142.955,147.84,151.153,155.951,161.249,166.53,170.2218,172.453,176.847,180.159,184.3782,186.565,189.122,194.2202,196.433,199.359,203.753,208.717,213.515,216.336" svgx:width="0.56,0.4,0.55,0.6,0.6,0.42,0.55,0.5,0.4,0.48,0.55,0.29,0.58,0.55,0.33,0.5,0.56,0.55,0.4,0.25" style="fill:rgb(0,0,0);font-family:URWPalladioL-Roma;font-size:8.79px;stroke:none;">groups are in favor.</text>
   <text y="578.152" x="306.922,311.315,313.512,317.905,322.299" svgx:width="0.5,0.25,0.5,0.5,0.5" style="fill:rgb(0,0,0);font-family:URWPalladioL-Roma;font-size:8.79px;stroke:none;">0.902</text>
  </g>
  <path style="fill:none;stroke:rgb(0,0,0);stroke-width:0.29;" d="M80.960 588.570 L514.320 588.570 "/>
  <g begin="text">
   <text y="598.967" x="123.777,129.085,133.294,136.606,140.508,144.717,147.274,152.238,156.447,161.8089,164.013,169.382,173.591,178.705,183.099,188.063,190.62,195.418,198.889,203.283,205.8321,208.036,214.266,219.064,224.178,227.043,230.356,235.153,237.7021,379.481,383.875,386.071,390.465,394.858,399.253,437.933,442.326,444.523,448.917,453.31,457.705,482.263,486.657,488.854,493.247,497.641" svgx:width="0.6,0.48,0.4,0.44,0.48,0.29,0.56,0.48,0.61,0.55,0.61,0.48,0.58,0.5,0.56,0.29,0.55,0.4,0.5,0.29,0.55,0.71,0.55,0.58,0.33,0.4,0.55,0.29,0.55,0.5,0.25,0.5,0.5,0.5,0.55,0.5,0.25,0.5,0.5,0.5,0.55,0.5,0.25,0.5,0.5,0.5" style="fill:rgb(0,0,0);font-family:URWPalladioL-Roma;font-size:8.79px;stroke:none;">Perceived Behavioral Control 0.674 0.560 0.713</text>
  </g>
  <path style="fill:none;stroke:rgb(0,0,0);stroke-width:0.29;" d="M80.960 604.250 L514.320 604.250 "/>
  <g begin="text">
   <text y="614.646" x="88.102,91.063,93.9637,96.125,103.453,108.251,113.55,116.107,121.4689,123.672,128.532,132.7512,134.937,139.902,144.111,147.582,152.5044,154.664,158.873,163.267,166.993,171.9154,174.075,177.001,181.799,185.315,187.466,195.225,199.4442,201.631,204.496,209.3305,211.49,216.35,221.648,226.5704,228.731,231.288,236.402,240.127,244.336,248.238,251.1387,253.299,256.225,261.023,265.821,271.19,273.3875,306.918,311.311,313.508,317.902,322.295" svgx:width="0.34,0.33,0.55,0.83,0.55,0.6,0.29,0.61,0.55,0.55,0.48,0.55,0.56,0.48,0.4,0.56,0.55,0.48,0.5,0.42,0.56,0.55,0.33,0.55,0.4,0.55,0.88,0.48,0.55,0.33,0.55,0.55,0.55,0.6,0.56,0.55,0.29,0.58,0.42,0.48,0.44,0.33,0.55,0.33,0.55,0.55,0.61,0.25,0.55,0.5,0.25,0.5,0.5,0.5" style="fill:rgb(0,0,0);font-family:URWPalladioL-Roma;font-size:8.79px;stroke:none;">It would be very easy for me to buy insect food. 0.855</text>
  </g>
  <path style="fill:none;stroke:rgb(0,0,0);stroke-width:0.29;" d="M80.960 619.930 L514.320 619.930 "/>
  <g begin="text">
   <text y="630.324" x="86.818,89.771,92.6717,94.826,97.375,101.0668,103.28,111.015,115.799,119.513,122.369,124.919,129.8414,131.989,137.271,142.545,144.735,147.591,152.4255,154.574,162.309,166.5282,168.696,176.002,181.101,185.298,188.154,193.252,197.449,200.965,203.108,205.964,210.7985,212.946,217.791,223.074,227.99640000000002,230.144,232.693,237.783,241.498,245.694,249.584,252.4847,254.639,257.556,262.339,267.123,272.475,274.6725,306.922,311.315,313.512,317.905,322.299" svgx:width="0.34,0.33,0.55,0.29,0.42,0.55,0.88,0.55,0.42,0.33,0.29,0.56,0.55,0.6,0.6,0.55,0.33,0.55,0.55,0.88,0.48,0.55,0.83,0.58,0.48,0.33,0.58,0.48,0.4,0.55,0.33,0.55,0.55,0.55,0.6,0.56,0.55,0.29,0.58,0.42,0.48,0.44,0.33,0.55,0.33,0.55,0.55,0.61,0.25,0.55,0.5,0.25,0.5,0.5,0.5" style="fill:rgb(0,0,0);font-family:URWPalladioL-Roma;font-size:8.79px;stroke:none;">It is mostly up to me whether to buy insect food. 0.624</text>
  </g>
  <path style="fill:none;stroke:rgb(0,0,0);stroke-width:0.29;" d="M80.960 635.610 L514.320 635.610 "/>
  <g begin="text">
   <text y="646.003" x="134.163,139.532,144.646,149.611,152.168,155.481,160.278,165.392,173.151,177.36,182.475,185.339,189.733,192.2821,194.486,200.716,205.514,210.628,214.53,218.739,222.21,227.3082,379.481,383.874,386.071,390.465,394.858,399.253,437.932,442.326,444.523,448.916,453.31,457.705,482.263,486.657,488.854,493.247,497.641" svgx:width="0.61,0.58,0.56,0.29,0.4,0.55,0.58,0.88,0.48,0.58,0.33,0.5,0.29,0.55,0.71,0.55,0.58,0.44,0.48,0.4,0.58,0.55,0.5,0.25,0.5,0.5,0.5,0.55,0.5,0.25,0.5,0.5,0.5,0.55,0.5,0.25,0.5,0.5,0.5" style="fill:rgb(0,0,0);font-family:URWPalladioL-Roma;font-size:8.79px;stroke:none;">Environmental Concern 0.898 0.706 0.905</text>
  </g>
  <path style="fill:none;stroke:rgb(0,0,0);stroke-width:0.29;" d="M80.960 651.290 L514.320 651.290 "/>
  <g begin="text">
   <text y="661.682" x="93.524,98.137,103.418,107.811,111.713,115.9322,118.119,122.512,127.626,132.9879,135.192,138.505,142.714,146.439,151.237,156.536,159.848,163.75,167.959,171.6508,173.881,178.679,183.7772,185.99,188.855,193.969,198.1882,200.374,205.743,210.137,213.608,216.472,221.5702,223.783,228.177,231.489,235.7082,237.895,240.452,243.009,250.768,253.325,256.19,260.399,265.768,267.96549999999996,306.927,311.32,313.517,317.91,322.304" svgx:width="0.52,0.6,0.5,0.44,0.48,0.55,0.5,0.58,0.61,0.55,0.4,0.48,0.42,0.55,0.6,0.4,0.44,0.48,0.42,0.55,0.55,0.58,0.55,0.33,0.58,0.48,0.55,0.61,0.5,0.4,0.33,0.58,0.55,0.5,0.4,0.48,0.55,0.29,0.29,0.88,0.29,0.33,0.48,0.61,0.25,0.55,0.5,0.25,0.5,0.5,0.5" style="fill:rgb(0,0,0);font-family:URWPalladioL-Roma;font-size:8.79px;stroke:none;">Space and resources on the Earth are limited. 0.902</text>
  </g>
  <path style="fill:none;stroke:rgb(0,0,0);stroke-width:0.29;" d="M80.960 666.960 L514.320 666.960 "/>
  <g begin="text">
   <text y="677.36" x="91.568,98.879,104.178,111.937,116.33,121.445,125.1368,127.367,135.126,140.425,144.15,147.0507,149.212,152.937,155.802,159.273,161.83,166.795,171.0142,173.2,176.126,180.924,184.44,186.592,191.706,196.099,199.57,207.329,212.127,217.241,219.798,223.6656,225.896,229.798,234.596,238.805,243.339,245.896,249.622,252.486,256.695,261.809,265.711" svgx:width="0.83,0.6,0.88,0.5,0.58,0.42,0.55,0.88,0.6,0.42,0.33,0.55,0.42,0.33,0.4,0.29,0.56,0.48,0.55,0.33,0.55,0.4,0.55,0.58,0.5,0.4,0.88,0.55,0.58,0.29,0.44,0.55,0.44,0.55,0.48,0.52,0.29,0.42,0.33,0.48,0.58,0.44,0.48" style="fill:rgb(0,0,0);font-family:URWPalladioL-Roma;font-size:8.79px;stroke:none;">Humans must strive for harmonic coexistence</text>
   <text y="688.1" x="133.073,140.402,142.959,145.823,150.9212,153.134,158.248,162.642,165.507,170.805,174.118,178.3372,180.524,183.45,188.247,191.763,193.915,197.641,202.939,206.41,211.375,213.932,218.897,223.29,225.847" svgx:width="0.83,0.29,0.33,0.58,0.55,0.58,0.5,0.33,0.6,0.4,0.48,0.55,0.33,0.55,0.4,0.55,0.42,0.6,0.4,0.56,0.29,0.56,0.5,0.29,0.25" style="fill:rgb(0,0,0);font-family:URWPalladioL-Roma;font-size:8.79px;stroke:none;">with nature for survival.</text>
   <text y="682.731" x="306.922,311.315,313.512,317.905,322.299" svgx:width="0.5,0.25,0.5,0.5,0.5" style="fill:rgb(0,0,0);font-family:URWPalladioL-Roma;font-size:8.79px;stroke:none;">0.950</text>
  </g>
  <path style="fill:none;stroke:rgb(0,0,0);stroke-width:0.29;" d="M80.960 693.150 L514.320 693.150 "/>
  <g begin="text">
   <text y="703.546" x="105.882,113.193,118.492,126.251,130.644,135.758,139.4498,141.681,146.795,151.188,156.153,160.3722,162.559,167.357,172.321,176.53,180.001,182.558,187.4804,189.641,193.85,198.384,203.665,206.222,211.02,213.577,216.441,220.65,226.0119,228.216,233.33,237.724,240.588,245.887,249.2,253.409,255.60649999999998,306.922,311.315,313.512,317.906,322.299" svgx:width="0.83,0.6,0.88,0.5,0.58,0.42,0.55,0.58,0.5,0.56,0.48,0.55,0.55,0.56,0.48,0.4,0.29,0.56,0.55,0.48,0.52,0.6,0.29,0.55,0.29,0.33,0.48,0.61,0.55,0.58,0.5,0.33,0.6,0.4,0.48,0.25,0.55,0.5,0.25,0.5,0.5,0.5" style="fill:rgb(0,0,0);font-family:URWPalladioL-Roma;font-size:8.79px;stroke:none;">Humans have overly exploited nature. 0.749</text>
  </g>
  <path style="fill:none;stroke:rgb(0,0,0);stroke-width:0.29;" d="M80.960 708.830 L514.320 708.830 "/>
  <g begin="text">
   <text y="719.224" x="95.32,100.706,105.82,110.0392,112.226,117.085,121.479,124.036,128.43,133.544,137.445,141.6642,143.851,148.649,151.5497,153.772,158.886,163.279,166.144,171.442,174.755,178.9742,181.161,183.718,187.4098,189.64,195.009,199.218,201.775,204.332,208.234,212.627,215.492,219.7112,221.898,226.291,231.405,236.7669,238.971,241.897,245.368,249.762,254.647,257.204,259.761,263.97,266.1675,306.921,311.315,313.512,317.905,322.299" svgx:width="0.61,0.58,0.48,0.55,0.55,0.5,0.29,0.5,0.58,0.44,0.48,0.55,0.55,0.33,0.55,0.58,0.5,0.33,0.6,0.4,0.48,0.55,0.29,0.42,0.55,0.61,0.48,0.29,0.29,0.44,0.5,0.33,0.48,0.55,0.5,0.58,0.61,0.55,0.33,0.4,0.5,0.56,0.29,0.29,0.48,0.25,0.55,0.5,0.25,0.5,0.5,0.5" style="fill:rgb(0,0,0);font-family:URWPalladioL-Roma;font-size:8.79px;stroke:none;">The balance of nature is delicate and fragile. 0.740</text>
  </g>
  <path style="fill:none;stroke:rgb(0,0,0);stroke-width:0.29;" d="M80.960 724.510 L514.320 724.510 "/>
  <g begin="text">
   <text y="734.903" x="148.063,152.949,157.747,162.545,167.90689999999998,170.11,177.412,181.621,186.419,191.7,196.814,201.612,206.471,209.028,213.423,379.48,383.873,386.07,390.464,394.857" svgx:width="0.56,0.55,0.55,0.61,0.55,0.83,0.48,0.55,0.6,0.58,0.55,0.55,0.29,0.5,0.55,0.5,0.25,0.5,0.5,0.5" style="fill:rgb(0,0,0);font-family:URWPalladioL-Roma;font-size:8.79px;stroke:none;">Food Neophobia 0.873</text>
   <text y="740.918" x="437.93,442.323,444.52,448.914,453.307,457.702,482.27,486.663,488.86,493.253,497.647" svgx:width="0.5,0.25,0.5,0.5,0.5,0.55,0.5,0.25,0.5,0.5,0.5" style="fill:rgb(0,0,0);font-family:URWPalladioL-Roma;font-size:8.79px;stroke:none;">0.710 0.880</text>
  </g>
  <path style="fill:none;stroke:rgb(0,0,0);stroke-width:0.29;" d="M80.960 740.190 L425.650 740.190 "/>
  <g begin="text">
   <text y="750.581" x="109.331,112.31960000000001,114.489,119.858,124.251,127.564,131.7832,133.97,136.835,141.6695,143.829,146.694,150.164,155.0864,157.247,162.361,166.57,173.8657,176.095,180.489,185.603,190.9649,193.168,198.537" svgx:width="0.34,0.55,0.61,0.5,0.4,0.48,0.55,0.33,0.55,0.55,0.33,0.4,0.56,0.55,0.58,0.48,0.83,0.55,0.5,0.58,0.61,0.55,0.61,0.29" style="fill:rgb(0,0,0);font-family:URWPalladioL-Roma;font-size:8.79px;stroke:none;">I dare to try new and di</text>
   <text y="750.581" x="201.093" svgx:width="0.61" style="fill:rgb(0,0,0);font-family:Rpxr;font-size:8.79px;stroke:none;">ﬀ</text>
   <text y="750.581" x="206.436,210.645,213.958,218.167,223.281,226.1817,228.342,231.268,236.066,240.864,246.233,249.959,252.1565,306.925,311.319,313.516,317.909,322.303" svgx:width="0.48,0.4,0.48,0.58,0.33,0.55,0.33,0.55,0.55,0.61,0.42,0.25,0.55,0.5,0.25,0.5,0.5,0.5" style="fill:rgb(0,0,0);font-family:URWPalladioL-Roma;font-size:8.79px;stroke:none;">erent foods. 0.892</text>
  </g>
  <path style="fill:none;stroke:rgb(0,0,0);stroke-width:0.29;" d="M80.960 756.110 L514.320 756.110 "/>
 </g>
</svg>
