<?xml version="1.0" encoding="UTF-8"?>
<svg height="774.244" width="4108.638" xmlns="http://www.w3.org/2000/svg">
 <g id="page" xmlns:svgx="http://www.xml-cml.org/schema/svgx">
  <path style="fill:rgb(131,144,151);stroke:none;stroke-width:1.0;" d="M382.560 8.590 L382.560 26.390 L548.650 26.390 C548.650 26.390 554.310 26.390 554.310 20.720 L554.310 8.590 Z"/>
  <g begin="text">
   <text y="764.23" x="549.838" svgx:width="0.48" style="fill:rgb(131,144,151);font-family:Corbel2;font-size:10.0px;stroke:none;">5</text>
   <text y="764.244" x="40.794,45.642,50.786,53.186,58.026,64.026,68.898,71.298,75.762,78.162" svgx:width="0.55,0.59,0.25,0.55,0.7,0.56,0.25,0.5,0.25,0.59" style="fill:rgb(131,144,151);font-family:Corbel2;font-size:8.0px;stroke:none;">Scientific</text>
   <text y="764.244" x="83.162" svgx:width="0.2" style="fill:rgb(0,0,0);font-family:Corbel2;font-size:8.0px;stroke:none;"> </text>
   <text y="764.244" x="84.762,90.218,95.194,100.434,106.738,112.194,117.186" svgx:width="0.63,0.57,0.6,0.73,0.63,0.57,0.58" style="fill:rgb(131,144,151);font-family:Corbel-Bold2;font-size:8.0px;stroke:none;">RepoRts</text>
   <text y="764.244" x="122.082,123.522,125.338" svgx:width="0.2,0.23,0.2" style="fill:rgb(0,0,0);font-family:Corbel2;font-size:8.0px;stroke:none;"> | </text>
   <text y="764.244" x="126.778,128.234,129.69,131.146,132.602,134.058,135.514,136.97,138.426,139.882,142.154,146.09,150.026,153.962,157.898,160.17,161.626,165.562,167.25,171.186,175.122,179.058,182.994" svgx:width="0.18,0.18,0.18,0.18,0.18,0.18,0.18,0.18,0.18,0.28,0.49,0.49,0.49,0.49,0.28,0.18,0.49,0.21,0.49,0.49,0.49,0.49,0.18" style="fill:rgb(0,0,0);font-family:MyriadPro-It;font-size:8.0px;stroke:none;"> (2019) 9:3295 </text>
   <text y="764.244" x="184.45,185.89,187.706" svgx:width="0.2,0.23,0.2" style="fill:rgb(0,0,0);font-family:Corbel2;font-size:8.0px;stroke:none;"> | </text>
   <text y="764.244" x="189.146,193.402,196.178,198.954,203.202,206.434,208.546,210.746,212.946,217.234,221.498,223.354,225.466,229.73,232.41,236.658,238.858,242.962,247.066,249.178,253.282,257.386,261.49,265.594,267.794,271.026,275.13,279.234,283.338,287.442,291.546,294.21,298.314,302.418,306.522,309.186,313.29,317.394,321.498,325.602,329.706,332.37" svgx:width="0.53,0.35,0.35,0.53,0.4,0.26,0.28,0.28,0.54,0.53,0.23,0.26,0.53,0.34,0.53,0.28,0.51,0.51,0.26,0.51,0.51,0.51,0.51,0.28,0.4,0.51,0.51,0.51,0.51,0.51,0.33,0.51,0.51,0.51,0.33,0.51,0.51,0.51,0.51,0.51,0.33,0.51" style="fill:rgb(0,0,0);font-family:Corbel;font-size:8.0px;stroke:none;">https://doi.org/10.1038/s41598-019-39942-4</text>
  </g>
  <g begin="text">
   <text y="22.277" x="389.724,397.484,405.243,412.702,415.869,421.732,427.216,431.234,437.005,440.9,446.465,449.633,454.583,460.508,469.466,472.746,477.349,482.299,485.139,490.699,496.562,500.58,503.419,507.14,509.979,514.93,518.825,524.391,530.295,536.219,540.115,544.133" svgx:width="0.71,0.71,0.71,0.26,0.53,0.49,0.35,0.52,0.34,0.5,0.26,0.44,0.53,0.83,0.28,0.4,0.44,0.23,0.5,0.53,0.35,0.23,0.32,0.23,0.44,0.34,0.5,0.53,0.53,0.34,0.35,0.4" style="fill:rgb(255,255,255);font-family:Corbel2;font-size:10.25px;stroke:none;">www.nature.com/scientificreports</text>
  </g>
  <path style="fill:none;stroke:rgb(0,0,0);stroke-width:1.0;" d="M40.640 752.550 L554.640 752.550 "/>
  <g begin="text">
   <text y="22.46" x="40.638,48.208,55.778,63.055,66.145,71.865,77.215,81.135,86.765,90.565,95.995,99.085,103.915,109.695,118.435,121.635,126.125,130.955,133.725,139.15,144.87,148.79,151.56,155.19,157.96,162.79,166.59,172.02,177.78,183.56,187.36,191.28,195.77" svgx:width="0.71,0.71,0.71,0.26,0.53,0.49,0.35,0.52,0.34,0.5,0.26,0.44,0.53,0.83,0.28,0.4,0.44,0.23,0.5,0.53,0.35,0.23,0.32,0.23,0.44,0.34,0.5,0.53,0.53,0.34,0.35,0.4,0.28" style="fill:rgb(255,255,255);font-family:Corbel2;font-size:10.0px;stroke:none;">www.nature.com/scientificreports/</text>
  </g>
  <g begin="text">
   <text y="530.51" x="155.638,158.517,163.368,167.274,169.398,173.312,177.389,179.747,183.697,188.602,190.986,194.846,197.717,200.21,204.772,209.776,211.9,216.462,219.207,221.326,228.742,232.701,236.652,241.656,243.78,248.324,250.844,254.849,258.233,260.366,262.49,266.378,270.941,274.414,277.717,281.586,283.97,287.831,290.701,293.194,297.757,302.761,304.885,308.773,313.525,317.431,324.694,328.582,331.075,334.981,339.814,342.64,344.764,348.715,353.682,358.515,360.639,363.941,367.847,372.185,375.487,379.393,382.731,386.115,388.608,393.171,398.175,400.299,404.187,408.938,412.844,420.107,423.995,426.488,430.394,435.226,438.052,440.171,445.031,449.998,454.831,458.737,462.157,464.281,469.114,471.607,476.656,480.562,483.865,487.771,492.604,495.43,497.553,503.853,508.2,513.834,515.958,519.864,523.203,526.073,528.566,535.991,539.851,542.721,545.214,549.776,554.699" svgx:width="0.31,0.53,0.43,0.23,0.42,0.44,0.25,0.42,0.53,0.25,0.44,0.31,0.27,0.51,0.55,0.23,0.51,0.3,0.23,0.82,0.43,0.44,0.55,0.23,0.51,0.27,0.44,0.37,0.23,0.23,0.42,0.51,0.37,0.37,0.43,0.25,0.44,0.31,0.27,0.51,0.55,0.23,0.42,0.51,0.43,0.8,0.42,0.27,0.43,0.55,0.31,0.23,0.44,0.55,0.53,0.23,0.37,0.43,0.47,0.37,0.43,0.37,0.37,0.27,0.51,0.55,0.23,0.42,0.51,0.43,0.8,0.42,0.27,0.43,0.55,0.31,0.23,0.53,0.55,0.53,0.43,0.37,0.23,0.53,0.27,0.56,0.43,0.37,0.43,0.55,0.31,0.23,0.69,0.54,0.62,0.23,0.43,0.37,0.31,0.27,0.82,0.44,0.31,0.27,0.51,0.55,0.23" style="fill:rgb(0,0,0);font-family:MinionPro-Regular;font-size:9.0px;stroke:none;">the calculation of mean bias, correlation coefficient and regression coefficient under different ALT estimation </text>
   <text y="540.509" x="155.638,163.042,166.939,169.808,174.648,179.388,184.183,187.558,189.682,191.761,194.63,199.47,203.367,205.446,211.159,216.01,220.834,224.503,228.706,232.566,236.805,239.622,243.066,247.032,251.271,253.35,260.754,264.651,267.521,272.36,277.101,281.925,284.004,287.883,292.443,297.337,299.686,304.51,306.589,312.752,316.61,319.001,321.35,323.43,326.721,330.618,335.487,339.426,343.365,346.182,348.261,351.13,355.97,359.867,361.946,365.825,370.377,373.839,377.132,380.99,383.363,387.213,390.073,392.557,397.109,402.104,404.183,408.905,412.802,415.643,421.807,425.746,429.643,434.638,436.717,440.092,442.576,449.846,454.74,457.113,460.963,463.822,466.306,470.858,475.853,477.932,481.872,486.829,491.653,493.732,498.346,502.99,506.435,510.332,514.002,518.241,522.091,524.95,527.434,531.987,536.982,539.106,541.185,550.857,554.682" svgx:width="0.82,0.43,0.31,0.53,0.51,0.53,0.37,0.23,0.23,0.31,0.53,0.43,0.23,0.67,0.53,0.53,0.37,0.46,0.44,0.46,0.31,0.37,0.43,0.46,0.23,0.82,0.43,0.31,0.53,0.51,0.53,0.23,0.42,0.51,0.53,0.25,0.53,0.23,0.69,0.43,0.25,0.25,0.23,0.37,0.43,0.53,0.43,0.42,0.31,0.23,0.31,0.53,0.43,0.23,0.42,0.51,0.37,0.37,0.43,0.25,0.44,0.31,0.27,0.51,0.55,0.23,0.51,0.43,0.31,0.69,0.43,0.43,0.55,0.23,0.37,0.27,0.82,0.53,0.25,0.44,0.31,0.27,0.51,0.55,0.23,0.44,0.55,0.53,0.23,0.51,0.51,0.37,0.43,0.37,0.46,0.44,0.31,0.27,0.51,0.55,0.23,0.23,1.07,0.43,0.23" style="fill:rgb(0,0,0);font-family:MinionPro-Regular;font-size:9.0px;stroke:none;">methods, the Kudryavtsev method could well reflect the correlation between simulation and observation. The </text>
   <text y="550.508" x="155.638,159.472,163.985,167.407,170.66,174.479,176.813,180.623,183.443,185.882,190.394,195.344,197.315,201.149,205.851,209.703,216.912,220.746,223.185,227.037,231.818,234.59,236.561,240.462,245.379,250.158,252.129,255.381,259.233,263.52,266.772,270.624,273.911,277.241,279.68,284.193,289.143,291.114,294.948,299.649,303.501,310.71,314.544,316.983,320.835,325.617,328.389,330.468,332.439,337.123,341.645,344.473,349.306,351.277,354.566,357.395,361.205,364.025,366.441,369.728,372.549,374.988,378.852,382.878,385.23,387.474,391.632,393.603,396.933,399.372,403.659,408.609,411.048,415.89,419.754,423.654,428.436,431.208,433.179,436.989,439.761,441.732,444.561,449.361,453.213" svgx:width="0.42,0.51,0.37,0.37,0.43,0.25,0.44,0.31,0.27,0.51,0.55,0.23,0.42,0.51,0.43,0.8,0.42,0.27,0.43,0.55,0.31,0.23,0.44,0.55,0.53,0.23,0.37,0.43,0.47,0.37,0.43,0.37,0.37,0.27,0.51,0.55,0.23,0.42,0.51,0.43,0.8,0.42,0.27,0.43,0.55,0.31,0.23,0.23,0.51,0.51,0.31,0.53,0.23,0.37,0.31,0.44,0.31,0.27,0.37,0.31,0.27,0.42,0.44,0.25,0.25,0.46,0.23,0.37,0.27,0.47,0.55,0.27,0.54,0.42,0.44,0.55,0.31,0.23,0.44,0.31,0.23,0.31,0.53,0.43,0.23" style="fill:rgb(0,0,0);font-family:MinionPro-Regular;font-size:9.0px;stroke:none;">correlation coefficient and regression coefficient, both statistically significant at the </text>
   <text y="550.508" x="455.184" svgx:width="0.49" style="fill:rgb(0,0,0);font-family:MinionPro-It;font-size:9.0px;stroke:none;">p</text>
   <text y="550.508" x="459.703" svgx:width="0.23" style="fill:rgb(0,0,0);font-family:MinionPro-Regular;font-size:9.0px;stroke:none;"> </text>
   <text y="550.508" x="460.855" svgx:width="0.78" style="fill:rgb(0,0,0);font-family:EuclidSymbol;font-size:9.0px;stroke:none;">&lt;</text>
   <text y="550.508" x="467.893,469.045,473.392,475.471,479.818,484.165,488.512,490.483,492.787,496.714,500.839,504.658,506.912,508.991,510.962,514.862,518.114,521.966,523.937,528.284,530.363,534.71,539.057,541.028,544.928,549.845,554.597" svgx:width="0.23,0.48,0.23,0.48,0.48,0.48,0.23,0.25,0.43,0.46,0.43,0.25,0.23,0.23,0.44,0.37,0.43,0.23,0.48,0.23,0.48,0.48,0.23,0.44,0.55,0.53,0.23" style="fill:rgb(0,0,0);font-family:MinionPro-Regular;font-size:9.0px;stroke:none;"> 0.001 level, are 0.53 and </text>
   <text y="560.507" x="155.638,160.057,162.208,166.627,171.046,173.197,175.375,178.695,182.619,185.975,190.87,194.837,198.806,201.693,204.14,208.333,212.22,214.532,218.103,220.254,222.432,232.133,236.057,238.235,245.669,249.646,253.614,258.636,260.814,265.376,267.913,271.935,275.337,277.515,280.026,285.048,287.226,290.123,294.991,298.915,301.093,306.834,311.712,316.563,320.261,324.491,328.378,332.644,335.488,338.961,342.956,347.222,349.4,356.833,360.757,363.653,368.521,373.29,378.141,380.319,382.803,386.205,388.383,391.703,395.589,397.991,401.869,404.757,407.203,411.396,415.284,417.596,421.826,424.004,427.406,434.848,438.941,441.361,443.737,445.915,449.128,453.547,457.966,460.117,464.536,468.955,470.179,474.085,481.555,484.768,486.919,489.097,491.608,498.906,503.657,505.969,510.225,512.736,517.685,521.996,524.174,527.07,531.938,535.862,538.04,542.945,545.456,549.829,554.634" svgx:width="0.48,0.23,0.48,0.48,0.23,0.23,0.37,0.43,0.37,0.52,0.43,0.42,0.31,0.27,0.46,0.43,0.25,0.46,0.23,0.23,1.07,0.43,0.23,0.82,0.43,0.44,0.55,0.23,0.51,0.27,0.44,0.37,0.23,0.27,0.55,0.23,0.31,0.53,0.43,0.23,0.67,0.53,0.53,0.37,0.46,0.44,0.46,0.31,0.37,0.43,0.46,0.23,0.82,0.43,0.31,0.53,0.51,0.53,0.23,0.27,0.37,0.23,0.37,0.43,0.25,0.44,0.31,0.27,0.46,0.43,0.25,0.46,0.23,0.37,0.82,0.44,0.25,0.25,0.23,0.35,0.48,0.48,0.23,0.48,0.48,0.23,0.42,0.82,0.35,0.23,0.23,0.27,0.82,0.52,0.25,0.46,0.27,0.55,0.47,0.23,0.31,0.53,0.43,0.23,0.53,0.27,0.47,0.53,0.23" style="fill:rgb(0,0,0);font-family:MinionPro-Regular;font-size:9.0px;stroke:none;">0.17, respectively. The mean bias in the Kudryavtsev method is relatively small (23.55 cm), implying the high </text>
   <text y="570.506" x="155.638,160.435,164.26,167.653,170.235,174.717,178.11,185.454,189.324,194.211,198.018,201.843,203.679,208.161,210.825,212.661,215.46,220.23,224.055,225.891,231.534,236.313,241.065,244.665,248.796,252.585,256.752,259.497,262.872,266.769,270.936,272.772,280.107,283.932,286.731,291.501,296.172,300.924,302.76,305.343,309.825,313.164,315.0,319.796,323.621,327.014,334.358,338.228,340.982,344.204,348.794,352.052,354.797,356.633,359.936,362.348,369.547,374.371,376.675,380.455,383.245,385.657,390.139,395.062" svgx:width="0.52,0.43,0.37,0.3,0.51,0.37,0.82,0.44,0.55,0.42,0.43,0.23,0.51,0.3,0.23,0.31,0.53,0.43,0.23,0.67,0.53,0.53,0.37,0.46,0.44,0.46,0.31,0.37,0.43,0.46,0.23,0.82,0.43,0.31,0.53,0.51,0.53,0.23,0.3,0.51,0.37,0.23,0.52,0.43,0.37,0.82,0.44,0.3,0.37,0.51,0.37,0.31,0.23,0.37,0.27,0.82,0.53,0.25,0.44,0.31,0.27,0.51,0.55,0.23" style="fill:rgb(0,0,0);font-family:MinionPro-Regular;font-size:9.0px;stroke:none;">performance of the Kudryavtsev method for permafrost simulation.</text>
   <text y="580.505" x="167.635,177.349,181.282,183.505,186.837,190.77,194.138,199.045,203.638,208.599,212.084,216.017,218.24,222.833,225.605,227.828,230.738,235.617,239.55,241.773,245.688,250.281,257.591,262.499,267.091,272.088,276.021,280.884,283.737,287.148,289.371,293.964,296.736,298.959,301.868,306.748,310.681,312.904,316.819,320.53,324.699,329.397,332.765,337.528,342.409,346.342,349.674,353.607,355.83,358.63,363.328,365.551,369.937,372.322,376.978,381.706,385.811,388.196,390.419,396.692,400.673,404.177,411.656,414.176,419.137,423.457,425.68,428.175,431.586,433.809,437.868,440.091,443.469,445.854,450.411,456.684,458.907,463.625,466.958,471.739,475.654,479.587,482.955,486.366,488.589,494.891,497.305,500.215,505.129,507.352,511.72,515.167,519.226,524.086,526.606,530.539,535.401,538.254" svgx:width="1.07,0.43,0.23,0.37,0.43,0.37,0.52,0.51,0.55,0.37,0.43,0.23,0.51,0.3,0.23,0.31,0.53,0.43,0.23,0.42,0.51,0.82,0.52,0.51,0.55,0.43,0.55,0.31,0.37,0.23,0.51,0.3,0.23,0.31,0.53,0.43,0.23,0.42,0.37,0.46,0.51,0.37,0.52,0.53,0.43,0.37,0.43,0.23,0.31,0.51,0.23,0.47,0.25,0.51,0.51,0.44,0.25,0.23,0.69,0.44,0.37,0.82,0.27,0.55,0.47,0.23,0.27,0.37,0.23,0.44,0.23,0.37,0.25,0.51,0.69,0.23,0.52,0.37,0.51,0.42,0.43,0.37,0.37,0.23,0.69,0.27,0.31,0.53,0.23,0.47,0.37,0.44,0.53,0.27,0.43,0.55,0.31,0.37" style="fill:rgb(0,0,0);font-family:MinionPro-Regular;font-size:9.0px;stroke:none;">The response of the components of the cryosphere to global warming is a slow process with gradients</text>
   <text y="577.45" x="541.785,544.663" svgx:width="0.48,0.48" style="fill:rgb(0,0,255);font-family:MinionPro-Regular;font-size:5.85px;stroke:none;">49</text>
   <text y="577.45" x="547.541" svgx:width="0.23" style="fill:rgb(0,0,0);font-family:MinionPro-Regular;font-size:5.85px;stroke:none;">,</text>
   <text y="577.45" x="548.951,551.829" svgx:width="0.48,0.48" style="fill:rgb(0,0,255);font-family:MinionPro-Regular;font-size:5.85px;stroke:none;">50</text>
   <text y="580.51" x="554.638" svgx:width="0.23" style="fill:rgb(0,0,0);font-family:MinionPro-Regular;font-size:9.0px;stroke:none;"> </text>
   <text y="590.509" x="155.641,159.546,164.467,169.255,171.23,175.863,180.03,183.323,186.049,189.91,193.166,197.027,200.366,202.786,206.125,208.213,210.189,218.089,221.95,223.925,228.713,232.574,237.425,242.346,246.207,248.183,251.016,255.821,259.682,261.658,264.106,269.065,271.403,274.228,276.701,280.732,283.044,285.02,289.113,293.027,296.932,300.307,302.282,306.798,309.498,311.473,316.26,320.39,324.251,326.227,330.07,334.587,339.472,342.882,346.786,350.69,355.397,358.221,360.605,364.734,368.595,370.57,374.664,378.577,382.482,385.801,389.14,391.116,397.378,402.183,406.044,411.003,412.978,417.288,419.601,424.181,428.832,432.863,435.176,437.152,444.521,448.435,452.339,457.298,459.274,462.566,467.381,470.808,473.508,477.495,481.338,485.199,487.175,489.9,493.761,500.996,505.827,509.688,513.063,516.877,519.567,524.382,527.64,531.501,533.476,540.846,544.75,548.611,551.392,554.695" svgx:width="0.44,0.55,0.53,0.23,0.53,0.46,0.37,0.31,0.43,0.37,0.43,0.37,0.27,0.37,0.23,0.23,0.97,0.43,0.23,0.53,0.43,0.54,0.55,0.43,0.23,0.31,0.53,0.43,0.23,0.27,0.55,0.27,0.31,0.27,0.44,0.25,0.23,0.46,0.43,0.44,0.37,0.23,0.51,0.3,0.23,0.54,0.46,0.43,0.23,0.42,0.51,0.55,0.37,0.43,0.42,0.53,0.31,0.27,0.46,0.43,0.23,0.46,0.43,0.44,0.37,0.37,0.23,0.69,0.53,0.43,0.55,0.23,0.47,0.25,0.51,0.51,0.44,0.25,0.23,0.82,0.43,0.44,0.55,0.23,0.37,0.53,0.37,0.3,0.44,0.42,0.43,0.23,0.31,0.43,0.82,0.52,0.43,0.37,0.44,0.31,0.53,0.37,0.43,0.23,0.82,0.43,0.43,0.31,0.37,0.23" style="fill:rgb(0,0,0);font-family:MinionPro-Regular;font-size:9.0px;stroke:none;">and hysteresis. We define the initial year of five consecutive years when global mean surface temperature meets </text>
   <text y="600.508" x="155.641,158.439,163.245,166.467,170.292,173.559,178.329,182.856,185.133,189.858,193.161,194.97,199.452,202.116,203.925,208.245,210.297,214.617,215.751,218.839,224.824,226.633,230.503,235.39,240.142,241.951,246.271,248.323,252.643,253.776,256.863,262.848,264.9,266.709,269.508,274.278,278.103,283.026,284.835,287.634,292.404,296.229,298.038,301.296,306.039,310.611,313.986,317.856,322.365,327.143,330.969,335.721,338.466,340.275,344.595,348.915,350.724,354.783,358.662,362.532,365.816,369.119,370.928,374.798,378.02,381.845,383.654,386.876,390.701,394.913,398.783,402.005,406.757,410.627,415.379,417.188,421.112,424.415,426.224,429.023,433.793,437.618,439.427,444.224,448.049,451.441,453.853,458.524,463.276,465.085,467.883,472.662,476.442,479.187,480.996,488.33,492.2,496.025,498.77,502.073,503.882,506.681,511.451,515.276,517.085,519.884,524.69,527.912,531.737,535.004,539.774,544.301,546.578,551.303,554.606" svgx:width="0.31,0.53,0.37,0.43,0.37,0.53,0.51,0.25,0.53,0.37,0.23,0.51,0.3,0.23,0.48,0.23,0.48,0.23,0.34,0.67,0.23,0.44,0.55,0.53,0.23,0.48,0.23,0.48,0.23,0.34,0.67,0.23,0.23,0.31,0.53,0.43,0.55,0.23,0.31,0.53,0.43,0.23,0.37,0.53,0.51,0.37,0.43,0.51,0.53,0.43,0.55,0.31,0.23,0.48,0.48,0.23,0.46,0.43,0.44,0.37,0.37,0.23,0.44,0.37,0.43,0.23,0.37,0.43,0.47,0.44,0.37,0.53,0.43,0.53,0.23,0.44,0.37,0.23,0.31,0.53,0.43,0.23,0.52,0.43,0.37,0.27,0.51,0.53,0.23,0.31,0.53,0.44,0.31,0.23,0.82,0.43,0.43,0.31,0.37,0.23,0.31,0.53,0.43,0.23,0.31,0.53,0.37,0.43,0.37,0.53,0.51,0.25,0.53,0.37,0.23" style="fill:rgb(0,0,0);font-family:MinionPro-Regular;font-size:9.0px;stroke:none;">thresholds of 1.5 °C and 2.0 °C, then the subsequent 10 years are regarded as the period that meets the thresholds </text>
   <text y="610.507" x="155.649,160.216,162.961,165.094,169.495,171.628,176.029,177.258,180.426,186.492,188.625,192.581,197.553,202.386,204.519,208.92,211.053,215.454,216.687,219.855,225.921,228.054,230.187,235.029,237.522,241.815,246.675,249.983,253.889" svgx:width="0.51,0.3,0.23,0.48,0.23,0.48,0.23,0.34,0.67,0.23,0.44,0.55,0.53,0.23,0.48,0.23,0.48,0.23,0.34,0.67,0.23,0.23,0.53,0.27,0.47,0.53,0.37,0.43,0.23" style="fill:rgb(0,0,0);font-family:MinionPro-Regular;font-size:9.0px;stroke:none;">of 1.5 °C and 2.0 °C. Figure </text>
   <text y="610.507" x="256.053" svgx:width="0.48" style="fill:rgb(0,0,255);font-family:MinionPro-Regular;font-size:9.0px;stroke:none;">4</text>
   <text y="610.507" x="260.454,262.587,265.939,270.794,275.325,281.571,284.955,287.088,289.972,294.827,298.733,300.866,305.559,308.865,313.441,315.876,319.83,323.785,326.56,330.515,335.348,337.481,341.319,346.183,350.138,355.073,359.299,363.205,365.338,367.831,372.835,374.968,379.849,383.755,387.233,394.662,398.617,401.456,404.762,409.433,412.776,415.602,417.735,421.641,425.97,428.745,432.651,437.488,440.314,442.447,447.307,452.279,457.112,461.018,464.438,466.571,469.454,474.309,478.215,480.348,483.231,488.118,491.425,495.38,499.286,501.419,507.02,513.086,518.234,520.367,523.827,527.715,531.621,536.602,540.557,544.035,546.528,551.199,554.501" svgx:width="0.23,0.37,0.53,0.51,0.69,0.37,0.23,0.31,0.53,0.43,0.23,0.52,0.37,0.51,0.26,0.43,0.42,0.31,0.43,0.53,0.23,0.42,0.53,0.44,0.55,0.47,0.43,0.23,0.27,0.55,0.23,0.52,0.43,0.37,0.82,0.44,0.3,0.37,0.51,0.37,0.31,0.23,0.43,0.47,0.31,0.43,0.55,0.31,0.23,0.53,0.55,0.53,0.43,0.37,0.23,0.31,0.53,0.43,0.23,0.31,0.53,0.37,0.43,0.43,0.23,0.62,0.67,0.56,0.23,0.37,0.42,0.43,0.55,0.44,0.37,0.27,0.51,0.37,0.23" style="fill:rgb(0,0,0);font-family:MinionPro-Regular;font-size:9.0px;stroke:none;"> shows the projected change in permafrost extent under the three RCP scenarios </text>
   <text y="620.506" x="155.641,158.256,162.77,166.145,168.116,170.84,174.701,181.933,186.762,190.624,193.999,197.811,200.498,205.313,208.568,212.429,214.4,217.825,220.243,223.65,227.511,230.85,232.821,237.335,240.035,242.006,246.358,248.446,252.802,253.93,257.052,263.073,265.044,268.947,273.866,278.654,280.625,284.981,287.069,291.425,292.566,295.689,301.71,303.681,307.524,312.039,319.271,324.065,327.967,331.222,335.124,339.912,341.883,344.606,349.232,351.203,355.844,359.098,362.959,366.199,368.643,373.562,378.239,383.024,386.314,389.137,392.561,395.032,399.061,401.374,403.345,405.658,409.587,413.715,417.536,419.818,423.157,425.245,427.216,436.852,440.708,442.679,446.087,450.61,455.314,458.145,462.947,466.808,470.234,475.193,477.164,481.993,485.854,489.28,496.656,500.558,503.345,506.599,511.225,514.516,517.297,519.268,523.953,528.476,533.291,538.211,543.022,546.925,550.557,554.688" svgx:width="0.3,0.51,0.37,0.23,0.31,0.43,0.82,0.52,0.43,0.37,0.44,0.31,0.53,0.37,0.43,0.23,0.37,0.27,0.37,0.43,0.37,0.23,0.51,0.3,0.23,0.48,0.23,0.48,0.23,0.34,0.67,0.23,0.44,0.55,0.53,0.23,0.48,0.23,0.48,0.23,0.34,0.67,0.23,0.42,0.51,0.82,0.52,0.44,0.37,0.43,0.53,0.23,0.31,0.51,0.23,0.52,0.37,0.43,0.36,0.27,0.55,0.53,0.53,0.37,0.31,0.37,0.27,0.44,0.25,0.23,0.25,0.43,0.46,0.43,0.25,0.37,0.23,0.23,1.07,0.43,0.23,0.37,0.51,0.53,0.31,0.53,0.43,0.37,0.55,0.23,0.52,0.43,0.37,0.82,0.44,0.3,0.37,0.51,0.37,0.31,0.23,0.51,0.51,0.53,0.55,0.53,0.44,0.37,0.46,0.23" style="fill:rgb(0,0,0);font-family:MinionPro-Regular;font-size:9.0px;stroke:none;">for temperature rises of 1.5 °C and 2.0 °C compared to pre-industrial levels. The southern permafrost boundary </text>
   <text y="630.505" x="155.641,158.897,163.694,166.097,171.326,174.62,176.348,181.224,185.695,189.114,191.902,196.492,202.648,206.508,209.719,214.434,217.728,219.456,223.873,227.995,229.723,234.034,237.112,238.84,241.521,246.102,247.83,252.141,255.219,256.947,259.24,263.011,265.79,268.084,270.728,275.498,280.241,284.057,285.785,290.555,295.432,300.175,303.991,307.321,309.049,311.837,316.597,320.413,322.141,324.93,329.727,332.939,336.798,340.614,342.342,347.849,353.825,358.629,361.923,363.651,368.293,372.109,374.871,380.954,384.813,388.629,393.543,395.271,398.059,402.819,406.635,408.363,412.674,414.717,419.028,420.07,423.148,429.124,430.852,434.711,439.587,444.33,446.058,450.369,451.471,454.549,460.525,462.253,464.521,468.407,472.492,476.27,478.509,481.803,483.846,485.574,491.683,496.156,503.345,508.095,511.955,515.166,519.026,523.769,525.497,531.679,533.973,536.761,541.558,543.286,546.075,550.834,554.659" svgx:width="0.37,0.53,0.27,0.58,0.37,0.23,0.55,0.51,0.37,0.31,0.53,0.69,0.44,0.37,0.53,0.37,0.23,0.51,0.46,0.23,0.48,0.34,0.23,0.31,0.51,0.23,0.48,0.34,0.23,0.25,0.44,0.31,0.27,0.31,0.53,0.53,0.43,0.23,0.53,0.55,0.53,0.43,0.37,0.23,0.31,0.53,0.43,0.23,0.31,0.53,0.37,0.43,0.43,0.23,0.62,0.67,0.56,0.37,0.23,0.51,0.43,0.31,0.69,0.43,0.43,0.55,0.23,0.31,0.53,0.43,0.23,0.48,0.23,0.48,0.23,0.34,0.67,0.23,0.44,0.55,0.53,0.23,0.48,0.23,0.34,0.67,0.23,0.25,0.43,0.46,0.43,0.25,0.37,0.23,0.23,0.67,0.51,0.82,0.52,0.44,0.37,0.43,0.53,0.23,0.69,0.27,0.31,0.53,0.23,0.31,0.53,0.43,0.23" style="fill:rgb(0,0,0);font-family:MinionPro-Regular;font-size:9.0px;stroke:none;">shifts northwards by 1° to 4° latitude under the three RCPs between the 1.5 °C and 2 °C levels. Compared with the </text>
   <text y="640.504" x="155.641,160.447,162.832,166.09,168.781,173.263,176.656,179.068,182.902,186.897,189.174,191.046,195.843,199.668,203.06,205.472,210.143,214.895,216.767,219.881,224.201,228.521,232.841,237.161,241.841,246.161,250.481,254.801,259.121,262.235,264.287,266.154,269.457,271.869,276.126,281.049,283.461,288.276,292.11,295.98,300.732,303.477,305.349,310.101,313.926,318.183,321.522,325.473,330.251,334.031,336.821,339.233,343.715,348.638,350.51,355.181,358.988,362.858,367.637,370.922,374.225,376.097,378.509,383.432,385.299,390.187,394.669,398.097,400.896,405.666,409.491,412.884,417.807,419.679,427.464,431.946,436.797,440.937,445.464,447.741,450.179,454.13,456.002,459.872,464.759,469.511,471.383,474.758,479.249,483.92,486.719,491.489,495.314,498.707,503.63,505.498,510.898,515.65,518.908,522.211,524.65,528.601,530.653,532.525,541.156,545.926,549.751,554.674" svgx:width="0.53,0.27,0.37,0.31,0.51,0.37,0.27,0.42,0.44,0.25,0.23,0.52,0.43,0.37,0.27,0.51,0.53,0.23,0.35,0.48,0.48,0.48,0.48,0.52,0.48,0.48,0.48,0.48,0.35,0.23,0.23,0.37,0.27,0.47,0.55,0.27,0.54,0.42,0.44,0.55,0.31,0.23,0.53,0.43,0.47,0.37,0.44,0.53,0.44,0.31,0.27,0.51,0.55,0.23,0.51,0.42,0.42,0.53,0.37,0.37,0.23,0.27,0.55,0.23,0.55,0.51,0.37,0.31,0.53,0.43,0.37,0.55,0.23,0.89,0.51,0.55,0.47,0.51,0.25,0.27,0.44,0.23,0.44,0.55,0.53,0.23,0.37,0.51,0.53,0.31,0.53,0.43,0.37,0.55,0.23,0.62,0.53,0.37,0.37,0.27,0.44,0.23,0.23,0.97,0.53,0.43,0.55,0.23" style="fill:rgb(0,0,0);font-family:MinionPro-Regular;font-size:9.0px;stroke:none;">historical period (1986–2005), significant degradation occurs in northern Mongolia and southern Russia. When </text>
   <text y="650.503" x="155.641,158.441,163.212,167.037,168.981,173.258,175.535,180.082,184.701,188.698,190.975,192.919,200.255,204.135,208.007,212.93,214.874,218.133,222.912,226.307,228.971,232.922,236.729,240.554,242.498,245.19,249.015,256.216,261.014,264.839,268.178,271.96,274.617,279.396,282.62,286.445,288.389,291.612,295.492,299.443,303.197,307.969,311.794,315.097,317.041,319.842,324.614,328.439,330.383,334.703,336.755,341.075,342.22,345.307,351.292,353.236,356.035,360.841,364.064,367.889,371.158,375.93,380.458,382.735,387.435,389.487,391.431,394.231,399.002,402.827,404.771,412.79,420.809,425.921,427.865,430.979,435.706,439.587,444.098,446.375,450.2" svgx:width="0.31,0.53,0.43,0.23,0.47,0.25,0.51,0.51,0.44,0.25,0.23,0.82,0.43,0.44,0.55,0.23,0.37,0.53,0.37,0.3,0.44,0.42,0.43,0.23,0.31,0.43,0.82,0.52,0.43,0.37,0.44,0.31,0.53,0.37,0.43,0.23,0.37,0.43,0.44,0.42,0.53,0.43,0.37,0.23,0.31,0.53,0.43,0.23,0.48,0.23,0.48,0.23,0.34,0.67,0.23,0.31,0.53,0.37,0.43,0.37,0.53,0.51,0.25,0.53,0.23,0.23,0.31,0.53,0.43,0.23,0.89,0.89,0.57,0.23,0.35,0.62,0.44,0.51,0.25,0.43,0.23" style="fill:rgb(0,0,0);font-family:MinionPro-Regular;font-size:9.0px;stroke:none;">the global mean surface temperature reaches the 1.5 °C threshold, the MME (Table </text>
   <text y="650.503" x="452.155" svgx:width="0.48" style="fill:rgb(0,0,255);font-family:MinionPro-Regular;font-size:9.0px;stroke:none;">2</text>
   <text y="650.503" x="456.475,459.589,461.533,464.801,469.573,474.021,480.186,483.489,485.433,488.234,493.014,496.795,499.54,501.484,504.285,509.056,512.881,514.825,519.624,523.449,526.844,534.189,538.06,540.816,544.04,548.63,551.89,554.635" svgx:width="0.35,0.23,0.37,0.53,0.51,0.69,0.37,0.23,0.31,0.53,0.44,0.31,0.23,0.31,0.53,0.43,0.23,0.52,0.43,0.37,0.82,0.44,0.3,0.37,0.51,0.37,0.31,0.23" style="fill:rgb(0,0,0);font-family:MinionPro-Regular;font-size:9.0px;stroke:none;">) shows that the permafrost </text>
   <text y="660.502" x="155.641,159.466,163.714,166.405,170.23,174.982,177.727,179.671,182.083,187.006,188.95,191.749,196.519,200.344,202.288,208.975,215.869,217.813,223.906,228.398,233.222,235.499,240.251,242.195,246.849,250.674,252.618,256.938,261.258,263.31,267.63,271.95" svgx:width="0.43,0.47,0.31,0.43,0.55,0.31,0.23,0.27,0.55,0.23,0.31,0.53,0.43,0.23,0.74,0.77,0.23,0.69,0.51,0.53,0.25,0.53,0.23,0.51,0.43,0.23,0.48,0.48,0.23,0.48,0.48,0.23" style="fill:rgb(0,0,0);font-family:MinionPro-Regular;font-size:9.0px;stroke:none;">extent in the NH would be 12.81 </text>
   <text y="660.502" x="273.064" svgx:width="0.78" style="fill:rgb(0,0,0);font-family:EuclidSymbol;font-size:9.0px;stroke:none;">±</text>
   <text y="660.502" x="280.066,281.191,285.511,287.563,291.883,296.203" svgx:width="0.23,0.48,0.23,0.48,0.48,0.23" style="fill:rgb(0,0,0);font-family:MinionPro-Regular;font-size:9.0px;stroke:none;"> 3.31 </text>
   <text y="660.502" x="297.328" svgx:width="0.78" style="fill:rgb(0,0,0);font-family:EuclidSymbol;font-size:9.0px;stroke:none;">×</text>
   <text y="660.502" x="304.33,305.455,309.775" svgx:width="0.23,0.48,0.48" style="fill:rgb(0,0,0);font-family:MinionPro-Regular;font-size:9.0px;stroke:none;"> 10</text>
   <text y="657.45" x="314.094" svgx:width="0.48" style="fill:rgb(0,0,0);font-family:MinionPro-Regular;font-size:5.85px;stroke:none;">6</text>
   <text y="660.51" x="316.902,318.954,320.898,325.218,329.538,331.59,335.91,340.23" svgx:width="0.23,0.23,0.48,0.48,0.23,0.48,0.48,0.23" style="fill:rgb(0,0,0);font-family:MinionPro-Regular;font-size:9.0px;stroke:none;">, 12.33 </text>
   <text y="660.51" x="341.355" svgx:width="0.78" style="fill:rgb(0,0,0);font-family:EuclidSymbol;font-size:9.0px;stroke:none;">±</text>
   <text y="660.51" x="348.357,349.482,353.802,355.854,360.174,364.494" svgx:width="0.23,0.48,0.23,0.48,0.48,0.23" style="fill:rgb(0,0,0);font-family:MinionPro-Regular;font-size:9.0px;stroke:none;"> 4.46 </text>
   <text y="660.51" x="365.619" svgx:width="0.78" style="fill:rgb(0,0,0);font-family:EuclidSymbol;font-size:9.0px;stroke:none;">×</text>
   <text y="660.51" x="372.621,373.746,378.066" svgx:width="0.23,0.48,0.48" style="fill:rgb(0,0,0);font-family:MinionPro-Regular;font-size:9.0px;stroke:none;"> 10</text>
   <text y="657.45" x="382.389" svgx:width="0.48" style="fill:rgb(0,0,0);font-family:MinionPro-Regular;font-size:5.85px;stroke:none;">6</text>
   <text y="660.51" x="385.197,387.141,391.011,395.899,400.651,402.595,406.915,411.235,413.287,417.607,421.927" svgx:width="0.23,0.44,0.55,0.53,0.23,0.48,0.48,0.23,0.48,0.48,0.23" style="fill:rgb(0,0,0);font-family:MinionPro-Regular;font-size:9.0px;stroke:none;"> and 12.09 </text>
   <text y="660.51" x="423.051" svgx:width="0.78" style="fill:rgb(0,0,0);font-family:EuclidSymbol;font-size:9.0px;stroke:none;">±</text>
   <text y="660.51" x="430.053,431.178,435.498,437.55,441.87,446.19" svgx:width="0.23,0.48,0.23,0.48,0.48,0.23" style="fill:rgb(0,0,0);font-family:MinionPro-Regular;font-size:9.0px;stroke:none;"> 3.31 </text>
   <text y="660.51" x="447.315" svgx:width="0.78" style="fill:rgb(0,0,0);font-family:EuclidSymbol;font-size:9.0px;stroke:none;">×</text>
   <text y="660.51" x="454.317,455.442,459.762" svgx:width="0.23,0.48,0.48" style="fill:rgb(0,0,0);font-family:MinionPro-Regular;font-size:9.0px;stroke:none;"> 10</text>
   <text y="657.45" x="464.083" svgx:width="0.48" style="fill:rgb(0,0,0);font-family:MinionPro-Regular;font-size:5.85px;stroke:none;">6</text>
   <text y="660.51" x="466.891,468.835,473.335" svgx:width="0.23,0.5,0.82" style="fill:rgb(0,0,0);font-family:MinionPro-Regular;font-size:9.0px;stroke:none;"> km</text>
   <text y="657.45" x="480.703" svgx:width="0.48" style="fill:rgb(0,0,0);font-family:MinionPro-Regular;font-size:5.85px;stroke:none;">2</text>
   <text y="660.51" x="483.512,485.564,487.508,490.73,494.555,497.813,502.61,506.48,510.351,513.141,515.49,519.585,523.375,525.589,529.063,531.115,533.058,537.837,542.724,547.476,551.301,554.64" svgx:width="0.23,0.23,0.37,0.43,0.37,0.52,0.43,0.42,0.31,0.27,0.46,0.43,0.25,0.46,0.23,0.23,0.53,0.55,0.53,0.43,0.37,0.23" style="fill:rgb(0,0,0);font-family:MinionPro-Regular;font-size:9.0px;stroke:none;">, respectively, under </text>
   <text y="670.509" x="155.642,161.279,167.381,172.565,177.002,179.171,183.608,185.867,189.098,193.535,197.972,202.409,206.846,211.643,216.08,220.517,224.954,229.391,232.622,234.791,237.05,242.688,248.79,253.974,258.411,260.58,265.017,267.276,270.507,274.944,279.381,283.818,288.255,293.052,297.489,301.926,306.363,310.8,314.031,316.29,320.281,325.288,330.157,332.416,338.054,344.156,349.34,353.777,355.946,360.383,362.642,365.873,370.31,374.747,379.184,383.621,388.418,392.855,397.292,401.729,406.166,409.397,411.566,413.825,419.561,423.471,425.896,429.796,432.707,435.176,439.393,443.335,445.594,448.406,453.113,455.372,458.291,463.182,467.124,469.383,474.306,476.811,480.19,483.002,487.605,491.119,493.648,497.602,501.719,504.113,506.372,511.289,515.231,518.745,521.274,526.066,530.884,533.053,535.312,538.232,543.122,547.064,550.56,554.385" svgx:width="0.62,0.67,0.56,0.48,0.23,0.48,0.23,0.35,0.48,0.48,0.48,0.48,0.52,0.48,0.48,0.48,0.48,0.35,0.23,0.23,0.62,0.67,0.56,0.48,0.23,0.48,0.23,0.35,0.48,0.48,0.48,0.48,0.52,0.48,0.48,0.48,0.48,0.35,0.23,0.44,0.55,0.53,0.23,0.62,0.67,0.56,0.48,0.23,0.48,0.23,0.35,0.48,0.48,0.48,0.48,0.52,0.48,0.48,0.48,0.48,0.35,0.23,0.23,0.62,0.43,0.25,0.44,0.31,0.27,0.46,0.43,0.23,0.31,0.51,0.23,0.31,0.53,0.43,0.23,0.53,0.27,0.37,0.31,0.51,0.37,0.27,0.42,0.44,0.25,0.23,0.52,0.43,0.37,0.27,0.51,0.53,0.23,0.23,0.31,0.53,0.43,0.37,0.43,0.23" style="fill:rgb(0,0,0);font-family:MinionPro-Regular;font-size:9.0px;stroke:none;">RCP2.6 (2027–2036), RCP4.5 (2026–2035) and RCP8.5 (2023–2032). Relative to the historical period, these </text>
   <text y="680.508" x="155.642,158.967,162.9,167.612,170.938,174.867,178.345,182.274,187.13,189.978,192.183,195.509,199.483,204.231,209.118,213.091,215.985,218.5,223.087,228.041,231.448,233.653,236.168,241.199,243.404,248.305,252.233,255.73,263.178,267.152,270.01,273.336,278.029,281.391,284.24,286.445,290.373,294.729,297.524,301.452,306.309,309.157,311.362,315.948,318.72,320.925,325.353,329.776,331.936,336.36,340.783,347.695,349.851,352.056,356.479,360.908,363.063,367.487,371.915,378.822,381.027,385.001,389.992,394.847,397.052,401.476,405.904,408.059,412.487,416.911,423.818,425.978,428.183,431.51,435.438,438.801,443.701,447.675,451.648,454.542,456.995,461.194,465.087,467.405,470.983,473.139,475.344,482.116,486.666,492.863,496.863,501.063,504.991,507.868,510.023,512.228,517.111,522.102,526.013,529.941,533.474,536.377,540.351,542.866,547.722,550.598,554.729" svgx:width="0.37,0.43,0.52,0.37,0.43,0.37,0.43,0.55,0.31,0.23,0.37,0.43,0.53,0.53,0.42,0.31,0.27,0.51,0.55,0.37,0.23,0.27,0.55,0.23,0.52,0.43,0.37,0.82,0.44,0.3,0.37,0.51,0.37,0.31,0.23,0.43,0.47,0.31,0.43,0.55,0.31,0.23,0.51,0.3,0.23,0.48,0.48,0.23,0.48,0.48,0.76,0.23,0.23,0.48,0.48,0.23,0.48,0.48,0.76,0.23,0.44,0.55,0.53,0.23,0.48,0.48,0.23,0.48,0.48,0.76,0.23,0.23,0.37,0.43,0.37,0.52,0.43,0.42,0.31,0.27,0.46,0.43,0.25,0.46,0.23,0.23,0.77,0.51,0.69,0.43,0.46,0.43,0.37,0.23,0.23,0.53,0.55,0.42,0.43,0.37,0.31,0.44,0.27,0.55,0.31,0.46,0.23" style="fill:rgb(0,0,0);font-family:MinionPro-Regular;font-size:9.0px;stroke:none;">represent reductions in permafrost extent of 23.58%, 24.10% and 25.55%, respectively. However, uncertainty </text>
   <text y="690.507" x="155.642,158.107,161.491,163.606,167.583,171.856,174.349,179.182,183.088,187.919,190.745,192.86,197.593,201.543,205.456,209.316,214.148,217.602,221.508,223.623,228.184,230.929,233.044,235.924,240.773,244.679,246.794,249.177,253.127,256.474,260.693,264.599,266.714,271.547,274.013,277.467,281.355,284.656,288.562,293.402,297.352,302.319,306.207,308.7,312.606,315.99,318.105,322.055,329.47,334.032,338.962,343.255,345.37,348.248,353.098,357.004,359.119,366.533,371.285,376.118,379.987,382.316,385.33,387.418,389.533,394.409,398.315,401.787,404.45,409.012,412.485,419.908,423.858,428.825,432.713,436.619,438.734,443.296,448.3,450.415,453.186,457.092,464.372,469.249,473.155,476.575,480.435,483.169,488.029,491.33,495.236,497.351,500.735,503.228,510.508,515.411,517.795,521.655,524.525,527.018,531.58,536.584,538.699,543.224,547.399,551.305,554.644" svgx:width="0.27,0.37,0.23,0.43,0.46,0.27,0.53,0.43,0.55,0.31,0.23,0.51,0.43,0.42,0.44,0.53,0.37,0.43,0.23,0.51,0.3,0.23,0.31,0.53,0.43,0.23,0.25,0.44,0.37,0.47,0.43,0.23,0.53,0.27,0.37,0.42,0.37,0.43,0.52,0.44,0.55,0.42,0.27,0.43,0.37,0.23,0.44,0.82,0.51,0.55,0.47,0.23,0.31,0.53,0.43,0.23,0.82,0.51,0.53,0.43,0.25,0.37,0.22,0.23,0.52,0.43,0.37,0.3,0.51,0.37,0.82,0.44,0.55,0.42,0.43,0.23,0.51,0.55,0.23,0.31,0.43,0.82,0.52,0.43,0.37,0.44,0.31,0.53,0.37,0.43,0.23,0.37,0.27,0.82,0.53,0.25,0.44,0.31,0.27,0.51,0.55,0.23,0.51,0.46,0.43,0.37,0.23" style="fill:rgb(0,0,0);font-family:MinionPro-Regular;font-size:9.0px;stroke:none;">is evident because of the large discrepancies among the models’ performance on temperature simulation over </text>
   <text y="700.506" x="155.642,159.449,163.976,166.253,171.005,172.94,176.162,179.987,184.244,186.656,191.138,195.989,199.292,201.344,203.279,211.91,216.68,220.505,225.428,227.363,230.162,234.932,238.757,240.692,244.967,247.244,251.789,256.406,260.402,262.679,264.614,271.949,275.828,279.698,284.621,286.556,289.814,294.593,297.986,300.65,304.601,308.408,312.233,314.168,316.859,320.684,327.884,332.681,336.506,339.845,343.624,346.279,351.058,354.28,358.105,360.04,363.262,367.141,371.092,374.845,379.615,383.44,386.743,388.678,391.477,396.247,400.072,402.007,406.327,407.426,410.513,416.498,418.433,421.232,426.038,429.26,433.085,436.352,441.122,445.649,447.926,452.624,454.676,456.611,461.408,465.233,468.626,475.97,479.84,482.594,485.816,490.406,493.663,496.408,498.343,502.213,505.435,509.314,513.238,516.541,518.476,520.888,525.811,527.746,530.545,535.315,539.14,541.075,547.762,554.656" svgx:width="0.42,0.51,0.25,0.53,0.23,0.37,0.43,0.47,0.27,0.51,0.55,0.37,0.23,0.23,0.97,0.53,0.43,0.55,0.23,0.31,0.53,0.43,0.23,0.47,0.25,0.51,0.51,0.44,0.25,0.23,0.82,0.43,0.44,0.55,0.23,0.37,0.53,0.37,0.3,0.44,0.42,0.43,0.23,0.31,0.43,0.82,0.52,0.43,0.37,0.44,0.31,0.53,0.37,0.43,0.23,0.37,0.43,0.44,0.42,0.53,0.43,0.37,0.23,0.31,0.53,0.43,0.23,0.48,0.23,0.34,0.67,0.23,0.31,0.53,0.37,0.43,0.37,0.53,0.51,0.25,0.53,0.23,0.23,0.52,0.43,0.37,0.82,0.44,0.3,0.37,0.51,0.37,0.31,0.23,0.44,0.37,0.43,0.44,0.37,0.23,0.27,0.55,0.23,0.31,0.53,0.43,0.23,0.74,0.77,0.23" style="fill:rgb(0,0,0);font-family:MinionPro-Regular;font-size:9.0px;stroke:none;">cold regions. When the global mean surface temperature reaches the 2 °C threshold, permafrost areas in the NH </text>
   <text y="710.505" x="155.642,161.735,166.226,171.05,173.327,178.079,180.014,184.667,188.492,190.427,194.747,199.067,201.119,205.439,209.759" svgx:width="0.69,0.51,0.53,0.25,0.53,0.23,0.51,0.43,0.23,0.48,0.48,0.23,0.48,0.48,0.23" style="fill:rgb(0,0,0);font-family:MinionPro-Regular;font-size:9.0px;stroke:none;">would be 10.38 </text>
   <text y="710.505" x="210.893" svgx:width="0.78" style="fill:rgb(0,0,0);font-family:EuclidSymbol;font-size:9.0px;stroke:none;">×</text>
   <text y="710.505" x="217.895,219.02,223.34" svgx:width="0.23,0.48,0.48" style="fill:rgb(0,0,0);font-family:MinionPro-Regular;font-size:9.0px;stroke:none;"> 10</text>
   <text y="707.45" x="227.653" svgx:width="0.48" style="fill:rgb(0,0,0);font-family:MinionPro-Regular;font-size:5.85px;stroke:none;">6</text>
   <text y="710.51" x="230.461,232.396,236.266,241.153,245.905,247.84,252.16,256.48,258.532,262.852,267.172" svgx:width="0.23,0.44,0.55,0.53,0.23,0.48,0.48,0.23,0.48,0.48,0.23" style="fill:rgb(0,0,0);font-family:MinionPro-Regular;font-size:9.0px;stroke:none;"> and 10.13 </text>
   <text y="710.51" x="268.306" svgx:width="0.78" style="fill:rgb(0,0,0);font-family:EuclidSymbol;font-size:9.0px;stroke:none;">×</text>
   <text y="710.51" x="275.308,276.433,280.753" svgx:width="0.23,0.48,0.48" style="fill:rgb(0,0,0);font-family:MinionPro-Regular;font-size:9.0px;stroke:none;"> 10</text>
   <text y="707.45" x="285.07" svgx:width="0.48" style="fill:rgb(0,0,0);font-family:MinionPro-Regular;font-size:5.85px;stroke:none;">6</text>
   <text y="710.51" x="287.878,289.813,294.313" svgx:width="0.23,0.5,0.82" style="fill:rgb(0,0,0);font-family:MinionPro-Regular;font-size:9.0px;stroke:none;"> km</text>
   <text y="707.45" x="301.687" svgx:width="0.48" style="fill:rgb(0,0,0);font-family:MinionPro-Regular;font-size:5.85px;stroke:none;">2</text>
   <text y="710.51" x="304.495,306.547,308.482,311.704,315.529,318.787,323.583,327.453,331.323,334.113,336.462,340.557,344.345,346.56,350.034,352.086,354.021,356.433,361.356,363.291,368.807,374.792,379.859,384.179,386.231,390.551,392.486,395.6,399.92,404.24,408.56,412.88,417.56,421.88,426.2,430.52,434.84,437.954,439.889,443.759,448.646,453.398,455.333,460.85,466.835,471.902,476.222,478.274,482.594,484.529,487.643,491.963,496.283,500.603,504.923,509.603,513.923,518.243,522.563,526.883,529.997,532.049,533.984,543.587,547.412,550.787,554.612" svgx:width="0.23,0.23,0.37,0.43,0.37,0.52,0.43,0.42,0.31,0.27,0.46,0.43,0.25,0.46,0.23,0.23,0.27,0.55,0.23,0.62,0.67,0.56,0.48,0.23,0.48,0.23,0.35,0.48,0.48,0.48,0.48,0.52,0.48,0.48,0.48,0.48,0.35,0.23,0.44,0.55,0.53,0.23,0.62,0.67,0.56,0.48,0.23,0.48,0.23,0.35,0.48,0.48,0.48,0.48,0.52,0.48,0.48,0.48,0.48,0.35,0.23,0.23,1.07,0.43,0.37,0.43,0.23" style="fill:rgb(0,0,0);font-family:MinionPro-Regular;font-size:9.0px;stroke:none;">, respectively, in RCP4.5 (2046–2055) and RCP8.5 (2037–2046). These </text>
   <text y="720.509" x="155.635,161.817,166.396,171.309,173.676,178.462,180.604,182.755,186.066,189.981,193.327,198.212,202.171,206.13,209.008,211.446,215.629,219.507,221.809,225.373,227.515,229.666,233.563,238.133,243.073,246.419,249.297,251.69,254.434,259.194,261.973,265.888,268.039,271.349,275.308,280.04,284.909,288.868,291.746,294.248,298.819,303.758,307.151,309.302,312.613,316.49,318.883,322.752,325.63,328.067,332.251,336.166,338.317,341.096,345.776,347.927,350.815,355.674,359.589,361.74,366.636,369.109,372.456,375.235,379.806,383.287,385.789,389.713,393.797,396.164,398.315,403.2,407.115,410.597,413.099,417.858,422.7,424.851,429.422,432.176,434.327,438.737,443.147,445.289,449.699,454.109,461.003,463.154,467.113,472.089,476.931,479.082,483.492,487.902,490.044,494.454,498.864,505.758,507.9,510.051,513.361,517.276,520.622,525.507,529.466,533.425,536.303,538.74,542.924,546.801,549.104,552.667,554.719" svgx:width="0.69,0.51,0.53,0.25,0.53,0.23,0.23,0.37,0.43,0.37,0.52,0.43,0.42,0.31,0.27,0.46,0.43,0.25,0.46,0.23,0.23,0.42,0.51,0.55,0.37,0.31,0.27,0.31,0.53,0.31,0.43,0.23,0.37,0.43,0.53,0.53,0.42,0.31,0.27,0.51,0.55,0.37,0.23,0.37,0.43,0.25,0.44,0.31,0.27,0.46,0.43,0.23,0.31,0.51,0.23,0.31,0.53,0.43,0.23,0.53,0.27,0.37,0.31,0.51,0.37,0.27,0.42,0.44,0.25,0.23,0.52,0.43,0.37,0.27,0.51,0.53,0.23,0.51,0.3,0.23,0.48,0.48,0.23,0.48,0.48,0.76,0.23,0.44,0.55,0.53,0.23,0.48,0.48,0.23,0.48,0.48,0.76,0.23,0.23,0.37,0.43,0.37,0.52,0.43,0.42,0.31,0.27,0.46,0.43,0.25,0.46,0.23,0.23" style="fill:rgb(0,0,0);font-family:MinionPro-Regular;font-size:9.0px;stroke:none;">would, respectively, constitute reductions relative to the historical period of 36.08% and 37.62%, respectively, </text>
   <text y="730.508" x="155.635,158.291,162.846,166.257,168.354,173.944,180.001,185.14,189.532,191.656,196.048,198.145,202.088,207.048,211.872,213.969,219.559,225.616,230.755,235.147,237.271,241.663,243.787,245.884,252.076,256.63,263.903,268.737,272.68,275.975,279.918,284.742,286.839,289.603,294.265,296.362,299.233,304.076,307.973,310.07,314.948,317.406,320.737,323.5,328.055,331.521,334.005,337.912,341.981,344.33,346.427,351.297,355.194,358.66,361.144,365.888,370.659,372.783,374.88,377.751,382.593,386.49,388.587,395.995,400.657,403.988,406.805,408.902,413.52,418.021,422.288,424.772,429.336,434.161,437.536,439.633,444.457,448.354,452.683,456.094,460.117,464.969,468.822,471.684,474.168,478.723,483.718,485.815,490.559,494.438,498.381,503.232,506.59,509.965,512.062,514.546,519.541,521.638,526.598,531.153,534.655,537.527,542.37,546.266,549.732,554.654" svgx:width="0.3,0.51,0.37,0.23,0.62,0.67,0.56,0.48,0.23,0.48,0.23,0.44,0.55,0.53,0.23,0.62,0.67,0.56,0.48,0.23,0.48,0.23,0.23,0.67,0.51,0.82,0.52,0.44,0.37,0.43,0.53,0.23,0.31,0.51,0.23,0.31,0.53,0.43,0.23,0.53,0.27,0.37,0.31,0.51,0.37,0.27,0.42,0.44,0.25,0.23,0.52,0.43,0.37,0.27,0.51,0.53,0.23,0.23,0.31,0.53,0.43,0.23,0.82,0.51,0.37,0.31,0.23,0.51,0.51,0.46,0.27,0.51,0.53,0.37,0.23,0.53,0.43,0.47,0.37,0.44,0.53,0.44,0.31,0.27,0.51,0.55,0.23,0.51,0.42,0.42,0.53,0.37,0.37,0.23,0.27,0.55,0.23,0.55,0.51,0.37,0.31,0.53,0.43,0.37,0.55,0.23" style="fill:rgb(0,0,0);font-family:MinionPro-Regular;font-size:9.0px;stroke:none;">for RCP4.5 and RCP8.5. Compared to the historical period, the most obvious degradation occurs in northern </text>
  </g>
  <rect style="stroke:blue;stroke-width:0.3;" x="98.638" y="64.138" height="263.16" width="456.0" title="5"/>
  <text y="64.138" class="image" id="image.5.1" width="456" height="263" x="98.638">image.5.1.99_555.64_327</text>
  <rect style="stroke:blue;stroke-width:0.3;" x="98.638" y="64.138" height="263.16" width="456.0" title="5"/>
  <text y="64.138" class="image" id="image.5.2" width="456" height="263" x="98.638">image.5.2.99_555.64_327</text>
  <path style="fill:none;stroke:rgb(131,144,151);stroke-width:0.3;" d="M159.130 378.200 L552.640 378.200 "/>
  <path style="fill:none;stroke:rgb(131,144,151);stroke-width:1.0;" d="M156.140 378.200 L156.140 378.200 M554.140 378.200 L554.140 378.200 "/>
  <g begin="text">
   <text y="328.203" x="155.638,160.552,163.207,167.662,172.657,176.221,180.154,181.909,186.409" svgx:width="0.55,0.29,0.49,0.56,0.4,0.44,0.22,0.5,0.25" style="fill:rgb(0,0,0);font-family:MinionPro-Bold;font-size:9.0px;stroke:none;">Figure 4.</text>
   <text y="328.203" x="188.695,190.765,193.195,202.798,206.623,208.459,212.284,216.532,219.222,223.047,227.799,230.544,232.38,236.862,239.526,241.362,246.158,249.983,253.376,260.72,264.59,267.344,270.566,275.156,278.414,281.159,282.995,285.407,290.33,292.166,298.628,303.11,306.538,309.337,314.107,317.932,321.325,326.248,328.084,334.753,338.578,345.949,348.334,351.592,356.245,361.015,364.84,368.062,371.887,373.723,379.951,384.721,388.546,393.469,395.305,399.579,401.856,406.401,411.018,415.014,417.291,419.127,422.916,427.011,430.836,434.175,438.081,442.221,446.046,447.882,451.139,455.918,459.311,461.975,465.926,469.733,473.558,475.394,478.085,481.91,489.109,493.906,497.731,501.07,504.85,507.505,512.284,515.506,519.331,521.167,524.559,526.944,530.319,534.144,537.447" svgx:width="0.23,0.55,1.07,0.43,0.23,0.43,0.47,0.31,0.43,0.55,0.31,0.23,0.51,0.3,0.23,0.52,0.43,0.37,0.82,0.44,0.3,0.37,0.51,0.37,0.31,0.23,0.27,0.55,0.23,0.74,0.51,0.37,0.31,0.53,0.43,0.37,0.55,0.23,0.77,0.43,0.82,0.27,0.37,0.52,0.53,0.43,0.37,0.43,0.23,0.69,0.53,0.43,0.55,0.23,0.47,0.25,0.51,0.51,0.44,0.25,0.23,0.44,0.46,0.43,0.37,0.44,0.47,0.43,0.23,0.37,0.53,0.37,0.3,0.44,0.42,0.43,0.23,0.31,0.43,0.82,0.52,0.43,0.37,0.44,0.31,0.53,0.37,0.43,0.23,0.37,0.27,0.37,0.43,0.37,0.23" style="fill:rgb(0,0,0);font-family:MinionPro-Regular;font-size:9.0px;stroke:none;"> The extent of permafrost in Northern Hemisphere when global average surface temperature rises </text>
   <text y="338.202" x="155.638,158.329,162.919,164.755,169.075,171.127,175.447,177.283,181.154,186.041,190.793,192.629,196.949,198.082,201.169,207.154,208.99,212.869,217.522,221.967,226.062,229.887,231.723,236.331,239.553,243.378,246.582,248.994,253.881,258.525,263.277,266.535,269.325,272.718,275.157,279.152,281.429,283.265,286.379,290.699,295.019,299.339,303.659,308.339,312.659,316.979,321.299,325.619,328.733,330.569,335.348,340.235,344.987,348.812,352.151,353.987,359.504,365.489,370.303,373.606,375.658,377.494,380.608,390.211,394.036,395.872,400.354,403.693,407.563,412.414,416.554,420.379,422.215,426.085,430.972,435.724,437.56,442.069,444.238,449.017,452.842,454.678,457.945,462.724,466.675,471.427,475.297,480.049,481.885,485.107,488.932,493.188,495.6,500.082,504.933,508.236,510.072,513.294,517.119,521.727,524.949,528.774,532.149,535.974,540.725,543.47" svgx:width="0.31,0.51,0.23,0.48,0.23,0.48,0.23,0.44,0.55,0.53,0.23,0.48,0.23,0.34,0.67,0.23,0.44,0.51,0.51,0.46,0.43,0.23,0.52,0.37,0.43,0.36,0.27,0.55,0.53,0.53,0.37,0.31,0.37,0.27,0.44,0.25,0.23,0.35,0.48,0.48,0.48,0.48,0.52,0.48,0.48,0.48,0.48,0.35,0.23,0.53,0.55,0.53,0.43,0.37,0.23,0.62,0.67,0.56,0.37,0.23,0.23,0.35,1.07,0.43,0.23,0.51,0.37,0.44,0.55,0.47,0.43,0.23,0.44,0.55,0.53,0.23,0.51,0.25,0.53,0.43,0.23,0.37,0.53,0.44,0.53,0.43,0.53,0.23,0.37,0.43,0.47,0.27,0.51,0.55,0.37,0.23,0.37,0.43,0.52,0.37,0.43,0.37,0.43,0.55,0.31,0.23" style="fill:rgb(0,0,0);font-family:MinionPro-Regular;font-size:9.0px;stroke:none;">to 1.5 and 2 °C above pre-industrial (1861–1880) under RCPs. (The orange and blue shaded regions represent </text>
   <text y="348.201" x="155.638,158.437,163.207,167.032,168.868,173.664,177.489,180.882,188.226,192.096,194.85,198.072,202.662,205.92,208.665,210.501,214.326,218.574,221.264,225.089,229.841,232.586,234.422,236.834,241.757,243.593,247.913,252.233,256.553,260.873,265.553,269.873,274.193,278.513,282.833,284.669,288.539,293.426,298.178,300.014,302.813,307.583,311.408,313.244,318.04,321.865,325.258,327.67,332.341,337.093,338.929,342.736,347.218,350.611,353.833,357.658,360.915,365.712,370.194,375.081,379.833,382.245,387.096,391.308,393.144,395.835,400.425,402.261,405.059,409.829,413.654,415.49,419.297,423.122,426.551,429.35,433.22,435.632,440.555,442.391,445.19,449.996,453.218,457.043,460.31,465.08,469.607,471.884,476.582,478.634,480.47,483.692,487.517,490.775,495.571,499.441,503.311,506.101,508.45,512.545,516.334,518.548,522.679,525.793,527.845,529.681,532.795,542.398,546.223" svgx:width="0.31,0.53,0.43,0.23,0.52,0.43,0.37,0.82,0.44,0.3,0.37,0.51,0.37,0.31,0.23,0.43,0.47,0.31,0.43,0.55,0.31,0.23,0.27,0.55,0.23,0.48,0.48,0.48,0.48,0.52,0.48,0.48,0.48,0.48,0.23,0.44,0.55,0.53,0.23,0.31,0.53,0.43,0.23,0.52,0.43,0.37,0.27,0.51,0.53,0.23,0.42,0.51,0.37,0.37,0.43,0.37,0.52,0.51,0.55,0.53,0.27,0.55,0.47,0.23,0.31,0.51,0.23,0.31,0.53,0.43,0.23,0.42,0.43,0.37,0.31,0.44,0.27,0.55,0.23,0.31,0.53,0.37,0.43,0.37,0.53,0.51,0.25,0.53,0.23,0.23,0.37,0.43,0.37,0.52,0.43,0.42,0.31,0.27,0.46,0.43,0.25,0.46,0.35,0.23,0.23,0.35,1.07,0.43,0.23" style="fill:rgb(0,0,0);font-family:MinionPro-Regular;font-size:9.0px;stroke:none;">the permafrost extent in 1986–2005 and the period corresponding to the certain threshold, respectively). (The </text>
   <text y="358.2" x="155.638,162.262,168.247,174.466,180.055,181.891,188.01,192.493,199.864,207.207,211.077,215.964,220.716,222.552,227.529,231.399,236.25,240.462,245.268,249.174,253.314,257.139,258.975,262.089,267.543,271.368,274.652,277.955,280.367,284.849,289.772,291.608,295.928,297.98,302.3,304.352,308.672,311.786,313.622,316.727,321.119,325.6,330.865,337.03,340.9,344.122,347.947,351.052,353.104,354.94,358.054,362.374,366.694,371.014,375.334,378.448,380.5,382.336,387.808,392.299,397.123,399.4,404.152,407.977,410.749,412.801,414.637,420.757,425.284,427.561,432.043,435.382,439.333,444.085,448.675,450.727,452.563,459.187,465.172,471.391,476.98,479.959,486.583,492.568,498.787,504.376,507.355,513.34,516.409,520.567,525.409,528.388,533.941,540.475,546.73,548.782" svgx:width="0.74,0.67,0.69,0.62,0.23,0.67,0.51,0.82,0.82,0.44,0.55,0.53,0.23,0.54,0.44,0.55,0.47,0.53,0.44,0.47,0.43,0.23,0.35,0.7,0.43,0.37,0.37,0.27,0.51,0.55,0.23,0.48,0.23,0.48,0.23,0.48,0.35,0.23,0.34,0.47,0.51,0.58,0.69,0.44,0.37,0.43,0.34,0.23,0.23,0.35,0.48,0.48,0.48,0.48,0.35,0.23,0.23,0.59,0.51,0.53,0.25,0.53,0.43,0.37,0.23,0.23,0.67,0.51,0.25,0.51,0.37,0.44,0.53,0.51,0.23,0.23,0.74,0.67,0.69,0.62,0.33,0.74,0.67,0.69,0.62,0.33,0.67,0.34,0.47,0.54,0.33,0.62,0.74,0.74,0.23,0.23" style="fill:rgb(0,0,0);font-family:MinionPro-Regular;font-size:9.0px;stroke:none;">NCAR Command Language (Version 6.3.0) [Software]. (2016). Boulder, Colorado: UCAR/NCAR/CISL/TDD. </text>
   <text y="368.199" x="155.638,160.273,162.928,165.583,170.299,172.351,175.33,178.309,183.061,187.309,189.361,194.113,198.594,200.952,203.004,207.486,210.753,214.965,217.944,222.264,226.584,228.636,232.956,237.276,241.596,245.916,248.895,255.51,259.83,268.569,275.184,279.504,285.39,292.284,296.604,299.718" svgx:width="0.53,0.31,0.31,0.52,0.23,0.33,0.33,0.53,0.47,0.23,0.53,0.51,0.27,0.23,0.51,0.37,0.47,0.33,0.48,0.48,0.23,0.48,0.48,0.48,0.48,0.33,0.74,0.48,0.97,0.74,0.48,0.65,0.77,0.48,0.35,0.23" style="fill:rgb(0,0,0);font-family:MinionPro-Regular;font-size:9.0px;stroke:none;">http://dx.doi.org/10.5065/D6WD3XH5).</text>
  </g>
  <path style="fill:none;stroke:rgb(131,144,151);stroke-width:1.0;" d="M159.130 507.380 L552.640 507.380 "/>
  <path style="fill:none;stroke:rgb(131,144,151);stroke-width:1.0;" d="M156.140 507.380 L156.140 507.380 M554.140 507.380 L554.140 507.380 "/>
  <path style="fill:none;stroke:rgb(0,0,0);stroke-width:1.0;" d="M155.640 392.630 L245.000 392.630 "/>
  <path style="fill:none;stroke:rgb(0,0,0);stroke-width:0.25;" d="M155.760 404.260 L155.760 392.760 "/>
  <path style="fill:none;stroke:rgb(0,0,0);stroke-width:0.25;" d="M155.760 415.760 L155.760 404.260 "/>
  <path style="fill:none;stroke:rgb(0,0,0);stroke-width:0.25;" d="M155.640 415.880 L245.000 415.880 "/>
  <path style="fill:none;stroke:rgb(0,0,0);stroke-width:0.25;" d="M245.000 392.630 L298.140 392.630 "/>
  <path style="fill:none;stroke:rgb(0,0,0);stroke-width:0.25;" d="M245.000 404.260 L245.000 392.760 "/>
  <path style="fill:none;stroke:rgb(0,0,0);stroke-width:0.25;" d="M245.000 415.760 L245.000 404.260 "/>
  <path style="fill:none;stroke:rgb(0,0,0);stroke-width:0.25;" d="M245.000 415.880 L298.140 415.880 "/>
  <path style="fill:none;stroke:rgb(0,0,0);stroke-width:0.25;" d="M298.140 392.630 L341.140 392.630 "/>
  <path style="fill:none;stroke:rgb(0,0,0);stroke-width:0.25;" d="M298.140 404.130 L298.140 392.760 "/>
  <path style="fill:none;stroke:rgb(0,0,0);stroke-width:0.25;" d="M341.140 392.630 L384.340 392.630 "/>
  <path style="fill:none;stroke:rgb(0,0,0);stroke-width:0.25;" d="M384.340 392.630 L426.340 392.630 "/>
  <path style="fill:none;stroke:rgb(0,0,0);stroke-width:0.25;" d="M426.340 392.630 L458.340 392.630 "/>
  <path style="fill:none;stroke:rgb(0,0,0);stroke-width:0.25;" d="M426.340 404.130 L426.340 392.760 "/>
  <path style="fill:none;stroke:rgb(0,0,0);stroke-width:0.25;" d="M458.340 392.630 L490.340 392.630 "/>
  <path style="fill:none;stroke:rgb(0,0,0);stroke-width:0.25;" d="M490.340 392.630 L520.460 392.630 "/>
  <path style="fill:none;stroke:rgb(0,0,0);stroke-width:0.25;" d="M520.340 404.130 L520.340 392.760 "/>
  <path style="fill:none;stroke:rgb(0,0,0);stroke-width:0.25;" d="M298.010 404.260 L341.140 404.260 "/>
  <path style="fill:none;stroke:rgb(0,0,0);stroke-width:0.25;" d="M298.140 415.760 L298.140 404.380 "/>
  <path style="fill:none;stroke:rgb(0,0,0);stroke-width:0.25;" d="M298.140 415.880 L341.140 415.880 "/>
  <path style="fill:none;stroke:rgb(0,0,0);stroke-width:0.25;" d="M341.140 404.260 L384.340 404.260 "/>
  <path style="fill:none;stroke:rgb(0,0,0);stroke-width:0.25;" d="M341.140 415.760 L341.140 404.380 "/>
  <path style="fill:none;stroke:rgb(0,0,0);stroke-width:0.25;" d="M341.140 415.880 L384.340 415.880 "/>
  <path style="fill:none;stroke:rgb(0,0,0);stroke-width:0.25;" d="M384.340 404.260 L426.340 404.260 "/>
  <path style="fill:none;stroke:rgb(0,0,0);stroke-width:0.25;" d="M384.340 415.760 L384.340 404.380 "/>
  <path style="fill:none;stroke:rgb(0,0,0);stroke-width:0.25;" d="M384.340 415.880 L426.340 415.880 "/>
  <path style="fill:none;stroke:rgb(0,0,0);stroke-width:0.25;" d="M426.340 404.260 L458.340 404.260 "/>
  <path style="fill:none;stroke:rgb(0,0,0);stroke-width:0.25;" d="M426.340 415.760 L426.340 404.380 "/>
  <path style="fill:none;stroke:rgb(0,0,0);stroke-width:0.25;" d="M426.340 415.880 L458.340 415.880 "/>
  <path style="fill:none;stroke:rgb(0,0,0);stroke-width:0.25;" d="M458.340 404.260 L490.340 404.260 "/>
  <path style="fill:none;stroke:rgb(0,0,0);stroke-width:0.25;" d="M458.340 415.760 L458.340 404.380 "/>
  <path style="fill:none;stroke:rgb(0,0,0);stroke-width:0.25;" d="M458.340 415.880 L490.340 415.880 "/>
  <path style="fill:none;stroke:rgb(0,0,0);stroke-width:0.25;" d="M490.340 404.260 L520.460 404.260 "/>
  <path style="fill:none;stroke:rgb(0,0,0);stroke-width:0.25;" d="M490.340 415.760 L490.340 404.380 "/>
  <path style="fill:none;stroke:rgb(0,0,0);stroke-width:0.25;" d="M520.340 415.760 L520.340 404.380 "/>
  <path style="fill:none;stroke:rgb(0,0,0);stroke-width:0.25;" d="M490.340 415.880 L520.460 415.880 "/>
  <path style="fill:none;stroke:rgb(0,0,0);stroke-width:0.25;" d="M155.760 427.510 L155.760 416.010 "/>
  <path style="fill:none;stroke:rgb(0,0,0);stroke-width:0.25;" d="M155.760 439.130 L155.760 427.510 "/>
  <path style="fill:none;stroke:rgb(0,0,0);stroke-width:0.25;" d="M155.760 450.630 L155.760 439.130 "/>
  <path style="fill:none;stroke:rgb(0,0,0);stroke-width:0.25;" d="M155.640 450.760 L245.000 450.760 "/>
  <path style="fill:none;stroke:rgb(0,0,0);stroke-width:0.25;" d="M245.000 427.380 L245.000 416.010 "/>
  <path style="fill:none;stroke:rgb(0,0,0);stroke-width:0.25;" d="M298.140 427.380 L298.140 416.010 "/>
  <path style="fill:none;stroke:rgb(0,0,0);stroke-width:0.25;" d="M341.140 427.380 L341.140 416.010 "/>
  <path style="fill:none;stroke:rgb(0,0,0);stroke-width:0.25;" d="M384.340 427.380 L384.340 416.010 "/>
  <path style="fill:none;stroke:rgb(0,0,0);stroke-width:0.25;" d="M426.340 427.380 L426.340 416.010 "/>
  <path style="fill:none;stroke:rgb(0,0,0);stroke-width:0.25;" d="M458.340 427.380 L458.340 416.010 "/>
  <path style="fill:none;stroke:rgb(0,0,0);stroke-width:0.25;" d="M490.340 427.380 L490.340 416.010 "/>
  <path style="fill:none;stroke:rgb(0,0,0);stroke-width:0.25;" d="M520.340 427.380 L520.340 416.010 "/>
  <path style="fill:none;stroke:rgb(0,0,0);stroke-width:0.25;" d="M244.880 427.510 L298.140 427.510 "/>
  <path style="fill:none;stroke:rgb(0,0,0);stroke-width:0.25;" d="M245.000 439.010 L245.000 427.630 "/>
  <path style="fill:none;stroke:rgb(0,0,0);stroke-width:0.25;" d="M298.140 427.510 L341.140 427.510 "/>
  <path style="fill:none;stroke:rgb(0,0,0);stroke-width:0.25;" d="M298.140 439.010 L298.140 427.630 "/>
  <path style="fill:none;stroke:rgb(0,0,0);stroke-width:0.25;" d="M341.140 427.510 L384.340 427.510 "/>
  <path style="fill:none;stroke:rgb(0,0,0);stroke-width:0.25;" d="M341.140 439.010 L341.140 427.630 "/>
  <path style="fill:none;stroke:rgb(0,0,0);stroke-width:0.25;" d="M384.340 427.510 L426.340 427.510 "/>
  <path style="fill:none;stroke:rgb(0,0,0);stroke-width:0.25;" d="M384.340 439.010 L384.340 427.630 "/>
  <path style="fill:none;stroke:rgb(0,0,0);stroke-width:0.25;" d="M426.340 427.510 L458.340 427.510 "/>
  <path style="fill:none;stroke:rgb(0,0,0);stroke-width:0.25;" d="M426.340 439.010 L426.340 427.630 "/>
  <path style="fill:none;stroke:rgb(0,0,0);stroke-width:0.25;" d="M458.340 427.510 L490.340 427.510 "/>
  <path style="fill:none;stroke:rgb(0,0,0);stroke-width:0.25;" d="M458.340 439.010 L458.340 427.630 "/>
  <path style="fill:none;stroke:rgb(0,0,0);stroke-width:0.25;" d="M490.340 427.510 L520.460 427.510 "/>
  <path style="fill:none;stroke:rgb(0,0,0);stroke-width:0.25;" d="M490.340 439.010 L490.340 427.630 "/>
  <path style="fill:none;stroke:rgb(0,0,0);stroke-width:0.25;" d="M520.340 439.010 L520.340 427.630 "/>
  <path style="fill:none;stroke:rgb(0,0,0);stroke-width:0.25;" d="M244.880 439.130 L298.140 439.130 "/>
  <path style="fill:none;stroke:rgb(0,0,0);stroke-width:0.25;" d="M245.000 450.630 L245.000 439.260 "/>
  <path style="fill:none;stroke:rgb(0,0,0);stroke-width:0.25;" d="M245.000 450.760 L298.140 450.760 "/>
  <path style="fill:none;stroke:rgb(0,0,0);stroke-width:0.25;" d="M298.140 439.130 L341.140 439.130 "/>
  <path style="fill:none;stroke:rgb(0,0,0);stroke-width:0.25;" d="M298.140 450.630 L298.140 439.260 "/>
  <path style="fill:none;stroke:rgb(0,0,0);stroke-width:0.25;" d="M298.140 450.760 L341.140 450.760 "/>
  <path style="fill:none;stroke:rgb(0,0,0);stroke-width:0.25;" d="M341.140 439.130 L384.340 439.130 "/>
  <path style="fill:none;stroke:rgb(0,0,0);stroke-width:0.25;" d="M341.140 450.630 L341.140 439.260 "/>
  <path style="fill:none;stroke:rgb(0,0,0);stroke-width:0.25;" d="M341.140 450.760 L384.340 450.760 "/>
  <path style="fill:none;stroke:rgb(0,0,0);stroke-width:0.25;" d="M384.340 439.130 L426.340 439.130 "/>
  <path style="fill:none;stroke:rgb(0,0,0);stroke-width:0.25;" d="M384.340 450.630 L384.340 439.260 "/>
  <path style="fill:none;stroke:rgb(0,0,0);stroke-width:0.25;" d="M384.340 450.760 L426.340 450.760 "/>
  <path style="fill:none;stroke:rgb(0,0,0);stroke-width:0.25;" d="M426.340 439.130 L458.340 439.130 "/>
  <path style="fill:none;stroke:rgb(0,0,0);stroke-width:0.25;" d="M426.340 450.630 L426.340 439.260 "/>
  <path style="fill:none;stroke:rgb(0,0,0);stroke-width:0.25;" d="M426.340 450.760 L458.340 450.760 "/>
  <path style="fill:none;stroke:rgb(0,0,0);stroke-width:0.25;" d="M458.340 439.130 L490.340 439.130 "/>
  <path style="fill:none;stroke:rgb(0,0,0);stroke-width:0.25;" d="M458.340 450.630 L458.340 439.260 "/>
  <path style="fill:none;stroke:rgb(0,0,0);stroke-width:0.25;" d="M458.340 450.760 L490.340 450.760 "/>
  <path style="fill:none;stroke:rgb(0,0,0);stroke-width:0.25;" d="M490.340 439.130 L520.460 439.130 "/>
  <path style="fill:none;stroke:rgb(0,0,0);stroke-width:0.25;" d="M490.340 450.630 L490.340 439.260 "/>
  <path style="fill:none;stroke:rgb(0,0,0);stroke-width:0.25;" d="M520.340 450.630 L520.340 439.260 "/>
  <path style="fill:none;stroke:rgb(0,0,0);stroke-width:0.25;" d="M490.340 450.760 L520.460 450.760 "/>
  <g begin="text">
   <text y="411.885" x="158.763,163.334,166.414,169.906,172.013,175.618,179.608,247.999,252.024,255.335,259.24" svgx:width="0.66,0.44,0.49,0.29,0.52,0.57,0.55,0.64,0.47,0.55,0.44" style="fill:rgb(0,0,0);font-family:MinionPro-Bold;font-size:7.0px;stroke:none;">Region Type</text>
   <text y="400.258" x="301.136,304.636,306.414,309.914,310.789,313.106,317.866,429.334,432.834,433.709,436.026" svgx:width="0.5,0.25,0.5,0.22,0.33,0.68,0.55,0.5,0.22,0.33,0.68" style="fill:rgb(0,0,0);font-family:MinionPro-Bold;font-size:7.0px;stroke:none;">1.5 °C 2 °C</text>
   <text y="411.885" x="301.136,305.644,310.376,314.569,318.069,319.847,323.347,344.137,348.645,353.377,357.57,361.07,362.848,366.348,387.334,391.842,396.574,400.767,404.267,406.045,409.545,429.334,433.842,438.574,442.767,446.267,448.045,451.545,461.331,465.839,470.571,474.764,478.264,480.042,483.542,493.328,497.836,502.568,506.761,510.261,512.039" svgx:width="0.66,0.68,0.6,0.5,0.25,0.5,0.55,0.66,0.68,0.6,0.5,0.25,0.5,0.55,0.66,0.68,0.6,0.5,0.25,0.5,0.55,0.66,0.68,0.6,0.5,0.25,0.5,0.55,0.66,0.68,0.6,0.5,0.25,0.5,0.55,0.66,0.68,0.6,0.5,0.25,0.5" style="fill:rgb(0,0,0);font-family:MinionPro-Bold;font-size:7.0px;stroke:none;">RCP2.6 RCP4.5 RCP8.5 RCP2.6 RCP4.5 RCP8.5</text>
   <text y="435.132" x="158.756,163.782,167.268,169.935,172.112,175.822,178.797,181.435,185.264,186.657,191.844,194.819,200.552,202.407,204.941,208.56,212.27,215.245,217.751,220.726,222.119,224.541,227.901,231.261,232.857,236.217,239.577" svgx:width="0.74,0.51,0.37,0.31,0.53,0.43,0.37,0.55,0.23,0.77,0.43,0.82,0.27,0.37,0.52,0.53,0.43,0.37,0.43,0.23,0.35,0.48,0.48,0.23,0.48,0.48,0.35" style="fill:rgb(0,0,0);font-family:MinionPro-Regular;font-size:7.0px;stroke:none;">Northern Hemisphere (16.24)</text>
   <text y="423.505" x="247.992,252.808,255.314,258.331,261.404,262.832" svgx:width="0.69,0.37,0.43,0.44,0.23,0.35" style="fill:rgb(0,0,0);font-family:MinionPro-Regular;font-size:7.0px;stroke:none;">Area (</text>
   <text y="423.505" x="265.254" svgx:width="0.78" style="fill:rgb(0,0,0);font-family:EuclidSymbol;font-size:7.0px;stroke:none;">×</text>
   <text y="423.505" x="270.7,274.06" svgx:width="0.48,0.48" style="fill:rgb(0,0,0);font-family:MinionPro-Regular;font-size:7.0px;stroke:none;">10</text>
   <text y="421.13" x="277.43" svgx:width="0.48" style="fill:rgb(0,0,0);font-family:MinionPro-Regular;font-size:4.55px;stroke:none;">6</text>
   <text y="423.51" x="279.614,281.042,284.542" svgx:width="0.23,0.5,0.82" style="fill:rgb(0,0,0);font-family:MinionPro-Regular;font-size:7.0px;stroke:none;"> km</text>
   <text y="421.13" x="290.277" svgx:width="0.48" style="fill:rgb(0,0,0);font-family:MinionPro-Regular;font-size:4.55px;stroke:none;">2</text>
   <text y="423.51" x="292.461,294.911,301.141,304.5,307.86,309.456,312.816,316.176" svgx:width="0.35,0.55,0.48,0.48,0.23,0.48,0.48,0.23" style="fill:rgb(0,0,0);font-family:MinionPro-Regular;font-size:7.0px;stroke:none;">) 12.81 </text>
   <text y="423.51" x="317.052" svgx:width="0.78" style="fill:rgb(0,0,0);font-family:EuclidSymbol;font-size:7.0px;stroke:none;">±</text>
   <text y="423.51" x="322.498,323.373,326.733,328.329,331.689,344.142,347.501,350.861,352.457,355.817,359.177" svgx:width="0.23,0.48,0.23,0.48,0.55,0.48,0.48,0.23,0.48,0.48,0.23" style="fill:rgb(0,0,0);font-family:MinionPro-Regular;font-size:7.0px;stroke:none;"> 3.2 12.33 </text>
   <text y="423.51" x="360.053" svgx:width="0.78" style="fill:rgb(0,0,0);font-family:EuclidSymbol;font-size:7.0px;stroke:none;">±</text>
   <text y="423.51" x="365.499,366.374,369.734,371.33,374.69,387.339,390.699,394.059,395.655,399.014,402.374" svgx:width="0.23,0.48,0.23,0.48,0.55,0.48,0.48,0.23,0.48,0.48,0.23" style="fill:rgb(0,0,0);font-family:MinionPro-Regular;font-size:7.0px;stroke:none;"> 3.2 12.09 </text>
   <text y="423.51" x="403.25" svgx:width="0.78" style="fill:rgb(0,0,0);font-family:EuclidSymbol;font-size:7.0px;stroke:none;">±</text>
   <text y="423.51" x="408.696,409.571,412.931,414.527,417.887,429.339,432.699,436.059,437.655,441.014,444.374,461.336,464.696,468.056,469.652,473.012,476.372,493.333,496.693,500.053,501.649,505.009" svgx:width="0.23,0.48,0.23,0.48,0.55,0.48,0.48,0.23,0.48,0.48,0.55,0.48,0.48,0.23,0.48,0.48,0.55,0.48,0.48,0.23,0.48,0.48" style="fill:rgb(0,0,0);font-family:MinionPro-Regular;font-size:7.0px;stroke:none;"> 2.9 12.65 10.38 10.13</text>
   <text y="435.137" x="247.997,252.638,257.293,258.721" svgx:width="0.69,0.67,0.23,0.35" style="fill:rgb(0,0,0);font-family:MinionPro-Regular;font-size:7.0px;stroke:none;">AC (</text>
   <text y="435.137" x="261.143" svgx:width="0.78" style="fill:rgb(0,0,0);font-family:EuclidSymbol;font-size:7.0px;stroke:none;">×</text>
   <text y="435.137" x="266.589,269.949" svgx:width="0.48,0.48" style="fill:rgb(0,0,0);font-family:MinionPro-Regular;font-size:7.0px;stroke:none;">10</text>
   <text y="432.755" x="273.314" svgx:width="0.48" style="fill:rgb(0,0,0);font-family:MinionPro-Regular;font-size:4.55px;stroke:none;">6</text>
   <text y="435.135" x="275.498,276.926,280.426" svgx:width="0.23,0.5,0.82" style="fill:rgb(0,0,0);font-family:MinionPro-Regular;font-size:7.0px;stroke:none;"> km</text>
   <text y="432.755" x="286.16" svgx:width="0.48" style="fill:rgb(0,0,0);font-family:MinionPro-Regular;font-size:4.55px;stroke:none;">2</text>
   <text y="435.135" x="288.345,290.795,304.501,307.861,309.457,312.816,316.176" svgx:width="0.35,0.55,0.48,0.23,0.48,0.48,0.23" style="fill:rgb(0,0,0);font-family:MinionPro-Regular;font-size:7.0px;stroke:none;">) 3.43 </text>
   <text y="435.135" x="317.052" svgx:width="0.78" style="fill:rgb(0,0,0);font-family:EuclidSymbol;font-size:7.0px;stroke:none;">±</text>
   <text y="435.135" x="322.498,323.373,326.733,328.329,331.689,347.502,350.862,352.458,355.818,359.177" svgx:width="0.23,0.48,0.23,0.48,0.55,0.48,0.23,0.48,0.48,0.23" style="fill:rgb(0,0,0);font-family:MinionPro-Regular;font-size:7.0px;stroke:none;"> 3.2 3.91 </text>
   <text y="435.135" x="360.053" svgx:width="0.78" style="fill:rgb(0,0,0);font-family:EuclidSymbol;font-size:7.0px;stroke:none;">±</text>
   <text y="435.135" x="365.499,366.374,369.734,371.33,374.69,390.699,394.059,395.655,399.014,402.374" svgx:width="0.23,0.48,0.23,0.48,0.55,0.48,0.23,0.48,0.48,0.23" style="fill:rgb(0,0,0);font-family:MinionPro-Regular;font-size:7.0px;stroke:none;"> 3.2 4.15 </text>
   <text y="435.135" x="403.25" svgx:width="0.78" style="fill:rgb(0,0,0);font-family:EuclidSymbol;font-size:7.0px;stroke:none;">±</text>
   <text y="435.135" x="408.696,409.571,412.931,414.527,417.887,432.699,436.059,437.655,441.014,444.374,464.696,468.056,469.652,473.012,476.372,496.693,500.053,501.649,505.009" svgx:width="0.23,0.48,0.23,0.48,0.55,0.48,0.23,0.48,0.48,0.55,0.48,0.23,0.48,0.48,0.55,0.48,0.23,0.48,0.48" style="fill:rgb(0,0,0);font-family:MinionPro-Regular;font-size:7.0px;stroke:none;"> 2.9 3.59 5.86 6.11</text>
   <text y="446.762" x="247.997,252.288,256.943,258.371,260.793,266.085,268.53499999999997,301.134,304.494,307.854,309.45,312.81,316.169" svgx:width="0.62,0.67,0.23,0.35,0.76,0.35,0.55,0.48,0.48,0.23,0.48,0.48,0.23" style="fill:rgb(0,0,0);font-family:MinionPro-Regular;font-size:7.0px;stroke:none;">RC (%) 21.12 </text>
   <text y="446.762" x="317.045" svgx:width="0.78" style="fill:rgb(0,0,0);font-family:EuclidSymbol;font-size:7.0px;stroke:none;">±</text>
   <text y="446.762" x="322.491,323.366,326.726,330.086,331.682,335.04200000000003,347.495,350.855,354.215,355.811,359.171" svgx:width="0.23,0.48,0.48,0.23,0.48,0.55,0.48,0.48,0.23,0.48,0.23" style="fill:rgb(0,0,0);font-family:MinionPro-Regular;font-size:7.0px;stroke:none;"> 17.8 24.1 </text>
   <text y="446.762" x="360.046" svgx:width="0.78" style="fill:rgb(0,0,0);font-family:EuclidSymbol;font-size:7.0px;stroke:none;">±</text>
   <text y="446.762" x="365.492,366.367,369.727,373.087,374.683,378.043,387.332,390.692,394.052,395.648,399.008,402.368" svgx:width="0.23,0.48,0.48,0.23,0.48,0.55,0.48,0.48,0.23,0.48,0.48,0.23" style="fill:rgb(0,0,0);font-family:MinionPro-Regular;font-size:7.0px;stroke:none;"> 17.6 25.55 </text>
   <text y="446.762" x="403.243" svgx:width="0.78" style="fill:rgb(0,0,0);font-family:EuclidSymbol;font-size:7.0px;stroke:none;">±</text>
   <text y="446.762" x="408.689,409.564,412.924,416.284,417.88,421.24,429.332,432.692,436.052,437.648,441.008,444.368,461.329,464.689,468.049,469.645,473.005,476.365,493.326,496.686,500.046,501.642,505.002" svgx:width="0.23,0.48,0.48,0.23,0.48,0.55,0.48,0.48,0.23,0.48,0.48,0.55,0.48,0.48,0.23,0.48,0.48,0.55,0.48,0.48,0.23,0.48,0.48" style="fill:rgb(0,0,0);font-family:MinionPro-Regular;font-size:7.0px;stroke:none;"> 15.9 22.11 36.08 37.62</text>
   <text y="466.885" x="155.637,160.596,164.727,169.507,172.063,175.995,177.751,182.251" svgx:width="0.64,0.47,0.53,0.28,0.44,0.22,0.5,0.25" style="fill:rgb(0,0,0);font-family:MinionPro-Bold;font-size:9.0px;stroke:none;">Table 2.</text>
   <text y="466.885" x="184.536,186.606,189.036,198.64,202.465,204.301,209.097,212.922,216.315,223.659,227.529,230.283,233.505,238.095,241.353,244.098,245.934,249.804,253.026,256.905,260.856,262.908,264.744,268.623,273.195,276.57,281.097,283.266,287.937,290.628,294.453,296.289,300.042,304.821,308.691,313.542,317.682,321.507,323.343,326.457,332.424,338.409,341.523,343.359,347.229,352.116,356.868,358.704,361.926,365.715,368.019,371.799,374.589,376.938,381.033,384.858,386.694,390.447,395.226,399.096,403.947,408.087,411.912,413.748,416.862,422.379,428.364,431.478,433.314,435.726,440.649,442.485,448.946,453.429,456.857,459.656,464.426,468.251,471.644,476.567,478.403,485.072,488.897,496.268,498.652,501.91,506.563,511.333,515.158,518.38,522.205,524.041,528.82,533.707,538.459,542.284,545.623" svgx:width="0.23,0.55,1.07,0.43,0.23,0.52,0.43,0.37,0.82,0.44,0.3,0.37,0.51,0.37,0.31,0.23,0.44,0.37,0.43,0.44,0.23,0.23,0.44,0.51,0.37,0.51,0.25,0.53,0.31,0.43,0.23,0.42,0.53,0.44,0.55,0.47,0.43,0.23,0.35,0.69,0.67,0.35,0.23,0.44,0.55,0.53,0.23,0.37,0.43,0.25,0.44,0.31,0.27,0.46,0.43,0.23,0.42,0.53,0.44,0.55,0.47,0.43,0.23,0.35,0.62,0.67,0.35,0.23,0.27,0.55,0.23,0.74,0.51,0.37,0.31,0.53,0.43,0.37,0.55,0.23,0.77,0.43,0.82,0.27,0.37,0.52,0.53,0.43,0.37,0.43,0.23,0.53,0.55,0.53,0.43,0.37,0.23" style="fill:rgb(0,0,0);font-family:MinionPro-Regular;font-size:9.0px;stroke:none;"> The permafrost area, absolute change (AC) and relative change (RC) in Northern Hemisphere under </text>
   <text y="476.884" x="155.637,159.913,162.189,166.734,171.352,175.347,177.624,179.46,185.625,189.495,192.888,200.259,202.671,207.522,211.761,213.813,215.649,222.111,226.602,229.293,233.118,235.17,237.006,239.931,244.854,246.69,252.207,258.192,263.259,267.579,269.631,273.951,276.003,277.839,280.638,285.408,289.233,291.069,295.344,297.621,302.166,306.783,310.779,313.056,314.892,318.681,322.776,326.601,329.94,333.846,337.986,341.811,343.647,346.905,351.684,355.076,357.74,361.691,365.498,369.323,371.159,373.85,377.675,384.875,389.671,393.496,396.835,400.615,403.27,408.049,411.271,415.096,416.932,423.124,425.581,427.902,430.179,432.015,436.902,441.393,444.138,445.974,449.196,453.075,457.026,460.779,465.585,467.421,470.22,474.99,478.815,480.651,484.971,486.127,489.214,495.199,497.251,499.087,503.407,507.727,509.779,514.099,518.419,520.255,522.64,525.943,527.779,530.578,535.348,539.173" svgx:width="0.47,0.25,0.51,0.51,0.44,0.25,0.23,0.69,0.44,0.37,0.82,0.27,0.55,0.47,0.23,0.23,0.74,0.51,0.31,0.43,0.23,0.23,0.34,0.55,0.23,0.62,0.67,0.56,0.48,0.23,0.48,0.23,0.23,0.31,0.53,0.43,0.23,0.47,0.25,0.51,0.51,0.44,0.25,0.23,0.44,0.46,0.43,0.37,0.44,0.47,0.43,0.23,0.37,0.53,0.37,0.3,0.44,0.42,0.43,0.23,0.31,0.43,0.82,0.52,0.43,0.37,0.44,0.31,0.53,0.37,0.43,0.23,0.69,0.27,0.25,0.25,0.23,0.55,0.51,0.31,0.23,0.37,0.43,0.44,0.42,0.53,0.23,0.31,0.53,0.43,0.23,0.48,0.23,0.34,0.67,0.23,0.23,0.48,0.48,0.23,0.48,0.48,0.23,0.27,0.37,0.23,0.31,0.53,0.43,0.23" style="fill:rgb(0,0,0);font-family:MinionPro-Regular;font-size:9.0px;stroke:none;">global warming. Note: In RCP2.6, the global average surface temperature will not reach the 2 °C. 12.64 is the </text>
   <text y="486.883" x="155.638,160.435,164.26,167.653,174.996,178.866,181.62,184.842,189.432,192.69,195.435,197.271,201.141,204.363,208.242,212.193,214.029,216.441,221.364,223.2,229.663,234.144,237.573,240.372,245.142,248.967,252.36,257.283,259.119,265.788,269.613,276.984,279.369,282.626,287.28,292.05,295.875,299.096,302.921,304.757,307.169,312.092,313.928,318.248,322.568,326.888,331.208,333.26,335.096,344.699,348.524,350.36,354.527,358.523,360.692,365.471,369.296,371.132,373.544,378.467,380.303,384.768,388.107,392.058,395.81,400.193,404.018,406.763,408.599,411.821,415.646,420.254,423.476,427.301,430.675,434.5,439.252,441.997,445.3,447.136,449.935,454.705,458.53,460.366,465.118,468.987,472.794,476.016,479.895,483.819,487.194,491.064,495.816,497.652,502.448,506.273,509.666,517.01,520.88,523.634,526.856,531.446,534.704,537.449,539.285,543.155,546.377,550.256,554.207" svgx:width="0.52,0.43,0.37,0.82,0.44,0.3,0.37,0.51,0.37,0.31,0.23,0.44,0.37,0.43,0.44,0.23,0.27,0.55,0.23,0.74,0.51,0.37,0.31,0.53,0.43,0.37,0.55,0.23,0.77,0.43,0.82,0.27,0.37,0.52,0.53,0.43,0.37,0.43,0.23,0.27,0.55,0.23,0.48,0.48,0.48,0.48,0.23,0.23,1.07,0.43,0.23,0.46,0.44,0.25,0.53,0.43,0.23,0.27,0.55,0.23,0.51,0.37,0.44,0.42,0.5,0.43,0.31,0.23,0.37,0.43,0.52,0.37,0.43,0.37,0.43,0.55,0.31,0.37,0.23,0.31,0.53,0.43,0.23,0.53,0.43,0.42,0.37,0.43,0.44,0.37,0.43,0.53,0.23,0.52,0.43,0.37,0.82,0.44,0.3,0.37,0.51,0.37,0.31,0.23,0.44,0.37,0.43,0.44,0.23" style="fill:rgb(0,0,0);font-family:MinionPro-Regular;font-size:9.0px;stroke:none;">permafrost area in Northern Hemisphere in 2100. The value in bracket represents the decreased permafrost area </text>
   <text y="496.882" x="155.638,158.86,162.649,164.952,168.732,171.522,173.871,177.966,181.791,183.627,186.318,190.908,192.744,197.064,201.384,205.704,210.024,214.704,219.024,223.344,227.664,231.984" svgx:width="0.37,0.43,0.25,0.44,0.31,0.27,0.46,0.43,0.23,0.31,0.51,0.23,0.48,0.48,0.48,0.48,0.52,0.48,0.48,0.48,0.48,0.23" style="fill:rgb(0,0,0);font-family:MinionPro-Regular;font-size:9.0px;stroke:none;">relative to 1986–2005.</text>
  </g>
 </g>
</svg>
