<?xml version="1.0" encoding="UTF-8"?>
<svg height="785.452" width="561.9769616640001" xmlns="http://www.w3.org/2000/svg">
 <g style="fill:none;">
  <path d=" M 44.106998443603516 702.0850219726562 L 551.1680297851562 702.0850219726562 L 551.1680297851562 735.0240478515625 L 44.106998443603516 735.0240478515625 Z " style="fill:none;stroke:#000000;stroke-width:1.0;"/>
  <path d=" M 43.59700012207031 702.0850219726562 L 43.59700012207031 735.5339965820312 L 44.106998443603516 735.0240478515625 L 44.106998443603516 702.0850219726562" style="fill:none;stroke:#000000;stroke-width:0.0;"/>
  <path d=" M 43.59700012207031 735.5339965820312 L 551.6790161132812 735.5339965820312 L 551.1690063476562 735.0239868164062 L 44.106998443603516 735.0239868164062" style="fill:none;stroke:#000000;stroke-width:0.0;"/>
  <path d=" M 551.6790161132812 735.5339965820312 L 551.6790161132812 702.0850219726562 L 551.1690063476562 702.0850219726562 L 551.1690063476562 735.0239868164062" style="fill:none;stroke:#000000;stroke-width:0.0;"/>
  <path d=" M 551.1680297851562 735.0230102539062 L 44.107025146484375 735.0230102539062 L 43.596038818359375 735.5330200195312" style="fill:none;stroke:#000000;stroke-width:0.0;"/>
  <path d=" M 551.6790161132812 702.0850219726562 L 551.6790161132812 60.49102783203125 L 551.1690063476562 61.00201416015625 L 551.1690063476562 702.0850219726562" style="fill:none;stroke:#000000;stroke-width:0.0;"/>
  <path d=" M 551.6790161132812 60.49100112915039 L 43.597015380859375 60.49100112915039 L 44.107025146484375 61.000999450683594 L 551.1690063476562 61.000999450683594" style="fill:none;stroke:#000000;stroke-width:0.0;"/>
  <path d=" M 43.59700012207031 60.49100112915039 L 43.59700012207031 702.0850219726562 L 44.106998443603516 702.0850219726562 L 44.106998443603516 61.000999450683594" style="fill:none;stroke:#000000;stroke-width:0.0;"/>
  <path d=" M 548.6740112304688 686.947998046875 L 46.602020263671875 686.947998046875 L 46.602020263671875 687.4580078125 L 548.6740112304688 687.4580078125" style="fill:none;stroke:#000000;stroke-width:0.0;"/>
  <path d=" M 46.60200119018555 75.28800201416016 L 548.6740112304688 75.28800201416016 L 548.6740112304688 74.77799987792969 L 46.60200119018555 74.77799987792969" style="fill:none;stroke:#000000;stroke-width:0.0;"/>
  <text x="47.679,53.094,57.577,62.339,64.67,69.153,71.547,75.187,77.614,83.397,87.88,92.363,94.791,98.154,102.637,107.487,109.819,114.302,117.476,119.807,124.29,128.773,131.245,135.728,140.489,145.34,147.743,152.504,157.166,161.927,165.003,168.365,172.848,177.699,180.03,184.513,187.687,190.019,194.502,198.985,201.431,204.417,208.9,213.383,218.234,222.995,227.478,231.486,235.969,240.075,242.533,244.865,249.626,252.057,256.908,261.571,263.902,268.385,271.747,274.167,277.53,282.013,286.774,289.105,293.768,298.529,302.635,305.065,308.239,313.001,317.484,320.65799999999996,323.094,327.577,330.939,335.422,337.835,341.197,345.68,348.011,352.494,355.669,360.152,365.003,367.429,370.603,375.265,377.691,380.865,385.626,390.109,392.544,397.027,400.201,407.392,412.055,416.161,421.012,425.773,430.257,433.619,438.102,440.344,442.774,447.437,451.445,455.928,460.411,465.172,467.41400000000004,469.874,473.981,478.464,482.947,485.352,487.683,491.691,496.174,498.416,500.886,503.217,507.225,511.708,514.095,518.202,522.963,527.446,531.929,535.103" y="78.86599999999999" svg_rhmargin="539.21" style="fill:#000000;font-family:DBDDCC+AdvOTcb88df00;font-size:8.97px;font-style:NORMAL;font-weight:normal;">Table 1 Key radiative and non-radiative feedbacks in polar regions that are related to the atmosphere, ocean, sea ice, ice sheets</text>
  <text x="47.679,52.162,56.923,61.774,64.743,67.075,71.558,76.319,81.17,84.189,88.296,93.057,96.42,99.405,103.888,107.896,112.38,116.48599999999999,119.51,123.993,128.754,133.605,136.574,140.582,145.065,149.826,152.845,157.606,162.089,165.034,172.225,176.708,181.191,185.298,190.059,193.421,197.905,202.756,205.797,210.558,214.664,216.996,221.757,226.518,229.495,233.978,236.978,239.964,244.447,248.93,253.781,258.542,263.025,267.033,271.516,274.509,277.495,281.978,285.986,289.16,293.823" y="89.35400000000004" svg_rhmargin="297.185" style="fill:#000000;font-family:DBDDCC+AdvOTcb88df00;font-size:8.97px;font-style:NORMAL;font-weight:normal;">and land surfaces and can be measured using a feedback factor</text>
  <text x="124.101,129.309,133.045,139.037,142.773,236.239,241.447,245.183,248.605,251.945,254.747,256.689,260.732,263.377,265.319,269.205,273.173,375.137,381.749,385.485,389.221,392.643,396.611,399.413,403.149,505.133,509.721,513.457,515.945,519.681,522.483,526.219,530.186,533.526,537.335,540.369,543.791" y="110.44399999999996" svg_rhmargin="546.825" style="fill:#000000;font-family:DBDDCC+AdvOTcb88df00;font-size:7.47px;font-style:NORMAL;font-weight:normal;">Name Description Measure Reference(s)</text>
  <text x="47.679,51.878,55.457,59.343,61.054,64.633,67.039,68.75,72.247" y="120.87599999999998" svg_rhmargin="75.901" style="fill:#000000;font-family:DBDBHG+AdvOTea1a7398;font-size:7.47px;font-style:NORMAL;font-weight:normal;">Radiative</text>
  <text svg_rhmargin="78.62" x="47.679,49.854,53.507,57.161,61.046,64.932,68.511,71.933,75.355,78.62" y="120.87599999999998" style="fill:#000000;font-family:DBDBHG+AdvOTea1a7398;font-size:7.47px;font-style:NORMAL;font-weight:normal;">feedbacks </text>
  <text x="124.101,128.068,129.779,133.358,137.244,140.666,144.088,146.608" y="120.87599999999998" svg_rhmargin="149.559" style="fill:#000000;font-family:DBDBHG+AdvOTea1a7398;font-size:7.47px;font-style:NORMAL;font-weight:normal;">Planck (</text>
  <text x="149.556" y="120.87599999999998" svg_rhmargin="155.309" style="fill:#000000;font-family:DBDDLG+AdvTTab7e17fd+22;font-size:7.47px;font-style:NORMAL;font-weight:normal;">−</text>
  <text x="155.338,158.289,236.238,241.446,243.157,246.893,250.778,254.432,256.995,259.54,262.805,266.69,269.253,271.427,275.006,278.429,282.08299999999997,284.599,288.178,292.063,295.948,298.489,302.068,304.474,310.541,314.426,317.691,321.577,325.462,329.116,331.679,333.39" y="120.87599999999998" svg_rhmargin="336.812" style="fill:#000000;font-family:DBDBHG+AdvOTea1a7398;font-size:7.47px;font-style:NORMAL;font-weight:normal;">) Higher surface and atmospheric</text>
  <text x="236.238,238.644,242.298,248.365,252.25,255.904,258.467,262.046,264.452,268.337,270.9,274.554,277.81899999999996,280.403,282.114,285.999,289.421,291.984,295.638,299.217,302.482,306.136,308.693,312.578,316.464,318.87,322.606,326.491,328.202,332.087" y="128.813" svg_rhmargin="335.823" style="fill:#000000;font-family:DBDBHG+AdvOTea1a7398;font-size:7.47px;font-style:NORMAL;font-weight:normal;">temperatures increase outgoing</text>
  <text x="236.238,237.949,241.835,245.72,249.456,254.821,258.4,261.896,265.55,268.1,270.663,274.242,278.127,279.838,283.417,285.823,287.534,291.42,295.305,296.934,299.509,303.088,306.584,310.47,312.181,316.066,317.777,321.663" y="136.80600000000004" svg_rhmargin="325.399" style="fill:#000000;font-family:DBDBHG+AdvOTea1a7398;font-size:7.47px;font-style:NORMAL;font-weight:normal;">longwave radiation, avoiding</text>
  <text svg_rhmargin="292.115" x="236.238,238.801,242.686,246.572,250.151,255.516,259.095,262.67400000000004,265.209,270.573,274.152,276.715,282.782,284.493,288.379,292.115" y="120.87599999999998" style="fill:#000000;font-family:DBDBHG+AdvOTea1a7398;font-size:7.47px;font-style:NORMAL;font-weight:normal;">runaway warming </text>
  <text svg_rhmargin="424.76" x="375.135,379.955,383.84,387.419,391.304,395.04,398.694,401.214,405.1,407.274,409.831,414.105,419.627,424.76" y="120.87599999999998" style="fill:#000000;font-family:DBDBHG+AdvOTea1a7398;font-size:7.47px;font-style:NORMAL;font-weight:normal;">Change of TOA </text>
  <text x="427.235" y="120.87599999999998" svg_rhmargin="431.203" style="fill:#000000;font-family:DBDCPO+AdvOTea1a7398+fb;font-size:7.47px;font-style:NORMAL;font-weight:normal;">ﬂ</text>
  <text x="431.204,435.089,438.586,441.125,445.01,448.895,452.549,455.072,457.478" y="120.87599999999998" svg_rhmargin="461.363" style="fill:#000000;font-family:DBDBHG+AdvOTea1a7398;font-size:7.47px;font-style:NORMAL;font-weight:normal;">ux due to</text>
  <text x="375.135,377.541,381.194,387.261,391.147,394.8,397.363,400.942,403.348,407.337,409.899,413.553,416.067,419.49,423.375,426.954,430.839,434.575,438.229,440.729,444.308,446.714,449.232,452.655,456.54,460.425,463.69,466.096,469.675,473.561" y="128.813" svg_rhmargin="475.967" style="fill:#000000;font-family:DBDBHG+AdvOTea1a7398;font-size:7.47px;font-style:NORMAL;font-weight:normal;">temperature change at constant</text>
  <text x="375.135,376.846,380.425,384.31,387.575,391.229,393.787,396.35,399.929,402.335,405.989,408.471,412.356,414.067,417.564,419.275,423.16,426.896,430.781,433.246,437.131,440.71,443.224,446.489,450.374,452.937,455.111,458.69,462.112" y="136.80600000000004" svg_rhmargin="465.766" style="fill:#000000;font-family:DBDBHG+AdvOTea1a7398;font-size:7.47px;font-style:NORMAL;font-weight:normal;">lapse rate divided by surface</text>
  <text svg_rhmargin="438.229" x="375.135,377.541,381.194,387.261,391.147,394.8,397.363,400.942,403.348,407.337,409.899,413.553,416.067,419.49,423.375,426.954,430.839,434.575,438.229" y="120.87599999999998" style="fill:#000000;font-family:DBDBHG+AdvOTea1a7398;font-size:7.47px;font-style:NORMAL;font-weight:normal;">temperature change </text>
  <text x="505.13,507.776" y="120.87599999999998" svg_rhmargin="511.744" style="fill:#0000ff;font-family:DBDBHG+AdvOTea1a7398;font-size:7.47px;font-style:NORMAL;font-weight:normal;">12</text>
  <text x="511.763" y="120.87599999999998" svg_rhmargin="515.103" style="fill:#000000;font-family:DBDDLH+AdvOTea1a7398+20;font-size:7.47px;font-style:NORMAL;font-weight:normal;">–</text>
  <text x="515.108,517.753,522.138,523.782,526.427" y="120.87599999999998" svg_rhmargin="530.626" style="fill:#0000ff;font-family:DBDBHG+AdvOTea1a7398;font-size:7.47px;font-style:NORMAL;font-weight:normal;">14,18</text>
  <text x="124.099,127.521,131.1,134.985,138.25,141.904,144.395,146.958,150.537,152.943,156.597,159.135" y="152.73699999999997" svg_rhmargin="162.086" style="fill:#000000;font-family:DBDBHG+AdvOTea1a7398;font-size:7.47px;font-style:NORMAL;font-weight:normal;">Lapse rate (</text>
  <text svg_rhmargin="167.836" x="162.083,167.836" y="152.73699999999997" style="fill:#000000;font-family:DBDDNM+AdvTTab7e17fd;font-size:7.47px;font-style:NORMAL;font-weight:normal;">+ </text>
  <text x="170.36,172.071,175.956,178.467,183.6,186.163,189.585,191.991,193.702,197.124" y="152.73699999999997" svg_rhmargin="198.753" style="fill:#000000;font-family:DBDBHG+AdvOTea1a7398;font-size:7.47px;font-style:NORMAL;font-weight:normal;">in Arctic,</text>
  <text svg_rhmargin="198.041" x="124.099,127.521,129.232,133.118,136.383,140.037,142.525,144.931,148.816,151.369,155.957,158.455,160.166,164.051,166.562,171.695,175.581,177.987,181.566,184.129,187.551,189.957,191.668,195.09,198.041" y="152.73699999999997" style="fill:#000000;font-family:DBDBHG+AdvOTea1a7398;font-size:7.47px;font-style:NORMAL;font-weight:normal;">close to 0 in Antarctic) </text>
  <text x="236.238,238.18,242.065,244.572,248.151,250.638,256.003,259.582,262.145,268.212,271.865,274.428,276.944,282.309,286.194,288.757,290.468,294.353,296.9,300.479,304.365,308.25,310.791,314.37,316.776,319.238,323.123,324.835,328.57" y="152.73699999999997" svg_rhmargin="332.455" style="fill:#000000;font-family:DBDBHG+AdvOTea1a7398;font-size:7.47px;font-style:NORMAL;font-weight:normal;">In a warmer world and at high</text>
  <text x="236.238,237.949,241.528,243.934,245.645,248.051,251.936,255.821,259.475,262.74,264.369,266.909,270.174,272.58,276.159,280.045,281.756,285.40999999999997,287.942,291.208,293.613,296.176,299.755,302.161" y="160.73000000000002" svg_rhmargin="303.872" style="fill:#000000;font-family:DBDBHG+AdvOTea1a7398;font-size:7.47px;font-style:NORMAL;font-weight:normal;">latitudes, stable strati</text>
  <text x="303.928" y="160.73000000000002" svg_rhmargin="307.813" style="fill:#000000;font-family:DBDCPO+AdvOTea1a7398+fb;font-size:7.47px;font-style:NORMAL;font-weight:normal;">ﬁ</text>
  <text x="307.84,311.262,314.841,317.247,318.958,322.843" y="160.73000000000002" svg_rhmargin="326.728" style="fill:#000000;font-family:DBDBHG+AdvOTea1a7398;font-size:7.47px;font-style:NORMAL;font-weight:normal;">cation</text>
  <text x="236.237,239.659,243.544,247.43,251.315,253.026,255.432,257.143,261.028,264.914,268.179,270.707,272.418,276.303,278.813,281.219,285.105,288.759,291.286,292.997,296.883,302.247,305.901,308.464,311.015,313.421,315.984,319.87,323.755,327.64,330.905,334.791,338.676,342.33,344.893" y="168.668" svg_rhmargin="348.547" style="fill:#000000;font-family:DBDBHG+AdvOTea1a7398;font-size:7.47px;font-style:NORMAL;font-weight:normal;">conditions in the lower troposphere</text>
  <text x="236.237,238.8,242.453,245.719,249.604,251.315,253.721,256.25,257.961,261.846,264.357,267.93600000000004,270.423,272.134,275.713,278.276,282.012,285.666,288.229,290.72,296.085,299.734,302.297,308.364,310.075,313.96,317.69599999999997,320.2,324.086,326.26,328.761,331.167,335.052" y="176.66099999999994" svg_rhmargin="338.706" style="fill:#000000;font-family:DBDBHG+AdvOTea1a7398;font-size:7.47px;font-style:NORMAL;font-weight:normal;">result in a larger warming of the</text>
  <text x="236.237,237.948,241.833,247.198,250.852,253.415,255.343,257.749,261.634,265.213,269.098,271.104,274.989,277.16299999999995,279.098,281.504,285.389,289.043,291.004,294.889,298.774,302.66,306.313,308.876,310.847,313.253,315.815,319.701,323.586,327.471,330.737,334.622,338.507,342.161,344.724,348.378" y="184.59799999999996" svg_rhmargin="350.007" style="fill:#000000;font-family:DBDBHG+AdvOTea1a7398;font-size:7.47px;font-style:NORMAL;font-weight:normal;">lower than of the upper troposphere,</text>
  <text x="236.237,237.948,241.602,245.181,249.066,250.777,254.662,258.398,260.899,263.305,267.19,269.743,273.322,275.81,279.075,285.142,288.721,290.432,292.143,295.797,298.36,300.869,302.58,306.465,309.887,312.45,316.104,319.683,322.948,326.602,329.159,330.87" y="192.59199999999998" svg_rhmargin="334.755" style="fill:#000000;font-family:DBDBHG+AdvOTea1a7398;font-size:7.47px;font-style:NORMAL;font-weight:normal;">leading to a smaller increase in</text>
  <text x="236.237,240.122,244.008,246.413,250.149,254.035,255.746,259.631,263.36699999999996,265.888,267.599,271.484,275.37,279.106,284.47,288.049,291.546,295.2,297.75,300.313,303.892,307.777,309.488,313.067,315.473,317.184,321.164" y="200.58500000000004" svg_rhmargin="325.049" style="fill:#000000;font-family:DBDBHG+AdvOTea1a7398;font-size:7.47px;font-style:NORMAL;font-weight:normal;">outgoing longwave radiation</text>
  <text x="236.237,239.659,243.544,249.611,253.497,257.076,259.639,263.292,267.17699999999996,269.743,272.149,276.034,278.53,282.027,285.681,288.244,290.65,292.361,295.783,299.362,301.073,302.784,306.363,308.918,312.803,316.689,318.4,320.574,324.459,327.022" y="208.52200000000005" svg_rhmargin="333.089" style="fill:#000000;font-family:DBDBHG+AdvOTea1a7398;font-size:7.47px;font-style:NORMAL;font-weight:normal;">compared to vertically uniform</text>
  <text x="236.237,241.602,245.181,247.743,253.811,255.522,259.407,263.143,264.772,267.305,270.884,274.77,278.655,281.195,283.601,287.487,291.372,294.637,297.126,299.532,303.417,305.914,308.088,311.973,314.536,317.026,320.911,324.565" y="216.51599999999996" svg_rhmargin="327.128" style="fill:#000000;font-family:DBDBHG+AdvOTea1a7398;font-size:7.47px;font-style:NORMAL;font-weight:normal;">warming, and thus to further</text>
  <text svg_rhmargin="263.143" x="236.237,241.602,245.181,247.743,253.811,255.522,259.407,263.143" y="152.73699999999997" style="fill:#000000;font-family:DBDBHG+AdvOTea1a7398;font-size:7.47px;font-style:NORMAL;font-weight:normal;">warming </text>
  <text svg_rhmargin="424.759" x="375.134,379.953,383.839,387.418,391.303,395.039,398.693,401.213,405.098,407.272,409.83,414.104,419.626,424.75899999999996" y="152.73699999999997" style="fill:#000000;font-family:DBDBHG+AdvOTea1a7398;font-size:7.47px;font-style:NORMAL;font-weight:normal;">Change of TOA </text>
  <text x="427.234" y="152.73699999999997" svg_rhmargin="431.202" style="fill:#000000;font-family:DBDCPO+AdvOTea1a7398+fb;font-size:7.47px;font-style:NORMAL;font-weight:normal;">ﬂ</text>
  <text x="431.202,435.088,438.58500000000004,441.123,445.009,448.894,452.548,455.07,457.476,461.361,463.858,465.569,469.148,473.033,476.298" y="152.73699999999997" svg_rhmargin="479.952" style="fill:#000000;font-family:DBDBHG+AdvOTea1a7398;font-size:7.47px;font-style:NORMAL;font-weight:normal;">ux due to lapse</text>
  <text x="375.133,377.696,381.275,383.681,387.335,389.874,393.296,397.181,400.76,404.645,408.381,412.035,415.3,417.823,421.709,423.42,426.917,428.628,432.513,436.167,440.05199999999996,442.598,446.484,450.063,452.576,455.841,459.727,462.29,464.464,468.043,471.465" y="160.731" svg_rhmargin="475.119" style="fill:#000000;font-family:DBDBHG+AdvOTea1a7398;font-size:7.47px;font-style:NORMAL;font-weight:normal;">rate changes divided by surface</text>
  <text x="375.133,377.539,381.193,387.26,391.145,394.799,397.362,400.941,403.347,407.335,409.898,413.552,416.066,419.488,423.373,426.952,430.838,434.574,438.228,440.727,443.679,447.564,451.449,454.012,460.079,463.745,465.456,467.167,470.507,474.161" y="168.668" svg_rhmargin="478.046" style="fill:#000000;font-family:DBDBHG+AdvOTea1a7398;font-size:7.47px;font-style:NORMAL;font-weight:normal;">temperature change (normalized</text>
  <text svg_rhmargin="438.245" x="375.133,379.019,382.598,385.111,389.079,390.79,394.369,398.254,401.676,405.098,407.618,409.793,413.446,417.1,420.985,424.871,428.45,431.872,435.294,438.245" y="152.73699999999997" style="fill:#000000;font-family:DBDBHG+AdvOTea1a7398;font-size:7.47px;font-style:NORMAL;font-weight:normal;">by Planck feedback) </text>
  <text x="505.129,507.774,511.989,513.633,517.6" y="152.73699999999997" svg_rhmargin="522.188" style="fill:#0000ff;font-family:DBDBHG+AdvOTea1a7398;font-size:7.47px;font-style:NORMAL;font-weight:normal;">19,20</text>
  <text x="124.098,127.909,131.794,134.357,136.531,140.11,143.532,147.186,149.723,153.302,155.013,158.899,162.552,166.438,170.32299999999998,172.854" y="232.447" svg_rhmargin="175.805" style="fill:#000000;font-family:DBDBHG+AdvOTea1a7398;font-size:7.47px;font-style:NORMAL;font-weight:normal;">Surface albedo (</text>
  <text x="175.801" y="232.447" svg_rhmargin="181.554" style="fill:#000000;font-family:DBDDNM+AdvTTab7e17fd;font-size:7.47px;font-style:NORMAL;font-weight:normal;">+</text>
  <text x="181.584,184.535,236.235,243.005,246.659,248.37,250.776,252.487,256.372,260.108,262.201,263.913,267.335,270.989,273.03,276.609,280.494,284.379,286.466,289.731,293.617,297.502,302.867,304.948,306.659,310.545,315.91,319.563,322.126,325.39099999999996,327.512,330.778,334.663,337.226,339.4,342.979,346.401" y="232.447" svg_rhmargin="350.055" style="fill:#000000;font-family:DBDBHG+AdvOTea1a7398;font-size:7.47px;font-style:NORMAL;font-weight:normal;">) Melting ice and snow lowers surface</text>
  <text x="236.235,239.814,241.526,245.411,249.065,252.95,256.835,258.464,261.01,262.721,266.375,269.954,273.84,275.551,279.436,283.17199999999997,285.673,288.079,291.964,294.517,296.228,300.113,303.535,306.098,309.752,313.331,316.596,320.25" y="240.44100000000003" svg_rhmargin="324.135" style="fill:#000000;font-family:DBDBHG+AdvOTea1a7398;font-size:7.47px;font-style:NORMAL;font-weight:normal;">albedo, leading to increased</text>
  <text x="236.235,239.814,243.7,246.965,250.85,253.413,257.298,259.704,261.415,265.301,269.186,271.726,275.611,277.78499999999997,280.286,283.551,287.437,291.398,293.961,296.367,301.732,305.311,308.808,312.462,314.983,317.546,321.125,325.01,326.721,330.3,332.706,334.417,338.302" y="248.37800000000004" svg_rhmargin="342.187" style="fill:#000000;font-family:DBDBHG+AdvOTea1a7398;font-size:7.47px;font-style:NORMAL;font-weight:normal;">absorption of shortwave radiation</text>
  <text x="236.235,239.814,243.7,247.58499999999998,250.069,253.648,259.715,263.6,265.311" y="256.371" svg_rhmargin="267.022" style="fill:#000000;font-family:DBDBHG+AdvOTea1a7398;font-size:7.47px;font-style:NORMAL;font-weight:normal;">and ampli</text>
  <text x="267.076" y="256.371" svg_rhmargin="270.961" style="fill:#000000;font-family:DBDCPO+AdvOTea1a7398+fb;font-size:7.47px;font-style:NORMAL;font-weight:normal;">ﬁ</text>
  <text svg_rhmargin="307.928" x="270.988,274.641,278.526,281.022,286.387,289.966,292.529,298.596,300.307,304.192,307.928" y="232.447" style="fill:#000000;font-family:DBDBHG+AdvOTea1a7398;font-size:7.47px;font-style:NORMAL;font-weight:normal;">ed warming </text>
  <text svg_rhmargin="424.756" x="375.132,379.951,383.836,387.415,391.301,395.037,398.691,401.211,405.096,407.27,409.828,414.102,419.623,424.756" y="232.447" style="fill:#000000;font-family:DBDBHG+AdvOTea1a7398;font-size:7.47px;font-style:NORMAL;font-weight:normal;">Change of TOA </text>
  <text x="427.232" y="232.447" svg_rhmargin="431.2" style="fill:#000000;font-family:DBDCPO+AdvOTea1a7398+fb;font-size:7.47px;font-style:NORMAL;font-weight:normal;">ﬂ</text>
  <text x="431.2,435.085,438.582,441.121,445.007,448.892,452.546,455.068,457.474" y="232.447" svg_rhmargin="461.359" style="fill:#000000;font-family:DBDBHG+AdvOTea1a7398;font-size:7.47px;font-style:NORMAL;font-weight:normal;">ux due to</text>
  <text x="375.131,378.396,382.282,384.844,387.019,390.598,394.02,397.674,400.19,403.769,405.48,409.365,413.019,416.904,420.789,423.264,426.686,430.572,434.151,438.036,441.772,445.426,447.927,451.812,453.523,457.02,458.731,462.616,466.27,470.155,472.645,476.53" y="240.44100000000003" svg_rhmargin="480.109" style="fill:#000000;font-family:DBDBHG+AdvOTea1a7398;font-size:7.47px;font-style:NORMAL;font-weight:normal;">surface albedo change divided by</text>
  <text x="375.131,378.396,382.282,384.844,387.019,390.598,394.02,397.674,400.247,402.653,406.306,412.373,416.259,419.913,422.475,426.054,428.46,432.346,434.908,438.562,441.123,444.546,448.431,452.01,455.895,459.631" y="248.37800000000004" svg_rhmargin="463.285" style="fill:#000000;font-family:DBDBHG+AdvOTea1a7398;font-size:7.47px;font-style:NORMAL;font-weight:normal;">surface temperature change</text>
  <text svg_rhmargin="478.131" x="375.131,378.082,381.968,385.853,388.416,394.483,398.149,399.86,401.571,404.911,408.564,412.449,414.93,418.816,422.395,424.908,428.876,430.587,434.166,438.051,441.473,444.89500000000004,447.415,449.59,453.243,456.897,460.783,464.668,468.336,471.758,475.18,478.13100000000003" y="232.447" style="fill:#000000;font-family:DBDBHG+AdvOTea1a7398;font-size:7.47px;font-style:NORMAL;font-weight:normal;">(normalized by Planck feedback) </text>
  <text x="505.127,507.772,511.987,513.631,517.598,521.568,523.212,527.179,531.375,533.02,535.665,540.253" y="232.447" svg_rhmargin="542.898" style="fill:#0000ff;font-family:DBDBHG+AdvOTea1a7398;font-size:7.47px;font-style:NORMAL;font-weight:normal;">19,27,28,101</text>
  <text x="124.096,131.718,135.297,137.703,141.356,143.91899999999998,146.434,149.931,153.51,157.395,161.281,163.844,166.391" y="264.30899999999997" svg_rhmargin="169.342" style="fill:#000000;font-family:DBDBHG+AdvOTea1a7398;font-size:7.47px;font-style:NORMAL;font-weight:normal;">Water vapor (</text>
  <text x="169.337" y="264.30899999999997" svg_rhmargin="175.09" style="fill:#000000;font-family:DBDDNM+AdvTTab7e17fd;font-size:7.47px;font-style:NORMAL;font-weight:normal;">+</text>
  <text x="175.12,178.071,236.235,238.177,242.06199999999998,244.285,247.864,250.124,255.489,259.068,261.631,267.698,269.409,273.294,277.03,279.322,282.744,284.455,286.166,292.233,295.812,298.218,301.871,303.5,305.798,308.204,312.089,315.743,318.043,321.622,327.69,331.575,335.46,339.346,341.752,344.009,347.895" y="264.30899999999997" svg_rhmargin="350.069" style="fill:#000000;font-family:DBDBHG+AdvOTea1a7398;font-size:7.47px;font-style:NORMAL;font-weight:normal;">) In a warming climate, the amount of</text>
  <text x="236.235,241.6,245.178,247.584,251.238,253.801,256.304,259.801,263.38,267.265,271.15,273.71299999999997,276.26,277.971,281.856,284.367,286.773,290.659,294.313,296.84,300.419,302.825,308.892,312.777,316.043,319.928,323.813,327.467,330.03" y="272.302" svg_rhmargin="333.684" style="fill:#000000;font-family:DBDBHG+AdvOTea1a7398;font-size:7.47px;font-style:NORMAL;font-weight:normal;">water vapor in the atmosphere</text>
  <text x="236.235,237.946,241.831,245.253,247.816,251.47,255.049,258.314,261.968,265.233,266.862,269.401,274.765,278.651,280.362,283.784,287.669,290.207,293.786,299.853,303.739,305.45" y="280.23900000000003" svg_rhmargin="307.161" style="fill:#000000;font-family:DBDBHG+AdvOTea1a7398;font-size:7.47px;font-style:NORMAL;font-weight:normal;">increases, which ampli</text>
  <text x="307.214" y="280.23900000000003" svg_rhmargin="311.099" style="fill:#000000;font-family:DBDCPO+AdvOTea1a7398+fb;font-size:7.47px;font-style:NORMAL;font-weight:normal;">ﬁ</text>
  <text x="311.069,314.723,317.988,320.537,322.943,326.828" y="280.23900000000003" svg_rhmargin="330.482" style="fill:#000000;font-family:DBDBHG+AdvOTea1a7398;font-size:7.47px;font-style:NORMAL;font-weight:normal;">es the</text>
  <text x="236.235,239.971,242.533,246.187,249.841,253.726,257.612,261.497,265.382,268.647,272.301,274.843,278.497,280.671,282.845,286.499,289.921,292.327,294.856,298.435,302.321,306.206,308.746,310.457,314.111,317.69,321.575,324.84,327.342,329.748" y="288.233" svg_rhmargin="333.633" style="fill:#000000;font-family:DBDBHG+AdvOTea1a7398;font-size:7.47px;font-style:NORMAL;font-weight:normal;">greenhouse effect and leads to</text>
  <text svg_rhmargin="286.782" x="236.235,238.409,242.294,244.857,247.263,251.148,254.802,257.365,259.876,265.241,268.82,271.383,277.45,279.161,283.046,286.782" y="264.308" style="fill:#000000;font-family:DBDBHG+AdvOTea1a7398;font-size:7.47px;font-style:NORMAL;font-weight:normal;">further warming </text>
  <text svg_rhmargin="424.304" x="375.132,379.951,383.836,387.415,391.301,395.037,398.691,400.984,404.87,407.044,409.375,413.649,419.171,424.304" y="264.308" style="fill:#000000;font-family:DBDBHG+AdvOTea1a7398;font-size:7.47px;font-style:NORMAL;font-weight:normal;">Change of TOA </text>
  <text x="426.552" y="264.308" svg_rhmargin="430.52" style="fill:#000000;font-family:DBDCPO+AdvOTea1a7398+fb;font-size:7.47px;font-style:NORMAL;font-weight:normal;">ﬂ</text>
  <text x="430.52,434.406,437.903,440.215,444.1,447.986,451.64,453.935,456.341,460.226,462.495,467.86,471.439,473.845,477.498" y="264.308" svg_rhmargin="480.061" style="fill:#000000;font-family:DBDBHG+AdvOTea1a7398;font-size:7.47px;font-style:NORMAL;font-weight:normal;">ux due to water</text>
  <text x="375.132,378.629,382.208,386.093,389.978,392.541,395.088,398.51,402.396,405.975,409.86,413.596,417.25,419.806,423.692,425.403,428.9,430.611,434.496,438.15,442.03499999999997,444.525,448.41,451.98900000000003,454.502,457.768,461.653,464.216,466.39,469.969,473.391" y="272.30100000000004" svg_rhmargin="477.045" style="fill:#000000;font-family:DBDBHG+AdvOTea1a7398;font-size:7.47px;font-style:NORMAL;font-weight:normal;">vapor change divided by surface</text>
  <text x="375.132,377.538,381.191,387.258,391.144,394.798,397.36,400.939,403.345,407.334,409.897,413.551,416.065,419.487,423.372,426.951,430.836,434.572,438.226,440.726,443.677,447.563,451.448,454.011,460.078,463.744,465.455,467.166,470.506,474.159" y="280.23900000000003" svg_rhmargin="478.044" style="fill:#000000;font-family:DBDBHG+AdvOTea1a7398;font-size:7.47px;font-style:NORMAL;font-weight:normal;">temperature change (normalized</text>
  <text svg_rhmargin="438.243" x="375.132,379.017,382.596,385.11,389.077,390.788,394.367,398.252,401.675,405.09700000000004,407.617,409.791,413.445,417.099,420.984,424.869,428.448,431.87,435.292,438.243" y="264.307" style="fill:#000000;font-family:DBDBHG+AdvOTea1a7398;font-size:7.47px;font-style:NORMAL;font-weight:normal;">by Planck feedback) </text>
  <text x="505.128,509.095" y="264.307" svg_rhmargin="513.063" style="fill:#0000ff;font-family:DBDBHG+AdvOTea1a7398;font-size:7.47px;font-style:NORMAL;font-weight:normal;">22</text>
  <text x="513.065" y="264.307" svg_rhmargin="516.405" style="fill:#000000;font-family:DBDDLH+AdvOTea1a7398+20;font-size:7.47px;font-style:NORMAL;font-weight:normal;">–</text>
  <text x="516.41,520.378" y="264.307" svg_rhmargin="524.734" style="fill:#0000ff;font-family:DBDBHG+AdvOTea1a7398;font-size:7.47px;font-style:NORMAL;font-weight:normal;">24</text>
  <text x="124.097,128.917,130.628,134.513,138.398,142.283,144.79" y="304.162" svg_rhmargin="147.741" style="fill:#000000;font-family:DBDBHG+AdvOTea1a7398;font-size:7.47px;font-style:NORMAL;font-weight:normal;">Cloud (</text>
  <text x="147.795" y="304.162" svg_rhmargin="153.548" style="fill:#000000;font-family:DBDDNM+AdvTTab7e17fd;font-size:7.47px;font-style:NORMAL;font-weight:normal;">+</text>
  <text x="153.52" y="304.162" svg_rhmargin="157.331" style="fill:#000000;font-family:DBDBHG+AdvOTea1a7398;font-size:7.47px;font-style:NORMAL;font-weight:normal;">/</text>
  <text x="157.376" y="304.162" svg_rhmargin="163.129" style="fill:#000000;font-family:DBDDLG+AdvTTab7e17fd+22;font-size:7.47px;font-style:NORMAL;font-weight:normal;">−</text>
  <text x="163.102,166.053,168.544,172.818,178.183" y="304.162" svg_rhmargin="182.068" style="fill:#000000;font-family:DBDBHG+AdvOTea1a7398;font-size:7.47px;font-style:NORMAL;font-weight:normal;">) Two</text>
  <text x="124.097,127.751,131.248,134.827,140.894,144.779,146.49,150.144,153.409,155.959,159.538,162.101,165.755,168.262,172.147,174.71,178.595,182.092,183.803,187.688,191.342" y="312.155" svg_rhmargin="195.227" style="fill:#000000;font-family:DBDBHG+AdvOTea1a7398;font-size:7.47px;font-style:NORMAL;font-weight:normal;">examples are provided</text>
  <text svg_rhmargin="142.598" x="124.097,127.983,131.636,133.347,137.233,142.598" y="304.162" style="fill:#000000;font-family:DBDBHG+AdvOTea1a7398;font-size:7.47px;font-style:NORMAL;font-weight:normal;">below </text>
  <text x="236.236,243.857,247.436,249.999,256.066,257.777,261.662,265.39799999999997,267.304,271.189,273.363,275.241,277.647,281.533,285.187,287.033,290.612,293.018,299.085,302.971,306.236,310.121,314.007,317.762,320.325,323.979,325.812,327.523,331.177,334.756,338.641,341.906,343.784,346.19" y="304.162" svg_rhmargin="350.075" style="fill:#000000;font-family:DBDBHG+AdvOTea1a7398;font-size:7.47px;font-style:NORMAL;font-weight:normal;">Warming of the atmosphere leads to</text>
  <text x="236.236,239.658,243.543,247.122,251.007,254.743,258.397,261.662,264.185,265.896,269.781,272.292,274.698,278.583,282.237,284.765,288.344,294.411,298.296,302.182,306.067,308.473,311.014,314.593,318.478" y="312.155" svg_rhmargin="322.363" style="fill:#000000;font-family:DBDBHG+AdvOTea1a7398;font-size:7.47px;font-style:NORMAL;font-weight:normal;">changes in the amount and</text>
  <text x="236.236,239.658,243.543,247.122,249.685,253.264,256.686,259.092,262.746,265.308,267.019,270.285,272.69,274.401,277.824,281.089,283.688,287.574,289.748,292.249,295.671,297.382,301.267,305.152,309.038,312.303,313.932,316.457,322.524,326.41,330.295,332.006,334.18,337.759,339.47,343.356" y="320.092" svg_rhmargin="347.092" style="fill:#000000;font-family:DBDBHG+AdvOTea1a7398;font-size:7.47px;font-style:NORMAL;font-weight:normal;">characteristics of clouds, modifying</text>
  <text x="236.236,238.641,242.527,246.18099999999998,248.708,251.271,254.85,258.735,260.446,264.025,266.431,268.142,271.639,275.293,277.792,281.678,285.257,287.033,290.612,294.498,297.92,301.573,303.202,305.686,309.96,313.845,317.499,320.03,323.452,325.163,329.048,332.933" y="328.086" svg_rhmargin="336.818" style="fill:#000000;font-family:DBDBHG+AdvOTea1a7398;font-size:7.47px;font-style:NORMAL;font-weight:normal;">the radiative balance. The cloud</text>
  <text x="236.236,239.658,243.543,247.428,249.834,252.397,254.108,257.993,261.879,264.285,265.996,269.881,273.76599999999996,276.318,279.74,283.319,287.204,289.755,293.64,297.294,299.789,303.675,307.328,310.75,314.636,320.703,324.588,328.474,331.739,335.392,339.277,341.856,343.567" y="336.079" svg_rhmargin="347.452" style="fill:#000000;font-family:DBDBHG+AdvOTea1a7398;font-size:7.47px;font-style:NORMAL;font-weight:normal;">contribution can be decomposed in</text>
  <text x="236.236,239.501,243.154,246.651,250.305,252.868,256.447,258.158,260.614,265.979,269.558,273.137,276.402,278.031,280.57,282.976,288.341,292.226,294.743,298.397,301.894,305.473,311.54,315.425,317.136,320.79,324.055,326.605,330.491,334.144,335.855,339.741" y="344.016" svg_rhmargin="343.477" style="fill:#000000;font-family:DBDBHG+AdvOTea1a7398;font-size:7.47px;font-style:NORMAL;font-weight:normal;">several ways, two examples being</text>
  <text svg_rhmargin="273.729" x="236.236,239.971,241.683,245.179,248.833,252.718,255.228,259.113,262.767,264.478,268.364,273.729" y="304.161" style="fill:#000000;font-family:DBDBHG+AdvOTea1a7398;font-size:7.47px;font-style:NORMAL;font-weight:normal;">given below </text>
  <text svg_rhmargin="424.757" x="375.133,379.952,383.837,387.416,391.302,395.037,398.691,401.211,405.097,407.27099999999996,409.829,414.103,419.624,424.757" y="304.161" style="fill:#000000;font-family:DBDBHG+AdvOTea1a7398;font-size:7.47px;font-style:NORMAL;font-weight:normal;">Change of TOA </text>
  <text x="427.233" y="304.161" svg_rhmargin="431.201" style="fill:#000000;font-family:DBDCPO+AdvOTea1a7398+fb;font-size:7.47px;font-style:NORMAL;font-weight:normal;">ﬂ</text>
  <text x="431.201,435.086,438.583,441.122,445.007,448.893,452.54699999999997,455.069,457.475" y="304.161" svg_rhmargin="461.36" style="fill:#000000;font-family:DBDBHG+AdvOTea1a7398;font-size:7.47px;font-style:NORMAL;font-weight:normal;">ux due to</text>
  <text x="375.132,378.554,382.439,386.018,389.904,393.64,397.293,400.558,403.082,404.793,408.678,411.189,414.611,416.322,420.207,424.092,427.977,430.521,434.406,436.969,440.855,444.74,448.394,450.957,453.362,455.073,458.727" y="312.154" svg_rhmargin="461.992" style="fill:#000000;font-family:DBDBHG+AdvOTea1a7398;font-size:7.47px;font-style:NORMAL;font-weight:normal;">changes in cloud properties</text>
  <text x="375.132,379.017,380.728,384.225,385.936,389.821,393.475,397.36,399.907,403.792,407.371,409.885,413.15,417.035,419.598,421.772,425.351,428.773,432.427,434.944,437.35,441.003,447.07,451.045,454.698,457.261,460.84,463.246,467.131,469.694" y="320.091" svg_rhmargin="473.348" style="fill:#000000;font-family:DBDBHG+AdvOTea1a7398;font-size:7.47px;font-style:NORMAL;font-weight:normal;">divided by surface temperature</text>
  <text x="375.132,378.554,382.439,386.018,389.904,393.64,397.294,399.85,402.801,406.687,410.572,413.135,419.202,422.781,424.492,426.203,429.543,433.197,437.082,439.649,443.535,447.11400000000003,449.627,453.595,455.306,458.885,462.77,466.192" y="328.085" svg_rhmargin="469.614" style="fill:#000000;font-family:DBDBHG+AdvOTea1a7398;font-size:7.47px;font-style:NORMAL;font-weight:normal;">change (normalized by Planck</text>
  <text svg_rhmargin="405.763" x="375.137,377.311,380.965,384.619,388.504,392.389,395.968,399.39,402.812,405.76300000000003" y="304.164" style="fill:#000000;font-family:DBDBHG+AdvOTea1a7398;font-size:7.47px;font-style:NORMAL;font-weight:normal;">feedback) </text>
  <text x="505.133,507.778,512.163,513.807,517.692" y="304.164" svg_rhmargin="520.337" style="fill:#0000ff;font-family:DBDBHG+AdvOTea1a7398;font-size:7.47px;font-style:NORMAL;font-weight:normal;">14,31</text>
  <text x="520.327" y="304.164" svg_rhmargin="523.667" style="fill:#000000;font-family:DBDDLH+AdvOTea1a7398+20;font-size:7.47px;font-style:NORMAL;font-weight:normal;">–</text>
  <text x="523.672,528.028" y="304.164" svg_rhmargin="530.673" style="fill:#0000ff;font-family:DBDBHG+AdvOTea1a7398;font-size:7.47px;font-style:NORMAL;font-weight:normal;">41</text>
  <text x="124.102,127.838,131.335,134.914,140.981,144.866,146.578,150.232,152.222,154.868,156.49699999999999,158.402,163.222,164.933,168.818,172.703,176.589,179.234,182.499,186.153,189.732,191.739,193.45,196.872,200.526,202.454" y="359.949" svg_rhmargin="205.405" style="fill:#000000;font-family:DBDBHG+AdvOTea1a7398;font-size:7.47px;font-style:NORMAL;font-weight:normal;">Example 1: Cloud-sea ice (</text>
  <text x="205.399" y="359.949" svg_rhmargin="211.152" style="fill:#000000;font-family:DBDDNM+AdvTTab7e17fd;font-size:7.47px;font-style:NORMAL;font-weight:normal;">+</text>
  <text x="124.102,125.813,129.698,132.209,136.095,139.98,143.865,146.51,149.775,153.661,159.728,165.795,169.449,172.012,174.559,180.627,184.512,188.397,190.803,194.688,197.954" y="367.943" svg_rhmargin="199.583" style="fill:#000000;font-family:DBDBHG+AdvOTea1a7398;font-size:7.47px;font-style:NORMAL;font-weight:normal;">in non-summer months,</text>
  <text svg_rhmargin="195.018" x="124.102,127.524,129.235,133.121,136.386,140.04,142.528,144.934,148.819,151.372,155.96,158.458,160.169,164.054,166.565,169.831,173.716,179.783,185.85,189.504,192.067,195.018" y="359.949" style="fill:#000000;font-family:DBDBHG+AdvOTea1a7398;font-size:7.47px;font-style:NORMAL;font-weight:normal;">close to 0 in summer) </text>
  <text x="236.241,241.448,245.102,248.524,251.087,254.741,258.32,261.585,265.239,269.12399999999997,271.674,274.939,278.593,282.172,284.657,286.368,289.79,293.444,295.996,299.649,303.146,305.552,309.206,313.091,315.497,317.993,319.704,323.589,326.099,329.985,333.87,337.835" y="359.949" svg_rhmargin="340.48" style="fill:#000000;font-family:DBDBHG+AdvOTea1a7398;font-size:7.47px;font-style:NORMAL;font-weight:normal;">Decreased sea ice extent in non-</text>
  <text x="236.241,239.506,243.391,249.458,255.525,259.179,261.74199999999996,264.247,270.314,274.2,278.085,280.575,284.461,287.726,290.213,292.776,296.43,299.695,303.58,305.291,307.697,310.962,313.514,315.225,319.11,321.621,325.357,327.92,331.573,335.152,337.558,341.212" y="367.942" svg_rhmargin="343.775" style="fill:#000000;font-family:DBDBHG+AdvOTea1a7398;font-size:7.47px;font-style:NORMAL;font-weight:normal;">summer months results in greater</text>
  <text x="236.241,239.663,241.374,245.259,249.144,253.029,255.516,258.938,262.824,266.401,270.055,272.618,275.075,278.654,282.54,286.425,288.965,290.676,294.562,297.984,300.547,304.2,307.779,311.045,314.698" y="375.88" svg_rhmargin="318.583" style="fill:#000000;font-family:DBDBHG+AdvOTea1a7398;font-size:7.47px;font-style:NORMAL;font-weight:normal;">cloud cover and increased</text>
  <text x="236.241,240.126,244.011,249.376,253.261,258.626,262.28,263.991,265.702,267.413,271.298,275.034,277.571,279.282,283.167,287.053,290.788,296.153,299.732,303.229,306.883,309.433,311.996,315.575,319.46,321.171,324.75,327.156,328.867,332.847,336.733" y="383.873" svg_rhmargin="338.362" style="fill:#000000;font-family:DBDBHG+AdvOTea1a7398;font-size:7.47px;font-style:NORMAL;font-weight:normal;">downwelling longwave radiation,</text>
  <text svg_rhmargin="329.837" x="236.241,237.952,241.605,245.184,249.07,250.781,254.666,258.402,260.903,263.309,267.194,269.747,271.921,275.807,278.37,280.776,284.661,288.315,290.878,293.389,296.654,300.308,303.887,306.428,308.139,311.562,315.216,317.711,319.422,323.307,326.572,329.837" y="359.948" style="fill:#000000;font-family:DBDBHG+AdvOTea1a7398;font-size:7.47px;font-style:NORMAL;font-weight:normal;">leading to further sea ice loss </text>
  <text svg_rhmargin="424.762" x="375.138,379.957,383.842,387.421,391.307,395.043,398.697,401.216,405.102,407.27599999999995,409.834,414.108,419.629,424.762" y="359.948" style="fill:#000000;font-family:DBDBHG+AdvOTea1a7398;font-size:7.47px;font-style:NORMAL;font-weight:normal;">Change of TOA </text>
  <text x="427.238" y="359.948" svg_rhmargin="431.206" style="fill:#000000;font-family:DBDCPO+AdvOTea1a7398+fb;font-size:7.47px;font-style:NORMAL;font-weight:normal;">ﬂ</text>
  <text x="431.206,435.091,438.588,441.127,445.012,448.898,452.552,455.074,457.48" y="359.948" svg_rhmargin="461.365" style="fill:#000000;font-family:DBDBHG+AdvOTea1a7398;font-size:7.47px;font-style:NORMAL;font-weight:normal;">ux due to</text>
  <text x="375.137,378.559,382.444,386.023,389.909,393.645,397.298,400.563,403.087,404.798,408.683,411.194,414.616,416.327,420.212,424.097,427.98199999999997,430.526,434.105,440.172,444.058,447.943,451.828,454.234,456.775,460.354,464.24" y="367.942" svg_rhmargin="468.125" style="fill:#000000;font-family:DBDBHG+AdvOTea1a7398;font-size:7.47px;font-style:NORMAL;font-weight:normal;">changes in cloud amount and</text>
  <text x="375.137,379.022,382.908,386.487,389.909,391.62,394.026,397.605,399.572,402.135,405.788,409.054,412.939,414.65,417.147,418.858,422.743,426.479,428.429,430.603,433.166,437.051,443.118,445.04,448.537,452.116,454.679,458.258,459.969,463.854,467.59,469.589,472.854,476.508" y="375.879" svg_rhmargin="480.087" style="fill:#000000;font-family:DBDBHG+AdvOTea1a7398;font-size:7.47px;font-style:NORMAL;font-weight:normal;">opacity resulting from varying sea</text>
  <text x="375.137,376.848,380.27,383.924,386.419,389.841,393.726,397.611,401.033,404.687,408.573,411.081,413.644,417.223,419.629,421.34,425.225,429.11,431.604,435.49,437.201,440.698,442.409,446.294,450.03,453.91499999999996,456.379,460.265" y="383.872" svg_rhmargin="463.844" style="fill:#000000;font-family:DBDBHG+AdvOTea1a7398;font-size:7.47px;font-style:NORMAL;font-weight:normal;">ice concentration divided by</text>
  <text svg_rhmargin="463.291" x="375.137,378.402,382.287,384.85,387.025,390.604,394.026,397.68,400.253,402.659,406.312,412.379,416.265,419.918,422.481,426.06,428.466,432.352,434.914,438.568,441.129,444.551,448.437,452.016,455.901,459.637,463.291" y="359.948" style="fill:#000000;font-family:DBDBHG+AdvOTea1a7398;font-size:7.47px;font-style:NORMAL;font-weight:normal;">surface temperature change </text>
  <text x="505.133,509.018" y="359.948" svg_rhmargin="513.217" style="fill:#0000ff;font-family:DBDBHG+AdvOTea1a7398;font-size:7.47px;font-style:NORMAL;font-weight:normal;">36</text>
  <text x="513.24" y="359.948" svg_rhmargin="516.58" style="fill:#000000;font-family:DBDDLH+AdvOTea1a7398+20;font-size:7.47px;font-style:NORMAL;font-weight:normal;">–</text>
  <text x="516.585,520.47" y="359.948" svg_rhmargin="524.669" style="fill:#0000ff;font-family:DBDBHG+AdvOTea1a7398;font-size:7.47px;font-style:NORMAL;font-weight:normal;">39</text>
  <text x="124.102,127.838,131.335,134.914,140.981,144.867,146.578,150.232,152.733,156.7,158.32899999999998,160.84,165.659,167.37,171.256,175.141,179.02599999999998,181.59,185.475,189.36,191.766,193.477,196.899,200.478" y="399.802" svg_rhmargin="202.189" style="fill:#000000;font-family:DBDBHG+AdvOTea1a7398;font-size:7.47px;font-style:NORMAL;font-weight:normal;">Example 2: Cloud optical</text>
  <text x="124.102,127.988,131.642,135.527,137.933,141.81799999999998,144.342" y="407.795" svg_rhmargin="147.293" style="fill:#000000;font-family:DBDBHG+AdvOTea1a7398;font-size:7.47px;font-style:NORMAL;font-weight:normal;">depth (</text>
  <text x="147.29" y="407.795" svg_rhmargin="153.043" style="fill:#000000;font-family:DBDDLG+AdvTTab7e17fd+22;font-size:7.47px;font-style:NORMAL;font-weight:normal;">−</text>
  <text svg_rhmargin="156.023" x="153.072,156.023" y="399.802" style="fill:#000000;font-family:DBDBHG+AdvOTea1a7398;font-size:7.47px;font-style:NORMAL;font-weight:normal;">) </text>
  <text x="236.24,241.373,244.63799999999998,246.388,248.794,252.679,256.333,258.18,261.602,263.313,265.024,271.091,274.67,277.076,280.73,282.558,287.923,291.502,294.065,300.132,303.397,305.026,306.824,309.23,313.115,316.769,318.56,320.734,323.297,326.876,330.298,332.704,334.415,338.3,342.185,344.015,347.901" y="399.802" svg_rhmargin="350.075" style="fill:#000000;font-family:DBDBHG+AdvOTea1a7398;font-size:7.47px;font-style:NORMAL;font-weight:normal;">As the climate warms, the fraction of</text>
  <text x="236.24,237.951,239.662,243.547,247.433,249.144,253.029,255.516,260.88,264.53,266.936,270.589,273.152,275.642,277.353,281.238,283.749,289.816,291.527,295.024,298.677,302.563,305.208,309.093,312.978,316.557,319.823,323.477,326.043,329.465,331.176,335.061,338.947,342.832" y="407.795" svg_rhmargin="346.097" style="fill:#000000;font-family:DBDBHG+AdvOTea1a7398;font-size:7.47px;font-style:NORMAL;font-weight:normal;">liquid water in mixed-phase clouds</text>
  <text x="236.24,237.951,241.836,245.258,247.821,251.475,255.054,258.319,261.973,265.238,266.867,269.406,271.969,275.622,278.888,282.773,284.484,286.89,288.601,292.486,296.222,298.773,300.484,304.36899999999997,306.88,310.765,312.476,316.212,320.098,323.751,326.31399999999996,328.877,332.299,334.01,337.895,341.781" y="415.733" svg_rhmargin="345.666" style="fill:#000000;font-family:DBDBHG+AdvOTea1a7398;font-size:7.47px;font-style:NORMAL;font-weight:normal;">increases, resulting in higher cloud</text>
  <text x="236.24,239.819,241.53,245.415,249.069,252.954,256.84,258.469,260.505,266.573,270.458,273.021,276.675,278.704,281.267" y="423.726" svg_rhmargin="284.921" style="fill:#000000;font-family:DBDBHG+AdvOTea1a7398;font-size:7.47px;font-style:NORMAL;font-weight:normal;">albedo, more re</text>
  <text x="284.939" y="423.726" svg_rhmargin="288.907" style="fill:#000000;font-family:DBDCPO+AdvOTea1a7398+fb;font-size:7.47px;font-style:NORMAL;font-weight:normal;">ﬂ</text>
  <text x="288.907,292.561,295.983,298.389,300.1,303.985,307.87,309.884,313.77,315.94399999999996,317.934,321.2,325.085,328.97,331.533,333.939,339.304,342.883,346.38" y="423.726" svg_rhmargin="350.034" style="fill:#000000;font-family:DBDBHG+AdvOTea1a7398;font-size:7.47px;font-style:NORMAL;font-weight:normal;">ection of shortwave</text>
  <text svg_rhmargin="334.24" x="236.24,238.803,242.382,246.267,247.978,251.557,253.963,255.674,259.559,263.444,266.005,269.584,273.469,277.354,279.838,282.401,286.055,289.94,293.825,297.247,300.901,304.786,307.334,312.699,316.278,318.841,324.908,326.619,330.504,334.24" y="399.801" style="fill:#000000;font-family:DBDBHG+AdvOTea1a7398;font-size:7.47px;font-style:NORMAL;font-weight:normal;">radiation and reduced warming </text>
  <text svg_rhmargin="424.762" x="375.137,379.956,383.842,387.421,391.306,395.042,398.69599999999997,401.216,405.101,407.275,409.833,414.107,419.629,424.762" y="399.801" style="fill:#000000;font-family:DBDBHG+AdvOTea1a7398;font-size:7.47px;font-style:NORMAL;font-weight:normal;">Change of TOA </text>
  <text x="427.237" y="399.801" svg_rhmargin="431.205" style="fill:#000000;font-family:DBDCPO+AdvOTea1a7398+fb;font-size:7.47px;font-style:NORMAL;font-weight:normal;">ﬂ</text>
  <text x="431.205,435.091,438.588,441.126,445.012,448.897,452.551,455.073,457.479" y="399.801" svg_rhmargin="461.364" style="fill:#000000;font-family:DBDBHG+AdvOTea1a7398;font-size:7.47px;font-style:NORMAL;font-weight:normal;">ux due to</text>
  <text x="375.136,378.558,382.444,386.023,389.908,393.644,397.298,400.563,403.086,404.797,408.682,411.193,414.615,416.326,420.211,424.097,427.98199999999997,430.525,434.411,438.296,440.702,442.413,445.835,449.414,451.125,453.657,457.542,461.196,465.081,467.487" y="407.795" svg_rhmargin="471.372" style="fill:#000000;font-family:DBDBHG+AdvOTea1a7398;font-size:7.47px;font-style:NORMAL;font-weight:normal;">changes in cloud optical depth</text>
  <text x="375.136,379.022,380.733,384.229,385.94,389.826,393.48,397.365,399.911,403.797,407.37600000000003,409.889,413.154,417.04,419.602,421.777,425.356,428.778,432.432,434.948,437.354,441.008,447.075,451.049,454.703,457.266,460.845,463.25,467.136,469.699" y="415.732" svg_rhmargin="473.353" style="fill:#000000;font-family:DBDBHG+AdvOTea1a7398;font-size:7.47px;font-style:NORMAL;font-weight:normal;">divided by surface temperature</text>
  <text svg_rhmargin="397.298" x="375.136,378.558,382.444,386.023,389.908,393.644,397.298" y="399.801" style="fill:#000000;font-family:DBDBHG+AdvOTea1a7398;font-size:7.47px;font-style:NORMAL;font-weight:normal;">change </text>
  <text x="505.132,509.017,513.013,514.657,518.542,522.878,524.521,528.878" y="399.801" svg_rhmargin="533.466" style="fill:#0000ff;font-family:DBDBHG+AdvOTea1a7398;font-size:7.47px;font-style:NORMAL;font-weight:normal;">32,34,40</text>
  <text x="47.68,52.888,56.773,60.659,63.304,65.866,69.445,73.331,75.042,78.621,81.027,82.738,86.345" y="439.656" svg_rhmargin="89.999" style="fill:#000000;font-family:DBDBHG+AdvOTea1a7398;font-size:7.47px;font-style:NORMAL;font-weight:normal;">Non-radiative</text>
  <text svg_rhmargin="78.621" x="47.68,49.854,53.508,57.162,61.047,64.932,68.511,71.934,75.356,78.621" y="439.656" style="fill:#000000;font-family:DBDBHG+AdvOTea1a7398;font-size:7.47px;font-style:NORMAL;font-weight:normal;">feedbacks </text>
  <text x="124.102,126.044,129.466,133.12,135.611,139.496,142.059,145.944,149.829,153.715,157.137,159.543,161.254,165.139" y="439.656" svg_rhmargin="169.024" style="fill:#000000;font-family:DBDBHG+AdvOTea1a7398;font-size:7.47px;font-style:NORMAL;font-weight:normal;">Ice production</text>
  <text x="169.116" y="439.656" svg_rhmargin="172.456" style="fill:#000000;font-family:DBDDLH+AdvOTea1a7398+20;font-size:7.47px;font-style:NORMAL;font-weight:normal;">–</text>
  <text x="172.461,176.114,180.0,182.406,184.968,188.547,190.258,194.144,200.211,203.865,207.75" y="439.656" svg_rhmargin="210.156" style="fill:#000000;font-family:DBDBHG+AdvOTea1a7398;font-size:7.47px;font-style:NORMAL;font-weight:normal;">entrainment</text>
  <text x="124.102" y="447.649" svg_rhmargin="127.053" style="fill:#000000;font-family:DBDBHG+AdvOTea1a7398;font-size:7.47px;font-style:NORMAL;font-weight:normal;">(</text>
  <text x="127.05" y="447.649" svg_rhmargin="132.803" style="fill:#000000;font-family:DBDDLG+AdvTTab7e17fd+22;font-size:7.47px;font-style:NORMAL;font-weight:normal;">−</text>
  <text x="132.832,135.783,138.275,141.226,147.293,151.179,154.444,156.85,158.561,162.14000000000001,164.694,168.273,171.696,174.101,175.813,179.309,182.963,185.501,187.212" y="447.649" svg_rhmargin="191.097" style="fill:#000000;font-family:DBDBHG+AdvOTea1a7398;font-size:7.47px;font-style:NORMAL;font-weight:normal;">) (mostly active in</text>
  <text svg_rhmargin="177.616" x="124.102,127.912,131.798,135.683,138.089,141.974,145.628,148.191,152.076,154.603,160.125,163.547,167.201,170.78,174.665,177.61599999999999" y="439.656" style="fill:#000000;font-family:DBDBHG+AdvOTea1a7398;font-size:7.47px;font-style:NORMAL;font-weight:normal;">Southern Ocean) </text>
  <text x="236.24,240.282,242.845,244.556,248.441,252.095,254.609,257.171,260.825,262.536,266.19,269.612,272.018,273.729,277.614,281.49899999999997,284.033,287.918,291.803,294.366,296.077,299.962,303.698,306.257,309.522,313.176,316.755,319.24,320.951,324.373" y="439.656" svg_rhmargin="328.027" style="fill:#000000;font-family:DBDBHG+AdvOTea1a7398;font-size:7.47px;font-style:NORMAL;font-weight:normal;">Brine rejection during sea ice</text>
  <text x="236.24,238.414,242.3,244.862,250.93,254.509,256.914,258.625,262.511,266.396,268.952,270.663,274.549,278.434,282.319,285.741,289.395,292.65999999999997,295.201,298.78,302.66499999999996,305.179,309.065,312.487,316.14,319.719,323.604,326.1,332.167,333.878,337.375,341.028" y="447.649" svg_rhmargin="344.913" style="fill:#000000;font-family:DBDBHG+AdvOTea1a7398;font-size:7.47px;font-style:NORMAL;font-weight:normal;">formation induces an ocean mixed</text>
  <text x="236.24,237.951,241.53,245.109,248.763,251.326,253.815,257.7,261.354,265.008,268.893,272.547,276.432,278.143,282.029,285.765,288.342,290.748,294.633,298.212,300.618,303.139,307.024,309.587,311.298,315.183,318.919,322.18399999999997,324.739,327.145,331.03,333.527,335.932,339.818" y="455.586" svg_rhmargin="343.472" style="fill:#000000;font-family:DBDBHG+AdvOTea1a7398;font-size:7.47px;font-style:NORMAL;font-weight:normal;">layer deepening that brings to the</text>
  <text x="236.24,239.505,243.39,245.953,248.128,251.707,255.129,258.783,261.299,266.664,270.243,272.805,278.873,282.526,285.089,287.662,293.026,296.605,299.011,302.665,305.228,307.732,309.906,312.469,316.354,322.421,324.966,328.851,332.505,336.159,340.044,343.698" y="463.58" svg_rhmargin="346.261" style="fill:#000000;font-family:DBDBHG+AdvOTea1a7398;font-size:7.47px;font-style:NORMAL;font-weight:normal;">surface warmer water from deeper</text>
  <text x="236.24,237.951,241.605,245.102,248.755,250.466,253.731,255.35999999999999,257.783,263.851,267.504,269.215,271.621,273.332,277.218,280.954,283.522,287.101,289.589,293.474,297.053,299.616,302.022,304.556,308.441,310.61499999999995,313.117,315.522,319.408,323.062,325.589,327.3,330.722" y="471.517" svg_rhmargin="334.376" style="fill:#000000;font-family:DBDBHG+AdvOTea1a7398;font-size:7.47px;font-style:NORMAL;font-weight:normal;">levels, melting a part of the ice</text>
  <text x="236.24,237.951,241.836,243.547,245.953,247.664,251.243,252.954,254.665,258.24399999999997,260.392,262.566,266.451,269.014,275.081,278.735,282.62,284.77,288.349,292.234,296.11899999999997,298.207,299.918,303.803,307.688,309.399,313.285,314.996,317.402,319.113,323.095,326.831,328.934,331.109,334.994,337.557,339.963,343.848,347.502" y="479.51" svg_rhmargin="350.065" style="fill:#000000;font-family:DBDBHG+AdvOTea1a7398;font-size:7.47px;font-style:NORMAL;font-weight:normal;">initially formed and inhibiting further</text>
  <text svg_rhmargin="282.565" x="236.24,237.951,241.373,245.027,247.522,251.407,253.97,257.855,261.74,265.626,269.048,271.454,273.165,277.05,280.936,282.565" y="439.655" style="fill:#000000;font-family:DBDBHG+AdvOTea1a7398;font-size:7.47px;font-style:NORMAL;font-weight:normal;">ice production. </text>
  <text x="375.137,379.336,382.915,385.321,387.032,390.917,393.449,397.334,399.508,402.009,404.415,408.301,411.955,414.482,417.747,421.401,424.98,427.465,429.176,432.598,436.252,438.803,444.871,448.524,450.235,452.641,455.132,459.017,462.902,466.556,469.078,471.484" y="439.655" svg_rhmargin="475.369" style="fill:#000000;font-family:DBDBHG+AdvOTea1a7398;font-size:7.47px;font-style:NORMAL;font-weight:normal;">Ratio of the sea ice melt due to</text>
  <text x="375.137,377.543,381.428,385.082,387.553,391.207,395.092,397.498,400.061,403.64,405.351,409.236,415.303,418.957,422.842,425.248,427.749,431.634,433.808,436.253,441.618,445.197,447.76,453.827,457.481,460.044,462.503,467.867,471.446,473.852,477.506" y="447.648" svg_rhmargin="480.069" style="fill:#000000;font-family:DBDBHG+AdvOTea1a7398;font-size:7.47px;font-style:NORMAL;font-weight:normal;">the entrainment of warmer water</text>
  <text x="375.137,376.848,380.733,382.677,385.083,388.968,392.622,394.582,400.649,402.361,405.857,409.511,413.396,415.389,417.1,420.679,424.258,427.912,430.47499999999997,432.454,434.86,438.745,440.731,443.137,447.022,450.676,452.637,454.348,458.233,459.944,462.35,464.061,467.64,469.351,471.289,473.0,476.422" y="455.586" svg_rhmargin="480.076" style="fill:#000000;font-family:DBDBHG+AdvOTea1a7398;font-size:7.47px;font-style:NORMAL;font-weight:normal;">in the mixed layer to the initial ice</text>
  <text svg_rhmargin="405.293" x="375.137,377.311,381.197,383.759,389.827,393.406,395.811,397.522,401.408,405.293" y="439.655" style="fill:#000000;font-family:DBDBHG+AdvOTea1a7398;font-size:7.47px;font-style:NORMAL;font-weight:normal;">formation </text>
  <text x="505.133,509.1,513.693,515.337,519.305" y="439.655" svg_rhmargin="521.95" style="fill:#0000ff;font-family:DBDBHG+AdvOTea1a7398;font-size:7.47px;font-style:NORMAL;font-weight:normal;">50,51</text>
  <text x="124.102,126.044,129.466,133.12,135.611,139.496,142.059,145.944,149.829,153.715,157.137,159.543,161.254,165.139" y="495.44" svg_rhmargin="169.024" style="fill:#000000;font-family:DBDBHG+AdvOTea1a7398;font-size:7.47px;font-style:NORMAL;font-weight:normal;">Ice production</text>
  <text x="169.116" y="495.44" svg_rhmargin="172.456" style="fill:#000000;font-family:DBDDLH+AdvOTea1a7398+20;font-size:7.47px;font-style:NORMAL;font-weight:normal;">–</text>
  <text x="172.461,176.346,179.768,183.422,187.001,190.886,193.437,197.322,200.976,204.555" y="495.44" svg_rhmargin="206.961" style="fill:#000000;font-family:DBDBHG+AdvOTea1a7398;font-size:7.47px;font-style:NORMAL;font-weight:normal;">ocean heat</text>
  <text x="124.102,127.367,129.773,133.658,136.221,139.8,143.536,147.19,149.727" y="503.434" svg_rhmargin="152.678" style="fill:#000000;font-family:DBDBHG+AdvOTea1a7398;font-size:7.47px;font-style:NORMAL;font-weight:normal;">storage (</text>
  <text x="152.675" y="503.434" svg_rhmargin="158.428" style="fill:#000000;font-family:DBDDNM+AdvTTab7e17fd;font-size:7.47px;font-style:NORMAL;font-weight:normal;">+</text>
  <text x="158.457,161.408,163.9,166.851,172.918,176.803,180.068,182.474,184.185,187.764,190.319,193.898,197.32,199.726,201.437,204.934" y="503.434" svg_rhmargin="208.588" style="fill:#000000;font-family:DBDBHG+AdvOTea1a7398;font-size:7.47px;font-style:NORMAL;font-weight:normal;">) (mostly active</text>
  <text svg_rhmargin="185.723" x="124.102,125.813,129.698,132.209,136.019,139.905,143.79,146.196,150.081,153.735,156.298,160.183,162.71,168.232,171.654,175.307,178.886,182.772,185.72299999999998" y="495.44" style="fill:#000000;font-family:DBDBHG+AdvOTea1a7398;font-size:7.47px;font-style:NORMAL;font-weight:normal;">in Southern Ocean) </text>
  <text x="236.24,241.373,245.258,249.144,255.211,258.79,260.501,264.386,268.272,271.537,274.112,277.377,281.03,284.609,287.095,288.806,292.228,295.882,298.376,302.262,304.824,308.71,312.595,316.48,319.902,322.415,324.126,328.011" y="495.44" svg_rhmargin="331.896" style="fill:#000000;font-family:DBDBHG+AdvOTea1a7398;font-size:7.47px;font-style:NORMAL;font-weight:normal;">Anomalous sea ice production</text>
  <text x="236.24,237.951,241.836,245.722,249.607,253.029,256.683,259.948,262.489,265.986,269.64,272.203,274.608,276.319,279.742,283.321,285.03200000000004,287.548,291.202,294.699,298.121,302.006,305.585,309.47,313.206,316.86,320.125,322.698,326.584,328.758,331.259,334.524,338.103,339.814,342.22,343.84900000000005,346.396" y="503.434" svg_rhmargin="349.975" style="fill:#000000;font-family:DBDBHG+AdvOTea1a7398;font-size:7.47px;font-style:NORMAL;font-weight:normal;">induces vertical exchanges of salt, a</text>
  <text x="236.24,240.125,241.836,245.572,249.458,253.111,255.67399999999998,258.18,261.445,263.851,266.414,269.993,272.399" y="511.371" svg_rhmargin="274.11" style="fill:#000000;font-family:DBDBHG+AdvOTea1a7398;font-size:7.47px;font-style:NORMAL;font-weight:normal;">higher strati</text>
  <text x="274.168" y="511.371" svg_rhmargin="278.053" style="fill:#000000;font-family:DBDCPO+AdvOTea1a7398+fb;font-size:7.47px;font-style:NORMAL;font-weight:normal;">ﬁ</text>
  <text x="278.079,281.501,285.08,287.486,289.197,293.082,296.968,298.59700000000004,301.097,304.362,306.768,310.653,313.216,316.795,320.531,324.185,326.722,330.607,332.781,335.339,339.225,342.878,346.457" y="511.371" svg_rhmargin="348.863" style="fill:#000000;font-family:DBDBHG+AdvOTea1a7398;font-size:7.47px;font-style:NORMAL;font-weight:normal;">cation, storage of heat</text>
  <text svg_rhmargin="276.333" x="236.24,239.819,242.225,244.688,248.573,252.227,256.112,258.518,262.40299999999996,264.984,268.563,272.448,276.33299999999997" y="519.364" style="fill:#000000;font-family:DBDBHG+AdvOTea1a7398;font-size:7.47px;font-style:NORMAL;font-weight:normal;">at depth and </text>
  <text x="278.816" y="519.364" svg_rhmargin="282.701" style="fill:#000000;font-family:DBDCPO+AdvOTea1a7398+fb;font-size:7.47px;font-style:NORMAL;font-weight:normal;">ﬁ</text>
  <text x="282.727,286.613,290.192,291.903,293.614,297.193,299.735,301.446,305.332,310.696,314.35,316.913,319.408,323.293,326.715,330.369,333.948,337.833,339.544" y="519.364" svg_rhmargin="342.966" style="fill:#000000;font-family:DBDBHG+AdvOTea1a7398;font-size:7.47px;font-style:NORMAL;font-weight:normal;">nally lower oceanic</text>
  <text svg_rhmargin="249.763" x="236.239,240.125,243.778,247.357,249.763" y="527.357" style="fill:#000000;font-family:DBDBHG+AdvOTea1a7398;font-size:7.47px;font-style:NORMAL;font-weight:normal;">heat </text>
  <text x="252.283" y="527.357" svg_rhmargin="256.251" style="fill:#000000;font-family:DBDCPO+AdvOTea1a7398+fb;font-size:7.47px;font-style:NORMAL;font-weight:normal;">ﬂ</text>
  <text x="256.252,260.137,263.634,267.288,270.553,273.089,275.495,279.381,282.96,285.366,287.887,290.061,293.64,297.137,301.022,303.585,306.086,308.26,312.145,314.708,317.114,320.999,324.653,327.216,329.784,331.495,334.917" y="527.357" svg_rhmargin="338.571" style="fill:#000000;font-family:DBDBHG+AdvOTea1a7398;font-size:7.47px;font-style:NORMAL;font-weight:normal;">uxes that favor further ice</text>
  <text svg_rhmargin="271.282" x="236.239,240.125,242.687,246.573,250.458,254.343,257.766,260.171,261.882,265.768,269.653,271.28200000000004" y="495.44" style="fill:#000000;font-family:DBDBHG+AdvOTea1a7398;font-size:7.47px;font-style:NORMAL;font-weight:normal;">production. </text>
  <text x="375.136,379.335,382.914,385.32,387.031,390.916,392.768,396.654,398.828,400.706,403.111,406.997,410.651,412.497,414.209,417.788,420.193,423.847,427.732,430.13800000000003,432.0,435.886,439.539,443.118,445.524,447.365,450.944,454.209,457.474,461.359,464.781,466.492,470.156,472.562,476.215" y="495.44" svg_rhmargin="480.1" style="fill:#000000;font-family:DBDBHG+AdvOTea1a7398;font-size:7.47px;font-style:NORMAL;font-weight:normal;">Ratio of the latent heat associated</text>
  <text x="375.136,377.542,381.42699999999996,383.924,385.635,389.057,392.711,395.262,399.148,401.711,405.596,409.481,413.367,416.789,419.195,420.906,424.791,428.676,431.206,433.612,437.497,440.051,442.456,446.342,449.996,452.523,456.409,460.062,463.641" y="503.433" svg_rhmargin="466.047" style="fill:#000000;font-family:DBDBHG+AdvOTea1a7398;font-size:7.47px;font-style:NORMAL;font-weight:normal;">to ice production to the heat</text>
  <text x="375.136,378.558,382.444,386.329,388.735,392.389,396.274,398.68,401.216,404.638,408.523,412.102,416.07,419.806,423.46,425.935,429.82,431.99399999999997,434.495,436.901,440.787,444.441,446.968,450.853,454.275,457.929,461.508" y="511.371" svg_rhmargin="465.393" style="fill:#000000;font-family:DBDBHG+AdvOTea1a7398;font-size:7.47px;font-style:NORMAL;font-weight:normal;">content change of the ocean</text>
  <text svg_rhmargin="426.392" x="375.136,378.401,382.287,386.172,389.437,393.323,395.885,398.154,401.733,405.155,408.80899999999997,411.307,413.018,416.597,420.176,423.829,426.392" y="495.44" style="fill:#000000;font-family:DBDBHG+AdvOTea1a7398;font-size:7.47px;font-style:NORMAL;font-weight:normal;">subsurface layer </text>
  <text x="505.132,509.1,513.069,514.713,518.681" y="495.44" svg_rhmargin="522.566" style="fill:#0000ff;font-family:DBDBHG+AdvOTea1a7398;font-size:7.47px;font-style:NORMAL;font-weight:normal;">52,53</text>
  <text x="124.101,126.044,129.466,133.12,135.61,139.346,141.909,145.794,151.159,153.565" y="543.289" svg_rhmargin="157.45" style="fill:#000000;font-family:DBDBHG+AdvOTea1a7398;font-size:7.47px;font-style:NORMAL;font-weight:normal;">Ice growth</text>
  <text x="157.493" y="543.289" svg_rhmargin="160.833" style="fill:#000000;font-family:DBDDLH+AdvOTea1a7398+20;font-size:7.47px;font-style:NORMAL;font-weight:normal;">–</text>
  <text x="160.838,163.244,167.13,168.841,172.263,175.685,179.661,183.314,186.579,189.844,192.36" y="543.289" svg_rhmargin="195.311" style="fill:#000000;font-family:DBDBHG+AdvOTea1a7398;font-size:7.47px;font-style:NORMAL;font-weight:normal;">thickness (</text>
  <text x="195.307" y="543.289" svg_rhmargin="201.06" style="fill:#000000;font-family:DBDDLG+AdvTTab7e17fd+22;font-size:7.47px;font-style:NORMAL;font-weight:normal;">−</text>
  <text x="201.033,203.98399999999998,236.239,240.513,244.398,246.109,249.994,251.83,255.095,258.749,262.32800000000003,264.189,265.9,269.322,272.976,274.848,278.583,281.146,285.032,290.396,293.661,295.484,301.551,305.436,307.999,311.653,313.513,316.075,319.654,323.54,325.251,329.217,330.928,334.507,336.303,338.709,342.594,346.173" y="543.289" svg_rhmargin="350.058" style="fill:#000000;font-family:DBDBHG+AdvOTea1a7398;font-size:7.47px;font-style:NORMAL;font-weight:normal;">) Thin sea ice grows more rapidly than</text>
  <text x="236.239,238.645,242.531,244.242,247.664,251.08599999999998,253.587,256.852,260.506,264.085,266.627,268.338,271.76,275.414,277.909,281.794,285.679,289.33299999999997,291.856,294.262,298.147,300.643,302.354,304.76,308.025,310.508,314.394,316.105,319.841,323.726,327.46,330.02299999999997,332.505,336.391,340.044,343.623" y="551.226" svg_rhmargin="346.029" style="fill:#000000;font-family:DBDBHG+AdvOTea1a7398;font-size:7.47px;font-style:NORMAL;font-weight:normal;">thick sea ice due to its higher heat</text>
  <text x="236.239,239.661,243.547,247.432,251.317,255.203,258.625,261.031,262.742,266.627,270.512,272.141,274.054,277.939,281.518,287.585,291.471,295.125,299.01,300.721,304.606,308.342,310.225,312.631,316.516,320.17,322.017,324.58,328.234,331.499,335.384,339.269,343.155,346.42" y="559.219" svg_rhmargin="350.074" style="fill:#000000;font-family:DBDBHG+AdvOTea1a7398;font-size:7.47px;font-style:NORMAL;font-weight:normal;">conduction, dampening the response</text>
  <text x="236.239,238.645,242.53,245.027,248.606,252.49099999999999,255.005,256.716,260.601,262.312,264.718,266.429,270.008,271.719,274.224,278.109,281.763,285.185,287.748,291.401,294.98,298.245,301.899,304.442,306.153,312.22,316.178,320.063,323.328,326.982,330.867,333.356,337.242,340.821,343.334" y="567.157" svg_rhmargin="346.913" style="fill:#000000;font-family:DBDBHG+AdvOTea1a7398;font-size:7.47px;font-style:NORMAL;font-weight:normal;">to an initial decrease imposed by a</text>
  <text svg_rhmargin="276.176" x="236.239,240.125,243.778,246.341,248.747,252.632,255.195,259.081,262.66,265.065,266.776,270.662,274.547,276.17600000000004" y="543.2950000000001" style="fill:#000000;font-family:DBDBHG+AdvOTea1a7398;font-size:7.47px;font-style:NORMAL;font-weight:normal;">perturbation. </text>
  <text x="375.136,380.344,384.23,386.792,392.859,396.438,398.15,399.861,403.2,406.854,410.739,413.348,417.233,418.944,421.119,423.293,426.947,429.509,433.163,437.048,440.471,444.125,446.684,448.395,452.28,454.791,457.197,461.082" y="543.2950000000001" svg_rhmargin="464.736" style="fill:#000000;font-family:DBDBHG+AdvOTea1a7398;font-size:7.47px;font-style:NORMAL;font-weight:normal;">Normalized difference in the</text>
  <text x="375.136,377.542,381.428,383.139,386.561,389.983,393.868,397.522,400.787,404.05199999999996,406.602,409.164,412.818,416.083,419.969,423.854,427.739,431.005,434.659,437.217,439.622,443.507,446.061,449.64" y="551.232" svg_rhmargin="453.525" style="fill:#000000;font-family:DBDBHG+AdvOTea1a7398;font-size:7.47px;font-style:NORMAL;font-weight:normal;">thickness response to an</text>
  <text x="375.136,378.79,382.675,386.329,388.892,392.628,396.282,398.778,400.489,403.911,406.374,410.26,413.914,416.476,418.882,422.768,425.424,429.309,432.888,435.294,437.005,440.89,444.775,447.308,452.673,454.384,456.79,460.675,463.182,466.761,470.646" y="559.225" svg_rhmargin="474.531" style="fill:#000000;font-family:DBDBHG+AdvOTea1a7398;font-size:7.47px;font-style:NORMAL;font-weight:normal;">energetic perturbation with and</text>
  <text x="375.136,380.501,382.212,384.618,388.503,392.389,396.274,398.68,401.216,403.622,407.507,409.218,412.725,416.147,420.032,423.686,426.951,430.216,432.738,436.623,440.277,444.162,447.816,451.701,455.587,459.24,463.126,466.548,470.202,472.764,476.649" y="567.163" svg_rhmargin="478.823" style="fill:#000000;font-family:DBDBHG+AdvOTea1a7398;font-size:7.47px;font-style:NORMAL;font-weight:normal;">without thickness dependence of</text>
  <text svg_rhmargin="435.471" x="375.136,377.542,381.428,385.082,387.609,389.32,392.742,396.396,398.891,402.627,405.189,409.075,414.44,416.845,420.73,423.269,425.832,429.411,431.817,435.471" y="543.2950000000001" style="fill:#000000;font-family:DBDBHG+AdvOTea1a7398;font-size:7.47px;font-style:NORMAL;font-weight:normal;">the ice growth rate </text>
  <text x="505.132,509.488,513.693,515.336,519.693" y="543.2950000000001" svg_rhmargin="523.892" style="fill:#0000ff;font-family:DBDBHG+AdvOTea1a7398;font-size:7.47px;font-style:NORMAL;font-weight:normal;">48,49</text>
  <text x="124.101,127.912,131.797,134.36,136.534,140.113,143.535,147.189,149.726,155.793,159.372,162.638" y="583.149" svg_rhmargin="165.903" style="fill:#000000;font-family:DBDBHG+AdvOTea1a7398;font-size:7.47px;font-style:NORMAL;font-weight:normal;">Surface mass</text>
  <text x="124.101,127.986,131.565,133.276,136.855,140.741,144.163" y="591.087" svg_rhmargin="147.817" style="fill:#000000;font-family:DBDBHG+AdvOTea1a7398;font-size:7.47px;font-style:NORMAL;font-weight:normal;">balance</text>
  <text x="147.855" y="591.087" svg_rhmargin="151.195" style="fill:#000000;font-family:DBDDLH+AdvOTea1a7398+20;font-size:7.47px;font-style:NORMAL;font-weight:normal;">–</text>
  <text x="151.201,154.854,156.565,160.219,163.716,167.295,169.701,171.412,175.297,179.182,181.645" y="591.087" svg_rhmargin="184.596" style="fill:#000000;font-family:DBDBHG+AdvOTea1a7398;font-size:7.47px;font-style:NORMAL;font-weight:normal;">elevation (</text>
  <text x="184.65" y="591.087" svg_rhmargin="190.403" style="fill:#000000;font-family:DBDDNM+AdvTTab7e17fd;font-size:7.47px;font-style:NORMAL;font-weight:normal;">+</text>
  <text x="190.375" y="591.087" svg_rhmargin="193.326" style="fill:#000000;font-family:DBDBHG+AdvOTea1a7398;font-size:7.47px;font-style:NORMAL;font-weight:normal;">)</text>
  <text x="124.102,127.053,133.12,137.006,140.271,142.677,144.388,147.967,150.408,153.987,157.409,159.815,161.526,165.023,168.677,171.158,172.869,176.754,179.152,184.285,186.848,190.501,194.232,198.117,199.829,203.408,207.293" y="599.08" svg_rhmargin="211.178" style="fill:#000000;font-family:DBDBHG+AdvOTea1a7398;font-size:7.47px;font-style:NORMAL;font-weight:normal;">(mostly active in Greenland</text>
  <text svg_rhmargin="155.971" x="124.102,126.044,129.467,133.121,135.611,139.421,143.307,146.96,150.614,153.02,155.971" y="583.149" style="fill:#000000;font-family:DBDBHG+AdvOTea1a7398;font-size:7.47px;font-style:NORMAL;font-weight:normal;">Ice Sheet) </text>
  <text x="236.24,238.183,242.068,245.49,248.053,251.707,255.286,258.551,262.205,266.09,268.612,272.191,273.902,276.465,278.987,281.393,285.047,291.114,294.999,298.653,301.216,304.795,307.201,311.189,313.752,317.406,319.92,321.631,325.285,328.864,332.749,336.014,338.516,340.922" y="583.149" svg_rhmargin="344.807" style="fill:#000000;font-family:DBDBHG+AdvOTea1a7398;font-size:7.47px;font-style:NORMAL;font-weight:normal;">Increased air temperature leads to</text>
  <text x="236.24,237.951,241.373,245.027,246.785,252.852,256.506,258.217,260.623,262.334,266.219,269.955,271.584,273.431,278.796,282.681,284.392,287.814,291.699,293.5,295.211,299.097,304.461,308.115,310.678,313.943,315.781,318.187,322.072,325.726,327.516,330.781,334.667,337.23,339.404,342.983,346.405" y="591.087" svg_rhmargin="350.059" style="fill:#000000;font-family:DBDBHG+AdvOTea1a7398;font-size:7.47px;font-style:NORMAL;font-weight:normal;">ice melting, which lowers the surface</text>
  <text x="236.24,239.894,241.605,245.259,248.755,252.334,254.74,256.451,260.337,264.222,266.685,270.57,272.74399999999997,275.245,277.651,281.536,285.19,287.718,289.429,292.851,296.505,299.0,302.265,306.15,309.804,313.457,315.863,317.492,320.033,323.918,327.572,331.457,334.879" y="599.08" svg_rhmargin="338.533" style="fill:#000000;font-family:DBDBHG+AdvOTea1a7398;font-size:7.47px;font-style:NORMAL;font-weight:normal;">elevation of the ice sheet, hence</text>
  <text x="236.24,237.951,241.605,245.184,249.069,250.78,254.666,258.402,260.902,263.308,267.193,269.747,271.458,274.88,278.534,281.028,284.682,288.179,292.064,295.949,299.215,303.1,305.663,309.317,311.87,314.276,318.161,320.657,326.022,329.601,332.164,338.231,341.885" y="607.017" svg_rhmargin="344.448" style="fill:#000000;font-family:DBDBHG+AdvOTea1a7398;font-size:7.47px;font-style:NORMAL;font-weight:normal;">leading to ice exposure to warmer</text>
  <text x="236.24,239.819,241.53,244.093,246.559,248.965,252.618,258.685,262.66,266.313,268.876,272.455,274.861,278.746,281.309,284.963,288.228,290.78,294.359,298.244,302.129,304.613,306.787,310.673,313.236,315.641,319.527,323.18,325.743,328.311,330.022,333.444" y="615.011" svg_rhmargin="337.098" style="fill:#000000;font-family:DBDBHG+AdvOTea1a7398;font-size:7.47px;font-style:NORMAL;font-weight:normal;">air temperatures and further ice</text>
  <text svg_rhmargin="261.039" x="236.24,242.307,245.961,247.672,250.078,251.789,255.674,259.41,261.03900000000004" y="583.149" style="fill:#000000;font-family:DBDBHG+AdvOTea1a7398;font-size:7.47px;font-style:NORMAL;font-weight:normal;">melting. </text>
  <text x="375.137,379.336,382.915,385.321,387.032,390.917,393.449,397.334,399.508,402.009,404.415,408.301,411.955,414.482,418.061,421.946,425.832,427.543,429.949,431.66,435.545,439.43,443.009,444.72,447.308,450.573,454.227,457.806,460.291,462.002,465.656,469.152,472.806" y="583.149" svg_rhmargin="474.517" style="fill:#000000;font-family:DBDBHG+AdvOTea1a7398;font-size:7.47px;font-style:NORMAL;font-weight:normal;">Ratio of the additional sea level</text>
  <text x="375.137,378.559,382.445,386.33,388.736,391.299,393.01,396.895,400.78,403.186,405.015,408.901,412.786,415.277,419.162,423.048,426.702,429.224,431.63,435.515,438.012,440.418,444.303,446.014,449.279,451.788,453.962,457.616,461.27,465.155,469.04,472.708,476.13" y="591.087" svg_rhmargin="479.552" style="fill:#000000;font-family:DBDBHG+AdvOTea1a7398;font-size:7.47px;font-style:NORMAL;font-weight:normal;">contribution due to this feedback</text>
  <text x="375.137,377.543,381.428,383.925,386.331,390.216,393.87,396.397,399.663,403.316,406.895,409.437,411.148,414.802,418.299,421.952,423.663,426.105,429.527,433.413,437.298,439.704,442.267,443.978,447.863,451.748,454.154,455.865,459.751" y="599.08" svg_rhmargin="463.636" style="fill:#000000;font-family:DBDBHG+AdvOTea1a7398;font-size:7.47px;font-style:NORMAL;font-weight:normal;">to the sea level contribution</text>
  <text svg_rhmargin="428.96" x="375.137,380.502,382.213,384.619,388.504,392.389,396.275,398.681,401.217,403.391,407.113,410.766,414.652,418.537,422.116,425.538,428.96000000000004" y="583.149" style="fill:#000000;font-family:DBDBHG+AdvOTea1a7398;font-size:7.47px;font-style:NORMAL;font-weight:normal;">without feedback </text>
  <text x="505.133,509.1,513.297,514.94,518.908" y="583.149" svg_rhmargin="522.876" style="fill:#0000ff;font-family:DBDBHG+AdvOTea1a7398;font-size:7.47px;font-style:NORMAL;font-weight:normal;">56,57</text>
  <text x="124.102,126.044,129.467,133.121,134.93,138.195,142.08,145.734,147.445,149.619,151.484,157.552,161.205,162.916,165.322,167.033,170.919,174.655,176.543,179.809,183.462,187.041,188.903,190.614,194.036,197.69,199.504" y="630.941" svg_rhmargin="202.455" style="fill:#000000;font-family:DBDBHG+AdvOTea1a7398;font-size:7.47px;font-style:NORMAL;font-weight:normal;">Ice shelf melting sea ice (</text>
  <text x="202.451" y="630.941" svg_rhmargin="208.204" style="fill:#000000;font-family:DBDDLG+AdvTTab7e17fd+22;font-size:7.47px;font-style:NORMAL;font-weight:normal;">−</text>
  <text x="208.234" y="630.941" svg_rhmargin="211.185" style="fill:#000000;font-family:DBDBHG+AdvOTea1a7398;font-size:7.47px;font-style:NORMAL;font-weight:normal;">)</text>
  <text x="124.102,127.053,133.12,137.006,140.271,142.677,144.388,147.967,150.521,154.1,157.522,159.928,161.639,165.136,168.79,171.271,172.982,176.867,179.378,183.189,187.074,190.959,193.365,197.251,200.904,203.467" y="638.935" svg_rhmargin="207.352" style="fill:#000000;font-family:DBDBHG+AdvOTea1a7398;font-size:7.47px;font-style:NORMAL;font-weight:normal;">(mostly active in Southern</text>
  <text svg_rhmargin="147.115" x="124.102,129.623,133.046,136.699,140.278,144.164,147.11499999999998" y="630.941" style="fill:#000000;font-family:DBDBHG+AdvOTea1a7398;font-size:7.47px;font-style:NORMAL;font-weight:normal;">Ocean) </text>
  <text x="236.24,241.762,245.184,248.838,252.417,256.302,258.804,264.169,267.748,270.311,276.378,278.089,281.974,285.71,288.285,289.996,293.65,297.229,301.114,304.37899999999996,306.881,309.287,313.17199999999997,315.668,317.379,320.801,324.455,326.95,330.215,334.1,337.835,339.546" y="630.941" svg_rhmargin="341.72" style="fill:#000000;font-family:DBDBHG+AdvOTea1a7398;font-size:7.47px;font-style:NORMAL;font-weight:normal;">Ocean warming leads to ice shelf</text>
  <text x="236.24,242.307,245.961,247.672,250.078,251.789,255.674,259.41,261.03900000000004,263.567,268.931,272.817,274.528,277.95,281.835,284.373,286.936,290.59,292.301,295.955,299.534,302.799,306.453,309.71799999999996,312.267,314.441,317.004,320.658,323.923,327.808,333.173,336.752,339.158,342.812" y="638.935" svg_rhmargin="345.375" style="fill:#000000;font-family:DBDBHG+AdvOTea1a7398;font-size:7.47px;font-style:NORMAL;font-weight:normal;">melting, which releases freshwater</text>
  <text x="236.24,237.951,241.836,244.242,248.12699999999998,250.64,253.046,256.932,260.586,263.113,266.999,270.421,274.074,277.653,281.538,284.033,287.612,291.498,295.383,297.924,300.486,304.14,308.025,311.911,315.333,318.987,322.252,324.797,328.293,331.947,334.51,336.916,338.627,342.049,345.628" y="646.8720000000001" svg_rhmargin="347.339" style="fill:#000000;font-family:DBDBHG+AdvOTea1a7398;font-size:7.47px;font-style:NORMAL;font-weight:normal;">into the ocean and reduces vertical</text>
  <text x="236.24,242.307,244.018,247.515,249.226,253.111,256.847,258.476,261.015,265.289,269.174,270.885,274.15,276.662,279.225,282.879,286.144,290.03,291.741,294.146,297.411,299.963,301.674,305.55899999999997,308.07,311.335,314.989,318.568,321.053,322.764,326.186" y="654.865" svg_rhmargin="329.84" style="fill:#000000;font-family:DBDBHG+AdvOTea1a7398;font-size:7.47px;font-style:NORMAL;font-weight:normal;">mixing. This results in sea ice</text>
  <text x="236.24,239.894,243.391,247.276,250.855,254.74,258.005,259.716,263.602,267.48699999999997,270.03,273.609,277.494,281.379,283.92,286.483,290.136,294.022,297.907,301.329,304.983,308.868,311.416,315.302,318.724,322.377,325.956" y="662.858" svg_rhmargin="329.841" style="fill:#000000;font-family:DBDBHG+AdvOTea1a7398;font-size:7.47px;font-style:NORMAL;font-weight:normal;">expansion and reduced ocean</text>
  <text svg_rhmargin="264.775" x="236.24,241.605,245.184,247.747,253.814,255.525,259.41,263.146,264.77500000000003" y="630.941" style="fill:#000000;font-family:DBDBHG+AdvOTea1a7398;font-size:7.47px;font-style:NORMAL;font-weight:normal;">warming. </text>
  <text x="375.137,379.336,382.915,385.321,387.032,390.917,393.449,397.334,399.508,402.009,404.415,408.301,411.955,414.482,418.061,421.946,425.832,427.543,429.949,431.66,435.545,439.43,443.009,444.72,447.308,450.73,454.615,458.194,462.08,465.816,469.46999999999997,471.97,473.681" y="630.941" svg_rhmargin="477.566" style="fill:#000000;font-family:DBDBHG+AdvOTea1a7398;font-size:7.47px;font-style:NORMAL;font-weight:normal;">Ratio of the additional change in</text>
  <text x="375.137,378.402,382.056,385.635,388.177,389.888,393.31,396.964,399.459,403.112,406.609,409.015,412.669,416.554,418.96,421.512,424.934,428.513,432.399,435.664,439.318,443.203,445.72,449.606,453.185,455.698,458.104,461.989,463.7" y="638.934" svg_rhmargin="466.965" style="fill:#000000;font-family:DBDBHG+AdvOTea1a7398;font-size:7.47px;font-style:NORMAL;font-weight:normal;">sea ice extent caused by this</text>
  <text x="375.137,377.311,380.965,384.619,388.504,392.39,395.969,399.391,402.81300000000005,405.355,407.761,411.646,414.2,416.606,420.491,424.145,426.616,429.022,432.907,435.313,438.975,440.68600000000004,443.17,446.592,450.478,454.057,457.942,461.678,465.332,467.832,469.543" y="646.8720000000001" svg_rhmargin="473.428" style="fill:#000000;font-family:DBDBHG+AdvOTea1a7398;font-size:7.47px;font-style:NORMAL;font-weight:normal;">feedback to the total change in</text>
  <text svg_rhmargin="451.035" x="375.137,378.791,382.288,384.694,388.347,392.233,394.639,397.191,402.556,404.267,406.673,410.558,414.443,418.329,420.735,423.27,425.445,429.098,432.752,436.638,440.523,444.191,447.613,451.035" y="630.941" style="fill:#000000;font-family:DBDBHG+AdvOTea1a7398;font-size:7.47px;font-style:NORMAL;font-weight:normal;">extent without feedback </text>
  <text x="505.133,509.332,513.24,514.884,519.083" y="630.941" svg_rhmargin="523.439" style="fill:#0000ff;font-family:DBDBHG+AdvOTea1a7398;font-size:7.47px;font-style:NORMAL;font-weight:normal;">63,64</text>
  <text x="124.102,130.871,134.45,137.013,138.724,142.609,146.263,148.764,150.475,153.897,157.551,160.102,163.368,167.253,170.907,174.56,176.966,179.492,181.203,185.088,188.353,190.759,194.338,198.224,199.935,201.646,203.357,205.763" y="678.79" svg_rhmargin="209.342" style="fill:#000000;font-family:DBDBHG+AdvOTea1a7398;font-size:7.47px;font-style:NORMAL;font-weight:normal;">Marine ice sheet instability</text>
  <text x="124.102" y="686.727" svg_rhmargin="127.053" style="fill:#000000;font-family:DBDBHG+AdvOTea1a7398;font-size:7.47px;font-style:NORMAL;font-weight:normal;">(</text>
  <text x="127.05" y="686.727" svg_rhmargin="132.803" style="fill:#000000;font-family:DBDDNM+AdvTTab7e17fd;font-size:7.47px;font-style:NORMAL;font-weight:normal;">+</text>
  <text x="132.833,135.784,138.275,141.226,147.294,151.179,154.444,156.85,158.561,162.14000000000001,164.695,168.274,171.696,174.102,175.813,179.309,182.963,185.501,187.212,191.09699999999998,193.551,201.173,204.826,208.092" y="686.727" svg_rhmargin="210.498" style="fill:#000000;font-family:DBDBHG+AdvOTea1a7398;font-size:7.47px;font-style:NORMAL;font-weight:normal;">) (mostly active in West</text>
  <text svg_rhmargin="187.116" x="124.102,129.235,133.12,135.526,139.105,141.668,145.09,147.496,149.207,152.629,155.17,157.113,160.535,164.189,166.679,170.49,174.375,178.029,181.759,184.165,187.11599999999999" y="678.79" style="fill:#000000;font-family:DBDBHG+AdvOTea1a7398;font-size:7.47px;font-style:NORMAL;font-weight:normal;">Antarctic Ice Sheet) </text>
  <text x="236.24,241.373,245.25799999999998,247.749,249.46,253.345,255.056,257.462,259.173,262.752,264.463,266.968,269.531,273.184,275.59,278.153,281.807,285.386,287.79200000000003,290.382,292.093,295.978,298.489,300.895,304.78,308.43399999999997,310.905,314.641,317.204,321.089,324.974,328.86,332.845,334.556,338.442" y="678.79" svg_rhmargin="342.178" style="fill:#000000;font-family:DBDBHG+AdvOTea1a7398;font-size:7.47px;font-style:NORMAL;font-weight:normal;">An initial retreat in the grounding</text>
  <text x="236.24,237.951,239.662,243.548,247.202,249.166,253.052,256.937,260.202,261.913,264.319,266.03,269.915,273.8,275.755,279.641,281.815,283.806,287.385,289.305,295.372,298.951,301.514,303.225,307.11,310.764,312.719,314.43,317.852,321.506,323.491,326.756,330.642,334.296,337.949,340.355,342.313,346.199" y="686.727" svg_rhmargin="350.084" style="fill:#000000;font-family:DBDBHG+AdvOTea1a7398;font-size:7.47px;font-style:NORMAL;font-weight:normal;">line position of a marine ice sheet on</text>
  <text x="236.24,239.819,243.70399999999998,246.218,250.103,253.989,259.353,262.932,265.495,269.38,272.026,275.291,277.002,280.887,284.772,286.483,290.369,294.105,296.676,300.561,304.215,308.09999999999997,310.623,313.029,316.914,322.279,325.858,328.42,332.306,335.57099999999997,338.119,340.525,344.41" y="694.72" svg_rhmargin="348.064" style="fill:#000000;font-family:DBDBHG+AdvOTea1a7398;font-size:7.47px;font-style:NORMAL;font-weight:normal;">an upward-sloping bed towards the</text>
  <text x="236.24,240.125,243.548,247.201,250.78,254.665,257.16,258.871,262.525,266.104,269.989,273.25399999999996,275.813,278.219,282.104,284.601,286.312,290.197,293.619,296.182,299.836,303.415,306.68,310.333,314.218,316.803,318.514,321.936" y="702.658" svg_rhmargin="325.59" style="fill:#000000;font-family:DBDBHG+AdvOTea1a7398;font-size:7.47px;font-style:NORMAL;font-weight:normal;">ocean leads to increased ice</text>
  <text x="236.24,240.125,241.836,245.102,248.524,252.409,255.988,258.551,262.287,265.94,267.569,270.087,271.798,275.22,278.874,281.425,283.831,287.716,289.427,293.313,297.198,298.909,302.794,306.53,309.092,312.671,316.556,320.441,322.925,325.099,328.985,331.547,333.953,337.839,341.492" y="710.651" svg_rhmargin="344.055" style="fill:#000000;font-family:DBDBHG+AdvOTea1a7398;font-size:7.47px;font-style:NORMAL;font-weight:normal;">discharge, ice thinning and further</text>
  <text svg_rhmargin="258.693" x="236.24,238.803,242.457,244.863,247.425,251.079,254.658,257.064,258.69300000000004" y="678.79" style="fill:#000000;font-family:DBDBHG+AdvOTea1a7398;font-size:7.47px;font-style:NORMAL;font-weight:normal;">retreat. </text>
  <text x="375.137,379.336,382.915,385.321,387.032,390.917,393.449,397.334,399.508,402.009,404.415,408.301,411.955,414.482,418.061,421.946,425.832,427.543,429.949,431.66,435.545,439.43,443.009,444.72,447.308,450.573,454.227,457.806,460.291,462.002,465.656,469.152,472.806" y="678.79" svg_rhmargin="474.517" style="fill:#000000;font-family:DBDBHG+AdvOTea1a7398;font-size:7.47px;font-style:NORMAL;font-weight:normal;">Ratio of the additional sea level</text>
  <text x="375.137,378.559,382.445,386.33,388.736,391.299,393.01,396.895,400.78,403.186,405.015,408.901,412.786,415.277,419.162,423.048,426.702,429.224,431.63,435.515,438.012,440.418,444.303,446.014,449.279,451.788,453.962,457.616,461.27,465.155,469.041,472.708,476.131" y="686.727" svg_rhmargin="479.553" style="fill:#000000;font-family:DBDBHG+AdvOTea1a7398;font-size:7.47px;font-style:NORMAL;font-weight:normal;">contribution due to this feedback</text>
  <text x="375.137,377.543,381.428,383.925,386.331,390.216,393.87,396.397,399.663,403.316,406.895,409.437,411.148,414.802,418.299,421.952,423.663,426.105,429.527,433.413,437.298,439.704,442.267,443.978,447.863,451.748,454.154,455.865,459.751" y="694.72" svg_rhmargin="463.636" style="fill:#000000;font-family:DBDBHG+AdvOTea1a7398;font-size:7.47px;font-style:NORMAL;font-weight:normal;">to the sea level contribution</text>
  <text svg_rhmargin="428.96" x="375.137,380.502,382.213,384.619,388.504,392.389,396.275,398.681,401.217,403.391,407.113,410.766,414.652,418.537,422.116,425.538,428.96000000000004" y="678.79" style="fill:#000000;font-family:DBDBHG+AdvOTea1a7398;font-size:7.47px;font-style:NORMAL;font-weight:normal;">without feedback </text>
  <text x="505.133,509.101" y="678.79" svg_rhmargin="513.3" style="fill:#0000ff;font-family:DBDBHG+AdvOTea1a7398;font-size:7.47px;font-style:NORMAL;font-weight:normal;">58</text>
  <text x="513.297" y="678.79" svg_rhmargin="516.637" style="fill:#000000;font-family:DBDDLH+AdvOTea1a7398+20;font-size:7.47px;font-style:NORMAL;font-weight:normal;">–</text>
  <text x="516.699,520.898" y="678.79" svg_rhmargin="525.486" style="fill:#0000ff;font-family:DBDBHG+AdvOTea1a7398;font-size:7.47px;font-style:NORMAL;font-weight:normal;">60</text>
  <text svg_rhmargin="239.495" x="47.679,51.098,54.206,57.129000000000005,59.131,62.239,64.29,67.398,70.506,73.615,76.227,79.15,82.259,84.247,86.859,89.782,91.151,94.074,96.812,98.737,100.106,103.214,106.323,108.285,109.654,112.26599999999999,114.238,115.607,116.976,118.345,121.453,124.065,125.99,128.041,130.904,132.829,134.198,136.995,139.918,141.905,143.956,146.819,148.744,151.852,154.775,156.82500000000002,158.857,160.782,163.89,166.753,169.862,171.84,174.763,177.56,180.669,183.532,186.64,189.253,191.178,192.546,195.344,198.267,199.57,201.548,204.967,208.075,210.998,213.0,215.612,216.981,219.97,223.079,225.019,226.388,229.497,231.539,233.464,236.572,239.495" y="734.179" style="fill:#000000;font-family:DBDBHG+AdvOTea1a7398;font-size:5.98px;font-style:NORMAL;font-weight:normal;">The proposed selection is illustrative rather than exhaustive. The sign in the </text>
  <text x="241.455" y="734.179" svg_rhmargin="244.563" style="fill:#000000;font-family:DBDCPO+AdvOTea1a7398+fb;font-size:5.98px;font-style:NORMAL;font-weight:normal;">ﬁ</text>
  <text x="244.573,246.623,249.235,251.16000000000003,253.133,255.871,258.98,260.349,263.457,268.311,271.41999999999996,273.43,274.799,277.907,281.016,282.385,285.122,287.986,289.911,292.834,295.446,297.412,301.704,304.812,307.736,309.66,312.769,315.692,317.742,319.749,321.674,324.783,327.706,329.671,331.41,334.333,337.256,340.365,343.473,346.336,349.074,351.812,353.822,355.191,357.803,359.775,362.883,365.992,368.604,369.973,371.898,373.267,376.064,378.987,380.978,384.087,386.137,388.122,391.23,394.153,397.142,400.005,401.93,403.299,406.097,409.02,410.97,412.339,415.448,417.49,420.598,423.706,425.075,427.939,429.98900000000003,431.947,433.997,436.92,439.909,441.278,444.386,447.495" y="734.179" svg_rhmargin="450.107" style="fill:#000000;font-family:DBDBHG+AdvOTea1a7398;font-size:5.98px;font-style:NORMAL;font-weight:normal;">rst column indicates whether the feedback is positive or negative in polar regions</text>
  <path d=" M 551.6790161132812 752.427978515625 L 43.597015380859375 752.427978515625 L 43.597015380859375 752.7119750976562 L 551.6790161132812 752.7119750976562" style="fill:none;stroke:#000000;stroke-width:0.0;"/>
  <text svg_rhmargin="132.15" x="43.597,51.785,59.542,68.163,76.058,84.247,92.003,101.782,110.543,114.16900000000001,114.951,125.176,132.15" y="44.50999999999999" style="fill:#000000;font-family:DBDBHG+AdvOTea1a7398;font-size:13.95px;font-style:NORMAL;font-weight:normal;">PERSPECTI VE </text>
  <text x="322.979,328.535,334.01,338.569,343.965,348.444,352.42900000000003,355.068,360.209,366.099,373.32,380.541,385.937,391.492,393.45,398.59,404.066,408.625,410.697,416.587,422.142,426.207,428.826,430.898,433.532,439.087,444.977,447.049,448.786,451.447,454.269,459.162,460.9,463.721,468.615,472.76,477.239,481.211,484.694,489.341,492.162,496.809,501.288,505.52,508.342,513.235,516.057,520.536,523.358,528.153,532.8,535.621,539.854,543.998,546.82" y="44.50999999999999" svg_rhmargin="551.714" style="fill:#ec7e1c;font-family:DBDBHG+AdvOTea1a7398;font-size:7.97px;font-style:NORMAL;font-weight:normal;">NATURE COMMUNICATIONS | DOI: 10.1038/s41467-018-04173-0</text>
  <text svg_rhmargin="47.808" x="43.597,47.808" y="774.772" style="fill:#000000;font-family:DBDDGF+AdvTTda6f6cb8.B;font-size:7.22px;font-style:NORMAL;font-weight:normal;">4 </text>
  <text svg_rhmargin="224.361" x="136.913,141.601,146.221,150.067,154.62,158.399,161.762,164.069,168.407,173.376,179.469,185.562,190.115,194.802,196.551,200.975,205.595,209.442,211.191,216.16,220.931,224.36100000000002" y="775.452" style="fill:#ec7e1c;font-family:DBDBHG+AdvOTea1a7398;font-size:6.72px;font-style:NORMAL;font-weight:normal;">NATURE COMMUNICATIONS </text>
  <text svg_rhmargin="227.671" x="225.468,227.671" y="774.772" style="fill:#000000;font-family:DBDBHG+AdvOTea1a7398;font-size:8.47px;font-style:NORMAL;font-weight:normal;">| </text>
  <text svg_rhmargin="266.685" y="775.452" x="229.946,232.603,236.174,240.303,242.683,246.463,249.119,249.119,252.898,254.365,256.745,260.525,262.905,266.685,266.685" style="fill:#000000;font-family:DBDBHG+AdvOTea1a7398;font-size:6.72px;font-style:NORMAL;font-weight:normal;">(2018) 9:1919 </text>
  <text svg_rhmargin="330.795" x="328.592,330.79499999999996" y="774.772" style="fill:#000000;font-family:DBDBHG+AdvOTea1a7398;font-size:8.47px;font-style:NORMAL;font-weight:normal;">| </text>
  <text svg_rhmargin="432.006" x="331.937,336.624,341.594,343.342,344.808,347.074,349.455,353.584,355.05,357.43,361.559,365.056,368.836,372.359,375.298,379.218,381.599,385.52,389.299,392.87,395.25,399.458,401.838,405.618,407.998,412.127,416.048,418.429,421.999,425.496,427.877,432.00600000000003" y="775.452" style="fill:#000000;font-family:DBDBHG+AdvOTea1a7398;font-size:6.72px;font-style:NORMAL;font-weight:normal;">DOI: 10.1038/s41467-018-04173-0 </text>
  <text svg_rhmargin="435.393" x="433.19,435.393" y="774.772" style="fill:#000000;font-family:DBDBHG+AdvOTea1a7398;font-size:8.47px;font-style:NORMAL;font-weight:normal;">| </text>
  <text x="436.535,441.364,446.192,451.021,452.487,455.984,459.205,461.37,464.867,467.174,470.462,471.928,475.143,478.64,484.101,487.53,491.027,494.248,496.414,499.911,502.217,505.506,508.586,512.083,517.662,523.122,526.619,530.116,531.656,534.736,537.958,540.123,541.663,545.16,548.657" y="774.772" svg_rhmargin="551.596" style="fill:#000000;font-family:DBDBHG+AdvOTea1a7398;font-size:6.72px;font-style:NORMAL;font-weight:normal;">www.nature.com/naturecommunications</text>
 </g>
</svg>
