<?xml version="1.0" encoding="UTF-8"?>
<svg height="734.732" width="569.371" xmlns="http://www.w3.org/2000/svg">
 <g id="page" xmlns:svgx="http://www.xml-cml.org/schema/svgx">
  <g begin="text">
   <text y="724.732" x="36.0,39.99,44.123,48.315,52.478,56.093,57.848,60.3,64.058" svgx:width="0.53,0.55,0.56,0.56,0.48,0.23,0.33,0.5,0.21" style="fill:rgb(0,0,0);font-family:MyriadPro;font-size:7.5px;stroke:none;">Pugnaire </text>
   <text y="724.732" x="65.647,69.045,71.393,72.757,76.673" svgx:width="0.45,0.31,0.18,0.52,0.23" style="fill:rgb(0,0,0);font-family:MyriadPro-Italic;font-size:7.5px;stroke:none;">et al</text>
   <text y="724.732" x="78.39,79.942,81.495" svgx:width="0.21,0.21,0.21" style="fill:rgb(0,0,0);font-family:MyriadPro;font-size:7.5px;stroke:none;">., </text>
   <text y="724.732" x="83.085,86.58,89.752,91.47,93.052,94.417,98.677,102.615,106.027" svgx:width="0.47,0.42,0.23,0.21,0.18,0.57,0.52,0.46,0.21" style="fill:rgb(0,0,0);font-family:MyriadPro-Italic;font-size:7.5px;stroke:none;">Sci. Adv.</text>
   <text y="724.732" x="107.61,109.2,113.047,116.895,120.742,124.59,126.142" svgx:width="0.21,0.51,0.51,0.51,0.51,0.21,0.21" style="fill:rgb(0,0,0);font-family:MyriadPro;font-size:7.5px;stroke:none;"> 2019; </text>
   <text y="724.732" x="127.732,131.895" svgx:width="0.56,0.2" style="fill:rgb(0,0,0);font-family:MyriadPro-Bold;font-size:7.5px;stroke:none;">5 </text>
   <text y="724.732" x="133.41,134.962,136.552,140.31,143.925,147.54,150.75,154.598,158.445,162.293,166.14,167.73,169.32,170.91,172.5,174.09,177.938,181.785,183.375,188.31,192.428,196.035,199.793,206.048,210.315,214.073,216.525,218.115,221.963,225.81,229.658" svgx:width="0.21,0.21,0.5,0.48,0.48,0.43,0.51,0.51,0.51,0.51,0.21,0.21,0.21,0.21,0.21,0.51,0.51,0.21,0.66,0.55,0.48,0.5,0.83,0.57,0.5,0.33,0.21,0.51,0.51,0.51,0.51" style="fill:rgb(0,0,0);font-family:MyriadPro;font-size:7.5px;stroke:none;">: eaaz1834 27 November 2019</text>
  </g>
  <path style="fill:none;stroke:rgb(0,0,0);stroke-width:1.0;" d="M36.000 45.410 L558.000 45.410 "/>
  <g begin="text">
   <text y="39.161" x="36.0,41.39,43.073,51.103,53.743,55.382,60.772,62.444,71.332,79.362,84.752,86.424,88.73400000000001,90.406,98.788,107.764,115.552,123.934,132.822,140.852,146.242,147.914" svgx:width="0.49,0.55,0.58,0.24,0.55,0.49,0.55,0.66,0.58,0.49,0.55,0.21,0.55,0.61,0.67,0.56,0.61,0.66,0.58,0.49,0.55,0.49" style="fill:rgb(0,0,0);font-family:MyriadPro;font-size:11.0px;stroke:none;">S CI E NCE ADVANCE S</text>
   <text y="39.161" x="154.987" svgx:width="0.21" style="fill:rgb(177,5,8);font-family:MyriadPro;font-size:11.0px;stroke:none;"> </text>
   <text y="38.16" x="158.969" svgx:width="0.21" style="fill:rgb(0,0,0);font-family:MyriadPro-Light;font-size:11.0px;stroke:none;">|</text>
   <text y="39.161" x="162.951,165.261,166.933,174.501,179.891,181.563,189.351,191.99099999999999,193.63,199.01999999999998,200.692" svgx:width="0.21,0.55,0.54,0.49,0.55,0.56,0.24,0.55,0.49,0.55,0.85" style="fill:rgb(177,5,8);font-family:MyriadPro;font-size:11.0px;stroke:none;"> RE VI E W</text>
  </g>
  <g begin="text">
   <text y="724.732" x="531.435,535.598,539.76,541.275,545.603,548.16,549.675,553.838" svgx:width="0.56,0.56,0.2,0.58,0.34,0.2,0.56,0.56" style="fill:rgb(0,0,0);font-family:MyriadPro-Bold;font-size:7.5px;stroke:none;">11 of 11</text>
   <text y="64.615" x="36.0,36.0,39.334,42.669,46.003,47.349,48.714,51.002,54.46,55.806,57.151,60.674,62.02,63.365,66.862,70.118,71.64,74.552,78.159,79.505,80.882,84.087,85.432,86.778,89.976,91.321,92.667,96.905,100.473,104.172,107.87,109.391,112.648,113.993,115.371,118.602,119.947,121.293,125.622,126.967,128.313,131.381,134.637,137.894,139.239,140.617,145.843,147.189,148.534,152.512,153.858,155.203,158.661,161.794,164.368,166.52,170.088,172.214,175.47,176.816,178.194,182.4,186.007,189.264,192.273,195.972,199.228,202.14,204.292,207.548,211.214,212.592,214.718,217.974,221.101,224.357,226.483,229.057,232.19,233.724,235.101,238.669,240.567,241.647" svgx:width="0.21,0.51,0.51,0.51,0.21,0.21,0.55,0.53,0.21,0.21,0.54,0.21,0.21,0.54,0.5,0.23,0.45,0.56,0.21,0.21,0.49,0.21,0.21,0.49,0.21,0.21,0.65,0.55,0.57,0.57,0.23,0.5,0.21,0.21,0.5,0.21,0.21,0.67,0.21,0.21,0.47,0.5,0.5,0.21,0.21,0.8,0.21,0.21,0.61,0.21,0.21,0.53,0.48,0.4,0.33,0.55,0.33,0.5,0.21,0.21,0.65,0.56,0.5,0.46,0.57,0.5,0.45,0.33,0.5,0.56,0.21,0.33,0.5,0.48,0.5,0.33,0.4,0.48,0.24,0.21,0.55,0.29,0.21,0.58" style="fill:rgb(0,0,0);font-family:MyriadPro;font-size:6.5px;stroke:none;"> 103. P. B. Reich, S. E. Hobbie, T. D. Lee, M. A. Pastore, Unexpected reversal of C</text>
   <text y="65.57" x="245.414" svgx:width="0.51" style="fill:rgb(0,0,0);font-family:MyriadPro;font-size:4.61px;stroke:none;">3</text>
   <text y="64.615" x="247.78,249.158,252.285,255.541,257.667,260.241,263.822,266.396,267.774" svgx:width="0.21,0.48,0.5,0.33,0.4,0.55,0.4,0.21,0.58" style="fill:rgb(0,0,0);font-family:MyriadPro;font-size:6.5px;stroke:none;"> versus C</text>
   <text y="65.57" x="271.544" svgx:width="0.51" style="fill:rgb(0,0,0);font-family:MyriadPro;font-size:4.61px;stroke:none;">4</text>
   <text y="64.615" x="273.909,275.287,278.921,281.046,284.179,286.753,289.327" svgx:width="0.21,0.56,0.33,0.48,0.4,0.4,0.21" style="fill:rgb(0,0,0);font-family:MyriadPro;font-size:6.5px;stroke:none;"> grass </text>
   <text y="73.617" x="50.998,53.124,56.38,58.954,62.653,66.221,69.829,72.403,75.659,77.037,79.189,82.757,83.843,87.099,88.633,91.89,95.016,98.149,100.301,103.557,107.223,108.601,112.371" svgx:width="0.33,0.5,0.4,0.57,0.55,0.56,0.4,0.5,0.21,0.33,0.55,0.21,0.5,0.24,0.5,0.48,0.48,0.33,0.5,0.56,0.21,0.58,0.69" style="fill:rgb(0,0,0);font-family:MyriadPro;font-size:6.5px;stroke:none;">response to elevated CO</text>
   <text y="74.57" x="116.848" svgx:width="0.51" style="fill:rgb(0,0,0);font-family:MyriadPro;font-size:4.61px;stroke:none;">2</text>
   <text y="73.615" x="119.214,120.592,124.258,127.839,129.965,131.486,135.093,138.727,140.105,143.238,144.324,147.658,150.993,152.988,156.049,159.306,162.439,164.564,165.943,167.84,169.361,172.618,174.152,177.818,179.196,182.452,185.462,189.161,192.417,194.543,196.064,201.485,204.741,208.349,210.5,211.846" svgx:width="0.21,0.56,0.55,0.33,0.23,0.56,0.56,0.21,0.48,0.21,0.51,0.51,0.31,0.47,0.5,0.48,0.33,0.21,0.29,0.23,0.5,0.24,0.56,0.21,0.5,0.46,0.57,0.5,0.33,0.23,0.83,0.5,0.56,0.33,0.21,0.21" style="fill:rgb(0,0,0);font-family:MyriadPro;font-size:6.5px;stroke:none;"> during a 20-year field experiment. </text>
   <text y="73.615" x="213.224,216.253,219.002,220.491,223.435,226.906,229.656" svgx:width="0.47,0.42,0.23,0.45,0.53,0.42,0.45" style="fill:rgb(0,0,0);font-family:MyriadPro-Italic;font-size:6.5px;stroke:none;">Science</text>
   <text y="73.615" x="232.6" svgx:width="0.21" style="fill:rgb(0,0,0);font-family:MyriadPro;font-size:6.5px;stroke:none;"> </text>
   <text y="73.615" x="233.978,237.586,241.193" svgx:width="0.56,0.56,0.56" style="fill:rgb(0,0,0);font-family:MyriadPro-Bold;font-size:6.5px;stroke:none;">360</text>
   <text y="73.615" x="244.801,246.146,247.524,250.859,254.193,257.528,260.778,264.112,267.447,270.781,272.159,274.005,277.34,280.674,284.009,287.343,289.189" svgx:width="0.21,0.21,0.51,0.51,0.51,0.5,0.51,0.51,0.51,0.21,0.28,0.51,0.51,0.51,0.51,0.28,0.21" style="fill:rgb(0,0,0);font-family:MyriadPro;font-size:6.5px;stroke:none;">, 317–320 (2018).</text>
   <text y="82.617" x="36.001,36.001,39.335,42.67,46.004,47.35,48.715,51.003,55.28,56.625,57.971,61.169,62.69,65.264,68.52,72.128,75.735,78.868,82.45,85.706,87.832,89.177,90.555,93.76,95.105,96.451,100.221,103.477,106.051,109.184,111.31,114.092,115.437,116.815,120.312,121.658,123.003,126.526,130.095,131.629,133.163,136.419,138.545,139.89,141.268,144.791,146.137,147.482,152.981,156.55,158.675,164.096,165.442,166.82,170.278,171.623,172.969,176.492,177.837,179.183,182.68,185.936,187.457,190.369,193.977,195.322,196.7,200.899,202.433,206.002,209.7,212.833,214.367,215.745,218.657,222.265,225.398,229.005,232.639,235.895,237.273,240.972,244.228,245.762,249.331,254.115,257.748,259.874,263.442,267.024,270.632,274.297,275.643" svgx:width="0.21,0.51,0.51,0.51,0.21,0.21,0.55,0.66,0.21,0.21,0.49,0.23,0.4,0.5,0.56,0.56,0.48,0.55,0.5,0.33,0.21,0.21,0.49,0.21,0.21,0.58,0.5,0.4,0.48,0.33,0.43,0.21,0.21,0.54,0.21,0.21,0.54,0.55,0.24,0.24,0.5,0.33,0.21,0.21,0.54,0.21,0.21,0.85,0.55,0.33,0.83,0.21,0.21,0.53,0.21,0.21,0.54,0.21,0.21,0.54,0.5,0.23,0.45,0.56,0.21,0.21,0.65,0.24,0.55,0.57,0.48,0.24,0.21,0.45,0.56,0.48,0.56,0.56,0.5,0.21,0.57,0.5,0.24,0.55,0.74,0.56,0.33,0.55,0.55,0.56,0.56,0.21,0.21" style="fill:rgb(0,0,0);font-family:MyriadPro;font-size:6.5px;stroke:none;"> 104. N. Eisenhauer, S. Cesarz, R. Koller, K. Worm, P. B. Reich, Global change belowground: </text>
   <text y="91.62" x="51.009,52.563,57.984,61.682,64.815,67.728,69.879,72.453,73.831,77.399,79.297,80.383,83.639,85.173,88.43,91.556,94.689,96.841,100.097,103.763,105.141,108.911" svgx:width="0.24,0.83,0.57,0.48,0.45,0.33,0.4,0.21,0.55,0.29,0.21,0.5,0.24,0.5,0.48,0.48,0.33,0.5,0.56,0.21,0.58,0.69" style="fill:rgb(0,0,0);font-family:MyriadPro;font-size:6.5px;stroke:none;">Impacts of elevated CO</text>
   <text y="92.57" x="113.377" svgx:width="0.51" style="fill:rgb(0,0,0);font-family:MyriadPro;font-size:4.61px;stroke:none;">2</text>
   <text y="91.615" x="115.743,117.089,118.467,122.074,123.595,125.747,127.872,131.441,135.074,138.331,141.938,143.284,144.662,147.795,151.402,155.068,156.154,158.728,162.309,167.73,173.151,176.408,178.533,179.911,183.577,185.703,189.271,192.853,196.486,200.094,202.245,203.623,207.192,210.799,211.885,214.459,218.027,219.548,221.082,222.46,224.358,227.927,231.495,235.161,236.539,241.323,244.58,248.278,250.852" svgx:width="0.21,0.21,0.56,0.23,0.33,0.33,0.55,0.56,0.5,0.56,0.21,0.21,0.48,0.56,0.56,0.21,0.4,0.55,0.83,0.83,0.5,0.33,0.21,0.56,0.33,0.55,0.55,0.56,0.56,0.33,0.21,0.55,0.56,0.21,0.4,0.55,0.23,0.24,0.21,0.29,0.55,0.55,0.56,0.21,0.74,0.5,0.57,0.4,0.21" style="fill:rgb(0,0,0);font-family:MyriadPro;font-size:6.5px;stroke:none;">, nitrogen, and summer drought on soil food webs </text>
   <text y="100.617" x="51.003,54.136,57.744,61.41,62.495,66.194,67.715,71.283,74.949,76.47,79.597,82.853,84.979,87.553,89.074,91.225,94.287,95.632" svgx:width="0.48,0.56,0.56,0.21,0.57,0.23,0.55,0.56,0.23,0.48,0.5,0.33,0.4,0.23,0.33,0.47,0.21,0.21" style="fill:rgb(0,0,0);font-family:MyriadPro;font-size:6.5px;stroke:none;">and biodiversity. </text>
   <text y="100.617" x="97.01,101.06,102.548,105.941,109.354,110.725,111.908,115.516,118.987,122.38,125.851,129.257,132.201,133.384,136.758,138.246,141.639,143.128" svgx:width="0.62,0.23,0.52,0.52,0.21,0.18,0.56,0.53,0.52,0.53,0.52,0.45,0.18,0.52,0.23,0.52,0.23,0.21" style="fill:rgb(0,0,0);font-family:MyriadPro-Italic;font-size:6.5px;stroke:none;">Glob. Change Biol.</text>
   <text y="100.617" x="144.499" svgx:width="0.21" style="fill:rgb(0,0,0);font-family:MyriadPro;font-size:6.5px;stroke:none;"> </text>
   <text y="100.617" x="145.877,149.485" svgx:width="0.56,0.56" style="fill:rgb(0,0,0);font-family:MyriadPro-Bold;font-size:6.5px;stroke:none;">18</text>
   <text y="100.617" x="153.092,154.438,155.816,159.15,162.485,165.819,169.069,172.404,175.738,179.073,180.451,182.297,185.631,188.966,192.3,195.635,197.481" svgx:width="0.21,0.21,0.51,0.51,0.51,0.5,0.51,0.51,0.51,0.21,0.28,0.51,0.51,0.51,0.51,0.28,0.21" style="fill:rgb(0,0,0);font-family:MyriadPro;font-size:6.5px;stroke:none;">, 435–447 (2012).</text>
   <text y="109.62" x="36.008,36.008,39.342,42.677,46.011,47.357,48.722,51.01,54.533,55.878,57.224,60.428,63.34,66.948,71.732,74.865,76.99,79.772,81.118,82.496,86.474,87.819,89.165,93.494,94.839,96.185,99.708,102.841,104.966,108.574,111.83,114.404,115.75,117.128,122.354,123.699,125.045,128.503,129.848,131.194,134.424,138.032,141.165,144.213,147.795,149.92,151.266,152.643,156.848,158.194,159.539,163.062,165.188,168.756,171.33,174.587,175.932,177.31,182.536,183.882,185.227,188.997,190.518,194.087,197.785,200.918,204.526,208.107,209.453,210.831,214.289,215.634,216.98,220.503,221.848,223.194,226.691,229.947,231.468,234.38,237.988,239.333,240.711,244.208,245.554,246.899,249.967,251.313,252.658,256.155,257.676,260.588,264.196,265.541" svgx:width="0.21,0.51,0.51,0.51,0.21,0.21,0.55,0.54,0.21,0.21,0.49,0.45,0.56,0.74,0.48,0.33,0.43,0.21,0.21,0.61,0.21,0.21,0.67,0.21,0.21,0.54,0.48,0.33,0.56,0.5,0.4,0.21,0.21,0.8,0.21,0.21,0.53,0.21,0.21,0.5,0.56,0.48,0.47,0.55,0.33,0.21,0.21,0.65,0.21,0.21,0.54,0.33,0.55,0.4,0.5,0.21,0.21,0.8,0.21,0.21,0.58,0.23,0.55,0.57,0.48,0.56,0.55,0.21,0.21,0.53,0.21,0.21,0.54,0.21,0.21,0.54,0.5,0.23,0.45,0.56,0.21,0.21,0.54,0.21,0.21,0.47,0.21,0.21,0.54,0.23,0.45,0.56,0.21,0.21" style="fill:rgb(0,0,0);font-family:MyriadPro;font-size:6.5px;stroke:none;"> 105. B. Schwarz, A. D. Barnes, M. P. Thakur, U. Brose, M. Ciobanu, P. B. Reich, R. L. Rich, </text>
   <text y="118.622" x="51.01,54.533,55.878,57.224,60.721,64.289,66.863,70.12,73.727,77.426,80.559,84.14,89.561,90.907,92.285,96.263,97.608,98.954,102.158,104.31,107.566,109.464,112.597,116.205,118.779,121.827,123.348,124.694,126.072,130.349,131.694,133.04,136.238,137.759,140.333,143.589,147.197,150.804,153.937,157.519,160.775,162.901,164.246,165.624,171.123,174.256,176.382,181.803,183.324,186.931,190.565,191.943,195.076,196.61,198.761,202.018,204.143,206.717,208.095,211.352,214.959,218.216,220.341,223.975,227.231,229.383,230.904,233.816,235.194,237.768,239.919,242.045,245.626,248.538,250.69,254.271,256.397,259.653" svgx:width="0.54,0.21,0.21,0.54,0.55,0.4,0.5,0.56,0.57,0.48,0.55,0.83,0.21,0.21,0.61,0.21,0.21,0.49,0.33,0.5,0.29,0.48,0.56,0.4,0.47,0.23,0.21,0.21,0.66,0.21,0.21,0.49,0.23,0.4,0.5,0.56,0.56,0.48,0.55,0.5,0.33,0.21,0.21,0.85,0.48,0.33,0.83,0.23,0.56,0.56,0.21,0.48,0.24,0.33,0.5,0.33,0.4,0.21,0.5,0.56,0.5,0.33,0.56,0.5,0.33,0.23,0.45,0.21,0.4,0.33,0.33,0.55,0.45,0.33,0.55,0.33,0.5,0.21" style="fill:rgb(0,0,0);font-family:MyriadPro;font-size:6.5px;stroke:none;">B. Rosenbaum, A. Stefanski, N. Eisenhauer, Warming alters energetic structure </text>
   <text y="127.625" x="51.01,54.143,57.75,61.416,62.502,64.4,67.981,71.589,74.501,76.652,78.173,81.742,85.349,86.727,90.426,94.007,96.159,97.537,101.144,104.713,106.864,108.242,110.368,113.624,116.198,117.719,119.253,120.774,124.031,127.638,130.55,133.807,135.185,138.753,140.651,141.73,144.304,147.873,149.394,150.928,152.306,154.204,157.772,161.341,165.007,166.385,171.169,174.425,178.124,180.698,182.043" svgx:width="0.48,0.56,0.56,0.21,0.29,0.55,0.56,0.45,0.33,0.23,0.55,0.56,0.21,0.57,0.55,0.33,0.21,0.56,0.55,0.33,0.21,0.33,0.5,0.4,0.23,0.24,0.23,0.5,0.56,0.45,0.5,0.21,0.55,0.29,0.21,0.4,0.55,0.23,0.24,0.21,0.29,0.55,0.55,0.56,0.21,0.74,0.5,0.57,0.4,0.21,0.21" style="fill:rgb(0,0,0);font-family:MyriadPro;font-size:6.5px;stroke:none;">and function but not resilience of soil food webs. </text>
   <text y="127.625" x="183.421,187.529,190.922,192.957,194.328,195.511,199.119,200.607,202.096,207.348,208.719,209.902,213.51,216.981,220.374,223.845,227.251" svgx:width="0.63,0.52,0.31,0.21,0.18,0.56,0.23,0.23,0.81,0.21,0.18,0.56,0.53,0.52,0.53,0.52,0.45" style="fill:rgb(0,0,0);font-family:MyriadPro-Italic;font-size:6.5px;stroke:none;">Nat. Clim. Change</text>
   <text y="127.625" x="230.195" svgx:width="0.21" style="fill:rgb(0,0,0);font-family:MyriadPro;font-size:6.5px;stroke:none;"> </text>
   <text y="127.625" x="231.573" svgx:width="0.56" style="fill:rgb(0,0,0);font-family:MyriadPro-Bold;font-size:6.5px;stroke:none;">7</text>
   <text y="127.625" x="235.181,236.526,237.904,241.239,244.573,247.908,251.158,254.492,257.827,261.161,262.539,264.385,267.72,271.054,274.389,277.723,279.569" svgx:width="0.21,0.21,0.51,0.51,0.51,0.5,0.51,0.51,0.51,0.21,0.28,0.51,0.51,0.51,0.51,0.28,0.21" style="fill:rgb(0,0,0);font-family:MyriadPro;font-size:6.5px;stroke:none;">, 895–900 (2017).</text>
   <text y="136.627" x="36.008,36.008,39.342,42.677,46.011,47.357,48.722,51.01,54.078,55.423,56.769,61.995,63.34,64.686,67.89,73.311,74.832,76.984,80.591,82.587,86.084,89.217,94.638,97.894,100.468,104.076,105.421,106.799,111.037,112.383,113.728,116.796,118.142,119.487,122.984,126.241,129.302,132.91,136.478,138.012,141.678,144.252,145.598,146.976,150.206,153.814,157.07,158.448,162.056,165.312,168.322,170.473,171.851,173.749,175.875,179.443,183.051,185.202,186.723,189.98,192.105,193.483,197.052,198.95,200.029,203.727,205.261,208.394,212.002,214.153,216.149,218.723,222.291,223.812,225.346,226.724,228.622,231.879,235.135,238.801,242.5,245.633,248.545,251.593,252.971,255.097,258.353,260.927,264.184,267.317,269.442,272.354,275.962,277.307" svgx:width="0.21,0.51,0.51,0.51,0.21,0.21,0.55,0.47,0.21,0.21,0.8,0.21,0.21,0.49,0.83,0.23,0.33,0.56,0.31,0.54,0.48,0.83,0.5,0.4,0.56,0.21,0.21,0.65,0.21,0.21,0.47,0.21,0.21,0.54,0.5,0.47,0.56,0.55,0.24,0.56,0.4,0.21,0.21,0.5,0.56,0.5,0.21,0.56,0.5,0.46,0.33,0.21,0.29,0.33,0.55,0.56,0.33,0.23,0.5,0.33,0.21,0.55,0.29,0.21,0.57,0.24,0.48,0.56,0.33,0.31,0.4,0.55,0.23,0.24,0.21,0.29,0.5,0.5,0.56,0.57,0.48,0.45,0.47,0.21,0.33,0.5,0.4,0.5,0.48,0.33,0.45,0.56,0.21,0.21" style="fill:rgb(0,0,0);font-family:MyriadPro;font-size:6.5px;stroke:none;"> 106. L. M. Smith-Ramesh, H. L. Reynolds, The next frontier of plant-soil feedback research: </text>
   <text y="145.63" x="51.01,55.215,58.823,60.948,64.081,67.208,70.464,71.998,73.519,77.127,80.76,82.138,85.05,88.619,92.226,94.378,97.634,100.644,102.795,104.173,107.839,111.096,114.794,118.051,121.658,125.324,128.581,132.188,135.1,138.357,139.735,142.868,145.78,147.905,151.474,154.048,156.622,158.0,161.698,163.219,166.788,168.939,170.46,173.372,174.75,177.883,181.491,185.157,186.236,189.369,193.067,194.588,198.157,200.308,201.829,204.741,206.119,209.753,211.878,215.011,218.677,220.198,223.455,227.062,229.214,231.788,233.133" svgx:width="0.65,0.56,0.33,0.48,0.48,0.5,0.24,0.23,0.56,0.56,0.21,0.45,0.55,0.56,0.33,0.5,0.46,0.33,0.21,0.56,0.5,0.57,0.5,0.56,0.56,0.5,0.56,0.45,0.5,0.21,0.48,0.45,0.33,0.55,0.4,0.4,0.21,0.57,0.23,0.55,0.33,0.23,0.45,0.21,0.48,0.56,0.56,0.21,0.48,0.57,0.23,0.55,0.33,0.23,0.45,0.21,0.56,0.33,0.48,0.56,0.23,0.5,0.56,0.33,0.4,0.21,0.21" style="fill:rgb(0,0,0);font-family:MyriadPro;font-size:6.5px;stroke:none;">Unraveling context dependence across biotic and abiotic gradients. </text>
   <text y="145.63" x="234.511,236.877,238.249,239.62,243.124,246.068,249.474,250.846,252.029,255.058,257.807,259.296" svgx:width="0.36,0.21,0.18,0.54,0.45,0.52,0.21,0.18,0.47,0.42,0.23,0.21" style="fill:rgb(0,0,0);font-family:MyriadPro-Italic;font-size:6.5px;stroke:none;">J. Veg. Sci.</text>
   <text y="145.63" x="260.667" svgx:width="0.21" style="fill:rgb(0,0,0);font-family:MyriadPro;font-size:6.5px;stroke:none;"> </text>
   <text y="145.63" x="262.045,265.653" svgx:width="0.56,0.56" style="fill:rgb(0,0,0);font-family:MyriadPro-Bold;font-size:6.5px;stroke:none;">28</text>
   <text y="145.63" x="269.26,270.606" svgx:width="0.21,0.21" style="fill:rgb(0,0,0);font-family:MyriadPro;font-size:6.5px;stroke:none;">, </text>
   <text y="154.632" x="51.01,54.344,57.679,61.013,64.263,67.598,70.932,74.267,75.645,77.491,80.825,84.16,87.494,90.829,92.675" svgx:width="0.51,0.51,0.51,0.5,0.51,0.51,0.51,0.21,0.28,0.51,0.51,0.51,0.51,0.28,0.21" style="fill:rgb(0,0,0);font-family:MyriadPro;font-size:6.5px;stroke:none;">484–494 (2017).</text>
   <text y="163.635" x="36.008,36.008,39.342,42.677,46.011,47.357,48.722,51.01,54.533,55.878,57.224,62.723,64.068,65.414,69.613,71.738,73.259,75.833,78.745,82.314,87.735,89.08,90.458,92.863,94.209,95.554,99.532,103.198,106.331,111.752,114.326,115.672,117.05,120.508,121.853,123.199,128.698,130.043,131.389,134.587,136.121,137.655,139.176,141.75,143.095,144.473,147.97,149.316,150.661,154.639,155.985,157.33,161.568,165.137,168.718,172.352,175.959,178.111,181.679,185.287,186.632,188.01,192.209,193.555,194.9,197.968,201.537,206.958,210.091,213.1,214.446,215.824,220.153,221.498,222.844,226.822,228.167,229.513,234.739,236.26,238.411,241.668,244.794,247.927,249.273" svgx:width="0.21,0.51,0.51,0.51,0.21,0.21,0.55,0.54,0.21,0.21,0.85,0.21,0.21,0.65,0.33,0.23,0.4,0.45,0.55,0.83,0.21,0.21,0.37,0.21,0.21,0.61,0.56,0.48,0.83,0.4,0.21,0.21,0.53,0.21,0.21,0.85,0.21,0.21,0.49,0.24,0.24,0.23,0.4,0.21,0.21,0.54,0.21,0.21,0.61,0.21,0.21,0.65,0.55,0.55,0.56,0.56,0.33,0.55,0.56,0.21,0.21,0.65,0.21,0.21,0.47,0.55,0.83,0.48,0.46,0.21,0.21,0.67,0.21,0.21,0.61,0.21,0.21,0.8,0.23,0.33,0.5,0.48,0.48,0.21,0.21" style="fill:rgb(0,0,0);font-family:MyriadPro;font-size:6.5px;stroke:none;"> 107. B. W. Griscom, J. Adams, P. W. Ellis, R. A. Houghton, G. Lomax, D. A. Miteva, </text>
   <text y="172.637" x="51.01,56.509,57.854,59.2,63.438,64.783,66.129,69.333,72.245,75.853,77.387,80.643,83.217,84.738,88.346,91.979,95.236,97.361,98.707,100.085,104.414,105.759,107.105,110.309,113.917,117.485,120.397,124.005,125.35,126.727,129.132,130.478,131.823,135.45,136.796,138.141,141.346,142.867,144.388,147.436,150.569,155.99,159.123,162.172,163.693,165.038,166.416,169.874,171.22,172.565,175.77,181.191,182.712,184.863,188.471,189.816,191.194,194.652,195.998,197.343,202.842,206.411,209.979,213.645,217.344,220.925,223.051,226.112,227.458,228.836,232.606,233.951,235.297,238.891,242.525,245.658,249.265,250.845,253.978,256.103,257.449" svgx:width="0.85,0.21,0.21,0.65,0.21,0.21,0.49,0.45,0.56,0.24,0.5,0.4,0.23,0.56,0.56,0.5,0.33,0.21,0.21,0.67,0.21,0.21,0.49,0.56,0.55,0.45,0.56,0.21,0.21,0.37,0.21,0.21,0.56,0.21,0.21,0.49,0.23,0.23,0.47,0.48,0.83,0.48,0.47,0.23,0.21,0.21,0.53,0.21,0.21,0.49,0.83,0.23,0.33,0.56,0.21,0.21,0.53,0.21,0.21,0.85,0.55,0.55,0.56,0.57,0.55,0.33,0.47,0.21,0.21,0.58,0.21,0.21,0.55,0.56,0.48,0.56,0.24,0.48,0.33,0.21,0.21" style="fill:rgb(0,0,0);font-family:MyriadPro;font-size:6.5px;stroke:none;">W. H. Schlesinger, D. Shoch, J. V. Siikamäki, P. Smith, P. Woodbury, C. Zganjar, </text>
   <text y="181.64" x="51.01,54.988,56.333,57.679,61.202,62.736,65.869,68.781,71.829,77.25,80.383,83.991,85.336,86.714,89.119,90.465,91.81,95.58,98.713,104.134,107.833,110.966,113.091,114.612,115.958,117.336,120.833,122.178,123.524,126.754,128.1,129.445,133.215,136.784,140.391,143.524,147.132,149.283,150.629,152.007,155.777,157.122,158.468,162.797,166.053,167.587,171.221,174.354,178.02,181.588,182.934,184.311,187.769,189.114,190.46,193.658,195.192,196.713,199.846,202.42,203.765,205.143,208.374,209.719,211.065,215.264,218.832,222.531,225.664,227.198,230.331,233.379,235.505,237.026,239.6,243.207,246.815,249.948,251.293,252.671,257.897,259.243,260.588,264.085,265.431,266.776,271.014,274.147,279.568,282.142,283.663,286.712,288.057" svgx:width="0.61,0.21,0.21,0.54,0.24,0.48,0.45,0.47,0.83,0.48,0.56,0.21,0.21,0.37,0.21,0.21,0.58,0.48,0.83,0.57,0.48,0.33,0.23,0.21,0.21,0.54,0.21,0.21,0.5,0.21,0.21,0.58,0.55,0.56,0.48,0.56,0.33,0.21,0.21,0.58,0.21,0.21,0.67,0.5,0.24,0.56,0.48,0.56,0.55,0.21,0.21,0.53,0.21,0.21,0.49,0.24,0.23,0.48,0.4,0.21,0.21,0.5,0.21,0.21,0.65,0.55,0.57,0.48,0.24,0.48,0.47,0.33,0.23,0.4,0.56,0.56,0.48,0.21,0.21,0.8,0.21,0.21,0.54,0.21,0.21,0.65,0.48,0.83,0.4,0.23,0.47,0.21,0.21" style="fill:rgb(0,0,0);font-family:MyriadPro;font-size:6.5px;stroke:none;">A. Blackman, J. Campari, R. T. Conant, C. Delgado, P. Elias, T. Gopalakrishna, M. R. Hamsik, </text>
   <text y="190.642" x="51.01,56.236,57.581,58.927,63.165,66.421,68.547,70.672,73.929,76.054,79.623,80.968,82.346,84.751,86.097,87.442,90.965,92.486,95.743,98.317,101.573,104.485,107.534,110.79,112.916,114.261,115.639,118.837,120.183,121.528,124.596,127.729,131.337,135.003,136.524,139.098,140.443,141.821,144.889,146.235,147.58,150.648,153.781,157.038,159.612,161.763,164.896,168.562,170.083,173.665,176.239,177.584,178.962,182.167,183.512,184.858,190.084,191.429,192.775,195.843,199.099,202.232,205.359,206.88,209.031,211.183,212.528,213.906,217.111,218.456,219.802,225.028,226.549,230.156,233.764,237.02,242.441,245.698,248.759,252.016,254.141,255.487,256.865,260.069,261.415,262.76,266.218,269.787,271.321,274.454,277.028,280.076,283.138,284.483" svgx:width="0.8,0.21,0.21,0.65,0.5,0.33,0.33,0.5,0.33,0.55,0.21,0.21,0.37,0.21,0.21,0.54,0.23,0.5,0.4,0.5,0.45,0.47,0.5,0.33,0.21,0.21,0.49,0.21,0.21,0.47,0.48,0.56,0.56,0.23,0.4,0.21,0.21,0.47,0.21,0.21,0.47,0.48,0.5,0.4,0.33,0.48,0.56,0.23,0.55,0.4,0.21,0.21,0.49,0.21,0.21,0.8,0.21,0.21,0.47,0.5,0.48,0.48,0.23,0.33,0.33,0.21,0.21,0.49,0.21,0.21,0.8,0.23,0.56,0.56,0.5,0.83,0.5,0.47,0.5,0.33,0.21,0.21,0.49,0.21,0.21,0.53,0.55,0.24,0.48,0.4,0.47,0.47,0.21,0.21" style="fill:rgb(0,0,0);font-family:MyriadPro;font-size:6.5px;stroke:none;">M. Herrero, J. Kiesecker, E. Landis, L. Laestadius, S. M. Leavitt, S. Minnemeyer, S. Polasky, </text>
   <text y="199.645" x="51.01,54.468,55.813,57.159,60.617,64.185,66.337,69.47,73.168,76.737,79.863,81.209,82.587,85.752,87.098,88.443,91.641,92.987,94.332,97.79,101.372,103.523,106.305,107.651,109.029,111.434,112.779,114.125,117.329,120.462,124.07,127.736,130.992,133.118,138.539,141.672,145.279,146.625,148.003,153.229,154.574,155.92,159.124,160.645,162.179,165.306,166.827,170.408,172.982,174.328,175.706,178.904,180.249,181.595,187.094,190.662,192.196,193.73,196.987,200.594,204.293,207.549,209.675,213.308,214.654,216.032,218.437,219.782,221.128,224.293,227.426,229.552,233.185,234.706,238.275,241.882,245.139,246.484,247.862,252.139,255.272,257.424,261.005,263.131,266.264,267.798,269.176,272.088,273.622,275.143,280.564,283.697,285.848,289.105" svgx:width="0.53,0.21,0.21,0.53,0.55,0.33,0.48,0.57,0.55,0.48,0.21,0.21,0.49,0.21,0.21,0.49,0.21,0.21,0.53,0.55,0.33,0.43,0.21,0.21,0.37,0.21,0.21,0.49,0.48,0.56,0.56,0.5,0.33,0.83,0.48,0.56,0.21,0.21,0.8,0.21,0.21,0.49,0.23,0.24,0.48,0.23,0.55,0.4,0.21,0.21,0.49,0.21,0.21,0.85,0.55,0.24,0.24,0.5,0.56,0.57,0.5,0.33,0.56,0.21,0.21,0.37,0.21,0.21,0.49,0.48,0.33,0.56,0.23,0.55,0.56,0.5,0.21,0.21,0.66,0.48,0.33,0.55,0.33,0.48,0.24,0.21,0.45,0.24,0.23,0.83,0.48,0.33,0.5,0.21" style="fill:rgb(0,0,0);font-family:MyriadPro;font-size:6.5px;stroke:none;">P. Potapov, F. E. Putz, J. Sanderman, M. Silvius, E. Wollenberg, J. Fargione, Natural climate </text>
   <text y="208.647" x="51.01,53.584,57.152,58.686,62.268,64.419,65.94,69.509,73.116,75.69,77.036" svgx:width="0.4,0.55,0.24,0.55,0.33,0.23,0.55,0.56,0.4,0.21,0.21" style="fill:rgb(0,0,0);font-family:MyriadPro;font-size:6.5px;stroke:none;">solutions. </text>
   <text y="208.647" x="78.414,81.709,85.817,89.509" svgx:width="0.51,0.63,0.57,0.47" style="fill:rgb(0,0,0);font-family:MyriadPro-Italic;font-size:6.5px;stroke:none;">PNAS</text>
   <text y="208.647" x="92.538" svgx:width="0.21" style="fill:rgb(0,0,0);font-family:MyriadPro;font-size:6.5px;stroke:none;"> </text>
   <text y="208.647" x="93.916,97.524,101.131" svgx:width="0.56,0.56,0.56" style="fill:rgb(0,0,0);font-family:MyriadPro-Bold;font-size:6.5px;stroke:none;">114</text>
   <text y="208.647" x="104.739,106.084,107.462,110.797,114.131,117.466,120.8,124.135,127.385,130.719,134.054,137.388,140.723,144.057,145.435,147.281,150.616,153.95,157.285,160.619,162.465" svgx:width="0.21,0.21,0.51,0.51,0.51,0.51,0.51,0.5,0.51,0.51,0.51,0.51,0.51,0.21,0.28,0.51,0.51,0.51,0.51,0.28,0.21" style="fill:rgb(0,0,0);font-family:MyriadPro;font-size:6.5px;stroke:none;">, 11645–11650 (2017).</text>
   <text y="217.65" x="36.008,36.008,39.342,42.677,46.011,47.357,48.722,51.01,53.415,54.76,56.106,59.603,60.948,62.294,66.623,69.879,70.965,74.033,77.601,81.209,84.842,86.188,87.566,90.764,92.109,93.455,96.523,97.868,99.214,102.379,104.505,107.566,108.912,110.29,114.489,115.834,117.18,120.345,121.691,123.036,126.663,129.92,133.176,136.784,138.129,139.507,142.965,144.311,145.656,149.179,152.312,154.438,158.104,161.672,163.206,164.552,165.93,171.429,175.036,178.098,179.476,182.609,184.734,187.991,189.369,193.067,194.601,197.734,201.342,203.493,205.489,208.063,211.631,213.152,214.686,216.064,217.962,221.219,224.475,228.141,231.84,234.973,237.885,240.933,243.507" svgx:width="0.21,0.51,0.51,0.51,0.21,0.21,0.55,0.37,0.21,0.21,0.54,0.21,0.21,0.67,0.5,0.21,0.47,0.55,0.56,0.56,0.21,0.21,0.49,0.21,0.21,0.47,0.21,0.21,0.49,0.33,0.47,0.21,0.21,0.65,0.21,0.21,0.49,0.21,0.21,0.56,0.5,0.5,0.56,0.21,0.21,0.53,0.21,0.21,0.54,0.48,0.33,0.56,0.55,0.24,0.21,0.21,0.85,0.56,0.47,0.21,0.48,0.33,0.5,0.21,0.57,0.24,0.48,0.56,0.33,0.31,0.4,0.55,0.23,0.24,0.21,0.29,0.5,0.5,0.56,0.57,0.48,0.45,0.47,0.4,0.21" style="fill:rgb(0,0,0);font-family:MyriadPro;font-size:6.5px;stroke:none;"> 108. J. R. De Long, E. L. Fry, G. F. Veen, P. Kardol, Why are plant-soil feedbacks </text>
   <text y="226.652" x="51.01,53.584,57.152,58.238,61.819,65.427,69.125,71.251,74.507,78.173,79.694,82.606,84.758,87.891,91.589,93.123,96.38,97.725,99.103,102.236,105.844,109.51,110.595,115.379,118.987,122.12,124.271,125.649,127.801,131.369,132.455,136.121,139.689,141.067,144.2,147.899,151.467,155.049,157.2,158.578,160.099,162.251,164.89" svgx:width="0.4,0.55,0.21,0.55,0.56,0.57,0.33,0.5,0.56,0.23,0.45,0.33,0.48,0.57,0.24,0.5,0.21,0.21,0.48,0.56,0.56,0.21,0.74,0.56,0.48,0.33,0.21,0.33,0.55,0.21,0.56,0.55,0.21,0.48,0.57,0.55,0.55,0.33,0.21,0.23,0.33,0.41,0.21" style="fill:rgb(0,0,0);font-family:MyriadPro;font-size:6.5px;stroke:none;">so unpredictable, and what to do about it? </text>
   <text y="226.652" x="166.268,169.29,172.709,176.18,178.93,180.964,182.336,183.519,186.574,189.323,192.716,194.205" svgx:width="0.47,0.53,0.53,0.42,0.31,0.21,0.18,0.47,0.42,0.52,0.23,0.21" style="fill:rgb(0,0,0);font-family:MyriadPro-Italic;font-size:6.5px;stroke:none;">Funct. Ecol.</text>
   <text y="226.652" x="195.576" svgx:width="0.21" style="fill:rgb(0,0,0);font-family:MyriadPro;font-size:6.5px;stroke:none;"> </text>
   <text y="226.652" x="196.954,200.562" svgx:width="0.56,0.56" style="fill:rgb(0,0,0);font-family:MyriadPro-Bold;font-size:6.5px;stroke:none;">33</text>
   <text y="226.652" x="204.169,205.515,206.893,210.227,213.562,216.896,220.146,223.481,226.815,230.15,231.528,233.374,236.708,240.043,243.377,246.712,248.558" svgx:width="0.21,0.21,0.51,0.51,0.51,0.5,0.51,0.51,0.51,0.21,0.28,0.51,0.51,0.51,0.51,0.28,0.21" style="fill:rgb(0,0,0);font-family:MyriadPro;font-size:6.5px;stroke:none;">, 118–128 (2019).</text>
   <text y="64.659" x="303.015,307.279,310.21,313.733,317.542,321.293,326.226,328.014,331.446,335.32,339.122,344.712,348.144,351.953,354.339,357.16" svgx:width="0.66,0.45,0.54,0.59,0.58,0.76,0.28,0.53,0.6,0.58,0.86,0.53,0.59,0.37,0.43,0.2" style="fill:rgb(0,0,0);font-family:MyriadPro-Bold;font-size:6.5px;stroke:none;">Acknowledgments </text>
   <text y="73.662" x="303.015,306.44,310.23,314.039,317.913,319.694,323.503,327.305" svgx:width="0.53,0.58,0.59,0.6,0.27,0.59,0.58,0.26" style="fill:rgb(0,0,0);font-family:MyriadPro-Bold;font-size:6.5px;stroke:none;">Funding:</text>
   <text y="73.662" x="328.995,330.373,333.539,334.884,336.438,337.783,341.241,342.587,343.965,348.749,351.882,354.456,355.834,358.408,361.989,365.688,369.386,372.955,375.08,377.232,380.488,384.154,385.532,389.23,392.292,393.67,395.821,399.429,402.685,404.063,407.268,410.966,414.099,417.707,419.228,421.802,425.409,426.787,430.284,433.541,436.115,439.371,442.504,444.63,447.542,451.149,452.527,456.505,460.139,463.395,467.003,469.915,472.976,474.354,476.2,479.834,481.959,485.092,488.7,490.851,492.229,495.999,500.198,503.266,506.601,509.935,513.27,516.604,518.6,521.934,525.269,528.603,531.938,535.272,537.268,540.765,542.611,543.956,545.334,547.739,549.085,552.543,553.888,554.766,557.34" svgx:width="0.21,0.49,0.21,0.24,0.21,0.53,0.21,0.21,0.74,0.48,0.4,0.21,0.4,0.55,0.57,0.57,0.55,0.33,0.33,0.5,0.56,0.21,0.57,0.47,0.21,0.33,0.56,0.5,0.21,0.49,0.57,0.48,0.56,0.23,0.4,0.56,0.21,0.54,0.5,0.4,0.5,0.48,0.33,0.45,0.56,0.21,0.61,0.56,0.5,0.56,0.45,0.47,0.21,0.28,0.56,0.33,0.48,0.56,0.33,0.21,0.58,0.65,0.47,0.51,0.51,0.51,0.51,0.31,0.51,0.51,0.51,0.51,0.51,0.31,0.54,0.28,0.21,0.21,0.37,0.21,0.53,0.21,0.21,0.4,0.21" style="fill:rgb(0,0,0);font-family:MyriadPro;font-size:6.5px;stroke:none;"> F.I.P. was supported by the Spanish Research Agency (grant CGL2017-84515-R). J.P.’s </text>
   <text y="82.664" x="303.015,305.14,308.397,310.971,314.227,317.36,319.486,322.398,326.005,327.383,332.167,335.3,337.874,339.252,341.15,344.732,348.339,352.005,355.262,358.928,360.306,364.004,367.066,368.444,370.595,374.203,377.459,378.837,382.035,385.617,387.742,391.311,395.009,398.266,401.399,405.006,406.384,409.881,413.138,415.712,418.968,422.101,424.227,427.139,430.746,432.124,435.894,439.463,443.044,446.652,449.564,451.085,452.619,453.997,457.201,460.263,463.87,467.127,469.252,472.886,475.947,477.325,480.959,483.084,486.217,489.825,491.976,493.354,495.2,498.398,501.895,505.665,507.661,510.865,513.927,518.125,520.121,523.455,526.79,530.124,533.459,535.454,538.789,542.123,545.458,548.792,552.127,555.461,556.807" svgx:width="0.33,0.5,0.4,0.5,0.48,0.33,0.45,0.56,0.21,0.74,0.48,0.4,0.21,0.29,0.55,0.56,0.56,0.5,0.56,0.21,0.57,0.47,0.21,0.33,0.56,0.5,0.21,0.49,0.55,0.33,0.55,0.57,0.5,0.48,0.56,0.21,0.54,0.5,0.4,0.5,0.48,0.33,0.45,0.56,0.21,0.58,0.55,0.55,0.56,0.45,0.23,0.24,0.21,0.49,0.47,0.56,0.5,0.33,0.56,0.47,0.21,0.56,0.33,0.48,0.56,0.33,0.21,0.28,0.49,0.54,0.58,0.31,0.49,0.47,0.65,0.31,0.51,0.51,0.51,0.51,0.31,0.51,0.51,0.51,0.51,0.51,0.51,0.21,0.21" style="fill:rgb(0,0,0);font-family:MyriadPro;font-size:6.5px;stroke:none;">research was funded by the European Research Council Synergy grant (ERC-SyG-2013-610028, </text>
   <text y="91.667" x="303.015,304.568,309.794,313.317,317.295,320.363,324.341,328.618,332.388,335.586,337.582,341.04,342.886,344.231,345.609,349.587,350.933,355.132,356.477,357.855,362.639,365.772,368.346,369.724,372.298,375.88,379.578,383.277,386.845,388.971,391.122,394.379,398.045,399.423,403.121,406.183,407.561,410.726,415.204,419.482,423.811,427.009,430.779,434.295,437.526,439.521,443.291,446.899,448.42,449.954,453.21,454.588,457.923,461.257,464.592,467.926,471.261,474.595,477.93,479.308,482.441,486.048,489.714,491.092,494.862,499.34,503.617,505.171,508.941,512.457,515.688,517.066,521.044,524.21,527.733,529.111,532.445,535.779,539.114,542.448,545.783,547.128" svgx:width="0.24,0.8,0.54,0.61,0.47,0.61,0.66,0.58,0.49,0.31,0.53,0.28,0.21,0.21,0.61,0.21,0.65,0.21,0.21,0.74,0.48,0.4,0.21,0.4,0.55,0.57,0.57,0.55,0.33,0.33,0.5,0.56,0.21,0.57,0.47,0.21,0.49,0.69,0.66,0.67,0.49,0.58,0.54,0.5,0.31,0.58,0.56,0.23,0.24,0.5,0.21,0.51,0.51,0.51,0.51,0.51,0.51,0.51,0.21,0.48,0.56,0.56,0.21,0.58,0.69,0.66,0.24,0.58,0.54,0.5,0.21,0.61,0.49,0.54,0.21,0.51,0.51,0.51,0.51,0.51,0.21,0.21" style="fill:rgb(0,0,0);font-family:MyriadPro;font-size:6.5px;stroke:none;">IMBALANCE-P). A.G. was supported by FONDECYT-Chile 1160138 and CONICYT AFB 17008. </text>
   <text y="100.669" x="303.015,306.473,307.818,311.341,312.687,316.184,317.529,318.407,320.981,322.359,324.484,327.741,330.315,333.571,336.704,338.83,341.742,345.349,346.727,351.511,354.644,357.218,358.596,361.17,364.752,368.45,372.149,375.717,377.843,379.994,383.251,386.917,388.295,391.993,395.055,396.432,398.584,402.191,405.448,406.826,411.103,414.236,416.387,417.908,421.477,425.085,428.217,429.751,431.129,434.334,437.246,438.767,442.023,445.631,448.543,451.799,453.177,456.343,459.911,463.493,467.1,470.766,473.899,476.051,477.572,481.14,484.748,486.126,487.972,492.249,495.453,498.619,500.465,501.843,505.477,507.602,510.735,514.342,516.494,519.068,520.446,524.775,527.973,531.496,533.491,536.826,540.16,543.495,546.829,550.164,553.498,556.833" svgx:width="0.53,0.21,0.54,0.21,0.54,0.21,0.21,0.4,0.21,0.33,0.5,0.4,0.5,0.48,0.33,0.45,0.56,0.21,0.74,0.48,0.4,0.21,0.4,0.55,0.57,0.57,0.55,0.33,0.33,0.5,0.56,0.21,0.57,0.47,0.21,0.33,0.56,0.5,0.21,0.66,0.48,0.33,0.23,0.55,0.56,0.48,0.24,0.21,0.49,0.45,0.23,0.5,0.56,0.45,0.5,0.21,0.49,0.55,0.55,0.56,0.56,0.48,0.33,0.23,0.55,0.56,0.21,0.28,0.66,0.49,0.49,0.28,0.21,0.56,0.33,0.48,0.56,0.33,0.4,0.21,0.67,0.49,0.54,0.31,0.51,0.51,0.51,0.51,0.51,0.51,0.51,0.21" style="fill:rgb(0,0,0);font-family:MyriadPro;font-size:6.5px;stroke:none;">P.B.R.’s research was supported by the National Science Foundation (NSF) grants DEB-1831944 </text>
   <text y="109.672" x="303.015,306.148,309.755,313.421,314.799,319.128,322.326,325.849,327.845,331.179,334.514,337.848,341.183,344.517,347.852,351.186,352.532" svgx:width="0.48,0.56,0.56,0.21,0.67,0.49,0.54,0.31,0.51,0.51,0.51,0.51,0.51,0.51,0.51,0.21,0.21" style="fill:rgb(0,0,0);font-family:MyriadPro;font-size:6.5px;stroke:none;">and DEB-1753859. </text>
   <text y="109.672" x="353.91,358.174,361.963,364.349,368.158,371.908,374.378,375.691,378.623,382.373,386.182,388.568,391.038,392.819,396.706,400.495,402.881,404.662,408.412,412.221,415.042" svgx:width="0.66,0.58,0.37,0.59,0.58,0.38,0.2,0.45,0.58,0.59,0.37,0.38,0.27,0.6,0.58,0.37,0.27,0.58,0.59,0.43,0.26" style="fill:rgb(0,0,0);font-family:MyriadPro-Bold;font-size:6.5px;stroke:none;">Author contributions:</text>
   <text y="109.672" x="416.732,418.11,421.276,422.621,424.175,425.52,428.978,430.324,431.702,433.853,437.422,440.99,444.039,445.417,447.568,451.176,454.432,455.81,457.331,460.939,462.46,464.611,466.132,469.265,471.416,472.937,476.064,479.32,480.698,483.831,487.439,491.105,492.483,494.017,497.273,500.939,502.285,503.663,506.796,510.403,514.069,515.447,518.58,520.114,521.648,523.026,525.938,529.507,532.64,536.221,538.373,541.98,545.549,547.674,550.248" svgx:width="0.21,0.49,0.21,0.24,0.21,0.53,0.21,0.21,0.33,0.55,0.55,0.47,0.21,0.33,0.56,0.5,0.21,0.23,0.56,0.23,0.33,0.23,0.48,0.33,0.23,0.48,0.5,0.21,0.48,0.56,0.56,0.21,0.24,0.5,0.56,0.21,0.21,0.48,0.56,0.56,0.21,0.48,0.24,0.24,0.21,0.45,0.55,0.48,0.55,0.33,0.56,0.55,0.33,0.4,0.21" style="fill:rgb(0,0,0);font-family:MyriadPro;font-size:6.5px;stroke:none;"> F.I.P. took the initiative and led, and all coauthors </text>
   <text y="118.674" x="303.015,305.927,309.495,313.103,315.254,317.38,318.901,322.599,326.181,328.332,331.589,335.255,336.633,339.889,343.549,347.13,350.263,351.797,353.331,356.393,357.771,359.922,363.491,364.869,367.02,370.628,373.884,375.262,380.046,382.172,383.693,385.844,387.365,390.973,394.606,395.984,399.553,401.451,402.829,404.98,408.588,411.844,413.222,418.643,421.776,425.384,428.965,431.539,434.451,436.577,438.098,441.796,443.948,445.293" svgx:width="0.45,0.55,0.56,0.33,0.33,0.23,0.57,0.55,0.33,0.5,0.56,0.21,0.5,0.56,0.55,0.48,0.24,0.24,0.47,0.21,0.33,0.55,0.21,0.33,0.56,0.5,0.21,0.74,0.33,0.23,0.33,0.23,0.56,0.56,0.21,0.55,0.29,0.21,0.33,0.56,0.5,0.21,0.83,0.48,0.56,0.55,0.4,0.45,0.33,0.23,0.57,0.33,0.21,0.21" style="fill:rgb(0,0,0);font-family:MyriadPro;font-size:6.5px;stroke:none;">contributed equally to the writing of the manuscript. </text>
   <text y="118.674" x="446.671,450.538,454.289,459.879,463.766,467.198,469.583,471.364,475.173,478.976,480.289,482.07,485.879,488.264,491.696,494.166,497.598,500.419,502.805,505.626" svgx:width="0.6,0.58,0.86,0.6,0.53,0.37,0.27,0.59,0.58,0.2,0.27,0.59,0.37,0.53,0.38,0.53,0.43,0.37,0.43,0.26" style="fill:rgb(0,0,0);font-family:MyriadPro-Bold;font-size:6.5px;stroke:none;">Competing interests:</text>
   <text y="118.674" x="507.316,508.694,511.924,515.532,518.788,520.166,523.299,526.881,529.032,532.64,536.208,538.334,540.908" svgx:width="0.21,0.5,0.56,0.5,0.21,0.48,0.55,0.33,0.56,0.55,0.33,0.4,0.21" style="fill:rgb(0,0,0);font-family:MyriadPro;font-size:6.5px;stroke:none;"> The authors </text>
   <text y="127.677" x="303.015,306.733,310.041,313.005,314.591,317.776,319.954,323.262,324.692,326.896,330.555,333.74,335.944,337.374,339.577,343.237,346.545,349.659,351.089,354.748,357.933,361.111,364.42,365.85,369.509,373.13,374.56,377.524,381.144,386.617,390.368,393.676,395.88,397.453,401.112,404.798,406.228,407.801,411.46,413.664,416.972,419.15,422.458,425.084,427.288,429.914,431.311" svgx:width="0.56,0.5,0.45,0.24,0.48,0.33,0.5,0.21,0.33,0.56,0.48,0.33,0.21,0.33,0.56,0.5,0.47,0.21,0.56,0.48,0.48,0.5,0.21,0.56,0.55,0.21,0.45,0.55,0.83,0.57,0.5,0.33,0.23,0.56,0.56,0.21,0.23,0.56,0.33,0.5,0.33,0.5,0.4,0.33,0.4,0.21,0.21" style="fill:rgb(0,0,0);font-family:MyriadPro;font-size:6.5px;stroke:none;">declare that they have no competing interests. </text>
   <text y="127.677" x="432.741,437.317,440.801,443.239,446.723,448.088,451.572,455.433,459.359,460.724,466.366,469.85,472.287,475.771,478.293,480.126,483.61,485.45,488.323,489.688,493.172,496.669,500.153,501.986,503.825,507.309,511.248,513.081,514.921,516.754,519.191,522.643" svgx:width="0.7,0.53,0.37,0.53,0.2,0.53,0.59,0.6,0.2,0.86,0.53,0.37,0.53,0.38,0.27,0.53,0.28,0.43,0.2,0.53,0.53,0.53,0.27,0.28,0.53,0.6,0.27,0.28,0.27,0.37,0.52,0.26" style="fill:rgb(0,0,0);font-family:MyriadPro-Bold;font-size:6.5px;stroke:none;">Data and materials availability:</text>
   <text y="127.677" x="524.385,525.815,529.845,531.431,533.017,534.447,538.165,541.35,543.553,546.686" svgx:width="0.21,0.61,0.24,0.24,0.21,0.56,0.48,0.33,0.48,0.21" style="fill:rgb(0,0,0);font-family:MyriadPro;font-size:6.5px;stroke:none;"> All data </text>
   <text y="136.679" x="303.015,306.622,309.879,313.135,316.801,320.058,323.724,325.102,327.253,330.822,332.2,335.456,338.583,341.716,343.25,346.831,349.964,352.116,355.372,356.75,358.902,362.509,365.766,367.144,370.056,373.624,377.232,380.144,381.678,385.259,387.833,389.354,392.923,396.53,399.104,400.482,402.003,405.611,406.989,409.14,412.748,416.004,417.382,421.081,424.214,427.912,431.169,433.294,434.672,437.805,439.931,443.187,444.565,448.263,450.389,453.645,456.219,459.476,463.083,465.235,466.613,468.134,471.741,473.119,475.271,478.878,482.135,483.513,487.211,490.344,494.043,497.299,499.425,500.77,502.148,506.126,509.792,513.458,514.979,517.131,518.652,522.22,525.828,528.961,530.495,531.873,535.539,538.672,540.823,543.956" svgx:width="0.56,0.5,0.5,0.56,0.5,0.56,0.21,0.33,0.55,0.21,0.5,0.48,0.48,0.24,0.55,0.48,0.33,0.5,0.21,0.33,0.56,0.5,0.21,0.45,0.55,0.56,0.45,0.24,0.55,0.4,0.23,0.55,0.56,0.4,0.21,0.23,0.56,0.21,0.33,0.56,0.5,0.21,0.57,0.48,0.57,0.5,0.33,0.21,0.48,0.33,0.5,0.21,0.57,0.33,0.5,0.4,0.5,0.56,0.33,0.21,0.23,0.56,0.21,0.33,0.56,0.5,0.21,0.57,0.48,0.57,0.5,0.33,0.21,0.21,0.61,0.56,0.56,0.23,0.33,0.23,0.55,0.56,0.48,0.24,0.21,0.56,0.48,0.33,0.48,0.21" style="fill:rgb(0,0,0);font-family:MyriadPro;font-size:6.5px;stroke:none;">needed to evaluate the conclusions in the paper are present in the paper. Additional data </text>
   <text y="145.682" x="303.015,305.14,308.397,309.931,313.064,315.215,318.472,322.138,323.516,325.667,329.236,330.614,332.765,336.373,337.894,340.468,341.846,345.544,348.677,352.376,355.632,357.758,359.135,364.556,367.689,370.751,372.129,375.827,379.084,380.462,382.587,385.844,389.503,393.085,396.341,398.915,401.067,404.323,407.989,409.367,411.265,413.391,416.959,422.38,423.758,425.91,429.517,432.774,434.152,437.285,440.866,443.018,446.625,450.194,452.319,454.893" svgx:width="0.33,0.5,0.24,0.48,0.33,0.5,0.56,0.21,0.33,0.55,0.21,0.33,0.56,0.23,0.4,0.21,0.57,0.48,0.57,0.5,0.33,0.21,0.83,0.48,0.47,0.21,0.57,0.5,0.21,0.33,0.5,0.56,0.55,0.5,0.4,0.33,0.5,0.56,0.21,0.29,0.33,0.55,0.83,0.21,0.33,0.56,0.5,0.21,0.48,0.55,0.33,0.56,0.55,0.33,0.4,0.21" style="fill:rgb(0,0,0);font-family:MyriadPro;font-size:6.5px;stroke:none;">related to this paper may be requested from the authors.</text>
   <text y="163.68" x="303.015,306.219,309.801,313.499,318.92,320.441,322.593,324.744,328.001,331.667,333.045,336.379,339.714,341.092,345.07,348.651,352.285,355.866,358.44,360.592,361.97,365.304,368.639,371.973" svgx:width="0.49,0.55,0.57,0.83,0.23,0.33,0.33,0.5,0.56,0.21,0.51,0.51,0.21,0.61,0.55,0.56,0.55,0.4,0.33,0.21,0.51,0.51,0.51,0.51" style="fill:rgb(0,0,0);font-family:MyriadPro;font-size:6.5px;stroke:none;">Submitted 19 August 2019</text>
   <text y="172.683" x="303.015,306.993,309.905,312.817,316.073,319.772,321.923,325.18,328.846,330.224,333.558,336.893,338.271,342.749,345.661,347.813,351.381,355.079,358.336,360.461,361.839,365.174,368.508,371.843" svgx:width="0.61,0.45,0.45,0.5,0.57,0.33,0.5,0.56,0.21,0.51,0.51,0.21,0.69,0.45,0.33,0.55,0.57,0.5,0.33,0.21,0.51,0.51,0.51,0.51" style="fill:rgb(0,0,0);font-family:MyriadPro;font-size:6.5px;stroke:none;">Accepted 28 October 2019</text>
   <text y="181.685" x="303.015,306.473,310.054,313.753,315.287,316.808,319.382,322.989,326.246,329.912,331.29,334.624,337.959,339.337,343.614,347.182,350.309,353.565,358.986,362.685,365.941,368.067,369.445,372.779,376.114,379.448" svgx:width="0.53,0.55,0.57,0.24,0.23,0.4,0.56,0.5,0.56,0.21,0.51,0.51,0.21,0.66,0.55,0.48,0.5,0.83,0.57,0.5,0.33,0.21,0.51,0.51,0.51,0.51" style="fill:rgb(0,0,0);font-family:MyriadPro;font-size:6.5px;stroke:none;">Published 27 November 2019</text>
   <text y="190.688" x="303.015,306.349,309.684,311.029,314.364,317.698,321.033,324.367,326.597,329.171,332.083,333.604,336.737,340.403,343.529,344.875,348.008,351.141,353.923,357.257,360.592,363.926" svgx:width="0.51,0.51,0.21,0.51,0.51,0.51,0.51,0.34,0.4,0.45,0.23,0.48,0.56,0.48,0.21,0.48,0.48,0.43,0.51,0.51,0.51,0.51" style="fill:rgb(0,0,0);font-family:MyriadPro;font-size:6.5px;stroke:none;">10.1126/sciadv.aaz1834</text>
   <text y="208.686" x="303.015,306.817,308.533,310.854,314.221,316.541,318.257,321.943,325.687" svgx:width="0.6,0.27,0.37,0.53,0.37,0.27,0.58,0.59,0.26" style="fill:rgb(177,5,8);font-family:MyriadPro-Bold;font-size:6.5px;stroke:none;">Citation:</text>
   <text y="208.686" x="327.312,328.576,331.676,332.957,334.234,335.723,337.003,338.267,341.66,345.177,348.745,352.288,355.356,356.812,358.872,362.064,363.344,364.612,366.952,368.232,369.51,373.423,374.703,375.967,381.128,384.632,386.692,388.148,389.617,391.086,394.59,395.87,397.138,399.478,400.758,402.036,405.429,408.62,412.163,415.679,418.871,420.34,423.408,425.917,427.197,428.461,431.854,433.135,434.412,437.87,439.151,440.415,443.847,447.038,448.494,451.341,454.884,456.164,457.432,460.864,462.144,463.422,467.686,468.966,470.23,473.688,476.756,478.817,482.418,485.986,489.178,491.264,493.351,494.631,495.899,499.812,501.092,502.37,506.504,509.572,512.516,513.972,517.476,518.945,522.013,523.293,524.561,528.825,530.105,531.379,535.292,536.573,537.837,543.271,546.339,548.399,552.0,553.469,556.661,558.006" svgx:width="0.21,0.49,0.21,0.21,0.24,0.21,0.21,0.53,0.55,0.56,0.56,0.48,0.23,0.33,0.5,0.21,0.21,0.37,0.21,0.21,0.61,0.21,0.21,0.8,0.55,0.33,0.23,0.24,0.24,0.55,0.21,0.21,0.37,0.21,0.21,0.53,0.5,0.56,0.55,0.5,0.24,0.48,0.4,0.21,0.21,0.53,0.21,0.21,0.54,0.21,0.21,0.54,0.5,0.23,0.45,0.56,0.21,0.21,0.54,0.21,0.21,0.67,0.21,0.21,0.54,0.48,0.33,0.56,0.56,0.5,0.33,0.33,0.21,0.21,0.61,0.21,0.21,0.65,0.48,0.46,0.23,0.55,0.24,0.48,0.21,0.21,0.67,0.21,0.21,0.61,0.21,0.21,0.85,0.48,0.33,0.56,0.24,0.5,0.21,0.21" style="fill:rgb(0,0,0);font-family:MyriadPro;font-size:6.5px;stroke:none;"> F. I. Pugnaire, J. A. Morillo, J. Peñuelas, P. B. Reich, R. D. Bardgett, A. Gaxiola, D. A. Wardle, </text>
   <text y="217.689" x="303.008,308.572,309.983,311.393,315.696,317.107,318.47200000000004,318.959,322.151,325.349,329.021,330.386,330.874,334.605,337.926,340.117,341.482,341.969,345.492,349.139,351.355,353.572,356.893,360.566,361.976,363.341,363.829,367.664,369.263,370.849,376.335,379.533,381.749,385.071,386.43600000000004,386.923,389.9,393.573,396.771,400.443,404.142,407.463,408.82800000000003,409.316,412.637,414.6,416.563,419.885,422.862,425.078,427.717,429.082,429.57,433.203,436.876,438.241,438.728,442.492,444.091,447.289,450.961,453.178,455.238,457.877,461.511,463.097,464.696,466.06100000000004,466.548,468.511,471.833,475.154,478.885,482.649,485.847,488.824,491.937,494.576,495.94100000000003,496.429,499.627,503.299,507.03,508.395,508.883,511.86,515.493,519.166,521.805,525.126,528.851,532.497,535.818,539.491,542.468,545.789,548.428,549.793,550.281,552.244,555.877,558.003" svgx:width="0.85,0.21,0.21,0.65,0.21,0.21,0.55,0.48,0.48,0.56,0.21,0.55,0.56,0.5,0.33,0.21,0.55,0.53,0.55,0.33,0.33,0.5,0.56,0.21,0.21,0.55,0.58,0.24,0.23,0.83,0.48,0.33,0.5,0.21,0.55,0.45,0.56,0.48,0.56,0.56,0.5,0.21,0.55,0.5,0.29,0.29,0.5,0.45,0.33,0.4,0.21,0.55,0.55,0.56,0.21,0.55,0.57,0.24,0.48,0.56,0.33,0.31,0.4,0.55,0.23,0.24,0.21,0.55,0.29,0.5,0.5,0.56,0.57,0.48,0.45,0.47,0.4,0.21,0.55,0.48,0.56,0.56,0.21,0.55,0.45,0.55,0.56,0.4,0.5,0.56,0.55,0.5,0.56,0.45,0.5,0.4,0.21,0.55,0.29,0.55,0.33,0.21" style="fill:rgb(0,0,0);font-family:MyriadPro;font-size:6.5px;stroke:none;">W. H. van der Putten, Climate change effects on plant-soil feedbacks and consequences for </text>
   <text y="226.691" x="303.008,306.707,308.228,311.796,315.462,316.983,320.11,323.366,325.492,328.066,329.587,331.738,334.8,336.178,339.311,342.918,346.584,347.962,349.86,353.442,357.049,359.961,362.113,363.634,367.202,370.81,372.331,375.938,379.572,380.95,384.518,386.416,387.794,389.946,393.202,395.328,397.453,400.71,403.284,405.435,407.561,409.082,412.215,413.749,415.127,418.383,421.295,424.864,427.438,430.499,433.073,435.225,438.481,443.902,446.476,447.822" svgx:width="0.57,0.23,0.55,0.56,0.23,0.48,0.5,0.33,0.4,0.23,0.33,0.47,0.21,0.48,0.56,0.56,0.21,0.29,0.55,0.56,0.45,0.33,0.23,0.55,0.56,0.23,0.56,0.56,0.21,0.55,0.29,0.21,0.33,0.5,0.33,0.33,0.5,0.4,0.33,0.33,0.23,0.48,0.24,0.21,0.5,0.45,0.55,0.4,0.47,0.4,0.33,0.5,0.83,0.4,0.21,0.21" style="fill:rgb(0,0,0);font-family:MyriadPro;font-size:6.5px;stroke:none;">biodiversity and functioning of terrestrial ecosystems. </text>
   <text y="226.691" x="449.2,452.229,454.978,456.467,457.838,459.021,462.713,466.126,469.083" svgx:width="0.47,0.42,0.23,0.21,0.18,0.57,0.52,0.46,0.21" style="fill:rgb(0,0,0);font-family:MyriadPro-Italic;font-size:6.5px;stroke:none;">Sci. Adv.</text>
   <text y="226.691" x="470.455" svgx:width="0.21" style="fill:rgb(0,0,0);font-family:MyriadPro;font-size:6.5px;stroke:none;"> </text>
   <text y="226.691" x="471.833" svgx:width="0.56" style="fill:rgb(0,0,0);font-family:MyriadPro-Bold;font-size:6.5px;stroke:none;">5</text>
   <text y="226.691" x="475.44,476.786,478.164,481.42,484.553,487.686,490.468,493.803,497.137,500.472,503.806,505.184,507.03,510.365,513.699,517.034,520.368,522.214" svgx:width="0.21,0.21,0.5,0.48,0.48,0.43,0.51,0.51,0.51,0.51,0.21,0.28,0.51,0.51,0.51,0.51,0.28,0.21" style="fill:rgb(0,0,0);font-family:MyriadPro;font-size:6.5px;stroke:none;">, eaaz1834 (2019).</text>
  </g>
 </g>
</svg>
