<?xml version="1.0" encoding="UTF-8"?>
<svg height="767.02" width="588.1816" xmlns="http://www.w3.org/2000/svg">
 <g id="page" xmlns:svgx="http://www.xml-cml.org/schema/svgx">
  <g begin="text">
   <text y="95.301" x="186.86,190.318,196.214,200.81719999999999,203.754,207.892,212.777,221.675,226.2782,229.331,233.414,236.358,239.763,244.418,248.36360000000002,251.448,256.332,262.356,268.0552,271.087,274.489,277.434,286.428,291.082,295.0276,298.112,303.687,306.8654,309.867,312.702,317.356,322.241,325.4194,328.42,333.075,338.65,341.485,344.32,348.974,353.628,357.033,359.978,365.553,371.577,373.9882,376.963,379.908,383.196,386.201,389.145,393.0906,396.176,402.2,407.775,411.063,414.067,418.149,421.554,425.639,430.523,433.468,438.582,444.497,447.902,451.186,456.761,460.899,468.414,473.298,477.383,483.0822,486.114,489.519,494.999,498.023,502.677,508.252,514.276,518.361,521.305,527.099,531.754,535.6996,538.784,543.668,549.692,554.807,558.212,564.127,567.071,573.095" svgx:width="0.3,0.53,0.42,0.55,0.36,0.44,0.81,0.42,0.55,0.36,0.26,0.3,0.42,0.36,0.55,0.44,0.54,0.52,0.55,0.3,0.26,0.81,0.42,0.36,0.55,0.5,0.29,0.55,0.25,0.42,0.44,0.29,0.55,0.42,0.5,0.25,0.25,0.42,0.42,0.3,0.26,0.5,0.54,0.22,0.55,0.26,0.3,0.55,0.26,0.36,0.55,0.54,0.5,0.3,0.55,0.36,0.3,0.36,0.44,0.26,0.46,0.53,0.3,0.29,0.5,0.36,0.68,0.44,0.36,0.52,0.55,0.3,0.5,0.55,0.42,0.5,0.54,0.36,0.26,0.52,0.42,0.36,0.55,0.44,0.54,0.46,0.3,0.53,0.26,0.54,0.46" style="fill:rgb(0,0,0);font-family:AdvOT1ef757c0;font-size:10.96px;stroke:none;">the same sites and times of leaf collection, it is not straightforward to consider anything</text>
  </g>
  <g begin="text">
   <text y="110.268" x="186.86,192.472,195.874,201.779,206.425,210.37060000000002,213.795,217.197,223.149,228.025,233.9434,237.323,243.389,246.324,249.721,253.796,259.362,264.468,269.114,275.0324,278.468,283.117,288.683,294.699,298.095,302.8,308.816,312.212,314.6232,317.995,325.819,328.755,333.914,338.56,344.4784,347.857,351.253,357.159,362.092,365.38,368.781,374.797,380.27700000000004,383.641,389.207" svgx:width="0.5,0.3,0.53,0.42,0.36,0.55,0.3,0.53,0.44,0.54,0.55,0.54,0.26,0.3,0.36,0.5,0.46,0.42,0.54,0.55,0.42,0.5,0.54,0.3,0.42,0.54,0.3,0.22,0.55,0.71,0.26,0.46,0.42,0.54,0.55,0.3,0.53,0.44,0.3,0.55,0.54,0.5,0.55,0.5,0.54" style="fill:rgb(0,0,0);font-family:AdvOT1ef757c0;font-size:10.96px;stroke:none;">other than nitrogen content. Given that no on</text>
  </g>
  <g begin="text">
   <text y="110.268" x="395.263,399.8662,403.199,407.848,413.423,416.258,419.093,423.799,428.453,431.858,436.512,442.2112,445.583,449.668,455.242,458.187,461.022,464.9676,468.392,473.268,476.556,479.957,484.606,489.49,494.196,500.00480000000005,503.381,509.277,512.222,516.306,519.711,525.286,529.37,532.315,536.969,541.854,544.594,547.976,552.059,555.003,558.408,563.063" svgx:width="0.42,0.55,0.42,0.5,0.25,0.25,0.42,0.42,0.3,0.42,0.52,0.55,0.36,0.5,0.26,0.25,0.36,0.55,0.44,0.3,0.55,0.42,0.44,0.42,0.53,0.55,0.53,0.26,0.36,0.3,0.5,0.36,0.26,0.42,0.44,0.25,0.55,0.36,0.26,0.3,0.42,0.22" style="fill:rgb(0,0,0);font-family:AdvOT1ef757c0;font-size:10.96px;stroke:none;">e collected soils at each historical site,</text>
  </g>
  <g begin="text">
   <text y="125.177" x="186.86,194.379,198.98219999999998,202.315,206.974,211.863,217.891,223.92,229.499,232.787,236.188,241.077,246.876,252.674,256.763,261.422,265.56,269.5056,272.93,277.578,283.497,288.386,294.415,299.534,304.192,308.1376,311.562,314.511,320.42940000000004,323.809,329.837,332.787,336.196,340.285,345.864,350.983,355.642,361.5604,364.939,370.738,375.856,381.885,386.774,395.673,398.68,403.338,407.28360000000004,410.708,416.397,422.195,427.084,433.113,436.522,439.471,442.881,447.769,451.179,454.128,459.247,463.905,466.745,471.864,474.2752,477.647,483.445,489.244,493.333,496.742,502.661,507.319,511.408,520.407,525.986,530.075,534.733,537.1442,540.516,543.804,549.383" svgx:width="0.68,0.42,0.55,0.42,0.44,0.54,0.54,0.5,0.3,0.55,0.44,0.52,0.52,0.36,0.42,0.36,0.36,0.55,0.42,0.53,0.44,0.54,0.46,0.42,0.36,0.55,0.26,0.54,0.55,0.54,0.26,0.3,0.36,0.5,0.46,0.42,0.54,0.55,0.52,0.46,0.54,0.44,0.81,0.26,0.42,0.36,0.55,0.51,0.52,0.44,0.54,0.3,0.26,0.3,0.44,0.3,0.26,0.46,0.42,0.25,0.46,0.22,0.55,0.52,0.52,0.36,0.3,0.53,0.42,0.36,0.81,0.5,0.36,0.42,0.22,0.55,0.29,0.5,0.36" style="fill:rgb(0,0,0);font-family:AdvOT1ef757c0;font-size:10.96px;stroke:none;">we cannot address changes in nitrogen dynamics quantitatively. Furthermore, for</text>
  </g>
  <g begin="text">
   <text y="140.144" x="186.86,191.879,196.438,201.917,204.548,210.027,215.046,217.758,222.3612,224.618,229.407,235.106,240.662,243.402,246.251,250.81,255.599,258.748,261.597,267.076,273.005,276.9506,279.158,282.347,287.826,291.815,295.655,298.505,301.245,303.479,306.219,310.778,315.567,320.487,325.046,328.9916,331.259,336.048,341.861,347.5602,349.854,354.413,359.892,363.743,367.732,372.291,376.28,381.885,387.364,393.293,398.893,401.743,407.567,412.6086,414.88,420.579,425.368,427.976,432.535,438.015,442.004,447.365,450.105,454.05060000000003,456.323,460.082,463.271,468.625,472.614,476.604,479.34,482.08,484.386,488.375,493.74,496.589,499.329,503.208,506.93440000000004,509.273,514.062,517.947,522.5502,524.808,530.737,536.09,539.378,541.702,545.012,550.031,555.592,558.441,563.0,567.789,570.388,573.128" svgx:width="0.46,0.42,0.5,0.25,0.5,0.46,0.26,0.42,0.55,0.44,0.52,0.52,0.25,0.26,0.42,0.44,0.3,0.26,0.5,0.54,0.36,0.55,0.29,0.5,0.36,0.36,0.26,0.25,0.55,0.25,0.42,0.44,0.46,0.42,0.36,0.55,0.44,0.54,0.52,0.55,0.42,0.5,0.36,0.36,0.42,0.36,0.52,0.5,0.54,0.52,0.26,0.54,0.46,0.55,0.52,0.44,0.25,0.42,0.5,0.36,0.5,0.25,0.36,0.55,0.34,0.29,0.5,0.36,0.36,0.26,0.25,0.55,0.36,0.5,0.26,0.25,0.36,0.34,0.55,0.44,0.36,0.42,0.55,0.54,0.5,0.3,0.55,0.3,0.46,0.52,0.26,0.42,0.44,0.25,0.25,0.46" style="fill:rgb(0,0,0);font-family:AdvOT1ef757c0;font-size:10.96px;stroke:none;">geologic applications fossil leaves and corresponding paleosols (fossil soils) are not typically</text>
  </g>
  <g begin="text">
   <text y="155.111" x="186.86,192.66,196.751,201.457,205.539,210.2,214.338,219.46,224.12,229.8192,233.248,236.65,242.231,247.352,252.013,255.472,261.393,266.054,270.192,272.6032,275.975,279.726,285.6444,289.081,294.662,298.753,304.554,309.215,313.1606,316.642,320.043,325.523,328.887,333.82,338.481,343.142,348.723,354.524,360.554,363.842,367.244,370.531,376.113,380.0586,383.483,386.894,392.815,397.4182,400.752,406.591,412.172,415.584,420.29,426.3,429.711,432.716,437.607,440.34700000000004,443.73,447.868,452.744,458.774,463.895,468.4982,471.832,474.78,480.6984,484.135,490.144,493.149,496.551,500.642,506.224,511.345,516.006,521.9244,525.36,531.143,536.264,542.295,547.186,556.085,559.149,563.798,567.889" svgx:width="0.52,0.36,0.42,0.36,0.42,0.36,0.46,0.42,0.52,0.55,0.3,0.5,0.46,0.42,0.3,0.53,0.42,0.36,0.22,0.55,0.33,0.54,0.55,0.5,0.36,0.52,0.42,0.36,0.55,0.3,0.5,0.55,0.44,0.42,0.42,0.5,0.52,0.54,0.3,0.55,0.29,0.5,0.36,0.55,0.3,0.53,0.42,0.55,0.52,0.5,0.3,0.42,0.54,0.3,0.26,0.44,0.25,0.55,0.36,0.44,0.54,0.46,0.42,0.55,0.26,0.54,0.55,0.54,0.26,0.3,0.36,0.5,0.46,0.42,0.54,0.55,0.52,0.46,0.54,0.44,0.81,0.26,0.42,0.36,0.22" style="fill:rgb(0,0,0);font-family:AdvOT1ef757c0;font-size:10.96px;stroke:none;">preserved together. In order to account for the potential range in nitrogen dynamics,</text>
  </g>
  <g begin="text">
   <text y="170.021" x="186.86,194.426,199.02919999999997,202.362,205.698,211.255,215.96,221.743,225.6886,229.113,235.066,239.715,243.797,248.40019999999998,251.791,257.347,263.2654,266.702,272.485,276.621,279.569,285.578,290.6196,294.026,302.924,307.915,313.925,318.9666,322.372,326.454,332.293,336.942,341.591,344.596,353.495,358.259,364.268,368.2136,371.638,374.974,379.057,384.613,393.4906,396.915,401.851,406.5,410.582,416.194,420.277,424.2226,427.647,432.4694,435.867,443.351,446.347,452.13,456.7332,460.067,462.958,467.833,473.899,479.682,483.764,488.47,493.346,499.191,503.7942,507.128,512.684,515.8624,519.317,525.101,528.049,531.384,534.672,539.321,543.403,548.109,554.119" svgx:width="0.68,0.42,0.55,0.29,0.5,0.42,0.52,0.36,0.55,0.53,0.42,0.36,0.42,0.55,0.5,0.54,0.55,0.52,0.36,0.26,0.54,0.46,0.55,0.81,0.44,0.54,0.46,0.55,0.36,0.52,0.42,0.42,0.26,0.81,0.42,0.54,0.36,0.55,0.29,0.36,0.5,0.81,0.55,0.44,0.42,0.36,0.5,0.36,0.36,0.55,0.44,0.55,0.68,0.26,0.52,0.42,0.55,0.25,0.44,0.54,0.52,0.36,0.42,0.44,0.52,0.42,0.55,0.5,0.29,0.55,0.52,0.26,0.29,0.29,0.42,0.36,0.42,0.54,0.3" style="fill:rgb(0,0,0);font-family:AdvOT1ef757c0;font-size:10.96px;stroke:none;">we focus here on using many specimens from across a wide landscape of different</text>
  </g>
  <g begin="text">
   <text y="184.987" x="186.86,189.711,194.612,200.653,206.463,210.455,216.265,220.366,225.037,228.98260000000002,231.613,236.489,242.529,248.2282,250.75,254.171,260.102,265.913,269.8586,272.489,277.3114,279.802,287.342,290.303,296.113,300.7162,303.256,307.339,312.24,318.249,323.38,327.9832,330.524,336.08,339.2584,341.806,347.616,353.173,356.594,361.265,367.305,370.727,373.688" svgx:width="0.25,0.44,0.54,0.52,0.35,0.52,0.36,0.42,0.36,0.55,0.44,0.54,0.52,0.55,0.3,0.53,0.52,0.36,0.55,0.44,0.55,0.68,0.26,0.52,0.42,0.55,0.36,0.44,0.54,0.46,0.42,0.55,0.5,0.29,0.55,0.52,0.5,0.3,0.42,0.54,0.3,0.26,0.44" style="fill:rgb(0,0,0);font-family:AdvOT1ef757c0;font-size:10.96px;stroke:none;">land-uses and thus a wide range of potentia</text>
  </g>
  <g begin="text">
   <text y="184.987" x="378.538,381.278,383.868,389.877,392.834,396.251,400.348,405.935,411.061,415.728,421.6464,424.232,430.015,435.141,441.178,446.074,455.08,458.037,462.703,466.8,469.2112,471.732,477.319,483.125,486.413,488.964,494.803,500.84,506.646,511.312,515.2576,517.888,523.355,529.391,534.978,542.505,548.4234,550.952,554.807,562.104" svgx:width="0.25,0.55,0.54,0.26,0.3,0.36,0.5,0.46,0.42,0.54,0.55,0.52,0.46,0.54,0.44,0.81,0.26,0.42,0.36,0.22,0.55,0.5,0.52,0.3,0.55,0.52,0.54,0.52,0.42,0.36,0.55,0.49,0.54,0.5,0.68,0.54,0.55,0.34,0.66,0.74" style="fill:rgb(0,0,0);font-family:AdvOT1ef757c0;font-size:10.96px;stroke:none;">l nitrogen dynamics, but under known [CO</text>
  </g>
  <g begin="text">
   <text y="186.803" x="570.331" svgx:width="0.48" style="fill:rgb(0,0,0);font-family:AdvOT1ef757c0;font-size:7.31px;stroke:none;">2</text>
  </g>
  <g begin="text">
   <text y="184.989" x="574.356" svgx:width="0.34" style="fill:rgb(0,0,0);font-family:AdvOT1ef757c0;font-size:10.96px;stroke:none;">]</text>
  </g>
  <g begin="text">
   <text y="199.899" x="186.861,191.525,197.11,203.144,208.948,211.902,215.317,218.271,223.856,229.89,233.984,236.39520000000002,239.768,246.628,252.10799999999998,255.472,260.404,265.069,269.733,275.317,281.121,287.155,290.443,293.845,297.139,302.724,306.6696,310.094,316.047,319.001,323.095,326.51,332.095,336.189,339.144,343.808,348.702,351.442,354.825,359.758,365.792,371.4912,374.919,380.044" svgx:width="0.42,0.5,0.54,0.52,0.26,0.3,0.26,0.5,0.54,0.36,0.22,0.55,0.61,0.5,0.55,0.44,0.42,0.42,0.5,0.52,0.54,0.3,0.55,0.29,0.5,0.36,0.55,0.53,0.26,0.36,0.3,0.5,0.36,0.26,0.42,0.44,0.25,0.55,0.44,0.54,0.52,0.55,0.46,0.42" style="fill:rgb(0,0,0);font-family:AdvOT1ef757c0;font-size:10.96px;stroke:none;">conditions. To account for historical and ge</text>
  </g>
  <g begin="text">
   <text y="199.899" x="384.719,390.308,393.157,398.746,403.875,406.834,411.503,416.401,419.141,422.524,425.374,428.332,437.231,440.295,443.715,448.613,452.032,454.991,460.548" svgx:width="0.5,0.25,0.5,0.46,0.26,0.42,0.44,0.25,0.55,0.25,0.26,0.81,0.26,0.3,0.44,0.3,0.26,0.5,0.54" style="fill:rgb(0,0,0);font-family:AdvOT1ef757c0;font-size:10.96px;stroke:none;">ological limitation</text>
  </g>
  <g begin="text">
   <text y="199.899" x="466.64,470.5856,474.01,479.566,482.7444,486.199,490.282,494.942,499.603,505.185,511.215,515.306,518.718,522.809,528.61,533.27,536.729,539.68,545.711" svgx:width="0.36,0.55,0.5,0.29,0.55,0.36,0.42,0.42,0.5,0.54,0.36,0.3,0.36,0.52,0.42,0.3,0.26,0.54,0.46" style="fill:rgb(0,0,0);font-family:AdvOT1ef757c0;font-size:10.96px;stroke:none;">s of reconstructing</text>
  </g>
  <g begin="text">
   <text y="214.866" x="186.861,190.278,196.204,200.8072,204.198,210.208,213.165,216.582,220.678,226.265,231.392,236.058,241.97639999999998,245.413,250.061,255.188,259.854,262.701,267.368,269.7792,273.151,276.61,282.536,285.493,289.4386,292.92,297.002,300.419,306.225,312.031,317.0726,320.478,323.775,329.362,334.028,339.834,343.931,348.597,352.5426,355.967,358.915,364.951" svgx:width="0.3,0.53,0.42,0.55,0.54,0.26,0.3,0.36,0.5,0.46,0.42,0.54,0.55,0.42,0.46,0.42,0.25,0.42,0.22,0.55,0.3,0.53,0.26,0.36,0.55,0.36,0.3,0.52,0.52,0.46,0.55,0.29,0.5,0.42,0.52,0.36,0.42,0.36,0.55,0.26,0.54,0.36" style="fill:rgb(0,0,0);font-family:AdvOT1ef757c0;font-size:10.96px;stroke:none;">the nitrogen cycle, this study focuses ins</text>
  </g>
  <g begin="text">
   <text y="214.866" x="369.015,372.413,377.119,381.997,387.69620000000003,391.124,396.693,402.6114,406.047,409.446,415.354,419.9572,423.347,427.429,432.077,434.968,439.846,443.244,446.182,451.751,457.768,461.906,467.814,470.753,476.4522,479.88,485.436,490.142,493.544,501.052,505.758,510.405,516.3234,519.76,523.838,528.946,533.084,536.486,541.133,550.121,553.059" svgx:width="0.3,0.42,0.44,0.52,0.55,0.5,0.54,0.55,0.3,0.53,0.42,0.55,0.36,0.42,0.25,0.44,0.3,0.26,0.5,0.54,0.36,0.53,0.26,0.52,0.55,0.5,0.42,0.3,0.68,0.42,0.42,0.54,0.55,0.36,0.46,0.36,0.3,0.42,0.81,0.26,0.42" style="fill:rgb(0,0,0);font-family:AdvOT1ef757c0;font-size:10.96px;stroke:none;">tead on the relationship between systemic</text>
  </g>
  <g begin="text">
   <text y="229.832" x="186.861,191.552,197.448,202.37,208.38,213.532,218.18,222.12560000000002,225.55,228.555,234.4734,237.853,245.166,247.688,255.7984,259.14,263.261,268.137,271.539,274.544,280.1,284.04560000000004,287.47,290.452,296.3704,299.749,303.832,308.537,311.41,316.285,319.728,322.71,328.266,334.18440000000004,337.62,341.022" svgx:width="0.42,0.53,0.44,0.54,0.46,0.42,0.36,0.55,0.26,0.54,0.55,0.66,0.22,0.74,0.55,0.36,0.44,0.3,0.26,0.5,0.36,0.55,0.26,0.54,0.55,0.36,0.42,0.25,0.44,0.3,0.26,0.5,0.54,0.55,0.3,0.5" style="fill:rgb(0,0,0);font-family:AdvOT1ef757c0;font-size:10.96px;stroke:none;">changes in C:N ratios in relation to</text>
  </g>
  <g begin="text">
   <text y="229.832" x="349.853" svgx:width="0.5" style="fill:rgb(0,0,0);font-family:AdvPS3F4C13;font-size:10.96px;stroke:none;">d</text>
  </g>
  <g begin="text">
   <text y="224.958" x="355.351,359.376" svgx:width="0.48,0.48" style="fill:rgb(0,0,0);font-family:AdvOT1ef757c0;font-size:7.31px;stroke:none;">13</text>
  </g>
  <g begin="text">
   <text y="229.833" x="363.458" svgx:width="0.66" style="fill:rgb(0,0,0);font-family:AdvOT1ef757c0;font-size:10.96px;stroke:none;">C</text>
  </g>
  <g begin="text">
   <text y="231.647" x="370.715,372.926,376.441,380.126" svgx:width="0.25,0.42,0.44,0.29" style="fill:rgb(0,0,0);font-family:AdvOT1ef757c0;font-size:7.31px;stroke:none;">leaf</text>
  </g>
  <g begin="text">
   <text y="229.833" x="382.677" svgx:width="0.22" style="fill:rgb(0,0,0);font-family:AdvOT1ef757c0;font-size:10.96px;stroke:none;">,</text>
  </g>
  <g begin="text">
   <text y="229.833" x="388.46" svgx:width="0.5" style="fill:rgb(0,0,0);font-family:AdvPS3F4C13;font-size:10.96px;stroke:none;">d</text>
  </g>
  <g begin="text">
   <text y="224.958" x="393.902,397.984" svgx:width="0.48,0.48" style="fill:rgb(0,0,0);font-family:AdvOT1ef757c0;font-size:7.31px;stroke:none;">13</text>
  </g>
  <g begin="text">
   <text y="229.833" x="402.009" svgx:width="0.66" style="fill:rgb(0,0,0);font-family:AdvOT1ef757c0;font-size:10.96px;stroke:none;">C</text>
  </g>
  <g begin="text">
   <text y="231.647" x="409.323,413.025,415.617" svgx:width="0.44,0.3,0.81" style="fill:rgb(0,0,0);font-family:AdvOT1ef757c0;font-size:7.31px;stroke:none;">atm</text>
  </g>
  <g begin="text">
   <text y="229.833" x="422.419,424.8302,428.202,433.758,437.7036,441.185,446.061,450.0066,453.431,456.379,462.411,468.214,471.219,475.868,480.761,484.175,487.128,492.712,498.6304,502.067,507.623,510.8014,514.199,518.905,524.828,529.722,535.755,540.878,545.541,549.4866000000001,552.911,555.864" svgx:width="0.22,0.55,0.5,0.36,0.55,0.44,0.36,0.55,0.26,0.54,0.52,0.26,0.42,0.44,0.3,0.26,0.5,0.54,0.55,0.5,0.29,0.55,0.42,0.53,0.44,0.54,0.46,0.42,0.36,0.55,0.26,0.54" style="fill:rgb(0,0,0);font-family:AdvOT1ef757c0;font-size:10.96px;stroke:none;">, or as indication of changes in</text>
  </g>
  <g begin="text">
   <text y="244.743" x="186.861,191.566,196.442,200.58,206.146,211.712,217.63039999999998,221.067,226.852,232.012,238.027,242.96,251.945,254.881,259.526,263.602" svgx:width="0.42,0.44,0.36,0.5,0.5,0.54,0.55,0.52,0.46,0.54,0.44,0.81,0.26,0.42,0.36,0.22" style="fill:rgb(0,0,0);font-family:AdvOT1ef757c0;font-size:10.96px;stroke:none;">carbon dynamics.</text>
  </g>
  <g begin="text">
   <text y="272.636" x="186.86" svgx:width="0.67" style="fill:rgb(51,51,51);font-family:AdvPS7DA6;font-size:11.96px;stroke:none;">D</text>
  </g>
  <g begin="text">
   <text y="274.621" x="194.854,197.274,202.224,207.173" svgx:width="0.27,0.55,0.55,0.32" style="fill:rgb(51,51,51);font-family:AdvTT5bc682ca.B;font-size:7.97px;stroke:none;">leaf</text>
  </g>
  <g begin="text">
   <text y="272.636" x="210.104,213.3332,216.908,220.757,227.356,237.937,245.157,251.757,256.359,262.959,266.808,274.029,278.632,285.336,288.5652,292.14,295.368,301.967,305.816,309.044,312.894,320.115,327.336,333.914,337.607,344.207,351.428,358.604,362.212,368.811,375.411,382.01,388.609,395.83,403.051,409.722,412.95,416.178,420.027" svgx:width="0.27,0.55,0.32,0.55,0.88,0.6,0.55,0.38,0.55,0.32,0.6,0.38,0.55,0.27,0.55,0.27,0.55,0.32,0.27,0.32,0.6,0.6,0.55,0.55,0.55,0.6,0.6,0.55,0.55,0.55,0.55,0.55,0.6,0.6,0.55,0.27,0.27,0.32,0.55" style="fill:rgb(51,51,51);font-family:AdvTT5bc682ca.B;font-size:11.96px;stroke:none;">, temperature, latitude and seasonality</text>
  </g>
  <g begin="text">
   <text y="288.567" x="186.86,193.589,199.408,203.967,207.956,212.55919999999998,215.83,223.249,227.808,231.797,236.40019999999998,239.642,244.46439999999998,247.692,253.621,259.32,268.218,273.698,278.257,282.2026,285.563,291.043,294.2214,297.469,302.028,304.768,307.617,316.516,321.305,324.614,329.2172,332.506,337.525,342.314,346.303,349.153,353.942,359.421,362.161,366.72,370.66560000000004,373.948,377.258,383.077,387.866,391.154,394.471,401.891,406.49420000000003,409.722,415.421,418.27,423.9692,427.24,433.169,438.648,441.93600000000004,445.269,449.828,454.956,460.655,465.214,469.773,473.06100000000004,476.336,479.646,485.12600000000003,488.412,494.231,499.02,504.039,508.6422,511.883,516.7053999999999,519.99,524.549,530.029,534.018,538.007,542.566,545.306,550.095,553.404,556.254,561.273" svgx:width="0.61,0.53,0.42,0.36,0.42,0.55,0.68,0.42,0.36,0.42,0.55,0.44,0.55,0.54,0.52,0.81,0.5,0.42,0.36,0.55,0.5,0.29,0.55,0.42,0.25,0.26,0.81,0.44,0.3,0.42,0.55,0.46,0.44,0.36,0.26,0.44,0.5,0.25,0.42,0.36,0.55,0.3,0.53,0.44,0.3,0.55,0.68,0.42,0.55,0.52,0.26,0.52,0.55,0.54,0.5,0.3,0.55,0.42,0.47,0.52,0.42,0.42,0.3,0.55,0.3,0.5,0.55,0.53,0.44,0.46,0.42,0.55,0.44,0.55,0.42,0.5,0.36,0.36,0.42,0.25,0.44,0.3,0.26,0.46,0.42" style="fill:rgb(0,0,0);font-family:AdvOT1ef757c0;font-size:10.96px;stroke:none;">There were a number of climate variables that we did not expect to have a correlative</text>
  </g>
  <g begin="text">
   <text y="303.534" x="186.86,190.849,195.194,197.934,202.507,205.817,208.46,213.939,219.628,223.617,229.21,232.059,237.7582,240.265,247.684,250.3,253.475" svgx:width="0.36,0.42,0.25,0.44,0.3,0.26,0.5,0.54,0.36,0.53,0.26,0.52,0.55,0.68,0.26,0.3,0.53" style="fill:rgb(0,0,0);font-family:AdvOT1ef757c0;font-size:10.96px;stroke:none;">relationship with</text>
  </g>
  <g begin="text">
   <text y="303.534" x="261.921" svgx:width="0.67" style="fill:rgb(0,0,0);font-family:AdvPS7DA6;font-size:10.96px;stroke:none;">D</text>
  </g>
  <g begin="text">
   <text y="305.348" x="269.178,271.233,274.45,278.042" svgx:width="0.25,0.42,0.44,0.29" style="fill:rgb(0,0,0);font-family:AdvOT1ef757c0;font-size:7.31px;stroke:none;">leaf</text>
  </g>
  <g begin="text">
   <text y="303.534" x="280.233,282.6442,285.222,290.701,296.163,299.451,302.059,309.478,314.0812,316.516,321.305,326.778,332.477,336.246,340.804,344.58,348.569,352.914,358.6132,361.248,364.423,369.903,372.474,377.033,382.736,386.725,392.203,396.192,400.7952,403.259,406.433,412.253,416.865,420.153,422.761,425.936,431.755,436.084,441.1256,443.681,451.1,455.473,459.328,463.9312,466.471,472.4,477.64,480.928,483.536,488.094,493.4,499.183,502.372,507.63,513.329,519.025,524.724,527.359,533.288,538.3296,540.795,545.814,550.377,554.366,557.01,561.799,567.045,569.785,574.133" svgx:width="0.22,0.55,0.5,0.52,0.3,0.55,0.68,0.42,0.55,0.44,0.52,0.52,0.36,0.42,0.36,0.36,0.42,0.52,0.55,0.3,0.5,0.55,0.42,0.54,0.36,0.52,0.36,0.42,0.55,0.3,0.53,0.44,0.3,0.55,0.3,0.53,0.42,0.46,0.55,0.68,0.42,0.36,0.42,0.55,0.54,0.5,0.3,0.55,0.42,0.5,0.54,0.29,0.5,0.52,0.54,0.52,0.26,0.54,0.46,0.55,0.46,0.44,0.36,0.26,0.44,0.5,0.25,0.42,0.36" style="fill:rgb(0,0,0);font-family:AdvOT1ef757c0;font-size:10.96px;stroke:none;">, but we addressed to ensure that they were not confounding variables</text>
  </g>
  <g begin="text">
   <text y="318.501" x="186.86,190.619,200.318,207.847,214.575,216.9862,220.196,229.095,233.884,239.013,241.862,250.761,256.46,265.33759999999995,268.556,272.545,278.244,287.143,296.041,300.6,304.54560000000004,307.844,311.154,315.713,324.611,330.31,334.774,338.763,343.552,346.862,352.56,356.549,361.108,363.5192,366.749,369.489,374.278,377.587,380.437,383.643,389.342,395.041,399.599,402.0102,405.243,409.232,413.791,418.58,422.57,428.049,433.978,438.767,441.414,444.263,447.573,452.592,456.351,458.7622,461.993,469.983,475.681,480.2842,483.48,486.789,492.269,495.555,498.865,504.684,509.28720000000004,512.45,517.009,522.488,528.417,532.406,535.255,539.245,542.554,547.033,552.962" svgx:width="0.34,0.88,0.69,0.61,0.22,0.55,0.81,0.44,0.47,0.26,0.81,0.52,0.81,0.55,0.36,0.52,0.81,0.81,0.42,0.36,0.55,0.3,0.42,0.81,0.52,0.42,0.36,0.44,0.3,0.52,0.36,0.42,0.22,0.55,0.25,0.44,0.3,0.26,0.3,0.52,0.52,0.42,0.22,0.55,0.36,0.42,0.44,0.36,0.5,0.54,0.44,0.25,0.26,0.3,0.46,0.34,0.22,0.55,0.73,0.52,0.42,0.55,0.3,0.5,0.55,0.3,0.53,0.42,0.55,0.42,0.5,0.54,0.36,0.26,0.36,0.3,0.42,0.54,0.3" style="fill:rgb(0,0,0);font-family:AdvOT1ef757c0;font-size:10.96px;stroke:none;">(MAT, maximum summer temperature, latitude, seasonality). Due to the consistent</text>
  </g>
  <g begin="text">
   <text y="333.41" x="186.86,189.709,195.638,198.948,203.507,207.496,213.425,218.214,220.954,224.165,227.474,232.033,240.932,246.63,251.189,255.179,259.881,263.191,268.889,272.878,277.4812,280.688,285.477,291.406,297.1052,300.36,303.1,307.889,312.448,317.8184,321.053,326.533,329.7114,333.015,337.004,341.563,344.303,349.092,352.401,355.251,360.625,366.554,370.543,376.362,379.211,384.91020000000003,388.121,393.6,398.159,401.469,408.888,413.447,418.006" svgx:width="0.26,0.54,0.3,0.42,0.36,0.54,0.44,0.25,0.55,0.3,0.42,0.81,0.52,0.42,0.36,0.44,0.3,0.52,0.36,0.42,0.55,0.44,0.54,0.52,0.55,0.25,0.44,0.42,0.49,0.55,0.5,0.29,0.55,0.36,0.42,0.25,0.44,0.3,0.26,0.5,0.54,0.36,0.53,0.26,0.52,0.55,0.5,0.42,0.3,0.68,0.42,0.42,0.54" style="fill:rgb(0,0,0);font-family:AdvOT1ef757c0;font-size:10.96px;stroke:none;">internal temperature and lack of relationship between</text>
  </g>
  <g begin="text">
   <text y="333.41" x="427.124" svgx:width="0.67" style="fill:rgb(0,0,0);font-family:AdvPS7DA6;font-size:10.96px;stroke:none;">D</text>
  </g>
  <g begin="text">
   <text y="335.225" x="434.438,436.492,439.912,443.503" svgx:width="0.25,0.42,0.44,0.29" style="fill:rgb(0,0,0);font-family:AdvOT1ef757c0;font-size:7.31px;stroke:none;">leaf</text>
  </g>
  <g begin="text">
   <text y="333.411" x="449.178,452.487,457.96700000000004,461.197,470.895,478.424,485.1096,488.409,491.258,497.1764,500.428,506.126,510.115,514.674,519.693,522.543,528.022,533.721,537.6666,540.907,544.896,548.206,553.904,559.603,562.452,567.011,571.0" svgx:width="0.3,0.5,0.55,0.88,0.69,0.61,0.55,0.26,0.54,0.55,0.52,0.36,0.42,0.46,0.26,0.5,0.52,0.36,0.55,0.36,0.3,0.52,0.52,0.26,0.42,0.36,0.22" style="fill:rgb(0,0,0);font-family:AdvOT1ef757c0;font-size:10.96px;stroke:none;">to MAT in previous studies,</text>
  </g>
  <g begin="text">
   <text y="348.378" x="186.86,194.279,198.88219999999998,201.657,206.216,211.344,217.043,221.602,226.161,229.471,234.03,239.7292,242.533,248.462,253.94199999999998,256.763,260.752,265.311,268.051,272.84,276.149,278.999,284.373,290.302,294.291,300.11,302.96,308.6592,311.473,316.952,321.511,324.821,332.24,336.701,341.26" svgx:width="0.68,0.42,0.55,0.42,0.47,0.52,0.42,0.42,0.3,0.42,0.52,0.55,0.54,0.5,0.55,0.36,0.42,0.25,0.44,0.3,0.26,0.5,0.54,0.36,0.53,0.26,0.52,0.55,0.5,0.42,0.3,0.68,0.42,0.42,0.54" style="fill:rgb(0,0,0);font-family:AdvOT1ef757c0;font-size:10.96px;stroke:none;">we expected no relationship between</text>
  </g>
  <g begin="text">
   <text y="348.378" x="350.022" svgx:width="0.67" style="fill:rgb(0,0,0);font-family:AdvPS7DA6;font-size:10.96px;stroke:none;">D</text>
  </g>
  <g begin="text">
   <text y="350.192" x="357.335,359.39,362.809,366.401" svgx:width="0.25,0.42,0.44,0.29" style="fill:rgb(0,0,0);font-family:AdvOT1ef757c0;font-size:7.31px;stroke:none;">leaf</text>
  </g>
  <g begin="text">
   <text y="348.378" x="371.565,376.354,382.283,387.98220000000003,390.841,400.54,408.069,414.75460000000004,417.544,423.473,428.952,432.8976,435.799,444.698,449.487,454.616,457.465,466.364,471.969,480.84659999999997,483.704,487.693,493.392,502.291,511.189,515.748,519.6936000000001,522.483,525.792,530.351,539.25,544.949,549.508,553.497,558.199,561.509,567.207,571.197,575.755" svgx:width="0.44,0.54,0.52,0.55,0.88,0.69,0.61,0.55,0.54,0.5,0.36,0.55,0.81,0.44,0.47,0.26,0.81,0.52,0.81,0.55,0.36,0.52,0.81,0.81,0.42,0.36,0.55,0.3,0.42,0.81,0.52,0.42,0.36,0.44,0.3,0.52,0.36,0.42,0.22" style="fill:rgb(0,0,0);font-family:AdvOT1ef757c0;font-size:10.96px;stroke:none;">and MAT nor maximum summer temperature.</text>
  </g>
  <g begin="text">
   <text y="363.288" x="186.86,194.389,198.33460000000002,201.657,209.076,213.67919999999998,216.907,221.466,226.595,232.294,236.853,241.412,244.63,249.189,254.888,257.2992,260.561,270.26,277.789,284.4746,287.774,291.763,297.582,303.062,310.481,315.04,320.73920000000004,323.944,329.873,335.353,338.628,342.617,345.466,350.486,356.414" svgx:width="0.69,0.36,0.55,0.68,0.42,0.55,0.42,0.47,0.52,0.42,0.42,0.3,0.42,0.52,0.22,0.55,0.88,0.69,0.61,0.55,0.36,0.53,0.5,0.68,0.42,0.52,0.55,0.54,0.5,0.55,0.36,0.26,0.46,0.54,0.26" style="fill:rgb(0,0,0);font-family:AdvOT1ef757c0;font-size:10.96px;stroke:none;">As we expected, MAT showed no signi</text>
  </g>
  <g begin="text">
   <text y="363.288" x="359.206" svgx:width="0.53" style="fill:rgb(0,0,0);font-family:AdvOT1ef757c0;font-size:10.96px;stroke:none;">ﬁ</text>
  </g>
  <g begin="text">
   <text y="363.288" x="364.989,369.548,374.337,380.266,383.55400000000003,386.816,390.805,395.364,398.104,402.893,406.202,409.052,414.426,420.355,424.344,430.163,433.012,438.7112,441.979,449.398,452.248,455.557" svgx:width="0.42,0.44,0.54,0.3,0.55,0.36,0.42,0.25,0.44,0.3,0.26,0.5,0.54,0.36,0.53,0.26,0.52,0.55,0.68,0.26,0.3,0.53" style="fill:rgb(0,0,0);font-family:AdvOT1ef757c0;font-size:10.96px;stroke:none;">cant relationship with</text>
  </g>
  <g begin="text">
   <text y="363.288" x="464.598" svgx:width="0.67" style="fill:rgb(0,0,0);font-family:AdvPS7DA6;font-size:10.96px;stroke:none;">D</text>
  </g>
  <g begin="text">
   <text y="365.159" x="471.855,473.91,477.329,480.921" svgx:width="0.25,0.42,0.44,0.29" style="fill:rgb(0,0,0);font-family:AdvOT1ef757c0;font-size:7.31px;stroke:none;">leaf</text>
  </g>
  <g begin="text">
   <text y="363.288" x="486.595,491.614,496.404,499.143,504.842,509.401,513.3466,516.643,522.571,527.13,529.98,533.289,539.109,543.572,547.5176,550.829,553.679" svgx:width="0.46,0.44,0.25,0.52,0.42,0.36,0.55,0.54,0.42,0.26,0.3,0.53,0.42,0.36,0.55,0.26,0.54" style="fill:rgb(0,0,0);font-family:AdvOT1ef757c0;font-size:10.96px;stroke:none;">values neither in</text>
  </g>
  <g begin="text">
   <text y="378.255" x="186.86,195.759,200.318,203.627,208.416,212.296,217.085,223.014,227.803,230.457,235.476,239.465,244.024,248.013,250.4242,253.644,258.663,262.652,268.132,275.551,278.759,284.56780000000003,287.887,292.446,298.265,303.054,311.953,317.432,321.902,325.8476,329.159,333.718,338.847,344.546,349.105,353.094,355.943,364.763,369.322,375.251,378.56,382.5056,385.796" svgx:width="0.81,0.42,0.3,0.44,0.35,0.44,0.54,0.44,0.25,0.46,0.36,0.42,0.36,0.22,0.55,0.46,0.36,0.5,0.68,0.3,0.53,0.55,0.42,0.53,0.44,0.81,0.5,0.42,0.36,0.55,0.42,0.47,0.52,0.42,0.36,0.26,0.81,0.42,0.54,0.3,0.36,0.55,0.34" style="fill:rgb(0,0,0);font-family:AdvOT1ef757c0;font-size:10.96px;stroke:none;">meta-analyses, growth chamber experiments (</text>
  </g>
  <g begin="text">
   <text y="378.255" x="389.537,397.175,400.134,404.463,407.422,411.751,417.57,423.049,428.088,432.077,435.0362,438.349,442.678,445.966,449.235,454.594,457.213,459.723,462.2438,465.506,470.635,475.763,480.892" svgx:width="0.7,0.27,0.4,0.27,0.4,0.53,0.5,0.47,0.36,0.27,0.55,0.4,0.3,0.55,0.49,0.24,0.23,0.23,0.55,0.47,0.47,0.47,0.47" style="fill:rgb(0,138,191);font-family:AdvOT7d6df7ab.I;font-size:10.96px;stroke:none;">Diefendorf et al., 2010</text>
  </g>
  <g begin="text">
   <text y="378.255" x="485.972" svgx:width="0.22" style="fill:rgb(0,0,0);font-family:AdvOT1ef757c0;font-size:10.96px;stroke:none;">;</text>
  </g>
  <g begin="text">
   <text y="378.255" x="491.641,496.66,500.77,506.359,512.178,517.323,521.652,525.641,528.929,532.234,540.5636000000001,543.799,547.218,552.577,558.166,562.155,566.484,572.303" svgx:width="0.46,0.38,0.51,0.53,0.48,0.4,0.36,0.3,0.55,0.76,0.55,0.31,0.49,0.51,0.36,0.4,0.53,0.23" style="fill:rgb(0,138,191);font-family:AdvOT7d6df7ab.I;font-size:10.96px;stroke:none;">Schubert &amp; Jahren,</text>
  </g>
  <g begin="text">
   <text y="393.222" x="186.86,191.989,197.118,202.246" svgx:width="0.47,0.47,0.47,0.47" style="fill:rgb(0,138,191);font-family:AdvOT7d6df7ab.I;font-size:10.96px;stroke:none;">2012</text>
  </g>
  <g begin="text">
   <text y="393.222" x="207.383,211.10940000000002,214.413,220.342,225.821,229.7666,233.065,236.375,242.194,245.043,248.98860000000002,252.284,256.273,259.583,265.281,270.98,276.02160000000003,279.214" svgx:width="0.34,0.55,0.54,0.5,0.36,0.55,0.3,0.53,0.26,0.36,0.55,0.36,0.3,0.52,0.52,0.46,0.55,0.34" style="fill:rgb(0,0,0);font-family:AdvOT1ef757c0;font-size:10.96px;stroke:none;">) nor this study (</text>
  </g>
  <g begin="text">
   <text y="393.222" x="282.954,288.653,291.502,296.521,298.9322,302.173,307.302,312.551" svgx:width="0.52,0.26,0.46,0.22,0.55,0.47,0.48,0.69" style="fill:rgb(0,138,191);font-family:AdvOT1ef757c0;font-size:10.96px;stroke:none;">Fig. S1A</text>
  </g>
  <g begin="text">
   <text y="393.222" x="320.032,323.79" svgx:width="0.34,0.22" style="fill:rgb(0,0,0);font-family:AdvOT1ef757c0;font-size:10.96px;stroke:none;">).</text>
  </g>
  <g begin="text">
   <text y="408.131" x="198.823,205.212,209.771,214.33,219.119,224.818,228.807,233.41019999999997,236.694,246.393,253.921,260.6066,263.906,268.695,274.624,280.32320000000004,283.636,286.375,291.164,294.474,297.323,300.633,306.332,312.03,316.6332,319.863,324.652,328.641,333.24420000000003,336.473,339.323,345.252,351.071,355.63,359.619,364.178,370.107,373.416,376.156,381.1976,384.437,388.426,392.985,395.724,400.513,403.823,408.382,414.081,416.4922,419.756,427.176,431.7792,435.007,439.566,444.695,450.393,454.952,459.511,462.821,467.38" svgx:width="0.58,0.42,0.42,0.44,0.52,0.36,0.42,0.55,0.88,0.69,0.61,0.55,0.44,0.54,0.52,0.55,0.25,0.44,0.3,0.26,0.3,0.52,0.52,0.42,0.55,0.44,0.36,0.42,0.55,0.26,0.54,0.53,0.42,0.36,0.42,0.54,0.3,0.25,0.46,0.55,0.36,0.42,0.25,0.44,0.3,0.42,0.52,0.22,0.55,0.68,0.42,0.55,0.42,0.47,0.52,0.42,0.42,0.3,0.42,0.52" style="fill:rgb(0,0,0);font-family:AdvOT1ef757c0;font-size:10.96px;stroke:none;">Because MAT and latitude are inherently related, we expected</text>
  </g>
  <g begin="text">
   <text y="408.131" x="476.391" svgx:width="0.67" style="fill:rgb(0,0,0);font-family:AdvPS7DA6;font-size:10.96px;stroke:none;">D</text>
  </g>
  <g begin="text">
   <text y="409.947" x="483.704,485.759,489.178,492.769" svgx:width="0.25,0.42,0.44,0.29" style="fill:rgb(0,0,0);font-family:AdvOT1ef757c0;font-size:7.31px;stroke:none;">leaf</text>
  </g>
  <g begin="text">
   <text y="408.132" x="498.444,503.463,508.252,510.992,516.691,521.25,525.1956,528.548,531.858,537.338,540.624,544.613,549.172,551.912,556.701,560.011" svgx:width="0.46,0.44,0.25,0.52,0.42,0.36,0.55,0.3,0.5,0.55,0.36,0.42,0.25,0.44,0.3,0.42" style="fill:rgb(0,0,0);font-family:AdvOT1ef757c0;font-size:10.96px;stroke:none;">values to relate</text>
  </g>
  <g begin="text">
   <text y="423.099" x="186.86,190.17,195.64999999999998,198.936,201.675,206.464,209.774,212.623,215.933,221.632,227.33,231.9332,235.163,238.012,243.9304,247.238,250.548,256.367,260.97020000000003,264.247,268.236,273.025,281.924,286.5272,289.759,297.179,301.968,307.00960000000003,310.225,315.014,318.9596,322.301,329.72,335.54,340.098,346.01640000000003,349.288,353.847,359.326,368.225,373.923,378.713,382.702,387.261,392.96020000000004,396.286,399.596,405.076,408.305,418.004,425.533,432.261,434.67220000000003,437.956,445.485,449.4306,452.753,458.451,462.44,466.999,472.698,475.547,480.106,483.416,487.975,493.673,496.0842,499.355,502.664,508.483,513.042,517.031,521.6342,524.866,532.285,537.074,541.0196,544.369,550.298" svgx:width="0.3,0.5,0.55,0.25,0.44,0.3,0.26,0.3,0.52,0.52,0.42,0.55,0.26,0.54,0.55,0.3,0.53,0.42,0.55,0.36,0.44,0.81,0.42,0.55,0.68,0.44,0.46,0.55,0.44,0.36,0.55,0.68,0.53,0.42,0.54,0.55,0.42,0.5,0.81,0.52,0.44,0.36,0.42,0.52,0.55,0.3,0.5,0.55,0.88,0.69,0.61,0.22,0.55,0.69,0.36,0.55,0.52,0.36,0.42,0.52,0.26,0.42,0.3,0.42,0.52,0.22,0.55,0.3,0.53,0.42,0.36,0.42,0.55,0.68,0.44,0.36,0.55,0.54,0.5" style="fill:rgb(0,0,0);font-family:AdvOT1ef757c0;font-size:10.96px;stroke:none;">to latitude in the same way as when compared to MAT. As predicted, there was no</text>
  </g>
  <g begin="text">
   <text y="438.009" x="186.86,190.849,195.408,198.148,202.937,206.246,209.096,214.575,220.504,224.493,230.312,233.162,238.8612,241.682,247.162,251.721,255.03,262.45,267.009,271.567" svgx:width="0.36,0.42,0.25,0.44,0.3,0.26,0.5,0.54,0.36,0.53,0.26,0.52,0.55,0.5,0.42,0.3,0.68,0.42,0.42,0.54" style="fill:rgb(0,0,0);font-family:AdvOT1ef757c0;font-size:10.96px;stroke:none;">relationship between</text>
  </g>
  <g begin="text">
   <text y="438.009" x="280.233" svgx:width="0.67" style="fill:rgb(0,0,0);font-family:AdvPS7DA6;font-size:10.96px;stroke:none;">D</text>
  </g>
  <g begin="text">
   <text y="439.88" x="287.546,289.601,293.02,296.612" svgx:width="0.25,0.42,0.44,0.29" style="fill:rgb(0,0,0);font-family:AdvOT1ef757c0;font-size:7.31px;stroke:none;">leaf</text>
  </g>
  <g begin="text">
   <text y="438.009" x="301.776,307.256" svgx:width="0.5,0.29" style="fill:rgb(0,0,0);font-family:AdvOT1ef757c0;font-size:10.96px;stroke:none;">of</text>
  </g>
  <g begin="text">
   <text y="438.009" x="313.228,319.727,322.2478,325.02,330.149,334.259,338.368,341.327,346.807,351.136,356.955,360.264,365.623,368.243,371.202" svgx:width="0.59,0.23,0.55,0.47,0.38,0.38,0.27,0.5,0.4,0.53,0.3,0.49,0.24,0.27,0.33" style="fill:rgb(0,0,0);font-family:AdvOT7d6df7ab.I;font-size:10.96px;stroke:none;">T. occidentalis</text>
  </g>
  <g begin="text">
   <text y="438.009" x="377.631,382.42,388.349,394.0482,396.85,399.59,404.379,407.688,410.538,413.847,419.546,425.245,429.804,432.2152,435.005,438.654,444.5724,447.364,452.844,456.833,462.532,467.091,471.0366,473.84,477.15,482.63,485.405,489.964,495.893,499.882,505.581,509.57,514.1732,516.927,520.236,526.055,530.845,534.133,536.939,540.248,546.068,550.627,554.616,559.2192,561.941,565.25,572.67" svgx:width="0.44,0.54,0.52,0.55,0.25,0.44,0.3,0.26,0.3,0.52,0.52,0.42,0.22,0.55,0.33,0.54,0.55,0.5,0.36,0.52,0.42,0.36,0.55,0.3,0.5,0.55,0.42,0.54,0.36,0.52,0.36,0.42,0.55,0.3,0.53,0.44,0.3,0.55,0.3,0.53,0.42,0.36,0.42,0.55,0.3,0.68,0.5" style="fill:rgb(0,0,0);font-family:AdvOT1ef757c0;font-size:10.96px;stroke:none;">and latitude. In order to ensure that these two</text>
  </g>
  <g begin="text">
   <text y="452.976" x="186.86,191.419,196.899,202.597,207.156,212.855,217.414,223.343,229.041,233.6,239.529,242.817,246.162,251.181,255.97,259.959,262.808,267.597,273.077,275.817,280.376,284.3216,287.661,295.08,299.639,303.628,308.2312,311.416,314.725,318.715,323.273,328.063,331.372,335.931,341.6302,344.922,349.711,353.6566,356.998,360.987,366.685,371.244,377.064,379.47520000000003,382.736,390.155,394.7582,397.986,401.976,406.765,412.6834,416.015,420.8374,424.066,432.964,438.663,441.403,444.712,447.562,453.26,456.0,460.6032,463.864,466.604,469.453,475.382,479.941,484.73,488.67560000000003,491.984,495.973,500.532,505.551,509.54,514.099,518.088,522.077,524.927,530.406,536.335,538.7462,542.045,549.464,555.283,558.133,562.692" svgx:width="0.42,0.5,0.52,0.42,0.52,0.42,0.54,0.52,0.42,0.54,0.3,0.55,0.46,0.44,0.36,0.26,0.44,0.5,0.25,0.42,0.36,0.55,0.68,0.42,0.36,0.42,0.55,0.3,0.36,0.42,0.44,0.3,0.42,0.52,0.55,0.44,0.36,0.55,0.36,0.52,0.42,0.53,0.22,0.55,0.68,0.42,0.55,0.36,0.44,0.54,0.55,0.44,0.55,0.81,0.52,0.25,0.3,0.26,0.52,0.25,0.42,0.55,0.25,0.26,0.54,0.42,0.44,0.36,0.55,0.36,0.42,0.46,0.36,0.42,0.36,0.36,0.26,0.5,0.54,0.22,0.55,0.68,0.53,0.26,0.42,0.53" style="fill:rgb(0,0,0);font-family:AdvOT1ef757c0;font-size:10.96px;stroke:none;">codependent variables were treated as such, we ran a multiple linear regression, which</text>
  </g>
  <g begin="text">
   <text y="467.943" x="186.86,191.879,196.669,201.688,206.29119999999998,208.517,213.33939999999998,215.604,219.593,222.442,231.341,234.19,236.93,241.719,245.708,248.448,253.4896,255.742,258.482,263.961,271.41380000000004,273.657,278.216,283.695,288.254" svgx:width="0.46,0.44,0.46,0.42,0.55,0.44,0.55,0.36,0.26,0.81,0.26,0.25,0.44,0.36,0.25,0.46,0.55,0.25,0.5,0.68,0.55,0.42,0.5,0.42,0.29" style="fill:rgb(0,0,0);font-family:AdvOT1ef757c0;font-size:10.96px;stroke:none;">gave a similarly low coef</text>
  </g>
  <g begin="text">
   <text y="467.943" x="291.401" svgx:width="0.53" style="fill:rgb(0,0,0);font-family:AdvOT1ef757c0;font-size:10.96px;stroke:none;">ﬁ</text>
  </g>
  <g begin="text">
   <text y="467.943" x="297.24,301.799,304.649,309.208,315.136,318.42400000000004,320.711,326.191,329.3694,331.653,337.351,341.91,345.22,349.779,353.768,362.667,365.516,371.445,376.234,379.544,382.393,387.872,393.79040000000003,396.057" svgx:width="0.42,0.26,0.42,0.54,0.3,0.55,0.5,0.29,0.55,0.52,0.42,0.3,0.42,0.36,0.81,0.26,0.54,0.44,0.3,0.26,0.5,0.54,0.55,0.34" style="fill:rgb(0,0,0);font-family:AdvOT1ef757c0;font-size:10.96px;stroke:none;">cient of determination (</text>
  </g>
  <g begin="text">
   <text y="467.943" x="399.798" svgx:width="0.59" style="fill:rgb(0,0,0);font-family:AdvOT7d6df7ab.I;font-size:10.96px;stroke:none;">R</text>
  </g>
  <g begin="text">
   <text y="463.068" x="406.318" svgx:width="0.48" style="fill:rgb(0,0,0);font-family:AdvOT1ef757c0;font-size:7.31px;stroke:none;">2</text>
  </g>
  <g begin="text">
   <text y="467.943" x="412.554" svgx:width="0.77" style="fill:rgb(0,0,0);font-family:AdvP4C4E74;font-size:10.96px;stroke:none;">¼</text>
  </g>
  <g begin="text">
   <text y="467.943" x="423.269,428.518,430.907,436.157,441.406,446.655,450.3814,452.636,457.195,462.674,471.573,477.271,482.061,486.05,488.899,494.828,499.8696,502.129,506.918,511.477,514.786,520.485,525.274" svgx:width="0.48,0.22,0.48,0.48,0.48,0.34,0.55,0.42,0.5,0.81,0.52,0.44,0.36,0.26,0.54,0.46,0.55,0.44,0.42,0.3,0.52,0.44,0.25" style="fill:rgb(0,0,0);font-family:AdvOT1ef757c0;font-size:10.96px;stroke:none;">0.002) comparing actual</text>
  </g>
  <g begin="text">
   <text y="467.943" x="530.304" svgx:width="0.67" style="fill:rgb(0,0,0);font-family:AdvPS7DA6;font-size:10.96px;stroke:none;">D</text>
  </g>
  <g begin="text">
   <text y="469.758" x="537.562,539.617,543.036,546.628" svgx:width="0.25,0.42,0.44,0.29" style="fill:rgb(0,0,0);font-family:AdvOT1ef757c0;font-size:7.31px;stroke:none;">leaf</text>
  </g>
  <g begin="text">
   <text y="467.943" x="551.338,556.358,561.147,563.886,569.585,574.144" svgx:width="0.46,0.44,0.25,0.52,0.42,0.36" style="fill:rgb(0,0,0);font-family:AdvOT1ef757c0;font-size:10.96px;stroke:none;">values</text>
  </g>
  <g begin="text">
   <text y="482.853" x="186.861,194.28,197.129,200.439" svgx:width="0.68,0.26,0.3,0.53" style="fill:rgb(0,0,0);font-family:AdvOT1ef757c0;font-size:10.96px;stroke:none;">with</text>
  </g>
  <g begin="text">
   <text y="482.853" x="209.367" svgx:width="0.67" style="fill:rgb(0,0,0);font-family:AdvPS7DA6;font-size:10.96px;stroke:none;">D</text>
  </g>
  <g begin="text">
   <text y="484.668" x="216.68,218.735,222.154,225.746" svgx:width="0.25,0.42,0.44,0.29" style="fill:rgb(0,0,0);font-family:AdvOT1ef757c0;font-size:7.31px;stroke:none;">leaf</text>
  </g>
  <g begin="text">
   <text y="482.854" x="231.25,236.27,241.059,243.798,249.497,254.056,258.0016,261.185,266.883,270.873,275.431,281.13,283.979,288.538,291.848,296.407,302.1062,305.236,310.934,314.923,317.773,323.701,328.74260000000004,331.824,335.134,340.953,343.802,347.74760000000003,350.873,354.862,359.421,364.44,368.43,372.988,376.978,380.967,383.816,389.295,395.224,397.6352,400.763,407.492,413.311,419.01,422.999,425.41020000000003,428.486,435.905,440.5082,443.567,448.356,452.345,456.94820000000004,460.007,464.566,470.046" svgx:width="0.46,0.44,0.25,0.52,0.42,0.36,0.55,0.52,0.36,0.42,0.52,0.26,0.42,0.3,0.42,0.52,0.55,0.52,0.36,0.26,0.54,0.46,0.55,0.3,0.53,0.26,0.36,0.55,0.36,0.42,0.46,0.36,0.42,0.36,0.36,0.26,0.5,0.54,0.22,0.55,0.61,0.53,0.52,0.36,0.22,0.55,0.68,0.42,0.55,0.44,0.36,0.42,0.55,0.42,0.5,0.54" style="fill:rgb(0,0,0);font-family:AdvOT1ef757c0;font-size:10.96px;stroke:none;">values predicted using this regression. Thus, we are con</text>
  </g>
  <g begin="text">
   <text y="482.854" x="475.993" svgx:width="0.53" style="fill:rgb(0,0,0);font-family:AdvOT1ef757c0;font-size:10.96px;stroke:none;">ﬁ</text>
  </g>
  <g begin="text">
   <text y="482.854" x="481.776,487.475,492.034,497.963,501.25100000000003,504.397,507.706,513.526,518.315,521.6030000000001,524.75,530.229,535.709,539.018,544.8268,547.938,551.248,555.237,559.796,564.585,567.894,572.453" svgx:width="0.52,0.42,0.54,0.3,0.55,0.3,0.53,0.44,0.3,0.55,0.5,0.5,0.3,0.53,0.55,0.3,0.36,0.42,0.44,0.3,0.42,0.52" style="fill:rgb(0,0,0);font-family:AdvOT1ef757c0;font-size:10.96px;stroke:none;">dent that both treated</text>
  </g>
  <g begin="text">
   <text y="497.82" x="186.861,191.65,195.59560000000002,198.937,201.786,207.715,213.413,217.972,223.671,228.23,234.159,239.857,244.416,250.345,253.633,256.991,261.78,267.709,273.4082,276.663,281.222,286.702,290.581,296.28,300.839,306.537,311.096,317.025,322.724,327.283,333.212,336.5,339.82,344.839,349.628,353.617,356.467,361.256,366.735,369.475,374.034,378.023,380.43420000000003,383.701,393.4,400.928,407.6136,410.913,415.702,421.631,427.3302,430.643,433.382,438.171,441.481,444.33,447.64,453.339,459.037,463.6402,466.87,472.568,478.048,481.327,487.256,492.735,496.023,499.299,504.997,507.737,512.526,517.5676,520.842,525.6644,528.892,532.881,538.361,541.101,545.7042,548.961,551.811" svgx:width="0.44,0.36,0.55,0.26,0.54,0.52,0.42,0.52,0.42,0.54,0.52,0.42,0.54,0.3,0.55,0.44,0.54,0.52,0.55,0.42,0.5,0.35,0.52,0.42,0.52,0.42,0.54,0.52,0.42,0.54,0.3,0.55,0.46,0.44,0.36,0.26,0.44,0.5,0.25,0.42,0.36,0.22,0.55,0.88,0.69,0.61,0.55,0.44,0.54,0.52,0.55,0.25,0.44,0.3,0.26,0.3,0.52,0.52,0.42,0.55,0.52,0.5,0.55,0.54,0.5,0.3,0.55,0.52,0.25,0.44,0.46,0.55,0.44,0.55,0.36,0.5,0.25,0.42,0.55,0.26,0.54" style="fill:rgb(0,0,0);font-family:AdvOT1ef757c0;font-size:10.96px;stroke:none;">as independent and co-dependent variables, MAT and latitude do not play a role in</text>
  </g>
  <g begin="text">
   <text y="512.73" x="186.861,191.88,196.669,200.658,203.508,208.297,214.225,218.784,223.38719999999998,226.66,232.139" svgx:width="0.46,0.44,0.36,0.26,0.44,0.54,0.42,0.42,0.55,0.5,0.29" style="fill:rgb(0,0,0);font-family:AdvOT1ef757c0;font-size:10.96px;stroke:none;">variance of</text>
  </g>
  <g begin="text">
   <text y="512.73" x="238.621" svgx:width="0.67" style="fill:rgb(0,0,0);font-family:AdvPS7DA6;font-size:10.96px;stroke:none;">D</text>
  </g>
  <g begin="text">
   <text y="514.602" x="245.877,247.932,251.351,254.943" svgx:width="0.25,0.42,0.44,0.29" style="fill:rgb(0,0,0);font-family:AdvOT1ef757c0;font-size:7.31px;stroke:none;">leaf</text>
  </g>
  <g begin="text">
   <text y="512.731" x="260.674,265.693,270.482,273.222,278.921,283.48,287.469" svgx:width="0.46,0.44,0.25,0.52,0.42,0.36,0.22" style="fill:rgb(0,0,0);font-family:AdvOT1ef757c0;font-size:10.96px;stroke:none;">values.</text>
  </g>
  <g begin="text">
   <text y="527.698" x="198.822,206.351,212.05,217.749,220.598,223.908,226.757,232.236,238.165,242.954,245.694,248.434,253.453,255.8642,258.351,265.77,270.3732,272.808,276.117,281.597,287.076,292.44640000000004,294.975,297.824,303.753,307.062,312.54200000000003,314.987,319.776,324.335,328.894,334.373,340.072,346.001,349.289,351.838,356.857,361.646,365.635,368.484,373.273,376.583,379.432,384.912,390.8304,393.337,396.186,402.1044,404.619,407.929,410.778,419.677,424.28020000000004,426.73,432.21,435.3884,437.899,442.918,447.477,452.266,456.21160000000003,458.761,462.75,468.449,473.008,477.567,480.416,489.315,493.874,499.79240000000004,502.301,509.721,514.51,518.4556,521.01,525.569,531.049,533.789,536.528,541.087,545.646,548.956,553.515,559.2142,561.717,566.506,572.435" svgx:width="0.69,0.52,0.52,0.26,0.3,0.26,0.5,0.54,0.44,0.25,0.25,0.46,0.22,0.55,0.68,0.42,0.55,0.3,0.5,0.5,0.49,0.55,0.26,0.54,0.3,0.5,0.55,0.44,0.42,0.42,0.5,0.52,0.54,0.3,0.55,0.46,0.44,0.36,0.26,0.44,0.3,0.26,0.5,0.54,0.55,0.26,0.54,0.55,0.3,0.26,0.81,0.42,0.55,0.5,0.29,0.55,0.46,0.42,0.44,0.36,0.55,0.36,0.52,0.42,0.42,0.26,0.81,0.42,0.54,0.55,0.68,0.44,0.36,0.55,0.42,0.5,0.25,0.25,0.42,0.42,0.3,0.42,0.52,0.55,0.44,0.54,0.52" style="fill:rgb(0,0,0);font-family:AdvOT1ef757c0;font-size:10.96px;stroke:none;">Additionally, we took into account variation in time of year specimen was collected and</text>
  </g>
  <g begin="text">
   <text y="542.664" x="186.861,190.05,195.529,201.228,207.157,212.8562,216.172,222.101,227.581,230.856,234.845,237.694,242.713,248.642" svgx:width="0.29,0.5,0.52,0.54,0.52,0.55,0.54,0.5,0.55,0.36,0.26,0.46,0.54,0.26" style="fill:rgb(0,0,0);font-family:AdvOT1ef757c0;font-size:10.96px;stroke:none;">found no signi</text>
  </g>
  <g begin="text">
   <text y="542.664" x="251.49" svgx:width="0.53" style="fill:rgb(0,0,0);font-family:AdvOT1ef757c0;font-size:10.96px;stroke:none;">ﬁ</text>
  </g>
  <g begin="text">
   <text y="542.664" x="257.329,261.888,266.677,272.606,275.894,279.156,283.145,287.704,290.444,295.233,298.543,301.392,306.872,312.801,316.79,322.609,325.458,331.15720000000005,334.432,339.912,344.471,347.781,355.2,359.759,364.318,370.2364,373.551,377.54,382.099,386.888,390.877,396.356,402.2744,405.583,410.372,416.301" svgx:width="0.42,0.44,0.54,0.3,0.55,0.36,0.42,0.25,0.44,0.3,0.26,0.5,0.54,0.36,0.53,0.26,0.52,0.55,0.5,0.42,0.3,0.68,0.42,0.42,0.54,0.55,0.36,0.42,0.44,0.36,0.5,0.54,0.55,0.44,0.54,0.52" style="fill:rgb(0,0,0);font-family:AdvOT1ef757c0;font-size:10.96px;stroke:none;">cant relationship between season and</text>
  </g>
  <g begin="text">
   <text y="542.664" x="425.253" svgx:width="0.67" style="fill:rgb(0,0,0);font-family:AdvPS7DA6;font-size:10.96px;stroke:none;">D</text>
  </g>
  <g begin="text">
   <text y="544.479" x="432.567,434.622,438.041,441.632" svgx:width="0.25,0.42,0.44,0.29" style="fill:rgb(0,0,0);font-family:AdvOT1ef757c0;font-size:7.31px;stroke:none;">leaf</text>
  </g>
  <g begin="text">
   <text y="542.665" x="447.307" svgx:width="0.34" style="fill:rgb(0,0,0);font-family:AdvOT1ef757c0;font-size:10.96px;stroke:none;">(</text>
  </g>
  <g begin="text">
   <text y="542.665" x="451.105,456.804,459.653,464.673,468.662,471.0732,474.293,479.422,484.672" svgx:width="0.52,0.26,0.46,0.36,0.22,0.55,0.47,0.48,0.69" style="fill:rgb(0,138,191);font-family:AdvOT1ef757c0;font-size:10.96px;stroke:none;">Figs. S5A</text>
  </g>
  <g begin="text">
   <text y="542.665" x="495.496,500.285,506.214" svgx:width="0.44,0.54,0.52" style="fill:rgb(0,0,0);font-family:AdvOT1ef757c0;font-size:10.96px;stroke:none;">and</text>
  </g>
  <g begin="text">
   <text y="542.665" x="515.225,520.354,525.603" svgx:width="0.47,0.48,0.58" style="fill:rgb(0,138,191);font-family:AdvOT1ef757c0;font-size:10.96px;stroke:none;">S5B</text>
  </g>
  <g begin="text">
   <text y="542.665" x="531.95,535.709,538.1202,541.417,548.146,553.965,556.815,560.7606000000001,564.095,566.944" svgx:width="0.34,0.22,0.55,0.61,0.53,0.26,0.36,0.55,0.26,0.36" style="fill:rgb(0,0,0);font-family:AdvOT1ef757c0;font-size:10.96px;stroke:none;">). This is</text>
  </g>
  <g begin="text">
   <text y="557.574" x="186.861,189.601,192.45,197.809,202.368,205.108,210.1496,213.45,218.929,223.488,228.047,232.836,238.535,242.524" svgx:width="0.25,0.26,0.49,0.42,0.25,0.46,0.55,0.5,0.42,0.42,0.44,0.52,0.36,0.42" style="fill:rgb(0,0,0);font-family:AdvOT1ef757c0;font-size:10.96px;stroke:none;">likely because</text>
  </g>
  <g begin="text">
   <text y="557.574" x="250.357,256.856,259.3768,262.66,267.789,271.898,276.008,278.967,284.446,288.775,294.594,297.904,303.263,305.882,308.841" svgx:width="0.59,0.23,0.55,0.47,0.38,0.38,0.27,0.5,0.4,0.53,0.3,0.49,0.24,0.27,0.33" style="fill:rgb(0,0,0);font-family:AdvOT7d6df7ab.I;font-size:10.96px;stroke:none;">T. occidentalis</text>
  </g>
  <g begin="text">
   <text y="557.574" x="315.78,318.63,322.5756,325.871,331.8,337.28,340.568,343.9,349.599,354.158,358.716,361.566,367.264,372.963,378.443,384.141,388.08660000000003,391.409,396.198,402.127,407.82620000000003,411.082,416.781,422.26,426.819,430.76460000000003,434.099,440.028,445.507,448.795,452.128,456.117,461.936,466.495,472.1942,475.486,478.335,481.645,485.5906,488.922,491.662,496.221,501.01,506.029,510.588,514.5336,517.836,522.625,528.554,534.482,540.181,544.97,547.71,550.45,555.469" svgx:width="0.26,0.36,0.55,0.54,0.5,0.3,0.55,0.52,0.42,0.42,0.26,0.52,0.52,0.5,0.52,0.36,0.55,0.44,0.54,0.52,0.55,0.52,0.5,0.42,0.36,0.55,0.54,0.5,0.3,0.55,0.36,0.53,0.42,0.52,0.55,0.26,0.3,0.36,0.55,0.25,0.42,0.44,0.46,0.42,0.36,0.55,0.44,0.54,0.54,0.52,0.44,0.25,0.25,0.46,0.22" style="fill:rgb(0,0,0);font-family:AdvOT1ef757c0;font-size:10.96px;stroke:none;">is not deciduous and does not shed its leaves annually,</text>
  </g>
  <g begin="text">
   <text y="572.541" x="186.861,190.17,195.99,201.688,205.677,208.0882,211.352,216.831,222.76,227.319,231.92219999999998,235.107,240.926,246.405,255.304,260.784,265.803,270.362,276.291,279.14,283.699,288.258,293.956,296.3672,299.568,302.877,308.696,313.29920000000004,316.519,319.368,323.357,328.837,332.146,337.626,343.325,346.174,350.7772,353.936,358.495,363.975,372.873,378.572,384.051,388.04,390.89,394.199,397.049,402.528,408.44640000000004,411.706,417.186,420.3644,423.612,426.922,432.741,437.3442,440.507,443.246,447.805,452.594,455.7724,459.045,461.894,465.8396,469.136,473.125,477.684,483.383,487.372,491.931,495.92,500.479,506.407,509.717,514.506,517.816,520.665,525.684,530.2872,533.483,538.962,542.1404,545.389,550.178,555.197,559.756,563.745,568.534,573.553" svgx:width="0.3,0.53,0.52,0.36,0.22,0.55,0.5,0.54,0.42,0.42,0.55,0.53,0.5,0.81,0.5,0.46,0.42,0.54,0.26,0.42,0.42,0.52,0.22,0.55,0.3,0.53,0.42,0.55,0.26,0.36,0.5,0.3,0.5,0.52,0.26,0.42,0.55,0.42,0.5,0.81,0.52,0.5,0.36,0.26,0.3,0.26,0.5,0.54,0.55,0.5,0.29,0.55,0.3,0.53,0.42,0.55,0.25,0.42,0.44,0.29,0.55,0.26,0.36,0.55,0.36,0.42,0.52,0.36,0.42,0.36,0.42,0.54,0.3,0.44,0.3,0.26,0.46,0.42,0.55,0.5,0.29,0.55,0.44,0.46,0.42,0.36,0.44,0.46,0.42" style="fill:rgb(0,0,0);font-family:AdvOT1ef757c0;font-size:10.96px;stroke:none;">thus, once homogenized, the isotopic composition of the leaf is representative of average</text>
  </g>
  <g begin="text">
   <text y="587.451" x="186.861,192.559,195.409,199.398,203.957,207.946,210.795,219.694,222.543,228.472,233.261,236.571,239.42,244.9,250.8184,254.156,259.854,265.553,269.542,272.391,278.32,283.3616,286.584,289.894,295.713,300.31620000000004,303.593,306.333,310.891,315.681" svgx:width="0.52,0.26,0.36,0.42,0.36,0.26,0.81,0.26,0.54,0.44,0.3,0.26,0.5,0.54,0.55,0.52,0.52,0.36,0.26,0.54,0.46,0.55,0.3,0.53,0.42,0.55,0.25,0.42,0.44,0.29" style="fill:rgb(0,0,0);font-family:AdvOT1ef757c0;font-size:10.96px;stroke:none;">discrimination during the leaf</text>
  </g>
  <g begin="text">
   <text y="587.451" x="318.841" svgx:width="0.22" style="fill:rgb(0,0,0);font-family:AdvOT1ef757c0;font-size:10.96px;stroke:none;">’</text>
  </g>
  <g begin="text">
   <text y="587.451" x="321.223,325.1686,328.535,333.094,338.223,343.922,349.401,353.39,359.089,363.078,367.637" svgx:width="0.36,0.55,0.42,0.47,0.52,0.5,0.36,0.52,0.36,0.42,0.22" style="fill:rgb(0,0,0);font-family:AdvOT1ef757c0;font-size:10.96px;stroke:none;">s exposure.</text>
  </g>
  <g begin="text">
   <text y="615.345" x="186.86" svgx:width="0.67" style="fill:rgb(51,51,51);font-family:AdvPS7DA6;font-size:11.96px;stroke:none;">D</text>
  </g>
  <g begin="text">
   <text y="617.386" x="194.854,197.274,202.224,207.173" svgx:width="0.27,0.55,0.55,0.32" style="fill:rgb(51,51,51);font-family:AdvTT5bc682ca.B;font-size:7.97px;stroke:none;">leaf</text>
  </g>
  <g begin="text">
   <text y="615.345" x="213.676,220.275,227.496,234.672,238.337,242.186,250.77" svgx:width="0.55,0.6,0.6,0.55,0.32,0.72,0.77" style="fill:rgb(51,51,51);font-family:AdvTT5bc682ca.B;font-size:11.96px;stroke:none;">and [CO</text>
  </g>
  <g begin="text">
   <text y="617.386" x="259.994" svgx:width="0.55" style="fill:rgb(51,51,51);font-family:AdvTT5bc682ca.B;font-size:7.97px;stroke:none;">2</text>
  </g>
  <g begin="text">
   <text y="615.345" x="264.926" svgx:width="0.32" style="fill:rgb(51,51,51);font-family:AdvTT5bc682ca.B;font-size:11.96px;stroke:none;">]</text>
  </g>
  <g begin="text">
   <text y="631.332" x="186.86,190.509,196.42739999999998,199.729,203.039,208.858,211.707,215.6526,219.005,222.994,226.303,232.002,237.701,242.74259999999998,245.991,253.411,258.0142,261.242,264.431,269.91,275.609,281.538,287.23720000000003,290.553,296.482,301.96200000000005,305.237,309.226,313.785,316.524,321.314,324.623,327.473,332.952,338.881,342.87,348.689,351.538,357.23720000000003,360.513,365.992,370.551,373.861,381.28,385.839,390.398" svgx:width="0.33,0.54,0.55,0.3,0.53,0.26,0.36,0.55,0.36,0.3,0.52,0.52,0.46,0.55,0.68,0.42,0.55,0.29,0.5,0.52,0.54,0.52,0.55,0.54,0.5,0.55,0.36,0.42,0.25,0.44,0.3,0.26,0.5,0.54,0.36,0.53,0.26,0.52,0.55,0.5,0.42,0.3,0.68,0.42,0.42,0.54" style="fill:rgb(0,0,0);font-family:AdvOT1ef757c0;font-size:10.96px;stroke:none;">In this study we found no relationship between</text>
  </g>
  <g begin="text">
   <text y="631.332" x="399.571" svgx:width="0.67" style="fill:rgb(0,0,0);font-family:AdvPS7DA6;font-size:10.96px;stroke:none;">D</text>
  </g>
  <g begin="text">
   <text y="633.146" x="406.885,408.94,412.359,415.951" svgx:width="0.25,0.42,0.44,0.29" style="fill:rgb(0,0,0);font-family:AdvOT1ef757c0;font-size:7.31px;stroke:none;">leaf</text>
  </g>
  <g begin="text">
   <text y="631.332" x="421.625,426.414,432.343,438.04220000000004,441.355,445.114,452.303" svgx:width="0.44,0.54,0.52,0.55,0.34,0.66,0.74" style="fill:rgb(0,0,0);font-family:AdvOT1ef757c0;font-size:10.96px;stroke:none;">and [CO</text>
  </g>
  <g begin="text">
   <text y="633.146" x="460.403" svgx:width="0.48" style="fill:rgb(0,0,0);font-family:AdvOT1ef757c0;font-size:7.31px;stroke:none;">2</text>
  </g>
  <g begin="text">
   <text y="631.332" x="464.315,468.0414,471.401,474.59,478.579,484.059,492.9366,496.233,501.482,506.732,511.99280000000005,515.225,518.534,524.014,527.301,532.55,537.799,543.0598,546.35,552.048,557.747" svgx:width="0.34,0.55,0.29,0.36,0.5,0.81,0.55,0.48,0.48,0.48,0.55,0.3,0.5,0.55,0.48,0.48,0.48,0.55,0.52,0.52,0.81" style="fill:rgb(0,0,0);font-family:AdvOT1ef757c0;font-size:10.96px;stroke:none;">] from 280 to 410 ppm</text>
  </g>
  <g begin="text">
   <text y="646.242" x="186.86" svgx:width="0.34" style="fill:rgb(0,0,0);font-family:AdvOT1ef757c0;font-size:10.96px;stroke:none;">(</text>
  </g>
  <g begin="text">
   <text y="646.242" x="190.659,196.357,199.207,204.226,206.6372,209.878" svgx:width="0.52,0.26,0.46,0.22,0.55,0.48" style="fill:rgb(0,138,191);font-family:AdvOT1ef757c0;font-size:10.96px;stroke:none;">Fig. 4</text>
  </g>
  <g begin="text">
   <text y="646.242" x="215.093" svgx:width="0.22" style="fill:rgb(0,0,0);font-family:AdvOT1ef757c0;font-size:10.96px;stroke:none;">;</text>
  </g>
  <g begin="text">
   <text y="646.242" x="220.762,226.461,229.31,234.329,236.74020000000002,239.981,245.11" svgx:width="0.52,0.26,0.46,0.22,0.55,0.47,0.48" style="fill:rgb(0,138,191);font-family:AdvOT1ef757c0;font-size:10.96px;stroke:none;">Fig. S4</text>
  </g>
  <g begin="text">
   <text y="646.242" x="250.356,254.115,256.5262,259.767,263.417,266.705,269.972,272.822,276.7676,280.063,285.762,291.241,295.231,299.22,302.069,307.548,310.288,314.8912,318.048,321.358,327.177,331.966,335.254,338.514,341.824,347.643,352.2462,355.466,359.455,364.014,366.753,371.542,374.852,377.701,383.181,389.11,393.099,398.918,401.767,407.4662,410.685,416.164,421.644,425.633,430.192,434.181,439.2,443.759,449.45820000000003,452.695,458.174" svgx:width="0.34,0.22,0.55,0.33,0.3,0.55,0.26,0.36,0.55,0.52,0.5,0.36,0.36,0.26,0.5,0.25,0.42,0.55,0.3,0.53,0.44,0.3,0.55,0.3,0.53,0.42,0.55,0.36,0.42,0.25,0.44,0.3,0.26,0.5,0.54,0.36,0.53,0.26,0.52,0.55,0.5,0.5,0.36,0.42,0.36,0.46,0.42,0.52,0.55,0.5,0.46" style="fill:rgb(0,0,0);font-family:AdvOT1ef757c0;font-size:10.96px;stroke:none;">). It is possible that the relationship observed by</text>
  </g>
  <g begin="text">
   <text y="646.242" x="466.468,471.487,475.597,481.186,487.005,492.255,496.584,500.573,503.861,507.117,515.4466,518.682,522.102,527.461,533.05,537.039,541.367,547.1758,550.431,554.08,559.209,564.337,569.466,574.595" svgx:width="0.46,0.38,0.51,0.53,0.48,0.4,0.36,0.3,0.55,0.76,0.55,0.31,0.49,0.51,0.36,0.4,0.53,0.55,0.33,0.47,0.47,0.47,0.47,0.32" style="fill:rgb(0,138,191);font-family:AdvOT7d6df7ab.I;font-size:10.96px;stroke:none;">Schubert &amp; Jahren (2012)</text>
  </g>
  <g begin="text">
   <text y="661.209" x="186.859,191.418,196.547,199.396,203.385,206.695,210.6406,214.016,219.495,225.424,228.164,233.20559999999998,236.466,239.655,245.135,249.0806,252.397,255.247,260.945,265.504,270.293,273.033,275.882,280.441,285.0,290.6992,293.954,298.513,303.992,309.921,313.231,317.22,322.699,325.439,328.179,332.738,338.4372,341.746,346.765,350.754,356.234,363.653,366.963,372.77180000000004,376.045,380.604,386.424,391.213,400.111,405.591,410.15,414.0956,417.375,421.934,427.414,433.342,439.041,441.89,445.2,448.049,453.529,459.458,463.40360000000004,466.755,471.544,477.473,483.17220000000003,486.428,492.357,497.836,501.124,504.456,507.306,513.2244,516.532,522.461,527.25,530.56,536.258,540.247,545.036" svgx:width="0.42,0.47,0.26,0.36,0.3,0.36,0.55,0.5,0.54,0.25,0.46,0.55,0.29,0.5,0.36,0.55,0.26,0.52,0.42,0.44,0.25,0.26,0.42,0.42,0.52,0.55,0.42,0.5,0.54,0.3,0.36,0.5,0.25,0.25,0.42,0.52,0.55,0.46,0.36,0.5,0.68,0.3,0.53,0.55,0.42,0.53,0.44,0.81,0.5,0.42,0.36,0.55,0.42,0.5,0.54,0.52,0.26,0.3,0.26,0.5,0.54,0.36,0.55,0.44,0.54,0.52,0.55,0.54,0.5,0.3,0.55,0.26,0.54,0.55,0.54,0.44,0.3,0.52,0.36,0.44,0.25" style="fill:rgb(0,0,0);font-family:AdvOT1ef757c0;font-size:10.96px;stroke:none;">exists only for idealized controlled growth chamber conditions and not in natural</text>
  </g>
  <g begin="text">
   <text y="676.119" x="186.859,191.418,197.347,202.366,205.216,209.205,214.684,220.613,229.512,234.071,239.999,243.309,247.2546,249.846" svgx:width="0.42,0.54,0.46,0.26,0.36,0.5,0.54,0.81,0.42,0.54,0.3,0.36,0.55,0.34" style="fill:rgb(0,0,0);font-family:AdvOT1ef757c0;font-size:10.96px;stroke:none;">environments (</text>
  </g>
  <g begin="text">
   <text y="676.119" x="253.586,259.406,264.534,273.093,278.452,283.6032,286.128,290.457,293.745,296.276,301.635,304.254,306.764,309.2848,311.81,316.939,322.068,327.197" svgx:width="0.53,0.47,0.78,0.49,0.47,0.55,0.4,0.3,0.55,0.49,0.24,0.23,0.23,0.55,0.47,0.47,0.47,0.47" style="fill:rgb(0,138,191);font-family:AdvOT7d6df7ab.I;font-size:10.96px;stroke:none;">Lomax et al., 2019</text>
  </g>
  <g begin="text">
   <text y="676.119" x="332.332,336.091,338.5022,341.006,348.535,351.275,354.585,359.143,363.133,369.061,373.85,377.16,380.009,385.029,389.588,392.327,397.347,399.7582,402.235,407.255,412.274,421.173,427.101,432.581,436.57,442.269,446.828,450.817,459.715,463.6606,466.243,475.141,479.93,484.9716,487.446,491.435,495.994,499.983,505.682,511.161,517.09,522.7892,525.317,534.216,539.695,543.684,548.2872,550.773,554.762,557.501,562.981,570.4,573.14" svgx:width="0.34,0.22,0.55,0.69,0.25,0.3,0.42,0.36,0.54,0.44,0.3,0.26,0.46,0.42,0.25,0.46,0.22,0.55,0.46,0.46,0.81,0.54,0.5,0.36,0.52,0.42,0.36,0.81,0.36,0.55,0.81,0.44,0.46,0.55,0.36,0.42,0.36,0.52,0.5,0.54,0.52,0.55,0.81,0.5,0.36,0.42,0.55,0.36,0.25,0.5,0.68,0.25,0.46" style="fill:rgb(0,0,0);font-family:AdvOT1ef757c0;font-size:10.96px;stroke:none;">). Alternatively, gymnosperms may respond more slowly</text>
  </g>
  <g begin="text">
   <text y="691.085" x="186.858,190.168,195.987,200.776,206.6944,209.989,214.778,220.707,225.726,228.576,234.055,238.044,243.743,248.302,252.291,261.19,265.1356,268.497,271.807,277.28700000000003,280.516,283.365,289.294,293.853,297.842,302.401,307.19,311.179,315.738,319.6836,323.036,325.885,331.8034,335.111,338.87,346.06" svgx:width="0.3,0.53,0.44,0.54,0.55,0.44,0.54,0.46,0.26,0.5,0.36,0.52,0.42,0.36,0.81,0.36,0.55,0.3,0.5,0.55,0.26,0.54,0.42,0.36,0.42,0.44,0.36,0.42,0.36,0.55,0.26,0.54,0.55,0.34,0.66,0.74" style="fill:rgb(0,0,0);font-family:AdvOT1ef757c0;font-size:10.96px;stroke:none;">than angiosperms to increases in [CO</text>
  </g>
  <g begin="text">
   <text y="692.901" x="354.16" svgx:width="0.48" style="fill:rgb(0,0,0);font-family:AdvOT1ef757c0;font-size:7.31px;stroke:none;">2</text>
  </g>
  <g begin="text">
   <text y="691.087" x="358.072,361.7984,365.158,370.857,376.556,381.1592,384.377,387.687,393.16700000000003,396.453,399.762,405.582,410.141,412.99,416.9356,420.265,423.004,428.484,434.413,439.432,443.991,447.9366,451.276,456.065,461.085,465.644,469.633,474.422,479.441,484.0442,487.277,490.016,492.866,496.055,500.614,504.603,510.301,515.091,521.019,524.9646,528.266,533.055,538.983,544.6822,547.995,550.735,555.524,560.083" svgx:width="0.34,0.55,0.52,0.52,0.42,0.55,0.3,0.5,0.55,0.3,0.53,0.42,0.26,0.36,0.55,0.25,0.5,0.54,0.46,0.42,0.36,0.55,0.44,0.46,0.42,0.36,0.44,0.46,0.42,0.55,0.25,0.26,0.29,0.42,0.36,0.52,0.44,0.54,0.36,0.55,0.44,0.54,0.52,0.55,0.25,0.44,0.42,0.49" style="fill:rgb(0,0,0);font-family:AdvOT1ef757c0;font-size:10.96px;stroke:none;">] due to their longer average lifespans and lack</text>
  </g>
  <g begin="text">
   <text y="706.053" x="186.86,192.339,195.5174,198.028,202.017,206.576,212.505,217.064,221.053,225.612,230.171,236.1,240.659,245.26219999999998,247.635" svgx:width="0.5,0.29,0.55,0.36,0.42,0.54,0.42,0.36,0.42,0.42,0.54,0.42,0.42,0.55,0.34" style="fill:rgb(0,0,0);font-family:AdvOT1ef757c0;font-size:10.96px;stroke:none;">of senescence (</text>
  </g>
  <g begin="text">
   <text y="706.053" x="251.432,257.701,261.69,266.819,272.298,276.287,279.246,284.496,289.745,292.2658,294.69,300.739,303.698,307.008,310.317,314.646,318.635,327.194,332.553,338.372,344.18080000000003,346.621,357.393,364.242,369.371,374.5,383.059,387.388,391.037,393.5578,396.001,401.13,406.259,411.388" svgx:width="0.57,0.36,0.47,0.5,0.36,0.27,0.48,0.48,0.23,0.55,0.55,0.27,0.3,0.3,0.4,0.36,0.78,0.49,0.53,0.53,0.55,0.76,0.63,0.47,0.47,0.78,0.4,0.33,0.23,0.55,0.47,0.47,0.47,0.47" style="fill:rgb(0,138,191);font-family:AdvOT7d6df7ab.I;font-size:10.96px;stroke:none;">Brodribb, Pittermann &amp;Coomes, 2012</text>
  </g>
  <g begin="text">
   <text y="706.053" x="416.522,420.281,422.6922,425.139,431.868,437.687,442.2902,444.699,449.258,455.077,459.866,465.795,470.814,475.373,479.3186,481.776,484.626,490.5444,493.002,497.561,502.35,506.339,511.818,517.298,523.2164,525.657,530.446,534.435,538.425,541.274,550.173,553.022,555.762,560.551,563.86,566.71,572.189" svgx:width="0.34,0.22,0.55,0.61,0.53,0.42,0.55,0.42,0.53,0.44,0.54,0.46,0.42,0.36,0.55,0.26,0.54,0.55,0.42,0.44,0.36,0.5,0.5,0.54,0.55,0.44,0.36,0.36,0.26,0.81,0.26,0.25,0.44,0.3,0.26,0.5,0.54" style="fill:rgb(0,0,0);font-family:AdvOT1ef757c0;font-size:10.96px;stroke:none;">). The changes in carbon assimilation</text>
  </g>
  <g begin="text">
   <text y="720.963" x="186.86,191.649,195.5946,198.482,202.471,207.03,212.729,216.718,221.277,225.266,229.825,235.753,239.063,243.622,249.3212,252.171,257.651,262.6926,265.494,268.343,274.272,278.831,282.82,287.379,292.168,296.157,300.716,306.4152,309.261,313.82,318.609,322.598,328.077,333.557,339.47540000000004,342.313,345.502,349.491,354.28,358.839,362.149,364.998,370.478,376.407,381.196,384.505,387.355,392.834,398.7524,401.615,407.313,413.242,418.941,423.5,427.4456,430.302,434.291,440.11,445.59,449.579,452.888,456.768,460.077,464.636,468.625,477.524,479.9352,482.743,485.592,491.291,495.85,500.639,503.379,506.214,511.233,515.222,520.702,528.121,531.43,537.2388,540.06,544.618,550.438,555.227,564.125,569.605,574.164" svgx:width="0.44,0.36,0.55,0.36,0.42,0.52,0.36,0.42,0.36,0.42,0.54,0.3,0.42,0.52,0.55,0.5,0.46,0.55,0.26,0.54,0.42,0.36,0.42,0.44,0.36,0.42,0.52,0.55,0.42,0.44,0.36,0.5,0.5,0.54,0.55,0.29,0.36,0.44,0.42,0.3,0.26,0.5,0.54,0.44,0.3,0.26,0.5,0.54,0.55,0.52,0.54,0.52,0.42,0.36,0.55,0.36,0.53,0.5,0.36,0.3,0.35,0.3,0.42,0.36,0.81,0.22,0.55,0.26,0.52,0.42,0.44,0.25,0.55,0.46,0.36,0.5,0.68,0.3,0.53,0.55,0.42,0.53,0.44,0.81,0.5,0.42,0.36" style="fill:rgb(0,0,0);font-family:AdvOT1ef757c0;font-size:10.96px;stroke:none;">as represented by increased carbon fractionation under short-term, ideal growth chamber</text>
  </g>
  <path style="fill:rgb(168,168,168);stroke:none;stroke-width:1.0;" d="M450.140 749.370 L554.740 749.370 L554.230 749.880 L450.650 749.880 "/>
  <path style="fill:rgb(168,168,168);stroke:none;stroke-width:1.0;" d="M554.740 749.370 L554.740 757.020 L554.230 756.510 L554.230 749.880 "/>
  <path style="fill:rgb(168,168,168);stroke:none;stroke-width:1.0;" d="M554.740 757.020 L450.140 757.020 L450.650 756.510 L554.230 756.510 "/>
  <path style="fill:rgb(168,168,168);stroke:none;stroke-width:1.0;" d="M450.140 757.020 L450.140 749.370 L450.650 749.880 L450.650 756.510 "/>
  <g begin="text">
   <text y="756.567" x="33.846,39.817,42.704,47.654,50.075,55.457,58.224,63.173,66.0434,68.769,73.719,76.14,78.5619,81.241,84.129,89.078,93.884,98.533,103.482,106.369" svgx:width="0.67,0.32,0.55,0.27,0.6,0.55,0.55,0.32,0.55,0.55,0.27,0.27,0.55,0.32,0.55,0.55,0.55,0.55,0.32,0.27" style="fill:rgb(51,51,51);font-family:AdvTT5bc682ca.B;font-size:8.97px;stroke:none;">Stein et al. (2019),</text>
  </g>
  <g begin="text">
   <text y="756.567" x="111.515,117.355,122.304,127.254,130.706" svgx:width="0.67,0.55,0.55,0.38,0.55" style="fill:rgb(51,51,51);font-family:AdvTT3978f921.BI;font-size:8.97px;stroke:none;">PeerJ</text>
  </g>
  <g begin="text">
   <text y="756.567" x="135.667,138.0889,140.826,147.264,154.168,156.5899,159.252,163.957,168.907,171.328,176.277,181.226,185.501,190.45,192.871,198.287,203.236,208.185,211.638,214.058,216.479,221.429,226.378,231.328" svgx:width="0.27,0.55,0.72,0.77,0.27,0.55,0.55,0.55,0.27,0.55,0.55,0.55,0.55,0.27,0.6,0.55,0.55,0.38,0.27,0.27,0.55,0.55,0.55,0.55" style="fill:rgb(51,51,51);font-family:AdvTT5bc682ca.B;font-size:8.97px;stroke:none;">, DOI 10.7717/peerj.7378</text>
  </g>
  <g begin="text">
   <text y="756.567" x="556.273,560.866,565.815,568.236,573.186" svgx:width="0.55,0.55,0.27,0.55,0.55" style="fill:rgb(0,166,252);font-family:AdvTT5bc682ca.B;font-size:8.97px;stroke:none;">13/23</text>
  </g>
  <path style="fill:rgb(2,167,252);stroke:none;stroke-width:1.0;" d="M40.320 41.110 C41.370 41.130 42.150 40.920 42.630 40.470 C43.120 40.020 43.350 39.400 43.350 38.570 C43.350 37.730 43.120 37.110 42.630 36.660 C42.150 36.240 41.370 36.020 40.320 36.020 L36.710 36.020 L36.710 41.110 L40.320 41.110 ZM40.950 34.470 C42.340 34.470 43.410 34.820 44.130 35.540 C44.850 36.260 45.200 37.270 45.200 38.570 C45.200 39.870 44.850 40.880 44.130 41.600 C43.410 42.320 42.340 42.680 40.950 42.660 L36.710 42.660 L36.710 48.340 L34.870 48.340 L34.870 34.470 "/>
  <path style="fill:rgb(2,167,252);stroke:none;stroke-width:1.0;" d="M52.350 41.250 C52.190 40.900 52.000 40.590 51.740 40.330 C51.490 40.080 51.180 39.890 50.850 39.730 C50.500 39.600 50.110 39.520 49.700 39.520 C49.280 39.520 48.890 39.600 48.560 39.730 C48.210 39.890 47.920 40.100 47.660 40.350 C47.410 40.610 47.220 40.920 47.080 41.250 C46.950 41.600 46.850 41.970 46.830 42.350 L52.600 42.350 C52.580 41.970 52.480 41.600 52.350 41.250 ZM52.730 47.690 C51.980 48.260 51.040 48.550 49.900 48.550 C49.100 48.550 48.400 48.410 47.820 48.160 C47.220 47.910 46.730 47.540 46.330 47.070 C45.920 46.610 45.630 46.040 45.430 45.400 C45.220 44.760 45.100 44.040 45.080 43.290 C45.080 42.530 45.200 41.830 45.430 41.190 C45.660 40.550 45.990 40.000 46.420 39.540 C46.830 39.070 47.330 38.700 47.920 38.450 C48.480 38.200 49.120 38.060 49.800 38.060 C50.690 38.060 51.430 38.240 52.030 38.610 C52.620 38.980 53.080 39.460 53.450 40.020 C53.800 40.590 54.050 41.210 54.190 41.890 C54.330 42.570 54.370 43.210 54.350 43.810 L46.830 43.810 C46.810 44.260 46.870 44.670 46.990 45.050 C47.100 45.460 47.300 45.810 47.550 46.100 C47.800 46.410 48.130 46.670 48.540 46.840 C48.950 47.020 49.410 47.110 49.960 47.110 C50.660 47.110 51.240 46.960 51.680 46.630 C52.130 46.300 52.420 45.810 52.560 45.150 L54.190 45.150 C53.980 46.280 53.490 47.130 52.730 47.690 "/>
  <path style="fill:rgb(2,167,252);stroke:none;stroke-width:1.0;" d="M62.190 41.250 C62.030 40.900 61.840 40.590 61.580 40.330 C61.330 40.080 61.020 39.890 60.690 39.730 C60.340 39.600 59.950 39.520 59.540 39.520 C59.120 39.520 58.730 39.600 58.400 39.730 C58.050 39.890 57.760 40.100 57.510 40.350 C57.250 40.610 57.060 40.920 56.920 41.250 C56.790 41.600 56.690 41.970 56.670 42.350 L62.440 42.350 C62.420 41.970 62.320 41.600 62.190 41.250 L62.190 41.250 ZM62.580 47.690 C61.820 48.260 60.890 48.550 59.740 48.550 C58.940 48.550 58.240 48.410 57.660 48.160 C57.060 47.910 56.580 47.540 56.170 47.070 C55.760 46.610 55.470 46.040 55.270 45.400 C55.060 44.760 54.940 44.040 54.920 43.290 C54.920 42.530 55.040 41.830 55.270 41.190 C55.510 40.550 55.840 40.000 56.260 39.540 C56.670 39.070 57.180 38.700 57.760 38.450 C58.320 38.200 58.960 38.060 59.640 38.060 C60.540 38.060 61.270 38.240 61.880 38.610 C62.460 38.980 62.920 39.460 63.290 40.020 C63.640 40.590 63.900 41.210 64.030 41.890 C64.170 42.570 64.210 43.210 64.190 43.810 L56.670 43.810 C56.650 44.260 56.710 44.670 56.830 45.050 C56.940 45.460 57.140 45.810 57.390 46.100 C57.640 46.410 57.970 46.670 58.380 46.840 C58.790 47.020 59.250 47.110 59.800 47.110 C60.500 47.110 61.080 46.960 61.530 46.630 C61.970 46.300 62.260 45.810 62.400 45.150 L64.030 45.150 C63.820 46.280 63.330 47.130 62.580 47.690 "/>
  <path style="fill:rgb(2,167,252);stroke:none;stroke-width:1.0;" d="M66.520 38.290 L66.520 40.410 L66.560 40.410 C66.970 39.600 67.450 38.990 68.040 38.610 C68.620 38.220 69.360 38.040 70.250 38.060 L70.250 39.810 C69.590 39.810 69.030 39.910 68.560 40.080 C68.090 40.260 67.720 40.530 67.430 40.880 C67.140 41.230 66.950 41.650 66.810 42.140 C66.680 42.640 66.620 43.230 66.620 43.870 L66.620 48.330 L64.970 48.330 L64.970 38.290 "/>
  <path style="fill:rgb(2,167,252);stroke:none;stroke-width:1.0;" d="M71.850 47.580 C71.450 47.360 71.140 47.050 70.920 46.680 C70.710 46.320 70.590 45.910 70.530 45.420 C70.480 44.940 70.480 44.450 70.510 43.930 L69.660 43.930 C69.660 44.450 69.700 44.980 69.760 45.540 C69.820 46.100 69.970 46.610 70.220 47.070 C70.470 47.540 70.860 47.930 71.390 48.220 C71.910 48.510 72.650 48.670 73.580 48.670 C74.220 48.670 74.770 48.590 75.210 48.430 C75.640 48.280 75.990 48.060 76.280 47.810 C76.570 47.560 76.790 47.290 76.940 46.960 C77.080 46.630 77.190 46.300 77.270 45.950 C77.330 45.620 77.370 45.270 77.390 44.940 C77.390 44.610 77.390 44.300 77.390 44.020 L77.390 34.470 L76.530 34.470 L76.530 43.730 C76.530 44.220 76.530 44.700 76.520 45.190 C76.500 45.690 76.380 46.140 76.200 46.550 C76.030 46.960 75.720 47.290 75.310 47.540 C74.880 47.790 74.280 47.930 73.490 47.930 C72.810 47.930 72.260 47.810 71.850 47.580 "/>
 </g>
</svg>
