<?xml version="1.0" encoding="UTF-8"?>
<svg height="740.545" width="4151.732" xmlns="http://www.w3.org/2000/svg">
 <g id="page" xmlns:svgx="http://www.xml-cml.org/schema/svgx">
  <g begin="text">
   <text y="63.723" x="141.732,148.885,153.239,162.056,166.506,169.196,171.886,176.24,178.73000000000002,181.416,186.916,189.406,198.223,200.714,203.204,205.85,212.486,217.467,222.518,226.872,231.853,234.543,237.03300000000002,239.695,246.33,248.821,254.32,256.811,259.301,261.976,270.793,275.146,279.5,283.336,286.126,289.334,292.024,294.514,297.182,305.998,308.489,310.979,313.679,320.314,324.667,327.875,331.083,336.065,339.9,342.39,345.086,351.721,354.212,356.702,359.372,364.353,369.335,374.396,379.377,381.867,384.487,390.504,394.858,399.907,404.888,409.87,414.851,418.686,421.376,426.358,429.048,434.029,439.01,443.99,446.734,451.715,454.9022,457.563,461.916,466.897,470.105" svgx:width="0.72,0.44,0.88,0.44,0.27,0.27,0.44,0.25,0.55,0.55,0.25,0.88,0.25,0.25,0.55,0.67,0.5,0.5,0.44,0.5,0.27,0.25,0.55,0.67,0.25,0.55,0.25,0.25,0.55,0.88,0.44,0.44,0.38,0.27,0.32,0.27,0.25,0.55,0.88,0.25,0.25,0.55,0.67,0.44,0.32,0.32,0.5,0.38,0.25,0.55,0.67,0.25,0.25,0.55,0.5,0.5,0.5,0.5,0.25,0.55,0.6,0.44,0.5,0.5,0.5,0.5,0.38,0.27,0.5,0.27,0.5,0.5,0.5,0.55,0.5,0.32,0.55,0.44,0.5,0.32,0.32" style="fill:rgb(0,122,173);font-family:AdvOTb0c9bf5d;font-size:9.96px;stroke:none;">DaMatta, F.M., Ronchi, C.P., Maestri, M., Barros, R., 2007. Ecophysiology of cof-</text>
   <text y="78.69" x="141.732,144.94,149.294,153.6764,156.982,162.028,165.236,170.217,177.37,180.06,185.04,188.39,192.744,197.725,202.70499999999998,206.078,211.059,214.267,219.248,224.229,229.211,233.564,236.351,239.041,244.022,249.003,251.493,254.833,261.468,264.676,269.029,273.383,275.873,279.267,282.893,285.383,288.734,294.234,296.924,301.277,306.259,308.94820000000004,312.318,317.817,322.798,327.78,331.615,334.305,339.36,342.05" svgx:width="0.32,0.44,0.44,0.55,0.5,0.32,0.5,0.72,0.27,0.5,0.55,0.44,0.5,0.5,0.55,0.5,0.32,0.5,0.5,0.5,0.44,0.27,0.27,0.5,0.5,0.25,0.55,0.67,0.32,0.44,0.44,0.25,0.55,0.36,0.25,0.55,0.55,0.27,0.44,0.5,0.27,0.55,0.55,0.5,0.5,0.38,0.27,0.5,0.27,0.25" style="fill:rgb(0,122,173);font-family:AdvOTb0c9bf5d;font-size:9.96px;stroke:none;">fee growth and production. Braz. J. Plant Physiol.</text>
   <text y="101.083" x="141.732,148.885,152.093,156.447,161.428,166.506,168.996,172.062,179.215,181.706,184.196,187.312,192.293,197.275,202.256,207.237,209.727,212.88,219.515,222.205,224.895,232.566,236.92,239.61,243.9924,247.178,251.532,256.513,260.867,265.848,270.829,275.2114,278.302,285.974,288.664,291.455,294.145,299.126,303.48,306.17,308.86,313.841,318.821,321.956,326.309,331.291,336.271,339.417,343.771,348.752,351.96,354.65,359.089,364.071,366.76,369.45,374.432,377.64,381.993,384.6822,387.832,392.814,397.167,402.149,406.502,409.192,414.251,419.232,426.904,431.257,436.239,438.9282,442.087,449.758,454.739,459.72,464.074,466.764,470.6" svgx:width="0.72,0.32,0.44,0.5,0.5,0.25,0.55,0.72,0.25,0.25,0.55,0.5,0.5,0.5,0.5,0.25,0.55,0.67,0.27,0.27,0.77,0.44,0.27,0.44,0.55,0.44,0.5,0.44,0.5,0.5,0.44,0.55,0.77,0.27,0.27,0.27,0.5,0.44,0.27,0.27,0.5,0.5,0.55,0.44,0.5,0.5,0.55,0.44,0.5,0.32,0.27,0.44,0.5,0.27,0.27,0.5,0.32,0.44,0.27,0.55,0.5,0.44,0.5,0.44,0.27,0.5,0.5,0.77,0.44,0.5,0.27,0.55,0.77,0.5,0.5,0.44,0.27,0.38,0.27" style="fill:rgb(0,122,173);font-family:AdvOTb0c9bf5d;font-size:9.96px;stroke:none;">Drabo, A., 2017. Climate change mitigation and agricultural development models:</text>
   <text y="116.05" x="141.732,146.713,149.921,152.611,160.283,164.636,167.844,172.82399999999998,176.258,180.611,185.593,193.264,200.935,205.916,210.898,213.674,216.364,221.344,224.673,229.026,234.008,238.989,243.97,247.178,249.958,253.7428,257.101,262.082,265.2692,268.667,271.356,276.338,280.691,285.045,287.73420000000004,291.116,295.47,300.451,305.433,309.268,314.249,322.013,326.995,329.685,332.374,337.356,342.336,345.71,350.692,353.9,358.881,363.862,368.843,373.197,375.887,378.577,383.558,388.54,392.92240000000004,396.336,402.354,406.707,411.689,414.379,416.869,420.204,426.221,430.575,435.624,440.605" svgx:width="0.5,0.32,0.27,0.77,0.44,0.32,0.5,0.55,0.44,0.5,0.77,0.77,0.5,0.5,0.27,0.27,0.5,0.55,0.44,0.5,0.5,0.5,0.32,0.27,0.38,0.55,0.5,0.32,0.55,0.27,0.5,0.44,0.44,0.27,0.55,0.44,0.5,0.5,0.38,0.5,0.77,0.5,0.27,0.27,0.5,0.5,0.55,0.5,0.32,0.5,0.5,0.5,0.44,0.27,0.27,0.5,0.5,0.44,0.55,0.6,0.44,0.5,0.27,0.25,0.55,0.6,0.44,0.5,0.5,0.25" style="fill:rgb(0,122,173);font-family:AdvOTb0c9bf5d;font-size:9.96px;stroke:none;">primary commodity exports or local consumption production? Ecol. Econ.</text>
   <text y="138.444" x="141.732,147.232,151.585,154.275,159.256,161.746,165.316,170.815,173.306,176.932,179.488,181.978,185.498,192.651,197.632" svgx:width="0.55,0.44,0.27,0.5,0.25,0.55,0.55,0.25,0.36,0.25,0.25,0.55,0.72,0.5,0.27" style="fill:rgb(0,122,173);font-family:AdvOTb0c9bf5d;font-size:9.96px;stroke:none;">Fain, S.J., Qui</text>
   <text y="138.217" x="200.352" svgx:width="0.5" style="fill:rgb(0,122,173);font-family:AdvP4C4E59;font-size:9.96px;stroke:none;">~</text>
   <text y="138.444" x="200.352,205.334,210.317,215.299,219.654,223.49,225.98000000000002,229.546,238.363,240.855" svgx:width="0.5,0.5,0.5,0.44,0.38,0.25,0.55,0.88,0.25,0.25" style="fill:rgb(0,122,173);font-family:AdvOTb0c9bf5d;font-size:9.96px;stroke:none;">nones, M.,</text>
   <text y="136.12" code="1" x="247.974" svgx:width="0.5" style="fill:rgb(0,122,173);font-family:AdvP4C4E59;font-size:9.96px;stroke:none;">?</text>
   <text y="138.444" x="246.897,254.052,256.742,261.725,266.079,269.288,273.643,277.998,281.207,287.96,292.315,295.524,298.733,301.424,306.406,310.243,312.733,316.312,323.466,325.958,331.976,334.468,336.958,340.523,344.878,347.5672,351.125,355.48,358.171,360.662,363.152,366.718,371.701,376.683,381.665,386.648,389.13800000000003,392.688,399.324,402.015,404.706,412.477,416.831,419.522,423.9044,427.389,431.743,436.726,441.167,446.149,451.132,455.5144,459.027,463.382,468.364" svgx:width="0.72,0.27,0.5,0.44,0.32,0.44,0.44,0.32,0.67,0.44,0.32,0.32,0.27,0.5,0.38,0.25,0.55,0.72,0.25,0.6,0.25,0.25,0.55,0.44,0.27,0.55,0.44,0.27,0.25,0.25,0.55,0.5,0.5,0.5,0.5,0.25,0.55,0.67,0.27,0.27,0.77,0.44,0.27,0.44,0.55,0.44,0.5,0.44,0.5,0.5,0.44,0.55,0.44,0.5,0.5" style="fill:rgb(0,122,173);font-family:AdvOTb0c9bf5d;font-size:9.96px;stroke:none;">Alvarez-Berríos, N.L., et al., 2017. Climate change and</text>
   <text y="153.411" x="141.732,146.086,151.086,157.096,161.449,165.883,168.5722,171.892,176.246,180.081,183.917,188.27,192.188,196.023,198.713,203.695,208.67499999999998,212.03,217.012,221.993,224.683,229.664,234.018,237.315,241.669,246.65,249.34,252.112,254.802,257.492,262.47200000000004,265.831,270.813,275.793,279.154,286.825,291.807,296.788,301.142,303.832,306.521,311.503,316.483,319.916,323.124,328.105,330.795,335.777,339.078,343.4604,346.788,351.142,353.832,356.522,364.193,368.547,371.237,375.61940000000004,379.046,382.882,387.863,390.553,393.243,397.597,402.578,405.268,407.958,410.648,413.458,418.43800000000005,421.792,424.482,429.46200000000005,432.791,435.48,440.462,444.8444,448.211,454.846,459.199,462.407,465.097,470.079" svgx:width="0.44,0.5,0.6,0.44,0.44,0.27,0.55,0.44,0.38,0.38,0.44,0.38,0.38,0.27,0.5,0.5,0.55,0.5,0.5,0.27,0.5,0.44,0.32,0.44,0.5,0.27,0.27,0.27,0.27,0.5,0.55,0.5,0.5,0.55,0.77,0.5,0.5,0.44,0.27,0.27,0.5,0.5,0.55,0.32,0.5,0.27,0.5,0.32,0.44,0.55,0.44,0.27,0.27,0.77,0.44,0.27,0.44,0.55,0.38,0.5,0.27,0.27,0.44,0.5,0.27,0.27,0.27,0.27,0.5,0.55,0.27,0.5,0.55,0.27,0.5,0.44,0.55,0.67,0.44,0.32,0.27,0.5,0.32" style="fill:rgb(0,122,173);font-family:AdvOTb0c9bf5d;font-size:9.96px;stroke:none;">coﬀee: assessing vulnerability by modeling future climate suitability in the Carib-</text>
   <text y="168.378" x="141.732,146.714,151.067,155.421,160.40099999999998,163.785,166.475,170.311,173.001,177.354,182.336,187.316,190.714,195.696,198.8832,202.223,207.722,212.704,217.057,220.265,222.955,227.935,231.306,237.941,240.717,245.07,250.051,252.541,255.854,262.489,265.179,267.869,275.639,278.129,281.422,288.057,293.038,297.466,302.447,307.428" svgx:width="0.5,0.44,0.44,0.5,0.55,0.27,0.38,0.27,0.44,0.5,0.5,0.55,0.5,0.32,0.55,0.55,0.5,0.44,0.32,0.27,0.5,0.55,0.67,0.27,0.44,0.5,0.25,0.55,0.67,0.27,0.27,0.77,0.25,0.55,0.67,0.5,0.44,0.5,0.5,0.44" style="fill:rgb(0,122,173);font-family:AdvOTb0c9bf5d;font-size:9.96px;stroke:none;">bean island of Puerto Rico. Clim. Change</text>
   <text y="168.378" x="311.81" svgx:width="0.25" style="fill:rgb(0,0,0);font-family:AdvOTb0c9bf5d;font-size:9.96px;stroke:none;">.</text>
   <text y="190.772" x="141.732,147.232,151.585,156.567,160.92,164.128,166.904,171.885,174.375,176.881,180.508,182.998,189.016,191.506,193.996,196.497,203.65,208.631,213.612,216.82,221.174,226.155,231.137,234.344,241.623,245.977,248.667,253.648,256.138,258.63,265.783,268.274,270.764,273.313,280.466,284.82,288.028,292.382,295.072,299.425,301.915,304.437,311.591,314.081,321.234,323.826,326.31600000000003,328.758,333.112,335.80120000000005,338.339,342.693,345.383,347.873,350.363,352.853,357.834,362.815,367.797,372.778,375.26800000000003,377.797,383.814,388.796,393.777,398.131" svgx:width="0.55,0.44,0.5,0.44,0.32,0.27,0.5,0.25,0.55,0.36,0.25,0.6,0.25,0.25,0.55,0.72,0.5,0.5,0.32,0.44,0.5,0.5,0.32,0.72,0.44,0.27,0.5,0.25,0.55,0.72,0.25,0.25,0.55,0.72,0.44,0.32,0.44,0.27,0.44,0.25,0.55,0.72,0.25,0.72,0.25,0.25,0.55,0.44,0.27,0.55,0.44,0.27,0.25,0.25,0.55,0.5,0.5,0.5,0.5,0.25,0.55,0.6,0.5,0.5,0.44,0.44" style="fill:rgb(0,122,173);font-family:AdvOTb0c9bf5d;font-size:9.96px;stroke:none;">Favarin, J.L., Dourado-Neto, D., Garcia, A.G., et al., 2002. Equaç</text>
   <text y="190.488" x="402.518" svgx:width="0.5" style="fill:rgb(0,122,173);font-family:AdvP4C4E59;font-size:9.96px;stroke:none;">~</text>
   <text y="190.772" x="402.518,407.501,411.855,415.63980000000004,418.216,423.199,427.553,430.762,435.1444,437.608,441.9904,444.469,448.823,452.66,455.351,458.042,465.714,470.069" svgx:width="0.5,0.44,0.38,0.55,0.5,0.44,0.32,0.44,0.55,0.44,0.55,0.44,0.38,0.27,0.27,0.77,0.44,0.32" style="fill:rgb(0,122,173);font-family:AdvOTb0c9bf5d;font-size:9.96px;stroke:none;">oes para a estima-</text>
   <text y="205.739" x="141.732,144.422,147.112,152.093,156.47539999999998,159.817,164.799,169.779,173.14,175.83,180.811,185.793,188.483,192.836,197.2184,200.579,205.561" svgx:width="0.27,0.27,0.5,0.44,0.55,0.5,0.5,0.55,0.27,0.5,0.5,0.27,0.44,0.44,0.55,0.5,0.44" style="fill:rgb(0,122,173);font-family:AdvOTb0c9bf5d;font-size:9.96px;stroke:none;">tiva do índice de</text>
   <text y="205.455" code="1" x="212.938" svgx:width="0.5" style="fill:rgb(0,122,173);font-family:AdvP4C4E59;font-size:9.96px;stroke:none;">?</text>
   <text y="205.739" x="213.222,217.575,220.783,225.137,229.5194,232.882,236.09,241.071,243.761,246.451,250.805,253.9922,257.43,262.411,267.391,270.696,275.05,279.403,282.611,286.965,291.319,294.11,297.318,302.299,304.789,308.114,313.613,318.034,321.87,326.851,331.833,334.522,337.012,340.372,347.525,352.506,355.714,360.695,365.676,370.03,374.384,379.365,381.855,385.272,391.907,395.115,399.469,403.304" svgx:width="0.44,0.32,0.44,0.44,0.55,0.32,0.5,0.27,0.27,0.44,0.32,0.55,0.5,0.5,0.55,0.44,0.44,0.32,0.44,0.44,0.27,0.32,0.5,0.25,0.55,0.55,0.44,0.38,0.5,0.5,0.27,0.25,0.55,0.72,0.5,0.32,0.5,0.5,0.44,0.44,0.5,0.25,0.55,0.67,0.32,0.44,0.38,0.25" style="fill:rgb(0,122,173);font-family:AdvOTb0c9bf5d;font-size:9.96px;stroke:none;">area foliar do cafeeiro. Pesqui. Agropecu. Bras.</text>
   <text y="228.132" x="141.732,148.885,153.239,158.22,160.71,164.125,170.76,173.251,175.741,179.149,185.166,189.069,191.759,194.967,199.321,204.302,208.656,211.14600000000002,214.581,220.08,222.571,225.061,228.471,235.106,240.087,245.068,250.05,254.403,256.893,260.332,266.967,269.458,271.94800000000004,275.356,281.373,285.727,290.708,293.398,298.379,300.869,304.325,311.478,313.969,316.459,319.858,327.012,329.702,332.391,335.081,339.435,342.643,346.479,348.969,352.456,358.474,360.964,363.454,366.856,371.837,376.819,381.8,386.781,389.271,392.708,398.207,403.189,405.879,410.232,415.214,417.903,420.593,424.947,427.63620000000003,431.089,433.779,441.45,446.509,450.863,455.216,457.906,461.6908,465.161,470.142" svgx:width="0.72,0.44,0.5,0.25,0.55,0.67,0.25,0.25,0.55,0.6,0.38,0.27,0.32,0.44,0.5,0.44,0.25,0.55,0.55,0.25,0.25,0.55,0.67,0.5,0.5,0.5,0.44,0.25,0.55,0.67,0.25,0.25,0.55,0.6,0.44,0.5,0.27,0.5,0.25,0.55,0.72,0.25,0.25,0.55,0.72,0.27,0.27,0.27,0.44,0.32,0.38,0.25,0.55,0.6,0.25,0.25,0.55,0.5,0.5,0.5,0.5,0.25,0.55,0.55,0.5,0.27,0.44,0.5,0.27,0.27,0.44,0.27,0.55,0.27,0.77,0.5,0.44,0.44,0.27,0.38,0.55,0.5,0.32" style="fill:rgb(0,122,173);font-family:AdvOTb0c9bf5d;font-size:9.96px;stroke:none;">Gay, C., Estrada, F., Conde, C., Eakin, H., Villers, L., 2006. Potential impacts of</text>
   <text y="243.099" x="141.732,146.086,148.776,151.466,159.137,163.491,166.18,170.5624,174.557,178.911,183.892,188.246,193.227,198.208,202.5904,206.474,211.52,216.5,220.364,224.718,229.699,232.907,235.597,240.036,245.017,247.707,250.397,255.378,258.586,262.94,265.6292,269.629,274.01140000000004,277.849,282.203,286.556,290.392,294.7744,298.712,303.693,306.8802,310.844,314.68,317.37,322.351,327.332,332.312,336.242,341.223,344.41020000000003,348.374,352.728,357.731,363.741,368.094,372.4764,376.383,381.365,384.573,389.554,394.535,399.516,403.87,406.56,409.25,414.231,419.211,423.211,425.9,430.88,434.776,441.929,446.283,449.573,453.926,458.28,461.488,466.469,470.823" svgx:width="0.44,0.27,0.27,0.77,0.44,0.27,0.44,0.55,0.44,0.5,0.44,0.5,0.5,0.44,0.55,0.5,0.5,0.55,0.44,0.5,0.32,0.27,0.44,0.5,0.27,0.27,0.5,0.32,0.44,0.27,0.55,0.44,0.55,0.44,0.44,0.38,0.44,0.55,0.5,0.32,0.55,0.38,0.27,0.5,0.5,0.5,0.55,0.5,0.32,0.55,0.44,0.5,0.6,0.44,0.44,0.55,0.5,0.32,0.5,0.5,0.5,0.44,0.27,0.27,0.5,0.5,0.55,0.27,0.5,0.55,0.72,0.44,0.32,0.44,0.44,0.32,0.5,0.44,0.25" style="fill:rgb(0,122,173);font-family:AdvOTb0c9bf5d;font-size:9.96px;stroke:none;">climate change on agriculture: a case of study of coﬀee production in Veracruz,</text>
   <text y="258.009" x="141.732,150.549,154.903,159.884,162.652,167.005,171.987,174.477,177.789,184.424,187.114,189.804,197.574,200.06400000000002,203.357,209.992,214.973,219.401,224.382,229.363" svgx:width="0.88,0.44,0.5,0.27,0.44,0.5,0.25,0.55,0.67,0.27,0.27,0.77,0.25,0.55,0.67,0.5,0.44,0.5,0.5,0.44" style="fill:rgb(0,122,173);font-family:AdvOTb0c9bf5d;font-size:9.96px;stroke:none;">Mexico. Clim. Change</text>
   <text y="258.009" x="233.745" svgx:width="0.25" style="fill:rgb(0,0,0);font-family:AdvOTb0c9bf5d;font-size:9.96px;stroke:none;">.</text>
   <text y="280.46" x="141.732,144.94,149.921,152.611,156.965,160.173,165.154,169.624,172.314,175.004,179.986,184.967,189.32,192.0092,196.497,203.132,208.119,214.185,218.539,222.92139999999998,227.338,234.491,237.699,242.68,247.034,252.015,254.705,259.059,263.412,266.229,268.919,273.9,278.88,283.35,286.557,289.765,296.401,303.645,306.853,309.343,313.793,323.128,328.109,331.317,334.007,338.987,343.5,350.135,355.123,361.133,365.486,369.8684,374.342,380.977,385.958,390.94,394.775,399.757,404.738,407.506,410.196,415.178,420.158,424.627,427.835,433.853,437.688,440.378,444.732,447.422,450.112,453.947,456.637,459.327,463.681,467.657,470.865" svgx:width="0.32,0.5,0.27,0.44,0.32,0.5,0.44,0.27,0.27,0.5,0.5,0.44,0.27,0.55,0.67,0.5,0.6,0.44,0.44,0.55,0.72,0.32,0.5,0.44,0.5,0.27,0.44,0.44,0.27,0.27,0.5,0.5,0.55,0.32,0.32,0.67,0.72,0.32,0.25,0.55,0.94,0.5,0.32,0.27,0.5,0.55,0.67,0.5,0.6,0.44,0.44,0.55,0.67,0.5,0.5,0.38,0.5,0.5,0.27,0.27,0.5,0.5,0.55,0.32,0.6,0.38,0.27,0.44,0.27,0.27,0.38,0.27,0.27,0.44,0.38,0.32,0.25" style="fill:rgb(0,0,0);font-family:AdvOTb0c9bf5d;font-size:9.96px;stroke:none;">International Coﬀee Organization (ICO). World Coﬀee Consuption (Estatistics).</text>
   <text y="295.37" x="141.732,146.713,149.403,152.093,157.075,159.764,162.454,165.144,172.297,179.602,186.755,189.246,191.936,196.289,201.271,203.761,208.743,211.951,217.018,219.708,224.69,227.898,230.588,234.941,239.295,243.13,245.931,250.912,255.266,262.419,265.627,269.981,274.962,279.943,283.779,288.76,296.557,301.538,304.228,306.918,311.899,316.881,320.088,322.778,327.132,332.216,334.906,339.26,341.75,346.731,351.713" svgx:width="0.5,0.27,0.27,0.5,0.27,0.27,0.27,0.72,0.72,0.72,0.25,0.27,0.44,0.5,0.25,0.5,0.32,0.5,0.27,0.5,0.32,0.27,0.44,0.44,0.38,0.27,0.5,0.44,0.72,0.32,0.44,0.5,0.5,0.38,0.5,0.77,0.5,0.27,0.27,0.5,0.5,0.32,0.27,0.44,0.5,0.27,0.44,0.25,0.5,0.5,0.32" style="fill:rgb(0,122,173);font-family:AdvOTb0c9bf5d;font-size:9.96px;stroke:none;">http://www.ico.org/prices/new-consumption-table.pdf</text>
   <text y="295.37" x="355.01,357.5,365.724,368.932,376.085,380.521,384.874,389.228,393.064,396.899,401.253,406.233,414.593,419.574,424.55400000000003,432.792,439.945,444.298,448.652,453.087,460.759,465.74,470.094" svgx:width="0.25,0.55,0.32,0.72,0.44,0.44,0.44,0.38,0.38,0.44,0.5,0.55,0.5,0.5,0.55,0.72,0.44,0.44,0.44,0.77,0.5,0.44,0.32" style="fill:rgb(0,0,0);font-family:AdvOTb0c9bf5d;font-size:9.96px;stroke:none;">. (Accessed 21 December</text>
   <text y="310.337" x="141.732,146.713,151.695,156.676,161.657,164.865" svgx:width="0.5,0.5,0.5,0.5,0.32,0.25" style="fill:rgb(0,0,0);font-family:AdvOTb0c9bf5d;font-size:9.96px;stroke:none;">2017).</text>
   <text y="332.731" x="141.732" svgx:width="0.36" style="fill:rgb(0,122,173);font-family:AdvOTb0c9bf5d;font-size:9.96px;stroke:none;">J</text>
   <text y="332.447" x="145.077" svgx:width="0.5" style="fill:rgb(0,122,173);font-family:AdvP4C4E59;font-size:9.96px;stroke:none;">€</text>
   <text y="332.731" x="145.361,149.714,154.696,157.385,161.739,166.72,171.074,173.56400000000002,176.19,182.825,185.316,187.806,190.419,199.236,203.59,206.28,210.633,213.841,216.33100000000002,218.992,224.491,226.982,229.472,232.031,239.184,244.166,248.519,251.209,255.045,259.398,264.38,268.733,272.056,274.546,277.102,285.919,288.41,294.507,296.997,299.487,302.046,307.546,311.899,316.881,321.234,324.442,328.796,332.004,334.494,337.139,344.292,346.782,349.272,351.878,356.86,361.841,366.822,371.803,374.293,376.879,382.897,387.878,392.3,394.989,399.971,404.324,407.014,409.704,414.686,419.666,422.29,424.98,429.961,434.34340000000003,436.917,441.297,447.306,451.66,456.013,458.703,462.4878,465.164,470.145" svgx:width="0.44,0.5,0.27,0.44,0.5,0.44,0.25,0.55,0.67,0.25,0.25,0.55,0.88,0.44,0.27,0.44,0.32,0.25,0.55,0.55,0.25,0.25,0.55,0.72,0.5,0.44,0.27,0.38,0.44,0.5,0.44,0.32,0.25,0.55,0.88,0.25,0.6,0.25,0.25,0.55,0.55,0.44,0.5,0.44,0.32,0.44,0.32,0.25,0.55,0.72,0.25,0.25,0.55,0.5,0.5,0.5,0.5,0.25,0.55,0.6,0.5,0.44,0.27,0.5,0.44,0.27,0.27,0.5,0.5,0.55,0.27,0.5,0.44,0.55,0.44,0.6,0.44,0.44,0.27,0.38,0.55,0.5,0.32" style="fill:rgb(0,122,173);font-family:AdvOTb0c9bf5d;font-size:9.96px;stroke:none;">anicke, B., Meier, F., Hoelscher, M.T., Scherer, D., 2015. Evaluating the eﬀects of</text>
   <text y="347.698" x="141.732,147.232,151.585,155.939,160.292,165.274,169.6564,174.671,179.652,182.86,187.213,191.567,196.548,199.238,204.22,209.2,214.242,219.223,224.203,229.152,234.133,239.115,246.786,251.139,256.119,261.183,266.164,268.854,273.835,278.189,280.879,283.569,291.24,295.708,298.398,302.78040000000004,307.727,310.417,315.397,320.37,324.7524,329.668,334.021,339.003,346.674,351.655,354.442,358.795,363.77500000000003,368.728,373.709,376.917,381.899,386.252,391.232,396.281,400.634,405.616,410.597,413.287,416.495,421.476,426.457,434.128,438.482,443.562,446.252,448.742,453.71,460.863,465.844,470.826" svgx:width="0.55,0.44,0.44,0.44,0.5,0.44,0.55,0.5,0.32,0.44,0.44,0.5,0.27,0.5,0.5,0.55,0.5,0.5,0.55,0.5,0.5,0.77,0.44,0.5,0.55,0.5,0.27,0.5,0.44,0.27,0.27,0.77,0.44,0.27,0.44,0.55,0.27,0.5,0.55,0.44,0.55,0.44,0.5,0.77,0.5,0.27,0.44,0.5,0.55,0.5,0.32,0.5,0.44,0.5,0.55,0.44,0.5,0.5,0.27,0.32,0.5,0.5,0.77,0.44,0.5,0.27,0.25,0.55,0.72,0.5,0.5,0.25" style="fill:rgb(0,122,173);font-family:AdvOTb0c9bf5d;font-size:9.96px;stroke:none;">Façade greening on human bioclimate in a complex urban environment. Adv.</text>
   <text y="362.608" x="141.732,150.549,154.903,157.593,162.028,167.009,170.217,175.199,177.888" svgx:width="0.88,0.44,0.27,0.44,0.5,0.32,0.5,0.27,0.25" style="fill:rgb(0,122,173);font-family:AdvOTb0c9bf5d;font-size:9.96px;stroke:none;">Meteorol.</text>
   <text y="385.058" x="141.732,145.359,150.34,154.694,157.184,159.704,165.203,167.754,170.244,172.744,179.379,183.732,188.086,193.067,198.049,200.53900000000002,203.074,209.709,212.2,221.102,223.593,226.083,228.586,234.085,239.067,241.757,244.447,249.428,254.495,257.185,259.875,262.365,264.87,270.369,272.86,281.677,284.167,286.657,289.191" svgx:width="0.36,0.5,0.44,0.25,0.55,0.55,0.25,0.25,0.55,0.67,0.44,0.44,0.5,0.5,0.25,0.55,0.67,0.25,0.88,0.25,0.25,0.55,0.55,0.5,0.27,0.27,0.5,0.5,0.27,0.27,0.25,0.55,0.55,0.25,0.88,0.25,0.25,0.55,0.88" style="fill:rgb(0,122,173);font-family:AdvOTb0c9bf5d;font-size:9.96px;stroke:none;">Jha, S., Bacon, C.M., Philpott, S.M., M</text>
   <text y="384.774" code="1" x="297.75" svgx:width="0.5" style="fill:rgb(0,122,173);font-family:AdvP4C4E59;font-size:9.96px;stroke:none;">?</text>
   <text y="385.058" x="298.034,302.389,307.371,312.354,316.708,321.063,323.553,326.09,333.244,335.736,341.754,344.246,346.736,349.338" svgx:width="0.44,0.5,0.5,0.44,0.44,0.25,0.55,0.72,0.25,0.6,0.25,0.25,0.55,0.6" style="fill:rgb(0,122,173);font-family:AdvOTb0c9bf5d;font-size:9.96px;stroke:none;">endez, V.E., L</text>
   <text y="384.774" x="355.011" svgx:width="0.5" style="fill:rgb(0,122,173);font-family:AdvP4C4E59;font-size:9.96px;stroke:none;">€</text>
   <text y="385.058" x="355.35,359.704,364.685,369.039,372.247,376.6,380.954,385.935,388.425,390.997,396.497,398.987,401.47700000000003,404.037,410.672,413.362,417.715,422.069,424.559,427.11,433.745,436.236,443.389,445.88,448.37,450.921,455.902,460.883,465.865,470.846" svgx:width="0.44,0.5,0.44,0.32,0.44,0.44,0.5,0.25,0.55,0.55,0.25,0.25,0.55,0.67,0.27,0.44,0.44,0.25,0.55,0.67,0.25,0.72,0.25,0.25,0.55,0.5,0.5,0.5,0.5,0.25" style="fill:rgb(0,122,173);font-family:AdvOTb0c9bf5d;font-size:9.96px;stroke:none;">aderach, P., Rice, R.A., 2014.</text>
   <text y="399.968" x="141.732,147.232,152.213,156.566,161.548,165.9304,169.285,173.638,178.639,184.648,189.002,193.355,196.0442,199.445,204.426,209.407,214.388,218.742,221.432,225.81439999999998,229.151,234.132,239.112,242.474,246.85639999999998,250.127,255.109,257.798,261.634,265.988,271.047,276.028,280.382,284.735,287.943,290.719,295.7,300.68,303.985,307.193,311.547,314.755,319.736,324.717,329.0994,332.501,335.709,340.69,343.8772,347.241,352.222,354.912,359.893,364.874,367.564,372.546,377.004,380.212,384.047,386.737,389.427,394.409,396.899,400.248,406.883,409.573,414.554,420.147,424.501,427.19,431.544,436.525,440.879" svgx:width="0.55,0.5,0.44,0.5,0.44,0.55,0.44,0.5,0.6,0.44,0.44,0.27,0.55,0.5,0.5,0.5,0.44,0.27,0.44,0.55,0.5,0.5,0.55,0.44,0.55,0.5,0.27,0.38,0.44,0.5,0.5,0.44,0.44,0.32,0.27,0.5,0.5,0.55,0.32,0.44,0.32,0.5,0.5,0.44,0.55,0.32,0.5,0.32,0.55,0.5,0.27,0.5,0.5,0.27,0.5,0.44,0.32,0.38,0.27,0.27,0.5,0.25,0.55,0.67,0.27,0.5,0.55,0.44,0.27,0.44,0.5,0.44,0.44" style="fill:rgb(0,122,173);font-family:AdvOTb0c9bf5d;font-size:9.96px;stroke:none;">Shade coﬀee: update on a disappearing refuge for biodiversity. BioScience</text>
   <text y="399.968" x="445.265" svgx:width="0.25" style="fill:rgb(0,0,0);font-family:AdvOTb0c9bf5d;font-size:9.96px;stroke:none;">.</text>
   <text y="422.419" x="141.732,145.359,150.34,154.175,158.529,161.019,164.069,169.569,172.059,174.549,177.562,182.543,187.524,192.506,197.487,199.977,202.959,210.112,215.094,218.379,223.361,226.569,231.55,234.758,239.112,242.947,245.637,248.845,253.825,256.93,260.138,265.119,268.30620000000005,271.33,275.683,280.037,285.018,288.854,293.835,297.748,300.438,304.792,312.46119999999996,315.493,319.328,323.682,326.89,331.871,334.561,338.915,343.269,347.0538,350.189,354.542,359.524,364.504,367.48,371.833,376.815,381.796,384.486,387.775,392.757,397.738,405.409,409.763,414.818,417.508,421.862,424.55120000000005,427.574,432.555,436.909,441.89,446.285,451.784,454.474,458.31,460.99920000000003,464.029,468.383" svgx:width="0.36,0.5,0.38,0.44,0.25,0.55,0.55,0.25,0.25,0.55,0.5,0.5,0.5,0.5,0.25,0.55,0.72,0.5,0.32,0.5,0.32,0.5,0.32,0.44,0.38,0.27,0.32,0.5,0.55,0.32,0.5,0.32,0.55,0.44,0.44,0.5,0.38,0.5,0.38,0.27,0.44,0.77,0.55,0.38,0.44,0.32,0.5,0.27,0.44,0.44,0.38,0.55,0.44,0.5,0.5,0.55,0.44,0.5,0.5,0.27,0.32,0.5,0.5,0.77,0.44,0.5,0.27,0.44,0.27,0.55,0.5,0.44,0.5,0.44,0.55,0.27,0.38,0.27,0.55,0.44,0.5" style="fill:rgb(0,122,173);font-family:AdvOTb0c9bf5d;font-size:9.96px;stroke:none;">Jose, S., 2009. Agroforestry for ecosystem services and environmental beneﬁts: an</text>
   <text y="437.329" x="141.732,146.714,151.695,156.048,159.256,164.238,167.017,171.371,178.524,181.014,184.365,191.518,196.5,199.708,204.689,207.897,212.878,216.086,218.57600000000002,222.009,227.508,232.489,236.325,239.015" svgx:width="0.5,0.5,0.44,0.32,0.5,0.27,0.44,0.72,0.25,0.55,0.72,0.5,0.32,0.5,0.32,0.5,0.32,0.25,0.55,0.55,0.5,0.38,0.27,0.25" style="fill:rgb(0,122,173);font-family:AdvOTb0c9bf5d;font-size:9.96px;stroke:none;">overview. Agrofor. Syst.</text>
   <text y="459.78" x="141.732,147.75,152.103,156.457,158.947,161.348,168.501,170.991,173.48100000000002,175.918,184.735,189.088,194.07,198.423,201.631,204.121,206.532,213.685,216.176,218.666,221.045,227.681,232.662,237.089,242.07,244.56,246.953,252.971,255.461,257.951,260.333,265.314,270.296,275.277,280.258,282.748,285.164,291.799,296.78,301.761,304.451,307.659,310.349,315.437,320.418,323.108,325.798,330.779,335.759,338.171,343.152,346.3392,348.715,351.405,354.613,358.967,363.32,367.1048,369.635,373.988,378.97,383.95000000000005,386.302,391.283,394.491,398.845,402.681,406.598,409.288,413.641,418.623,423.604,427.3888,429.842,432.531,437.511,439.933,442.623,447.604,451.9864,454.333,462.004,464.694,467.384,470.074" svgx:width="0.6,0.44,0.44,0.25,0.55,0.72,0.25,0.25,0.55,0.88,0.44,0.5,0.44,0.32,0.25,0.55,0.72,0.25,0.25,0.55,0.67,0.5,0.44,0.5,0.25,0.55,0.6,0.25,0.25,0.55,0.5,0.5,0.5,0.5,0.25,0.55,0.67,0.5,0.5,0.27,0.32,0.27,0.5,0.5,0.27,0.27,0.5,0.5,0.55,0.5,0.32,0.55,0.27,0.32,0.44,0.44,0.38,0.55,0.44,0.5,0.5,0.55,0.5,0.32,0.44,0.38,0.38,0.27,0.44,0.5,0.5,0.38,0.55,0.27,0.5,0.55,0.27,0.5,0.44,0.55,0.77,0.27,0.27,0.27,0.32" style="fill:rgb(0,122,173);font-family:AdvOTb0c9bf5d;font-size:9.96px;stroke:none;">Lee, H., Mayer, H., Chen, L., 2016. Contribution of trees and grasslands to the miti-</text>
   <text y="474.69" x="141.732,146.714,151.067,153.757,156.447,161.428,166.408,170.589,175.57,178.75719999999998,182.891,187.872,192.853,200.524,204.878,209.85799999999998,214.015,218.996,223.35,227.703,230.3922,234.538,238.373,241.063,244.271,248.625,252.46,256.2448,260.446,263.136,268.11600000000004,272.238,276.6204,280.742,283.95,288.304,292.139,294.829,299.811,304.164,309.146,311.836,314.525,319.01,321.6992,325.756,330.738,333.428,337.263,340.043,343.251,345.941,350.294,352.9832,357.107,362.088,365.27520000000004,369.408,374.908,378.116,382.469,385.159,390.141,395.204,398.412,403.393,405.883,410.0,415.499,420.544,425.526,428.216,433.197,440.35,444.704,448.539,451.2282,455.411,462.564,466.917,470.125" svgx:width="0.5,0.44,0.27,0.27,0.5,0.5,0.55,0.5,0.32,0.55,0.5,0.5,0.77,0.44,0.5,0.55,0.5,0.44,0.44,0.27,0.55,0.38,0.27,0.32,0.44,0.38,0.38,0.55,0.27,0.5,0.55,0.44,0.55,0.32,0.44,0.38,0.27,0.5,0.44,0.5,0.27,0.27,0.44,0.27,0.55,0.5,0.27,0.38,0.27,0.32,0.27,0.44,0.27,0.55,0.5,0.32,0.55,0.55,0.32,0.44,0.27,0.5,0.5,0.32,0.5,0.25,0.55,0.55,0.5,0.5,0.27,0.5,0.72,0.44,0.38,0.27,0.55,0.72,0.44,0.32,0.32" style="fill:rgb(0,122,173);font-family:AdvOTb0c9bf5d;font-size:9.96px;stroke:none;">gation of human heat stress in a residential district of Freiburg, Southwest Ger-</text>
   <text y="489.657" x="141.732,149.403,153.757,158.738,163.72,166.21,169.568,175.585,179.939,184.988,189.969,193.805,198.158,200.648,203.979,211.133,214.341,219.4,223.753,228.73299999999998,232.042,237.541,240.231,244.585,249.566" svgx:width="0.77,0.44,0.5,0.5,0.25,0.55,0.6,0.44,0.5,0.5,0.38,0.44,0.25,0.55,0.72,0.32,0.5,0.44,0.5,0.55,0.55,0.27,0.44,0.5,0.25" style="fill:rgb(0,122,173);font-family:AdvOTb0c9bf5d;font-size:9.96px;stroke:none;">many. Landsc. Urban Plan.</text>
   <text y="512.051" x="141.732,147.75,150.44,155.421,157.911,160.554,167.189,169.679,176.314,178.805,181.29500000000002,183.968,188.949,193.93,198.911,203.893,206.383,208.969,216.122,221.103,224.389,229.37,232.578,237.559,240.767,245.121,249.05,251.74,254.948,259.928,262.543,270.214,274.567,279.549,283.902,288.961,293.315,300.986,305.34,310.321,313.01020000000005,315.663,320.017,323.8018,326.492,330.845,335.82500000000005,338.454,342.807,347.789,352.142,357.124,359.814,362.503,367.485,371.86740000000003,374.51,378.346,381.036,384.244,388.597,391.287,395.641,400.622,405.60200000000003,408.299,412.652,417.633,421.987,424.677,429.658,433.584,436.27320000000003,438.856,443.837,448.818,451.508,455.862,460.843,463.63,466.32,470.673" svgx:width="0.6,0.27,0.5,0.25,0.55,0.67,0.25,0.67,0.25,0.25,0.55,0.5,0.5,0.5,0.5,0.25,0.55,0.72,0.5,0.32,0.5,0.32,0.5,0.32,0.44,0.38,0.27,0.32,0.5,0.55,0.77,0.44,0.5,0.44,0.5,0.44,0.77,0.44,0.5,0.27,0.55,0.44,0.38,0.55,0.44,0.5,0.55,0.44,0.5,0.44,0.5,0.27,0.27,0.5,0.44,0.55,0.38,0.27,0.32,0.44,0.27,0.44,0.5,0.5,0.55,0.44,0.5,0.44,0.27,0.5,0.38,0.27,0.55,0.5,0.5,0.27,0.44,0.5,0.27,0.27,0.44,0.27" style="fill:rgb(0,122,173);font-family:AdvOTb0c9bf5d;font-size:9.96px;stroke:none;">Lin, B.B., 2007. Agroforestry management as an adaptive strategy against potential</text>
   <text y="527.017" x="141.732,149.403,152.093,156.447,159.655,164.636,168.99,171.68,174.5,182.171,186.525,189.215,193.5974,196.95,201.304,206.285,208.975,212.183,216.536,224.208,228.561,232.3458,235.841,238.531,243.511,246.84,251.193,256.195,262.204,266.558,270.9404,274.28,278.633,283.615,286.823,289.512,293.952,298.933,301.623,304.313,309.294,312.502,316.856,319.346,322.695,329.848,334.829,338.115,340.805,345.159,347.649,350.984,356.483,361.464,364.672,367.16200000000003,370.542,379.359,383.713,386.403,390.838,395.819,399.027,404.009,406.699" svgx:width="0.77,0.27,0.44,0.32,0.5,0.44,0.27,0.27,0.77,0.44,0.27,0.44,0.55,0.44,0.5,0.27,0.32,0.44,0.77,0.44,0.38,0.55,0.27,0.5,0.55,0.44,0.5,0.6,0.44,0.44,0.55,0.44,0.5,0.32,0.27,0.44,0.5,0.27,0.27,0.5,0.32,0.44,0.25,0.55,0.72,0.5,0.32,0.27,0.44,0.25,0.55,0.55,0.5,0.32,0.25,0.55,0.88,0.44,0.27,0.44,0.5,0.32,0.5,0.27,0.25" style="fill:rgb(0,122,173);font-family:AdvOTb0c9bf5d;font-size:9.96px;stroke:none;">microclimate extremes in coﬀee agriculture. Agric. For. Meteorol.</text>
   <text y="549.411" x="141.732" svgx:width="0.6" style="fill:rgb(0,122,173);font-family:AdvOTb0c9bf5d;font-size:9.96px;stroke:none;">L</text>
   <text y="549.184" code="1" x="147.742" svgx:width="0.5" style="fill:rgb(0,122,173);font-family:AdvP4C4E59;font-size:9.96px;stroke:none;">?</text>
   <text y="549.411" x="147.742,152.723,157.704,162.058,166.499,169.707,176.342,179.55,183.904,188.885,193.866,196.35600000000002,199.494,206.647,209.138,214.637,217.128,219.618,222.738,229.891,232.581,235.789,240.77,243.46,248.533,251.223,256.204,259.412,264.912,267.602,270.292,275.273,280.254,282.744,285.893,291.91,294.401,301.554,304.045,312.935,315.426,317.916,320.986,328.139,333.121,337.474,340.164,342.854,347.836,352.903,355.39300000000003,358.46,362.086,364.577,367.067,370.195,375.176,380.157,385.138,390.12,392.61,395.706,401.205,406.186,410.54,415.521,419.90340000000003,422.974,425.664,429.4488,432.612,436.966,441.947,446.928,451.91,456.891,461.245,464.019,469.001" svgx:width="0.5,0.5,0.44,0.44,0.32,0.67,0.32,0.44,0.5,0.5,0.25,0.55,0.72,0.25,0.55,0.25,0.25,0.55,0.72,0.27,0.32,0.5,0.27,0.5,0.27,0.5,0.32,0.55,0.27,0.27,0.5,0.5,0.25,0.55,0.6,0.25,0.72,0.25,0.88,0.25,0.25,0.55,0.72,0.5,0.44,0.27,0.27,0.5,0.5,0.25,0.55,0.36,0.25,0.25,0.55,0.5,0.5,0.5,0.5,0.25,0.55,0.55,0.5,0.44,0.5,0.44,0.55,0.27,0.38,0.55,0.44,0.5,0.5,0.5,0.5,0.44,0.27,0.5,0.44" style="fill:rgb(0,122,173);font-family:AdvOTb0c9bf5d;font-size:9.96px;stroke:none;">opez-Bravo, D.F., Virginio-Filho, E.D.M., Avelino, J., 2012. Shade is conducive</text>
   <text y="564.378" x="141.732,144.422,149.402,152.731,157.085,162.085,168.151,172.505,176.88739999999999,180.17,183.378,188.359,192.195,194.8842,198.255,202.609,206.3938,209.764,214.117,219.099,226.77,231.751,236.183,239.391,243.744,248.724,252.056,254.746,259.726,263.055,266.263,271.244,273.934,276.62320000000005,280.006,283.842,288.823,293.803,297.127,301.48,306.462,311.443,316.424,320.26,325.241,328.534,332.9164,336.187,341.168,346.15,351.131,355.575,358.7622,362.095,365.93,368.62,372.974,377.955,382.937,387.29,390.498,395.48,398.169,402.63,406.983,411.963,415.272,418.48,421.688,426.669,429.445,432.1342,435.455,438.144,443.126,447.479,452.459,455.807,460.161,465.142,470.123" svgx:width="0.27,0.5,0.55,0.44,0.5,0.6,0.44,0.44,0.55,0.32,0.5,0.38,0.27,0.55,0.44,0.38,0.55,0.44,0.5,0.77,0.5,0.44,0.32,0.44,0.5,0.55,0.27,0.5,0.55,0.32,0.5,0.27,0.27,0.55,0.38,0.5,0.5,0.55,0.44,0.5,0.5,0.5,0.38,0.5,0.32,0.44,0.55,0.5,0.5,0.5,0.44,0.32,0.55,0.38,0.27,0.44,0.5,0.5,0.44,0.32,0.5,0.27,0.44,0.44,0.5,0.55,0.32,0.32,0.5,0.27,0.27,0.55,0.27,0.5,0.44,0.5,0.55,0.44,0.5,0.5,0.32" style="fill:rgb(0,122,173);font-family:AdvOTb0c9bf5d;font-size:9.96px;stroke:none;">to coﬀee rust as compared to full sun exposure under standardized fruit load con-</text>
   <text y="579.288" x="141.732,146.714,149.403,152.093,154.783,159.764,164.746,168.581,171.071,174.5,181.135,184.343,189.324,194.304,197.63,203.13,206.417,211.399,214.089" svgx:width="0.5,0.27,0.27,0.27,0.5,0.5,0.38,0.25,0.55,0.67,0.32,0.5,0.5,0.55,0.55,0.32,0.5,0.27,0.25" style="fill:rgb(0,122,173);font-family:AdvOTb0c9bf5d;font-size:9.96px;stroke:none;">ditions. Crop Prot.</text>
   <text y="601.739" x="141.732,147.75,152.731,157.085,162.066,166.506,169.196,171.886,176.867,181.849,184.339,186.802,192.819,195.31,197.8,200.294,205.794,208.484,211.173,215.527,219.363,224.344,227.034,229.524,232.042,239.195,241.686,244.17600000000002,246.668,253.303,257.657,262.011,266.992,271.973,274.463,276.942,282.959,285.45,287.94,290.434,297.587,300.277,304.631,307.321,311.674,314.164,316.682,320.309,322.799,325.289,327.738,332.719,337.701,342.682,347.663,350.153,352.682,359.317,363.671,366.879,371.86,376.842,381.822,384.316,388.152,392.506,397.487,402.468,406.822,410.735,413.425,416.633,420.987,423.677,426.367,431.348,436.32800000000003,438.855,443.836,448.817,451.507,455.861,460.842,463.629,466.319,470.672" svgx:width="0.6,0.5,0.44,0.5,0.44,0.27,0.27,0.5,0.5,0.25,0.55,0.6,0.25,0.25,0.55,0.55,0.27,0.27,0.44,0.38,0.5,0.27,0.25,0.55,0.72,0.25,0.25,0.55,0.67,0.44,0.44,0.5,0.5,0.25,0.55,0.6,0.25,0.25,0.55,0.72,0.27,0.44,0.27,0.44,0.25,0.55,0.36,0.25,0.25,0.55,0.5,0.5,0.5,0.5,0.25,0.55,0.67,0.44,0.32,0.5,0.5,0.5,0.55,0.38,0.44,0.5,0.5,0.44,0.38,0.27,0.32,0.44,0.27,0.27,0.5,0.5,0.55,0.5,0.5,0.27,0.44,0.5,0.27,0.27,0.44,0.27" style="fill:rgb(0,122,173);font-family:AdvOTb0c9bf5d;font-size:9.96px;stroke:none;">Luedeling, E., Sileshi, G., Beedy, T., Dietz, J., 2011. Carbon sequestration potential</text>
   <text y="616.649" x="141.732,146.714,149.9012,152.561,156.914,161.896,165.103,170.085,173.293,178.356,181.564,185.917,189.753,192.443,195.651,200.631,203.3,207.136,212.117,215.953,218.642,222.996,230.667,234.4518,237.202,239.892,244.87199999999999,247.463,254.616,257.824,261.032,263.722,268.076,272.43,274.92,277.623,280.831,285.812,288.50120000000004,291.115,298.269,303.25,311.015,315.368,318.576,321.06600000000003,323.657,330.292,332.783,335.273,337.887,345.04,349.394,352.173,355.381,357.871,360.45,365.949,368.439,371.051,374.259,380.349,385.331,389.166,391.657,394.865,397.355,399.965,406.6,410.954,414.251,419.232,424.214,429.194,431.769,437.269,441.69,446.671,451.653,456.006,459.842,462.532,465.74,470.094" svgx:width="0.5,0.32,0.55,0.44,0.5,0.32,0.5,0.32,0.5,0.32,0.44,0.38,0.27,0.32,0.5,0.55,0.38,0.5,0.38,0.27,0.44,0.77,0.38,0.55,0.27,0.5,0.55,0.72,0.32,0.32,0.27,0.44,0.44,0.25,0.55,0.32,0.5,0.27,0.55,0.72,0.5,0.77,0.44,0.32,0.25,0.55,0.67,0.25,0.25,0.55,0.72,0.44,0.27,0.32,0.25,0.55,0.55,0.25,0.55,0.32,0.6,0.5,0.38,0.25,0.32,0.25,0.55,0.67,0.44,0.32,0.5,0.5,0.5,0.55,0.55,0.44,0.5,0.5,0.44,0.38,0.27,0.32,0.44,0.32" style="fill:rgb(0,122,173);font-family:AdvOTb0c9bf5d;font-size:9.96px;stroke:none;">of agroforestry systems in Africa. In: Kumar, B., Nair, P. (Eds.), Carbon Sequestra-</text>
   <text y="631.616" x="141.732,144.422,147.112,152.093,157.07299999999998,159.817,165.317,170.362,173.052,177.405,182.387,185.076,187.766,192.12,194.8092,197.574,202.555,205.7422,208.515,215.669,220.65,223.858,228.839,232.047,237.028,240.236,244.59,248.54,251.23,254.438,259.418,262.146,267.645,272.691,276.526,279.216,283.57,291.241,295.077,297.7662,300.526,307.679,312.66,317.642,322.693,325.901,328.591,333.572,338.553,341.243,343.933,346.731,351.084,354.8688,357.616,361.969,366.951,371.93100000000004,374.68,381.315,386.296,390.723,393.413,396.103,400.457,405.438,410.42,414.773,418.609,421.099,423.888,431.041,436.022,441.004,445.431,450.412,454.766,459.12,462.9048,465.67,468.36" svgx:width="0.27,0.27,0.5,0.5,0.55,0.55,0.5,0.27,0.44,0.5,0.27,0.27,0.44,0.27,0.55,0.5,0.32,0.55,0.72,0.5,0.32,0.5,0.32,0.5,0.32,0.44,0.38,0.27,0.32,0.5,0.55,0.55,0.5,0.38,0.27,0.44,0.77,0.38,0.27,0.55,0.72,0.5,0.5,0.5,0.32,0.27,0.5,0.5,0.27,0.27,0.27,0.44,0.38,0.55,0.44,0.5,0.5,0.55,0.67,0.5,0.44,0.27,0.27,0.44,0.5,0.5,0.44,0.38,0.25,0.55,0.72,0.5,0.5,0.44,0.5,0.44,0.44,0.38,0.55,0.27,0.5" style="fill:rgb(0,122,173);font-family:AdvOTb0c9bf5d;font-size:9.96px;stroke:none;">tion Potential of Agroforestry Systems: Opportunities and Challenges. Advances in</text>
   <text y="646.583" x="141.732,148.885,153.867,157.075,162.056,165.264,170.245,173.453,177.807,181.757,184.447,187.655" svgx:width="0.72,0.5,0.32,0.5,0.32,0.5,0.32,0.44,0.38,0.27,0.32,0.5" style="fill:rgb(0,122,173);font-family:AdvOTb0c9bf5d;font-size:9.96px;stroke:none;">Agroforestry</text>
   <text y="646.583" x="192.699" svgx:width="0.25" style="fill:rgb(0,0,0);font-family:AdvOTb0c9bf5d;font-size:9.96px;stroke:none;">.</text>
  </g>
  <g begin="text">
   <text y="710.646" x="42.52,45.758" svgx:width="0.5,0.5" style="fill:rgb(0,0,0);font-family:AdvOTe3b1fbf3.B;font-size:6.48px;stroke:none;">24</text>
   <text y="710.646" x="62.362,65.6,67.348,69.097,72.334,74.828,76.576,78.324,80.073,83.311,86.549,88.297,89.916,93.154,95.239,98.477,100.225,103.463,106.701,108.32,111.558,114.796,118.033,121.271,123.02,124.669,126.288,129.526,132.356,134.104,135.853,139.09,142.328,145.566,147.185,150.423,153.661,156.899,160.137,161.755,164.585,167.823,171.061,174.299,177.537" svgx:width="0.5,0.27,0.27,0.5,0.38,0.27,0.27,0.27,0.5,0.5,0.27,0.25,0.5,0.32,0.5,0.27,0.5,0.5,0.25,0.5,0.5,0.5,0.5,0.27,0.27,0.25,0.5,0.44,0.27,0.27,0.5,0.5,0.5,0.25,0.5,0.5,0.5,0.5,0.25,0.44,0.5,0.5,0.5,0.5,0.5" style="fill:rgb(0,122,173);font-family:AdvOTb0c9bf5d;font-size:6.48px;stroke:none;">https://doi.org/10.1016/j.heliyon.2019.e01263</text>
   <text y="720.623" x="62.362,65.6,68.838,72.075,75.313,77.398,80.636,83.874,87.112,90.35" svgx:width="0.5,0.5,0.5,0.5,0.32,0.5,0.5,0.5,0.5,0.27" style="fill:rgb(0,0,0);font-family:AdvOTb0c9bf5d;font-size:6.48px;stroke:none;">2405-8440/</text>
   <text y="720.623" code="1" x="92.069" svgx:width="0.79" style="fill:rgb(0,0,0);font-family:AdvPSSym;font-size:6.48px;stroke:none;">?</text>
   <text y="720.623" x="99.325,102.563,105.801,109.039,112.279,114.406,118.317,121.555,124.40620000000001,126.538,131.188,134.425,136.174,139.412,142.65,144.735,147.228,148.848,150.973,154.548,157.786,161.024,162.772,164.521,167.014,170.252,173.081,176.321,178.414,181.651,184.89100000000002,187.031,190.942,192.691,195.184,198.014,201.251,203.0,205.83,207.9036,210.105,214.016,215.765,219.003,220.623,222.748,226.659,229.897,231.645,234.1074,236.297,238.046,240.5084,242.704,245.534,248.774,250.868,254.105,257.343,260.173,263.413,265.551,268.381,271.211,274.041,276.871,279.364,281.8264,284.034,286.864,288.949,290.697,292.446,295.276,297.024,299.8752,302.006,305.244,308.481,311.719,314.549,316.6226,318.788,320.536,323.774,326.6252,328.709,333.022,337.3636,339.481,343.793,348.443,350.528,355.178,359.491,361.576,366.225,370.8906,373.044,374.792,376.54,379.37,382.2,385.438,387.931" svgx:width="0.5,0.5,0.5,0.5,0.55,0.6,0.5,0.44,0.55,0.72,0.5,0.27,0.5,0.5,0.32,0.38,0.25,0.55,0.55,0.5,0.5,0.27,0.27,0.38,0.5,0.44,0.5,0.55,0.5,0.5,0.55,0.6,0.27,0.38,0.44,0.5,0.27,0.44,0.32,0.55,0.6,0.27,0.5,0.25,0.55,0.6,0.5,0.27,0.38,0.55,0.27,0.38,0.55,0.44,0.5,0.55,0.5,0.5,0.44,0.5,0.55,0.44,0.44,0.44,0.44,0.38,0.38,0.55,0.44,0.32,0.27,0.27,0.44,0.27,0.44,0.55,0.5,0.5,0.5,0.44,0.32,0.55,0.27,0.5,0.44,0.55,0.67,0.67,0.55,0.67,0.72,0.32,0.72,0.67,0.32,0.72,0.72,0.55,0.27,0.27,0.44,0.44,0.5,0.38,0.44" style="fill:rgb(0,0,0);font-family:AdvOTb0c9bf5d;font-size:6.48px;stroke:none;">2019 The Authors. Published by Elsevier Ltd. This is an open access article under the CC BY-NC-ND license</text>
   <text y="730.545" x="62.362" svgx:width="0.32" style="fill:rgb(0,0,0);font-family:AdvOTb0c9bf5d;font-size:6.48px;stroke:none;">(</text>
   <text y="730.545" x="64.459,67.697,69.446,71.194,74.432,76.18,77.929,79.677,82.507,84.592,87.422,90.252,92.0,93.749,96.987,99.817,102.647,105.884,110.871,115.857,119.095,122.287,124.78,126.399,129.637,131.722,134.96,136.709,138.457,140.206,143.035,145.865,149.103,151.596,154.426,156.919,158.668,161.906,165.144,167.229,170.467,173.296,175.297,178.535,181.773,183.521,186.759,188.378,191.616" svgx:width="0.5,0.27,0.27,0.5,0.27,0.27,0.27,0.44,0.32,0.44,0.44,0.27,0.27,0.5,0.44,0.44,0.5,0.77,0.77,0.5,0.5,0.38,0.25,0.5,0.32,0.5,0.27,0.27,0.27,0.44,0.44,0.5,0.38,0.44,0.38,0.27,0.5,0.5,0.32,0.5,0.44,0.32,0.5,0.5,0.27,0.5,0.25,0.5,0.27" style="fill:rgb(0,122,173);font-family:AdvOTb0c9bf5d;font-size:6.48px;stroke:none;">http://creativecommons.org/licenses/by-nc-nd/4.0/</text>
   <text y="730.545" x="193.378,195.463" svgx:width="0.32,0.25" style="fill:rgb(0,0,0);font-family:AdvOTb0c9bf5d;font-size:6.48px;stroke:none;">).</text>
  </g>
  <rect style="stroke:blue;stroke-width:0.3;" x="141.732" y="75.748" height="19.389" width="56.013" title="24"/>
  <text y="75.748" class="image" id="image.24.1" width="56" height="19" x="141.732">image.24.1.142_198.76_95</text>
  <rect style="stroke:blue;stroke-width:0.3;" x="141.732" y="75.748" height="19.389" width="56.013" title="24"/>
  <text y="75.748" class="image" id="image.24.2" width="56" height="19" x="141.732">image.24.2.142_198.76_95</text>
  <g begin="text">
   <text y="37.871" x="422.929,426.84,429.333,431.082,432.83,435.66,437.409,440.2602,442.375,446.688" svgx:width="0.6,0.38,0.27,0.27,0.44,0.27,0.44,0.55,0.67,0.5" style="fill:rgb(0,0,0);font-family:AdvOT6bc95374.I;font-size:6.48px;stroke:none;">Article No</text>
   <text y="37.871" x="448.951" svgx:width="1.0" style="fill:rgb(0,0,0);font-family:AdvPS3FDD77;font-size:6.48px;stroke:none;">w</text>
   <text y="37.871" x="454.393,457.223,460.461,463.699,466.937,470.174" svgx:width="0.44,0.5,0.5,0.5,0.5,0.5" style="fill:rgb(0,0,0);font-family:AdvOT6bc95374.I;font-size:6.48px;stroke:none;">e01263</text>
  </g>
 </g>
</svg>
