<?xml version="1.0" encoding="UTF-8"?>
<svg height="769.52" width="4194.309" xmlns="http://www.w3.org/2000/svg">
 <g id="page" xmlns:svgx="http://www.xml-cml.org/schema/svgx">
  <path style="fill:rgb(2,167,252);stroke:none;stroke-width:1.0;" d="M39.470 43.940 C40.520 43.960 41.300 43.740 41.780 43.300 C42.270 42.850 42.500 42.230 42.500 41.390 C42.500 40.560 42.270 39.940 41.780 39.490 C41.300 39.060 40.520 38.850 39.470 38.850 L35.860 38.850 L35.860 43.940 L39.470 43.940 ZM40.090 37.300 C41.490 37.300 42.560 37.650 43.280 38.370 C44.000 39.080 44.350 40.090 44.350 41.390 C44.350 42.700 44.000 43.700 43.280 44.420 C42.560 45.140 41.490 45.510 40.090 45.490 L35.860 45.490 L35.860 51.160 L34.020 51.160 L34.020 37.300 "/>
  <path style="fill:rgb(2,167,252);stroke:none;stroke-width:1.0;" d="M51.490 44.070 C51.340 43.720 51.140 43.410 50.890 43.160 C50.640 42.910 50.330 42.710 50.000 42.560 C49.650 42.420 49.260 42.350 48.850 42.350 C48.430 42.350 48.040 42.420 47.710 42.560 C47.360 42.710 47.070 42.930 46.810 43.180 C46.560 43.430 46.370 43.740 46.230 44.070 C46.100 44.420 46.000 44.790 45.980 45.180 L51.750 45.180 C51.730 44.790 51.630 44.420 51.490 44.070 L51.490 44.070 ZM51.880 50.520 C51.130 51.080 50.190 51.370 49.050 51.370 C48.250 51.370 47.550 51.240 46.970 50.990 C46.370 50.730 45.880 50.370 45.470 49.900 C45.070 49.430 44.770 48.870 44.580 48.230 C44.370 47.590 44.250 46.870 44.230 46.110 C44.230 45.360 44.350 44.660 44.580 44.020 C44.810 43.380 45.140 42.830 45.570 42.370 C45.980 41.900 46.480 41.530 47.070 41.280 C47.630 41.030 48.270 40.890 48.950 40.890 C49.840 40.890 50.580 41.060 51.180 41.430 C51.770 41.800 52.230 42.290 52.600 42.850 C52.950 43.410 53.200 44.040 53.340 44.710 C53.470 45.390 53.510 46.040 53.490 46.640 L45.980 46.640 C45.960 47.080 46.020 47.490 46.130 47.880 C46.250 48.290 46.440 48.640 46.700 48.930 C46.950 49.240 47.280 49.490 47.690 49.670 C48.100 49.840 48.560 49.940 49.100 49.940 C49.810 49.940 50.390 49.780 50.830 49.450 C51.280 49.120 51.570 48.640 51.710 47.980 L53.340 47.980 C53.130 49.100 52.640 49.960 51.880 50.520 "/>
  <path style="fill:rgb(2,167,252);stroke:none;stroke-width:1.0;" d="M61.330 44.070 C61.180 43.720 60.990 43.410 60.730 43.160 C60.480 42.910 60.170 42.710 59.840 42.560 C59.490 42.420 59.100 42.350 58.690 42.350 C58.270 42.350 57.880 42.420 57.550 42.560 C57.200 42.710 56.910 42.930 56.650 43.180 C56.400 43.430 56.210 43.740 56.070 44.070 C55.940 44.420 55.840 44.790 55.820 45.180 L61.590 45.180 C61.570 44.790 61.470 44.420 61.330 44.070 L61.330 44.070 ZM61.720 50.520 C60.970 51.080 60.030 51.370 58.890 51.370 C58.090 51.370 57.390 51.240 56.810 50.990 C56.210 50.730 55.720 50.370 55.310 49.900 C54.910 49.430 54.620 48.870 54.420 48.230 C54.210 47.590 54.090 46.870 54.070 46.110 C54.070 45.360 54.190 44.660 54.420 44.020 C54.650 43.380 54.990 42.830 55.410 42.370 C55.820 41.900 56.320 41.530 56.910 41.280 C57.470 41.030 58.110 40.890 58.790 40.890 C59.680 40.890 60.420 41.060 61.020 41.430 C61.610 41.800 62.070 42.290 62.440 42.850 C62.790 43.410 63.040 44.040 63.180 44.710 C63.320 45.390 63.350 46.040 63.330 46.640 L55.820 46.640 C55.800 47.080 55.860 47.490 55.970 47.880 C56.090 48.290 56.290 48.640 56.540 48.930 C56.790 49.240 57.120 49.490 57.530 49.670 C57.940 49.840 58.400 49.940 58.950 49.940 C59.640 49.940 60.230 49.780 60.670 49.450 C61.120 49.120 61.410 48.640 61.550 47.980 L63.180 47.980 C62.970 49.100 62.480 49.960 61.720 50.520 "/>
  <path style="fill:rgb(2,167,252);stroke:none;stroke-width:1.0;" d="M65.670 41.120 L65.670 43.240 L65.710 43.240 C66.110 42.420 66.600 41.820 67.180 41.430 C67.760 41.050 68.500 40.870 69.400 40.890 L69.400 42.640 C68.740 42.640 68.170 42.730 67.710 42.910 C67.240 43.080 66.870 43.360 66.580 43.700 C66.290 44.050 66.100 44.480 65.960 44.970 C65.820 45.470 65.760 46.050 65.760 46.700 L65.760 51.160 L64.110 51.160 L64.110 41.120 "/>
  <path style="fill:rgb(2,167,252);stroke:none;stroke-width:1.0;" d="M71.000 50.400 C70.590 50.190 70.280 49.880 70.070 49.510 C69.860 49.140 69.740 48.730 69.680 48.250 C69.620 47.760 69.620 47.280 69.660 46.750 L68.810 46.750 C68.810 47.280 68.850 47.800 68.900 48.370 C68.960 48.930 69.120 49.430 69.370 49.900 C69.620 50.370 70.010 50.750 70.540 51.040 C71.060 51.340 71.800 51.490 72.730 51.490 C73.370 51.490 73.910 51.410 74.360 51.260 C74.790 51.100 75.140 50.890 75.430 50.640 C75.720 50.380 75.930 50.110 76.090 49.780 C76.220 49.450 76.340 49.120 76.420 48.770 C76.480 48.440 76.520 48.090 76.540 47.760 C76.540 47.430 76.540 47.120 76.540 46.850 L76.540 37.300 L75.680 37.300 L75.680 46.560 C75.680 47.040 75.680 47.530 75.660 48.020 C75.640 48.520 75.530 48.970 75.350 49.370 C75.180 49.780 74.870 50.110 74.460 50.370 C74.030 50.620 73.430 50.750 72.630 50.750 C71.950 50.750 71.410 50.640 71.000 50.400 "/>
  <path style="fill:none;stroke:rgb(0,0,0);stroke-width:1.0;" d="M80.520 48.500 L577.980 48.500 "/>
  <rect style="stroke:blue;stroke-width:0.3;" x="184.309" y="93.975" height="379.636" width="384.093" title="8"/>
  <text y="93.975" class="image" id="image.8.1" width="384" height="379" x="184.309">image.8.1.184_568.94_474</text>
  <rect style="stroke:blue;stroke-width:0.3;" x="184.309" y="93.975" height="379.636" width="384.093" title="8"/>
  <text y="93.975" class="image" id="image.8.2" width="384" height="379" x="184.309">image.8.2.184_568.94_474</text>
  <path style="fill:rgb(234,248,254);stroke:none;stroke-width:1.0;" d="M184.310 540.420 L184.310 475.070 L577.990 475.070 L577.990 540.420 Z"/>
  <path style="fill:rgb(234,248,254);stroke:none;stroke-width:1.0;" d="M184.310 540.420 L184.310 475.070 L577.990 475.070 L577.990 540.420 Z"/>
  <path style="fill:none;stroke:rgb(0,166,252);stroke-width:1.0;" d="M184.310 475.320 L577.990 475.320 "/>
  <path style="fill:none;stroke:rgb(0,166,252);stroke-width:0.5;" d="M184.310 539.920 L577.990 539.920 "/>
  <g begin="text">
   <text y="488.57" x="190.132,194.947,197.529,201.806,206.792,210.369,214.2261,216.054" svgx:width="0.54,0.29,0.48,0.56,0.4,0.43,0.55,0.49" style="fill:rgb(0,166,252);font-family:t1-mini-bold;font-size:8.97px;stroke:none;">Figure 6</text>
   <text y="488.57" x="227.621,230.759,236.614,239.7535,241.545,247.472,252.466,256.6,261.657,265.934,269.825,273.3233,275.107,277.689,282.7122,284.539,287.507,292.501,296.3581,298.186,302.077,306.462,309.044,312.532,315.5,318.082,323.14,327.4456,329.21,333.451,337.342,341.619,345.511,348.479,352.612,355.58,358.162,362.87,367.8932,369.72,372.302,377.3252,379.153,383.044,387.178,390.665,393.633,397.525,401.102,406.12519999999995,407.953,413.879,418.874,421.456,426.513,430.647,432.8895,434.637,437.775,443.316,446.4555,448.248,452.058,457.053,461.186,466.243,470.52,474.412,477.9103,479.693,482.275,487.29819999999995,489.125,492.093,497.088,500.9451,502.772,509.318,516.007,522.104,525.3332,527.143,529.725,534.7482,536.576,540.153,544.045,548.322,550.904,555.611,560.668" svgx:width="0.35,0.65,0.35,0.55,0.66,0.56,0.46,0.56,0.48,0.43,0.39,0.55,0.29,0.56,0.55,0.33,0.56,0.43,0.55,0.43,0.49,0.29,0.39,0.33,0.29,0.56,0.48,0.55,0.47,0.43,0.48,0.43,0.33,0.46,0.33,0.29,0.52,0.56,0.55,0.29,0.56,0.55,0.43,0.46,0.39,0.33,0.43,0.4,0.56,0.55,0.66,0.56,0.29,0.56,0.46,0.25,0.55,0.35,0.62,0.35,0.55,0.43,0.56,0.46,0.56,0.48,0.43,0.39,0.55,0.29,0.56,0.55,0.33,0.56,0.43,0.55,0.73,0.75,0.68,0.36,0.55,0.29,0.56,0.55,0.4,0.43,0.48,0.29,0.52,0.56,0.39" style="fill:rgb(0,0,0);font-family:t1-mini-bold;font-size:8.97px;stroke:none;">(A) Changes in the existing vegetation in eastern China, (B) changes in the NDVI in regions</text>
   <text y="499.529" x="190.132,196.391,201.385,205.276,208.854,212.71110000000002,214.539,218.43,222.815,225.397,228.885,231.853,234.435,239.492,243.7976,245.562,249.803,253.695,257.972,261.863,264.831,268.965,271.932,274.515,279.222,284.24519999999995,286.072,289.883,294.877,299.011,304.068,308.345,312.236,315.73429999999996,317.518,323.776,327.668,331.245,335.1021,336.93,341.817,345.708,348.676,352.567,356.378,359.346,363.237,368.124,370.36650000000003,372.114,375.252,381.179,384.3185,386.111,389.921,394.916,399.049,404.106,408.383,412.275,415.77329999999995,417.556,420.138,425.16119999999995,426.988,429.956,434.951,438.8081,440.635,447.181,453.87,459.967,463.1962,465.006,469.713,473.954,477.846,481.434,483.217,486.185,491.179,495.0361,496.864,503.122,508.116,512.824,515.316,519.1731,521.001,524.579,528.47,532.747,535.329,540.037,545.094,547.3365,549.084,553.217,558.274" svgx:width="0.7,0.56,0.43,0.4,0.43,0.55,0.43,0.49,0.29,0.39,0.33,0.29,0.56,0.48,0.55,0.47,0.43,0.48,0.43,0.33,0.46,0.33,0.29,0.52,0.56,0.55,0.43,0.56,0.46,0.56,0.48,0.43,0.39,0.55,0.7,0.43,0.4,0.43,0.55,0.55,0.43,0.33,0.43,0.43,0.33,0.43,0.55,0.25,0.55,0.35,0.66,0.35,0.55,0.43,0.56,0.46,0.56,0.48,0.43,0.39,0.55,0.29,0.56,0.55,0.33,0.56,0.43,0.55,0.73,0.75,0.68,0.36,0.55,0.52,0.47,0.43,0.4,0.55,0.33,0.56,0.43,0.55,0.7,0.56,0.52,0.28,0.43,0.55,0.4,0.43,0.48,0.29,0.52,0.56,0.25,0.55,0.46,0.56,0.55" style="fill:rgb(0,0,0);font-family:t1-mini-bold;font-size:8.97px;stroke:none;">where existing vegetation changes were detected, (C) changes in the NDVI over the whole region, and</text>
   <text y="510.488" x="190.132,193.27,199.959,203.0985,204.891,208.701,213.696,217.829,222.886,227.163,231.055,234.5533,236.336,238.918,243.9412,245.769,248.261,252.395,257.452,262.3855,264.132,269.117,272.605,276.4621,278.29,283.176,287.068,290.036,293.927,297.738,300.706,304.597,309.53049999999996,311.277,316.262,319.75,322.333,327.39,331.6956,333.46,336.428,341.422,345.2791,347.107,349.599,353.733,358.79,363.7235,365.47,370.455,373.943,377.8001,379.628,384.514,388.648,391.616,395.74219999999997,397.543,402.25,405.1204,406.904,411.745,414.328,419.313" svgx:width="0.35,0.75,0.35,0.55,0.43,0.56,0.46,0.56,0.48,0.43,0.39,0.55,0.29,0.56,0.55,0.28,0.46,0.56,0.55,0.55,0.56,0.39,0.43,0.55,0.55,0.43,0.33,0.43,0.43,0.33,0.43,0.55,0.55,0.56,0.39,0.29,0.56,0.48,0.55,0.33,0.56,0.43,0.55,0.28,0.46,0.56,0.55,0.55,0.56,0.39,0.43,0.55,0.55,0.46,0.33,0.46,0.55,0.52,0.32,0.55,0.54,0.29,0.56,0.25" style="fill:rgb(0,0,0);font-family:t1-mini-bold;font-size:8.97px;stroke:none;">(D) changes in land use detected using the land use data of Liu.</text>
   <text y="510.488" x="423.302,428.736,433.515,437.2824,439.343,442.634,446.399,451.1531,453.196,457.93,462.566,465.3467,467.399,470.689,474.455,479.19,482.48,486.246,489.429,493.195,498.091,500.861,504.0005,506.107,510.725,513.11,517.2362,519.261,523.0,525.385,528.155,532.1915,534.226,536.611,541.5445,543.568,547.334,551.244,554.427,557.197,560.963,564.254" svgx:width="0.61,0.53,0.42,0.55,0.37,0.42,0.53,0.55,0.53,0.52,0.31,0.55,0.37,0.42,0.53,0.37,0.42,0.35,0.42,0.55,0.31,0.35,0.55,0.51,0.27,0.46,0.55,0.42,0.27,0.31,0.45,0.55,0.27,0.55,0.55,0.42,0.44,0.35,0.31,0.42,0.37,0.55" style="fill:rgb(0,0,0);font-family:t1-mini-regular;font-size:8.97px;stroke:none;">The red dot represents big city in eastern</text>
   <text y="521.447" x="190.132,196.041,200.82,203.205,208.101,212.01" svgx:width="0.66,0.53,0.27,0.55,0.44,0.24" style="fill:rgb(0,0,0);font-family:t1-mini-regular;font-size:8.97px;stroke:none;">China.</text>
   <text y="532.406" x="421.75,426.368,431.21,433.469,435.729,439.001,442.184,444.569,448.255" svgx:width="0.51,0.54,0.25,0.25,0.37,0.35,0.27,0.41,0.42" style="fill:rgb(0,166,252);font-family:t1-mini-regular;font-size:8.97px;stroke:none;">Full-size</text>
  </g>
  <path style="fill:none;stroke:rgb(0,0,0);stroke-width:1.0;" d="M461.780 531.620 C461.780 531.910 461.540 532.160 461.250 532.160 L454.880 532.160 C454.590 532.160 454.350 531.910 454.350 531.620 L454.350 526.870 C454.350 526.570 454.590 526.330 454.880 526.330 L461.250 526.330 C461.540 526.330 461.780 526.570 461.780 526.870 L461.780 531.620 Z"/>
  <path style="fill:rgb(0,0,0);stroke:none;stroke-width:0.5;" d="M455.160 531.330 L460.980 531.330 L460.980 529.500 L459.260 527.790 L457.130 529.900 L456.490 529.240 L455.160 530.550 L455.160 531.330 "/>
  <path style="fill:rgb(0,0,0);stroke:none;stroke-width:0.5;" d="M456.770 527.900 C456.770 528.350 456.410 528.710 455.960 528.710 C455.510 528.710 455.150 528.350 455.150 527.900 C455.150 527.450 455.510 527.080 455.960 527.080 C456.410 527.080 456.770 527.450 456.770 527.900 "/>
  <g begin="text">
   <text y="532.406" x="464.098,470.634,477.314,480.327,482.4798,484.541,488.845,493.149,495.301,499.605,503.909,508.213,512.517,515.386,520.12,523.886,527.652,530.942,533.229,535.381,539.685,543.989,548.292,552.596,555.466,558.111,560.496,564.584,567.857" svgx:width="0.73,0.75,0.34,0.24,0.55,0.48,0.48,0.24,0.48,0.48,0.48,0.48,0.32,0.53,0.42,0.42,0.37,0.25,0.24,0.48,0.48,0.48,0.48,0.32,0.29,0.27,0.46,0.37,0.48" style="fill:rgb(0,166,252);font-family:t1-mini-regular;font-size:8.97px;stroke:none;">DOI: 10.7717/peerj.7763/fig-6</text>
  </g>
  <g begin="text">
   <text y="562.338" x="184.309,191.705,196.287,200.291,204.8732,207.513,211.385,214.287,223.276,226.178,228.927,233.684,237.7207,240.316,243.687,249.36020000000002,251.967,255.338,261.153,266.793,270.665,275.2472,277.887,283.527,289.146,292.516,297.273,300.175,306.131,310.713,316.49530000000004,319.102,324.993,328.866,331.767,337.724,342.7426,345.338,351.131,354.033,359.924,362.596,366.4145,369.109,371.858,376.615,382.571,388.35330000000005,390.96,396.851,400.724,405.3062,407.946,413.706,418.462,421.833,426.63340000000005,429.229" svgx:width="0.68,0.42,0.37,0.42,0.55,0.35,0.27,0.82,0.27,0.25,0.44,0.37,0.55,0.31,0.52,0.55,0.31,0.53,0.52,0.35,0.42,0.55,0.52,0.51,0.31,0.44,0.27,0.55,0.42,0.53,0.55,0.54,0.35,0.27,0.55,0.46,0.55,0.53,0.27,0.54,0.25,0.35,0.55,0.25,0.44,0.55,0.53,0.55,0.54,0.35,0.42,0.55,0.53,0.44,0.31,0.44,0.55,0.37" style="fill:rgb(0,0,0);font-family:t1-mini-regular;font-size:10.91px;stroke:none;">were similar to those obtained using Liu’s land use data (</text>
   <text y="562.338" x="433.266,439.877,444.633,450.251,453.0,457.5822,460.211" svgx:width="0.61,0.44,0.51,0.25,0.42,0.55,0.48" style="fill:rgb(0,166,252);font-family:t1-mini-regular;font-size:10.91px;stroke:none;">Table 1</text>
   <text y="562.338" x="465.448,469.484,472.1024,474.742,480.535,485.291,489.295,494.269,498.851,502.8877,505.495,510.044,515.859,520.615,526.571,531.546,536.128,541.9103,544.517,549.273,553.277,557.859,562.615,566.4335,569.128,574.768" svgx:width="0.37,0.24,0.55,0.53,0.44,0.37,0.46,0.42,0.37,0.55,0.42,0.53,0.44,0.55,0.46,0.42,0.53,0.55,0.44,0.37,0.42,0.44,0.35,0.55,0.52,0.29" style="fill:rgb(0,0,0);font-family:t1-mini-regular;font-size:10.91px;stroke:none;">). Larger changed areas of</text>
   <text y="577.207" x="184.309,189.294,193.876,198.851,203.433,206.804,211.56,214.931,217.833,223.473,229.4735,231.851,235.222,240.098,245.858,250.44,254.2585,256.745,264.142,268.724,272.727,277.3092,279.731,285.491,290.073,293.444,298.025,302.575,305.945,310.527,316.3093,318.709,321.611,327.6115,330.0,333.371,339.185,342.087,345.90549999999996,348.382,352.255,355.625,361.516,367.276,372.1855,374.575,377.945,383.76,388.516,394.5165,396.906,399.807" svgx:width="0.46,0.42,0.46,0.42,0.31,0.44,0.31,0.27,0.52,0.55,0.55,0.31,0.45,0.53,0.42,0.35,0.55,0.68,0.42,0.37,0.42,0.55,0.53,0.42,0.31,0.42,0.42,0.31,0.42,0.53,0.55,0.27,0.55,0.55,0.31,0.53,0.27,0.35,0.55,0.35,0.31,0.54,0.53,0.45,0.55,0.31,0.53,0.44,0.55,0.55,0.27,0.55" style="fill:rgb(0,0,0);font-family:t1-mini-regular;font-size:10.91px;stroke:none;">vegetation types were detected in this study than in</text>
   <text y="577.207" x="408.185,413.858,416.803,422.4762,425.04,429.24,432.51300000000003,435.0,440.17,442.854,445.4724,447.981,452.018,457.145,462.272,467.4,472.527" svgx:width="0.52,0.27,0.52,0.55,0.38,0.3,0.55,0.47,0.25,0.24,0.55,0.37,0.47,0.47,0.47,0.47,0.37" style="fill:rgb(0,139,191);font-family:t1-mini-regular-italic;font-size:10.91px;stroke:none;">Liu et al. (2002)</text>
   <text y="577.207" x="476.562,479.1804,481.602,487.22,491.802,496.351,501.108,506.998,510.871,515.4531999999999,517.886,526.875,532.515,536.518,541.1002000000001,543.522,549.282,553.864,557.235,561.991,564.893,567.642,572.224" svgx:width="0.24,0.55,0.51,0.42,0.42,0.44,0.54,0.35,0.42,0.55,0.82,0.52,0.37,0.42,0.55,0.53,0.42,0.31,0.44,0.27,0.25,0.42,0.53" style="fill:rgb(0,0,0);font-family:t1-mini-regular;font-size:10.91px;stroke:none;">, because more detailed</text>
   <text y="592.077" x="184.309,188.858,194.673,199.429,205.385,210.36,214.942,218.7605,221.727,224.629,230.62949999999998,233.498,236.247,241.004,246.96,252.7423,255.644,261.535,265.407,269.9892,272.902,277.451,283.091,288.982,291.731,297.5133,300.404,306.022,310.6042,313.527,319.287,323.869,327.24,331.822,336.371,339.742,344.324,350.10630000000003,352.996,358.887,362.76,365.662,371.618,376.6366,379.506,382.876,388.691,393.2732,396.186,398.935,403.691,409.647,415.4293,418.331,424.222,428.095,432.6772,435.589,441.349,446.106,449.476,454.2764,457.146,464.542,467.444,470.815,476.5973,479.542,485.356,488.258,493.233,499.047,503.629,507.6657,510.556,514.56,519.142,523.015,528.655,531.404,537.295,540.666,543.567,549.207,555.2075,558.077,562.833,568.789" svgx:width="0.42,0.53,0.44,0.55,0.46,0.42,0.35,0.55,0.27,0.55,0.55,0.25,0.44,0.55,0.53,0.55,0.54,0.35,0.42,0.55,0.42,0.52,0.54,0.25,0.53,0.55,0.51,0.42,0.55,0.53,0.42,0.31,0.42,0.42,0.31,0.42,0.53,0.55,0.54,0.35,0.27,0.55,0.46,0.55,0.31,0.53,0.42,0.55,0.25,0.44,0.55,0.53,0.55,0.54,0.35,0.42,0.55,0.53,0.44,0.31,0.44,0.55,0.68,0.27,0.31,0.53,0.55,0.53,0.27,0.46,0.53,0.42,0.37,0.55,0.37,0.42,0.35,0.52,0.25,0.54,0.31,0.27,0.52,0.55,0.55,0.44,0.55,0.53" style="fill:rgb(0,0,0);font-family:t1-mini-regular;font-size:10.91px;stroke:none;">changes in land use could be detected using the land use data with higher resolution and</text>
   <text y="606.946" x="184.309,193.298,198.938,202.942,207.5242,210.251,216.011,220.593,223.964,228.72,231.622,234.371,238.953,244.7353,247.44,252.425,257.007,261.982,266.564,269.935,274.691,278.062,280.964,286.604,292.6045,295.287,298.658,303.535,309.295,313.876,317.69449999999995,320.476,324.513,329.749,334.98580000000004,337.713,341.084,345.96,351.72,356.302,360.175,364.211" svgx:width="0.82,0.52,0.37,0.42,0.55,0.53,0.42,0.31,0.44,0.27,0.25,0.42,0.53,0.55,0.46,0.42,0.46,0.42,0.31,0.44,0.31,0.27,0.52,0.55,0.55,0.31,0.45,0.53,0.42,0.35,0.55,0.37,0.48,0.48,0.55,0.31,0.45,0.53,0.42,0.35,0.37,0.24" style="fill:rgb(0,0,0);font-family:t1-mini-regular;font-size:10.91px;stroke:none;">more detailed vegetation types (24 types).</text>
   <text y="636.712" x="184.309,194.379,198.257,207.56,217.63,227.7,237.003,246.307,250.184,261.035" svgx:width="0.72,0.28,0.67,0.72,0.72,0.67,0.67,0.28,0.78,0.72" style="fill:rgb(0,166,252);font-family:TeXGyreHeros-Bold;font-size:13.95px;stroke:none;">DISCUSSION</text>
   <text y="655.566" x="184.309,190.92,196.734,201.3162,204.524,208.527,213.109,215.858,220.615,223.985,226.887,231.873,236.4552,239.662,244.211,249.851,255.807,259.178,263.182,266.084,271.702,277.593,280.964,283.865,289.505,295.462,299.28049999999996,302.542,308.182,311.34590000000003,314.607,320.422,326.313,335.302,340.058,346.0585,349.222,354.982,357.884,361.756,365.127,371.018,375.022,380.64,385.396,391.353,395.902,400.4842,403.691,408.447,414.404,420.1863,423.371,427.92,430.669,433.571,442.56,447.317,450.687,455.2692,458.477,463.026,468.84,473.597,479.553,484.527,489.1092,492.317,497.957,503.9575,507.12,510.491,516.306,520.8882000000001,524.095,529.08,533.662,538.637,543.219,546.589,551.346,554.717,557.618,563.258" svgx:width="0.61,0.53,0.42,0.55,0.37,0.42,0.25,0.44,0.31,0.27,0.46,0.42,0.55,0.42,0.52,0.55,0.31,0.37,0.27,0.51,0.54,0.31,0.27,0.52,0.55,0.35,0.55,0.52,0.29,0.55,0.53,0.54,0.82,0.44,0.55,0.55,0.53,0.27,0.35,0.31,0.54,0.37,0.51,0.44,0.55,0.42,0.42,0.55,0.44,0.55,0.53,0.55,0.42,0.25,0.27,0.82,0.44,0.31,0.42,0.55,0.42,0.53,0.44,0.55,0.46,0.42,0.55,0.52,0.55,0.55,0.31,0.53,0.42,0.55,0.46,0.42,0.46,0.42,0.31,0.44,0.31,0.27,0.52,0.55" style="fill:rgb(0,0,0);font-family:t1-mini-regular;font-size:10.91px;stroke:none;">The relative contributions of human disturbance and climate change on the vegetation</text>
   <text y="670.435" x="184.309,188.858,194.673,199.429,205.385,210.36,214.942,218.7605,222.393,229.789,234.545,238.3635,241.996,245.869,250.451,256.211,260.967,264.971,269.727,273.098,277.68,283.4623,287.018,292.636,297.5455,301.091,305.64,311.28,320.269,326.029,330.786,334.789,337.691,343.647,348.6656,352.2,355.571,361.386,365.9682,369.546,375.306,378.207,381.426,384.644,389.226,393.229,397.811,403.767,408.316,412.898,416.7165,420.349,425.967,430.549,433.92,441.316,445.898,450.48,456.4805,460.015,464.596,469.713,472.615,476.487,479.858,482.76,488.716,493.7346,497.269,502.255,506.837,511.811,516.393,519.764,524.52,527.891,530.793,536.433,542.4335,545.967,550.724,556.68" svgx:width="0.42,0.53,0.44,0.55,0.46,0.42,0.35,0.55,0.68,0.44,0.35,0.55,0.35,0.42,0.53,0.44,0.37,0.44,0.31,0.42,0.53,0.55,0.51,0.45,0.55,0.42,0.52,0.82,0.53,0.44,0.37,0.27,0.55,0.46,0.55,0.31,0.53,0.42,0.55,0.53,0.27,0.29,0.29,0.42,0.37,0.42,0.55,0.42,0.42,0.35,0.55,0.51,0.42,0.31,0.68,0.42,0.42,0.55,0.55,0.42,0.47,0.27,0.35,0.31,0.27,0.55,0.46,0.55,0.46,0.42,0.46,0.42,0.31,0.44,0.31,0.27,0.52,0.55,0.55,0.44,0.55,0.53" style="fill:rgb(0,0,0);font-family:t1-mini-regular;font-size:10.91px;stroke:none;">changes was separated by comparing the differences between existing vegetation and</text>
   <text y="685.305" x="184.309,190.069,195.709,199.08,203.662,209.618,212.989,215.891,220.647,223.37449999999998,226.636,231.622,236.204,241.178,245.76,249.131,253.887,257.258,260.16,265.8,271.756,274.3744,277.625,283.713,289.353,292.724,297.306,303.262,306.633,309.535,314.291,317.0185,320.291,325.276,329.858,334.833,339.415,342.786,347.542,350.913,353.815,359.455,365.4555,368.651,374.411,377.313,381.186,384.556,388.56,391.462,397.08,402.971,406.342,409.244,414.884,420.8845,424.091,426.993,430.81149999999997,434.106,437.477,443.291,447.8732,451.124,456.109,460.691,465.666,470.247,473.618,478.375,481.746,484.647,490.287,496.28749999999997,499.484,506.88,509.782,513.153,518.968,524.608,530.498,533.8801000000001,537.12,542.935,548.826,557.815,562.571" svgx:width="0.53,0.52,0.31,0.42,0.55,0.31,0.27,0.44,0.25,0.55,0.46,0.42,0.46,0.42,0.31,0.44,0.31,0.27,0.52,0.55,0.24,0.55,0.56,0.52,0.31,0.42,0.55,0.31,0.27,0.44,0.25,0.55,0.46,0.42,0.46,0.42,0.31,0.44,0.31,0.27,0.52,0.55,0.55,0.53,0.27,0.35,0.31,0.37,0.27,0.51,0.54,0.31,0.27,0.52,0.55,0.55,0.27,0.35,0.55,0.31,0.53,0.42,0.55,0.46,0.42,0.46,0.42,0.31,0.44,0.31,0.27,0.52,0.55,0.55,0.68,0.27,0.31,0.53,0.52,0.54,0.31,0.55,0.53,0.54,0.82,0.44,0.55" style="fill:rgb(0,0,0);font-family:t1-mini-regular;font-size:10.91px;stroke:none;">potential vegetation. Potential vegetation distribution is the vegetation without human</text>
   <text y="700.174" x="184.309,190.069,192.971,196.844,200.214,206.105,210.109,215.727,220.484,226.44,230.989,235.571,239.444,242.0624,245.596,250.353,256.309,262.09130000000005,265.593,268.495,271.8771,275.4,282.796,287.553,291.37149999999997,294.96,298.833,301.735,310.724,313.626,316.375,321.131,325.16769999999997,328.669,332.04,337.71320000000003,341.204,346.964,352.604,355.975,360.556,366.513,369.884,372.786,377.542,380.2695,383.826,389.782,394.538,397.909,403.8,407.804,412.56,415.2875,418.844,423.829,428.411,433.386,437.967,441.338,446.095,449.466,452.367,458.007,464.0075,467.487,470.389,476.3895,479.88,485.117,490.353,495.589,500.8258,504.36,509.117,512.9355,516.513,522.273,526.855,530.073,532.975,538.931,543.513,549.2953,552.807,558.426" svgx:width="0.53,0.27,0.35,0.31,0.54,0.37,0.51,0.44,0.55,0.42,0.42,0.35,0.24,0.55,0.44,0.55,0.53,0.55,0.27,0.31,0.55,0.68,0.44,0.35,0.55,0.35,0.27,0.82,0.27,0.25,0.44,0.37,0.55,0.31,0.52,0.55,0.53,0.52,0.31,0.42,0.55,0.31,0.27,0.44,0.25,0.55,0.55,0.44,0.31,0.54,0.37,0.44,0.25,0.55,0.46,0.42,0.46,0.42,0.31,0.44,0.31,0.27,0.52,0.55,0.55,0.27,0.55,0.55,0.48,0.48,0.48,0.48,0.55,0.44,0.35,0.55,0.53,0.42,0.29,0.27,0.55,0.42,0.53,0.55,0.51,0.45" style="fill:rgb(0,0,0);font-family:t1-mini-regular;font-size:10.91px;stroke:none;">disturbances, and it was similar to potential natural vegetation in 1700 as defined by</text>
   <text y="715.044" x="184.309,190.942,196.113,204.6,209.771,215.465,220.374,226.102,229.353,232.604,237.29530000000003,239.825,248.0075,250.516,256.178,261.109,263.793,267.993,272.6843,275.215,279.251,284.378,289.506,294.633,299.76" svgx:width="0.61,0.47,0.78,0.47,0.52,0.45,0.52,0.3,0.3,0.43,0.55,0.75,0.55,0.52,0.45,0.25,0.38,0.43,0.55,0.37,0.47,0.47,0.47,0.47,0.37" style="fill:rgb(0,139,191);font-family:t1-mini-regular-italic;font-size:10.91px;stroke:none;">Ramankutty &amp; Foley (1999)</text>
   <text y="715.044" x="307.53,312.286,318.243" svgx:width="0.44,0.55,0.53" style="fill:rgb(0,0,0);font-family:t1-mini-regular;font-size:10.91px;stroke:none;">and</text>
   <text y="715.044" x="327.737,333.65,336.333,339.017,341.962,345.4532,347.952,352.152,355.425,357.912,363.082,365.766,368.3844,370.893,374.93,380.057,385.184,390.312,395.439" svgx:width="0.54,0.25,0.25,0.27,0.32,0.55,0.38,0.3,0.55,0.47,0.25,0.24,0.55,0.37,0.47,0.47,0.47,0.47,0.37" style="fill:rgb(0,139,191);font-family:t1-mini-regular-italic;font-size:10.91px;stroke:none;">Ellis et al. (2010)</text>
   <text y="715.044" x="399.475,402.09340000000003,405.835,412.446,418.26,422.8422,426.573,431.155,436.271,439.173,443.046,446.417,449.319,455.275,460.29359999999997,463.981,468.966,473.548,478.522,483.104,486.475,491.231,494.602,497.504,503.144,509.1445,512.842,516.213,521.09,526.85,531.432,535.2505,539.035,546.432,551.013,555.017" svgx:width="0.24,0.55,0.61,0.53,0.42,0.55,0.42,0.47,0.27,0.35,0.31,0.27,0.55,0.46,0.55,0.46,0.42,0.46,0.42,0.31,0.44,0.31,0.27,0.52,0.55,0.55,0.31,0.45,0.53,0.42,0.35,0.55,0.68,0.42,0.37,0.42" style="fill:rgb(0,0,0);font-family:t1-mini-regular;font-size:10.91px;stroke:none;">. The existing vegetation types were</text>
  </g>
  <path style="fill:none;stroke:rgb(0,0,0);stroke-width:0.5;" d="M34.020 745.970 L577.980 745.970 "/>
  <g begin="text">
   <text y="759.415" x="34.016,39.494,44.973,49.958,55.437,60.908699999999996,63.408,68.393,73.872,79.3437,81.843,88.317,93.795,98.78,104.259,109.7307,112.23,115.216,120.201,125.186,130.172,135.157,138.143" svgx:width="0.61,0.61,0.56,0.61,0.61,0.55,0.56,0.61,0.61,0.55,0.72,0.61,0.56,0.61,0.61,0.55,0.33,0.56,0.56,0.56,0.56,0.33,0.28" style="fill:rgb(51,51,51);font-family:TeXGyreHeros-Bold;font-size:8.97px;stroke:none;">Zhang and Huang (2019),</text>
   <text y="759.415" x="143.128,148.974,153.959,158.945,162.433" svgx:width="0.67,0.56,0.56,0.39,0.56" style="fill:rgb(51,51,51);font-family:TeXGyreHeros-BoldItalic;font-size:8.97px;stroke:none;">PeerJ</text>
   <text y="759.415" x="167.417,169.9286,172.402,178.876,185.852,188.3636,190.837,195.823,200.808,203.301,208.286,213.271,218.257,223.242,225.734,231.213,236.198,241.184,244.672,247.164,249.657,254.642,259.627,264.613" svgx:width="0.28,0.55,0.72,0.78,0.28,0.55,0.56,0.56,0.28,0.56,0.56,0.56,0.56,0.28,0.61,0.56,0.56,0.39,0.28,0.28,0.56,0.56,0.56,0.56" style="fill:rgb(51,51,51);font-family:TeXGyreHeros-Bold;font-size:8.97px;stroke:none;">, DOI 10.7717/peerj.7763</text>
  </g>
  <path style="fill:none;stroke:rgb(191,191,191);stroke-width:1.0;" d="M454.030 752.230 L558.040 752.230 "/>
  <path style="fill:none;stroke:rgb(191,191,191);stroke-width:0.25;" d="M454.130 759.520 L454.130 752.230 "/>
  <path style="fill:none;stroke:rgb(191,191,191);stroke-width:0.25;" d="M557.940 759.520 L557.940 752.230 "/>
  <path style="fill:none;stroke:rgb(191,191,191);stroke-width:0.25;" d="M454.030 759.520 L558.040 759.520 "/>
  <g begin="text">
   <text y="759.415" x="560.536,565.521,568.014,572.999" svgx:width="0.56,0.28,0.56,0.56" style="fill:rgb(0,166,252);font-family:TeXGyreHeros-Bold;font-size:8.97px;stroke:none;">8/15</text>
  </g>
 </g>
</svg>
